<svg width="970" height="454" viewBox="0 0 970 454" fill="none" xmlns="http://www.w3.org/2000/svg">
<mask id="mask0" mask-type="alpha" maskUnits="userSpaceOnUse" x="0" y="0" width="970" height="454">
<rect width="970" height="454" fill="#C4C4C4"/>
</mask>
<g mask="url(#mask0)">
<path d="M117.369 240.363C110.559 329.427 211.012 342.012 262.089 337.172C279.115 334.752 311.465 311.034 304.655 235.523C297.845 160.012 220.741 81.4353 183.041 51.5859C129.531 19.7197 32.4833 -22.2308 72.3726 64.8971C122.234 173.807 125.882 129.033 117.369 240.363Z" fill="#7873D7" fill-opacity="0.8"/>
<path d="M254.764 408.939C254.148 408.897 253.522 408.857 252.886 408.82C248.384 375.737 242.124 327.203 241.592 307.144C240.851 279.204 181.392 298.315 181.454 258.304C181.516 218.294 180.551 208.375 167.064 203.934C153.576 199.492 138.4 246.802 118.318 194.92C98.2358 143.039 65.5181 144.25 55.2018 143.937C44.8854 143.623 37.0388 144.297 79.6131 211.848C122.187 279.399 90.0602 254.156 73.0442 298.824C56.0283 343.491 124.513 348.008 138.752 347.985C152.992 347.961 129.244 385.889 138.127 399.928C145.113 410.968 215.934 406.618 252.886 408.82C253.401 412.601 253.893 416.181 254.35 419.494L254.764 408.939Z" fill="#2F4CAC" fill-opacity="0.42"/>
<rect x="148" y="33" width="711.438" height="390.79" fill="#2F539B"/>
<rect x="159" y="56" width="688.672" height="344.336" fill="#F6F7FB"/>
<rect x="159" y="56" width="189.433" height="344" fill="#4886FF" fill-opacity="0.6"/>
<rect x="548.5" y="84.5" width="279" height="73" rx="1.5" fill="white" stroke="#CBCBCB"/>
<rect x="712" y="100" width="94.4231" height="5.94118" rx="2.97059" fill="#8EB3FD"/>
<rect x="712" y="117.941" width="94.4231" height="5.94118" rx="2.97059" fill="#8EB3FD"/>
<rect x="712" y="135.883" width="94.4231" height="5.94118" rx="2.97059" fill="#8EB3FD"/>
<path d="M606.229 144.303L599.583 137.053L602.387 134.25L606.229 138.093L614.905 129.417L617.708 132.824L606.229 144.303ZM592.333 98C603.01 98 611.667 102.326 611.667 107.667C611.667 113.008 603.01 117.333 592.333 117.333C581.656 117.333 573 113.008 573 107.667C573 102.326 581.656 98 592.333 98ZM573 112.5C573 117.841 581.656 122.167 592.333 122.167C603.01 122.167 611.667 117.841 611.667 112.5V119.75C611.667 120.78 611.345 121.77 610.748 122.701C607.656 121.832 604.362 122.015 601.385 123.221C598.408 124.428 595.916 126.589 594.3 129.366L592.333 129.417C581.656 129.417 573 125.091 573 119.75V112.5ZM573 124.583C573 129.924 581.657 134.25 592.534 134.25L592.333 136.667C592.333 138.358 592.623 139.982 593.155 141.49L592.333 141.5C581.656 141.5 573 137.174 573 131.833V124.583Z" fill="#274C97" fill-opacity="0.6"/>
<path fill-rule="evenodd" clip-rule="evenodd" d="M640.539 110.024C642.182 104.238 647.504 100 653.817 100C660.52 100 666.106 104.778 667.357 111.113C668.5 110.72 669.727 110.507 671.003 110.507C677.199 110.507 682.223 115.531 682.223 121.727C682.223 127.035 678.537 131.482 673.585 132.648C673.027 132.842 672.428 132.947 671.804 132.947H624.432C621.432 132.947 619 130.515 619 127.515C619 124.515 621.432 122.083 624.432 122.083H627.554C627.318 121.233 627.192 120.337 627.192 119.412C627.192 113.904 631.658 109.439 637.166 109.439C638.349 109.439 639.485 109.645 640.539 110.024Z" fill="#DCEDF4"/>
<path fill-rule="evenodd" clip-rule="evenodd" d="M654.662 116.077C656.305 110.291 661.628 106.053 667.94 106.053C674.643 106.053 680.229 110.831 681.48 117.166C682.623 116.774 683.85 116.561 685.126 116.561C691.322 116.561 696.346 121.584 696.346 127.78C696.346 133.088 692.66 137.535 687.708 138.701C687.15 138.895 686.551 139 685.927 139H638.555C635.555 139 633.124 136.568 633.124 133.568C633.124 130.568 635.555 128.137 638.555 128.137H641.677C641.441 127.286 641.315 126.39 641.315 125.465C641.315 119.957 645.781 115.492 651.289 115.492C652.472 115.492 653.608 115.698 654.662 116.077Z" fill="#F0FAFC"/>
<rect x="363" y="74" width="149" height="290.408" rx="5" fill="#C5CCE7"/>
<rect x="369.438" y="80.6426" width="136.123" height="277.121" rx="5" fill="#8EB3FD"/>
<rect x="418.184" y="90.1338" width="39.5494" height="4.74522" rx="2.37261" fill="#4632C3"/>
<g filter="url(#filter0_d)">
<rect x="373.113" y="106.268" width="126.006" height="35.1146" rx="7" fill="white"/>
</g>
<ellipse cx="395.19" cy="123.349" rx="9.19753" ry="9.49045" fill="#FFCDD6"/>
<rect x="409.904" y="119.554" width="80.0185" height="3.79618" rx="1.89809" fill="#B1D7FF"/>
<rect x="409.904" y="125.249" width="34.0309" height="3.79618" rx="1.89809" fill="#B1D7FF"/>
<g filter="url(#filter1_d)">
<path d="M374.035 335.462C374.035 329.959 378.497 325.497 384 325.497H490.076C495.58 325.497 500.041 329.959 500.041 335.462V335.462C500.041 340.966 495.58 345.427 490.076 345.427H384C378.497 345.427 374.035 340.966 374.035 335.462V335.462Z" fill="white"/>
</g>
<rect opacity="0.87" x="394.266" y="333.09" width="86.4568" height="4.74522" rx="2.37261" fill="#8EB3FD"/>
<rect x="374.035" y="151.822" width="125.086" height="160.389" rx="6" fill="white"/>
<rect x="532.5" y="168.5" width="293.362" height="100" rx="8.5" fill="white" stroke="#CBCBCB"/>
<circle cx="569" cy="210" r="12" fill="#F27CAD"/>
<rect x="593.324" y="199.706" width="118.563" height="5.94118" rx="2.97059" fill="#7873D7"/>
<rect x="593.324" y="215.647" width="50.4231" height="5.94118" rx="2.97059" fill="#7873D7"/>
<rect x="556.531" y="239.412" width="83.13" height="5.94118" rx="2.97059" fill="#7873D7"/>
<rect x="643.746" y="239.412" width="29.9813" height="5.94118" rx="2.97059" fill="#7873D7"/>
<rect x="679.18" y="239.412" width="47.6976" height="5.94118" rx="2.97059" fill="#7873D7"/>
<rect x="732.33" y="239.412" width="14.9907" height="5.94118" rx="2.97059" fill="#7873D7"/>
<rect x="751.41" y="239.412" width="66.7766" height="5.94118" rx="2.97059" fill="#7873D7"/>
<rect x="185.5" y="321.5" width="148" height="50.1241" rx="8.5" fill="white" stroke="#CBCBCB"/>
<circle cx="203.728" cy="342.26" r="6.07415" fill="#F27CAD"/>
<rect x="216.041" y="337.049" width="60.0139" height="3.0073" rx="1.50365" fill="#7873D7"/>
<rect x="216.041" y="345.118" width="25.5231" height="3.0073" rx="1.50365" fill="#7873D7"/>
<rect x="197.418" y="357.147" width="42.0787" height="3.0073" rx="1.50365" fill="#7873D7"/>
<rect x="241.564" y="357.147" width="15.1759" height="3.0073" rx="1.50365" fill="#7873D7"/>
<rect x="259.5" y="357.147" width="24.1435" height="3.0073" rx="1.50365" fill="#7873D7"/>
<rect x="286.404" y="357.147" width="7.58796" height="3.0073" rx="1.50365" fill="#7873D7"/>
<rect x="296.061" y="357.147" width="33.8009" height="3.0073" rx="1.50365" fill="#7873D7"/>
<rect x="532.5" y="281.5" width="293.362" height="100" rx="8.5" fill="white" stroke="#AAB1B6"/>
<circle cx="569" cy="317" r="12" fill="#F5AA45"/>
<rect x="592" y="309" width="118.563" height="5.94118" rx="2.97059" fill="#8EB3FD"/>
<rect x="592" y="323.103" width="50.4231" height="5.94118" rx="2.97059" fill="#8EB3FD"/>
<rect x="547.531" y="340.412" width="83.13" height="5.94118" rx="2.97059" fill="#8EB3FD"/>
<rect x="634.746" y="340.412" width="29.9813" height="5.94118" rx="2.97059" fill="#8EB3FD"/>
<rect x="670.18" y="340.412" width="47.6976" height="5.94118" rx="2.97059" fill="#8EB3FD"/>
<rect x="723.33" y="340.412" width="14.9907" height="5.94118" rx="2.97059" fill="#8EB3FD"/>
<rect x="742.41" y="340.412" width="66.7766" height="5.94118" rx="2.97059" fill="#8EB3FD"/>
<path d="M939.986 319.398C944.505 284.755 923.086 285.612 910.218 290.895C909.448 291.211 908.61 290.555 908.788 289.742C915.437 259.289 926.405 197.163 920.215 177.047C914.182 157.441 889.693 167.436 876.574 175.835C875.85 176.299 874.903 175.704 875.007 174.85C880.895 126.452 887.847 88.0187 839.154 84.1232C800.23 81.0093 796.428 137.668 799.462 167.727C799.532 168.421 798.859 168.951 798.18 168.793C761.746 160.358 765.426 187.784 771.932 202.749C781.818 235.042 798.426 297.254 785.772 287.764C773.28 278.395 764.898 283.671 762.15 287.612C762.08 287.714 762.032 287.832 762.005 287.953C738.424 394.537 825.333 402.436 856.948 402.436C888.581 402.436 934.055 364.871 939.986 319.398Z" fill="#8EBEFB"/>
<path d="M839.192 126.749C842.048 192.352 841.83 345.009 839.191 419.634L857 423C851.064 274.874 837.213 81.3009 839.192 126.749Z" fill="#0F287A"/>
<path d="M852.994 382.666C872.106 369.485 912.307 337.193 920.216 313.467" stroke="#0F287A" stroke-linecap="round"/>
<path d="M843.107 364.873C827.368 354.328 794.261 328.494 787.749 309.514" stroke="#0F287A" stroke-linecap="round"/>
<path d="M847.062 258.109C865.05 246.058 902.887 216.533 910.33 194.842" stroke="#0F287A" stroke-linecap="round"/>
<path d="M847.062 285.788C835.82 278.256 792.401 206.422 787.749 192.864" stroke="#0F287A" stroke-linecap="round"/>
<path d="M898.515 301.605C897.856 314.786 903.656 339.17 932.126 331.262" stroke="#0F287A" stroke-width="0.5" stroke-linecap="round"/>
<path d="M870.836 329.284C870.177 342.465 875.976 366.849 904.446 358.941" stroke="#0F287A" stroke-width="0.5" stroke-linecap="round"/>
<path d="M874.791 198.795C874.132 211.976 879.931 236.36 908.401 228.452" stroke="#0F287A" stroke-width="0.5" stroke-linecap="round"/>
<path d="M823.298 226.475C823.84 236.498 819.071 255.04 795.658 249.026" stroke="#0F287A" stroke-width="0.5" stroke-linecap="round"/>
<path d="M815.39 313.467C815.932 323.49 811.163 342.032 787.75 336.018" stroke="#0F287A" stroke-width="0.5" stroke-linecap="round"/>
<rect x="799.701" y="419.85" width="13.5034" height="50.338" rx="6.75171" transform="rotate(-90 799.701 419.85)" fill="#10256B"/>
<rect x="788.307" y="413.853" width="19.8996" height="74.1815" rx="9.9498" transform="rotate(-90 788.307 413.853)" fill="#011042"/>
<rect x="788.807" y="413.353" width="18.8996" height="73.1815" rx="9.4498" transform="rotate(-90 788.807 413.353)" stroke="white" stroke-opacity="0.04"/>
<path fill-rule="evenodd" clip-rule="evenodd" d="M894.26 295.089C905.638 252.626 880.438 208.979 837.975 197.601C795.512 186.224 751.866 211.423 740.488 253.886C731.242 288.392 746.149 323.68 774.847 341.798C783.725 351.416 790.9 362.033 790.886 373.341L859.292 365.183C859.823 363.2 860.3 361.215 860.779 359.219C862.754 350.994 864.77 342.596 870.824 333.483C881.804 323.554 890.144 310.451 894.26 295.089Z" fill="#FD8221"/>
<mask id="mask1" mask-type="alpha" maskUnits="userSpaceOnUse" x="714" y="177" width="201" height="217">
<path fill-rule="evenodd" clip-rule="evenodd" d="M894.26 295.089C905.638 252.626 880.438 208.979 837.975 197.601C795.512 186.224 751.866 211.423 740.488 253.886C731.242 288.392 746.149 323.68 774.847 341.798C783.725 351.416 790.9 362.033 790.886 373.341L859.292 365.183C859.823 363.2 860.3 361.215 860.779 359.219C862.754 350.994 864.77 342.596 870.824 333.483C881.804 323.554 890.144 310.451 894.26 295.089Z" fill="#FD8221"/>
</mask>
<g mask="url(#mask1)">
<path fill-rule="evenodd" clip-rule="evenodd" d="M888.031 296.363C899.409 253.9 874.21 210.253 831.747 198.875C789.284 187.497 745.637 212.697 734.259 255.16C725.013 289.666 739.921 324.954 768.618 343.072C777.496 352.69 784.672 363.307 784.658 374.615L853.063 366.457C853.595 364.474 854.071 362.488 854.55 360.493C856.526 352.268 858.542 343.87 864.596 334.757C875.575 324.828 883.915 311.725 888.031 296.363Z" fill="#FDAC1A"/>
</g>
<path d="M807.688 300.722L812.831 363.905L824.551 364.102L824.262 299.277C827.884 282.099 839.114 252.636 838.977 244.359C838.841 236.081 834.344 239.683 832.113 242.519L819.33 278.587C818.923 279.736 817.206 279.296 817.401 278.093L823.311 241.632C822.037 235.405 817.697 240.618 818.456 243.275L815.492 275.179C815.378 276.414 813.561 276.376 813.498 275.137L811.787 241.488C806.159 231.739 805.045 239.191 805.192 244.135L810.35 278.141C810.53 279.329 809.436 279.582 809.114 278.424C806.135 267.692 801.579 251.067 798.964 245.409C793.551 239.25 792.557 243.693 792.737 246.684L811.295 285.801C811.729 286.716 811.195 287.062 810.588 286.251C805.345 279.254 792.583 261.288 787.047 256.932C780.242 251.576 780.73 256.711 781.825 259.947L807.688 300.722Z" stroke="#FFDC87" stroke-width="0.3"/>
<rect x="787.23" y="395.906" width="19.8996" height="74.1815" rx="9.9498" transform="rotate(-90 787.23 395.906)" fill="#011042"/>
<rect x="787.73" y="395.406" width="18.8996" height="73.1815" rx="9.4498" transform="rotate(-90 787.73 395.406)" stroke="white" stroke-opacity="0.04"/>
<rect x="786.152" y="377.959" width="19.8996" height="74.1815" rx="9.9498" transform="rotate(-90 786.152 377.959)" fill="#011042"/>
<rect x="786.652" y="377.459" width="18.8996" height="73.1815" rx="9.4498" transform="rotate(-90 786.652 377.459)" stroke="white" stroke-opacity="0.04"/>
<ellipse cx="756.345" cy="287.569" rx="8.5284" ry="15.6354" transform="rotate(-2.62454 756.345 287.569)" fill="white" fill-opacity="0.31"/>
<path d="M855.81 414.429C860.467 406.601 860.125 402.639 859.372 401.637L856.734 395.621L867.64 393.543C867.767 395.173 868.134 399.147 868.588 402.005C869.155 405.578 872.543 409.149 879.319 415.349C886.094 421.549 877.821 424.001 869.916 416.297C862.011 408.593 859.571 414.425 857.315 415.179C855.51 415.783 855.559 414.93 855.81 414.429Z" fill="#EE9F86"/>
<path d="M767.494 347.383L817.932 390.424L802.404 408.891L767.015 381.52L737.067 417.11L722.832 408.891L759.991 348.564C761.6 345.952 765.16 345.391 767.494 347.383Z" fill="#332D7B"/>
<path d="M672.625 411.802L692.291 411.802L691.159 399.348L672.625 398.782L672.625 411.802Z" fill="#EE9F86"/>
<path d="M674.727 398.309C673.379 401.468 673.042 408.838 673.042 412.128L673.042 412.622L659.001 413.609L659.001 374.619C659.001 367.117 662.745 370.835 664.617 373.632C664.617 380.739 671.357 393.044 674.727 398.309Z" fill="#1D104A"/>
<path d="M821.328 422.844C846.689 423.297 848.733 395.883 846.657 386.071L796.42 386.681C782.255 389.257 755.204 389.862 743.695 389.984C740.751 390.015 737.832 390.373 734.977 391.086L732.483 391.71L682.102 395.106L682.63 414.195C694.707 413.44 703.325 416.648 720.987 418.459C738.649 420.271 748.502 420.203 754.53 417.75C766.229 419.259 795.968 422.391 821.328 422.844Z" fill="#5F5CB0"/>
<path d="M744.68 390.925C740.634 384.501 750.577 376.172 756.303 373.153L762.525 378.966C757.896 380.482 757.049 390.386 754.534 389.327C752.597 388.511 753.859 387.371 754.616 384.799C752.466 384.785 748.299 388.45 746.238 390.926C745.821 391.427 745.028 391.477 744.68 390.925Z" fill="#EE9F86"/>
<path d="M806.334 301.071C805.11 299.041 805.824 278.225 806.334 268.071L813.986 268.071L822.658 301.071L806.334 301.071Z" fill="#393939"/>
<path d="M804.416 272.385C804.244 271.467 804.29 270.457 804.437 269.444C804.974 265.737 806.9 262.252 809.318 259.391C827.836 252.504 833.299 268.742 833.716 277.721L828.03 303.271L813.972 302.354L815.601 294.722C814.122 292.773 811.748 293.175 806.899 293.528C802.05 293.882 803.494 289.716 803.449 288.982C803.423 288.548 802.843 287.853 802.334 287.335C802.09 287.087 802.106 286.675 802.383 286.465C802.625 286.281 802.673 285.935 802.489 285.693L802.206 285.321C801.918 284.941 801.932 284.412 802.241 284.048L802.542 283.692C802.771 283.422 802.795 283.034 802.601 282.738L801.567 281.16C801.033 280.345 801.174 279.271 801.824 278.545C803.255 276.945 804.831 274.596 804.416 272.385Z" fill="#EE9F86"/>
<path d="M810.138 262.61C809.925 267.658 812.472 275.235 824.247 275.235C825.74 275.033 828.599 275.72 828.087 280.081C827.447 285.533 826.807 289.168 828.727 295.225C829.751 298.617 830.86 299.869 831.287 300.071L845.366 300.071C847.073 280.687 842.166 243.736 808.888 251.005C805.049 252.62 799.557 256.358 802.489 261.909C803.763 264.321 809.265 265.332 810.156 262.552L810.138 262.61Z" fill="#393939"/>
<path d="M786.826 332.739C796.18 314.456 810.327 302.545 814.579 298.647C818.653 309.454 819.99 335.396 805.959 354.529C791.928 373.662 769.996 380.217 760.784 381.102L754.407 373.13C761.316 367.284 777.472 351.021 786.826 332.739Z" fill="#182E79"/>
<path d="M805.428 386.949C800.751 368.241 810.682 320.438 814.58 298.648C816.085 299.316 817.803 299.314 819.307 298.642L820.309 298.193L838.379 298.725L852.197 386.949H805.428Z" fill="white"/>
<path d="M809.68 385.885C802.026 359.524 814.286 312.897 821.372 292.878L852.197 291.815C858.575 295.642 850.957 307.582 846.351 313.074C865.059 331.782 871.153 380.039 871.861 401.829C868.495 402.007 859.934 402.996 858.659 402.571C857.383 402.146 854.323 391.731 852.197 386.948L809.68 385.885Z" fill="#2F4CAC"/>
<mask id="mask2" mask-type="alpha" maskUnits="userSpaceOnUse" x="807" y="291" width="65" height="112">
<path d="M809.68 385.885C802.026 359.524 814.286 312.897 821.372 292.878L852.197 291.815C858.575 295.642 850.957 307.582 846.351 313.074C865.059 331.782 871.153 380.039 871.861 401.829C868.495 402.007 860.434 402.496 859.159 402.071C857.883 401.646 854.323 391.731 852.197 386.948L809.68 385.885Z" fill="#1DB6E7"/>
</mask>
<g mask="url(#mask2)">
<path d="M841.568 355.592L852.197 388.012L834.127 393.858L841.568 355.592Z" fill="#182E79"/>
</g>
<path d="M166.964 67.9402L335.439 66.0422L338.197 294.028L169.705 296.066L166.964 67.9402Z" fill="#274C97"/>
<mask id="mask3" mask-type="alpha" maskUnits="userSpaceOnUse" x="166" y="64" width="173" height="231">
<path d="M166.926 66.5298L335.336 64.6665L338.094 292.652L169.601 294.69L166.926 66.5298Z" fill="#1A7BBF"/>
</mask>
<g mask="url(#mask3)">
<line x1="168.091" y1="69.2506" x2="171.326" y2="296.299" stroke="white" stroke-opacity="0.2" stroke-width="0.4"/>
<line x1="173.61" y1="69.172" x2="176.845" y2="296.22" stroke="white" stroke-opacity="0.2" stroke-width="0.4"/>
<line x1="179.128" y1="69.0929" x2="182.363" y2="296.141" stroke="white" stroke-opacity="0.2" stroke-width="0.4"/>
<line x1="184.645" y1="69.0142" x2="187.88" y2="296.062" stroke="white" stroke-opacity="0.2" stroke-width="0.4"/>
<line x1="190.177" y1="69.7237" x2="193.412" y2="296.772" stroke="white" stroke-opacity="0.2" stroke-width="0.4"/>
<line x1="195.692" y1="69.6456" x2="198.927" y2="296.694" stroke="white" stroke-opacity="0.2" stroke-width="0.4"/>
<line x1="201.212" y1="69.567" x2="204.447" y2="296.615" stroke="white" stroke-opacity="0.2" stroke-width="0.4"/>
<line x1="206.731" y1="69.4879" x2="209.966" y2="296.536" stroke="white" stroke-opacity="0.2" stroke-width="0.4"/>
<line x1="212.249" y1="69.4093" x2="215.484" y2="296.457" stroke="white" stroke-opacity="0.2" stroke-width="0.4"/>
<line x1="217.766" y1="69.3311" x2="221.001" y2="296.379" stroke="white" stroke-opacity="0.2" stroke-width="0.4"/>
<line x1="223.282" y1="69.2525" x2="226.517" y2="296.301" stroke="white" stroke-opacity="0.2" stroke-width="0.4"/>
<line x1="228.802" y1="69.1739" x2="232.037" y2="296.222" stroke="white" stroke-opacity="0.2" stroke-width="0.4"/>
<line x1="234.321" y1="69.0948" x2="237.556" y2="296.143" stroke="white" stroke-opacity="0.2" stroke-width="0.4"/>
<line x1="239.837" y1="69.0162" x2="243.072" y2="296.064" stroke="white" stroke-opacity="0.2" stroke-width="0.4"/>
<line x1="245.356" y1="68.9376" x2="248.591" y2="295.986" stroke="white" stroke-opacity="0.2" stroke-width="0.4"/>
<line x1="250.874" y1="68.859" x2="254.109" y2="295.907" stroke="white" stroke-opacity="0.2" stroke-width="0.4"/>
<line x1="256.393" y1="68.7799" x2="259.628" y2="295.828" stroke="white" stroke-opacity="0.2" stroke-width="0.4"/>
<line x1="261.909" y1="68.7027" x2="265.144" y2="295.751" stroke="white" stroke-opacity="0.2" stroke-width="0.4"/>
<line x1="267.428" y1="68.6236" x2="270.663" y2="295.672" stroke="white" stroke-opacity="0.2" stroke-width="0.4"/>
<line x1="272.948" y1="68.5445" x2="276.183" y2="295.593" stroke="white" stroke-opacity="0.2" stroke-width="0.4"/>
<line x1="278.784" y1="67.2647" x2="282.019" y2="294.313" stroke="white" stroke-opacity="0.2" stroke-width="0.4"/>
<line x1="284.303" y1="67.1861" x2="287.538" y2="294.234" stroke="white" stroke-opacity="0.2" stroke-width="0.4"/>
<line x1="289.821" y1="67.1075" x2="293.056" y2="294.156" stroke="white" stroke-opacity="0.2" stroke-width="0.4"/>
<line x1="295.337" y1="67.0289" x2="298.572" y2="294.077" stroke="white" stroke-opacity="0.2" stroke-width="0.4"/>
<line x1="300.868" y1="67.7384" x2="304.103" y2="294.786" stroke="white" stroke-opacity="0.2" stroke-width="0.4"/>
<line x1="306.386" y1="67.6602" x2="309.621" y2="294.708" stroke="white" stroke-opacity="0.2" stroke-width="0.4"/>
<line x1="311.905" y1="67.5811" x2="315.14" y2="294.629" stroke="white" stroke-opacity="0.2" stroke-width="0.4"/>
<line x1="317.423" y1="67.5025" x2="320.658" y2="294.551" stroke="white" stroke-opacity="0.2" stroke-width="0.4"/>
<line x1="322.94" y1="67.4239" x2="326.175" y2="294.472" stroke="white" stroke-opacity="0.2" stroke-width="0.4"/>
<line x1="328.456" y1="67.3463" x2="331.691" y2="294.394" stroke="white" stroke-opacity="0.2" stroke-width="0.4"/>
<line x1="362.27" y1="100.224" x2="135.222" y2="103.459" stroke="white" stroke-opacity="0.2" stroke-width="0.4"/>
<line x1="360.474" y1="93.2278" x2="133.425" y2="96.4628" stroke="white" stroke-opacity="0.2" stroke-width="0.4"/>
<line x1="357.827" y1="85.8855" x2="130.779" y2="89.1205" stroke="white" stroke-opacity="0.2" stroke-width="0.4"/>
<line x1="356.563" y1="77.4529" x2="129.515" y2="80.6879" stroke="white" stroke-opacity="0.2" stroke-width="0.4"/>
<line x1="354.964" y1="69.7327" x2="127.916" y2="72.9677" stroke="white" stroke-opacity="0.2" stroke-width="0.4"/>
<line x1="362.349" y1="105.742" x2="135.3" y2="108.977" stroke="white" stroke-opacity="0.2" stroke-width="0.4"/>
<line x1="362.429" y1="111.26" x2="135.38" y2="114.495" stroke="white" stroke-opacity="0.2" stroke-width="0.4"/>
<line x1="362.505" y1="116.778" x2="135.457" y2="120.013" stroke="white" stroke-opacity="0.2" stroke-width="0.4"/>
<line x1="361.796" y1="122.308" x2="134.748" y2="125.543" stroke="white" stroke-opacity="0.2" stroke-width="0.4"/>
<line x1="361.874" y1="127.826" x2="134.826" y2="131.061" stroke="white" stroke-opacity="0.2" stroke-width="0.4"/>
<line x1="361.954" y1="133.345" x2="134.906" y2="136.579" stroke="white" stroke-opacity="0.2" stroke-width="0.4"/>
<line x1="362.032" y1="138.863" x2="134.984" y2="142.098" stroke="white" stroke-opacity="0.2" stroke-width="0.4"/>
<line x1="362.11" y1="144.38" x2="135.062" y2="147.615" stroke="white" stroke-opacity="0.2" stroke-width="0.4"/>
<line x1="362.188" y1="149.898" x2="135.14" y2="153.133" stroke="white" stroke-opacity="0.2" stroke-width="0.4"/>
<line x1="362.267" y1="155.416" x2="135.218" y2="158.651" stroke="white" stroke-opacity="0.2" stroke-width="0.4"/>
<line x1="362.345" y1="160.934" x2="135.296" y2="164.169" stroke="white" stroke-opacity="0.2" stroke-width="0.4"/>
<line x1="362.425" y1="166.453" x2="135.377" y2="169.688" stroke="white" stroke-opacity="0.2" stroke-width="0.4"/>
<line x1="362.503" y1="171.97" x2="135.455" y2="175.205" stroke="white" stroke-opacity="0.2" stroke-width="0.4"/>
<line x1="362.581" y1="177.489" x2="135.533" y2="180.724" stroke="white" stroke-opacity="0.2" stroke-width="0.4"/>
<line x1="362.661" y1="183.007" x2="135.613" y2="186.242" stroke="white" stroke-opacity="0.2" stroke-width="0.4"/>
<line x1="362.737" y1="188.525" x2="135.689" y2="191.76" stroke="white" stroke-opacity="0.2" stroke-width="0.4"/>
<line x1="362.819" y1="194.043" x2="135.771" y2="197.278" stroke="white" stroke-opacity="0.2" stroke-width="0.4"/>
<line x1="362.895" y1="199.561" x2="135.847" y2="202.796" stroke="white" stroke-opacity="0.2" stroke-width="0.4"/>
<line x1="362.974" y1="205.08" x2="135.925" y2="208.315" stroke="white" stroke-opacity="0.2" stroke-width="0.4"/>
<line x1="364.255" y1="210.917" x2="137.207" y2="214.152" stroke="white" stroke-opacity="0.2" stroke-width="0.4"/>
<line x1="364.333" y1="216.435" x2="137.285" y2="219.67" stroke="white" stroke-opacity="0.2" stroke-width="0.4"/>
<line x1="364.413" y1="221.953" x2="137.365" y2="225.188" stroke="white" stroke-opacity="0.2" stroke-width="0.4"/>
<line x1="364.489" y1="227.471" x2="137.441" y2="230.706" stroke="white" stroke-opacity="0.2" stroke-width="0.4"/>
<line x1="363.78" y1="233.001" x2="136.732" y2="236.236" stroke="white" stroke-opacity="0.2" stroke-width="0.4"/>
<line x1="363.86" y1="238.519" x2="136.812" y2="241.754" stroke="white" stroke-opacity="0.2" stroke-width="0.4"/>
<line x1="363.938" y1="244.037" x2="136.89" y2="247.272" stroke="white" stroke-opacity="0.2" stroke-width="0.4"/>
<line x1="364.017" y1="249.555" x2="136.968" y2="252.79" stroke="white" stroke-opacity="0.2" stroke-width="0.4"/>
<line x1="364.097" y1="255.073" x2="137.048" y2="258.308" stroke="white" stroke-opacity="0.2" stroke-width="0.4"/>
<line x1="364.173" y1="260.591" x2="137.125" y2="263.826" stroke="white" stroke-opacity="0.2" stroke-width="0.4"/>
<line x1="364.337" y1="266.652" x2="137.289" y2="269.887" stroke="white" stroke-opacity="0.2" stroke-width="0.4"/>
<line x1="363.456" y1="274.079" x2="136.408" y2="277.314" stroke="white" stroke-opacity="0.2" stroke-width="0.4"/>
<line x1="361.573" y1="283.646" x2="134.525" y2="286.881" stroke="white" stroke-opacity="0.2" stroke-width="0.4"/>
</g>
<path d="M203.556 250.999L214.08 234.167L219.418 250.613L201.883 261.972L203.556 250.999Z" stroke="white"/>
<path d="M196.883 274.669L196.881 275.169L197.169 275.17L197.314 274.922L196.883 274.669ZM193.394 274.655L193.396 274.155L192.895 274.153L192.894 274.654L193.394 274.655ZM193.445 230.449L193.768 230.068L192.949 229.375L192.945 230.447L193.445 230.449ZM193.445 230.451L193.765 230.835L193.944 230.686L193.945 230.453L193.445 230.451ZM189.78 274.642L189.347 274.891L189.49 275.141L189.778 275.142L189.78 274.642ZM193.394 274.656L193.392 275.156L193.893 275.158L193.894 274.657L193.394 274.656ZM196.885 274.169L193.396 274.155L193.392 275.155L196.881 275.169L196.885 274.169ZM202.832 251.314C202.793 261.16 198.558 270.83 196.452 274.416L197.314 274.922C199.475 271.243 203.792 261.399 203.832 251.318L202.832 251.314ZM193.122 230.831C196.374 233.584 202.871 241.554 202.832 251.314L203.832 251.318C203.873 241.149 197.141 232.922 193.768 230.068L193.122 230.831ZM193.945 230.453L193.945 230.451L192.945 230.447L192.945 230.449L193.945 230.453ZM193.125 230.066C189.725 232.898 183.057 241.071 183.017 251.236L184.017 251.24C184.056 241.477 190.495 233.558 193.765 230.835L193.125 230.066ZM183.017 251.236C182.977 261.317 187.215 271.195 189.347 274.891L190.213 274.392C188.136 270.789 183.978 261.086 184.017 251.24L183.017 251.236ZM189.778 275.142L193.392 275.156L193.396 274.156L189.782 274.142L189.778 275.142ZM193.894 274.657L193.894 274.656L192.894 274.654L192.894 274.655L193.894 274.657Z" fill="white"/>
<path d="M264.928 251.093L254.786 232.824L248.019 251.857L266.466 263.575L264.928 251.093Z" stroke="white"/>
<path d="M271.334 274.965L271.332 275.465L271.044 275.464L270.901 275.215L271.334 274.965ZM274.822 274.979L274.824 274.479L275.326 274.481L275.322 274.982L274.822 274.979ZM275.123 230.775L275.623 230.778L275.621 231.01L275.443 231.159L275.123 230.775ZM275.123 230.775L274.623 230.771L274.631 229.7L275.447 230.393L275.123 230.775ZM275.123 230.775L275.443 231.159L275.12 231.428L274.799 231.156L275.123 230.775ZM275.124 230.774L274.804 230.39L275.628 229.703L275.624 230.776L275.124 230.774ZM275.124 230.775L274.801 231.157L274.623 231.007L274.624 230.773L275.124 230.775ZM278.437 274.994L278.868 275.247L278.722 275.495L278.435 275.494L278.437 274.994ZM274.822 274.979L274.82 275.479L274.319 275.477L274.322 274.976L274.822 274.979ZM271.336 274.465L274.824 274.479L274.82 275.479L271.332 275.465L271.336 274.465ZM265.571 251.563C265.532 261.41 269.69 271.112 271.767 274.715L270.901 275.215C268.77 271.518 264.531 261.64 264.571 251.559L265.571 251.563ZM275.443 231.159C272.169 233.887 265.61 241.805 265.571 251.563L264.571 251.559C264.611 241.391 271.407 233.219 274.803 230.391L275.443 231.159ZM274.623 230.771L274.623 230.771L275.623 230.778L275.623 230.778L274.623 230.771ZM275.447 230.393L275.447 230.394L274.799 231.156L274.799 231.156L275.447 230.393ZM275.444 231.158C275.444 231.158 275.444 231.158 275.443 231.159L274.803 230.391C274.803 230.39 274.804 230.39 274.804 230.39L275.444 231.158ZM274.624 230.773L274.624 230.772L275.624 230.776L275.624 230.777L274.624 230.773ZM275.447 230.394C278.824 233.253 285.426 241.478 285.386 251.642L284.386 251.638C284.425 241.876 278.049 233.907 274.801 231.157L275.447 230.394ZM285.386 251.642C285.346 261.724 281.028 271.568 278.868 275.247L278.006 274.741C280.111 271.154 284.347 261.485 284.386 251.638L285.386 251.642ZM278.435 275.494L274.82 275.479L274.824 274.479L278.439 274.494L278.435 275.494ZM274.322 274.976L274.322 274.975L275.322 274.982L275.322 274.983L274.322 274.976Z" fill="white"/>
<path d="M244.841 259.235L244.839 259.735L245.154 259.737L245.291 259.452L244.841 259.235ZM234.17 259.193L234.172 258.693L233.67 258.691L233.67 259.192L234.17 259.193ZM234.446 94.1833L234.805 93.8355L233.951 92.9528L233.946 94.1813L234.446 94.1833ZM234.445 94.4967L233.945 94.4959L234.945 94.4987L234.445 94.4967ZM234.445 94.1845L234.945 94.1854L234.947 92.9609L234.089 93.8339L234.445 94.1845ZM223.119 259.15L222.666 259.364L222.801 259.649L223.117 259.65L223.119 259.15ZM234.17 259.194L234.168 259.694L234.669 259.696L234.67 259.195L234.17 259.194ZM244.843 258.735L234.172 258.693L234.168 259.693L244.839 259.735L244.843 258.735ZM264.123 172.043C263.976 209.141 250.901 245.497 244.39 259.019L245.291 259.452C251.845 245.841 264.975 209.336 265.123 172.047L264.123 172.043ZM234.087 94.531C244.145 104.923 264.271 135.016 264.123 172.043L265.123 172.047C265.272 134.687 244.988 104.356 234.805 93.8355L234.087 94.531ZM234.945 94.4987L234.946 94.1852L233.946 94.1813L233.945 94.4947L234.945 94.4987ZM234.945 94.4975L234.945 94.1854L233.945 94.1837L233.945 94.4959L234.945 94.4975ZM234.089 93.8339C223.819 104.277 203.679 134.447 203.531 171.803L204.531 171.807C204.678 134.777 224.664 104.844 234.802 94.5351L234.089 93.8339ZM203.531 171.803C203.382 209.093 216.221 245.701 222.666 259.364L223.571 258.937C217.168 245.364 204.383 208.905 204.531 171.807L203.531 171.803ZM223.117 259.65L234.168 259.694L234.172 258.694L223.12 258.65L223.117 259.65ZM234.67 259.195L234.67 259.193L233.67 259.192L233.67 259.194L234.67 259.195Z" fill="white"/>
<path d="M250.836 210.497L276.768 210.925L276.818 183.944L290.392 183.79" stroke="white" stroke-dasharray="4 4"/>
<rect x="258.543" y="104.35" width="68.589" height="4.01307" transform="rotate(-0.716304 258.543 104.35)" fill="white"/>
<rect x="270.316" y="153.438" width="45.9613" height="4.01307" transform="rotate(-0.716304 270.316 153.438)" fill="white"/>
<rect x="269.951" y="159.772" width="45.9613" height="1.01246" transform="rotate(-0.716304 269.951 159.772)" fill="white"/>
<rect x="269.324" y="162.962" width="45.9613" height="1.01246" transform="rotate(-0.716304 269.324 162.962)" fill="white"/>
<rect x="279.68" y="226.193" width="45.9613" height="3.85079" transform="rotate(-0.716304 279.68 226.193)" fill="white"/>
<rect x="280.143" y="230.766" width="45.9613" height="1.80611" transform="rotate(-0.716304 280.143 230.766)" fill="white"/>
<rect x="280.564" y="233.578" width="27.9117" height="1.80611" transform="rotate(-0.716304 280.564 233.578)" fill="white"/>
<rect x="284.172" y="237.019" width="41.0652" height="1.80611" transform="rotate(-0.716304 284.172 237.019)" fill="white"/>
<rect x="284.498" y="240.034" width="41.0652" height="1.80611" transform="rotate(-0.716304 284.498 240.034)" fill="white"/>
<rect x="259.051" y="110.979" width="44.5717" height="1.08754" transform="rotate(-0.716304 259.051 110.979)" fill="white"/>
<rect x="259.236" y="113.995" width="44.5717" height="1.08754" transform="rotate(-0.716304 259.236 113.995)" fill="white"/>
<rect x="181.578" y="74.2754" width="68.589" height="4.01307" transform="rotate(-0.716304 181.578 74.2754)" fill="white"/>
<path d="M263.957 184.434L204.561 185.701L205.446 193.086L263.268 192.386L263.957 184.434Z" stroke="white"/>
<rect x="205.475" y="80.8882" width="44.5717" height="1.08754" transform="rotate(-0.716304 205.475 80.8882)" fill="white"/>
<rect x="206.23" y="82.9858" width="44.5717" height="1.08754" transform="rotate(-0.716304 206.23 82.9858)" fill="white"/>
<rect x="259.656" y="116.806" width="44.5717" height="1.08754" transform="rotate(-0.716304 259.656 116.806)" fill="white"/>
<rect x="260.455" y="120.667" width="44.5717" height="1.08754" transform="rotate(-0.716304 260.455 120.667)" fill="white"/>
<rect x="189.291" y="111.621" width="19.3157" height="1.01246" transform="rotate(-0.716304 189.291 111.621)" fill="white"/>
<rect x="189.252" y="113.557" width="19.3157" height="1.01246" transform="rotate(-0.716304 189.252 113.557)" fill="white"/>
<rect x="189.297" y="115.32" width="19.3157" height="1.01246" transform="rotate(-0.716304 189.297 115.32)" fill="white"/>
<rect x="189.34" y="117.082" width="19.3157" height="1.01246" transform="rotate(-0.716304 189.34 117.082)" fill="white"/>
<circle cx="181.433" cy="115.371" r="7.09542" transform="rotate(25.1726 181.433 115.371)" fill="white"/>
<path d="M248.38 149.674C244.501 157.928 235.166 161.64 227.565 158.068C219.964 154.495 216.866 144.94 220.745 136.686C224.624 128.432 233.958 124.72 241.559 128.292C249.16 131.864 252.259 141.42 248.38 149.674Z" stroke="white"/>
<rect x="308.111" y="179.449" width="19.3157" height="1.01246" transform="rotate(-0.716304 308.111 179.449)" fill="white"/>
<rect x="308.072" y="181.385" width="19.3157" height="1.01246" transform="rotate(-0.716304 308.072 181.385)" fill="white"/>
<rect x="308.117" y="183.148" width="19.3157" height="1.01246" transform="rotate(-0.716304 308.117 183.148)" fill="white"/>
<rect x="308.16" y="184.91" width="19.3157" height="1.01246" transform="rotate(-0.716304 308.16 184.91)" fill="white"/>
<circle cx="300.253" cy="183.199" r="7.09542" transform="rotate(25.1726 300.253 183.199)" fill="white"/>
<path d="M218.655 221.508L192.052 222.507L191.148 134.536" stroke="white" stroke-dasharray="4 4"/>
<path d="M176.523 302.01C177.488 291.704 161.715 288.458 153.108 288.788L151.103 298.824C157.623 299.323 162.122 309.114 164.286 306.258C165.954 304.058 163.77 303.59 161.221 301.162C163.735 299.688 171.272 301.263 175.148 302.773C175.756 303.009 176.463 302.659 176.523 302.01Z" fill="#EE9F86"/>
<path d="M173.75 408.891V386.485L187.939 387.775L188.584 408.891H173.75Z" fill="#EE9F86"/>
<path d="M189.121 406.497C185.523 408.032 177.125 408.416 173.376 408.416H172.814L171.689 424.413H216.113C224.66 424.413 220.424 420.148 217.238 418.015C209.14 418.015 195.12 410.336 189.121 406.497Z" fill="#1D104A"/>
<path d="M128.506 390.227L139.268 370.574L151.094 378.52L141.518 397.351L128.506 390.227Z" fill="#F3AEAE"/>
<path d="M143.14 395.509C139.245 395.127 131.695 391.431 128.407 389.631L127.914 389.361L119.245 402.852L158.209 424.188C165.706 428.293 164.039 422.516 162.269 419.115C155.166 415.226 146.557 401.757 143.14 395.509Z" fill="#1D104A"/>
<path d="M98.1983 338.112C69.3038 338.628 66.8109 308.659 69.1758 297.479H126.577C145.496 300.919 185.269 308.315 193.009 310.379C200.748 312.443 202.683 320.268 202.683 323.923L192.33 398.739H170.435L173.501 346.106L146.572 394.224L126.543 383.905L148.719 335.072C133.552 336.476 115.029 337.812 98.1983 338.112Z" fill="#79C7CE"/>
<mask id="mask4" mask-type="alpha" maskUnits="userSpaceOnUse" x="68" y="297" width="135" height="102">
<path d="M98.1983 338.112C69.3038 338.628 66.8109 308.659 69.1758 297.479H126.577C145.496 300.919 185.269 308.315 193.009 310.379C200.748 312.443 202.683 320.268 202.683 323.923L192.33 398.739H170.435L173.501 346.106L146.572 394.224L126.543 383.905L148.719 335.072C133.552 336.476 115.029 337.812 98.1983 338.112Z" fill="#79C7CE"/>
</mask>
<g mask="url(#mask4)">
<path d="M174.27 334.243L148.472 335.533L112.354 381.325L145.247 401.319L172.335 360.041L174.27 334.243Z" fill="#5DB3BB"/>
</g>
<path d="M128.29 190.253C128.766 189.421 129.06 188.429 129.258 187.399C129.984 183.63 129.29 179.61 127.911 176.029C112.3 163.143 101.558 177.024 98.1378 185.575L95.0595 212.216L108.974 216.051L109.962 208.116C112.047 206.727 114.211 207.913 118.785 209.884C123.36 211.855 123.362 207.337 123.652 206.642C123.823 206.231 124.617 205.753 125.285 205.422C125.604 205.264 125.727 204.86 125.529 204.564C125.356 204.305 125.427 203.954 125.686 203.781L126.084 203.516C126.491 203.245 126.655 202.728 126.479 202.272L126.306 201.827C126.176 201.489 126.283 201.105 126.57 200.883L128.133 199.678C128.905 199.083 129.125 198.022 128.747 197.123C127.892 195.092 127.139 192.265 128.29 190.253Z" fill="#EE9F86"/>
<path fill-rule="evenodd" clip-rule="evenodd" d="M136.011 174.825C136.295 174.298 136.507 173.72 136.631 173.102C137.302 169.75 135.129 166.487 131.776 165.815C129.935 165.447 128.121 165.936 126.749 167.007C125.901 166.114 124.779 165.465 123.48 165.205C122.466 165.002 121.459 165.059 120.531 165.331C119.729 164.08 118.44 163.144 116.868 162.829C115.14 162.483 113.438 162.961 112.17 163.993L112.145 163.988C110.96 163.75 109.786 163.868 108.733 164.268C108.186 163.764 107.498 163.399 106.715 163.242C104.936 162.885 103.194 163.71 102.302 165.174C98.9948 164.582 95.8064 166.743 95.1433 170.053C95.0729 170.404 95.0337 170.755 95.0239 171.101C92.6631 170.848 90.4563 172.434 89.9808 174.807C89.9636 174.893 89.9488 174.979 89.9365 175.065C88.5494 175.636 87.4643 176.868 87.1475 178.449C86.9138 179.615 87.1392 180.767 87.699 181.717C86.8164 182.378 86.1646 183.354 85.9309 184.521C85.68 185.773 85.9585 187.009 86.612 187.996C86.3311 188.361 86.1275 188.794 86.0309 189.276C85.7322 190.767 86.5587 192.222 87.9246 192.762C88.0544 193.039 88.2004 193.308 88.3616 193.567C87.5522 194.224 86.9581 195.156 86.7373 196.258C86.2336 198.773 87.8637 201.22 90.3783 201.723C92.1191 202.072 93.8275 201.398 94.8812 200.116C95.252 201.066 96.0841 201.814 97.1583 202.029C98.8347 202.365 100.466 201.278 100.802 199.601C100.859 199.317 100.875 199.033 100.854 198.757C101.444 198.652 101.987 198.376 102.419 197.974C102.654 199.167 103.584 200.159 104.85 200.413C106.526 200.749 108.158 199.662 108.493 197.986C108.564 197.633 108.572 197.282 108.524 196.944C109.899 195.6 110.511 194.242 108.191 194.242C105.581 194.241 105.145 192.14 105.488 189.892C105.871 187.382 108.221 185.356 110.681 185.987C113.477 186.704 114.212 189.175 114.162 190.702C116.428 191.998 119.29 186.116 120.438 183.014C122.462 184.171 125.93 183.155 127.898 182.3C128.497 182.7 129.182 182.991 129.932 183.142C133.006 183.757 135.996 181.765 136.612 178.692C136.887 177.318 136.641 175.961 136.011 174.825Z" fill="#393939"/>
<path d="M67.2476 293.526C66.32 296.893 67.7778 297.708 68.9374 298.175C84.205 298.175 116.065 299.138 118.848 299.138C121.631 299.138 121.94 298.203 121.747 297.735C121.283 294.368 115.71 281.413 115.903 277.438C116.9 256.943 126.334 252.702 124.583 241.632C122.832 230.562 123.183 220.316 109.393 213.421C98.5428 207.997 97.8018 207.637 91.5984 209.424C87.5399 210.593 79.075 215.877 77.6836 227.662C75.9442 242.393 68.4072 289.318 67.2476 293.526Z" fill="#FC7383"/>
<path d="M92.4894 285.567V246.823L112.557 247.826L111.662 273.774C111.598 275.622 112.81 277.272 114.592 277.766L153.194 288.463L153.695 298.998L95.8423 289.514C93.9088 289.197 92.4894 287.526 92.4894 285.567Z" fill="#EE9F86"/>
<path d="M91.0366 231.423C91.8103 224.019 98.4402 218.643 105.845 219.417V219.417C113.25 220.191 118.625 226.821 117.851 234.225L115.418 257.512L88.6035 254.71L91.0366 231.423Z" fill="#F55669"/>
<path fill-rule="evenodd" clip-rule="evenodd" d="M194.879 311.668L220.382 267.497L213.326 263.423L190.129 303.601L144.827 296.361L143.686 303.502L194.788 311.669L194.796 311.62L194.879 311.668Z" fill="#C4C4C4"/>
<rect x="10.1602" y="394.213" width="9.63739" height="35.9262" rx="4.81869" transform="rotate(-9.56068 10.1602 394.213)" fill="#10256B"/>
<rect x="13.0293" y="385.482" width="14.2023" height="52.9433" rx="7.10117" transform="rotate(-9.56068 13.0293 385.482)" fill="#041345"/>
<rect x="13.6054" y="385.892" width="13.2023" height="51.9433" rx="6.60117" transform="rotate(-9.56068 13.6054 385.892)" stroke="white" stroke-opacity="0.04"/>
<path fill-rule="evenodd" clip-rule="evenodd" d="M109.172 445.972C140.406 448.946 168.137 426.037 171.111 394.804C174.085 363.57 151.176 335.839 119.942 332.865C94.5619 330.448 71.4946 345.122 62.1443 367.466C56.4278 374.855 49.8056 381.164 41.8454 382.495L55.6959 429.671C57.1544 429.809 58.608 429.91 60.0691 430.01C66.0921 430.425 72.2411 430.849 79.3724 434.029C87.6617 440.58 97.8721 444.896 109.172 445.972Z" fill="#FD8221"/>
<mask id="mask5" mask-type="alpha" maskUnits="userSpaceOnUse" x="36" y="325" width="141" height="127">
<path fill-rule="evenodd" clip-rule="evenodd" d="M109.172 445.972C140.406 448.946 168.137 426.037 171.111 394.804C174.085 363.57 151.176 335.839 119.942 332.865C94.5619 330.448 71.4946 345.122 62.1443 367.466C56.4278 374.855 49.8056 381.164 41.8454 382.495L55.6959 429.671C57.1544 429.809 58.608 429.91 60.0691 430.01C66.0921 430.425 72.2411 430.849 79.3724 434.029C87.6617 440.58 97.8721 444.896 109.172 445.972Z" fill="#FFB80B"/>
</mask>
<g mask="url(#mask5)">
<path fill-rule="evenodd" clip-rule="evenodd" d="M107.537 441.74C138.771 444.714 166.502 421.805 169.476 390.572C172.45 359.338 149.541 331.607 118.307 328.633C92.9271 326.216 69.8598 340.89 60.5095 363.234C54.793 370.623 48.1708 376.932 40.2107 378.263L54.0611 425.439C55.5196 425.578 56.9733 425.678 58.4344 425.778C64.4573 426.193 70.6063 426.617 77.7377 429.797C86.0269 436.348 96.2373 440.664 107.537 441.74Z" fill="#FDAC1A"/>
</g>
<path d="M94.9462 385.712L51.0886 396.822L52.3391 405.093L97.9279 397.206C110.447 397.718 132.514 402.129 138.323 401.052C144.132 399.975 141.064 397.237 138.804 396.003L115.032 391.831C113.832 391.62 113.98 389.853 115.198 389.846L138.385 389.703C142.617 388.068 138.433 385.632 136.654 386.481L117.823 387.881C116.585 387.974 116.321 386.176 117.533 385.908L137.121 381.576C143.315 376.459 137.938 376.558 134.476 377.248L113.761 384.053C112.62 384.428 112.212 383.417 113.3 382.908C120.362 379.603 129.571 375.252 132.841 373.016C136.534 368.476 133.289 368.303 131.205 368.784L106.716 385.895C105.886 386.474 105.478 386.031 106.179 385.301C110.884 380.409 121.031 370.184 123.319 365.995C126.281 360.57 122.726 361.523 120.578 362.677L94.9462 385.712Z" stroke="#FFDC87" stroke-width="0.3"/>
<rect x="25.5332" y="382.598" width="14.2023" height="52.9433" rx="7.10117" transform="rotate(-9.56068 25.5332 382.598)" fill="#041345"/>
<rect x="26.1093" y="383.008" width="13.2023" height="51.9433" rx="6.60117" transform="rotate(-9.56068 26.1093 383.008)" stroke="white" stroke-opacity="0.04"/>
<rect x="38.0352" y="379.711" width="14.2023" height="52.9433" rx="7.10117" transform="rotate(-9.56068 38.0352 379.711)" fill="#041345"/>
<rect x="38.6113" y="380.121" width="13.2023" height="51.9433" rx="6.60117" transform="rotate(-9.56068 38.6113 380.121)" stroke="white" stroke-opacity="0.04"/>
<ellipse cx="98.1174" cy="348.019" rx="6.08671" ry="11.159" transform="rotate(77.8148 98.1174 348.019)" fill="white" fill-opacity="0.31"/>
</g>
<defs>
<filter id="filter0_d" x="365.113" y="102.268" width="142.006" height="51.1146" filterUnits="userSpaceOnUse" color-interpolation-filters="sRGB">
<feFlood flood-opacity="0" result="BackgroundImageFix"/>
<feColorMatrix in="SourceAlpha" type="matrix" values="0 0 0 0 0 0 0 0 0 0 0 0 0 0 0 0 0 0 127 0"/>
<feOffset dy="4"/>
<feGaussianBlur stdDeviation="4"/>
<feColorMatrix type="matrix" values="0 0 0 0 0 0 0 0 0 0 0 0 0 0 0 0 0 0 0.1 0"/>
<feBlend mode="normal" in2="BackgroundImageFix" result="effect1_dropShadow"/>
<feBlend mode="normal" in="SourceGraphic" in2="effect1_dropShadow" result="shape"/>
</filter>
<filter id="filter1_d" x="366.035" y="321.497" width="142.006" height="35.9299" filterUnits="userSpaceOnUse" color-interpolation-filters="sRGB">
<feFlood flood-opacity="0" result="BackgroundImageFix"/>
<feColorMatrix in="SourceAlpha" type="matrix" values="0 0 0 0 0 0 0 0 0 0 0 0 0 0 0 0 0 0 127 0"/>
<feOffset dy="4"/>
<feGaussianBlur stdDeviation="4"/>
<feColorMatrix type="matrix" values="0 0 0 0 0 0 0 0 0 0 0 0 0 0 0 0 0 0 0.1 0"/>
<feBlend mode="normal" in2="BackgroundImageFix" result="effect1_dropShadow"/>
<feBlend mode="normal" in="SourceGraphic" in2="effect1_dropShadow" result="shape"/>
</filter>
</defs>
</svg>
