<svg width="978" height="659" viewBox="0 0 978 659" fill="none" xmlns="http://www.w3.org/2000/svg">
<path d="M325.798 645C664.886 645 870.652 625.816 899.096 562.756C991.254 406.681 873.497 256.912 806.938 141.826C740.379 26.7401 549.235 -71.004 489.502 69.306C429.77 209.616 444.61 145.611 371.01 209.743C292.443 278.203 327.371 403.528 253.985 384.609C180.6 365.691 168.653 321.549 100.387 353.079C32.1211 384.609 -49.824 645 325.798 645Z" fill="#EAEDFE"/>
<path d="M304.188 407.658C309.727 360.961 283.207 362.519 267.615 369.737C266.852 370.09 265.982 369.462 266.146 368.638C274.214 328.161 287.72 244.403 280.159 217.377C272.769 190.966 242.598 204.74 226.748 216.018C226.034 216.525 225.047 215.942 225.143 215.072C232.313 150.081 241.01 98.3887 181.636 93.1647C134.146 88.9864 129.672 165.318 133.436 205.377C133.502 206.077 132.808 206.594 132.128 206.419C87.5334 194.908 92.0084 231.685 99.9336 251.733C111.949 294.898 132.134 378.059 116.755 365.373C101.516 352.804 91.3109 359.953 88.0084 365.227C87.9471 365.325 87.9056 365.437 87.8828 365.55C59.1699 508.093 164.83 518.656 203.262 518.656C241.71 518.656 296.979 468.442 304.188 407.658Z" fill="#82B7FB"/>
<path d="M181.635 151.308C185.104 254.308 184.839 493.99 181.635 611.155L203.262 611.155C196.053 378.588 179.232 79.9513 181.635 151.308Z" fill="#3A5CA6"/>
<path d="M198.457 492.229C221.686 474.61 270.547 431.445 280.159 399.731" stroke="#3A5CA6" stroke-linecap="round"/>
<path d="M186.441 468.444C167.312 454.349 127.073 419.816 119.157 394.445" stroke="#3A5CA6" stroke-linecap="round"/>
<path d="M191.25 325.732C213.113 309.624 259.099 270.158 268.146 241.163" stroke="#3A5CA6" stroke-linecap="round"/>
<path d="M191.25 362.731C177.586 352.663 124.814 256.641 119.16 238.519" stroke="#3A5CA6" stroke-linecap="round"/>
<path d="M253.784 383.874C252.983 401.492 260.031 434.087 294.635 423.516" stroke="#3A5CA6" stroke-width="0.5" stroke-linecap="round"/>
<path d="M220.143 420.873C219.342 438.492 226.391 471.087 260.994 460.515" stroke="#3A5CA6" stroke-width="0.5" stroke-linecap="round"/>
<path d="M224.95 246.448C224.149 264.066 231.197 296.661 265.801 286.09" stroke="#3A5CA6" stroke-width="0.5" stroke-linecap="round"/>
<path d="M162.364 283.447C163.022 296.845 157.226 321.63 128.77 313.591" stroke="#3A5CA6" stroke-width="0.5" stroke-linecap="round"/>
<path d="M152.752 399.731C153.411 413.128 147.615 437.913 119.159 429.875" stroke="#3A5CA6" stroke-width="0.5" stroke-linecap="round"/>
<rect x="176.07" y="263.942" width="638.93" height="350.962" fill="#2F539B"/>
<rect x="185.949" y="284.598" width="618.485" height="309.242" fill="#F6F7FB"/>
<rect x="185.949" y="284.598" width="170.126" height="308.941" fill="#4886FF" fill-opacity="0.6"/>
<path d="M193.999 298.016L345.304 296.311L347.781 501.061L196.46 502.892L193.999 298.016Z" fill="#274C97"/>
<mask id="mask0" mask-type="alpha" maskUnits="userSpaceOnUse" x="193" y="294" width="155" height="208">
<path d="M193.964 296.749L345.211 295.076L347.687 499.826L196.367 501.656L193.964 296.749Z" fill="#1A7BBF"/>
</mask>
<g mask="url(#mask0)">
<line x1="195.032" y1="299.192" x2="197.937" y2="503.1" stroke="white" stroke-opacity="0.2" stroke-width="0.4"/>
<line x1="199.989" y1="299.121" x2="202.894" y2="503.029" stroke="white" stroke-opacity="0.2" stroke-width="0.4"/>
<line x1="204.944" y1="299.051" x2="207.849" y2="502.959" stroke="white" stroke-opacity="0.2" stroke-width="0.4"/>
<line x1="209.899" y1="298.98" x2="212.804" y2="502.888" stroke="white" stroke-opacity="0.2" stroke-width="0.4"/>
<line x1="214.868" y1="299.617" x2="217.773" y2="503.525" stroke="white" stroke-opacity="0.2" stroke-width="0.4"/>
<line x1="219.821" y1="299.547" x2="222.726" y2="503.455" stroke="white" stroke-opacity="0.2" stroke-width="0.4"/>
<line x1="224.778" y1="299.476" x2="227.683" y2="503.384" stroke="white" stroke-opacity="0.2" stroke-width="0.4"/>
<line x1="229.735" y1="299.405" x2="232.64" y2="503.313" stroke="white" stroke-opacity="0.2" stroke-width="0.4"/>
<line x1="234.69" y1="299.335" x2="237.596" y2="503.243" stroke="white" stroke-opacity="0.2" stroke-width="0.4"/>
<line x1="239.645" y1="299.264" x2="242.551" y2="503.172" stroke="white" stroke-opacity="0.2" stroke-width="0.4"/>
<line x1="244.598" y1="299.194" x2="247.504" y2="503.102" stroke="white" stroke-opacity="0.2" stroke-width="0.4"/>
<line x1="249.555" y1="299.123" x2="252.461" y2="503.031" stroke="white" stroke-opacity="0.2" stroke-width="0.4"/>
<line x1="254.512" y1="299.052" x2="257.418" y2="502.96" stroke="white" stroke-opacity="0.2" stroke-width="0.4"/>
<line x1="259.466" y1="298.982" x2="262.371" y2="502.89" stroke="white" stroke-opacity="0.2" stroke-width="0.4"/>
<line x1="264.423" y1="298.911" x2="267.328" y2="502.819" stroke="white" stroke-opacity="0.2" stroke-width="0.4"/>
<line x1="269.378" y1="298.84" x2="272.283" y2="502.748" stroke="white" stroke-opacity="0.2" stroke-width="0.4"/>
<line x1="274.335" y1="298.769" x2="277.24" y2="502.677" stroke="white" stroke-opacity="0.2" stroke-width="0.4"/>
<line x1="279.288" y1="298.7" x2="282.193" y2="502.608" stroke="white" stroke-opacity="0.2" stroke-width="0.4"/>
<line x1="284.245" y1="298.629" x2="287.15" y2="502.537" stroke="white" stroke-opacity="0.2" stroke-width="0.4"/>
<line x1="289.202" y1="298.558" x2="292.107" y2="502.466" stroke="white" stroke-opacity="0.2" stroke-width="0.4"/>
<line x1="294.444" y1="297.409" x2="297.349" y2="501.317" stroke="white" stroke-opacity="0.2" stroke-width="0.4"/>
<line x1="299.401" y1="297.338" x2="302.306" y2="501.246" stroke="white" stroke-opacity="0.2" stroke-width="0.4"/>
<line x1="304.356" y1="297.267" x2="307.262" y2="501.175" stroke="white" stroke-opacity="0.2" stroke-width="0.4"/>
<line x1="309.309" y1="297.197" x2="312.215" y2="501.105" stroke="white" stroke-opacity="0.2" stroke-width="0.4"/>
<line x1="314.276" y1="297.834" x2="317.181" y2="501.742" stroke="white" stroke-opacity="0.2" stroke-width="0.4"/>
<line x1="319.233" y1="297.764" x2="322.138" y2="501.672" stroke="white" stroke-opacity="0.2" stroke-width="0.4"/>
<line x1="324.19" y1="297.693" x2="327.096" y2="501.601" stroke="white" stroke-opacity="0.2" stroke-width="0.4"/>
<line x1="329.145" y1="297.622" x2="332.051" y2="501.53" stroke="white" stroke-opacity="0.2" stroke-width="0.4"/>
<line x1="334.1" y1="297.551" x2="337.006" y2="501.459" stroke="white" stroke-opacity="0.2" stroke-width="0.4"/>
<line x1="339.053" y1="297.482" x2="341.959" y2="501.39" stroke="white" stroke-opacity="0.2" stroke-width="0.4"/>
<line x1="369.401" y1="327.03" x2="165.493" y2="329.935" stroke="white" stroke-opacity="0.2" stroke-width="0.4"/>
<line x1="367.788" y1="320.747" x2="163.88" y2="323.652" stroke="white" stroke-opacity="0.2" stroke-width="0.4"/>
<line x1="365.411" y1="314.153" x2="161.503" y2="317.058" stroke="white" stroke-opacity="0.2" stroke-width="0.4"/>
<line x1="364.276" y1="306.579" x2="160.368" y2="309.485" stroke="white" stroke-opacity="0.2" stroke-width="0.4"/>
<line x1="362.839" y1="299.646" x2="158.931" y2="302.551" stroke="white" stroke-opacity="0.2" stroke-width="0.4"/>
<line x1="369.472" y1="331.986" x2="165.564" y2="334.891" stroke="white" stroke-opacity="0.2" stroke-width="0.4"/>
<line x1="369.544" y1="336.941" x2="165.636" y2="339.846" stroke="white" stroke-opacity="0.2" stroke-width="0.4"/>
<line x1="369.612" y1="341.897" x2="165.704" y2="344.802" stroke="white" stroke-opacity="0.2" stroke-width="0.4"/>
<line x1="368.976" y1="346.863" x2="165.067" y2="349.768" stroke="white" stroke-opacity="0.2" stroke-width="0.4"/>
<line x1="369.046" y1="351.819" x2="165.138" y2="354.724" stroke="white" stroke-opacity="0.2" stroke-width="0.4"/>
<line x1="369.118" y1="356.774" x2="165.21" y2="359.68" stroke="white" stroke-opacity="0.2" stroke-width="0.4"/>
<line x1="369.186" y1="361.731" x2="165.278" y2="364.636" stroke="white" stroke-opacity="0.2" stroke-width="0.4"/>
<line x1="369.257" y1="366.686" x2="165.349" y2="369.591" stroke="white" stroke-opacity="0.2" stroke-width="0.4"/>
<line x1="369.327" y1="371.641" x2="165.419" y2="374.547" stroke="white" stroke-opacity="0.2" stroke-width="0.4"/>
<line x1="369.397" y1="376.597" x2="165.489" y2="379.502" stroke="white" stroke-opacity="0.2" stroke-width="0.4"/>
<line x1="369.468" y1="381.553" x2="165.56" y2="384.458" stroke="white" stroke-opacity="0.2" stroke-width="0.4"/>
<line x1="369.54" y1="386.509" x2="165.632" y2="389.414" stroke="white" stroke-opacity="0.2" stroke-width="0.4"/>
<line x1="369.61" y1="391.464" x2="165.702" y2="394.369" stroke="white" stroke-opacity="0.2" stroke-width="0.4"/>
<line x1="369.681" y1="396.419" x2="165.772" y2="399.325" stroke="white" stroke-opacity="0.2" stroke-width="0.4"/>
<line x1="369.753" y1="401.376" x2="165.845" y2="404.281" stroke="white" stroke-opacity="0.2" stroke-width="0.4"/>
<line x1="369.821" y1="406.332" x2="165.913" y2="409.237" stroke="white" stroke-opacity="0.2" stroke-width="0.4"/>
<line x1="369.893" y1="411.287" x2="165.985" y2="414.192" stroke="white" stroke-opacity="0.2" stroke-width="0.4"/>
<line x1="369.962" y1="416.243" x2="166.054" y2="419.148" stroke="white" stroke-opacity="0.2" stroke-width="0.4"/>
<line x1="370.032" y1="421.199" x2="166.124" y2="424.104" stroke="white" stroke-opacity="0.2" stroke-width="0.4"/>
<line x1="371.184" y1="426.441" x2="167.276" y2="429.347" stroke="white" stroke-opacity="0.2" stroke-width="0.4"/>
<line x1="371.253" y1="431.397" x2="167.345" y2="434.303" stroke="white" stroke-opacity="0.2" stroke-width="0.4"/>
<line x1="371.325" y1="436.352" x2="167.417" y2="439.258" stroke="white" stroke-opacity="0.2" stroke-width="0.4"/>
<line x1="371.393" y1="441.308" x2="167.485" y2="444.213" stroke="white" stroke-opacity="0.2" stroke-width="0.4"/>
<line x1="370.757" y1="446.274" x2="166.849" y2="449.18" stroke="white" stroke-opacity="0.2" stroke-width="0.4"/>
<line x1="370.829" y1="451.23" x2="166.921" y2="454.136" stroke="white" stroke-opacity="0.2" stroke-width="0.4"/>
<line x1="370.899" y1="456.186" x2="166.991" y2="459.091" stroke="white" stroke-opacity="0.2" stroke-width="0.4"/>
<line x1="370.97" y1="461.142" x2="167.062" y2="464.047" stroke="white" stroke-opacity="0.2" stroke-width="0.4"/>
<line x1="371.042" y1="466.097" x2="167.134" y2="469.003" stroke="white" stroke-opacity="0.2" stroke-width="0.4"/>
<line x1="371.11" y1="471.053" x2="167.202" y2="473.958" stroke="white" stroke-opacity="0.2" stroke-width="0.4"/>
<line x1="371.257" y1="476.496" x2="167.349" y2="479.401" stroke="white" stroke-opacity="0.2" stroke-width="0.4"/>
<line x1="370.466" y1="483.166" x2="166.558" y2="486.071" stroke="white" stroke-opacity="0.2" stroke-width="0.4"/>
<line x1="368.774" y1="491.758" x2="164.866" y2="494.663" stroke="white" stroke-opacity="0.2" stroke-width="0.4"/>
</g>
<path d="M226.86 462.418L236.311 447.301L241.105 462.071L225.358 472.273L226.86 462.418Z" stroke="white"/>
<path d="M220.868 483.676L220.866 484.176L221.153 484.177L221.299 483.929L220.868 483.676ZM217.734 483.663L217.736 483.163L217.235 483.161L217.234 483.662L217.734 483.663ZM217.78 443.963L218.103 443.581L217.284 442.888L217.28 443.961L217.78 443.963ZM217.78 443.964L218.1 444.348L218.279 444.199L218.28 443.966L217.78 443.964ZM214.488 483.651L214.055 483.901L214.198 484.15L214.486 484.151L214.488 483.651ZM217.734 483.664L217.732 484.164L218.233 484.166L218.234 483.665L217.734 483.664ZM220.87 483.176L217.736 483.163L217.732 484.163L220.866 484.176L220.87 483.176ZM226.16 462.7C226.124 471.532 222.325 480.207 220.437 483.423L221.299 483.929C223.242 480.62 227.123 471.77 227.16 462.704L226.16 462.7ZM217.457 444.344C220.371 446.811 226.194 453.957 226.16 462.7L227.16 462.704C227.196 453.551 221.138 446.15 218.103 443.581L217.457 444.344ZM218.28 443.966L218.28 443.965L217.28 443.961L217.28 443.962L218.28 443.966ZM217.46 443.579C214.4 446.128 208.399 453.481 208.363 462.63L209.363 462.634C209.398 453.887 215.17 446.788 218.1 444.348L217.46 443.579ZM208.363 462.63C208.327 471.696 212.138 480.576 214.055 483.901L214.921 483.401C213.058 480.171 209.328 471.466 209.363 462.634L208.363 462.63ZM214.486 484.151L217.732 484.164L217.736 483.164L214.49 483.151L214.486 484.151ZM218.234 483.665L218.234 483.664L217.234 483.662L217.234 483.663L218.234 483.665Z" fill="white"/>
<path d="M281.978 462.503L272.869 446.096L266.792 463.189L283.359 473.713L281.978 462.503Z" stroke="white"/>
<path d="M287.732 483.942L287.73 484.442L287.443 484.44L287.299 484.191L287.732 483.942ZM290.864 483.954L290.866 483.454L291.368 483.456L291.364 483.958L290.864 483.954ZM291.134 444.256L291.634 444.259L291.633 444.492L291.454 444.64L291.134 444.256ZM291.134 444.255L290.634 444.252L290.641 443.181L291.458 443.874L291.134 444.255ZM291.135 444.256L291.455 444.64L291.132 444.909L290.811 444.637L291.135 444.256ZM291.136 444.254L290.816 443.87L291.641 443.184L291.636 444.256L291.136 444.254ZM291.136 444.257L290.813 444.639L290.635 444.488L290.636 444.255L291.136 444.257ZM294.11 483.968L294.541 484.221L294.396 484.469L294.108 484.468L294.11 483.968ZM290.864 483.955L290.862 484.455L290.361 484.453L290.364 483.951L290.864 483.955ZM287.734 483.442L290.866 483.454L290.862 484.454L287.73 484.442L287.734 483.442ZM282.608 462.925C282.572 471.756 286.303 480.461 288.166 483.692L287.299 484.191C285.382 480.867 281.572 471.987 281.608 462.921L282.608 462.925ZM291.454 444.64C288.52 447.086 282.642 454.183 282.608 462.925L281.608 462.921C281.644 453.769 287.758 446.418 290.814 443.872L291.454 444.64ZM290.634 444.253L290.634 444.252L291.634 444.258L291.634 444.259L290.634 444.253ZM291.458 443.874L291.458 443.874L290.811 444.637L290.811 444.637L291.458 443.874ZM291.456 444.639C291.456 444.639 291.456 444.639 291.455 444.64L290.815 443.871C290.815 443.871 290.816 443.87 290.816 443.87L291.456 444.639ZM290.636 444.255L290.636 444.252L291.636 444.256L291.636 444.259L290.636 444.255ZM291.459 443.875C294.499 446.45 300.439 453.849 300.402 462.996L299.402 462.992C299.437 454.247 293.724 447.104 290.813 444.639L291.459 443.875ZM300.402 462.996C300.366 472.062 296.485 480.912 294.541 484.221L293.679 483.715C295.568 480.499 299.367 471.824 299.402 462.992L300.402 462.996ZM294.108 484.468L290.862 484.455L290.866 483.455L294.112 483.468L294.108 484.468ZM290.364 483.951L290.364 483.951L291.364 483.958L291.364 483.959L290.364 483.951Z" fill="white"/>
<path d="M263.936 469.815L263.934 470.315L264.25 470.316L264.387 470.032L263.936 469.815ZM254.354 469.777L254.356 469.277L253.855 469.275L253.854 469.776L254.354 469.777ZM254.601 321.585L254.96 321.237L254.106 320.354L254.101 321.583L254.601 321.585ZM254.601 321.587L254.957 321.938L255.1 321.793L255.101 321.589L254.601 321.587ZM244.429 469.739L243.977 469.953L244.112 470.238L244.427 470.239L244.429 469.739ZM254.354 469.779L254.352 470.279L254.853 470.281L254.854 469.78L254.354 469.779ZM263.938 469.315L254.356 469.277L254.352 470.277L263.934 470.315L263.938 469.315ZM281.202 391.509C281.07 424.816 269.331 457.46 263.486 469.598L264.387 470.032C270.275 457.804 282.069 425.012 282.202 391.513L281.202 391.509ZM254.241 321.932C263.269 331.259 281.335 358.273 281.202 391.509L282.202 391.513C282.336 357.944 264.111 330.692 254.96 321.237L254.241 321.932ZM255.101 321.589L255.101 321.587L254.101 321.583L254.101 321.585L255.101 321.589ZM254.244 321.237C245.014 330.623 226.92 357.73 226.787 391.294L227.787 391.298C227.919 358.059 245.859 331.19 254.957 321.938L254.244 321.237ZM226.787 391.294C226.653 424.793 238.186 457.678 243.977 469.953L244.881 469.526C239.133 457.341 227.654 424.605 227.787 391.298L226.787 391.294ZM244.427 470.239L254.352 470.279L254.356 469.279L244.431 469.239L244.427 470.239ZM254.854 469.78L254.854 469.778L253.854 469.776L253.854 469.778L254.854 469.78Z" fill="white"/>
<path d="M269.322 426.044L292.611 426.428L292.656 402.197L304.847 402.059" stroke="white" stroke-dasharray="4 4"/>
<rect x="276.244" y="330.715" width="61.5986" height="3.60407" transform="rotate(-0.716304 276.244 330.715)" fill="white"/>
<rect x="286.818" y="374.8" width="41.2771" height="3.60407" transform="rotate(-0.716304 286.818 374.8)" fill="white"/>
<rect x="286.49" y="380.489" width="41.2771" height="0.909269" transform="rotate(-0.716304 286.49 380.489)" fill="white"/>
<rect x="285.928" y="383.353" width="41.2771" height="0.909269" transform="rotate(-0.716304 285.928 383.353)" fill="white"/>
<rect x="295.227" y="440.14" width="41.2771" height="3.45833" transform="rotate(-0.716304 295.227 440.14)" fill="white"/>
<rect x="295.643" y="444.247" width="41.2771" height="1.62204" transform="rotate(-0.716304 295.643 444.247)" fill="white"/>
<rect x="296.021" y="446.772" width="25.067" height="1.62204" transform="rotate(-0.716304 296.021 446.772)" fill="white"/>
<rect x="299.262" y="449.863" width="36.88" height="1.62204" transform="rotate(-0.716304 299.262 449.863)" fill="white"/>
<rect x="299.555" y="452.57" width="36.88" height="1.62204" transform="rotate(-0.716304 299.555 452.57)" fill="white"/>
<rect x="276.701" y="336.668" width="40.0291" height="0.976699" transform="rotate(-0.716304 276.701 336.668)" fill="white"/>
<rect x="276.867" y="339.377" width="40.0291" height="0.976699" transform="rotate(-0.716304 276.867 339.377)" fill="white"/>
<rect x="207.123" y="303.706" width="61.5986" height="3.60407" transform="rotate(-0.716304 207.123 303.706)" fill="white"/>
<path d="M281.107 402.637L227.765 403.775L228.559 410.407L280.489 409.779L281.107 402.637Z" stroke="white"/>
<rect x="228.584" y="309.645" width="40.0291" height="0.976699" transform="rotate(-0.716304 228.584 309.645)" fill="white"/>
<rect x="229.264" y="311.528" width="40.0291" height="0.976699" transform="rotate(-0.716304 229.264 311.528)" fill="white"/>
<rect x="277.244" y="341.901" width="40.0291" height="0.976699" transform="rotate(-0.716304 277.244 341.901)" fill="white"/>
<rect x="277.961" y="345.369" width="40.0291" height="0.976699" transform="rotate(-0.716304 277.961 345.369)" fill="white"/>
<rect x="214.051" y="337.245" width="17.3471" height="0.909269" transform="rotate(-0.716304 214.051 337.245)" fill="white"/>
<rect x="214.016" y="338.984" width="17.3471" height="0.909269" transform="rotate(-0.716304 214.016 338.984)" fill="white"/>
<rect x="214.057" y="340.567" width="17.3471" height="0.909269" transform="rotate(-0.716304 214.057 340.567)" fill="white"/>
<rect x="214.096" y="342.149" width="17.3471" height="0.909269" transform="rotate(-0.716304 214.096 342.149)" fill="white"/>
<circle cx="206.994" cy="340.613" r="6.37227" transform="rotate(25.1726 206.994 340.613)" fill="white"/>
<path d="M267.071 371.398C263.598 378.789 255.244 382.107 248.446 378.912C241.648 375.717 238.872 367.168 242.345 359.777C245.818 352.387 254.173 349.068 260.97 352.263C267.768 355.458 270.545 364.008 267.071 371.398Z" stroke="white"/>
<rect x="320.762" y="398.16" width="17.3471" height="0.909269" transform="rotate(-0.716304 320.762 398.16)" fill="white"/>
<rect x="320.727" y="399.899" width="17.3471" height="0.909269" transform="rotate(-0.716304 320.727 399.899)" fill="white"/>
<rect x="320.768" y="401.482" width="17.3471" height="0.909269" transform="rotate(-0.716304 320.768 401.482)" fill="white"/>
<rect x="320.807" y="403.064" width="17.3471" height="0.909269" transform="rotate(-0.716304 320.807 403.064)" fill="white"/>
<circle cx="313.705" cy="401.528" r="6.37227" transform="rotate(25.1726 313.705 401.528)" fill="white"/>
<path d="M240.422 435.932L216.531 436.83L215.719 357.824" stroke="white" stroke-dasharray="4 4"/>
<rect x="535.803" y="310.245" width="250.463" height="65.4581" rx="1.5" fill="white" stroke="#CBCBCB"/>
<rect x="682.588" y="324.114" width="84.7998" height="5.33567" rx="2.66783" fill="#8EB3FD"/>
<rect x="682.588" y="340.227" width="84.7998" height="5.33567" rx="2.66783" fill="#8EB3FD"/>
<rect x="682.588" y="356.34" width="84.7998" height="5.33567" rx="2.66783" fill="#8EB3FD"/>
<path d="M587.598 363.902L581.63 357.391L584.148 354.873L587.598 358.324L595.39 350.533L597.908 353.593L587.598 363.902ZM575.119 322.318C584.707 322.318 592.482 326.203 592.482 330.999C592.482 335.796 584.707 339.681 575.119 339.681C565.53 339.681 557.756 335.796 557.756 330.999C557.756 326.203 565.53 322.318 575.119 322.318ZM557.756 335.34C557.756 340.137 565.53 344.022 575.119 344.022C584.707 344.022 592.482 340.137 592.482 335.34V341.851C592.482 342.776 592.193 343.666 591.657 344.501C588.88 343.721 585.922 343.885 583.248 344.969C580.574 346.052 578.336 347.993 576.885 350.487L575.119 350.533C565.53 350.533 557.756 346.648 557.756 341.851V335.34ZM557.756 346.192C557.756 350.988 565.53 354.873 575.299 354.873L575.119 357.044C575.119 358.563 575.379 360.021 575.857 361.376L575.119 361.384C565.53 361.384 557.756 357.5 557.756 352.703V346.192Z" fill="#274C97" fill-opacity="0.6"/>
<path fill-rule="evenodd" clip-rule="evenodd" d="M618.41 333.116C619.886 327.92 624.666 324.114 630.335 324.114C636.355 324.114 641.372 328.405 642.495 334.094C643.522 333.742 644.623 333.55 645.769 333.55C651.334 333.55 655.846 338.062 655.846 343.627C655.846 348.393 652.536 352.387 648.089 353.435C647.588 353.609 647.05 353.703 646.489 353.703H603.945C601.251 353.703 599.067 351.519 599.067 348.825C599.067 346.131 601.251 343.947 603.945 343.947H606.749C606.537 343.183 606.424 342.379 606.424 341.548C606.424 336.601 610.434 332.591 615.381 332.591C616.444 332.591 617.464 332.776 618.41 333.116Z" fill="#DCEDF4"/>
<path fill-rule="evenodd" clip-rule="evenodd" d="M631.094 338.552C632.569 333.356 637.35 329.55 643.019 329.55C649.038 329.55 654.055 333.841 655.179 339.531C656.206 339.178 657.307 338.987 658.453 338.987C664.018 338.987 668.529 343.498 668.529 349.063C668.529 353.83 665.219 357.823 660.772 358.871C660.271 359.045 659.733 359.139 659.173 359.139H616.629C613.935 359.139 611.751 356.955 611.751 354.261C611.751 351.567 613.935 349.383 616.629 349.383H619.433C619.221 348.619 619.108 347.815 619.108 346.984C619.108 342.037 623.118 338.027 628.064 338.027C629.128 338.027 630.147 338.212 631.094 338.552Z" fill="#F0FAFC"/>
<rect x="369.158" y="300.764" width="133.814" height="260.81" rx="5" fill="#C5CCE7"/>
<rect x="374.939" y="306.73" width="122.25" height="248.878" rx="5" fill="#8EB3FD"/>
<rect x="418.717" y="315.254" width="35.5186" height="4.2616" rx="2.1308" fill="#4632C3"/>
<g filter="url(#filter0_d)">
<rect x="378.24" y="329.743" width="113.164" height="31.5359" rx="7" fill="white"/>
</g>
<ellipse cx="398.067" cy="345.084" rx="8.26015" ry="8.52321" fill="#FFCDD6"/>
<rect x="411.281" y="341.675" width="71.8633" height="3.40928" rx="1.70464" fill="#B1D7FF"/>
<rect x="411.281" y="346.789" width="30.5625" height="3.40928" rx="1.70464" fill="#B1D7FF"/>
<g filter="url(#filter1_d)">
<path d="M379.068 535.579C379.068 530.636 383.075 526.629 388.018 526.629H483.283C488.226 526.629 492.232 530.636 492.232 535.579V535.579C492.232 540.521 488.226 544.528 483.283 544.528H388.018C383.075 544.528 379.068 540.521 379.068 535.579V535.579Z" fill="white"/>
</g>
<rect opacity="0.87" x="397.236" y="533.449" width="77.6454" height="4.2616" rx="2.1308" fill="#8EB3FD"/>
<rect x="379.068" y="370.655" width="112.338" height="144.042" rx="6" fill="white"/>
<rect x="521.434" y="385.684" width="263.362" height="89.7064" rx="8.5" fill="white" stroke="#CBCBCB"/>
<circle cx="554.162" cy="422.903" r="10.777" fill="#F27CAD"/>
<rect x="576.008" y="413.658" width="106.479" height="5.33567" rx="2.66783" fill="#7873D7"/>
<rect x="576.008" y="427.975" width="45.2842" height="5.33567" rx="2.66783" fill="#7873D7"/>
<rect x="542.965" y="449.317" width="74.6577" height="5.33567" rx="2.66783" fill="#7873D7"/>
<rect x="621.291" y="449.317" width="26.9257" height="5.33567" rx="2.66783" fill="#7873D7"/>
<rect x="653.113" y="449.317" width="42.8364" height="5.33567" rx="2.66783" fill="#7873D7"/>
<rect x="700.846" y="449.317" width="13.4629" height="5.33567" rx="2.66783" fill="#7873D7"/>
<rect x="717.982" y="449.317" width="59.9709" height="5.33567" rx="2.66783" fill="#7873D7"/>
<rect x="204.5" y="523.09" width="132.814" height="44.9137" rx="8.5" fill="white" stroke="#CBCBCB"/>
<circle cx="220.82" cy="541.683" r="5.45509" fill="#F27CAD"/>
<rect x="231.877" y="537.003" width="53.8975" height="2.70081" rx="1.3504" fill="#7873D7"/>
<rect x="231.877" y="544.25" width="22.9219" height="2.70081" rx="1.3504" fill="#7873D7"/>
<rect x="215.152" y="555.053" width="37.7902" height="2.70081" rx="1.3504" fill="#7873D7"/>
<rect x="254.799" y="555.053" width="13.6292" height="2.70081" rx="1.3504" fill="#7873D7"/>
<rect x="270.906" y="555.053" width="21.6829" height="2.70081" rx="1.3504" fill="#7873D7"/>
<rect x="295.07" y="555.053" width="6.81462" height="2.70081" rx="1.3504" fill="#7873D7"/>
<rect x="303.742" y="555.053" width="30.356" height="2.70081" rx="1.3504" fill="#7873D7"/>
<rect x="521.434" y="487.167" width="263.362" height="89.7064" rx="8.5" fill="white" stroke="#AAB1B6"/>
<circle cx="554.162" cy="518.998" r="10.777" fill="#F5AA45"/>
<rect x="574.818" y="511.813" width="106.479" height="5.33567" rx="2.66783" fill="#8EB3FD"/>
<rect x="574.818" y="524.479" width="45.2842" height="5.33567" rx="2.66783" fill="#8EB3FD"/>
<rect x="534.883" y="540.023" width="74.6577" height="5.33567" rx="2.66783" fill="#8EB3FD"/>
<rect x="613.209" y="540.023" width="26.9257" height="5.33567" rx="2.66783" fill="#8EB3FD"/>
<rect x="645.031" y="540.023" width="42.8364" height="5.33567" rx="2.66783" fill="#8EB3FD"/>
<rect x="692.764" y="540.023" width="13.4629" height="5.33567" rx="2.66783" fill="#8EB3FD"/>
<rect x="709.898" y="540.023" width="59.9709" height="5.33567" rx="2.66783" fill="#8EB3FD"/>
<path d="M904.194 630.139C911.266 643.598 840.6 646.348 804.382 646.04C798.28 602.289 789.65 517.484 803.951 528.268C821.826 541.748 818.623 539.484 823.431 547.253C828.238 555.022 827.494 520.653 831.051 509.488C834.608 498.323 834.654 488.907 841.675 485.408C848.696 481.91 853.761 516.681 859.547 520.488C865.333 524.296 887.527 477.484 902.86 471.258C915.127 466.277 914.48 472.372 912.623 476.043C908.962 485.63 895.205 521.059 901.942 524.805C910.362 529.486 941.758 492.403 962.053 491.94C978.288 491.569 975.227 502.144 971.667 507.478C961.482 517.014 940.473 537.382 937.915 542.568C934.717 549.051 941.323 542.157 961.828 547.764C978.231 552.25 970.665 558.757 964.831 561.45C946.725 565.67 910.555 575.323 910.723 580.18C910.933 586.251 936.701 584.861 945.997 586.919C953.434 588.565 949.96 593.95 947.294 596.437C915.916 600.537 857.912 610.177 876.919 615.939C895.927 621.701 903.022 627.807 904.194 630.139Z" fill="#9CBEE8"/>
<path d="M804.001 646.01C836.227 606.465 913.491 521.843 964.748 499.708" stroke="#2F4CAC"/>
<path d="M885.721 631.976C867.915 635.739 830.464 635.22 813.963 634.49L816.903 630.977C818.766 634.537 863.558 633.127 885.721 631.976Z" fill="#2F4CAC"/>
<path d="M802.953 533.777C804.703 556.854 816.667 603.719 822.431 624.266L825.722 620.437C821.655 618.808 808.602 561.799 802.953 533.777Z" fill="#2F4CAC"/>
<path d="M839.922 494.952C841.672 518.03 853.11 564.512 858.873 585.059L862.384 581.055C858.317 579.426 845.57 522.975 839.922 494.952Z" fill="#2F4CAC"/>
<path d="M864.892 577.986L864.71 578.563L869.896 573.62C867.545 569.514 890.834 503.623 903.076 471.876C890.716 496.075 872.645 553.396 864.892 577.986Z" fill="#2F4CAC"/>
<path d="M928.426 590.386C909.544 594.067 868.877 593.301 851.359 592.493L854.802 588.473C856.796 592.044 904.906 591.433 928.426 590.386Z" fill="#2F4CAC"/>
<path d="M964.193 555.742C945.311 559.423 904.154 558.086 886.636 557.278L890.569 553.829C892.564 557.4 940.674 556.789 964.193 555.742Z" fill="#2F4CAC"/>
<path d="M144.781 590.759C142.211 595.9 163.847 600.613 174.987 602.327L175.629 589.474C178.843 573.407 178.843 569.551 174.987 570.194C171.131 570.836 167.917 578.548 166.632 574.05C165.347 569.551 174.987 557.983 171.773 549.628C168.56 541.274 162.133 554.77 159.563 552.842C156.992 550.914 161.491 529.063 157.635 527.778C153.779 526.492 153.136 544.487 151.851 538.06C150.565 531.634 140.283 518.138 131.928 523.279C123.573 528.42 146.709 541.274 144.781 543.844C142.853 546.415 130 538.703 130 546.415C130 554.127 151.208 556.698 155.707 559.911C160.205 563.124 141.568 566.338 137.069 568.266C132.571 570.194 133.856 577.263 146.709 577.906C159.563 578.548 162.133 581.762 163.419 584.975C164.704 588.188 147.995 584.332 144.781 590.759Z" fill="#62A2F4"/>
<path d="M146.711 538.06C149.924 540.845 156.994 550.014 159.564 564.409C162.135 578.805 170.061 592.687 173.703 597.828" stroke="white" stroke-opacity="0.32"/>
<path d="M204.219 589.939C206.789 595.08 185.153 599.793 174.013 601.507L173.371 588.653C170.157 572.587 170.157 568.731 174.013 569.373C177.869 570.016 181.083 577.728 182.368 573.229C183.653 568.731 174.013 557.163 177.227 548.808C180.44 540.453 186.867 553.949 189.437 552.021C192.008 550.093 187.509 528.243 191.365 526.958C195.221 525.672 195.864 543.667 197.149 537.24C198.435 530.813 208.717 517.318 217.072 522.459C225.427 527.6 202.291 540.453 204.219 543.024C206.147 545.595 219 537.883 219 545.595C219 553.307 197.792 555.877 193.293 559.091C188.795 562.304 207.432 565.517 211.931 567.445C216.429 569.373 215.144 576.443 202.291 577.085C189.437 577.728 186.867 580.941 185.581 584.155C184.296 587.368 201.005 583.512 204.219 589.939Z" fill="#7873D7"/>
<path d="M202.291 537.241C199.078 540.025 192.008 549.194 189.438 563.59C186.867 577.985 178.941 591.867 175.299 597.008" stroke="white" stroke-opacity="0.32"/>
<path d="M154.415 580.237C149.009 580.237 155.128 590.447 158.689 594.483L169.373 605.88C174.596 603.743 185.613 598.899 187.892 596.62C190.741 593.771 187.18 593.059 183.619 592.346C180.769 591.776 182.431 589.26 183.619 588.073C195.585 584.654 199.526 578.101 200.001 575.251C200.001 574.539 200.001 573.115 197.152 570.978C194.303 568.841 182.906 585.223 183.619 574.539C184.331 563.855 200.713 551.746 200.001 546.76C199.289 541.774 195.727 548.184 189.317 551.746C184.188 554.595 184.331 549.609 185.043 546.76C188.367 542.961 194.588 534.366 192.878 530.377C190.741 525.391 189.317 530.377 183.619 535.363C177.92 540.349 181.482 529.665 182.906 527.528C184.331 525.391 197.152 497.612 174.359 502.598C151.566 507.584 165.099 537.5 165.811 541.774C166.524 546.048 160.826 536.075 152.278 538.925C143.731 541.774 167.949 557.444 167.949 561.718C167.949 565.992 158.689 559.581 154.415 558.869C150.142 558.156 158.689 568.841 160.826 575.251C162.535 580.38 161.538 581.662 160.826 581.662C158.689 583.087 158.689 580.237 154.415 580.237Z" fill="#2F4CAC"/>
<path d="M175.783 517.556C174.358 517.793 171.937 525.818 173.646 556.02C175.356 586.221 172.934 597.095 171.51 598.757" stroke="white" stroke-opacity="0.19" stroke-width="2" stroke-linejoin="round"/>
<path d="M157.904 608.311H188.27L184.988 641.139H160.777L157.904 608.311Z" fill="#E92476"/>
<mask id="mask1" mask-type="alpha" maskUnits="userSpaceOnUse" x="157" y="608" width="32" height="34">
<path d="M157.906 608.31H188.272L184.99 641.138H160.779L157.906 608.31Z" fill="#E92476"/>
</mask>
<g mask="url(#mask1)">
<rect x="153.803" y="602.565" width="38.5733" height="11.4899" rx="5.74495" fill="#D2055B"/>
</g>
<rect x="153.803" y="599.283" width="38.5733" height="11.4899" rx="5.74495" fill="#E92476"/>
<path d="M158.725 618.159H187.449L186.218 631.29H159.545L158.725 618.159Z" fill="#F27CAD"/>
<path d="M920.627 473.657C927.659 470.012 923.032 457.326 919.446 451.631L910.837 453.626C914.211 457.391 909.833 466.732 912.642 467.085C914.807 467.357 914.264 465.677 914.919 462.973C916.867 464.081 918.719 469.584 919.277 472.874C919.386 473.517 920.048 473.957 920.627 473.657Z" fill="#EF937E"/>
<path d="M752.392 385.745C748.125 392.418 758.474 401.091 764.428 404.23L776.378 409.916L770.885 398.197C766.082 396.624 765.203 386.345 762.593 387.444C760.582 388.291 761.892 389.475 762.677 392.144C760.436 392.159 756.081 388.318 753.953 385.748C753.537 385.246 752.744 385.196 752.392 385.745Z" fill="#EF937E"/>
<path d="M814.625 391.409C824.483 361.267 835.552 349.725 837.161 346.543C838.835 369.92 833.951 416.165 822.572 423.559C811.193 430.952 781.776 416.846 768.49 408.869L772.124 395.06C800.491 404.904 812.277 396.728 814.625 391.409Z" fill="#EA596A"/>
<path d="M835.953 348.354L845.075 341.029L853.637 341.964L866.975 439.037L816.029 450.421C816.322 447.371 821.651 415.974 825.711 391.55C829.44 369.12 834.635 356.788 835.953 348.354Z" fill="white"/>
<path d="M831.551 315.059L833.356 309.416L836.367 304.369C837.958 303.552 844.075 302.699 855.812 305.817C867.55 308.935 860.239 330.092 855.117 340.281L854.671 343.988C846.898 347.518 834.263 351.231 836.11 348.135C837.836 345.244 838.124 343.848 838.38 341.692C836.062 341.973 833.854 341.864 832.166 341.377C829.303 340.552 830.812 337.111 831.924 335.493C831.115 335.011 830.85 333.963 831.333 333.154L830.502 332.402C830.139 332.074 830.017 331.556 830.195 331.101C830.509 330.298 830.197 329.385 829.456 328.944L827.846 327.983C827.316 327.666 827.196 326.949 827.596 326.478L831.026 322.43C831.664 321.678 831.866 320.65 831.562 319.712C831.071 318.201 831.067 316.573 831.551 315.059Z" fill="#EF937E"/>
<path d="M852.05 335.802L854.202 339.277C854.601 339.921 855.544 339.905 855.92 339.248L863.455 326.097C864.968 323.456 866.204 320.607 866.276 317.564C866.426 311.149 864.255 302.344 854.917 298.44C840.077 292.234 835.609 299.722 835.023 299.594C834.555 299.491 833.958 298.296 833.718 297.711C833.485 298.102 833.451 299.392 833.463 299.988C832.447 299.028 833.229 297.051 833.747 296.183C826.482 303.327 829.658 308.092 832.154 309.582C834.863 309.358 840.561 309.477 841.685 311.737C843.09 314.562 842.276 314.076 845.338 316.344C847.787 318.159 846.289 324.123 845.234 326.878L843.582 329.646L847.675 328.335C848.263 324.094 851.465 322.355 852.992 322.015C856.922 323.124 854.002 331.668 852.05 335.802Z" fill="#393939"/>
<path d="M889.389 611.691L887.63 595.655L869.931 596.817L876.592 615.43L889.389 611.691Z" fill="#EF937E"/>
<path d="M875.305 613.528C878.965 613.635 886.41 611.096 889.676 609.814L890.165 609.622L896.617 623.171L857.924 638.367C850.479 641.291 852.71 636.127 854.756 633.179C861.809 630.409 871.394 618.924 875.305 613.528Z" fill="#1D104A"/>
<path d="M814.523 624.008L818.748 608.439L801.849 603.05L801.245 622.81L814.523 624.008Z" fill="#EF937E"/>
<path d="M800.74 620.569C804.108 622.006 811.966 622.366 815.474 622.366H816L817.053 637.336H775.482C767.484 637.336 771.448 633.344 774.43 631.348C782.007 631.348 795.127 624.162 800.74 620.569Z" fill="#1D104A"/>
<path d="M839.517 525.244C847.518 550.398 857.643 579.01 870.05 609.085H893.588C887.552 591.381 874.395 533.401 870.05 443.111L816.938 440.093C810.701 463.028 798.711 528.935 800.642 609.085L820.559 609.689C824.828 587.615 831.788 555.107 839.517 525.244Z" fill="#393939"/>
<mask id="mask2" mask-type="alpha" maskUnits="userSpaceOnUse" x="800" y="440" width="94" height="170">
<path d="M839.517 525.244C847.518 550.398 857.643 579.01 870.05 609.085H893.588C887.552 591.381 874.395 533.401 870.05 443.111L816.938 440.093C810.701 463.028 798.711 528.935 800.642 609.085L820.559 609.689C824.828 587.615 831.788 555.107 839.517 525.244Z" fill="#79C7CE"/>
</mask>
<g mask="url(#mask2)">
<path d="M839.27 523.985L824.784 611.499H795.211L788.572 551.748L816.938 438.282L839.27 523.985Z" fill="#262626"/>
</g>
<path d="M831.784 446.366C821.038 420.164 836.301 369.824 845.133 345.521L854.664 342.923C896.33 364.517 917.076 423.197 922.685 451.945L908.324 455.154C905.219 455.848 878.865 408.837 878.865 408.837C878.865 408.837 872.012 402.043 888.897 453.929L831.784 446.366Z" fill="#FC7383"/>
<path d="M686.865 633.979L683.049 619.915L698.315 615.046L698.86 632.897L686.865 633.979Z" fill="#B88B60"/>
<path d="M699.314 630.872C696.272 632.171 689.173 632.495 686.004 632.495H685.529L684.578 646.018H722.131C729.357 646.018 725.776 642.412 723.082 640.609C716.237 640.609 704.385 634.118 699.314 630.872Z" fill="#1D104A"/>
<path d="M633.158 633.979L636.975 619.915L621.708 615.046L621.163 632.897L633.158 633.979Z" fill="#B88B60"/>
<path d="M620.709 630.872C623.751 632.171 630.85 632.495 634.019 632.495H634.495L635.445 646.018H597.892C590.666 646.018 594.248 642.412 596.941 640.609C603.786 640.609 615.639 634.118 620.709 630.872Z" fill="#1D104A"/>
<path d="M638.518 315.082L640.022 309.526L642.723 304.495C644.231 303.633 650.131 302.536 661.66 305.048C673.19 307.56 666.91 327.961 662.385 338.075L662.384 350.514C654.994 354.281 647.119 350.66 647.119 347.344L647.119 340.256C644.881 340.63 641.928 340.998 640.268 340.6C637.453 339.925 638.767 336.518 639.775 334.9C638.969 334.467 638.666 333.462 639.099 332.655L638.259 331.961C637.893 331.659 637.752 331.162 637.905 330.712C638.174 329.919 637.831 329.047 637.093 328.651L635.518 327.805C634.973 327.512 634.822 326.801 635.199 326.312L638.331 322.26C638.917 321.502 639.069 320.495 638.732 319.598C638.189 318.152 638.114 316.573 638.518 315.082Z" fill="#F3AEAE"/>
<path d="M658.617 336.875L660.831 340.114C661.259 340.739 662.2 340.681 662.546 340.007L669.201 327.07C670.594 324.364 671.703 321.46 671.622 318.417C671.454 312.197 668.931 303.841 659.762 300.484C645.085 295.111 641.077 302.576 640.503 302.477C640.044 302.397 639.412 301.264 639.153 300.707C638.944 301.096 638.968 302.35 639.006 302.927C637.977 302.04 638.65 300.088 639.114 299.222C632.376 306.475 635.668 310.961 638.156 312.297C640.775 311.961 646.311 311.826 647.501 313.971C648.989 316.651 648.178 316.215 651.249 318.283C653.706 319.937 652.513 325.791 651.609 328.512L650.128 331.27L654.044 329.819C654.428 325.677 657.459 323.848 658.927 323.451C662.79 324.355 660.33 332.777 658.617 336.875Z" fill="#393939"/>
<path d="M647.064 341.89L642.157 343.526L636.705 429.126H668.328V341.89H662.33L662.23 343.497C661.98 347.497 658.663 350.614 654.655 350.614C650.463 350.614 647.064 347.216 647.064 343.024V341.89Z" fill="white"/>
<path d="M592.268 332.781C584.25 334.435 585.474 347.766 587.531 354.133L595.814 354.43C593.457 349.97 601.149 342.166 598.442 341.11C596.356 340.296 596.449 342.04 595.073 344.456C593.431 342.902 593.053 337.191 593.372 333.901C593.435 333.25 592.909 332.648 592.268 332.781Z" fill="#EA8F72"/>
<path d="M645.569 400.257C645.092 408.43 658.285 410.698 664.968 410.359L667.399 402.435C662.481 403.558 656.933 394.108 655.212 396.449C653.886 398.253 655.595 398.615 657.572 400.569C655.646 401.753 650.032 400.64 646.937 399.48C646.324 399.251 645.607 399.603 645.569 400.257Z" fill="#EA8F72"/>
<path d="M684.138 428.581H623.073L618.711 629.767H637.248L649.243 483.103L681.411 629.767H701.039L684.138 428.581Z" fill="#333333"/>
<path d="M636.162 468.927L642.159 343.526L639.978 344.072C638.888 344.617 638.997 344.508 626.348 348.433C613.699 352.359 605.811 375.876 603.448 387.144L596.361 353.886H587.092L589.295 401.912C589.588 408.292 594.845 413.315 601.232 413.315C605.905 413.315 610.149 410.591 612.096 406.344L620.896 387.144C616.534 412.77 607.701 465.002 607.265 468.927C606.829 472.853 626.348 470.563 636.162 468.927Z" fill="#7873D7"/>
<mask id="mask3" mask-type="alpha" maskUnits="userSpaceOnUse" x="587" y="343" width="56" height="129">
<path d="M636.162 468.927L642.159 343.526L639.978 344.072C638.888 344.617 638.997 344.508 626.348 348.433C613.699 352.359 605.811 375.876 603.448 387.144L596.361 353.886H587.092L589.295 401.912C589.588 408.292 594.845 413.315 601.232 413.315C605.905 413.315 610.149 410.591 612.096 406.344L620.896 387.144C616.534 412.77 607.701 465.002 607.265 468.927C606.829 472.853 626.348 470.563 636.162 468.927Z" fill="#DEECF9"/>
</mask>
<g mask="url(#mask3)">
<circle cx="600.177" cy="418.767" r="13.0853" fill="#BFCEE1" fill-opacity="0.3"/>
<line x1="639.931" y1="342.461" x2="633.388" y2="472.224" stroke="#6762D1"/>
<path d="M603.448 393.141L602.902 381.692V376.785L605.083 377.875L603.448 393.141Z" fill="#7D809D"/>
</g>
<path fill-rule="evenodd" clip-rule="evenodd" d="M700.496 359.883C697.007 353.777 677.597 344.98 668.328 341.345L666.53 402.223L664.512 401.865V410.589C665.059 410.764 665.645 410.952 666.267 411.151L664.512 470.563H696.135L691.397 419.083C697.192 420.884 702.623 422.545 706.494 423.674C716.962 426.727 718.852 416.223 718.489 410.589C713.945 396.231 703.986 365.989 700.496 359.883ZM687.956 381.692L698.861 410.043L688.502 407.317L687.956 381.692Z" fill="#7873D7"/>
<path d="M664.512 401.865V410.589L698.861 421.493L699.406 410.043L664.512 401.865Z" fill="url(#paint0_linear)"/>
<mask id="mask4" mask-type="alpha" maskUnits="userSpaceOnUse" x="664" y="341" width="55" height="130">
<path fill-rule="evenodd" clip-rule="evenodd" d="M700.496 359.883C697.007 353.777 677.597 344.98 668.328 341.345L666.53 402.229L664.512 401.865V410.589C665.059 410.764 665.645 410.952 666.267 411.151L664.512 470.563H696.135L691.397 419.083C697.192 420.884 702.623 422.545 706.494 423.674C716.962 426.727 718.852 416.223 718.489 410.589C713.945 396.231 703.986 365.989 700.496 359.883ZM687.957 381.692L697.771 407.862L690.138 404.591L687.957 381.692Z" fill="#7873D7"/>
</mask>
<g mask="url(#mask4)">
<line x1="670.465" y1="339.165" x2="670.465" y2="403.501" stroke="#6762D1"/>
<path d="M670.465 412.85L670.465 470.51" stroke="#6762D1"/>
<circle cx="721.214" cy="423.129" r="13.0853" fill="#BFCEE1" fill-opacity="0.3"/>
<path d="M702.676 412.224L698.86 410.043L698.314 408.408L702.676 412.224Z" fill="#7D809D"/>
</g>
<path d="M114.296 628.615L110.812 615.777L124.748 611.333L125.246 627.627L114.296 628.615Z" fill="#F3AEAE"/>
<path d="M125.659 625.78C122.882 626.965 116.402 627.261 113.509 627.261H113.075L112.207 639.606H146.487C153.083 639.606 149.814 636.314 147.355 634.668C141.107 634.668 130.287 628.742 125.659 625.78Z" fill="#1D104A"/>
<path d="M44.2002 610.124L47.6022 597.264L61.8928 600.383L54.1764 614.744L44.2002 610.124Z" fill="#F3AEAE"/>
<path d="M55.4601 613.351C52.4625 612.989 46.7025 610.005 44.1972 608.559L43.8215 608.342L36.8976 618.599L66.5852 635.739C72.2972 639.037 71.1122 634.551 69.8057 631.897C64.3943 628.772 57.9872 618.231 55.4601 613.351Z" fill="#1D104A"/>
<path d="M165.583 408.433L128.753 417.89L121.785 403.456H162.597L165.583 408.433Z" fill="#EE9F86"/>
<path d="M168.802 374.864L136.906 407.229C136.283 407.861 136.731 408.931 137.618 408.931H165.19C165.446 408.931 165.692 408.833 165.878 408.657L201.928 374.479C202.604 373.838 202.114 372.702 201.183 372.755L169.457 374.568C169.209 374.582 168.976 374.687 168.802 374.864Z" fill="#333333"/>
<path d="M126.43 384.264C131.213 370.962 120.893 361.101 114.819 353.601C115.317 353.103 113.368 353.601 111.335 353.601C109.345 353.601 101.683 350.849 92.2264 355.827C79.8835 372.948 83.4657 409.765 86.4519 425.193C101.715 425.525 126.43 429.731 126.43 427.213C126.43 426.073 126.43 425.79 126.43 425.756C126.43 425.559 126.43 424.974 126.43 423.432C126.429 416.841 126.43 405.362 126.43 384.264Z" fill="#FEAF22"/>
<path d="M80.675 459.986C77.4727 445.721 83.01 430.847 86.179 425.194L125.671 426.457C126.872 447.833 83.3442 558.628 57.6587 611.334L43.6484 605.245C57.3249 562.769 83.8773 474.251 80.675 459.986Z" fill="#04138A"/>
<path d="M86.0599 415.401L85.0645 385.539L100.493 384.046L98.0047 407.438L135.83 387.368L139.812 393.34L95.0185 422.369H93.0277C89.1795 422.369 86.0599 419.249 86.0599 415.401Z" fill="#EE9F86"/>
<path d="M154.676 384.284C150.666 378.664 140.398 383.62 135.832 387.368L139.811 393.341C142.74 389.967 149.877 394.637 149.876 392.134C149.876 390.206 148.463 390.867 146.019 390.591C146.763 388.791 151.245 386.603 154.079 385.721C154.702 385.527 155.055 384.815 154.676 384.284Z" fill="#EE9F86"/>
<path d="M124.719 619.284L126.429 427.006L87.1074 425.701L109.76 619.284H124.719Z" fill="#030E68"/>
<path d="M83.0742 367.621C83.0742 361.574 87.9764 356.672 94.0236 356.672V356.672C100.071 356.672 104.973 361.574 104.973 367.621V385.539H83.0742V367.621Z" fill="#EE9D0C"/>
<path d="M129.606 330.729C129.889 329.881 129.976 328.919 129.969 327.941C129.942 324.36 128.571 320.811 126.652 317.787C110.012 308.861 102.73 323.527 101.168 331.976L103.235 356.909L111.828 359.097C114.503 359.778 117.048 357.609 116.799 354.86L116.305 349.405C118.369 349.405 119.964 349.463 124.51 350.427C129.055 351.392 128.229 347.259 128.367 346.57C128.448 346.163 129.087 345.58 129.637 345.155C129.9 344.952 129.938 344.56 129.703 344.325C129.498 344.12 129.498 343.786 129.703 343.581L130.019 343.265C130.341 342.943 130.396 342.44 130.152 342.055L129.913 341.679C129.731 341.394 129.759 341.023 129.981 340.768L131.115 339.464C131.756 338.729 131.761 337.646 131.22 336.836C130.085 335.139 128.935 332.743 129.606 330.729Z" fill="#F3AEAE"/>
<path d="M102.23 341.765C102.986 346.302 100.717 340.253 99.611 336.312C98.3729 334.67 94.8745 325.737 96.3046 320.419C97.3335 316.593 98.511 312.427 105.048 311.798C93.296 312.322 100.656 311.743 106.835 311.648L105.871 310.685C103.796 308.611 101.858 307.314 100.574 307.314C89.9807 307.795 76.0164 309.722 70.7196 304.424C66.4821 300.186 58.6815 302.658 55.3109 304.424C34.6052 311.648 -1.50955 303.461 19.1962 288.05C39.902 272.638 40.3835 279.862 56.7555 288.05C73.1275 296.237 69.7568 287.086 90.9441 289.494C107.894 291.421 108.6 305.066 106.835 311.648C100.656 311.743 93.296 312.322 105.048 311.798C105.604 311.744 106.198 311.716 106.835 311.716C107.293 311.695 107.774 311.672 108.279 311.648C128.503 310.685 130.965 326.641 129.452 325.129C127.761 323.438 112.816 323.617 111.304 332.691C107.933 328.356 107.18 326.502 105.254 328.91C103.328 331.318 101.356 336.523 102.23 341.765Z" fill="#393939"/>
<path d="M0 645C0 642.239 2.23858 640 5 640H970C972.761 640 975 642.239 975 645V645C975 647.761 972.761 650 970 650H5C2.23858 650 0 647.761 0 645V645Z" fill="#4147C9"/>
<defs>
<filter id="filter0_d" x="370.24" y="325.743" width="129.164" height="47.5359" filterUnits="userSpaceOnUse" color-interpolation-filters="sRGB">
<feFlood flood-opacity="0" result="BackgroundImageFix"/>
<feColorMatrix in="SourceAlpha" type="matrix" values="0 0 0 0 0 0 0 0 0 0 0 0 0 0 0 0 0 0 127 0"/>
<feOffset dy="4"/>
<feGaussianBlur stdDeviation="4"/>
<feColorMatrix type="matrix" values="0 0 0 0 0 0 0 0 0 0 0 0 0 0 0 0 0 0 0.1 0"/>
<feBlend mode="normal" in2="BackgroundImageFix" result="effect1_dropShadow"/>
<feBlend mode="normal" in="SourceGraphic" in2="effect1_dropShadow" result="shape"/>
</filter>
<filter id="filter1_d" x="371.068" y="522.629" width="129.164" height="33.8987" filterUnits="userSpaceOnUse" color-interpolation-filters="sRGB">
<feFlood flood-opacity="0" result="BackgroundImageFix"/>
<feColorMatrix in="SourceAlpha" type="matrix" values="0 0 0 0 0 0 0 0 0 0 0 0 0 0 0 0 0 0 127 0"/>
<feOffset dy="4"/>
<feGaussianBlur stdDeviation="4"/>
<feColorMatrix type="matrix" values="0 0 0 0 0 0 0 0 0 0 0 0 0 0 0 0 0 0 0.1 0"/>
<feBlend mode="normal" in2="BackgroundImageFix" result="effect1_dropShadow"/>
<feBlend mode="normal" in="SourceGraphic" in2="effect1_dropShadow" result="shape"/>
</filter>
<linearGradient id="paint0_linear" x1="665.057" y1="406.772" x2="701.042" y2="416.586" gradientUnits="userSpaceOnUse">
<stop stop-color="#7873D7"/>
<stop offset="1" stop-color="#D7E8F7" stop-opacity="0"/>
</linearGradient>
</defs>
</svg>
