<svg width="1440" height="900" viewBox="0 0 1440 900" fill="none" xmlns="http://www.w3.org/2000/svg">
<g clip-path="url(#clip0)">
<rect width="1440" height="900" fill="white"/>
<rect width="1440.2" height="900" fill="#0748A6"/>
<path d="M365.554 460.496C226.8 445.713 -62.4235 532.147 -189.691 577.212L-230 589.023H1625.22L1500.6 514.825C1480.21 497.271 1408.82 455.161 1286.42 427.149C1164.02 399.137 1024.51 434.745 970.051 456.05V295.983H862.323V382.686H820.168V204H711.589V427.149H699.95V382.686H615.5V470.501H552.197V335.166H494.146V488.981C451.112 474.086 390.487 463.785 365.554 460.496Z" fill="url(#paint0_linear)"/>
<path fill-rule="evenodd" clip-rule="evenodd" d="M1137.74 297.538H1026.71C1030.26 293.921 1037.13 291.261 1045.34 290.545C1049.06 282.631 1063.32 276.738 1080.34 276.738C1094.66 276.738 1107.03 280.911 1112.8 286.95C1125.31 287.036 1135.66 291.58 1137.74 297.538Z" fill="#424CBA"/>
<path fill-rule="evenodd" clip-rule="evenodd" d="M1381.37 374.039H1270.34C1273.89 370.422 1280.76 367.762 1288.97 367.046C1292.69 359.132 1306.95 353.239 1323.97 353.239C1338.29 353.239 1350.66 357.412 1356.43 363.451C1368.94 363.537 1379.29 368.081 1381.37 374.039Z" fill="#5566CC"/>
<path fill-rule="evenodd" clip-rule="evenodd" d="M272.078 203.8H161.05C164.597 200.183 171.467 197.523 179.68 196.807C183.397 188.893 197.654 183 214.674 183C228.997 183 241.364 187.174 247.139 193.212C259.65 193.299 269.999 197.842 272.078 203.8Z" fill="#C6C6C6" fill-opacity="0.14"/>
<path fill-rule="evenodd" clip-rule="evenodd" d="M1373.57 248.898H1230C1234.59 244.22 1243.47 240.78 1254.09 239.854C1258.9 229.621 1277.33 222 1299.34 222C1317.87 222 1333.86 227.397 1341.32 235.206C1357.5 235.317 1370.89 241.193 1373.57 248.898Z" fill="white" fill-opacity="0.9"/>
<path fill-rule="evenodd" clip-rule="evenodd" d="M70.7692 330H-52C-48.0778 326 -40.4809 323.059 -31.3999 322.267C-27.2898 313.517 -11.5251 307 7.29536 307C23.1333 307 36.8072 311.615 43.1927 318.292C57.0275 318.388 68.4712 323.412 70.7692 330Z" fill="white" fill-opacity="0.9"/>
</g>
<defs>
<linearGradient id="paint0_linear" x1="697.609" y1="204" x2="697.609" y2="589.023" gradientUnits="userSpaceOnUse">
<stop stop-color="#093B83"/>
<stop offset="1" stop-color="#093B83" stop-opacity="0"/>
</linearGradient>
<clipPath id="clip0">
<rect width="1440" height="900" fill="white"/>
</clipPath>
</defs>
</svg>
