<svg width="762" height="393" viewBox="0 0 762 393" fill="none" xmlns="http://www.w3.org/2000/svg">
<mask id="mask0" style="mask-type:alpha" maskUnits="userSpaceOnUse" x="0" y="0" width="762" height="394">
<rect x="0.078125" y="0.638916" width="761.922" height="392.361" fill="#C4C4C4"/>
</mask>
<g mask="url(#mask0)">
<ellipse cx="397.665" cy="392.525" rx="364.335" ry="12.8254" fill="black" fill-opacity="0.38"/>
<ellipse opacity="0.05" cx="394.813" cy="392.525" rx="377.636" ry="15.6755" fill="black"/>
<path d="M719.115 361.159C705.223 377.234 660.953 385.632 640.554 387.822L639.727 388.595L632.698 305.128C638.763 301.135 653.207 292.686 662.469 290.831C674.046 288.512 683.556 290.444 688.931 302.037C694.307 313.63 711.259 306.674 723.25 315.562C735.241 324.449 736.482 341.065 719.115 361.159Z" fill="#4C86E4"/>
<mask id="mask1" style="mask-type:alpha" maskUnits="userSpaceOnUse" x="632" y="289" width="101" height="100">
<path d="M719.115 361.159C705.222 377.234 660.953 385.632 640.554 387.822L639.727 388.595L632.698 305.128C638.763 301.135 653.207 292.686 662.469 290.831C674.046 288.512 683.556 290.444 688.931 302.037C694.306 313.63 711.259 306.674 723.25 315.562C735.241 324.449 736.481 341.065 719.115 361.159Z" fill="#2F4CAC"/>
</mask>
<g mask="url(#mask1)">
<path d="M679.834 318.18C674.541 316.634 673.494 293.577 673.632 282.242L769.145 314.315C764.597 317.02 749.381 322.276 724.903 321.657C694.305 320.885 686.449 320.112 679.834 318.18Z" fill="#3073E0"/>
</g>
<path d="M682.464 281.838C679.974 314.707 655.121 360.632 643.006 379.486C646.081 383.302 657.253 385.323 677.335 362.885C702.438 334.837 685.577 240.751 682.464 281.838Z" fill="#00C89B"/>
<path fill-rule="evenodd" clip-rule="evenodd" d="M654.199 359.847C666.315 337.483 680.418 305.989 682.262 281.652C685.108 244.086 699.448 319.523 682.696 354.163C675.197 357.855 666.655 359.945 657.591 359.945C656.452 359.945 655.321 359.912 654.199 359.847Z" fill="#2F4CAC"/>
<path d="M708.075 329.285C692.995 350.133 657.922 371.721 642.27 379.909C642.724 383.516 649.217 388.794 671.555 381.048C699.478 371.365 726.924 303.224 708.075 329.285Z" fill="#2F4CAC"/>
<path fill-rule="evenodd" clip-rule="evenodd" d="M657.525 370.959C674.627 360.443 696.827 344.555 708.022 329.079C725.285 305.212 703.715 360.322 678.525 377.242C672.093 377.037 665.634 375.405 659.689 372.207C658.949 371.809 658.228 371.393 657.525 370.959Z" fill="#2F4CAC"/>
<path d="M60.0694 365.206C52.1998 376.929 120.621 384.338 155.815 386.577C164.997 347.295 179.686 270.928 164.997 279.721C146.634 290.712 149.913 288.88 144.667 295.597C139.421 302.313 142.7 271.172 140.076 260.792C137.453 250.412 138.109 241.863 131.551 238.2C124.993 234.536 117.487 265.742 111.585 268.795C105.683 271.848 87.6128 227.819 73.1853 221.103C61.6433 215.729 61.8182 221.306 63.3484 224.766C66.1901 233.722 76.9139 266.833 70.0937 269.764C61.5683 273.428 33.8376 237.589 14.1637 235.757C-1.57539 234.292 0.610596 244.102 3.67097 249.191C12.8521 258.553 31.739 278.5 33.8376 283.384C36.4607 289.491 30.5586 282.774 10.2289 286.438C-6.0348 289.368 0.82919 295.8 6.29415 298.65C23.5634 303.738 57.9708 315.014 57.4462 319.41C56.7904 324.906 31.8701 321.853 22.689 323.074C15.3441 324.051 18.317 329.18 20.7216 331.622C50.8882 337.525 106.5 350.307 87.6128 354.215C68.7259 358.123 61.3809 363.17 60.0694 365.206Z" fill="#6286DF"/>
<mask id="mask2" style="mask-type:alpha" maskUnits="userSpaceOnUse" x="0" y="218" width="173" height="169">
<path d="M60.8965 365.206C53.0269 376.929 121.448 384.338 156.643 386.577C165.824 347.294 180.514 270.928 165.824 279.721C147.461 290.712 150.74 288.88 145.494 295.596C140.248 302.313 143.527 271.172 140.904 260.792C138.28 250.412 138.936 241.863 132.378 238.199C125.82 234.536 118.314 265.741 112.412 268.794C106.51 271.847 88.4399 227.819 74.0124 221.102C62.4704 215.729 62.6453 221.306 64.1755 224.766C67.0173 233.722 77.741 266.833 70.9208 269.764C62.3954 273.427 34.6647 237.589 14.9908 235.757C-0.74824 234.292 1.43774 244.102 4.49812 249.19C13.6793 258.553 32.5662 278.499 34.6647 283.384C37.2879 289.49 31.3857 282.774 11.0561 286.437C-5.20765 289.368 1.65634 295.8 7.1213 298.649C24.3906 303.738 58.798 315.014 58.2733 319.41C57.6175 324.906 32.6973 321.853 23.5161 323.074C16.1712 324.051 19.1442 329.18 21.5488 331.622C51.7153 337.525 107.327 350.307 88.4399 354.215C69.553 358.123 62.2081 363.17 60.8965 365.206Z" fill="#0CFFC9"/>
</mask>
<g mask="url(#mask2)">
<ellipse cx="16.6138" cy="293.835" rx="124.044" ry="115.926" fill="#6685EA"/>
</g>
<path d="M156.186 386.577C127.834 348.447 59.0966 266.274 10.9668 242.62" stroke="#20437E"/>
<path d="M77.873 368.157C94.8845 372.811 131.293 374.944 147.371 375.428L144.778 372.035C142.703 375.137 99.3102 370.743 77.873 368.157Z" fill="#3160BF"/>
<path d="M165.558 284.79C162.141 305.613 147.036 347.313 139.91 365.561L136.999 361.857C141.069 360.661 157.987 309.829 165.558 284.79Z" fill="#3160BF"/>
<path d="M132.542 246.983C129.125 267.806 114.56 309.196 107.435 327.443L104.323 323.566C108.393 322.37 124.972 272.023 132.542 246.983Z" fill="#3160BF"/>
<path d="M102.114 320.605L102.248 321.142L97.5804 316.295C100.168 312.732 82.4541 251.312 72.9277 221.648C83.1306 244.47 96.4154 297.749 102.114 320.605Z" fill="#3160BF"/>
<path d="M39.4941 327.443C57.5572 332.096 97.1066 334.229 114.178 334.713L111.134 330.825C108.932 333.928 62.2566 330.028 39.4941 327.443Z" fill="#3160BF"/>
<path d="M7.33887 293.513C25.402 298.167 65.4699 299.815 82.5418 300.299L78.9791 296.896C76.7763 299.998 30.1013 296.099 7.33887 293.513Z" fill="#3160BF"/>
<path d="M61.3973 189.237C61.927 199.635 98.7039 209.661 117.026 213.375H131.596C194.509 181.192 158.086 133.535 155.437 127.346C152.788 121.157 101.132 56.1714 74.6422 64.2172C48.1523 72.2631 74.6422 102.59 74.6422 107.541C74.6422 112.492 66.6952 126.039 61.3972 134.085C56.0992 142.13 74.6422 153.341 74.6422 162.624C74.6422 171.908 60.735 176.24 61.3973 189.237Z" fill="#2F4CAC"/>
<path d="M129.981 219.494C129.287 213.503 128.098 205.417 126.381 195.976M93.5576 90.1418C101.82 106.505 108.574 125.139 113.946 143.368M113.946 143.368L123.359 117.374M113.946 143.368C119.539 162.349 123.636 180.892 126.381 195.976M113.946 143.368L126.381 195.976M126.381 195.976L97.5311 176.171" stroke="#132A77"/>
<path d="M701.859 223.597C701.566 229.358 681.19 234.913 671.039 236.97H662.967C628.111 219.14 648.291 192.737 649.759 189.308C651.226 185.879 679.845 149.875 694.521 154.332C709.197 158.79 694.521 175.592 694.521 178.335C694.521 181.078 698.924 188.583 701.859 193.041C704.795 197.499 694.521 203.71 694.521 208.853C694.521 213.996 702.226 216.397 701.859 223.597Z" fill="#2F4CAC"/>
<path d="M663.86 240.361C664.245 237.042 664.903 232.562 665.855 227.331M684.04 168.696C679.462 177.762 675.721 188.085 672.744 198.185M672.744 198.185L667.529 183.783M672.744 198.185C669.645 208.701 667.376 218.974 665.855 227.331M672.744 198.185L665.855 227.331M665.855 227.331L681.839 216.358" stroke="#082277"/>
<path d="M692.895 288.983C697.04 295.158 661.005 299.06 642.469 300.239C637.634 279.55 629.897 239.331 637.634 243.962C647.305 249.75 645.578 248.785 648.341 252.323C651.104 255.86 649.377 239.459 650.759 233.992C652.14 228.526 651.795 224.023 655.249 222.094C658.702 220.164 662.656 236.599 665.764 238.207C668.872 239.815 678.389 216.627 685.988 213.089C692.067 210.26 691.974 213.197 691.169 215.019C689.672 219.736 684.024 237.174 687.616 238.718C692.106 240.647 706.711 221.772 717.072 220.808C725.362 220.036 724.21 225.203 722.598 227.882C717.763 232.813 707.816 243.318 706.711 245.891C705.329 249.107 708.438 245.57 719.145 247.499C727.71 249.043 724.095 252.43 721.217 253.931C712.122 256.611 694.001 262.549 694.277 264.865C694.622 267.759 707.747 266.151 712.582 266.794C716.451 267.309 714.885 270.01 713.619 271.296C697.731 274.405 668.442 281.137 678.389 283.195C688.336 285.253 692.205 287.912 692.895 288.983Z" fill="#9CBEE8"/>
<path d="M642.271 300.239C657.203 280.158 693.405 236.88 718.753 224.423" stroke="#2F4CAC"/>
<path d="M683.52 290.539C674.56 292.989 655.385 294.113 646.918 294.368L648.283 292.581C649.376 294.215 672.229 291.9 683.52 290.539Z" fill="#2F4CAC"/>
<path d="M637.341 246.631C639.14 257.598 647.096 279.56 650.848 289.171L652.382 287.22C650.238 286.59 641.328 259.819 637.341 246.631Z" fill="#2F4CAC"/>
<path d="M654.727 226.719C656.526 237.686 664.197 259.485 667.95 269.095L669.589 267.053C667.445 266.423 658.714 239.907 654.727 226.719Z" fill="#2F4CAC"/>
<path d="M670.753 265.494L670.682 265.776L673.14 263.223C671.778 261.347 681.107 228.999 686.124 213.377C680.751 225.396 673.754 253.456 670.753 265.494Z" fill="#2F4CAC"/>
<path d="M703.731 269.096C694.218 271.546 673.389 272.669 664.398 272.925L666.001 270.877C667.161 272.511 691.743 270.457 703.731 269.096Z" fill="#2F4CAC"/>
<path d="M720.666 251.226C711.153 253.676 690.051 254.544 681.059 254.8L682.936 253.007C684.096 254.641 708.678 252.587 720.666 251.226Z" fill="#2F4CAC"/>
<path d="M477.135 25.3603L478.083 21.4998L478.083 17.5324C477.408 16.5086 473.976 13.8977 465.653 11.6453C457.331 9.39281 454.079 24.1874 453.494 31.8663L450.579 40.4411C454.047 45.1764 463.221 47.4997 463.221 45.066C463.221 42.793 462.591 39.8124 463.221 38.4741C464.538 39.4389 465.929 40.1393 467.139 40.4411C469.193 40.953 469.526 38.436 469.436 37.1136L469.5 37.1136C470.137 37.1136 470.652 36.5979 470.652 35.9617L471.46 35.8086C471.787 35.7467 472.041 35.4891 472.099 35.1616C472.2 34.5881 472.698 34.17 473.28 34.17L474.475 34.17C475.018 34.17 475.43 33.6795 475.336 33.1444L474.764 29.8941C474.644 29.2144 474.898 28.5229 475.43 28.0825C476.275 27.3815 476.873 26.4271 477.135 25.3603Z" fill="#EE9F86"/>
<path d="M486.134 83.1065L486.84 85.5703L495.003 114.04L486.925 114.999C484.019 104.154 479.371 94.6866 475.538 88.2428C473.443 84.7196 475.088 79.9979 479.031 79.0104C482.086 78.2454 485.266 80.0793 486.134 83.1065Z" fill="#EA8F72"/>
<path d="M485.784 81.0972C479.33 54.7762 468.304 43.3531 464.881 40.6113C464.881 40.9541 464.148 43.3531 463.047 46.4376C461.838 49.829 451.312 85.7811 445.812 104.402L467.448 105.431L467.081 73.5574L473.316 84.8672L485.784 81.0972Z" fill="#1DB6E7"/>
<path d="M463.173 42.2767C455.839 48.857 453.881 42.3255 451.314 37.8701C451.29 37.8294 451.315 37.8677 448.013 35.8138C447.78 35.6684 418.676 91.7226 422.71 94.8071C425.937 97.2747 445.324 96.1333 454.614 96.1333C456.558 81.3053 464.905 40.6119 464.883 40.6119C464.498 40.6486 463.851 41.6687 463.173 42.2767Z" fill="white"/>
<path d="M420.141 160.907L415.74 91.3345L454.613 96.1326L483.951 160.907H464.148L437.377 105.729V160.907H420.141Z" fill="#1D104A"/>
<path d="M421.242 53.3363C425.349 38.2565 440.678 35.3558 448.012 35.8127C437.744 45.409 431.021 83.3817 428.943 102.003L406.939 91.3785C409.995 84.981 417.134 68.4161 421.242 53.3363Z" fill="#18BBEF"/>
<path d="M448.745 76.2995C441.998 59.5746 445.201 42.3252 448.012 35.8135L446.912 36.8416C431.656 46.9863 428.087 57.107 427.842 60.877C424.175 98.2338 457.18 97.2057 448.745 76.2995Z" fill="#18BBEF"/>
<path fill-rule="evenodd" clip-rule="evenodd" d="M478.272 83.8051C483.822 83.284 494.973 84.8993 495.33 90.9887C495.368 91.6314 494.672 92.0337 494.047 91.8632C491.341 91.1244 486.709 90.5477 485.177 91.5099C485.64 91.8791 486.082 92.166 486.464 92.414C487.545 93.1156 488.146 93.5055 487.388 94.564C486.785 95.4056 485.347 94.2945 483.573 92.924C481.429 91.2666 478.793 89.2299 476.55 89.8085L478.272 83.8051ZM449.472 78.1976L446.488 77.6261C443.429 77.0399 440.395 79.0289 439.713 82.0687C438.847 85.9307 442.143 89.2954 446.107 88.8015C453.738 87.8509 464.693 87.2593 476.515 89.722L478.238 83.7085L449.472 78.1976Z" fill="#EE9F86"/>
<path d="M503.308 119.66C507.251 115.767 495.271 117.896 493.119 110.184L486.518 109.961C487.985 113.388 482.694 121.455 485.051 121.151C486.867 120.918 485.943 119.633 491.285 118.41C493.31 118.904 498.309 119.868 502.623 119.926C502.879 119.929 503.133 119.833 503.308 119.66Z" fill="#EA8F72"/>
<path d="M460.205 22.8163C458.83 25.6094 457.864 26.8786 457.118 27.4601C456.261 28.1279 455.144 28.537 454.612 29.4589L453.313 31.7148C454.241 25.6896 454.842 20.0968 456.34 15.5097C457.094 13.2017 461.456 11.783 463.013 11.6805C467.44 8.86621 471.68 11.4028 473.536 12.7812C481.5 17.9114 480.331 23.4762 477.935 26.1777C477.593 26.5629 476.997 26.5643 476.608 26.2438C471.503 22.0397 468.371 21.0055 463.643 25.5413C463.093 26.0689 463.058 24.2869 463.098 23.0035C463.121 22.2658 462.766 21.4639 462 21.3668C461.166 21.2612 460.793 21.8657 460.205 22.8163Z" fill="#393939"/>
<rect x="129.908" y="117.628" width="528.425" height="271.267" rx="6" fill="#4886FF"/>
<mask id="mask3" style="mask-type:alpha" maskUnits="userSpaceOnUse" x="129" y="117" width="530" height="272">
<rect x="129.908" y="117.628" width="528.425" height="271.267" rx="6" fill="#4632C3"/>
</mask>
<g mask="url(#mask3)">
<path d="M569.022 66.6206L219.22 441.062V446.472L100.965 432.56V66.6206H569.022Z" fill="white" fill-opacity="0.1"/>
<ellipse cx="614.921" cy="113.764" rx="49.2038" ry="16.2296" fill="#311CB6"/>
</g>
<rect x="139.008" y="140.04" width="511.059" height="239.581" fill="#F6F7FB"/>
<ellipse cx="143.141" cy="129.993" rx="4.96173" ry="4.63713" fill="#D63838"/>
<ellipse cx="160.509" cy="129.993" rx="4.96178" ry="4.63713" fill="#DFDFDF"/>
<ellipse cx="177.874" cy="129.993" rx="4.96172" ry="4.63713" fill="#3BD638"/>
<rect x="138.18" y="140.04" width="139.756" height="239.581" fill="#323659"/>
<g filter="url(#filter0_d)">
<rect x="294.472" y="163.225" width="156.295" height="193.21" rx="9" fill="white"/>
</g>
<g filter="url(#filter1_d)">
<rect x="459.039" y="163.225" width="178.623" height="52.5532" rx="9" fill="white"/>
</g>
<ellipse cx="548.349" cy="177.136" rx="8.26964" ry="7.72835" fill="#CDE7FF"/>
<ellipse cx="311.841" cy="181.774" rx="8.26959" ry="7.72835" fill="#FFCDD6"/>
<rect x="511.963" y="189.502" width="71.9453" height="3.09138" rx="1.54569" fill="#1978DC" fill-opacity="0.38"/>
<rect x="325.07" y="176.364" width="71.9452" height="3.09119" rx="1.54559" fill="#B1D7FF"/>
<ellipse cx="160.51" cy="166.316" rx="8.26955" ry="7.72832" fill="#FFCDD6"/>
<rect x="172.912" y="163.225" width="71.9452" height="3.09138" rx="1.54569" fill="white" fill-opacity="0.25"/>
<rect x="172.912" y="167.089" width="21.5008" height="3.09163" rx="1.54582" fill="white" fill-opacity="0.25"/>
<rect x="138.18" y="211.914" width="139.756" height="25.5038" fill="#4886FF"/>
<ellipse cx="160.51" cy="194.912" rx="8.26955" ry="7.72847" fill="#FFCDD6"/>
<rect x="172.912" y="191.82" width="71.9452" height="3.09138" rx="1.54569" fill="white" fill-opacity="0.25"/>
<rect x="172.912" y="195.684" width="21.5008" height="3.09125" rx="1.54563" fill="white" fill-opacity="0.25"/>
<ellipse cx="160.51" cy="223.507" rx="8.26955" ry="7.72835" fill="#FFCDD6"/>
<rect x="172.912" y="220.416" width="71.9452" height="3.09138" rx="1.54569" fill="white" fill-opacity="0.25"/>
<rect x="172.912" y="224.28" width="21.5008" height="3.09138" rx="1.54569" fill="white" fill-opacity="0.25"/>
<ellipse cx="160.51" cy="252.102" rx="8.26955" ry="7.72847" fill="#FFCDD6"/>
<rect x="172.912" y="249.011" width="71.9452" height="3.0915" rx="1.54575" fill="white" fill-opacity="0.25"/>
<rect x="172.912" y="252.875" width="21.5008" height="3.09138" rx="1.54569" fill="white" fill-opacity="0.25"/>
<rect x="325.07" y="181.773" width="30.5974" height="3.09119" rx="1.54559" fill="#B1D7FF"/>
<rect x="304.398" y="194.912" width="41.3478" height="3.09144" rx="1.54572" fill="#B1D7FF"/>
<rect x="304.398" y="200.322" width="37.2131" height="3.09138" rx="1.54569" fill="#B1D7FF"/>
<rect x="303.571" y="205.731" width="28.9435" height="3.09138" rx="1.54569" fill="#B1D7FF"/>
<rect x="303.571" y="211.141" width="19.02" height="3.09163" rx="1.54582" fill="#B1D7FF"/>
<path d="M302.744 221.188V344.842H437.538" stroke="#B1D7FF"/>
<rect x="489.636" y="198.775" width="117.428" height="3.86428" rx="1.93214" fill="#1978DC" fill-opacity="0.38"/>
<path d="M311.838 337.5L346.57 317.793L372.619 276.832L425.958 219.256" stroke="#FFB800" stroke-width="2"/>
<ellipse cx="311.839" cy="337.114" rx="2.48092" ry="2.31856" fill="#FFB800"/>
<ellipse cx="371.381" cy="278.379" rx="2.48082" ry="2.3186" fill="#FFB800"/>
<ellipse cx="425.959" cy="218.869" rx="2.48087" ry="2.31844" fill="#FFB800"/>
<ellipse opacity="0.05" cx="125.773" cy="395.077" rx="93.4462" ry="6.18291" fill="black"/>
<path d="M583.286 154.684V142.905L575.304 143.583L574.941 154.684H583.286Z" fill="#EE9F86"/>
<path d="M574.639 153.426C576.663 154.233 581.387 154.435 583.496 154.435H583.813L584.445 162.845H559.455C554.646 162.845 557.029 160.602 558.822 159.481C563.377 159.481 571.265 155.444 574.639 153.426Z" fill="#1D104A"/>
<path d="M571.84 105.133C571.785 99.2109 581.957 97.5526 587.467 97.7505L591.343 103.089C587.23 102.282 581.326 109.97 579.905 108.216C578.809 106.865 580.244 106.578 581.919 105.087C580.352 104.228 575.814 105.055 573.178 105.933C572.564 106.138 571.846 105.776 571.84 105.133Z" fill="#EE9F86"/>
<path d="M607.496 70.679C613.882 59.0144 621.284 51.1251 624.186 48.6384C626.968 55.5332 630.137 72.3744 620.558 84.5814C610.979 96.7885 596.006 100.971 589.717 101.536L585.363 96.4494C590.08 92.7195 601.11 82.3435 607.496 70.679Z" fill="#CF3316"/>
<path d="M608.736 144.903L602.644 134.539L596.03 138.688L601.455 148.617L608.736 144.903Z" fill="#EF937E"/>
<path d="M600.475 147.628C602.666 147.437 606.906 145.504 608.752 144.562L609.029 144.421L613.947 151.567L592.07 162.732C587.861 164.88 588.783 161.834 589.771 160.043C593.758 158.008 598.568 150.918 600.475 147.628Z" fill="#1D104A"/>
<path d="M625.788 117.473C642.043 117.744 643.445 101.988 642.115 96.1101H609.823C599.18 97.9186 576.806 101.807 572.452 102.892C568.098 103.977 567.01 108.091 567.01 110.013L572.834 149.347H585.151L583.426 121.675L598.575 146.973L609.843 141.548L597.367 115.874C605.9 116.612 616.32 117.315 625.788 117.473Z" fill="#2276BC"/>
<mask id="mask4" style="mask-type:alpha" maskUnits="userSpaceOnUse" x="567" y="96" width="76" height="54">
<path d="M625.788 117.473C642.043 117.744 643.445 101.988 642.115 96.1101H609.823C599.18 97.9186 576.806 101.807 572.452 102.892C568.098 103.977 567.01 108.091 567.01 110.013L572.834 149.347H585.151L583.426 121.675L598.575 146.973L609.843 141.548L597.367 115.874C605.9 116.612 616.32 117.315 625.788 117.473Z" fill="#79C7CE"/>
</mask>
<g mask="url(#mask4)">
<path d="M582.993 115.438L597.506 116.116L617.824 140.191L608.572 145.447L599.32 150.702L584.081 129.001L582.993 115.438Z" fill="#08589A"/>
</g>
<path d="M618.425 30.7006L619.533 27.2946L621.433 24.2193C622.454 23.712 626.4 23.143 634.018 24.9252C641.636 26.7074 637.105 39.5538 633.888 45.7543L633.634 47.9981C628.642 50.1986 620.723 51.2645 621.889 49.3781C622.977 47.6162 622.936 48.057 623.081 46.7524C621.585 46.9422 620.157 46.8954 619.061 46.6161C617.202 46.1423 618.146 44.05 618.85 43.0631L618.818 43.046C618.308 42.7708 618.141 42.1479 618.446 41.6548L617.891 41.1987C617.66 41.0091 617.581 40.7 617.692 40.4224C617.887 39.9348 617.689 39.3946 617.222 39.1427L616.297 38.6434C615.871 38.4139 615.777 37.8692 616.1 37.503L618.132 35.1968C618.545 34.7269 618.673 34.0911 618.467 33.5256C618.137 32.6209 618.122 31.6313 618.425 30.7006Z" fill="#EE9F86"/>
<path d="M631.621 39.2545L634.886 43.6627C636.119 42.681 641.255 37.2461 638.544 28.1655C636.87 22.5595 629.267 22.6476 623.014 23.257C621.164 23.4373 619.208 22.9395 617.838 23.257C617.641 29.1472 623.836 29.8016 626.959 29.3926C626.794 30.9469 626.786 33.2937 630.532 33.49C634.279 33.6864 632.36 37.8638 631.621 39.2545Z" fill="#393939"/>
<path d="M569.146 42.648C572.929 37.8925 582.11 42.3164 586.374 45.5864L586.011 52.0289C583.256 49.0633 573.581 51.8554 573.582 49.6554C573.582 47.96 574.912 48.5415 577.21 48.2991C576.517 46.7315 572.374 44.8299 569.706 44.0401C569.081 43.8552 568.737 43.1624 569.146 42.648Z" fill="#EE9F86"/>
<path d="M610.318 96.1105L620.616 64.7264L627.008 61.5239L625.587 96.1105H610.318Z" fill="white"/>
<path d="M650.709 106.961C652.63 76.2085 642.819 54.6389 637.673 47.6982L635.957 47.0575C614.001 50.1327 592.96 45.7761 585.184 43.2134L583.469 51.8626C606.111 64.9966 618.347 66.3847 624.979 66.2779C621.206 77.4899 621.549 91.2645 622.578 98.6324C623.401 104.527 628.181 106.641 630.468 106.961H650.709Z" fill="#E3482C"/>
<path d="M176.189 249.581C172.037 244.289 161.303 249.458 156.63 253.042L159.398 260.063C162.4 256.831 171.292 259.521 171.292 257.124C171.291 255.276 169.842 255.91 167.338 255.646C168.103 253.916 172.724 251.812 175.627 250.972C176.253 250.791 176.595 250.098 176.189 249.581Z" fill="#EE9F86"/>
<path d="M48.2119 300.776C54.9815 302.62 60.0825 292.36 61.424 286.841L54.6304 282.882C54.38 287.156 45.591 290.127 47.1649 292.021C48.3778 293.48 49.1062 292.149 51.258 290.922C51.7851 292.714 49.5532 296.973 47.8167 299.312C47.4247 299.84 47.5723 300.602 48.2119 300.776Z" fill="#EE9F86"/>
<path d="M122.914 221.281C123.882 219.78 123.317 204.396 122.914 196.892H116.863L110.005 221.281H122.914Z" fill="#393939"/>
<path d="M125.466 203.943C125.666 203.384 125.727 202.748 125.722 202.103C125.703 199.739 124.734 197.395 123.379 195.399C111.623 189.506 106.479 199.188 105.376 204.767L106.835 221.228L116.324 221.86L115.935 216.949C117.102 215.858 118.654 216.312 121.865 216.949C125.077 217.586 124.493 214.857 124.59 214.402C124.648 214.133 125.099 213.749 125.488 213.468C125.673 213.334 125.701 213.075 125.535 212.92C125.389 212.784 125.389 212.564 125.535 212.429L125.758 212.22C125.985 212.007 126.024 211.675 125.851 211.421L125.683 211.173C125.554 210.985 125.574 210.74 125.731 210.571L126.17 210.1C126.831 209.39 126.828 208.348 126.311 207.54C125.623 206.468 125.05 205.109 125.466 203.943Z" fill="#EF937E"/>
<mask id="mask5" style="mask-type:alpha" maskUnits="userSpaceOnUse" x="105" y="193" width="22" height="29">
<path d="M125.466 203.943C125.666 203.383 125.727 202.748 125.722 202.102C125.703 199.738 124.734 197.395 123.379 195.398C111.623 189.505 106.479 199.188 105.376 204.766L106.835 221.228L116.324 221.86L115.935 216.948C117.102 215.857 118.654 216.312 121.865 216.948C125.077 217.585 124.493 214.857 124.59 214.402C124.648 214.133 125.099 213.748 125.488 213.468C125.673 213.334 125.701 213.075 125.535 212.92C125.389 212.784 125.389 212.564 125.535 212.428L125.758 212.22C125.985 212.007 126.024 211.675 125.851 211.421L125.683 211.173C125.554 210.984 125.574 210.739 125.731 210.571L126.17 210.099C126.831 209.389 126.828 208.347 126.31 207.54C125.623 206.467 125.05 205.108 125.466 203.943Z" fill="#EE9F86"/>
</mask>
<g mask="url(#mask5)">
<path d="M113.166 214.26C114.003 215.289 116.463 216.065 117.984 216.558C118.816 217.51 120.112 219.438 118.637 219.539C117.162 219.641 114.639 216.217 113.166 214.26Z" fill="#E99494"/>
</g>
<path d="M121.887 198.429C122.019 201.508 120.445 206.13 113.17 206.13C112.247 206.007 110.481 206.426 110.797 209.087C111.193 212.412 111.588 214.629 110.402 218.325C109.769 220.394 109.084 221.158 108.82 221.281H100.121C99.0668 209.456 102.098 186.915 122.659 191.349C125.031 192.335 128.424 194.615 126.613 198.001C125.825 199.472 122.426 200.089 121.876 198.393L121.887 198.429Z" fill="#393939"/>
<path d="M144.405 384.138L141.638 374.607L152.709 371.307L153.104 383.405L144.405 384.138Z" fill="#EE9F86"/>
<path d="M153.433 382.033C151.227 382.913 146.079 383.133 143.78 383.133H143.436L142.746 392.298H169.98C175.22 392.298 172.623 389.854 170.669 388.632C165.705 388.632 157.11 384.233 153.433 382.033Z" fill="#1D104A"/>
<path d="M34.1585 313.85L44.7039 313.772L45.1943 324.653L32.6288 321.926L34.1585 313.85Z" fill="#EE9F86"/>
<path d="M33.9319 322.504C33.6069 320.286 34.7281 315.575 35.3293 313.497L35.4195 313.185L26.2021 310.23L19.0778 334.854C17.7071 339.592 20.8925 337.866 22.6566 336.411C23.9552 331.922 30.7146 325.27 33.9319 322.504Z" fill="#1D104A"/>
<path d="M139.66 376.112L93.0029 273.754H127.798L154.685 376.112H139.66Z" fill="#163A49"/>
<path d="M119.494 329.183L128.193 273.754H92.6072L99.3289 308.489L39.624 312.554V325.118L119.494 329.183Z" fill="#143441"/>
<path d="M130.034 251C122.328 232.992 117.711 223.53 116.527 221.655C116.425 236.048 118.476 267.047 126.211 271.054C133.946 275.06 152.537 265.073 160.865 259.578L157.91 251.287C139.824 258.617 131.79 254.15 130.034 251Z" fill="#E7A82C"/>
<path d="M116.479 221.599L109.244 220.165L103.626 220.385L86.9339 271.777L128.526 275.205C128.489 273.326 127.392 266.229 123.303 252.863C119.214 239.498 116.912 226.814 116.479 221.599Z" fill="white"/>
<path d="M112.528 285.053C120.838 269.464 113.871 235.097 109.348 219.862L103.64 218.273C75.4441 229.767 58.2012 267.357 53.1042 284.715L62.2863 287.271C63.803 287.693 78.5903 267.192 83.3226 260.441C80.0855 266.339 79.0601 277.974 78.9602 283.425L112.528 285.053Z" fill="#FEBE40"/>
<path d="M176.798 118.569C173.97 114.127 174.177 111.879 174.635 111.31L176.237 107.896L169.614 106.717C169.537 107.642 169.314 109.897 169.039 111.519C168.694 113.546 166.637 115.572 162.523 119.091C158.409 122.61 163.432 124.001 168.232 119.629C173.032 115.257 174.514 118.567 175.884 118.995C176.98 119.337 176.95 118.853 176.798 118.569Z" fill="#EE9F86"/>
<path d="M228.635 81.949L199.797 104.947L209.226 115.427L230.715 99.8946L248.9 120.091L257.544 115.427L236.317 83.2201C234.634 80.6658 230.998 80.0643 228.635 81.949Z" fill="#332D7B"/>
<path d="M288.031 117.078L276.09 117.078L276.777 110.011L288.031 109.69L288.031 117.078Z" fill="#EF937E"/>
<path d="M286.757 109.421C287.575 111.214 287.78 115.396 287.78 117.264L287.78 117.544L296.306 118.104L296.306 95.9776C296.306 91.7204 294.032 93.8303 292.895 95.4175C292.895 99.4506 288.803 106.434 286.757 109.421Z" fill="#1D104A"/>
<path d="M197.736 123.345C182.337 123.602 181.008 108.675 182.269 103.107H212.861C220.91 104.475 235.811 104.682 243.419 104.71C246.176 104.721 248.916 105.03 251.601 105.657L251.685 105.677L282.278 107.604L281.957 118.437C274.624 118.009 269.391 119.829 258.666 120.857C247.941 121.885 241.958 121.846 238.298 120.454C231.194 121.311 213.136 123.088 197.736 123.345Z" fill="#5F5CB0"/>
<path d="M244.538 104.782C246.25 101.207 240.558 96.7902 237.223 95.1469L233.444 98.4457C236.255 99.306 236.77 104.927 238.296 104.325C239.473 103.862 238.706 103.215 238.247 101.756C239.437 101.748 241.645 103.476 242.974 104.847C243.427 105.313 244.263 105.357 244.538 104.782Z" fill="#EE9F86"/>
<path d="M207.996 37.9847C208.099 37.4657 208.07 36.8953 207.98 36.3227C207.648 34.2123 206.47 32.2311 204.995 30.6036C193.732 26.6669 190.44 35.8718 190.202 40.9663L193.701 55.4733L202.241 54.9749L201.239 50.6416C202.134 49.5383 203.577 49.77 206.524 49.978C209.471 50.186 208.586 47.8198 208.612 47.4037C208.628 47.158 208.977 46.7655 209.286 46.4722C209.434 46.3311 209.425 46.0967 209.256 45.977C209.108 45.8723 209.08 45.6757 209.191 45.5377L209.361 45.3286C209.536 45.1133 209.527 44.8134 209.34 44.6074L209.155 44.4036C209.015 44.25 209 44.029 209.118 43.8604L209.347 43.533C209.899 42.745 209.74 41.7144 209.123 40.9696C208.41 40.1089 207.792 39.0188 207.996 37.9847Z" fill="#EE9F86"/>
<path fill-rule="evenodd" clip-rule="evenodd" d="M209.32 28.4959C209.374 28.1702 209.378 27.8311 209.326 27.4869C209.042 25.6025 207.191 24.277 205.192 24.5263C204.084 24.6645 203.163 25.2574 202.611 26.0793C201.961 25.7588 201.205 25.6171 200.427 25.7142C199.813 25.7908 199.257 26.0069 198.789 26.3242C198.098 25.8144 197.199 25.5562 196.266 25.6727C195.235 25.8013 194.38 26.3596 193.877 27.1311L193.846 27.1347C193.131 27.2239 192.494 27.5025 191.984 27.9098C191.582 27.7452 191.13 27.678 190.666 27.7359C189.608 27.8679 188.801 28.6115 188.59 29.5393C186.619 29.812 185.255 31.5281 185.537 33.3961C185.566 33.5915 185.613 33.781 185.674 33.9633C184.295 34.2441 183.364 35.4821 183.567 36.8249C183.573 36.8681 183.581 36.911 183.59 36.9534C182.921 37.5029 182.553 38.3508 182.688 39.2452C182.786 39.8931 183.13 40.4528 183.62 40.8511C183.258 41.3574 183.087 41.9876 183.186 42.6428C183.291 43.3414 183.684 43.9376 184.235 44.3394C184.15 44.5815 184.122 44.8458 184.163 45.1165C184.291 45.9646 185.053 46.5863 185.933 46.611C186.049 46.7224 186.172 46.8277 186.299 46.9266C185.976 47.4186 185.827 48.0175 185.92 48.6389C186.134 50.0521 187.522 51.0462 189.021 50.8592C190.068 50.7286 190.893 50.0562 191.222 49.181C191.615 49.6181 192.228 49.8643 192.871 49.784C193.871 49.6593 194.566 48.7945 194.424 47.8523C194.4 47.6958 194.355 47.547 194.291 47.4083C194.61 47.2431 194.865 46.9917 195.028 46.6914C195.392 47.2794 196.106 47.6364 196.863 47.542C197.863 47.4173 198.558 46.5524 198.415 45.6102C198.388 45.431 198.333 45.262 198.254 45.1065C198.767 44.1421 198.853 43.3008 197.55 43.7211C196.868 43.9408 196.362 43.8322 195.991 43.5268C193.99 41.8801 196.728 37.9743 198.964 39.2831C199.624 39.6699 200.017 40.2918 200.182 40.7837C201.699 41.0582 202.139 37.4473 202.169 35.6075C203.538 35.8552 205.291 34.6705 206.213 33.8659C206.638 33.9781 207.094 34.0128 207.558 33.9549C209.39 33.7263 210.665 32.1407 210.404 30.4133C210.288 29.6458 209.889 28.9795 209.32 28.4959Z" fill="#393939"/>
<path d="M218.688 72.2128C213.008 61.8377 204.417 55.0782 201.836 52.8665C199.361 58.999 198.55 73.7208 207.07 84.5784C215.59 95.436 228.907 99.1558 234.501 99.6584L238.374 95.1344C234.178 91.8168 224.368 82.5878 218.688 72.2128Z" fill="#ECAD0C"/>
<path d="M207.392 102.975C210.231 92.3591 204.201 65.2315 201.834 52.8659C200.915 53.2476 199.882 53.2464 198.964 52.8625L198.355 52.6082L187.383 52.9098L178.992 102.975H207.392Z" fill="white"/>
<path d="M204.811 102.372C209.458 87.4125 202.014 60.952 197.711 49.5917L178.993 48.9885C175.121 51.1601 179.746 57.936 182.543 61.0526C171.184 71.6689 167.483 99.0543 167.053 111.42C169.097 111.52 173.378 111.661 174.153 111.42C174.927 111.179 177.702 105.689 178.993 102.975L204.811 102.372Z" fill="#FFBB0B"/>
<mask id="mask6" style="mask-type:alpha" maskUnits="userSpaceOnUse" x="167" y="48" width="40" height="64">
<path d="M204.809 102.372C209.456 87.4127 202.012 60.9523 197.709 49.592L178.991 48.9888C175.119 51.1603 179.744 57.9363 182.541 61.0528C171.182 71.6692 167.481 99.0545 167.051 111.42C169.095 111.521 173.376 111.661 174.151 111.42C174.925 111.179 177.701 105.69 178.991 102.975L204.809 102.372Z" fill="#1DB6E7"/>
</mask>
<g mask="url(#mask6)">
<path d="M185.447 85.1814L178.992 103.579L189.965 106.897L185.447 85.1814Z" fill="#ECAD0C"/>
</g>
<path d="M696.776 353.847C671.645 349.569 653.412 352.064 647.495 353.847L654.969 357.994L679.259 359.522L696.776 353.847Z" fill="#8F570C"/>
<path d="M669.913 367.489C669.727 358.758 664.152 341.077 661.389 333.328C659.248 324.779 656.834 312.461 664.308 331.582C673.65 355.483 670.147 378.402 669.913 367.489Z" fill="#316D91"/>
<path d="M667.454 367.267C669.692 358.789 669.204 340.362 668.68 332.209C668.98 323.433 670.06 310.951 671.984 331.229C674.388 356.575 664.657 377.866 667.454 367.267Z" fill="#234370"/>
<path d="M643.681 327.272C647.792 336.439 656.994 335.093 661.081 333.274C667.076 331.855 678.201 326.18 674.745 314.83C671.288 303.479 662.716 295.258 658.862 292.566L650.104 300.642L660.497 287.545L656.76 289.401L658.279 284.271L644.265 270.301L641.813 275.213V268.01C637.842 265.39 628.616 260.872 623.478 263.753C617.055 267.355 618.106 301.188 628.383 307.408C638.66 313.629 638.543 315.812 643.681 327.272Z" fill="#316D91"/>
<path d="M663.611 333.548C656.254 317.323 639.204 282.952 629.861 275.269" stroke="#1F506D"/>
<path d="M670.236 333.498C665.02 328.368 652.742 311.059 655.638 285.04C657.273 286.023 660.824 287.856 661.945 287.332C660.349 285.877 657.227 282.574 657.507 281.002C657.857 279.038 659.025 259.939 669.535 255.028L673.039 260.375L671.754 253.391C672.338 252.226 675.211 249.505 682.031 247.934C682.615 247.97 684.133 247.519 685.534 245.423C685.534 246.697 685.23 249.658 684.016 251.317C682.498 253.391 687.986 247.824 687.519 245.423C687.052 243.022 694.993 256.774 694.76 264.741C692.742 266.656 688.89 270.008 686.854 270.842C689.622 270.509 693.861 269.804 694.76 268.888C696.044 267.578 695.46 290.716 694.059 293.553L683.782 299.228L694.059 296.391C691.684 303.157 681.634 321.1 670.236 333.498H670.236Z" fill="#234370"/>
<path d="M670.382 333.329C669.175 315.467 669.308 277.407 679.491 268.065" stroke="#152F54"/>
<path d="M714.018 316.413C701.78 319.992 686.108 334.129 679.802 340.75L685.096 325.689L699.46 313.793L721.843 307.681L723.361 302.334C727.215 302.552 729.317 311.938 714.018 316.413Z" fill="#234370"/>
<path d="M693.116 320.233C687.978 328.527 682.022 337.149 679.687 340.423C678.947 336.712 679.92 327.283 689.73 319.25C701.991 309.21 707.13 310.41 712.268 308.664C716.379 307.267 717.251 305.026 717.173 304.08C718.294 305.477 717.64 307.718 717.173 308.664C721.097 306.918 722.934 303.716 723.362 302.334C726.258 303.556 726.126 305.899 725.698 306.918C719.742 314.557 699.539 309.865 693.116 320.233Z" fill="#08033B"/>
<path d="M671.433 367.708C672.367 357.929 678.673 344.643 681.709 339.223C685.446 333.111 690.866 324.424 681.244 337.695C669.216 354.284 670.265 379.931 671.433 367.708Z" fill="#234370"/>
<path d="M647.495 353.847L647.958 353.89C664.197 355.386 680.54 355.372 696.776 353.847V353.847V372.426C696.776 386.034 685.744 397.066 672.136 397.066V397.066C658.527 397.066 647.495 386.034 647.495 372.426V353.847Z" fill="#F5AA45"/>
<path d="M366.672 275.139C362.557 280.36 351.945 275.249 347.323 271.704L350.063 264.755C353.034 267.954 361.834 265.292 361.834 267.664C361.833 269.493 360.399 268.866 357.92 269.127C358.676 270.837 363.237 272.915 366.111 273.749C366.738 273.931 367.079 274.623 366.672 275.139Z" fill="#EE9F86"/>
<g filter="url(#filter2_d)">
<rect width="205.981" height="64.0552" rx="9" transform="matrix(0.95169 0.307319 -0.350771 0.936556 379.789 211.141)" fill="white"/>
</g>
<ellipse rx="9.50814" ry="9.3796" transform="matrix(0.951864 0.306849 -0.351307 0.936381 396.186 240.109)" fill="#FFCDD6"/>
<rect width="83.1269" height="3.78923" rx="1.89461" transform="matrix(0.951212 0.308608 -0.349308 0.937034 413.876 241.929)" fill="#B1D7FF"/>
<rect width="35.3333" height="3.78207" rx="1.89103" transform="matrix(0.951387 0.308138 -0.34984 0.93686 411.596 248.051)" fill="#B1D7FF"/>
<rect width="58.2738" height="3.78677" rx="1.89339" transform="matrix(0.951273 0.308444 -0.349493 0.936973 382.818 251.443)" fill="#B1D7FF"/>
<rect width="20.9975" height="3.77584" rx="1.88792" transform="matrix(0.95153 0.307752 -0.350279 0.936717 441.002 270.353)" fill="#B1D7FF"/>
<rect width="33.4219" height="3.78148" rx="1.89074" transform="matrix(0.951401 0.308099 -0.349884 0.936846 464.64 278.035)" fill="#B1D7FF"/>
<rect width="10.4868" height="3.76576" rx="1.88288" transform="matrix(0.951729 0.307214 -0.350891 0.936517 500.095 289.559)" fill="#B1D7FF"/>
<rect width="46.8036" height="3.78485" rx="1.89243" transform="matrix(0.951321 0.308315 -0.34964 0.936926 512.821 293.695)" fill="#B1D7FF"/>
<path d="M328.163 240.342C320.672 226.658 311.988 217.402 308.583 214.485C305.319 222.574 301.602 242.332 312.84 256.653C324.077 270.974 340.885 271.106 348.264 271.769L353.372 265.802C347.838 261.426 335.655 254.027 328.163 240.342Z" fill="#079FCF"/>
<path d="M280.821 375.363L282.119 364.769L294.561 365.473L289.806 377.787L280.821 375.363Z" fill="#EEABAB"/>
<path d="M290.807 376.507C288.225 376.59 282.983 374.933 280.685 374.094L280.34 373.969L275.737 382.976L302.973 392.917C308.213 394.83 306.659 391.413 305.227 389.465C300.263 387.653 293.546 380.071 290.807 376.507Z" fill="#1D104A"/>
<path d="M333.636 383.444L330.656 373.183L342.575 369.631L343.001 382.654L333.636 383.444Z" fill="#EDA9A9"/>
<path d="M343.358 381.177C340.983 382.125 335.441 382.362 332.967 382.362H332.596L331.854 392.228H361.172C366.813 392.228 364.017 389.597 361.914 388.282C356.57 388.282 347.317 383.546 343.358 381.177Z" fill="#1D104A"/>
<path d="M316.011 318.346C310.368 334.925 303.227 353.784 294.477 373.608L279.31 369.232C283.566 357.563 291.412 323.723 294.477 264.21L331.936 262.221C336.334 277.338 344.791 320.779 343.429 373.608L329.382 374.006C326.371 359.456 321.462 338.03 316.011 318.346Z" fill="#79C7CE"/>
<mask id="mask7" style="mask-type:alpha" maskUnits="userSpaceOnUse" x="279" y="262" width="65" height="113">
<path d="M316.009 318.346C310.366 334.925 303.225 353.784 294.475 373.608L279.308 369.232C283.564 357.563 291.41 323.723 294.475 264.21L331.934 262.221C336.332 277.338 344.789 320.779 343.427 373.608L329.38 374.006C326.369 359.456 321.46 338.03 316.009 318.346Z" fill="#79C7CE"/>
</mask>
<g mask="url(#mask7)">
<path d="M316.187 317.517L326.403 375.2H347.26L351.942 335.816L331.936 261.028L316.187 317.517Z" fill="#5EB3BB"/>
</g>
<path d="M383.057 220.798C381.642 213.785 368.575 214.31 362.251 215.848L361.567 223.878C366.061 221.985 373.454 228.364 374.611 226.02C375.503 224.214 373.78 224.223 371.46 222.908C373.061 221.524 378.703 221.43 381.93 221.85C382.572 221.933 383.186 221.433 383.057 220.798Z" fill="#EE9F86"/>
<path d="M328.162 196.232L327.355 192.553L325.686 189.141C324.672 188.507 320.608 187.514 312.47 188.617C304.332 189.719 307.746 203.63 310.469 210.448L310.505 212.824C315.492 215.631 323.653 217.542 322.629 215.449C321.673 213.494 321.672 213.96 321.653 212.579C323.196 212.928 324.693 213.022 325.866 212.84C327.856 212.53 327.085 210.244 326.451 209.139L326.486 209.124C327.047 208.887 327.285 208.252 327.017 207.704L327.644 207.282C327.904 207.107 328.019 206.791 327.931 206.489C327.777 205.959 328.039 205.413 328.553 205.196L329.57 204.766C330.038 204.568 330.192 204.007 329.893 203.591L328.008 200.971C327.624 200.437 327.556 199.759 327.829 199.187C328.266 198.272 328.383 197.237 328.162 196.232Z" fill="#EE9F86"/>
<path d="M312.89 207.87L310.489 210.746L304.633 198.196C304.146 194.412 305.265 186.28 313.636 184.019C324.1 181.192 326.579 186.261 326.983 186.223C327.307 186.192 327.795 185.481 327.999 185.129C328.129 185.393 328.059 186.211 328.008 186.588C328.763 186.056 328.377 184.747 328.089 184.16C332.481 189.218 329.995 191.997 328.203 192.755C326.391 192.413 322.535 192.065 321.614 193.412C320.463 195.095 321.048 194.848 318.818 196.057C317.034 197.023 317.618 200.908 318.133 202.729L319.049 204.602L316.38 203.47C316.287 200.743 314.251 199.405 313.244 199.077C310.511 199.488 311.87 205.11 312.89 207.87Z" fill="#393939"/>
<path d="M333.796 269.779L327.248 233.358L319.749 229.601L321.415 270.177L333.796 269.779Z" fill="white"/>
<path d="M291.942 282.908C289.688 246.829 301.199 221.524 307.236 213.381L309.248 212.629C335.007 216.237 353.617 217.889 362.739 214.882L364.752 225.029C338.188 240.438 329.909 235.304 322.127 235.179C326.555 248.332 326.152 264.493 324.945 273.136C323.979 280.052 318.371 282.532 315.688 282.908H291.942Z" fill="#1DB6E7"/>
<path d="M582.67 268.034C582.254 267.637 581.922 267.125 581.642 266.578C580.629 264.603 580.409 262.286 580.666 260.113C587.909 250.801 596.458 256.977 599.827 261.229L605.827 275.535L598.172 279.602L596.343 275.351C594.888 274.874 593.79 275.833 591.384 277.563C588.979 279.293 588.27 276.794 587.989 276.451C587.823 276.247 587.274 276.093 586.825 276.003C586.613 275.961 586.479 275.756 586.55 275.564C586.612 275.396 586.517 275.212 586.337 275.154L586.056 275.061C585.772 274.969 585.594 274.704 585.628 274.425L585.66 274.159C585.684 273.953 585.562 273.756 585.359 273.675L584.887 273.485C583.962 273.114 583.481 272.172 583.551 271.232C583.636 270.108 583.498 268.824 582.67 268.034Z" fill="#EE9F86"/>
<path d="M603.674 270.185C604.886 273.06 604.951 265.08 605.177 262.907C605.467 261.453 604.826 254.538 602.041 251.505C600.037 249.322 597.816 246.963 593.128 248.566C601.349 245.287 596.115 247.177 591.854 249.019L592.186 248.092C592.901 246.098 593.787 244.653 594.666 244.258C602.081 241.308 612.293 238.264 614.119 233.17C615.579 229.096 621.758 228.307 624.665 228.422C641.291 226.762 663.229 210.285 643.821 206.596C624.413 202.907 626.538 207.775 618.114 218.169C609.689 228.563 608.888 221.546 595.204 229.648C584.257 236.129 588.409 245.262 591.854 249.019C596.115 247.177 601.349 245.287 593.128 248.566C592.729 248.702 592.313 248.867 591.877 249.063C591.556 249.19 591.219 249.324 590.865 249.464C576.695 255.066 579.626 265.396 580.786 262.933C581.713 260.962 589.948 262.302 593.95 263.219C594.785 259.349 596.098 260.31 598.235 261.29C600.329 262.251 602.09 266.428 603.585 269.975L603.674 270.185Z" fill="#393939"/>
<path d="M605.635 384.279L603.747 376.917L597.3 378.973L599.727 385.928L605.635 384.279Z" fill="#F3AEAE"/>
<path d="M599.427 385.974C601.387 385.364 604.837 382.757 606.317 381.53L606.539 381.346L612.602 386.894C608.162 390.576 600.946 401.444 595.065 401.437C590.845 401.432 587.226 401.996 586.466 400.477C587.278 399.804 595.233 395.984 595.975 394.838C598.153 391.474 598.667 388.498 599.427 385.974Z" fill="#1D104A"/>
<path d="M632.042 340.177C651.304 336.101 645.084 321.495 639.567 314.702L620.756 322.344L582.322 337.534C581.823 337.731 581.568 338.288 581.746 338.795L597.431 383.485L605.708 381.301C601.121 361.337 598.725 351.405 597.233 347.217C596.923 346.346 597.805 344.889 598.73 344.871C604.587 344.753 615.743 343.626 632.042 340.177Z" fill="#271713"/>
<path d="M638.839 311.97C640.227 313.582 638.641 314.073 638.215 314.575C630.888 317.874 616.982 325.537 615.646 326.139C614.311 326.74 613.901 326.303 613.862 326.01C613.142 324.096 610.551 319.421 609.345 317.322C603.983 307.989 599.644 305.238 594.865 301.33C590.085 297.422 591.504 292.259 592.257 284.462C592.859 278.224 600.583 274.499 604.369 273.416C606.644 273.169 612.186 274.185 616.154 280.23C621.113 287.786 637.104 309.954 638.839 311.97Z" fill="#FFA30B"/>
<rect width="30.6957" height="2.8554" rx="1.4277" transform="matrix(-0.888114 0.454068 0.507536 0.864892 639.969 311.371)" fill="#D1880F"/>
<path d="M602.667 384.279L602.854 377.137L594.332 378.972L596.758 385.928L602.667 384.279Z" fill="#F3AEAE"/>
<path d="M596.461 385.975C598.421 385.364 601.871 382.757 603.351 381.53L603.573 381.346L609.636 386.894C605.196 390.576 597.98 401.444 592.099 401.437C587.879 401.432 584.26 401.996 583.5 400.477C584.312 399.804 592.267 395.984 593.009 394.838C595.187 391.474 595.701 388.499 596.461 385.975Z" fill="#1D104A"/>
<path d="M631.449 340.177C651.586 336.101 645.083 321.495 639.315 314.702L619.649 322.344L579.46 337.537C578.946 337.731 578.685 338.302 578.874 338.817L595.264 383.485L603.917 381.301C599.143 361.425 596.639 351.492 595.078 347.273C594.754 346.396 595.648 344.889 596.582 344.871C602.696 344.757 614.372 343.633 631.449 340.177Z" fill="#3D2823"/>
<path fill-rule="evenodd" clip-rule="evenodd" d="M598.378 288.812L602.167 284.288C604.114 281.962 607.653 281.851 609.743 284.049C611.331 285.718 611.601 288.244 610.314 290.154C605.115 297.87 595.89 309.953 592.176 313.157C587.876 316.866 573.983 322.817 566.127 325.909L566.127 325.908C562.723 329.343 555.27 334.759 551.214 331.092C550.724 330.649 550.97 329.914 551.565 329.645C553.877 328.599 557.274 326.44 557.686 324.963C557.134 324.975 556.649 325.031 556.23 325.079C555.045 325.215 554.386 325.291 554.219 324.156C554.078 323.203 555.593 323.192 557.539 323.179C559.659 323.164 562.291 323.146 563.846 321.899L563.887 321.971C569.293 318.191 580.55 310.803 587.214 308.133L598.378 288.812Z" fill="#EE9F86"/>
<path d="M612.846 288.815C615.057 285.346 613.936 280.912 610.341 278.911V278.911C606.747 276.909 602.041 278.099 599.829 281.568L593.006 292.272L606.022 299.519L612.846 288.815Z" fill="#CE8205"/>
</g>
<defs>
<filter id="filter0_d" x="286.472" y="159.225" width="172.295" height="209.21" filterUnits="userSpaceOnUse" color-interpolation-filters="sRGB">
<feFlood flood-opacity="0" result="BackgroundImageFix"/>
<feColorMatrix in="SourceAlpha" type="matrix" values="0 0 0 0 0 0 0 0 0 0 0 0 0 0 0 0 0 0 127 0" result="hardAlpha"/>
<feOffset dy="4"/>
<feGaussianBlur stdDeviation="4"/>
<feColorMatrix type="matrix" values="0 0 0 0 0 0 0 0 0 0 0 0 0 0 0 0 0 0 0.1 0"/>
<feBlend mode="normal" in2="BackgroundImageFix" result="effect1_dropShadow"/>
<feBlend mode="normal" in="SourceGraphic" in2="effect1_dropShadow" result="shape"/>
</filter>
<filter id="filter1_d" x="451.039" y="159.225" width="194.623" height="68.5532" filterUnits="userSpaceOnUse" color-interpolation-filters="sRGB">
<feFlood flood-opacity="0" result="BackgroundImageFix"/>
<feColorMatrix in="SourceAlpha" type="matrix" values="0 0 0 0 0 0 0 0 0 0 0 0 0 0 0 0 0 0 127 0" result="hardAlpha"/>
<feOffset dy="4"/>
<feGaussianBlur stdDeviation="4"/>
<feColorMatrix type="matrix" values="0 0 0 0 0 0 0 0 0 0 0 0 0 0 0 0 0 0 0.1 0"/>
<feBlend mode="normal" in2="BackgroundImageFix" result="effect1_dropShadow"/>
<feBlend mode="normal" in="SourceGraphic" in2="effect1_dropShadow" result="shape"/>
</filter>
<filter id="filter2_d" x="351.911" y="209.463" width="229.317" height="134.651" filterUnits="userSpaceOnUse" color-interpolation-filters="sRGB">
<feFlood flood-opacity="0" result="BackgroundImageFix"/>
<feColorMatrix in="SourceAlpha" type="matrix" values="0 0 0 0 0 0 0 0 0 0 0 0 0 0 0 0 0 0 127 0" result="hardAlpha"/>
<feOffset dy="4"/>
<feGaussianBlur stdDeviation="4"/>
<feColorMatrix type="matrix" values="0 0 0 0 0 0 0 0 0 0 0 0 0 0 0 0 0 0 0.1 0"/>
<feBlend mode="normal" in2="BackgroundImageFix" result="effect1_dropShadow"/>
<feBlend mode="normal" in="SourceGraphic" in2="effect1_dropShadow" result="shape"/>
</filter>
</defs>
</svg>
