<svg width="729" height="342" viewBox="0 0 729 342" fill="none" xmlns="http://www.w3.org/2000/svg">
<mask id="mask0" style="mask-type:alpha" maskUnits="userSpaceOnUse" x="0" y="0" width="729" height="342">
<rect y="0.890381" width="729" height="341.11" fill="#C4C4C4"/>
</mask>
<g mask="url(#mask0)">
<ellipse cx="364.5" cy="342" rx="364.5" ry="13.6444" fill="black" fill-opacity="0.38"/>
<path d="M250.301 163.18L260.757 163.18L290.615 336.593L281.344 336.642L250.301 163.18Z" fill="#C6C6C6"/>
<path d="M245.027 162.315L250.299 163.179L280.864 336.788L275.612 335.856L245.027 162.315Z" fill="#535353"/>
<path d="M578.122 163.18L588.43 163.18L619.063 336.593L608.981 336.593L578.122 163.18Z" fill="#C6C6C6"/>
<path d="M572.919 161.742L578.348 163.18L608.593 336.214L603.504 335.282L572.919 161.742Z" fill="#535353"/>
<rect x="155.686" y="153.314" width="136.492" height="9.86604" fill="#535353"/>
<rect x="292.18" y="153.314" width="326.497" height="9.86611" fill="#C4C4C4"/>
<path d="M137.371 15.6738C137.21 13.3608 139.043 11.3958 141.362 11.3958H286.896C288.998 11.3958 290.741 13.0216 290.887 15.1177L294.982 73.9026C295.144 76.2156 293.311 78.1806 290.992 78.1806H145.457C143.356 78.1806 141.613 76.5548 141.467 74.4586L137.371 15.6738Z" fill="#3394EA" fill-opacity="0.77"/>
<path d="M456.978 15.7498C456.77 13.4101 458.613 11.3958 460.962 11.3958H500.406C502.478 11.3958 504.207 12.9779 504.39 15.0417L505.837 31.327C506.045 33.6667 504.202 35.681 501.853 35.681H462.409C460.337 35.681 458.608 34.0989 458.425 32.0351L456.978 15.7498Z" fill="#3394EA" fill-opacity="0.77"/>
<path fill-rule="evenodd" clip-rule="evenodd" d="M477.828 22.7802C477.828 26.9716 474.463 30.3695 470.312 30.3695C466.161 30.3695 462.796 26.9716 462.796 22.7802C462.796 18.5888 466.161 15.1909 470.312 15.1909C474.463 15.1909 477.828 18.5888 477.828 22.7802ZM482.182 21.2622C482.182 20.4239 482.862 19.7444 483.7 19.7444H499.277C500.116 19.7444 500.795 20.4239 500.795 21.2622C500.795 22.1004 500.116 22.78 499.277 22.78H483.7C482.862 22.78 482.182 22.1004 482.182 21.2622ZM483.7 24.2977C482.862 24.2977 482.182 24.9772 482.182 25.8155C482.182 26.6537 482.862 27.3333 483.7 27.3333H488.42C489.258 27.3333 489.938 26.6537 489.938 25.8155C489.938 24.9772 489.258 24.2977 488.42 24.2977H483.7Z" fill="#B1D7FF"/>
<path d="M460.079 43.8291C459.871 41.4895 461.715 39.4751 464.064 39.4751H503.508C505.58 39.4751 507.309 41.0573 507.492 43.1211L508.939 59.4068C509.147 61.7465 507.304 63.7608 504.955 63.7608H465.511C463.439 63.7608 461.71 62.1787 461.526 60.1149L460.079 43.8291Z" fill="#3394EA" fill-opacity="0.77"/>
<path fill-rule="evenodd" clip-rule="evenodd" d="M480.929 50.8593C480.929 55.0507 477.564 58.4486 473.413 58.4486C469.262 58.4486 465.897 55.0507 465.897 50.8593C465.897 46.6679 469.262 43.27 473.413 43.27C477.564 43.27 480.929 46.6679 480.929 50.8593ZM485.286 49.3413C485.286 48.5031 485.966 47.8236 486.804 47.8236H502.381C503.22 47.8236 503.899 48.5031 503.899 49.3413C503.899 50.1795 503.22 50.8591 502.381 50.8591H486.804C485.966 50.8591 485.286 50.1795 485.286 49.3413ZM486.804 52.3769C485.966 52.3769 485.286 53.0565 485.286 53.8948C485.286 54.7331 485.966 55.4127 486.804 55.4127H491.524C492.362 55.4127 493.042 54.7331 493.042 53.8948C493.042 53.0565 492.362 52.3769 491.524 52.3769H486.804Z" fill="#B1D7FF"/>
<path d="M246.036 89.365C245.828 87.0254 247.672 85.011 250.021 85.011H289.465C291.537 85.011 293.266 86.5931 293.449 88.6569L294.897 104.943C295.104 107.282 293.261 109.297 290.912 109.297H251.468C249.396 109.297 247.667 107.714 247.483 105.651L246.036 89.365Z" fill="#3394EA" fill-opacity="0.77"/>
<path fill-rule="evenodd" clip-rule="evenodd" d="M265.335 97.1541C265.335 101.345 261.97 104.743 257.819 104.743C253.668 104.743 250.303 101.345 250.303 97.1541C250.303 92.9627 253.668 89.5649 257.819 89.5649C261.97 89.5649 265.335 92.9627 265.335 97.1541ZM269.69 95.6364C269.69 94.7981 270.37 94.1185 271.208 94.1185H286.785C287.623 94.1185 288.303 94.7981 288.303 95.6364C288.303 96.4746 287.623 97.1542 286.785 97.1542H271.208C270.37 97.1542 269.69 96.4746 269.69 95.6364ZM271.208 98.6716C270.37 98.6716 269.69 99.3511 269.69 100.189C269.69 101.028 270.37 101.707 271.208 101.707H275.927C276.766 101.707 277.445 101.028 277.445 100.189C277.445 99.3511 276.766 98.6716 275.927 98.6716H271.208Z" fill="#B1D7FF"/>
<path d="M321.346 39.8413C321.092 36.3648 323.844 33.4045 327.33 33.4045H460.321C463.465 33.4045 466.076 35.8319 466.305 38.9678L473.184 133.217C473.438 136.693 470.686 139.654 467.2 139.654H334.209C331.065 139.654 328.454 137.226 328.225 134.09L321.346 39.8413Z" fill="#C9CACC"/>
<path d="M330.18 31.1274L323.975 33.7837L321.261 37.5784H327.853L330.18 31.1274Z" fill="#C9CACC"/>
<path d="M471.326 138.895L476.755 135.859L475.592 135.1L471.326 136.238L469.775 138.515L471.326 138.895Z" fill="#C9CACC"/>
<path d="M325.999 37.5642C325.745 34.0877 328.497 31.1274 331.983 31.1274H464.975C468.119 31.1274 470.73 33.5548 470.959 36.6907L477.838 130.94C478.092 134.416 475.34 137.377 471.854 137.377H338.863C335.718 137.377 333.107 134.949 332.878 131.813L325.999 37.5642Z" fill="#D7D7D9"/>
<path d="M325.975 37.5434C325.734 34.0743 328.483 31.1274 331.961 31.1274H464.955C468.107 31.1274 470.722 33.5668 470.941 36.7115L477.144 125.993H332.121L325.975 37.5434Z" fill="#231F20"/>
<path d="M329.481 35.2331C329.44 34.6548 329.899 34.1636 330.478 34.1636H465.708C466.233 34.1636 466.669 34.57 466.706 35.0941L472.879 123.716H335.644L329.481 35.2331Z" fill="#444444"/>
<rect x="379.815" y="138.894" width="3.87733" height="14.4193" fill="#958F8F"/>
<rect x="383.692" y="138.894" width="56.6135" height="14.4193" fill="#C4C4C4"/>
<path d="M135.56 248.852C130.967 257.84 169.617 266.078 189.516 269.074L190.664 246.605C196.404 218.519 196.404 211.779 189.516 212.902C182.628 214.026 176.888 227.507 174.592 219.643C172.296 211.779 189.516 191.557 183.776 176.952C178.036 162.348 166.556 185.94 161.964 182.569C157.372 179.199 165.408 141.002 158.52 138.756C151.632 136.509 150.484 167.965 148.188 156.73C145.892 145.496 127.523 121.904 112.599 130.891C97.6752 139.879 139.004 162.348 135.56 166.841C132.116 171.335 109.155 157.854 109.155 171.335C109.155 184.816 147.04 189.31 155.076 194.927C163.112 200.544 129.819 206.162 121.783 209.532C113.747 212.902 116.043 225.26 139.004 226.383C161.964 227.507 166.556 233.124 168.852 238.741C171.148 244.358 141.3 237.618 135.56 248.852Z" fill="#316D91"/>
<path d="M139.002 156.731C144.742 161.599 157.37 177.627 161.962 202.792C166.554 227.957 180.713 252.223 187.218 261.21" stroke="white" stroke-opacity="0.32"/>
<path d="M241.732 247.417C246.324 256.405 207.674 264.643 187.775 267.639L186.627 245.17C180.887 217.084 180.887 210.344 187.775 211.467C194.664 212.591 200.404 226.072 202.7 218.208C204.996 210.344 187.775 190.122 193.516 175.517C199.256 160.913 210.736 184.505 215.328 181.135C219.92 177.764 211.884 139.568 218.772 137.321C225.66 135.074 226.808 166.53 229.104 155.296C231.4 144.061 249.768 120.469 264.693 129.457C279.617 138.444 238.288 160.913 241.732 165.407C245.176 169.9 268.137 156.419 268.137 169.9C268.137 183.381 230.252 187.875 222.216 193.492C214.18 199.11 247.472 204.727 255.509 208.097C263.545 211.467 261.249 223.825 238.288 224.948C215.328 226.072 210.736 231.689 208.44 237.306C206.144 242.923 235.992 236.183 241.732 247.417Z" fill="#2F4CAC"/>
<path d="M238.287 155.296C232.547 160.164 219.919 176.191 215.327 201.356C210.735 226.521 196.576 250.787 190.071 259.775" stroke="white" stroke-opacity="0.32"/>
<path d="M163.15 224.054C153.493 224.054 164.422 241.901 170.784 248.957L189.869 268.879C199.199 265.144 218.879 256.677 222.95 252.692C228.04 247.712 221.678 246.467 215.316 245.221C210.227 244.225 213.196 239.826 215.316 237.751C236.692 231.774 243.733 220.319 244.581 215.338C244.581 214.093 244.581 211.603 239.491 207.867C234.402 204.132 214.044 232.77 215.316 214.093C216.589 195.416 245.853 174.248 244.581 165.532C243.309 156.816 236.947 168.023 225.495 174.248C216.334 179.229 216.589 170.513 217.861 165.532C223.799 158.891 234.911 143.867 231.857 136.894C228.04 128.178 225.495 136.894 215.316 145.61C205.137 154.326 211.499 135.649 214.044 131.913C216.589 128.178 239.491 79.6174 198.775 88.3334C158.059 97.0494 182.234 149.345 183.507 156.816C184.779 164.287 174.601 146.855 159.332 151.836C144.063 156.816 187.324 184.209 187.324 191.68C187.324 199.151 170.784 187.945 163.15 186.7C155.515 185.455 170.784 204.132 174.601 215.338C177.654 224.303 175.873 226.544 174.601 226.544C170.784 229.035 170.784 224.054 163.15 224.054Z" fill="#234370"/>
<path d="M201.32 114.48C198.775 114.896 194.449 128.924 197.503 181.718C200.557 234.512 196.231 253.522 193.687 256.427" stroke="white" stroke-opacity="0.19" stroke-width="2" stroke-linejoin="round"/>
<path d="M159.002 279.532H213.246L207.382 336.919H164.133L159.002 279.532Z" fill="#E92476"/>
<mask id="mask1" style="mask-type:alpha" maskUnits="userSpaceOnUse" x="159" y="279" width="55" height="58">
<path d="M159.002 279.532H213.246L207.382 336.919H164.133L159.002 279.532Z" fill="#E92476"/>
</mask>
<g mask="url(#mask1)">
<rect x="151.672" y="269.49" width="68.905" height="20.0854" rx="10" fill="#D2055B"/>
</g>
<rect x="151.671" y="263.751" width="68.9046" height="20.0853" rx="10" fill="#E92476"/>
<path d="M160.467 296.749H211.779L209.58 319.703H161.933L160.467 296.749Z" fill="#F27CAD"/>
<path d="M349.902 149.471C351.421 137.266 372.785 140.31 382.584 143.783L381.564 154.937C373.414 153.138 361.798 155.194 357.92 154.823C355.178 154.67 349.735 153.386 349.902 149.471Z" fill="#EE9F86"/>
<path d="M487.78 31.7736L488.531 29.6695C488.529 29.6729 488.518 29.648 489.044 25.879C489.727 20.9833 493.714 16.5278 499.014 13.8503C504.315 11.1728 512.893 14.4977 520.119 24.4992C525.9 32.5003 519.138 43.1885 519.105 53.9822L520.182 66.4173L499.424 69.2487C496.528 64.5199 498.088 57.1864 495.844 57.1897C494.087 57.1922 492.918 57.764 490.598 57.0176C490.176 56.8819 489.924 56.4601 489.968 56.0182L490.218 53.4819C490.234 53.3249 490.212 53.1666 490.154 53.02L489.173 50.5147C489.028 50.1458 489.116 49.7251 489.397 49.4427L490.263 48.5708L488.963 48.1344C488.557 47.998 488.284 47.617 488.286 47.1878L488.292 45.8515C488.294 45.4742 488.083 45.1294 487.747 44.9598L486.47 44.3157C486.01 44.0832 485.804 43.5368 485.997 43.0557L488.184 37.5951C488.278 37.3585 488.28 37.0952 488.187 36.8588L487.841 35.9768C487.314 34.632 487.293 33.1392 487.78 31.7736Z" fill="#EE9F86"/>
<path fill-rule="evenodd" clip-rule="evenodd" d="M508.153 13.3968C513.214 14.4776 519.071 17.2282 522.623 21.965C526.824 27.5668 524.176 44.9571 521.823 55.2805C521.417 57.0611 519.818 58.2957 517.992 58.2957H503.668C502.016 58.2957 500.533 57.2797 499.937 55.7385L496.143 45.9271C496.231 45.8417 496.46 45.4941 496.767 45.0012C498.613 42.0307 497.208 36.9168 493.898 38.0458L493.454 33.9351C493.359 33.0549 492.62 32.2383 491.899 31.7257C490.472 30.7121 488.452 28.7078 486.763 26.9452C483.686 24.5315 480.6 19.9113 485.606 13.6524C485.193 14.6138 484.682 16.7518 485.938 17.6131C485.825 16.9998 485.645 15.6651 485.831 15.2325C486.187 15.8052 487.03 16.9622 487.552 17.009C487.653 17.0181 487.804 16.8259 488.05 16.5119C489.384 14.8073 493.529 9.51279 507.907 13.3303C507.989 13.3521 508.071 13.3743 508.153 13.3968Z" fill="#393939"/>
<path d="M442.916 306.418L436.359 281.606L417.943 287.539L426.963 310.043L442.916 306.418Z" fill="#EE9F86"/>
<path d="M425.575 307.852C430.057 308.227 439.364 305.683 443.458 304.365L444.072 304.167L449.239 320.685C449.563 321.723 449.004 322.815 447.978 323.175C435.166 327.671 411.826 338.939 402.544 337.785C399.579 337.417 397.629 336.946 396.416 336.398C391.02 333.959 401.832 329.307 407.311 327.174C417.182 323.332 421.255 315.921 425.575 307.852Z" fill="#1D104A"/>
<path d="M444.181 296.371C437.202 298.647 423.006 302.442 419.388 302.442C411.461 276.864 385.67 228.048 388.57 193.464C389.381 183.8 398.129 177.639 407.755 176.461L496.164 174.564V212.13L444.897 205.575C433.809 204.158 424.722 214.258 427.299 225.136L444.181 296.371Z" fill="#105C9B"/>
<path d="M356.784 319.288L370.506 287.642H351.118L340.472 317.848L356.784 319.288Z" fill="#EE9F86"/>
<path d="M339.855 315.343C343.992 317.071 353.646 317.503 357.955 317.503H358.602L358.601 333.499C358.601 334.603 357.715 335.499 356.611 335.499H308.826C304.423 335.499 302.971 334.535 303.038 333.256C303.274 328.785 309.97 328.407 314.292 327.239C323.321 324.799 334.436 318.737 339.855 315.343Z" fill="#1D104A"/>
<path d="M361.637 314.964C354.987 314.964 342.329 311.169 338.711 311.169C344.499 289.845 369.719 229.611 386.022 192.376C389.903 183.511 397.719 177.011 407.117 174.708C407.507 174.612 407.907 174.564 408.309 174.564H496.142V212.13L432.174 207.223C425.941 206.745 420.001 209.94 416.965 215.404L361.637 314.964Z" fill="#2276BC"/>
<path d="M497.302 62.055C510.098 64.6171 510.098 64.6171 519.792 61.3229L528.331 64.6984C536.158 67.7923 541.188 75.4652 540.91 83.8863L537.258 194.606L465.055 194.606L465.055 124.067L455.934 142.761C453.192 148.381 447.593 152.057 441.352 152.334L380.973 155.016L380.971 142.579L430.154 133.134C435.513 132.105 440.063 128.57 442.386 123.629L465.012 75.5181C466.705 71.9179 469.786 69.1543 473.547 67.8607L497.302 62.055Z" fill="#E3482C"/>
<mask id="mask2" style="mask-type:alpha" maskUnits="userSpaceOnUse" x="380" y="61" width="161" height="134">
<path d="M497.304 62.055C510.1 64.6171 510.1 64.6171 519.794 61.3229L528.333 64.6983C536.159 67.7922 541.189 75.4652 540.912 83.8862L537.26 194.606L465.056 194.606L465.056 124.067L455.936 142.761C453.194 148.381 447.595 152.057 441.354 152.334L380.975 155.016L380.973 142.579L430.156 133.134C435.515 132.105 440.064 128.57 442.388 123.629L465.014 75.5181C466.707 71.9179 469.787 69.1543 473.549 67.8607L497.304 62.055Z" fill="#E3482C"/>
</mask>
<g mask="url(#mask2)">
<path d="M473.653 67.935C469.93 67.0243 467.449 70.5912 466.673 72.4885C466.673 71.9826 465.82 72.2609 462.408 77.4215C458.995 82.5822 407.087 125.107 380.59 142.689V155.59H449.612C459.047 137.629 478.229 96.4704 481.02 90.7026C484.51 83.4929 478.306 69.0734 473.653 67.935Z" fill="#CB3013"/>
</g>
<path d="M438.366 336.973C438.366 330.685 443.463 325.589 449.75 325.589H520.046C526.333 325.589 531.43 330.685 531.43 336.973V336.973H438.366V336.973Z" fill="#4B3886"/>
<rect x="477.919" y="212.509" width="13.9594" height="113.079" fill="#3D2C63"/>
<rect x="475.204" y="212.509" width="20.1638" height="14.4196" rx="2" fill="#4B3886"/>
<path d="M552.598 81.2161H475.979L462.02 199.328L448.836 214.786L516.277 213.945C532.286 213.746 545.684 201.746 547.638 185.855L559.545 89.0708C560.059 84.8972 556.803 81.2161 552.598 81.2161Z" fill="#B1C9E5"/>
<path d="M422.468 210.262V209.987C422.468 208.059 424.03 206.497 425.958 206.497H439.67C450.397 206.497 459.401 198.411 460.549 187.745L471.685 84.3225C471.916 82.1846 473.83 80.6341 475.969 80.8528C478.116 81.0723 479.679 82.991 479.46 85.1384L467.744 199.754C466.915 207.862 460.087 214.027 451.938 214.027H426.233C424.154 214.027 422.468 212.342 422.468 210.262Z" fill="#393F84"/>
<path d="M299.456 14.9145C299.295 12.6015 301.128 10.6365 303.447 10.6365H448.982C451.083 10.6365 452.826 12.2623 452.972 14.3585L459.394 106.536C459.555 108.849 457.723 110.814 455.404 110.814H309.869C307.768 110.814 306.025 109.188 305.879 107.092L299.456 14.9145Z" fill="#3394EA" fill-opacity="0.77"/>
<path fill-rule="evenodd" clip-rule="evenodd" d="M359.322 45.1672C359.322 39.3965 364.115 34.645 370.118 34.645C376.122 34.645 380.915 39.3965 380.915 45.1672C380.915 50.9378 376.122 55.6893 370.118 55.6893C364.115 55.6893 359.322 50.9378 359.322 45.1672ZM370.118 30.645C361.988 30.645 355.322 37.1062 355.322 45.1672C355.322 53.2281 361.988 59.6893 370.118 59.6893C378.249 59.6893 384.915 53.2281 384.915 45.1672C384.915 37.1062 378.249 30.645 370.118 30.645ZM357.71 67.8316C353.794 67.8316 350.033 69.3694 347.256 72.114C344.479 74.8593 342.914 78.5878 342.914 82.4804V88.8048C342.914 89.9094 343.809 90.8048 344.914 90.8048C346.019 90.8048 346.914 89.9094 346.914 88.8048V82.4804C346.914 79.6637 348.046 76.9576 350.068 74.9587C352.091 72.9591 354.84 71.8316 357.71 71.8316H383.303C386.174 71.8316 388.922 72.9591 390.945 74.9587C392.967 76.9576 394.099 79.6637 394.099 82.4804V88.8048C394.099 89.9094 394.995 90.8048 396.099 90.8048C397.204 90.8048 398.099 89.9094 398.099 88.8048V82.4804C398.099 78.5878 396.535 74.8593 393.757 72.114C390.981 69.3694 387.22 67.8316 383.303 67.8316H357.71ZM403.469 70.0902C403.746 69.0207 404.837 68.3777 405.906 68.6539C408.997 69.4523 411.736 71.2549 413.692 73.7787C415.647 76.3024 416.71 79.4043 416.712 82.5974V82.5989V88.8049C416.712 89.9094 415.817 90.8049 414.712 90.8049C413.608 90.8049 412.712 89.9094 412.712 88.8049V82.6004V82.5998C412.71 80.2929 411.943 78.052 410.53 76.2289C409.117 74.4056 407.139 73.1035 404.906 72.5268C403.836 72.2506 403.193 71.1597 403.469 70.0902ZM393.483 31.4638C392.412 31.1947 391.325 31.845 391.056 32.9162C390.787 33.9875 391.437 35.0741 392.508 35.3433C394.748 35.9059 396.726 37.182 398.134 38.9622C399.542 40.7416 400.302 42.9247 400.302 45.167C400.302 47.4093 399.542 49.5924 398.134 51.3718C396.726 53.152 394.748 54.4282 392.508 54.9908C391.437 55.2599 390.787 56.3465 391.056 57.4178C391.325 58.4891 392.412 59.1393 393.483 58.8702C396.568 58.0953 399.309 56.3332 401.271 53.8536C403.233 51.3733 404.302 48.3172 404.302 45.167C404.302 42.0168 403.233 38.9608 401.271 36.4804C399.309 34.0008 396.568 32.2387 393.483 31.4638Z" fill="#B1D7FF"/>
</g>
</svg>
