<svg width="44" height="43" viewBox="0 0 44 43" fill="none" xmlns="http://www.w3.org/2000/svg">
<ellipse cx="21.8144" cy="21.3" rx="21.3007" ry="21.3" fill="#4886FF" fill-opacity="0.5"/>
<path d="M32.3467 29.0976C32.3467 29.6853 32.1132 30.249 31.6976 30.6646C31.282 31.0802 30.7183 31.3137 30.1305 31.3137H12.4008C11.813 31.3137 11.2493 31.0802 10.8337 30.6646C10.4181 30.249 10.1846 29.6853 10.1846 29.0976V13.5846C10.1846 12.9968 10.4181 12.4331 10.8337 12.0175C11.2493 11.6019 11.813 11.3684 12.4008 11.3684H17.9413L20.1575 14.6926H30.1305C30.7183 14.6926 31.282 14.9261 31.6976 15.3417C32.1132 15.7573 32.3467 16.321 32.3467 16.9088V29.0976Z" fill="#4886FF" stroke="#4886FF" stroke-width="2" stroke-linecap="round" stroke-linejoin="round"/>
</svg>
