<svg width="324" height="220" viewBox="0 0 324 220" fill="none" xmlns="http://www.w3.org/2000/svg">
<ellipse cx="162" cy="203.194" rx="162" ry="16.6509" fill="#4886FF" fill-opacity="0.1"/>
<path d="M124.78 119.927C127.009 103.122 117.02 102.763 110.327 105.102C109.543 105.376 108.703 104.7 108.881 103.889C112.33 88.1055 117.699 57.6277 114.568 47.6201C111.586 38.0877 99.8696 42.3307 92.9296 46.4528C92.193 46.8903 91.2437 46.2969 91.3498 45.4468C94.3569 21.3624 97.4884 2.36929 72.7 0.419045C52.9032 -1.13849 50.6966 26.7437 52.1299 42.1757C52.1942 42.8688 51.5469 43.4235 50.8657 43.2804C32.7648 39.4778 34.66 53.1656 37.98 60.6752C43.0859 77.0784 51.6638 108.679 45.1283 103.859C38.7575 99.16 34.4568 101.713 32.9828 103.706C32.9085 103.806 32.8585 103.928 32.8312 104.05C20.7253 158.099 65.5709 162.107 81.8905 162.107C98.2294 162.107 121.716 143.026 124.78 119.927Z" fill="#82B7FB"/>
<path d="M72.6988 22.5138C74.1728 61.6542 74.0601 152.734 72.6986 197.257L81.8891 197.257C78.8256 108.881 71.6777 -4.60195 72.6988 22.5138Z" fill="#3A5CA6"/>
<path d="M79.8488 152.065C89.7201 145.369 110.484 128.966 114.569 116.915" stroke="#3A5CA6" stroke-linecap="round"/>
<path d="M74.7428 143.026C66.6134 137.67 49.5137 124.548 46.1499 114.906" stroke="#3A5CA6" stroke-linecap="round"/>
<path d="M76.7854 88.7957C86.0761 82.6744 105.619 67.6773 109.463 56.6589" stroke="#3A5CA6" stroke-linecap="round"/>
<path d="M76.7854 102.856C70.9787 99.0299 48.5529 62.5412 46.1501 55.6548" stroke="#3A5CA6" stroke-linecap="round"/>
<path d="M103.36 110.89C103.02 117.585 106.015 129.971 120.72 125.954" stroke="#3A5CA6" stroke-width="0.5" stroke-linecap="round"/>
<path d="M89.064 124.949C88.7236 131.644 91.719 144.03 106.424 140.013" stroke="#3A5CA6" stroke-width="0.5" stroke-linecap="round"/>
<path d="M91.1056 58.6675C90.7652 65.3626 93.7607 77.7487 108.466 73.7316" stroke="#3A5CA6" stroke-width="0.5" stroke-linecap="round"/>
<path d="M64.5092 72.7273C64.7891 77.8183 62.3258 87.2367 50.2333 84.1821" stroke="#3A5CA6" stroke-width="0.5" stroke-linecap="round"/>
<path d="M60.425 116.915C60.7049 122.006 58.2416 131.424 46.1491 128.37" stroke="#3A5CA6" stroke-width="0.5" stroke-linecap="round"/>
<path d="M271.582 171.059C272.031 167.668 270.634 166.764 269.146 166.789C268.316 166.803 267.442 166.098 267.606 165.283C268.507 160.829 269.587 154.001 268.832 151.589C268.211 149.604 266.185 149.837 264.434 150.557C263.641 150.883 262.674 150.266 262.778 149.415C263.478 143.699 263.677 139.36 257.558 138.878C252.649 138.492 251.756 144.828 251.947 149.078C251.978 149.773 251.336 150.321 250.642 150.264C246.885 149.956 247.383 153.238 248.208 155.104C249.583 159.521 251.893 168.031 250.133 166.733C248.53 165.55 247.414 166.073 246.95 166.585C246.866 166.677 246.818 166.801 246.791 166.923C243.639 181.345 255.652 182.417 260.032 182.417C264.432 182.417 270.757 177.279 271.582 171.059Z" fill="#82B7FB"/>
<path d="M257.557 144.828C257.954 155.368 257.923 179.894 257.557 191.883L260.032 191.883C259.207 168.085 257.282 137.527 257.557 144.828Z" fill="#3A5CA6"/>
<path d="M259.482 179.713C262.141 177.91 267.732 173.493 268.832 170.248" stroke="#3A5CA6" stroke-linecap="round"/>
<path d="M258.106 177.279C255.917 175.837 251.312 172.303 250.407 169.707" stroke="#3A5CA6" stroke-linecap="round"/>
<path d="M258.658 162.676C261.16 161.028 266.422 156.99 267.458 154.023" stroke="#3A5CA6" stroke-linecap="round"/>
<path d="M258.658 166.462C257.095 165.432 251.056 155.607 250.409 153.752" stroke="#3A5CA6" stroke-linecap="round"/>
<path d="M265.814 168.626C265.722 170.429 266.528 173.764 270.488 172.682" stroke="#3A5CA6" stroke-width="0.5" stroke-linecap="round"/>
<path d="M261.966 172.412C261.874 174.215 262.681 177.55 266.64 176.468" stroke="#3A5CA6" stroke-width="0.5" stroke-linecap="round"/>
<path d="M262.515 154.563C262.423 156.366 263.23 159.701 267.189 158.62" stroke="#3A5CA6" stroke-width="0.5" stroke-linecap="round"/>
<path d="M255.353 158.35C255.428 159.721 254.765 162.257 251.509 161.434" stroke="#3A5CA6" stroke-width="0.5" stroke-linecap="round"/>
<path d="M254.253 170.248C254.328 171.619 253.665 174.155 250.409 173.333" stroke="#3A5CA6" stroke-width="0.5" stroke-linecap="round"/>
<path d="M266.921 36.3251C212.105 24.2873 203.278 54.1911 205.716 70.6477C205.993 73.8096 208.547 76.3034 209.79 77.1551C233.063 83.7584 250.408 67.0413 256.171 57.8574L253.584 53.9907L258.593 52.6708L262.757 44.498L266.921 36.3251Z" fill="#6A91E0"/>
<path fill-rule="evenodd" clip-rule="evenodd" d="M244.589 44.0914C241.631 45.4191 238.631 46.8851 235.684 48.4837C224.697 54.4442 214.367 62.2969 209.873 71.7691L210.78 72.2007C211.771 70.1123 213.059 68.0991 214.586 66.1649L236.494 66.0928L236.484 65.0949L215.403 65.1642C218.509 61.484 222.471 58.101 226.874 55.044L247.881 55.2849L247.885 54.2871L228.319 54.0627C230.835 52.3905 233.476 50.8215 236.168 49.3608C239.038 47.804 241.96 46.3735 244.843 45.0751L259.469 45.1811L259.469 44.1832L247.073 44.0934C254.353 40.9598 261.228 38.6928 266.19 37.3852L265.927 36.4204C260.459 37.8612 252.702 40.4524 244.624 44.0757L244.589 44.0754L244.589 44.0914Z" fill="#4773CC"/>
<path d="M294.769 77.1723C253.417 39.7926 230.569 61.3497 224.314 76.8007C222.946 79.6748 223.891 83.0907 224.534 84.4394C241.332 101.602 264.852 95.6534 274.512 90.5339L274.238 85.9129L279.246 87.2328L287.008 82.2025L294.769 77.1723Z" fill="#4B7DE2"/>
<path fill-rule="evenodd" clip-rule="evenodd" d="M271.481 72.9166C268.242 72.6116 264.896 72.4055 261.529 72.3409C248.984 72.1004 236.045 73.8216 227.338 79.8148L227.903 80.6344C229.824 79.3128 231.963 78.2024 234.27 77.2784L253.285 87.9916L253.783 87.1222L235.486 76.8138C240.048 75.1538 245.199 74.1721 250.567 73.6898L268.641 84.2303L269.152 83.3683L252.317 73.5505C255.346 73.3399 258.429 73.2797 261.503 73.3386C264.781 73.4015 268.04 73.5997 271.199 73.8931L283.813 81.1779L284.32 80.3137L273.629 74.1394C281.525 75.0054 288.63 76.4224 293.591 77.7297L293.853 76.7649C288.387 75.3243 280.353 73.7543 271.517 72.92L271.489 72.9036L271.481 72.9166Z" fill="#4773CC"/>
<path d="M203.943 120.697V146.994H231.648V189.571" stroke="#FEB261" stroke-width="2" stroke-dasharray="5 5"/>
<path d="M177.008 120.697V186.544" stroke="#FEB261" stroke-width="2" stroke-dasharray="5 5"/>
<path d="M164.598 69.9878H154.208C153.519 69.9878 152.859 70.2569 152.372 70.736C151.885 71.215 151.611 71.8647 151.611 72.5422V92.9774C151.611 93.6548 151.885 94.3045 152.372 94.7836C152.859 95.2626 153.519 95.5317 154.208 95.5317H169.793C170.482 95.5317 171.142 95.2626 171.629 94.7836C172.116 94.3045 172.39 93.6548 172.39 92.9774V77.651L164.598 69.9878Z" stroke="#2B2788" stroke-width="2" stroke-linecap="round" stroke-linejoin="round"/>
<path d="M164.596 69.9878V77.651H172.388" stroke="#2B2788" stroke-width="2" stroke-linecap="round" stroke-linejoin="round"/>
<path d="M167.194 84.0369H156.804" stroke="#2B2788" stroke-width="2" stroke-linecap="round" stroke-linejoin="round"/>
<path d="M167.194 89.146H156.804" stroke="#2B2788" stroke-width="2" stroke-linecap="round" stroke-linejoin="round"/>
<path d="M159.401 78.928H158.103H156.804" stroke="#2B2788" stroke-width="2" stroke-linecap="round" stroke-linejoin="round"/>
<path d="M116.979 119.183V147.985H89.2736V188.057" stroke="#FEB261" stroke-width="2" stroke-dasharray="5 5"/>
<path d="M146.224 119.183V186.543" stroke="#FEB261" stroke-width="2" stroke-dasharray="5 5"/>
<ellipse cx="87.7336" cy="186.922" rx="10.0048" ry="10.2176" fill="#FEAF22"/>
<ellipse cx="146.223" cy="186.922" rx="10.0048" ry="10.2176" fill="#FEAF22"/>
<ellipse cx="177.006" cy="186.922" rx="10.0048" ry="10.2176" fill="#FEAF22"/>
<ellipse cx="230.496" cy="186.922" rx="10.3895" ry="10.2176" fill="#FEAF22"/>
<path d="M293.733 199.341L292.84 196.104L296.413 194.983L296.54 199.092L293.733 199.341Z" fill="#B88B60"/>
<path d="M296.645 198.626C295.933 198.925 294.272 199 293.53 199H293.419L293.197 202.113H301.985C303.677 202.113 302.838 201.283 302.208 200.868C300.606 200.868 297.832 199.373 296.645 198.626Z" fill="#1D104A"/>
<path d="M281.164 199.341L282.057 196.104L278.484 194.983L278.356 199.092L281.164 199.341Z" fill="#B88B60"/>
<path d="M278.249 198.626C278.961 198.925 280.622 199 281.364 199H281.475L281.698 202.113H272.909C271.218 202.113 272.056 201.283 272.686 200.868C274.288 200.868 277.062 199.373 278.249 198.626Z" fill="#1D104A"/>
<path d="M282.42 125.94L282.772 124.664L283.404 123.506C283.757 123.307 285.137 123.055 287.836 123.633C290.534 124.211 289.065 128.907 288.005 131.235L288.005 134.098C286.276 134.965 284.433 134.131 284.433 133.368L284.433 131.737C283.909 131.823 283.218 131.908 282.829 131.816C282.17 131.661 282.478 130.877 282.714 130.504L282.71 130.502C282.523 130.403 282.454 130.173 282.556 129.987L282.358 129.826C282.273 129.758 282.24 129.644 282.276 129.54C282.339 129.357 282.261 129.158 282.09 129.068L281.764 128.895C281.612 128.815 281.571 128.619 281.678 128.483L282.374 127.597C282.512 127.422 282.548 127.188 282.469 126.981C282.343 126.649 282.325 126.285 282.42 125.94Z" fill="#F3AEAE"/>
<path d="M287.125 130.959L287.146 130.989C287.472 131.457 288.187 131.407 288.454 130.897C289.541 128.819 290.701 126.38 289.549 124.36C289.126 123.62 288.448 122.962 287.393 122.583C283.958 121.346 283.02 123.064 282.886 123.041C282.778 123.023 282.631 122.762 282.57 122.634C282.521 122.724 282.527 123.012 282.536 123.145C282.295 122.941 282.452 122.492 282.561 122.292C280.984 123.962 281.754 124.994 282.337 125.302C282.95 125.225 284.245 125.193 284.524 125.687C284.872 126.304 284.682 126.204 285.401 126.679C285.976 127.06 285.697 128.408 285.485 129.034L285.139 129.669L286.055 129.335C286.145 128.381 286.854 127.96 287.198 127.869C288.102 128.077 287.526 130.015 287.125 130.959Z" fill="#393939"/>
<path d="M284.418 132.112L283.269 132.489L281.993 152.191H289.394V132.112H287.991L287.969 132.456C287.909 133.391 287.133 134.12 286.195 134.12C285.213 134.12 284.418 133.324 284.418 132.343V132.112Z" fill="white"/>
<path d="M270.745 130.497C269.835 131.508 270.097 133.744 270.487 134.931L272.425 134.999C271.874 133.972 273.674 132.176 273.04 131.933C272.552 131.746 272.574 132.147 272.252 132.703C272.011 132.479 271.886 131.877 271.845 131.273C271.801 130.619 271.183 130.009 270.745 130.497Z" fill="#EA8F72"/>
<path d="M284.323 146.483C285.084 147.606 287.344 147.935 288.609 147.872L289.178 146.048C288.026 146.306 286.728 144.131 286.325 144.67C286.015 145.085 286.415 145.169 286.878 145.618C286.591 145.792 285.954 145.751 285.342 145.63C284.7 145.502 283.958 145.944 284.323 146.483Z" fill="#EA8F72"/>
<path d="M293.097 152.065H278.806L277.785 198.372H282.123L284.931 164.615L292.459 198.372H297.053L293.097 152.065Z" fill="#333333"/>
<path d="M281.869 161.352L283.273 132.489L282.763 132.615C282.507 132.74 282.533 132.715 279.572 133.618C276.612 134.522 274.766 139.935 274.213 142.528L272.554 134.873H270.385L270.898 145.877C270.968 147.374 272.202 148.552 273.701 148.552C274.792 148.552 275.784 147.92 276.244 146.931L278.296 142.528C277.276 148.426 275.208 160.448 275.106 161.352C275.004 162.256 279.572 161.728 281.869 161.352Z" fill="#7873D7"/>
<mask id="mask0" mask-type="alpha" maskUnits="userSpaceOnUse" x="270" y="132" width="14" height="30">
<path d="M281.869 161.352L283.273 132.489L282.763 132.615C282.507 132.74 282.533 132.715 279.572 133.618C276.612 134.522 274.766 139.935 274.213 142.528L272.554 134.873H270.385L270.898 145.877C270.968 147.374 272.202 148.552 273.701 148.552C274.792 148.552 275.784 147.92 276.244 146.931L278.296 142.528C277.276 148.426 275.208 160.448 275.106 161.352C275.004 162.256 279.572 161.728 281.869 161.352Z" fill="#DEECF9"/>
</mask>
<g mask="url(#mask0)">
<ellipse cx="273.447" cy="149.807" rx="3.06248" ry="3.01179" fill="#BFCEE1" fill-opacity="0.3"/>
<line y1="-0.5" x2="29.9062" y2="-0.5" transform="matrix(-0.0512015 0.998688 -0.998773 -0.0495248 282.634 132.238)" stroke="#6762D1"/>
<path d="M274.211 143.909L274.084 141.273V140.144L274.594 140.395L274.211 143.909Z" fill="#7D809D"/>
</g>
<path fill-rule="evenodd" clip-rule="evenodd" d="M296.923 136.254C296.107 134.848 291.564 132.823 289.395 131.987L288.974 145.999L288.501 145.916V147.924L288.912 148.054L288.501 161.728H295.902L294.794 149.879C296.15 150.294 297.421 150.676 298.327 150.936C300.777 151.639 301.219 149.221 301.134 147.924C300.071 144.62 297.74 137.659 296.923 136.254ZM293.988 141.273L296.54 147.799L294.116 147.171L293.988 141.273Z" fill="#7873D7"/>
<path d="M288.501 145.917V147.924L296.54 150.434L296.668 147.799L288.501 145.917Z" fill="url(#paint0_linear)"/>
<mask id="mask1" mask-type="alpha" maskUnits="userSpaceOnUse" x="288" y="131" width="14" height="31">
<path fill-rule="evenodd" clip-rule="evenodd" d="M296.923 136.254C296.107 134.848 291.564 132.823 289.395 131.987L288.974 146L288.501 145.916V147.924L288.912 148.054L288.501 161.728H295.902L294.794 149.879C296.15 150.294 297.421 150.676 298.327 150.936C300.777 151.639 301.219 149.221 301.134 147.924C300.071 144.62 297.74 137.659 296.923 136.254ZM293.989 141.273L296.286 147.296L294.5 146.543L293.989 141.273Z" fill="#7873D7"/>
</mask>
<g mask="url(#mask1)">
<line x1="290.275" y1="131.484" x2="290.275" y2="146.292" stroke="#6762D1"/>
<path d="M289.895 148.444L289.895 161.716" stroke="#6762D1"/>
<ellipse cx="301.773" cy="150.81" rx="3.06248" ry="3.01179" fill="#BFCEE1" fill-opacity="0.3"/>
<path d="M297.434 148.3L296.541 147.798L296.413 147.422L297.434 148.3Z" fill="#7D809D"/>
</g>
<path d="M214.717 125.406C214.717 128.172 213.606 130.824 211.629 132.78C209.652 134.735 206.97 135.834 204.174 135.834H119.826C117.03 135.834 114.348 134.735 112.371 132.78C110.393 130.824 109.282 128.172 109.282 125.406V52.4115C109.282 49.6458 110.393 46.9935 112.371 45.0379C114.348 43.0823 117.03 41.9836 119.826 41.9836H146.185L156.728 57.6254H204.174C206.97 57.6254 209.652 58.724 211.629 60.6796C213.606 62.6352 214.717 65.2876 214.717 68.0532V125.406Z" fill="#7873D7"/>
<path d="M187.031 75.4053V70.1855L190.393 70.486L190.545 75.4053H187.031Z" fill="#EE9F86"/>
<path d="M190.673 74.8479C189.821 75.2057 187.832 75.2951 186.944 75.2951H186.81L186.544 79.0218H197.067C199.092 79.0218 198.088 78.028 197.333 77.5311C195.415 77.5311 192.094 75.7423 190.673 74.8479Z" fill="#1D104A"/>
<path d="M191.743 52.7405C191.065 50.6903 187.367 50.0981 185.27 50.1773L183.639 52.543C185.37 52.1852 187.856 55.5918 188.455 54.8148C188.916 54.2161 188.312 54.0888 187.607 53.4281C188.14 53.1206 189.49 53.3008 190.575 53.5868C191.205 53.753 191.946 53.3567 191.743 52.7405Z" fill="#EE9F86"/>
<path d="M176.837 38.1818C174.148 33.0132 171.031 29.5174 169.809 28.4155C168.638 31.4706 167.303 38.9331 171.337 44.3421C175.37 49.7511 181.675 51.6042 184.323 51.8546L186.156 49.6009C184.17 47.9481 179.526 43.3504 176.837 38.1818Z" fill="#CF3316"/>
<path d="M176.314 71.0568L178.864 66.4785L181.665 68.3297L179.397 72.7166L176.314 71.0568Z" fill="#EF937E"/>
<path d="M179.78 72.2878C178.858 72.1989 177.07 71.3378 176.291 70.9184L176.174 70.8555L174.12 73.9984L183.35 78.9687C185.126 79.925 184.731 78.5794 184.312 77.7871C182.629 76.8811 180.59 73.7434 179.78 72.2878Z" fill="#1D104A"/>
<path d="M169.134 58.9167C162.29 59.0369 161.699 52.0553 162.259 49.4509H175.857C180.338 50.2523 189.76 51.9751 191.593 52.4559C193.426 52.9367 193.885 54.7598 193.885 55.6112L191.432 73.0403H186.246L186.972 60.7789L180.593 71.9885L175.849 69.5845L181.102 58.2085C177.509 58.5354 173.121 58.8467 169.134 58.9167Z" fill="#2276BC"/>
<mask id="mask2" mask-type="alpha" maskUnits="userSpaceOnUse" x="162" y="49" width="32" height="25">
<path d="M169.134 58.9167C162.29 59.0369 161.699 52.0553 162.259 49.4509H175.857C180.338 50.2523 189.76 51.9751 191.593 52.4559C193.426 52.9367 193.885 54.7598 193.885 55.6112L191.432 73.0403H186.246L186.972 60.7789L180.593 71.9885L175.849 69.5845L181.102 58.2085C177.509 58.5354 173.121 58.8467 169.134 58.9167Z" fill="#79C7CE"/>
</mask>
<g mask="url(#mask2)">
<path d="M187.153 58.0154L181.042 58.3159L172.487 68.9837L176.382 71.3126L180.278 73.6414L186.695 64.0254L187.153 58.0154Z" fill="#08589A"/>
</g>
<path d="M172.238 20.4738L171.77 18.9581L170.97 17.5954C170.54 17.3707 168.878 17.1186 165.671 17.9083C162.463 18.698 164.371 24.3903 165.725 27.1377L165.832 28.132C167.934 29.1071 171.269 29.5794 170.778 28.7435C170.32 27.9627 170.337 28.1581 170.276 27.58C170.906 27.6641 171.507 27.6434 171.969 27.5196C172.751 27.3097 172.354 26.3826 172.058 25.9453C172.278 25.8202 172.356 25.5397 172.228 25.3212L172.458 25.122C172.557 25.0363 172.592 24.8984 172.545 24.7758C172.463 24.5596 172.55 24.3174 172.752 24.2029L173.135 23.9857C173.313 23.8845 173.355 23.6485 173.223 23.4909L172.355 22.4534C172.183 22.2486 172.132 21.9711 172.218 21.7211C172.358 21.3187 172.365 20.8823 172.238 20.4738Z" fill="#EE9F86"/>
<path d="M166.681 24.2579L165.306 26.2112C164.787 25.7762 162.624 23.368 163.765 19.3443C164.47 16.8603 167.672 16.8994 170.305 17.1694C171.084 17.2493 171.908 17.0287 172.484 17.1694C172.567 19.7793 169.959 20.0693 168.644 19.8881C168.713 20.5768 168.717 21.6167 167.139 21.7037C165.561 21.7907 166.369 23.6417 166.681 24.2579Z" fill="#393939"/>
<path d="M192.464 25.2602C190.665 24.0282 187.353 25.7544 185.731 27.0633L185.884 29.918C187.044 28.6039 191.118 29.8411 191.118 28.8663C191.117 28.115 190.558 28.3727 189.59 28.2653C189.826 27.7037 191.011 27.0454 192.051 26.6289C192.655 26.3865 193.004 25.6303 192.464 25.2602Z" fill="#EE9F86"/>
<path d="M175.647 49.451L171.311 35.5445L168.619 34.1255L169.217 49.451H175.647Z" fill="white"/>
<path d="M158.64 54.2588C157.831 40.6321 161.962 31.0744 164.129 27.999L164.852 27.7151C174.097 29.0777 182.957 27.1473 186.231 26.0117L186.953 29.8442C177.419 35.664 172.267 36.2791 169.474 36.2318C171.063 41.1999 170.919 47.3035 170.485 50.5683C170.139 53.18 168.126 54.1169 167.163 54.2588H158.64Z" fill="#E3482C"/>
<path d="M153.287 95.0304C153.287 96.5138 152.971 97.8207 152.339 98.9509C151.707 100.081 150.788 100.964 149.581 101.6C148.389 102.222 146.966 102.532 145.314 102.532H139.906V87.5708H145.314C146.966 87.5708 148.389 87.8816 149.581 88.5033C150.788 89.1108 151.707 89.9796 152.339 91.1099C152.971 92.226 153.287 93.5328 153.287 95.0304ZM145.056 99.8622C146.693 99.8622 147.958 99.4383 148.848 98.5907C149.753 97.743 150.206 96.5562 150.206 95.0304C150.206 93.4904 149.753 92.2966 148.848 91.4489C147.958 90.6013 146.693 90.1774 145.056 90.1774H142.944V99.8622H145.056Z" fill="#4A45B1"/>
<path d="M171.961 87.7403V102.532H168.944V92.2119L165.087 102.532H162.458L158.6 92.2542V102.532H155.562V87.7403H159.247L163.815 98.8662L168.297 87.7403H171.961Z" fill="#4A45B1"/>
<path d="M185.163 98.4423C185.163 99.2052 184.969 99.9116 184.581 100.562C184.193 101.197 183.619 101.713 182.857 102.109C182.096 102.49 181.169 102.681 180.077 102.681C179 102.681 178.037 102.504 177.19 102.151C176.342 101.784 175.66 101.261 175.143 100.583C174.64 99.9046 174.353 99.1134 174.281 98.2092H177.513C177.585 98.8167 177.829 99.3253 178.246 99.735C178.677 100.131 179.244 100.328 179.948 100.328C180.58 100.328 181.061 100.166 181.392 99.841C181.737 99.5019 181.909 99.071 181.909 98.5483C181.909 98.0821 181.772 97.7006 181.5 97.4039C181.227 97.0931 180.882 96.8458 180.465 96.6622C180.049 96.4785 179.474 96.2666 178.741 96.0264C177.793 95.7156 177.017 95.4119 176.414 95.1152C175.811 94.8044 175.294 94.3593 174.863 93.7801C174.446 93.2008 174.238 92.445 174.238 91.5125C174.238 90.2269 174.705 89.2167 175.638 88.4821C176.586 87.7333 177.836 87.3589 179.388 87.3589C180.997 87.3589 182.275 87.7403 183.223 88.5033C184.186 89.2662 184.732 90.2834 184.861 91.5549H181.586C181.5 91.018 181.27 90.5801 180.896 90.241C180.523 89.8878 180.013 89.7112 179.366 89.7112C178.806 89.7112 178.353 89.8595 178.009 90.1562C177.664 90.4388 177.491 90.8556 177.491 91.4066C177.491 91.8445 177.621 92.2119 177.879 92.5085C178.152 92.7911 178.49 93.0242 178.892 93.2079C179.309 93.3915 179.869 93.5964 180.573 93.8225C181.55 94.1615 182.34 94.4794 182.943 94.7761C183.561 95.0728 184.085 95.5178 184.516 96.1112C184.947 96.7046 185.163 97.4816 185.163 98.4423Z" fill="#4A45B1"/>
<defs>
<linearGradient id="paint0_linear" x1="288.629" y1="147.046" x2="297.031" y2="149.376" gradientUnits="userSpaceOnUse">
<stop stop-color="#7873D7"/>
<stop offset="1" stop-color="#D7E8F7" stop-opacity="0"/>
</linearGradient>
</defs>
</svg>
