<svg width="169" height="243" viewBox="0 0 169 243" fill="none" xmlns="http://www.w3.org/2000/svg">
<path d="M134.578 110.231C134.977 102.617 123.182 100.209 116.707 100.458L115.179 108.108C120.149 108.489 123.579 115.952 125.228 113.775C126.499 112.098 124.834 111.741 122.891 109.89C124.748 108.802 130.196 109.894 133.221 111.01C133.833 111.235 134.544 110.882 134.578 110.231Z" fill="#EE9F86"/>
<path d="M132.445 192.01V174.93L143.261 175.913L143.753 192.01H132.445Z" fill="#EE9F86"/>
<path d="M144.162 190.184C141.419 191.355 135.018 191.648 132.16 191.648H131.731L130.874 203.842H164.737C171.252 203.842 168.023 200.59 165.594 198.964C159.422 198.964 148.734 193.111 144.162 190.184Z" fill="#1D104A"/>
<path d="M97.9591 177.782L106.162 162.801L115.177 168.858L107.877 183.213L97.9591 177.782Z" fill="#F3AEAE"/>
<path d="M109.113 181.809C106.145 181.518 100.39 178.7 97.8831 177.328L97.5072 177.122L90.8986 187.406L120.6 203.669C126.315 206.799 125.044 202.396 123.695 199.803C118.281 196.838 111.718 186.571 109.113 181.809Z" fill="#1D104A"/>
<path d="M74.854 138.057C52.8286 138.45 50.9283 115.605 52.731 107.084H96.4866C110.908 109.706 141.226 115.343 147.125 116.916C153.025 118.49 154.5 124.455 154.5 127.241L146.608 184.271H129.918L132.255 144.15L111.728 180.829L96.4605 172.963L113.365 135.739C101.803 136.809 87.6834 137.828 74.854 138.057Z" fill="#79C7CE"/>
<mask id="mask0" mask-type="alpha" maskUnits="userSpaceOnUse" x="52" y="107" width="103" height="78">
<path d="M74.854 138.057C52.8286 138.45 50.9283 115.605 52.731 107.084H96.4866C110.908 109.706 141.226 115.343 147.125 116.916C153.025 118.49 154.5 124.455 154.5 127.241L146.608 184.271H129.918L132.255 144.15L111.728 180.829L96.4605 172.963L113.365 135.739C101.803 136.809 87.6834 137.828 74.854 138.057Z" fill="#79C7CE"/>
</mask>
<g mask="url(#mask0)">
<path d="M132.842 135.107L113.176 136.09L85.6445 170.997L110.718 186.238L131.367 154.773L132.842 135.107Z" fill="#5DB3BB"/>
</g>
<path d="M97.7909 25.3478C98.1533 24.714 98.3777 23.9572 98.5288 23.1724C99.0821 20.2993 98.553 17.2353 97.5014 14.505C85.602 4.68243 77.4133 15.2637 74.8064 21.7822L72.4599 42.09L83.0668 45.0126L83.8194 38.9645C85.4091 37.9054 87.0583 38.8098 90.5456 40.312C94.0328 41.8142 94.034 38.3706 94.2549 37.8408C94.3855 37.5275 94.9908 37.1629 95.4997 36.9109C95.743 36.7904 95.8366 36.4827 95.6861 36.2567C95.5543 36.059 95.6078 35.7919 95.8056 35.6601L96.1091 35.4579C96.4192 35.2514 96.5442 34.8571 96.4098 34.5096L96.2786 34.1704C96.1789 33.9125 96.2607 33.6198 96.4796 33.4509L97.3533 32.7773C98.1254 32.182 98.3394 31.1222 97.9885 30.2126C97.4066 28.7044 96.9819 26.7624 97.7909 25.3478Z" fill="#EE9F86"/>
<path fill-rule="evenodd" clip-rule="evenodd" d="M103.675 13.5877C103.891 13.1858 104.053 12.7453 104.147 12.2744C104.659 9.7186 103.002 7.23167 100.447 6.71965C99.0432 6.4385 97.6606 6.81127 96.6143 7.62772C95.9678 6.94749 95.1127 6.45281 94.1227 6.25447C93.3494 6.09955 92.5824 6.14318 91.8746 6.35017C91.2632 5.39689 90.2806 4.68339 89.0825 4.44336C87.7652 4.17947 86.468 4.54406 85.5012 5.33023L85.4821 5.32638C84.5787 5.14538 83.6838 5.23541 82.8817 5.54037C82.4645 5.15585 81.9398 4.87738 81.3428 4.75778C79.9869 4.48613 78.6595 5.1145 77.9794 6.23072C75.4581 5.77942 73.0275 7.42643 72.522 9.94972C72.4683 10.2176 72.4385 10.4848 72.431 10.749C70.6314 10.5558 68.9491 11.7644 68.5866 13.5738C68.5735 13.6394 68.5622 13.705 68.5529 13.7705C67.4956 14.2059 66.6686 15.1445 66.4272 16.3498C66.2491 17.2389 66.4209 18.1169 66.8477 18.8412C66.175 19.3451 65.6782 20.0891 65.5001 20.9782C65.3088 21.933 65.5212 22.875 66.0194 23.6275C65.8052 23.9054 65.6501 24.2356 65.5765 24.6029C65.3488 25.7395 65.9789 26.8489 67.0202 27.2604C67.1191 27.4713 67.2303 27.676 67.3531 27.8734C66.7358 28.3743 66.2828 29.085 66.1145 29.9253C65.7305 31.8422 66.9731 33.7074 68.8899 34.0914C70.2171 34.3573 71.5195 33.8434 72.3227 32.8658C72.6053 33.5902 73.2396 34.16 74.0587 34.324C75.3366 34.58 76.58 33.7517 76.836 32.4738C76.8795 32.2567 76.8917 32.0406 76.8757 31.8302C77.3251 31.7495 77.7389 31.5397 78.0682 31.2332C78.247 32.1425 78.9557 32.899 79.9208 33.0924C81.1987 33.3484 82.4422 32.52 82.6982 31.2421C82.7521 30.9731 82.7579 30.7056 82.7216 30.4485C83.7698 29.4238 84.2368 28.3887 82.4678 28.3881C80.8568 28.3876 80.3323 27.3374 80.33 26.0283C80.3255 23.489 83.0328 21.2191 85.257 22.4441C86.6586 23.216 87.0514 24.7084 87.0195 25.69C88.7469 26.6778 90.9286 22.1946 91.8036 19.8295C93.3467 20.712 95.9902 19.9369 97.4899 19.2853C97.9465 19.5901 98.4692 19.8124 99.0409 19.927C101.384 20.3963 103.663 18.8776 104.133 16.5348C104.342 15.4879 104.155 14.4535 103.675 13.5877Z" fill="#393939"/>
<path d="M51.2587 104.07C50.5515 106.637 51.6628 107.257 52.5467 107.614C64.1848 107.614 88.471 108.348 90.5924 108.348C92.7138 108.348 92.9495 107.635 92.8022 107.278C92.4486 104.712 88.2001 94.8362 88.3474 91.8062C89.107 76.1838 96.2989 72.951 94.9641 64.5124C93.6292 56.0738 93.8965 48.2637 83.3849 43.0083C75.1141 38.8731 74.5493 38.599 69.8206 39.9612C66.7269 40.8523 60.2744 44.8804 59.2137 53.8634C57.8878 65.0922 52.1426 100.862 51.2587 104.07Z" fill="#7873D7"/>
<path d="M70.4996 97.1952L70.4996 68.4695L85.7965 69.2343L85.1403 88.2641C85.0766 90.112 86.2878 91.7628 88.0697 92.2566L116.773 100.21L117.155 108.241L73.8525 101.143C71.9189 100.826 70.4996 99.1546 70.4996 97.1952Z" fill="#EE9F86"/>
<path d="M69.3921 56.731C69.9819 51.0866 75.0356 46.9891 80.68 47.5788C86.3244 48.1686 90.422 53.2224 89.8322 58.8667L87.9775 76.6174L67.5374 74.4816L69.3921 56.731Z" fill="#6660D9"/>
<path fill-rule="evenodd" clip-rule="evenodd" d="M148.549 117.899L167.989 84.2283L162.61 81.123L144.928 111.75L110.395 106.231L109.525 111.674L148.479 117.899L148.485 117.862L148.549 117.899Z" fill="#C4C4C4"/>
<rect x="7.74414" y="180.821" width="7.34631" height="27.3855" rx="3.67316" transform="rotate(-9.56068 7.74414 180.821)" fill="#10256B"/>
<rect x="9.92969" y="174.166" width="10.826" height="40.3572" rx="5.41302" transform="rotate(-9.56068 9.92969 174.166)" fill="#041345"/>
<rect x="10.5058" y="174.576" width="9.82604" height="39.3572" rx="4.91302" transform="rotate(-9.56068 10.5058 174.576)" stroke="white" stroke-opacity="0.04"/>
<path fill-rule="evenodd" clip-rule="evenodd" d="M83.2178 220.275C107.026 222.542 128.165 205.08 130.432 181.271C132.699 157.462 115.236 136.324 91.4275 134.057C72.0802 132.215 54.4961 143.401 47.3691 160.434C43.0118 166.065 37.9643 170.874 31.8971 171.888L42.4549 207.849C43.5667 207.955 44.6748 208.031 45.7885 208.108C50.3793 208.424 55.0661 208.747 60.5016 211.171C66.8204 216.165 74.6037 219.455 83.2178 220.275Z" fill="#FD8221"/>
<mask id="mask1" mask-type="alpha" maskUnits="userSpaceOnUse" x="27" y="128" width="108" height="97">
<path fill-rule="evenodd" clip-rule="evenodd" d="M83.2178 220.275C107.026 222.542 128.165 205.08 130.432 181.271C132.699 157.462 115.236 136.324 91.4275 134.057C72.0802 132.215 54.4961 143.401 47.3691 160.434C43.0118 166.065 37.9643 170.874 31.8971 171.888L42.4549 207.849C43.5667 207.955 44.6748 208.031 45.7885 208.108C50.3793 208.424 55.0661 208.747 60.5016 211.171C66.8204 216.165 74.6037 219.455 83.2178 220.275Z" fill="#FFB80B"/>
</mask>
<g mask="url(#mask1)">
<path fill-rule="evenodd" clip-rule="evenodd" d="M81.9726 217.049C105.781 219.316 126.92 201.854 129.187 178.045C131.454 154.236 113.991 133.098 90.1824 130.831C70.8351 128.989 53.251 140.175 46.124 157.208C41.7667 162.84 36.7192 167.648 30.652 168.662L41.2098 204.623C42.3216 204.729 43.4297 204.805 44.5434 204.882C49.1342 205.198 53.821 205.521 59.2565 207.945C65.5753 212.939 73.3586 216.229 81.9726 217.049Z" fill="#FDAC1A"/>
</g>
<path d="M72.3736 174.341L38.9422 182.809L39.8954 189.114L74.6465 183.102C84.1897 183.493 101.011 186.855 105.439 186.034C109.867 185.213 107.528 183.126 105.805 182.185L90.2807 179.461C89.0806 179.25 89.2289 177.483 90.4474 177.476L105.486 177.383C108.712 176.137 105.522 174.279 104.166 174.927L93.112 175.749C91.8745 175.841 91.6102 174.043 92.8219 173.775L104.522 171.188C109.243 167.287 105.145 167.363 102.506 167.889L88.8804 172.365C87.739 172.74 87.3384 171.748 88.4255 171.236C93.4146 168.888 99.0752 166.157 101.259 164.663C104.075 161.202 101.602 161.07 100.013 161.437L82.0438 173.992C81.214 174.572 80.8241 174.143 81.5275 173.415C85.31 169.501 92.3482 162.338 94.0012 159.311C96.2592 155.176 93.549 155.902 91.9117 156.782L72.3736 174.341Z" stroke="#FFDC87" stroke-width="0.3"/>
<rect x="19.4619" y="171.966" width="10.826" height="40.3572" rx="5.41302" transform="rotate(-9.56068 19.4619 171.966)" fill="#041345"/>
<rect x="20.038" y="172.376" width="9.82604" height="39.3572" rx="4.91302" transform="rotate(-9.56068 20.038 172.376)" stroke="white" stroke-opacity="0.04"/>
<rect x="28.9922" y="169.767" width="10.826" height="40.3572" rx="5.41302" transform="rotate(-9.56068 28.9922 169.767)" fill="#041345"/>
<rect x="29.5683" y="170.177" width="9.82604" height="39.3572" rx="4.91302" transform="rotate(-9.56068 29.5683 170.177)" stroke="white" stroke-opacity="0.04"/>
<ellipse cx="74.7898" cy="145.608" rx="4.63973" ry="8.50618" transform="rotate(77.8148 74.7898 145.608)" fill="white" fill-opacity="0.31"/>
</svg>
