<svg width="39" height="39" viewBox="0 0 39 39" fill="none" xmlns="http://www.w3.org/2000/svg">
<circle cx="19.2226" cy="19.2226" r="19.2226" fill="#27AE60" fill-opacity="0.5"/>
<path d="M27.1211 28.4024V26.4024C27.1211 25.3415 26.6997 24.3241 25.9495 23.5739C25.1994 22.8238 24.182 22.4024 23.1211 22.4024H15.1211C14.0602 22.4024 13.0428 22.8238 12.2927 23.5739C11.5425 24.3241 11.1211 25.3415 11.1211 26.4024V28.4024" stroke="#27AE60" stroke-width="2" stroke-linecap="round" stroke-linejoin="round"/>
<path d="M19.1211 18.4024C21.3302 18.4024 23.1211 16.6115 23.1211 14.4024C23.1211 12.1932 21.3302 10.4024 19.1211 10.4024C16.912 10.4024 15.1211 12.1932 15.1211 14.4024C15.1211 16.6115 16.912 18.4024 19.1211 18.4024Z" stroke="#27AE60" stroke-width="2" stroke-linecap="round" stroke-linejoin="round"/>
</svg>
