<svg width="43" height="43" viewBox="0 0 43 43" fill="none" xmlns="http://www.w3.org/2000/svg">
<circle cx="21.5705" cy="21.3" r="21.3" fill="#FFD54F" fill-opacity="0.5"/>
<path d="M24.476 7.74548H14.4069C13.7393 7.74548 13.099 8.0107 12.6269 8.48278C12.1549 8.95486 11.8896 9.59513 11.8896 10.2628V30.4009C11.8896 31.0686 12.1549 31.7088 12.6269 32.1809C13.099 32.653 13.7393 32.9182 14.4069 32.9182H29.5106C30.1782 32.9182 30.8185 32.653 31.2905 32.1809C31.7626 31.7088 32.0278 31.0686 32.0278 30.4009V15.2973L24.476 7.74548Z" stroke="#F3C637" stroke-width="2" stroke-linecap="round" stroke-linejoin="round"/>
<path d="M24.4736 7.74548V15.2973H32.0255" stroke="#F3C637" stroke-width="2" stroke-linecap="round" stroke-linejoin="round"/>
<path d="M26.991 21.5905H16.9219" stroke="#F3C637" stroke-width="2" stroke-linecap="round" stroke-linejoin="round"/>
<path d="M26.991 26.6251H16.9219" stroke="#F3C637" stroke-width="2" stroke-linecap="round" stroke-linejoin="round"/>
<path d="M19.4391 16.5559H18.1805H16.9219" stroke="#F3C637" stroke-width="2" stroke-linecap="round" stroke-linejoin="round"/>
</svg>
