<svg width="98" height="98" viewBox="0 0 98 98" fill="none" xmlns="http://www.w3.org/2000/svg">
<rect width="98" height="98" rx="6" fill="#F2994A"/>
<mask id="mask0" mask-type="alpha" maskUnits="userSpaceOnUse" x="0" y="0" width="98" height="98">
<rect width="98" height="98" rx="6" fill="#F2994A"/>
</mask>
<g mask="url(#mask0)">
<circle cx="83" cy="11" r="57" fill="#F2C94C"/>
<g filter="url(#filter0_d)">
<path d="M49.8878 78.511C46.3351 78.511 43.1231 77.9027 40.2518 76.686C37.4291 75.4693 35.1905 73.7173 33.5358 71.43C31.8811 69.1427 31.0295 66.4417 30.9808 63.327H41.9308C42.0768 65.4197 42.8068 67.0743 44.1208 68.291C45.4835 69.5077 47.3328 70.116 49.6688 70.116C52.0535 70.116 53.9271 69.5563 55.2898 68.437C56.6525 67.269 57.3338 65.7603 57.3338 63.911C57.3338 62.4023 56.8715 61.1613 55.9468 60.188C55.0221 59.2147 53.8541 58.4603 52.4428 57.925C51.0801 57.341 49.1821 56.7083 46.7488 56.027C43.4395 55.0537 40.7385 54.1047 38.6458 53.18C36.6018 52.2067 34.8255 50.771 33.3168 48.873C31.8568 46.9263 31.1268 44.347 31.1268 41.135C31.1268 38.1177 31.8811 35.4897 33.3898 33.251C34.8985 31.0123 37.0155 29.309 39.7408 28.141C42.4661 26.9243 45.5808 26.316 49.0848 26.316C54.3408 26.316 58.5991 27.6057 61.8598 30.185C65.1691 32.7157 66.9941 36.2683 67.3348 40.843H56.0928C55.9955 39.091 55.2411 37.6553 53.8298 36.536C52.4671 35.368 50.6421 34.784 48.3548 34.784C46.3595 34.784 44.7535 35.295 43.5368 36.317C42.3688 37.339 41.7848 38.8233 41.7848 40.77C41.7848 42.1327 42.2228 43.2763 43.0988 44.201C44.0235 45.077 45.1428 45.807 46.4568 46.391C47.8195 46.9263 49.7175 47.559 52.1508 48.289C55.4601 49.2623 58.1611 50.2357 60.2538 51.209C62.3465 52.1823 64.1471 53.6423 65.6558 55.589C67.1645 57.5357 67.9188 60.0907 67.9188 63.254C67.9188 65.9793 67.2131 68.51 65.8018 70.846C64.3905 73.182 62.3221 75.0557 59.5968 76.467C56.8715 77.8297 53.6351 78.511 49.8878 78.511Z" fill="white"/>
</g>
<circle cx="8" cy="93" r="25" fill="#F2C94C"/>
</g>
<defs>
<filter id="filter0_d" x="10.9808" y="10.3159" width="76.938" height="92.195" filterUnits="userSpaceOnUse" color-interpolation-filters="sRGB">
<feFlood flood-opacity="0" result="BackgroundImageFix"/>
<feColorMatrix in="SourceAlpha" type="matrix" values="0 0 0 0 0 0 0 0 0 0 0 0 0 0 0 0 0 0 127 0"/>
<feOffset dy="4"/>
<feGaussianBlur stdDeviation="10"/>
<feColorMatrix type="matrix" values="0 0 0 0 1 0 0 0 0 1 0 0 0 0 1 0 0 0 0.25 0"/>
<feBlend mode="normal" in2="BackgroundImageFix" result="effect1_dropShadow"/>
<feBlend mode="normal" in="SourceGraphic" in2="effect1_dropShadow" result="shape"/>
</filter>
</defs>
</svg>
