<svg width="600" height="323" viewBox="0 0 600 323" fill="none" xmlns="http://www.w3.org/2000/svg">
<path opacity="0.1" d="M582.839 3H14.8052C7.73308 3 2 10.2243 2 19.136V299.809C2 308.721 7.73308 315.945 14.8052 315.945H582.839C589.911 315.945 595.644 308.721 595.644 299.809V19.136C595.644 10.2243 589.911 3 582.839 3Z" stroke="#080809" stroke-width="3"/>
<path d="M292.995 162.604L345.185 252.977C331.146 259.957 315.4 264 298.667 264C240.865 264 194 217.135 194 159.333C194 103.742 237.391 58.3886 292.125 55V159.333C292.125 160.458 292.419 161.584 293.021 162.604H292.995ZM402.993 152.792H305.202V55C357.764 58.2512 399.736 100.21 402.993 152.792ZM318.279 139.708H387.98C380.385 104.959 353.008 77.6015 318.279 70.0001V139.708ZM356.541 246.501C383.028 228.891 400.907 199.519 403 165.875H309.984L356.541 246.501Z" fill="#DFDFDF"/>
</svg>
