<svg width="1116" height="525" viewBox="0 0 1116 525" fill="none" xmlns="http://www.w3.org/2000/svg">
<path d="M712.539 1.71814H253.313C251.104 1.71814 249.313 3.509 249.313 5.71814V63.675C249.313 65.8842 251.104 67.675 253.313 67.675H712.539C714.748 67.675 716.539 65.8842 716.539 63.675V5.71814C716.539 3.509 714.748 1.71814 712.539 1.71814Z" stroke="#C3C3C3" stroke-width="2"/>
<path d="M861.981 89.675H253.313C251.104 89.675 249.313 91.4659 249.313 93.675V151.632C249.313 153.841 251.104 155.632 253.313 155.632H861.981C864.19 155.632 865.981 153.841 865.981 151.632V93.675C865.981 91.4659 864.19 89.675 861.981 89.675Z" stroke="#C3C3C3" stroke-width="2"/>
<path d="M861.981 177.632H253.313C251.104 177.632 249.313 179.423 249.313 181.632V239.589C249.313 241.798 251.104 243.589 253.313 243.589H861.981C864.19 243.589 865.981 241.798 865.981 239.589V181.632C865.981 179.423 864.19 177.632 861.981 177.632Z" stroke="#A8A8A8" stroke-opacity="0.58" stroke-width="2" stroke-dasharray="10 10"/>
<path d="M821.981 208.675H213.313C210.552 208.675 208.313 210.914 208.313 213.675V271.632C208.313 274.393 210.552 276.632 213.313 276.632H821.981C824.742 276.632 826.981 274.393 826.981 271.632V213.675C826.981 210.914 824.742 208.675 821.981 208.675Z" fill="#BBBBBB" fill-opacity="0.33"/>
<path d="M861.981 1.71814H742.539C740.33 1.71814 738.539 3.509 738.539 5.71814V63.675C738.539 65.8842 740.33 67.675 742.539 67.675H861.981C864.19 67.675 865.981 65.8842 865.981 63.675V5.71814C865.981 3.509 864.19 1.71814 861.981 1.71814Z" stroke="#C3C3C3" stroke-width="2"/>
<path d="M525.578 303.782C534.772 304.878 541.131 297.965 544.131 293.678L546.152 289.82C549.642 266.858 548.724 265.94 547.254 259.143C545.111 249.231 540.029 252.101 536.967 254.366C537.702 243.05 529.68 245.855 525.578 248.672C521.022 235.592 516.086 243.222 514.188 248.672C504.048 242.793 503.35 253.938 504.268 260.245H500.043C491.593 257.673 492.695 275.676 493.43 283.575C494.165 291.474 505.554 301.394 525.578 303.782Z" fill="white"/>
<path d="M543.3 250C542.2 250 541.1 250 540 250C540 248.9 538.9 246.7 537.8 245.6C536.7 244.5 535.05 243.4 531.75 243.4C530.65 243.4 529.55 243.4 528.45 243.95C527.9 242.85 527.35 242.3 526.8 241.2C525.7 240.1 524.05 239 520.75 239C516.35 239 514.15 241.75 513.05 244.5C512.5 244.5 511.4 243.95 510.3 243.95C507.55 243.95 505.9 245.05 504.25 246.15C501.5 249.45 501.5 253.85 501.5 254.4V256.6C498.2 256.6 495.45 257.7 493.8 259.35C490.5 263.2 490.5 268.15 490.5 274.75C490.5 275.85 490.5 277.5 490.5 278.6C490.5 286.3 494.35 290.15 498.2 294L499.85 296.2C507 302.8 513.6 305 527.9 305C543.85 305 551 296.2 551 276.95V263.2C551 259.35 549.9 251.65 543.3 250ZM531.75 248.9C533.95 248.9 534.5 251.1 534.5 252.2V256.6C534.5 258.25 535.6 259.35 536.7 259.35C538.35 259.35 539.45 258.8 539.45 257.15C539.45 257.15 539.45 254.95 541.65 255.5C544.95 256.6 545.5 261.55 545.5 262.65V276.95C545.5 295.65 538.35 299.5 527.9 299.5C514.7 299.5 509.75 297.85 504.25 292.35C503.7 291.8 503.15 291.25 502.05 290.15C498.2 286.3 496 284.1 496 278.6C496 277.5 496 276.95 496 275.3C496 269.8 496 265.4 497.65 263.75C498.2 262.65 499.85 262.1 501.5 262.1V266.5L499.85 273.1C499.85 273.65 499.85 273.65 500.4 273.65C500.95 274.2 501.5 273.65 501.5 273.65L507 267.05V266.5V255.5C507 254.95 507 252.2 508.1 251.1C508.65 250.55 509.2 250 510.3 250C511.95 250 512.5 251.1 512.5 252.2V254.4C512.5 255.5 513.6 257.15 515.25 257.15C516.9 257.15 518 255.5 518 254.4V247.25C518 246.7 518 244.5 520.75 244.5C522.4 244.5 523.5 245.6 523.5 247.25V253.85C523.5 255.5 524.6 257.15 526.25 257.15C527.9 257.15 529 255.5 529 254.4V251.65C529 250 530.1 248.9 531.75 248.9Z" fill="#A8A8A8"/>
<path d="M68.2246 402.21C68.2246 409.344 66.758 415.577 63.8246 420.91C60.958 426.177 56.7246 430.277 51.1246 433.21C45.5913 436.144 38.958 437.61 31.2246 437.61H7.62463V367.01H31.2246C38.958 367.01 45.5913 368.477 51.1246 371.41C56.7246 374.277 60.958 378.344 63.8246 383.61C66.758 388.877 68.2246 395.077 68.2246 402.21ZM30.3246 427.31C38.7913 427.31 45.2913 425.11 49.8246 420.71C54.358 416.31 56.6246 410.144 56.6246 402.21C56.6246 394.277 54.358 388.11 49.8246 383.71C45.2913 379.31 38.7913 377.11 30.3246 377.11H19.0246V427.31H30.3246ZM130.895 407.41C130.895 409.277 130.762 410.91 130.495 412.31H88.095C88.295 417.977 89.8616 422.177 92.795 424.91C95.7283 427.644 99.3616 429.01 103.695 429.01C107.495 429.01 110.695 428.044 113.295 426.11C115.962 424.177 117.595 421.61 118.195 418.41H130.395C129.662 422.277 128.128 425.71 125.795 428.71C123.462 431.71 120.428 434.077 116.695 435.81C112.962 437.477 108.795 438.31 104.195 438.31C98.8616 438.31 94.1283 437.177 89.995 434.91C85.9283 432.644 82.7283 429.377 80.395 425.11C78.0616 420.844 76.895 415.81 76.895 410.01C76.895 404.277 78.0616 399.277 80.395 395.01C82.7283 390.744 85.9283 387.477 89.995 385.21C94.1283 382.944 98.8616 381.81 104.195 381.81C109.595 381.81 114.295 382.944 118.295 385.21C122.362 387.41 125.462 390.477 127.595 394.41C129.795 398.277 130.895 402.61 130.895 407.41ZM119.395 407.11C119.528 403.51 118.895 400.51 117.495 398.11C116.162 395.644 114.295 393.844 111.895 392.71C109.562 391.51 106.995 390.91 104.195 390.91C99.7283 390.91 95.995 392.277 92.995 395.01C89.995 397.744 88.3616 401.777 88.095 407.11H119.395ZM160.002 381.81C166.469 381.81 171.635 383.477 175.502 386.81C179.435 390.077 181.835 394.477 182.702 400.01H171.902C171.435 397.01 170.135 394.61 168.002 392.81C165.935 390.944 163.169 390.01 159.702 390.01C156.835 390.01 154.602 390.71 153.002 392.11C151.469 393.444 150.702 395.277 150.702 397.61C150.702 399.344 151.269 400.744 152.402 401.81C153.535 402.877 154.935 403.71 156.602 404.31C158.335 404.91 160.769 405.577 163.902 406.31C168.035 407.244 171.369 408.21 173.902 409.21C176.502 410.21 178.702 411.81 180.502 414.01C182.369 416.144 183.302 419.077 183.302 422.81C183.302 427.41 181.535 431.144 178.002 434.01C174.535 436.877 169.835 438.31 163.902 438.31C157.035 438.31 151.469 436.71 147.202 433.51C143.002 430.31 140.469 425.844 139.602 420.11H150.702C151.035 423.11 152.369 425.544 154.702 427.41C157.035 429.277 160.102 430.21 163.902 430.21C166.635 430.21 168.769 429.51 170.302 428.11C171.902 426.644 172.702 424.81 172.702 422.61C172.702 420.677 172.102 419.144 170.902 418.01C169.702 416.877 168.202 416.01 166.402 415.41C164.602 414.744 162.135 414.077 159.002 413.41C155.002 412.477 151.735 411.544 149.202 410.61C146.735 409.677 144.602 408.177 142.802 406.11C141.069 403.977 140.202 401.11 140.202 397.51C140.202 392.844 141.935 389.077 145.402 386.21C148.935 383.277 153.802 381.81 160.002 381.81ZM193.134 366.51C193.134 364.577 193.801 362.977 195.134 361.71C196.467 360.444 198.234 359.81 200.434 359.81C202.634 359.81 204.401 360.444 205.734 361.71C207.134 362.977 207.834 364.577 207.834 366.51C207.834 368.444 207.134 370.01 205.734 371.21C204.401 372.41 202.634 373.01 200.434 373.01C198.234 373.01 196.467 372.41 195.134 371.21C193.801 370.01 193.134 368.444 193.134 366.51ZM206.134 382.51V437.61H194.734V382.51H206.134ZM242.029 381.81C247.029 381.81 251.296 383.044 254.829 385.51C258.363 387.977 260.863 391.244 262.329 395.31V382.51H273.729V438.21C273.729 443.344 272.663 447.877 270.529 451.81C268.463 455.81 265.463 458.944 261.529 461.21C257.596 463.477 252.929 464.61 247.529 464.61C239.796 464.61 233.529 462.777 228.729 459.11C223.996 455.444 221.029 450.477 219.829 444.21H231.129C232.063 447.477 233.863 450.01 236.529 451.81C239.196 453.677 242.596 454.61 246.729 454.61C251.263 454.61 254.996 453.21 257.929 450.41C260.863 447.61 262.329 443.544 262.329 438.21V424.81C260.863 428.877 258.363 432.144 254.829 434.61C251.296 437.077 247.029 438.31 242.029 438.31C237.229 438.31 232.929 437.177 229.129 434.91C225.396 432.644 222.463 429.377 220.329 425.11C218.196 420.844 217.129 415.81 217.129 410.01C217.129 404.277 218.196 399.277 220.329 395.01C222.463 390.744 225.396 387.477 229.129 385.21C232.929 382.944 237.229 381.81 242.029 381.81ZM245.529 391.81C240.463 391.81 236.396 393.444 233.329 396.71C230.329 399.91 228.829 404.344 228.829 410.01C228.829 415.677 230.329 420.144 233.329 423.41C236.396 426.61 240.463 428.21 245.529 428.21C248.729 428.21 251.596 427.477 254.129 426.01C256.663 424.477 258.663 422.344 260.129 419.61C261.596 416.877 262.329 413.677 262.329 410.01C262.329 406.41 261.596 403.244 260.129 400.51C258.663 397.71 256.663 395.577 254.129 394.11C251.596 392.577 248.729 391.81 245.529 391.81ZM318.21 381.61C324.61 381.61 329.743 383.677 333.61 387.81C337.476 391.944 339.41 397.844 339.41 405.51V437.61H328.01V406.71C328.01 401.777 326.743 397.977 324.21 395.31C321.676 392.577 318.21 391.21 313.81 391.21C309.276 391.21 305.643 392.677 302.91 395.61C300.176 398.477 298.81 402.71 298.81 408.31V437.61H287.41V382.51H298.81V394.61C300.276 390.477 302.743 387.277 306.21 385.01C309.676 382.744 313.676 381.61 318.21 381.61ZM382.679 382.51L399.179 423.01L414.479 382.51H427.179L393.879 463.81H381.179L393.079 436.31L369.879 382.51H382.679ZM459.875 381.81C465.209 381.81 470.009 382.944 474.275 385.21C478.542 387.477 481.875 390.744 484.275 395.01C486.675 399.277 487.875 404.277 487.875 410.01C487.875 415.81 486.675 420.844 484.275 425.11C481.875 429.377 478.542 432.644 474.275 434.91C470.009 437.177 465.209 438.31 459.875 438.31C454.542 438.31 449.742 437.177 445.475 434.91C441.275 432.644 437.942 429.377 435.475 425.11C433.075 420.777 431.875 415.744 431.875 410.01C431.875 404.277 433.075 399.277 435.475 395.01C437.942 390.744 441.275 387.477 445.475 385.21C449.742 382.944 454.542 381.81 459.875 381.81ZM459.875 391.71C456.942 391.71 454.242 392.377 451.775 393.71C449.309 395.044 447.309 397.11 445.775 399.91C444.309 402.644 443.575 406.01 443.575 410.01C443.575 414.077 444.309 417.477 445.775 420.21C447.309 422.944 449.309 424.977 451.775 426.31C454.242 427.644 456.942 428.31 459.875 428.31C462.809 428.31 465.509 427.644 467.975 426.31C470.442 424.977 472.409 422.944 473.875 420.21C475.409 417.477 476.175 414.077 476.175 410.01C476.175 406.01 475.409 402.644 473.875 399.91C472.409 397.11 470.442 395.044 467.975 393.71C465.509 392.377 462.809 391.71 459.875 391.71ZM549.636 382.51V437.61H538.136V425.61C536.736 429.677 534.302 432.844 530.836 435.11C527.369 437.31 523.336 438.41 518.736 438.41C512.336 438.41 507.202 436.344 503.336 432.21C499.469 428.077 497.536 422.177 497.536 414.51V382.51H508.936V413.31C508.936 418.31 510.202 422.177 512.736 424.91C515.269 427.577 518.736 428.91 523.136 428.91C527.669 428.91 531.302 427.444 534.036 424.51C536.769 421.577 538.136 417.31 538.136 411.71V382.51H549.636ZM574.689 393.31C576.555 389.71 579.222 386.877 582.689 384.81C586.155 382.677 590.155 381.61 594.689 381.61V394.01H591.289C586.289 394.01 582.255 395.244 579.189 397.71C576.189 400.11 574.689 404.11 574.689 409.71V437.61H563.289V382.51H574.689V393.31ZM652.368 371.11C647.901 370.91 644.768 371.644 642.968 373.31C641.168 374.91 640.268 377.677 640.268 381.61V382.51H652.368V392.31H640.268V437.61H628.768V392.31H621.268V382.51H628.768V380.71C628.768 373.977 630.734 368.944 634.668 365.61C638.601 362.21 644.501 360.71 652.368 361.11V371.11ZM686.731 381.81C692.064 381.81 696.864 382.944 701.131 385.21C705.398 387.477 708.731 390.744 711.131 395.01C713.531 399.277 714.731 404.277 714.731 410.01C714.731 415.81 713.531 420.844 711.131 425.11C708.731 429.377 705.398 432.644 701.131 434.91C696.864 437.177 692.064 438.31 686.731 438.31C681.398 438.31 676.598 437.177 672.331 434.91C668.131 432.644 664.798 429.377 662.331 425.11C659.931 420.777 658.731 415.744 658.731 410.01C658.731 404.277 659.931 399.277 662.331 395.01C664.798 390.744 668.131 387.477 672.331 385.21C676.598 382.944 681.398 381.81 686.731 381.81ZM686.731 391.71C683.798 391.71 681.098 392.377 678.631 393.71C676.164 395.044 674.164 397.11 672.631 399.91C671.164 402.644 670.431 406.01 670.431 410.01C670.431 414.077 671.164 417.477 672.631 420.21C674.164 422.944 676.164 424.977 678.631 426.31C681.098 427.644 683.798 428.31 686.731 428.31C689.664 428.31 692.364 427.644 694.831 426.31C697.298 424.977 699.264 422.944 700.731 420.21C702.264 417.477 703.031 414.077 703.031 410.01C703.031 406.01 702.264 402.644 700.731 399.91C699.264 397.11 697.298 395.044 694.831 393.71C692.364 392.377 689.664 391.71 686.731 391.71ZM737.091 393.31C738.958 389.71 741.624 386.877 745.091 384.81C748.558 382.677 752.558 381.61 757.091 381.61V394.01H753.691C748.691 394.01 744.658 395.244 741.591 397.71C738.591 400.11 737.091 404.11 737.091 409.71V437.61H725.691V382.51H737.091V393.31ZM834.532 381.61C841.066 381.61 846.266 383.677 850.132 387.81C854.066 391.944 856.032 397.844 856.032 405.51V437.61H844.632V406.71C844.632 401.91 843.432 398.21 841.032 395.61C838.632 392.944 835.332 391.61 831.132 391.61C826.666 391.61 823.099 393.044 820.432 395.91C817.832 398.71 816.532 402.844 816.532 408.31V437.61H805.132V406.71C805.132 401.91 803.932 398.21 801.532 395.61C799.132 392.944 795.832 391.61 791.632 391.61C787.166 391.61 783.599 393.044 780.932 395.91C778.332 398.71 777.032 402.844 777.032 408.31V437.61H765.632V382.51H777.032V394.01C778.432 390.01 780.766 386.944 784.032 384.81C787.299 382.677 791.132 381.61 795.532 381.61C800.132 381.61 804.099 382.744 807.432 385.01C810.832 387.277 813.299 390.544 814.832 394.81C816.432 390.677 818.999 387.444 822.532 385.11C826.066 382.777 830.066 381.61 834.532 381.61ZM923.581 381.61C929.981 381.61 935.114 383.677 938.981 387.81C942.848 391.944 944.781 397.844 944.781 405.51V437.61H933.381V406.71C933.381 401.777 932.114 397.977 929.581 395.31C927.048 392.577 923.581 391.21 919.181 391.21C914.648 391.21 911.014 392.677 908.281 395.61C905.548 398.477 904.181 402.71 904.181 408.31V437.61H892.781V363.61H904.181V394.61C905.648 390.477 908.114 387.277 911.581 385.01C915.048 382.744 919.048 381.61 923.581 381.61ZM1009.31 407.41C1009.31 409.277 1009.18 410.91 1008.91 412.31H966.513C966.713 417.977 968.28 422.177 971.213 424.91C974.146 427.644 977.78 429.01 982.113 429.01C985.913 429.01 989.113 428.044 991.713 426.11C994.38 424.177 996.013 421.61 996.613 418.41H1008.81C1008.08 422.277 1006.55 425.71 1004.21 428.71C1001.88 431.71 998.846 434.077 995.113 435.81C991.38 437.477 987.213 438.31 982.613 438.31C977.28 438.31 972.546 437.177 968.413 434.91C964.346 432.644 961.146 429.377 958.813 425.11C956.48 420.844 955.313 415.81 955.313 410.01C955.313 404.277 956.48 399.277 958.813 395.01C961.146 390.744 964.346 387.477 968.413 385.21C972.546 382.944 977.28 381.81 982.613 381.81C988.013 381.81 992.713 382.944 996.713 385.21C1000.78 387.41 1003.88 390.477 1006.01 394.41C1008.21 398.277 1009.31 402.61 1009.31 407.41ZM997.813 407.11C997.946 403.51 997.313 400.51 995.913 398.11C994.58 395.644 992.713 393.844 990.313 392.71C987.98 391.51 985.413 390.91 982.613 390.91C978.146 390.91 974.413 392.277 971.413 395.01C968.413 397.744 966.78 401.777 966.513 407.11H997.813ZM1031.72 393.31C1033.59 389.71 1036.25 386.877 1039.72 384.81C1043.19 382.677 1047.19 381.61 1051.72 381.61V394.01H1048.32C1043.32 394.01 1039.29 395.244 1036.22 397.71C1033.22 400.11 1031.72 404.11 1031.72 409.71V437.61H1020.32V382.51H1031.72V393.31ZM1111.46 407.41C1111.46 409.277 1111.33 410.91 1111.06 412.31H1068.66C1068.86 417.977 1070.43 422.177 1073.36 424.91C1076.29 427.644 1079.93 429.01 1084.26 429.01C1088.06 429.01 1091.26 428.044 1093.86 426.11C1096.53 424.177 1098.16 421.61 1098.76 418.41H1110.96C1110.23 422.277 1108.69 425.71 1106.36 428.71C1104.03 431.71 1100.99 434.077 1097.26 435.81C1093.53 437.477 1089.36 438.31 1084.76 438.31C1079.43 438.31 1074.69 437.177 1070.56 434.91C1066.49 432.644 1063.29 429.377 1060.96 425.11C1058.63 420.844 1057.46 415.81 1057.46 410.01C1057.46 404.277 1058.63 399.277 1060.96 395.01C1063.29 390.744 1066.49 387.477 1070.56 385.21C1074.69 382.944 1079.43 381.81 1084.76 381.81C1090.16 381.81 1094.86 382.944 1098.86 385.21C1102.93 387.41 1106.03 390.477 1108.16 394.41C1110.36 398.277 1111.46 402.61 1111.46 407.41ZM1099.96 407.11C1100.09 403.51 1099.46 400.51 1098.06 398.11C1096.73 395.644 1094.86 393.844 1092.46 392.71C1090.13 391.51 1087.56 390.91 1084.76 390.91C1080.29 390.91 1076.56 392.277 1073.56 395.01C1070.56 397.744 1068.93 401.777 1068.66 407.11H1099.96ZM75.2589 489.725C75.2589 494.735 73.8189 498.635 70.9389 501.425C68.0589 504.215 63.9189 505.61 58.5189 505.61H49.6089V473.885H58.5189C63.9189 473.885 68.0589 475.28 70.9389 478.07C73.8189 480.86 75.2589 484.745 75.2589 489.725ZM58.4289 503.765C63.2889 503.765 66.9639 502.535 69.4539 500.075C71.9439 497.615 73.1889 494.165 73.1889 489.725C73.1889 485.285 71.9289 481.835 69.4089 479.375C66.9189 476.915 63.2589 475.685 58.4289 475.685H51.6339V503.765H58.4289ZM83.4503 486.575C84.0803 484.655 85.1903 483.2 86.7803 482.21C88.3703 481.19 90.3953 480.68 92.8553 480.68V482.885H92.1803C89.7203 482.885 87.6503 483.575 85.9703 484.955C84.2903 486.335 83.4503 488.57 83.4503 491.66V505.61H81.4253V481.175H83.4503V486.575ZM107.819 480.86C110.489 480.86 112.739 481.565 114.569 482.975C116.399 484.355 117.644 486.185 118.304 488.465V481.175H120.329V505.61H118.304V498.32C117.644 500.6 116.399 502.445 114.569 503.855C112.739 505.235 110.489 505.925 107.819 505.925C105.539 505.925 103.514 505.43 101.744 504.44C100.004 503.42 98.6385 501.965 97.6485 500.075C96.6585 498.155 96.1635 495.92 96.1635 493.37C96.1635 490.82 96.6585 488.6 97.6485 486.71C98.6385 484.82 100.004 483.38 101.744 482.39C103.514 481.37 105.539 480.86 107.819 480.86ZM108.269 482.66C105.209 482.66 102.764 483.62 100.934 485.54C99.1335 487.46 98.2335 490.07 98.2335 493.37C98.2335 496.7 99.1335 499.325 100.934 501.245C102.734 503.165 105.179 504.125 108.269 504.125C110.189 504.125 111.914 503.69 113.444 502.82C114.974 501.92 116.159 500.66 116.999 499.04C117.869 497.39 118.304 495.5 118.304 493.37C118.304 491.24 117.869 489.365 116.999 487.745C116.159 486.125 114.974 484.88 113.444 484.01C111.914 483.11 110.189 482.66 108.269 482.66ZM138.053 480.86C140.723 480.86 142.973 481.565 144.803 482.975C146.633 484.355 147.878 486.185 148.538 488.465V481.175H150.563V506.33C150.563 508.58 150.068 510.56 149.078 512.27C148.118 513.98 146.783 515.285 145.073 516.185C143.393 517.115 141.533 517.58 139.493 517.58C136.433 517.58 133.898 516.83 131.888 515.33C129.908 513.86 128.588 511.85 127.928 509.3H129.908C130.508 511.28 131.618 512.855 133.238 514.025C134.858 515.195 136.913 515.78 139.403 515.78C141.113 515.78 142.658 515.39 144.038 514.61C145.448 513.86 146.543 512.765 147.323 511.325C148.133 509.915 148.538 508.25 148.538 506.33V498.32C147.878 500.6 146.633 502.445 144.803 503.855C142.973 505.235 140.723 505.925 138.053 505.925C135.773 505.925 133.748 505.43 131.978 504.44C130.238 503.42 128.873 501.965 127.883 500.075C126.893 498.155 126.398 495.92 126.398 493.37C126.398 490.82 126.893 488.6 127.883 486.71C128.873 484.82 130.238 483.38 131.978 482.39C133.748 481.37 135.773 480.86 138.053 480.86ZM138.503 482.66C135.443 482.66 132.998 483.62 131.168 485.54C129.368 487.46 128.468 490.07 128.468 493.37C128.468 496.7 129.368 499.325 131.168 501.245C132.968 503.165 135.413 504.125 138.503 504.125C140.423 504.125 142.148 503.69 143.678 502.82C145.208 501.92 146.393 500.66 147.233 499.04C148.103 497.39 148.538 495.5 148.538 493.37C148.538 491.24 148.103 489.365 147.233 487.745C146.393 486.125 145.208 484.88 143.678 484.01C142.148 483.11 140.423 482.66 138.503 482.66ZM169.475 473.795C169.475 473.315 169.625 472.925 169.925 472.625C170.255 472.295 170.675 472.13 171.185 472.13C171.695 472.13 172.115 472.295 172.445 472.625C172.775 472.925 172.94 473.315 172.94 473.795C172.94 474.305 172.775 474.725 172.445 475.055C172.115 475.355 171.695 475.505 171.185 475.505C170.675 475.505 170.255 475.355 169.925 475.055C169.625 474.725 169.475 474.305 169.475 473.795ZM172.22 481.175V505.61H170.195V481.175H172.22ZM182.616 483.02V498.725C182.616 500.675 182.961 502.01 183.651 502.73C184.341 503.42 185.556 503.765 187.296 503.765H189.861V505.61H187.071C184.821 505.61 183.171 505.085 182.121 504.035C181.101 502.985 180.591 501.215 180.591 498.725V483.02H176.721V481.175H180.591V474.965H182.616V481.175H189.861V483.02H182.616ZM205.864 504.215C208.324 504.215 210.394 503.6 212.074 502.37C213.754 501.11 214.774 499.4 215.134 497.24H217.249C216.799 499.85 215.569 501.95 213.559 503.54C211.579 505.13 209.044 505.925 205.954 505.925C203.644 505.925 201.589 505.43 199.789 504.44C198.019 503.42 196.624 501.965 195.604 500.075C194.584 498.185 194.074 495.95 194.074 493.37C194.074 490.82 194.584 488.6 195.604 486.71C196.624 484.82 198.019 483.38 199.789 482.39C201.589 481.37 203.644 480.86 205.954 480.86C208.324 480.86 210.364 481.37 212.074 482.39C213.814 483.38 215.119 484.7 215.989 486.35C216.889 487.97 217.339 489.71 217.339 491.57C217.339 492.32 217.264 493.115 217.114 493.955H196.099C196.129 496.235 196.594 498.155 197.494 499.715C198.424 501.245 199.609 502.385 201.049 503.135C202.519 503.855 204.124 504.215 205.864 504.215ZM205.954 482.525C204.184 482.525 202.564 482.9 201.094 483.65C199.624 484.4 198.424 485.54 197.494 487.07C196.594 488.6 196.129 490.49 196.099 492.74H215.359C215.479 490.49 215.104 488.6 214.234 487.07C213.364 485.51 212.194 484.37 210.724 483.65C209.254 482.9 207.664 482.525 205.954 482.525ZM252.617 480.68C255.377 480.68 257.612 481.58 259.322 483.38C261.062 485.18 261.932 487.835 261.932 491.345V505.61H259.952V491.435C259.952 488.525 259.262 486.305 257.882 484.775C256.502 483.245 254.612 482.48 252.212 482.48C249.632 482.48 247.562 483.335 246.002 485.045C244.472 486.755 243.707 489.275 243.707 492.605V505.61H241.727V491.435C241.727 488.525 241.022 486.305 239.612 484.775C238.232 483.245 236.342 482.48 233.942 482.48C231.392 482.48 229.337 483.335 227.777 485.045C226.247 486.755 225.482 489.275 225.482 492.605V505.61H223.457V481.175H225.482V487.52C226.052 485.27 227.147 483.575 228.767 482.435C230.417 481.265 232.307 480.68 234.437 480.68C236.657 480.68 238.562 481.295 240.152 482.525C241.772 483.725 242.837 485.525 243.347 487.925C243.917 485.525 245.042 483.725 246.722 482.525C248.432 481.295 250.397 480.68 252.617 480.68ZM275.914 480.86C278.464 480.86 280.519 481.55 282.079 482.93C283.639 484.28 284.569 486.14 284.869 488.51H282.934C282.754 486.77 282.049 485.33 280.819 484.19C279.619 483.02 277.984 482.435 275.914 482.435C274.084 482.435 272.644 482.885 271.594 483.785C270.574 484.685 270.064 485.885 270.064 487.385C270.064 488.495 270.364 489.38 270.964 490.04C271.594 490.7 272.344 491.195 273.214 491.525C274.114 491.825 275.359 492.17 276.949 492.56C278.719 492.95 280.144 493.355 281.224 493.775C282.304 494.195 283.219 494.855 283.969 495.755C284.719 496.655 285.094 497.885 285.094 499.445C285.094 501.365 284.404 502.925 283.024 504.125C281.644 505.325 279.829 505.925 277.579 505.925C274.879 505.925 272.659 505.25 270.919 503.9C269.209 502.52 268.189 500.645 267.859 498.275H269.884C270.064 500.015 270.814 501.47 272.134 502.64C273.484 503.78 275.314 504.35 277.624 504.35C279.364 504.35 280.714 503.9 281.674 503C282.664 502.07 283.159 500.87 283.159 499.4C283.159 498.23 282.844 497.3 282.214 496.61C281.584 495.89 280.789 495.365 279.829 495.035C278.899 494.705 277.654 494.36 276.094 494C274.324 493.58 272.914 493.175 271.864 492.785C270.844 492.365 269.959 491.735 269.209 490.895C268.489 490.025 268.129 488.855 268.129 487.385C268.129 485.405 268.834 483.83 270.244 482.66C271.654 481.46 273.544 480.86 275.914 480.86ZM313.287 473.84C310.827 473.84 309.117 474.305 308.157 475.235C307.197 476.165 306.717 477.695 306.717 479.825V481.175H313.287V483.02H306.717V505.61H304.647V483.02H300.867V481.175H304.647V479.69C304.647 477.08 305.322 475.145 306.672 473.885C308.052 472.595 310.257 471.965 313.287 471.995V473.84ZM320.359 486.575C320.989 484.655 322.099 483.2 323.689 482.21C325.279 481.19 327.304 480.68 329.764 480.68V482.885H329.089C326.629 482.885 324.559 483.575 322.879 484.955C321.199 486.335 320.359 488.57 320.359 491.66V505.61H318.334V481.175H320.359V486.575ZM345.133 480.86C347.443 480.86 349.513 481.37 351.343 482.39C353.173 483.38 354.598 484.82 355.618 486.71C356.668 488.6 357.193 490.82 357.193 493.37C357.193 495.95 356.668 498.185 355.618 500.075C354.598 501.965 353.173 503.42 351.343 504.44C349.513 505.43 347.443 505.925 345.133 505.925C342.853 505.925 340.798 505.43 338.968 504.44C337.138 503.42 335.698 501.965 334.648 500.075C333.598 498.155 333.073 495.92 333.073 493.37C333.073 490.82 333.598 488.6 334.648 486.71C335.698 484.82 337.138 483.38 338.968 482.39C340.798 481.37 342.853 480.86 345.133 480.86ZM345.133 482.66C343.363 482.66 341.713 483.05 340.183 483.83C338.683 484.61 337.468 485.81 336.538 487.43C335.608 489.02 335.143 491 335.143 493.37C335.143 495.74 335.608 497.735 336.538 499.355C337.468 500.975 338.683 502.175 340.183 502.955C341.713 503.735 343.363 504.125 345.133 504.125C346.903 504.125 348.538 503.735 350.038 502.955C351.568 502.175 352.798 500.975 353.728 499.355C354.658 497.735 355.123 495.74 355.123 493.37C355.123 491 354.658 489.02 353.728 487.43C352.828 485.81 351.613 484.61 350.083 483.83C348.583 483.05 346.933 482.66 345.133 482.66ZM392.494 480.68C395.254 480.68 397.489 481.58 399.199 483.38C400.939 485.18 401.809 487.835 401.809 491.345V505.61H399.829V491.435C399.829 488.525 399.139 486.305 397.759 484.775C396.379 483.245 394.489 482.48 392.089 482.48C389.509 482.48 387.439 483.335 385.879 485.045C384.349 486.755 383.584 489.275 383.584 492.605V505.61H381.604V491.435C381.604 488.525 380.899 486.305 379.489 484.775C378.109 483.245 376.219 482.48 373.819 482.48C371.269 482.48 369.214 483.335 367.654 485.045C366.124 486.755 365.359 489.275 365.359 492.605V505.61H363.334V481.175H365.359V487.52C365.929 485.27 367.024 483.575 368.644 482.435C370.294 481.265 372.184 480.68 374.314 480.68C376.534 480.68 378.439 481.295 380.029 482.525C381.649 483.725 382.714 485.525 383.224 487.925C383.794 485.525 384.919 483.725 386.599 482.525C388.309 481.295 390.274 480.68 392.494 480.68ZM424.359 483.02V498.725C424.359 500.675 424.704 502.01 425.394 502.73C426.084 503.42 427.299 503.765 429.039 503.765H431.604V505.61H428.814C426.564 505.61 424.914 505.085 423.864 504.035C422.844 502.985 422.334 501.215 422.334 498.725V483.02H418.464V481.175H422.334V474.965H424.359V481.175H431.604V483.02H424.359ZM448.327 480.68C451.207 480.68 453.547 481.58 455.347 483.38C457.147 485.18 458.047 487.835 458.047 491.345V505.61H456.022V491.435C456.022 488.495 455.287 486.26 453.817 484.73C452.347 483.17 450.337 482.39 447.787 482.39C445.147 482.39 443.017 483.26 441.397 485C439.807 486.71 439.012 489.245 439.012 492.605V505.61H436.987V472.31H439.012V487.61C439.612 485.33 440.752 483.605 442.432 482.435C444.142 481.265 446.107 480.68 448.327 480.68ZM475.688 504.215C478.148 504.215 480.218 503.6 481.898 502.37C483.578 501.11 484.598 499.4 484.958 497.24H487.073C486.623 499.85 485.393 501.95 483.383 503.54C481.403 505.13 478.868 505.925 475.778 505.925C473.468 505.925 471.413 505.43 469.613 504.44C467.843 503.42 466.448 501.965 465.428 500.075C464.408 498.185 463.898 495.95 463.898 493.37C463.898 490.82 464.408 488.6 465.428 486.71C466.448 484.82 467.843 483.38 469.613 482.39C471.413 481.37 473.468 480.86 475.778 480.86C478.148 480.86 480.188 481.37 481.898 482.39C483.638 483.38 484.943 484.7 485.813 486.35C486.713 487.97 487.163 489.71 487.163 491.57C487.163 492.32 487.088 493.115 486.938 493.955H465.923C465.953 496.235 466.418 498.155 467.318 499.715C468.248 501.245 469.433 502.385 470.873 503.135C472.343 503.855 473.948 504.215 475.688 504.215ZM475.778 482.525C474.008 482.525 472.388 482.9 470.918 483.65C469.448 484.4 468.248 485.54 467.318 487.07C466.418 488.6 465.953 490.49 465.923 492.74H485.183C485.303 490.49 484.928 488.6 484.058 487.07C483.188 485.51 482.018 484.37 480.548 483.65C479.078 482.9 477.488 482.525 475.778 482.525ZM518.138 480.86C520.418 480.86 522.428 481.37 524.168 482.39C525.938 483.38 527.318 484.82 528.308 486.71C529.298 488.6 529.793 490.82 529.793 493.37C529.793 495.92 529.298 498.155 528.308 500.075C527.318 501.965 525.938 503.42 524.168 504.44C522.428 505.43 520.418 505.925 518.138 505.925C515.498 505.925 513.248 505.235 511.388 503.855C509.558 502.445 508.313 500.6 507.653 498.32V517.13H505.673V481.175H507.653V488.465C508.313 486.185 509.558 484.355 511.388 482.975C513.248 481.565 515.498 480.86 518.138 480.86ZM517.733 482.66C515.813 482.66 514.088 483.11 512.558 484.01C511.028 484.88 509.828 486.125 508.958 487.745C508.088 489.365 507.653 491.24 507.653 493.37C507.653 495.5 508.088 497.39 508.958 499.04C509.828 500.66 511.028 501.92 512.558 502.82C514.088 503.69 515.813 504.125 517.733 504.125C520.793 504.125 523.223 503.165 525.023 501.245C526.853 499.325 527.768 496.7 527.768 493.37C527.768 490.07 526.853 487.46 525.023 485.54C523.223 483.62 520.793 482.66 517.733 482.66ZM546.393 480.86C549.063 480.86 551.313 481.565 553.143 482.975C554.973 484.355 556.218 486.185 556.878 488.465V481.175H558.903V505.61H556.878V498.32C556.218 500.6 554.973 502.445 553.143 503.855C551.313 505.235 549.063 505.925 546.393 505.925C544.113 505.925 542.088 505.43 540.318 504.44C538.578 503.42 537.213 501.965 536.223 500.075C535.233 498.155 534.738 495.92 534.738 493.37C534.738 490.82 535.233 488.6 536.223 486.71C537.213 484.82 538.578 483.38 540.318 482.39C542.088 481.37 544.113 480.86 546.393 480.86ZM546.843 482.66C543.783 482.66 541.338 483.62 539.508 485.54C537.708 487.46 536.808 490.07 536.808 493.37C536.808 496.7 537.708 499.325 539.508 501.245C541.308 503.165 543.753 504.125 546.843 504.125C548.763 504.125 550.488 503.69 552.018 502.82C553.548 501.92 554.733 500.66 555.573 499.04C556.443 497.39 556.878 495.5 556.878 493.37C556.878 491.24 556.443 489.365 555.573 487.745C554.733 486.125 553.548 484.88 552.018 484.01C550.488 483.11 548.763 482.66 546.843 482.66ZM577.482 480.68C580.362 480.68 582.702 481.58 584.502 483.38C586.302 485.18 587.202 487.835 587.202 491.345V505.61H585.177V491.435C585.177 488.495 584.442 486.26 582.972 484.73C581.502 483.17 579.492 482.39 576.942 482.39C574.302 482.39 572.172 483.26 570.552 485C568.962 486.71 568.167 489.245 568.167 492.605V505.61H566.142V481.175H568.167V487.61C568.767 485.33 569.907 483.605 571.587 482.435C573.297 481.265 575.262 480.68 577.482 480.68ZM604.843 504.215C607.303 504.215 609.373 503.6 611.053 502.37C612.733 501.11 613.753 499.4 614.113 497.24H616.228C615.778 499.85 614.548 501.95 612.538 503.54C610.558 505.13 608.023 505.925 604.933 505.925C602.623 505.925 600.568 505.43 598.768 504.44C596.998 503.42 595.603 501.965 594.583 500.075C593.563 498.185 593.053 495.95 593.053 493.37C593.053 490.82 593.563 488.6 594.583 486.71C595.603 484.82 596.998 483.38 598.768 482.39C600.568 481.37 602.623 480.86 604.933 480.86C607.303 480.86 609.343 481.37 611.053 482.39C612.793 483.38 614.098 484.7 614.968 486.35C615.868 487.97 616.318 489.71 616.318 491.57C616.318 492.32 616.243 493.115 616.093 493.955H595.078C595.108 496.235 595.573 498.155 596.473 499.715C597.403 501.245 598.588 502.385 600.028 503.135C601.498 503.855 603.103 504.215 604.843 504.215ZM604.933 482.525C603.163 482.525 601.543 482.9 600.073 483.65C598.603 484.4 597.403 485.54 596.473 487.07C595.573 488.6 595.108 490.49 595.078 492.74H614.338C614.458 490.49 614.083 488.6 613.213 487.07C612.343 485.51 611.173 484.37 609.703 483.65C608.233 482.9 606.643 482.525 604.933 482.525ZM624.461 472.31V505.61H622.436V472.31H624.461ZM647.25 483.02V498.725C647.25 500.675 647.595 502.01 648.285 502.73C648.975 503.42 650.19 503.765 651.93 503.765H654.495V505.61H651.705C649.455 505.61 647.805 505.085 646.755 504.035C645.735 502.985 645.225 501.215 645.225 498.725V483.02H641.355V481.175H645.225V474.965H647.25V481.175H654.495V483.02H647.25ZM670.767 480.86C673.077 480.86 675.147 481.37 676.977 482.39C678.807 483.38 680.232 484.82 681.252 486.71C682.302 488.6 682.827 490.82 682.827 493.37C682.827 495.95 682.302 498.185 681.252 500.075C680.232 501.965 678.807 503.42 676.977 504.44C675.147 505.43 673.077 505.925 670.767 505.925C668.487 505.925 666.432 505.43 664.602 504.44C662.772 503.42 661.332 501.965 660.282 500.075C659.232 498.155 658.707 495.92 658.707 493.37C658.707 490.82 659.232 488.6 660.282 486.71C661.332 484.82 662.772 483.38 664.602 482.39C666.432 481.37 668.487 480.86 670.767 480.86ZM670.767 482.66C668.997 482.66 667.347 483.05 665.817 483.83C664.317 484.61 663.102 485.81 662.172 487.43C661.242 489.02 660.777 491 660.777 493.37C660.777 495.74 661.242 497.735 662.172 499.355C663.102 500.975 664.317 502.175 665.817 502.955C667.347 503.735 668.997 504.125 670.767 504.125C672.537 504.125 674.172 503.735 675.672 502.955C677.202 502.175 678.432 500.975 679.362 499.355C680.292 497.735 680.757 495.74 680.757 493.37C680.757 491 680.292 489.02 679.362 487.43C678.462 485.81 677.247 484.61 675.717 483.83C674.217 483.05 672.567 482.66 670.767 482.66ZM712.072 480.86C715.162 480.86 717.712 481.67 719.722 483.29C721.732 484.88 722.962 486.995 723.412 489.635H721.297C720.937 487.475 719.917 485.765 718.237 484.505C716.557 483.245 714.487 482.615 712.027 482.615C710.257 482.615 708.637 483.005 707.167 483.785C705.697 484.565 704.512 485.765 703.612 487.385C702.712 489.005 702.262 491 702.262 493.37C702.262 495.74 702.712 497.735 703.612 499.355C704.512 500.975 705.697 502.175 707.167 502.955C708.637 503.735 710.257 504.125 712.027 504.125C714.487 504.125 716.557 503.495 718.237 502.235C719.917 500.975 720.937 499.265 721.297 497.105H723.412C722.962 499.775 721.732 501.92 719.722 503.54C717.712 505.13 715.162 505.925 712.072 505.925C709.762 505.925 707.707 505.43 705.907 504.44C704.137 503.42 702.742 501.965 701.722 500.075C700.702 498.185 700.192 495.95 700.192 493.37C700.192 490.82 700.702 488.6 701.722 486.71C702.742 484.82 704.137 483.38 705.907 482.39C707.707 481.37 709.762 480.86 712.072 480.86ZM731.556 486.575C732.186 484.655 733.296 483.2 734.886 482.21C736.476 481.19 738.501 480.68 740.961 480.68V482.885H740.286C737.826 482.885 735.756 483.575 734.076 484.955C732.396 486.335 731.556 488.57 731.556 491.66V505.61H729.531V481.175H731.556V486.575ZM756.059 504.215C758.519 504.215 760.589 503.6 762.269 502.37C763.949 501.11 764.969 499.4 765.329 497.24H767.444C766.994 499.85 765.764 501.95 763.754 503.54C761.774 505.13 759.239 505.925 756.149 505.925C753.839 505.925 751.784 505.43 749.984 504.44C748.214 503.42 746.819 501.965 745.799 500.075C744.779 498.185 744.269 495.95 744.269 493.37C744.269 490.82 744.779 488.6 745.799 486.71C746.819 484.82 748.214 483.38 749.984 482.39C751.784 481.37 753.839 480.86 756.149 480.86C758.519 480.86 760.559 481.37 762.269 482.39C764.009 483.38 765.314 484.7 766.184 486.35C767.084 487.97 767.534 489.71 767.534 491.57C767.534 492.32 767.459 493.115 767.309 493.955H746.294C746.324 496.235 746.789 498.155 747.689 499.715C748.619 501.245 749.804 502.385 751.244 503.135C752.714 503.855 754.319 504.215 756.059 504.215ZM756.149 482.525C754.379 482.525 752.759 482.9 751.289 483.65C749.819 484.4 748.619 485.54 747.689 487.07C746.789 488.6 746.324 490.49 746.294 492.74H765.554C765.674 490.49 765.299 488.6 764.429 487.07C763.559 485.51 762.389 484.37 760.919 483.65C759.449 482.9 757.859 482.525 756.149 482.525ZM784.137 480.86C786.807 480.86 789.057 481.565 790.887 482.975C792.717 484.355 793.962 486.185 794.622 488.465V481.175H796.647V505.61H794.622V498.32C793.962 500.6 792.717 502.445 790.887 503.855C789.057 505.235 786.807 505.925 784.137 505.925C781.857 505.925 779.832 505.43 778.062 504.44C776.322 503.42 774.957 501.965 773.967 500.075C772.977 498.155 772.482 495.92 772.482 493.37C772.482 490.82 772.977 488.6 773.967 486.71C774.957 484.82 776.322 483.38 778.062 482.39C779.832 481.37 781.857 480.86 784.137 480.86ZM784.587 482.66C781.527 482.66 779.082 483.62 777.252 485.54C775.452 487.46 774.552 490.07 774.552 493.37C774.552 496.7 775.452 499.325 777.252 501.245C779.052 503.165 781.497 504.125 784.587 504.125C786.507 504.125 788.232 503.69 789.762 502.82C791.292 501.92 792.477 500.66 793.317 499.04C794.187 497.39 794.622 495.5 794.622 493.37C794.622 491.24 794.187 489.365 793.317 487.745C792.477 486.125 791.292 484.88 789.762 484.01C788.232 483.11 786.507 482.66 784.587 482.66ZM806.991 483.02V498.725C806.991 500.675 807.336 502.01 808.026 502.73C808.716 503.42 809.931 503.765 811.671 503.765H814.236V505.61H811.446C809.196 505.61 807.546 505.085 806.496 504.035C805.476 502.985 804.966 501.215 804.966 498.725V483.02H801.096V481.175H804.966V474.965H806.991V481.175H814.236V483.02H806.991ZM830.239 504.215C832.699 504.215 834.769 503.6 836.449 502.37C838.129 501.11 839.149 499.4 839.509 497.24H841.624C841.174 499.85 839.944 501.95 837.934 503.54C835.954 505.13 833.419 505.925 830.329 505.925C828.019 505.925 825.964 505.43 824.164 504.44C822.394 503.42 820.999 501.965 819.979 500.075C818.959 498.185 818.449 495.95 818.449 493.37C818.449 490.82 818.959 488.6 819.979 486.71C820.999 484.82 822.394 483.38 824.164 482.39C825.964 481.37 828.019 480.86 830.329 480.86C832.699 480.86 834.739 481.37 836.449 482.39C838.189 483.38 839.494 484.7 840.364 486.35C841.264 487.97 841.714 489.71 841.714 491.57C841.714 492.32 841.639 493.115 841.489 493.955H820.474C820.504 496.235 820.969 498.155 821.869 499.715C822.799 501.245 823.984 502.385 825.424 503.135C826.894 503.855 828.499 504.215 830.239 504.215ZM830.329 482.525C828.559 482.525 826.939 482.9 825.469 483.65C823.999 484.4 822.799 485.54 821.869 487.07C820.969 488.6 820.504 490.49 820.474 492.74H839.734C839.854 490.49 839.479 488.6 838.609 487.07C837.739 485.51 836.569 484.37 835.099 483.65C833.629 482.9 832.039 482.525 830.329 482.525ZM859.549 481.175L868.729 502.91L877.234 481.175H879.484L865.309 517.13H862.969L867.649 505.475L857.299 481.175H859.549ZM894.757 480.86C897.067 480.86 899.137 481.37 900.967 482.39C902.797 483.38 904.222 484.82 905.242 486.71C906.292 488.6 906.817 490.82 906.817 493.37C906.817 495.95 906.292 498.185 905.242 500.075C904.222 501.965 902.797 503.42 900.967 504.44C899.137 505.43 897.067 505.925 894.757 505.925C892.477 505.925 890.422 505.43 888.592 504.44C886.762 503.42 885.322 501.965 884.272 500.075C883.222 498.155 882.697 495.92 882.697 493.37C882.697 490.82 883.222 488.6 884.272 486.71C885.322 484.82 886.762 483.38 888.592 482.39C890.422 481.37 892.477 480.86 894.757 480.86ZM894.757 482.66C892.987 482.66 891.337 483.05 889.807 483.83C888.307 484.61 887.092 485.81 886.162 487.43C885.232 489.02 884.767 491 884.767 493.37C884.767 495.74 885.232 497.735 886.162 499.355C887.092 500.975 888.307 502.175 889.807 502.955C891.337 503.735 892.987 504.125 894.757 504.125C896.527 504.125 898.162 503.735 899.662 502.955C901.192 502.175 902.422 500.975 903.352 499.355C904.282 497.735 904.747 495.74 904.747 493.37C904.747 491 904.282 489.02 903.352 487.43C902.452 485.81 901.237 484.61 899.707 483.83C898.207 483.05 896.557 482.66 894.757 482.66ZM933.209 481.175V505.61H931.139V499.22C930.539 501.47 929.384 503.18 927.674 504.35C925.994 505.52 924.044 506.105 921.824 506.105C918.974 506.105 916.649 505.205 914.849 503.405C913.049 501.605 912.149 498.935 912.149 495.395V481.175H914.129V495.35C914.129 498.26 914.864 500.495 916.334 502.055C917.804 503.585 919.814 504.35 922.364 504.35C925.034 504.35 927.164 503.495 928.754 501.785C930.344 500.045 931.139 497.495 931.139 494.135V481.175H933.209ZM942.493 486.575C943.123 484.655 944.233 483.2 945.823 482.21C947.413 481.19 949.438 480.68 951.898 480.68V482.885H951.223C948.763 482.885 946.693 483.575 945.013 484.955C943.333 486.335 942.493 488.57 942.493 491.66V505.61H940.468V481.175H942.493V486.575ZM978.399 473.84C975.939 473.84 974.229 474.305 973.269 475.235C972.309 476.165 971.829 477.695 971.829 479.825V481.175H978.399V483.02H971.829V505.61H969.759V483.02H965.979V481.175H969.759V479.69C969.759 477.08 970.434 475.145 971.784 473.885C973.164 472.595 975.369 471.965 978.399 471.995V473.84ZM994.337 480.86C996.647 480.86 998.717 481.37 1000.55 482.39C1002.38 483.38 1003.8 484.82 1004.82 486.71C1005.87 488.6 1006.4 490.82 1006.4 493.37C1006.4 495.95 1005.87 498.185 1004.82 500.075C1003.8 501.965 1002.38 503.42 1000.55 504.44C998.717 505.43 996.647 505.925 994.337 505.925C992.057 505.925 990.002 505.43 988.172 504.44C986.342 503.42 984.902 501.965 983.852 500.075C982.802 498.155 982.277 495.92 982.277 493.37C982.277 490.82 982.802 488.6 983.852 486.71C984.902 484.82 986.342 483.38 988.172 482.39C990.002 481.37 992.057 480.86 994.337 480.86ZM994.337 482.66C992.567 482.66 990.917 483.05 989.387 483.83C987.887 484.61 986.672 485.81 985.742 487.43C984.812 489.02 984.347 491 984.347 493.37C984.347 495.74 984.812 497.735 985.742 499.355C986.672 500.975 987.887 502.175 989.387 502.955C990.917 503.735 992.567 504.125 994.337 504.125C996.107 504.125 997.742 503.735 999.242 502.955C1000.77 502.175 1002 500.975 1002.93 499.355C1003.86 497.735 1004.33 495.74 1004.33 493.37C1004.33 491 1003.86 489.02 1002.93 487.43C1002.03 485.81 1000.82 484.61 999.287 483.83C997.787 483.05 996.137 482.66 994.337 482.66ZM1014.56 486.575C1015.19 484.655 1016.3 483.2 1017.89 482.21C1019.48 481.19 1021.51 480.68 1023.97 480.68V482.885H1023.29C1020.83 482.885 1018.76 483.575 1017.08 484.955C1015.4 486.335 1014.56 488.57 1014.56 491.66V505.61H1012.54V481.175H1014.56V486.575ZM1057.61 480.68C1060.37 480.68 1062.6 481.58 1064.31 483.38C1066.05 485.18 1066.92 487.835 1066.92 491.345V505.61H1064.94V491.435C1064.94 488.525 1064.25 486.305 1062.87 484.775C1061.49 483.245 1059.6 482.48 1057.2 482.48C1054.62 482.48 1052.55 483.335 1050.99 485.045C1049.46 486.755 1048.7 489.275 1048.7 492.605V505.61H1046.72V491.435C1046.72 488.525 1046.01 486.305 1044.6 484.775C1043.22 483.245 1041.33 482.48 1038.93 482.48C1036.38 482.48 1034.33 483.335 1032.77 485.045C1031.24 486.755 1030.47 489.275 1030.47 492.605V505.61H1028.45V481.175H1030.47V487.52C1031.04 485.27 1032.14 483.575 1033.76 482.435C1035.41 481.265 1037.3 480.68 1039.43 480.68C1041.65 480.68 1043.55 481.295 1045.14 482.525C1046.76 483.725 1047.83 485.525 1048.34 487.925C1048.91 485.525 1050.03 483.725 1051.71 482.525C1053.42 481.295 1055.39 480.68 1057.61 480.68Z" fill="#A8A8A8"/>
</svg>
