<?xml version="1.0" encoding="utf-8"?>
<!-- Generator: Adobe Illustrator 22.0.1, SVG Export Plug-In . SVG Version: 6.00 Build 0)  -->
<svg version="1.1" id="Layer_1" xmlns="http://www.w3.org/2000/svg" xmlns:xlink="http://www.w3.org/1999/xlink" x="0px" y="0px"
	 viewBox="0 0 906 597" style="enable-background:new 0 0 906 597;" xml:space="preserve">
<style type="text/css">
	.st0{fill:#7873D7;fill-opacity:0.79;}
	.st1{fill:#333435;}
	.st2{fill:none;stroke:#0F287A;stroke-linecap:round;}
	.st3{fill:none;stroke:#333435;stroke-linecap:round;}
	.st4{fill:none;stroke:#0F287A;stroke-width:0.5;stroke-linecap:round;}
	.st5{fill:none;stroke:#333435;stroke-width:0.5;stroke-linecap:round;}
	.st6{opacity:0.6;fill:#EAEDFE;enable-background:new    ;}
	.st7{fill:#4773CC;}
	.st8{fill:#2F4CAC;fill-opacity:0.78;}
	.st9{fill:#7873D7;fill-opacity:0.8;}
	.st10{fill:none;stroke:#4162B4;}
	.st11{fill:#2F539B;}
	.st12{fill:#F6F7FB;}
	.st13{fill:#4886FF;fill-opacity:0.6;}
	.st14{fill:#C5CCE7;}
	.st15{fill:#8EB3FD;}
	.st16{fill:#4632C3;}
	.st17{fill:#FFFFFF;}
	.st18{fill:#FFCDD6;}
	.st19{fill:#B1D7FF;}
	.st20{opacity:0.87;fill:#8EB3FD;enable-background:new    ;}
	.st21{fill:#B1B1B1;}
	.st22{fill:#62A2F4;}
	.st23{fill:none;stroke:#FFFFFF;stroke-opacity:0.32;}
	.st24{fill:#7873D7;}
	.st25{fill:#2F4CAC;}
	.st26{fill:none;stroke:#FFFFFF;stroke-width:2;stroke-linejoin:round;stroke-opacity:0.19;}
	.st27{fill:#E92476;}
	.st28{fill:#E92476;filter:url(#Adobe_OpacityMaskFilter);}
	.st29{mask:url(#mask0_1_);}
	.st30{fill:#D2055B;}
	.st31{fill:#F27CAD;}
	.st32{fill:#EE9F86;}
	.st33{fill:#332D7B;}
	.st34{fill:#1D104A;}
	.st35{fill:#5C79B0;}
	.st36{fill:#182E79;}
	.st37{fill:#393939;}
	.st38{fill:#182E79;stroke:#182E79;}
	.st39{fill:#EF937E;}
	.st40{fill:#1DB6E7;filter:url(#Adobe_OpacityMaskFilter_1_);}
	.st41{mask:url(#mask1_1_);}
	.st42{fill:none;stroke:#47484A;stroke-width:7;}
	.st43{fill:#47484A;}
	.st44{fill:#A6A6A6;}
	.st45{fill:#D9142B;}
	.st46{fill:#FF455B;}
	.st47{fill:#D75720;filter:url(#Adobe_OpacityMaskFilter_2_);}
	.st48{mask:url(#mask2_1_);}
	.st49{fill:#FFD262;}
	.st50{fill:#382FAC;}
	.st51{fill:#D75720;filter:url(#Adobe_OpacityMaskFilter_3_);}
	.st52{mask:url(#mask3_1_);}
	.st53{fill:#FEB261;}
	.st54{fill:#FEFFFB;filter:url(#Adobe_OpacityMaskFilter_4_);}
	.st55{mask:url(#mask4_1_);}
	.st56{fill:#FEFFFB;filter:url(#Adobe_OpacityMaskFilter_5_);}
	.st57{mask:url(#mask5_1_);}
	.st58{fill:#363636;}
	.st59{fill:#FFFFFF;fill-opacity:0.2;filter:url(#Adobe_OpacityMaskFilter_6_);}
	.st60{mask:url(#mask6_1_);}
	.st61{fill:#FFFFFF;fill-opacity:0.2;}
	.st62{fill:none;stroke:#FFFFFF;stroke-dasharray:6,6;}
	.st63{fill:#F3AEAE;}
	.st64{fill:#333333;}
	.st65{fill:#FEAF22;}
	.st66{fill:#04138A;}
	.st67{fill:#030E68;}
	.st68{fill:#EE9D0C;}
	.st69{fill:#566DBB;}
	.st70{fill:#262626;}
	.st71{fill:#79C7CE;filter:url(#Adobe_OpacityMaskFilter_7_);}
	.st72{mask:url(#mask7_1_);}
	.st73{fill:#0F0F0F;}
	.st74{fill:#5DB3BB;}
	.st75{fill:#2E27B6;fill-opacity:0.5;}
	.st76{fill:#79C7CE;filter:url(#Adobe_OpacityMaskFilter_8_);}
	.st77{mask:url(#mask8_1_);}
	.st78{fill:#2E27B6;}
	.st79{fill:#4147C9;}
	.st80{opacity:0.5;}
	.st81{fill:#E1E4FE;}
	.st82{fill:#EDEEF9;}
	.st83{fill:none;}
</style>
<path class="st0" d="M392.4,247.7c4.3-32.6-15.8-31.9-28-27c-0.8,0.3-1.6-0.3-1.4-1.2c6.3-28.8,16.6-87.3,10.8-106.3
	c-5.7-18.5-28.7-9.1-41.1-1.2c-0.7,0.5-1.7-0.1-1.6-1c5.6-45.6,12.1-81.9-33.9-85.6c-36.7-2.9-40.3,50.5-37.5,78.9
	c0.1,0.7-0.6,1.2-1.3,1.1c-34.3-7.9-30.8,18-24.7,32.1c9.3,30.5,25,89.2,13.1,80.3c-11.8-8.8-19.7-3.9-22.3-0.2
	c-0.1,0.1-0.1,0.2-0.1,0.3c-22.3,100.6,59.8,108.1,89.7,108.1C343.9,326.1,386.8,290.6,392.4,247.7z"/>
<path class="st1" d="M297.2,66.6c2.7,72.8,2.5,242.1,0,324.9l16.8,3.7C308.4,230.9,295.3,16.2,297.2,66.6z"/>
<path class="st2" d="M310.3,307.4c18-12.4,56-42.9,63.5-65.3"/>
<path class="st2" d="M300.9,290.6c-14.9-10-46.1-34.4-52.3-52.3"/>
<path class="st3" d="M323.5,182.4c17-11.4,52.7-39.3,59.7-59.7"/>
<path class="st3" d="M304.7,215.9c-10.6-7.1-51.6-74.9-56-87.7"/>
<path class="st4" d="M353.3,230.9c-0.6,12.4,4.9,35.5,31.7,28"/>
<path class="st4" d="M327.1,257c-0.6,12.4,4.9,35.5,31.7,28"/>
<path class="st5" d="M330.9,133.8c-0.6,12.4,4.9,35.5,31.7,28"/>
<path class="st5" d="M282.2,159.9c0.5,9.5-4,27-26.1,21.3"/>
<path class="st4" d="M274.8,242.1c0.5,9.5-4,27-26.1,21.3"/>
<path class="st6" d="M302.1,508h497.7c86.5-146.4,7.8-267-54.6-375c-62.4-108-241.8-199.7-297.8-68c-56,131.7-42.1,71.6-111.2,131.8
	c-73.7,64.2-40.9,181.8-109.8,164.1c-68.9-17.8-80.1-59.2-144.1-29.6C18.1,360.9-50.4,508,302.1,508z"/>
<path class="st7" d="M255.8,479.5c-1,6.2-2.1,12.6-3.6,19c-5.4,24-14.4,47.7-28.8,61l-0.7-0.7c3.3-3,6.3-6.6,9-10.7L221.7,506l1-0.2
	l9.9,41.2c5.3-8.1,9.6-17.8,13.1-28.2l0,0l-10.2-40l1-0.2l9.8,38.6c2-6.1,3.6-12.4,5.1-18.8c1.4-6.3,2.6-12.7,3.5-18.9l-7-27.9
	l1-0.2l6.4,25.6c2.4-16.3,3.2-31.5,3.2-42.1h1c0,11.2-1,27.3-3.6,44.6L255.8,479.5L255.8,479.5z"/>
<path class="st8" d="M241.1,564.4c-0.5,0-1.1,0-1.6-0.1c-3.2-30.2-7.6-74.6-7.6-92.9c0-25.6-52.1-6.7-51.1-43.4
	c0.9-36.7,0.3-45.7-11.3-49.5c-11.6-3.8-25.8,40-42.1-7.1c-16.3-47.1-44.7-45.2-53.7-45.3c-8.9-0.1-15.8,0.7,19.7,61.7
	c35.5,60.9,8.1,38.5-7.6,79.9s43.6,43.9,56,43.6c12.4-0.3-9.1,35-1.7,47.6c5.8,10,67.4,4.3,99.4,5.5c0.4,3.5,0.7,6.7,1,9.8
	L241.1,564.4z"/>
<path class="st8" d="M153.7,459c-4.9-43.7-34.8-70.8-49.1-78.9l0.5-0.9c14.5,8.2,44.7,35.6,49.6,79.7c1.5,13.7,3,23.3,4.7,30.1
	c1.7,6.8,3.5,10.8,5.7,13.4c2.2,2.6,4.9,3.9,8.3,5.2c0.7,0.3,1.4,0.5,2.1,0.8h0c2.7,1,5.8,2.1,9.4,3.9l7.7-41.4l1,0.2l-7.8,41.7
	c0.1,0.1,0.2,0.1,0.4,0.2c8.3,4.4,13.7,12.8,17.1,21.5c3.4,8.6,4.7,17.6,4.9,23.2l-1,0c-0.2-5.5-1.5-14.3-4.8-22.9
	c-3.3-8.5-8.6-16.7-16.6-20.9c-4.1-2.2-7.5-3.4-10.5-4.5h0c-0.7-0.3-1.5-0.5-2.2-0.8c-3.5-1.3-6.3-2.7-8.7-5.5
	c-2.4-2.8-4.3-7-5.9-13.8C156.8,482.3,155.3,472.7,153.7,459z"/>
<path class="st9" d="M181.2,488.8c-5.8,75.3,79.1,85.9,122.3,81.8c14.4-2,41.7-22.1,36-85.9c-5.8-63.8-70.9-130.2-102.8-155.4
	c-45.2-26.9-127.2-62.4-93.5,11.2C185.3,432.5,188.4,394.7,181.2,488.8z"/>
<path class="st10" d="M159.8,337.6c34.9,21.5,112.3,95.1,143.5,217.3"/>
<rect x="173.1" y="197.8" class="st11" width="601.2" height="330.3"/>
<rect x="183.4" y="218.9" class="st12" width="582" height="291"/>
<rect x="183.4" y="218.9" class="st13" width="160.1" height="290.7"/>
<path class="st14" d="M365,240.9h376c2.8,0,5,2.2,5,5v235.4c0,2.8-2.2,5-5,5H365c-2.8,0-5-2.2-5-5V245.9
	C360,243.1,362.3,240.9,365,240.9z"/>
<path class="st15" d="M381.7,246.5h342.6c2.8,0,5,2.2,5,5v224.2c0,2.8-2.2,5-5,5H381.7c-2.8,0-5-2.2-5-5V251.5
	C376.7,248.7,378.9,246.5,381.7,246.5z"/>
<path class="st16" d="M505,254.5h98.4c1.1,0,2,0.9,2,2l0,0c0,1.1-0.9,2-2,2H505c-1.1,0-2-0.9-2-2l0,0
	C503,255.4,503.9,254.5,505,254.5z"/>
<g>
	<path class="st17" d="M393.2,268.1h312.4c3.9,0,7,3.1,7,7v15.7c0,3.9-3.1,7-7,7H393.2c-3.9,0-7-3.1-7-7v-15.7
		C386.2,271.3,389.3,268.1,393.2,268.1z"/>
</g>
<ellipse class="st18" cx="443.4" cy="282.6" rx="23.8" ry="8"/>
<path class="st19" d="M483.1,279.4h204.1c0.9,0,1.6,0.7,1.6,1.6v0c0,0.9-0.7,1.6-1.6,1.6H483.1c-0.9,0-1.6-0.7-1.6-1.6v0
	C481.5,280.1,482.2,279.4,483.1,279.4z"/>
<path class="st19" d="M483.1,284.2h84.9c0.9,0,1.6,0.7,1.6,1.6v0c0,0.9-0.7,1.6-1.6,1.6h-84.9c-0.9,0-1.6-0.7-1.6-1.6v0
	C481.5,284.9,482.2,284.2,483.1,284.2z"/>
<g>
	<path class="st17" d="M388.6,461.8c0-4.7,3.8-8.4,8.4-8.4h309.6c4.7,0,8.4,3.8,8.4,8.4l0,0c0,4.7-3.8,8.4-8.4,8.4H397
		C392.4,470.2,388.6,466.5,388.6,461.8L388.6,461.8z"/>
</g>
<path class="st20" d="M443,459.8h220c1.1,0,2,0.9,2,2v0c0,1.1-0.9,2-2,2H443c-1.1,0-2-0.9-2-2v0C441,460.7,441.9,459.8,443,459.8z"
	/>
<g>
	<path class="st17" d="M393.4,303.2h312c3.3,0,6,2.7,6,6v123.5c0,3.3-2.7,6-6,6h-312c-3.3,0-6-2.7-6-6V309.2
		C387.4,305.9,390.1,303.2,393.4,303.2z"/>
	<path class="st21" d="M485.9,366v1.5h-4.7v3.3h3.7v1.5h-3.7v4.9h-1.8V366H485.9z M491.4,377.2c-0.8,0-1.6-0.2-2.3-0.6
		c-0.7-0.4-1.2-0.9-1.6-1.6c-0.4-0.7-0.6-1.5-0.6-2.4c0-0.9,0.2-1.7,0.6-2.4c0.4-0.7,0.9-1.2,1.6-1.6c0.7-0.4,1.4-0.6,2.3-0.6
		c0.8,0,1.6,0.2,2.3,0.6c0.7,0.4,1.2,0.9,1.6,1.6c0.4,0.7,0.6,1.5,0.6,2.4s-0.2,1.7-0.6,2.4c-0.4,0.7-1,1.2-1.7,1.6
		C493,377,492.3,377.2,491.4,377.2z M491.4,375.6c0.5,0,0.9-0.1,1.3-0.3c0.4-0.2,0.8-0.6,1-1c0.3-0.4,0.4-1,0.4-1.6
		c0-0.6-0.1-1.2-0.4-1.6c-0.2-0.4-0.6-0.8-1-1c-0.4-0.2-0.8-0.3-1.3-0.3c-0.5,0-0.9,0.1-1.3,0.3c-0.4,0.2-0.7,0.6-0.9,1
		c-0.2,0.4-0.4,1-0.4,1.6c0,0.9,0.2,1.7,0.7,2.2C490.1,375.4,490.7,375.6,491.4,375.6z M499.6,369.5c0.3-0.4,0.6-0.8,1.1-1
		c0.4-0.3,1-0.4,1.6-0.4v1.9h-0.5c-0.7,0-1.3,0.2-1.6,0.5c-0.4,0.4-0.5,1-0.5,1.9v4.6h-1.8v-8.8h1.8V369.5z M514.6,368.1
		c0.7,0,1.3,0.1,1.9,0.4c0.6,0.3,1,0.7,1.3,1.3c0.3,0.6,0.5,1.2,0.5,2v5.2h-1.8v-4.9c0-0.8-0.2-1.4-0.6-1.8
		c-0.4-0.4-0.9-0.6-1.6-0.6c-0.7,0-1.2,0.2-1.6,0.6c-0.4,0.4-0.6,1-0.6,1.8v4.9h-1.8v-4.9c0-0.8-0.2-1.4-0.6-1.8
		c-0.4-0.4-0.9-0.6-1.6-0.6c-0.7,0-1.2,0.2-1.6,0.6c-0.4,0.4-0.6,1-0.6,1.8v4.9h-1.8v-8.8h1.8v1c0.3-0.4,0.7-0.6,1.1-0.8
		c0.5-0.2,0.9-0.3,1.5-0.3c0.7,0,1.3,0.1,1.9,0.4c0.6,0.3,1,0.7,1.3,1.3c0.3-0.5,0.7-1,1.2-1.3C513.4,368.3,514,368.1,514.6,368.1z
		 M526.5,366v7.1c0,0.8,0.2,1.5,0.7,1.9c0.4,0.4,1.1,0.6,1.9,0.6c0.8,0,1.4-0.2,1.9-0.6c0.4-0.4,0.7-1.1,0.7-1.9V366h1.8v7.1
		c0,0.9-0.2,1.7-0.6,2.3c-0.4,0.6-0.9,1.1-1.6,1.4c-0.7,0.3-1.4,0.5-2.2,0.5s-1.5-0.2-2.2-0.5c-0.7-0.3-1.2-0.8-1.6-1.4
		c-0.4-0.6-0.6-1.4-0.6-2.3V366H526.5z M540.2,368.1c0.7,0,1.3,0.1,1.9,0.4c0.6,0.3,1,0.7,1.3,1.3c0.3,0.6,0.5,1.2,0.5,2v5.2H542
		v-4.9c0-0.8-0.2-1.4-0.6-1.8c-0.4-0.4-0.9-0.6-1.6-0.6c-0.7,0-1.2,0.2-1.6,0.6c-0.4,0.4-0.6,1-0.6,1.8v4.9h-1.8v-8.8h1.8v1
		c0.3-0.4,0.7-0.6,1.1-0.8C539.2,368.2,539.7,368.1,540.2,368.1z M545.5,372.6c0-0.9,0.2-1.7,0.5-2.4c0.4-0.7,0.9-1.2,1.5-1.6
		c0.6-0.4,1.3-0.6,2.1-0.6c0.7,0,1.3,0.1,1.8,0.4c0.5,0.3,0.9,0.6,1.2,1v-1.3h1.8v8.8h-1.8v-1.3c-0.3,0.4-0.7,0.8-1.3,1
		c-0.5,0.3-1.1,0.4-1.8,0.4c-0.8,0-1.5-0.2-2.1-0.6c-0.6-0.4-1.1-0.9-1.5-1.6C545.7,374.3,545.5,373.5,545.5,372.6z M552.8,372.7
		c0-0.6-0.1-1.1-0.4-1.6c-0.2-0.4-0.6-0.8-1-1c-0.4-0.2-0.8-0.4-1.3-0.4c-0.5,0-0.9,0.1-1.3,0.4c-0.4,0.2-0.7,0.6-1,1
		c-0.2,0.4-0.4,1-0.4,1.6s0.1,1.1,0.4,1.6c0.3,0.5,0.6,0.8,1,1.1c0.4,0.2,0.9,0.4,1.3,0.4c0.5,0,0.9-0.1,1.3-0.4
		c0.4-0.2,0.7-0.6,1-1C552.6,373.8,552.8,373.3,552.8,372.7z M560.4,375.5l2.5-7.2h1.9l-3.4,8.8h-2.2l-3.3-8.8h2L560.4,375.5z
		 M565.6,372.6c0-0.9,0.2-1.7,0.5-2.4c0.4-0.7,0.9-1.2,1.5-1.6c0.6-0.4,1.3-0.6,2.1-0.6c0.7,0,1.3,0.1,1.8,0.4
		c0.5,0.3,0.9,0.6,1.2,1v-1.3h1.8v8.8h-1.8v-1.3c-0.3,0.4-0.7,0.8-1.3,1c-0.5,0.3-1.1,0.4-1.8,0.4c-0.8,0-1.5-0.2-2.1-0.6
		c-0.6-0.4-1.1-0.9-1.5-1.6C565.8,374.3,565.6,373.5,565.6,372.6z M572.8,372.7c0-0.6-0.1-1.1-0.4-1.6c-0.2-0.4-0.6-0.8-1-1
		c-0.4-0.2-0.8-0.4-1.3-0.4c-0.5,0-0.9,0.1-1.3,0.4c-0.4,0.2-0.7,0.6-1,1c-0.2,0.4-0.4,1-0.4,1.6s0.1,1.1,0.4,1.6
		c0.3,0.5,0.6,0.8,1,1.1c0.4,0.2,0.9,0.4,1.3,0.4c0.5,0,0.9-0.1,1.3-0.4c0.4-0.2,0.7-0.6,1-1C572.7,373.8,572.8,373.3,572.8,372.7z
		 M578,367.1c-0.3,0-0.6-0.1-0.8-0.3s-0.3-0.5-0.3-0.8s0.1-0.6,0.3-0.8s0.5-0.3,0.8-0.3c0.3,0,0.6,0.1,0.8,0.3s0.3,0.5,0.3,0.8
		s-0.1,0.6-0.3,0.8S578.3,367.1,578,367.1z M578.9,368.3v8.8h-1.8v-8.8H578.9z M583.1,365.2v11.8h-1.8v-11.8H583.1z M584.9,372.6
		c0-0.9,0.2-1.7,0.5-2.4c0.4-0.7,0.9-1.2,1.5-1.6c0.6-0.4,1.3-0.6,2.1-0.6c0.7,0,1.3,0.1,1.8,0.4c0.5,0.3,0.9,0.6,1.2,1v-1.3h1.8
		v8.8h-1.8v-1.3c-0.3,0.4-0.7,0.8-1.3,1c-0.5,0.3-1.1,0.4-1.8,0.4c-0.8,0-1.5-0.2-2.1-0.6c-0.6-0.4-1.1-0.9-1.5-1.6
		C585.1,374.3,584.9,373.5,584.9,372.6z M592.1,372.7c0-0.6-0.1-1.1-0.4-1.6c-0.2-0.4-0.6-0.8-1-1c-0.4-0.2-0.8-0.4-1.3-0.4
		c-0.5,0-0.9,0.1-1.3,0.4c-0.4,0.2-0.7,0.6-1,1c-0.2,0.4-0.4,1-0.4,1.6s0.1,1.1,0.4,1.6c0.3,0.5,0.6,0.8,1,1.1
		c0.4,0.2,0.9,0.4,1.3,0.4c0.5,0,0.9-0.1,1.3-0.4c0.4-0.2,0.7-0.6,1-1C592,373.8,592.1,373.3,592.1,372.7z M598.2,369.6
		c0.3-0.4,0.7-0.8,1.3-1c0.5-0.3,1.1-0.4,1.8-0.4c0.8,0,1.5,0.2,2.1,0.6c0.6,0.4,1.1,0.9,1.5,1.6c0.4,0.7,0.5,1.5,0.5,2.4
		c0,0.9-0.2,1.7-0.5,2.4c-0.4,0.7-0.9,1.2-1.5,1.6c-0.6,0.4-1.3,0.6-2.1,0.6c-0.7,0-1.3-0.1-1.8-0.4c-0.5-0.3-0.9-0.6-1.2-1v1.3
		h-1.8v-11.8h1.8V369.6z M603.5,372.6c0-0.6-0.1-1.1-0.4-1.6c-0.2-0.4-0.6-0.8-1-1c-0.4-0.2-0.8-0.4-1.3-0.4c-0.5,0-0.9,0.1-1.3,0.4
		c-0.4,0.2-0.7,0.6-1,1c-0.2,0.4-0.4,1-0.4,1.6s0.1,1.1,0.4,1.6c0.3,0.4,0.6,0.8,1,1c0.4,0.2,0.9,0.4,1.3,0.4c0.5,0,0.9-0.1,1.3-0.4
		c0.4-0.2,0.7-0.6,1-1.1C603.4,373.8,603.5,373.2,603.5,372.6z M609,365.2v11.8h-1.8v-11.8H609z M619.5,372.5c0,0.3,0,0.6-0.1,0.9
		h-6.7c0.1,0.7,0.3,1.3,0.8,1.7s1,0.6,1.7,0.6c1,0,1.7-0.4,2.1-1.2h2c-0.3,0.8-0.8,1.5-1.5,2c-0.7,0.5-1.6,0.8-2.6,0.8
		c-0.8,0-1.6-0.2-2.3-0.6c-0.7-0.4-1.2-0.9-1.6-1.6c-0.4-0.7-0.6-1.5-0.6-2.4s0.2-1.7,0.5-2.4c0.4-0.7,0.9-1.2,1.6-1.6
		c0.7-0.4,1.4-0.6,2.3-0.6c0.8,0,1.6,0.2,2.2,0.5s1.2,0.9,1.5,1.5C619.3,370.9,619.5,371.6,619.5,372.5z M617.6,371.9
		c0-0.7-0.3-1.2-0.7-1.6s-1.1-0.6-1.7-0.6c-0.6,0-1.2,0.2-1.6,0.6c-0.4,0.4-0.7,0.9-0.8,1.6H617.6z"/>
</g>
<path class="st22" d="M758.3,465.1c-5.1,10.2,37.8,19.6,59.9,23l1.3-25.5c6.4-31.9,6.4-39.5-1.3-38.3c-7.7,1.3-14,16.6-16.6,7.7
	c-2.6-8.9,16.6-31.9,10.2-48.5s-19.1,10.2-24.2,6.4c-5.1-3.8,3.8-47.2-3.8-49.7c-7.7-2.6-8.9,33.2-11.5,20.4
	c-2.5-12.8-23-39.5-39.5-29.3c-16.6,10.2,29.3,35.7,25.5,40.8c-3.8,5.1-29.3-10.2-29.3,5.1s42.1,20.4,51,26.8
	c8.9,6.4-28.1,12.8-37,16.6c-8.9,3.8-6.4,17.9,19.1,19.1c25.5,1.3,30.6,7.6,33.2,14C797.9,460,764.7,452.4,758.3,465.1z"/>
<path class="st23" d="M762.2,360.5c6.4,5.5,20.4,23.7,25.5,52.3c5.1,28.6,20.8,56.1,28.1,66.3"/>
<path class="st24" d="M876.3,463.5c5.1,10.2-37.8,19.6-59.9,23l-1.3-25.5c-6.4-31.9-6.4-39.5,1.3-38.3c7.7,1.3,14,16.6,16.6,7.7
	c2.5-8.9-16.6-31.9-10.2-48.5c6.4-16.6,19.1,10.2,24.2,6.4c5.1-3.8-3.8-47.2,3.8-49.7c7.7-2.5,8.9,33.2,11.5,20.4
	c2.5-12.8,23-39.5,39.5-29.3c16.6,10.2-29.3,35.7-25.5,40.8c3.8,5.1,29.3-10.2,29.3,5.1c0,15.3-42.1,20.4-51,26.8
	c-8.9,6.4,28.1,12.8,37,16.6c8.9,3.8,6.4,17.9-19.1,19.1c-25.5,1.3-30.6,7.6-33.2,14C836.7,458.4,869.9,450.7,876.3,463.5z"/>
<path class="st23" d="M872.4,358.9c-6.4,5.5-20.4,23.7-25.5,52.3c-5.1,28.6-20.8,56.1-28.1,66.3"/>
<path class="st25" d="M777.4,444.2c-10.7,0,1.4,20.3,8.5,28.3l21.2,22.6c10.4-4.2,32.2-13.8,36.7-18.4c5.7-5.7-1.4-7.1-8.5-8.5
	c-5.7-1.1-2.4-6.1,0-8.5c23.7-6.8,31.6-19.8,32.5-25.4c0-1.4,0-4.2-5.7-8.5c-5.7-4.2-28.3,28.3-26.9,7.1s33.9-45.2,32.5-55.1
	c-1.4-9.9-8.5,2.8-21.2,9.9c-10.2,5.7-9.9-4.2-8.5-9.9c6.6-7.5,18.9-24.6,15.5-32.5c-4.2-9.9-7.1,0-18.4,9.9
	c-11.3,9.9-4.2-11.3-1.4-15.5c2.8-4.2,28.3-59.4-17-49.5c-45.2,9.9-18.4,69.2-17,77.7c1.4,8.5-9.9-11.3-26.8-5.7
	c-17,5.7,31.1,36.7,31.1,45.2s-18.4-4.2-26.9-5.7c-8.5-1.4,8.5,19.8,12.7,32.5c3.4,10.2,1.4,12.7,0,12.7
	C785.9,449.9,785.9,444.2,777.4,444.2z"/>
<path class="st26" d="M819.8,319.9c-2.8,0.5-7.6,16.4-4.2,76.3c3.4,59.9-1.4,81.5-4.2,84.8"/>
<path class="st27" d="M784.4,499.9h60.2l-6.5,65.1h-48L784.4,499.9z"/>
<defs>
	<filter id="Adobe_OpacityMaskFilter" filterUnits="userSpaceOnUse" x="776.2" y="488.5" width="76.5" height="22.8">
		<feColorMatrix  type="matrix" values="1 0 0 0 0  0 1 0 0 0  0 0 1 0 0  0 0 0 1 0"/>
	</filter>
</defs>
<mask maskUnits="userSpaceOnUse" x="776.2" y="488.5" width="76.5" height="22.8" id="mask0_1_">
	<path class="st28" d="M784.4,499.9h60.2l-6.5,65.1h-48L784.4,499.9z"/>
</mask>
<g class="st29">
	<path class="st30" d="M786.2,488.5h56.5c5.5,0,10,4.5,10,10v2.8c0,5.5-4.5,10-10,10h-56.5c-5.5,0-10-4.5-10-10v-2.8
		C776.2,493,780.7,488.5,786.2,488.5z"/>
</g>
<path class="st27" d="M786.2,482h56.5c5.5,0,10,4.5,10,10v2.8c0,5.5-4.5,10-10,10h-56.5c-5.5,0-10-4.5-10-10V492
	C776.2,486.5,780.7,482,786.2,482z"/>
<path class="st31" d="M786,519.5h57l-2.4,26.1h-52.9L786,519.5z"/>
<path class="st32" d="M749.4,560.7c3.9-6.6,3.6-10,3-10.8l-2.2-5.1l9.2-1.8c0.1,1.4,0.4,4.7,0.8,7.2c0.5,3,3.3,6,9.1,11.3
	c5.7,5.2-1.3,7.3-7.9,0.8c-6.7-6.5-8.7-1.6-10.6-0.9C749.2,561.8,749.2,561.1,749.4,560.7z"/>
<path class="st33" d="M675.5,504.6l41.9,35.8L704.3,556l-29.9-23.1l-25.3,30.1l-12-6.9l30.9-50.2
	C669.6,503.2,673.2,502.6,675.5,504.6z"/>
<path class="st32" d="M594.6,558.4h16.6l-1-10.5l-15.7-0.5V558.4z"/>
<path class="st34" d="M596.4,547c-1.1,2.7-1.4,8.9-1.4,11.7v0.4l-11.9,0.8v-33c0-6.3,3.2-3.2,4.7-0.8
	C587.9,532.2,593.6,542.6,596.4,547z"/>
<path class="st35" d="M720.3,567.8c21.4,0.4,23.2-22.8,21.4-31.1l-42.5,0.5c-11.7,2.1-33.8,2.7-43.9,2.8c-2.9,0-5.9,0.4-8.7,1.1
	l-1.4,0.4l-42.6,2.9l0.4,16.1c10.2-0.6,17.5,2.1,32.4,3.6c14.9,1.5,23.3,1.5,28.3-0.6C673.7,564.8,698.9,567.4,720.3,567.8z"/>
<path class="st36" d="M707.9,470.7c-1-2.1-0.4-23.4,0-33.8h6.5l7.3,33.8H707.9z"/>
<path class="st32" d="M706,440.6c-0.1-0.8-0.1-1.6,0-2.5c0.5-3.1,2.1-6.1,4.1-8.5c15.6-5.8,20.3,7.9,20.6,15.5l-4.8,21.6l-11.9-0.8
	l1.4-6.4c-1.2-1.6-3.3-1.3-7.4-1c-4.1,0.3-2.9-3.2-2.9-3.8c0-0.4-0.5-1-0.9-1.4c-0.2-0.2-0.2-0.6,0-0.7c0.2-0.2,0.2-0.4,0.1-0.7
	l-0.2-0.3c-0.2-0.3-0.2-0.8,0-1.1l0.3-0.3c0.2-0.2,0.2-0.6,0-0.8l-0.7-1.1c-0.5-0.8-0.4-1.9,0.2-2.6
	C705.2,444.3,706.3,442.4,706,440.6z"/>
<path class="st37" d="M710.8,432.4c-0.2,4.3,2,10.7,11.9,10.7c1.3-0.2,3.7,0.4,3.2,4.1c-0.5,4.6-1.1,7.7,0.5,12.8
	c0.9,2.9,1.8,3.9,2.2,4.1h11.9c1.4-16.4-2.7-47.6-30.8-41.5c-3.2,1.4-7.9,4.5-5.4,9.2C705.5,433.8,710.1,434.7,710.8,432.4
	L710.8,432.4z"/>
<path class="st38" d="M693,522.7V510l21.8-34.2l1.9,57.1l-10.7,2L693,522.7z"/>
<path class="st36" d="M694,485c8-16.5,14.5-13.1,21.1-21c3.9,9,1.1,29.8-14.7,44c-12.4,11.3-54.3-12.3-54.3-12.3l-0.1-9.2
	C682.9,495.3,688.9,495.5,694,485z"/>
<path class="st39" d="M632.7,482.6c-1.6,3.8,4,8.5,7.4,10.3l6.9,3.4l-0.1-9.3c-2.8-0.9-6.5-4.4-8-3.8c-1.2,0.5-0.4,1.2,0.1,2.7
	c-1.2,0-3.4-1.9-4.7-3.4C633.8,482,633,482,632.7,482.6z"/>
<path class="st17" d="M706.9,537.4c-4-15.8,4.4-56.2,7.7-74.6c1.3,0.6,2.7,0.6,4,0l0.8-0.4l15.3,0.4l11.7,74.6H706.9z"/>
<path class="st25" d="M710.5,536.5c-6.5-22.3,3.9-61.7,9.9-78.6l26-0.9c5.4,3.2-1,13.3-4.9,18c15.8,15.8,21,56.6,21.6,75
	c-2.8,0.1-10.1,1-11.2,0.6c-1.1-0.4-3.7-9.2-5.5-13.2L710.5,536.5z"/>
<defs>
	<filter id="Adobe_OpacityMaskFilter_1_" filterUnits="userSpaceOnUse" x="731.1" y="510.9" width="15.3" height="32.3">
		<feColorMatrix  type="matrix" values="1 0 0 0 0  0 1 0 0 0  0 0 1 0 0  0 0 0 1 0"/>
	</filter>
</defs>
<mask maskUnits="userSpaceOnUse" x="731.1" y="510.9" width="15.3" height="32.3" id="mask1_1_">
	<path class="st40" d="M710.5,536.5c-6.5-22.3,3.9-61.7,9.9-78.6l26-0.9c5.4,3.2-1,13.3-4.9,18c15.8,15.8,21,56.6,21.6,75
		c-2.8,0.1-9.7,0.6-10.7,0.2c-1.1-0.4-4.1-8.7-5.9-12.8L710.5,536.5z"/>
</mask>
<g class="st41">
	<path class="st36" d="M737.4,510.9l9,27.4l-15.3,4.9L737.4,510.9z"/>
</g>
<line class="st42" x1="300.2" y1="417.8" x2="281.5" y2="563.6"/>
<line class="st42" x1="214.1" y1="417.8" x2="195.3" y2="563.6"/>
<path class="st43" d="M316.7,306.2c-0.4-3-2.9-5.3-6-5.3h-96.5c-3.6,0-6.4,3.2-6,6.7L225.6,445c0.4,3,2.9,5.3,6,5.3h96.5
	c3.6,0,6.4-3.2,6-6.8L316.7,306.2z"/>
<line class="st42" x1="226.5" y1="417.8" x2="245.3" y2="563.6"/>
<line class="st42" x1="312.6" y1="417.8" x2="331.4" y2="563.6"/>
<path class="st43" d="M315.8,307.3c0.2-3.4-2.6-6.3-6-6.3h-96.6c-3.2,0-5.8,2.5-6,5.7L200.5,444c-0.2,3.4,2.6,6.3,6,6.3h96.6
	c3.2,0,5.8-2.5,6-5.7L315.8,307.3z"/>
<path class="st44" d="M313.7,309.7c0.2-3.4-2.6-6.3-6-6.3H215c-3.2,0-5.8,2.5-6,5.7L202.6,441c-0.2,3.4,2.6,6.3,6,6.3h92.7
	c3.2,0,5.8-2.5,6-5.7L313.7,309.7z"/>
<path class="st45" d="M229.7,426l10.5-14.6l7.7,8.9L230.3,431L229.7,426z"/>
<path class="st46" d="M228.5,436h1.9c1.1-2,3.4-7.3,3.4-12.8c0-5.4-3.6-9.8-5.4-11.4v0l0,0c-1.8,1.5-5.3,5.9-5.3,11.4
	c0,5.4,2.3,10.8,3.4,12.8L228.5,436L228.5,436z"/>
<defs>
	<filter id="Adobe_OpacityMaskFilter_2_" filterUnits="userSpaceOnUse" x="211.5" y="419.4" width="34.3" height="12.9">
		<feColorMatrix  type="matrix" values="1 0 0 0 0  0 1 0 0 0  0 0 1 0 0  0 0 0 1 0"/>
	</filter>
</defs>
<mask maskUnits="userSpaceOnUse" x="211.5" y="419.4" width="34.3" height="12.9" id="mask2_1_">
	<path class="st47" d="M228.5,436h1.9c1.1-2,3.4-7.3,3.4-12.8c0-5.4-3.6-9.8-5.4-11.4v0l0,0c-1.8,1.5-5.3,5.9-5.3,11.4
		c0,5.4,2.3,10.8,3.4,12.8L228.5,436L228.5,436z"/>
</mask>
<g class="st48">
	<rect x="221.4" y="419.4" class="st49" width="14.5" height="12.5"/>
	<rect x="211.5" y="419.4" class="st50" width="34.3" height="0.8"/>
	<rect x="211.5" y="431.4" class="st50" width="34.3" height="0.8"/>
</g>
<path class="st45" d="M271.5,426l-10.5-14.6l-7.7,8.9l17.6,10.6L271.5,426z"/>
<path class="st46" d="M272.7,436h-1.9c-1.2-2-3.5-7.3-3.5-12.8c0-5.4,3.6-9.8,5.4-11.4l0,0l0,0l0,0l0,0c1.8,1.5,5.3,5.9,5.3,11.4
	c0,5.4-2.3,10.8-3.5,12.8H272.7L272.7,436z"/>
<defs>
	<filter id="Adobe_OpacityMaskFilter_3_" filterUnits="userSpaceOnUse" x="255.3" y="419.4" width="34.3" height="12.9">
		<feColorMatrix  type="matrix" values="1 0 0 0 0  0 1 0 0 0  0 0 1 0 0  0 0 0 1 0"/>
	</filter>
</defs>
<mask maskUnits="userSpaceOnUse" x="255.3" y="419.4" width="34.3" height="12.9" id="mask3_1_">
	<path class="st51" d="M272.7,436h-1.9c-1.2-2-3.5-7.3-3.5-12.8c0-5.4,3.6-9.8,5.4-11.4l0,0l0,0l0,0l0,0c1.8,1.5,5.3,5.9,5.3,11.4
		c0,5.4-2.3,10.8-3.5,12.8H272.7L272.7,436z"/>
</mask>
<g class="st52">
	<rect x="265.3" y="419.4" class="st53" width="14.5" height="12.5"/>
	<rect x="255.3" y="419.4" class="st50" width="34.3" height="0.8"/>
	<rect x="255.3" y="431.4" class="st50" width="34.3" height="0.8"/>
</g>
<path class="st49" d="M250.4,427.5h-5.8c-3.5-7.4-10.5-27.3-10.5-47.6c0-20.3,10.8-36.7,16.3-42.4v0c0,0,0,0,0,0c0,0,0,0,0,0v0
	c5.5,5.7,16.5,22.1,16.5,42.4c0,20.3-7,40.2-10.5,47.6h-5.8H250.4z"/>
<path class="st53" d="M256.4,427.5h-6v-90.1c5.5,5.7,16.5,22.1,16.5,42.4C266.9,400.2,259.9,420.1,256.4,427.5z"/>
<defs>
	<filter id="Adobe_OpacityMaskFilter_4_" filterUnits="userSpaceOnUse" x="233.4" y="334.5" width="34.7" height="93.6">
		<feColorMatrix  type="matrix" values="1 0 0 0 0  0 1 0 0 0  0 0 1 0 0  0 0 0 1 0"/>
	</filter>
</defs>
<mask maskUnits="userSpaceOnUse" x="233.4" y="334.5" width="34.7" height="93.6" id="mask4_1_">
	<path class="st54" d="M250.4,427.5h-5.8c-3.5-7.4-10.5-27.3-10.5-47.6c0-20.3,10.8-36.7,16.3-42.4v0c0,0,0,0,0,0c0,0,0,0,0,0v0
		c5.5,5.7,16.5,22.1,16.5,42.4c0,20.3-7,40.2-10.5,47.6h-5.8H250.4z"/>
</mask>
<g class="st55">
	<rect x="233.8" y="334.5" class="st46" width="34.3" height="24.5"/>
	<rect x="233.4" y="358.6" class="st50" width="34.3" height="2.5"/>
	<rect x="233.4" y="425.6" class="st50" width="34.3" height="2.5"/>
</g>
<defs>
	<filter id="Adobe_OpacityMaskFilter_5_" filterUnits="userSpaceOnUse" x="235.4" y="356.9" width="34.3" height="34">
		<feColorMatrix  type="matrix" values="1 0 0 0 0  0 1 0 0 0  0 0 1 0 0  0 0 0 1 0"/>
	</filter>
</defs>
<mask maskUnits="userSpaceOnUse" x="235.4" y="356.9" width="34.3" height="34" id="mask5_1_">
	<path class="st56" d="M250.4,427.5h-5.8c-3.5-7.4-10.5-27.3-10.5-47.6c0-20.3,10.8-36.7,16.3-42.4v0c0,0,0,0,0,0c0,0,0,0,0,0v0
		c5.5,5.7,16.5,22.1,16.5,42.4c0,20.3-7,40.2-10.5,47.6h-5.8H250.4z"/>
</mask>
<g class="st57">
	<ellipse class="st58" cx="250.4" cy="373.2" rx="9.1" ry="9.2"/>
	<defs>
		<filter id="Adobe_OpacityMaskFilter_6_" filterUnits="userSpaceOnUse" x="235.4" y="356.9" width="34.3" height="34">
			<feColorMatrix  type="matrix" values="1 0 0 0 0  0 1 0 0 0  0 0 1 0 0  0 0 0 1 0"/>
		</filter>
	</defs>
	<mask maskUnits="userSpaceOnUse" x="235.4" y="356.9" width="34.3" height="34" id="mask6_1_">
		<ellipse class="st59" cx="250.4" cy="373.2" rx="9.1" ry="9.2"/>
	</mask>
	<g class="st60">
		<path class="st61" d="M254.3,356.9l4.1,4.1l-19,19.1l-4.1-4.1L254.3,356.9z"/>
		<path class="st61" d="M263,362.8l-20.6,20.7l1.2,1.8l20.9-21L263,362.8z"/>
		<path class="st61" d="M265.4,366.5l-19.9,20l4.1,4.4l20-20.1L265.4,366.5z"/>
	</g>
</g>
<path class="st43" d="M277.4,300h-32.2c-1.8,0-3.2,1.4-3.2,3.2l0,0c0,1.8,1.4,3.2,3.2,3.2h32.2c1.8,0,3.2-1.4,3.2-3.2l0,0
	C280.6,301.4,279.2,300,277.4,300z"/>
<ellipse class="st17" cx="275.4" cy="303.5" rx="2.1" ry="2"/>
<ellipse class="st17" cx="246.7" cy="303.5" rx="2.1" ry="2"/>
<path class="st62" d="M251.4,337.1v-15.7h-17.2"/>
<path class="st62" d="M267.5,377.6h24v-35.1"/>
<path class="st62" d="M225.5,429.2h-7.8v-38.8"/>
<rect x="212.2" y="327.5" class="st17" width="18.3" height="0.5"/>
<rect x="212.7" y="320.1" class="st17" width="17.7" height="2.5"/>
<rect x="212.7" y="323.6" class="st17" width="17.7" height="0.5"/>
<rect x="212.7" y="324.6" class="st17" width="17.7" height="0.5"/>
<rect x="216.9" y="325.5" class="st17" width="13.6" height="0.5"/>
<rect x="215.3" y="326.5" class="st17" width="15.1" height="0.5"/>
<rect x="221.1" y="328.5" class="st17" width="9.4" height="0.5"/>
<rect x="216.4" y="329.5" class="st17" width="14.1" height="0.5"/>
<rect x="280.6" y="330" class="st17" width="17.7" height="2.5"/>
<rect x="280.6" y="333.4" class="st17" width="17.7" height="0.5"/>
<rect x="280.6" y="334.4" class="st17" width="17.7" height="0.5"/>
<rect x="280.6" y="335.4" class="st17" width="13.6" height="0.5"/>
<rect x="280.6" y="336.4" class="st17" width="15.1" height="0.5"/>
<rect x="280.6" y="338.3" class="st17" width="9.4" height="0.5"/>
<rect x="280.6" y="339.3" class="st17" width="14.1" height="0.5"/>
<rect x="210.6" y="377.6" class="st17" width="17.7" height="2.5"/>
<rect x="210.6" y="381" class="st17" width="17.7" height="0.5"/>
<rect x="210.6" y="382" class="st17" width="17.7" height="0.5"/>
<rect x="210.6" y="383" class="st17" width="13.6" height="0.5"/>
<rect x="210.6" y="384" class="st17" width="15.1" height="0.5"/>
<rect x="210.6" y="385.9" class="st17" width="9.4" height="0.5"/>
<rect x="210.6" y="386.9" class="st17" width="14.1" height="0.5"/>
<path class="st63" d="M160.9,552.2l-2.9-10.8l11.7-3.7l0.4,13.7L160.9,552.2z"/>
<path class="st34" d="M170.5,549.8c-2.3,1-7.8,1.2-10.2,1.2h-0.4l-0.7,10.4h28.9c5.6,0,2.8-2.8,0.7-4.2
	C183.5,557.3,174.4,552.3,170.5,549.8z"/>
<path class="st63" d="M99.8,536.6l2.9-10.8l12,2.6l-6.5,12.1L99.8,536.6z"/>
<path class="st34" d="M109.3,539.3c-2.5-0.3-7.4-2.8-9.5-4l-0.3-0.2l-5.8,8.6l25,14.4c4.8,2.8,3.8-1,2.7-3.2
	C116.8,552.3,111.4,543.5,109.3,539.3z"/>
<path class="st32" d="M202,366.8l-31,8l-5.9-12.2h34.4L202,366.8z"/>
<path class="st64" d="M204.7,338.5l-26.6,26.9c-0.6,0.6-0.2,1.7,0.7,1.7h22.8c0.3,0,0.5-0.1,0.7-0.3l30-28.4
	c0.7-0.6,0.2-1.8-0.7-1.7l-26.2,1.5C205.1,338.3,204.9,338.4,204.7,338.5z"/>
<path class="st65" d="M169,346.4c4-11.2-4.7-19.5-9.8-25.8c0.4-0.4-1.2,0-2.9,0c-1.7,0-8.1-2.3-16.1,1.9
	c-10.4,14.4-7.4,45.4-4.9,58.4c12.9,0.3,33.7,3.8,33.7,1.7c0-2.9,0,0.9,0-3.2C169,373.8,169,364.2,169,346.4z"/>
<path class="st66" d="M130.5,410.2c-2.7-12,2-24.5,4.6-29.3l33.3,1.1c1,18-35.6,111.3-57.3,155.7l-11.8-5.1
	C110.9,496.7,133.2,422.2,130.5,410.2z"/>
<path class="st32" d="M135.1,372.6l-0.8-25.1l13-1.3l-2.1,19.7L177,349l3.4,5l-37.7,24.4h-1.7C137.7,378.5,135.1,375.9,135.1,372.6z
	"/>
<path class="st32" d="M192.7,346.3c-3.5-4.5-11.9-0.4-15.8,2.8l3.4,5c2.5-2.8,8.5,1.1,8.5-1c0-1.6-1.2-1.1-3.2-1.3
	c0.6-1.5,4.2-3.3,6.6-4C192.8,347.5,193.1,346.8,192.7,346.3z"/>
<path class="st67" d="M167.6,544.3l1.4-161.9l-33.1-1.1l19.1,163H167.6z"/>
<path class="st68" d="M132.5,332.4c0-5.1,4.1-9.2,9.2-9.2l0,0c5.1,0,9.2,4.1,9.2,9.2v15.1h-18.4V332.4z"/>
<path class="st63" d="M171.7,301.3c0.2-0.7,0.3-1.5,0.3-2.3c0-3-1.2-6-2.8-8.6c-14-7.5-20.1,4.8-21.5,11.9l1.7,21l6.4,1.6
	c2.7,0.7,5.2-1.5,5-4.2l-0.3-3.7c1.7,0,3.1,0,6.9,0.9c3.8,0.8,3.1-2.7,3.2-3.2c0.1-0.3,0.6-0.8,1.1-1.2c0.2-0.2,0.3-0.5,0.1-0.7
	c-0.2-0.2-0.2-0.5,0-0.6l0.3-0.3c0.3-0.3,0.3-0.7,0.1-1l-0.2-0.3c-0.2-0.2-0.1-0.6,0.1-0.8l0.8-0.9c0.6-0.7,0.6-1.8,0.1-2.6
	C172,304.8,171.2,302.9,171.7,301.3z"/>
<path class="st37" d="M148.7,310.6c0.6,3.8-1.3-1.3-2.2-4.6c-1-1.4-4-8.9-2.8-13.4c0.9-3.2,1.9-6.7,7.4-7.3c-9.9,0.4-3.7,0,1.5-0.1
	l-0.8-0.8c-1.7-1.7-3.4-2.8-4.5-2.8c-8.9,0.4-20.7,2-25.1-2.4c-3.6-3.6-10.1-1.5-13,0c-17.4,6.1-47.9-0.8-30.4-13.8
	c17.4-13,17.8-6.9,31.6,0c13.8,6.9,10.9-0.8,28.8,1.2c14.3,1.6,14.9,13.1,13.4,18.7c-5.2,0.1-11.4,0.6-1.5,0.1c0.5,0,1-0.1,1.5-0.1
	c0.4,0,0.8,0,1.2-0.1c17-0.8,19.1,12.6,17.8,11.4c-1.4-1.4-14-1.3-15.3,6.4c-2.8-3.6-3.5-5.2-5.1-3.2
	C149.6,301.8,147.9,306.2,148.7,310.6z"/>
<path class="st69" d="M468.5,226.4c-33.5,0-60.6,27.2-60.6,60.6c0,33.5,27.2,60.6,60.6,60.6c33.5,0,60.6-27.2,60.6-60.6
	C529.1,253.5,501.9,226.4,468.5,226.4z M468.5,322.2c-3,0-5.4-2.4-5.4-5.4s2.4-5.4,5.4-5.4s5.4,2.4,5.4,5.4S471.4,322.2,468.5,322.2
	z M477,292.5c-1.2,0.5-2.3,1.3-3,2.4c-0.7,1.1-1.1,2.4-1.2,3.7v3.1c0,0.6-0.5,1.1-1.1,1.1h-6.5c-0.6,0-1.1-0.5-1.1-1.1v-2.9
	c0-3.1,0.9-6.2,2.7-8.8c1.7-2.5,4.2-4.4,7.1-5.5c4.6-1.8,7.6-5.6,7.6-9.8c0-6-5.8-10.8-13-10.8s-13,4.9-13,10.8v1
	c0,0.6-0.5,1.1-1.1,1.1h-6.5c-0.6,0-1.1-0.5-1.1-1.1v-1c0-5.3,2.3-10.3,6.6-14c4.1-3.6,9.4-5.5,15.1-5.5c5.7,0,11,2,15.1,5.5
	c4.2,3.7,6.6,8.7,6.6,14C490.1,282.4,485,289.4,477,292.5z"/>
<path class="st32" d="M460.6,290.3c5.9,6.7-4.2,17.8-10.3,22.2l-8-5.6c5-2.4,4.4-13.8,7.5-13c2.3,0.6,1.1,2.1,0.6,5.2
	c2.5-0.3,6.8-5.3,8.7-8.4C459.4,289.9,460.2,289.8,460.6,290.3z"/>
<path class="st32" d="M331.3,538.3l1.5-13.9l15.4,1l-5.8,16.2L331.3,538.3z"/>
<path class="st34" d="M343.6,539.9c-3.2,0.1-9.7-2.1-12.5-3.2l-0.4-0.2l-5.6,11.8l33.6,13.2c6.5,2.5,4.5-1.9,2.8-4.5
	C355.3,554.6,347,544.6,343.6,539.9z"/>
<path class="st32" d="M396.4,549l-3.7-13.5l14.7-4.7L408,548L396.4,549z"/>
<path class="st34" d="M408.4,546c-2.9,1.2-9.8,1.6-12.8,1.6h-0.5l-0.9,13h36.1c7,0,3.5-3.5,0.9-5.2
	C424.7,555.4,413.3,549.1,408.4,546z"/>
<path class="st70" d="M374.7,463.2c-7,21.9-15.8,46.7-26.5,72.9l-18.7-5.8c5.2-15.4,14.9-60,18.7-138.5l46.2-2.6
	c5.4,19.9,15.8,77.2,14.2,146.9l-17.3,0.5C387.5,517.4,381.4,489.1,374.7,463.2z"/>
<defs>
	<filter id="Adobe_OpacityMaskFilter_7_" filterUnits="userSpaceOnUse" x="374.9" y="387.6" width="44.1" height="150.6">
		<feColorMatrix  type="matrix" values="1 0 0 0 0  0 1 0 0 0  0 0 1 0 0  0 0 0 1 0"/>
	</filter>
</defs>
<mask maskUnits="userSpaceOnUse" x="374.9" y="387.6" width="44.1" height="150.6" id="mask7_1_">
	<path class="st71" d="M374.7,463.2c-7,21.9-15.8,46.7-26.5,72.9l-18.7-5.8c5.2-15.4,14.9-60,18.7-138.5l46.2-2.6
		c5.4,19.9,15.8,77.2,14.2,146.9l-17.3,0.5C387.5,517.4,381.4,489.1,374.7,463.2z"/>
</mask>
<g class="st72">
	<path class="st73" d="M374.9,462.1l12.6,76.1h25.7l5.8-51.9l-24.7-98.6L374.9,462.1z"/>
</g>
<path class="st32" d="M389.7,302.1l-1-4.9l-2-4.5c-1.3-0.8-6.3-2.1-16.3-0.6c-10.1,1.5-5.9,19.8-2.6,28.8l0,3.1
	c6.1,3.7,16.2,6.1,15,3.4c-1.2-2.6-1.2-2-1.2-3.8c1.9,0.4,3.8,0.6,5.2,0.3c2.5-0.4,1.5-3.4,0.7-4.9c0.7-0.3,1-1.2,0.7-1.9l0.8-0.5
	c0.3-0.2,0.5-0.7,0.4-1.1c-0.2-0.7,0.2-1.4,0.8-1.7l1.3-0.6c0.6-0.3,0.8-1,0.4-1.5l-2.4-3.5c-0.5-0.7-0.5-1.6-0.2-2.3
	C389.8,304.7,390,303.4,389.7,302.1z"/>
<path class="st37" d="M370.7,317.4l-3,3.8l-7.1-16.5c-0.6-5,0.9-15.7,11.2-18.7c12.9-3.8,16,2.9,16.5,2.8c0.4,0,1-1,1.3-1.4
	c0.2,0.3,0.1,1.4,0,1.9c0.9-0.7,0.5-2.4,0.1-3.2c5.4,6.6,2.3,10.3,0.1,11.3c-2.2-0.4-7-0.9-8.1,0.9c-1.4,2.2-0.7,1.9-3.5,3.5
	c-2.2,1.3-1.5,6.4-0.9,8.8l1.1,2.5l-3.3-1.5c-0.1-3.6-2.6-5.3-3.8-5.8C367.9,306.4,369.5,313.8,370.7,317.4z"/>
<path class="st74" d="M396.6,399.1l-8.1-48l-9.2-5l2.1,53.5L396.6,399.1z"/>
<path class="st24" d="M345,416.4c-2.8-47.6,11.4-81,18.9-91.7l2.5-1c31.8,4.8,67-15.9,78.2-19.9l6.9,7.7
	c-41.9,31.2-62.6,41.9-69.2,41.9c5.5,17.4,5,38.7,3.5,50.1c-1.2,9.1-8.1,12.4-11.4,12.9H345z"/>
<path class="st75" d="M468.5,225.5c-33.5,0-60.6,27.2-60.6,60.6c0,33.5,27.2,60.6,60.6,60.6c33.5,0,60.6-27.2,60.6-60.6
	C529.1,252.7,501.9,225.5,468.5,225.5z M468.5,321.4c-3,0-5.4-2.4-5.4-5.4c0-3,2.4-5.4,5.4-5.4s5.4,2.4,5.4,5.4
	C473.9,318.9,471.4,321.4,468.5,321.4z M477,291.6c-1.2,0.5-2.3,1.3-3,2.4s-1.1,2.4-1.2,3.7v3.1c0,0.6-0.5,1.1-1.1,1.1h-6.5
	c-0.6,0-1.1-0.5-1.1-1.1v-2.9c0-3.1,0.9-6.2,2.7-8.8c1.7-2.5,4.2-4.4,7.1-5.5c4.6-1.8,7.6-5.6,7.6-9.8c0-6-5.8-10.8-13-10.8
	s-13,4.9-13,10.8v1c0,0.6-0.5,1.1-1.1,1.1h-6.5c-0.6,0-1.1-0.5-1.1-1.1v-1c0-5.3,2.3-10.3,6.6-14c4.1-3.6,9.4-5.5,15.1-5.5
	c5.7,0,11,2,15.1,5.5c4.2,3.7,6.6,8.7,6.6,14C490.1,281.5,485,288.6,477,291.6z"/>
<path class="st32" d="M460.6,289.4c5.9,6.7-4.2,17.8-10.3,22.2l-8-5.6c5-2.4,4.4-13.8,7.5-13c2.3,0.6,1.1,2.1,0.6,5.2
	c2.5-0.3,6.8-5.3,8.7-8.4C459.4,289.1,460.2,288.9,460.6,289.4z"/>
<path class="st32" d="M331.3,537.5l1.5-13.9l15.4,1l-5.8,16.2L331.3,537.5z"/>
<path class="st34" d="M343.6,539.1c-3.2,0.1-9.7-2.1-12.5-3.2l-0.4-0.2l-5.6,11.8l33.6,13.2c6.5,2.5,4.5-1.9,2.8-4.5
	C355.3,553.7,347,543.7,343.6,539.1z"/>
<path class="st32" d="M396.4,548.2l-3.7-13.5l14.7-4.7l0.5,17.2L396.4,548.2z"/>
<path class="st34" d="M408.4,545.2c-2.9,1.3-9.8,1.6-12.8,1.6h-0.5l-0.9,13h36.1c7,0,3.5-3.5,0.9-5.2
	C424.7,554.5,413.3,548.3,408.4,545.2z"/>
<path class="st70" d="M374.7,462.3c-7,21.9-15.8,46.7-26.5,72.9l-18.7-5.8c5.2-15.4,14.9-60,18.7-138.5l46.2-2.6
	c5.4,19.9,15.8,77.2,14.2,146.9l-17.3,0.5C387.5,516.5,381.4,488.3,374.7,462.3z"/>
<defs>
	<filter id="Adobe_OpacityMaskFilter_8_" filterUnits="userSpaceOnUse" x="374.9" y="386.7" width="44.1" height="150.6">
		<feColorMatrix  type="matrix" values="1 0 0 0 0  0 1 0 0 0  0 0 1 0 0  0 0 0 1 0"/>
	</filter>
</defs>
<mask maskUnits="userSpaceOnUse" x="374.9" y="386.7" width="44.1" height="150.6" id="mask8_1_">
	<path class="st76" d="M374.7,462.3c-7,21.9-15.8,46.7-26.5,72.9l-18.7-5.8c5.2-15.4,14.9-60,18.7-138.5l46.2-2.6
		c5.4,19.9,15.8,77.2,14.2,146.9l-17.3,0.5C387.5,516.5,381.4,488.3,374.7,462.3z"/>
</mask>
<g class="st77">
	<path class="st73" d="M374.9,461.2l12.6,76.1h25.7l5.8-51.9l-24.7-98.6L374.9,461.2z"/>
</g>
<path class="st32" d="M389.7,301.2l-1-4.9l-2-4.5c-1.3-0.8-6.3-2.1-16.3-0.6c-10.1,1.5-5.9,19.8-2.6,28.8l0,3.1
	c6.1,3.7,16.2,6.1,15,3.4c-1.2-2.6-1.2-2-1.2-3.8c1.9,0.4,3.8,0.6,5.2,0.3c2.5-0.4,1.5-3.4,0.7-4.9c0.7-0.3,1-1.2,0.7-1.9l0.8-0.5
	c0.3-0.2,0.5-0.7,0.4-1.1c-0.2-0.7,0.2-1.4,0.8-1.7l1.3-0.6c0.6-0.3,0.8-1,0.4-1.5l-2.4-3.5c-0.5-0.7-0.5-1.6-0.2-2.3
	C389.8,303.9,390,302.5,389.7,301.2z"/>
<path class="st37" d="M370.7,316.6l-3,3.8l-7.1-16.5c-0.6-5,0.9-15.7,11.2-18.7c12.9-3.8,16,2.9,16.5,2.8c0.4,0,1-1,1.3-1.4
	c0.2,0.3,0.1,1.4,0,1.9c0.9-0.7,0.5-2.4,0.1-3.2c5.4,6.6,2.3,10.3,0.1,11.3c-2.2-0.4-7-0.9-8.1,0.9c-1.4,2.2-0.7,1.9-3.5,3.5
	c-2.2,1.3-1.5,6.4-0.9,8.8l1.1,2.5l-3.3-1.5c-0.1-3.6-2.6-5.3-3.8-5.8C367.9,305.6,369.5,313,370.7,316.6z"/>
<path class="st78" d="M396.6,398.3l-8.1-48l-9.2-5l2.1,53.5L396.6,398.3z"/>
<path class="st24" d="M345,415.6c-2.8-47.6,11.4-81,18.9-91.7l2.5-1c31.8,4.8,67-15.9,78.2-19.9l6.9,7.7
	c-41.9,31.2-62.6,41.9-69.2,41.9c5.5,17.3,5,38.7,3.5,50.1c-1.2,9.1-8.1,12.4-11.4,12.9H345z"/>
<path class="st79" d="M42.3,562.8h815.5c2.3,0,4.2,1.9,4.2,4.2l0,0c0,2.3-1.9,4.2-4.2,4.2H42.3c-2.3,0-4.2-1.9-4.2-4.2l0,0
	C38,564.7,39.9,562.8,42.3,562.8z"/>
<g class="st80">
	<path class="st81" d="M75.5,27.2C80,11.5,94.4,0,111.6,0c18.2,0,33.4,13,36.8,30.2c3.1-1.1,6.4-1.6,9.9-1.6
		c16.8,0,30.5,13.6,30.5,30.5c0,14.4-10,26.5-23.5,29.7c-1.5,0.5-3.1,0.8-4.8,0.8H31.8c-8.1,0-14.8-6.6-14.8-14.8
		C17,66.6,23.6,60,31.8,60h8.5c-0.6-2.3-1-4.7-1-7.3c0-15,12.1-27.1,27.1-27.1C69.6,25.6,72.6,26.2,75.5,27.2z"/>
	<path class="st82" d="M113.9,43.7c4.5-15.7,18.9-27.2,36.1-27.2c18.2,0,33.4,13,36.8,30.2c3.1-1.1,6.4-1.6,9.9-1.6
		c16.8,0,30.5,13.6,30.5,30.5c0,14.4-10,26.5-23.5,29.7c-1.5,0.5-3.1,0.8-4.8,0.8H70.1c-8.1,0-14.8-6.6-14.8-14.8S62,76.4,70.1,76.4
		h8.5c-0.6-2.3-1-4.7-1-7.3c0-15,12.1-27.1,27.1-27.1C107.9,42.1,111,42.6,113.9,43.7z"/>
</g>
<rect x="497" y="353.7" class="st83" width="46" height="6.8"/>
</svg>
