<?xml version="1.0" encoding="utf-8"?>
<!-- Generator: Adobe Illustrator 22.0.1, SVG Export Plug-In . SVG Version: 6.00 Build 0)  -->
<svg version="1.1" id="Layer_1" xmlns="http://www.w3.org/2000/svg" xmlns:xlink="http://www.w3.org/1999/xlink" x="0px" y="0px"
	 viewBox="0 0 325 271" style="enable-background:new 0 0 325 271;" xml:space="preserve">
<style type="text/css">
	.st0{fill:#EAEDFE;filter:url(#Adobe_OpacityMaskFilter);}
	.st1{fill:#EAEDFE;}
	.st2{mask:url(#mask0_1_);}
	.st3{fill:#82B7FB;}
	.st4{fill:#3A5CA6;}
	.st5{fill:none;stroke:#3A5CA6;stroke-linecap:round;}
	.st6{fill:none;stroke:#3A5CA6;stroke-width:0.5;stroke-linecap:round;}
	.st7{fill:#FCB435;}
	.st8{fill:#EE9F86;}
	.st9{fill:#393939;}
	.st10{fill:#EDA9A9;}
	.st11{fill:#1D104A;}
	.st12{fill:#EA8F72;}
	.st13{fill:#4885FC;}
	.st14{fill:#212121;}
	.st15{fill:#161616;}
	.st16{fill:#FFFFFF;}
	.st17{fill:#3B7DFD;}
	.st18{fill:#E9941C;}
	.st19{fill:#5A87DF;}
	.st20{fill:none;stroke:#436BAC;}
	.st21{fill:none;stroke:#1F4FAB;}
	.st22{fill:none;stroke:#1E3E75;stroke-width:2;stroke-linejoin:round;}
	.st23{fill:#F5AA45;}
	.st24{fill:#F5AA45;filter:url(#Adobe_OpacityMaskFilter_1_);}
	.st25{mask:url(#mask1_1_);}
	.st26{fill:#C77E1C;}
	.st27{fill:#FFD193;}
	.st28{opacity:0.8;fill:#333333;}
	.st29{fill:#FFFFFF;stroke:#000000;stroke-miterlimit:10;}
	.st30{fill:#FFFFFF;stroke:#000000;stroke-width:0.25;stroke-miterlimit:10;}
	.st31{fill:#EBEEFE;}
	.st32{clip-path:url(#SVGID_2_);fill:#EA8F72;}
	.st33{opacity:0.8;}
	.st34{fill:#FFCDD6;}
	.st35{fill:#B1D7FF;}
	.st36{fill:none;stroke:#FFB800;stroke-width:2;}
	.st37{fill:none;stroke:#B1D7FF;}
	.st38{fill:#FFB800;}
</style>
<defs>
	<filter id="Adobe_OpacityMaskFilter" filterUnits="userSpaceOnUse" x="8" y="25" width="352" height="190">
		<feColorMatrix  type="matrix" values="1 0 0 0 0  0 1 0 0 0  0 0 1 0 0  0 0 0 1 0"/>
	</filter>
</defs>
<mask maskUnits="userSpaceOnUse" x="8" y="25" width="352" height="190" id="mask0_1_">
	<path class="st0" d="M264.4,119.7L264.4,119.7h40.8c10.8,0,19.5-8.7,19.5-19.5c0-10.8-8.7-19.5-19.5-19.5H259
		C246.7,49.8,216.6,28,181.3,28c-22.6,0-43.1,9-58.2,23.6H92c-10.8,0-19.5,8.7-19.5,19.5c0,9.9,7.4,18.1,17,19.4
		c0.7-0.1,1.4-0.2,2.1-0.2h29.2c7.7,0,13.9,6.2,13.9,13.9c0,7.7-6.2,13.9-13.9,13.9h-6.6h-16H51.8c-7.7,0-13.9,6.2-13.9,13.9
		c0,7.7,6.2,13.9,13.9,13.9h53.5c13.1,28.9,42.2,49,76.1,49c14.9,0,28.9-3.9,41-10.8h46.8c7.3,0,13.2-5.9,13.2-13.2
		c0-7.3-5.9-13.2-13.2-13.2h-45.7c-8.1-2.4-14-9.9-14-18.7c0-10.8,8.7-19.5,19.5-19.5H264.4z"/>
	<path class="st1" d="M35.5,52h10.2c9.7,0,17.5,7.8,17.5,17.5l0,0c0,9.7-7.8,17.5-17.5,17.5H35.5C25.8,87,18,79.2,18,69.5l0,0
		C18,59.9,25.8,52,35.5,52z"/>
</mask>
<g class="st2">
	<rect x="8" y="25" class="st1" width="352" height="190"/>
</g>
<path class="st3" d="M212.1,158c3-22.7-10.7-22.7-19.4-19.4c-0.8,0.3-1.6-0.4-1.4-1.2c4.5-20.7,11.6-61.6,7.5-75
	c-4-12.9-19.7-6.7-28.7-1.2c-0.7,0.5-1.7-0.1-1.6-1c3.9-32.1,8.3-57.6-24.2-60.2c-25.9-2.1-28.6,35.3-26.7,55.6
	c0.1,0.7-0.6,1.2-1.3,1.1c-24-5.3-21.5,12.9-17.2,22.9c6.6,21.7,17.8,63.4,9.3,57.1c-8.3-6.2-13.9-2.8-15.8-0.2
	c-0.1,0.1-0.1,0.2-0.1,0.3c-15.8,71.5,42.5,76.8,63.7,76.8C177.6,213.7,208.2,188.5,212.1,158z"/>
<path class="st4" d="M144.5,29.3c1.9,51.7,1.8,172.1,0,230.9l11.9,2.7C152.4,146,143.1-6.6,144.5,29.3z"/>
<path class="st5" d="M153.8,200.4c12.8-8.8,39.8-30.5,45.1-46.4"/>
<path class="st5" d="M147.1,188.5c-10.6-7.1-32.8-24.4-37.2-37.2"/>
<path class="st5" d="M149.8,116.8c12.1-8.1,37.5-27.9,42.5-42.5"/>
<path class="st5" d="M149.8,135.4c-7.5-5.1-36.7-53.3-39.8-62.4"/>
<path class="st6" d="M184.3,146c-0.4,8.8,3.4,25.2,22.6,19.9"/>
<path class="st6" d="M165.7,164.6c-0.4,8.8,3.4,25.2,22.6,19.9"/>
<path class="st6" d="M168.4,77c-0.4,8.8,3.4,25.2,22.6,19.9"/>
<path class="st6" d="M133.8,95.6c0.4,6.7-2.8,19.2-18.5,15.1"/>
<path class="st6" d="M128.5,154c0.4,6.7-2.8,19.2-18.6,15.1"/>
<path class="st7" d="M77.2,169.2c-60.9,21-44.3,71.4-28.4,94H191c18.1-9,58-36,72.3-71.5c18-44.5-1.9-102.3-12.3-117.6
	c-10.4-15.3-25.2-13.1-49.8-8.3S153.3,142.9,77.2,169.2z"/>
<path class="st8" d="M191.8,81.5l0.8-4.1l1.7-3.8c1.1-0.7,5.3-1.8,13.8-0.5c8.5,1.3,5,16.7,2.2,24.3l6.7,2.1
	c-17.1,14.5-25.6,13.7-19.4,3.4c1.2-2,1-1.7,1-3.2c-1.6,0.4-3.2,0.5-4.4,0.3c-2.1-0.4-1.3-2.9-0.6-4.1c-0.6-0.3-0.9-1-0.6-1.6
	l-0.6-0.5c-0.3-0.2-0.4-0.6-0.3-0.9c0.2-0.6-0.1-1.2-0.7-1.5l-1-0.5c-0.5-0.2-0.7-0.8-0.4-1.3l2-3c0.4-0.6,0.5-1.3,0.2-2
	C191.7,83.8,191.5,82.6,191.8,81.5z"/>
<path class="st9" d="M207.8,94.5l2.5,3.2l6-13.9c0.5-4.2-0.7-13.2-9.5-15.8c-10.9-3.2-13.5,2.4-13.9,2.4c-0.3,0-0.9-0.8-1.1-1.2
	c-0.1,0.3-0.1,1.2,0,1.6c-0.8-0.6-0.4-2-0.1-2.7c-4.5,5.6-1.9,8.7-0.1,9.6c1.9-0.4,5.9-0.7,6.9,0.8c1.2,1.9,0.6,1.6,2.9,3
	c1.9,1.1,1.3,5.4,0.8,7.4l-0.9,2.1l2.8-1.2c0.1-3,2.2-4.5,3.2-4.9C210.2,85.2,208.9,91.4,207.8,94.5z"/>
<path class="st10" d="M125.3,260.9l3-11.2l-12.2-3.9l-0.4,14.2L125.3,260.9z"/>
<path class="st11" d="M115.4,258.4c2.4,1,8.1,1.3,10.6,1.3h0.4l0.8,10.8H97.2c-5.8,0-2.9-2.9-0.8-4.3
	C101.9,266.2,111.3,261,115.4,258.4z"/>
<path class="st12" d="M119.9,93c-6.3,4,1.4,13.4,5.6,17.3l6.3-3.4c-1.4-0.9-2-2.8-2.3-4.7c-0.5-2.8-0.6-5.7-1.9-5.5
	c-1.8,0.2-1,1.4-0.9,3.7C124.6,100,121.9,97,119.9,93z"/>
<path class="st13" d="M174.2,110.8c8.1-7.3,19.8-9.6,24.6-9.6c-4.3,0.9-12.8,9.4-12.3,35.6c0.4,26.2-8,43.1-12.3,48.2l-15.5-18.5
	c7.9-2.6,14.6-22.7,16.9-32.4l-21.6,18.1c-1.3,1.1-3,1.7-4.7,1.7c-2.8,0-5.4-1.6-6.6-4.2l-18.4-39l8-4.6l18,30.5
	C154.4,132.9,166,118,174.2,110.8z"/>
<path class="st10" d="M75.5,246.8l8.2-8.2l-8.6-9.4l-7.5,12.1L75.5,246.8z"/>
<path class="st11" d="M68.1,239.6c1.6,2.1,6.4,5.2,8.5,6.4l0.3,0.2l-4.7,9.7l-25.9-15c-5-2.9-1.1-3.9,1.5-4.1
	C52.6,239.6,63.3,239.9,68.1,239.6z"/>
<path class="st14" d="M206.6,182.6l-39.7-19.3l-39.9-5.4l-56.8,76.4l12.1,11.5l56.8-60L206.6,182.6z"/>
<path class="st15" d="M129.7,167.8l48.2,7.8l5.4,19.3l-38.6-4.8l-16.6,66.7l-13.9-3.2L129.7,167.8z"/>
<path class="st16" d="M200.7,109.7c-5.8,1.3-3.7-5.4-1.9-8.6c-4.8,1.8-8.5,5.8-9.9,10.7L173,169.7l27.7-3.5L217,99.5
	C213.5,102.2,206.5,108.4,200.7,109.7z"/>
<path class="st12" d="M146.7,166.3c0.4,7.4,12.3,5.5,17.8,3.8l0.2-7.2c-3.7,1.9-10.1-3.6-11-1.4c-0.7,1.6,0.8,1.6,2.8,2.7
	C155,165.6,151.1,166.5,146.7,166.3z"/>
<path class="st13" d="M211.3,103.7l-2.7,5.8c-2.5,5.3-3.2,11.2-3.2,17c0.2,30-21.2,43.5-32.2,46.8l19.8,28.9
	c11.9-8.5,16.7-27.1,20.4-34.8c3.3-7,13.6-40.3,11.6-62c-0.3-3.5-3.4-5.9-6.9-5.9C215.1,99.4,212.5,101.1,211.3,103.7z"/>
<path class="st17" d="M214.5,161.8c7.1-3.6,11.5-32.8,13.3-52.6c0.5-5.1-3.6-9.4-8.7-9.4c-4.9,0-9.5,3.9-10.1,8.8
	c-0.8,5.9-1.7,14.4-1.7,25.3c0,19.7-29.1,26.8-43.7,27.9v10.4C177,170.5,206.1,166.1,214.5,161.8z"/>
<path class="st18" d="M220.8,157.9c-54.7,5.1-79.1,72.7-89.8,105.3h60c72.7-41,77.4-84.1,79.8-106.5l0-0.4L220.8,157.9z"/>
<path class="st19" d="M12.3,223.8c-2.1,4.3,15.9,8.2,25.1,9.6l0.5-10.7c2.7-13.4,2.7-16.6-0.5-16c-3.2,0.5-5.9,6.9-6.9,3.2
	c-1.1-3.7,6.9-13.4,4.3-20.3c-2.7-6.9-8,4.3-10.2,2.7c-2.1-1.6,1.6-19.8-1.6-20.8c-3.2-1.1-3.7,13.9-4.8,8.6
	c-1.1-5.3-9.6-16.6-16.6-12.3c-6.9,4.3,12.3,15,10.7,17.1C10.7,187,0,180.6,0,187c0,6.4,17.6,8.5,21.4,11.2
	c3.7,2.7-11.8,5.3-15.5,6.9c-3.7,1.6-2.7,7.5,8,8c10.7,0.5,12.8,3.2,13.9,5.9C28.9,221.7,15,218.5,12.3,223.8z"/>
<path class="st20" d="M13.9,180c2.7,2.3,8.5,9.9,10.7,21.9c2.1,12,8.7,23.5,11.8,27.8"/>
<path class="st19" d="M61.7,223.2c2.1,4.3-15.9,8.2-25.1,9.6l-0.5-10.7c-2.7-13.4-2.7-16.6,0.5-16c3.2,0.5,5.9,6.9,6.9,3.2
	c1.1-3.7-6.9-13.4-4.3-20.3c2.7-6.9,8,4.3,10.2,2.7c2.1-1.6-1.6-19.8,1.6-20.8s3.7,13.9,4.8,8.6c1.1-5.3,9.6-16.6,16.6-12.3
	c6.9,4.3-12.3,15-10.7,17.1c1.6,2.1,12.3-4.3,12.3,2.1c0,6.4-17.6,8.5-21.4,11.2c-3.7,2.7,11.8,5.3,15.5,6.9c3.7,1.6,2.7,7.5-8,8
	c-10.7,0.5-12.8,3.2-13.9,5.9C45.1,221,59,217.8,61.7,223.2z"/>
<path class="st21" d="M60.1,179.3c-2.7,2.3-8.5,9.9-10.7,21.9c-2.1,12-8.7,23.5-11.8,27.8"/>
<path class="st3" d="M25.1,212.1c-4.5,0,0.6,8.5,3.6,11.8l8.9,9.5c4.3-1.8,13.5-5.8,15.4-7.7c2.4-2.4-0.6-3-3.6-3.6
	c-2.4-0.5-1-2.6,0-3.6c9.9-2.8,13.2-8.3,13.6-10.7c0-0.6,0-1.8-2.4-3.6c-2.4-1.8-11.8,11.8-11.3,3c0.6-8.9,14.2-19,13.6-23.1
	c-0.6-4.1-3.6,1.2-8.9,4.1c-4.3,2.4-4.1-1.8-3.6-4.1c2.8-3.2,7.9-10.3,6.5-13.6c-1.8-4.1-3,0-7.7,4.1c-4.7,4.1-1.8-4.7-0.6-6.5
	c1.2-1.8,11.8-24.9-7.1-20.7c-19,4.1-7.7,29-7.1,32.6c0.6,3.6-4.1-4.7-11.3-2.4c-7.1,2.4,13,15.4,13,19c0,3.6-7.7-1.8-11.3-2.4
	c-3.6-0.6,3.6,8.3,5.3,13.6c1.4,4.3,0.6,5.3,0,5.3C28.7,214.4,28.7,212.1,25.1,212.1z"/>
<path class="st22" d="M42.9,159.9c-1.2,0.2-3.2,6.9-1.8,32c1.4,25.1-0.6,34.2-1.8,35.5"/>
<path class="st23" d="M23.2,238.4h25.2l-2.7,27.3H25.6L23.2,238.4z"/>
<defs>
	<filter id="Adobe_OpacityMaskFilter_1_" filterUnits="userSpaceOnUse" x="19.8" y="233.7" width="32.1" height="9.6">
		<feColorMatrix  type="matrix" values="1 0 0 0 0  0 1 0 0 0  0 0 1 0 0  0 0 0 1 0"/>
	</filter>
</defs>
<mask maskUnits="userSpaceOnUse" x="19.8" y="233.7" width="32.1" height="9.6" id="mask1_1_">
	<path class="st24" d="M23.2,238.4h25.2l-2.7,27.3H25.6L23.2,238.4z"/>
</mask>
<g class="st25">
	<path class="st26" d="M24.6,233.7h22.5c2.6,0,4.8,2.1,4.8,4.8l0,0c0,2.6-2.1,4.8-4.8,4.8H24.6c-2.6,0-4.8-2.1-4.8-4.8l0,0
		C19.8,235.8,21.9,233.7,24.6,233.7z"/>
</g>
<path class="st23" d="M24.6,230.9h22.5c2.6,0,4.8,2.1,4.8,4.8l0,0c0,2.6-2.1,4.8-4.8,4.8H24.6c-2.6,0-4.8-2.1-4.8-4.8l0,0
	C19.8,233.1,21.9,230.9,24.6,230.9z"/>
<path class="st27" d="M23.9,246.6h23.9l-1,10.9H24.6L23.9,246.6z"/>
<path class="st28" d="M103.4,85.7l11.8,18.6c0.6,0.9,1.8,1.2,2.7,0.7l14.1-8.2c1-0.6,1.3-1.9,0.7-2.8L121,76
	c-0.6-0.9-1.7-1.2-2.6-0.7l-14.2,7.5C103.1,83.4,102.8,84.7,103.4,85.7z"/>
<path class="st29" d="M94.4,101.1"/>
<path class="st30" d="M131.7,96"/>
<path class="st31" d="M104.9,86.1l10.7,16.7c0.6,0.9,1.8,1.2,2.7,0.7l12.4-7.2c1-0.6,1.3-1.9,0.7-2.8l-10.6-16.2
	c-0.6-0.9-1.7-1.2-2.6-0.7l-12.6,6.6C104.6,83.8,104.3,85.1,104.9,86.1z"/>
<g>
	<defs>
		<polygon id="SVGID_1_" points="120.4,91.3 125.8,98.7 126.5,100.2 120.9,106.4 124.6,116.3 134.6,107.3 127.8,94.5 		"/>
	</defs>
	<clipPath id="SVGID_2_">
		<use xlink:href="#SVGID_1_"  style="overflow:visible;"/>
	</clipPath>
	<path class="st32" d="M119.8,93c-6.3,4,1.4,13.4,5.6,17.3l6.3-3.4c-1.4-0.9-2-2.8-2.3-4.7c-0.5-2.8-0.6-5.7-1.9-5.5
		c-1.8,0.2-1,1.4-0.9,3.7C124.5,100,121.8,97,119.8,93z"/>
</g>
<g class="st33">
	<path d="M110.2,84.5l1.4,2.2l-0.4,0.2l-0.6-1l-1.1,0.7l0.6,1l-0.4,0.2l-1.4-2.2l0.4-0.2l0.6,0.9l1.1-0.7l-0.6-0.9L110.2,84.5z"/>
	<path d="M110.5,84.1c0-0.1,0.1-0.1,0.1-0.2c0.1,0,0.1-0.1,0.2,0c0.1,0,0.1,0,0.2,0.1c0,0.1,0,0.1,0,0.2c0,0.1-0.1,0.1-0.1,0.2
		c-0.1,0-0.1,0.1-0.2,0c-0.1,0-0.1,0-0.2-0.1C110.5,84.2,110.5,84.1,110.5,84.1z M111.3,84.5l1.1,1.7l-0.4,0.2l-1.1-1.7L111.3,84.5z
		"/>
	<path d="M112.9,83.7c0.2,0,0.4,0.1,0.5,0.3l-0.3,0.2c-0.1-0.1-0.2-0.1-0.3-0.2c-0.1,0-0.2,0-0.3,0.1c-0.1,0.1-0.1,0.1-0.2,0.2
		c0,0.1,0,0.1,0,0.2c0,0.1,0.1,0.1,0.1,0.1c0.1,0,0.1,0,0.2,0c0.1,0,0.2,0,0.3-0.1c0.1-0.1,0.3-0.1,0.4-0.1c0.1,0,0.2,0,0.3,0
		c0.1,0,0.2,0.1,0.3,0.2c0.1,0.1,0.1,0.3,0.1,0.5c-0.1,0.2-0.2,0.3-0.4,0.4c-0.2,0.1-0.4,0.2-0.6,0.2c-0.2,0-0.4-0.1-0.5-0.3
		l0.4-0.2c0.1,0.1,0.2,0.1,0.3,0.2c0.1,0,0.2,0,0.3-0.1c0.1-0.1,0.1-0.1,0.2-0.2c0-0.1,0-0.1,0-0.2c0-0.1-0.1-0.1-0.1-0.1
		c-0.1,0-0.1,0-0.2,0c-0.1,0-0.2,0-0.3,0.1c-0.1,0.1-0.3,0.1-0.4,0.1c-0.1,0-0.2,0-0.3,0c-0.1,0-0.2-0.1-0.3-0.2
		c-0.1-0.1-0.1-0.3-0.1-0.5c0.1-0.2,0.2-0.3,0.4-0.4C112.5,83.7,112.7,83.7,112.9,83.7z"/>
	<path d="M115.2,84l0.2,0.3l-0.2,0.1c-0.2,0.1-0.4,0.2-0.5,0.1c-0.2,0-0.3-0.1-0.4-0.4l-0.5-0.9l-0.2,0.2l-0.2-0.3l0.2-0.2l-0.3-0.4
		l0.4-0.2l0.3,0.4l0.4-0.3l0.2,0.3l-0.4,0.3l0.5,0.9c0.1,0.1,0.1,0.2,0.2,0.2c0.1,0,0.1,0,0.2-0.1L115.2,84z"/>
	<path d="M115.9,81.7c0.2,0,0.4,0,0.5,0.1c0.2,0.1,0.3,0.2,0.4,0.4c0.1,0.2,0.2,0.4,0.2,0.5c0,0.2,0,0.4-0.1,0.5
		c-0.1,0.2-0.2,0.3-0.4,0.4c-0.2,0.1-0.3,0.2-0.5,0.2c-0.2,0-0.4,0-0.5-0.1c-0.2-0.1-0.3-0.2-0.4-0.4c-0.1-0.2-0.2-0.4-0.2-0.5
		c0-0.2,0-0.4,0.1-0.5c0.1-0.2,0.2-0.3,0.4-0.4C115.5,81.8,115.7,81.7,115.9,81.7z M115.4,82.4c-0.1,0.1-0.1,0.2-0.1,0.3
		c0,0.1,0.1,0.2,0.1,0.4c0.1,0.1,0.2,0.2,0.3,0.3c0.1,0.1,0.2,0.1,0.3,0.1c0.1,0,0.2,0,0.3-0.1c0.1-0.1,0.2-0.1,0.2-0.2
		c0.1-0.1,0.1-0.2,0.1-0.3c0-0.1-0.1-0.2-0.1-0.4c-0.1-0.1-0.2-0.2-0.3-0.3s-0.2-0.1-0.3-0.1c-0.1,0-0.2,0-0.3,0.1
		C115.5,82.2,115.4,82.3,115.4,82.4z"/>
	<path d="M117.3,80.8c0.1-0.1,0.2-0.2,0.3-0.3l0.2,0.4l-0.1,0.1c-0.2,0.1-0.3,0.2-0.3,0.4c0,0.1,0,0.3,0.1,0.5l0.6,0.9l-0.4,0.2
		l-1.1-1.7l0.4-0.2l0.2,0.3C117.2,81.1,117.2,80.9,117.3,80.8z"/>
	<path d="M118.1,80.2l1.3,1l-0.3-1.6l0.4-0.3l0.6,3.2l-0.4,0.3l-0.2-1.1l-1.8-1.2L118.1,80.2z"/>
</g>
<g>
	<path class="st16" d="M111.4,88.9l9.2-5.5c0.2-0.1,0.4-0.1,0.6,0.1l7,11.7c0.1,0.2,0,0.4-0.2,0.5l-9.2,5.5
		c-0.2,0.1-0.4,0.1-0.6-0.1l-7-11.7C111.1,89.3,111.2,89,111.4,88.9z"/>
</g>
<circle class="st34" cx="114.4" cy="90" r="0.5"/>
<path class="st35" d="M115,89.2l3.5-1.9c0.1,0,0.1,0,0.2,0l0,0c0,0.1,0,0.1,0,0.2l-3.5,1.9c-0.1,0-0.1,0-0.2,0l0,0
	C114.9,89.4,114.9,89.3,115,89.2z"/>
<path class="st35" d="M115.2,89.6l1.4-0.8c0.1,0,0.1,0,0.2,0l0,0c0,0.1,0,0.1,0,0.2l-1.4,0.8c-0.1,0-0.1,0-0.2,0l0,0
	C115.1,89.7,115.1,89.6,115.2,89.6z"/>
<path class="st35" d="M114.6,90.9l2-1.1c0,0,0.1,0,0.1,0l0,0c0,0,0,0.1,0,0.1l-2,1.1C114.6,91,114.6,91,114.6,90.9L114.6,90.9
	C114.5,91,114.5,90.9,114.6,90.9z"/>
<path class="st35" d="M114.8,91.2l1.7-1c0,0,0.1,0,0.1,0l0,0c0,0,0,0.1,0,0.1l-1.7,1C114.8,91.4,114.8,91.3,114.8,91.2L114.8,91.2
	C114.7,91.3,114.7,91.3,114.8,91.2z"/>
<path class="st35" d="M114.8,91.5l1.3-0.7c0.1,0,0.1,0,0.2,0l0,0c0,0.1,0,0.1,0,0.2l-1.3,0.7c-0.1,0-0.1,0-0.2,0l0,0
	C114.7,91.6,114.8,91.5,114.8,91.5z"/>
<path class="st35" d="M115,91.8l0.8-0.4c0.1,0,0.1,0,0.2,0l0,0c0,0.1,0,0.1,0,0.2l-0.8,0.4c-0.1,0-0.1,0-0.2,0l0,0
	C114.9,91.9,114.9,91.8,115,91.8z"/>
<path class="st36" d="M119.2,98.6l1.2-2.1l0.1-3l1-4.7"/>
<path class="st37" d="M115.2,92.6l4.1,6.7l6.8-4.1"/>
<circle class="st38" cx="120.5" cy="93.6" r="0.1"/>
<circle class="st38" cx="121.4" cy="88.8" r="0.1"/>
</svg>
