<svg width="1111" height="323" viewBox="0 0 1111 323" fill="none" xmlns="http://www.w3.org/2000/svg">
<path opacity="0.1" d="M1073.38 3H25.6197C12.5749 3 2 10.2025 2 19.0873V298.913C2 307.798 12.5749 315 25.6197 315H1073.38C1086.43 315 1097 307.798 1097 298.913V19.0873C1097 10.2025 1086.43 3 1073.38 3Z" stroke="#080809" stroke-width="3"/>
<g opacity="0.3">
<path opacity="0.3" d="M609.285 145.4V103.76C609.285 98.2228 604.729 93.7188 599.129 93.7188H585.066C583.811 93.7188 582.793 94.7245 582.793 95.9656C582.793 97.2079 583.811 98.2134 585.066 98.2134H599.129C602.222 98.2134 604.739 100.701 604.739 103.76V145.4C604.739 148.459 602.222 150.946 599.129 150.946H530.654V98.2134H575.973C577.228 98.2134 578.247 97.2079 578.247 95.9656C578.247 94.7245 577.228 93.7188 575.973 93.7188H522.492C516.89 93.7188 512.334 98.2228 512.334 103.76V145.4C512.334 150.938 516.89 155.443 522.492 155.443H599.129C604.729 155.443 609.285 150.938 609.285 145.4ZM526.108 150.946H522.492C519.398 150.946 516.881 148.459 516.881 145.4V103.76C516.881 100.701 519.398 98.2134 522.492 98.2134H526.108V150.946Z" fill="#09090A"/>
<path opacity="0.3" d="M595.682 104.232H536.576C535.322 104.232 534.305 105.238 534.305 106.48C534.305 107.721 535.322 108.726 536.576 108.726H595.682C596.936 108.726 597.953 107.721 597.953 106.48C597.953 105.238 596.936 104.232 595.682 104.232Z" fill="#09090A"/>
<path opacity="0.3" d="M595.682 116.299H536.576C535.322 116.299 534.305 117.304 534.305 118.547C534.305 119.789 535.322 120.794 536.576 120.794H595.682C596.936 120.794 597.953 119.789 597.953 118.547C597.953 117.304 596.936 116.299 595.682 116.299Z" fill="#09090A"/>
<path opacity="0.3" d="M595.682 128.363H536.576C535.322 128.363 534.305 129.371 534.305 130.611C534.305 131.853 535.322 132.86 536.576 132.86H595.682C596.936 132.86 597.953 131.853 597.953 130.611C597.953 129.371 596.936 128.363 595.682 128.363Z" fill="#09090A"/>
<path opacity="0.3" d="M595.682 140.432H536.576C535.322 140.432 534.305 141.437 534.305 142.68C534.305 143.921 535.322 144.926 536.576 144.926H595.682C596.936 144.926 597.953 143.921 597.953 142.68C597.953 141.437 596.936 140.432 595.682 140.432Z" fill="#09090A"/>
<path opacity="0.3" d="M485.723 126.906H507.203C508.458 126.906 509.476 125.9 509.476 124.658C509.476 123.416 508.458 122.41 507.203 122.41H485.723C482.648 122.41 480.147 119.937 480.147 116.899V76.6688C480.147 73.6297 482.648 71.1568 485.723 71.1568C486.979 71.1568 487.997 70.1511 487.997 68.9089C487.997 67.6677 486.979 66.6621 485.723 66.6621C480.142 66.6621 475.602 71.151 475.602 76.6688V116.899C475.602 122.417 480.142 126.906 485.723 126.906Z" fill="#09090A"/>
<path opacity="0.3" d="M500.447 87.0588H572.824C577.955 87.0588 582.126 82.9342 582.126 77.8629V65.3206C582.126 64.0795 581.109 63.0727 579.853 63.0727C578.597 63.0727 577.58 64.0795 577.58 65.3206V77.8629C577.58 80.4552 575.447 82.564 572.824 82.564H500.447C497.826 82.564 495.694 80.4552 495.694 77.8629V59.1394C495.694 56.5469 497.826 54.4381 500.447 54.4381H572.824C574.731 54.4381 576.449 55.5587 577.199 57.2916C577.692 58.4329 579.031 58.9619 580.184 58.4735C581.339 57.9841 581.873 56.6641 581.378 55.5226C579.911 52.1334 576.554 49.9434 572.824 49.9434H500.447C495.319 49.9434 491.146 54.0681 491.146 59.1394V77.8629C491.146 82.9342 495.319 87.0588 500.447 87.0588Z" fill="#09090A"/>
<path opacity="0.3" d="M567.308 71.8691H505.965C504.71 71.8691 503.692 72.8748 503.692 74.1159C503.692 75.3583 504.71 76.3639 505.965 76.3639H567.308C568.564 76.3639 569.583 75.3583 569.583 74.1159C569.583 72.8748 568.564 71.8691 567.308 71.8691Z" fill="#09090A"/>
<path opacity="0.3" d="M567.308 60.6387H505.965C504.71 60.6387 503.692 61.6444 503.692 62.8866C503.692 64.1279 504.71 65.1334 505.965 65.1334H567.308C568.564 65.1334 569.583 64.1279 569.583 62.8866C569.583 61.6444 568.564 60.6387 567.308 60.6387Z" fill="#09090A"/>
<path opacity="0.3" d="M563.176 185.178H488.511C487.255 185.178 486.238 186.185 486.238 187.427C486.238 188.667 487.255 189.674 488.511 189.674H563.174C564.43 189.674 565.449 188.667 565.449 187.427C565.449 186.185 564.432 185.178 563.176 185.178Z" fill="#09090A"/>
<path opacity="0.3" d="M563.176 173.949H488.511C487.255 173.949 486.238 174.954 486.238 176.194C486.238 177.436 487.255 178.442 488.511 178.442H563.174C564.43 178.442 565.449 177.436 565.449 176.194C565.449 174.954 564.432 173.949 563.176 173.949Z" fill="#09090A"/>
<path opacity="0.3" d="M615.381 118.607C614.126 118.607 613.108 119.612 613.108 120.854C613.108 122.096 614.126 123.101 615.381 123.101C618.227 123.101 620.542 125.391 620.542 128.206V174.459C620.542 177.274 618.227 179.563 615.381 179.563H604.847C603.592 179.563 602.575 180.569 602.575 181.81C602.575 183.051 603.592 184.057 604.847 184.057H615.381C620.734 184.057 625.088 179.752 625.088 174.459V128.206C625.088 122.913 620.734 118.607 615.381 118.607Z" fill="#09090A"/>
<path opacity="0.3" d="M587.34 161.645H542.899C541.643 161.645 540.625 162.651 540.625 163.894C540.625 165.134 541.643 166.141 542.899 166.141H587.34C591.126 166.141 594.206 169.186 594.206 172.929V190.695C594.206 194.438 591.126 197.483 587.34 197.483H485.411C481.626 197.483 478.546 194.438 478.546 190.695V172.929C478.546 169.186 481.626 166.141 485.411 166.141H533.805C535.061 166.141 536.08 165.134 536.08 163.894C536.08 162.651 535.061 161.645 533.805 161.645H485.411C479.119 161.645 474 166.708 474 172.929V190.695C474 196.916 479.119 201.978 485.411 201.978H587.34C593.632 201.978 598.753 196.916 598.753 190.695V172.929C598.753 166.708 593.632 161.645 587.34 161.645Z" fill="#09090A"/>
</g>
<path d="M579.834 186.063C579.834 184.878 579.978 183.935 580.265 183.232C580.553 182.53 581.078 181.84 581.84 181.163C582.61 180.477 583.122 179.923 583.376 179.5C583.63 179.068 583.757 178.615 583.757 178.141C583.757 176.711 583.096 175.996 581.776 175.996C581.15 175.996 580.646 176.19 580.265 176.58C579.893 176.961 579.698 177.49 579.681 178.167H576C576.017 176.55 576.537 175.285 577.561 174.371C578.594 173.457 579.999 173 581.776 173C583.57 173 584.963 173.436 585.953 174.307C586.943 175.171 587.438 176.394 587.438 177.976C587.438 178.696 587.277 179.377 586.956 180.02C586.634 180.655 586.071 181.362 585.267 182.14L584.239 183.118C583.596 183.736 583.228 184.459 583.134 185.289L583.084 186.063H579.834ZM579.465 189.961C579.465 189.394 579.656 188.928 580.037 188.564C580.426 188.192 580.921 188.006 581.522 188.006C582.123 188.006 582.614 188.192 582.995 188.564C583.384 188.928 583.579 189.394 583.579 189.961C583.579 190.519 583.388 190.981 583.007 191.344C582.635 191.708 582.14 191.89 581.522 191.89C580.904 191.89 580.405 191.708 580.024 191.344C579.652 190.981 579.465 190.519 579.465 189.961Z" fill="#D1D1D1"/>
<path d="M360.17 244.454L356.084 252.266V257H354.446V252.266L350.342 244.454H352.16L355.256 250.808L358.352 244.454H360.17ZM366.2 257.162C365.276 257.162 364.436 256.952 363.68 256.532C362.936 256.112 362.348 255.518 361.916 254.75C361.496 253.97 361.286 253.07 361.286 252.05C361.286 251.042 361.502 250.154 361.934 249.386C362.378 248.606 362.978 248.012 363.734 247.604C364.49 247.184 365.336 246.974 366.272 246.974C367.208 246.974 368.054 247.184 368.81 247.604C369.566 248.012 370.16 248.6 370.592 249.368C371.036 250.136 371.258 251.03 371.258 252.05C371.258 253.07 371.03 253.97 370.574 254.75C370.13 255.518 369.524 256.112 368.756 256.532C367.988 256.952 367.136 257.162 366.2 257.162ZM366.2 255.722C366.788 255.722 367.34 255.584 367.856 255.308C368.372 255.032 368.786 254.618 369.098 254.066C369.422 253.514 369.584 252.842 369.584 252.05C369.584 251.258 369.428 250.586 369.116 250.034C368.804 249.482 368.396 249.074 367.892 248.81C367.388 248.534 366.842 248.396 366.254 248.396C365.654 248.396 365.102 248.534 364.598 248.81C364.106 249.074 363.71 249.482 363.41 250.034C363.11 250.586 362.96 251.258 362.96 252.05C362.96 252.854 363.104 253.532 363.392 254.084C363.692 254.636 364.088 255.05 364.58 255.326C365.072 255.59 365.612 255.722 366.2 255.722ZM382.159 247.136V257H380.521V255.542C380.209 256.046 379.771 256.442 379.207 256.73C378.655 257.006 378.043 257.144 377.371 257.144C376.603 257.144 375.913 256.988 375.301 256.676C374.689 256.352 374.203 255.872 373.843 255.236C373.495 254.6 373.321 253.826 373.321 252.914V247.136H374.941V252.698C374.941 253.67 375.187 254.42 375.679 254.948C376.171 255.464 376.843 255.722 377.695 255.722C378.571 255.722 379.261 255.452 379.765 254.912C380.269 254.372 380.521 253.586 380.521 252.554V247.136H382.159ZM389.112 252.032C389.112 251.024 389.316 250.142 389.724 249.386C390.132 248.618 390.69 248.024 391.398 247.604C392.118 247.184 392.916 246.974 393.792 246.974C394.656 246.974 395.406 247.16 396.042 247.532C396.678 247.904 397.152 248.372 397.464 248.936V247.136H399.12V257H397.464V255.164C397.14 255.74 396.654 256.22 396.006 256.604C395.37 256.976 394.626 257.162 393.774 257.162C392.898 257.162 392.106 256.946 391.398 256.514C390.69 256.082 390.132 255.476 389.724 254.696C389.316 253.916 389.112 253.028 389.112 252.032ZM397.464 252.05C397.464 251.306 397.314 250.658 397.014 250.106C396.714 249.554 396.306 249.134 395.79 248.846C395.286 248.546 394.728 248.396 394.116 248.396C393.504 248.396 392.946 248.54 392.442 248.828C391.938 249.116 391.536 249.536 391.236 250.088C390.936 250.64 390.786 251.288 390.786 252.032C390.786 252.788 390.936 253.448 391.236 254.012C391.536 254.564 391.938 254.99 392.442 255.29C392.946 255.578 393.504 255.722 394.116 255.722C394.728 255.722 395.286 255.578 395.79 255.29C396.306 254.99 396.714 254.564 397.014 254.012C397.314 253.448 397.464 252.794 397.464 252.05ZM403.526 248.738C403.814 248.174 404.222 247.736 404.75 247.424C405.29 247.112 405.944 246.956 406.712 246.956V248.648H406.28C404.444 248.648 403.526 249.644 403.526 251.636V257H401.888V247.136H403.526V248.738ZM417.603 251.69C417.603 252.002 417.585 252.332 417.549 252.68H409.665C409.725 253.652 410.055 254.414 410.655 254.966C411.267 255.506 412.005 255.776 412.869 255.776C413.577 255.776 414.165 255.614 414.633 255.29C415.113 254.954 415.449 254.51 415.641 253.958H417.405C417.141 254.906 416.613 255.68 415.821 256.28C415.029 256.868 414.045 257.162 412.869 257.162C411.933 257.162 411.093 256.952 410.349 256.532C409.617 256.112 409.041 255.518 408.621 254.75C408.201 253.97 407.991 253.07 407.991 252.05C407.991 251.03 408.195 250.136 408.603 249.368C409.011 248.6 409.581 248.012 410.313 247.604C411.057 247.184 411.909 246.974 412.869 246.974C413.805 246.974 414.633 247.178 415.353 247.586C416.073 247.994 416.625 248.558 417.009 249.278C417.405 249.986 417.603 250.79 417.603 251.69ZM415.911 251.348C415.911 250.724 415.773 250.19 415.497 249.746C415.221 249.29 414.843 248.948 414.363 248.72C413.895 248.48 413.373 248.36 412.797 248.36C411.969 248.36 411.261 248.624 410.673 249.152C410.097 249.68 409.767 250.412 409.683 251.348H415.911ZM429.37 246.956C430.57 246.956 431.542 247.322 432.286 248.054C433.03 248.774 433.402 249.818 433.402 251.186V257H431.782V251.42C431.782 250.436 431.536 249.686 431.044 249.17C430.552 248.642 429.88 248.378 429.028 248.378C428.164 248.378 427.474 248.648 426.958 249.188C426.454 249.728 426.202 250.514 426.202 251.546V257H424.564V247.136H426.202V248.54C426.526 248.036 426.964 247.646 427.516 247.37C428.08 247.094 428.698 246.956 429.37 246.956ZM440.379 257.162C439.455 257.162 438.615 256.952 437.859 256.532C437.115 256.112 436.527 255.518 436.095 254.75C435.675 253.97 435.465 253.07 435.465 252.05C435.465 251.042 435.681 250.154 436.113 249.386C436.557 248.606 437.157 248.012 437.913 247.604C438.669 247.184 439.515 246.974 440.451 246.974C441.387 246.974 442.233 247.184 442.989 247.604C443.745 248.012 444.339 248.6 444.771 249.368C445.215 250.136 445.437 251.03 445.437 252.05C445.437 253.07 445.209 253.97 444.753 254.75C444.309 255.518 443.703 256.112 442.935 256.532C442.167 256.952 441.315 257.162 440.379 257.162ZM440.379 255.722C440.967 255.722 441.519 255.584 442.035 255.308C442.551 255.032 442.965 254.618 443.277 254.066C443.601 253.514 443.763 252.842 443.763 252.05C443.763 251.258 443.607 250.586 443.295 250.034C442.983 249.482 442.575 249.074 442.071 248.81C441.567 248.534 441.021 248.396 440.433 248.396C439.833 248.396 439.281 248.534 438.777 248.81C438.285 249.074 437.889 249.482 437.589 250.034C437.289 250.586 437.139 251.258 437.139 252.05C437.139 252.854 437.283 253.532 437.571 254.084C437.871 254.636 438.267 255.05 438.759 255.326C439.251 255.59 439.791 255.722 440.379 255.722ZM449.589 248.486V254.3C449.589 254.78 449.691 255.122 449.895 255.326C450.099 255.518 450.453 255.614 450.957 255.614H452.163V257H450.687C449.775 257 449.091 256.79 448.635 256.37C448.179 255.95 447.951 255.26 447.951 254.3V248.486H446.673V247.136H447.951V244.652H449.589V247.136H452.163V248.486H449.589ZM458.335 252.032C458.335 251.024 458.539 250.142 458.947 249.386C459.355 248.618 459.913 248.024 460.621 247.604C461.341 247.184 462.139 246.974 463.015 246.974C463.879 246.974 464.629 247.16 465.265 247.532C465.901 247.904 466.375 248.372 466.687 248.936V247.136H468.343V257H466.687V255.164C466.363 255.74 465.877 256.22 465.229 256.604C464.593 256.976 463.849 257.162 462.997 257.162C462.121 257.162 461.329 256.946 460.621 256.514C459.913 256.082 459.355 255.476 458.947 254.696C458.539 253.916 458.335 253.028 458.335 252.032ZM466.687 252.05C466.687 251.306 466.537 250.658 466.237 250.106C465.937 249.554 465.529 249.134 465.013 248.846C464.509 248.546 463.951 248.396 463.339 248.396C462.727 248.396 462.169 248.54 461.665 248.828C461.161 249.116 460.759 249.536 460.459 250.088C460.159 250.64 460.009 251.288 460.009 252.032C460.009 252.788 460.159 253.448 460.459 254.012C460.759 254.564 461.161 254.99 461.665 255.29C462.169 255.578 462.727 255.722 463.339 255.722C463.951 255.722 464.509 255.578 465.013 255.29C465.529 254.99 465.937 254.564 466.237 254.012C466.537 253.448 466.687 252.794 466.687 252.05ZM474.603 257.162C473.847 257.162 473.169 257.036 472.569 256.784C471.969 256.52 471.495 256.16 471.147 255.704C470.799 255.236 470.607 254.702 470.571 254.102H472.263C472.311 254.594 472.539 254.996 472.947 255.308C473.367 255.62 473.913 255.776 474.585 255.776C475.209 255.776 475.701 255.638 476.061 255.362C476.421 255.086 476.601 254.738 476.601 254.318C476.601 253.886 476.409 253.568 476.025 253.364C475.641 253.148 475.047 252.938 474.243 252.734C473.511 252.542 472.911 252.35 472.443 252.158C471.987 251.954 471.591 251.66 471.255 251.276C470.931 250.88 470.769 250.364 470.769 249.728C470.769 249.224 470.919 248.762 471.219 248.342C471.519 247.922 471.945 247.592 472.497 247.352C473.049 247.1 473.679 246.974 474.387 246.974C475.479 246.974 476.361 247.25 477.033 247.802C477.705 248.354 478.065 249.11 478.113 250.07H476.475C476.439 249.554 476.229 249.14 475.845 248.828C475.473 248.516 474.969 248.36 474.333 248.36C473.745 248.36 473.277 248.486 472.929 248.738C472.581 248.99 472.407 249.32 472.407 249.728C472.407 250.052 472.509 250.322 472.713 250.538C472.929 250.742 473.193 250.91 473.505 251.042C473.829 251.162 474.273 251.3 474.837 251.456C475.545 251.648 476.121 251.84 476.565 252.032C477.009 252.212 477.387 252.488 477.699 252.86C478.023 253.232 478.191 253.718 478.203 254.318C478.203 254.858 478.053 255.344 477.753 255.776C477.453 256.208 477.027 256.55 476.475 256.802C475.935 257.042 475.311 257.162 474.603 257.162ZM484.007 257.162C483.251 257.162 482.573 257.036 481.973 256.784C481.373 256.52 480.899 256.16 480.551 255.704C480.203 255.236 480.011 254.702 479.975 254.102H481.667C481.715 254.594 481.943 254.996 482.351 255.308C482.771 255.62 483.317 255.776 483.989 255.776C484.613 255.776 485.105 255.638 485.465 255.362C485.825 255.086 486.005 254.738 486.005 254.318C486.005 253.886 485.813 253.568 485.429 253.364C485.045 253.148 484.451 252.938 483.647 252.734C482.915 252.542 482.315 252.35 481.847 252.158C481.391 251.954 480.995 251.66 480.659 251.276C480.335 250.88 480.173 250.364 480.173 249.728C480.173 249.224 480.323 248.762 480.623 248.342C480.923 247.922 481.349 247.592 481.901 247.352C482.453 247.1 483.083 246.974 483.791 246.974C484.883 246.974 485.765 247.25 486.437 247.802C487.109 248.354 487.469 249.11 487.517 250.07H485.879C485.843 249.554 485.633 249.14 485.249 248.828C484.877 248.516 484.373 248.36 483.737 248.36C483.149 248.36 482.681 248.486 482.333 248.738C481.985 248.99 481.811 249.32 481.811 249.728C481.811 250.052 481.913 250.322 482.117 250.538C482.333 250.742 482.597 250.91 482.909 251.042C483.233 251.162 483.677 251.3 484.241 251.456C484.949 251.648 485.525 251.84 485.969 252.032C486.413 252.212 486.791 252.488 487.103 252.86C487.427 253.232 487.595 253.718 487.607 254.318C487.607 254.858 487.457 255.344 487.157 255.776C486.857 256.208 486.431 256.55 485.879 256.802C485.339 257.042 484.715 257.162 484.007 257.162ZM490.765 245.534C490.453 245.534 490.189 245.426 489.973 245.21C489.757 244.994 489.649 244.73 489.649 244.418C489.649 244.106 489.757 243.842 489.973 243.626C490.189 243.41 490.453 243.302 490.765 243.302C491.065 243.302 491.317 243.41 491.521 243.626C491.737 243.842 491.845 244.106 491.845 244.418C491.845 244.73 491.737 244.994 491.521 245.21C491.317 245.426 491.065 245.534 490.765 245.534ZM491.557 247.136V257H489.919V247.136H491.557ZM498.417 246.974C499.269 246.974 500.013 247.16 500.649 247.532C501.297 247.904 501.777 248.372 502.089 248.936V247.136H503.745V257.216C503.745 258.116 503.553 258.914 503.169 259.61C502.785 260.318 502.233 260.87 501.513 261.266C500.805 261.662 499.977 261.86 499.029 261.86C497.733 261.86 496.653 261.554 495.789 260.942C494.925 260.33 494.415 259.496 494.259 258.44H495.879C496.059 259.04 496.431 259.52 496.995 259.88C497.559 260.252 498.237 260.438 499.029 260.438C499.929 260.438 500.661 260.156 501.225 259.592C501.801 259.028 502.089 258.236 502.089 257.216V255.146C501.765 255.722 501.285 256.202 500.649 256.586C500.013 256.97 499.269 257.162 498.417 257.162C497.541 257.162 496.743 256.946 496.023 256.514C495.315 256.082 494.757 255.476 494.349 254.696C493.941 253.916 493.737 253.028 493.737 252.032C493.737 251.024 493.941 250.142 494.349 249.386C494.757 248.618 495.315 248.024 496.023 247.604C496.743 247.184 497.541 246.974 498.417 246.974ZM502.089 252.05C502.089 251.306 501.939 250.658 501.639 250.106C501.339 249.554 500.931 249.134 500.415 248.846C499.911 248.546 499.353 248.396 498.741 248.396C498.129 248.396 497.571 248.54 497.067 248.828C496.563 249.116 496.161 249.536 495.861 250.088C495.561 250.64 495.411 251.288 495.411 252.032C495.411 252.788 495.561 253.448 495.861 254.012C496.161 254.564 496.563 254.99 497.067 255.29C497.571 255.578 498.129 255.722 498.741 255.722C499.353 255.722 499.911 255.578 500.415 255.29C500.931 254.99 501.339 254.564 501.639 254.012C501.939 253.448 502.089 252.794 502.089 252.05ZM511.319 246.956C512.519 246.956 513.491 247.322 514.235 248.054C514.979 248.774 515.351 249.818 515.351 251.186V257H513.731V251.42C513.731 250.436 513.485 249.686 512.993 249.17C512.501 248.642 511.829 248.378 510.977 248.378C510.113 248.378 509.423 248.648 508.907 249.188C508.403 249.728 508.151 250.514 508.151 251.546V257H506.513V247.136H508.151V248.54C508.475 248.036 508.913 247.646 509.465 247.37C510.029 247.094 510.647 246.956 511.319 246.956ZM527.027 251.69C527.027 252.002 527.009 252.332 526.973 252.68H519.089C519.149 253.652 519.479 254.414 520.079 254.966C520.691 255.506 521.429 255.776 522.293 255.776C523.001 255.776 523.589 255.614 524.057 255.29C524.537 254.954 524.873 254.51 525.065 253.958H526.829C526.565 254.906 526.037 255.68 525.245 256.28C524.453 256.868 523.469 257.162 522.293 257.162C521.357 257.162 520.517 256.952 519.773 256.532C519.041 256.112 518.465 255.518 518.045 254.75C517.625 253.97 517.415 253.07 517.415 252.05C517.415 251.03 517.619 250.136 518.027 249.368C518.435 248.6 519.005 248.012 519.737 247.604C520.481 247.184 521.333 246.974 522.293 246.974C523.229 246.974 524.057 247.178 524.777 247.586C525.497 247.994 526.049 248.558 526.433 249.278C526.829 249.986 527.027 250.79 527.027 251.69ZM525.335 251.348C525.335 250.724 525.197 250.19 524.921 249.746C524.645 249.29 524.267 248.948 523.787 248.72C523.319 248.48 522.797 248.36 522.221 248.36C521.393 248.36 520.685 248.624 520.097 249.152C519.521 249.68 519.191 250.412 519.107 251.348H525.335ZM528.577 252.032C528.577 251.024 528.781 250.142 529.189 249.386C529.597 248.618 530.155 248.024 530.863 247.604C531.583 247.184 532.387 246.974 533.275 246.974C534.043 246.974 534.757 247.154 535.417 247.514C536.077 247.862 536.581 248.324 536.929 248.9V243.68H538.585V257H536.929V255.146C536.605 255.734 536.125 256.22 535.489 256.604C534.853 256.976 534.109 257.162 533.257 257.162C532.381 257.162 531.583 256.946 530.863 256.514C530.155 256.082 529.597 255.476 529.189 254.696C528.781 253.916 528.577 253.028 528.577 252.032ZM536.929 252.05C536.929 251.306 536.779 250.658 536.479 250.106C536.179 249.554 535.771 249.134 535.255 248.846C534.751 248.546 534.193 248.396 533.581 248.396C532.969 248.396 532.411 248.54 531.907 248.828C531.403 249.116 531.001 249.536 530.701 250.088C530.401 250.64 530.251 251.288 530.251 252.032C530.251 252.788 530.401 253.448 530.701 254.012C531.001 254.564 531.403 254.99 531.907 255.29C532.411 255.578 532.969 255.722 533.581 255.722C534.193 255.722 534.751 255.578 535.255 255.29C535.771 254.99 536.179 254.564 536.479 254.012C536.779 253.448 536.929 252.794 536.929 252.05ZM548.15 248.486V254.3C548.15 254.78 548.252 255.122 548.456 255.326C548.66 255.518 549.014 255.614 549.518 255.614H550.724V257H549.248C548.336 257 547.652 256.79 547.196 256.37C546.74 255.95 546.512 255.26 546.512 254.3V248.486H545.234V247.136H546.512V244.652H548.15V247.136H550.724V248.486H548.15ZM557.01 257.162C556.086 257.162 555.246 256.952 554.49 256.532C553.746 256.112 553.158 255.518 552.726 254.75C552.306 253.97 552.096 253.07 552.096 252.05C552.096 251.042 552.312 250.154 552.744 249.386C553.188 248.606 553.788 248.012 554.544 247.604C555.3 247.184 556.146 246.974 557.082 246.974C558.018 246.974 558.864 247.184 559.62 247.604C560.376 248.012 560.97 248.6 561.402 249.368C561.846 250.136 562.068 251.03 562.068 252.05C562.068 253.07 561.84 253.97 561.384 254.75C560.94 255.518 560.334 256.112 559.566 256.532C558.798 256.952 557.946 257.162 557.01 257.162ZM557.01 255.722C557.598 255.722 558.15 255.584 558.666 255.308C559.182 255.032 559.596 254.618 559.908 254.066C560.232 253.514 560.394 252.842 560.394 252.05C560.394 251.258 560.238 250.586 559.926 250.034C559.614 249.482 559.206 249.074 558.702 248.81C558.198 248.534 557.652 248.396 557.064 248.396C556.464 248.396 555.912 248.534 555.408 248.81C554.916 249.074 554.52 249.482 554.22 250.034C553.92 250.586 553.77 251.258 553.77 252.05C553.77 252.854 553.914 253.532 554.202 254.084C554.502 254.636 554.898 255.05 555.39 255.326C555.882 255.59 556.422 255.722 557.01 255.722ZM568.409 252.032C568.409 251.024 568.613 250.142 569.021 249.386C569.429 248.618 569.987 248.024 570.695 247.604C571.415 247.184 572.213 246.974 573.089 246.974C573.953 246.974 574.703 247.16 575.339 247.532C575.975 247.904 576.449 248.372 576.761 248.936V247.136H578.417V257H576.761V255.164C576.437 255.74 575.951 256.22 575.303 256.604C574.667 256.976 573.923 257.162 573.071 257.162C572.195 257.162 571.403 256.946 570.695 256.514C569.987 256.082 569.429 255.476 569.021 254.696C568.613 253.916 568.409 253.028 568.409 252.032ZM576.761 252.05C576.761 251.306 576.611 250.658 576.311 250.106C576.011 249.554 575.603 249.134 575.087 248.846C574.583 248.546 574.025 248.396 573.413 248.396C572.801 248.396 572.243 248.54 571.739 248.828C571.235 249.116 570.833 249.536 570.533 250.088C570.233 250.64 570.083 251.288 570.083 252.032C570.083 252.788 570.233 253.448 570.533 254.012C570.833 254.564 571.235 254.99 571.739 255.29C572.243 255.578 572.801 255.722 573.413 255.722C574.025 255.722 574.583 255.578 575.087 255.29C575.603 254.99 576.011 254.564 576.311 254.012C576.611 253.448 576.761 252.794 576.761 252.05ZM585.991 246.956C587.191 246.956 588.163 247.322 588.907 248.054C589.651 248.774 590.023 249.818 590.023 251.186V257H588.403V251.42C588.403 250.436 588.157 249.686 587.665 249.17C587.173 248.642 586.501 248.378 585.649 248.378C584.785 248.378 584.095 248.648 583.579 249.188C583.075 249.728 582.823 250.514 582.823 251.546V257H581.185V247.136H582.823V248.54C583.147 248.036 583.585 247.646 584.137 247.37C584.701 247.094 585.319 246.956 585.991 246.956ZM601.195 247.136L595.255 261.644H593.562L595.507 256.892L591.529 247.136H593.347L596.443 255.128L599.503 247.136H601.195ZM620.78 247.136L617.702 257H616.01L613.634 249.17L611.258 257H609.566L606.47 247.136H608.144L610.412 255.416L612.86 247.136H614.534L616.928 255.434L619.16 247.136H620.78ZM626.708 257.162C625.784 257.162 624.944 256.952 624.188 256.532C623.444 256.112 622.856 255.518 622.424 254.75C622.004 253.97 621.794 253.07 621.794 252.05C621.794 251.042 622.01 250.154 622.442 249.386C622.886 248.606 623.486 248.012 624.242 247.604C624.998 247.184 625.844 246.974 626.78 246.974C627.716 246.974 628.562 247.184 629.318 247.604C630.074 248.012 630.668 248.6 631.1 249.368C631.544 250.136 631.766 251.03 631.766 252.05C631.766 253.07 631.538 253.97 631.082 254.75C630.638 255.518 630.032 256.112 629.264 256.532C628.496 256.952 627.644 257.162 626.708 257.162ZM626.708 255.722C627.296 255.722 627.848 255.584 628.364 255.308C628.88 255.032 629.294 254.618 629.606 254.066C629.93 253.514 630.092 252.842 630.092 252.05C630.092 251.258 629.936 250.586 629.624 250.034C629.312 249.482 628.904 249.074 628.4 248.81C627.896 248.534 627.35 248.396 626.762 248.396C626.162 248.396 625.61 248.534 625.106 248.81C624.614 249.074 624.218 249.482 623.918 250.034C623.618 250.586 623.468 251.258 623.468 252.05C623.468 252.854 623.612 253.532 623.9 254.084C624.2 254.636 624.596 255.05 625.088 255.326C625.58 255.59 626.12 255.722 626.708 255.722ZM635.557 248.738C635.845 248.174 636.253 247.736 636.781 247.424C637.321 247.112 637.975 246.956 638.743 246.956V248.648H638.311C636.475 248.648 635.557 249.644 635.557 251.636V257H633.919V247.136H635.557V248.738ZM646.142 257L642.272 252.644V257H640.634V243.68H642.272V251.51L646.07 247.136H648.356L643.712 252.05L648.374 257H646.142ZM653.912 248.486H651.842V257H650.204V248.486H648.926V247.136H650.204V246.434C650.204 245.33 650.486 244.526 651.05 244.022C651.626 243.506 652.544 243.248 653.804 243.248V244.616C653.084 244.616 652.574 244.76 652.274 245.048C651.986 245.324 651.842 245.786 651.842 246.434V247.136H653.912V248.486ZM657.46 243.68V257H655.822V243.68H657.46ZM664.553 257.162C663.629 257.162 662.789 256.952 662.033 256.532C661.289 256.112 660.701 255.518 660.269 254.75C659.849 253.97 659.639 253.07 659.639 252.05C659.639 251.042 659.855 250.154 660.287 249.386C660.731 248.606 661.331 248.012 662.087 247.604C662.843 247.184 663.689 246.974 664.625 246.974C665.561 246.974 666.407 247.184 667.163 247.604C667.919 248.012 668.513 248.6 668.945 249.368C669.389 250.136 669.611 251.03 669.611 252.05C669.611 253.07 669.383 253.97 668.927 254.75C668.483 255.518 667.877 256.112 667.109 256.532C666.341 256.952 665.489 257.162 664.553 257.162ZM664.553 255.722C665.141 255.722 665.693 255.584 666.209 255.308C666.725 255.032 667.139 254.618 667.451 254.066C667.775 253.514 667.937 252.842 667.937 252.05C667.937 251.258 667.781 250.586 667.469 250.034C667.157 249.482 666.749 249.074 666.245 248.81C665.741 248.534 665.195 248.396 664.607 248.396C664.007 248.396 663.455 248.534 662.951 248.81C662.459 249.074 662.063 249.482 661.763 250.034C661.463 250.586 661.313 251.258 661.313 252.05C661.313 252.854 661.457 253.532 661.745 254.084C662.045 254.636 662.441 255.05 662.933 255.326C663.425 255.59 663.965 255.722 664.553 255.722ZM684.905 247.136L681.827 257H680.135L677.759 249.17L675.383 257H673.691L670.595 247.136H672.269L674.537 255.416L676.985 247.136H678.659L681.053 255.434L683.285 247.136H684.905ZM690.023 257.162C689.267 257.162 688.589 257.036 687.989 256.784C687.389 256.52 686.915 256.16 686.567 255.704C686.219 255.236 686.027 254.702 685.991 254.102H687.683C687.731 254.594 687.959 254.996 688.367 255.308C688.787 255.62 689.333 255.776 690.005 255.776C690.629 255.776 691.121 255.638 691.481 255.362C691.841 255.086 692.021 254.738 692.021 254.318C692.021 253.886 691.829 253.568 691.445 253.364C691.061 253.148 690.467 252.938 689.663 252.734C688.931 252.542 688.331 252.35 687.863 252.158C687.407 251.954 687.011 251.66 686.675 251.276C686.351 250.88 686.189 250.364 686.189 249.728C686.189 249.224 686.339 248.762 686.639 248.342C686.939 247.922 687.365 247.592 687.917 247.352C688.469 247.1 689.099 246.974 689.807 246.974C690.899 246.974 691.781 247.25 692.453 247.802C693.125 248.354 693.485 249.11 693.533 250.07H691.895C691.859 249.554 691.649 249.14 691.265 248.828C690.893 248.516 690.389 248.36 689.753 248.36C689.165 248.36 688.697 248.486 688.349 248.738C688.001 248.99 687.827 249.32 687.827 249.728C687.827 250.052 687.929 250.322 688.133 250.538C688.349 250.742 688.613 250.91 688.925 251.042C689.249 251.162 689.693 251.3 690.257 251.456C690.965 251.648 691.541 251.84 691.985 252.032C692.429 252.212 692.807 252.488 693.119 252.86C693.443 253.232 693.611 253.718 693.623 254.318C693.623 254.858 693.473 255.344 693.173 255.776C692.873 256.208 692.447 256.55 691.895 256.802C691.355 257.042 690.731 257.162 690.023 257.162ZM704.226 257.162C703.47 257.162 702.792 257.036 702.192 256.784C701.592 256.52 701.118 256.16 700.77 255.704C700.422 255.236 700.23 254.702 700.194 254.102H701.886C701.934 254.594 702.162 254.996 702.57 255.308C702.99 255.62 703.536 255.776 704.208 255.776C704.832 255.776 705.324 255.638 705.684 255.362C706.044 255.086 706.224 254.738 706.224 254.318C706.224 253.886 706.032 253.568 705.648 253.364C705.264 253.148 704.67 252.938 703.866 252.734C703.134 252.542 702.534 252.35 702.066 252.158C701.61 251.954 701.214 251.66 700.878 251.276C700.554 250.88 700.392 250.364 700.392 249.728C700.392 249.224 700.542 248.762 700.842 248.342C701.142 247.922 701.568 247.592 702.12 247.352C702.672 247.1 703.302 246.974 704.01 246.974C705.102 246.974 705.984 247.25 706.656 247.802C707.328 248.354 707.688 249.11 707.736 250.07H706.098C706.062 249.554 705.852 249.14 705.468 248.828C705.096 248.516 704.592 248.36 703.956 248.36C703.368 248.36 702.9 248.486 702.552 248.738C702.204 248.99 702.03 249.32 702.03 249.728C702.03 250.052 702.132 250.322 702.336 250.538C702.552 250.742 702.816 250.91 703.128 251.042C703.452 251.162 703.896 251.3 704.46 251.456C705.168 251.648 705.744 251.84 706.188 252.032C706.632 252.212 707.01 252.488 707.322 252.86C707.646 253.232 707.814 253.718 707.826 254.318C707.826 254.858 707.676 255.344 707.376 255.776C707.076 256.208 706.65 256.55 706.098 256.802C705.558 257.042 704.934 257.162 704.226 257.162ZM714.44 257.162C713.516 257.162 712.676 256.952 711.92 256.532C711.176 256.112 710.588 255.518 710.156 254.75C709.736 253.97 709.526 253.07 709.526 252.05C709.526 251.042 709.742 250.154 710.174 249.386C710.618 248.606 711.218 248.012 711.974 247.604C712.73 247.184 713.576 246.974 714.512 246.974C715.448 246.974 716.294 247.184 717.05 247.604C717.806 248.012 718.4 248.6 718.832 249.368C719.276 250.136 719.498 251.03 719.498 252.05C719.498 253.07 719.27 253.97 718.814 254.75C718.37 255.518 717.764 256.112 716.996 256.532C716.228 256.952 715.376 257.162 714.44 257.162ZM714.44 255.722C715.028 255.722 715.58 255.584 716.096 255.308C716.612 255.032 717.026 254.618 717.338 254.066C717.662 253.514 717.824 252.842 717.824 252.05C717.824 251.258 717.668 250.586 717.356 250.034C717.044 249.482 716.636 249.074 716.132 248.81C715.628 248.534 715.082 248.396 714.494 248.396C713.894 248.396 713.342 248.534 712.838 248.81C712.346 249.074 711.95 249.482 711.65 250.034C711.35 250.586 711.2 251.258 711.2 252.05C711.2 252.854 711.344 253.532 711.632 254.084C711.932 254.636 712.328 255.05 712.82 255.326C713.312 255.59 713.852 255.722 714.44 255.722ZM730.464 248.486H728.394V257H726.756V248.486H725.478V247.136H726.756V246.434C726.756 245.33 727.038 244.526 727.602 244.022C728.178 243.506 729.096 243.248 730.356 243.248V244.616C729.636 244.616 729.126 244.76 728.826 245.048C728.538 245.324 728.394 245.786 728.394 246.434V247.136H730.464V248.486ZM731.762 252.032C731.762 251.024 731.966 250.142 732.374 249.386C732.782 248.618 733.34 248.024 734.048 247.604C734.768 247.184 735.566 246.974 736.442 246.974C737.306 246.974 738.056 247.16 738.692 247.532C739.328 247.904 739.802 248.372 740.114 248.936V247.136H741.77V257H740.114V255.164C739.79 255.74 739.304 256.22 738.656 256.604C738.02 256.976 737.276 257.162 736.424 257.162C735.548 257.162 734.756 256.946 734.048 256.514C733.34 256.082 732.782 255.476 732.374 254.696C731.966 253.916 731.762 253.028 731.762 252.032ZM740.114 252.05C740.114 251.306 739.964 250.658 739.664 250.106C739.364 249.554 738.956 249.134 738.44 248.846C737.936 248.546 737.378 248.396 736.766 248.396C736.154 248.396 735.596 248.54 735.092 248.828C734.588 249.116 734.186 249.536 733.886 250.088C733.586 250.64 733.436 251.288 733.436 252.032C733.436 252.788 733.586 253.448 733.886 254.012C734.186 254.564 734.588 254.99 735.092 255.29C735.596 255.578 736.154 255.722 736.766 255.722C737.378 255.722 737.936 255.578 738.44 255.29C738.956 254.99 739.364 254.564 739.664 254.012C739.964 253.448 740.114 252.794 740.114 252.05ZM746.176 248.738C746.464 248.174 746.872 247.736 747.4 247.424C747.94 247.112 748.594 246.956 749.362 246.956V248.648H748.93C747.094 248.648 746.176 249.644 746.176 251.636V257H744.538V247.136H746.176V248.738Z" fill="#C1BDBD"/>
</svg>
