<svg width="600" height="323" viewBox="0 0 600 323" fill="none" xmlns="http://www.w3.org/2000/svg">
<path opacity="0.1" d="M582.839 2.51367H14.8052C7.73308 2.51367 2 9.73801 2 18.6497V299.323C2 308.235 7.73308 315.459 14.8052 315.459H582.839C589.911 315.459 595.644 308.235 595.644 299.323V18.6497C595.644 9.73801 589.911 2.51367 582.839 2.51367Z" stroke="#080809" stroke-width="3"/>
<path d="M217.05 241.203V254H215.345L208.902 244.13V254H207.206V241.203H208.902L215.371 251.1V241.203H217.05ZM219.379 249.351V249.148C219.379 248.463 219.479 247.827 219.678 247.241C219.877 246.649 220.164 246.137 220.539 245.703C220.914 245.264 221.368 244.924 221.901 244.684C222.435 244.438 223.032 244.314 223.694 244.314C224.362 244.314 224.963 244.438 225.496 244.684C226.035 244.924 226.492 245.264 226.867 245.703C227.248 246.137 227.538 246.649 227.737 247.241C227.937 247.827 228.036 248.463 228.036 249.148V249.351C228.036 250.036 227.937 250.672 227.737 251.258C227.538 251.844 227.248 252.356 226.867 252.796C226.492 253.229 226.038 253.569 225.505 253.815C224.978 254.056 224.38 254.176 223.712 254.176C223.044 254.176 222.443 254.056 221.91 253.815C221.377 253.569 220.92 253.229 220.539 252.796C220.164 252.356 219.877 251.844 219.678 251.258C219.479 250.672 219.379 250.036 219.379 249.351ZM221.005 249.148V249.351C221.005 249.825 221.061 250.273 221.172 250.695C221.283 251.111 221.45 251.48 221.673 251.803C221.901 252.125 222.186 252.38 222.525 252.567C222.865 252.749 223.261 252.84 223.712 252.84C224.157 252.84 224.547 252.749 224.881 252.567C225.221 252.38 225.502 252.125 225.725 251.803C225.947 251.48 226.114 251.111 226.226 250.695C226.343 250.273 226.401 249.825 226.401 249.351V249.148C226.401 248.68 226.343 248.237 226.226 247.821C226.114 247.399 225.944 247.027 225.716 246.705C225.493 246.377 225.212 246.119 224.872 245.932C224.538 245.744 224.146 245.65 223.694 245.65C223.249 245.65 222.856 245.744 222.517 245.932C222.183 246.119 221.901 246.377 221.673 246.705C221.45 247.027 221.283 247.399 221.172 247.821C221.061 248.237 221.005 248.68 221.005 249.148ZM239.523 242.337L235.287 254H233.556L238.434 241.203H239.55L239.523 242.337ZM243.074 254L238.829 242.337L238.803 241.203H239.919L244.814 254H243.074ZM242.854 249.263V250.651H235.665V249.263H242.854ZM248.049 240.5V254H246.414V240.5H248.049ZM254.605 254.176C253.943 254.176 253.343 254.064 252.804 253.842C252.271 253.613 251.811 253.294 251.424 252.884C251.043 252.474 250.75 251.987 250.545 251.425C250.34 250.862 250.237 250.247 250.237 249.579V249.21C250.237 248.437 250.352 247.748 250.58 247.145C250.809 246.535 251.119 246.02 251.512 245.598C251.904 245.176 252.35 244.856 252.848 244.64C253.346 244.423 253.861 244.314 254.395 244.314C255.074 244.314 255.66 244.432 256.152 244.666C256.65 244.9 257.058 245.229 257.374 245.65C257.69 246.066 257.925 246.559 258.077 247.127C258.229 247.689 258.306 248.305 258.306 248.973V249.702H251.204V248.375H256.68V248.252C256.656 247.83 256.568 247.42 256.416 247.021C256.27 246.623 256.035 246.295 255.713 246.037C255.391 245.779 254.951 245.65 254.395 245.65C254.025 245.65 253.686 245.729 253.375 245.888C253.064 246.04 252.798 246.269 252.575 246.573C252.353 246.878 252.18 247.25 252.057 247.689C251.934 248.129 251.872 248.636 251.872 249.21V249.579C251.872 250.03 251.934 250.455 252.057 250.854C252.186 251.246 252.37 251.592 252.61 251.891C252.856 252.189 253.152 252.424 253.498 252.594C253.85 252.764 254.248 252.849 254.693 252.849C255.268 252.849 255.754 252.731 256.152 252.497C256.551 252.263 256.899 251.949 257.198 251.557L258.183 252.339C257.978 252.649 257.717 252.945 257.4 253.227C257.084 253.508 256.694 253.736 256.231 253.912C255.774 254.088 255.232 254.176 254.605 254.176ZM261.83 245.984V254H260.204V244.49H261.786L261.83 245.984ZM264.801 244.438L264.792 245.949C264.657 245.92 264.528 245.902 264.405 245.896C264.288 245.885 264.153 245.879 264.001 245.879C263.626 245.879 263.295 245.938 263.008 246.055C262.721 246.172 262.478 246.336 262.278 246.547C262.079 246.758 261.921 247.01 261.804 247.303C261.692 247.59 261.619 247.906 261.584 248.252L261.127 248.516C261.127 247.941 261.183 247.402 261.294 246.898C261.411 246.395 261.59 245.949 261.83 245.562C262.07 245.17 262.375 244.865 262.744 244.648C263.119 244.426 263.564 244.314 264.08 244.314C264.197 244.314 264.332 244.329 264.484 244.358C264.637 244.382 264.742 244.408 264.801 244.438ZM270.725 244.49V245.738H265.583V244.49H270.725ZM267.323 242.179H268.949V251.645C268.949 251.967 268.999 252.21 269.099 252.374C269.198 252.538 269.327 252.646 269.485 252.699C269.644 252.752 269.813 252.778 269.995 252.778C270.13 252.778 270.271 252.767 270.417 252.743C270.569 252.714 270.684 252.69 270.76 252.673L270.769 254C270.64 254.041 270.47 254.079 270.259 254.114C270.054 254.155 269.805 254.176 269.512 254.176C269.113 254.176 268.747 254.097 268.413 253.938C268.079 253.78 267.812 253.517 267.613 253.147C267.42 252.772 267.323 252.269 267.323 251.636V242.179ZM282.062 248.981H278.644V247.602H282.062C282.725 247.602 283.261 247.496 283.671 247.285C284.081 247.074 284.38 246.781 284.567 246.406C284.761 246.031 284.857 245.604 284.857 245.123C284.857 244.684 284.761 244.271 284.567 243.884C284.38 243.497 284.081 243.187 283.671 242.952C283.261 242.712 282.725 242.592 282.062 242.592H279.039V254H277.343V241.203H282.062C283.029 241.203 283.847 241.37 284.515 241.704C285.183 242.038 285.689 242.501 286.035 243.093C286.381 243.679 286.554 244.35 286.554 245.105C286.554 245.926 286.381 246.626 286.035 247.206C285.689 247.786 285.183 248.229 284.515 248.533C283.847 248.832 283.029 248.981 282.062 248.981ZM287.898 249.351V249.148C287.898 248.463 287.998 247.827 288.197 247.241C288.396 246.649 288.684 246.137 289.059 245.703C289.434 245.264 289.888 244.924 290.421 244.684C290.954 244.438 291.552 244.314 292.214 244.314C292.882 244.314 293.482 244.438 294.016 244.684C294.555 244.924 295.012 245.264 295.387 245.703C295.768 246.137 296.058 246.649 296.257 247.241C296.456 247.827 296.556 248.463 296.556 249.148V249.351C296.556 250.036 296.456 250.672 296.257 251.258C296.058 251.844 295.768 252.356 295.387 252.796C295.012 253.229 294.558 253.569 294.024 253.815C293.497 254.056 292.899 254.176 292.231 254.176C291.563 254.176 290.963 254.056 290.43 253.815C289.896 253.569 289.439 253.229 289.059 252.796C288.684 252.356 288.396 251.844 288.197 251.258C287.998 250.672 287.898 250.036 287.898 249.351ZM289.524 249.148V249.351C289.524 249.825 289.58 250.273 289.691 250.695C289.803 251.111 289.97 251.48 290.192 251.803C290.421 252.125 290.705 252.38 291.045 252.567C291.385 252.749 291.78 252.84 292.231 252.84C292.677 252.84 293.066 252.749 293.4 252.567C293.74 252.38 294.021 252.125 294.244 251.803C294.467 251.48 294.634 251.111 294.745 250.695C294.862 250.273 294.921 249.825 294.921 249.351V249.148C294.921 248.68 294.862 248.237 294.745 247.821C294.634 247.399 294.464 247.027 294.235 246.705C294.013 246.377 293.731 246.119 293.392 245.932C293.058 245.744 292.665 245.65 292.214 245.65C291.769 245.65 291.376 245.744 291.036 245.932C290.702 246.119 290.421 246.377 290.192 246.705C289.97 247.027 289.803 247.399 289.691 247.821C289.58 248.237 289.524 248.68 289.524 249.148ZM300.361 240.5V254H298.727V240.5H300.361ZM304.738 244.49V254H303.104V244.49H304.738ZM302.98 241.968C302.98 241.704 303.06 241.481 303.218 241.3C303.382 241.118 303.622 241.027 303.938 241.027C304.249 241.027 304.486 241.118 304.65 241.3C304.82 241.481 304.905 241.704 304.905 241.968C304.905 242.22 304.82 242.437 304.65 242.618C304.486 242.794 304.249 242.882 303.938 242.882C303.622 242.882 303.382 242.794 303.218 242.618C303.06 242.437 302.98 242.22 302.98 241.968ZM311.154 252.84C311.541 252.84 311.898 252.761 312.227 252.603C312.555 252.444 312.824 252.228 313.035 251.952C313.246 251.671 313.366 251.352 313.396 250.994H314.942C314.913 251.557 314.723 252.081 314.371 252.567C314.025 253.048 313.571 253.438 313.009 253.736C312.446 254.029 311.828 254.176 311.154 254.176C310.439 254.176 309.815 254.05 309.282 253.798C308.755 253.546 308.315 253.2 307.964 252.761C307.618 252.321 307.357 251.817 307.182 251.249C307.012 250.675 306.927 250.068 306.927 249.43V249.061C306.927 248.422 307.012 247.818 307.182 247.25C307.357 246.676 307.618 246.169 307.964 245.729C308.315 245.29 308.755 244.944 309.282 244.692C309.815 244.44 310.439 244.314 311.154 244.314C311.898 244.314 312.549 244.467 313.105 244.771C313.662 245.07 314.099 245.48 314.415 246.002C314.737 246.518 314.913 247.104 314.942 247.76H313.396C313.366 247.367 313.255 247.013 313.062 246.696C312.874 246.38 312.616 246.128 312.288 245.94C311.966 245.747 311.588 245.65 311.154 245.65C310.656 245.65 310.237 245.75 309.897 245.949C309.563 246.143 309.297 246.406 309.098 246.74C308.904 247.068 308.764 247.435 308.676 247.839C308.594 248.237 308.553 248.645 308.553 249.061V249.43C308.553 249.846 308.594 250.256 308.676 250.66C308.758 251.064 308.896 251.431 309.089 251.759C309.288 252.087 309.555 252.351 309.889 252.55C310.229 252.743 310.65 252.84 311.154 252.84ZM318.537 244.49V254H316.902V244.49H318.537ZM316.779 241.968C316.779 241.704 316.858 241.481 317.017 241.3C317.181 241.118 317.421 241.027 317.737 241.027C318.048 241.027 318.285 241.118 318.449 241.3C318.619 241.481 318.704 241.704 318.704 241.968C318.704 242.22 318.619 242.437 318.449 242.618C318.285 242.794 318.048 242.882 317.737 242.882C317.421 242.882 317.181 242.794 317.017 242.618C316.858 242.437 316.779 242.22 316.779 241.968ZM325.094 254.176C324.432 254.176 323.831 254.064 323.292 253.842C322.759 253.613 322.299 253.294 321.912 252.884C321.531 252.474 321.238 251.987 321.033 251.425C320.828 250.862 320.726 250.247 320.726 249.579V249.21C320.726 248.437 320.84 247.748 321.068 247.145C321.297 246.535 321.607 246.02 322 245.598C322.393 245.176 322.838 244.856 323.336 244.64C323.834 244.423 324.35 244.314 324.883 244.314C325.562 244.314 326.148 244.432 326.641 244.666C327.139 244.9 327.546 245.229 327.862 245.65C328.179 246.066 328.413 246.559 328.565 247.127C328.718 247.689 328.794 248.305 328.794 248.973V249.702H321.692V248.375H327.168V248.252C327.145 247.83 327.057 247.42 326.904 247.021C326.758 246.623 326.523 246.295 326.201 246.037C325.879 245.779 325.439 245.65 324.883 245.65C324.514 245.65 324.174 245.729 323.863 245.888C323.553 246.04 323.286 246.269 323.063 246.573C322.841 246.878 322.668 247.25 322.545 247.689C322.422 248.129 322.36 248.636 322.36 249.21V249.579C322.36 250.03 322.422 250.455 322.545 250.854C322.674 251.246 322.858 251.592 323.099 251.891C323.345 252.189 323.641 252.424 323.986 252.594C324.338 252.764 324.736 252.849 325.182 252.849C325.756 252.849 326.242 252.731 326.641 252.497C327.039 252.263 327.388 251.949 327.687 251.557L328.671 252.339C328.466 252.649 328.205 252.945 327.889 253.227C327.572 253.508 327.183 253.736 326.72 253.912C326.263 254.088 325.721 254.176 325.094 254.176ZM336.229 251.478C336.229 251.243 336.177 251.026 336.071 250.827C335.972 250.622 335.764 250.438 335.447 250.273C335.137 250.104 334.668 249.957 334.041 249.834C333.514 249.723 333.036 249.591 332.608 249.438C332.187 249.286 331.826 249.102 331.527 248.885C331.234 248.668 331.009 248.413 330.851 248.12C330.692 247.827 330.613 247.484 330.613 247.092C330.613 246.717 330.695 246.362 330.859 246.028C331.029 245.694 331.267 245.398 331.571 245.141C331.882 244.883 332.254 244.681 332.688 244.534C333.121 244.388 333.604 244.314 334.138 244.314C334.899 244.314 335.55 244.449 336.089 244.719C336.628 244.988 337.041 245.349 337.328 245.8C337.615 246.245 337.759 246.74 337.759 247.285H336.133C336.133 247.021 336.054 246.767 335.896 246.521C335.743 246.269 335.518 246.061 335.219 245.896C334.926 245.732 334.565 245.65 334.138 245.65C333.687 245.65 333.32 245.721 333.039 245.861C332.764 245.996 332.562 246.169 332.433 246.38C332.31 246.591 332.248 246.813 332.248 247.048C332.248 247.224 332.277 247.382 332.336 247.522C332.4 247.657 332.512 247.783 332.67 247.9C332.828 248.012 333.051 248.117 333.338 248.217C333.625 248.316 333.991 248.416 334.437 248.516C335.216 248.691 335.857 248.902 336.361 249.148C336.865 249.395 337.24 249.696 337.486 250.054C337.732 250.411 337.855 250.845 337.855 251.354C337.855 251.771 337.768 252.151 337.592 252.497C337.422 252.843 337.173 253.142 336.845 253.394C336.522 253.64 336.136 253.833 335.685 253.974C335.239 254.108 334.738 254.176 334.182 254.176C333.344 254.176 332.635 254.026 332.055 253.728C331.475 253.429 331.035 253.042 330.736 252.567C330.438 252.093 330.288 251.592 330.288 251.064H331.923C331.946 251.51 332.075 251.864 332.31 252.128C332.544 252.386 332.831 252.57 333.171 252.682C333.511 252.787 333.848 252.84 334.182 252.84C334.627 252.84 334.999 252.781 335.298 252.664C335.603 252.547 335.834 252.386 335.992 252.181C336.15 251.976 336.229 251.741 336.229 251.478ZM346.398 241.203V254H344.702V241.203H346.398ZM351.76 246.96V248.349H346.029V246.96H351.76ZM352.63 241.203V242.592H346.029V241.203H352.63ZM353.781 249.351V249.148C353.781 248.463 353.881 247.827 354.08 247.241C354.279 246.649 354.566 246.137 354.941 245.703C355.316 245.264 355.771 244.924 356.304 244.684C356.837 244.438 357.435 244.314 358.097 244.314C358.765 244.314 359.365 244.438 359.898 244.684C360.438 244.924 360.895 245.264 361.27 245.703C361.65 246.137 361.94 246.649 362.14 247.241C362.339 247.827 362.438 248.463 362.438 249.148V249.351C362.438 250.036 362.339 250.672 362.14 251.258C361.94 251.844 361.65 252.356 361.27 252.796C360.895 253.229 360.44 253.569 359.907 253.815C359.38 254.056 358.782 254.176 358.114 254.176C357.446 254.176 356.846 254.056 356.312 253.815C355.779 253.569 355.322 253.229 354.941 252.796C354.566 252.356 354.279 251.844 354.08 251.258C353.881 250.672 353.781 250.036 353.781 249.351ZM355.407 249.148V249.351C355.407 249.825 355.463 250.273 355.574 250.695C355.686 251.111 355.853 251.48 356.075 251.803C356.304 252.125 356.588 252.38 356.928 252.567C357.268 252.749 357.663 252.84 358.114 252.84C358.56 252.84 358.949 252.749 359.283 252.567C359.623 252.38 359.904 252.125 360.127 251.803C360.35 251.48 360.517 251.111 360.628 250.695C360.745 250.273 360.804 249.825 360.804 249.351V249.148C360.804 248.68 360.745 248.237 360.628 247.821C360.517 247.399 360.347 247.027 360.118 246.705C359.896 246.377 359.614 246.119 359.274 245.932C358.94 245.744 358.548 245.65 358.097 245.65C357.651 245.65 357.259 245.744 356.919 245.932C356.585 246.119 356.304 246.377 356.075 246.705C355.853 247.027 355.686 247.399 355.574 247.821C355.463 248.237 355.407 248.68 355.407 249.148ZM370.296 251.803V244.49H371.931V254H370.375L370.296 251.803ZM370.604 249.799L371.28 249.781C371.28 250.414 371.213 251 371.078 251.539C370.949 252.072 370.738 252.535 370.445 252.928C370.152 253.32 369.769 253.628 369.294 253.851C368.819 254.067 368.242 254.176 367.562 254.176C367.1 254.176 366.675 254.108 366.288 253.974C365.907 253.839 365.579 253.631 365.304 253.35C365.028 253.068 364.814 252.702 364.662 252.251C364.516 251.8 364.442 251.258 364.442 250.625V244.49H366.068V250.643C366.068 251.07 366.115 251.425 366.209 251.706C366.309 251.981 366.44 252.201 366.604 252.365C366.774 252.523 366.962 252.635 367.167 252.699C367.378 252.764 367.595 252.796 367.817 252.796C368.509 252.796 369.057 252.664 369.461 252.4C369.865 252.131 370.155 251.771 370.331 251.319C370.513 250.862 370.604 250.355 370.604 249.799ZM376.035 246.521V254H374.409V244.49H375.947L376.035 246.521ZM375.648 248.885L374.972 248.858C374.978 248.208 375.074 247.607 375.262 247.057C375.449 246.5 375.713 246.017 376.053 245.606C376.393 245.196 376.797 244.88 377.266 244.657C377.74 244.429 378.265 244.314 378.839 244.314C379.308 244.314 379.729 244.379 380.104 244.508C380.479 244.631 380.799 244.83 381.062 245.105C381.332 245.381 381.537 245.738 381.678 246.178C381.818 246.611 381.889 247.142 381.889 247.769V254H380.254V247.751C380.254 247.253 380.181 246.854 380.034 246.556C379.888 246.251 379.674 246.031 379.393 245.896C379.111 245.756 378.766 245.686 378.355 245.686C377.951 245.686 377.582 245.771 377.248 245.94C376.92 246.11 376.636 246.345 376.396 246.644C376.161 246.942 375.977 247.285 375.842 247.672C375.713 248.053 375.648 248.457 375.648 248.885ZM390.353 252.154V240.5H391.987V254H390.493L390.353 252.154ZM383.954 249.351V249.166C383.954 248.439 384.042 247.78 384.218 247.188C384.399 246.591 384.654 246.078 384.982 245.65C385.316 245.223 385.712 244.895 386.169 244.666C386.632 244.432 387.147 244.314 387.716 244.314C388.313 244.314 388.835 244.42 389.28 244.631C389.731 244.836 390.112 245.138 390.423 245.536C390.739 245.929 390.988 246.403 391.17 246.96C391.352 247.517 391.478 248.146 391.548 248.85V249.658C391.483 250.355 391.357 250.982 391.17 251.539C390.988 252.096 390.739 252.57 390.423 252.963C390.112 253.355 389.731 253.657 389.28 253.868C388.829 254.073 388.302 254.176 387.698 254.176C387.142 254.176 386.632 254.056 386.169 253.815C385.712 253.575 385.316 253.238 384.982 252.805C384.654 252.371 384.399 251.861 384.218 251.275C384.042 250.684 383.954 250.042 383.954 249.351ZM385.589 249.166V249.351C385.589 249.825 385.636 250.271 385.729 250.687C385.829 251.103 385.981 251.469 386.187 251.785C386.392 252.102 386.652 252.351 386.969 252.532C387.285 252.708 387.663 252.796 388.103 252.796C388.642 252.796 389.084 252.682 389.43 252.453C389.781 252.225 390.062 251.923 390.273 251.548C390.484 251.173 390.648 250.766 390.766 250.326V248.208C390.695 247.886 390.593 247.575 390.458 247.276C390.329 246.972 390.159 246.702 389.948 246.468C389.743 246.228 389.488 246.037 389.184 245.896C388.885 245.756 388.53 245.686 388.12 245.686C387.675 245.686 387.291 245.779 386.969 245.967C386.652 246.148 386.392 246.4 386.187 246.723C385.981 247.039 385.829 247.408 385.729 247.83C385.636 248.246 385.589 248.691 385.589 249.166Z" fill="#C1BDBD"/>
<path fill-rule="evenodd" clip-rule="evenodd" d="M261.187 67H358.182C362.393 67.03 366.42 68.7255 369.384 71.7159C372.348 74.7063 374.007 78.7485 374 82.9589V104.526C374 105.866 372.975 107.081 371.634 107.081H346.976V166C345.3 166.002 343.673 166.21 342.117 166.6V83.0239C342.117 78.7367 343.946 74.8947 346.714 71.8583H261.187C255.448 71.8583 250.779 76.4637 250.779 82.1139L250.154 167.506H308.413C309.067 167.529 309.687 167.805 310.14 168.277C310.594 168.749 310.846 169.38 310.842 170.034V181.747C310.832 185.919 312.475 189.926 315.411 192.891C318.347 195.855 322.338 197.536 326.51 197.567H326.561C327.759 197.567 328.923 197.223 330.041 196.606C331.082 198.268 332.361 199.765 333.829 201.051C331.532 201.937 329.073 202.41 326.564 202.425H326.506H325.805H325.113H243.433V202.284C232.806 201.79 224 192.791 224 181.788V170.034C224 168.693 225.024 167.506 226.366 167.506H245.295L245.921 82.0963C245.921 73.7849 252.769 67 261.187 67ZM244.479 197.567H244.496H313.265C312.982 197.176 312.704 196.949 312.432 196.727C312.281 196.604 312.132 196.482 311.985 196.335C310.074 194.418 308.56 192.142 307.53 189.638C306.5 187.135 305.975 184.452 305.984 181.745V172.364H228.858V181.785C228.858 190.425 235.839 197.567 244.479 197.567ZM369.142 102.223V83.002V82.9835C369.156 80.0566 368.01 77.2433 365.956 75.1585C363.901 73.0738 361.105 71.8872 358.178 71.8583H358.11C352.034 71.8583 346.976 76.9395 346.976 83.0199V102.223H369.142Z" fill="#D1D1D1"/>
<path fill-rule="evenodd" clip-rule="evenodd" d="M347 206C358.046 206 367 197.046 367 186C367 174.954 358.046 166 347 166C335.954 166 327 174.954 327 186C327 197.046 335.954 206 347 206ZM345.651 186.582C345.338 187.378 345.181 188.446 345.181 189.787H348.725L348.78 188.911C348.882 187.971 349.284 187.153 349.985 186.453L351.106 185.346C351.983 184.466 352.597 183.665 352.948 182.946C353.298 182.219 353.473 181.448 353.473 180.633C353.473 178.842 352.934 177.458 351.854 176.479C350.774 175.494 349.255 175 347.299 175C345.361 175 343.829 175.517 342.702 176.552C341.586 177.587 341.019 179.019 341 180.849H345.014C345.033 180.083 345.245 179.484 345.651 179.052C346.067 178.611 346.616 178.391 347.299 178.391C348.738 178.391 349.459 179.201 349.459 180.819C349.459 181.356 349.321 181.869 349.044 182.358C348.767 182.837 348.208 183.464 347.369 184.24C346.538 185.007 345.965 185.788 345.651 186.582ZM345.402 192.618C344.987 193.03 344.779 193.558 344.779 194.199C344.779 194.831 344.983 195.354 345.388 195.765C345.804 196.177 346.348 196.383 347.022 196.383C347.696 196.383 348.236 196.177 348.641 195.765C349.057 195.354 349.265 194.831 349.265 194.199C349.265 193.558 349.052 193.03 348.628 192.618C348.213 192.197 347.677 191.986 347.022 191.986C346.366 191.986 345.827 192.197 345.402 192.618Z" fill="#C4C4C4"/>
<path d="M281.041 126.792L293.565 135.355C293.964 135.63 294.438 135.777 294.923 135.777C295.408 135.777 295.881 135.63 296.28 135.355L308.766 126.793C313.104 123.835 316.307 117.648 316.307 112.402V95.0771C316.32 94.6284 316.205 94.1853 315.976 93.7993C315.746 93.4133 315.412 93.1003 315.012 92.8967L295.943 83.5159C295.613 83.3526 295.25 83.2676 294.882 83.2676C294.513 83.2676 294.15 83.3526 293.82 83.5159L274.787 92.8703C274.387 93.0739 274.053 93.3871 273.824 93.7733C273.595 94.1595 273.48 94.6029 273.494 95.0516V112.402C273.494 117.648 276.705 123.835 281.041 126.792ZM278.352 96.5668L294.901 88.4015L311.449 96.5902V112.402C311.449 116.061 309.05 120.715 306.026 122.778L294.873 130.406L283.763 122.779C280.738 120.714 278.352 116.061 278.352 112.402V96.5668Z" fill="#D1D1D1"/>
<path d="M291.341 115.02C291.565 115.252 291.832 115.437 292.127 115.564C292.421 115.691 292.737 115.758 293.057 115.76H293.063C293.706 115.757 294.323 115.494 294.777 115.03L304.416 105.214C304.87 104.751 305.126 104.123 305.126 103.469C305.127 102.814 304.871 102.187 304.417 101.724C303.962 101.261 303.346 101 302.703 101C302.06 101 301.443 101.259 300.988 101.722L293.071 109.781L289.906 106.528C289.454 106.063 288.838 105.8 288.195 105.797C287.552 105.794 286.934 106.052 286.478 106.512C286.021 106.973 285.763 107.6 285.76 108.254C285.757 108.909 286.01 109.538 286.463 110.002L291.341 115.02ZM325.577 141.659H267.423C266.78 141.659 266.164 141.919 265.71 142.381C265.255 142.844 265 143.471 265 144.125C265 144.78 265.255 145.407 265.71 145.87C266.164 146.332 266.78 146.592 267.423 146.592H325.577C326.22 146.592 326.836 146.332 327.29 145.87C327.745 145.407 328 144.78 328 144.125C328 143.471 327.745 142.844 327.29 142.381C326.836 141.919 326.22 141.659 325.577 141.659ZM325.577 153.067H267.423C266.78 153.067 266.164 153.327 265.71 153.789C265.255 154.252 265 154.879 265 155.533C265 156.188 265.255 156.815 265.71 157.278C266.164 157.74 266.78 158 267.423 158H325.577C326.22 158 326.836 157.74 327.29 157.278C327.745 156.815 328 156.188 328 155.533C328 154.879 327.745 154.252 327.29 153.789C326.836 153.327 326.22 153.067 325.577 153.067Z" fill="#D1D1D1"/>
</svg>
