<svg width="600" height="323" viewBox="0 0 600 323" fill="none" xmlns="http://www.w3.org/2000/svg">
<path opacity="0.1" d="M582.839 3H14.8052C7.73308 3 2 10.2243 2 19.136V299.809C2 308.721 7.73308 315.945 14.8052 315.945H582.839C589.911 315.945 595.644 308.721 595.644 299.809V19.136C595.644 10.2243 589.911 3 582.839 3Z" stroke="#080809" stroke-width="3"/>
<path d="M173.864 230.752H172.226L165.638 220.762V230.752H164V218.188H165.638L172.226 228.16V218.188H173.864V230.752ZM180.958 230.914C180.034 230.914 179.194 230.704 178.438 230.284C177.694 229.864 177.106 229.27 176.674 228.502C176.254 227.722 176.044 226.822 176.044 225.802C176.044 224.794 176.26 223.906 176.692 223.138C177.136 222.358 177.736 221.764 178.492 221.356C179.248 220.936 180.094 220.726 181.03 220.726C181.966 220.726 182.812 220.936 183.568 221.356C184.324 221.764 184.918 222.352 185.35 223.12C185.794 223.888 186.016 224.782 186.016 225.802C186.016 226.822 185.788 227.722 185.332 228.502C184.888 229.27 184.282 229.864 183.514 230.284C182.746 230.704 181.894 230.914 180.958 230.914ZM180.958 229.474C181.546 229.474 182.098 229.336 182.614 229.06C183.13 228.784 183.544 228.37 183.856 227.818C184.18 227.266 184.342 226.594 184.342 225.802C184.342 225.01 184.186 224.338 183.874 223.786C183.562 223.234 183.154 222.826 182.65 222.562C182.146 222.286 181.6 222.148 181.012 222.148C180.412 222.148 179.86 222.286 179.356 222.562C178.864 222.826 178.468 223.234 178.168 223.786C177.868 224.338 177.718 225.01 177.718 225.802C177.718 226.606 177.862 227.284 178.15 227.836C178.45 228.388 178.846 228.802 179.338 229.078C179.83 229.342 180.37 229.474 180.958 229.474ZM190.168 222.238V228.052C190.168 228.532 190.27 228.874 190.474 229.078C190.678 229.27 191.032 229.366 191.536 229.366H192.742V230.752H191.266C190.354 230.752 189.67 230.542 189.214 230.122C188.758 229.702 188.53 229.012 188.53 228.052V222.238H187.252V220.888H188.53V218.404H190.168V220.888H192.742V222.238H190.168ZM198.914 225.784C198.914 224.776 199.118 223.894 199.526 223.138C199.934 222.37 200.492 221.776 201.2 221.356C201.92 220.936 202.718 220.726 203.594 220.726C204.458 220.726 205.208 220.912 205.844 221.284C206.48 221.656 206.954 222.124 207.266 222.688V220.888H208.922V230.752H207.266V228.916C206.942 229.492 206.456 229.972 205.808 230.356C205.172 230.728 204.428 230.914 203.576 230.914C202.7 230.914 201.908 230.698 201.2 230.266C200.492 229.834 199.934 229.228 199.526 228.448C199.118 227.668 198.914 226.78 198.914 225.784ZM207.266 225.802C207.266 225.058 207.116 224.41 206.816 223.858C206.516 223.306 206.108 222.886 205.592 222.598C205.088 222.298 204.53 222.148 203.918 222.148C203.306 222.148 202.748 222.292 202.244 222.58C201.74 222.868 201.338 223.288 201.038 223.84C200.738 224.392 200.588 225.04 200.588 225.784C200.588 226.54 200.738 227.2 201.038 227.764C201.338 228.316 201.74 228.742 202.244 229.042C202.748 229.33 203.306 229.474 203.918 229.474C204.53 229.474 205.088 229.33 205.592 229.042C206.108 228.742 206.516 228.316 206.816 227.764C207.116 227.2 207.266 226.546 207.266 225.802ZM215.182 230.914C214.426 230.914 213.748 230.788 213.148 230.536C212.548 230.272 212.074 229.912 211.726 229.456C211.378 228.988 211.186 228.454 211.15 227.854H212.842C212.89 228.346 213.118 228.748 213.526 229.06C213.946 229.372 214.492 229.528 215.164 229.528C215.788 229.528 216.28 229.39 216.64 229.114C217 228.838 217.18 228.49 217.18 228.07C217.18 227.638 216.988 227.32 216.604 227.116C216.22 226.9 215.626 226.69 214.822 226.486C214.09 226.294 213.49 226.102 213.022 225.91C212.566 225.706 212.17 225.412 211.834 225.028C211.51 224.632 211.348 224.116 211.348 223.48C211.348 222.976 211.498 222.514 211.798 222.094C212.098 221.674 212.524 221.344 213.076 221.104C213.628 220.852 214.258 220.726 214.966 220.726C216.058 220.726 216.94 221.002 217.612 221.554C218.284 222.106 218.644 222.862 218.692 223.822H217.054C217.018 223.306 216.808 222.892 216.424 222.58C216.052 222.268 215.548 222.112 214.912 222.112C214.324 222.112 213.856 222.238 213.508 222.49C213.16 222.742 212.986 223.072 212.986 223.48C212.986 223.804 213.088 224.074 213.292 224.29C213.508 224.494 213.772 224.662 214.084 224.794C214.408 224.914 214.852 225.052 215.416 225.208C216.124 225.4 216.7 225.592 217.144 225.784C217.588 225.964 217.966 226.24 218.278 226.612C218.602 226.984 218.77 227.47 218.782 228.07C218.782 228.61 218.632 229.096 218.332 229.528C218.032 229.96 217.606 230.302 217.054 230.554C216.514 230.794 215.89 230.914 215.182 230.914ZM224.586 230.914C223.83 230.914 223.152 230.788 222.552 230.536C221.952 230.272 221.478 229.912 221.13 229.456C220.782 228.988 220.59 228.454 220.554 227.854H222.246C222.294 228.346 222.522 228.748 222.93 229.06C223.35 229.372 223.896 229.528 224.568 229.528C225.192 229.528 225.684 229.39 226.044 229.114C226.404 228.838 226.584 228.49 226.584 228.07C226.584 227.638 226.392 227.32 226.008 227.116C225.624 226.9 225.03 226.69 224.226 226.486C223.494 226.294 222.894 226.102 222.426 225.91C221.97 225.706 221.574 225.412 221.238 225.028C220.914 224.632 220.752 224.116 220.752 223.48C220.752 222.976 220.902 222.514 221.202 222.094C221.502 221.674 221.928 221.344 222.48 221.104C223.032 220.852 223.662 220.726 224.37 220.726C225.462 220.726 226.344 221.002 227.016 221.554C227.688 222.106 228.048 222.862 228.096 223.822H226.458C226.422 223.306 226.212 222.892 225.828 222.58C225.456 222.268 224.952 222.112 224.316 222.112C223.728 222.112 223.26 222.238 222.912 222.49C222.564 222.742 222.39 223.072 222.39 223.48C222.39 223.804 222.492 224.074 222.696 224.29C222.912 224.494 223.176 224.662 223.488 224.794C223.812 224.914 224.256 225.052 224.82 225.208C225.528 225.4 226.104 225.592 226.548 225.784C226.992 225.964 227.37 226.24 227.682 226.612C228.006 226.984 228.174 227.47 228.186 228.07C228.186 228.61 228.036 229.096 227.736 229.528C227.436 229.96 227.01 230.302 226.458 230.554C225.918 230.794 225.294 230.914 224.586 230.914ZM231.344 219.286C231.032 219.286 230.768 219.178 230.552 218.962C230.336 218.746 230.228 218.482 230.228 218.17C230.228 217.858 230.336 217.594 230.552 217.378C230.768 217.162 231.032 217.054 231.344 217.054C231.644 217.054 231.896 217.162 232.1 217.378C232.316 217.594 232.424 217.858 232.424 218.17C232.424 218.482 232.316 218.746 232.1 218.962C231.896 219.178 231.644 219.286 231.344 219.286ZM232.136 220.888V230.752H230.498V220.888H232.136ZM238.996 220.726C239.848 220.726 240.592 220.912 241.228 221.284C241.876 221.656 242.356 222.124 242.668 222.688V220.888H244.324V230.968C244.324 231.868 244.132 232.666 243.748 233.362C243.364 234.07 242.812 234.622 242.092 235.018C241.384 235.414 240.556 235.612 239.608 235.612C238.312 235.612 237.232 235.306 236.368 234.694C235.504 234.082 234.994 233.248 234.838 232.192H236.458C236.638 232.792 237.01 233.272 237.574 233.632C238.138 234.004 238.816 234.19 239.608 234.19C240.508 234.19 241.24 233.908 241.804 233.344C242.38 232.78 242.668 231.988 242.668 230.968V228.898C242.344 229.474 241.864 229.954 241.228 230.338C240.592 230.722 239.848 230.914 238.996 230.914C238.12 230.914 237.322 230.698 236.602 230.266C235.894 229.834 235.336 229.228 234.928 228.448C234.52 227.668 234.316 226.78 234.316 225.784C234.316 224.776 234.52 223.894 234.928 223.138C235.336 222.37 235.894 221.776 236.602 221.356C237.322 220.936 238.12 220.726 238.996 220.726ZM242.668 225.802C242.668 225.058 242.518 224.41 242.218 223.858C241.918 223.306 241.51 222.886 240.994 222.598C240.49 222.298 239.932 222.148 239.32 222.148C238.708 222.148 238.15 222.292 237.646 222.58C237.142 222.868 236.74 223.288 236.44 223.84C236.14 224.392 235.99 225.04 235.99 225.784C235.99 226.54 236.14 227.2 236.44 227.764C236.74 228.316 237.142 228.742 237.646 229.042C238.15 229.33 238.708 229.474 239.32 229.474C239.932 229.474 240.49 229.33 240.994 229.042C241.51 228.742 241.918 228.316 242.218 227.764C242.518 227.2 242.668 226.546 242.668 225.802ZM251.898 220.708C253.098 220.708 254.07 221.074 254.814 221.806C255.558 222.526 255.93 223.57 255.93 224.938V230.752H254.31V225.172C254.31 224.188 254.064 223.438 253.572 222.922C253.08 222.394 252.408 222.13 251.556 222.13C250.692 222.13 250.002 222.4 249.486 222.94C248.982 223.48 248.73 224.266 248.73 225.298V230.752H247.092V220.888H248.73V222.292C249.054 221.788 249.492 221.398 250.044 221.122C250.608 220.846 251.226 220.708 251.898 220.708ZM267.606 225.442C267.606 225.754 267.588 226.084 267.552 226.432H259.668C259.728 227.404 260.058 228.166 260.658 228.718C261.27 229.258 262.008 229.528 262.872 229.528C263.58 229.528 264.168 229.366 264.636 229.042C265.116 228.706 265.452 228.262 265.644 227.71H267.408C267.144 228.658 266.616 229.432 265.824 230.032C265.032 230.62 264.048 230.914 262.872 230.914C261.936 230.914 261.096 230.704 260.352 230.284C259.62 229.864 259.044 229.27 258.624 228.502C258.204 227.722 257.994 226.822 257.994 225.802C257.994 224.782 258.198 223.888 258.606 223.12C259.014 222.352 259.584 221.764 260.316 221.356C261.06 220.936 261.912 220.726 262.872 220.726C263.808 220.726 264.636 220.93 265.356 221.338C266.076 221.746 266.628 222.31 267.012 223.03C267.408 223.738 267.606 224.542 267.606 225.442ZM265.914 225.1C265.914 224.476 265.776 223.942 265.5 223.498C265.224 223.042 264.846 222.7 264.366 222.472C263.898 222.232 263.376 222.112 262.8 222.112C261.972 222.112 261.264 222.376 260.676 222.904C260.1 223.432 259.77 224.164 259.686 225.1H265.914ZM269.156 225.784C269.156 224.776 269.36 223.894 269.768 223.138C270.176 222.37 270.734 221.776 271.442 221.356C272.162 220.936 272.966 220.726 273.854 220.726C274.622 220.726 275.336 220.906 275.996 221.266C276.656 221.614 277.16 222.076 277.508 222.652V217.432H279.164V230.752H277.508V228.898C277.184 229.486 276.704 229.972 276.068 230.356C275.432 230.728 274.688 230.914 273.836 230.914C272.96 230.914 272.162 230.698 271.442 230.266C270.734 229.834 270.176 229.228 269.768 228.448C269.36 227.668 269.156 226.78 269.156 225.784ZM277.508 225.802C277.508 225.058 277.358 224.41 277.058 223.858C276.758 223.306 276.35 222.886 275.834 222.598C275.33 222.298 274.772 222.148 274.16 222.148C273.548 222.148 272.99 222.292 272.486 222.58C271.982 222.868 271.58 223.288 271.28 223.84C270.98 224.392 270.83 225.04 270.83 225.784C270.83 226.54 270.98 227.2 271.28 227.764C271.58 228.316 271.982 228.742 272.486 229.042C272.99 229.33 273.548 229.474 274.16 229.474C274.772 229.474 275.33 229.33 275.834 229.042C276.35 228.742 276.758 228.316 277.058 227.764C277.358 227.2 277.508 226.546 277.508 225.802ZM288.729 222.238V228.052C288.729 228.532 288.831 228.874 289.035 229.078C289.239 229.27 289.593 229.366 290.097 229.366H291.303V230.752H289.827C288.915 230.752 288.231 230.542 287.775 230.122C287.319 229.702 287.091 229.012 287.091 228.052V222.238H285.813V220.888H287.091V218.404H288.729V220.888H291.303V222.238H288.729ZM297.589 230.914C296.665 230.914 295.825 230.704 295.069 230.284C294.325 229.864 293.737 229.27 293.305 228.502C292.885 227.722 292.675 226.822 292.675 225.802C292.675 224.794 292.891 223.906 293.323 223.138C293.767 222.358 294.367 221.764 295.123 221.356C295.879 220.936 296.725 220.726 297.661 220.726C298.597 220.726 299.443 220.936 300.199 221.356C300.955 221.764 301.549 222.352 301.981 223.12C302.425 223.888 302.647 224.782 302.647 225.802C302.647 226.822 302.419 227.722 301.963 228.502C301.519 229.27 300.913 229.864 300.145 230.284C299.377 230.704 298.525 230.914 297.589 230.914ZM297.589 229.474C298.177 229.474 298.729 229.336 299.245 229.06C299.761 228.784 300.175 228.37 300.487 227.818C300.811 227.266 300.973 226.594 300.973 225.802C300.973 225.01 300.817 224.338 300.505 223.786C300.193 223.234 299.785 222.826 299.281 222.562C298.777 222.286 298.231 222.148 297.643 222.148C297.043 222.148 296.491 222.286 295.987 222.562C295.495 222.826 295.099 223.234 294.799 223.786C294.499 224.338 294.349 225.01 294.349 225.802C294.349 226.606 294.493 227.284 294.781 227.836C295.081 228.388 295.477 228.802 295.969 229.078C296.461 229.342 297.001 229.474 297.589 229.474ZM308.988 225.784C308.988 224.776 309.192 223.894 309.6 223.138C310.008 222.37 310.566 221.776 311.274 221.356C311.994 220.936 312.792 220.726 313.668 220.726C314.532 220.726 315.282 220.912 315.918 221.284C316.554 221.656 317.028 222.124 317.34 222.688V220.888H318.996V230.752H317.34V228.916C317.016 229.492 316.53 229.972 315.882 230.356C315.246 230.728 314.502 230.914 313.65 230.914C312.774 230.914 311.982 230.698 311.274 230.266C310.566 229.834 310.008 229.228 309.6 228.448C309.192 227.668 308.988 226.78 308.988 225.784ZM317.34 225.802C317.34 225.058 317.19 224.41 316.89 223.858C316.59 223.306 316.182 222.886 315.666 222.598C315.162 222.298 314.604 222.148 313.992 222.148C313.38 222.148 312.822 222.292 312.318 222.58C311.814 222.868 311.412 223.288 311.112 223.84C310.812 224.392 310.662 225.04 310.662 225.784C310.662 226.54 310.812 227.2 311.112 227.764C311.412 228.316 311.814 228.742 312.318 229.042C312.822 229.33 313.38 229.474 313.992 229.474C314.604 229.474 315.162 229.33 315.666 229.042C316.182 228.742 316.59 228.316 316.89 227.764C317.19 227.2 317.34 226.546 317.34 225.802ZM326.57 220.708C327.77 220.708 328.742 221.074 329.486 221.806C330.23 222.526 330.602 223.57 330.602 224.938V230.752H328.982V225.172C328.982 224.188 328.736 223.438 328.244 222.922C327.752 222.394 327.08 222.13 326.228 222.13C325.364 222.13 324.674 222.4 324.158 222.94C323.654 223.48 323.402 224.266 323.402 225.298V230.752H321.764V220.888H323.402V222.292C323.726 221.788 324.164 221.398 324.716 221.122C325.28 220.846 325.898 220.708 326.57 220.708ZM341.774 220.888L335.834 235.396H334.142L336.086 230.644L332.108 220.888H333.926L337.022 228.88L340.082 220.888H341.774ZM361.359 220.888L358.281 230.752H356.589L354.213 222.922L351.837 230.752H350.145L347.049 220.888H348.723L350.991 229.168L353.439 220.888H355.113L357.507 229.186L359.739 220.888H361.359ZM367.287 230.914C366.363 230.914 365.523 230.704 364.767 230.284C364.023 229.864 363.435 229.27 363.003 228.502C362.583 227.722 362.373 226.822 362.373 225.802C362.373 224.794 362.589 223.906 363.021 223.138C363.465 222.358 364.065 221.764 364.821 221.356C365.577 220.936 366.423 220.726 367.359 220.726C368.295 220.726 369.141 220.936 369.897 221.356C370.653 221.764 371.247 222.352 371.679 223.12C372.123 223.888 372.345 224.782 372.345 225.802C372.345 226.822 372.117 227.722 371.661 228.502C371.217 229.27 370.611 229.864 369.843 230.284C369.075 230.704 368.223 230.914 367.287 230.914ZM367.287 229.474C367.875 229.474 368.427 229.336 368.943 229.06C369.459 228.784 369.873 228.37 370.185 227.818C370.509 227.266 370.671 226.594 370.671 225.802C370.671 225.01 370.515 224.338 370.203 223.786C369.891 223.234 369.483 222.826 368.979 222.562C368.475 222.286 367.929 222.148 367.341 222.148C366.741 222.148 366.189 222.286 365.685 222.562C365.193 222.826 364.797 223.234 364.497 223.786C364.197 224.338 364.047 225.01 364.047 225.802C364.047 226.606 364.191 227.284 364.479 227.836C364.779 228.388 365.175 228.802 365.667 229.078C366.159 229.342 366.699 229.474 367.287 229.474ZM376.136 222.49C376.424 221.926 376.832 221.488 377.36 221.176C377.9 220.864 378.554 220.708 379.322 220.708V222.4H378.89C377.054 222.4 376.136 223.396 376.136 225.388V230.752H374.498V220.888H376.136V222.49ZM386.721 230.752L382.851 226.396V230.752H381.213V217.432H382.851V225.262L386.649 220.888H388.935L384.291 225.802L388.953 230.752H386.721ZM394.491 222.238H392.421V230.752H390.783V222.238H389.505V220.888H390.783V220.186C390.783 219.082 391.065 218.278 391.629 217.774C392.205 217.258 393.123 217 394.383 217V218.368C393.663 218.368 393.153 218.512 392.853 218.8C392.565 219.076 392.421 219.538 392.421 220.186V220.888H394.491V222.238ZM398.039 217.432V230.752H396.401V217.432H398.039ZM405.132 230.914C404.208 230.914 403.368 230.704 402.612 230.284C401.868 229.864 401.28 229.27 400.848 228.502C400.428 227.722 400.218 226.822 400.218 225.802C400.218 224.794 400.434 223.906 400.866 223.138C401.31 222.358 401.91 221.764 402.666 221.356C403.422 220.936 404.268 220.726 405.204 220.726C406.14 220.726 406.986 220.936 407.742 221.356C408.498 221.764 409.092 222.352 409.524 223.12C409.968 223.888 410.19 224.782 410.19 225.802C410.19 226.822 409.962 227.722 409.506 228.502C409.062 229.27 408.456 229.864 407.688 230.284C406.92 230.704 406.068 230.914 405.132 230.914ZM405.132 229.474C405.72 229.474 406.272 229.336 406.788 229.06C407.304 228.784 407.718 228.37 408.03 227.818C408.354 227.266 408.516 226.594 408.516 225.802C408.516 225.01 408.36 224.338 408.048 223.786C407.736 223.234 407.328 222.826 406.824 222.562C406.32 222.286 405.774 222.148 405.186 222.148C404.586 222.148 404.034 222.286 403.53 222.562C403.038 222.826 402.642 223.234 402.342 223.786C402.042 224.338 401.892 225.01 401.892 225.802C401.892 226.606 402.036 227.284 402.324 227.836C402.624 228.388 403.02 228.802 403.512 229.078C404.004 229.342 404.544 229.474 405.132 229.474ZM425.484 220.888L422.406 230.752H420.714L418.338 222.922L415.962 230.752H414.27L411.174 220.888H412.848L415.116 229.168L417.564 220.888H419.238L421.632 229.186L423.864 220.888H425.484ZM430.602 230.914C429.846 230.914 429.168 230.788 428.568 230.536C427.968 230.272 427.494 229.912 427.146 229.456C426.798 228.988 426.606 228.454 426.57 227.854H428.262C428.31 228.346 428.538 228.748 428.946 229.06C429.366 229.372 429.912 229.528 430.584 229.528C431.208 229.528 431.7 229.39 432.06 229.114C432.42 228.838 432.6 228.49 432.6 228.07C432.6 227.638 432.408 227.32 432.024 227.116C431.64 226.9 431.046 226.69 430.242 226.486C429.51 226.294 428.91 226.102 428.442 225.91C427.986 225.706 427.59 225.412 427.254 225.028C426.93 224.632 426.768 224.116 426.768 223.48C426.768 222.976 426.918 222.514 427.218 222.094C427.518 221.674 427.944 221.344 428.496 221.104C429.048 220.852 429.678 220.726 430.386 220.726C431.478 220.726 432.36 221.002 433.032 221.554C433.704 222.106 434.064 222.862 434.112 223.822H432.474C432.438 223.306 432.228 222.892 431.844 222.58C431.472 222.268 430.968 222.112 430.332 222.112C429.744 222.112 429.276 222.238 428.928 222.49C428.58 222.742 428.406 223.072 428.406 223.48C428.406 223.804 428.508 224.074 428.712 224.29C428.928 224.494 429.192 224.662 429.504 224.794C429.828 224.914 430.272 225.052 430.836 225.208C431.544 225.4 432.12 225.592 432.564 225.784C433.008 225.964 433.386 226.24 433.698 226.612C434.022 226.984 434.19 227.47 434.202 228.07C434.202 228.61 434.052 229.096 433.752 229.528C433.452 229.96 433.026 230.302 432.474 230.554C431.934 230.794 431.31 230.914 430.602 230.914Z" fill="#C1BDBD"/>
<g clip-path="url(#clip0)">
<path d="M302 194C307.5 194 312 189.5 312 184H292C292 189.5 296.5 194 302 194ZM332 164V139C332 123.65 323.85 110.8 309.5 107.4V104C309.5 99.85 306.15 96.5 302 96.5C297.85 96.5 294.5 99.85 294.5 104V107.4C280.2 110.8 272 123.6 272 139V164L262 174V179H342V174L332 164ZM322 169H282V139C282 126.6 289.55 116.5 302 116.5C314.45 116.5 322 126.6 322 139V169Z" fill="#DFDFDF"/>
<path d="M267.936 105.027L275.281 107.174V107.174C264.008 114.737 259.383 129.037 264.092 141.769L264.691 143.389L258.119 143.831L256.661 139.628C252.237 126.871 256.845 112.729 267.936 105.027V105.027Z" fill="#DFDFDF"/>
<path d="M346.854 144.681L340.774 144.721V144.721C346.053 132.044 342.071 117.4 331.099 109.143L329.691 108.083L337.015 105.867V105.867C348.591 114.864 352.728 130.487 347.122 144.034L346.854 144.681Z" fill="#DFDFDF"/>
</g>
<defs>
<clipPath id="clip0">
<rect x="239" y="84" width="120" height="120" fill="white"/>
</clipPath>
</defs>
</svg>
