<svg width="325" height="271" viewBox="0 0 325 271" fill="none" xmlns="http://www.w3.org/2000/svg">
<mask id="mask0" mask-type="alpha" maskUnits="userSpaceOnUse" x="18" y="28" width="307" height="167">
<path fill-rule="evenodd" clip-rule="evenodd" d="M264.442 119.656L264.442 119.656H305.22C315.995 119.656 324.731 110.921 324.731 100.145C324.731 89.3695 315.995 80.6341 305.22 80.6341H258.95C246.678 49.7972 216.558 28 181.348 28C158.733 28 138.218 36.9916 123.183 51.5948H91.9611C81.1855 51.5948 72.4502 60.3301 72.4502 71.1057C72.4502 81.0295 79.8591 89.2229 89.4473 90.4562C90.1372 90.351 90.8438 90.2964 91.5631 90.2964H120.723C128.409 90.2964 134.64 96.5274 134.64 104.214C134.64 111.9 128.409 118.131 120.723 118.131H114.096H98.1194H51.7991C44.1128 118.131 37.8818 124.362 37.8818 132.048C37.8818 139.735 44.1128 145.966 51.7991 145.966H105.288C118.412 174.873 147.532 194.977 181.348 194.977C196.264 194.977 210.267 191.065 222.386 184.212H269.225C276.492 184.212 282.384 178.32 282.384 171.053C282.384 163.786 276.492 157.895 269.225 157.895H223.499C215.397 155.523 209.48 148.036 209.48 139.167C209.48 128.391 218.215 119.656 228.99 119.656H264.442Z" fill="#EAEDFE"/>
<rect x="18" y="52.0339" width="45.2168" height="35.0066" rx="17.5033" fill="#EAEDFE"/>
</mask>
<g mask="url(#mask0)">
<rect x="8" y="25" width="352" height="190" fill="#EAEDFE"/>
</g>
<path d="M212.137 157.983C215.097 135.287 201.469 135.294 192.785 138.606C192.007 138.902 191.168 138.225 191.344 137.411C195.819 116.746 202.977 75.8018 198.868 62.4472C194.912 49.5897 179.129 55.7004 170.195 61.2454C169.465 61.6986 168.511 61.1066 168.615 60.2535C172.546 28.1111 176.903 2.67774 144.465 0.0827103C118.545 -1.9909 115.832 35.4294 117.78 55.7183C117.847 56.412 117.186 56.9542 116.505 56.8031C92.5454 51.4792 95.0115 69.7166 99.3505 79.6963C105.985 101.369 117.131 143.122 108.639 136.753C100.308 130.505 94.701 133.962 92.8208 136.601C92.7492 136.701 92.7008 136.821 92.6742 136.941C76.8956 208.415 135.195 213.713 156.407 213.713C177.637 213.713 208.156 188.502 212.137 157.983Z" fill="#82B7FB"/>
<path d="M144.466 29.2752C146.381 80.9895 146.234 201.329 144.465 260.155L156.407 262.809C152.427 146.042 143.139 -6.55149 144.466 29.2752Z" fill="#3A5CA6"/>
<path d="M153.754 200.445C166.581 191.599 193.561 169.926 198.868 154.003" stroke="#3A5CA6" stroke-linecap="round"/>
<path d="M147.119 188.502C136.556 181.426 114.337 164.088 109.966 151.349" stroke="#3A5CA6" stroke-linecap="round"/>
<path d="M149.772 116.85C161.845 108.762 187.238 88.9473 192.233 74.3893" stroke="#3A5CA6" stroke-linecap="round"/>
<path d="M149.772 135.427C142.227 130.372 113.088 82.161 109.966 73.0623" stroke="#3A5CA6" stroke-linecap="round"/>
<path d="M184.304 146.042C183.862 154.888 187.754 171.253 206.861 165.945" stroke="#3A5CA6" stroke-width="0.5" stroke-linecap="round"/>
<path d="M165.728 164.618C165.286 173.464 169.178 189.829 188.285 184.522" stroke="#3A5CA6" stroke-width="0.5" stroke-linecap="round"/>
<path d="M168.382 77.0431C167.94 85.889 171.832 102.254 190.939 96.9465" stroke="#3A5CA6" stroke-width="0.5" stroke-linecap="round"/>
<path d="M133.823 95.6197C134.187 102.346 130.986 114.79 115.273 110.754" stroke="#3A5CA6" stroke-width="0.5" stroke-linecap="round"/>
<path d="M128.515 154.003C128.879 160.73 125.678 173.174 109.965 169.138" stroke="#3A5CA6" stroke-width="0.5" stroke-linecap="round"/>
<path d="M77.1639 169.17C16.2916 190.175 32.8671 240.616 48.7639 263.211H191.032C209.161 254.191 249.01 227.255 263.371 191.675C281.322 147.2 261.496 89.3282 251.047 74.0566C240.598 58.7849 225.862 60.9283 201.213 65.7509C176.564 70.5735 153.254 142.913 77.1639 169.17Z" fill="#FCB435"/>
<path d="M191.764 81.5286L192.59 77.4168L194.311 73.6299C195.367 72.9303 199.602 71.8489 208.105 73.1202C216.608 74.3914 213.127 89.8498 210.324 97.4201L217.021 99.5084C199.874 114.025 191.423 113.174 197.659 102.916C198.897 100.88 198.65 101.265 198.661 99.7285C197.052 100.108 195.49 100.205 194.265 99.9953C192.186 99.6398 192.977 97.1003 193.632 95.875C193.025 95.5989 192.756 94.8829 193.032 94.2757L192.388 93.8118C192.108 93.6096 191.981 93.255 192.071 92.9209C192.228 92.3312 191.937 91.7138 191.381 91.4611L190.342 90.9888C189.855 90.7675 189.684 90.162 189.982 89.7182L191.974 86.7557C192.363 86.1765 192.425 85.4371 192.137 84.8014C191.673 83.7765 191.542 82.6317 191.764 81.5286Z" fill="#EE9F86"/>
<path d="M207.815 94.5101L210.336 97.72L216.367 83.8047C216.853 79.603 215.638 70.5597 206.895 68.0002C195.967 64.8007 193.412 70.4201 192.99 70.3757C192.653 70.3401 192.139 69.5463 191.924 69.1539C191.791 69.4471 191.869 70.3571 191.924 70.7754C191.134 70.18 191.528 68.7282 191.824 68.0766C187.275 73.6736 189.884 76.7761 191.757 77.6277C193.645 77.2577 197.663 76.893 198.632 78.3946C199.842 80.2716 199.231 79.9939 201.563 81.3491C203.429 82.4332 202.844 86.7466 202.318 88.7679L201.374 90.8446L204.15 89.601C204.23 86.5713 206.346 85.0959 207.394 84.7369C210.246 85.208 208.863 91.4487 207.815 94.5101Z" fill="#393939"/>
<path d="M125.284 260.888L128.326 249.677L116.156 245.796L115.721 260.026L125.284 260.888Z" fill="#EDA9A9"/>
<path d="M115.359 258.412C117.784 259.447 123.443 259.706 125.97 259.706H126.349L127.106 270.486H97.1693C91.4093 270.486 94.264 267.612 96.4114 266.174C101.868 266.174 111.317 261 115.359 258.412Z" fill="#1D104A"/>
<path d="M119.864 93.0476C113.607 97.0839 121.23 106.456 125.459 110.372L131.807 106.989C128.362 104.74 129.836 96.4733 127.552 96.7879C125.793 97.0303 126.574 98.2368 126.628 100.501C124.606 99.973 121.878 96.9833 119.864 93.0476Z" fill="#EA8F72"/>
<path d="M174.152 110.761C182.297 103.474 193.979 101.205 198.801 101.116C194.514 101.978 186.048 110.527 186.477 136.75C186.905 162.972 178.439 179.827 174.152 184.976L158.613 166.489C166.543 163.917 173.17 143.805 175.492 134.07L153.936 152.197C152.631 153.295 150.979 153.897 149.273 153.897C146.469 153.897 143.917 152.279 142.72 149.744L124.318 110.761L132.356 106.206L150.38 136.75C154.399 132.909 166.007 118.049 174.152 110.761Z" fill="#4885FC"/>
<path d="M75.4916 246.757L83.7324 238.568L75.1333 229.122L67.6417 241.229L75.4916 246.757Z" fill="#EDA9A9"/>
<path d="M68.134 239.65C69.7169 241.759 74.4884 244.812 76.6762 246.075L77.0044 246.265L72.2705 255.98L46.3442 241.012C41.3558 238.132 45.2655 237.069 47.8439 236.898C52.5697 239.627 63.3397 239.869 68.134 239.65Z" fill="#1D104A"/>
<path d="M206.572 182.565L166.919 163.274L126.998 157.916L70.1982 234.274L82.2548 245.795L139.055 185.78L206.572 182.565Z" fill="#212121"/>
<path d="M129.678 167.829L177.905 175.598L183.263 194.889L144.682 190.066L128.071 256.779L114.139 253.564L129.678 167.829Z" fill="#161616"/>
<path d="M200.677 109.689C194.89 110.975 197.015 104.242 198.801 101.116C193.964 102.892 190.282 106.895 188.915 111.864L172.998 169.744L200.677 166.221L217.02 99.5082C213.537 102.187 206.464 108.403 200.677 109.689Z" fill="white"/>
<path d="M146.679 166.278C147.046 173.715 158.975 171.799 164.48 170.095L164.725 162.906C161.054 164.765 154.632 159.355 153.763 161.49C153.093 163.135 154.528 163.062 156.516 164.146C155.048 165.634 151.095 166.502 146.679 166.278Z" fill="#EA8F72"/>
<path d="M211.257 103.703L208.512 109.453C206.001 114.714 205.279 120.605 205.31 126.434C205.47 156.385 184.099 169.923 173.081 173.187L192.907 202.123C204.785 193.639 209.656 174.993 213.3 167.277C216.625 160.235 226.895 126.933 224.915 105.29C224.598 101.818 221.529 99.4226 218.042 99.4226C215.145 99.4226 212.505 101.088 211.257 103.703Z" fill="#4885FC"/>
<path d="M214.465 161.785C221.572 158.14 225.97 128.952 227.732 109.203C228.186 104.116 224.125 99.8339 219.017 99.8339C214.101 99.8339 209.548 103.771 208.894 108.644C208.108 114.508 207.231 123.048 207.231 133.921C207.231 153.64 178.117 160.713 163.56 161.785V172.234C177.045 170.537 206.106 166.072 214.465 161.785Z" fill="#3B7DFD"/>
<path d="M220.771 157.917C166.115 163.061 141.644 230.613 131.017 263.211H191.032C263.736 222.198 268.408 179.068 270.829 156.712L270.873 156.309L220.771 157.917Z" fill="#E9941C"/>
<path d="M12.2901 223.847C10.1527 228.122 28.1426 232.04 37.4047 233.465L37.9391 222.778C40.6108 209.419 40.6108 206.213 37.4047 206.748C34.1986 207.282 31.5268 213.694 30.4581 209.954C29.3894 206.213 37.4047 196.595 34.733 189.648C32.0612 182.702 26.7177 193.923 24.5802 192.32C22.4428 190.717 26.1833 172.549 22.9772 171.48C19.7711 170.412 19.2367 185.373 18.168 180.03C17.0993 174.686 8.54965 163.465 1.60306 167.74C-5.34353 172.015 13.8932 182.702 12.2901 184.839C10.6871 186.976 -2.31237e-06 180.564 -2.03209e-06 186.976C-1.7518e-06 193.389 17.6337 195.526 21.3741 198.198C25.1146 200.87 9.61835 203.541 5.87787 205.144C2.1374 206.748 3.20611 212.625 13.8932 213.16C24.5802 213.694 26.7176 216.366 27.7864 219.038C28.8551 221.709 14.9619 218.503 12.2901 223.847Z" fill="#5A87DF"/>
<path d="M13.8936 180.03C16.5653 182.345 22.4432 189.969 24.5806 201.938C26.718 213.908 33.3084 225.45 36.3364 229.725" stroke="#436BAC"/>
<path d="M61.7099 223.164C63.8473 227.439 45.8574 231.358 36.5953 232.783L36.0609 222.096C33.3892 208.737 33.3892 205.531 36.5953 206.065C39.8014 206.6 42.4732 213.012 43.5419 209.271C44.6106 205.531 36.5953 195.912 39.267 188.966C41.9388 182.019 47.2823 193.241 49.4198 191.638C51.5572 190.035 47.8167 171.867 51.0228 170.798C54.2289 169.729 54.7633 184.691 55.832 179.348C56.9007 174.004 65.4504 162.783 72.3969 167.057C79.3435 171.332 60.1068 182.019 61.7099 184.157C63.3129 186.294 74 179.882 74 186.294C74 192.706 56.3663 194.844 52.6259 197.516C48.8854 200.187 64.3817 202.859 68.1221 204.462C71.8626 206.065 70.7939 211.943 60.1068 212.477C49.4198 213.012 47.2824 215.684 46.2136 218.355C45.1449 221.027 59.0381 217.821 61.7099 223.164Z" fill="#5A87DF"/>
<path d="M60.1064 179.347C57.4347 181.663 51.5568 189.286 49.4194 201.256C47.282 213.225 40.6916 224.767 37.6636 229.042" stroke="#1F4FAB"/>
<path d="M25.132 212.052C20.6372 212.052 25.7242 220.541 28.6855 223.897L37.5686 233.372C41.9117 231.596 51.0717 227.568 52.9669 225.673C55.3359 223.304 52.3747 222.712 49.4135 222.12C47.0445 221.646 48.4264 219.553 49.4135 218.566C59.3632 215.724 62.6402 210.275 63.0351 207.906C63.0351 207.314 63.0351 206.129 60.6661 204.352C58.2971 202.576 48.8212 216.197 49.4135 207.314C50.0057 198.43 63.6273 188.362 63.0351 184.216C62.4428 180.07 59.4816 185.401 54.1514 188.362C49.8872 190.731 50.0057 186.585 50.5979 184.216C53.3617 181.058 58.534 173.911 57.1126 170.595C55.3359 166.449 54.1514 170.595 49.4135 174.74C44.6755 178.886 47.6367 170.002 48.8212 168.226C50.0057 166.449 60.6661 143.351 41.7143 147.497C22.7625 151.643 34.0151 176.517 34.6074 180.07C35.1996 183.624 30.462 175.333 23.355 177.702C16.2481 180.07 36.3844 193.1 36.3844 196.653C36.3844 200.207 28.6855 194.877 25.132 194.284C21.5785 193.692 28.6855 202.576 30.462 207.906C31.8832 212.17 31.0542 213.236 30.462 213.236C28.6853 214.421 28.6854 212.052 25.132 212.052Z" fill="#82B7FB"/>
<path d="M42.8978 159.934C41.7133 160.132 39.6997 166.804 41.121 191.915C42.5424 217.026 40.5291 226.068 39.3447 227.45" stroke="#1E3E75" stroke-width="2" stroke-linejoin="round"/>
<path d="M23.2021 238.44H48.4506L45.721 265.736H25.5905L23.2021 238.44Z" fill="#F5AA45"/>
<mask id="mask1" mask-type="alpha" maskUnits="userSpaceOnUse" x="23" y="238" width="26" height="28">
<path d="M23.2021 238.44H48.4506L45.721 265.736H25.5905L23.2021 238.44Z" fill="#F5AA45"/>
</mask>
<g mask="url(#mask1)">
<rect x="19.791" y="233.663" width="32.0723" height="9.55346" rx="4.77673" fill="#C77E1C"/>
</g>
<rect x="19.79" y="230.934" width="32.0723" height="9.55346" rx="4.77673" fill="#F5AA45"/>
<path d="M23.8838 246.629H47.7674L46.7438 257.547H24.5662L23.8838 246.629Z" fill="#FFD193"/>
</svg>
