<svg width="17" height="15" viewBox="0 0 17 15" fill="none" xmlns="http://www.w3.org/2000/svg">
<path d="M13.4434 11.1363L13.4464 13.6867C13.4466 13.8562 13.6012 13.9934 13.7913 13.9932L16.6555 13.9891C16.8457 13.9888 16.9998 13.8511 16.9996 13.6816L16.9966 11.1312C16.9964 10.9616 16.8419 10.8245 16.6518 10.8248L15.7882 10.826L15.7841 7.34509C15.7837 7.06526 15.5289 6.83912 15.215 6.83957L9.0679 6.84837L9.06577 5.05456L10.4171 5.05263C10.6722 5.05226 10.8788 4.86801 10.8785 4.64058L10.8744 1.22103C10.8742 0.993498 10.6671 0.809843 10.4121 0.810209L6.57204 0.815708C6.31699 0.816073 6.11035 1.00029 6.11062 1.22785L6.11467 4.64744C6.11494 4.87484 6.32201 5.05853 6.57707 5.05816L7.92874 5.05623L7.93087 6.85003L1.78373 6.85883C1.46987 6.85928 1.21551 7.08612 1.21584 7.36598L1.21997 10.8469L0.356384 10.8482C0.166231 10.8484 0.012048 10.986 0.0122491 11.1556L0.0152718 13.706C0.0154727 13.8755 0.17005 14.0127 0.360135 14.0125L3.22433 14.0084C3.41449 14.0081 3.56875 13.8704 3.56855 13.7009L3.56552 11.1505C3.56532 10.9809 3.41074 10.8438 3.22058 10.8441L2.357 10.8453L2.35347 7.8707L7.93199 7.86271L7.93552 10.8373L7.07193 10.8385C6.88178 10.8388 6.7276 10.9763 6.7278 11.146L6.73082 13.6964C6.73102 13.8659 6.88553 14.0031 7.07568 14.0029L9.93989 13.9988C10.13 13.9985 10.2842 13.8608 10.284 13.6913L10.281 11.1409C10.2808 10.9712 10.1263 10.8342 9.93614 10.8344L9.07256 10.8357L9.06903 7.86108L14.6476 7.85309L14.6511 10.8277L13.7876 10.8289C13.5974 10.8291 13.4432 10.9667 13.4434 11.1363Z" fill="#747474"/>
</svg>
