<svg width="22" height="15" viewBox="0 0 22 15" fill="none" xmlns="http://www.w3.org/2000/svg">
<path d="M11 0C6 0 1.73 3.11 0 7.5C1.73 11.89 6 15 11 15C16 15 20.27 11.89 22 7.5C20.27 3.11 16 0 11 0ZM11 9.5C8.24 9.5 7 10.76 7 8C7 5.24 7.24 4.5 10 4.5C12.76 4.5 12.5 4.74 12.5 7.5C12.5 10.26 13.76 9.5 11 9.5ZM11 4.5C7 0.695412 7 6.34 7 8C5.5 10.5 8.34 12 10 12C11.66 12 14 9.16 14 7.5C14 5.84 12.66 4.5 11 4.5Z" fill="#484B5C"/>
<path d="M13.3338 9.26904L13.3356 10.8161C13.3357 10.9189 13.4086 11.0022 13.4981 11.0021L14.8472 11.0002C14.9368 11.0001 15.0094 10.9166 15.0093 10.8137L15.0074 9.26665C15.0073 9.16375 14.9345 9.08053 14.845 9.08066L14.4382 9.08124L14.4357 6.96965C14.4355 6.79991 14.3154 6.66267 14.1675 6.66289L11.2721 6.66703L11.2709 5.57888L11.9073 5.57796C12.0275 5.57779 12.1248 5.46606 12.1246 5.3281L12.1222 3.25373C12.122 3.11571 12.0245 3.00426 11.9043 3.00443L10.0956 3.00702C9.97544 3.0072 9.87814 3.11891 9.8783 3.25695L9.88076 5.33133C9.88092 5.46928 9.97849 5.58075 10.0986 5.58058L10.7353 5.57966L10.7366 6.66782L7.84115 6.67196C7.69331 6.67217 7.57354 6.80973 7.57374 6.9795L7.57625 9.09111L7.16948 9.09169C7.07991 9.09182 7.00731 9.17521 7.00744 9.27814L7.00927 10.8252C7.00939 10.928 7.08222 11.0113 7.17176 11.0112L8.52085 11.0093C8.61042 11.0092 8.68306 10.9256 8.68294 10.8228L8.6811 9.27574C8.68098 9.17281 8.60814 9.08963 8.51858 9.08976L8.11181 9.09034L8.10967 7.28589L10.7373 7.28213L10.7394 9.08658L10.3326 9.08716C10.2431 9.08729 10.1705 9.17068 10.1706 9.27361L10.1724 10.8207C10.1726 10.9235 10.2454 11.0068 10.3349 11.0067L11.684 11.0048C11.7736 11.0046 11.8462 10.9211 11.8461 10.8183L11.8442 9.27121C11.8441 9.16828 11.7713 9.0851 11.6817 9.08523L11.275 9.08581L11.2728 7.28136L13.9005 7.2776L13.9026 9.08205L13.4958 9.08263C13.4063 9.08272 13.3337 9.16615 13.3338 9.26904Z" fill="white"/>
</svg>
