<svg width="16" height="16" viewBox="0 0 16 16" fill="none" xmlns="http://www.w3.org/2000/svg">
<path fill-rule="evenodd" clip-rule="evenodd" d="M0 16L1.90289 4.43166C4.05034 4.43166 5.67812 6.35717 5.33422 8.46605L4.66935 12.4928H6.15957C6.9085 12.4928 7.57337 12.3629 8.15417 12.1031C8.74262 11.8357 9.23171 11.3925 9.62911 10.766C10.0265 10.1394 10.3169 9.27598 10.4927 8.19098C10.6608 7.15946 10.6532 6.36481 10.4774 5.80702C10.3016 5.2416 9.96536 4.85191 9.46862 4.63797C8.97188 4.41638 8.32994 4.30177 7.55044 4.30177L6.07551 4.27885C3.07979 4.27885 2.16273 1.96366 2.07866 0.802246H8.16946C9.72081 0.802246 11.0123 1.10788 12.0517 1.74207C13.091 2.36863 13.8323 3.27025 14.2679 4.43166C14.7035 5.60072 14.7876 6.99136 14.5277 8.60358C14.2755 10.1547 13.7559 11.4842 12.9764 12.5845C12.1969 13.6848 11.211 14.5329 10.0036 15.1136C8.80375 15.6943 7.43581 15.9923 5.89974 15.9923H0V16Z" fill="url(#paint0_linear_713_34834)"/>
<path fill-rule="evenodd" clip-rule="evenodd" d="M3.56124 0.809933H8.16181C9.71317 0.809933 11.0047 1.11557 12.044 1.74976C13.0834 2.37631 13.8246 3.27794 14.2602 4.43935C14.6959 5.6084 14.7799 6.99904 14.5201 8.61127C14.2679 10.1624 13.7482 11.4919 12.9687 12.5922C12.4949 13.2569 11.9523 13.83 11.318 14.3114C11.318 14.3114 11.318 14.3114 11.3257 14.3114C12.5331 13.7307 13.5266 12.8825 14.2985 11.7822C15.078 10.6819 15.5976 9.35244 15.8498 7.80134C16.1173 6.18911 16.0256 4.79847 15.59 3.62942C15.1544 2.46036 14.4131 1.56638 13.3738 0.939828C12.3421 0.305635 11.0505 0 9.49919 0H3.40076C3.41604 0.236867 3.46954 0.511939 3.56124 0.809933Z" fill="url(#paint1_linear_713_34834)"/>
<defs>
<linearGradient id="paint0_linear_713_34834" x1="13.9456" y1="0.107713" x2="-0.710818" y2="15.3158" gradientUnits="userSpaceOnUse">
<stop stop-color="#7B79FF"/>
<stop offset="1" stop-color="#4240B8"/>
</linearGradient>
<linearGradient id="paint1_linear_713_34834" x1="15.9389" y1="-0.0632894" x2="6.06915" y2="8.45219" gradientUnits="userSpaceOnUse">
<stop stop-color="#7B79FF"/>
<stop offset="1" stop-color="#7B79FF" stop-opacity="0"/>
</linearGradient>
</defs>
</svg>
