<svg width="114" height="114" viewBox="0 0 114 114" fill="none" xmlns="http://www.w3.org/2000/svg">
<g filter="url(#filter0_d)">
<circle cx="57" cy="53" r="45" fill="white"/>
</g>
<path d="M72.6247 63.25H61.5522C61.2846 62.4986 60.8532 61.8161 60.2892 61.2521C59.7252 60.6881 59.0428 60.2567 58.2913 59.9891V54.2916H70.833C71.3082 54.2916 71.7639 54.1029 72.0999 53.7669C72.4359 53.4309 72.6247 52.9752 72.6247 52.5C72.6247 52.0248 72.4359 51.5691 72.0999 51.2331C71.7639 50.8971 71.3082 50.7083 70.833 50.7083H69.0413V39.9583C69.0413 38.5328 68.475 37.1656 67.467 36.1576C66.459 35.1496 65.0919 34.5833 63.6663 34.5833H49.333C47.9075 34.5833 46.5403 35.1496 45.5323 36.1576C44.5243 37.1656 43.958 38.5328 43.958 39.9583V50.7083H42.1663C41.6912 50.7083 41.2354 50.8971 40.8994 51.2331C40.5634 51.5691 40.3747 52.0248 40.3747 52.5C40.3747 52.9752 40.5634 53.4309 40.8994 53.7669C41.2354 54.1029 41.6912 54.2916 42.1663 54.2916H54.708V59.9891C53.9566 60.2567 53.2741 60.6881 52.7101 61.2521C52.1461 61.8161 51.7147 62.4986 51.4472 63.25H40.3747C39.8995 63.25 39.4438 63.4387 39.1078 63.7747C38.7718 64.1108 38.583 64.5665 38.583 65.0416C38.583 65.5168 38.7718 65.9725 39.1078 66.3086C39.4438 66.6446 39.8995 66.8333 40.3747 66.8333H51.4472C51.8238 67.871 52.5108 68.7675 53.4147 69.4011C54.3187 70.0346 55.3958 70.3745 56.4997 70.3745C57.6036 70.3745 58.6807 70.0346 59.5846 69.4011C60.4886 68.7675 61.1756 67.871 61.5522 66.8333H72.6247C73.0999 66.8333 73.5556 66.6446 73.8916 66.3086C74.2276 65.9725 74.4163 65.5168 74.4163 65.0416C74.4163 64.5665 74.2276 64.1108 73.8916 63.7747C73.5556 63.4387 73.0999 63.25 72.6247 63.25ZM47.5413 50.7083V39.9583C47.5413 39.4831 47.7301 39.0274 48.0661 38.6914C48.4021 38.3554 48.8578 38.1666 49.333 38.1666H63.6663C64.1415 38.1666 64.5972 38.3554 64.9332 38.6914C65.2692 39.0274 65.458 39.4831 65.458 39.9583V50.7083H47.5413ZM56.4997 66.8333C56.1453 66.8333 55.7989 66.7282 55.5043 66.5314C55.2096 66.3345 54.98 66.0547 54.8444 65.7273C54.7088 65.3999 54.6733 65.0397 54.7424 64.6921C54.8116 64.3446 54.9822 64.0253 55.2328 63.7747C55.4833 63.5242 55.8026 63.3535 56.1501 63.2844C56.4977 63.2153 56.8579 63.2508 57.1853 63.3864C57.5127 63.522 57.7925 63.7516 57.9894 64.0463C58.1863 64.3409 58.2913 64.6873 58.2913 65.0416C58.2913 65.5168 58.1026 65.9725 57.7666 66.3086C57.4306 66.6446 56.9749 66.8333 56.4997 66.8333Z" fill="#219653"/>
<defs>
<filter id="filter0_d" x="0" y="0" width="114" height="114" filterUnits="userSpaceOnUse" color-interpolation-filters="sRGB">
<feFlood flood-opacity="0" result="BackgroundImageFix"/>
<feColorMatrix in="SourceAlpha" type="matrix" values="0 0 0 0 0 0 0 0 0 0 0 0 0 0 0 0 0 0 127 0"/>
<feOffset dy="4"/>
<feGaussianBlur stdDeviation="6"/>
<feColorMatrix type="matrix" values="0 0 0 0 0 0 0 0 0 0 0 0 0 0 0 0 0 0 0.1 0"/>
<feBlend mode="normal" in2="BackgroundImageFix" result="effect1_dropShadow"/>
<feBlend mode="normal" in="SourceGraphic" in2="effect1_dropShadow" result="shape"/>
</filter>
</defs>
</svg>
