<svg width="114" height="114" viewBox="0 0 114 114" fill="none" xmlns="http://www.w3.org/2000/svg">
<g filter="url(#filter0_d)">
<circle cx="57" cy="53" r="45" fill="white"/>
</g>
<path d="M72.6719 39.0859H65.2891V36.2734C65.2891 36.0801 65.1309 35.9219 64.9375 35.9219H62.4766C62.2832 35.9219 62.125 36.0801 62.125 36.2734V39.0859H50.875V36.2734C50.875 36.0801 50.7168 35.9219 50.5234 35.9219H48.0625C47.8691 35.9219 47.7109 36.0801 47.7109 36.2734V39.0859H40.3281C39.5503 39.0859 38.9219 39.7144 38.9219 40.4922V69.6719C38.9219 70.4497 39.5503 71.0781 40.3281 71.0781H72.6719C73.4497 71.0781 74.0781 70.4497 74.0781 69.6719V40.4922C74.0781 39.7144 73.4497 39.0859 72.6719 39.0859ZM62.4897 49.7559L58.6357 56.8355H60.644C60.8857 56.8355 61.0835 57.0332 61.0835 57.2749V58.2109C61.0835 58.4526 60.8857 58.6504 60.644 58.6504H57.8579V59.9556H60.644C60.8857 59.9556 61.0835 60.1533 61.0835 60.395V61.3311C61.0835 61.5728 60.8857 61.7705 60.644 61.7705H57.8579V64.0469C57.8579 64.2886 57.6602 64.4863 57.4185 64.4863H55.6035C55.3618 64.4863 55.1641 64.2886 55.1641 64.0469V61.7705H52.3911C52.1494 61.7705 51.9517 61.5728 51.9517 61.3311V60.395C51.9517 60.1533 52.1494 59.9556 52.3911 59.9556H55.1641V58.6504H52.3911C52.1494 58.6504 51.9517 58.4526 51.9517 58.2109V57.2749C51.9517 57.0332 52.1494 56.8355 52.3911 56.8355H54.3774L50.5103 49.7559C50.396 49.5449 50.4707 49.2769 50.686 49.1582C50.752 49.123 50.8223 49.1055 50.897 49.1055H52.9185C53.0854 49.1055 53.2349 49.1978 53.3096 49.3472L56.5132 55.6885L59.73 49.3472C59.7665 49.2747 59.8224 49.2138 59.8914 49.1711C59.9604 49.1284 60.0399 49.1057 60.1211 49.1055H62.0986C62.3403 49.1055 62.5381 49.3032 62.5381 49.5449C62.5425 49.6196 62.5249 49.6899 62.4897 49.7559Z" fill="#56CCF2"/>
<defs>
<filter id="filter0_d" x="0" y="0" width="114" height="114" filterUnits="userSpaceOnUse" color-interpolation-filters="sRGB">
<feFlood flood-opacity="0" result="BackgroundImageFix"/>
<feColorMatrix in="SourceAlpha" type="matrix" values="0 0 0 0 0 0 0 0 0 0 0 0 0 0 0 0 0 0 127 0"/>
<feOffset dy="4"/>
<feGaussianBlur stdDeviation="6"/>
<feColorMatrix type="matrix" values="0 0 0 0 0 0 0 0 0 0 0 0 0 0 0 0 0 0 0.1 0"/>
<feBlend mode="normal" in2="BackgroundImageFix" result="effect1_dropShadow"/>
<feBlend mode="normal" in="SourceGraphic" in2="effect1_dropShadow" result="shape"/>
</filter>
</defs>
</svg>
