<svg width="33" height="36" viewBox="0 0 33 36" fill="none" xmlns="http://www.w3.org/2000/svg">
<path d="M31.68 0.378906H1.32C0.589875 0.378906 0 1.00931 0 1.78961V34.2358C0 35.0161 0.589875 35.6465 1.32 35.6465H31.68C32.4101 35.6465 33 35.0161 33 34.2358V1.78961C33 1.00931 32.4101 0.378906 31.68 0.378906ZM27.8685 10.6726H25.2326C23.166 10.6726 22.7659 11.7218 22.7659 13.2648V16.6637H27.6994L27.0559 21.9847H22.7659V35.6465H17.622V21.9891H13.3196V16.6637H17.622V12.7402C17.622 8.18627 20.2249 5.70431 24.0281 5.70431C25.8514 5.70431 27.4148 5.84979 27.8726 5.91592V10.6726H27.8685Z" fill="black"/>
</svg>
