<svg width="35" height="31" viewBox="0 0 35 31" fill="none" xmlns="http://www.w3.org/2000/svg">
<path d="M35 4.07026C33.7129 4.65458 32.3122 5.07512 30.8695 5.2389C32.3674 4.30238 33.4891 2.82282 34.0242 1.07783C32.6186 1.9578 31.0788 2.57486 29.473 2.90162C28.8019 2.14655 27.9902 1.54502 27.0885 1.13452C26.1868 0.724029 25.2145 0.51336 24.2321 0.515643C20.2572 0.515643 17.0604 3.90647 17.0604 8.06754C17.0604 8.65187 17.1278 9.23619 17.2371 9.79837C11.2853 9.4708 5.97705 6.47837 2.44802 1.89676C1.805 3.05264 1.46803 4.36873 1.47218 5.70813C1.47218 8.32872 2.73825 10.6394 4.66891 11.9984C3.53114 11.9513 2.42002 11.6222 1.42591 11.0378V11.1308C1.42591 14.8005 3.89076 17.8416 7.17582 18.541C6.55901 18.7097 5.9245 18.7959 5.28723 18.7978C4.82033 18.7978 4.37868 18.7491 3.93282 18.6827C4.84136 21.6751 7.48708 23.8486 10.6375 23.9195C8.1727 25.9513 5.08533 27.1465 1.73296 27.1465C1.13147 27.1465 0.576253 27.1244 0 27.0535C3.17991 29.2005 6.95289 30.4399 11.0161 30.4399C24.2068 30.4399 31.4247 18.9394 31.4247 8.95731C31.4247 8.62973 31.4247 8.30216 31.4037 7.97458C32.8001 6.8989 34.0242 5.56648 35 4.07026Z" fill="black"/>
</svg>
