<svg width="33" height="36" viewBox="0 0 33 36" fill="none" xmlns="http://www.w3.org/2000/svg">
<path d="M16.4956 12.1323C13.4658 12.1323 10.9933 14.7747 10.9933 18.0127C10.9933 21.2507 13.4658 23.8931 16.4956 23.8931C19.5253 23.8931 21.9978 21.2507 21.9978 18.0127C21.9978 14.7747 19.5253 12.1323 16.4956 12.1323ZM32.9982 18.0127C32.9982 15.5776 33.0188 13.1645 32.8908 10.7338C32.7629 7.91053 32.1602 5.40483 30.2285 3.34029C28.2926 1.27133 25.9522 0.63167 23.3104 0.494915C21.0319 0.358161 18.7741 0.380218 16.4997 0.380218C14.2212 0.380218 11.9633 0.358161 9.68897 0.494915C7.04723 0.63167 4.70269 1.27574 2.77092 3.34029C0.835026 5.40925 0.236507 7.91053 0.108548 10.7338C-0.0194109 13.1689 0.00122776 15.582 0.00122776 18.0127C0.00122776 20.4434 -0.0194109 22.8609 0.108548 25.2916C0.236507 28.1149 0.839153 30.6206 2.77092 32.6851C4.70682 34.7541 7.04723 35.3937 9.68897 35.5305C11.9675 35.6672 14.2253 35.6452 16.4997 35.6452C18.7782 35.6452 21.036 35.6672 23.3104 35.5305C25.9522 35.3937 28.2967 34.7497 30.2285 32.6851C32.1644 30.6161 32.7629 28.1149 32.8908 25.2916C33.0229 22.8609 32.9982 20.4478 32.9982 18.0127ZM16.4956 27.0605C11.8106 27.0605 8.02963 23.0197 8.02963 18.0127C8.02963 13.0057 11.8106 8.96486 16.4956 8.96486C21.1805 8.96486 24.9615 13.0057 24.9615 18.0127C24.9615 23.0197 21.1805 27.0605 16.4956 27.0605ZM25.3082 10.7074C24.2144 10.7074 23.3311 9.76333 23.3311 8.5943C23.3311 7.42527 24.2144 6.48122 25.3082 6.48122C26.4021 6.48122 27.2854 7.42527 27.2854 8.5943C27.2857 8.87189 27.2348 9.14682 27.1356 9.40335C27.0363 9.65987 26.8907 9.89296 26.707 10.0892C26.5234 10.2855 26.3053 10.4412 26.0653 10.5472C25.8252 10.6533 25.568 10.7077 25.3082 10.7074Z" fill="black"/>
</svg>
