<svg width="1440" height="285" viewBox="0 0 1440 285" fill="none" xmlns="http://www.w3.org/2000/svg">
<g clip-path="url(#clip0)">
<rect width="1440" height="284.014" fill="white"/>
<path d="M1495.17 -18.1916L1212.28 -75.1523L1155.51 206.796L1438.4 263.757L1495.17 -18.1916Z" fill="url(#paint0_linear)"/>
<path d="M1271.1 -3.76448C1281.46 -1.67677 1291.56 -8.38956 1293.65 -18.7579C1295.74 -29.1263 1289.02 -39.2239 1278.66 -41.3117C1268.29 -43.3994 1258.19 -36.6866 1256.1 -26.3182C1254.02 -15.9499 1260.73 -5.8522 1271.1 -3.76448Z" fill="url(#paint1_linear)"/>
<g opacity="0.1">
<g opacity="0.1">
<path opacity="0.1" d="M1271.1 -3.77339C1271.1 -3.77339 1271.66 -11.2591 1273.7 -12.1007C1275.74 -12.9422 1274.89 -8.7369 1277.47 -10.7142C1280.06 -12.6914 1281.31 -15.867 1281.98 -19.1623C1282.64 -22.4576 1281.53 -24.5512 1283.73 -24.7363C1285.92 -24.9214 1285.11 -26.9544 1285.95 -24.9155C1286.78 -22.8765 1288.1 -23.2286 1289.3 -26.1106C1289.98 -27.9711 1290.76 -29.7896 1291.65 -31.5561C1293.21 -34.6784 1289.15 -26.3707 1291.37 -22.571C1293.59 -18.7713 1292.7 -32.2844 1296.66 -31.8006C1300.61 -31.3168 1298.93 -22.9429 1297.6 -21.0036C1296.27 -19.0644 1290.94 -15.8001 1289.86 -15.0777C1288.78 -14.3553 1287.53 -15.7767 1285.6 -15.6221C1283.38 -15.4503 1281.4 -11.794 1281.4 -11.794C1281.4 -11.794 1280.5 -8.86026 1279.71 -8.07872C1278.93 -7.29718 1281.3 -8.38497 1278.94 -7.30304C1277.33 -6.68706 1275.55 -6.70988 1273.96 -7.3668C1273.96 -7.3668 1270.66 -6.23616 1271.1 -3.77339Z" fill="white"/>
<path opacity="0.4" d="M1253.19 -22.8259C1253.19 -22.8259 1269.46 -30.3176 1276.22 -19.5952C1282.97 -8.87283 1287.45 -3.34209 1291.39 -12.1727C1295.32 -21.0033 1311.16 -27.2827 1293.8 -35.5582C1276.45 -43.8337 1260.69 -52.0469 1255.82 -40.3574C1250.96 -28.6679 1253.19 -22.8259 1253.19 -22.8259Z" fill="#231F20"/>
</g>
</g>
<path d="M1381.36 166.063C1391.73 168.15 1401.82 161.438 1403.91 151.069C1406 140.701 1399.29 130.603 1388.92 128.516C1378.55 126.428 1368.45 133.141 1366.36 143.509C1364.28 153.877 1370.99 163.975 1381.36 166.063Z" fill="#ED157B"/>
<g opacity="0.1">
<g opacity="0.1">
<path opacity="0.1" d="M1407.65 147.01C1407.65 147.01 1397.56 149.667 1393.97 147.616C1390.38 145.564 1383.36 145.624 1384.68 143.225C1386 140.827 1385.93 141.384 1389.59 140.731C1393.25 140.078 1396.82 143.416 1393.26 140.073C1389.7 136.729 1392.19 137.361 1386.97 136.805C1381.74 136.249 1383.11 137.005 1380.36 135.918C1377.62 134.831 1379.61 139.683 1382.6 139.508C1385.6 139.333 1379.41 141.921 1380.46 143.803C1381.5 145.685 1380.74 145.982 1382.64 146.672C1384.55 147.361 1387.4 148.591 1389.63 149.033C1391.86 149.475 1394.72 150.577 1397.5 150.091C1400.29 149.606 1401.36 149.891 1403.53 148.891C1405.69 147.891 1407.65 147.01 1407.65 147.01Z" fill="white"/>
<path opacity="0.1" d="M1398.96 131.645C1398.96 131.645 1388.87 134.303 1385.29 132.251C1381.7 130.2 1374.67 130.26 1376 127.861C1377.32 125.462 1377.25 126.02 1380.91 125.368C1384.58 124.717 1388.14 128.053 1384.58 124.709C1381.02 121.366 1383.51 121.996 1378.29 121.442C1373.07 120.887 1374.43 121.642 1371.68 120.554C1368.93 119.465 1370.92 124.319 1373.92 124.144C1376.92 123.968 1370.74 126.557 1371.77 128.438C1372.81 130.319 1372.05 130.617 1373.97 131.308C1375.88 132 1378.72 133.228 1380.95 133.668C1383.17 134.109 1386.03 135.212 1388.82 134.727C1391.61 134.242 1392.68 134.526 1394.85 133.528C1397.02 132.529 1398.96 131.645 1398.96 131.645Z" fill="white"/>
<path opacity="0.1" d="M1366.16 144.75C1366.16 144.75 1373.67 144.818 1374.64 146.8C1375.6 148.782 1371.37 148.211 1373.51 150.659C1375.65 153.106 1378.91 154.16 1382.23 154.599C1385.55 155.038 1387.58 153.775 1387.91 155.979C1388.24 158.183 1390.21 157.207 1388.23 158.182C1386.25 159.157 1386.69 160.445 1389.64 161.452C1391.54 162.011 1393.41 162.681 1395.23 163.456C1398.44 164.813 1389.89 161.304 1386.24 163.8C1382.59 166.295 1396.03 164.495 1395.79 168.472C1395.56 172.449 1387.09 171.302 1385.08 170.134C1383.07 168.965 1379.48 163.835 1378.66 162.8C1377.85 161.766 1379.21 160.428 1378.93 158.516C1378.61 156.314 1374.83 154.575 1374.83 154.575C1374.83 154.575 1371.84 153.866 1371.01 153.141C1370.18 152.416 1371.41 154.749 1370.18 152.41C1369.47 150.847 1369.37 149.069 1369.92 147.44C1369.92 147.44 1368.58 144.161 1366.16 144.75Z" fill="white"/>
<path opacity="0.1" d="M1392.02 153.295C1392.02 153.295 1399.65 153.364 1400.65 155.384C1401.66 157.404 1397.31 156.818 1399.5 159.305C1401.68 161.792 1404.99 162.863 1408.38 163.316C1411.77 163.77 1413.83 162.481 1414.15 164.723C1414.48 166.965 1416.49 165.958 1414.47 166.955C1412.44 167.952 1412.9 169.26 1415.9 170.299C1417.84 170.859 1419.74 171.534 1421.6 172.317C1424.87 173.7 1416.17 170.132 1412.46 172.668C1408.75 175.205 1422.41 173.373 1422.2 177.423C1421.98 181.474 1413.34 180.313 1411.3 179.1C1409.26 177.888 1405.57 172.686 1404.77 171.638C1403.96 170.59 1405.32 169.229 1405.04 167.279C1404.73 165.047 1400.87 163.27 1400.87 163.27C1400.87 163.27 1397.83 162.551 1396.98 161.808C1396.14 161.066 1397.42 163.424 1396.14 161.073C1395.41 159.483 1395.32 157.675 1395.87 156.018C1395.87 156.018 1394.5 152.693 1392.02 153.295Z" fill="white"/>
<path opacity="0.4" d="M1384 125.637C1384 125.637 1392.54 141.378 1382.29 148.785C1372.05 156.192 1366.84 161.061 1375.88 164.408C1384.92 167.756 1392.28 183.152 1399.37 165.32C1406.46 147.487 1413.65 131.195 1401.66 127.086C1389.67 122.977 1384 125.637 1384 125.637Z" fill="#231F20"/>
</g>
</g>
<path d="M1229.76 112.277C1235.29 113.39 1240.67 109.811 1241.79 104.282C1242.9 98.7535 1239.32 93.3691 1233.79 92.2559C1228.26 91.1427 1222.88 94.7222 1221.77 100.251C1220.65 105.78 1224.23 111.164 1229.76 112.277Z" fill="#ED157B"/>
<g opacity="0.1">
<g opacity="0.1">
<path opacity="0.1" d="M1243.77 102.114C1243.77 102.114 1238.39 103.529 1236.48 102.432C1234.56 101.336 1230.82 101.369 1231.53 100.091C1232.23 98.8136 1232.19 99.1101 1234.15 98.7632C1236.1 98.4163 1238 100.197 1236.11 98.3943C1234.21 96.5918 1235.54 96.943 1232.75 96.6428C1229.97 96.3426 1230.68 96.7517 1229.23 96.1772C1227.78 95.6027 1228.83 98.1807 1230.42 98.0903C1232.02 97.9999 1228.72 99.3889 1229.28 100.379C1229.83 101.37 1229.42 101.547 1230.44 101.912C1231.65 102.415 1232.9 102.836 1234.17 103.174C1235.35 103.413 1236.88 103.995 1238.37 103.73C1239.86 103.465 1240.44 103.628 1241.55 103.088C1242.66 102.548 1243.77 102.114 1243.77 102.114Z" fill="white"/>
<path opacity="0.1" d="M1239.15 93.9227C1239.15 93.9227 1233.78 95.3369 1231.86 94.2406C1229.94 93.1442 1226.2 93.1775 1226.91 91.8996C1227.61 90.6217 1227.57 90.9183 1229.53 90.5714C1231.48 90.2245 1233.38 92.0035 1231.49 90.2025C1229.6 88.4014 1230.92 88.7511 1228.13 88.4494C1225.34 88.1477 1226.05 88.5583 1224.6 87.9838C1223.15 87.4093 1224.2 89.9874 1225.8 89.897C1227.4 89.8066 1224.1 91.1971 1224.66 92.1874C1225.21 93.1777 1224.8 93.3548 1225.82 93.7203C1227.04 94.2193 1228.28 94.6407 1229.55 94.9819C1230.74 95.2213 1232.26 95.7959 1233.75 95.538C1235.24 95.2801 1235.82 95.4365 1236.93 94.8962C1238.04 94.3558 1239.15 93.9227 1239.15 93.9227Z" fill="white"/>
<path opacity="0.1" d="M1221.66 100.907C1221.66 100.907 1225.66 100.949 1226.18 102C1226.7 103.052 1224.43 102.756 1225.57 104.063C1226.82 105.302 1228.47 106.05 1230.23 106.168C1232 106.404 1233.08 105.727 1233.26 106.9C1233.43 108.074 1234.48 107.56 1233.42 108.072C1232.37 108.585 1232.61 109.282 1234.18 109.82C1235.2 110.112 1236.19 110.466 1237.17 110.88C1238.88 111.599 1234.34 109.731 1232.37 111.059C1230.39 112.386 1237.58 111.43 1237.46 113.551C1237.34 115.672 1232.82 115.067 1231.75 114.433C1230.69 113.799 1228.75 111.064 1228.33 110.52C1227.9 109.977 1228.58 109.243 1228.46 108.257C1228.29 107.077 1226.28 106.153 1226.28 106.153C1225.57 106.001 1224.88 105.742 1224.24 105.384C1223.8 104.997 1224.46 106.235 1223.8 104.997C1223.42 104.165 1223.37 103.217 1223.66 102.35C1223.66 102.35 1222.95 100.594 1221.66 100.907Z" fill="white"/>
<path opacity="0.1" d="M1235.46 105.466C1235.46 105.466 1239.53 105.522 1240.06 106.584C1240.6 107.646 1238.28 107.348 1239.45 108.674C1240.71 109.938 1242.4 110.7 1244.18 110.819C1245.99 111.061 1247.09 110.365 1247.26 111.562C1247.44 112.759 1248.51 112.233 1247.44 112.757C1246.36 113.281 1246.6 113.986 1248.2 114.53C1249.23 114.83 1250.25 115.19 1251.24 115.607C1252.98 116.348 1248.34 114.444 1246.36 115.793C1244.38 117.143 1251.67 116.167 1251.54 118.364C1251.41 120.56 1246.81 119.909 1245.73 119.263C1244.64 118.617 1242.67 115.837 1242.25 115.279C1241.82 114.72 1242.51 113.987 1242.39 112.955C1242.21 111.759 1240.16 110.818 1240.16 110.818C1239.44 110.661 1238.74 110.397 1238.09 110.036C1237.64 109.646 1238.31 110.904 1237.64 109.646C1237.25 108.796 1237.21 107.831 1237.5 106.946C1237.5 106.946 1236.77 105.15 1235.46 105.466Z" fill="white"/>
<path opacity="0.4" d="M1231.17 90.7118C1231.17 90.7118 1235.73 99.1057 1230.26 103.052C1224.79 106.999 1222.01 109.6 1226.84 111.39C1231.67 113.181 1235.59 121.386 1239.37 111.86C1243.16 102.335 1246.99 93.6601 1240.59 91.4861C1234.19 89.3122 1231.17 90.7118 1231.17 90.7118Z" fill="#231F20"/>
</g>
</g>
<path opacity="0.3" d="M1477.72 166.839C1461.24 163.521 1445.17 169.175 1434.88 180.306C1428.02 171.78 1418.38 165.943 1407.65 163.819C1383.03 158.861 1359.23 173.925 1354.5 197.41C1354.22 198.825 1354.01 200.254 1353.88 201.69C1349.36 196.544 1343.28 193.033 1336.56 191.706C1331.29 190.594 1325.81 190.904 1320.69 192.604C1315.57 194.304 1311 197.333 1307.44 201.382C1304.48 199.671 1301.26 198.455 1297.91 197.784C1295.64 197.323 1293.32 197.112 1291.01 197.157C1287.28 182.852 1275.27 171.033 1259.23 167.803C1253.42 166.596 1247.42 166.652 1241.63 167.965C1235.85 169.278 1230.41 171.818 1225.69 175.414C1225.89 174.652 1226.08 173.882 1226.24 173.097C1227.39 167.228 1227.15 161.171 1225.53 155.415C1223.91 149.658 1220.96 144.362 1216.92 139.954C1221.37 137.856 1225.27 134.751 1228.32 130.885C1231.37 127.018 1233.47 122.496 1234.47 117.676C1237.99 100.172 1225.98 82.9917 1207.65 79.3002C1206.74 79.1169 1205.83 78.9807 1204.92 78.8738C1205.21 77.9693 1205.44 77.0507 1205.63 76.1218C1206.41 72.1608 1206.32 68.0774 1205.37 64.1534C1204.42 60.2295 1202.63 56.5585 1200.13 53.3939C1204.04 51.533 1207.46 48.7913 1210.14 45.3839C1212.81 41.9764 1214.66 37.9959 1215.54 33.7545C1216.82 27.3509 1215.78 20.7007 1212.62 14.9854C1215.68 10.7728 1217.79 5.95154 1218.81 0.850147C1219.29 -1.56431 1219.53 -4.02077 1219.52 -6.48268C1227.24 -11.2152 1232.91 -18.6553 1235.44 -27.3489C1237.96 -36.0426 1237.15 -45.3651 1233.17 -53.4949C1235.94 -55.6401 1238.14 -58.4218 1239.6 -61.6032C1241.06 -64.7845 1241.73 -68.271 1241.55 -71.7659C1241.36 -75.2607 1240.34 -78.6601 1238.57 -81.6746C1236.79 -84.6892 1234.31 -87.2294 1231.34 -89.0789C1228.37 -90.9284 1224.99 -92.0323 1221.5 -92.2967C1218.01 -92.5611 1214.51 -91.9781 1211.3 -90.5973C1208.08 -89.2165 1205.25 -87.0789 1203.04 -84.3666C1200.82 -81.6543 1199.3 -78.4477 1198.6 -75.0199C1198.52 -74.6383 1198.44 -74.2493 1198.37 -73.8677C1190.32 -73.4108 1182.66 -70.2991 1176.57 -65.02C1170.48 -59.7409 1166.32 -52.5924 1164.73 -44.6939C1164.25 -42.2819 1164.01 -39.8279 1164.02 -37.3684C1159.32 -34.4823 1155.33 -30.5639 1152.36 -25.9097C1149.4 -21.2555 1147.53 -15.9875 1146.9 -10.5043C1146.27 -5.02109 1146.89 0.533639 1148.72 5.73954C1150.56 10.9454 1153.55 15.6661 1157.48 19.5444C1157.24 20.3296 1157.04 21.1281 1156.87 21.9427C1156.09 25.9037 1156.18 29.9871 1157.13 33.9111C1158.08 37.835 1159.87 41.506 1162.38 44.6705C1158.47 46.5315 1155.04 49.2732 1152.37 52.6806C1149.69 56.088 1147.85 60.0686 1146.97 64.3099C1143.9 79.5534 1154.17 94.5132 1170 98.0429C1169.12 100.052 1168.46 102.15 1168.03 104.299C1167.23 108.383 1167.24 112.586 1168.07 116.666C1168.9 120.745 1170.53 124.618 1172.87 128.061C1159.66 132.274 1149.2 142.943 1146.36 157.012C1142.12 178.069 1156.57 198.741 1178.63 203.182C1184.43 204.388 1190.44 204.333 1196.22 203.019C1202.01 201.706 1207.44 199.166 1212.16 195.57C1211.96 196.33 1211.77 197.095 1211.61 197.88C1207.37 218.936 1221.81 239.644 1243.87 244.086C1251.75 245.695 1259.92 245.005 1267.42 242.099C1272 248.462 1278.83 252.841 1286.52 254.347C1291.8 255.46 1297.28 255.152 1302.4 253.453C1307.51 251.754 1312.09 248.726 1315.65 244.679C1318.61 246.383 1321.83 247.596 1325.18 248.269C1340.86 251.427 1356.02 242.376 1360.03 227.878C1363.38 233.298 1367.83 237.967 1373.07 241.592C1378.32 245.217 1384.25 247.72 1390.51 248.946C1406.98 252.262 1423.05 246.61 1433.34 235.478C1440.2 244.002 1449.84 249.84 1460.57 251.965C1485.19 256.921 1508.98 241.857 1513.71 218.372C1518.44 194.887 1502.37 171.803 1477.72 166.839Z" fill="white"/>
<path d="M1457.45 186.325C1449.9 184.779 1442.08 185.228 1434.76 187.628C1427.44 190.029 1420.87 194.298 1415.71 200.013C1409.15 191.574 1399.77 185.781 1389.28 183.696C1365.37 178.882 1342.15 194.023 1337.41 217.545C1337.12 218.978 1336.91 220.404 1336.77 221.822C1333.99 218.55 1330.53 215.921 1326.64 214.116C1322.74 212.311 1318.5 211.374 1314.21 211.37C1309.91 211.365 1305.67 212.293 1301.77 214.089C1297.87 215.885 1294.41 218.506 1291.62 221.772C1288.75 220.084 1285.63 218.889 1282.36 218.237C1280.16 217.792 1277.91 217.595 1275.66 217.649C1273.99 211.217 1270.75 205.302 1266.22 200.439C1261.7 195.575 1256.03 191.918 1249.73 189.797C1243.44 187.676 1236.71 187.159 1230.16 188.293C1223.62 189.426 1217.46 192.175 1212.24 196.289C1212.45 195.529 1212.63 194.757 1212.79 193.979C1213.95 188.156 1213.76 182.144 1212.22 176.409C1210.68 170.675 1207.83 165.374 1203.91 160.918C1208.29 158.75 1212.11 155.609 1215.09 151.735C1218.07 147.861 1220.13 143.357 1221.1 138.568C1224.62 121.064 1213.04 103.969 1195.22 100.382C1194.34 100.205 1193.46 100.073 1192.58 99.9721C1192.85 99.0725 1193.09 98.1581 1193.28 97.2187C1194.07 93.2854 1194.01 89.229 1193.11 85.3197C1192.21 81.4104 1190.49 77.738 1188.06 74.547C1191.43 72.8737 1194.43 70.5427 1196.88 67.6915C1199.34 64.8402 1201.19 61.5263 1202.35 57.9452C1203.5 54.3641 1203.93 50.5883 1203.6 46.8403C1203.27 43.0923 1202.19 39.448 1200.44 36.1222C1204.87 29.8349 1207.26 22.3347 1207.27 14.6423C1214.84 9.771 1220.39 2.3165 1222.88 -6.33598C1225.37 -14.9885 1224.63 -24.2505 1220.81 -32.4009C1224.92 -35.6375 1227.74 -40.2331 1228.76 -45.3623C1231.13 -57.1049 1223.78 -68.5504 1212.35 -70.8528C1200.91 -73.1552 1189.7 -65.4925 1187.33 -53.7204C1187.25 -53.3315 1187.18 -52.9865 1187.1 -52.5682C1171.39 -51.577 1157.57 -39.8419 1154.23 -23.2407C1153.75 -20.8257 1153.51 -18.3697 1153.51 -15.9079C1148.9 -12.95 1145.01 -9.00661 1142.1 -4.36162C1139.2 0.283373 1137.36 5.51436 1136.72 10.9547C1136.08 16.3951 1136.66 21.9094 1138.41 27.1008C1140.16 32.2921 1143.03 37.0311 1146.83 40.9768C1146.6 41.7547 1146.39 42.5531 1146.23 43.3678C1145.44 47.3018 1145.5 51.359 1146.4 55.2688C1147.3 59.1786 1149.03 62.851 1151.46 66.0409C1147.61 67.9586 1144.25 70.7293 1141.63 74.1424C1139 77.5556 1137.2 81.5212 1136.34 85.7379C1133.27 100.981 1143.18 115.867 1158.55 119.305C1156.49 124.13 1155.65 129.386 1156.1 134.611C1156.55 139.836 1158.29 144.869 1161.14 149.268C1154.64 151.392 1148.81 155.201 1144.25 160.307C1139.7 165.414 1136.57 171.636 1135.2 178.341C1130.97 199.39 1144.9 219.959 1166.32 224.273C1172.01 225.434 1177.87 225.339 1183.52 223.994C1189.16 222.649 1194.44 220.086 1198.99 216.485C1198.78 217.245 1198.6 218.017 1198.44 218.795C1194.2 239.851 1208.13 260.42 1229.56 264.735C1237.24 266.296 1245.21 265.563 1252.48 262.629C1255.07 266.347 1258.48 269.423 1262.44 271.618C1266.41 273.814 1270.82 275.072 1275.35 275.296C1279.88 275.519 1284.4 274.702 1288.56 272.908C1292.72 271.113 1296.42 268.389 1299.36 264.944C1302.22 266.623 1305.33 267.815 1308.58 268.472C1323.81 271.54 1338.61 262.422 1342.58 247.911C1345.77 253.266 1350.04 257.89 1355.13 261.484C1360.22 265.078 1366.01 267.561 1372.12 268.772C1388.12 271.995 1402.45 276.821 1412.5 265.64C1418.8 273.781 1429.35 269.208 1440.28 271.408C1464.19 276.223 1487.42 261.045 1492.15 237.56C1496.88 214.074 1481.35 191.138 1457.45 186.325Z" fill="white"/>
<path d="M1284.71 87.9369L1300.01 85.8088L1299.13 95.8885L1282.03 91.2913L1284.71 87.9369Z" fill="#FBAC1D"/>
<path fill-rule="evenodd" clip-rule="evenodd" d="M1277.86 93.1332L1279 94.3092C1282.69 93.2984 1286.09 91.4281 1288.91 88.8516C1292.25 85.6067 1292.78 80.7418 1292.63 78.7184C1290.61 78.5014 1285.77 78.9326 1282.43 82.1701C1279.76 84.9147 1277.78 88.2531 1276.65 91.9115L1277.83 93.1258L1277.86 93.1332Z" fill="#BC3647"/>
<path d="M1309.89 113.879L1312.47 98.6814L1302.39 99.2336L1306.47 116.474L1309.89 113.879Z" fill="#D56627"/>
<path fill-rule="evenodd" clip-rule="evenodd" d="M1304.49 120.58L1303.35 119.404C1304.48 115.745 1306.46 112.407 1309.13 109.662C1312.47 106.425 1317.35 106.041 1319.37 106.249C1319.53 108.281 1318.95 113.099 1315.61 116.344C1312.79 118.92 1309.39 120.791 1305.7 121.801L1304.52 120.586L1304.49 120.58Z" fill="#BC3647"/>
<path fill-rule="evenodd" clip-rule="evenodd" d="M1296.29 101.646L1292.8 98.0483C1295.23 91.4445 1303.22 75.2135 1315.68 63.1214C1328.14 51.0292 1344.76 47.9529 1351.57 47.9867C1351.4 54.8255 1347.95 71.4515 1335.49 83.5436C1323.03 95.6358 1306.56 103.135 1299.89 105.394L1296.39 101.797L1296.29 101.646Z" fill="#FBAC1D"/>
<path d="M1299.9 105.366L1296.29 101.645L1351.58 47.9879C1351.4 54.8267 1347.96 71.4527 1335.5 83.5449C1323.03 95.637 1306.57 103.136 1299.9 105.366Z" fill="#F58227"/>
<mask id="mask0" style="mask-type:alpha" maskUnits="userSpaceOnUse" x="1293" y="47" width="59" height="59">
<path fill-rule="evenodd" clip-rule="evenodd" d="M1296.7 101.489L1293.21 97.8921C1295.65 91.2883 1303.63 75.0573 1316.1 62.9651C1328.56 50.873 1345.18 47.7967 1351.98 47.8305C1351.81 54.6692 1348.36 71.2952 1335.9 83.3874C1323.44 95.4796 1306.98 102.978 1300.3 105.238L1296.81 101.641L1296.7 101.489Z" fill="#FBAC1D"/>
</mask>
<g mask="url(#mask0)">
<path d="M1343.4 35.9921L1328.33 50.6152L1349.01 71.9353L1364.09 57.3122L1343.4 35.9921Z" fill="#DE445E"/>
<path d="M1328.34 50.1168L1326.81 51.6025L1347.5 72.9227L1349.03 71.4369L1328.34 50.1168Z" fill="#A01D20"/>
<path d="M1287.22 90.0211L1285.69 91.5068L1306.37 112.827L1307.9 111.341L1287.22 90.0211Z" fill="#A01D20"/>
</g>
<path d="M1335.1 74.9709C1338.2 71.9592 1338.26 66.9872 1335.23 63.8654C1332.2 60.7437 1327.23 60.6544 1324.13 63.6661C1321.02 66.6777 1320.96 71.6498 1323.99 74.7715C1327.02 77.8933 1331.99 77.9825 1335.1 74.9709Z" fill="#373636"/>
<path d="M1342.01 62.0307L1341.95 67.0284L1318.82 66.609L1318.88 61.6113L1342.01 62.0307Z" fill="white" fill-opacity="0.2"/>
<path d="M1343.57 70.9437L1318.41 70.4601L1318.04 72.3096L1343.58 72.7701L1343.57 70.9437Z" fill="white" fill-opacity="0.2"/>
<path d="M1279 94.3095L1199.79 188.451L1173.81 135.444L1276.68 91.9176L1279 94.3095Z" fill="white"/>
<path d="M1292.8 98.0484L1299.9 105.366L1239.98 238.813L1184.53 193.305L1183.1 171.481L1292.8 98.0484Z" fill="white"/>
<path d="M1303.35 119.403L1218.08 214.607L1256.42 243.872L1305.67 121.795L1303.35 119.403Z" fill="white"/>
<path opacity="0.1" d="M1531.78 -46.1226C1532.16 -47.4362 1532.51 -48.763 1532.8 -50.1251C1534.92 -60.1292 1534.25 -70.5245 1530.84 -80.1685C1527.44 -89.8125 1521.45 -98.3317 1513.52 -104.79C1505.59 -111.247 1496.03 -115.394 1485.9 -116.773C1475.76 -118.153 1465.45 -116.711 1456.08 -112.608C1449.59 -118.007 1441.95 -121.857 1433.75 -123.866C1425.54 -125.875 1416.99 -125.99 1408.74 -124.204C1400.48 -122.417 1392.75 -118.775 1386.11 -113.554C1379.47 -108.333 1374.11 -101.669 1370.43 -94.0685C1366.75 -86.4676 1364.85 -78.1289 1364.87 -69.6842C1364.89 -61.2395 1366.83 -52.9104 1370.55 -45.3281C1374.27 -37.7458 1379.66 -31.1092 1386.33 -25.9214C1392.99 -20.7335 1400.75 -17.1305 1409.01 -15.3853C1420.36 -12.9658 1432.19 -14.178 1442.81 -18.8504C1444.2 -17.6931 1445.64 -16.6091 1447.14 -15.5882C1446.76 -14.2761 1446.41 -12.9493 1446.13 -11.593C1444.04 -1.72382 1444.67 8.5274 1447.96 18.0639C1451.25 27.6004 1457.07 36.0633 1464.8 42.5472C1472.52 49.0312 1481.87 53.2922 1491.83 54.8745C1501.8 56.4567 1512 55.3006 1521.36 51.5298C1530.71 47.7591 1538.87 41.5156 1544.95 33.4672C1551.03 25.4189 1554.81 15.8686 1555.88 5.83806C1556.96 -4.19247 1555.28 -14.3258 1551.04 -23.4779C1546.8 -32.6299 1540.15 -40.4563 1531.8 -46.1197L1531.78 -46.1226Z" fill="white"/>
<g opacity="0.08">
<path opacity="0.5" d="M1490.71 76.6778L1262.05 -125.175L1248.16 -116.052L1481.39 89.9442L1490.71 76.6778Z" fill="white"/>
<path opacity="0.5" d="M1233.54 -113.276L1194.05 -87.3664L1490.13 177.677L1520.21 145.438L1233.54 -113.276Z" fill="white"/>
</g>
<path d="M1364.17 192.347C1364.77 192.467 1365.35 192.081 1365.47 191.485C1365.59 190.889 1365.2 190.309 1364.61 190.189C1364.01 190.069 1363.43 190.455 1363.31 191.051C1363.19 191.646 1363.58 192.227 1364.17 192.347Z" fill="white"/>
<g opacity="0.5">
<path opacity="0.5" d="M1329.54 129.191C1330.13 129.311 1330.71 128.926 1330.83 128.33C1330.95 127.734 1330.57 127.154 1329.97 127.034C1329.38 126.914 1328.79 127.299 1328.67 127.895C1328.55 128.491 1328.94 129.071 1329.54 129.191Z" fill="white"/>
<path opacity="0.5" d="M1341.82 132.061C1342.42 132.18 1343 131.795 1343.12 131.199C1343.24 130.603 1342.85 130.023 1342.26 129.903C1341.66 129.783 1341.08 130.169 1340.96 130.764C1340.84 131.36 1341.23 131.941 1341.82 132.061Z" fill="white"/>
<path opacity="0.5" d="M1350.25 123.723C1350.85 123.843 1351.43 123.457 1351.55 122.861C1351.67 122.265 1351.29 121.685 1350.69 121.565C1350.09 121.445 1349.51 121.831 1349.39 122.426C1349.27 123.022 1349.66 123.603 1350.25 123.723Z" fill="white"/>
<path opacity="0.5" d="M1417.15 131.862C1417.74 131.982 1418.33 131.596 1418.44 131.001C1418.56 130.405 1418.18 129.825 1417.58 129.705C1416.99 129.585 1416.41 129.97 1416.29 130.566C1416.17 131.162 1416.55 131.742 1417.15 131.862Z" fill="white"/>
<path opacity="0.5" d="M1392.97 111.302C1393.57 111.422 1394.15 111.036 1394.27 110.44C1394.39 109.844 1394 109.264 1393.41 109.144C1392.81 109.024 1392.23 109.41 1392.11 110.006C1391.99 110.601 1392.38 111.182 1392.97 111.302Z" fill="white"/>
<path opacity="0.5" d="M1421.34 110.476C1421.94 110.596 1422.52 110.21 1422.64 109.614C1422.76 109.018 1422.37 108.438 1421.77 108.318C1421.18 108.198 1420.6 108.584 1420.48 109.179C1420.36 109.775 1420.74 110.356 1421.34 110.476Z" fill="white"/>
<path opacity="0.5" d="M1405.95 108.364C1406.55 108.484 1407.13 108.098 1407.25 107.503C1407.37 106.907 1406.98 106.326 1406.39 106.206C1405.79 106.087 1405.21 106.472 1405.09 107.068C1404.97 107.664 1405.36 108.244 1405.95 108.364Z" fill="white"/>
<path opacity="0.5" d="M1336.82 94.0917C1337.41 94.2117 1337.99 93.826 1338.11 93.2301C1338.23 92.6343 1337.85 92.054 1337.25 91.934C1336.65 91.8141 1336.07 92.1998 1335.95 92.7957C1335.83 93.3915 1336.22 93.9718 1336.82 94.0917Z" fill="white"/>
<path opacity="0.5" d="M1342.16 18.9072C1342.75 19.0272 1343.33 18.6414 1343.45 18.0456C1343.57 17.4497 1343.19 16.8694 1342.59 16.7495C1342 16.6295 1341.42 17.0152 1341.3 17.6111C1341.18 18.2069 1341.56 18.7872 1342.16 18.9072Z" fill="white"/>
<path opacity="0.5" d="M1354.44 21.7763C1355.04 21.8963 1355.62 21.5105 1355.74 20.9147C1355.86 20.3189 1355.47 19.7386 1354.88 19.6186C1354.28 19.4986 1353.7 19.8844 1353.58 20.4802C1353.46 21.0761 1353.85 21.6563 1354.44 21.7763Z" fill="white"/>
<path opacity="0.5" d="M1362.88 13.4404C1363.47 13.5604 1364.06 13.1746 1364.18 12.5788C1364.3 11.9829 1363.91 11.4026 1363.31 11.2827C1362.72 11.1627 1362.14 11.5485 1362.02 12.1443C1361.9 12.7401 1362.28 13.3204 1362.88 13.4404Z" fill="white"/>
<path opacity="0.5" d="M1429.77 21.58C1430.37 21.7 1430.95 21.3142 1431.07 20.7184C1431.19 20.1226 1430.8 19.5423 1430.21 19.4223C1429.61 19.3023 1429.03 19.6881 1428.91 20.2839C1428.79 20.8798 1429.17 21.4601 1429.77 21.58Z" fill="white"/>
<path opacity="0.5" d="M1405.59 1.01753C1406.19 1.1375 1406.77 0.751738 1406.89 0.155902C1407.01 -0.439935 1406.62 -1.02022 1406.03 -1.14019C1405.43 -1.26016 1404.85 -0.8744 1404.73 -0.278563C1404.61 0.317274 1405 0.897554 1405.59 1.01753Z" fill="white"/>
<path opacity="0.5" d="M1378.68 85.7656C1379.27 85.8856 1379.85 85.4998 1379.97 84.904C1380.09 84.3081 1379.71 83.7278 1379.11 83.6079C1378.52 83.4879 1377.94 83.8737 1377.82 84.4695C1377.7 85.0653 1378.08 85.6456 1378.68 85.7656Z" fill="white"/>
<path opacity="0.5" d="M1433.96 0.200134C1434.56 0.320108 1435.14 -0.0656557 1435.26 -0.661492C1435.38 -1.25733 1434.99 -1.8376 1434.4 -1.95757C1433.8 -2.07755 1433.22 -1.69179 1433.1 -1.09596C1432.98 -0.500121 1433.37 0.0801597 1433.96 0.200134Z" fill="white"/>
<path opacity="0.5" d="M1267.96 60.2031C1268.56 60.323 1269.14 59.9373 1269.26 59.3414C1269.38 58.7456 1268.99 58.1653 1268.4 58.0454C1267.8 57.9254 1267.22 58.3111 1267.1 58.907C1266.98 59.5028 1267.37 60.0831 1267.96 60.2031Z" fill="white"/>
</g>
<path d="M-12.9033 23.3691H343.656V310.108H-12.9033V23.3691Z" fill="url(#paint2_linear)"/>
<path d="M136.45 311.117V217.749H110.257V238.085H81.9092V311.117H136.45Z" fill="#183046"/>
<path d="M125.664 252.264H130.904V247.024H125.664V252.264Z" fill="#369ED8"/>
<path opacity="0.5" d="M125.664 240.153H130.904V234.913H125.664V240.153Z" fill="#369ED8"/>
<path opacity="0.5" d="M115.203 252.264H120.442V247.024H115.203V252.264Z" fill="#369ED8"/>
<path opacity="0.25" d="M115.203 240.153H120.442V234.913H115.203V240.153Z" fill="#369ED8"/>
<path d="M1442.39 311.117V217.749H1416.2V238.085H1387.85V311.117H1442.39Z" fill="#183046"/>
<path d="M1431.61 252.264H1436.85V247.024H1431.61V252.264Z" fill="#369ED8"/>
<path opacity="0.5" d="M1431.61 240.153H1436.85V234.913H1431.61V240.153Z" fill="#369ED8"/>
<path opacity="0.5" d="M1421.15 252.264H1426.39V247.024H1421.15V252.264Z" fill="#369ED8"/>
<path opacity="0.25" d="M1421.15 240.153H1426.39V234.913H1421.15V240.153Z" fill="#369ED8"/>
<path d="M4.66025 207.466H31.833V310.31H4.66025V207.466Z" fill="#194C69"/>
<path d="M-8.9434 311.116V231.793H13.3097V249.07H37.3931V311.116H-8.9434Z" fill="#183046"/>
<path d="M0.219603 261.114H-4.23193L-4.23193 256.663H0.219603L0.219603 261.114Z" fill="#369ED8"/>
<path d="M22.6972 219.393H18.2456V214.941H22.6972V219.393Z" fill="#369ED8"/>
<path d="M22.6972 227.818H18.2456V223.367H22.6972V227.818Z" fill="#369ED8"/>
<path opacity="0.5" d="M0.219603 250.826H-4.23193L-4.23193 246.375H0.219603L0.219603 250.826Z" fill="#369ED8"/>
<path opacity="0.5" d="M9.10684 261.114H4.65527L4.65527 256.663H9.10684V261.114Z" fill="#369ED8"/>
<path opacity="0.5" d="M15.1508 219.393H10.6992V214.941H15.1508V219.393Z" fill="#369ED8"/>
<path opacity="0.25" d="M9.10684 250.826H4.65527L4.65527 246.375H9.10684V250.826Z" fill="#369ED8"/>
<path d="M9.84023 207.466V199.831L26.6494 183.018V207.466H9.84023Z" fill="#194C69"/>
<path d="M211.857 211.233H239.03V314.078H211.857V211.233Z" fill="#194C69"/>
<path d="M198.254 314.884V235.561H220.507V252.838H244.59V314.884H198.254Z" fill="#183046"/>
<path d="M207.417 264.883H202.965V260.431H207.417V264.883Z" fill="#369ED8"/>
<path d="M229.895 223.16H225.443V218.709H229.895V223.16Z" fill="#369ED8"/>
<path d="M229.895 231.586H225.443V227.134H229.895V231.586Z" fill="#369ED8"/>
<path opacity="0.5" d="M207.417 254.593H202.965V250.141H207.417V254.593Z" fill="#369ED8"/>
<path opacity="0.5" d="M216.305 264.883H211.854V260.431H216.305V264.883Z" fill="#369ED8"/>
<path opacity="0.5" d="M222.347 223.16H217.896V218.709H222.347V223.16Z" fill="#369ED8"/>
<path opacity="0.25" d="M216.305 254.593H211.854V250.141H216.305V254.593Z" fill="#369ED8"/>
<path d="M217.037 211.234V203.599L233.847 186.785V211.234H217.037Z" fill="#194C69"/>
<path d="M90.4823 207.466H63.3096V310.31H90.4823V207.466Z" fill="#194C69"/>
<path d="M104.086 311.116V231.793H81.8329V249.07H57.7495V311.116H104.086Z" fill="#183046"/>
<path d="M94.923 261.114H99.3745V256.663H94.923V261.114Z" fill="#369ED8"/>
<path d="M72.4454 219.393H76.897V214.941H72.4454V219.393Z" fill="#369ED8"/>
<path d="M72.4454 227.818H76.897V223.367H72.4454V227.818Z" fill="#369ED8"/>
<path opacity="0.5" d="M94.923 250.826H99.3745V246.375H94.923V250.826Z" fill="#369ED8"/>
<path opacity="0.5" d="M86.0358 261.114H90.4873V256.663H86.0358V261.114Z" fill="#369ED8"/>
<path opacity="0.5" d="M79.9943 219.393H84.4458V214.941H79.9943V219.393Z" fill="#369ED8"/>
<path opacity="0.25" d="M86.0358 250.826H90.4873V246.375H86.0358V250.826Z" fill="#369ED8"/>
<path d="M85.3024 207.466V199.831L68.4932 183.018V207.466H85.3024Z" fill="#194C69"/>
<path d="M1396.43 207.466H1369.25V310.31H1396.43V207.466Z" fill="#194C69"/>
<path d="M1410.03 311.116V231.793H1387.78V249.07H1363.69V311.116H1410.03Z" fill="#183046"/>
<path d="M1400.87 261.114H1405.32V256.663H1400.87V261.114Z" fill="#369ED8"/>
<path d="M1378.39 219.393H1382.84V214.941H1378.39V219.393Z" fill="#369ED8"/>
<path d="M1378.39 227.818H1382.84V223.367H1378.39V227.818Z" fill="#369ED8"/>
<path opacity="0.5" d="M1400.87 250.826H1405.32V246.375H1400.87V250.826Z" fill="#369ED8"/>
<path opacity="0.5" d="M1391.98 261.114H1396.43V256.663H1391.98V261.114Z" fill="#369ED8"/>
<path opacity="0.5" d="M1385.94 219.393H1390.39V214.941H1385.94V219.393Z" fill="#369ED8"/>
<path opacity="0.25" d="M1391.98 250.826H1396.43V246.375H1391.98V250.826Z" fill="#369ED8"/>
<path d="M1391.25 207.466V199.831L1374.44 183.018V207.466H1391.25Z" fill="#194C69"/>
<path d="M9.52867 114.247C30.8641 118.543 51.6424 104.73 55.9383 83.3943C60.2343 62.0589 46.4211 41.2806 25.0858 36.9846C3.75037 32.6886 -17.028 46.5018 -21.3239 67.8372C-25.6199 89.1726 -11.8067 109.951 9.52867 114.247Z" fill="#ED157B"/>
<path d="M320.29 303.355C341.625 307.651 362.404 293.838 366.7 272.503C370.996 251.167 357.182 230.389 335.847 226.093C314.512 221.797 293.733 235.61 289.437 256.946C285.141 278.281 298.955 299.059 320.29 303.355Z" fill="url(#paint3_linear)"/>
<path fill-rule="evenodd" clip-rule="evenodd" d="M370.971 -0.282082C370.971 9.83652 368.994 19.4934 365.406 28.3235C376.601 31.2989 384.851 41.5045 384.851 53.6369C384.851 63.1165 379.815 71.4198 372.272 76.0169C379.925 81.9571 384.851 91.2451 384.851 101.683C384.851 116.859 374.44 129.604 360.37 133.164C367.023 141.928 370.971 152.857 370.971 164.709C370.971 173.218 368.936 181.251 365.326 188.349C380.062 191.424 391.132 204.487 391.132 220.135C391.132 228.06 388.293 235.321 383.577 240.958C396.348 248.294 404.949 262.069 404.949 277.854C404.949 301.337 385.912 320.373 362.429 320.373C338.946 320.373 319.91 301.337 319.91 277.854C319.91 264.055 326.482 251.792 336.668 244.024C330.226 238.09 326.19 229.584 326.19 220.135C326.19 218.863 326.263 217.608 326.406 216.375C323.906 216.742 321.349 216.932 318.748 216.932C289.906 216.932 266.525 193.551 266.525 164.709C266.525 135.867 289.906 112.486 318.748 112.486C319.766 112.486 320.777 112.515 321.78 112.573C320.569 109.169 319.91 105.503 319.91 101.683C319.91 88.229 328.093 76.6858 339.753 71.7594C337.72 69.6386 336.04 67.1765 334.808 64.4675C323.218 71.6185 309.563 75.7444 294.944 75.7444C267.436 75.7444 243.341 61.1352 229.993 39.2523C225.676 47.7861 216.825 53.6367 206.608 53.6367C203.103 53.6367 199.758 52.9481 196.703 51.6988C183.272 75.7841 157.541 92.074 128.006 92.074C104.156 92.074 82.7864 81.4512 68.3713 64.6789C62.4249 66.7218 56.0444 67.8308 49.4048 67.8308C17.1808 67.8308 -8.94189 41.7082 -8.94189 9.48418C-8.94189 -22.7398 17.1808 -48.8625 49.4048 -48.8625C58.1376 -48.8625 66.4224 -46.9439 73.8606 -43.5053C87.9572 -56.9056 107.021 -65.1291 128.006 -65.1291C167.267 -65.1291 199.805 -36.3439 205.667 1.27322C205.979 1.26218 206.293 1.25663 206.608 1.25663C211.115 1.25663 215.356 2.39516 219.06 4.4003C218.966 2.85157 218.918 1.29032 218.918 -0.282082C218.918 -42.2704 252.956 -76.3086 294.944 -76.3086C336.933 -76.3086 370.971 -42.2704 370.971 -0.282082Z" fill="white"/>
<path d="M299.811 354.07V225.914H263.858V253.828H224.948V354.07H299.811Z" fill="#183046"/>
<path d="M285.005 273.289H292.197V266.097H285.005V273.289Z" fill="#369ED8"/>
<path opacity="0.5" d="M285.005 256.667H292.197V249.475H285.005V256.667Z" fill="#369ED8"/>
<path opacity="0.5" d="M270.646 273.289H277.838V266.097H270.646V273.289Z" fill="#369ED8"/>
<path opacity="0.25" d="M270.646 256.667H277.838V249.475H270.646V256.667Z" fill="#369ED8"/>
<path d="M551.601 354.07V225.914H515.648V253.828H476.738V354.07H551.601Z" fill="#183046"/>
<path d="M536.795 273.289H543.987V266.097H536.795V273.289Z" fill="#369ED8"/>
<path opacity="0.5" d="M536.795 256.667H543.987V249.475H536.795V256.667Z" fill="#369ED8"/>
<path opacity="0.5" d="M522.435 273.289H529.627V266.097H522.435V273.289Z" fill="#369ED8"/>
<path opacity="0.25" d="M522.435 256.667H529.627V249.475H522.435V256.667Z" fill="#369ED8"/>
<path d="M819.781 354.07V225.914H783.829V253.828H744.919V354.07H819.781Z" fill="#183046"/>
<path d="M804.976 273.289H812.168V266.097H804.976V273.289Z" fill="#369ED8"/>
<path opacity="0.5" d="M804.976 256.667H812.168V249.475H804.976V256.667Z" fill="#369ED8"/>
<path opacity="0.5" d="M790.616 273.289H797.809V266.097H790.616V273.289Z" fill="#369ED8"/>
<path opacity="0.25" d="M790.616 256.667H797.809V249.475H790.616V256.667Z" fill="#369ED8"/>
<path d="M1224 354.07V225.914H1188.05V253.828H1149.14V354.07H1224Z" fill="#183046"/>
<path d="M1209.19 273.289H1216.38V266.097H1209.19V273.289Z" fill="#369ED8"/>
<path opacity="0.5" d="M1209.19 256.667H1216.38V249.475H1209.19V256.667Z" fill="#369ED8"/>
<path opacity="0.5" d="M1194.84 273.289H1202.03V266.097H1194.84V273.289Z" fill="#369ED8"/>
<path opacity="0.25" d="M1194.84 256.667H1202.03V249.475H1194.84V256.667Z" fill="#369ED8"/>
<path d="M299.808 354.07V225.914H335.761V253.828H374.671V354.07H299.808Z" fill="#183046"/>
<path d="M314.614 273.289H307.422V266.097H314.614V273.289Z" fill="#369ED8"/>
<path opacity="0.5" d="M314.614 256.667H307.422V249.475H314.614V256.667Z" fill="#369ED8"/>
<path opacity="0.5" d="M328.973 273.289H321.781V266.097H328.973V273.289Z" fill="#369ED8"/>
<path opacity="0.25" d="M328.973 256.667H321.781V249.475H328.973V256.667Z" fill="#369ED8"/>
<path d="M551.597 354.07V225.914H587.55V253.828H626.46V354.07H551.597Z" fill="#183046"/>
<path d="M566.403 273.289H559.211V266.097H566.403V273.289Z" fill="#369ED8"/>
<path opacity="0.5" d="M566.403 256.667H559.211V249.475H566.403V256.667Z" fill="#369ED8"/>
<path opacity="0.5" d="M580.762 273.289H573.57V266.097H580.762V273.289Z" fill="#369ED8"/>
<path opacity="0.25" d="M580.762 256.667H573.57V249.475H580.762V256.667Z" fill="#369ED8"/>
<path d="M1037.09 355.264V227.107H1001.13V255.021H962.224V355.264H1037.09Z" fill="#183046"/>
<path d="M1022.28 274.482H1029.47V267.29H1022.28V274.482Z" fill="#369ED8"/>
<path opacity="0.5" d="M1022.28 257.86H1029.47V250.668H1022.28V257.86Z" fill="#369ED8"/>
<path opacity="0.5" d="M1007.92 274.482H1015.12V267.29H1007.92V274.482Z" fill="#369ED8"/>
<path opacity="0.25" d="M1007.92 257.86H1015.12V250.668H1007.92V257.86Z" fill="#369ED8"/>
<path d="M1111.95 350.804V222.647H1076V250.561H1037.09V350.804H1111.95Z" fill="#183046"/>
<path d="M1097.14 270.022H1104.34V262.83H1097.14V270.022Z" fill="#369ED8"/>
<path opacity="0.5" d="M1097.14 253.4H1104.34V246.208H1097.14V253.4Z" fill="#369ED8"/>
<path opacity="0.5" d="M1082.79 270.022H1089.98V262.83H1082.79V270.022Z" fill="#369ED8"/>
<path opacity="0.25" d="M1082.79 253.4H1089.98V246.208H1082.79V253.4Z" fill="#369ED8"/>
<path d="M1224 354.07V225.914H1259.95V253.828H1298.86V354.07H1224Z" fill="#183046"/>
<path d="M1238.8 273.289H1231.61V266.097H1238.8V273.289Z" fill="#369ED8"/>
<path opacity="0.5" d="M1238.8 256.667H1231.61V249.475H1238.8V256.667Z" fill="#369ED8"/>
<path opacity="0.5" d="M1253.16 273.289H1245.97V266.097H1253.16V273.289Z" fill="#369ED8"/>
<path opacity="0.25" d="M1253.16 256.667H1245.97V249.475H1253.16V256.667Z" fill="#369ED8"/>
<path d="M236.715 211.801H199.418V352.964H236.715V211.801Z" fill="#194C69"/>
<path d="M255.385 354.071V245.193H224.841V268.908H191.784V354.071H255.385Z" fill="#183046"/>
<path d="M242.807 285.439H248.917V279.329H242.807V285.439Z" fill="#369ED8"/>
<path d="M211.953 228.171H218.063V222.061H211.953V228.171Z" fill="#369ED8"/>
<path d="M211.953 239.737H218.063V233.627H211.953V239.737Z" fill="#369ED8"/>
<path opacity="0.5" d="M242.807 271.317H248.917V265.207H242.807V271.317Z" fill="#369ED8"/>
<path opacity="0.5" d="M230.608 285.439H236.718V279.329H230.608V285.439Z" fill="#369ED8"/>
<path opacity="0.5" d="M222.317 228.171H228.427V222.061H222.317V228.171Z" fill="#369ED8"/>
<path opacity="0.25" d="M230.608 271.317H236.718V265.207H230.608V271.317Z" fill="#369ED8"/>
<path d="M229.603 211.802V201.323L206.531 178.244V211.802H229.603Z" fill="#194C69"/>
<path d="M488.504 211.801H451.207V352.964H488.504V211.801Z" fill="#194C69"/>
<path d="M507.173 354.071V245.193H476.629V268.908H443.572V354.071H507.173Z" fill="#183046"/>
<path d="M494.594 285.439H500.705V279.329H494.594V285.439Z" fill="#369ED8"/>
<path d="M463.741 228.171H469.851V222.061H463.741V228.171Z" fill="#369ED8"/>
<path d="M463.741 239.737H469.851V233.627H463.741V239.737Z" fill="#369ED8"/>
<path opacity="0.5" d="M494.594 271.317H500.705V265.207H494.594V271.317Z" fill="#369ED8"/>
<path opacity="0.5" d="M482.396 285.439H488.506V279.329H482.396V285.439Z" fill="#369ED8"/>
<path opacity="0.5" d="M474.105 228.171H480.215V222.061H474.105V228.171Z" fill="#369ED8"/>
<path opacity="0.25" d="M482.396 271.317H488.506V265.207H482.396V271.317Z" fill="#369ED8"/>
<path d="M481.391 211.802V201.323L458.319 178.244V211.802H481.391Z" fill="#194C69"/>
<path d="M756.686 211.801H719.388V352.964H756.686V211.801Z" fill="#194C69"/>
<path d="M775.355 354.071V245.193H744.811V268.908H711.754V354.071H775.355Z" fill="#183046"/>
<path d="M762.776 285.439H768.886V279.329H762.776V285.439Z" fill="#369ED8"/>
<path d="M731.923 228.171H738.033V222.061H731.923V228.171Z" fill="#369ED8"/>
<path d="M731.923 239.737H738.033V233.627H731.923V239.737Z" fill="#369ED8"/>
<path opacity="0.5" d="M762.776 271.317H768.886V265.207H762.776V271.317Z" fill="#369ED8"/>
<path opacity="0.5" d="M750.578 285.439H756.688V279.329H750.578V285.439Z" fill="#369ED8"/>
<path opacity="0.5" d="M742.284 228.171H748.394V222.061H742.284V228.171Z" fill="#369ED8"/>
<path opacity="0.25" d="M750.578 271.317H756.688V265.207H750.578V271.317Z" fill="#369ED8"/>
<path d="M749.573 211.802V201.323L726.501 178.244V211.802H749.573Z" fill="#194C69"/>
<path d="M1160.9 211.801H1123.6V352.964H1160.9V211.801Z" fill="#194C69"/>
<path d="M1179.57 354.071V245.193H1149.03V268.908H1115.97V354.071H1179.57Z" fill="#183046"/>
<path d="M1166.99 285.439H1173.1V279.329H1166.99V285.439Z" fill="#369ED8"/>
<path d="M1136.14 228.171H1142.25V222.061H1136.14V228.171Z" fill="#369ED8"/>
<path d="M1136.14 239.737H1142.25V233.627H1136.14V239.737Z" fill="#369ED8"/>
<path opacity="0.5" d="M1166.99 271.317H1173.1V265.207H1166.99V271.317Z" fill="#369ED8"/>
<path opacity="0.5" d="M1154.8 285.439H1160.91V279.329H1154.8V285.439Z" fill="#369ED8"/>
<path opacity="0.5" d="M1146.5 228.171H1152.61V222.061H1146.5V228.171Z" fill="#369ED8"/>
<path opacity="0.25" d="M1154.8 271.317H1160.91V265.207H1154.8V271.317Z" fill="#369ED8"/>
<path d="M1153.79 211.802V201.323L1130.72 178.244V211.802H1153.79Z" fill="#194C69"/>
<path opacity="0.5" d="M414.916 164.483C415.913 164.684 416.883 164.039 417.084 163.042C417.285 162.045 416.639 161.075 415.643 160.874C414.646 160.673 413.675 161.319 413.474 162.315C413.274 163.312 413.919 164.283 414.916 164.483Z" fill="white"/>
<path opacity="0.5" d="M435.465 169.283C436.461 169.484 437.432 168.839 437.633 167.842C437.833 166.845 437.188 165.875 436.191 165.674C435.195 165.473 434.224 166.119 434.023 167.115C433.823 168.112 434.468 169.083 435.465 169.283Z" fill="white"/>
<path opacity="0.5" d="M449.577 155.34C450.574 155.541 451.545 154.895 451.746 153.899C451.946 152.902 451.301 151.931 450.304 151.731C449.308 151.53 448.337 152.175 448.136 153.172C447.935 154.169 448.581 155.139 449.577 155.34Z" fill="white"/>
<path opacity="0.5" d="M561.472 168.954C562.469 169.155 563.44 168.51 563.64 167.513C563.841 166.516 563.196 165.546 562.199 165.345C561.203 165.144 560.232 165.789 560.031 166.786C559.83 167.783 560.476 168.753 561.472 168.954Z" fill="white"/>
<path opacity="0.5" d="M521.03 134.56C522.027 134.76 522.997 134.115 523.198 133.118C523.399 132.122 522.754 131.151 521.757 130.95C520.76 130.75 519.789 131.395 519.589 132.392C519.388 133.388 520.033 134.359 521.03 134.56Z" fill="white"/>
<path opacity="0.5" d="M476.007 276.322C477.003 276.523 477.974 275.878 478.175 274.881C478.375 273.884 477.73 272.914 476.733 272.713C475.737 272.512 474.766 273.158 474.565 274.154C474.365 275.151 475.01 276.122 476.007 276.322Z" fill="white"/>
<path opacity="0.5" d="M568.484 133.19C569.48 133.391 570.451 132.746 570.652 131.749C570.852 130.752 570.207 129.782 569.21 129.581C568.214 129.38 567.243 130.026 567.042 131.022C566.842 132.019 567.487 132.99 568.484 133.19Z" fill="white"/>
<path opacity="0.5" d="M542.743 129.645C543.74 129.845 544.71 129.2 544.911 128.203C545.111 127.207 544.466 126.236 543.47 126.035C542.473 125.835 541.502 126.48 541.302 127.477C541.101 128.473 541.746 129.444 542.743 129.645Z" fill="white"/>
<path opacity="0.5" d="M427.096 105.782C428.093 105.983 429.064 105.338 429.264 104.341C429.465 103.344 428.82 102.374 427.823 102.173C426.826 101.972 425.856 102.618 425.655 103.614C425.455 104.611 426.1 105.582 427.096 105.782Z" fill="white"/>
<path opacity="0.5" d="M229.701 121.707C230.698 121.908 231.668 121.263 231.869 120.266C232.07 119.269 231.425 118.298 230.428 118.098C229.431 117.897 228.46 118.542 228.26 119.539C228.059 120.536 228.704 121.506 229.701 121.707Z" fill="white"/>
<path opacity="0.5" d="M250.258 126.526C251.255 126.726 252.225 126.081 252.426 125.084C252.627 124.087 251.982 123.117 250.985 122.916C249.988 122.715 249.017 123.361 248.817 124.357C248.616 125.354 249.261 126.325 250.258 126.526Z" fill="white"/>
<path opacity="0.5" d="M666.708 164.483C667.704 164.684 668.675 164.039 668.875 163.042C669.076 162.045 668.431 161.075 667.434 160.874C666.438 160.673 665.467 161.319 665.267 162.315C665.066 163.312 665.711 164.283 666.708 164.483Z" fill="white"/>
<path opacity="0.5" d="M687.254 169.283C688.25 169.484 689.221 168.839 689.422 167.842C689.622 166.845 688.977 165.875 687.98 165.674C686.984 165.473 686.013 166.119 685.812 167.115C685.612 168.112 686.257 169.083 687.254 169.283Z" fill="white"/>
<path opacity="0.5" d="M701.367 155.34C702.363 155.541 703.334 154.895 703.535 153.899C703.735 152.902 703.09 151.931 702.094 151.731C701.097 151.53 700.126 152.175 699.926 153.172C699.725 154.169 700.37 155.139 701.367 155.34Z" fill="white"/>
<path opacity="0.5" d="M813.262 168.954C814.258 169.155 815.229 168.51 815.43 167.513C815.631 166.516 814.985 165.546 813.988 165.345C812.992 165.144 812.021 165.789 811.82 166.786C811.619 167.783 812.265 168.753 813.262 168.954Z" fill="white"/>
<path opacity="0.5" d="M772.817 134.56C773.814 134.76 774.784 134.115 774.985 133.118C775.186 132.122 774.54 131.151 773.544 130.95C772.547 130.75 771.576 131.395 771.375 132.392C771.175 133.388 771.82 134.359 772.817 134.56Z" fill="white"/>
<path opacity="0.5" d="M727.796 276.322C728.793 276.523 729.763 275.878 729.964 274.881C730.165 273.884 729.519 272.914 728.523 272.713C727.526 272.512 726.555 273.158 726.354 274.154C726.154 275.151 726.799 276.122 727.796 276.322Z" fill="white"/>
<path opacity="0.5" d="M820.273 133.19C821.269 133.391 822.24 132.746 822.441 131.749C822.642 130.752 821.996 129.782 821 129.581C820.003 129.38 819.032 130.026 818.831 131.022C818.631 132.019 819.276 132.99 820.273 133.19Z" fill="white"/>
<path opacity="0.5" d="M794.532 129.645C795.529 129.845 796.499 129.2 796.7 128.203C796.901 127.207 796.255 126.236 795.259 126.035C794.262 125.835 793.291 126.48 793.091 127.477C792.89 128.473 793.535 129.444 794.532 129.645Z" fill="white"/>
<path opacity="0.5" d="M678.886 105.782C679.882 105.983 680.853 105.338 681.054 104.341C681.254 103.344 680.609 102.374 679.612 102.173C678.616 101.972 677.645 102.618 677.444 103.614C677.244 104.611 677.889 105.582 678.886 105.782Z" fill="white"/>
<path opacity="0.5" d="M481.49 121.707C482.487 121.908 483.458 121.263 483.658 120.266C483.859 119.269 483.214 118.298 482.217 118.098C481.22 117.897 480.249 118.542 480.049 119.539C479.848 120.536 480.493 121.506 481.49 121.707Z" fill="white"/>
<path opacity="0.5" d="M502.047 126.526C503.044 126.726 504.015 126.081 504.215 125.084C504.416 124.087 503.771 123.117 502.774 122.916C501.777 122.715 500.807 123.361 500.606 124.357C500.405 125.354 501.05 126.325 502.047 126.526Z" fill="white"/>
<path opacity="0.5" d="M934.886 164.483C935.882 164.684 936.853 164.039 937.054 163.042C937.254 162.045 936.609 161.075 935.612 160.874C934.616 160.673 933.645 161.319 933.444 162.315C933.244 163.312 933.889 164.283 934.886 164.483Z" fill="white"/>
<path opacity="0.5" d="M955.435 169.283C956.432 169.484 957.402 168.839 957.603 167.842C957.804 166.845 957.158 165.875 956.162 165.674C955.165 165.473 954.194 166.119 953.994 167.115C953.793 168.112 954.438 169.083 955.435 169.283Z" fill="white"/>
<path opacity="0.5" d="M969.548 155.34C970.544 155.541 971.515 154.895 971.716 153.899C971.916 152.902 971.271 151.931 970.274 151.731C969.278 151.53 968.307 152.175 968.106 153.172C967.906 154.169 968.551 155.139 969.548 155.34Z" fill="white"/>
<path opacity="0.5" d="M1081.44 168.954C1082.44 169.155 1083.41 168.51 1083.61 167.513C1083.81 166.516 1083.17 165.546 1082.17 165.345C1081.17 165.144 1080.2 165.789 1080 166.786C1079.8 167.783 1080.45 168.753 1081.44 168.954Z" fill="white"/>
<path opacity="0.5" d="M1041 134.56C1042 134.76 1042.97 134.115 1043.17 133.118C1043.37 132.122 1042.72 131.151 1041.73 130.95C1040.73 130.75 1039.76 131.395 1039.56 132.392C1039.36 133.388 1040 134.359 1041 134.56Z" fill="white"/>
<path opacity="0.5" d="M995.976 276.322C996.973 276.523 997.944 275.878 998.144 274.881C998.345 273.884 997.7 272.914 996.703 272.713C995.706 272.512 994.736 273.158 994.535 274.154C994.334 275.151 994.98 276.122 995.976 276.322Z" fill="white"/>
<path opacity="0.5" d="M1088.45 133.19C1089.45 133.391 1090.42 132.746 1090.62 131.749C1090.82 130.752 1090.18 129.782 1089.18 129.581C1088.18 129.38 1087.21 130.026 1087.01 131.022C1086.81 132.019 1087.46 132.99 1088.45 133.19Z" fill="white"/>
<path opacity="0.5" d="M1062.71 129.645C1063.71 129.845 1064.68 129.2 1064.88 128.203C1065.08 127.207 1064.44 126.236 1063.44 126.035C1062.44 125.835 1061.47 126.48 1061.27 127.477C1061.07 128.473 1061.72 129.444 1062.71 129.645Z" fill="white"/>
<path opacity="0.5" d="M947.066 105.782C948.063 105.983 949.033 105.338 949.234 104.341C949.435 103.344 948.789 102.374 947.793 102.173C946.796 101.972 945.826 102.618 945.625 103.614C945.424 104.611 946.069 105.582 947.066 105.782Z" fill="white"/>
<path opacity="0.5" d="M749.671 121.707C750.668 121.908 751.639 121.263 751.839 120.266C752.04 119.269 751.395 118.298 750.398 118.098C749.401 117.897 748.431 118.542 748.23 119.539C748.029 120.536 748.674 121.506 749.671 121.707Z" fill="white"/>
<path opacity="0.5" d="M770.228 126.526C771.224 126.726 772.195 126.081 772.395 125.084C772.596 124.087 771.951 123.117 770.954 122.916C769.958 122.715 768.987 123.361 768.787 124.357C768.586 125.354 769.231 126.325 770.228 126.526Z" fill="white"/>
<path opacity="0.5" d="M1339.11 164.483C1340.1 164.684 1341.07 164.039 1341.27 163.042C1341.48 162.045 1340.83 161.075 1339.83 160.874C1338.84 160.673 1337.87 161.319 1337.67 162.315C1337.47 163.312 1338.11 164.283 1339.11 164.483Z" fill="white"/>
<path opacity="0.5" d="M1359.65 169.283C1360.65 169.484 1361.62 168.839 1361.82 167.842C1362.02 166.845 1361.37 165.875 1360.38 165.674C1359.38 165.473 1358.41 166.119 1358.21 167.115C1358.01 168.112 1358.65 169.083 1359.65 169.283Z" fill="white"/>
<path opacity="0.5" d="M1373.77 155.34C1374.76 155.541 1375.73 154.895 1375.93 153.899C1376.13 152.902 1375.49 151.931 1374.49 151.731C1373.5 151.53 1372.53 152.175 1372.33 153.172C1372.12 154.169 1372.77 155.139 1373.77 155.34Z" fill="white"/>
<path opacity="0.5" d="M1400.2 276.322C1401.19 276.523 1402.16 275.878 1402.36 274.881C1402.56 273.884 1401.92 272.914 1400.92 272.713C1399.93 272.512 1398.95 273.158 1398.75 274.154C1398.55 275.151 1399.2 276.122 1400.2 276.322Z" fill="white"/>
<path opacity="0.5" d="M1351.28 105.782C1352.28 105.983 1353.25 105.338 1353.45 104.341C1353.65 103.344 1353.01 102.374 1352.01 102.173C1351.01 101.972 1350.04 102.618 1349.84 103.614C1349.64 104.611 1350.29 105.582 1351.28 105.782Z" fill="white"/>
<path opacity="0.5" d="M1153.89 121.707C1154.89 121.908 1155.86 121.263 1156.06 120.266C1156.26 119.269 1155.62 118.298 1154.62 118.098C1153.62 117.897 1152.65 118.542 1152.45 119.539C1152.25 120.536 1152.9 121.506 1153.89 121.707Z" fill="white"/>
<path opacity="0.5" d="M1174.45 126.526C1175.45 126.726 1176.42 126.081 1176.62 125.084C1176.82 124.087 1176.17 123.117 1175.18 122.916C1174.18 122.715 1173.21 123.361 1173.01 124.357C1172.81 125.354 1173.45 126.325 1174.45 126.526Z" fill="white"/>
<path d="M393.343 211.801H430.64V352.964H393.343V211.801Z" fill="#194C69"/>
<path d="M374.674 354.071V245.193H405.218V268.908H438.274V354.071H374.674Z" fill="#183046"/>
<path d="M387.251 285.439H381.141V279.329H387.251V285.439Z" fill="#369ED8"/>
<path d="M418.106 228.171H411.996V222.061H418.106V228.171Z" fill="#369ED8"/>
<path d="M418.106 239.737H411.996V233.627H418.106V239.737Z" fill="#369ED8"/>
<path opacity="0.5" d="M387.251 271.317H381.141V265.207H387.251V271.317Z" fill="#369ED8"/>
<path opacity="0.5" d="M399.451 285.439H393.34V279.329H399.451V285.439Z" fill="#369ED8"/>
<path opacity="0.5" d="M407.742 228.171H401.632V222.061H407.742V228.171Z" fill="#369ED8"/>
<path opacity="0.25" d="M399.451 271.317H393.34V265.207H399.451V271.317Z" fill="#369ED8"/>
<path d="M400.455 211.802V201.323L423.527 178.244V211.802H400.455Z" fill="#194C69"/>
<path d="M645.132 211.801H682.429V352.964H645.132V211.801Z" fill="#194C69"/>
<path d="M626.462 354.071V245.193H657.007V268.908H690.063V354.071H626.462Z" fill="#183046"/>
<path d="M639.041 285.439H632.931V279.329H639.041V285.439Z" fill="#369ED8"/>
<path d="M669.895 228.171H663.784V222.061H669.895V228.171Z" fill="#369ED8"/>
<path d="M669.895 239.737H663.784V233.627H669.895V239.737Z" fill="#369ED8"/>
<path opacity="0.5" d="M639.041 271.317H632.931V265.207H639.041V271.317Z" fill="#369ED8"/>
<path opacity="0.5" d="M651.239 285.439H645.129V279.329H651.239V285.439Z" fill="#369ED8"/>
<path opacity="0.5" d="M659.533 228.171H653.423V222.061H659.533V228.171Z" fill="#369ED8"/>
<path opacity="0.25" d="M651.239 271.317H645.129V265.207H651.239V271.317Z" fill="#369ED8"/>
<path d="M652.244 211.802V201.323L675.316 178.244V211.802H652.244Z" fill="#194C69"/>
<path d="M913.313 211.801H950.61V352.964H913.313V211.801Z" fill="#194C69"/>
<path d="M894.643 354.071V245.193H925.188V268.908H958.244V354.071H894.643Z" fill="#183046"/>
<path d="M907.222 285.439H901.111V279.329H907.222V285.439Z" fill="#369ED8"/>
<path d="M938.075 228.171H931.965V222.061H938.075V228.171Z" fill="#369ED8"/>
<path d="M938.075 239.737H931.965V233.627H938.075V239.737Z" fill="#369ED8"/>
<path opacity="0.5" d="M907.222 271.317H901.111V265.207H907.222V271.317Z" fill="#369ED8"/>
<path opacity="0.5" d="M919.42 285.439H913.31V279.329H919.42V285.439Z" fill="#369ED8"/>
<path opacity="0.5" d="M927.714 228.171H921.604V222.061H927.714V228.171Z" fill="#369ED8"/>
<path opacity="0.25" d="M919.42 271.317H913.31V265.207H919.42V271.317Z" fill="#369ED8"/>
<path d="M920.425 211.802V201.323L943.497 178.244V211.802H920.425Z" fill="#194C69"/>
<path d="M1317.54 211.801H1354.83V352.964H1317.54V211.801Z" fill="#194C69"/>
<path d="M1298.86 354.071V245.193H1329.41V268.908H1441V354.071H1298.86Z" fill="#183046"/>
<path d="M1311.44 285.439H1305.33V279.329H1311.44V285.439Z" fill="#369ED8"/>
<path d="M1342.29 228.171H1336.18V222.061H1342.29V228.171Z" fill="#369ED8"/>
<path d="M1342.29 239.737H1336.18V233.627H1342.29V239.737Z" fill="#369ED8"/>
<path opacity="0.5" d="M1311.44 271.317H1305.33V265.207H1311.44V271.317Z" fill="#369ED8"/>
<path opacity="0.5" d="M1323.64 285.439H1317.53V279.329H1323.64V285.439Z" fill="#369ED8"/>
<path opacity="0.5" d="M1331.93 228.171H1325.82V222.061H1331.93V228.171Z" fill="#369ED8"/>
<path opacity="0.25" d="M1323.64 271.317H1317.53V265.207H1323.64V271.317Z" fill="#369ED8"/>
<path d="M1324.65 211.802V201.323L1347.72 178.244V211.802H1324.65Z" fill="#194C69"/>
<path fill-rule="evenodd" clip-rule="evenodd" d="M359.916 12.1535C359.916 22.2721 357.939 31.929 354.351 40.7591C365.546 43.7345 373.796 53.94 373.796 66.0724C373.796 75.552 368.759 83.8553 361.216 88.4525C368.87 94.3926 373.796 103.681 373.796 114.119C373.796 129.295 363.385 142.039 349.315 145.599C355.968 154.363 359.916 165.293 359.916 177.144C359.916 185.653 357.881 193.687 354.271 200.785C369.007 203.859 380.076 216.922 380.076 232.571C380.076 240.495 377.238 247.756 372.522 253.393C385.293 260.729 393.894 274.505 393.894 290.289C393.894 313.772 374.857 332.809 351.374 332.809C327.891 332.809 308.854 313.772 308.854 290.289C308.854 276.491 315.427 264.227 325.613 256.459C319.171 250.526 315.135 242.02 315.135 232.571C315.135 231.299 315.208 230.044 315.35 228.81C312.851 229.177 310.294 229.367 307.693 229.367C278.851 229.367 255.469 205.986 255.469 177.144C255.469 148.302 278.851 124.921 307.693 124.921C308.71 124.921 309.722 124.95 310.725 125.008C309.514 121.604 308.854 117.939 308.854 114.119C308.854 100.665 317.038 89.1213 328.698 84.1949C326.665 82.0742 324.985 79.612 323.753 76.9031C312.163 84.054 298.508 88.18 283.889 88.18C256.381 88.18 232.285 73.5707 218.937 51.6878C214.621 60.2216 205.77 66.0723 195.553 66.0723C192.047 66.0723 188.703 65.3837 185.647 64.1344C172.216 88.2197 146.486 104.51 116.951 104.51C93.1006 104.51 71.7312 93.8868 57.3161 77.1144C51.3697 79.1574 44.9892 80.2664 38.3496 80.2664C6.12562 80.2664 -19.9971 54.1437 -19.9971 21.9197C-19.9971 -10.3043 6.12562 -36.4269 38.3496 -36.4269C47.0825 -36.4269 55.3672 -34.5084 62.8054 -31.0698C76.902 -44.47 95.9662 -52.6935 116.951 -52.6935C156.212 -52.6935 188.75 -23.9084 194.612 13.7088C194.924 13.6977 195.238 13.6922 195.553 13.6922C200.06 13.6922 204.301 14.8307 208.004 16.8359C207.91 15.2871 207.863 13.7259 207.863 12.1535C207.863 -29.8348 241.901 -63.873 283.889 -63.873C325.877 -63.873 359.916 -29.8348 359.916 12.1535Z" fill="white" fill-opacity="0.06"/>
<path d="M71.1198 209.549C71.505 207.993 65.4291 194.444 62.369 187.867L57.1084 189.633L59.722 213.377L71.1198 209.549Z" fill="#3A3A39"/>
<path d="M67.3348 193.509C67.4009 192.917 67.0519 192.276 66.8884 191.857C66.071 189.761 64.3793 187.958 62.4141 186.721C49.9838 185.015 48.8386 195.262 49.9483 200.389L57.0038 214.426L65.4722 212.057L63.4222 207.814C63.9914 206.485 65.6737 206.489 68.6674 206.053C71.661 205.617 70.2209 203.445 70.0574 203.026C70.0794 202.829 70.3531 202.263 70.6046 201.894C70.6267 201.697 70.6487 201.5 70.4412 201.474C70.2336 201.449 70.2556 201.252 70.2777 201.055L70.2997 200.858C70.3217 200.661 70.3657 200.267 70.1802 200.045L69.9947 199.823C69.8092 199.6 69.8312 199.403 69.8533 199.206L70.1049 198.837C70.4225 197.877 70.1175 196.842 69.1239 196.322C68.3598 195.63 67.4102 194.716 67.3348 193.509Z" fill="#EE937E"/>
<path d="M62.4608 189.686C63.6317 192.435 63.977 196.89 57.5963 199.128C56.7399 199.226 55.3554 200.262 56.593 202.417C58.1809 205.216 59.2322 207.149 59.4578 210.786C59.6527 212.816 59.3331 213.78 59.1023 213.953L51.4038 216.634C46.2142 206.38 40.9511 185.486 60.6471 183.249C63.1717 183.353 66.8587 184.4 66.4587 187.962C66.281 189.546 63.5787 191.025 62.4608 189.686Z" fill="#3A3A39"/>
<path d="M52.5672 198.242L58.6404 194.051L45.712 196.427C46.6802 198.909 50.1187 199.719 52.5672 198.242Z" fill="#595552"/>
<path d="M73.724 187.268C72.5672 184.554 69.881 186.207 68.1918 186.398C66.7108 182.853 61.6045 176.294 52.5078 179.348C43.411 182.401 43.7088 190.949 45.1681 194.69C44.7131 195.031 44.1928 195.957 44.9503 196.643C46.1192 197.379 75.0211 190.593 73.724 187.268Z" fill="#FEDF00"/>
<path d="M63.8025 182.674C63.9862 182.895 63.9427 183.285 63.7154 183.455C63.4882 183.625 63.0772 183.575 62.8935 183.355L63.8025 182.674ZM60.3746 181.665C59.9636 181.616 59.7799 181.395 59.8234 181.005C59.8669 180.615 60.0942 180.445 60.5051 180.495L60.3746 181.665ZM62.8935 183.355C62.7098 183.135 62.3423 182.695 61.9531 182.45C61.5639 182.205 60.9692 181.935 60.3746 181.665L60.5051 180.495C61.3271 180.594 62.1055 181.084 62.7002 181.354C63.2731 181.819 63.6405 182.259 64.0297 182.504L62.8935 183.355Z" fill="white" fill-opacity="0.8"/>
<path d="M41.744 217.98C41.744 217.98 25.3559 232.644 23.8135 238.874C22.4789 245.129 24.8018 248.818 26.5083 248.623C28.2148 248.428 41.2514 248.597 42.7425 246.572C44.2336 244.546 41.744 217.98 41.744 217.98Z" fill="url(#paint4_linear)"/>
<path d="M39.5205 269.34C39.5205 269.34 35.8687 281.302 46.6051 294.203C57.5265 307.327 66.1744 316.375 66.1744 316.375L36.8507 336.235L44.8104 345.8C44.8104 345.8 89.2346 331.766 89.7577 325.228C90.2809 318.689 79.5988 292.191 68.7518 280.276L39.5205 269.34Z" fill="url(#paint5_linear)"/>
<path d="M36.3942 274.1C36.3942 274.1 29.9472 310.954 13.9333 330.038C-2.08067 349.121 -8.13912 348.789 -8.13912 348.789L4.71417 359.751C4.71417 359.751 32.5871 345.504 45.9635 323.699C59.34 301.895 63.3098 277.753 63.3098 277.753L36.3942 274.1Z" fill="url(#paint6_linear)"/>
<path d="M19.3927 238.62L26.5592 260.359L54.3217 252.791L47.4876 233.675L30.2072 238.936L26.9488 236.355L19.3927 238.62Z" fill="url(#paint7_linear)"/>
<path d="M40.8333 217.849C40.8333 217.849 38.1055 264.62 30.7282 275.955C30.7282 275.955 75.2144 286.537 77.5354 284.612C77.5354 284.612 69.7963 265.439 73.75 230.241C73.75 230.241 90.7156 212.246 93.7329 205.996L84.55 199.677C84.5722 199.479 66.3308 215.716 40.8333 217.849Z" fill="url(#paint8_linear)"/>
<path d="M91.3274 203.945L85.5249 199.863C83.9878 198.683 83.5895 196.647 84.7942 195.203L85.5214 194.298C86.7261 192.854 88.8504 192.515 90.3875 193.695L96.19 197.777C97.7271 198.957 98.1253 200.992 96.9206 202.437L96.1934 203.342C94.9887 204.786 92.8645 205.125 91.3274 203.945Z" fill="url(#paint9_linear)"/>
<path d="M96.2085 198.889C96.2085 198.889 101.687 191.508 103.564 180.477C103.564 180.477 106.66 179.241 107.129 175.077C107.599 170.912 105.947 168.703 105.947 168.703C105.947 168.703 105.567 172.074 102.196 173.88C102.196 173.88 100.723 170.085 99.2045 172.314C97.6861 174.543 98.1984 181.238 98.1984 181.238L89.6834 193.079L96.2085 198.889Z" fill="#EE937E"/>
</g>
<defs>
<linearGradient id="paint0_linear" x1="1183.89" y1="65.8184" x2="1466.78" y2="122.779" gradientUnits="userSpaceOnUse">
<stop stop-color="#3C416B"/>
<stop offset="1" stop-color="#14134C"/>
</linearGradient>
<linearGradient id="paint1_linear" x1="1256.47" y1="-16.9358" x2="1295.17" y2="-28.7162" gradientUnits="userSpaceOnUse">
<stop stop-color="#EBEA6E"/>
<stop offset="1" stop-color="#007187"/>
</linearGradient>
<linearGradient id="paint2_linear" x1="-12.9033" y1="166.735" x2="343.656" y2="166.735" gradientUnits="userSpaceOnUse">
<stop stop-color="#132D4C"/>
<stop offset="1" stop-color="#132D4C"/>
</linearGradient>
<linearGradient id="paint3_linear" x1="335.847" y1="226.093" x2="320.29" y2="303.355" gradientUnits="userSpaceOnUse">
<stop stop-color="#4295E1"/>
<stop offset="1" stop-color="#3419CC"/>
</linearGradient>
<linearGradient id="paint4_linear" x1="24.5352" y1="232.17" x2="44.3372" y2="234.395" gradientUnits="userSpaceOnUse">
<stop stop-color="#C4E6EC"/>
<stop offset="1" stop-color="white"/>
</linearGradient>
<linearGradient id="paint5_linear" x1="35.1534" y1="306.719" x2="91.2614" y2="313.011" gradientUnits="userSpaceOnUse">
<stop stop-color="#0061A5"/>
<stop offset="1" stop-color="#074C7C"/>
</linearGradient>
<linearGradient id="paint6_linear" x1="-4.19619" y1="313.945" x2="58.273" y2="320.953" gradientUnits="userSpaceOnUse">
<stop stop-color="#0061A5"/>
<stop offset="1" stop-color="#074C7C"/>
</linearGradient>
<linearGradient id="paint7_linear" x1="18.7782" y1="244.821" x2="54.8177" y2="248.852" gradientUnits="userSpaceOnUse">
<stop stop-color="#F48C96"/>
<stop offset="1" stop-color="#F16A94"/>
</linearGradient>
<linearGradient id="paint8_linear" x1="35.0644" y1="236.714" x2="89.5861" y2="242.839" gradientUnits="userSpaceOnUse">
<stop stop-color="#C4E6EC"/>
<stop offset="1" stop-color="white"/>
</linearGradient>
<linearGradient id="paint9_linear" x1="85.2665" y1="194.705" x2="96.3103" y2="203.262" gradientUnits="userSpaceOnUse">
<stop stop-color="#C4E6EC"/>
<stop offset="1" stop-color="white"/>
</linearGradient>
<clipPath id="clip0">
<rect width="1440" height="284.014" fill="white"/>
</clipPath>
</defs>
</svg>
