<svg width="326" height="250" viewBox="0 0 326 250" fill="none" xmlns="http://www.w3.org/2000/svg">
<path d="M130.17 249.999C237.739 250.001 305.998 250.002 315.079 225.312C344.764 163.663 306.834 104.505 285.395 59.0462C263.956 13.5876 202.387 -25.021 183.147 30.4011C163.907 85.8231 168.687 60.5414 144.98 85.8733C119.673 112.915 115.426 163.882 91.7883 156.409C68.1503 148.937 55.0746 129.916 33.0858 142.371C11.097 154.825 6.31383 249.999 127.304 249.999L130.17 249.999Z" fill="#C1D3F0"/>
<path d="M122.651 244.648C241.039 244.648 286.423 251.94 312.39 241.523C344.566 182.283 300.674 107.572 277.436 63.8901C254.197 20.2086 197.92 -23.7432 177.065 29.5123C156.21 82.7679 133.035 52.9526 107.338 77.2943C79.9077 103.279 100.478 138.537 74.8558 131.357C49.2341 124.176 52.0015 133.327 28.1673 145.295C14.6544 152.08 9.69229 238.556 28.1677 244.648H122.651Z" fill="#D9E3F8"/>
<path d="M83.7847 193.471C85.6178 175.575 77.6191 174.814 72.0042 177.174C71.2135 177.507 70.2773 176.862 70.42 176.017C73.3191 158.838 77.8332 125.663 75.2011 114.77C72.7496 104.624 63.2785 108.815 57.4057 113.201C56.6821 113.742 55.61 113.176 55.6967 112.277C58.2206 86.1233 60.8108 65.5136 40.0081 63.3943C23.348 61.697 21.5085 92.1185 22.7218 108.903C22.7733 109.615 22.0882 110.158 21.3976 109.978C6.45806 106.076 8.04884 120.852 10.8237 128.979C15.1155 146.833 22.3258 181.229 16.8323 175.982C11.4518 170.843 7.82788 173.673 6.60569 175.846C6.55501 175.936 6.52189 176.039 6.50424 176.141C-3.70087 235.017 34.0118 239.381 47.7334 239.381C61.4672 239.381 81.2096 218.613 83.7847 193.471Z" fill="#578E92" fill-opacity="0.83"/>
<path d="M39.7956 83.399C41.1232 123.485 42.0133 200.523 40.7869 246.121L47.245 246.119C44.4856 155.609 38.8758 55.6284 39.7956 83.399Z" fill="#1A786D"/>
<path d="M46.0166 228.45C54.3141 221.162 71.7676 203.308 75.201 190.191" stroke="#578E92" stroke-linecap="round"/>
<path d="M41.7251 218.612C34.8918 212.783 20.5184 198.5 17.6909 188.006" stroke="#578E92" stroke-linecap="round"/>
<path d="M43.4424 159.592C51.2518 152.929 67.6786 136.606 70.9101 124.613" stroke="#578E92" stroke-linecap="round"/>
<path d="M43.4424 174.883C38.5615 170.719 19.7111 131.003 17.6914 123.508" stroke="#578E92" stroke-linecap="round"/>
<path d="M65.7784 183.635C65.4922 190.922 68.0101 204.403 80.3706 200.031" stroke="#578E92" stroke-width="0.5" stroke-linecap="round"/>
<path d="M53.7642 198.934C53.4781 206.221 55.996 219.702 68.3564 215.33" stroke="#578E92" stroke-width="0.5" stroke-linecap="round"/>
<path d="M55.4805 126.799C55.1944 134.086 57.7123 147.568 70.0727 143.195" stroke="#578E92" stroke-width="0.5" stroke-linecap="round"/>
<path d="M33.1267 142.104C33.362 147.645 31.2915 157.896 21.1269 154.571" stroke="#578E92" stroke-width="0.5" stroke-linecap="round"/>
<path d="M29.6892 190.191C29.9245 195.733 27.854 205.984 17.6894 202.659" stroke="#578E92" stroke-width="0.5" stroke-linecap="round"/>
<path d="M265.503 139.879C267.7 128.579 260.911 117.514 250.338 115.166C239.765 112.817 229.413 120.074 227.216 131.374C225.018 142.674 231.808 153.738 242.38 156.087C252.953 158.435 263.305 151.179 265.503 139.879Z" stroke="#47484A" stroke-width="1.4173" stroke-miterlimit="10" stroke-linecap="round" stroke-linejoin="round"/>
<path d="M250.478 115.612C248.753 114.942 246.923 114.55 245.041 114.383C243.159 114.495 241.277 114.942 239.604 115.612C240.911 115.277 242.322 115.109 243.734 115.109C244.205 115.109 244.623 115.109 245.041 115.165C254.974 115.891 262.868 124.776 262.868 135.559C262.868 146.399 254.974 155.227 245.041 155.954C244.623 156.01 244.152 156.01 243.734 156.01C242.322 156.01 240.911 155.842 239.604 155.507C241.329 156.177 243.159 156.568 245.041 156.736C246.923 156.624 248.805 156.177 250.478 155.507C258.111 152.545 263.6 144.723 263.6 135.503C263.6 126.284 258.163 118.573 250.478 115.612Z" fill="#47484A"/>
<path d="M254.921 131.48L243.734 137.235L237.826 121.031" stroke="#47484A" stroke-width="1.4173" stroke-miterlimit="10" stroke-linecap="round" stroke-linejoin="round"/>
<path d="M227.945 136.117H230.716" stroke="#47484A" stroke-width="1.4173" stroke-miterlimit="10" stroke-linecap="round" stroke-linejoin="round"/>
<path d="M258.842 136.117H261.613" stroke="#47484A" stroke-width="1.4173" stroke-miterlimit="10" stroke-linecap="round" stroke-linejoin="round"/>
<path d="M244.779 116.615V119.632" stroke="#47484A" stroke-width="1.4173" stroke-miterlimit="10" stroke-linecap="round" stroke-linejoin="round"/>
<path d="M244.779 151.146V154.108" stroke="#47484A" stroke-width="1.4173" stroke-miterlimit="10" stroke-linecap="round" stroke-linejoin="round"/>
<path d="M195.896 15.8535C179.586 15.8535 166.362 27.7334 166.362 42.3854C166.362 49.5133 169.447 55.9483 174.517 60.7002L171.211 67.9272L179.586 64.5612C184.324 67.3332 189.945 69.0162 196.006 69.0162C212.315 69.0162 225.539 57.1363 225.539 42.4843C225.429 27.7334 212.205 15.8535 195.896 15.8535Z" stroke="#2C83DF" stroke-width="1.4173" stroke-miterlimit="10" stroke-linecap="round" stroke-linejoin="round"/>
<path d="M188.401 42.3831C188.401 43.5711 187.299 44.561 185.977 44.561C184.654 44.561 183.552 43.5711 183.552 42.3831C183.552 41.1951 184.654 40.2051 185.977 40.2051C187.299 40.2051 188.401 41.1951 188.401 42.3831Z" fill="#2C83DF"/>
<path d="M198.319 42.3831C198.319 43.5711 197.217 44.561 195.895 44.561C194.572 44.561 193.47 43.5711 193.47 42.3831C193.47 41.1951 194.572 40.2051 195.895 40.2051C197.217 40.2051 198.319 41.1951 198.319 42.3831Z" fill="#2C83DF"/>
<path d="M208.237 42.3831C208.237 43.5711 207.135 44.561 205.813 44.561C204.49 44.561 203.388 43.5711 203.388 42.3831C203.388 41.1951 204.49 40.2051 205.813 40.2051C207.135 40.2051 208.237 41.1951 208.237 42.3831Z" fill="#2C83DF"/>
<path d="M99.0784 11.832H3.20401C1.9918 11.832 1 12.723 1 13.812V49.7488C1 50.8378 1.9918 51.7288 3.20401 51.7288H74.8343L91.8051 59.1537L85.5237 51.7288H98.9682C100.18 51.7288 101.172 50.8378 101.172 49.7488V13.812C101.282 12.723 100.291 11.832 99.0784 11.832Z" stroke="#2C83DF" stroke-width="1.4173" stroke-miterlimit="10" stroke-linecap="round" stroke-linejoin="round"/>
<path d="M35.1108 38.3848H24.8628V36.9561L30.2769 30.9404C31.0789 30.0309 31.6304 29.2933 31.9312 28.7275C32.2391 28.1546 32.3931 27.5638 32.3931 26.9551C32.3931 26.1387 32.146 25.4691 31.6519 24.9463C31.1577 24.4235 30.4989 24.1621 29.6753 24.1621C28.687 24.1621 27.9172 24.445 27.3657 25.0107C26.8215 25.5693 26.5493 26.3499 26.5493 27.3525H24.562C24.562 25.9131 25.0239 24.7493 25.9478 23.8613C26.8787 22.9733 28.1213 22.5293 29.6753 22.5293C31.1291 22.5293 32.2785 22.9124 33.1235 23.6787C33.9686 24.4378 34.3911 25.4512 34.3911 26.7188C34.3911 28.2585 33.41 30.0918 31.4478 32.2188L27.2583 36.7627H35.1108V38.3848ZM45.606 33.1318H47.7759V34.7539H45.606V38.3848H43.6079V34.7539H36.4858V33.583L43.4897 22.7441H45.606V33.1318ZM38.7417 33.1318H43.6079V25.4619L43.3716 25.8916L38.7417 33.1318ZM50.1714 39.7275H48.4634L54.9946 22.7441H56.6919L50.1714 39.7275ZM68.7339 23.8613L62.2563 38.3848H60.1724L66.6284 24.377H58.1636V22.7441H68.7339V23.8613Z" fill="#2B82DD"/>
<path d="M203.576 90.9433C195.862 83.5183 182.968 83.0233 174.593 89.9533C170.626 93.3192 168.422 97.7742 168.091 102.229L162.471 104.11L168.312 106.387C168.973 109.852 170.626 113.218 173.491 115.99C181.205 123.415 194.099 123.91 202.474 116.98C210.739 110.05 211.29 98.3682 203.576 90.9433Z" stroke="#2C83DF" stroke-width="1.4173" stroke-miterlimit="10" stroke-linecap="round" stroke-linejoin="round"/>
<path d="M190.02 99.0605H186.494V114.306H190.02V99.0605Z" fill="#2C83DF"/>
<path d="M190.792 94.0081C190.792 95.1961 189.69 96.186 188.367 96.186C187.045 96.186 185.943 95.1961 185.943 94.0081C185.943 92.8201 187.045 91.8301 188.367 91.8301C189.69 91.8301 190.792 92.8201 190.792 94.0081Z" fill="#2C83DF"/>
<path d="M149.391 1H116.662V19.9089H149.391V1Z" stroke="#2C83DF" stroke-width="1.4173" stroke-miterlimit="10" stroke-linecap="round" stroke-linejoin="round"/>
<path d="M116.662 1L132.971 10.4049L149.281 1" stroke="#2C83DF" stroke-width="1.4173" stroke-miterlimit="10" stroke-linecap="round" stroke-linejoin="round"/>
<path d="M282.955 71.2919L278.987 69.2129C278.987 69.2129 274.359 72.0839 274.91 75.5489L278.436 77.4298C278.436 77.4298 281.412 80.2018 275.902 89.3098C269.841 98.1207 265.653 97.2297 265.653 97.2297L262.127 95.3487C258.49 96.7347 258.049 101.685 258.049 101.685L262.017 103.764C269.951 107.13 277.885 95.3487 280.2 91.4878C282.734 87.9238 290.118 75.8459 282.955 71.2919Z" stroke="#2C83DF" stroke-width="1.4173" stroke-miterlimit="10" stroke-linecap="round" stroke-linejoin="round"/>
<path d="M275.571 69.3145C274.469 70.2054 273.697 71.3934 273.367 72.6804" stroke="#2C83DF" stroke-width="1.4173" stroke-miterlimit="10" stroke-linecap="round" stroke-linejoin="round"/>
<path d="M274.689 67.7266C272.926 69.0136 271.714 70.6965 271.163 72.6765" stroke="#2C83DF" stroke-width="1.4173" stroke-miterlimit="10" stroke-linecap="round" stroke-linejoin="round"/>
<path d="M268.739 73.0727C268.739 73.0727 269.18 67.7267 274.69 65.8457" stroke="#2C83DF" stroke-width="1.4173" stroke-miterlimit="10" stroke-linecap="round" stroke-linejoin="round"/>
<path d="M130.879 26.2441V27.6301" stroke="#47484A" stroke-width="1.4173" stroke-linecap="round" stroke-linejoin="round"/>
<path d="M130.877 27.6328V33.3748" stroke="#47484A" stroke-width="1.4173" stroke-linecap="round" stroke-linejoin="round" stroke-dasharray="2.73 2.73"/>
<path d="M130.877 35.75V56.0449" stroke="#47484A" stroke-width="1.4173" stroke-linecap="round" stroke-linejoin="round" stroke-dasharray="2.73 2.73"/>
<path d="M130.877 57.332V58.817" stroke="#47484A" stroke-width="1.4173" stroke-linecap="round" stroke-linejoin="round"/>
<path d="M14.9458 56.1406V58.0965" stroke="#47484A" stroke-width="1.4173" stroke-linecap="round" stroke-linejoin="round"/>
<path d="M14.9453 58.0918V67.033" stroke="#47484A" stroke-width="1.4173" stroke-linecap="round" stroke-linejoin="round" stroke-dasharray="2.96 2.96"/>
<path d="M14.9453 70.5234V118.023" stroke="#47484A" stroke-width="1.4173" stroke-linecap="round" stroke-linejoin="round" stroke-dasharray="2.96 2.96"/>
<path d="M14.9453 119.98V122.076H16.4881" stroke="#47484A" stroke-width="1.4173" stroke-linecap="round" stroke-linejoin="round"/>
<path d="M16.4878 122.078H22.7692" stroke="#47484A" stroke-width="1.4173" stroke-linecap="round" stroke-linejoin="round" stroke-dasharray="2.67 2.67"/>
<path d="M25.3042 122.078L89 122.001" stroke="#47484A" stroke-width="1.4173" stroke-linecap="round" stroke-linejoin="round" stroke-dasharray="2.67 2.67"/>
<path d="M229.946 39.2148H275.569V63.0737" stroke="#47484A" stroke-width="1.4173" stroke-miterlimit="10" stroke-linecap="round" stroke-linejoin="round" stroke-dasharray="2.83 2.83"/>
<path d="M193 128V147H223" stroke="#47484A" stroke-width="1.4173" stroke-miterlimit="10" stroke-linecap="round" stroke-linejoin="round" stroke-dasharray="2.83 2.83"/>
<path d="M13.269 238.287H313.389" stroke="black" stroke-width="1.4173" stroke-miterlimit="10" stroke-linecap="round" stroke-linejoin="round"/>
<path d="M188.364 189.508L197.473 198.188L262.477 227.082C262.477 227.082 254.043 232.576 247.295 231.257C240.547 229.939 187.689 218.843 184.315 218.073C180.941 217.304 169.47 204.34 161.035 194.123L177.342 178.082L188.364 189.508Z" fill="#FFB5BE"/>
<path d="M131.008 126.556C131.008 126.556 129.096 136.774 136.631 139.74C144.166 142.707 161.71 149.299 171.495 172.371L188.364 189.62L165.872 213.79L157.212 204.122C157.212 204.122 151.251 220.932 155.3 237.412H58.9187L57.4567 212.911L34.1768 208.517C34.1768 208.517 38.113 161.274 71.5147 146.662C71.5147 146.662 90.8584 142.267 94.6821 132.709L99.0682 118.756L131.008 126.556Z" fill="#F55669"/>
<path d="M68.7032 213.681L47.8975 210.715L47.5601 211.045L57.4569 212.912L58.9189 237.413H86.36C74.3264 222.361 74.3264 203.244 74.3264 203.244C72.0771 205.991 68.7032 213.681 68.7032 213.681Z" fill="#E34A5C"/>
<path d="M157.212 204.121L145.403 183.686C145.403 183.686 149.115 206.428 148.552 213.24C148.215 217.964 151.251 228.511 155.3 236.861C151.364 220.711 157.212 204.121 157.212 204.121Z" fill="#E34A5C"/>
<path d="M126.734 228.842C126.734 228.842 120.998 231.809 122.46 239.719H153.5C153.5 239.719 159.011 224.118 126.734 228.842Z" fill="#001E42"/>
<path d="M126.734 228.842C126.734 228.842 124.822 229.831 123.472 232.248L123.585 232.358C124.147 233.237 124.597 234.006 125.384 234.665C126.959 235.984 128.983 236.643 131.007 236.753C134.156 236.972 137.193 235.874 140.117 234.775C141.241 236.313 143.041 237.192 144.84 237.522C145.74 237.741 146.64 237.741 147.539 237.522C147.989 237.412 148.439 237.082 148.889 237.082C149.901 236.863 151.026 237.412 152.038 236.972C152.825 236.643 153.163 235.984 153.5 235.215C152.375 230.93 146.977 225.876 126.734 228.842Z" fill="#012456"/>
<path d="M117.962 164.57L126.959 141.058L131.795 135.016C130.108 131.17 131.008 126.556 131.008 126.556L99.2932 118.865L95.6943 130.291L113.126 145.233L117.962 164.57Z" fill="#FFB5BE"/>
<path d="M94.2334 90.7428C94.2334 90.7428 95.0207 140.073 116.276 139.633C137.532 139.194 138.207 100.411 137.982 91.6217C137.982 91.6217 138.544 68.7695 116.614 68.33C94.5708 67.7807 94.2334 90.7428 94.2334 90.7428Z" fill="#FFB5BE"/>
<path d="M134.24 109.707L135.735 115.465L139.152 114.855L134.24 109.707Z" fill="#FFB5BE"/>
<path d="M100.418 88.9823C99.4061 92.4981 99.6311 96.1237 99.5186 99.7492C99.2937 103.375 98.6189 107.22 96.2572 109.857C96.1447 107.66 95.6948 105.133 93.558 104.364C93.1082 104.144 92.5459 104.144 92.096 103.924C91.1963 103.595 90.7464 102.716 90.2966 101.837C88.7221 98.7604 87.1476 95.6842 86.4728 92.3882C85.798 89.0922 86.1354 85.3567 88.0473 82.5002C88.947 81.072 90.4091 79.9733 92.096 79.7536C90.9714 77.8858 91.1963 75.4688 92.2085 73.601C93.2206 71.6234 94.7951 70.0853 96.4821 68.7669C97.4943 67.9978 98.5064 67.2288 99.6311 66.6794C101.318 66.0202 103.23 66.0203 105.029 66.0203C112.902 65.9104 121.112 64.9216 127.859 61.0763C130.221 59.7579 132.47 58 135.17 58C137.869 58 140.23 59.7579 141.58 62.0651C142.93 64.3723 143.267 67.009 143.267 69.536C143.267 70.6346 143.267 71.7333 142.817 72.7221C141.692 75.1392 138.768 76.0181 136.744 77.776C140.68 83.1594 140.23 87.6639 137.981 96.5631C138.319 89.6415 134.945 82.6101 129.659 77.8858C129.434 77.776 129.321 77.5562 129.097 77.5562C128.759 77.5562 128.534 77.6661 128.309 77.8858C122.686 81.4016 115.601 81.841 108.853 82.1706C107.728 82.1706 107.504 81.5114 106.266 81.841C105.254 82.0607 104.242 82.9397 103.567 83.7087C102.105 85.137 100.981 87.0047 100.418 88.9823Z" fill="black"/>
<path d="M92.3215 100.74C91.7592 100.63 91.1969 100.52 90.6346 100.74C90.2972 100.85 89.9598 101.18 89.7349 101.509C88.9476 102.718 89.0601 104.366 89.3975 105.794C89.8473 107.772 90.747 109.749 91.9841 111.287C93.2212 112.825 95.0207 114.034 96.9325 114.693C97.2699 114.803 97.8322 114.913 98.0572 114.583C98.1696 114.473 98.1697 114.254 98.2821 114.144C98.8444 112.056 98.6195 109.859 98.2821 107.772C98.0572 106.233 97.7198 104.366 96.4827 103.377C95.2456 102.168 93.7836 101.18 92.3215 100.74Z" fill="#E27F55"/>
<path d="M110.653 123.811C106.492 123.811 102.893 121.284 100.194 116.56C98.0574 112.825 97.2701 108.979 97.1577 108.869C97.0452 108.54 97.2701 108.32 97.6075 108.21C97.9449 108.1 98.1698 108.32 98.2823 108.65C98.2823 108.76 101.544 123.482 111.441 122.603C111.778 122.603 112.003 122.822 112.003 123.152C112.003 123.482 111.778 123.701 111.441 123.701C111.328 123.811 110.991 123.811 110.653 123.811Z" fill="#2C83DF"/>
<path d="M91.0842 106.121C90.9717 105.572 91.0842 104.913 91.4216 104.363C91.8714 103.814 92.4337 103.484 93.221 103.484C93.4459 103.484 93.6708 103.704 93.6708 103.924C93.6708 104.144 93.4459 104.363 93.221 104.363H93.1085C92.6587 104.253 92.2088 104.363 91.8714 104.693C91.534 105.023 91.3091 105.462 91.3091 106.011C91.3091 106.121 91.1966 106.231 91.1966 106.231C91.1966 106.231 91.1966 106.121 91.0842 106.121Z" fill="black"/>
<path d="M96.3707 105.465C96.3707 106.234 96.4832 107.113 96.2582 107.992C96.1458 108.431 95.9209 108.871 95.6959 109.2C95.471 109.53 95.1336 109.86 94.6837 109.969C94.6837 109.969 94.5713 109.969 94.5713 109.86C94.5713 109.86 94.5713 109.75 94.6837 109.75C95.0211 109.64 95.2461 109.31 95.471 108.981C95.6959 108.651 95.6959 108.321 95.8084 107.882C95.9208 107.113 95.6959 106.344 95.5835 105.575C95.5835 105.355 95.6959 105.025 95.9208 105.025C96.0333 105.025 96.2582 105.135 96.3707 105.465Z" fill="black"/>
<path d="M98.5067 97.5573C98.5067 97.5573 95.8076 66.2453 114.701 65.4763C114.701 65.4763 108.291 64.3776 105.142 66.6848C105.142 66.6848 88.7224 72.9472 92.5461 98.9855L98.5067 97.5573Z" fill="#2C83DF"/>
<path d="M96.0322 109.858C99.6347 109.858 102.555 107.005 102.555 103.486C102.555 99.9662 99.6347 97.1133 96.0322 97.1133C92.4297 97.1133 89.5093 99.9662 89.5093 103.486C89.5093 107.005 92.4297 109.858 96.0322 109.858Z" fill="#6E8AC0"/>
<path d="M96.0329 107.006C98.0205 107.006 99.6318 105.432 99.6318 103.49C99.6318 101.549 98.0205 99.9746 96.0329 99.9746C94.0453 99.9746 92.4341 101.549 92.4341 103.49C92.4341 105.432 94.0453 107.006 96.0329 107.006Z" stroke="black" stroke-width="1.3361" stroke-miterlimit="10" stroke-linecap="round" stroke-linejoin="round"/>
<path d="M112.626 145.696L92.9582 154.381L95.9248 130.82" fill="#E34A5C"/>
<path d="M112.626 145.696L92.9582 154.381L95.9248 130.82" stroke="#E34A5C" stroke-width="1.4173" stroke-miterlimit="10" stroke-linecap="round" stroke-linejoin="round"/>
<path d="M125.398 146.176L135.419 159.304L134.731 139.458" fill="#E34A5C" stroke="#E34A5C" stroke-width="1.4173" stroke-miterlimit="10" stroke-linecap="round" stroke-linejoin="round"/>
<path d="M36.8758 209.068C36.8758 209.068 33.2769 224.01 34.1766 235.876C34.1766 235.876 33.5018 243.237 66.3412 237.524C99.293 231.811 127.634 232.14 127.634 232.14C127.634 232.14 129.883 229.174 129.771 226.208C129.658 223.241 83.5481 216.21 64.6542 216.32L64.8792 213.353L36.8758 209.068Z" fill="#FFB5BE"/>
<path d="M134.832 232.908C136.181 232.578 137.531 232.138 138.768 231.699C138.993 231.589 139.218 231.479 139.555 231.479C139.893 231.479 140.23 231.699 140.455 231.919C141.58 232.798 142.704 233.567 143.829 234.446C144.391 234.885 145.066 235.325 145.853 235.654C146.64 235.874 147.54 235.984 148.215 235.654C148.552 235.544 148.777 235.215 149.227 235.105C150.239 234.885 151.251 235.764 152.264 235.434C152.713 235.215 153.051 234.775 153.051 234.336C153.051 233.896 152.938 233.457 152.713 233.017C151.926 231.04 151.139 228.952 150.352 226.975C150.014 226.206 149.789 225.437 149.227 224.668C148.327 223.349 146.865 222.47 145.178 222.031C144.166 221.811 143.042 221.811 142.029 221.701C137.081 221.701 132.245 222.141 127.409 222.8C125.947 223.02 124.485 223.239 123.136 223.899C121.898 224.558 120.886 225.656 120.886 226.975C120.886 228.183 121.786 229.282 122.573 230.271C123.36 231.479 124.26 231.809 125.722 232.248C128.534 233.347 131.795 233.567 134.832 232.908Z" fill="#FFB5BE"/>
<path d="M165.871 213.68C165.871 213.68 172.956 211.483 175.206 210.384L172.057 207.088L165.871 213.68Z" fill="#E34A5C"/>
<path d="M174.082 209.282C174.082 209.282 181.28 197.526 188.365 189.506L172.058 206.975L174.082 209.282Z" fill="#E34A5C"/>
<path d="M211.355 224.291C211.692 223.961 212.142 223.632 212.592 223.412C213.154 223.192 213.829 223.192 214.504 223.082C217.653 222.972 220.802 223.082 223.951 223.302C225.413 223.412 226.987 223.522 228.112 224.401C228.787 224.95 229.237 225.609 229.687 226.378C231.149 229.015 232.161 231.981 232.723 234.948C232.723 235.167 232.836 235.387 232.723 235.607C232.498 235.937 232.048 236.046 231.711 236.046C226.65 236.486 221.589 236.486 216.416 236.156C215.516 236.046 214.392 236.046 213.717 235.387C212.93 234.618 212.817 233.19 211.805 232.641C210.68 231.981 209.218 232.75 208.094 233.519C205.732 235.167 202.92 236.486 199.996 236.376C199.434 236.376 198.759 236.266 198.309 235.717C197.859 235.277 197.972 234.508 198.197 233.959C199.434 231.542 203.483 231.542 205.507 230.004C207.531 228.466 209.331 226.158 211.355 224.291Z" fill="#FFB5BE"/>
<path d="M257.865 237.526C257.641 236.208 257.416 234.999 257.078 233.681C256.966 233.021 256.741 232.472 256.516 231.813C256.291 231.264 256.066 230.604 255.729 230.165C255.616 229.945 255.616 229.616 255.841 229.506C256.066 229.396 256.403 229.396 256.516 229.616C256.966 230.275 257.191 230.934 257.416 231.483C257.641 232.143 257.753 232.802 257.865 233.461C258.09 234.779 258.315 236.098 258.428 237.306C258.428 237.416 258.315 237.526 258.203 237.526C257.978 237.746 257.865 237.636 257.865 237.526Z" fill="black"/>
<path d="M260.902 237.741C260.902 236.313 260.79 234.885 260.565 233.456C260.453 232.797 260.34 232.028 260.228 231.369C260.115 230.71 259.89 230.05 259.553 229.501C259.44 229.281 259.553 228.952 259.778 228.842C260.003 228.732 260.34 228.842 260.453 229.062C260.79 229.831 260.902 230.49 261.015 231.259C261.127 232.028 261.127 232.687 261.24 233.456C261.352 234.885 261.24 236.313 261.24 237.741C261.24 237.851 261.127 237.961 261.015 237.961C261.015 237.851 260.902 237.851 260.902 237.741Z" fill="black"/>
<path d="M264.277 237.745C264.277 236.206 264.277 234.668 264.164 233.13C264.052 232.361 264.052 231.592 263.939 230.823C263.827 230.054 263.602 229.285 263.264 228.736C263.152 228.516 263.264 228.186 263.489 228.076C263.714 227.966 264.052 228.076 264.164 228.296C264.501 229.065 264.614 229.944 264.726 230.713C264.839 231.482 264.839 232.251 264.839 233.02C264.839 234.558 264.839 236.097 264.726 237.635C264.726 237.745 264.614 237.854 264.501 237.854C264.389 237.964 264.277 237.854 264.277 237.745Z" fill="black"/>
<path d="M268.663 237.527C268.55 236.098 268.213 234.67 267.988 233.242C267.875 232.583 267.651 231.813 267.426 231.154C267.201 230.495 266.976 229.836 266.638 229.177C266.526 228.957 266.526 228.627 266.751 228.517C266.976 228.408 267.313 228.408 267.426 228.627C267.763 229.396 267.988 230.056 268.213 230.825C268.438 231.594 268.55 232.253 268.663 233.022C268.888 234.45 269 235.988 269 237.417C269 237.527 268.888 237.527 268.888 237.527C268.663 237.636 268.663 237.636 268.663 237.527Z" fill="black"/>
<path d="M264.952 224.889C263.152 224.779 261.241 224.669 259.441 224.669C257.642 224.669 255.73 224.669 254.043 224.779H253.93C253.481 224.669 252.918 224.779 252.356 224.999C251.794 225.218 251.344 225.548 250.781 225.878C249.769 226.537 248.982 227.416 248.195 228.405C248.195 228.405 248.082 228.514 247.97 228.405C247.97 228.405 247.857 228.295 247.97 228.295C248.645 227.306 249.432 226.317 250.444 225.548C250.894 225.109 251.456 224.779 252.019 224.559C252.581 224.339 253.256 224.12 254.043 224.12H253.93C255.842 224.01 257.642 224.12 259.441 224.23C261.241 224.339 263.152 224.449 264.952 224.669C265.064 224.669 265.064 224.779 265.064 224.779C265.064 224.779 265.064 224.889 264.952 224.889Z" fill="black"/>
<path d="M237.592 236.359H186.304V239.941H237.592V236.359Z" fill="#5A5B94"/>
<path d="M205.607 236.359C205.607 236.359 205.607 239.44 202.859 239.941H237.592V236.359H205.607Z" fill="black"/>
<path d="M237.592 236.359H186.304V239.941H237.592V236.359Z" fill="#484B5C"/>
<path d="M186.304 239.941H167V238.58L186.304 236.359V239.941Z" fill="#484A75"/>
<path d="M186.304 239.941H167V238.58L186.304 236.359V239.941Z" fill="#727481"/>
<path d="M285.237 233.174H197.737C197.526 233.174 197.385 233.03 197.385 232.815V161.889C197.385 161.675 197.526 161.531 197.737 161.531H285.237C285.448 161.531 285.589 161.675 285.589 161.889V232.815C285.589 233.03 285.448 233.174 285.237 233.174Z" fill="#727481"/>
<path d="M279.696 228H204.304C204.121 228 204 227.882 204 227.705V169.295C204 169.118 204.121 169 204.304 169H279.696C279.879 169 280 169.118 280 169.295V227.705C280 227.882 279.879 228 279.696 228Z" fill="#CAD0DC"/>
<path d="M239.796 198.285C239.796 198.285 243.953 226.87 238.176 233.175H254.168L239.796 198.285Z" fill="#484B5C"/>
<path d="M239.373 196.705H260.508L271.005 242.771H249.941L239.373 196.705Z" fill="#484B5C" stroke="#484B5C" stroke-width="1.4173" stroke-miterlimit="10" stroke-linecap="round" stroke-linejoin="round"/>
<path d="M285.206 216.13C283.871 218.846 295.113 221.337 300.901 222.242L301.235 215.451C302.905 206.961 302.905 204.923 300.901 205.263C298.898 205.603 297.228 209.678 296.56 207.301C295.892 204.923 300.901 198.811 299.232 194.396C297.562 189.982 294.223 197.113 292.887 196.094C291.551 195.076 293.889 183.53 291.885 182.851C289.881 182.171 289.548 191.68 288.88 188.284C288.212 184.888 282.869 177.757 278.528 180.474C274.187 183.19 286.208 189.982 285.206 191.34C284.205 192.699 277.526 188.624 277.526 192.699C277.526 196.774 288.546 198.132 290.883 199.83C293.221 201.528 283.537 203.226 281.199 204.244C278.862 205.263 279.529 208.998 286.208 209.338C292.887 209.678 294.223 211.376 294.89 213.073C295.558 214.771 286.876 212.734 285.206 216.13Z" fill="#62A2F4"/>
<path d="M286.208 188.282C287.878 189.754 291.551 194.598 292.887 202.205C294.222 209.812 298.341 217.147 300.233 219.863" stroke="white" stroke-opacity="0.32"/>
<path d="M316.091 215.694C317.426 218.411 306.184 220.901 300.396 221.807L300.062 215.015C298.392 206.525 298.392 204.488 300.396 204.828C302.399 205.167 304.069 209.242 304.737 206.865C305.405 204.488 300.396 198.375 302.065 193.961C303.735 189.546 307.074 196.678 308.41 195.659C309.746 194.64 307.408 183.094 309.412 182.415C311.415 181.736 311.749 191.244 312.417 187.848C313.085 184.453 318.428 177.321 322.769 180.038C327.11 182.755 315.089 189.546 316.091 190.905C317.092 192.263 323.771 188.188 323.771 192.263C323.771 196.338 312.751 197.696 310.414 199.394C308.076 201.092 317.76 202.79 320.098 203.809C322.435 204.828 321.767 208.563 315.089 208.903C308.41 209.242 307.074 210.94 306.406 212.638C305.739 214.336 314.421 212.298 316.091 215.694Z" fill="#569BF4"/>
<path d="M315.088 187.847C313.419 189.318 309.745 194.163 308.41 201.769C307.074 209.376 302.955 216.711 301.063 219.428" stroke="white" stroke-opacity="0.32"/>
<path d="M293.232 208.631C290.423 208.631 293.602 214.026 295.453 216.159L301.004 222.181C303.718 221.052 309.443 218.492 310.627 217.288C312.108 215.783 310.257 215.406 308.406 215.03C306.926 214.729 307.79 213.399 308.406 212.772C314.624 210.965 316.672 207.502 316.919 205.997C316.919 205.621 316.919 204.868 315.439 203.739C313.958 202.61 308.036 211.266 308.406 205.62C308.777 199.975 317.289 193.577 316.919 190.942C316.549 188.307 314.698 191.695 311.367 193.577C308.703 195.082 308.777 192.447 309.147 190.942C310.874 188.935 314.106 184.393 313.218 182.285C312.108 179.651 311.367 182.285 308.406 184.92C305.446 187.555 307.296 181.909 308.036 180.78C308.777 179.651 315.439 164.972 303.595 167.607C291.751 170.242 298.784 186.049 299.154 188.307C299.524 190.566 296.563 185.296 292.122 186.802C287.68 188.307 300.264 196.588 300.264 198.846C300.264 201.104 295.453 197.717 293.232 197.34C291.012 196.964 295.453 202.61 296.563 205.997C297.451 208.707 296.933 209.384 296.563 209.384C295.453 210.137 295.453 208.631 293.232 208.631Z" fill="#82B7FB"/>
<path d="M304.334 175.508C303.594 175.633 302.336 179.874 303.224 195.832C304.112 211.79 302.854 217.536 302.114 218.414" stroke="white" stroke-opacity="0.19" stroke-width="2" stroke-linejoin="round"/>
<path d="M292.025 225.404H307.804L306.783 239.272H293.098L292.025 225.404Z" fill="#E92476"/>
<mask id="mask0" mask-type="alpha" maskUnits="userSpaceOnUse" x="291" y="225" width="17" height="16">
<path d="M291.683 225.836H307.727L305.992 240.232H293.2L291.683 225.836Z" fill="#E92476"/>
</mask>
<g mask="url(#mask0)">
<rect x="289.894" y="222.363" width="20.043" height="6.07124" rx="3.03562" fill="#D2055B"/>
</g>
<rect x="289.893" y="220.629" width="20.043" height="6.07124" rx="3.03562" fill="#E92476"/>
<path d="M292.452 230.607H307.378L306.738 237.546H292.879L292.452 230.607Z" fill="#F27CAD"/>
<path d="M20.8896 211.664C20.8896 211.664 30.1891 214.53 40.2636 211.664C40.2636 211.664 31.6686 208.799 20.8896 211.664Z" fill="#FFB34C" stroke="#F0AB4D" stroke-width="1.4173" stroke-miterlimit="10" stroke-linecap="round" stroke-linejoin="round"/>
<path d="M37.9386 208.008L31.6684 236.737C31.6684 236.88 31.5275 236.952 31.3866 236.952C31.2457 236.952 31.1753 236.808 31.1753 236.665L36.6 207.793C36.6704 207.435 37.0227 207.148 37.4454 207.22C37.8681 207.292 38.009 207.65 37.9386 208.008Z" fill="black"/>
<path d="M30.9644 207.438L28.4282 236.74C28.4282 236.883 28.2873 236.955 28.1464 236.955C28.0055 236.955 27.9351 236.811 27.9351 236.668L29.5554 207.295C29.5554 206.936 29.9077 206.578 30.2599 206.65C30.6826 206.65 31.0349 207.008 30.9644 207.438C30.9644 207.438 30.9644 207.366 30.9644 207.438Z" fill="black"/>
<path d="M33.2188 207.653L30.4712 236.955C30.4712 237.098 30.3303 237.169 30.1894 237.169C30.0485 237.169 29.978 237.026 29.978 236.883L31.8098 207.509C31.8098 207.151 32.162 206.793 32.5847 206.865C32.937 206.936 33.2892 207.295 33.2188 207.653Z" fill="black"/>
<path d="M36.9521 209.443L38.5725 209.73L36.9521 216.966" fill="black"/>
<path d="M36.9521 209.443L38.5725 209.73L36.9521 216.966" stroke="black" stroke-miterlimit="10" stroke-linecap="round" stroke-linejoin="round"/>
<path d="M32.5142 209.443H34.3459L33.43 216.966" fill="black"/>
<path d="M32.5142 209.443H34.3459L33.43 216.966" stroke="black" stroke-miterlimit="10" stroke-linecap="round" stroke-linejoin="round"/>
<path d="M29.9071 209.443H28.7095L28.2163 215.605" fill="black"/>
<path d="M29.9071 209.443H28.7095L28.2163 215.605" stroke="black" stroke-miterlimit="10" stroke-linecap="round" stroke-linejoin="round"/>
<path d="M40.2637 211.666L37.9389 237.959C32.3733 240.036 23.2851 237.959 23.2851 237.959L20.8193 211.666C20.8898 211.666 30.4711 214.675 40.2637 211.666Z" fill="#FFB34C" stroke="#F0AB4D" stroke-width="1.4173" stroke-miterlimit="10" stroke-linecap="round" stroke-linejoin="round"/>
<path d="M79.4173 216.891C79.4173 216.891 79.9809 213.523 85.8987 213.523C85.8987 213.523 91.0417 213.738 93.2256 218.323C93.2256 218.323 95.1278 225.703 99.9185 230.646C99.9185 230.646 103.864 235.303 100.412 237.667C100.412 237.667 91.7462 240.676 90.1962 233.727C88.7168 226.777 86.3919 224.485 84.5602 223.697C82.7285 222.909 78.8537 218.968 79.4173 216.891Z" fill="#5A5B94"/>
<path d="M79.4173 216.891C79.4173 216.891 79.9809 213.523 85.8987 213.523C85.8987 213.523 91.0417 213.738 93.2256 218.323C93.2256 218.323 95.1278 225.703 99.9185 230.646C99.9185 230.646 103.864 235.303 100.412 237.667C100.412 237.667 91.7462 240.676 90.1962 233.727C88.7168 226.777 86.3919 224.485 84.5602 223.697C82.7285 222.909 78.8537 218.968 79.4173 216.891Z" stroke="#2C2463" stroke-width="1.4173" stroke-miterlimit="10" stroke-linecap="round" stroke-linejoin="round"/>
<path d="M90.055 220.186C90.055 220.186 91.464 216.532 88.646 214.168" stroke="#2C2463" stroke-width="1.4173" stroke-miterlimit="10" stroke-linecap="round" stroke-linejoin="round"/>
<path d="M58 216.889H88.0825L101.257 239.098H69.2017L58.1409 219.325L58 216.889Z" fill="#5A5B94"/>
<path d="M77.7261 230.934C77.7261 230.934 78.2897 236.737 82.869 239.101H77.7261V230.934Z" fill="#2C2463" fill-opacity="0.7"/>
<path d="M58 216.889H88.0825L101.257 239.098H69.2017L58.1409 219.325L58 216.889Z" stroke="#2C2463" stroke-width="2" stroke-miterlimit="10" stroke-linecap="round" stroke-linejoin="round"/>
<path d="M77.7267 230.002H72.936V243.399H77.7267V230.002Z" fill="#2C2463"/>
<rect x="10.4375" y="239.061" width="307.67" height="9.07824" rx="4.53912" fill="#4147C9"/>
<rect width="3.62393" height="10.8608" transform="matrix(0.795901 0.605428 -0.554269 0.832338 127.907 131.279)" fill="#E34A5C"/>
</svg>
