<svg width="336" height="245" viewBox="0 0 336 245" fill="none" xmlns="http://www.w3.org/2000/svg">
<path d="M64.247 235.738C220.774 235.738 273.496 237.753 309.652 237.753C357.484 171.115 332.069 99.443 297.524 50.3061C262.979 1.1691 151.482 -24.6834 120.48 35.2233C89.4776 95.1301 92.9928 68.114 58.7339 98.9134C23.4763 130.611 26.6639 135.245 20.6589 167.22C20.2724 169.278 15.9254 207.699 19.9104 220.206C26.934 242.249 45.7995 235.738 64.247 235.738Z" fill="#C1D3F0"/>
<path d="M10.469 214.463C12.4542 233.927 20.4877 239.401 48.6322 239.401C117.583 239.401 153.495 240.938 187.365 241.467C263.921 242.662 286.174 241.467 311.144 241.467C358.791 174.587 325.981 107.14 291.569 57.8249C257.157 8.50933 145.306 -24.8155 114.424 35.309C83.5412 95.4334 91.2136 68.0066 53.1612 95.4879C12.541 124.824 17.5637 150.088 11.5819 182.179C10.4269 188.376 9.35544 203.543 10.469 214.463Z" fill="#D9E3F8"/>
<path d="M106.309 163.678C108.75 141.381 97.7284 141.039 90.4445 144.185C89.6647 144.522 88.7608 143.869 88.9125 143.033C92.6621 122.371 98.6303 81.6311 95.1944 68.3266C91.9334 55.6991 79.0798 61.4027 71.5394 66.8614C70.8182 67.3835 69.7837 66.8107 69.8747 65.925C73.1616 33.945 76.7353 8.66686 49.6233 6.08255C27.9279 4.01456 25.6418 41.3028 27.2665 61.5633C27.3231 62.2693 26.6377 62.8044 25.9517 62.6279C6.14951 57.5321 8.21316 75.6237 11.8325 85.5424C17.39 107.173 26.7265 148.846 19.613 142.489C12.6247 136.244 7.92475 139.713 6.35632 142.348C6.30067 142.441 6.26384 142.549 6.244 142.656C-6.9868 214.011 41.8566 219.3 59.6266 219.3C77.4105 219.3 102.975 194.138 106.309 163.678Z" fill="#578E92" fill-opacity="0.83"/>
<path d="M49.6217 30.4053C51.2261 82.0198 52.3017 181.214 50.8197 239.926L58.6236 239.924C55.2891 123.383 48.5102 -5.35219 49.6217 30.4053Z" fill="#1A786D"/>
<path d="M57.4028 206.055C68.1473 197.226 90.7476 175.595 95.1935 159.703" stroke="#578E92" stroke-linecap="round"/>
<path d="M51.8467 194.136C42.9983 187.073 24.3863 169.768 20.7249 157.055" stroke="#578E92" stroke-linecap="round"/>
<path d="M54.0693 122.629C64.1817 114.557 85.4526 94.7799 89.6371 80.25" stroke="#578E92" stroke-linecap="round"/>
<path d="M54.0693 141.158C47.7491 136.113 23.3399 87.9952 20.7246 78.9141" stroke="#578E92" stroke-linecap="round"/>
<path d="M82.9926 151.76C82.6221 160.589 85.8825 176.922 101.888 171.625" stroke="#578E92" stroke-width="0.5" stroke-linecap="round"/>
<path d="M67.4355 170.295C67.065 179.124 70.3253 195.457 86.3308 190.16" stroke="#578E92" stroke-width="0.5" stroke-linecap="round"/>
<path d="M69.6581 82.8984C69.2876 91.7273 72.548 108.061 88.5535 102.763" stroke="#578E92" stroke-width="0.5" stroke-linecap="round"/>
<path d="M40.7125 101.441C41.0171 108.155 38.336 120.575 25.174 116.547" stroke="#578E92" stroke-width="0.5" stroke-linecap="round"/>
<path d="M36.2613 159.703C36.566 166.417 33.8848 178.837 20.7228 174.809" stroke="#578E92" stroke-width="0.5" stroke-linecap="round"/>
<path d="M296.797 132.909L296.797 10.0781L61.7524 10.0781L61.7524 132.909L296.797 132.909Z" fill="#D0D6D9"/>
<path d="M298.407 134.057H60V8.99805H298.407V134.057V134.057ZM63.3626 131.581H295.044V11.2268H63.3626V131.581Z" fill="#47484A"/>
<path d="M293.363 12.4727H65.0435V130.35H293.363V12.4727Z" fill="white" fill-opacity="0.93"/>
<path d="M260.531 59.9995L246 65.1738L253.026 75.8755L267.557 70.7012L260.531 59.9995Z" fill="#FFB34C" fill-opacity="0.2"/>
<path d="M251.655 14.4358L235.528 14.9238L236.19 26.8012L252.318 26.3132L251.655 14.4358Z" fill="#FFB34C" fill-opacity="0.26"/>
<path d="M102.619 28.022L87.4136 24.0352L82.0001 35.2338L97.2059 39.2206L102.619 28.022Z" fill="#F55669" fill-opacity="0.29"/>
<path d="M95.0888 65.8946L79 66.8379L80.2809 78.6867L96.3696 77.7434L95.0888 65.8946Z" fill="#FFB34C" fill-opacity="0.26"/>
<path d="M76.0005 47.4953C76.0005 47.4953 78.6906 47.2476 82.7257 47.2476C83.7344 47.2476 84.7432 47.2476 86.0882 47.2476C87.097 47.2476 88.442 47.2476 89.7871 47.2476C92.1409 47.2476 94.8309 47.2476 97.521 47.2476C100.211 47.2476 102.901 47.2476 105.255 47C107.609 47 109.963 47 111.98 47C116.015 47 118.705 47.2476 118.705 47.2476C118.705 47.2476 116.015 47.4953 111.98 47.4953C109.963 47.4953 107.609 47.4953 105.255 47.4953C102.901 47.4953 100.211 47.4953 97.521 47.2476C94.8309 47.2476 92.1409 47.2476 89.7871 47.2476C88.442 47.2476 87.4333 47.2476 86.0882 47.2476C85.0795 47.2476 83.7344 47.2476 82.7257 47.2476C78.6906 47.7429 76.0005 47.7429 76.0005 47.4953C76.0005 47.4953 76.0005 47.7429 76.0005 47.4953Z" fill="#006F8A"/>
<path d="M76 50.9605C76 50.9605 77.6813 50.7129 80.3714 50.7129C83.0614 50.7129 86.424 50.7129 90.1228 50.7129C91.8041 50.7129 93.8217 50.7129 95.1667 50.7129C95.8392 50.7129 96.848 50.7129 97.5205 50.7129C98.193 50.7129 98.8656 50.7129 99.5381 50.7129C102.228 50.7129 103.909 50.9605 103.909 50.9605C103.909 50.9605 102.228 51.2082 99.5381 51.2082C98.8656 51.2082 98.193 51.2082 97.5205 51.2082C96.848 51.2082 95.8392 51.2082 95.1667 51.2082C93.4854 51.2082 91.8041 51.2082 90.1228 51.2082C86.424 51.4558 83.0614 51.4558 80.3714 51.2082C77.6813 51.2082 76 51.2082 76 50.9605C76 51.2082 76 51.2082 76 50.9605Z" fill="#006F8A"/>
<path d="M254.528 36.6832C254.528 36.6832 256.882 36.6832 259.908 36.4355C260.58 36.4355 261.589 36.4355 262.598 36.4355C263.607 36.4355 264.616 36.4355 265.624 36.4355C267.642 36.4355 269.996 36.4355 272.013 36.4355C274.367 36.4355 276.385 36.4355 278.402 36.4355C280.42 36.4355 282.437 36.4355 284.119 36.4355C287.481 36.4355 289.499 36.6832 289.499 36.6832C289.499 36.6832 287.145 36.6832 284.119 36.9308C282.437 36.9308 280.42 36.9308 278.402 36.9308C276.385 36.9308 274.031 36.9308 272.013 36.9308C269.659 36.9308 267.642 36.9308 265.624 36.9308C264.616 36.9308 263.607 36.9308 262.598 36.9308C261.589 36.9308 260.917 36.9308 259.908 36.9308C256.882 36.9308 254.528 36.6832 254.528 36.6832Z" fill="#006F8A"/>
<path d="M254.528 38.9117C254.528 38.9117 256.882 38.9117 259.908 38.6641C261.589 38.6641 263.607 38.6641 265.624 38.6641C267.642 38.6641 269.996 38.6641 272.013 38.6641C274.367 38.6641 276.385 38.6641 278.402 38.6641C279.411 38.6641 280.42 38.6641 281.428 38.6641C282.437 38.6641 283.11 38.6641 284.119 38.6641C287.481 38.6641 289.499 38.9117 289.499 38.9117C289.499 38.9117 287.145 38.9117 284.119 39.1593C283.446 39.1593 282.437 39.1593 281.428 39.1593C280.42 39.1593 279.411 39.1593 278.402 39.1593C276.385 39.1593 274.031 39.1593 272.013 39.1593C269.659 39.1593 267.642 39.1593 265.624 39.1593C263.607 39.1593 261.589 39.1593 259.908 39.1593C256.882 39.1593 254.528 38.9117 254.528 38.9117Z" fill="#006F8A"/>
<path d="M254.528 41.3902C254.528 41.3902 256.882 41.3902 259.908 41.1426C260.58 41.1426 261.589 41.1426 262.598 41.1426C263.607 41.1426 264.616 41.1426 265.624 41.1426C267.642 41.1426 269.996 41.1426 272.013 41.1426C274.367 41.1426 276.385 41.1426 278.402 41.1426C280.42 41.1426 282.437 41.1426 284.119 41.1426C287.481 41.1426 289.499 41.3902 289.499 41.3902C289.499 41.3902 287.145 41.3902 284.119 41.6379C282.437 41.6379 280.42 41.6379 278.402 41.6379C276.385 41.6379 274.031 41.6379 272.013 41.6379C269.659 41.6379 267.642 41.6379 265.624 41.6379C264.616 41.6379 263.607 41.6379 262.598 41.6379C261.589 41.6379 260.917 41.6379 259.908 41.6379C256.882 41.6379 254.528 41.3902 254.528 41.3902Z" fill="#006F8A"/>
<path d="M254.528 43.8687C254.528 43.8687 256.882 43.8687 259.908 43.6211C261.589 43.6211 263.607 43.6211 265.624 43.6211C267.642 43.6211 269.996 43.6211 272.013 43.6211C274.367 43.6211 276.385 43.6211 278.402 43.6211C279.411 43.6211 280.42 43.6211 281.428 43.6211C282.437 43.6211 283.11 43.6211 284.119 43.6211C287.481 43.6211 289.499 43.8687 289.499 43.8687C289.499 43.8687 287.145 43.8687 284.119 44.1164C283.446 44.1164 282.437 44.1164 281.428 44.1164C280.42 44.1164 279.411 44.1164 278.402 44.1164C276.385 44.1164 274.031 44.1164 272.013 44.1164C269.659 44.1164 267.642 44.1164 265.624 44.1164C263.607 44.1164 261.589 44.1164 259.908 44.1164C256.882 43.8687 254.528 43.8687 254.528 43.8687Z" fill="#006F8A"/>
<path d="M254.528 46.3414C254.528 46.3414 256.882 46.3414 259.908 46.0938C260.58 46.0938 261.589 46.0938 262.598 46.0938C263.607 46.0938 264.616 46.0938 265.624 46.0938C267.642 46.0938 269.996 46.0938 272.013 46.0938C274.367 46.0938 276.385 46.0938 278.402 46.0938C280.42 46.0938 282.437 46.0938 284.119 46.0938C287.481 46.0938 289.499 46.3414 289.499 46.3414C289.499 46.3414 287.145 46.3414 284.119 46.589C282.437 46.589 280.42 46.589 278.402 46.589C276.385 46.589 274.031 46.589 272.013 46.589C269.659 46.589 267.642 46.589 265.624 46.589C264.616 46.589 263.607 46.589 262.598 46.589C261.589 46.589 260.917 46.589 259.908 46.589C256.882 46.3414 254.528 46.3414 254.528 46.3414Z" fill="#006F8A"/>
<path d="M254.528 48.5699C254.528 48.5699 255.873 48.5699 258.227 48.3223C260.244 48.3223 263.271 48.3223 266.297 48.3223C267.642 48.3223 269.323 48.3223 270.668 48.3223C271.341 48.3223 272.013 48.3223 272.686 48.3223C273.358 48.3223 274.031 48.3223 274.367 48.3223C276.385 48.3223 278.066 48.5699 278.066 48.5699C278.066 48.5699 276.721 48.5699 274.367 48.8175C273.695 48.8175 273.358 48.8175 272.686 48.8175C272.013 48.8175 271.341 48.8175 270.668 48.8175C269.323 48.8175 267.978 48.8175 266.297 48.8175C263.271 48.8175 260.58 48.8175 258.227 48.8175C256.209 48.8175 254.528 48.8176 254.528 48.5699C254.528 48.8176 254.528 48.8176 254.528 48.5699C254.528 48.5699 254.528 48.8176 254.528 48.5699Z" fill="#006F8A"/>
<path d="M187.335 78.2477C187.335 78.2477 189.689 78.2476 192.715 78C193.388 78 194.396 78 195.405 78C196.414 78 197.423 78 198.431 78C200.449 78 202.803 78 204.82 78C207.174 78 209.192 78 211.209 78C213.227 78 215.244 78 216.926 78C220.288 78 222.306 78.2477 222.306 78.2477C222.306 78.2477 219.952 78.2477 216.926 78.4953C215.244 78.4953 213.227 78.4953 211.209 78.4953C209.192 78.4953 206.838 78.4953 204.82 78.4953C202.467 78.4953 200.449 78.4953 198.431 78.4953C197.423 78.4953 196.414 78.4953 195.405 78.4953C194.396 78.4953 193.724 78.4953 192.715 78.4953C189.353 78.2477 187.335 78.2477 187.335 78.2477Z" fill="#006F8A"/>
<path d="M187 79.9801C187 79.9801 188.345 79.9801 190.699 79.7324C192.716 79.7324 195.743 79.7324 198.769 79.7324C200.114 79.7324 201.795 79.7324 203.14 79.7324C203.813 79.7324 204.485 79.7324 205.158 79.7324C205.83 79.7324 206.503 79.7324 206.839 79.7324C208.857 79.7324 210.538 79.9801 210.538 79.9801C210.538 79.9801 209.193 79.98 206.839 80.2277C206.167 80.2277 205.83 80.2277 205.158 80.2277C204.485 80.2277 203.813 80.2277 203.14 80.2277C201.795 80.2277 200.45 80.2277 198.769 80.2277C195.743 80.2277 193.053 80.2277 190.699 80.2277C188.345 79.98 187 79.9801 187 79.9801Z" fill="#006F8A"/>
<path d="M240.762 47.8274C240.528 47.8274 240.528 47.6666 240.528 47.6666C240.528 47.5057 242.871 37.0513 256.459 30.9395C269.814 24.6668 281.294 25.471 281.294 25.471C281.528 25.471 281.528 25.6318 281.528 25.6318C281.528 25.7927 281.294 25.7927 281.294 25.7927C281.294 25.7927 270.048 25.1493 256.694 31.2612C243.339 37.373 240.996 47.6666 240.996 47.8274C240.996 47.6666 240.762 47.8274 240.762 47.8274Z" fill="#006F8A"/>
<path d="M239.209 51.8951L237.528 47.9328C237.528 47.6852 237.528 47.6851 237.864 47.4375C238.2 47.4375 238.2 47.4375 238.537 47.6852L239.545 50.4092L242.235 47.9328C242.235 47.6852 242.572 47.6852 242.908 47.9328C243.244 47.9328 243.244 48.1804 242.908 48.4281L239.209 51.8951Z" fill="#006F8A"/>
<path d="M281.019 88.4355H258.528V105.296H281.019V88.4355Z" fill="#B8D1FF" fill-opacity="0.29"/>
<path d="M158.049 97.7867L165.266 87.916L170.501 93.9795L158.474 101.171L158.049 97.7867Z" fill="#D9142B"/>
<path fill-rule="evenodd" clip-rule="evenodd" d="M157.223 104.554H158.519C159.305 103.207 160.879 99.5906 160.879 95.9037C160.879 92.2167 158.411 89.2298 157.177 88.1973V88.2282L157.177 88.1975C155.943 89.23 153.521 92.2169 153.521 95.9039C153.521 99.5908 155.094 103.207 155.881 104.555H157.223L157.223 104.554Z" fill="#FF455B"/>
<mask id="mask0" mask-type="alpha" maskUnits="userSpaceOnUse" x="153" y="88" width="8" height="17">
<path fill-rule="evenodd" clip-rule="evenodd" d="M157.223 104.554H158.519C159.305 103.207 160.879 99.5906 160.879 95.9037C160.879 92.2167 158.411 89.2298 157.177 88.1973V88.2282L157.177 88.1975C155.943 89.23 153.521 92.2169 153.521 95.9039C153.521 99.5908 155.094 103.207 155.881 104.555H157.223L157.223 104.554Z" fill="#D75720"/>
</mask>
<g mask="url(#mask0)">
<rect x="152.389" y="93.2734" width="9.90467" height="8.46062" fill="#FFD262"/>
<rect x="145.597" y="93.2734" width="23.4882" height="0.564034" fill="#382FAC"/>
<rect x="145.597" y="101.451" width="23.4882" height="0.564041" fill="#382FAC"/>
</g>
<path d="M186.63 97.7867L179.414 87.916L174.179 93.9795L186.206 101.171L186.63 97.7867Z" fill="#D9142B"/>
<path fill-rule="evenodd" clip-rule="evenodd" d="M187.457 104.554H186.161C185.375 103.207 183.801 99.5906 183.801 95.9037C183.801 92.2171 186.269 89.2305 187.503 88.1976L187.503 88.1974C187.503 88.1974 187.503 88.1974 187.503 88.1975C187.503 88.1974 187.503 88.1973 187.503 88.1973V88.1977C188.737 89.2306 191.159 92.2172 191.159 95.9038C191.159 99.5907 189.585 103.207 188.799 104.555H187.457L187.457 104.554Z" fill="#FF455B"/>
<mask id="mask1" mask-type="alpha" maskUnits="userSpaceOnUse" x="183" y="88" width="9" height="17">
<path fill-rule="evenodd" clip-rule="evenodd" d="M187.457 104.554H186.161C185.375 103.207 183.801 99.5906 183.801 95.9037C183.801 92.2171 186.269 89.2305 187.503 88.1976L187.503 88.1974C187.503 88.1974 187.503 88.1974 187.503 88.1975C187.503 88.1974 187.503 88.1973 187.503 88.1973V88.1977C188.737 89.2306 191.159 92.2172 191.159 95.9038C191.159 99.5907 189.585 103.207 188.799 104.555H187.457L187.457 104.554Z" fill="#D75720"/>
</mask>
<g mask="url(#mask1)">
<rect width="9.90467" height="8.46062" transform="matrix(-1 0 0 1 192.291 93.2734)" fill="#FEB261"/>
<rect width="23.4882" height="0.564041" transform="matrix(-1 0 0 1 199.082 93.2734)" fill="#382FAC"/>
<rect width="23.4882" height="0.564037" transform="matrix(-1 0 0 1 199.082 101.451)" fill="#382FAC"/>
</g>
<path fill-rule="evenodd" clip-rule="evenodd" d="M172.198 98.7743H168.237C165.831 93.7449 161.021 80.2455 161.021 66.4829C161.021 52.7208 168.425 41.5718 172.198 37.7172V37.7168C172.198 37.7169 172.198 37.7169 172.198 37.717C172.199 37.7169 172.199 37.7169 172.199 37.7168L172.199 37.7172C175.972 41.5718 183.518 52.7208 183.518 66.4829C183.518 80.2455 178.707 93.7449 176.302 98.7743H172.34H172.198Z" fill="#FFD262"/>
<path d="M176.302 98.7743H172.198V37.7168C175.972 41.5711 183.518 52.7203 183.518 66.4829C183.518 80.2455 178.707 93.7449 176.302 98.7743Z" fill="#FEB261"/>
<mask id="mask2" mask-type="alpha" maskUnits="userSpaceOnUse" x="161" y="37" width="23" height="62">
<path fill-rule="evenodd" clip-rule="evenodd" d="M172.198 98.7743H168.237C165.831 93.7449 161.021 80.2455 161.021 66.4829C161.021 52.7208 168.425 41.5718 172.198 37.7172V37.7168C172.198 37.7169 172.198 37.7169 172.198 37.717C172.199 37.7169 172.199 37.7169 172.199 37.7168L172.199 37.7172C175.972 41.5718 183.518 52.7208 183.518 66.4829C183.518 80.2455 178.707 93.7449 176.302 98.7743H172.34H172.198Z" fill="#FEFFFB"/>
</mask>
<g mask="url(#mask2)">
<rect x="160.879" y="35.7422" width="23.4882" height="16.6392" fill="#FF455B"/>
<rect x="160.596" y="52.0996" width="23.4882" height="1.69213" fill="#382FAC"/>
<rect x="160.596" y="97.5059" width="23.4882" height="1.69212" fill="#382FAC"/>
</g>
<mask id="mask3" mask-type="alpha" maskUnits="userSpaceOnUse" x="161" y="37" width="23" height="62">
<path fill-rule="evenodd" clip-rule="evenodd" d="M172.198 98.7743L168.237 98.7743C165.831 93.7449 161.021 80.2455 161.021 66.4829C161.021 52.7208 168.425 41.5718 172.198 37.7172V37.7168C172.198 37.7169 172.198 37.7169 172.198 37.717C172.199 37.7169 172.199 37.7169 172.199 37.7168L172.199 37.7172C175.972 41.5718 183.518 52.7208 183.518 66.4829C183.518 80.2455 178.707 93.7449 176.302 98.7743L172.34 98.7743L172.198 98.7743Z" fill="#FEFFFB"/>
</mask>
<g mask="url(#mask3)">
<ellipse cx="172.198" cy="61.9701" rx="6.22579" ry="6.20445" fill="#363636"/>
<mask id="mask4" mask-type="alpha" maskUnits="userSpaceOnUse" x="165" y="55" width="14" height="14">
<ellipse cx="172.198" cy="61.9701" rx="6.22579" ry="6.20445" fill="white" fill-opacity="0.2"/>
</mask>
<g mask="url(#mask4)">
<path d="M174.896 50.9062L177.698 53.6983L164.727 66.6242L161.926 63.8322L174.896 50.9062Z" fill="white" fill-opacity="0.2"/>
<path d="M180.811 54.9391L166.699 69.0026L167.529 70.2435L181.848 55.9732L180.811 54.9391Z" fill="white" fill-opacity="0.2"/>
<path d="M182.471 57.4209L168.878 70.9673L171.68 73.9661L185.376 60.3163L182.471 57.4209Z" fill="white" fill-opacity="0.2"/>
</g>
</g>
<path d="M172.858 37.4888V26.8359H161.072" stroke="#477D9C" stroke-dasharray="6 6"/>
<path d="M183.929 64.951H200.357V41.1484" stroke="#477D9C" stroke-dasharray="6 6"/>
<path d="M155.179 99.9048H149.822V73.6055" stroke="#477D9C" stroke-dasharray="6 6"/>
<rect width="12.1429" height="1.66452" transform="matrix(-1 0 0 1 158.571 26)" fill="#477D9C"/>
<rect width="12.1429" height="0.332903" transform="matrix(-1 0 0 1 158.571 28.332)" fill="#477D9C"/>
<rect width="12.1429" height="0.332903" transform="matrix(-1 0 0 1 158.571 28.998)" fill="#477D9C"/>
<rect width="9.28578" height="0.332903" transform="matrix(-1 0 0 1 158.571 29.6621)" fill="#477D9C"/>
<rect width="10.3572" height="0.332903" transform="matrix(-1 0 0 1 158.571 30.3281)" fill="#477D9C"/>
<rect width="6.42862" height="0.332903" transform="matrix(-1 0 0 1 158.571 31.6582)" fill="#477D9C"/>
<rect width="9.64293" height="0.332903" transform="matrix(-1 0 0 1 158.571 32.3242)" fill="#477D9C"/>
<rect x="192.857" y="32.6602" width="12.1429" height="1.66452" fill="#477D9C"/>
<rect x="192.857" y="34.9902" width="12.1429" height="0.332903" fill="#477D9C"/>
<rect x="192.857" y="35.6562" width="12.1429" height="0.332903" fill="#477D9C"/>
<rect x="192.857" y="36.3223" width="9.28578" height="0.332903" fill="#477D9C"/>
<rect x="192.857" y="36.9883" width="10.3572" height="0.332903" fill="#477D9C"/>
<rect x="192.857" y="38.3203" width="6.42862" height="0.332903" fill="#477D9C"/>
<rect x="192.857" y="38.9824" width="9.64293" height="0.332903" fill="#477D9C"/>
<rect x="145.001" y="64.9512" width="12.1429" height="1.66452" fill="#477D9C"/>
<rect x="145" y="67.2832" width="12.1429" height="0.332903" fill="#477D9C"/>
<rect x="145" y="67.9473" width="12.1429" height="0.332903" fill="#477D9C"/>
<rect x="145" y="68.6133" width="9.28578" height="0.332903" fill="#477D9C"/>
<rect x="145" y="69.2793" width="10.3572" height="0.332903" fill="#477D9C"/>
<rect x="145" y="70.6113" width="6.42862" height="0.332903" fill="#477D9C"/>
<rect x="145" y="71.2773" width="9.64293" height="0.332903" fill="#477D9C"/>
<path d="M268.629 231.795C268.629 233.857 266.877 235.461 264.626 235.461C262.374 235.461 260.623 233.857 260.623 231.795C260.623 229.733 262.374 228.129 264.626 228.129C266.877 228.129 268.629 229.733 268.629 231.795Z" fill="#303030"/>
<path d="M308.845 188.125H254V191.846H308.845V188.125Z" fill="url(#paint0_linear)"/>
<path d="M285.485 195.568H277.36V197.429H285.485V195.568Z" fill="url(#paint1_linear)"/>
<path d="M284.469 197.428H278.375V213.24H284.469V197.428Z" fill="url(#paint2_linear)"/>
<path d="M283.454 211.379H279.392V227.191H283.454V211.379Z" fill="url(#paint3_linear)"/>
<path d="M283.832 191.846H279.125H273.297L275.651 195.566H279.125H283.832H287.194L289.548 191.846H283.832Z" fill="url(#paint4_linear)"/>
<path d="M280.407 223.471C272.342 226.358 260.897 230.78 259.371 232.314C258.281 233.397 258.063 234.57 258.063 235.563L280.407 227.17V223.471Z" fill="url(#paint5_linear)"/>
<path d="M265.172 235.563C265.172 236.605 263.831 237.424 262.125 237.424C260.419 237.424 259.078 236.605 259.078 235.563C259.078 234.522 260.419 233.703 262.125 233.703C263.709 233.703 265.172 234.522 265.172 235.563Z" fill="url(#paint6_linear)"/>
<path d="M282.438 227.17L305.798 235.563C305.798 234.66 305.57 233.397 304.43 232.314C302.835 230.78 290.87 226.358 282.438 223.471V227.17Z" fill="url(#paint7_linear)"/>
<path d="M298.688 235.563C298.688 236.605 300.029 237.424 301.735 237.424C303.442 237.424 304.782 236.605 304.782 235.563C304.782 234.522 303.442 233.703 301.735 233.703C300.029 233.703 298.688 234.522 298.688 235.563Z" fill="url(#paint8_linear)"/>
<path d="M268.88 162.598H266.628V175.658H268.88V162.598Z" fill="url(#paint9_linear)"/>
<path d="M296.402 162.598H294.15V175.658H296.402V162.598Z" fill="url(#paint10_linear)"/>
<path d="M297.653 166.037H263.627C261.875 166.037 260.374 164.662 260.374 163.058V161.912C260.374 160.308 261.875 158.934 263.627 158.934H297.653C299.404 158.934 300.906 160.308 300.906 161.912V163.058C300.655 164.662 299.404 166.037 297.653 166.037Z" fill="#787777"/>
<path d="M311.094 122.387C311.237 122.185 311.379 121.982 311.634 121.793C301.592 119.07 298.224 123.061 296.674 135.758C296.659 135.866 296.729 136.181 296.602 136.276C296.572 136.491 296.561 136.57 296.531 136.786L296.516 136.894C296.501 137.002 296.485 137.109 296.47 137.217C296.455 137.325 296.455 137.325 296.44 137.433C296.425 137.541 296.425 137.541 296.41 137.648C296.395 137.756 296.38 137.864 296.365 137.972L296.35 138.08C296.319 138.295 296.289 138.511 296.259 138.727C296.244 138.834 296.229 138.942 296.214 139.05C294.008 156.434 300.05 158.857 308.337 158.822C303.156 142.872 310.637 123.21 311.094 122.387Z" fill="#787777"/>
<path d="M308.656 153.435C302.457 141.14 310.472 123.911 310.571 123.825C311.002 122.933 310.595 121.906 309.581 121.58C308.848 121.268 308.082 121.502 307.492 121.929C307.293 122.101 307.188 122.279 307.083 122.456C306.757 123.171 299.179 139.417 304.275 152.843C304.511 153.587 304.847 154.244 305.177 154.992C309.693 164.092 309.079 177.133 306.893 180.585C306.578 181.117 307.446 182.311 306.498 182.445C305.462 182.483 303.17 183.044 303.207 183.96C303.25 184.785 304.055 185.466 304.992 185.515C305.085 185.52 305.179 185.524 305.179 185.524C307.064 185.439 308.829 184.25 310.077 182.303C312.981 177.882 313.761 163.662 308.656 153.435Z" fill="url(#paint11_linear)"/>
<path d="M304.319 188.266H260.785C258.283 188.266 256.031 186.433 256.031 183.913V179.101C256.031 176.81 263.56 174.748 267.115 174.748L283.454 174.17L297.585 174.748C300.086 174.748 309.073 176.581 309.073 179.101V183.913C309.073 186.204 307.071 188.266 304.319 188.266Z" fill="#787777"/>
<path d="M75.0531 231.795C75.0531 233.857 76.9623 235.461 79.417 235.461C81.8716 235.461 83.7808 233.857 83.7808 231.795C83.7808 229.733 81.8716 228.129 79.417 228.129C76.9623 228.129 75.0531 229.733 75.0531 231.795Z" fill="#303030"/>
<path d="M31.2136 188.125H91V191.846H31.2136V188.125Z" fill="url(#paint12_linear)"/>
<path d="M56.6784 195.568H65.5356V197.429H56.6784V195.568Z" fill="url(#paint13_linear)"/>
<path d="M57.7853 197.428H64.4282V213.24H57.7853V197.428Z" fill="url(#paint14_linear)"/>
<path d="M58.8922 211.379H63.3208V227.191H58.8922V211.379Z" fill="url(#paint15_linear)"/>
<path d="M58.48 191.846H63.6111H69.9639L67.3983 195.566H63.6111H58.48H54.8149L52.2494 191.846H58.48Z" fill="url(#paint16_linear)"/>
<path d="M62.2134 223.471C71.0058 226.358 83.4816 230.78 85.145 232.314C86.3332 233.397 86.5708 234.57 86.5708 235.563L62.2134 227.17V223.471Z" fill="url(#paint17_linear)"/>
<path d="M78.8214 235.563C78.8214 236.605 80.2829 237.424 82.1429 237.424C84.0029 237.424 85.4644 236.605 85.4644 235.563C85.4644 234.522 84.0029 233.703 82.1429 233.703C80.4157 233.703 78.8214 234.522 78.8214 235.563Z" fill="url(#paint18_linear)"/>
<path d="M60 227.17L34.5354 235.563C34.5354 234.66 34.7838 233.397 36.026 232.314C37.7651 230.78 50.8079 226.358 60 223.471V227.17Z" fill="url(#paint19_linear)"/>
<path d="M42.2852 235.563C42.2852 236.605 40.8237 237.424 38.9637 237.424C37.1037 237.424 35.6422 236.605 35.6422 235.563C35.6422 234.522 37.1037 233.703 38.9637 233.703C40.8237 233.703 42.2852 234.522 42.2852 235.563Z" fill="url(#paint20_linear)"/>
<path d="M74.7793 162.598H77.2339V175.658H74.7793V162.598Z" fill="url(#paint21_linear)"/>
<path d="M44.7783 162.598H47.2329V175.658H44.7783V162.598Z" fill="url(#paint22_linear)"/>
<path d="M43.4139 166.037H80.5062C82.4154 166.037 84.0518 164.662 84.0518 163.058V161.912C84.0518 160.308 82.4154 158.934 80.5062 158.934H43.4139C41.5048 158.934 39.8684 160.308 39.8684 161.912V163.058C40.1411 164.662 41.5048 166.037 43.4139 166.037Z" fill="#787777"/>
<path d="M28.7616 122.387C28.6063 122.185 28.4511 121.982 28.1735 121.793C39.1197 119.07 42.7917 123.061 44.4807 135.758C44.4972 135.866 44.421 136.181 44.5598 136.276C44.5927 136.491 44.6045 136.57 44.6374 136.786L44.6538 136.894C44.6703 137.002 44.6867 137.109 44.7032 137.217C44.7196 137.325 44.7196 137.325 44.7361 137.433C44.7526 137.541 44.7526 137.541 44.769 137.648C44.7855 137.756 44.8019 137.864 44.8184 137.972L44.8348 138.08C44.8677 138.295 44.9006 138.511 44.9335 138.727C44.95 138.834 44.9664 138.942 44.9829 139.05C47.3874 156.434 40.8012 158.857 31.7671 158.822C37.4156 142.872 29.2602 123.21 28.7616 122.387Z" fill="#787777"/>
<path d="M31.4192 153.435C38.1775 141.14 29.4402 123.911 29.3319 123.825C28.8623 122.933 29.3058 121.906 30.411 121.58C31.2098 121.268 32.0452 121.502 32.6886 121.929C32.9051 122.101 33.0195 122.279 33.1338 122.456C33.4891 123.171 41.7507 139.417 36.1954 152.843C35.9379 153.587 35.5721 154.244 35.2124 154.992C30.2893 164.092 30.9585 177.133 33.3417 180.585C33.6848 181.117 32.738 182.311 33.7716 182.445C34.9013 182.483 37.4002 183.044 37.3591 183.96C37.312 184.785 36.4355 185.466 35.4141 185.515C35.3119 185.52 35.2098 185.524 35.2098 185.524C33.1547 185.439 31.2307 184.25 29.8706 182.303C26.7053 177.882 25.8545 163.662 31.4192 153.435Z" fill="url(#paint23_linear)"/>
<path d="M36.1474 188.266H83.6037C86.331 188.266 88.7856 186.433 88.7856 183.913V179.101C88.7856 176.81 80.5782 174.748 76.7032 174.748L58.8925 174.17L43.4885 174.748C40.7611 174.748 30.9653 176.581 30.9653 179.101V183.913C30.9653 186.204 33.1473 188.266 36.1474 188.266Z" fill="#787777"/>
<path d="M168.277 128.936C168.027 128.478 168.277 128.02 168.527 127.791L171.78 126.187C172.28 125.958 172.78 126.187 173.031 126.416C173.281 126.874 173.031 127.332 172.78 127.561L169.528 129.165C169.028 129.395 168.527 129.395 168.277 128.936Z" fill="#F3AEAE"/>
<path d="M167.277 127.559C167.027 127.101 167.277 126.643 167.527 126.414L170.78 124.81C171.28 124.581 171.781 124.81 172.031 125.039C172.281 125.497 172.031 125.955 171.78 126.185L168.528 127.788C168.028 128.247 167.527 128.018 167.277 127.559Z" fill="#FFA47C"/>
<path d="M166.526 126.415C166.275 125.956 166.526 125.498 166.776 125.269L170.028 123.665C170.529 123.436 171.029 123.665 171.279 123.894C171.529 124.353 171.279 124.811 171.029 125.04L167.776 126.644C167.276 126.873 166.776 126.644 166.526 126.415Z" fill="#FFA47C"/>
<path d="M165.776 125.044C165.525 124.585 165.775 124.127 166.026 123.898L169.278 122.294C169.779 122.065 170.279 122.294 170.529 122.523C170.779 122.982 170.529 123.44 170.279 123.669L167.026 125.273C166.526 125.502 166.026 125.502 165.776 125.044Z" fill="#FFA47C"/>
<path d="M178.285 119.998C178.285 119.998 172.03 120.456 170.779 120.915C169.528 121.373 166.025 124.122 166.025 124.122C166.025 124.122 168.027 124.81 168.527 125.726C169.028 126.643 169.778 129.163 169.778 129.163C169.778 129.163 173.781 128.247 175.533 127.33C177.284 126.414 178.535 125.039 178.535 125.039L178.285 119.998Z" fill="#F3AEAE"/>
<path d="M176.034 127.329L180.537 125.038L177.785 118.852L172.281 120.226L176.034 127.329Z" fill="#E0F2FF"/>
<path d="M223.57 93.4189C227.323 95.7102 226.072 99.3763 223.32 102.584C220.568 105.792 202.554 119.082 201.053 119.082C199.552 119.082 194.798 114.957 195.549 113.124C196.049 111.291 209.309 97.3142 212.061 95.0228C214.814 92.9607 219.317 90.6693 223.57 93.4189Z" fill="#201F1F"/>
<path d="M228.575 71.8809C228.575 71.8809 232.328 83.3374 233.078 83.7957C235.83 84.9413 239.583 87.4618 242.085 90.2113C245.088 93.4192 244.087 109.458 244.087 115.187C244.337 120.915 249.341 128.705 251.593 133.975C253.844 139.016 237.331 149.785 236.581 150.014C235.83 150.244 228.575 146.348 227.074 144.974C225.572 143.37 222.82 129.393 221.819 125.956C220.819 122.519 216.565 110.375 216.315 109.687C213.813 104.647 214.063 100.064 214.063 98.9183C214.063 97.7726 213.313 95.9396 213.813 95.0231C214.564 93.19 221.069 89.7531 220.819 89.0657C220.819 88.3783 218.817 78.0674 218.817 78.0674L228.575 71.8809Z" fill="#F3AEAE"/>
<path d="M233.077 83.7949L223.57 92.5019L220.818 88.8358C220.818 88.8358 214.313 93.1893 213.812 94.7932C213.312 96.3971 213.562 99.6049 213.562 100.98C213.562 102.125 214.813 107.625 216.564 112.207C217.565 114.957 218.566 118.394 220.317 122.976C221.818 126.871 224.07 136.724 224.07 136.724C224.07 136.724 228.324 136.037 234.578 134.204C241.834 132.142 250.091 130.308 250.591 130.079C251.842 128.705 245.837 117.706 245.837 116.561C245.837 115.415 244.586 94.1058 243.836 91.3562C243.335 88.6066 241.083 87.461 238.832 86.0862C236.58 84.7114 233.077 83.7949 233.077 83.7949Z" fill="#BDCAF6"/>
<path d="M237.331 85.168C237.331 85.168 233.828 87.6884 232.577 91.3545C229.324 100.749 240.833 110.831 234.579 113.809C224.821 118.621 227.073 121.141 227.073 122.975C227.073 127.328 226.572 132.598 226.572 132.598L249.84 130.078C252.843 129.848 245.587 118.392 245.587 115.184C244.837 101.895 244.086 92.2711 243.586 90.2089C242.835 87.4593 237.331 85.168 237.331 85.168Z" fill="#B8D1FF"/>
<path d="M220.067 82.1905L230.075 76.0039L232.077 81.9613L229.074 84.7109L220.067 82.1905Z" fill="#F3AEAE"/>
<path d="M214.814 62.486C217.316 59.7364 225.573 56.5286 230.326 61.3403C235.08 65.9229 234.079 71.193 232.078 74.63C230.576 77.1504 229.075 78.7543 225.823 80.5873C225.072 81.0456 219.067 82.6495 217.816 82.4204C216.816 82.1913 215.565 76.6921 215.315 76.6921C215.064 76.6921 214.314 76.4629 214.314 76.0047C214.064 75.3173 214.314 71.193 214.064 70.7347C214.064 70.0473 211.812 65.6938 214.814 62.486Z" fill="#F3AEAE"/>
<path d="M227.555 75.7426L229.217 77.1103C229.728 77.5307 230.603 77.337 230.925 76.7322L233.545 71.8179C234.944 69.1939 236.136 66.376 235.562 63.6706C234.907 60.5888 232.829 57.1597 227.714 55.7755C217.994 53.1453 215.485 57.3218 215.107 57.2797C214.804 57.2461 214.371 56.6383 214.192 56.3387C214.061 56.5566 214.097 57.2429 214.132 57.5588C213.442 57.0947 213.851 56.0102 214.142 55.526C209.838 59.645 212.071 62.0327 213.726 62.7117C215.44 62.4717 219.071 62.2791 219.887 63.4288C220.907 64.8659 220.367 64.6445 222.417 65.7117C224.056 66.5655 223.369 69.7994 222.82 71.3096L221.893 72.8531L224.439 71.9739C224.624 69.6957 226.583 68.6286 227.54 68.3798C230.09 68.7924 228.613 73.4602 227.555 75.7426Z" fill="#393939"/>
<path d="M231.665 237.627L239.157 238.076L239.244 236.704L231.752 236.255L231.665 237.627Z" fill="#191919"/>
<path d="M239.744 228.038C240.671 229.242 241.01 231.787 241.187 232.946C241.1 234.318 240.177 237.017 239.178 236.957C236.431 236.793 232.935 236.583 230.159 236.876C227.133 237.154 226.047 238.466 218.805 238.032C216.558 237.897 212.826 237.444 212.87 236.758C212.914 236.072 220.007 234.89 222.371 233.195C228.42 228.737 232.238 227.818 232.238 227.818C232.238 227.818 239.509 227.795 239.744 228.038Z" fill="#0F0D0D"/>
<path d="M245.929 136.957C245.929 136.957 246.441 139.862 246.952 143.978C247.464 148.093 243.115 161.409 241.58 171.819C240.045 182.229 239.278 184.408 239.534 186.829C239.789 189.25 243.115 199.418 242.859 205.955C242.348 212.491 241.069 229.922 241.069 229.922C241.069 229.922 239.022 230.891 235.441 231.133C231.859 231.375 229.301 228.47 229.301 228.47C229.301 228.47 226.487 189.492 225.975 185.376C225.72 182.713 223.417 164.314 222.65 149.546C222.394 144.704 222.906 133.567 222.906 131.631C222.906 130.662 245.929 136.957 245.929 136.957Z" fill="#201F1F"/>
<path d="M254.281 239.1L261.663 239.472L261.706 238.302L254.381 237.707L254.281 239.1Z" fill="#191919"/>
<path d="M261.71 228.539C262.716 229.893 263.254 232.327 263.523 233.544C263.747 234.986 262.677 237.819 261.895 237.906C259.104 237.852 255.776 237.931 252.94 238.101C250.059 238.497 247.314 240.784 241.662 239.729C239.451 239.316 235.52 238.582 235.653 237.907C236.3 235.928 242.777 236.671 244.942 234.742C250.723 229.988 254.519 228.83 254.519 228.83C254.519 228.83 261.509 228.268 261.71 228.539Z" fill="#191919"/>
<path d="M250.422 130.58C250.422 130.58 253.658 136.341 254.156 141.622C254.654 145.703 254.156 153.384 254.156 163.946C253.907 174.507 254.903 184.109 255.649 186.269C256.396 188.67 260.877 198.511 261.375 205.232C261.873 211.713 262.62 228.516 262.62 228.516C262.62 228.516 259.881 230.196 256.396 230.917C252.911 231.637 250.671 230.437 250.671 230.437C250.671 230.437 241.957 192.51 239.966 188.91C236.73 183.149 233.991 164.186 230.755 151.463C229.51 146.423 224.531 134.181 224.531 134.181L250.422 130.58Z" fill="#242323"/>
<path d="M223.571 89.7549L223.821 92.2753L228.825 87.9219L223.571 89.7549Z" fill="#B8D1FF"/>
<path d="M223.821 92.273L222.069 89.5234L220.818 90.8982L223.821 92.273Z" fill="#B8D1FF"/>
<path d="M224.822 90.6699H221.069L221.819 93.8777H223.571L224.822 90.6699Z" fill="#303030"/>
<path d="M223.57 93.8776C223.57 93.8776 222.57 102.355 223.32 108.771C224.071 115.187 225.822 135.121 225.822 135.121L223.32 139.933L220.568 135.35C220.568 135.35 220.318 115.645 220.318 108.542C220.318 101.439 221.569 93.6484 221.569 93.6484L223.57 93.8776Z" fill="#303030"/>
<path d="M233.077 83.7949C233.077 83.7949 227.072 92.731 224.821 99.1466C222.569 105.562 221.318 111.749 221.318 111.749L225.821 149.785C225.821 149.785 234.828 149.785 242.835 148.639C250.841 147.493 256.095 145.431 256.095 145.431C256.095 145.431 255.595 141.307 253.843 135.808C251.842 128.934 248.589 119.998 248.089 116.561C247.088 110.374 246.337 92.0436 243.335 88.3775C240.333 85.1697 233.077 83.7949 233.077 83.7949Z" fill="#242323"/>
<path d="M219.817 89.2949C219.817 89.2949 218.816 98.0019 219.316 102.584C219.817 107.167 221.318 112.895 221.318 112.895L225.822 150.015L219.817 147.723C219.817 147.723 213.562 106.251 213.312 101.21C213.062 96.3979 213.062 94.5649 213.812 93.6484C214.563 92.961 219.817 89.2949 219.817 89.2949Z" fill="#201F1F"/>
<path d="M239.833 87.9172C244.087 88.3755 243.086 108.31 241.084 115.871C239.333 123.433 225.822 149.783 225.822 149.783C225.822 149.783 220.318 114.267 221.319 112.663C222.069 111.289 224.321 106.477 225.822 102.811C228.825 95.4785 234.829 87.4589 239.833 87.9172Z" fill="#201F1F"/>
<path d="M222.069 89.5258L220.318 92.5045L219.317 89.984L220.818 87.9219L222.069 89.5258Z" fill="#F3F7FD"/>
<path d="M238.583 87.6897C242.836 88.1479 243.837 91.5849 243.086 95.7092C242.336 99.8336 234.329 121.143 233.329 121.83C232.078 122.518 224.822 121.372 224.322 119.539C223.821 117.706 229.075 98.2297 230.326 94.7927C231.577 91.5849 233.579 87.2314 238.583 87.6897Z" fill="#242323"/>
<path d="M175.033 127.328C175.033 127.328 173.532 128.016 171.53 128.703C171.28 128.703 171.03 128.932 170.779 128.932C170.529 128.932 170.279 128.932 170.029 128.932C169.779 128.932 169.779 129.161 169.529 129.161C169.278 129.161 169.028 129.161 168.778 129.161C168.528 129.161 168.278 129.391 168.278 129.391C167.777 129.62 167.527 129.161 167.277 129.161C166.776 129.391 166.526 129.391 166.526 129.391C166.026 129.391 164.024 128.016 163.774 127.787C163.524 127.557 161.772 126.183 161.772 125.954C161.772 125.724 162.773 125.495 163.774 125.954C164.775 126.641 166.276 127.328 166.026 127.099C165.776 126.87 165.025 125.724 165.025 125.037C165.025 124.579 165.275 124.579 165.776 124.35C166.026 124.35 166.776 125.037 166.776 125.037C166.776 125.037 167.027 124.35 167.277 124.35C167.777 124.35 168.278 125.037 168.528 125.037C168.778 125.266 168.778 124.35 169.028 124.35C170.029 124.35 170.779 126.412 171.78 125.954C172.281 126.412 174.282 126.183 175.033 127.328Z" fill="#F3AEAE"/>
<path d="M213.812 144.284C213.812 144.284 213.562 147.491 211.561 148.179C209.309 148.866 206.807 147.491 206.307 147.491C203.805 146.804 200.802 148.866 199.301 148.637C197.55 148.637 197.55 147.491 198.05 147.491C201.303 146.575 203.054 145.2 204.555 144.971C206.056 144.742 211.31 142.68 211.31 142.68L213.812 144.284Z" fill="#F3AEAE"/>
<path d="M214.063 146.574L216.815 142.908L211.061 139.242L208.559 142.908L214.063 146.574Z" fill="#E0F2FF"/>
<path d="M234.83 84.0231L232.077 81.9609L223.571 89.7514L226.073 92.7301L234.83 84.0231Z" fill="#F3F7FD"/>
<path d="M205.556 111.519C204.055 107.166 194.547 110.374 190.044 112.207C185.54 114.04 172.78 119.768 172.78 119.768L176.533 127.33C176.533 127.33 189.043 124.351 200.802 119.31C202.303 118.623 207.057 115.873 205.556 111.519Z" fill="#201F1F"/>
<path d="M232.577 116.334C236.58 118.625 230.325 128.249 227.323 131.686C224.321 135.352 215.314 145.892 215.314 145.892L208.308 141.538C208.308 141.538 215.063 129.853 222.819 119.542C223.57 118.396 228.574 114.043 232.577 116.334Z" fill="#242323"/>
<path d="M146.745 143.603C146.745 143.603 146.745 146.581 148.747 147.269C150.748 147.956 153.5 147.04 154.001 146.811C156.753 146.352 159.255 148.414 161.006 148.414C162.758 148.414 162.758 147.498 162.257 147.498C159.005 146.581 157.504 145.207 156.002 144.977C154.501 144.748 149.497 142.457 149.497 142.457L146.745 143.603Z" fill="#F3AEAE"/>
<path d="M147.246 145.669C147.246 145.669 148.247 147.731 149.748 148.189C150.999 148.876 152.75 148.189 154.001 148.418C155.252 148.876 155.002 148.189 155.002 147.96C155.002 147.731 153.501 147.272 152.75 147.043C152 146.814 149.998 144.523 147.246 145.669Z" fill="#F3AEAE"/>
<path d="M134.985 117.713C138.988 115.422 143.492 123.441 145.494 127.337C147.495 131.232 151.748 143.376 151.748 143.376L147.245 145.438C147.245 145.438 138.988 136.502 132.984 125.733C132.233 125.045 130.982 120.004 134.985 117.713Z" fill="#716CCD"/>
<path d="M150.749 139.705L152.75 143.6L146.495 146.579L144.244 142.684L150.749 139.705Z" fill="#BDCAF6"/>
<path d="M129.481 92.2758C124.978 92.505 123.727 95.942 124.227 99.8372C124.728 103.962 131.483 124.125 132.734 125.042C133.985 125.729 140.24 124.812 140.99 122.979C141.491 121.146 138.739 103.045 137.738 99.8372C136.487 96.6294 134.735 92.0467 129.481 92.2758Z" fill="#716CCD"/>
<path d="M119.974 72.5723C119.974 72.5723 116.471 84.0288 115.72 84.4871C112.968 85.8619 109.215 88.3823 106.963 91.1319C104.211 94.3397 105.462 110.379 105.462 116.107C105.462 121.835 100.458 129.855 98.2067 134.896C95.9549 140.166 112.968 150.477 113.469 150.477C114.219 150.706 121.475 146.811 122.976 145.207C124.477 143.603 126.729 129.626 127.73 126.189C128.48 122.752 132.483 110.608 132.984 109.691C135.486 104.651 134.985 100.068 134.985 98.6932C134.985 97.5476 135.486 95.7145 135.236 94.798C134.235 93.1941 127.98 89.7571 127.98 89.0697C127.98 88.3823 129.481 78.0715 129.481 78.0715L119.974 72.5723Z" fill="#F3AEAE"/>
<path d="M115.721 84.4863L125.479 92.9642L127.98 89.2981C127.98 89.2981 134.736 93.4224 135.236 95.0264C135.737 96.6303 135.486 99.8381 135.486 101.213C135.486 102.359 134.235 107.858 132.734 112.44C131.733 115.19 130.983 118.856 129.231 123.209C127.98 127.105 125.979 137.186 125.979 137.186C125.979 137.186 121.726 136.499 115.471 134.895C108.215 133.062 99.7084 131.229 99.4582 131C98.2073 129.625 103.962 118.627 103.962 117.252C103.962 116.106 104.712 94.7972 105.213 92.0476C105.713 89.298 107.965 87.9233 109.966 86.7776C112.468 85.4029 115.721 84.4863 115.721 84.4863Z" fill="#716CCD"/>
<path d="M108.465 87.6934C108.465 87.6934 116.221 87.6934 117.472 91.1303C120.975 100.525 119.974 102.587 125.979 105.566C135.736 110.148 126.98 122.75 126.98 124.583C126.98 128.937 126.229 132.832 126.229 132.832L99.9584 130.999C96.9561 130.999 103.962 119.084 103.962 116.106C104.462 102.816 104.962 93.1925 105.463 91.1303C106.213 89.2973 108.465 87.6934 108.465 87.6934Z" fill="#7873D7"/>
<path d="M128.981 82.6534L118.473 76.4668L116.722 82.6534L119.724 85.1737L128.981 82.6534Z" fill="#F3AEAE"/>
<path d="M133.484 62.7175C130.982 59.9679 122.475 56.9893 117.972 61.801C113.468 66.6128 114.469 71.8827 116.471 75.0906C117.972 77.611 119.473 79.2149 122.726 80.8188C123.476 81.2771 129.481 82.6519 130.732 82.4228C131.733 82.1936 132.984 76.6945 133.234 76.6945C133.484 76.6945 134.235 76.4653 134.235 76.0071C134.485 75.3197 133.984 71.1954 134.235 70.7371C134.485 70.508 136.737 65.9253 133.484 62.7175Z" fill="#F3AEAE"/>
<path d="M118.765 58.1745C120.999 56.159 131.867 59.1819 136.294 61.1973C140.722 57.1667 136.475 67.3771 133.658 68.1832C129.633 69.3924 124.803 66.2352 124.803 66.2352C124.803 66.2352 123.595 65.3618 121.905 67.5786C120.939 68.7877 122.066 71.2732 121.905 72.6839C121.824 73.2885 120.134 73.6915 119.651 73.2213L118.765 71.0717L118.035 77.5077C114.847 75.1026 115.446 72.3609 114.48 69.1365C114.138 60.4709 118.765 58.1745 118.765 58.1745Z" fill="#393939"/>
<path d="M121.955 69.8588C122.455 71.6918 122.455 73.754 121.204 73.9831C120.203 74.2123 118.952 72.8375 118.702 71.2336C118.202 69.4005 118.952 68.0258 119.953 67.7966C120.954 67.5675 121.454 68.0257 121.955 69.8588Z" fill="#F3AEAE"/>
<path d="M116.973 232.504H109.467V233.879H116.973V232.504Z" fill="#191919"/>
<path d="M109.716 223.566C108.715 224.712 108.215 227.232 107.965 228.378C107.965 229.753 108.715 232.502 109.716 232.502C112.468 232.502 115.971 232.502 118.723 232.96C121.726 233.419 122.726 234.794 129.982 234.794C132.234 234.794 135.987 234.564 135.987 233.877C135.987 233.19 128.981 231.586 126.729 229.753C120.975 224.941 117.222 223.795 117.222 223.795C117.222 223.795 109.966 223.337 109.716 223.566Z" fill="#0F0D0D"/>
<path d="M103.961 137.641C103.961 137.641 103.461 140.391 102.961 144.286C102.46 148.181 106.714 160.784 108.215 170.636C109.716 180.489 110.466 182.551 110.216 184.842C109.966 187.134 106.714 196.757 106.964 202.944C107.464 209.13 108.715 225.628 108.715 225.628C108.715 225.628 110.717 226.544 114.219 226.773C117.722 227.002 120.224 224.253 120.224 224.253C120.224 224.253 122.976 187.363 123.477 183.468C123.727 180.947 125.979 163.533 126.729 149.556C126.979 144.974 126.479 134.434 126.479 132.601C126.479 131.455 103.961 137.641 103.961 137.641Z" fill="#242323"/>
<path d="M106.964 236.165L99.4585 235.707L99.7087 234.332L106.964 234.79V236.165Z" fill="#0F0D0D"/>
<path d="M100.459 225.172C99.4584 226.317 98.4577 228.838 98.4577 229.984C98.2075 231.358 98.958 234.337 99.9588 234.337C102.711 234.566 105.964 234.795 108.966 235.254C111.718 235.712 112.719 237.316 120.225 237.774C122.476 238.003 126.229 238.003 126.229 237.087C126.229 236.17 119.224 234.337 117.222 232.275C111.968 227.005 108.215 225.63 108.215 225.63C108.215 225.63 100.709 224.943 100.459 225.172Z" fill="#0F0D0D"/>
<path d="M99.2078 131.229C99.2078 131.229 96.7059 137.186 96.9561 141.998C96.9561 145.893 98.2071 153.225 99.7082 163.078C101.209 172.93 101.209 182.096 100.959 184.616C100.709 186.907 97.2063 196.76 97.7067 203.176C98.207 209.362 99.9584 224.943 99.9584 224.943C99.9584 224.943 102.21 226.776 105.713 227.005C109.216 227.234 111.467 225.86 111.467 225.86C111.467 225.86 115.721 188.969 117.222 185.303C119.724 179.575 120.224 161.245 121.976 148.872C122.726 143.831 125.979 132.832 125.979 132.832L99.2078 131.229Z" fill="#201F1F"/>
<path d="M125.479 90.2119V92.7324L120.225 88.3789L125.479 90.2119Z" fill="#B8D1FF"/>
<path d="M125.479 92.7359L126.98 89.9863L128.231 91.3611L125.479 92.7359Z" fill="#B8D1FF"/>
<path d="M124.228 91.36L127.98 91.1309L127.48 94.1096L125.479 94.3387L124.228 91.36Z" fill="#303030"/>
<path d="M113.969 84.7126L116.721 82.6504L125.478 90.2117L122.976 93.1904L113.969 84.7126Z" fill="#BDCAF6"/>
<path d="M126.979 89.9834L128.73 92.9622L129.731 90.4417L128.23 88.1504L126.979 89.9834Z" fill="#BDCAF6"/>
<path d="M99.2074 131.002C99.2074 131.002 106.963 131.46 114.469 131.689C121.975 131.919 126.729 132.148 126.729 132.148V134.897C126.729 134.897 118.973 135.126 110.967 134.668C102.96 134.21 98.707 133.522 98.707 133.522L99.2074 131.002Z" fill="#755759"/>
<path d="M123.977 135.354H125.729C126.229 135.354 126.729 134.896 126.729 134.438V133.063C126.729 132.605 126.229 132.146 125.729 132.146H123.977C123.477 132.146 122.977 132.605 122.977 133.063V134.438C122.977 134.896 123.477 135.354 123.977 135.354Z" fill="#602F25"/>
<path d="M125.478 94.3345C125.478 94.3345 126.729 102.812 126.229 109.228C125.728 115.644 125.228 135.578 125.228 135.578L127.98 140.161L130.482 135.578C130.482 135.578 129.231 115.873 129.231 108.999C128.981 101.896 127.73 94.1055 127.73 94.1055L125.478 94.3345Z" fill="#303030"/>
<path d="M167.511 128.94C167.761 128.481 167.761 128.023 167.26 127.794L164.258 125.961C163.758 125.732 163.257 125.732 163.007 126.19C162.757 126.648 162.757 127.107 163.257 127.336L166.26 129.169C166.76 129.398 167.26 129.398 167.511 128.94Z" fill="#F3AEAE"/>
<path d="M168.511 127.791C168.761 127.333 168.761 126.875 168.26 126.646L165.258 124.813C164.758 124.583 164.257 124.583 164.007 125.042C163.757 125.5 163.757 125.958 164.257 126.187L167.26 128.02C167.76 128.25 168.26 128.25 168.511 127.791Z" fill="#F3AEAE"/>
<path d="M169.512 126.649C169.762 126.19 169.762 125.732 169.261 125.503L166.259 123.67C165.759 123.441 165.258 123.441 165.008 123.899C164.758 124.357 164.758 124.816 165.258 125.045L168.261 126.878C168.761 127.107 169.261 127.107 169.512 126.649Z" fill="#F3AEAE"/>
<path d="M170.263 125.502C170.513 125.044 170.513 124.586 170.013 124.357L167.011 122.524C166.51 122.294 166.01 122.294 165.76 122.753C165.509 123.211 165.509 123.669 166.01 123.898L169.012 125.731C169.512 125.96 170.013 125.96 170.263 125.502Z" fill="#F3AEAE"/>
<path d="M159.254 119.771C159.254 119.771 165.259 120.688 166.259 121.146C167.26 121.605 170.513 124.583 170.513 124.583C170.513 124.583 168.511 125.042 168.011 125.958C167.51 126.875 166.51 129.166 166.51 129.166C166.51 129.166 162.757 128.02 161.256 126.875C159.754 125.729 158.503 124.583 158.503 124.583L159.254 119.771Z" fill="#F3AEAE"/>
<path d="M107.965 89.9833C104.462 92.5038 105.713 95.9407 108.465 98.9194C111.468 101.898 129.982 114.73 131.483 114.73C132.985 114.73 137.488 110.376 136.737 108.772C135.987 106.939 121.976 93.8786 119.224 91.8164C116.472 89.5251 112.218 87.0046 107.965 89.9833Z" fill="#716CCD"/>
<path d="M128.73 109.232C126.228 113.127 135.235 117.48 139.989 119.084C144.743 120.688 158.754 125.271 158.754 125.271L161.005 120.001C161.005 120.001 150.497 114.043 138.238 108.315C135.235 106.94 131.232 105.107 128.73 109.232Z" fill="#716CCD"/>
<path d="M162.38 119.972L157.877 117.973L154.603 124.158L159.105 126.157L162.38 119.972Z" fill="#BDCAF6"/>
<path d="M132.78 148.651V238.012H139.285V148.651H132.78Z" fill="url(#paint24_linear)"/>
<path d="M208.195 148.748V238.109H214.7V148.748H208.195Z" fill="url(#paint25_linear)"/>
<path d="M213.59 149.588H133.778V231.617H213.59V149.588Z" fill="url(#paint26_linear)"/>
<path d="M206 217.998H141V164.998H206V217.998Z" fill="#868686" fill-opacity="0.7"/>
<path d="M222.578 148.604H124.915V152.398H222.578V148.604Z" fill="#47484A"/>
<rect x="10" y="235.998" width="308" height="7" rx="3.5" fill="#686D94"/>
<defs>
<linearGradient id="paint0_linear" x1="253.972" y1="189.948" x2="308.825" y2="189.948" gradientUnits="userSpaceOnUse">
<stop stop-color="#07154B"/>
<stop offset="0.2641" stop-color="#0C174E"/>
<stop offset="0.5843" stop-color="#1B1D57"/>
<stop offset="0.9324" stop-color="#332767"/>
<stop offset="1" stop-color="#39296A"/>
</linearGradient>
<linearGradient id="paint1_linear" x1="277.313" y1="196.533" x2="285.488" y2="196.533" gradientUnits="userSpaceOnUse">
<stop stop-color="#07154B"/>
<stop offset="0.2641" stop-color="#0C174E"/>
<stop offset="0.5843" stop-color="#1B1D57"/>
<stop offset="0.9324" stop-color="#332767"/>
<stop offset="1" stop-color="#39296A"/>
</linearGradient>
<linearGradient id="paint2_linear" x1="278.333" y1="205.274" x2="284.429" y2="205.274" gradientUnits="userSpaceOnUse">
<stop stop-color="#07154B"/>
<stop offset="0.2641" stop-color="#0C174E"/>
<stop offset="0.5843" stop-color="#1B1D57"/>
<stop offset="0.9324" stop-color="#332767"/>
<stop offset="1" stop-color="#39296A"/>
</linearGradient>
<linearGradient id="paint3_linear" x1="279.418" y1="219.311" x2="283.484" y2="219.311" gradientUnits="userSpaceOnUse">
<stop stop-color="#07154B"/>
<stop offset="0.2641" stop-color="#0C174E"/>
<stop offset="0.5843" stop-color="#1B1D57"/>
<stop offset="0.9324" stop-color="#332767"/>
<stop offset="1" stop-color="#39296A"/>
</linearGradient>
<linearGradient id="paint4_linear" x1="273.314" y1="193.746" x2="289.595" y2="193.746" gradientUnits="userSpaceOnUse">
<stop stop-color="#07154B"/>
<stop offset="0.2641" stop-color="#0C174E"/>
<stop offset="0.5843" stop-color="#1B1D57"/>
<stop offset="0.9324" stop-color="#332767"/>
<stop offset="1" stop-color="#39296A"/>
</linearGradient>
<linearGradient id="paint5_linear" x1="258.079" y1="229.547" x2="280.435" y2="229.547" gradientUnits="userSpaceOnUse">
<stop stop-color="#07154B"/>
<stop offset="0.2641" stop-color="#0C174E"/>
<stop offset="0.5843" stop-color="#1B1D57"/>
<stop offset="0.9324" stop-color="#332767"/>
<stop offset="1" stop-color="#39296A"/>
</linearGradient>
<linearGradient id="paint6_linear" x1="258.967" y1="235.568" x2="265.136" y2="235.568" gradientUnits="userSpaceOnUse">
<stop stop-color="#07154B"/>
<stop offset="0.2641" stop-color="#0C174E"/>
<stop offset="0.5843" stop-color="#1B1D57"/>
<stop offset="0.9324" stop-color="#332767"/>
<stop offset="1" stop-color="#39296A"/>
</linearGradient>
<linearGradient id="paint7_linear" x1="282.473" y1="229.547" x2="305.846" y2="229.547" gradientUnits="userSpaceOnUse">
<stop stop-color="#07154B"/>
<stop offset="0.2641" stop-color="#0C174E"/>
<stop offset="0.5843" stop-color="#1B1D57"/>
<stop offset="0.9324" stop-color="#332767"/>
<stop offset="1" stop-color="#39296A"/>
</linearGradient>
<linearGradient id="paint8_linear" x1="298.672" y1="235.568" x2="304.84" y2="235.568" gradientUnits="userSpaceOnUse">
<stop stop-color="#07154B"/>
<stop offset="0.2641" stop-color="#0C174E"/>
<stop offset="0.5843" stop-color="#1B1D57"/>
<stop offset="0.9324" stop-color="#332767"/>
<stop offset="1" stop-color="#39296A"/>
</linearGradient>
<linearGradient id="paint9_linear" x1="268.879" y1="169.152" x2="266.627" y2="169.152" gradientUnits="userSpaceOnUse">
<stop stop-color="#07154B"/>
<stop offset="0.2641" stop-color="#0C174E"/>
<stop offset="0.5843" stop-color="#1B1D57"/>
<stop offset="0.9324" stop-color="#332767"/>
<stop offset="1" stop-color="#39296A"/>
</linearGradient>
<linearGradient id="paint10_linear" x1="296.401" y1="169.152" x2="294.149" y2="169.152" gradientUnits="userSpaceOnUse">
<stop stop-color="#07154B"/>
<stop offset="0.2641" stop-color="#0C174E"/>
<stop offset="0.5843" stop-color="#1B1D57"/>
<stop offset="0.9324" stop-color="#332767"/>
<stop offset="1" stop-color="#39296A"/>
</linearGradient>
<linearGradient id="paint11_linear" x1="313.481" y1="153.931" x2="301.783" y2="153.212" gradientUnits="userSpaceOnUse">
<stop stop-color="#07154B"/>
<stop offset="0.2641" stop-color="#0C174E"/>
<stop offset="0.5843" stop-color="#1B1D57"/>
<stop offset="0.9324" stop-color="#332767"/>
<stop offset="1" stop-color="#39296A"/>
</linearGradient>
<linearGradient id="paint12_linear" x1="91.03" y1="189.948" x2="31.235" y2="189.948" gradientUnits="userSpaceOnUse">
<stop stop-color="#07154B"/>
<stop offset="0.2641" stop-color="#0C174E"/>
<stop offset="0.5843" stop-color="#1B1D57"/>
<stop offset="0.9324" stop-color="#332767"/>
<stop offset="1" stop-color="#39296A"/>
</linearGradient>
<linearGradient id="paint13_linear" x1="65.5868" y1="196.533" x2="56.6753" y2="196.533" gradientUnits="userSpaceOnUse">
<stop stop-color="#07154B"/>
<stop offset="0.2641" stop-color="#0C174E"/>
<stop offset="0.5843" stop-color="#1B1D57"/>
<stop offset="0.9324" stop-color="#332767"/>
<stop offset="1" stop-color="#39296A"/>
</linearGradient>
<linearGradient id="paint14_linear" x1="64.4741" y1="205.274" x2="57.8293" y2="205.274" gradientUnits="userSpaceOnUse">
<stop stop-color="#07154B"/>
<stop offset="0.2641" stop-color="#0C174E"/>
<stop offset="0.5843" stop-color="#1B1D57"/>
<stop offset="0.9324" stop-color="#332767"/>
<stop offset="1" stop-color="#39296A"/>
</linearGradient>
<linearGradient id="paint15_linear" x1="63.2923" y1="219.311" x2="58.8597" y2="219.311" gradientUnits="userSpaceOnUse">
<stop stop-color="#07154B"/>
<stop offset="0.2641" stop-color="#0C174E"/>
<stop offset="0.5843" stop-color="#1B1D57"/>
<stop offset="0.9324" stop-color="#332767"/>
<stop offset="1" stop-color="#39296A"/>
</linearGradient>
<linearGradient id="paint16_linear" x1="69.9459" y1="193.746" x2="52.1983" y2="193.746" gradientUnits="userSpaceOnUse">
<stop stop-color="#07154B"/>
<stop offset="0.2641" stop-color="#0C174E"/>
<stop offset="0.5843" stop-color="#1B1D57"/>
<stop offset="0.9324" stop-color="#332767"/>
<stop offset="1" stop-color="#39296A"/>
</linearGradient>
<linearGradient id="paint17_linear" x1="86.5536" y1="229.547" x2="62.183" y2="229.547" gradientUnits="userSpaceOnUse">
<stop stop-color="#07154B"/>
<stop offset="0.2641" stop-color="#0C174E"/>
<stop offset="0.5843" stop-color="#1B1D57"/>
<stop offset="0.9324" stop-color="#332767"/>
<stop offset="1" stop-color="#39296A"/>
</linearGradient>
<linearGradient id="paint18_linear" x1="85.5853" y1="235.568" x2="78.861" y2="235.568" gradientUnits="userSpaceOnUse">
<stop stop-color="#07154B"/>
<stop offset="0.2641" stop-color="#0C174E"/>
<stop offset="0.5843" stop-color="#1B1D57"/>
<stop offset="0.9324" stop-color="#332767"/>
<stop offset="1" stop-color="#39296A"/>
</linearGradient>
<linearGradient id="paint19_linear" x1="59.9614" y1="229.547" x2="34.4833" y2="229.547" gradientUnits="userSpaceOnUse">
<stop stop-color="#07154B"/>
<stop offset="0.2641" stop-color="#0C174E"/>
<stop offset="0.5843" stop-color="#1B1D57"/>
<stop offset="0.9324" stop-color="#332767"/>
<stop offset="1" stop-color="#39296A"/>
</linearGradient>
<linearGradient id="paint20_linear" x1="42.3034" y1="235.568" x2="35.5791" y2="235.568" gradientUnits="userSpaceOnUse">
<stop stop-color="#07154B"/>
<stop offset="0.2641" stop-color="#0C174E"/>
<stop offset="0.5843" stop-color="#1B1D57"/>
<stop offset="0.9324" stop-color="#332767"/>
<stop offset="1" stop-color="#39296A"/>
</linearGradient>
<linearGradient id="paint21_linear" x1="74.7801" y1="169.152" x2="77.2351" y2="169.152" gradientUnits="userSpaceOnUse">
<stop stop-color="#07154B"/>
<stop offset="0.2641" stop-color="#0C174E"/>
<stop offset="0.5843" stop-color="#1B1D57"/>
<stop offset="0.9324" stop-color="#332767"/>
<stop offset="1" stop-color="#39296A"/>
</linearGradient>
<linearGradient id="paint22_linear" x1="44.7791" y1="169.152" x2="47.2341" y2="169.152" gradientUnits="userSpaceOnUse">
<stop stop-color="#07154B"/>
<stop offset="0.2641" stop-color="#0C174E"/>
<stop offset="0.5843" stop-color="#1B1D57"/>
<stop offset="0.9324" stop-color="#332767"/>
<stop offset="1" stop-color="#39296A"/>
</linearGradient>
<linearGradient id="paint23_linear" x1="26.1597" y1="153.931" x2="38.9023" y2="153.077" gradientUnits="userSpaceOnUse">
<stop stop-color="#07154B"/>
<stop offset="0.2641" stop-color="#0C174E"/>
<stop offset="0.5843" stop-color="#1B1D57"/>
<stop offset="0.9324" stop-color="#332767"/>
<stop offset="1" stop-color="#39296A"/>
</linearGradient>
<linearGradient id="paint24_linear" x1="136.045" y1="148.68" x2="136.045" y2="238.054" gradientUnits="userSpaceOnUse">
<stop stop-color="#07154B"/>
<stop offset="0.2641" stop-color="#0C174E"/>
<stop offset="0.5843" stop-color="#1B1D57"/>
<stop offset="0.9324" stop-color="#332767"/>
<stop offset="1" stop-color="#39296A"/>
</linearGradient>
<linearGradient id="paint25_linear" x1="211.46" y1="148.778" x2="211.46" y2="238.152" gradientUnits="userSpaceOnUse">
<stop stop-color="#07154B"/>
<stop offset="0.2641" stop-color="#0C174E"/>
<stop offset="0.5843" stop-color="#1B1D57"/>
<stop offset="0.9324" stop-color="#332767"/>
<stop offset="1" stop-color="#39296A"/>
</linearGradient>
<linearGradient id="paint26_linear" x1="213.564" y1="190.754" x2="133.74" y2="190.754" gradientUnits="userSpaceOnUse">
<stop stop-color="#07154B"/>
<stop offset="0.2641" stop-color="#0C174E"/>
<stop offset="0.5843" stop-color="#1B1D57"/>
<stop offset="0.9324" stop-color="#332767"/>
<stop offset="1" stop-color="#39296A"/>
</linearGradient>
</defs>
</svg>
