<svg width="345" height="240" viewBox="0 0 345 240" fill="none" xmlns="http://www.w3.org/2000/svg">
<path d="M17.5409 205.505C22.3952 250.89 74.6093 242.998 111.203 229.43C122.554 225.221 134.426 222.14 146.382 220.24C160.585 217.983 182.658 213.553 213.679 205.505C278.363 188.723 335.952 27.6942 240.387 4.51884C144.822 -18.6565 114.358 52.0682 94.7442 108.408C75.1304 164.748 10.4466 139.175 17.5409 205.505Z" fill="#C2D8FC" fill-opacity="0.7"/>
<g opacity="0.9">
<path d="M14.9596 139.257C15.7408 142.74 13.8508 150.334 0.0408053 152.842C0.524639 149.184 4.18576 141.347 14.9596 139.257Z" fill="#5A92FF"/>
<path d="M88.0071 187.336C81.8559 176.85 64.443 152.693 44.0019 139.947C18.4505 124.014 25.5481 98.2765 31.2262 91.74" stroke="black"/>
<path d="M43.2953 139.537C39.8648 137.086 28.6033 133.655 15.2598 139.537M245.222 167.726C255.041 164.73 276.168 149.26 282.13 111.349" stroke="black"/>
<path d="M29.5988 94.156C28.0609 91.024 28.1792 83.1257 40.9549 76.5892C41.3099 80.266 39.5355 88.9268 29.5988 94.156Z" fill="#5A92FF"/>
<path d="M281.564 112.18C280.419 109.847 280.507 103.963 290.025 99.0934C290.289 101.833 288.967 108.285 281.564 112.18Z" fill="#00AE87"/>
<path d="M280.143 94.2698C280.725 96.865 279.317 102.522 269.029 104.39C269.389 101.666 272.117 95.8271 280.143 94.2698Z" fill="#00AE87"/>
<path d="M247.35 136.678C247.35 129.052 251.892 111.758 270.062 103.587" stroke="black"/>
<path d="M257.641 112.575C260.48 108.081 264.242 96.969 256.576 88.4716" stroke="black"/>
<path d="M256.808 89.1126C254.565 88.3953 251.013 84.1628 254.752 72.9721C256.621 74.6937 259.65 80.3321 256.808 89.1126Z" fill="#00AE87"/>
<path d="M67.498 172.411C94.9875 198.964 113.118 193.042 118.436 187.715C121.709 181.978 94.3015 125.84 51.349 114.777C8.39655 103.713 -1.94719 131.725 10.8486 139.868C17.4777 144.087 56.6502 158.55 67.498 172.411Z" fill="#123B8E"/>
<path d="M110.889 182.656C105.404 166.326 79.4054 133.34 19.2852 132.033" stroke="#041335"/>
<path d="M54.4706 159.195C52.1768 189.194 86.011 193.433 103.215 191.802C108.95 190.987 119.846 182.998 117.552 157.565C115.258 132.132 89.2882 105.666 76.5901 95.6121C58.567 84.879 25.8797 70.7494 39.3151 100.096C56.1093 136.778 57.3379 121.698 54.4706 159.195Z" fill="#5C88DF"/>
<path d="M45.9629 98.957C59.8529 107.536 90.7378 136.869 103.157 185.565" stroke="#4162B4"/>
<path d="M281.529 196.544C278.393 200.277 250.602 199.262 237.098 198.288L236.376 199.476C239.514 187.922 246.104 162.783 247.358 154.656C248.926 144.497 269.927 154.541 271.758 139.935C273.589 125.329 274.404 121.759 279.575 120.834C284.746 119.909 288.14 137.959 297.936 120.06C307.733 102.162 319.72 104.293 323.532 104.711C327.344 105.128 330.201 105.78 311.399 128.236C292.597 150.692 305.593 143.138 309.787 160.318C313.98 177.499 288.562 175.612 283.321 174.869C278.081 174.126 285.45 191.879 281.529 196.544Z" fill="#3160BB"/>
<path fill-rule="evenodd" clip-rule="evenodd" d="M281.646 153.633C286.357 136.648 300.649 127.403 307.179 124.917L306.823 123.982C300.101 126.541 285.505 135.98 280.683 153.366C279.194 158.732 277.991 162.438 276.88 165.036C275.769 167.635 274.769 169.078 273.711 169.963C272.661 170.842 271.507 171.212 269.971 171.566C269.67 171.635 269.354 171.704 269.023 171.776C267.908 172.019 266.62 172.299 265.125 172.771L264.372 156.34L263.373 156.386L264.139 173.101C260.251 174.484 257.413 177.609 255.448 180.895C253.477 184.193 252.351 187.71 251.916 189.957L252.898 190.147C253.314 188 254.402 184.595 256.307 181.408C258.214 178.218 260.905 175.302 264.502 174.034C266.347 173.383 267.873 173.051 269.215 172.758C269.553 172.684 269.879 172.613 270.196 172.54C271.763 172.179 273.113 171.768 274.353 170.73C275.586 169.698 276.662 168.089 277.8 165.429C278.938 162.767 280.155 159.008 281.646 153.633Z" fill="#2F4CAC"/>
<path d="M227.849 139.265C207.389 178.424 228.695 191.321 241.906 192.875C244.406 193.32 246.852 191.895 247.763 191.127C257.603 174.811 248.219 158.171 242.297 151.891L238.783 153.056V148.977L233.316 144.121L227.849 139.265Z" fill="#6A91E0"/>
<path fill-rule="evenodd" clip-rule="evenodd" d="M229.194 157.809C229.62 160.351 230.145 162.956 230.785 165.547C233.155 175.135 237.126 184.638 243.556 190.036L244.199 189.27C242.806 188.101 241.529 186.725 240.358 185.187L244.75 168.575L243.783 168.32L239.599 184.146C237.457 181.078 235.697 177.452 234.263 173.566L238.717 157.688L237.754 157.418L233.683 171.93C232.949 169.772 232.31 167.548 231.756 165.307C231.14 162.815 230.632 160.309 230.217 157.859L233.27 146.791L232.306 146.525L229.838 155.471C228.953 149.479 228.619 143.977 228.619 140.044H227.619C227.619 144.496 228.041 150.922 229.194 157.807L229.193 157.809L229.194 157.809Z" fill="#4773CC"/>
<rect x="60.4609" y="25.9663" width="228.777" height="125.666" fill="#4886FF"/>
<rect x="63.8809" y="36.8142" width="221.456" height="110.728" fill="#F6F7FB"/>
<ellipse cx="67.651" cy="31.4099" rx="2.28777" ry="2.17451" fill="#D63838"/>
<ellipse cx="74.9714" cy="31.4094" rx="2.28777" ry="2.17451" fill="#DFDFDF"/>
<ellipse cx="82.2917" cy="31.4094" rx="2.28777" ry="2.17451" fill="#3BD638"/>
<rect x="64.1211" y="36.3286" width="60.397" height="110.728" fill="#323659"/>
<g filter="url(#filter0_d)">
<rect x="131.84" y="47.3105" width="67.7179" height="89.6805" rx="2" fill="white"/>
</g>
<g filter="url(#filter1_d)">
<rect x="203.217" y="47.3105" width="76.869" height="23.7928" rx="2" fill="white"/>
</g>
<circle cx="241.653" cy="53.7158" r="3.66043" fill="#CDE7FF"/>
<circle cx="139.16" cy="55.5462" r="3.66043" fill="#FFCDD6"/>
<rect x="226.094" y="59.2063" width="31.1136" height="1.83021" rx="0.915107" fill="#1978DC" fill-opacity="0.38"/>
<rect x="144.65" y="52.8003" width="31.1136" height="1.83021" rx="0.915107" fill="#B1D7FF"/>
<circle cx="73.7072" cy="48.5216" r="3.58023" fill="#FFCDD6"/>
<rect x="79.0762" y="47.0898" width="31.148" height="1.43209" rx="0.716046" fill="white" fill-opacity="0.25"/>
<rect x="79.0762" y="48.8794" width="9.3086" height="1.43209" rx="0.716046" fill="white" fill-opacity="0.25"/>
<rect x="64.1211" y="69.2725" width="60.397" height="11.8964" fill="#4886FF"/>
<circle cx="73.7072" cy="61.7687" r="3.58023" fill="#FFCDD6"/>
<rect x="79.0762" y="60.3357" width="31.148" height="1.43209" rx="0.716046" fill="white" fill-opacity="0.25"/>
<rect x="79.0762" y="62.1267" width="9.3086" height="1.43209" rx="0.716046" fill="white" fill-opacity="0.25"/>
<circle cx="73.7072" cy="75.015" r="3.58023" fill="white"/>
<rect x="79.0762" y="73.5831" width="31.148" height="1.43209" rx="0.716046" fill="white"/>
<rect x="79.0762" y="75.3737" width="9.3086" height="1.43209" rx="0.716046" fill="white"/>
<circle cx="73.7072" cy="88.2622" r="3.58023" fill="#FFCDD6"/>
<rect x="79.0762" y="86.8309" width="31.148" height="1.43209" rx="0.716046" fill="white" fill-opacity="0.25"/>
<rect x="79.0762" y="88.6205" width="9.3086" height="1.43209" rx="0.716046" fill="white" fill-opacity="0.25"/>
<rect x="144.65" y="55.5459" width="13.7266" height="1.83021" rx="0.915107" fill="#B1D7FF"/>
<rect x="136.414" y="61.9519" width="17.387" height="0.915107" rx="0.457553" fill="#B1D7FF"/>
<rect x="136.414" y="64.6968" width="15.5568" height="0.915107" rx="0.457553" fill="#B1D7FF"/>
<rect x="135.5" y="66.5281" width="12.8115" height="1.83021" rx="0.915107" fill="#B1D7FF"/>
<rect x="135.5" y="69.2725" width="8.23596" height="1.83021" rx="0.915107" fill="#B1D7FF"/>
<path d="M135.5 73.8488V131.5H194.067" stroke="#B1D7FF"/>
<rect x="216.029" y="63.7822" width="51.246" height="1.83021" rx="0.915107" fill="#1978DC" fill-opacity="0.38"/>
<path d="M139.227 127.824L154.264 118.694L165.541 99.719L188.634 73.0463" stroke="#FFB800" stroke-width="2"/>
<circle cx="139.226" cy="127.645" r="1.07407" fill="#FFB800"/>
<circle cx="165.004" cy="100.435" r="1.07407" fill="#FFB800"/>
<circle cx="188.633" cy="72.8673" r="1.07407" fill="#FFB800"/>
<rect x="19.6328" y="191.093" width="294.095" height="9.64246" rx="4.82123" fill="#F7A333"/>
<path d="M70.738 191.084H79.8006H88.8636C91.4725 178.863 94.7954 146.841 90.5113 136.296C85.1561 123.114 83.92 111.168 56.7321 110.344C33.887 109.652 56.5948 165.132 70.738 191.084Z" fill="#2F4CAC"/>
<path fill-rule="evenodd" clip-rule="evenodd" d="M79.3723 183.796C78.6784 177.286 77.7121 169.454 76.5098 161.514C76.401 159.607 76.5568 157.015 77.1717 154.46C78.0262 150.91 79.7254 147.6 82.6461 146.216L82.2181 145.312C78.8774 146.895 77.0751 150.588 76.1995 154.226C76.0055 155.032 75.855 155.843 75.7428 156.639C75.5731 155.602 75.3996 154.566 75.2222 153.536C74.1854 147.516 73.0169 141.664 71.7325 136.525L71.7708 136.509C71.7422 136.44 71.7102 136.369 71.6747 136.294C71.5346 135.738 71.3932 135.19 71.2504 134.651C69.7787 129.097 68.1521 124.477 66.3806 121.609L65.5298 122.134C67.1266 124.719 68.6412 128.881 70.0429 134.012C68.3684 132.208 65.5112 130.114 61.1545 128.807L60.8672 129.765C66.998 131.604 69.9132 135.021 70.7304 136.64C72.0191 141.776 73.1936 147.649 74.2367 153.706C74.6878 156.326 75.1142 158.979 75.5144 161.62C75.5601 162.385 75.6469 163.054 75.7651 163.586L75.8065 163.577C76.8132 170.422 77.641 177.114 78.266 182.862C77.7501 180.669 77.0892 178.283 76.2651 175.841C74.2806 169.96 71.3358 163.71 67.1532 159.025L66.4072 159.691C70.4634 164.234 73.3543 170.342 75.3176 176.16C77.2794 181.974 78.3015 187.458 78.641 190.717L79.048 190.675L79.0511 190.71L79.5492 190.665L80.0489 190.674C80.1174 186.978 80.4255 181.483 81.1244 177.004C81.4747 174.758 81.9183 172.801 82.4645 171.459C82.739 170.783 83.0231 170.305 83.302 170.021C83.5688 169.749 83.7843 169.695 83.9822 169.734L84.1784 168.754C83.5524 168.628 83.0128 168.888 82.5881 169.321C82.1757 169.741 81.8322 170.359 81.5382 171.082C80.9472 172.535 80.4897 174.584 80.1363 176.849C79.795 179.037 79.5462 181.458 79.3723 183.796Z" fill="#293159"/>
<path d="M313.739 152.401C299.898 166.627 299.321 184.601 300.763 191.81H274.81C274.81 171.145 282.981 160.572 291.632 151.44C300.282 142.309 331.041 134.619 313.739 152.401Z" fill="#F7A333"/>
<path d="M285.625 188.754C285.625 179.944 289.95 159.15 307.252 146.462" stroke="white"/>
</g>
<path d="M215.444 106.426C212.305 102.719 204.759 106.628 201.436 109.355L203.445 114.808C205.624 112.298 212.079 114.388 212.078 112.525C212.078 111.09 211.026 111.582 209.208 111.377C209.735 110.102 212.781 108.566 214.892 107.855C215.51 107.647 215.865 106.924 215.444 106.426Z" fill="#EE9F86"/>
<path d="M123.054 146.512C127.807 147.515 131.37 139.8 132.322 135.608L127.391 132.533C127.209 135.852 120.829 138.16 121.972 139.631C122.852 140.764 123.381 139.73 124.943 138.777C125.308 140.107 123.844 143.189 122.614 145.045C122.253 145.589 122.415 146.377 123.054 146.512Z" fill="#EE9F86"/>
<path d="M176.96 84.6843C177.663 83.5186 177.253 71.5697 176.96 65.741H172.568L167.59 84.6843H176.96Z" fill="#393939"/>
<path d="M178.815 71.2172C178.96 70.7824 179.004 70.289 179.001 69.7875C178.987 67.9512 178.284 66.1309 177.3 64.5804C168.766 60.0028 165.032 67.5238 164.231 71.8566L165.291 84.6429L172.178 85.1338L171.896 81.3191C172.743 80.4714 173.87 80.8246 176.201 81.3191C178.532 81.8136 178.108 79.6943 178.179 79.3411C178.221 79.1322 178.548 78.8332 178.83 78.6154C178.965 78.5112 178.985 78.3103 178.864 78.1898C178.759 78.0844 178.759 77.9134 178.864 77.8079L179.026 77.6461C179.192 77.4807 179.22 77.2227 179.094 77.0254L178.972 76.8328C178.879 76.6864 178.893 76.4962 179.007 76.3653L179.226 76.113C179.764 75.4956 179.757 74.5908 179.351 73.8802C178.888 73.0694 178.529 72.0757 178.815 71.2172Z" fill="#EF937E"/>
<mask id="mask0" mask-type="alpha" maskUnits="userSpaceOnUse" x="156" y="60" width="30" height="30">
<path d="M178.815 71.2172C178.96 70.7824 179.004 70.289 179.001 69.7875C178.987 67.9512 178.284 66.1309 177.3 64.5804C168.766 60.0028 165.032 67.5238 164.231 71.8566L165.291 84.6429L172.178 85.1338L171.896 81.3191C172.743 80.4714 173.87 80.8246 176.201 81.3191C178.532 81.8136 178.108 79.6943 178.179 79.3411C178.221 79.1322 178.548 78.8332 178.83 78.6154C178.965 78.5112 178.985 78.3103 178.864 78.1898C178.759 78.0844 178.759 77.9134 178.864 77.8079L179.026 77.6461C179.192 77.4807 179.22 77.2227 179.094 77.0254L178.972 76.8328C178.879 76.6864 178.893 76.4962 179.007 76.3653L179.226 76.113C179.764 75.4956 179.757 74.5908 179.351 73.8802C178.888 73.0694 178.529 72.0757 178.815 71.2172Z" fill="#EE9F86"/>
</mask>
<g mask="url(#mask0)">
<path d="M169.887 79.2308C170.494 80.0306 172.28 80.6333 173.384 81.016C173.988 81.7552 174.929 83.2532 173.858 83.3319C172.787 83.4105 170.956 80.7514 169.887 79.2308Z" fill="#E99494"/>
</g>
<path d="M176.215 66.934C176.311 69.3258 175.168 72.9162 169.887 72.9162C169.217 72.8205 167.935 73.1458 168.165 75.2124C168.452 77.7956 168.739 79.5177 167.878 82.3879C167.418 83.9952 166.921 84.5884 166.73 84.6841H160.415C159.65 75.4994 161.85 57.9911 176.775 61.4354C178.497 62.2008 180.96 63.9717 179.645 66.6018C179.074 67.7447 176.606 68.2239 176.207 66.9067L176.215 66.934Z" fill="#393939"/>
<path d="M192.56 211.182L190.551 203.778L198.587 201.215L198.874 210.612L192.56 211.182Z" fill="#EE9F86"/>
<path d="M199.113 209.547C197.511 210.23 193.774 210.401 192.106 210.401H191.856L191.355 217.52H211.125C214.928 217.52 213.043 215.622 211.625 214.672C208.022 214.672 201.782 211.255 199.113 209.547Z" fill="#1D104A"/>
<path d="M112.507 156.576L120.179 156.552L120.574 164.978L111.423 162.823L112.507 156.576Z" fill="#EE9F86"/>
<path d="M112.391 163.33C112.145 161.607 112.947 157.953 113.379 156.341L113.444 156.1L106.697 153.774L101.58 172.869C100.596 176.543 102.917 175.214 104.201 174.09C105.134 170.609 110.049 165.467 112.391 163.33Z" fill="#1D104A"/>
<path d="M189.116 204.947L155.248 125.442H180.506L200.023 204.947H189.116Z" fill="#163A49"/>
<path d="M174.478 168.495L180.793 125.442H154.961L159.84 152.422L116.5 155.579V165.338L174.478 168.495Z" fill="#143441"/>
<path d="M182.12 107.744C176.445 93.7715 173.05 86.4275 172.182 84.9716C172.162 96.1169 173.771 120.129 179.415 123.26C185.058 126.39 198.546 118.724 204.585 114.5L202.404 108.069C189.272 113.679 183.41 110.19 182.12 107.744Z" fill="#E7A82C"/>
<path d="M172.182 84.9715L166.903 83.8335L162.81 83.9833L150.843 123.78L181.169 126.587C181.135 125.13 180.309 119.622 177.277 109.242C174.245 98.8624 172.517 89.0173 172.182 84.9715Z" fill="white"/>
<path d="M169.591 134.253C175.588 122.194 170.377 95.518 167.022 83.6874L162.856 82.4347C142.352 91.2468 129.931 120.335 126.284 133.778L132.985 135.794C134.092 136.126 144.79 120.281 148.212 115.063C145.876 119.624 145.174 128.644 145.122 132.87L169.591 134.253Z" fill="#FEBE40"/>
<defs>
<filter id="filter0_d" x="123.84" y="43.3105" width="83.7179" height="105.68" filterUnits="userSpaceOnUse" color-interpolation-filters="sRGB">
<feFlood flood-opacity="0" result="BackgroundImageFix"/>
<feColorMatrix in="SourceAlpha" type="matrix" values="0 0 0 0 0 0 0 0 0 0 0 0 0 0 0 0 0 0 127 0"/>
<feOffset dy="4"/>
<feGaussianBlur stdDeviation="4"/>
<feColorMatrix type="matrix" values="0 0 0 0 0 0 0 0 0 0 0 0 0 0 0 0 0 0 0.1 0"/>
<feBlend mode="normal" in2="BackgroundImageFix" result="effect1_dropShadow"/>
<feBlend mode="normal" in="SourceGraphic" in2="effect1_dropShadow" result="shape"/>
</filter>
<filter id="filter1_d" x="195.217" y="43.3105" width="92.869" height="39.7928" filterUnits="userSpaceOnUse" color-interpolation-filters="sRGB">
<feFlood flood-opacity="0" result="BackgroundImageFix"/>
<feColorMatrix in="SourceAlpha" type="matrix" values="0 0 0 0 0 0 0 0 0 0 0 0 0 0 0 0 0 0 127 0"/>
<feOffset dy="4"/>
<feGaussianBlur stdDeviation="4"/>
<feColorMatrix type="matrix" values="0 0 0 0 0 0 0 0 0 0 0 0 0 0 0 0 0 0 0.1 0"/>
<feBlend mode="normal" in2="BackgroundImageFix" result="effect1_dropShadow"/>
<feBlend mode="normal" in="SourceGraphic" in2="effect1_dropShadow" result="shape"/>
</filter>
</defs>
</svg>
