<svg width="325" height="250" viewBox="0 0 325 250" fill="none" xmlns="http://www.w3.org/2000/svg">
<path d="M123.709 245C232.737 245 298.899 237.713 308.044 213.76C337.676 154.476 299.813 97.5866 278.412 53.8718C257.011 10.1571 195.552 -26.9705 176.345 26.3256C157.139 79.6216 161.911 55.3097 138.246 79.6699C112.984 105.674 124.214 153.278 100.618 146.092C77.0223 138.906 73.1808 122.139 51.231 134.115C29.2811 146.092 2.93286 245 123.709 245Z" fill="#C1D3F0"/>
<path d="M104.603 244C221.347 244 298.634 238.835 308.427 215.859C340.156 158.994 295.719 101.43 272.803 59.4999C249.888 17.5694 194.391 -24.6205 173.826 26.5002C153.261 77.6209 145.508 62.0521 120.169 85.418C93.1188 110.361 105.144 156.022 79.8784 149.129C54.6125 142.236 50.4992 126.153 26.996 137.641C3.49284 149.129 -24.72 244 104.603 244Z" fill="#D9E3F8"/>
<path d="M63.6375 168.632C64.4592 167.027 65.0657 165.341 65.4178 163.614L68.9393 162.72L68.7828 158.616L68.6263 154.512L65.0461 153.923C64.557 152.217 63.8332 150.591 62.8941 149.068L64.7918 145.858L61.8964 143.074L59.001 140.291L56.0664 142.506C54.5209 141.652 52.8972 141.023 51.2342 140.657L50.3734 137L46.4216 137.163L42.4698 137.325L41.9024 141.043C40.2591 141.551 38.694 142.302 37.2267 143.278L34.1356 141.307L31.4554 144.314L28.7752 147.321L30.9077 150.368C30.086 151.973 29.4795 153.659 29.1274 155.386L25.606 156.28L25.7625 160.384L25.9189 164.488L29.4991 165.077C29.9882 166.783 30.712 168.409 31.6511 169.932L29.7534 173.142L32.6488 175.926L35.5443 178.709L38.4788 176.494C40.0243 177.348 41.6481 177.977 43.311 178.343L44.1718 182L48.1236 181.837L52.0755 181.675L52.6428 177.957C54.2862 177.449 55.8512 176.698 57.3185 175.722L60.4095 177.693L63.0897 174.686L65.77 171.679L63.6375 168.632ZM37.8723 170.034C32.2576 164.65 31.925 155.569 37.1094 149.738C42.2937 143.907 51.0386 143.562 56.6534 148.946C62.2681 154.33 62.6007 163.411 57.4163 169.242C52.232 175.072 43.4871 175.418 37.8723 170.034Z" fill="#EDAC39" fill-opacity="0.39"/>
<path d="M40.0507 193.923C40.3999 193.322 40.6573 192.688 40.8227 192.036L42.3484 191.702L42.2748 190.166L42.2013 188.63L40.6573 188.413C40.4367 187.778 40.1426 187.16 39.7198 186.576L40.5286 185.357L39.2787 184.305L38.0288 183.252L36.7605 184.087C36.0987 183.77 35.4002 183.536 34.6834 183.386L34.3158 182L32.6247 182.067L30.9336 182.134L30.6947 183.536C29.9962 183.737 29.3161 184.004 28.6727 184.388L27.3309 183.653L26.1729 184.789L25.0148 185.924L25.9339 187.077C25.5846 187.678 25.3273 188.312 25.1619 188.964L23.6362 189.298L23.7098 190.834L23.7833 192.37L25.3273 192.587C25.5479 193.222 25.842 193.84 26.2648 194.424L25.456 195.643L26.7059 196.695L27.9558 197.748L29.2242 196.913C29.8859 197.23 30.5843 197.464 31.3012 197.614L31.6688 199L33.3599 198.933L35.051 198.866L35.29 197.464C35.9885 197.263 36.6686 196.996 37.3119 196.612L38.6537 197.347L39.8117 196.211L40.9698 195.076L40.0507 193.923ZM28.9484 194.458C26.5405 192.437 26.3751 189.014 28.6176 186.809C30.8601 184.605 34.6099 184.472 37.0362 186.509C39.4625 188.546 39.6095 191.953 37.367 194.157C35.1429 196.345 31.3748 196.495 28.9484 194.458Z" fill="#EDAC39" fill-opacity="0.39"/>
<path d="M22.6514 248V209.54H61.5976V199.553H70.7615V190.474H83.7436V199.553H95.1984V248H115.817V178.671H124.217V151.434H153.236V178.671H161.636V220.434H168.509V190.474H175.382V185.731H182.255V190.474H188.364V231.329H196.001V190.474C196.001 172.316 200.43 136 218.146 136V231.329H238.765V178.671H253.274V231.329H271.602V147.803H308.257V231.329V248H185.952H115.817H95.1984H22.6514Z" fill="#EE9D0C" fill-opacity="0.22"/>
<path d="M281.417 184.938C283.189 168.753 275.482 168.025 270.043 170.144C269.252 170.453 268.341 169.799 268.492 168.963C271.302 153.346 275.641 123.423 273.099 113.577C270.728 104.397 261.584 108.162 255.89 112.129C255.159 112.638 254.12 112.064 254.211 111.178C256.652 87.5294 259.114 68.9113 238.993 66.9934C222.89 65.4585 221.075 92.8945 222.232 108.138C222.285 108.844 221.615 109.392 220.927 109.224C206.482 105.713 208.023 119.097 210.711 126.461C214.87 142.65 221.857 173.837 216.533 169.08C211.335 164.434 207.828 166.971 206.634 168.939C206.577 169.032 206.54 169.14 206.52 169.247C196.645 222.609 233.184 226.566 246.48 226.566C259.789 226.566 278.921 207.734 281.417 184.938Z" fill="#578E92" fill-opacity="0.83"/>
<path d="M238.992 85.1961C240.193 123.824 240.998 198.061 239.889 242.001L245.729 242C243.233 154.78 238.16 58.4352 238.992 85.1961Z" fill="#1A786D"/>
<path d="M244.815 216.653C252.856 210.045 269.77 193.856 273.098 181.963" stroke="#578E92" stroke-linecap="round"/>
<path d="M240.656 207.732C234.034 202.446 220.104 189.495 217.364 179.98" stroke="#578E92" stroke-linecap="round"/>
<path d="M242.32 154.212C249.888 148.171 265.808 133.37 268.939 122.496" stroke="#578E92" stroke-linecap="round"/>
<path d="M242.32 168.089C237.59 164.313 219.322 128.302 217.365 121.506" stroke="#578E92" stroke-linecap="round"/>
<path d="M263.968 176.018C263.69 182.625 266.13 194.849 278.109 190.885" stroke="#578E92" stroke-width="0.5" stroke-linecap="round"/>
<path d="M252.324 189.893C252.046 196.5 254.486 208.724 266.465 204.76" stroke="#578E92" stroke-width="0.5" stroke-linecap="round"/>
<path d="M253.987 124.48C253.71 131.088 256.15 143.312 268.128 139.347" stroke="#578E92" stroke-width="0.5" stroke-linecap="round"/>
<path d="M232.323 138.355C232.551 143.38 230.544 152.675 220.694 149.66" stroke="#578E92" stroke-width="0.5" stroke-linecap="round"/>
<path d="M228.994 181.963C229.222 186.987 227.216 196.282 217.365 193.268" stroke="#578E92" stroke-width="0.5" stroke-linecap="round"/>
<mask id="mask0" mask-type="alpha" maskUnits="userSpaceOnUse" x="227" y="134" width="98" height="109">
<rect x="227.5" y="134" width="97.5" height="109" fill="#C4C4C4"/>
</mask>
<g mask="url(#mask0)">
<path d="M289.088 268.813C293.318 277.643 256.544 283.223 237.628 284.909C232.694 255.323 224.798 197.806 232.694 204.428C242.563 212.706 240.8 211.327 243.62 216.385C246.44 221.444 244.677 197.99 246.087 190.172C247.497 182.354 247.145 175.915 250.669 173.156C254.194 170.397 258.228 193.9 261.4 196.199C264.573 198.498 274.285 165.338 282.039 160.279C288.242 156.232 288.148 160.432 287.326 163.038C285.799 169.783 280.035 194.722 283.701 196.929C288.283 199.688 303.187 172.696 313.761 171.316C322.22 170.213 321.045 177.601 319.4 181.434C314.466 188.485 304.315 203.509 303.187 207.188C301.777 211.787 304.949 206.728 315.876 209.487C324.617 211.695 320.928 216.539 317.991 218.685C308.709 222.517 290.216 231.01 290.498 234.321C290.851 238.46 304.244 236.161 309.179 237.08C313.127 237.816 311.529 241.679 310.236 243.519C294.023 247.964 264.134 257.591 274.285 260.535C284.436 263.478 288.383 267.28 289.088 268.813Z" fill="#72869F"/>
<path d="M243.495 279.572C257.308 252.83 290.798 195.197 314.248 178.607" stroke="#2F4CAC"/>
<path d="M232.871 219.23C234.535 233.835 241.895 263.082 245.366 275.88L246.785 273.282C244.802 272.444 236.559 236.792 232.871 219.23Z" fill="#2F4CAC"/>
<path d="M248.955 192.715C250.62 207.319 257.716 236.348 261.188 249.146L262.704 246.427C260.721 245.588 252.643 210.277 248.955 192.715Z" fill="#2F4CAC"/>
<path d="M263.779 244.352L263.714 244.728L265.988 241.328C264.728 238.83 273.358 195.752 278 174.947C273.029 190.953 266.556 228.321 263.779 244.352Z" fill="#2F4CAC"/>
<path d="M309.956 225.352C301.155 228.615 281.633 229.771 273.316 230.111L275.052 227.724C276.125 229.9 298.865 227.165 309.956 225.352Z" fill="#2F4CAC"/>
<path d="M289.088 271.151C293.318 279.333 256.544 284.504 237.628 286.066C232.694 258.651 224.798 205.356 232.694 211.492C242.563 219.163 240.8 217.884 243.62 222.572C246.44 227.259 244.677 205.526 246.087 198.282C247.497 191.038 247.145 185.072 250.669 182.515C254.194 179.958 258.228 201.736 261.4 203.867C264.573 205.998 274.285 175.271 282.039 170.583C288.242 166.833 288.148 170.725 287.326 173.14C285.799 179.39 280.035 202.498 283.701 204.544C288.283 207.1 303.187 182.089 313.761 180.811C322.22 179.788 321.045 186.634 319.4 190.186C314.466 196.72 304.315 210.64 303.187 214.049C301.777 218.31 304.949 213.623 315.876 216.18C324.617 218.225 320.928 222.714 317.991 224.703C308.709 228.254 290.216 236.123 290.498 239.191C290.851 243.026 304.244 240.896 309.179 241.748C313.127 242.43 311.529 246.009 310.236 247.714C294.023 251.833 264.134 260.754 274.285 263.481C284.436 266.208 288.383 269.731 289.088 271.151Z" fill="#9CBEE8"/>
<path d="M243.495 281.121C257.308 256.341 290.798 202.938 314.248 187.566" stroke="#2F4CAC"/>
<path d="M232.871 225.211C234.535 238.743 241.895 265.844 245.366 277.703L246.785 275.296C244.802 274.519 236.559 241.484 232.871 225.211Z" fill="#2F4CAC"/>
<path d="M248.955 200.641C250.62 214.173 257.716 241.072 261.188 252.93L262.704 250.41C260.721 249.633 252.643 216.914 248.955 200.641Z" fill="#2F4CAC"/>
<path d="M263.779 248.488L263.714 248.837L265.988 245.687C264.728 243.371 273.358 203.455 278 184.178C273.029 199.009 266.556 233.635 263.779 248.488Z" fill="#2F4CAC"/>
<path d="M316.337 220C307.536 223.024 288.015 224.095 279.697 224.41L281.433 222.198C282.506 224.214 305.247 221.68 316.337 220Z" fill="#2F4CAC"/>
</g>
<path d="M233.632 224.638C226.238 222.645 220.873 223.807 219.132 224.638L221.331 226.569L228.478 227.281L233.632 224.638Z" fill="#969696"/>
<path d="M225.729 230.993C225.674 226.926 224.034 218.689 223.221 215.08C222.591 211.097 221.881 205.359 224.08 214.266C226.829 225.4 225.798 236.077 225.729 230.993Z" fill="#316D91"/>
<path d="M225.005 230.891C225.663 226.941 225.519 218.357 225.365 214.559C225.453 210.471 225.771 204.657 226.337 214.103C227.045 225.91 224.182 235.828 225.005 230.891Z" fill="#234370"/>
<path d="M216.813 214.302C218.343 219.701 221.767 218.908 223.288 217.837C225.518 217.001 229.658 213.659 228.372 206.975C227.086 200.29 223.896 195.449 222.462 193.863L219.203 198.619L223.071 190.907L221.68 191.999L222.245 188.979L217.03 180.752L216.118 183.644V179.402C214.64 177.86 211.207 175.199 209.295 176.896C206.905 179.017 207.297 198.941 211.121 202.604C214.945 206.268 214.901 207.553 216.813 214.302Z" fill="#316D91"/>
<path d="M223.873 215.182C221.708 207.624 216.692 191.612 213.943 188.033" stroke="white" stroke-opacity="0.2"/>
<path d="M225.822 215.157C224.287 212.768 220.675 204.704 221.527 192.584C222.008 193.042 223.053 193.896 223.383 193.652C222.913 192.974 221.995 191.435 222.077 190.703C222.18 189.788 222.524 180.891 225.616 178.603L226.647 181.094L226.269 177.841C226.441 177.298 227.286 176.031 229.292 175.299C229.464 175.316 229.911 175.105 230.323 174.129C230.323 174.722 230.234 176.102 229.876 176.875C229.43 177.841 231.045 175.248 230.907 174.129C230.77 173.011 233.106 179.417 233.037 183.128C232.444 184.02 231.311 185.582 230.711 185.97C231.526 185.815 232.773 185.487 233.037 185.06C233.415 184.45 233.244 195.228 232.831 196.55L229.808 199.193L232.831 197.872C232.133 201.024 229.176 209.382 225.822 215.157H225.822Z" fill="#234370"/>
<path d="M225.865 215.08C225.51 206.759 225.549 189.03 228.545 184.678" stroke="white" stroke-opacity="0.2"/>
<path d="M238.705 207.195C235.104 208.863 230.494 215.448 228.638 218.532L230.196 211.516L234.422 205.975L241.007 203.128L241.454 200.637C242.588 200.738 243.206 205.111 238.705 207.195Z" fill="#234370"/>
<path d="M232.555 208.974C231.044 212.838 229.291 216.855 228.604 218.38C228.386 216.651 228.673 212.259 231.559 208.517C235.167 203.84 236.678 204.399 238.19 203.585C239.4 202.935 239.656 201.891 239.633 201.45C239.963 202.101 239.771 203.145 239.633 203.585C240.788 202.772 241.328 201.281 241.454 200.637C242.306 201.206 242.267 202.297 242.141 202.772C240.389 206.331 234.445 204.145 232.555 208.974Z" fill="#08033B"/>
<path d="M226.175 231.094C226.45 226.539 228.305 220.35 229.199 217.825C230.298 214.978 231.893 210.931 229.062 217.113C225.523 224.841 225.832 236.788 226.175 231.094Z" fill="#234370"/>
<mask id="mask1" mask-type="alpha" maskUnits="userSpaceOnUse" x="218" y="224" width="17" height="19">
<rect x="218.886" y="224.082" width="15.3854" height="18.2125" fill="#A69999"/>
</mask>
<g mask="url(#mask1)">
<path d="M218.501 224.635L218.642 224.654C223.606 225.35 228.643 225.343 233.605 224.635V224.635V237.216C233.605 241.386 230.224 244.767 226.053 244.767V244.767C221.882 244.767 218.501 241.386 218.501 237.216V224.635Z" fill="#958B8B"/>
</g>
<rect width="301.353" height="8" rx="4" transform="matrix(-1 0 0 1 318.946 242)" fill="#494F80" fill-opacity="0.8"/>
<path d="M7.27463 203.561C21.4156 217.568 22.0048 235.267 20.5318 242.366H47.0462C47.0462 222.017 38.6989 211.606 29.8608 202.614C21.0228 193.623 -10.4015 186.052 7.27463 203.561Z" fill="#494F80" fill-opacity="0.81"/>
<path d="M35.9966 238.369C35.9966 229.693 31.5775 209.218 13.9014 196.725" stroke="white"/>
<path d="M0 9H268.864V169H0V9Z" fill="white" fill-opacity="0.65"/>
<path d="M0.5 9.5H268.364V168.5H0.5V9.5Z" stroke="black" stroke-opacity="0.08"/>
<path d="M196.618 19.4922H9.31104V35.6966H196.618V19.4922Z" fill="#82B7FB"/>
<path d="M196.618 49.0684H9.31104V158.192H196.618V49.0684Z" fill="#EBEBEB"/>
<path d="M242.723 19.4922H211.475V35.6966H242.723V19.4922Z" fill="#82B7FB"/>
<path d="M242.722 49.0684H211.473V158.192H242.722V49.0684Z" fill="#EBEBEB"/>
<path d="M81.2097 65.1992H43.5342V68.6042H81.2097V65.1992Z" fill="#578E92"/>
<path d="M118.933 90.7969H91.7358V94.2018H118.933V90.7969Z" fill="#578E92"/>
<path d="M141.194 90.7969H123.171V94.2018H141.194V90.7969Z" fill="#1487E3"/>
<path d="M188.323 90.7969H144.779V94.2018H188.323V90.7969Z" fill="#578E92"/>
<path d="M71.9918 142.201H44.0029V145.606H71.9918V142.201Z" fill="#436DBF"/>
<path d="M115.254 65.1973H88.5225V68.6022H115.254V65.1973Z" fill="#436DBF"/>
<path d="M115.254 103.557H88.522V106.962H115.254V103.557Z" fill="#1487E3"/>
<path d="M86.5656 116.357H75.1558V119.762H86.5656V116.357Z" fill="#5DB3BB"/>
<path d="M89.4075 129.32H63.7471V132.725H89.4075V129.32Z" fill="#436DBF"/>
<path d="M128.713 129.32H93.2725V132.725H128.713V129.32Z" fill="#A6A6A6"/>
<path d="M70.7344 116.439H44.0029V119.844H70.7344V116.439Z" fill="#1487E3"/>
<path d="M59.8834 129.32H44.0029V132.725H59.8834V129.32Z" fill="#1487E3"/>
<path d="M106.917 116.439H91.9678V119.844H106.917V116.439Z" fill="#F55669"/>
<path d="M70.5923 90.7969H43.8608V94.2018H70.5923V90.7969Z" fill="#436DBF"/>
<path d="M81.9556 103.557H43.8608V106.962H81.9556V103.557Z" fill="#F55669"/>
<path d="M156.515 65.1973H122.472V68.6022H156.515V65.1973Z" fill="#1487E3"/>
<path d="M247.421 90.7969H213.377V94.2018H247.421V90.7969Z" fill="#1487E3"/>
<path d="M203.085 103.557H169.042V106.962H203.085V103.557Z" fill="#1487E3"/>
<path d="M215.755 65.1973H181.711V68.6022H215.755V65.1973Z" fill="#F55669"/>
<path d="M162.849 103.557H142.871V106.962H162.849V103.557Z" fill="#F55669"/>
<path d="M175.283 65.1973H162.802V68.6022H175.283V65.1973Z" fill="#EE9D0C" fill-opacity="0.8"/>
<path d="M134.952 103.557H122.471V106.962H134.952V103.557Z" fill="#EE9D0C" fill-opacity="0.8"/>
<path d="M63.0472 78H43.5342V81.405H63.0472V78Z" fill="#A6A6A6"/>
<path d="M111.016 142.322H95.6016V145.727H111.016V142.322Z" fill="#1487E3"/>
<path d="M74.1318 78H67.8447V81.405H74.1318V78Z" fill="#1487E3"/>
<path d="M249.19 78H197.125V81.405H249.19V78Z" fill="#A6A6A6"/>
<path d="M192.329 78H175.284V81.405H192.329V78Z" fill="#1487E3"/>
<path d="M209.373 90.7969H192.328V94.2018H209.373V90.7969Z" fill="#F55669"/>
<path d="M170.766 78H134.534V81.405H170.766V78Z" fill="#1487E3"/>
<path d="M129.412 78H116.931V81.405H129.412V78Z" fill="#436DBF"/>
<path d="M87.4511 90.7969H74.9702V94.2018H87.4511V90.7969Z" fill="#F55669"/>
<path d="M89.9658 142.322H77.4849V145.727H89.9658V142.322Z" fill="#EDAC39"/>
<path d="M112.179 78H90.4771V81.405H112.179V78Z" fill="#1487E3"/>
<path d="M262.887 150.647H251.85V149.293H261.583V139.037H262.887V150.647Z" fill="#6AAFE8"/>
<path d="M32.3175 150.647H21.2803V139.037H22.5843V149.293H32.3175V150.647Z" fill="#6AAFE8"/>
<path d="M22.5848 72.7015H21.2808V61.0918H32.318V62.4456H22.5848V72.7015Z" fill="#6AAFE8"/>
<path d="M262.887 72.6605H261.583V62.4456H251.85V61.0918H262.887V72.6605Z" fill="#6AAFE8"/>
<path d="M262.887 89.9707H261.583V121.723H262.887V89.9707Z" fill="#6AAFE8"/>
<path d="M22.5843 89.9707H21.2803V121.723H22.5843V89.9707Z" fill="#6AAFE8"/>
<path d="M111.502 166.566C111.437 160.492 104.621 158.561 100.843 158.764L99.9321 165.186C102.895 165.505 104.939 171.769 105.922 169.942C106.68 168.534 105.688 168.235 104.529 166.681C105.583 165.811 108.577 166.6 110.419 167.486C110.924 167.729 111.51 167.317 111.502 166.566Z" fill="#F3AEAE"/>
<path d="M110.303 236V221L117.84 221.863L118.182 236H110.303Z" fill="#F3AEAE"/>
<path d="M117.209 234.07C115.574 235.053 111.758 235.299 110.054 235.299H109.799L109.288 245.534H129.474C133.359 245.534 131.434 242.805 129.985 241.44C126.306 241.44 119.935 236.527 117.209 234.07Z" fill="#1D104A"/>
<path d="M89.666 223.662L94.556 211.088L99.9303 216.171L95.5786 228.219L89.666 223.662Z" fill="#F3AEAE"/>
<path d="M96.3167 227.039C94.5471 226.796 91.1167 224.43 89.6219 223.278L89.3978 223.105L85.4585 231.737L103.164 245.387C106.571 248.013 105.814 244.318 105.009 242.142C101.782 239.654 97.8695 231.037 96.3167 227.039Z" fill="#1D104A"/>
<path d="M74.0273 190.083C60.4549 190.414 59.2845 171.176 60.3948 164H87.3579C96.2444 166.209 114.926 170.955 118.562 172.281C122.198 173.605 123.106 178.629 123.106 180.975L118.243 229H107.959L109.399 195.214L96.7501 226.102L87.3418 219.477L97.7582 188.131C90.6341 189.032 81.9328 189.89 74.0273 190.083Z" fill="#578E92" fill-opacity="0.95"/>
<path d="M110.461 187.844L98.7372 188.67L82.3247 217.966L97.2719 230.757L109.582 204.349L110.461 187.844Z" fill="#578E92"/>
<path d="M88.9374 95.4712C89.1953 94.9385 89.3555 94.3024 89.4629 93.6427C89.8566 91.2279 89.4805 88.6525 88.7313 86.3575C80.2627 78.1014 74.4344 86.9953 72.5795 92.4742L70.9092 109.543L78.4586 112L78.9939 106.916C80.125 106.026 81.2991 106.786 83.7811 108.049C86.263 109.312 86.264 106.417 86.4213 105.972C86.5141 105.709 86.9448 105.402 87.3072 105.19C87.4801 105.089 87.5465 104.83 87.44 104.641C87.3463 104.474 87.3844 104.25 87.525 104.139L87.7409 103.969C87.9616 103.795 88.0505 103.464 87.9548 103.172L87.861 102.887C87.7907 102.67 87.8483 102.424 88.0046 102.282L88.3045 102.009C89.04 101.339 89.2344 100.149 88.9413 99.1093C88.6063 97.9227 88.4285 96.5234 88.9374 95.4712Z" fill="#F3AEAE"/>
<path d="M73.5457 101.956L72.5605 102.666C71.8728 103.162 70.9747 102.712 71.0216 101.896L71.5506 92.69C71.6808 90.4231 71.9807 88.1242 72.9845 86.0156C74.7772 82.2499 78.096 78.0625 82.8932 78.8237C90.7778 80.0747 90.514 86.0059 90.7923 86.1243C91.0149 86.219 91.5985 85.7081 91.8625 85.4408C91.8487 85.7502 91.4991 86.527 91.326 86.8767C92.0169 86.645 92.2508 85.2118 92.2814 84.5241C93.2708 91.181 90.6145 92.9533 89.1627 93.0074C88.1058 91.974 85.7167 90.1493 84.615 91.1172C83.2378 92.327 83.7112 92.3094 81.806 92.6378C80.2819 92.9005 79.22 96.9391 78.8795 98.9256L78.782 101.118L77.4593 98.9785C78.4118 96.2655 77.5788 94.1683 77.0432 93.4588C75.1059 92.8101 73.9043 98.8534 73.5457 101.956Z" fill="#393939"/>
<path d="M59.1721 161.41C58.7292 163.564 60.2146 163.35 60.7685 163.648C68.0623 163.648 82.4941 165 83.8238 165C85.1535 165 85.3006 164.401 85.2086 164.103C84.9867 161.949 82.3246 153.663 82.4166 151.12C82.8931 138.011 87.4001 135.298 86.5632 128.217C85.7272 121.136 85.8949 114.583 79.3065 110.173C74.1235 106.703 73.7691 106.473 70.806 107.616C68.8665 108.364 64.8231 111.744 64.1582 119.282C63.3273 128.704 59.726 158.718 59.1721 161.41Z" fill="#F55669"/>
<path d="M71.894 155.475V132L83.5186 132.655L83.0503 147.919C82.9836 150.088 84.2476 152.023 86.1051 152.603L107.059 159.134L107.349 166L75.391 160.107C73.374 159.735 71.894 157.775 71.894 155.475Z" fill="#F3AEAE"/>
<path d="M72.6378 122.065C72.9888 117.327 76.002 113.888 79.367 114.383C82.7311 114.878 85.174 119.12 84.8222 123.857L83.717 138.755L71.5317 136.963L72.6378 122.065Z" fill="#E35162"/>
<path fill-rule="evenodd" clip-rule="evenodd" d="M121.497 175L134.924 142.039L131.209 139L118.997 168.979L95.1454 163.577L94.5454 168.905L121.449 174.999L121.453 174.964L121.497 175Z" fill="#C4C4C4"/>
<path d="M119.46 169.167L131.417 139.816L134.322 142.192L121.289 174.186L121.055 173.995L121.013 174.387L95.0924 168.516L95.5798 164.188L118.886 169.466L119.3 169.56L119.46 169.167Z" stroke="black" stroke-opacity="0.07"/>
<path d="M97.5312 188.002H51.1804C50.11 188.002 49.2422 189.023 49.2422 190.284V240.72C49.2422 241.98 50.11 243.002 51.1804 243.002H97.5312C98.6017 243.002 99.4695 241.98 99.4695 240.72V190.284C99.4695 189.023 98.6017 188.002 97.5312 188.002Z" fill="#6D6D6D"/>
</svg>
