<svg width="325" height="250" viewBox="0 0 325 250" fill="none" xmlns="http://www.w3.org/2000/svg">
<path d="M117.503 250C231.481 250.002 303.806 250.003 313.428 225.525C344.882 164.407 304.692 105.759 281.975 60.6922C259.259 15.6255 194.022 -22.6503 173.636 32.294C153.25 87.2384 158.314 62.1746 133.195 87.2882C106.38 114.097 101.881 164.624 76.8346 157.216C51.7884 149.808 37.9337 130.952 14.6349 143.299C-8.66387 155.646 -13.732 250 114.466 250L117.503 250Z" fill="#C1D3F0"/>
<path d="M113.964 246.393C237.882 246.393 285.387 253.609 312.566 243.3C346.245 184.677 300.303 110.742 275.979 67.5145C251.655 24.2872 192.748 -19.2076 170.919 33.4942C149.09 86.1959 140.862 70.1456 113.964 94.2342C85.2523 119.948 98.0169 167.021 71.1983 159.916C44.3796 152.81 40.0135 136.229 15.066 148.072C0.921803 154.787 -4.27211 240.364 15.0664 246.393H113.964Z" fill="#D9E3F8"/>
<path d="M8.36328 249.485V209.835V178.012H28.7481V209.835H49.703V199.54H59.43V190.18H73.21V199.54H85.3687V249.485H107.254V178.012H116.171V149.933H146.973V178.012H155.889V221.067H163.185V190.18H170.48V185.291H177.775V190.18H184.26V232.299H192.366V190.18C192.366 171.461 197.067 134.021 215.873 134.021V232.299H237.758V178.012H253.159V232.299H272.613V146.189H311.521V232.299V249.485H181.7H107.254H85.3687H8.36328Z" fill="#B5B5B5" fill-opacity="0.42"/>
<path d="M59.7334 224.824C60.1866 220.684 58.7947 219.553 57.2979 219.563C56.4484 219.569 55.493 218.887 55.6347 218.049C56.561 212.577 57.721 203.874 56.9377 200.841C56.3141 198.426 54.2957 198.676 52.5304 199.539C51.7303 199.929 50.6642 199.328 50.7546 198.442C51.4877 191.264 51.779 185.786 45.4754 185.185C40.3936 184.7 39.5456 192.801 39.783 198.032C39.8151 198.74 39.1386 199.277 38.4336 199.208C34.6258 198.837 35.1322 202.875 35.9701 205.171C37.3679 210.612 39.7163 221.093 37.9271 219.494C36.2596 218.004 35.1101 218.713 34.6596 219.356C34.5972 219.445 34.561 219.554 34.5415 219.661C31.2934 237.49 43.5322 238.814 47.9915 238.814C52.4646 238.814 58.8947 232.485 59.7334 224.824Z" fill="#578E92" fill-opacity="0.83"/>
<path d="M45.475 191.302C45.8785 204.285 46.149 229.235 45.7763 244.002L47.7391 244.002C46.9004 214.689 45.1954 182.309 45.475 191.302Z" fill="#1A786D"/>
<path d="M47.4321 235.483C50.1346 233.262 55.8192 227.821 56.9375 223.824" stroke="#578E92" stroke-linecap="round"/>
<path d="M46.0347 232.485C43.8091 230.709 39.1277 226.356 38.2068 223.158" stroke="#578E92" stroke-linecap="round"/>
<path d="M46.5938 214.499C49.1373 212.469 54.4874 207.494 55.5399 203.84" stroke="#578E92" stroke-linecap="round"/>
<path d="M46.5938 219.16C45.004 217.891 38.8645 205.788 38.2067 203.504" stroke="#578E92" stroke-linecap="round"/>
<path d="M53.8687 221.826C53.7755 224.047 54.5955 228.155 58.6213 226.823" stroke="#578E92" stroke-width="0.5" stroke-linecap="round"/>
<path d="M49.9556 226.488C49.8624 228.709 50.6825 232.817 54.7082 231.485" stroke="#578E92" stroke-width="0.5" stroke-linecap="round"/>
<path d="M50.5147 204.506C50.4215 206.727 51.2415 210.835 55.2673 209.502" stroke="#578E92" stroke-width="0.5" stroke-linecap="round"/>
<path d="M43.2341 209.17C43.3107 210.859 42.6364 213.982 39.3258 212.969" stroke="#578E92" stroke-width="0.5" stroke-linecap="round"/>
<path d="M42.1145 223.824C42.1911 225.513 41.5167 228.637 38.2062 227.624" stroke="#578E92" stroke-width="0.5" stroke-linecap="round"/>
<path d="M320.168 222.285C320.717 218.123 318.875 217.196 317.053 217.356C316.225 217.429 315.358 216.721 315.524 215.907C316.574 210.761 317.887 202.588 316.999 199.738C316.247 197.324 313.708 197.743 311.626 198.675C310.844 199.025 309.876 198.412 309.981 197.561C310.819 190.774 311.179 185.587 304.007 185.02C298.264 184.565 297.291 192.135 297.553 197.054C297.589 197.75 296.946 198.301 296.254 198.225C291.69 197.722 292.267 201.613 293.233 203.809C294.817 208.924 297.479 218.778 295.451 217.275C293.58 215.888 292.284 216.527 291.763 217.126C291.682 217.22 291.633 217.343 291.607 217.464C287.95 234.195 301.808 235.438 306.859 235.438C311.929 235.438 319.217 229.488 320.168 222.285Z" fill="#82B7FB"/>
<path d="M303.924 191.603C304.379 203.759 304.344 232.045 303.924 245.873L306.759 245.873C305.814 218.426 303.609 183.181 303.924 191.603Z" fill="#3A5CA6"/>
<path d="M306.225 232.306C309.288 230.218 315.732 225.104 316.999 221.346" stroke="#3A5CA6" stroke-linecap="round"/>
<path d="M304.641 229.489C302.118 227.819 296.812 223.727 295.768 220.721" stroke="#3A5CA6" stroke-linecap="round"/>
<path d="M305.274 212.578C308.157 210.669 314.222 205.992 315.415 202.557" stroke="#3A5CA6" stroke-linecap="round"/>
<path d="M305.274 216.961C303.473 215.768 296.514 204.39 295.768 202.242" stroke="#3A5CA6" stroke-linecap="round"/>
<path d="M313.521 219.467C313.415 221.555 314.345 225.418 318.909 224.165" stroke="#3A5CA6" stroke-width="0.5" stroke-linecap="round"/>
<path d="M309.084 223.852C308.979 225.94 309.908 229.802 314.472 228.55" stroke="#3A5CA6" stroke-width="0.5" stroke-linecap="round"/>
<path d="M309.718 203.184C309.613 205.272 310.542 209.134 315.106 207.882" stroke="#3A5CA6" stroke-width="0.5" stroke-linecap="round"/>
<path d="M301.465 207.566C301.552 209.154 300.788 212.091 297.035 211.139" stroke="#3A5CA6" stroke-width="0.5" stroke-linecap="round"/>
<path d="M300.198 221.346C300.285 222.933 299.521 225.871 295.768 224.918" stroke="#3A5CA6" stroke-width="0.5" stroke-linecap="round"/>
<path d="M41.4693 231.134C41.7684 228.868 41.008 228.035 40.0575 227.861C39.2399 227.711 38.3345 227.021 38.494 226.205C39.1674 222.76 39.9061 217.836 39.349 216.047C38.9254 214.686 37.6532 214.671 36.4303 215.072C35.6155 215.339 34.6412 214.72 34.74 213.869C35.2252 209.685 35.1974 206.558 30.6558 206.199C26.9931 205.909 26.2303 210.497 26.3182 213.778C26.3368 214.474 25.6904 215.011 24.9942 215.005C22.4574 214.982 22.8359 217.382 23.4468 218.771C24.5069 222.193 26.288 228.787 24.931 227.781C23.7268 226.888 22.8788 227.25 22.5055 227.636C22.419 227.725 22.3712 227.848 22.345 227.97C19.9466 239.105 29.1906 239.934 32.5641 239.934C35.9565 239.934 40.8332 235.953 41.4693 231.134Z" fill="#82B7FB"/>
<path d="M30.6005 210.603C30.9047 218.736 30.8815 237.664 30.6005 246.916L32.4973 246.916C31.865 228.55 30.3897 204.968 30.6005 210.603Z" fill="#3A5CA6"/>
<path d="M32.1406 237.842C34.1902 236.445 38.5015 233.022 39.3496 230.508" stroke="#3A5CA6" stroke-linecap="round"/>
<path d="M31.0806 235.953C29.3926 234.835 25.8422 232.097 25.1437 230.086" stroke="#3A5CA6" stroke-linecap="round"/>
<path d="M31.5039 224.637C33.433 223.36 37.4906 220.231 38.2889 217.932" stroke="#3A5CA6" stroke-linecap="round"/>
<path d="M31.5039 227.571C30.2982 226.773 25.6419 219.159 25.143 217.723" stroke="#3A5CA6" stroke-linecap="round"/>
<path d="M37.0223 229.248C36.9516 230.645 37.5736 233.23 40.6273 232.392" stroke="#3A5CA6" stroke-width="0.5" stroke-linecap="round"/>
<path d="M34.0535 232.182C33.9829 233.579 34.6049 236.163 37.6585 235.325" stroke="#3A5CA6" stroke-width="0.5" stroke-linecap="round"/>
<path d="M34.4779 218.354C34.4072 219.751 35.0292 222.335 38.0828 221.497" stroke="#3A5CA6" stroke-width="0.5" stroke-linecap="round"/>
<path d="M28.9562 221.285C29.0143 222.348 28.5028 224.313 25.9916 223.675" stroke="#3A5CA6" stroke-width="0.5" stroke-linecap="round"/>
<path d="M28.1075 230.508C28.1657 231.57 27.6541 233.536 25.143 232.898" stroke="#3A5CA6" stroke-width="0.5" stroke-linecap="round"/>
<path d="M73.5167 229.948C73.8158 227.682 73.0553 226.849 72.1049 226.675C71.2873 226.525 70.3819 225.835 70.5414 225.02C71.2148 221.575 71.9534 216.65 71.3964 214.861C70.9728 213.501 69.7005 213.485 68.4777 213.887C67.6629 214.154 66.6886 213.535 66.7874 212.683C67.2726 208.5 67.2447 205.372 62.7032 205.013C59.0405 204.723 58.2777 209.311 58.3655 212.592C58.3842 213.288 57.7378 213.826 57.0416 213.82C54.5047 213.796 54.8833 216.197 55.4941 217.585C56.5543 221.008 58.3354 227.601 56.9784 226.595C55.7741 225.703 54.9261 226.064 54.5529 226.45C54.4663 226.539 54.4185 226.663 54.3923 226.785C51.994 237.92 61.238 238.749 64.6114 238.749C68.0039 238.749 72.8806 234.767 73.5167 229.948Z" fill="#82B7FB"/>
<path d="M62.6479 209.417C62.9521 217.551 62.9288 236.478 62.6478 245.73L64.5446 245.73C63.9124 227.365 62.4371 203.782 62.6479 209.417Z" fill="#3A5CA6"/>
<path d="M64.188 236.656C66.2376 235.259 70.5489 231.837 71.397 229.322" stroke="#3A5CA6" stroke-linecap="round"/>
<path d="M63.1279 234.767C61.44 233.65 57.8895 230.912 57.1911 228.9" stroke="#3A5CA6" stroke-linecap="round"/>
<path d="M63.5513 223.451C65.4803 222.174 69.538 219.045 70.3362 216.746" stroke="#3A5CA6" stroke-linecap="round"/>
<path d="M63.5513 226.385C62.3456 225.587 57.6893 217.974 57.1904 216.537" stroke="#3A5CA6" stroke-linecap="round"/>
<path d="M69.0697 228.062C68.999 229.46 69.621 232.044 72.6746 231.206" stroke="#3A5CA6" stroke-width="0.5" stroke-linecap="round"/>
<path d="M66.1009 230.996C66.0302 232.393 66.6523 234.978 69.7059 234.14" stroke="#3A5CA6" stroke-width="0.5" stroke-linecap="round"/>
<path d="M66.5252 217.168C66.4545 218.565 67.0766 221.15 70.1302 220.311" stroke="#3A5CA6" stroke-width="0.5" stroke-linecap="round"/>
<path d="M61.0035 220.1C61.0617 221.162 60.5501 223.127 58.039 222.49" stroke="#3A5CA6" stroke-width="0.5" stroke-linecap="round"/>
<path d="M60.1549 229.322C60.213 230.385 59.7015 232.35 57.1904 231.713" stroke="#3A5CA6" stroke-width="0.5" stroke-linecap="round"/>
<path d="M174 74H116V243H174V74Z" fill="#3A5CA6"/>
<path d="M149 74L159.295 127" stroke="#001E42" stroke-miterlimit="10"/>
<path d="M170.67 74L181.028 127" stroke="#001E42" stroke-miterlimit="10"/>
<path d="M177.343 108.484H155.609" stroke="#001E42" stroke-miterlimit="10"/>
<path d="M179.885 120.049H158.215" stroke="#001E42" stroke-miterlimit="10"/>
<path d="M172.895 85.2207H151.224" stroke="#001E42" stroke-miterlimit="10"/>
<path d="M175.246 96.8516H153.575" stroke="#001E42" stroke-miterlimit="10"/>
<path d="M244 174H206V243H244V174Z" fill="#484B5C"/>
<path d="M133 149H84V243H133V149Z" fill="#0E72CC" fill-opacity="0.87"/>
<path d="M156.036 185.07H111.36V242.665H156.036V185.07Z" fill="#8FA2BF"/>
<path opacity="0.9" d="M207 127H157V243H207V127Z" fill="#1978DC"/>
<path d="M176.88 148.094L156.734 242.101" stroke="#001E42" stroke-miterlimit="10"/>
<path d="M155.145 148.094L135 242.101" stroke="#001E42" stroke-miterlimit="10"/>
<path d="M141.673 211.203H163.344" stroke="#001E42" stroke-miterlimit="10"/>
<path d="M139.385 221.795H161.055" stroke="#001E42" stroke-miterlimit="10"/>
<path d="M136.971 232.324H158.641" stroke="#001E42" stroke-miterlimit="10"/>
<path d="M148.536 179.492H170.206" stroke="#001E42" stroke-miterlimit="10"/>
<path d="M145.995 190.084H167.665" stroke="#001E42" stroke-miterlimit="10"/>
<path d="M144.342 200.613H166.013" stroke="#001E42" stroke-miterlimit="10"/>
<path d="M152.985 158.373H174.655" stroke="#001E42" stroke-miterlimit="10"/>
<path d="M150.57 168.965H172.304" stroke="#001E42" stroke-miterlimit="10"/>
<path d="M150.553 134.882C150.553 134.882 154.913 128.47 162.18 125.754V128.092C162.18 128.092 156.596 131.563 156.443 135.033C156.29 138.503 150.553 134.882 150.553 134.882Z" fill="#6C898B"/>
<path d="M176.561 128.923C175.796 129.678 174.725 129.904 174.19 129.376C173.654 128.848 173.884 127.792 174.649 127.037C175.414 126.283 176.485 126.057 177.02 126.585C177.555 127.113 177.326 128.169 176.561 128.923Z" fill="#FFB5BE"/>
<path d="M163.663 127.626C162.898 128.381 161.827 128.607 161.292 128.079C160.756 127.551 160.986 126.495 161.751 125.74C162.516 124.986 163.587 124.76 164.122 125.288C164.658 125.816 164.428 126.872 163.663 127.626Z" fill="#FFB5BE"/>
<path d="M153.459 133.75C152.312 134.73 150.246 134.202 149.023 132.694C147.722 131.109 147.646 129.148 148.793 128.167C149.94 127.187 152.618 127.564 153.918 129.073L153.459 129.45C154.53 130.958 154.53 132.844 153.459 133.75Z" fill="#FFB5BE"/>
<path d="M153.307 135.561L150.553 134.882L150.63 133.901L152.389 133.373L153.307 135.561Z" fill="#FFB5BE"/>
<path d="M150.553 134.879C150.553 134.879 148.488 141.291 148.182 146.496H156.214C156.214 146.496 156.673 143.479 157.973 141.517C159.197 139.707 159.427 138.802 164.858 137.519C170.289 136.237 175.108 129.674 175.108 129.674L173.807 128.09C173.807 128.09 168.376 134.049 163.098 134.728C157.897 135.407 150.553 134.879 150.553 134.879Z" fill="#81AAAD"/>
<path d="M150.177 133.733C150.16 133.715 150.142 133.695 150.124 133.676L149.533 133.292C148.562 132.66 147.602 131.851 147.229 130.694C146.973 129.898 146.974 128.982 147.837 128.12C149.811 126.147 150.86 127.096 150.944 127.037C151.01 126.99 151.044 126.755 151.052 126.643C151.107 126.693 151.175 126.904 151.202 127.003C151.311 126.779 151.095 126.503 150.973 126.393C152.435 127.107 152.18 128.096 151.869 128.501C151.443 128.637 150.575 129.021 150.513 129.466C150.435 130.022 150.536 129.89 150.177 130.459C149.889 130.915 150.409 131.803 150.705 132.19L151.093 132.541L150.401 132.586C150.105 131.925 149.529 131.843 149.279 131.884C148.749 132.304 149.614 133.119 150.124 133.676L150.182 133.713C150.19 133.719 150.187 133.733 150.177 133.733Z" fill="#393939"/>
<path d="M152.237 146.5H148.182C148.182 146.5 145.811 151.63 148.641 154.873C148.641 154.873 149.1 161.964 148.794 169.961C148.794 170.866 148.048 174.577 148.048 176.463L151.931 176.674C153.078 169.282 155.296 152.082 152.237 146.5Z" fill="#001E42"/>
<path d="M164.399 154.949C162.793 152.007 159.962 147.858 156.214 146.5H148.182C148.182 146.5 144.74 154.421 155.449 154.421C159.962 154.421 160.804 157.212 160.804 160.305L161 164H164.5C164.5 164 165.087 156.156 164.399 154.949Z" fill="#012456"/>
<path d="M0.0981927 245.78C0.0443885 247.81 1.67494 249.484 3.70517 249.484H316.179C318.134 249.484 319.734 247.926 319.786 245.971V245.971C319.84 243.942 318.209 242.268 316.179 242.268H3.70517C1.74963 242.268 0.150017 243.825 0.0981927 245.78V245.78Z" fill="#0244A3"/>
<path d="M161 167H168V166.189C168 165.784 167.711 165.378 167.278 165.378C166.773 165.378 166.268 165.216 165.763 164.973L164.5 164H161V167Z" fill="#001524"/>
<path d="M168 167H161V168H168V167Z" fill="#707070"/>
<path d="M148 178.319H154.165V177.692C154.165 177.379 153.911 177.065 153.529 177.065C153.084 177.065 152.64 176.94 152.195 176.752L150.797 176H148V178.319Z" fill="#001524"/>
<path d="M154.164 178.318H148V178.82H154.164V178.318Z" fill="#707070"/>
<path d="M143.171 33.355C143.171 33.355 135.293 35.8167 134.839 35.6526C134.384 35.4885 126.431 31.96 126.052 32.9447C125.37 34.5858 131.582 39.3453 135.218 38.1964C138.854 37.0476 143.777 34.5038 143.777 34.5038L143.171 33.355Z" fill="#FFB5BE"/>
<path d="M141.58 34.9967C141.808 36.0635 143.02 36.4738 144.307 35.9814C145.595 35.4891 146.504 34.2582 146.277 33.1914C146.05 32.1247 144.838 31.7144 143.55 32.2067C142.262 32.6991 141.353 33.93 141.58 34.9967Z" fill="#FFB5BE"/>
<path d="M193.022 16.9203L170.843 25.381V6.76758L193.022 16.9203Z" fill="#FEB261"/>
<path d="M170.843 25.3806L175.164 17.5466L170.843 16.9199V25.3806Z" fill="#D63700"/>
<path d="M175.164 17.548L144.978 18.6134V0L175.164 3.88563V17.548Z" fill="#FFB34C"/>
<path d="M144.978 0V74.1403" stroke="#FEB261" stroke-miterlimit="10"/>
<path d="M142.582 37.1482C142.582 38.1119 143.634 38.9273 144.987 38.9273C146.34 38.9273 147.393 38.1119 147.393 37.1482C147.393 36.1846 146.34 35.3691 144.987 35.3691C143.71 35.3691 142.582 36.1846 142.582 37.1482Z" fill="#FFB5BE"/>
<path d="M128.403 28.4561L131.157 28.8379L131.743 24.727L128.989 24.3452L128.403 28.4561Z" fill="#FFB5BE"/>
<path d="M130.631 27.6595C129.203 27.2147 128.526 25.3615 129.127 23.4342C129.729 21.581 131.382 20.3949 132.811 20.8397C134.239 21.2844 135.366 23.5824 134.765 25.5097L134.164 25.3615C133.562 27.0664 131.984 28.1042 130.631 27.6595Z" fill="#FFB5BE"/>
<path d="M135.441 45.2269H124.918C124.918 45.2269 125.519 30.7719 126.947 28.548C127.699 27.2879 131.232 28.0291 133.111 30.4754C134.539 32.4027 134.84 36.4797 135.441 45.2269Z" fill="#003C77"/>
<path d="M143.936 36.6273C143.936 36.6273 135.818 36.3308 135.442 36.0343C135.066 35.7378 128.602 30.3264 127.925 31.0677C126.798 32.2538 131.383 38.2582 135.066 38.3323C138.825 38.4064 144.161 37.7393 144.161 37.7393L143.936 36.6273Z" fill="#FFB5BE"/>
<path d="M135.442 45.2285C135.442 45.2285 136.344 56.1254 129.654 64.1312C127.7 66.4292 125.445 68.7271 125.445 68.7271L122.438 67.3187L129.278 54.4945C129.278 54.4945 129.579 52.7155 129.579 50.714C129.579 48.7125 129.353 46.4887 128.226 45.3026H135.442V45.2285Z" fill="#001E42"/>
<path d="M124.994 45.2285C124.994 45.2285 123.792 49.1573 127.324 50.4916C128.377 50.8623 129.579 51.3812 130.256 52.1966C131.91 54.1239 132.285 56.2736 132.285 58.794L132.06 70.8027H135.367L137.171 57.089C137.171 57.089 137.472 52.7896 135.367 49.528C133.112 46.1181 131.534 45.2285 131.534 45.2285H124.994Z" fill="#012456"/>
<path d="M130.057 23.864C129.367 23.7117 129.007 25.3645 128.913 26.2099C128.87 26.3508 128.666 26.3281 128.677 26.1837L128.818 24.3605C128.881 23.547 129.002 22.7262 129.289 21.9442C129.684 20.8646 130.385 19.6881 131.965 19.8258C134.76 20.0692 134.73 21.6802 134.829 21.7089C134.909 21.7318 135.109 21.5863 135.199 21.5106C135.198 21.5946 135.083 21.8095 135.025 21.9064C135.267 21.8352 135.334 21.4438 135.337 21.257C135.757 23.0495 134.839 23.5622 134.327 23.5945C133.943 23.3272 133.081 22.8616 132.703 23.1373C132.23 23.482 132.397 23.4715 131.728 23.5836C131.193 23.6734 130.862 24.781 130.763 25.3236L130.751 25.919L130.262 25.3552C130.569 24.6082 130.253 24.0499 130.057 23.864Z" fill="#393939"/>
<path d="M132.435 33.7371L130.857 36.4058L128 34.0337C126.271 32.3287 126.798 29.6601 129.879 31.7357L132.435 33.7371Z" fill="#09468E"/>
<path d="M132.134 73.5455H139.425V72.8042C139.425 72.4336 139.125 72.0629 138.674 72.0629C138.148 72.0629 137.621 71.9147 137.095 71.6923L135.442 70.8027H132.134V73.5455Z" fill="#001524"/>
<path d="M139.425 73.5469H132.134V74.1399H139.425V73.5469Z" fill="#707070"/>
<path d="M121.235 69.6922L127.774 72.8056L128.075 72.1385C128.225 71.7678 128.075 71.323 127.699 71.1748C127.173 70.9524 126.797 70.5818 126.421 70.137L125.294 68.5803L122.287 67.1719L121.235 69.6922Z" fill="#001524"/>
<path d="M127.838 72.8486L121.259 69.748L121 70.2831L127.579 73.3836L127.838 72.8486Z" fill="#707070"/>
<path d="M162.38 216.808C161.405 216.364 160.805 215.477 161.105 214.811C161.405 214.146 162.455 213.924 163.429 214.368C164.404 214.811 165.004 215.699 164.704 216.364C164.479 217.03 163.429 217.177 162.38 216.808Z" fill="#EBA883"/>
<path d="M180.6 213.479C180.6 213.479 176.326 217.915 174.227 217.841C172.127 217.767 164.704 215.179 164.704 215.179L163.879 217.324C163.879 217.324 173.852 221.908 177.751 220.06C181.65 218.285 184.574 215.327 184.574 215.327L180.6 213.479Z" fill="#DF9126"/>
<path d="M160.73 223.017C159.68 222.795 158.93 222.056 159.005 221.316C159.155 220.577 160.13 220.207 161.255 220.429C162.379 220.651 163.054 221.39 162.979 222.13C162.829 222.869 161.854 223.239 160.73 223.017Z" fill="#EBA883"/>
<path d="M177.375 214.29C178.35 213.181 177.825 211.185 176.325 210.002C174.751 208.745 172.801 208.671 171.826 209.78C170.852 210.889 171.214 213.289 172.726 214.734L173.101 214.29C174.601 215.326 176.475 215.326 177.375 214.29Z" fill="#EBA883"/>
<path d="M180 213.18L183.749 214.954C183.749 214.954 191.547 218.134 192.446 223.458L184.648 224.493L182.099 222.275C182.099 222.275 179.55 223.088 178.05 221.018C176.475 219.021 180 213.18 180 213.18Z" fill="#FFB34C"/>
<path d="M179.999 213.18C179.999 213.18 174.675 221.314 172.576 221.683C170.477 222.053 162.679 221.018 162.679 221.018L162.304 223.31C162.304 223.31 172.951 225.75 176.4 223.236C179.849 220.722 183.598 215.028 183.598 215.028L179.999 213.18Z" fill="#FFB34C"/>
<path d="M192.372 223.461C192.372 223.461 194.172 228.341 191.322 230.116C188.548 231.891 188.698 236.623 188.698 236.623L196.571 234.996V238.102L186.674 241.06L184.499 239.137C184.499 239.137 181.95 226.714 187.274 224.2L192.372 223.461Z" fill="#D87069"/>
<path d="M192.372 223.461C192.372 223.461 193.497 230.634 186.373 229.82C179.25 229.007 182.924 232.112 182.924 232.112L185.174 234.774C186.224 236.031 186.973 237.436 187.348 238.989L187.423 239.211H184.274C184.274 239.211 167.029 226.788 181.425 225.753C185.024 225.31 184.574 224.496 184.574 224.496L192.372 223.461Z" fill="#D65A5A"/>
<path d="M180 213.183L177.675 212.369L177.375 214.292L178.5 215.327L180 213.183Z" fill="#EBA883"/>
<path d="M187.348 241.797H185.998V241.205H185.848C185.398 241.205 184.948 241.279 184.498 241.501L183.749 241.797H181.049C180.674 241.797 180.375 241.501 180.375 241.132C180.375 240.762 180.674 240.466 181.049 240.466C181.574 240.466 182.099 240.318 182.549 240.096L184.124 239.209H187.273V241.797H187.348Z" fill="#001524"/>
<path d="M199.27 234.922V236.253H198.67V236.401C198.67 236.844 198.745 237.288 198.97 237.732L199.27 238.471V241.133C199.27 241.503 198.97 241.799 198.595 241.799C198.22 241.799 197.92 241.503 197.92 241.133C197.92 240.616 197.77 240.098 197.546 239.654L196.571 238.028V234.922H199.27Z" fill="#001524"/>
<path d="M96 117H108.242C108.242 117 110.477 104.42 107.271 103.577C104.064 102.733 99.2063 102.886 97.5546 103.577C96 104.344 96 117 96 117Z" fill="#D65A5A"/>
<path d="M102.806 105.66C102.014 105.66 101.311 105.086 101.311 104.439V101.496C101.311 100.85 102.014 100.275 102.806 100.275C103.598 100.275 104.302 100.85 104.302 101.496V104.439C104.302 105.157 103.686 105.66 102.806 105.66Z" fill="#FFB5BE"/>
<path d="M105.503 94.7197C104.703 94.0479 103.381 93.9445 102.366 94.022C100.92 94.0995 99.3825 94.668 98.6443 95.8049C97.3218 97.8979 100.182 101.076 102.704 100.999C103.012 100.999 103.319 100.921 103.565 100.766C103.873 100.559 103.904 100.249 104.027 99.965C104.119 99.81 104.211 99.6808 104.334 99.5516C104.734 99.0865 105.196 98.6472 105.595 98.1563C105.965 97.6653 106.272 97.0969 106.303 96.5026C106.364 95.7791 106.026 95.1589 105.503 94.7197Z" fill="#393939"/>
<path d="M105.257 95.2197C105.257 95.2197 107.061 99.1791 105.947 100.831C105.947 100.831 103.639 101.644 102.073 99.7036C100.481 97.737 101.304 94.066 105.257 95.2197Z" fill="#FFB5BE"/>
<path d="M101.393 98.6675C101.393 98.6675 101.316 101.836 104.31 102.774C104.31 102.774 102.519 103.23 101.496 102.774C100.114 102.14 100.267 104.827 98.7578 103.737C98.7578 103.737 97.8622 98.7182 98.6043 96.3103C99.3463 93.9025 104.31 95.55 104.31 95.55L101.393 98.6675Z" fill="#393939"/>
<path d="M106.895 104.008C106.895 104.008 113.757 106.664 111.558 114.92C109.358 123.248 108.303 126.551 108.303 126.551L106.807 116.5V104.008H106.895Z" fill="#D87069"/>
<path d="M98.0973 104.008C98.0973 104.008 91.2353 106.664 93.4347 114.92C95.6341 123.248 96.6897 126.551 96.6897 126.551V116.5L98.0973 104.008Z" fill="#D87069"/>
<path d="M96.7773 116.502H102.76L102.672 147.086H100.648C100.648 147.086 98.097 124.04 96.7773 116.502Z" fill="#FFB5BE"/>
<path d="M102.672 116.502L104.168 147.086H106.191C106.191 147.086 106.719 122.174 107.687 116.502H102.672Z" fill="#FFB5BE"/>
<path d="M102.672 149.097H101.616V148.666H101.528C101.176 148.666 100.736 148.738 100.384 148.881L99.7686 149.097H97.6572C97.3053 149.097 97.1294 148.881 97.1294 148.666C97.1294 148.379 97.3933 148.235 97.6572 148.235C98.0971 148.235 98.537 148.163 98.8889 147.948L100.736 147.158H102.76V149.097H102.672Z" fill="#001524"/>
<path d="M104.167 149.097H105.222V148.666H105.31C105.662 148.666 106.102 148.738 106.454 148.881L107.07 149.097H109.269C109.621 149.097 109.797 148.881 109.797 148.666C109.797 148.379 109.533 148.235 109.269 148.235C108.829 148.235 108.389 148.163 108.037 147.948L106.19 147.158H104.167V149.097V149.097Z" fill="#001524"/>
<path d="M108.214 133.447H96.6898C94.4904 127.991 95.5461 122.248 96.6018 116.576H107.687C109.798 123.109 110.502 128.207 108.214 133.447Z" fill="#4E5282"/>
<path d="M101 103.434L100.121 103.505L101 106.305L102.496 105.587L103.991 106.305L105.135 103.577C105.135 103.577 104.695 103.505 104.519 103.505C104.431 103.505 103.991 103.434 103.991 103.434L102.496 105.228L101 103.434Z" fill="white"/>
<g opacity="0.2">
<path fill-rule="evenodd" clip-rule="evenodd" d="M106.722 31.2843C105.51 27.0796 101.587 24 96.9355 24C91.9959 24 87.8786 27.4722 86.9563 32.0767C86.1138 31.7913 85.2098 31.6364 84.269 31.6364C79.7022 31.6364 76 35.2874 76 39.7912C76 43.613 78.6659 46.8207 82.2638 47.7045C82.6876 47.86 83.1455 47.9448 83.6232 47.9448H84.1303C84.1764 47.9456 84.2227 47.946 84.269 47.946C84.3154 47.946 84.3616 47.9456 84.4078 47.9448H118.648C120.828 47.9448 122.596 46.1773 122.596 43.9969C122.596 41.8165 120.828 40.0489 118.648 40.0489H116.291C116.465 39.4311 116.558 38.7802 116.558 38.1079C116.558 34.1045 113.267 30.8592 109.208 30.8592C108.335 30.8592 107.498 31.0091 106.722 31.2843Z" fill="#E0E8EC"/>
</g>
<g opacity="0.5">
<path fill-rule="evenodd" clip-rule="evenodd" d="M34.4454 82.7687C36.0361 77.2429 41.1906 73.1953 47.3037 73.1953C53.794 73.1953 59.2037 77.7576 60.4152 83.8077C61.5221 83.4328 62.7098 83.2293 63.9456 83.2293C69.9459 83.2293 74.8101 88.0262 74.8101 93.9436C74.8101 98.9608 71.3132 103.173 66.5919 104.338C66.0318 104.545 65.4263 104.658 64.7944 104.658H64.0042L63.9456 104.658L63.887 104.658H18.777C15.9122 104.658 13.5899 102.335 13.5899 99.4706C13.5899 96.6059 15.9122 94.2836 18.777 94.2836H21.8722C21.6442 93.4722 21.5224 92.6172 21.5224 91.7343C21.5224 86.4744 25.8461 82.2104 31.1796 82.2104C32.3258 82.2104 33.4253 82.4073 34.4454 82.7687Z" fill="#DCEDF4"/>
<path fill-rule="evenodd" clip-rule="evenodd" d="M48.1222 88.5498C49.713 83.024 54.8675 78.9766 60.9805 78.9766C67.4706 78.9766 72.8802 83.5387 74.0919 89.5885C75.1988 89.2136 76.3865 89.0101 77.6224 89.0101C83.6226 89.0101 88.4868 93.8071 88.4868 99.7244C88.4868 104.742 84.9892 108.954 80.2672 110.119C79.7074 110.326 79.1022 110.439 78.4706 110.439H77.681L77.6224 110.439L77.5638 110.439H32.4532C29.5885 110.439 27.2662 108.116 27.2662 105.251C27.2662 102.387 29.5885 100.064 32.4532 100.064H35.5485C35.3205 99.253 35.1986 98.3981 35.1986 97.5151C35.1986 92.2552 39.5224 87.9913 44.8559 87.9913C46.0023 87.9913 47.102 88.1883 48.1222 88.5498Z" fill="#F0FAFC"/>
</g>
</svg>
