<svg width="318" height="250" viewBox="0 0 318 250" fill="none" xmlns="http://www.w3.org/2000/svg">
<path d="M54.1783 246.28C208.294 246.28 260.204 248.447 295.803 248.447C342.897 176.804 305.532 120.83 271.519 68.0028C237.505 15.1752 140.069 -33.7011 109.545 30.7051C79.0203 95.1113 82.4812 66.0662 48.7502 99.1788C14.0358 133.257 17.1742 138.239 11.2617 172.616C10.8812 174.829 6.60116 216.135 10.5248 229.581C17.4402 253.28 36.0151 246.28 54.1783 246.28Z" fill="#C1D3F0"/>
<path opacity="0.6" d="M8.93141 221.115C10.8254 241.533 18.4903 247.275 45.3431 247.275C111.13 247.275 145.393 248.887 177.709 249.442C250.751 250.696 271.983 249.442 295.807 249.442C341.267 179.286 293.514 121.65 260.681 69.9185C227.849 18.1873 137.58 -29.8839 108.115 33.1856C78.65 96.2552 85.9702 67.4849 49.6642 96.3124C10.9083 127.085 15.7005 153.587 9.99318 187.25C8.89122 193.75 7.86891 209.661 8.93141 221.115Z" fill="#E9EDFD"/>
<rect x="15.4468" y="240.236" width="280.765" height="8.7878" rx="4.3939" fill="#4147C9"/>
<path d="M112.619 170.935C115.33 148.256 102.952 148.11 94.9382 151.374C94.1602 151.69 93.2907 151.025 93.4542 150.201C97.5807 129.399 104.171 88.2501 100.384 74.8232C96.7617 61.9785 82.3855 67.9511 74.1187 73.4975C73.3927 73.9846 72.4009 73.4015 72.4984 72.5326C76.1205 40.2363 80.1051 14.6916 50.2208 12.0832C26.3249 9.99749 23.8197 47.6288 25.6143 68.0424C25.6757 68.7418 25.0029 69.2798 24.3201 69.1163C2.3553 63.8557 4.62823 82.1547 8.62184 92.1762C14.7393 113.979 25.0167 155.984 17.1863 149.576C9.49854 143.286 4.32663 146.774 2.59697 149.43C2.53358 149.527 2.49123 149.64 2.46819 149.754C-12.0892 221.669 41.6723 227 61.2322 227C80.8082 227 108.949 201.637 112.619 170.935Z" fill="#82B7FB"/>
<path d="M50.1172 54.4316C51.8626 96.8927 51.7292 195.7 50.1169 244L61 244C57.3723 148.126 48.908 25.0154 50.1172 54.4316Z" fill="#3A5CA6"/>
<path d="M58.9634 214.773C70.8264 206.574 95.7797 186.488 100.689 171.73" stroke="#3A5CA6" stroke-linecap="round"/>
<path d="M52.8276 203.705C43.0581 197.146 22.5083 181.077 18.4658 169.271" stroke="#3A5CA6" stroke-linecap="round"/>
<path d="M55.2827 137.298C66.4479 129.802 89.9333 111.438 94.5534 97.9453" stroke="#3A5CA6" stroke-linecap="round"/>
<path d="M55.2827 154.512C48.3045 149.828 21.354 105.146 18.4664 96.7129" stroke="#3A5CA6" stroke-linecap="round"/>
<path d="M87.219 164.354C86.81 172.552 90.4098 187.719 108.082 182.8" stroke="#3A5CA6" stroke-width="0.5" stroke-linecap="round"/>
<path d="M70.0384 181.568C69.6293 189.767 73.2291 204.934 90.9009 200.015" stroke="#3A5CA6" stroke-width="0.5" stroke-linecap="round"/>
<path d="M72.4935 100.404C72.0844 108.603 75.6842 123.77 93.356 118.851" stroke="#3A5CA6" stroke-width="0.5" stroke-linecap="round"/>
<path d="M40.5304 117.619C40.8668 123.853 37.9065 135.387 23.3742 131.646" stroke="#3A5CA6" stroke-width="0.5" stroke-linecap="round"/>
<path d="M35.6222 171.73C35.9586 177.965 32.9983 189.498 18.466 185.757" stroke="#3A5CA6" stroke-width="0.5" stroke-linecap="round"/>
<line y1="-3.5" x2="88.9245" y2="-3.5" transform="matrix(-0.120748 0.992683 -0.992941 -0.118612 96.2139 154.713)" stroke="#47484A" stroke-width="7"/>
<line y1="-3.5" x2="91.0598" y2="-3.5" transform="matrix(-0.121494 0.992592 -0.992739 -0.120289 42.063 151.904)" stroke="#47484A" stroke-width="7"/>
<path d="M109.023 88.8551C108.643 85.8579 106.092 83.6113 103.071 83.6113H46.9044C43.2905 83.6113 40.4968 86.7825 40.9522 90.3675L51.2425 171.365C51.6232 174.362 54.1733 176.608 57.1946 176.608H113.361C116.975 176.608 119.769 173.437 119.314 169.852L109.023 88.8551Z" fill="#47484A"/>
<line y1="-3.5" x2="91.6218" y2="-3.5" transform="matrix(0.128448 0.991716 0.993627 -0.112714 54.2031 152.605)" stroke="#47484A" stroke-width="7"/>
<line y1="-3.5" x2="88.5976" y2="-3.5" transform="matrix(0.0854055 0.996346 -0.996476 0.0838842 108.354 156.113)" stroke="#47484A" stroke-width="7"/>
<path d="M108.045 89.9074C108.215 86.4816 105.483 83.6113 102.053 83.6113H45.8041C42.6055 83.6113 39.9693 86.1205 39.8114 89.3153L35.8097 170.312C35.6404 173.738 38.3724 176.608 41.8024 176.608H98.0509C101.25 176.608 103.886 174.099 104.044 170.905L108.045 89.9074Z" fill="#47484A"/>
<path d="M106.733 91.4367C106.903 88.0109 104.171 85.1406 100.741 85.1406H46.952C43.7534 85.1406 41.1172 87.6498 40.9593 90.8445L37.1232 168.477C36.9539 171.902 39.6859 174.773 43.1159 174.773H96.9045C100.103 174.773 102.739 172.264 102.897 169.069L106.733 91.4367Z" fill="#A6A6A6"/>
<path d="M54.0542 161.506L60.6854 152.436L65.4962 158.007L54.4443 164.616L54.0542 161.506Z" fill="#D9142B"/>
<path fill-rule="evenodd" clip-rule="evenodd" d="M53.2949 167.726H54.4857C55.2086 166.488 56.6543 163.165 56.6543 159.777C56.6543 156.389 54.3864 153.644 53.2525 152.695V152.724L53.2524 152.696C52.1185 153.644 49.8931 156.389 49.8931 159.777C49.8931 163.165 51.3389 166.488 52.0618 167.726H53.2949L53.2949 167.726Z" fill="#FF455B"/>
<mask id="mask0" mask-type="alpha" maskUnits="userSpaceOnUse" x="49" y="152" width="8" height="16">
<path fill-rule="evenodd" clip-rule="evenodd" d="M53.2949 167.726H54.4857C55.2086 166.488 56.6543 163.165 56.6543 159.777C56.6543 156.389 54.3864 153.644 53.2525 152.695V152.724L53.2524 152.696C52.1185 153.644 49.8931 156.389 49.8931 159.777C49.8931 163.165 51.3389 166.488 52.0618 167.726H53.2949L53.2949 167.726Z" fill="#D75720"/>
</mask>
<g mask="url(#mask0)">
<rect x="48.853" y="157.359" width="9.10161" height="7.77464" fill="#FFD262"/>
<rect x="42.6118" y="157.359" width="21.5838" height="0.518303" fill="#382FAC"/>
<rect x="42.6118" y="164.875" width="21.5838" height="0.518311" fill="#382FAC"/>
</g>
<path d="M80.3179 161.506L73.6867 152.436L68.8758 158.007L79.9278 164.616L80.3179 161.506Z" fill="#D9142B"/>
<path fill-rule="evenodd" clip-rule="evenodd" d="M81.0771 167.726H79.8869C79.164 166.488 77.7182 163.165 77.7182 159.777C77.7182 156.389 79.9856 153.645 81.1197 152.696L81.1197 152.695C81.1197 152.695 81.1198 152.695 81.1198 152.696C81.1199 152.695 81.12 152.695 81.1201 152.695V152.696C82.2542 153.645 84.479 156.389 84.479 159.777C84.479 163.165 83.0332 166.488 82.3103 167.726H81.0771L81.0771 167.726Z" fill="#FF455B"/>
<mask id="mask1" mask-type="alpha" maskUnits="userSpaceOnUse" x="77" y="152" width="8" height="16">
<path fill-rule="evenodd" clip-rule="evenodd" d="M81.0771 167.726H79.8869C79.164 166.488 77.7182 163.165 77.7182 159.777C77.7182 156.389 79.9856 153.645 81.1197 152.696L81.1197 152.695C81.1197 152.695 81.1198 152.695 81.1198 152.696C81.1199 152.695 81.12 152.695 81.1201 152.695V152.696C82.2542 153.645 84.479 156.389 84.479 159.777C84.479 163.165 83.0332 166.488 82.3103 167.726H81.0771L81.0771 167.726Z" fill="#D75720"/>
</mask>
<g mask="url(#mask1)">
<rect width="9.10161" height="7.77464" transform="matrix(-1 0 0 1 85.5195 157.359)" fill="#FEB261"/>
<rect width="21.5838" height="0.518311" transform="matrix(-1 0 0 1 91.7598 157.359)" fill="#382FAC"/>
<rect width="21.5838" height="0.518307" transform="matrix(-1 0 0 1 91.7598 164.875)" fill="#382FAC"/>
</g>
<path fill-rule="evenodd" clip-rule="evenodd" d="M67.0556 162.414H63.4154C61.205 157.792 56.7842 145.387 56.7842 132.74C56.7842 120.094 63.5882 109.849 67.0556 106.307V106.307C67.0557 106.307 67.0557 106.307 67.0558 106.307C67.0559 106.307 67.0559 106.307 67.056 106.307L67.056 106.307C70.5234 109.849 77.4575 120.094 77.4575 132.74C77.4575 145.387 73.0367 157.792 70.8263 162.414H67.186H67.0556Z" fill="#FFD262"/>
<path d="M70.8268 162.414H67.0562V106.307C70.5234 109.848 77.458 120.094 77.458 132.74C77.458 145.387 73.0372 157.792 70.8268 162.414Z" fill="#FEB261"/>
<mask id="mask2" mask-type="alpha" maskUnits="userSpaceOnUse" x="56" y="106" width="22" height="57">
<path fill-rule="evenodd" clip-rule="evenodd" d="M67.0556 162.414H63.4154C61.205 157.792 56.7842 145.387 56.7842 132.74C56.7842 120.094 63.5882 109.849 67.0556 106.307V106.307C67.0557 106.307 67.0557 106.307 67.0558 106.307C67.0559 106.307 67.0559 106.307 67.056 106.307L67.056 106.307C70.5234 109.849 77.4575 120.094 77.4575 132.74C77.4575 145.387 73.0367 157.792 70.8263 162.414H67.186H67.0556Z" fill="#FEFFFB"/>
</mask>
<g mask="url(#mask2)">
<rect x="56.6548" y="104.492" width="21.5838" height="15.2901" fill="#FF455B"/>
<rect x="56.3936" y="119.523" width="21.5838" height="1.55493" fill="#382FAC"/>
<rect x="56.3936" y="161.248" width="21.5838" height="1.55493" fill="#382FAC"/>
</g>
<mask id="mask3" mask-type="alpha" maskUnits="userSpaceOnUse" x="56" y="106" width="22" height="57">
<path fill-rule="evenodd" clip-rule="evenodd" d="M67.0556 162.414H63.4154C61.205 157.792 56.7842 145.387 56.7842 132.74C56.7842 120.094 63.5882 109.849 67.0556 106.307V106.307C67.0557 106.307 67.0557 106.307 67.0558 106.307C67.0559 106.307 67.0559 106.307 67.056 106.307L67.056 106.307C70.5234 109.849 77.4575 120.094 77.4575 132.74C77.4575 145.387 73.0367 157.792 70.8263 162.414H67.186H67.0556Z" fill="#FEFFFB"/>
</mask>
<g mask="url(#mask3)">
<ellipse cx="67.0555" cy="128.594" rx="5.72101" ry="5.70141" fill="#363636"/>
<mask id="mask4" mask-type="alpha" maskUnits="userSpaceOnUse" x="61" y="122" width="12" height="13">
<ellipse cx="67.0555" cy="128.594" rx="5.72101" ry="5.70141" fill="white" fill-opacity="0.2"/>
</mask>
<g mask="url(#mask4)">
<path d="M69.535 118.426L72.1094 120.991L60.1907 132.869L57.6162 130.304L69.535 118.426Z" fill="white" fill-opacity="0.2"/>
<path d="M74.97 122.132L62.0023 135.055L62.7651 136.195L75.9235 123.082L74.97 122.132Z" fill="white" fill-opacity="0.2"/>
<path d="M76.4956 124.412L64.0047 136.86L66.5791 139.616L79.1654 127.073L76.4956 124.412Z" fill="white" fill-opacity="0.2"/>
</g>
</g>
<rect width="24.286" height="3.97685" rx="1.98843" transform="matrix(-1 0 0 1 86.04 83)" fill="#47484A"/>
<ellipse rx="1.31275" ry="1.22365" transform="matrix(-1 0 0 1 82.7576 85.1416)" fill="white"/>
<ellipse rx="1.31275" ry="1.22365" transform="matrix(-1 0 0 1 64.7073 85.1416)" fill="white"/>
<path d="M67.6616 106.098V96.3086H56.8314" stroke="white" stroke-dasharray="6 6"/>
<path d="M77.835 131.334H92.9316V109.461" stroke="white" stroke-dasharray="6 6"/>
<path d="M51.4165 163.454H46.4937V139.287" stroke="white" stroke-dasharray="6 6"/>
<rect width="11.4866" height="0.305912" transform="matrix(-1 0 0 1 54.5337 100.133)" fill="white"/>
<rect width="11.1584" height="1.52956" transform="matrix(-1 0 0 1 54.5337 95.541)" fill="white"/>
<rect width="11.1584" height="0.305912" transform="matrix(-1 0 0 1 54.5337 97.6836)" fill="white"/>
<rect width="11.1584" height="0.305912" transform="matrix(-1 0 0 1 54.5337 98.2949)" fill="white"/>
<rect width="8.5329" height="0.305912" transform="matrix(-1 0 0 1 54.5337 98.9062)" fill="white"/>
<rect width="9.51747" height="0.305912" transform="matrix(-1 0 0 1 54.5337 99.5176)" fill="white"/>
<rect width="5.90739" height="0.305912" transform="matrix(-1 0 0 1 54.5337 100.742)" fill="white"/>
<rect width="8.86109" height="0.305912" transform="matrix(-1 0 0 1 54.5337 101.354)" fill="white"/>
<rect x="86.0391" y="101.662" width="11.1584" height="1.52956" fill="white"/>
<rect x="86.0396" y="103.803" width="11.1584" height="0.305912" fill="white"/>
<rect x="86.0396" y="104.414" width="11.1584" height="0.305912" fill="white"/>
<rect x="86.0396" y="105.025" width="8.5329" height="0.305912" fill="white"/>
<rect x="86.0396" y="105.639" width="9.51747" height="0.305912" fill="white"/>
<rect x="86.0396" y="106.861" width="5.90739" height="0.305912" fill="white"/>
<rect x="86.0396" y="107.473" width="8.86109" height="0.305912" fill="white"/>
<rect x="42.064" y="131.334" width="11.1584" height="1.52956" fill="white"/>
<rect x="42.0625" y="133.477" width="11.1584" height="0.305912" fill="white"/>
<rect x="42.0625" y="134.088" width="11.1584" height="0.305912" fill="white"/>
<rect x="42.0625" y="134.699" width="8.5329" height="0.305912" fill="white"/>
<rect x="42.0625" y="135.311" width="9.51747" height="0.305912" fill="white"/>
<rect x="42.0625" y="136.535" width="5.90739" height="0.305912" fill="white"/>
<rect x="42.0625" y="137.146" width="8.86109" height="0.305912" fill="white"/>
<path d="M192.847 231.842C192.749 231.03 192.359 230.218 191.968 229.407C191.87 229.136 191.089 226.972 191.089 226.701C190.893 223.004 191.479 212.904 191.479 212.904H180.54C180.54 212.904 182.2 221.652 180.735 226.792C175.949 229.317 167.353 232.743 167.353 232.743C167.353 232.743 157.585 234.276 157.097 234.547C156.609 234.727 155.339 235.088 153.874 236.351C153.874 236.351 152.799 238.695 165.009 240.318C165.009 240.318 170.283 241.31 178.684 240.048C180.54 239.867 182.298 239.687 184.154 239.507C186.01 239.326 191.675 239.146 192.359 238.605C192.652 238.425 192.847 238.244 192.945 237.974C194.019 236.441 193.042 233.555 192.847 231.842Z" fill="#FFB5BE"/>
<path d="M192.237 229.59C192.135 229.489 191.564 228.143 191.26 227.336C190.771 227.787 191.418 227.389 190.911 227.591C186.145 230.111 181.779 229.798 176.608 228.688C176.507 228.688 175.733 229.24 175.631 229.139C171.474 231.156 167.184 232.43 167.184 232.43C167.184 232.43 157.044 234.144 156.537 234.447C156.03 234.648 154.711 235.052 153.191 236.463C153.191 236.463 152.075 239.084 164.75 240.899C164.75 240.899 170.225 242.008 178.946 240.597C180.872 240.395 182.697 240.193 184.624 239.992C186.551 239.79 192.432 239.589 193.142 238.984C193.446 238.782 193.649 238.58 193.75 238.278C194.764 236.463 193.517 233.76 193.213 231.845C193.315 230.937 192.541 230.497 192.237 229.59Z" fill="#1D104A"/>
<path d="M180.051 158.438C180.051 158.438 177.512 158.348 177.609 164.661C177.805 170.973 181.126 222.014 181.126 222.014L191.284 223.006C191.284 223.006 199.684 185.762 192.163 163.939C192.163 163.939 189.33 154.29 180.051 158.438Z" fill="#F55669"/>
<path d="M199.49 116.867C198.904 116.506 198.317 116.145 197.634 115.875C194.801 114.793 191.773 115.875 188.745 116.055C180.638 116.596 178.489 133.189 178.294 142.297C178.098 152.036 176.145 159.882 179.954 168.99C181.126 171.695 183.08 174.49 186.108 174.941C188.452 175.302 190.894 174.04 192.359 172.326C193.922 170.613 194.703 168.449 195.485 166.374C198.611 157.447 200.955 148.249 203.299 139.141C204.374 134.902 205.546 130.574 205.057 126.336C204.569 122.548 202.615 118.851 199.49 116.867Z" fill="#F55669"/>
<path d="M178.195 113.352C179.269 113.713 188.842 100.276 189.135 99.1037C190.795 94.3243 198.609 69.7058 184.446 75.387C182.297 76.2887 181.028 78.0923 180.246 79.8057C177.023 87.561 171.162 104.695 171.162 104.695L178.195 113.352Z" fill="#7B75EC"/>
<path d="M178.781 107.397C177.902 105.504 175.362 105.594 173.311 105.413C168.525 104.963 147.329 116.325 147.329 116.325L143.129 116.505L138.929 115.784L136.291 115.333C135.51 115.153 134.826 114.792 134.24 114.341C133.947 114.161 133.654 113.8 133.361 113.62C133.068 113.529 132.775 113.529 132.579 113.71C132.482 113.89 132.384 114.071 132.384 114.251C132.384 114.972 132.872 115.694 133.654 116.054C133.947 116.235 134.24 116.235 134.533 116.415C134.826 116.505 135.119 116.686 135.314 116.866C135.51 117.046 135.705 117.317 135.607 117.678C135.51 118.038 135.217 118.129 134.924 118.129C134.533 118.129 134.045 118.219 133.654 118.309C133.361 118.399 133.166 118.399 132.873 118.489C132.677 118.489 132.384 118.579 132.091 118.67C131.7 118.76 131.407 118.76 131.017 118.85C127.793 119.301 126.621 118.219 124.668 119.03C123.495 119.481 125.058 120.022 124.472 121.104C124.082 121.736 128.086 123.088 127.012 123.449C126.035 123.81 127.598 125.613 130.919 126.876C133.849 127.958 135.998 127.597 138.049 127.236C138.245 127.236 138.342 127.236 138.44 127.146L149.771 122.277C151.236 121.555 159.636 119.571 161.199 119.211C162.957 119.12 182.59 115.513 178.781 107.397Z" fill="#FFB5BE"/>
<path d="M150.357 122.725C153.678 121.733 159.147 120.47 160.515 120.2C162.469 119.839 183.86 115.871 179.66 106.944C178.683 104.87 175.948 104.96 173.701 104.779C169.501 104.419 153.775 112.354 147.719 115.42C148.794 117.855 149.673 120.2 150.357 122.725Z" fill="#7B75EC"/>
<path d="M217.071 233.649C216.875 232.838 216.387 232.026 215.899 231.305C215.801 231.124 214.824 228.96 214.726 228.689C214.14 225.082 213.554 214.982 213.554 214.982L202.712 216.065C202.712 216.065 205.349 224.541 204.47 229.862C199.977 232.838 191.87 237.076 191.87 237.076C191.87 237.076 182.395 239.601 181.907 239.871C181.418 240.142 180.246 240.593 178.879 241.946C178.879 241.946 178 244.38 190.405 244.831C190.405 244.831 195.777 245.282 203.982 243.208C205.74 242.847 207.596 242.487 209.354 242.216C211.21 241.855 216.778 241.044 217.461 240.503C217.754 240.322 217.852 240.052 217.95 239.871C218.829 237.978 217.559 235.272 217.071 233.649Z" fill="#FFB5BE"/>
<path d="M215.898 231.394C215.8 231.304 215.507 230.493 215.117 229.861C214.726 230.132 214.335 230.312 213.945 230.583C209.549 233.198 204.567 233.559 199.488 233.108C199.391 233.108 199.293 233.108 199.195 233.108C195.386 235.272 191.772 237.166 191.772 237.166C191.772 237.166 181.979 239.691 181.491 239.961C181.003 240.232 180.148 240.683 178.781 242.035C178.781 242.035 177.902 244.47 190.307 244.921C190.307 244.921 195.679 245.372 203.884 243.298C205.642 242.937 207.498 242.576 209.256 242.306C211.112 241.945 216.679 241.134 217.363 240.592C217.656 240.412 217.754 240.142 217.852 239.961C218.633 238.248 217.363 235.543 216.875 233.829C216.875 233.018 216.386 232.206 215.898 231.394Z" fill="#1D104A"/>
<path d="M195.97 161.866C195.97 161.866 193.43 162.046 194.309 168.269C195.189 174.491 204.37 224.991 204.37 224.991H214.626C214.626 224.991 218.729 187.206 208.668 166.195C208.668 166.104 204.663 156.816 195.97 161.866Z" fill="#F55669"/>
<path d="M210.428 119.032C206.619 116.958 202.125 117.409 198.511 119.573C193.627 122.459 190.795 127.509 190.209 132.739C189.427 139.863 190.013 147.708 190.99 154.742C191.479 158.53 192.455 162.588 193.725 166.285C194.8 169.441 195.386 173.68 198.609 175.844C200.953 177.377 205.056 177.557 207.4 175.754C209.842 173.95 210.526 170.704 211.112 167.998C211.698 164.932 212.479 161.866 213.065 158.8C214.14 153.57 214.921 148.249 215.996 143.019C217.07 137.969 217.852 132.468 216.679 127.418C215.8 123.721 213.456 120.655 210.428 119.032Z" fill="#F55669"/>
<path d="M219.318 128.139C218.536 122.367 217.169 116.957 217.95 111.095C218.732 105.143 219.513 99.1918 220.392 93.24C220.783 90.7151 221.467 88.0999 221.76 85.6651C222.15 82.3285 220.392 79.4428 218.146 77.0982C216.192 75.0241 213.75 72.5893 211.406 70.9661C211.308 70.876 211.21 70.876 211.113 70.7858C210.234 70.1545 209.452 70.3349 208.475 69.884C204.373 67.9903 198.708 67.9001 194.605 69.884C191.968 71.1465 189.331 72.409 186.791 73.6715C184.056 75.0241 182.2 78 182.103 81.2464C181.907 88.3704 181.712 95.4043 181.614 102.528C181.614 106.226 182.005 109.833 181.419 113.53C180.54 118.309 176.437 124.351 176.535 131.385C176.535 133.82 177.609 133.279 179.661 133.82C185.033 135.263 194.312 135.443 199.684 136.345C204.959 137.247 214.238 138.058 219.415 136.706C222.932 135.804 219.806 131.475 219.318 128.139Z" fill="#7873D7"/>
<path d="M195.581 80.4342L202.418 74.5727L195.679 73.4004L195.581 80.4342Z" fill="#FFB5BE"/>
<path d="M208.669 62.0384L208.376 69.6134C208.376 69.6134 206.13 78.7213 195.776 73.5812L196.46 61.6777L208.669 62.0384Z" fill="#FFB5BE"/>
<path d="M211.77 50.7081L208.552 64.1859L208.337 66.0983C201.686 72.2908 193.317 71.6534 191.279 68.7393C189.24 65.9162 190.957 47.4297 190.957 47.4297L211.77 50.7081Z" fill="#FFB5BE"/>
<path d="M190.77 56.4473L190.965 62.3088L187.351 62.399L190.77 56.4473Z" fill="#FFB5BE"/>
<path d="M206.962 67.1753L208.419 69.3478C208.826 69.9539 209.786 69.9163 210.182 69.2789L215.055 61.4266C216.715 58.7507 218.119 55.8456 217.959 52.8018C217.729 48.3977 215.732 42.9933 209.182 40.4643C197.69 36.0277 194.23 41.3814 193.776 41.2894C193.414 41.2159 192.952 40.3616 192.766 39.9436C192.585 40.223 192.559 41.145 192.569 41.5711C191.781 40.8849 192.387 39.4719 192.788 38.8512C187.162 43.9587 189.622 47.3652 191.555 48.43C193.652 48.2703 198.065 48.3548 198.935 49.9706C200.023 51.9902 199.393 51.643 201.764 53.2646C203.66 54.5619 202.5 58.8257 201.683 60.7955L200.404 62.774L203.574 61.8371C204.029 58.8052 206.508 57.5615 207.691 57.3187C210.734 58.1114 208.473 64.22 206.962 67.1753Z" fill="#393939"/>
<path d="M195.583 80.438L192.75 77.6425L195.974 71.8711C195.974 71.8711 195.778 80.3478 195.583 80.438Z" fill="url(#paint0_linear)"/>
<path d="M195.973 71.8692L192.749 77.6406L187.572 78.2718L195.973 71.3281V71.8692Z" fill="url(#paint1_linear)"/>
<path d="M211.406 70.6057L202.322 81.6975L197.438 77.2788L208.964 68.4414L211.406 70.6057Z" fill="url(#paint2_linear)"/>
<path d="M197.437 77.2793L195.581 80.4355L198.902 78.632L197.437 77.2793Z" fill="url(#paint3_linear)"/>
<path d="M154.46 123.177L149.381 124.62L146.06 114.249L151.139 112.807L154.46 123.177Z" fill="url(#paint4_linear)"/>
<path d="M213.653 117.948C214.727 118.219 219.904 100.273 220.197 99.1009C221.272 94.1412 222.444 68.8012 209.062 76.0154C207.011 77.0976 205.936 79.0815 205.448 80.7949C203.299 88.8207 204.08 111.636 204.08 111.636L213.653 117.948Z" fill="#716CCD"/>
<path d="M212.481 111.094C210.918 109.651 207.694 110.192 205.741 110.733C201.15 111.996 183.47 133.548 183.47 133.548L179.661 135.171L175.461 135.983L172.824 136.524C172.042 136.614 171.261 136.524 170.479 136.344C170.089 136.253 169.796 136.073 169.405 135.983C169.112 135.983 168.819 136.073 168.721 136.344C168.623 136.524 168.721 136.704 168.819 136.885C169.112 137.606 169.893 138.057 170.675 138.147C170.968 138.147 171.261 138.147 171.651 138.147C171.945 138.147 172.238 138.147 172.531 138.237C172.824 138.327 173.117 138.598 173.117 138.869C173.214 139.229 172.921 139.41 172.628 139.59C172.238 139.77 171.847 140.041 171.554 140.221C171.358 140.402 171.065 140.492 170.87 140.672C170.675 140.762 170.479 140.943 170.284 141.033C169.991 141.213 169.698 141.394 169.405 141.574C166.67 143.107 165.009 142.476 163.642 143.918C162.763 144.73 164.423 144.73 164.326 145.993C164.228 146.714 168.428 146.624 167.647 147.255C166.865 147.976 169.014 149.149 172.726 149.059C175.949 149.059 177.707 147.976 179.466 146.985C179.563 146.894 179.759 146.894 179.856 146.804L188.452 138.418C189.526 137.245 196.462 132.556 197.829 131.654C199.197 130.753 219.318 117.316 212.481 111.094Z" fill="#FFB5BE"/>
<path d="M191.09 136.528C193.922 134.454 198.611 131.298 199.783 130.577C201.443 129.495 220.491 118.313 212.579 110.738C210.723 108.934 208.085 110.016 205.839 110.557C201.639 111.549 189.917 124.896 185.424 130.126C187.378 132.2 189.331 134.274 191.09 136.528Z" fill="#716CCD"/>
<path d="M195.192 134.63L191.48 138.057L183.08 130.482L186.889 126.965L195.192 134.63Z" fill="url(#paint5_linear)"/>
<path d="M134.131 113.034H150.053V108.525H134.131V113.034Z" fill="url(#paint6_linear)"/>
<path d="M117.819 193.832H167.244V189.758H117.819V193.832Z" fill="url(#paint7_linear)"/>
<path d="M138.625 197.309H146.439V199.892H138.625V197.309Z" fill="url(#paint8_linear)"/>
<path d="M140.97 214.994H144.095V199.891H140.97V214.994Z" fill="url(#paint9_linear)"/>
<path d="M140.48 214.994H144.485V232.582H140.48V214.994Z" fill="url(#paint10_linear)"/>
<path d="M140.482 193.83H144.584H149.566L147.514 197.308H144.584H140.482H137.454L135.402 193.83H140.482Z" fill="url(#paint11_linear)"/>
<path d="M144.775 185.084C144.775 185.084 144.677 185.084 144.775 185.084C144.578 185.084 144.381 185.084 144.184 185.084C143.889 185.084 143.593 185.084 143.298 185.084C143.2 185.084 143.2 185.084 143.101 185.084C142.904 185.084 142.806 185.084 142.609 185.084C142.51 185.084 142.412 185.084 142.313 185.084C142.215 185.084 142.116 185.084 142.018 185.084C141.821 185.084 141.723 185.084 141.526 185.084C141.427 185.084 141.427 185.084 141.329 185.084C141.033 185.084 140.738 185.084 140.443 185.084C140.246 185.084 140.147 185.084 139.95 185.084C139.95 185.084 139.95 185.084 139.852 185.084C131.679 185.222 115.137 185.981 118.288 190.052H142.018H142.609H166.339C169.49 185.981 152.948 185.222 144.775 185.084Z" fill="#787777"/>
<path d="M143.605 231.685L163.629 240.926C163.629 239.932 163.434 238.541 162.457 237.349C161.089 235.66 150.833 230.791 143.605 227.611V231.685Z" fill="url(#paint12_linear)"/>
<path d="M160.408 243.609C161.756 243.609 162.85 242.497 162.85 241.125C162.85 239.753 161.756 238.641 160.408 238.641C159.059 238.641 157.966 239.753 157.966 241.125C157.966 242.497 159.059 243.609 160.408 243.609Z" fill="url(#paint13_linear)"/>
<path d="M141.359 227.611C134.131 230.791 123.875 235.66 122.508 237.349C121.531 238.541 121.335 239.833 121.335 240.926L141.359 231.685V227.611Z" fill="url(#paint14_linear)"/>
<path d="M124.559 243.609C125.907 243.609 127.001 242.497 127.001 241.125C127.001 239.753 125.907 238.641 124.559 238.641C123.21 238.641 122.117 239.753 122.117 241.125C122.117 242.497 123.21 243.609 124.559 243.609Z" fill="url(#paint15_linear)"/>
<path d="M155.327 114.205C155.718 114.205 161.579 115.377 161.676 115.468C167.341 117.361 175.937 139.365 175.937 139.365C176.328 140.357 176.816 141.349 177.207 142.341C177.988 144.324 178.574 146.308 178.672 148.382C178.672 149.465 178.574 150.547 177.891 151.358C176.719 152.891 174.179 152.801 172.518 151.719C170.956 150.637 170.272 148.833 169.197 147.39C165.876 143.152 164.118 140.266 163.044 138.012L158.941 137.561L155.327 114.205Z" fill="#4B5082"/>
<path d="M107.075 142.252C107.661 140.629 108.442 139.096 109.126 137.563C109.126 137.563 116.842 117.363 122.508 115.47C122.605 115.379 128.466 114.207 128.857 114.207L125.34 137.563H120.456C118.796 140.9 117.038 144.146 115.182 147.302C114.303 148.925 113.424 150.639 111.861 151.631C110.2 152.713 107.661 152.803 106.488 151.27C105.805 150.458 105.707 149.286 105.707 148.294C105.707 146.22 106.391 144.146 107.075 142.252Z" fill="#4B4F80" fill-opacity="0.98"/>
<path d="M117.916 233.057C117.916 232.877 117.819 232.606 117.819 232.426C117.916 232.696 117.916 232.877 117.916 233.057Z" fill="#FFC38A"/>
<path d="M103.265 236.938C103.363 236.938 103.46 236.848 103.558 236.848C103.46 236.848 103.363 236.938 103.265 236.938Z" fill="#FFC38A"/>
<path d="M99.4578 236.396C99.3598 236.396 99.3598 236.305 99.2617 236.305C99.3598 236.305 99.3598 236.396 99.4578 236.396Z" fill="#FFC38A"/>
<path d="M102.288 177.691C102.385 177.511 102.385 177.33 102.483 177.15C103.753 174.715 107.074 173.723 109.418 172.821C113.325 171.198 117.428 169.936 121.433 168.403C126.316 166.509 131.689 164.886 136.963 165.607C138.917 165.878 140.773 166.599 142.433 167.681C144.094 166.689 145.95 165.968 147.903 165.607C153.178 164.795 158.55 166.509 163.434 168.403C167.439 169.936 171.541 171.198 175.448 172.821C177.792 173.813 181.113 174.805 182.383 177.15C182.481 177.33 182.579 177.511 182.579 177.691C183.36 179.945 182.286 182.38 181.113 184.274C180.43 185.446 178.378 188.783 176.913 189.053C171.053 190.316 164.899 190.135 158.941 189.414C155.327 188.963 151.713 188.332 148.196 187.701C146.34 187.34 144.289 186.979 142.335 186.438C140.382 187.069 138.331 187.34 136.475 187.701C132.861 188.422 129.344 189.053 125.73 189.414C119.772 190.135 113.618 190.226 107.758 189.053C106.293 188.783 104.241 185.446 103.558 184.274C102.483 182.38 101.506 179.945 102.288 177.691Z" fill="#578E92"/>
<path d="M141.262 147.121C141.555 146.4 140.969 145.949 141.067 145.228C141.165 144.687 141.555 144.416 141.848 144.055C142.434 143.514 142.044 143.063 141.848 142.342C141.848 142.162 142.825 141.35 142.923 141.26C143.314 140.899 143.802 140.629 144.095 140.178C144.486 139.547 144.095 139.096 143.607 138.735L138.234 140.448C138.527 139.907 139.113 138.735 139.504 137.833C140.09 136.571 138.625 136.48 138.625 136.48C138.332 137.292 137.746 138.104 137.16 138.645L135.402 139.997L132.667 142.071L129.639 143.514C129.639 143.514 112.35 142.522 109.126 144.687C107.759 145.588 105.903 147.212 105.708 148.925C105.219 152.171 108.931 153.524 111.568 153.885C115.182 154.245 118.406 152.532 121.727 151.45C123.094 150.999 124.462 150.548 125.829 150.187C127.099 149.827 128.662 149.105 129.932 149.015L139.895 148.654C140.579 148.474 141.067 147.662 141.262 147.121Z" fill="#4B5082"/>
<path d="M143.02 147.121C142.727 146.4 143.313 145.949 143.215 145.228C143.118 144.687 142.727 144.416 142.434 144.055C141.848 143.514 142.239 143.063 142.434 142.342C142.434 142.162 141.457 141.35 141.359 141.26C140.969 140.899 140.48 140.629 140.187 140.178C139.797 139.547 140.187 139.096 140.676 138.735L146.048 140.448C145.755 139.907 145.169 138.735 144.778 137.833C144.192 136.571 145.657 136.48 145.657 136.48C145.95 137.292 146.536 138.104 147.122 138.645L148.881 139.997L151.616 142.071L154.644 143.514C154.644 143.514 171.932 142.522 175.156 144.687C176.523 145.588 178.379 147.212 178.575 148.925C179.063 152.171 175.351 153.524 172.714 153.885C169.1 154.245 165.876 152.532 162.555 151.45C161.188 150.999 159.82 150.548 158.453 150.187C157.183 149.827 155.62 149.105 154.351 149.015L144.387 148.654C143.704 148.474 143.215 147.662 143.02 147.121Z" fill="#4B5082"/>
<path d="M149.917 96.1113L149.112 110.994C149.112 110.994 145.591 119.65 136.034 110.994L135.129 100.06L149.917 96.1113Z" fill="#FFB5BE"/>
<path d="M143.51 119.616L146.245 118.354L149.761 108.975C149.761 108.885 143.51 119.436 143.51 119.616Z" fill="url(#paint16_linear)"/>
<path d="M149.761 108.884L146.244 118.263L151.128 121.058L152.105 112.131L150.054 108.523L149.761 108.884Z" fill="url(#paint17_linear)"/>
<path d="M140.774 119.618L137.649 118.446L134.523 108.977C134.523 108.887 140.774 119.438 140.774 119.618Z" fill="url(#paint18_linear)"/>
<path d="M134.524 108.884L137.65 118.443L133.156 121.058L132.375 112.672L134.231 108.523L134.524 108.884Z" fill="url(#paint19_linear)"/>
<path d="M91.7397 239.556C91.7397 239.556 91.7397 239.466 91.7397 239.556C92.0327 239.196 92.4234 238.925 92.7164 238.655C92.6188 238.745 92.4234 238.745 92.3257 238.835C92.4234 238.745 92.5211 238.745 92.7164 238.655C93.4002 238.114 94.1816 237.753 94.963 237.392C95.256 237.302 95.4514 237.122 95.7444 237.031C96.9166 236.4 97.991 235.859 98.284 235.679L98.3817 235.589C98.8701 235.138 107.368 226.571 107.759 225.849C108.54 222.693 107.954 218.004 107.954 218.004L114.987 217.463C114.987 217.463 114.01 223.234 114.987 227.563C115.378 228.014 115.866 228.555 116.159 229.096C116.159 229.186 116.257 229.186 116.257 229.276H116.159H116.257C117.233 229.637 117.82 232.432 118.015 233.334C118.113 233.785 118.113 234.326 117.917 234.777C117.624 235.498 116.94 235.949 116.257 236.31C114.792 237.031 113.229 237.482 111.764 238.114C109.029 239.286 106.294 240.909 103.461 241.901C100.238 242.983 96.8189 242.983 93.4978 243.524C92.6187 243.614 91.2513 243.614 90.7629 242.713C90.3722 241.811 91.1536 240.278 91.7397 239.556Z" fill="#FFB5BE"/>
<path d="M90.6656 242.348C90.6656 242.438 90.7632 242.619 90.7632 242.709C91.0563 243.34 91.8377 243.52 92.5214 243.61C92.8145 243.61 93.2052 243.61 93.4005 243.61C95.061 243.34 96.7216 243.25 98.3821 243.069C98.9681 242.979 99.6519 242.889 100.238 242.799C100.433 242.799 100.726 242.709 100.922 242.709C101.312 242.619 101.703 242.528 102.094 242.438C102.289 242.348 102.485 242.348 102.68 242.258C102.875 242.168 103.071 242.168 103.266 242.077C103.95 241.807 104.731 241.536 105.415 241.266C106.294 240.905 107.173 240.454 108.052 240.003C109.224 239.372 110.396 238.831 111.666 238.29C112.057 238.11 112.448 238.019 112.838 237.839C113.229 237.659 113.62 237.569 114.01 237.388C114.792 237.118 115.573 236.847 116.257 236.486C116.745 236.306 117.136 236.036 117.527 235.675C117.625 235.585 117.625 235.495 117.722 235.495C117.82 235.314 117.918 235.134 118.015 234.953C118.113 234.773 118.113 234.593 118.113 234.412C118.113 234.322 118.113 234.322 118.113 234.232C118.113 233.961 118.113 233.691 118.015 233.511C118.015 233.24 117.918 232.789 117.722 232.248C117.722 232.158 117.625 232.068 117.625 231.887C117.527 231.707 117.527 231.527 117.429 231.256C117.331 231.076 117.332 230.986 117.234 230.805C117.136 230.625 117.038 230.445 117.038 230.264C117.038 230.174 116.941 230.084 116.941 229.994C116.648 229.543 116.257 229.092 115.866 228.641C115.866 228.551 115.378 228.1 115.378 228.01C112.838 230.264 107.661 230.805 105.317 228.461C102.68 231.256 98.8705 235.224 98.4798 235.585C98.4798 235.585 98.4797 235.585 98.3821 235.585C98.3821 235.585 98.2844 235.585 98.2844 235.675C97.9914 235.855 96.9169 236.396 95.7448 237.028C95.4517 237.118 95.2564 237.298 94.9634 237.388C94.768 237.478 94.5727 237.569 94.3773 237.659C94.3773 237.659 94.2796 237.659 94.2796 237.749C94.0843 237.839 93.8889 237.929 93.6936 238.019C93.3029 238.2 92.9121 238.47 92.6191 238.741C92.5214 238.831 92.3261 238.921 92.2284 238.921C92.3261 238.831 92.5214 238.741 92.6191 238.741C92.5214 238.831 92.3261 238.921 92.2284 239.011L92.1307 239.102L92.033 239.192C91.9354 239.282 91.8377 239.372 91.74 239.462C91.74 239.462 91.74 239.553 91.6423 239.553C91.6423 239.553 91.5446 239.643 91.5446 239.733C91.447 239.823 91.447 239.913 91.3493 240.003C91.1539 240.274 90.9586 240.544 90.8609 240.905C90.8609 240.995 90.7632 241.086 90.7632 241.086C90.6656 241.266 90.6656 241.356 90.6656 241.536C90.6656 241.717 90.5679 241.807 90.5679 241.987C90.6655 242.077 90.6656 242.168 90.6656 242.348ZM98.2844 235.675C97.6983 236.036 97.1123 236.396 96.4285 236.667C96.4285 236.667 96.4285 236.667 96.3309 236.667C96.1355 236.757 95.9401 236.847 95.7448 236.937C96.6239 236.486 97.503 236.036 98.2844 235.675Z" fill="#1D104A"/>
<path d="M103.461 175.35C103.461 175.35 101.605 175.35 102.094 180.129C102.582 184.909 107.564 223.144 107.564 223.144L115.573 223.415C115.573 223.415 119.871 195.009 113.424 178.957C113.424 178.957 109.81 171.743 103.461 175.35Z" fill="#578E92"/>
<path d="M193.326 239.556C193.326 239.556 193.229 239.466 193.326 239.556C193.033 239.196 192.642 238.925 192.349 238.655C192.447 238.745 192.642 238.745 192.74 238.835C192.642 238.745 192.545 238.745 192.349 238.655C191.666 238.114 190.884 237.753 190.103 237.392C189.81 237.302 189.614 237.122 189.321 237.031C188.149 236.4 187.075 235.859 186.782 235.679L186.684 235.589C186.196 235.138 177.698 226.571 177.307 225.849C176.526 222.693 177.112 218.004 177.112 218.004L170.079 217.463C170.079 217.463 171.056 223.234 170.079 227.563C169.688 228.014 169.2 228.555 168.907 229.096C168.907 229.186 168.809 229.186 168.809 229.276H168.907H168.809C167.832 229.637 167.246 232.432 167.051 233.334C166.953 233.785 166.953 234.326 167.149 234.777C167.442 235.498 168.125 235.949 168.809 236.31C170.274 237.031 171.837 237.482 173.302 238.114C176.037 239.286 178.772 240.909 181.605 241.901C184.828 242.983 188.247 242.983 191.568 243.524C192.447 243.614 193.815 243.614 194.303 242.713C194.694 241.811 193.912 240.278 193.326 239.556Z" fill="#FFB5BE"/>
<path d="M167.049 233.061C167.049 232.881 167.146 232.61 167.146 232.43C167.146 232.7 167.146 232.881 167.049 233.061Z" fill="#FFC38A"/>
<path d="M181.702 236.942C181.604 236.942 181.506 236.852 181.409 236.852C181.506 236.852 181.604 236.942 181.702 236.942Z" fill="#FFC38A"/>
<path d="M185.608 236.401C185.706 236.401 185.706 236.311 185.804 236.311C185.706 236.311 185.608 236.401 185.608 236.401Z" fill="#FFC38A"/>
<path d="M186 236.035C186 236.128 185.9 236.128 186 236.035C185.9 236.128 186 236.128 186 236.035Z" fill="#FFC38A"/>
<path d="M195.059 242.351C195.059 242.257 195.059 242.07 195.059 241.977C195.059 241.789 195.059 241.696 194.959 241.509C194.959 241.321 194.858 241.228 194.858 241.041C194.858 240.947 194.758 240.854 194.758 240.854C194.658 240.479 194.457 240.198 194.256 239.918C194.155 239.824 194.155 239.73 194.055 239.637C194.055 239.543 193.954 239.543 193.954 239.45C193.954 239.45 193.954 239.356 193.854 239.356C193.754 239.263 193.653 239.169 193.553 239.075L193.452 238.982L193.352 238.888C193.251 238.795 193.151 238.701 192.95 238.607C193.05 238.701 193.251 238.701 193.352 238.795C193.251 238.701 193.151 238.701 192.95 238.607C192.548 238.327 192.247 238.046 191.845 237.859C191.644 237.765 191.443 237.672 191.242 237.578C191.242 237.578 191.142 237.578 191.142 237.484C190.941 237.391 190.74 237.297 190.539 237.204C190.238 237.11 190.037 236.923 189.736 236.829C188.53 236.174 187.425 235.613 187.124 235.426C187.124 235.426 187.023 235.426 187.023 235.332C187.023 235.332 187.023 235.332 186.923 235.332C186.521 234.958 182.604 230.84 179.892 227.939C177.481 230.372 172.157 229.81 169.545 227.471C169.545 227.564 169.043 228.032 169.043 228.126C168.742 228.594 168.24 229.062 167.938 229.53C167.838 229.623 167.838 229.717 167.838 229.81C167.737 229.998 167.637 230.185 167.637 230.372C167.536 230.559 167.536 230.653 167.436 230.84C167.336 231.027 167.336 231.214 167.235 231.495C167.235 231.588 167.135 231.682 167.135 231.869C167.034 232.431 166.934 232.899 166.833 233.179C166.833 233.46 166.733 233.741 166.733 233.928C166.733 234.022 166.733 234.022 166.733 234.115C166.733 234.302 166.833 234.49 166.833 234.677C166.934 234.864 167.034 235.051 167.135 235.238C167.235 235.332 167.235 235.426 167.336 235.426C167.637 235.8 168.139 236.081 168.641 236.268C169.345 236.642 170.148 236.923 170.952 237.204C171.354 237.391 171.755 237.484 172.157 237.672C172.559 237.859 172.961 237.952 173.363 238.14C174.568 238.701 175.773 239.263 177.079 239.918C177.983 240.386 178.887 240.76 179.791 241.228C180.494 241.509 181.197 241.883 182.001 242.07C182.202 242.164 182.403 242.164 182.604 242.257C182.805 242.351 183.006 242.351 183.206 242.444C183.608 242.538 184.01 242.632 184.412 242.725C184.613 242.725 184.814 242.819 185.115 242.819C185.718 242.912 186.421 243.006 187.023 243.1C188.731 243.287 190.439 243.474 192.146 243.661C192.448 243.661 192.749 243.755 193.05 243.661C193.754 243.661 194.557 243.38 194.858 242.725C194.959 242.632 195.059 242.444 195.059 242.351ZM189.736 236.736C189.535 236.642 189.334 236.549 189.133 236.455C189.133 236.455 189.133 236.455 189.032 236.455C188.43 236.174 187.727 235.8 187.124 235.426C188.028 235.8 188.832 236.268 189.736 236.736Z" fill="#1D104A"/>
<path d="M181.603 175.35C181.603 175.35 183.459 175.35 182.971 180.129C182.482 184.909 177.501 223.144 177.501 223.144L169.491 223.415C169.491 223.415 165.193 195.009 171.64 178.957C171.64 178.957 175.157 171.743 181.603 175.35Z" fill="#578E92"/>
<path d="M142.671 110.768C142.768 110.768 142.768 110.768 142.671 110.768C142.768 110.768 142.768 110.768 142.768 110.768C152.341 110.858 162.304 116.268 162.304 116.268C162.304 117.08 162.206 117.982 162.206 118.793C161.816 125.196 161.523 131.599 161.132 138.091C160.936 141.969 160.643 145.937 160.448 149.815C160.253 153.963 159.764 157.66 160.839 161.718C161.132 162.98 161.523 164.333 161.132 165.505C160.741 166.407 159.96 166.948 159.178 167.399C157.713 168.211 156.248 169.113 154.685 169.744C147.262 172.9 139.057 171.728 131.34 170.105C128.898 169.563 126.261 168.842 124.503 166.497C124.21 166.137 124.014 165.686 123.819 165.145C123.526 164.063 123.917 162.8 124.21 161.718C124.503 160.726 124.698 159.734 124.796 158.652C125.48 154.053 124.991 149.183 124.698 144.584C124.405 140.166 124.21 135.747 123.917 131.328C123.624 126.278 123.331 121.318 123.038 116.268C123.135 116.268 133.098 110.858 142.671 110.768Z" fill="#535787"/>
<path d="M142.2 122.585L135.55 110.393H148.756L142.2 122.585Z" fill="#FFB5BE"/>
<path d="M119.773 152.982H163.337V130.348H119.773V152.982Z" fill="#BCC4C6"/>
<path d="M143.191 87.8923L141.34 92.8521L134.86 93.7538L135.115 100.517L136.249 100.066C142.728 105.838 149.277 106.83 150.851 103.763C152.424 100.697 149.208 87.4414 149.208 87.4414L143.191 87.8923Z" fill="#FFB5BE"/>
<path d="M149.185 92.0391L149.555 98.081L153.072 97.8104L149.185 92.0391Z" fill="#FFB5BE"/>
<path opacity="0.9" d="M137.594 102.354L136.362 105.476C134.929 104.449 126.597 96.0561 129.75 86.5546C131.698 80.6888 140.54 80.781 147.812 81.4186C149.962 81.6073 152.239 81.0864 153.831 81.4186C154.06 87.5818 146.856 88.2666 143.224 87.8385C143.415 89.465 142.921 93.9973 138.563 94.2027C132.041 91.7706 136.734 100.899 137.594 102.354Z" fill="#393939"/>
<path d="M203.299 151.672L235.044 151.492V149.508L203.299 149.688V151.672Z" fill="url(#paint20_linear)"/>
<path d="M181.323 125.7L203.398 151.671L205.058 150.409L182.983 124.438L181.323 125.7Z" fill="url(#paint21_linear)"/>
<path d="M252.14 221.922C251.456 220.659 249.014 219.938 247.744 219.307C246.572 218.766 244.912 218.766 244.619 218.134C243.74 216.15 243.447 211.912 243.447 211.912L236.218 214.167C236.218 214.167 238.27 219.216 237.977 222.463C237.684 225.709 236.121 234.637 236.121 234.637C236.121 234.637 232.507 241.039 232.409 241.49C232.311 241.851 231.921 242.753 232.116 244.196C232.116 244.196 233.19 245.909 240.223 239.506C240.223 239.506 243.447 236.891 246.67 231.3C247.451 230.128 248.233 229.046 249.014 227.874C249.796 226.701 252.335 223.274 252.335 222.643C252.237 222.283 252.238 222.102 252.14 221.922Z" fill="#FFB5BE"/>
<path d="M248.916 227.783C248.135 228.956 247.353 230.038 246.572 231.21C243.446 236.711 240.125 239.416 240.125 239.416C233.092 245.819 232.018 244.106 232.018 244.106C231.822 242.663 232.213 241.761 232.311 241.4C232.409 241.039 236.023 234.547 236.023 234.547C238.758 234.907 240.613 234.366 241.883 231.661C243.934 227.332 244.13 223.004 247.842 219.307C249.209 219.938 251.456 220.659 252.042 221.832C252.139 222.012 252.139 222.192 252.139 222.463C252.237 223.274 249.697 226.611 248.916 227.783Z" fill="#1D104A"/>
<path d="M221.859 170.52C221.859 170.52 219.905 170.971 221.468 175.48C222.933 179.989 236.608 215.969 236.608 215.969L244.032 214.707C244.032 214.707 242.567 186.301 232.213 172.053C232.115 172.143 227.817 165.74 221.859 170.52Z" fill="#030E68"/>
<path d="M231.627 227.06C231.432 225.618 229.381 224.265 228.404 223.273C227.427 222.371 225.864 221.92 225.864 221.199C225.767 219.035 226.841 214.977 226.841 214.977H219.222C219.222 214.977 219.418 220.387 218.05 223.363C216.683 226.429 211.994 234.365 211.994 234.365C211.994 234.365 206.329 239.415 206.134 239.775C205.938 240.136 205.254 240.858 204.961 242.21C204.961 242.21 205.45 244.194 214.338 240.136C214.338 240.136 218.343 238.603 223.227 234.275C224.302 233.373 225.474 232.561 226.548 231.659C227.72 230.758 231.334 228.323 231.53 227.692C231.627 227.421 231.627 227.241 231.627 227.06Z" fill="#FFB5BE"/>
<path d="M226.548 231.657C225.474 232.559 224.302 233.371 223.227 234.272C218.343 238.601 214.338 240.134 214.338 240.134C205.45 244.102 204.961 242.208 204.961 242.208C205.254 240.855 205.938 240.044 206.134 239.773C206.329 239.413 211.994 234.363 211.994 234.363C214.436 235.535 216.39 235.535 218.539 233.371C221.957 229.944 223.715 225.796 228.404 223.451C229.478 224.443 231.334 225.796 231.53 227.148C231.53 227.329 231.53 227.509 231.432 227.78C231.334 228.321 227.72 230.756 226.548 231.657Z" fill="#1D104A"/>
<path d="M220.785 169.343C229.283 166.548 238.367 165.466 247.256 164.564C251.652 164.113 256.828 162.941 261.224 162.851C269.624 162.58 279.587 166.007 278.415 175.025C278.22 176.197 277.829 177.279 277.243 178.271C269.917 190.175 249.405 185.305 237.977 183.231C232.995 182.329 228.014 181.337 223.13 180.165C216.878 174.935 220.785 169.343 220.785 169.343Z" fill="#030E68"/>
<path d="M220.785 169.345C220.785 169.345 218.832 169.165 218.636 173.854C218.539 178.543 218.929 216.688 218.929 216.688L226.353 217.68C226.353 217.68 234.753 190.266 229.869 173.764C229.869 173.854 228.111 166.549 220.785 169.345Z" fill="#030E68"/>
<path d="M284.764 131.478C284.862 131.298 284.959 131.117 285.155 130.937C276.23 129.666 273.824 133.276 274.019 143.874C274.019 143.964 274.117 144.217 274.019 144.307C274.019 144.488 274.019 144.554 274.019 144.734V144.824C274.019 144.915 274.019 145.005 274.019 145.095C274.019 145.185 274.019 145.185 274.019 145.275C274.019 145.365 274.019 145.365 274.019 145.456C274.019 145.546 274.019 145.636 274.019 145.726V145.816C274.019 145.997 274.019 146.177 274.019 146.357C274.019 146.448 274.019 146.538 274.019 146.628C274.215 161.147 276.89 161.976 283.982 161.147C277.633 148.522 284.471 132.199 284.764 131.478Z" fill="#787777"/>
<path d="M288.28 161.959C281.052 150.146 288.28 132.741 288.378 132.651C288.768 131.749 288.28 130.757 287.205 130.487C286.424 130.216 285.643 130.487 285.057 130.938C284.861 131.118 284.763 131.298 284.666 131.479C284.373 132.2 277.535 148.613 283.689 161.598C283.982 162.32 284.373 162.951 284.763 163.672C290.038 172.419 290.233 185.315 288.182 188.832C287.889 189.373 287.205 190.275 286.229 190.455C285.154 190.545 284.47 191.447 284.568 192.349C284.666 193.16 285.545 193.792 286.522 193.792C286.619 193.792 286.717 193.792 286.717 193.792C288.671 193.611 290.429 192.349 291.601 190.365C294.336 185.856 294.238 171.788 288.28 161.959Z" fill="url(#paint22_linear)"/>
<path d="M288.885 190.201H236.104V194.246H288.885V190.201Z" fill="url(#paint23_linear)"/>
<path d="M266.665 197.521H258.32V199.929H266.665V197.521Z" fill="url(#paint24_linear)"/>
<path d="M264.162 200.021H260.824V214.756H264.162V200.021Z" fill="url(#paint25_linear)"/>
<path d="M264.579 214.658H260.302V231.704H264.579V214.658Z" fill="url(#paint26_linear)"/>
<path d="M264.684 194.148H260.303H254.879L257.069 197.519H260.303H264.684H267.813L270.004 194.148H264.684Z" fill="url(#paint27_linear)"/>
<path d="M259.885 185.674C260.093 185.674 260.302 185.674 260.511 185.674C260.824 185.674 261.137 185.674 261.45 185.674C261.554 185.674 261.554 185.674 261.658 185.674C261.867 185.674 261.971 185.674 262.18 185.674C262.284 185.674 262.388 185.674 262.493 185.674C262.597 185.674 262.701 185.674 262.806 185.674C263.014 185.674 263.119 185.674 263.327 185.674C263.431 185.674 263.431 185.674 263.536 185.674C263.849 185.674 264.162 185.674 264.475 185.674C264.683 185.674 264.787 185.674 264.996 185.674C264.996 185.674 264.996 185.674 265.1 185.674C273.758 185.8 291.282 186.491 287.945 190.2H262.806H262.18H237.041C233.703 186.491 251.227 185.8 259.885 185.674Z" fill="#787777"/>
<path d="M261.24 226.887C253.521 229.968 242.569 234.687 241.108 236.324C240.065 237.48 239.856 238.732 239.856 239.791L261.24 230.835V226.887Z" fill="url(#paint28_linear)"/>
<path d="M246.011 239.984C246.011 241.332 244.864 242.391 243.403 242.391C241.943 242.391 240.795 241.332 240.795 239.984C240.795 238.635 241.943 237.576 243.403 237.576C244.759 237.576 246.011 238.635 246.011 239.984Z" fill="url(#paint29_linear)"/>
<path d="M263.638 230.835L285.021 239.791C285.021 238.828 284.813 237.48 283.77 236.324C282.309 234.687 271.357 229.968 263.638 226.887V230.835Z" fill="url(#paint30_linear)"/>
<path d="M278.973 239.986C278.973 241.334 280.121 242.393 281.581 242.393C283.041 242.393 284.189 241.334 284.189 239.986C284.189 238.637 283.041 237.578 281.581 237.578C280.121 237.578 278.973 238.637 278.973 239.986Z" fill="url(#paint31_linear)"/>
<path d="M255.656 91.6112C258.196 89.2666 262.396 88.9059 265.619 89.1765C270.21 89.447 275.094 91.4309 277.438 95.3987C281.638 102.703 272.554 113.795 264.545 113.524C263.568 113.524 262.591 113.254 261.81 112.713C260.833 111.991 260.735 110.909 260.345 109.917C260.052 109.376 259.759 108.925 259.368 108.474C258.098 106.851 256.633 105.318 255.363 103.605C254.191 101.892 253.214 99.9076 253.117 97.8335C252.921 95.3085 253.996 93.1443 255.656 91.6112Z" fill="#393939"/>
<path d="M263.665 110.818C264.349 110.367 265.033 109.826 265.619 109.285C266.498 111.9 267.377 114.606 268.647 117.131C268.744 117.762 269.233 118.123 269.233 118.573C269.233 118.573 267.475 124.886 260.735 123.443C260.735 123.443 262.102 118.032 260.637 113.704C261.614 112.712 262.591 111.72 263.665 110.818Z" fill="#FFB5BE"/>
<path d="M255.363 94.5876C255.363 94.5876 248.721 108.204 252.824 113.886C252.824 113.886 261.322 116.681 267.085 110.008C272.945 103.245 269.917 90.6198 255.363 94.5876Z" fill="#FFB5BE"/>
<path d="M254.191 101.172L252.824 107.124L249.698 106.492L254.191 101.172Z" fill="#FFB5BE"/>
<path d="M229.575 105.317C229.477 105.407 229.38 105.587 229.38 105.768L227.622 114.966C227.524 115.236 227.622 115.597 227.915 115.777L232.994 120.737C232.994 120.737 242.371 142.199 246.278 146.528C248.036 148.422 251.846 147.7 253.604 145.626C254.874 144.093 253.701 141.929 252.822 140.486C251.553 138.412 237.194 118.302 237.096 118.212C235.436 115.056 232.603 111.539 231.822 110.547C231.626 110.367 231.626 110.186 231.626 109.916L231.822 106.85C231.822 106.669 231.822 106.489 231.724 106.309L231.138 105.407C230.845 104.866 229.966 104.776 229.575 105.317Z" fill="#FFB5BE"/>
<path d="M254.387 151.939C254.485 150.587 254.68 148.423 254.192 147.16C252.922 144.094 251.164 140.577 251.164 137.06C251.164 128.944 268.648 117.131 268.648 117.131C269.136 117.492 269.625 117.852 270.015 118.213C270.113 118.393 270.308 118.484 270.406 118.664C270.504 118.754 270.504 118.754 270.601 118.844C270.797 119.025 270.992 119.295 271.09 119.566C271.09 119.566 271.09 119.656 271.187 119.656C271.383 119.926 271.578 120.197 271.676 120.467C272.457 121.82 272.946 123.443 273.141 124.976C273.239 125.427 273.239 125.878 273.239 126.239C273.336 127.772 273.336 129.305 273.239 130.658C273.239 131.108 273.141 131.559 273.043 132.01C272.555 136.158 272.555 140.216 272.946 144.455C273.239 147.521 273.825 150.587 274.606 153.563C274.802 154.104 274.899 154.555 275.095 155.096C275.583 156.539 276.071 157.981 276.56 159.424C276.755 159.965 276.853 160.326 276.95 160.687C277.927 163.302 278.806 165.917 279.099 168.713C279.197 169.254 279.099 169.885 278.611 170.246C278.318 170.426 278.025 170.426 277.732 170.426C273.825 170.336 269.918 170.336 266.011 170.246C263.08 170.155 261.224 168.893 259.075 167.089C256.731 165.105 253.605 165.556 253.703 162.58C253.703 162.4 253.703 162.13 253.703 161.949C253.703 158.522 254.289 155.276 254.387 151.939Z" fill="#EE9D0C"/>
<path d="M267.376 105.228C267.376 105.228 267.669 116.501 256.241 119.837C256.241 119.837 263.079 121.46 266.986 119.837C272.26 117.583 271.674 127.141 277.437 123.264C277.437 123.264 280.856 105.409 278.023 96.8418C275.191 88.2749 256.241 94.1364 256.241 94.1364L267.376 105.228Z" fill="#393939"/>
<path d="M266.888 104.869C266.888 104.869 270.307 102.434 271.283 104.779C272.162 106.763 270.111 110.55 266.009 110.731L266.888 104.869Z" fill="#FFB5BE"/>
<path d="M264.056 154.016C264.056 153.655 264.056 153.385 264.056 153.024C264.056 149.236 264.252 145.449 264.447 141.661C264.545 139.317 264.545 136.882 264.74 134.447H272.847C272.554 137.784 272.652 141.12 272.945 144.547C273.14 146.17 273.336 147.794 273.629 149.417C273.14 153.385 272.652 158.254 270.015 161.501C269.136 162.583 267.964 163.214 266.987 163.124C265.912 163.214 264.838 162.943 263.861 162.763C262.884 162.583 258.587 161.501 253.703 160.238C253.8 157.623 254.191 155.098 254.289 152.483C257.903 152.844 261.321 153.385 264.056 154.016Z" fill="#EE9D0C"/>
<path d="M263.177 128.672C263.763 126.328 264.837 124.434 266.986 123.622C271.284 121.999 272.554 126.598 272.847 129.754C273.335 135.255 272.261 141.027 271.577 146.527C271.089 150.585 270.6 155.906 267.865 159.242C266.303 161.136 264.056 161.677 262.884 159.242C261.614 156.627 261.907 153.651 261.907 150.766C261.907 146.978 262.103 143.191 262.298 139.403C262.493 135.977 262.396 132.189 263.177 128.672Z" fill="#FFB5BE"/>
<path d="M236.511 148.877L235.73 148.427C235.73 148.427 235.632 148.427 235.632 148.336L229.088 145.18C228.795 145 228.502 145 228.209 145.18L219.125 149.238C218.929 149.328 218.832 149.419 218.734 149.509C218.343 150.05 218.636 150.771 219.32 150.952L220.395 151.222C220.59 151.222 220.785 151.222 220.981 151.222L224.106 150.23C224.302 150.14 224.595 150.14 224.79 150.23C226.06 150.681 230.455 152.214 234.265 152.755C234.753 152.845 235.242 152.575 235.339 152.124L236.511 148.877Z" fill="#FFB5BE"/>
<path d="M267.281 159.789C266.011 161.322 263.471 160.871 261.811 160.51C259.271 159.969 234.364 153.566 234.461 153.206L235.829 148.336C235.829 148.336 260.736 150.681 266.304 153.025C268.648 154.107 268.941 157.714 267.281 159.789Z" fill="#FFB5BE"/>
<path d="M238.145 241.91V242.478H234.508L229.354 155.006H234.407L238.145 241.91Z" fill="url(#paint32_linear)"/>
<path d="M90.426 155.006H95.5371L90.3238 242.478H86.7461L90.426 155.006Z" fill="url(#paint33_linear)"/>
<path d="M79.9077 155.007H240.099V151.4H79.9077V155.007Z" fill="#6C6B6B"/>
<defs>
<linearGradient id="paint0_linear" x1="194.071" y1="80.378" x2="194.647" y2="71.7787" gradientUnits="userSpaceOnUse">
<stop stop-color="#E7E6FF"/>
<stop offset="0.3393" stop-color="#C9D2F8"/>
<stop offset="0.7637" stop-color="#AABDF1"/>
<stop offset="1" stop-color="#9EB5EE"/>
</linearGradient>
<linearGradient id="paint1_linear" x1="191.488" y1="78.4988" x2="191.986" y2="71.0543" gradientUnits="userSpaceOnUse">
<stop stop-color="#F9FBFC"/>
<stop offset="0.9973" stop-color="#CDDBFF"/>
</linearGradient>
<linearGradient id="paint2_linear" x1="203.79" y1="81.8359" x2="204.703" y2="68.2014" gradientUnits="userSpaceOnUse">
<stop stop-color="#F9FBFC"/>
<stop offset="0.3069" stop-color="#F0F5FD"/>
<stop offset="0.8031" stop-color="#D8E3FE"/>
<stop offset="0.9973" stop-color="#CDDBFF"/>
</linearGradient>
<linearGradient id="paint3_linear" x1="197.174" y1="80.5833" x2="197.394" y2="77.2876" gradientUnits="userSpaceOnUse">
<stop stop-color="#E7E6FF"/>
<stop offset="0.3393" stop-color="#C9D2F8"/>
<stop offset="0.7637" stop-color="#AABDF1"/>
<stop offset="1" stop-color="#9EB5EE"/>
</linearGradient>
<linearGradient id="paint4_linear" x1="154.175" y1="126.827" x2="149.685" y2="115.9" gradientUnits="userSpaceOnUse">
<stop stop-color="#F9FBFC"/>
<stop offset="0.3069" stop-color="#F0F5FD"/>
<stop offset="0.8031" stop-color="#D8E3FE"/>
<stop offset="0.9973" stop-color="#CDDBFF"/>
</linearGradient>
<linearGradient id="paint5_linear" x1="196.783" y1="137.921" x2="187.344" y2="130.107" gradientUnits="userSpaceOnUse">
<stop stop-color="#F9FBFC"/>
<stop offset="0.3069" stop-color="#F0F5FD"/>
<stop offset="0.8031" stop-color="#D8E3FE"/>
<stop offset="0.9973" stop-color="#CDDBFF"/>
</linearGradient>
<linearGradient id="paint6_linear" x1="142.066" y1="108.503" x2="142.066" y2="113.005" gradientUnits="userSpaceOnUse">
<stop stop-color="#F9FBFC"/>
<stop offset="0.2987" stop-color="#F5F8FC"/>
<stop offset="0.6027" stop-color="#E9EFFD"/>
<stop offset="0.9081" stop-color="#D4E0FE"/>
<stop offset="0.9973" stop-color="#CDDBFF"/>
</linearGradient>
<linearGradient id="paint7_linear" x1="167.228" y1="191.802" x2="117.796" y2="191.802" gradientUnits="userSpaceOnUse">
<stop stop-color="#07154B"/>
<stop offset="0.2641" stop-color="#0C174E"/>
<stop offset="0.5843" stop-color="#1B1D57"/>
<stop offset="0.9324" stop-color="#332767"/>
<stop offset="1" stop-color="#39296A"/>
</linearGradient>
<linearGradient id="paint8_linear" x1="146.443" y1="198.597" x2="138.581" y2="198.597" gradientUnits="userSpaceOnUse">
<stop stop-color="#07154B"/>
<stop offset="0.2641" stop-color="#0C174E"/>
<stop offset="0.5843" stop-color="#1B1D57"/>
<stop offset="0.9324" stop-color="#332767"/>
<stop offset="1" stop-color="#39296A"/>
</linearGradient>
<linearGradient id="paint9_linear" x1="144.076" y1="207.434" x2="140.949" y2="207.434" gradientUnits="userSpaceOnUse">
<stop stop-color="#07154B"/>
<stop offset="0.2641" stop-color="#0C174E"/>
<stop offset="0.5843" stop-color="#1B1D57"/>
<stop offset="0.9324" stop-color="#332767"/>
<stop offset="1" stop-color="#39296A"/>
</linearGradient>
<linearGradient id="paint10_linear" x1="144.515" y1="223.816" x2="140.507" y2="223.816" gradientUnits="userSpaceOnUse">
<stop stop-color="#07154B"/>
<stop offset="0.2641" stop-color="#0C174E"/>
<stop offset="0.5843" stop-color="#1B1D57"/>
<stop offset="0.9324" stop-color="#332767"/>
<stop offset="1" stop-color="#39296A"/>
</linearGradient>
<linearGradient id="paint11_linear" x1="149.608" y1="195.607" x2="135.418" y2="195.607" gradientUnits="userSpaceOnUse">
<stop stop-color="#07154B"/>
<stop offset="0.2641" stop-color="#0C174E"/>
<stop offset="0.5843" stop-color="#1B1D57"/>
<stop offset="0.9324" stop-color="#332767"/>
<stop offset="1" stop-color="#39296A"/>
</linearGradient>
<linearGradient id="paint12_linear" x1="163.671" y1="234.302" x2="143.637" y2="234.302" gradientUnits="userSpaceOnUse">
<stop stop-color="#07154B"/>
<stop offset="0.2641" stop-color="#0C174E"/>
<stop offset="0.5843" stop-color="#1B1D57"/>
<stop offset="0.9324" stop-color="#332767"/>
<stop offset="1" stop-color="#39296A"/>
</linearGradient>
<linearGradient id="paint13_linear" x1="162.897" y1="241.13" x2="157.954" y2="241.13" gradientUnits="userSpaceOnUse">
<stop stop-color="#07154B"/>
<stop offset="0.2641" stop-color="#0C174E"/>
<stop offset="0.5843" stop-color="#1B1D57"/>
<stop offset="0.9324" stop-color="#332767"/>
<stop offset="1" stop-color="#39296A"/>
</linearGradient>
<linearGradient id="paint14_linear" x1="141.385" y1="234.302" x2="121.351" y2="234.302" gradientUnits="userSpaceOnUse">
<stop stop-color="#07154B"/>
<stop offset="0.2641" stop-color="#0C174E"/>
<stop offset="0.5843" stop-color="#1B1D57"/>
<stop offset="0.9324" stop-color="#332767"/>
<stop offset="1" stop-color="#39296A"/>
</linearGradient>
<linearGradient id="paint15_linear" x1="127.07" y1="241.13" x2="122.127" y2="241.13" gradientUnits="userSpaceOnUse">
<stop stop-color="#07154B"/>
<stop offset="0.2641" stop-color="#0C174E"/>
<stop offset="0.5843" stop-color="#1B1D57"/>
<stop offset="0.9324" stop-color="#332767"/>
<stop offset="1" stop-color="#39296A"/>
</linearGradient>
<linearGradient id="paint16_linear" x1="144.127" y1="119.895" x2="149.894" y2="108.986" gradientUnits="userSpaceOnUse">
<stop stop-color="#E7E6FF"/>
<stop offset="0.3393" stop-color="#C9D2F8"/>
<stop offset="0.7637" stop-color="#AABDF1"/>
<stop offset="1" stop-color="#9EB5EE"/>
</linearGradient>
<linearGradient id="paint17_linear" x1="149.209" y1="108.501" x2="149.209" y2="121.031" gradientUnits="userSpaceOnUse">
<stop stop-color="#F9FBFC"/>
<stop offset="0.2987" stop-color="#F5F8FC"/>
<stop offset="0.6027" stop-color="#E9EFFD"/>
<stop offset="0.9081" stop-color="#D4E0FE"/>
<stop offset="0.9973" stop-color="#CDDBFF"/>
</linearGradient>
<linearGradient id="paint18_linear" x1="140.004" y1="119.985" x2="134.238" y2="109.077" gradientUnits="userSpaceOnUse">
<stop stop-color="#E7E6FF"/>
<stop offset="0.3393" stop-color="#C9D2F8"/>
<stop offset="0.7637" stop-color="#AABDF1"/>
<stop offset="1" stop-color="#9EB5EE"/>
</linearGradient>
<linearGradient id="paint19_linear" x1="135.002" y1="108.502" x2="135.002" y2="121.031" gradientUnits="userSpaceOnUse">
<stop stop-color="#F9FBFC"/>
<stop offset="0.2987" stop-color="#F5F8FC"/>
<stop offset="0.6027" stop-color="#E9EFFD"/>
<stop offset="0.9081" stop-color="#D4E0FE"/>
<stop offset="0.9973" stop-color="#CDDBFF"/>
</linearGradient>
<linearGradient id="paint20_linear" x1="235.023" y1="150.567" x2="203.312" y2="150.567" gradientUnits="userSpaceOnUse">
<stop stop-color="#F9FBFC"/>
<stop offset="0.101" stop-color="#F0F5FD"/>
<stop offset="0.3963" stop-color="#DDE6FE"/>
<stop offset="0.6944" stop-color="#D1DEFF"/>
<stop offset="0.9973" stop-color="#CDDBFF"/>
</linearGradient>
<linearGradient id="paint21_linear" x1="205.057" y1="138.062" x2="181.321" y2="138.062" gradientUnits="userSpaceOnUse">
<stop stop-color="#F9FBFC"/>
<stop offset="0.101" stop-color="#F0F5FD"/>
<stop offset="0.3963" stop-color="#DDE6FE"/>
<stop offset="0.6944" stop-color="#D1DEFF"/>
<stop offset="0.9973" stop-color="#CDDBFF"/>
</linearGradient>
<linearGradient id="paint22_linear" x1="281.249" y1="161.991" x2="293.364" y2="161.991" gradientUnits="userSpaceOnUse">
<stop stop-color="#07154B"/>
<stop offset="0.2641" stop-color="#0C174E"/>
<stop offset="0.5843" stop-color="#1B1D57"/>
<stop offset="0.9324" stop-color="#332767"/>
<stop offset="1" stop-color="#39296A"/>
</linearGradient>
<linearGradient id="paint23_linear" x1="236.077" y1="192.183" x2="288.866" y2="192.183" gradientUnits="userSpaceOnUse">
<stop stop-color="#07154B"/>
<stop offset="0.2641" stop-color="#0C174E"/>
<stop offset="0.5843" stop-color="#1B1D57"/>
<stop offset="0.9324" stop-color="#332767"/>
<stop offset="1" stop-color="#39296A"/>
</linearGradient>
<linearGradient id="paint24_linear" x1="258.272" y1="198.771" x2="266.668" y2="198.771" gradientUnits="userSpaceOnUse">
<stop stop-color="#07154B"/>
<stop offset="0.2641" stop-color="#0C174E"/>
<stop offset="0.5843" stop-color="#1B1D57"/>
<stop offset="0.9324" stop-color="#332767"/>
<stop offset="1" stop-color="#39296A"/>
</linearGradient>
<linearGradient id="paint25_linear" x1="260.801" y1="207.333" x2="264.14" y2="207.333" gradientUnits="userSpaceOnUse">
<stop stop-color="#07154B"/>
<stop offset="0.2641" stop-color="#0C174E"/>
<stop offset="0.5843" stop-color="#1B1D57"/>
<stop offset="0.9324" stop-color="#332767"/>
<stop offset="1" stop-color="#39296A"/>
</linearGradient>
<linearGradient id="paint26_linear" x1="260.33" y1="223.209" x2="264.61" y2="223.209" gradientUnits="userSpaceOnUse">
<stop stop-color="#07154B"/>
<stop offset="0.2641" stop-color="#0C174E"/>
<stop offset="0.5843" stop-color="#1B1D57"/>
<stop offset="0.9324" stop-color="#332767"/>
<stop offset="1" stop-color="#39296A"/>
</linearGradient>
<linearGradient id="paint27_linear" x1="254.894" y1="195.87" x2="270.048" y2="195.87" gradientUnits="userSpaceOnUse">
<stop stop-color="#07154B"/>
<stop offset="0.2641" stop-color="#0C174E"/>
<stop offset="0.5843" stop-color="#1B1D57"/>
<stop offset="0.9324" stop-color="#332767"/>
<stop offset="1" stop-color="#39296A"/>
</linearGradient>
<linearGradient id="paint28_linear" x1="239.872" y1="233.372" x2="261.267" y2="233.372" gradientUnits="userSpaceOnUse">
<stop stop-color="#07154B"/>
<stop offset="0.2641" stop-color="#0C174E"/>
<stop offset="0.5843" stop-color="#1B1D57"/>
<stop offset="0.9324" stop-color="#332767"/>
<stop offset="1" stop-color="#39296A"/>
</linearGradient>
<linearGradient id="paint29_linear" x1="240.7" y1="239.989" x2="245.98" y2="239.989" gradientUnits="userSpaceOnUse">
<stop stop-color="#07154B"/>
<stop offset="0.2641" stop-color="#0C174E"/>
<stop offset="0.5843" stop-color="#1B1D57"/>
<stop offset="0.9324" stop-color="#332767"/>
<stop offset="1" stop-color="#39296A"/>
</linearGradient>
<linearGradient id="paint30_linear" x1="263.67" y1="233.372" x2="285.065" y2="233.372" gradientUnits="userSpaceOnUse">
<stop stop-color="#07154B"/>
<stop offset="0.2641" stop-color="#0C174E"/>
<stop offset="0.5843" stop-color="#1B1D57"/>
<stop offset="0.9324" stop-color="#332767"/>
<stop offset="1" stop-color="#39296A"/>
</linearGradient>
<linearGradient id="paint31_linear" x1="278.959" y1="239.991" x2="284.238" y2="239.991" gradientUnits="userSpaceOnUse">
<stop stop-color="#07154B"/>
<stop offset="0.2641" stop-color="#0C174E"/>
<stop offset="0.5843" stop-color="#1B1D57"/>
<stop offset="0.9324" stop-color="#332767"/>
<stop offset="1" stop-color="#39296A"/>
</linearGradient>
<linearGradient id="paint32_linear" x1="238.132" y1="198.757" x2="229.374" y2="198.757" gradientUnits="userSpaceOnUse">
<stop stop-color="#07154B"/>
<stop offset="0.2641" stop-color="#0C174E"/>
<stop offset="0.5843" stop-color="#1B1D57"/>
<stop offset="0.9324" stop-color="#332767"/>
<stop offset="1" stop-color="#39296A"/>
</linearGradient>
<linearGradient id="paint33_linear" x1="95.5792" y1="198.757" x2="86.7202" y2="198.757" gradientUnits="userSpaceOnUse">
<stop stop-color="#07154B"/>
<stop offset="0.2641" stop-color="#0C174E"/>
<stop offset="0.5843" stop-color="#1B1D57"/>
<stop offset="0.9324" stop-color="#332767"/>
<stop offset="1" stop-color="#39296A"/>
</linearGradient>
</defs>
</svg>
