<svg width="111" height="112" viewBox="0 0 111 112" fill="none" xmlns="http://www.w3.org/2000/svg">
<mask id="mask0" mask-type="alpha" maskUnits="userSpaceOnUse" x="0" y="0" width="111" height="112">
<path d="M0 0H111V112H0V0Z" fill="#C4C4C4"/>
</mask>
<g mask="url(#mask0)">
<path d="M50.2685 25.4094L50.8178 22.5912C50.8166 22.5953 50.7993 22.5694 50.7512 18.2897C50.6886 12.7307 54.3619 7.12965 59.789 3.29599C65.2161 -0.537666 75.2814 1.78166 84.9665 11.7498C92.7145 19.7243 87.0084 32.7094 88.7793 44.7285L95.5349 56.0198L69.5207 64.8896C65.5186 60.0927 66.0192 51.6793 63.5326 52.0442C61.5619 52.3334 60.3574 53.1743 57.5912 52.6805C57.1586 52.6033 56.8509 52.2326 56.8287 51.8003L56.6738 48.7843C56.666 48.6325 56.6226 48.4848 56.5469 48.3527L54.9683 45.5989C54.7771 45.2653 54.8013 44.8517 55.0302 44.5396L55.903 43.3498L54.297 43.0568C53.878 42.9803 53.5561 42.6503 53.4955 42.2351L53.2494 40.548C53.1964 40.1841 52.9411 39.8809 52.5878 39.7623L50.8642 39.1836C50.3817 39.0216 50.103 38.5269 50.2181 38.0367L51.7746 31.4066C51.8307 31.1674 51.7942 30.9167 51.6721 30.7037L50.9303 29.4096C50.2356 28.1978 50.0012 26.7806 50.2685 25.4094Z" fill="#EE9F86"/>
<path fill-rule="evenodd" clip-rule="evenodd" d="M69.8179 1.3173C75.6141 1.70097 82.5792 3.81868 87.3164 8.52528C92.9784 14.1507 92.8872 34.3444 91.977 46.1604C91.8386 47.9573 90.4349 49.3932 88.6207 49.6568L72.0838 52.0592C70.4387 52.2982 68.8147 51.5121 68.005 50.0849L61.9768 39.46C62.0639 39.3451 62.2763 38.8829 62.5529 38.2362C64.0824 34.6593 61.6666 29.2504 58.1682 31.0494L56.9878 26.5464C56.735 25.5821 55.7645 24.7864 54.8674 24.3233C53.1192 23.4207 50.5651 21.53 48.4103 19.8505C44.5918 17.6622 40.3853 13.0152 44.8905 5.23527C44.5939 6.37176 44.3848 8.83382 45.9213 9.59022C45.6933 8.92581 45.2708 7.46913 45.4043 6.95772C45.8951 7.53777 47.0232 8.68988 47.6095 8.65789C47.7236 8.65167 47.8581 8.41352 48.0781 8.02438C49.2718 5.91225 52.9795 -0.648086 69.5564 1.28555C69.6439 1.29575 69.731 1.30633 69.8179 1.3173Z" fill="#393939"/>
<path d="M93.8764 51.664L110.983 57.0946V112.704H55.2094L44.4102 76.7056L67.3757 60.9899L92.5582 51.6944C92.9815 51.5381 93.4461 51.5274 93.8764 51.664Z" fill="#E3482C"/>
<path d="M34.3956 87.8295L30.877 112.704H63.138L60.3054 90.1756C59.3939 82.9271 53.6406 77.1566 46.2906 76.0695C46.1322 76.046 45.9702 76.0487 45.8128 76.0776C39.8311 77.1747 35.2333 81.9073 34.3956 87.8295Z" fill="#D12E11"/>
<path d="M6.95166 92.4213C-2.3933 98.3447 8.99216 112.099 15.3077 117.845L24.7885 112.881C19.643 109.581 21.8444 97.4487 18.4344 97.9104C15.8064 98.2661 16.9727 100.037 17.0545 103.359C14.0344 102.585 9.95905 98.1972 6.95166 92.4213Z" fill="#EA8F72"/>
</g>
</svg>
