<svg width="171" height="141" viewBox="0 0 171 141" fill="none" xmlns="http://www.w3.org/2000/svg">
<mask id="mask0" mask-type="alpha" maskUnits="userSpaceOnUse" x="0" y="0" width="171" height="142">
<rect y="0.265625" width="171" height="140.735" fill="#C4C4C4"/>
</mask>
<g mask="url(#mask0)">
<path d="M137.63 144.301C137.63 144.301 152.289 154.756 157.111 163.534C161.686 171.777 166.59 171.928 173.02 175.074C180.638 178.928 187.834 183.565 194.493 188.909C200.62 193.827 202.062 197.056 203.656 200.559C206.939 207.675 209.151 212.497 209.151 212.497C209.151 212.497 212.792 212.868 214.18 206.137C215.029 202.576 215.165 198.883 214.578 195.27C214.578 195.27 213.932 192.096 208.629 185.832C202.392 178.482 194.712 171.557 186.428 164.015C180.37 158.52 173.239 155.772 170.945 152.736C165.295 145.45 160.061 137.85 155.27 129.972L137.63 144.301Z" fill="#C1592B"/>
<path d="M103.354 46.5662C103.354 46.5662 100.016 44.7802 87.6649 48.256C83.1038 49.5474 74.4212 53.6139 65.5738 55.9494C56.5215 58.5672 47.7718 62.1362 39.471 66.5966C34.8924 68.7934 29.9025 70.0011 24.8261 70.1411C20.1963 70.0312 11.6923 78.8923 14.014 82.5055C16.3358 86.1187 22.257 88.4816 26.1037 89.2922C29.9504 90.1028 29.7718 80.2112 35.1572 78.3016C38.7979 77.0102 55.2563 72.8063 59.0893 71.4325C74.4762 65.5525 83.0626 65.841 92.3222 63.533C96.2926 62.5301 107.311 69.7014 107.311 69.7014L111.185 48.201L103.354 46.5662Z" fill="#C1592B"/>
<path d="M105.979 52.1154C105.979 52.1154 102.943 63.4769 103.424 67.3511C103.905 71.2253 111.351 78.3417 111.351 78.3417C111.351 78.3417 119.594 81.6252 125.762 76.1573C131.931 70.6895 129.884 52.1841 129.884 52.1841C125.086 49.6802 120.916 46.1251 117.684 41.7842C113.933 41.8941 105.979 52.1154 105.979 52.1154Z" fill="#C1592B"/>
<path d="M160.051 117.964C157.976 112.73 150.159 106.658 145.351 99.6099C142.823 95.8868 143.51 82.1348 142.452 79.0025C140.597 73.6171 141.504 72.2845 141.504 72.2845C141.504 72.2845 148.744 58.2439 135.281 53.0509C130.967 51.3885 130.706 52.0892 128.81 51.2237C125.526 54.7269 124.262 60.0574 118.918 65.0306C110.428 72.9439 103.353 66.1434 104.26 62.8737L108.725 46.5664C108.725 46.5664 100.056 62.2418 98.517 68.7262C97.4454 73.095 97.8713 79.4833 105.991 88.2071C110.762 93.9483 114.621 100.389 117.435 107.303C119.248 112.002 125.375 125.534 125.375 125.534C125.375 125.534 142.837 115.395 147.357 118.665C151.876 121.935 149.568 140.413 149.568 140.413C149.568 140.413 166.563 134.368 160.051 117.964Z" fill="#FFC200"/>
<path d="M127.411 122.552C120.281 127.443 101.528 146.581 98.341 150.62C94.5355 155.442 94.6728 158.863 99.4812 164.784C104.29 170.705 114.676 176.667 120.803 183.605C123.908 187.122 130.914 196.327 130.241 198.992C129.568 201.657 126.917 210.834 126.917 210.834C126.917 210.834 134.899 218.143 139.542 210.834C144.186 203.526 146.906 202.839 146.906 202.839C146.906 202.839 139.281 188.496 136.918 183.715C127.672 164.825 117.437 157.722 117.437 157.722C117.437 157.722 133.703 149.026 139.418 146.347C153.404 139.808 155.176 137.348 155.176 137.348C155.176 137.348 159.421 100.571 127.411 122.552Z" fill="#E26F3B"/>
<path d="M102.942 26.5891C96.6497 33.1286 99.1913 55.7555 108.437 57.2392C114.427 58.2009 122.849 52.8705 125.885 42.4019C128.426 33.6231 114.853 14.211 102.942 26.5891Z" fill="#E26F3B"/>
<path d="M100.044 32.0155C105.57 34.482 111.667 35.3848 117.67 34.6258C119.044 35.9996 119.415 37.9779 120.185 39.9837C125.323 36.714 125.886 42.4291 122.932 45.479C122.108 46.8528 123.234 49.0647 123.234 49.0647C123.234 49.0647 131.285 42.6352 130.104 33.3481C130.241 31.4248 130.241 28.9107 128.469 27.4132C128.18 23.2917 125.515 22.5498 122.973 22.5498C121.6 19.5137 118.481 19.6098 115.61 19.5137C111.406 19.7499 107.285 20.7801 103.465 22.5498C98.3132 25.009 100.044 32.0155 100.044 32.0155Z" fill="#7A2305"/>
<path d="M111.185 22.5772C111.185 22.5772 111.075 14.9387 114.99 12.8779C115.98 12.2544 117.125 11.9235 118.294 11.9235C119.464 11.9235 120.609 12.2544 121.598 12.8779C121.598 12.8779 123.426 7.38262 126.187 6.943C128.948 6.50337 131.682 9.69065 131.682 9.69065C131.682 9.69065 134.76 8.31682 136.697 9.69065C139.967 11.9437 136.697 16.7521 136.697 16.7521C136.697 16.7521 142.769 16.3812 143.25 21.9727C143.566 25.6408 143.25 26.6025 144.789 27.9213C143.25 29.6936 139.39 28.8418 139.39 28.8418C139.39 28.8418 141.327 32.1665 140.544 34.0211C139.772 35.3498 138.612 36.4096 137.219 37.0573C137.219 37.0573 138.593 33.4579 136.408 31.9192C134.471 35.8621 128.165 37.4145 128.014 36.6589C127.863 35.9033 111.185 22.5772 111.185 22.5772Z" fill="#7A2305"/>
<path d="M67.0423 -65.4843L67.0148 -65.498L65.5723 -63.0801L65.6547 -63.0389L311.24 78.7538L327.492 87.5326L328.303 85.9389L312.696 76.3496L67.0423 -65.4843Z" fill="#FFC200"/>
<path d="M223.179 22.5792C223.179 22.5792 220.87 19.543 219.991 21.9885C219.277 24.0355 216.639 24.0355 215.966 23.747C211.487 21.8099 206.349 25.9726 202.612 28.9812C185.975 42.1562 181.084 51.8692 176.249 52.5698C165.038 54.191 158.65 58.5323 151.369 55.661C144.499 52.9133 135.556 50.7564 132.327 52.4599C130.102 53.6414 126.2 61.1013 126.832 68.6162C127.053 71.7981 128.058 74.8759 129.758 77.575C131.458 80.2742 133.799 82.5108 136.572 84.0854C135.995 80.6962 135.732 77.2606 135.789 73.823C138.901 74.5031 142.088 74.771 145.269 74.6198C149.928 74.3913 154.542 73.5931 159.007 72.2431C165.23 70.0999 175.74 67.2149 181.964 65.5525C183.104 65.2503 186.676 64.8656 189.877 59.0131C194.122 51.2647 204.797 39.7795 208.424 35.452C211.707 31.564 216.941 32.8279 219.016 32.7043C221.09 32.5807 231.545 33.034 232.933 27.6898C233.29 26.316 231.834 25.2994 229.663 25.8764C229.086 23.7057 228.454 23.7607 226.915 23.7057C224.772 20.6009 223.179 22.5792 223.179 22.5792Z" fill="#E26F3B"/>
<path d="M135.791 73.835C135.734 77.2726 135.996 80.7082 136.574 84.0975C138.557 85.2572 140.853 85.7665 143.141 85.5537C143.429 82.916 144.515 78.0801 145.27 74.6318C142.089 74.783 138.902 74.5151 135.791 73.835V73.835Z" fill="#C1592B"/>
<path d="M102.516 68.8623C102.006 69.7988 101.548 70.7618 101.142 71.7473C100.772 72.581 100.491 73.4514 100.304 74.3439C100.304 74.3439 104.425 76.7069 107.516 78.4654C110.607 80.2239 115.32 82.5868 115.32 82.5868L117.889 76.858C117.889 76.858 112.627 74.4813 109.646 72.8739C106.665 71.2665 102.516 68.8623 102.516 68.8623Z" fill="white"/>
</g>
</svg>
