<svg width="493" height="493" viewBox="0 0 493 493" fill="none" xmlns="http://www.w3.org/2000/svg">
<g clip-path="url(#clip0_823_35046)">
<path d="M246.339 492.678C382.388 492.678 492.678 382.388 492.678 246.339C492.678 110.29 382.388 0 246.339 0C110.29 0 0 110.29 0 246.339C0 382.388 110.29 492.678 246.339 492.678Z" fill="#991B1B" fill-opacity="0.2"/>
<mask id="mask0_823_35046" style="mask-type:alpha" maskUnits="userSpaceOnUse" x="106" y="106" width="280" height="280">
<path d="M106.5 106.5H385.5V385.5H106.5V106.5Z" fill="#C4C4C4" stroke="#991B1B"/>
</mask>
<g mask="url(#mask0_823_35046)">
<path d="M249.423 178.967C249.423 180.187 248.254 181.295 246.652 181.295H171.418C169.818 181.295 168.647 180.187 168.647 178.967C168.647 177.747 169.818 176.639 171.418 176.639H246.652C248.254 176.639 249.423 177.747 249.423 178.967ZM299.143 197.634C299.143 198.854 297.973 199.962 296.372 199.962H171.418C169.818 199.962 168.647 198.854 168.647 197.634C168.647 196.413 169.818 195.305 171.418 195.305H296.372C297.973 195.305 299.143 196.413 299.143 197.634ZM322.04 216.3C322.04 217.52 320.87 218.629 319.269 218.629H171.418C169.818 218.629 168.647 217.52 168.647 216.3C168.647 215.08 169.818 213.972 171.418 213.972H319.269C320.87 213.972 322.04 215.08 322.04 216.3ZM322.04 234.967C322.04 236.187 320.87 237.295 319.269 237.295H171.418C169.818 237.295 168.647 236.187 168.647 234.967C168.647 233.747 169.818 232.639 171.418 232.639H319.269C320.87 232.639 322.04 233.747 322.04 234.967ZM322.04 253.634C322.04 254.854 320.87 255.962 319.269 255.962H171.418C169.818 255.962 168.647 254.854 168.647 253.634C168.647 252.413 169.818 251.305 171.418 251.305H319.269C320.87 251.305 322.04 252.413 322.04 253.634Z" fill="#B63A3A" stroke="#991B1B"/>
<path d="M134.785 251.374V166.818C134.785 158.534 141.501 151.818 149.785 151.818H342.215C350.499 151.818 357.215 158.534 357.215 166.818V251.374" stroke="#991B1B" stroke-width="12"/>
<path d="M135.12 200.922L115.15 220.683C108.901 226.866 110.27 236.413 118.09 241.184L232.703 311.118C240.137 315.654 250.031 315.668 257.398 311.154L372.906 240.369C380.255 235.865 381.803 226.969 376.327 220.707L356.896 198.487M190.482 152.103L240.588 114.442C246.916 109.685 256.459 109.998 262.446 115.16L305.294 152.103" stroke="#991B1B" stroke-width="10"/>
<path d="M109.924 231.254V332.284C109.924 359.898 132.31 382.284 159.924 382.284H332.073C359.688 382.284 382.073 359.898 382.073 332.284V230.727" stroke="#991B1B" stroke-width="12"/>
</g>
</g>
<defs>
<clipPath id="clip0_823_35046">
<rect width="493" height="493" fill="white"/>
</clipPath>
</defs>
</svg>
