<svg width="227" height="368" viewBox="0 0 227 368" fill="none" xmlns="http://www.w3.org/2000/svg">
<mask id="mask0" mask-type="alpha" maskUnits="userSpaceOnUse" x="0" y="0" width="227" height="368">
<rect y="0.898438" width="227" height="367.102" fill="#C4C4C4"/>
</mask>
<g mask="url(#mask0)">
<path d="M328.422 285.845C333.843 244.29 307.906 245.651 292.634 252.069C291.867 252.392 291.028 251.745 291.206 250.932C299.111 214.827 312.284 140.445 304.891 116.418C297.656 92.9064 268.122 105.16 252.598 115.201C251.876 115.668 250.93 115.073 251.033 114.22C258.052 56.4201 266.505 10.4661 208.411 5.81856C161.965 2.1029 157.536 69.891 161.197 105.597C161.268 106.29 160.591 106.816 159.913 106.657C116.261 96.4198 120.643 129.161 128.403 147.008C140.169 185.443 159.935 259.49 144.875 248.195C129.976 237.02 119.99 243.349 116.74 248.043C116.67 248.144 116.622 248.263 116.595 248.383C88.5013 375.275 191.957 384.679 229.589 384.679C267.24 384.679 321.363 339.968 328.422 285.845Z" fill="#82B7FB"/>
<path d="M204.865 57.5895C208.261 149.302 208.002 362.716 204.864 467.04L226.043 467.04C218.983 259.961 202.512 -5.94689 204.865 57.5895Z" fill="#3A5CA6"/>
<path d="M221.338 361.147C244.085 345.459 291.933 307.024 301.346 278.786" stroke="#3A5CA6" stroke-linecap="round"/>
<path d="M209.572 339.97C190.839 327.42 151.435 296.672 143.683 274.081" stroke="#3A5CA6" stroke-linecap="round"/>
<path d="M214.277 212.898C235.687 198.555 280.72 163.414 289.579 137.597" stroke="#3A5CA6" stroke-linecap="round"/>
<path d="M214.277 245.843C200.897 236.879 149.219 151.38 143.682 135.244" stroke="#3A5CA6" stroke-linecap="round"/>
<path d="M185.992 175.248C186.637 187.177 180.96 209.246 153.095 202.088" stroke="#3A5CA6" stroke-width="0.5" stroke-linecap="round"/>
<path d="M176.58 278.786C177.225 290.715 171.548 312.784 143.683 305.627" stroke="#3A5CA6" stroke-width="0.5" stroke-linecap="round"/>
<mask id="mask1" mask-type="alpha" maskUnits="userSpaceOnUse" x="-43" y="64" width="334" height="341">
<path d="M290.938 64.1953H-42.4688V404.695H290.938V64.1953Z" fill="#C4C4C4"/>
</mask>
<g mask="url(#mask1)">
<path fill-rule="evenodd" clip-rule="evenodd" d="M167.49 385.314C133.732 388.424 103.76 364.466 100.546 331.803C97.3313 299.14 122.092 270.14 155.85 267.03C183.28 264.502 208.211 279.847 218.318 303.212C224.497 310.939 231.654 317.537 240.258 318.929L225.288 368.264C223.711 368.409 222.14 368.514 220.561 368.619C214.054 369.053 207.41 369.496 199.706 372.818C190.745 379.672 179.707 384.188 167.49 385.314Z" fill="#FD8221"/>
<mask id="mask2" mask-type="alpha" maskUnits="userSpaceOnUse" x="100" y="266" width="141" height="120">
<path fill-rule="evenodd" clip-rule="evenodd" d="M167.467 385.32C133.709 388.43 103.737 364.472 100.522 331.809C97.3079 299.146 122.068 270.146 155.826 267.035C183.257 264.508 208.188 279.853 218.295 303.218C224.473 310.945 231.63 317.543 240.234 318.935L225.264 368.27C223.688 368.415 222.117 368.52 220.538 368.625C214.03 369.059 207.387 369.502 199.683 372.824C190.722 379.678 179.684 384.194 167.467 385.32Z" fill="#FFB80B"/>
</mask>
<g mask="url(#mask2)">
<path fill-rule="evenodd" clip-rule="evenodd" d="M169.238 380.895C135.48 384.005 105.508 360.048 102.294 327.384C99.0794 294.721 123.84 265.721 157.598 262.611C185.028 260.083 209.959 275.428 220.066 298.793C226.245 306.52 233.402 313.118 242.006 314.51L227.036 363.845C225.459 363.99 223.888 364.095 222.309 364.2C215.802 364.634 209.158 365.077 201.454 368.399C192.493 375.253 181.455 379.769 169.238 380.895Z" fill="#FDAC1A"/>
</g>
<path d="M182.856 322.3L230.259 333.918L228.907 342.568L179.634 334.319C166.102 334.856 142.252 339.468 135.973 338.342C129.695 337.215 133.011 334.352 135.454 333.061L161.697 328.605C162.904 328.4 162.749 326.633 161.524 326.626L135.907 326.473C131.333 324.764 135.855 322.216 137.778 323.104L173.134 325.648L137.273 317.974C130.579 312.623 136.39 312.727 140.132 313.448L163.061 320.736C164.213 321.102 164.615 320.089 163.514 319.591C155.823 316.11 145.51 311.412 141.899 309.022C137.908 304.275 141.414 304.094 143.667 304.597L170.36 322.643C171.199 323.21 171.598 322.76 170.885 322.041C165.879 316.996 154.691 306.11 152.191 301.68C148.989 296.007 152.832 297.003 155.153 298.21L182.856 322.3Z" stroke="#FFDC87" stroke-width="0.3"/>
<rect width="15.3367" height="55.4187" rx="7.66833" transform="matrix(-0.986979 -0.160848 -0.171497 0.985184 244.371 316.021)" fill="#041345"/>
<rect x="-0.579238" y="0.412168" width="14.3367" height="54.4187" rx="7.16833" transform="matrix(-0.986979 -0.160848 -0.171497 0.985184 243.291 315.934)" stroke="white" stroke-opacity="0.04"/>
<ellipse rx="6.37173" ry="12.0495" transform="matrix(-0.217927 0.976487 0.978394 0.204421 179.426 282.881)" fill="white" fill-opacity="0.31"/>
<path d="M97.1942 240.737C96.0729 229.906 113.173 226.495 122.495 226.842L124.662 237.337C117.615 237.859 112.752 248.098 110.413 245.112C108.611 242.81 110.972 242.321 113.727 239.782C110.988 238.229 102.737 239.913 98.5771 241.503C97.9704 241.735 97.261 241.382 97.1942 240.737Z" fill="#EE9F86"/>
<path d="M100.176 352.445V329.013L84.8397 330.362L84.1426 352.445H100.176Z" fill="#EE9F86"/>
<path d="M83.5615 349.94C87.4512 351.546 96.5272 351.948 100.579 351.948H101.187L102.402 368.677H54.3885C45.1504 368.677 49.7289 364.216 53.1729 361.986C61.9248 361.986 77.0786 353.955 83.5615 349.94Z" fill="#1D104A"/>
<path d="M149.084 332.919L137.453 312.366L124.671 320.676L135.021 340.369L149.084 332.919Z" fill="#F3AEAE"/>
<path d="M133.263 338.446C137.472 338.047 145.632 334.181 149.186 332.299L149.719 332.016L159.09 346.125L116.976 368.437C108.873 372.73 110.674 366.689 112.588 363.133C120.265 359.066 129.57 344.98 133.263 338.446Z" fill="#1D104A"/>
<path d="M181.839 278.425C213.068 278.965 215.763 247.624 213.207 235.933H151.166C130.718 239.53 87.7305 247.264 79.3654 249.422C71.0003 251.581 68.909 259.765 68.909 263.587L80.0995 341.827H103.764L100.45 286.785L129.555 337.106L151.203 326.314L127.235 275.246C143.628 276.714 163.648 278.111 181.839 278.425Z" fill="#79C7CE"/>
<mask id="mask3" mask-type="alpha" maskUnits="userSpaceOnUse" x="68" y="235" width="146" height="107">
<path d="M181.839 278.427C213.068 278.967 215.763 247.626 213.207 235.935H151.166C130.718 239.532 87.7305 247.266 79.3654 249.424C71.0003 251.583 68.909 259.766 68.909 263.589L80.0995 341.829H103.764L100.45 286.787L129.555 337.108L151.203 326.316L127.235 275.248C143.628 276.716 163.648 278.113 181.839 278.427Z" fill="#79C7CE"/>
</mask>
<g mask="url(#mask3)">
<path d="M99.6279 274.381L127.512 275.73L166.549 323.618L130.997 344.528L101.719 301.36L99.6279 274.381Z" fill="#5DB3BB"/>
</g>
<path d="M149.298 123.796C148.784 122.926 148.466 121.888 148.252 120.811C147.467 116.87 148.217 112.666 149.708 108.92C166.58 95.4448 178.191 109.961 181.887 118.904L185.215 146.765L170.175 150.774L169.108 142.477C166.854 141.024 164.516 142.265 159.571 144.325C154.626 146.386 154.625 141.662 154.312 140.935C154.126 140.505 153.268 140.005 152.547 139.66C152.202 139.494 152.069 139.072 152.282 138.762C152.469 138.491 152.393 138.124 152.113 137.944L151.682 137.666C151.243 137.383 151.066 136.842 151.256 136.365L151.442 135.9C151.583 135.546 151.467 135.144 151.157 134.913L149.381 133.588C148.597 133.003 148.373 131.959 148.762 131.078C149.703 128.947 150.561 125.933 149.298 123.796Z" fill="#EE9F86"/>
<path fill-rule="evenodd" clip-rule="evenodd" d="M140.95 107.67C140.641 107.117 140.411 106.51 140.277 105.861C139.551 102.355 141.9 98.9433 145.524 98.2409C147.513 97.8553 149.473 98.3663 150.956 99.4858C151.873 98.553 153.085 97.8747 154.488 97.6026C155.591 97.3888 156.685 97.4507 157.694 97.739C158.56 96.4286 159.955 95.4476 161.656 95.1178C163.522 94.7561 165.36 95.2552 166.731 96.3319L166.754 96.3274C168.035 96.0789 169.305 96.2027 170.443 96.6216C171.034 96.0947 171.777 95.7131 172.623 95.5491C174.545 95.1766 176.426 96.0378 177.391 97.5679C180.964 96.9517 184.408 99.2108 185.124 102.671C185.2 103.04 185.243 103.408 185.253 103.771C187.811 103.498 190.205 105.158 190.72 107.645C190.739 107.738 190.755 107.83 190.769 107.923C192.259 108.523 193.424 109.807 193.765 111.454C194.017 112.672 193.775 113.874 193.172 114.867C194.128 115.558 194.835 116.58 195.088 117.802C195.359 119.114 195.057 120.408 194.349 121.441C194.652 121.822 194.872 122.274 194.976 122.778C195.3 124.341 194.401 125.866 192.919 126.427C192.78 126.713 192.625 126.99 192.453 127.257C193.333 127.944 193.979 128.922 194.218 130.079C194.763 132.708 193.001 135.267 190.283 135.794C188.398 136.159 186.549 135.452 185.411 134.107C185.011 135.103 184.11 135.887 182.947 136.113C181.135 136.464 179.372 135.328 179.009 133.575C178.947 133.276 178.93 132.979 178.953 132.69C178.315 132.58 177.728 132.292 177.26 131.871C177.008 133.12 176.002 134.159 174.633 134.425C172.821 134.776 171.058 133.64 170.695 131.886C170.618 131.518 170.61 131.151 170.661 130.798C169.173 129.392 168.509 127.97 171.019 127.969C173.908 127.968 174.332 125.664 173.912 123.251C173.474 120.739 171.115 118.771 168.615 119.273C165.355 119.926 164.51 122.621 164.565 124.268C162.116 125.623 159.022 119.472 157.782 116.228C155.595 117.438 151.849 116.376 149.722 115.482C149.074 115.9 148.333 116.205 147.523 116.362C144.201 117.006 140.969 114.923 140.303 111.709C140.006 110.274 140.271 108.857 140.95 107.67Z" fill="#393939"/>
<path d="M215.289 231.792C216.292 235.313 214.716 236.164 213.463 236.653C196.961 236.653 162.526 237.66 159.518 237.66C156.51 237.66 156.176 236.682 156.385 236.193C156.886 232.672 162.91 219.124 162.701 214.967C161.624 193.534 151.427 189.099 153.319 177.522C155.212 165.945 154.833 155.23 169.737 148.02C181.465 142.347 182.265 141.971 188.97 143.84C193.357 145.062 202.506 150.589 204.01 162.912C205.89 178.317 214.036 227.39 215.289 231.792Z" fill="#7873D7"/>
<path d="M188.017 223.686V182.957L166.328 184.006L167.302 211.337C167.367 213.155 166.136 214.778 164.325 215.264L122.407 226.503L121.865 237.52L184.61 227.568C186.575 227.256 188.017 225.613 188.017 223.686Z" fill="#EE9F86"/>
<path d="M189.626 167.31C188.763 159.312 181.575 153.485 173.572 154.294V154.294C165.568 155.103 159.781 162.242 160.644 170.24L163.224 194.132L192.206 191.202L189.626 167.31Z" fill="#6660D9"/>
<path fill-rule="evenodd" clip-rule="evenodd" d="M77.3568 250.771L49.7931 204.578L57.4193 200.317L82.4891 242.332L131.454 234.76L132.688 242.228L77.4552 250.769L77.4473 250.721L77.3568 250.771Z" fill="#C4C4C4"/>
<path d="M10.3342 331.89C8.53696 335.555 23.6639 338.915 31.452 340.137L31.9013 330.973C34.1478 319.519 34.1478 316.77 31.452 317.229C28.7561 317.687 26.5095 323.185 25.6109 319.978C24.7122 316.77 31.452 308.524 29.2054 302.567C26.9588 296.611 22.4657 306.233 20.6684 304.858C18.8712 303.484 22.0164 287.906 19.3205 286.99C16.6246 286.074 16.1753 298.902 15.2767 294.321C14.378 289.739 7.18902 280.117 1.34794 283.783C-4.49314 287.448 11.6821 296.611 10.3342 298.444C8.98628 300.277 -1.94437e-06 294.779 -1.70869e-06 300.277C-1.47301e-06 305.775 14.8273 307.607 17.9725 309.898C21.1177 312.189 8.08764 314.48 4.94244 315.854C1.79724 317.229 2.69587 322.268 11.6821 322.727C20.6684 323.185 22.4657 325.476 23.3643 327.766C24.2629 330.057 12.5808 327.308 10.3342 331.89Z" fill="#5A87DF"/>
<path d="M11.6797 294.322C13.9263 296.307 18.8687 302.843 20.666 313.106C22.4632 323.369 28.0048 333.265 30.5509 336.931" stroke="#436BAC"/>
<path d="M51.8865 331.307C53.6837 334.972 38.5569 338.332 30.7687 339.554L30.3194 330.39C28.0729 318.936 28.0729 316.187 30.7688 316.646C33.4646 317.104 35.7112 322.602 36.6098 319.395C37.5085 316.187 30.7688 307.941 33.0153 301.984C35.2619 296.028 39.755 305.65 41.5523 304.275C43.3495 302.901 40.2043 287.323 42.9002 286.407C45.5961 285.491 46.0454 298.319 46.944 293.738C47.8427 289.156 55.0317 279.534 60.8728 283.2C66.7138 286.865 50.5386 296.028 51.8865 297.861C53.2344 299.694 62.2207 294.196 62.2207 299.694C62.2207 305.192 47.3934 307.024 44.2482 309.315C41.103 311.606 54.1331 313.897 57.2783 315.271C60.4235 316.646 59.5248 321.685 50.5386 322.144C41.5523 322.602 39.755 324.893 38.8564 327.183C37.9578 329.474 49.6399 326.725 51.8865 331.307Z" fill="#5A87DF"/>
<path d="M50.541 293.741C48.2944 295.726 43.352 302.262 41.5547 312.525C39.7575 322.788 34.216 332.684 31.6698 336.35" stroke="#1F4FAB"/>
<path d="M21.127 321.776C17.3475 321.776 21.625 329.055 24.1149 331.932L31.5843 340.057C35.2363 338.534 42.9385 335.081 44.5321 333.456C46.5241 331.424 44.0341 330.917 41.5442 330.409C39.5522 330.003 40.7142 328.208 41.5442 327.362C49.9104 324.925 52.666 320.253 52.998 318.222C52.998 317.714 52.998 316.698 51.006 315.175C49.014 313.651 41.0462 325.331 41.5442 317.714C42.0422 310.097 53.496 301.464 52.998 297.91C52.5 294.355 50.01 298.925 45.5281 301.464C41.9426 303.495 42.0422 299.941 42.5401 297.91C44.8641 295.201 49.2132 289.074 48.0181 286.23C46.5241 282.676 45.5281 286.23 41.5442 289.785C37.5602 293.34 40.0502 285.723 41.0462 284.199C42.0422 282.676 51.006 262.872 35.0703 266.426C19.1346 269.981 28.5964 291.308 29.0944 294.355C29.5924 297.402 25.6087 290.293 19.6328 292.324C13.6569 294.355 30.5886 305.527 30.5886 308.573C30.5886 311.62 24.1149 307.05 21.127 306.542C18.139 306.034 24.1149 313.651 25.6087 318.222C26.8038 321.878 26.1067 322.792 25.6087 322.792C24.1148 323.807 24.1149 321.776 21.127 321.776Z" fill="#82B7FB"/>
<path d="M36.0677 277.088C35.0717 277.257 33.3785 282.978 34.5737 304.509C35.7689 326.04 34.0759 333.792 33.0801 334.977" stroke="#1E3E75" stroke-width="2" stroke-linejoin="round"/>
<path d="M19.5059 344.403H40.7361L38.441 367.807H21.5141L19.5059 344.403Z" fill="#F5AA45"/>
<mask id="mask4" mask-type="alpha" maskUnits="userSpaceOnUse" x="19" y="344" width="22" height="24">
<path d="M19.5059 344.403H40.7361L38.441 367.807H21.5141L19.5059 344.403Z" fill="#F5AA45"/>
</mask>
<g mask="url(#mask4)">
<rect x="16.6367" y="340.309" width="26.9682" height="8.19127" rx="4.09564" fill="#C77E1C"/>
</g>
<rect x="16.6367" y="337.966" width="26.9682" height="8.19127" rx="4.09564" fill="#F5AA45"/>
<path d="M20.0801 351.426H40.1628L39.3021 360.787H20.6539L20.0801 351.426Z" fill="#FFD193"/>
</g>
</g>
</svg>
