<svg width="34" height="34" viewBox="0 0 34 34" fill="none" xmlns="http://www.w3.org/2000/svg">
<g clip-path="url(#clip0_861_35046)">
<path d="M17 33.5C7.8873 33.5 0.5 26.1127 0.5 17C0.5 7.8873 7.8873 0.5 17 0.5C26.1127 0.5 33.5 7.8873 33.5 17C33.5 26.1127 26.1127 33.5 17 33.5Z" fill="#F0FDF4"/>
<path d="M11.125 6C9.95625 6 9.01063 6.95625 9.01063 8.125L9 25.125C9 26.2938 9.94562 27.25 11.1144 27.25H23.875C25.0438 27.25 26 26.2938 26 25.125V12.375L19.625 6H11.125ZM18.5625 13.4375V7.59375L24.4062 13.4375H18.5625Z" fill="#16A34A"/>
<path d="M15.6364 22.4524L12.5341 19.6315L11.5 20.5718L15.6364 24.333L24.5 16.2733L23.4659 15.333L15.6364 22.4524Z" fill="#F0FDF4"/>
</g>
<defs>
<clipPath id="clip0_861_35046">
<rect width="34" height="34" fill="white"/>
</clipPath>
</defs>
</svg>
