<svg width="34" height="34" viewBox="0 0 34 34" fill="none" xmlns="http://www.w3.org/2000/svg">
<g clip-path="url(#clip0_861_35043)">
<path d="M17 33.5C7.8873 33.5 0.5 26.1127 0.5 17C0.5 7.8873 7.8873 0.5 17 0.5C26.1127 0.5 33.5 7.8873 33.5 17C33.5 26.1127 26.1127 33.5 17 33.5Z" fill="#FEF2F2"/>
<path d="M9.71429 24.5559C9.71429 25.8545 10.8071 26.917 12.1429 26.917H21.8571C23.1929 26.917 24.2857 25.8545 24.2857 24.5559V10.3892H9.71429V24.5559ZM12.1429 12.7503H21.8571V24.5559H12.1429V12.7503ZM21.25 6.84755L20.0357 5.66699H13.9643L12.75 6.84755H8.5V9.20866H25.5V6.84755H21.25Z" fill="#DC2626"/>
</g>
<defs>
<clipPath id="clip0_861_35043">
<rect width="34" height="34" fill="white"/>
</clipPath>
</defs>
</svg>
