<svg width="34" height="34" viewBox="0 0 34 34" fill="none" xmlns="http://www.w3.org/2000/svg">
<rect width="34" height="34" rx="17" fill="#EFF6FF"/>
<path d="M16.9993 9.91699C11.8478 9.91699 7.44845 12.8542 5.66602 17.0003C7.44845 21.1464 11.8478 24.0837 16.9993 24.0837C22.1509 24.0837 26.5502 21.1464 28.3327 17.0003C26.5502 12.8542 22.1509 9.91699 16.9993 9.91699ZM16.9993 21.7225C14.1557 21.7225 11.8478 19.607 11.8478 17.0003C11.8478 14.3937 14.1557 12.2781 16.9993 12.2781C19.843 12.2781 22.1509 14.3937 22.1509 17.0003C22.1509 19.607 19.843 21.7225 16.9993 21.7225ZM16.9993 14.167C15.289 14.167 13.9084 15.4325 13.9084 17.0003C13.9084 18.5681 15.289 19.8337 16.9993 19.8337C18.7096 19.8337 20.0902 18.5681 20.0902 17.0003C20.0902 15.4325 18.7096 14.167 16.9993 14.167Z" fill="#2563EB"/>
</svg>
