<svg width="1440" height="341" viewBox="0 0 1440 341" fill="none" xmlns="http://www.w3.org/2000/svg">
<mask id="mask0" mask-type="alpha" maskUnits="userSpaceOnUse" x="0" y="0" width="1440" height="341">
<rect width="1440" height="341" fill="#C4C4C4"/>
</mask>
<g mask="url(#mask0)">
<path d="M0 0H1440V341H0V0Z" fill="#02355A"/>
<path d="M939.868 89.9661H879.705V328.492H939.868V89.9661Z" fill="#6D5AFF"/>
<path d="M887.962 91.7009H886.195V343.544H887.962V91.7009Z" fill="#C2CDFF"/>
<path d="M896.22 91.7009H894.452V343.544H896.22V91.7009Z" fill="#C2CDFF"/>
<path d="M905.064 91.7009H903.297V343.544H905.064V91.7009Z" fill="#C2CDFF"/>
<path d="M913.322 91.7009H911.554V343.544H913.322V91.7009Z" fill="#C2CDFF"/>
<path d="M922.173 91.7009H920.405V343.544H922.173V91.7009Z" fill="#C2CDFF"/>
<path d="M930.43 91.7009H928.663V343.544H930.43V91.7009Z" fill="#C2CDFF"/>
<path d="M938.688 91.7009H936.92V343.544H938.688V91.7009Z" fill="#C2CDFF"/>
<path d="M929.224 84.9464V71.6423H930.228V69.6704H920.203V62.2821H916.172V60.3102H913.909V57.8453H916.172V54.1511H912.911V50.7003H911.652V45.0342H910.902V35.181H908.639V45.0342H907.889V50.7003H906.636V54.1511H903.375V57.8453H905.638V60.3102H903.369V62.2821H899.331V69.6704H889.319V71.6423H890.317V84.9464H873V88.8838H876.261V343.62H943.28V88.8838H946.541V84.9464H929.224ZM887.056 312.806H881.538V307.383H887.056V312.806ZM887.056 305.418H881.538V300.001H887.056V305.418ZM887.056 298.023H881.538V292.607H887.056V298.023ZM887.056 290.635H881.538V285.212H887.056V290.635ZM887.056 283.246H881.538V277.823H887.056V283.246ZM887.056 275.852H881.538V270.435H887.056V275.852ZM887.056 268.463H881.538V263.06H887.056V268.463ZM887.056 261.069H881.538V255.652H887.056V261.069ZM887.056 253.68H881.538V248.257H887.056V253.68ZM887.056 246.292H881.538V240.869H887.056V246.292ZM887.056 238.897H881.538V233.481H887.056V238.897ZM887.056 231.509H881.538V226.086H887.056V231.509ZM887.056 224.121H881.538V218.691H887.056V224.121ZM887.056 216.726H881.538V211.303H887.056V216.726ZM887.056 209.338H881.538V203.966H887.056V209.338ZM887.056 201.943H881.538V196.526H887.056V201.943ZM887.056 194.555H881.538V189.132H887.056V194.555ZM887.056 187.166H881.538V181.743H887.056V187.166ZM887.056 179.772H881.538V174.355H887.056V179.772ZM887.056 172.383H881.538V166.96H887.056V172.383ZM887.056 164.995H881.538V159.572H887.056V164.995ZM887.056 157.6H881.538V152.184H887.056V157.6ZM887.056 150.212H881.538V144.808H887.056V150.212ZM887.056 142.817H881.538V137.401H887.056V142.817ZM887.056 135.429H881.538V130.006H887.056V135.429ZM887.056 128.034H881.538V122.656H887.056V128.034ZM887.056 120.646H881.538V115.229H887.056V120.646ZM887.056 113.258H881.538V107.835H887.056V113.258ZM887.056 105.863H881.538V100.446H887.056V105.863ZM887.056 98.4746H881.538V93.0518H887.056V98.4746ZM895.594 312.806H890.069V307.389H895.594V312.806ZM895.594 305.418H890.069V300.001H895.594V305.418ZM895.594 298.029H890.069V292.607H895.594V298.029ZM895.594 290.635H890.069V285.218H895.594V290.635ZM895.594 283.246H890.069V277.823H895.594V283.246ZM895.594 275.852H890.069V270.435H895.594V275.852ZM895.594 268.463H890.069V263.047H895.594V268.463ZM895.594 261.075H890.069V255.652H895.594V261.075ZM895.594 253.68H890.069V248.264H895.594V253.68ZM895.594 246.292H890.069V240.869H895.594V246.292ZM895.594 238.897H890.069V233.481H895.594V238.897ZM895.594 231.509H890.069V226.086H895.594V231.509ZM895.594 224.121H890.069V218.691H895.594V224.121ZM895.594 216.726H890.069V211.303H895.594V216.726ZM895.594 209.338H890.069V203.966H895.594V209.338ZM895.594 201.943H890.069V196.526H895.594V201.943ZM895.594 194.555H890.069V189.132H895.594V194.555ZM895.594 187.166H890.069V181.743H895.594V187.166ZM895.594 179.778H890.069V174.355H895.594V179.778ZM895.594 172.383H890.069V166.967H895.594V172.383ZM895.594 164.995H890.069V159.572H895.594V164.995ZM895.594 157.6H890.069V152.184H895.594V157.6ZM895.594 150.212H890.069V144.808H895.594V150.212ZM895.594 142.817H890.069V137.401H895.594V142.817ZM895.594 135.429H890.069V130.006H895.594V135.429ZM895.594 128.034H890.069V122.656H895.594V128.034ZM895.594 120.646H890.069V115.229H895.594V120.646ZM895.594 113.258H890.069V107.835H895.594V113.258ZM895.594 105.863H890.069V100.446H895.594V105.863ZM895.594 98.4746H890.069V93.0518H895.594V98.4746ZM904.125 312.806H898.601V307.389H904.125V312.806ZM904.125 305.418H898.601V300.001H904.125V305.418ZM904.125 298.029H898.601V292.607H904.125V298.029ZM904.125 290.635H898.601V285.218H904.125V290.635ZM904.125 283.246H898.601V277.823H904.125V283.246ZM904.125 275.852H898.601V270.435H904.125V275.852ZM904.125 268.463H898.601V263.047H904.125V268.463ZM904.125 261.075H898.601V255.652H904.125V261.075ZM904.125 253.68H898.601V248.264H904.125V253.68ZM904.125 246.292H898.601V240.869H904.125V246.292ZM904.125 238.897H898.601V233.481H904.125V238.897ZM904.125 231.509H898.601V226.093H904.125V231.509ZM904.125 224.121H898.601V218.691H904.125V224.121ZM904.125 216.726H898.601V211.329H904.125V216.726ZM904.125 209.338H898.601V203.966H904.125V209.338ZM904.125 201.943H898.601V196.526H904.125V201.943ZM904.125 194.555H898.601V189.132H904.125V194.555ZM904.125 187.166H898.601V181.743H904.125V187.166ZM904.125 179.778H898.601V174.355H904.125V179.778ZM904.125 172.383H898.601V166.967H904.125V172.383ZM904.125 164.995H898.601V159.572H904.125V164.995ZM904.125 157.6H898.601V152.184H904.125V157.6ZM904.125 150.212H898.601V144.808H904.125V150.212ZM904.125 142.824H898.601V137.401H904.125V142.824ZM904.125 135.429H898.601V130.006H904.125V135.429ZM904.125 128.041H898.601V122.656H904.125V128.041ZM904.125 120.646H898.601V115.229H904.125V120.646ZM904.125 113.258H898.601V107.835H904.125V113.258ZM904.125 105.869H898.601V100.446H904.125V105.869ZM904.125 98.4746H898.601V93.0774H904.125V98.4746ZM912.657 312.806H907.158V307.389H912.683L912.657 312.806ZM912.657 305.418H907.158V300.001H912.683L912.657 305.418ZM912.657 298.029H907.158V292.607H912.683L912.657 298.029ZM912.657 290.635H907.158V285.218H912.683L912.657 290.635ZM912.657 283.246H907.158V277.823H912.683L912.657 283.246ZM912.657 275.852H907.158V270.435H912.683L912.657 275.852ZM912.657 268.463H907.158V263.047H912.683L912.657 268.463ZM912.657 261.075H907.158V255.652H912.683L912.657 261.075ZM912.657 253.68H907.158V248.264H912.683L912.657 253.68ZM912.657 246.292H907.158V240.869H912.683L912.657 246.292ZM912.657 238.897H907.158V233.481H912.683L912.657 238.897ZM912.657 231.509H907.158V226.093H912.683L912.657 231.509ZM912.657 224.121H907.158V218.691H912.683L912.657 224.121ZM912.657 216.726H907.158V211.329H912.683L912.657 216.726ZM912.657 209.338H907.158V203.966H912.683L912.657 209.338ZM912.657 201.943H907.158V196.526H912.683L912.657 201.943ZM912.657 194.555H907.158V189.132H912.683L912.657 194.555ZM912.657 187.166H907.158V181.743H912.683L912.657 187.166ZM912.657 179.778H907.158V174.355H912.683L912.657 179.778ZM912.657 172.383H907.158V166.967H912.683L912.657 172.383ZM912.657 164.995H907.158V159.572H912.683L912.657 164.995ZM912.657 157.6H907.158V152.184H912.683L912.657 157.6ZM912.657 150.212H907.158V144.808H912.683L912.657 150.212ZM912.657 142.824H907.158V137.401H912.683L912.657 142.824ZM912.657 135.429H907.158V130.006H912.683L912.657 135.429ZM912.657 128.041H907.158V122.656H912.683L912.657 128.041ZM912.657 120.646H907.158V115.229H912.683L912.657 120.646ZM912.657 113.258H907.158V107.835H912.683L912.657 113.258ZM912.657 105.869H907.158V100.446H912.683L912.657 105.869ZM912.657 98.4746H907.158V93.0774H912.683L912.657 98.4746ZM921.188 312.806H915.67V307.389H921.188V312.806ZM921.188 305.418H915.67V300.001H921.188V305.418ZM921.188 298.029H915.67V292.607H921.188V298.029ZM921.188 290.635H915.67V285.218H921.188V290.635ZM921.188 283.246H915.67V277.823H921.188V283.246ZM921.188 275.852H915.67V270.435H921.188V275.852ZM921.188 268.463H915.67V263.047H921.188V268.463ZM921.188 261.069H915.67V255.652H921.188V261.069ZM921.188 253.68H915.67V248.264H921.188V253.68ZM921.188 246.292H915.67V240.869H921.188V246.292ZM921.188 238.897H915.67V233.481H921.188V238.897ZM921.188 231.509H915.67V226.093H921.188V231.509ZM921.188 224.121H915.67V218.691H921.188V224.121ZM921.188 216.726H915.67V211.329H921.188V216.726ZM921.188 209.338H915.67V203.966H921.188V209.338ZM921.188 201.943H915.67V196.526H921.188V201.943ZM921.188 194.555H915.67V189.132H921.188V194.555ZM921.188 187.166H915.67V181.743H921.188V187.166ZM921.188 179.778H915.67V174.355H921.188V179.778ZM921.188 172.383H915.67V166.967H921.188V172.383ZM921.188 164.995H915.67V159.572H921.188V164.995ZM921.188 157.6H915.67V152.184H921.188V157.6ZM921.188 150.212H915.67V144.808H921.188V150.212ZM921.188 142.817H915.67V137.401H921.188V142.817ZM921.188 135.429H915.67V130.006H921.188V135.429ZM921.188 128.041H915.67V122.656H921.188V128.041ZM921.188 120.646H915.67V115.229H921.188V120.646ZM921.188 113.258H915.67V107.835H921.188V113.258ZM921.188 105.869H915.67V100.446H921.188V105.869ZM921.188 98.4746H915.67V93.0774H921.188V98.4746ZM929.726 312.806H924.201V307.389H929.726V312.806ZM929.726 305.418H924.201V300.001H929.726V305.418ZM929.726 298.029H924.201V292.607H929.726V298.029ZM929.726 290.635H924.201V285.218H929.726V290.635ZM929.726 283.246H924.201V277.823H929.726V283.246ZM929.726 275.852H924.201V270.435H929.726V275.852ZM929.726 268.463H924.201V263.047H929.726V268.463ZM929.726 261.075H924.201V255.652H929.726V261.075ZM929.726 253.68H924.201V248.264H929.726V253.68ZM929.726 246.292H924.201V240.869H929.726V246.292ZM929.726 238.897H924.201V233.481H929.726V238.897ZM929.726 231.509H924.201V226.093H929.726V231.509ZM929.726 224.121H924.201V218.691H929.726V224.121ZM929.726 216.726H924.201V211.329H929.726V216.726ZM929.726 209.338H924.201V203.966H929.726V209.338ZM929.726 201.943H924.201V196.526H929.726V201.943ZM929.726 194.555H924.201V189.132H929.726V194.555ZM929.726 187.166H924.201V181.743H929.726V187.166ZM929.726 179.778H924.201V174.355H929.726V179.778ZM929.726 172.383H924.201V166.967H929.726V172.383ZM929.726 164.995H924.201V159.572H929.726V164.995ZM929.726 157.6H924.201V152.184H929.726V157.6ZM929.726 150.212H924.201V144.808H929.726V150.212ZM929.726 142.824H924.201V137.401H929.726V142.824ZM929.726 135.429H924.201V130.006H929.726V135.429ZM929.726 128.041H924.201V122.656H929.726V128.041ZM929.726 120.646H924.201V115.229H929.726V120.646ZM929.726 113.258H924.201V107.835H929.726V113.258ZM929.726 105.869H924.201V100.446H929.726V105.869ZM929.726 98.4746H924.201V93.0774H929.726V98.4746ZM938.257 312.806H932.733V307.389H938.257V312.806ZM938.257 305.418H932.733V300.001H938.257V305.418ZM938.257 298.029H932.733V292.607H938.257V298.029ZM938.257 290.635H932.733V285.218H938.257V290.635ZM938.257 283.246H932.733V277.823H938.257V283.246ZM938.257 275.852H932.733V270.435H938.257V275.852ZM938.257 268.463H932.733V263.047H938.257V268.463ZM938.257 261.075H932.733V255.652H938.257V261.075ZM938.257 253.68H932.733V248.264H938.257V253.68ZM938.257 246.292H932.733V240.869H938.257V246.292ZM938.257 238.897H932.733V233.481H938.257V238.897ZM938.257 231.509H932.733V226.093H938.257V231.509ZM938.257 224.121H932.733V218.691H938.257V224.121ZM938.257 216.726H932.733V211.329H938.257V216.726ZM938.257 209.338H932.733V203.966H938.257V209.338ZM938.257 201.943H932.733V196.526H938.257V201.943ZM938.257 194.555H932.733V189.132H938.257V194.555ZM938.257 187.166H932.733V181.743H938.257V187.166ZM938.257 179.778H932.733V174.355H938.257V179.778ZM938.257 172.383H932.733V166.967H938.257V172.383ZM938.257 164.995H932.733V159.572H938.257V164.995ZM938.257 157.6H932.733V152.184H938.257V157.6ZM938.257 150.212H932.733V144.808H938.257V150.212ZM938.257 142.824H932.733V137.401H938.257V142.824ZM938.257 135.429H932.733V130.006H938.257V135.429ZM938.257 128.041H932.733V122.656H938.257V128.041ZM938.257 120.646H932.733V115.229H938.257V120.646ZM938.257 113.258H932.733V107.835H938.257V113.258ZM938.257 105.869H932.733V100.446H938.257V105.869ZM938.257 98.4746H932.733V93.0774H938.257V98.4746Z" fill="#95A1F7"/>
<path d="M946.945 84.7542H873.215V86.7774H946.945V84.7542Z" fill="#BDC1FF"/>
<path d="M946.945 86.7775H873.215V88.8007H946.945V86.7775Z" fill="#6C61EE"/>
<path d="M930.431 69.7024H889.144V70.8612H930.431V69.7024Z" fill="#BDC1FF"/>
<path d="M930.431 70.8612H889.144V72.02H930.431V70.8612Z" fill="#6C61EE"/>
<path d="M997.012 100.562C996.098 101.407 994.213 103.673 993.998 105.933C994.272 101.881 994.65 93.0326 993.998 90.0875C992.321 91.6664 991.207 93.7343 990.822 95.9841C991.063 92.6613 991.272 87.5074 990.704 85.5675C990.185 85.9733 989.767 86.4896 989.481 87.0775C989.195 87.6654 989.049 88.3093 989.054 88.9607L988.232 83.8389H985.212V80.7273H983.569V76.4826H979.453V67.7434H976.707V64.9135H975.063V63.4986H973.687V38.0301H975.331V34.9442H973.687L972.585 5.23727H973.687V0.685205H972.585L971.222 -16.2746H972.591V-20.5322H971.222L969.774 -29.7195L969.572 -31V343.588H988.78C985.03 310.014 978.136 225.894 980.549 157.991H984.391V154.316H982.199V152.331H984.391V149.501H982.199V147.805H983.569V140.167C988.05 134.04 997.012 121.267 997.012 119.231C997.012 118.591 997.064 117.4 997.129 115.87C997.318 111.196 997.631 103.545 997.012 100.562ZM967.889 -20.5322H966.513V-16.2746H967.921L966.513 0.685205H965.391V5.21166H966.513L965.358 34.9442H963.669V38.0557H965.358V63.4986H963.949V64.9135H962.26V67.7434H959.449V76.5082H955.229V80.7529H953.546V83.8645H950.448L949.606 88.9863C949.609 88.3314 949.458 87.6846 949.165 87.0961C948.872 86.5077 948.445 85.9934 947.917 85.5931C947.337 87.5138 947.545 92.6869 947.8 96.0097C947.391 93.7495 946.247 91.6803 944.538 90.1132C943.886 93.0582 944.258 101.906 944.538 105.959C944.31 103.699 942.379 101.432 941.44 100.587C940.788 103.571 941.134 111.222 941.329 115.895C941.395 117.426 941.44 118.629 941.44 119.257C941.44 121.293 950.63 134.065 955.222 140.192V147.83H956.631V149.527H954.381V152.357H956.631V154.341H954.381V158.016H958.294C960.766 225.92 953.729 310.04 949.854 343.614H969.539V-31L967.889 -20.5322Z" fill="#8292F4"/>
<path d="M997.129 115.87C997.063 117.4 997.011 118.604 997.011 119.231C997.011 121.267 988.049 134.04 983.568 140.167V147.805H982.199V149.501H984.39V152.331H982.199V154.316H984.39V157.991H980.549C978.135 225.894 985.029 310.015 988.78 343.588H969.773V-29.7195L971.221 -20.5321H972.591V-16.2746H971.221L972.591 0.698055H973.687V5.22452H972.585L973.687 34.9442H975.331V38.0557H973.687V63.4987H975.057V64.9136H976.7V67.7434H979.446V76.5082H983.562V80.753H985.206V83.8645H988.225L989.047 88.9864C989.042 88.335 989.188 87.691 989.474 87.1031C989.76 86.5153 990.178 85.9989 990.697 85.5931C991.265 87.5139 991.056 92.687 990.815 96.0098C991.2 93.76 992.314 91.6921 993.991 90.1132C994.644 93.0583 994.265 101.906 993.991 105.959C994.207 103.699 996.092 101.433 997.005 100.587C997.631 103.545 997.318 111.196 997.129 115.87Z" fill="#ABB2FF"/>
<path d="M952.815 110.428V120.736H944.988V110.428C944.988 108.117 946.567 106.215 948.576 106.023H948.902C949.43 106.027 949.95 106.144 950.428 106.365C950.905 106.586 951.328 106.906 951.667 107.303C952.421 108.175 952.829 109.285 952.815 110.428Z" fill="#C2CDFF"/>
<path d="M952.163 110.428V120.736H944.988V110.428C944.988 108.117 946.567 106.215 948.576 106.023C949.527 106.125 950.401 106.583 951.015 107.303C951.769 108.175 952.176 109.285 952.163 110.428Z" fill="#6D5AFF"/>
<path d="M963.251 110.428V120.736H955.424V110.428C955.424 108.117 957.003 106.215 959.012 106.023H959.338C959.866 106.027 960.386 106.144 960.864 106.365C961.341 106.586 961.764 106.906 962.103 107.303C962.857 108.175 963.265 109.285 963.251 110.428Z" fill="#C2CDFF"/>
<path d="M962.599 110.428V120.736H955.424V110.428C955.424 108.117 957.003 106.215 959.012 106.023C959.963 106.125 960.837 106.583 961.451 107.303C962.205 108.175 962.612 109.285 962.599 110.428Z" fill="#6D5AFF"/>
<path d="M984.123 110.428V120.736H976.296V110.428C976.296 108.117 977.875 106.215 979.884 106.023H980.21C980.738 106.027 981.258 106.144 981.736 106.365C982.213 106.586 982.636 106.906 982.975 107.303C983.729 108.175 984.137 109.285 984.123 110.428Z" fill="#C2CDFF"/>
<path d="M983.471 110.428V120.736H976.296V110.428C976.296 108.117 977.875 106.215 979.884 106.023C980.835 106.125 981.709 106.583 982.323 107.303C983.077 108.175 983.484 109.285 983.471 110.428Z" fill="#6D5AFF"/>
<path d="M993.907 110.428V120.736H986.08V110.428C986.08 108.117 987.659 106.215 989.667 106.023H989.994C990.521 106.027 991.042 106.144 991.52 106.365C991.997 106.586 992.42 106.906 992.759 107.303C993.513 108.175 993.92 109.285 993.907 110.428Z" fill="#C2CDFF"/>
<path d="M993.255 110.428V120.736H986.08V110.428C986.08 108.117 987.659 106.215 989.667 106.023C990.618 106.125 991.493 106.583 992.107 107.303C992.861 108.175 993.268 109.285 993.255 110.428Z" fill="#6D5AFF"/>
<path d="M973.687 110.428V120.736H965.86V110.428C965.86 108.117 967.439 106.215 969.448 106.023H969.774C970.302 106.027 970.822 106.144 971.3 106.365C971.777 106.586 972.2 106.906 972.539 107.303C973.293 108.175 973.701 109.285 973.687 110.428Z" fill="#6D5AFF"/>
<path d="M957.296 95.8303V103.449H951.511V95.8303C951.468 95.0626 951.715 94.3063 952.205 93.7062C952.695 93.1061 953.393 92.7044 954.165 92.5779H954.4C954.792 92.5821 955.178 92.6702 955.532 92.836C955.886 93.0019 956.198 93.2416 956.448 93.5383C957.002 94.1776 957.303 94.9912 957.296 95.8303Z" fill="#C2CDFF"/>
<path d="M956.813 95.8303V103.449H951.511V95.8303C951.468 95.0626 951.715 94.3063 952.205 93.7062C952.695 93.1061 953.393 92.7044 954.165 92.5779C954.868 92.6509 955.514 92.991 955.965 93.5255C956.525 94.1667 956.826 94.9863 956.813 95.8303Z" fill="#6D5AFF"/>
<path d="M965.012 95.8303V103.449H959.227V95.8303C959.182 95.0632 959.428 94.3069 959.917 93.7067C960.406 93.1065 961.103 92.7045 961.875 92.5779H962.116C962.507 92.5817 962.893 92.6697 963.246 92.8356C963.598 93.0015 963.91 93.2414 964.158 93.5383C964.716 94.1755 965.02 94.99 965.012 95.8303Z" fill="#C2CDFF"/>
<path d="M964.555 95.8303V103.449H959.253V95.8303C959.208 95.0632 959.454 94.3069 959.943 93.7067C960.431 93.1065 961.129 92.7045 961.901 92.5779C962.606 92.6493 963.255 92.9895 963.708 93.5255C964.264 94.1682 964.565 94.9868 964.555 95.8303Z" fill="#6D5AFF"/>
<path d="M980.438 95.8303V103.449H974.653V95.8303C974.61 95.0635 974.856 94.308 975.344 93.7081C975.833 93.1081 976.529 92.7058 977.301 92.5779H977.542C977.934 92.5821 978.321 92.6702 978.674 92.836C979.028 93.0019 979.341 93.2416 979.59 93.5383C980.144 94.1776 980.445 94.9912 980.438 95.8303Z" fill="#C2CDFF"/>
<path d="M979.956 95.8303V103.449H974.653V95.8303C974.61 95.0635 974.856 94.308 975.344 93.7081C975.833 93.1081 976.529 92.7058 977.301 92.5779C978.006 92.6493 978.655 92.9895 979.108 93.5255C979.664 94.1682 979.965 94.9868 979.956 95.8303Z" fill="#6D5AFF"/>
<path d="M987.665 95.8303V103.449H981.886V95.8303C981.842 95.0632 982.087 94.3069 982.576 93.7067C983.065 93.1065 983.762 92.7045 984.534 92.5779H984.775C985.167 92.5817 985.552 92.6697 985.905 92.8356C986.258 93.0015 986.569 93.2414 986.817 93.5383C987.373 94.1762 987.675 94.9907 987.665 95.8303Z" fill="#C2CDFF"/>
<path d="M987.189 95.8303V103.449H981.886V95.8303C981.842 95.0632 982.087 94.3069 982.576 93.7067C983.065 93.1065 983.762 92.7045 984.534 92.5779C985.238 92.6482 985.885 92.9888 986.334 93.5255C986.895 94.1661 987.199 94.9856 987.189 95.8303Z" fill="#6D5AFF"/>
<path d="M972.722 95.8305V103.449H966.936V95.8305C966.893 95.0619 967.14 94.3048 967.63 93.7037C968.12 93.1026 968.818 92.6996 969.591 92.5717H969.832C970.223 92.5768 970.607 92.6647 970.96 92.8294C971.312 92.994 971.624 93.2315 971.874 93.5256C972.43 94.1686 972.731 94.987 972.722 95.8305Z" fill="#6D5AFF"/>
<path d="M962.742 85.5226V90.0043H959.338V85.5226C959.31 85.0701 959.455 84.6237 959.742 84.2691C960.03 83.9146 960.441 83.677 960.897 83.6019H961.04C961.27 83.604 961.497 83.6555 961.704 83.7529C961.911 83.8502 962.094 83.991 962.24 84.1653C962.571 84.5423 962.75 85.0252 962.742 85.5226Z" fill="#C2CDFF"/>
<path d="M962.455 85.5226V90.0043H959.338V85.5226C959.31 85.0701 959.455 84.6237 959.742 84.2691C960.03 83.9146 960.441 83.677 960.897 83.6019C961.311 83.6443 961.693 83.8442 961.96 84.1589C962.287 84.54 962.463 85.0243 962.455 85.5226Z" fill="#6D5AFF"/>
<path d="M967.276 85.5226V90.0043H963.904V85.5226C963.876 85.0701 964.02 84.6237 964.308 84.2691C964.596 83.9146 965.007 83.677 965.463 83.6019H965.606C965.836 83.604 966.062 83.6555 966.27 83.7529C966.477 83.8502 966.66 83.991 966.806 84.1653C967.123 84.5483 967.289 85.0297 967.276 85.5226Z" fill="#C2CDFF"/>
<path d="M966.995 85.5226V90.0043H963.904V85.5226C963.876 85.0701 964.02 84.6237 964.308 84.2691C964.596 83.9146 965.007 83.677 965.463 83.6019C965.875 83.6459 966.254 83.8456 966.519 84.1589C966.842 84.5413 967.011 85.0263 966.995 85.5226Z" fill="#6D5AFF"/>
<path d="M976.355 85.5226V90.0043H972.95V85.5226C972.923 85.0701 973.067 84.6237 973.355 84.2691C973.642 83.9146 974.053 83.677 974.509 83.6019H974.652C974.882 83.604 975.109 83.6555 975.316 83.7529C975.524 83.8502 975.707 83.991 975.853 84.1653C976.183 84.5423 976.362 85.0252 976.355 85.5226Z" fill="#C2CDFF"/>
<path d="M976.068 85.5226V90.0043H972.95V85.5226C972.923 85.0701 973.067 84.6237 973.355 84.2691C973.642 83.9146 974.053 83.677 974.509 83.6019C974.924 83.6443 975.305 83.8442 975.572 84.1589C975.899 84.54 976.075 85.0243 976.068 85.5226Z" fill="#6D5AFF"/>
<path d="M980.608 85.5226V90.0043H977.203V85.5226C977.176 85.0701 977.32 84.6237 977.608 84.2691C977.895 83.9146 978.306 83.677 978.762 83.6019H978.905C979.135 83.604 979.362 83.6555 979.569 83.7529C979.776 83.8502 979.96 83.991 980.105 84.1653C980.436 84.5423 980.615 85.0252 980.608 85.5226Z" fill="#C2CDFF"/>
<path d="M980.321 85.5226V90.0043H977.203V85.5226C977.176 85.0701 977.32 84.6237 977.608 84.2691C977.895 83.9146 978.306 83.677 978.762 83.6019C979.177 83.6443 979.558 83.8442 979.825 84.1589C980.152 84.54 980.328 85.0243 980.321 85.5226Z" fill="#6D5AFF"/>
<path d="M971.815 85.5226V90.0043H968.411V85.5226C968.385 85.0704 968.529 84.6247 968.817 84.2705C969.104 83.9163 969.515 83.6783 969.97 83.6019H970.113C970.344 83.6039 970.571 83.6554 970.78 83.7527C970.988 83.85 971.172 83.9909 971.32 84.1653C971.645 84.5447 971.821 85.0265 971.815 85.5226Z" fill="#6D5AFF"/>
<path d="M943.032 122.016H995.863C996.209 122.016 996.541 122.151 996.786 122.391C997.031 122.631 997.168 122.957 997.168 123.296H941.727C941.727 122.957 941.864 122.631 942.109 122.391C942.354 122.151 942.686 122.016 943.032 122.016Z" fill="#BDC1FF"/>
<path d="M941.727 123.297H997.168C997.168 123.636 997.031 123.962 996.786 124.202C996.541 124.442 996.209 124.577 995.863 124.577H943.032C942.686 124.577 942.354 124.442 942.109 124.202C941.864 123.962 941.727 123.636 941.727 123.297Z" fill="#6C61EE"/>
<path d="M975.644 34.9442H963.251V38.1453H975.644V34.9442Z" fill="#CFD4F4"/>
<path d="M979.558 67.5962H959.338V76.5595H979.558V67.5962Z" fill="#CFD4F4"/>
<path d="M982.199 152.331V154.316H984.391V157.869H954.387V154.316H956.637V152.331H954.387V149.546H984.391V152.331H982.199Z" fill="#CFD4F4"/>
<path d="M937.22 170.629V166.237H920.203V170.629H925.578V176.775H921.997V181.174H925.578V341.149H932.752V181.174H935.44V176.775H932.739V170.629H937.22ZM1200.48 172.39V167.991H1183.46V172.39H1188.84V178.542H1185.26V182.934H1188.84V326.648H1180.71V312.563H1173.62V214.287H1176.3V210.753H1173.62V205.804H1178.09V202.269H1161.08V205.804H1166.46V210.753H1162.87V214.287H1166.46V312.582H1152.85L1156.84 242.066L1158.93 242.182L1159.09 239.422L1156.97 239.307L1157.19 235.466L1160.68 235.658L1160.84 232.905L1147.6 232.136L1147.44 234.889L1151.63 235.12L1151.4 238.961L1148.61 238.814L1148.46 241.567L1151.25 241.721L1147.92 300.674H1130.38C1130.68 284.271 1128.59 249.608 1117.81 242.227C1107.03 234.845 1102.53 230.657 1101.63 229.479V221.611H1094.46V214.568H1102.55V206.668H1087.25V198.345H1090.84L1079.16 182.083L1075.12 143.406V265.557H1080.04V276.101L1104.67 300.277H1111.38V308.19H1107.8V335.438H1115.88V342.897H1200.48V326.635H1196.01V182.934H1198.71V178.542H1196.03V172.39H1200.48ZM1075.08 142.869L1071.11 181.347L1059.5 197.679H1063.05V206.066H1047.91V214.011H1055.94V221.054H1048.8V228.999C1047.91 230.171 1043.45 234.384 1032.74 241.804C1022.03 249.224 1019.94 284.059 1020.24 300.513H1000.17V312.435H972.833L975.872 258.732L977.594 258.828L977.725 256.561L976.003 256.472L976.179 253.271L979.049 253.431L979.173 251.164L968.287 250.569L968.156 252.835L971.594 253.021L971.417 256.222L969.122 256.094L968.998 258.36L971.287 258.482L967.432 326.558H954.329L950.474 258.482L952.77 258.36L952.639 256.094L950.35 256.222L950.174 253.021L953.611 252.835L953.481 250.569L942.588 251.164L942.719 253.431L945.582 253.271L945.765 256.472L944.043 256.561L944.173 258.828L945.895 258.732L950.559 341.079H950.65V342.897H1036.62V335.438H1044.22V308.19H1039.75V300.277H1047.81L1072.43 276.101V265.557H1075.12V142.504L1075.08 142.869Z" fill="#AAB8F9"/>
<path d="M1196.01 172.39V178.542H1198.71V182.934H1196.03V326.648H1200.51V342.897H1115.88V335.438H1107.8V308.19H1111.38V300.277H1104.67L1080.04 276.101V265.557H1075.08V142.869L1075.12 142.504V143.381L1079.16 182.057L1090.84 198.319H1087.25V206.642H1102.53V214.549H1094.44V221.592H1101.61V229.499C1102.51 230.677 1107 234.864 1117.79 242.246C1128.58 249.628 1130.66 284.29 1130.36 300.693H1147.9L1151.25 241.74L1148.46 241.586L1148.61 238.833L1151.4 238.981L1151.63 235.139L1147.44 234.909L1147.6 232.156L1160.88 232.886L1160.73 235.639L1157.24 235.446L1157.01 239.288L1159.11 239.403L1158.95 242.162L1156.86 242.047L1152.87 312.563H1166.48V214.287H1162.89V210.753H1166.48V205.804H1161.08V202.269H1178.09V205.804H1173.62V210.753H1176.3V214.287H1173.62V312.582H1180.71V326.667H1188.84V182.934H1185.26V178.542H1188.84V172.39H1183.46V167.991H1200.48V172.39H1196.01Z" fill="#95A1F3"/>
<g opacity="0.33">
<path opacity="0.33" d="M1102.7 206.29H1048V214.792H1102.7V206.29Z" fill="#9CA2FF"/>
<path opacity="0.33" d="M1101.61 221.175H1048.55V230.209H1101.61V221.175Z" fill="#9CA2FF"/>
</g>
<path opacity="0.28" d="M1044.21 326.424H949.443V335.457H1044.21V326.424Z" fill="#CFD4F4"/>
<path opacity="0.28" d="M1036.63 335.457H949.443V342.897H1036.63V335.457Z" fill="#ABB2FF"/>
<path d="M1384.21 292.747C1383.67 292.485 1382.65 297.024 1382.2 299.329H1386.22C1385.78 297.242 1384.75 293.01 1384.21 292.747ZM1410.35 302.28C1409.82 302.011 1408.79 306.557 1408.34 308.856H1412.36C1411.92 306.775 1410.89 302.562 1410.35 302.28ZM1427.79 308.862C1427.23 306.224 1425.64 301.026 1423.76 301.294C1421.88 301.563 1420.75 306.448 1420.41 308.862H1413.71C1413.26 306.339 1412 301.282 1410.35 301.282C1408.71 301.282 1407.45 306.327 1407 308.849H1401.64V299.316H1399.29C1398.85 296.467 1397.61 290.763 1396.28 290.763C1394.94 290.763 1393.49 296.467 1392.92 299.316H1387.56C1386.9 296.467 1384.68 290.763 1383.87 290.763C1383.06 290.763 1381.53 296.467 1380.86 299.316H1374.49V305.238H1363.08V302.28H1365.76V299.316H1363.08V293.727H1365.76V290.763H1363.08V287.472H1365.76V281.876H1363.08V278.918H1365.76V276.312H1363.08V273.022H1365.76V267.753H1363.08V220.375H1380.85C1378.16 218.07 1370.12 213.333 1359.39 212.808C1352.24 212.404 1345.08 212.404 1337.93 212.808L1306.76 172.665L1305.1 159.15V340.778H1440.19V308.862H1427.79ZM1352.03 264.442H1339.29V221.009H1352.03V264.442ZM1394.26 299.361C1394.71 297.056 1395.74 292.517 1396.28 292.779C1396.81 293.042 1397.84 297.261 1398.29 299.361H1394.26ZM1422.43 308.542C1422.88 306.237 1423.91 301.698 1424.45 301.96C1424.98 302.223 1426.01 306.442 1426.46 308.542H1422.43ZM1226 292.747C1225.45 293.01 1224.43 297.229 1223.98 299.329H1228C1227.55 297.024 1226.53 292.485 1226 292.747ZM1199.85 302.274C1199.31 302.543 1198.28 306.756 1197.84 308.856H1201.86C1201.41 306.557 1200.38 302.011 1199.85 302.274ZM1305.03 159.726L1303.42 172.639L1272.25 212.782C1265.11 212.379 1257.95 212.379 1250.8 212.782C1240.07 213.307 1232.03 218.045 1229.34 220.35H1247.11V267.727H1244.43V272.996H1247.11V276.312H1244.43V278.944H1247.11V281.902H1244.43V287.497H1247.11V290.788H1244.43V293.746H1247.11V299.342H1244.43V302.306H1247.11V305.264H1235.71V299.342H1229.37C1228.72 296.493 1227.16 290.788 1226.35 290.788C1225.55 290.788 1223.33 296.493 1222.67 299.342H1217.3C1216.75 296.493 1215.29 290.788 1213.95 290.788C1212.6 290.788 1211.38 296.493 1210.94 299.342H1208.59V308.888H1203.23C1202.78 306.365 1201.48 301.32 1199.87 301.32C1198.26 301.32 1196.97 306.365 1196.52 308.888H1189.79C1189.46 306.474 1188.32 301.583 1186.44 301.32C1184.56 301.058 1182.97 306.25 1182.42 308.888H1170.01V340.803H1305.1V159.15L1305.03 159.726ZM1183.76 308.542C1184.21 306.455 1185.23 302.223 1185.77 301.96C1186.31 301.698 1187.33 306.237 1187.78 308.542H1183.76ZM1211.91 299.361C1212.36 297.274 1213.39 293.042 1213.92 292.779C1214.46 292.517 1215.49 297.056 1215.94 299.361H1211.91ZM1270.91 264.468H1258.17V221.009H1270.91V264.468Z" fill="#8396F2"/>
<path d="M1291.69 323.626V338.415H1280.46V323.626C1280.46 320.31 1282.72 317.582 1285.6 317.307C1285.76 317.307 1285.91 317.307 1286.07 317.307C1286.4 317.306 1286.72 317.338 1287.04 317.403C1288.21 317.64 1289.27 318.261 1290.04 319.164C1291.12 320.407 1291.71 321.992 1291.69 323.626Z" fill="#2D20E2"/>
<path d="M1291.69 323.626V338.415H1282.42V323.626C1282.42 320.515 1284.41 317.915 1287.04 317.384C1288.21 317.621 1289.27 318.242 1290.04 319.144C1291.12 320.393 1291.71 321.985 1291.69 323.626Z" fill="#5136FF"/>
<path d="M1312.56 323.626V338.415H1301.33V323.626C1301.33 320.31 1303.59 317.582 1306.48 317.307C1306.63 317.307 1306.79 317.307 1306.95 317.307C1307.27 317.306 1307.59 317.338 1307.91 317.403C1309.09 317.64 1310.14 318.261 1310.91 319.164C1311.99 320.407 1312.58 321.992 1312.56 323.626Z" fill="#5136FF"/>
<path d="M1271.69 323.626V338.415H1260.46V323.626C1260.46 320.31 1262.72 317.582 1265.61 317.307C1265.76 317.307 1265.91 317.307 1266.08 317.307C1266.4 317.306 1266.72 317.338 1267.04 317.403C1268.22 317.64 1269.27 318.261 1270.04 319.164C1271.12 320.407 1271.71 321.992 1271.69 323.626Z" fill="#2D20E2"/>
<path d="M1271.69 323.626V338.415H1262.42V323.626C1262.42 320.515 1264.41 317.915 1267.04 317.384C1268.22 317.621 1269.27 318.242 1270.04 319.144C1271.13 320.393 1271.71 321.985 1271.69 323.626Z" fill="#5136FF"/>
<path d="M1251.69 323.626V338.415H1240.46V323.626C1240.46 320.31 1242.72 317.582 1245.6 317.307C1245.75 317.307 1245.91 317.307 1246.07 317.307C1246.4 317.306 1246.72 317.338 1247.04 317.403C1248.21 317.64 1249.27 318.261 1250.04 319.164C1251.12 320.407 1251.7 321.992 1251.69 323.626Z" fill="#2D20E2"/>
<path d="M1251.69 323.626V338.415H1242.41V323.626C1242.41 320.515 1244.41 317.915 1247.04 317.384C1248.21 317.621 1249.27 318.242 1250.04 319.144C1251.12 320.393 1251.71 321.985 1251.69 323.626Z" fill="#5136FF"/>
<path d="M1231.68 323.626V338.415H1220.45V323.626C1220.45 320.31 1222.71 317.582 1225.6 317.307C1225.75 317.307 1225.91 317.307 1226.07 317.307C1226.39 317.306 1226.72 317.338 1227.03 317.403C1228.21 317.64 1229.26 318.261 1230.03 319.164C1231.11 320.407 1231.7 321.992 1231.68 323.626Z" fill="#2D20E2"/>
<path d="M1231.68 323.626V338.415H1222.41V323.626C1222.41 320.515 1224.4 317.915 1227.03 317.384C1228.21 317.621 1229.26 318.242 1230.03 319.144C1231.12 320.393 1231.7 321.985 1231.68 323.626Z" fill="#5136FF"/>
<path d="M1211.69 323.626V338.415H1200.45V323.626C1200.45 320.31 1202.72 317.582 1205.6 317.307C1205.75 317.307 1205.91 317.307 1206.07 317.307C1206.39 317.306 1206.72 317.338 1207.03 317.403C1208.21 317.64 1209.27 318.261 1210.04 319.164C1211.12 320.407 1211.7 321.992 1211.69 323.626Z" fill="#2D20E2"/>
<path d="M1211.69 323.626V338.415H1202.41V323.626C1202.41 320.515 1204.41 317.915 1207.03 317.384C1208.21 317.621 1209.27 318.242 1210.03 319.144C1211.12 320.393 1211.71 321.985 1211.69 323.626Z" fill="#5136FF"/>
<path d="M1191.68 323.626V338.415H1180.45V323.626C1180.45 320.31 1182.71 317.582 1185.6 317.307C1185.75 317.307 1185.9 317.307 1186.07 317.307C1186.39 317.306 1186.71 317.338 1187.03 317.403C1188.2 317.64 1189.26 318.261 1190.03 319.164C1191.11 320.407 1191.7 321.992 1191.68 323.626Z" fill="#2D20E2"/>
<path d="M1191.68 323.626V338.415H1182.41V323.626C1182.41 320.515 1184.4 317.915 1187.03 317.384C1188.2 317.621 1189.26 318.242 1190.03 319.144C1191.12 320.393 1191.7 321.985 1191.68 323.626Z" fill="#5136FF"/>
<path opacity="0.16" d="M1427.79 308.862C1427.23 306.224 1425.64 301.025 1423.76 301.294C1421.88 301.563 1420.75 306.448 1420.41 308.862H1413.71C1413.26 306.339 1412 301.282 1410.35 301.282C1408.71 301.282 1407.45 306.327 1407 308.849H1401.64V299.316H1399.29C1398.85 296.467 1397.61 290.762 1396.28 290.762C1394.94 290.762 1393.49 296.467 1392.93 299.316H1387.56C1386.9 296.467 1384.68 290.762 1383.87 290.762C1383.06 290.762 1381.53 296.467 1380.86 299.316H1374.49V305.238H1363.08V302.28H1365.76V299.316H1363.08V293.727H1365.76V290.762H1363.08V287.472H1365.76V281.876H1363.08V278.918H1365.76V276.312H1363.08V273.022H1365.76V267.752H1363.08V220.375H1380.85C1378.16 218.07 1370.12 213.333 1359.39 212.808C1352.24 212.404 1345.08 212.404 1337.93 212.808L1306.76 172.665L1305.1 159.15L1305.03 159.726V340.778H1440.19V308.862H1427.79ZM1352.03 264.442H1339.29V221.009H1352.03V264.442Z" fill="#5136FF"/>
<path d="M1422 322.986V337.775H1433.23V322.986C1433.23 319.669 1430.96 316.942 1428.08 316.667C1427.93 316.667 1427.77 316.667 1427.61 316.667C1427.29 316.666 1426.96 316.698 1426.65 316.763C1425.47 317 1424.41 317.621 1423.65 318.523C1422.57 319.767 1421.98 321.352 1422 322.986Z" fill="#2D20E2"/>
<path d="M1422 322.985V337.775H1431.27V322.985C1431.27 319.874 1429.27 317.275 1426.65 316.743C1425.47 316.98 1424.41 317.601 1423.65 318.504C1422.56 319.753 1421.98 321.345 1422 322.985Z" fill="#5136FF"/>
<path d="M1402 322.986V337.775H1413.23V322.986C1413.23 319.669 1410.97 316.942 1408.08 316.667C1407.93 316.667 1407.77 316.667 1407.61 316.667C1407.29 316.666 1406.97 316.698 1406.65 316.763C1405.47 317 1404.42 317.621 1403.65 318.523C1402.57 319.767 1401.98 321.352 1402 322.986Z" fill="#2D20E2"/>
<path d="M1402 322.985V337.775H1411.27V322.985C1411.27 319.874 1409.28 317.275 1406.65 316.743C1405.47 316.98 1404.42 317.601 1403.65 318.504C1402.56 319.753 1401.98 321.345 1402 322.985Z" fill="#5136FF"/>
<path d="M1381.99 322.986V337.775H1393.23V322.986C1393.23 319.669 1390.96 316.942 1388.08 316.667C1387.93 316.667 1387.77 316.667 1387.61 316.667C1387.29 316.666 1386.96 316.698 1386.64 316.763C1385.47 317 1384.41 317.621 1383.64 318.523C1382.56 319.767 1381.98 321.352 1381.99 322.986Z" fill="#2D20E2"/>
<path d="M1381.99 322.985V337.775H1391.27V322.985C1391.27 319.874 1389.27 317.275 1386.64 316.743C1385.47 316.98 1384.41 317.601 1383.64 318.504C1382.56 319.753 1381.97 321.345 1381.99 322.985Z" fill="#5136FF"/>
<path d="M1361.99 322.986V337.775H1373.22V322.986C1373.22 319.669 1370.96 316.942 1368.07 316.667C1367.92 316.667 1367.77 316.667 1367.6 316.667C1367.28 316.666 1366.96 316.698 1366.64 316.763C1365.47 317 1364.41 317.621 1363.64 318.523C1362.56 319.767 1361.97 321.352 1361.99 322.986Z" fill="#2D20E2"/>
<path d="M1361.99 322.985V337.775H1371.26V322.985C1371.26 319.874 1369.27 317.275 1366.64 316.743C1365.47 316.98 1364.41 317.601 1363.64 318.504C1362.55 319.753 1361.97 321.345 1361.99 322.985Z" fill="#5136FF"/>
<path d="M1341.99 322.986V337.775H1353.22V322.986C1353.22 319.669 1350.96 316.942 1348.08 316.667C1347.92 316.667 1347.77 316.667 1347.61 316.667C1347.28 316.666 1346.96 316.698 1346.64 316.763C1345.47 317 1344.41 317.621 1343.64 318.523C1342.56 319.767 1341.98 321.352 1341.99 322.986Z" fill="#2D20E2"/>
<path d="M1341.99 322.985V337.775H1351.27V322.985C1351.27 319.874 1349.27 317.275 1346.64 316.743C1345.47 316.98 1344.41 317.601 1343.64 318.504C1342.56 319.753 1341.97 321.345 1341.99 322.985Z" fill="#5136FF"/>
<path d="M1321.99 322.986V337.775H1333.22V322.986C1333.22 319.669 1330.96 316.942 1328.07 316.667C1327.92 316.667 1327.76 316.667 1327.6 316.667C1327.28 316.666 1326.95 316.698 1326.64 316.763C1325.46 317 1324.41 317.621 1323.64 318.523C1322.56 319.767 1321.97 321.352 1321.99 322.986Z" fill="#2D20E2"/>
<path d="M1321.99 322.985V337.775H1331.26V322.985C1331.26 319.874 1329.27 317.275 1326.64 316.743C1325.46 316.98 1324.41 317.601 1323.64 318.504C1322.55 319.753 1321.97 321.345 1321.99 322.985Z" fill="#5136FF"/>
<path d="M1442 308.324H1168.06V310.885H1442V308.324Z" fill="#5136FF"/>
<path opacity="0.45" d="M1440.19 310.885H1170.01V312.166H1440.19V310.885Z" fill="#3C39E2"/>
<path d="M1366.34 299.361H1244.37V301.922H1366.34V299.361Z" fill="#5136FF"/>
<path d="M1366.34 290.398H1244.37V292.959H1366.34V290.398Z" fill="#5136FF"/>
<path d="M1366.34 282.075H1244.37V284.636H1366.34V282.075Z" fill="#5136FF"/>
<path d="M1366.34 267.989H1244.37V270.55H1366.34V267.989Z" fill="#5136FF"/>
</g>
</svg>
