<svg width="214" height="171" viewBox="0 0 214 171" fill="none" xmlns="http://www.w3.org/2000/svg">
<path d="M165.85 74.8125C139.234 74.8125 117.7 96.3211 117.7 122.906C117.7 149.491 139.234 171 165.85 171C192.466 171 214 149.491 214 122.906C214 96.3211 192.466 74.8125 165.85 74.8125ZM187.25 125.01C187.25 126.78 185.779 128.25 184.007 128.25H163.743C161.971 128.25 160.5 126.78 160.5 125.01V99.4272C160.5 97.657 161.971 96.1875 163.743 96.1875H167.957C169.729 96.1875 171.2 97.657 171.2 99.4272V117.562H184.007C185.779 117.562 187.25 119.032 187.25 120.802V125.01ZM107 122.906C107 113.621 109.24 104.838 113.086 97.0225C110.411 96.5215 107.669 96.1875 104.86 96.1875H99.2759C91.8528 99.5941 83.5938 101.531 74.9 101.531C66.2062 101.531 57.9806 99.5941 50.5241 96.1875H44.94C20.1294 96.1875 0 116.293 0 141.075V154.969C0 163.819 7.18906 171 16.05 171H132.112C116.964 160.346 107 142.778 107 122.906ZM74.9 85.5C98.5403 85.5 117.7 66.3627 117.7 42.75C117.7 19.1373 98.5403 0 74.9 0C51.2597 0 32.1 19.1373 32.1 42.75C32.1 66.3627 51.2597 85.5 74.9 85.5Z" fill="white" fill-opacity="0.05"/>
</svg>
