<svg width="472" height="353" viewBox="0 0 472 353" fill="none" xmlns="http://www.w3.org/2000/svg">
<mask id="mask0" mask-type="alpha" maskUnits="userSpaceOnUse" x="0" y="0" width="472" height="353">
<rect y="0.204102" width="472" height="352.796" fill="#C4C4C4"/>
</mask>
<g mask="url(#mask0)">
<path opacity="0.21" d="M126.936 272.722C74.3292 336.39 -4.58147 352.807 -37.4609 353.057H525.816V9.94434C510.53 23.4586 453.135 57.5447 345.844 85.7746C211.731 121.062 192.695 193.138 126.936 272.722Z" fill="#EAEDFE"/>
<path d="M151.241 272.721C98.6339 336.389 19.7232 352.806 -13.1562 353.056H550.121V9.94336C534.835 23.4577 477.44 57.5437 370.149 85.7736C236.035 121.061 217 193.137 151.241 272.721Z" fill="#D7DDFF"/>
<path d="M391.844 281.355C388.788 287.466 414.507 293.068 427.749 295.105L428.513 279.827C432.332 260.729 432.332 256.145 427.749 256.909C423.165 257.673 419.345 266.84 417.818 261.492C416.29 256.145 427.749 242.394 423.929 232.463C420.109 222.532 412.47 238.575 409.414 236.283C406.359 233.991 411.706 208.017 407.122 206.489C402.539 204.962 401.775 226.352 400.247 218.712C398.719 211.073 386.496 195.03 376.565 201.142C366.634 207.253 394.136 222.532 391.844 225.588C389.552 228.643 374.273 219.476 374.273 228.643C374.273 237.811 399.483 240.866 404.831 244.686C410.178 248.506 388.024 252.325 382.677 254.617C377.329 256.909 378.857 265.312 394.136 266.076C409.414 266.84 412.47 270.66 413.998 274.479C415.526 278.299 395.664 273.715 391.844 281.355Z" fill="#5A87DF"/>
<path d="M394.137 218.712C397.956 222.023 406.36 232.921 409.415 250.033C412.471 267.145 421.893 283.646 426.222 289.758" stroke="#436BAC"/>
<path d="M462.498 280.382C465.554 286.493 439.835 292.096 426.593 294.133L425.829 278.854C422.01 259.756 422.01 255.172 426.593 255.936C431.177 256.7 434.996 265.867 436.524 260.52C438.052 255.172 426.593 241.422 430.413 231.49C434.232 221.559 441.872 237.602 444.928 235.31C447.983 233.018 442.636 207.045 447.219 205.517C451.803 203.989 452.567 225.379 454.095 217.74C455.623 210.1 467.845 194.058 477.777 200.169C487.708 206.281 460.206 221.559 462.498 224.615C464.79 227.671 480.068 218.504 480.068 227.671C480.068 236.838 454.859 239.894 449.511 243.713C444.164 247.533 466.318 251.353 471.665 253.644C477.013 255.936 475.485 264.339 460.206 265.103C444.928 265.867 441.872 269.687 440.344 273.507C438.816 277.326 458.678 272.743 462.498 280.382Z" fill="#5A87DF"/>
<path d="M460.203 217.741C456.383 221.051 447.98 231.95 444.924 249.062C441.869 266.174 432.447 282.675 428.118 288.786" stroke="#1F4FAB"/>
<path d="M410.204 264.494C403.778 264.494 411.051 276.629 415.285 281.427L427.984 294.974C434.193 292.434 447.289 286.677 449.998 283.967C453.385 280.581 449.152 279.734 444.918 278.887C441.531 278.21 443.507 275.218 444.918 273.807C459.143 269.743 463.828 261.953 464.392 258.567C464.392 257.72 464.392 256.027 461.005 253.486C457.618 250.946 444.071 270.42 444.918 257.72C445.765 245.02 465.239 230.626 464.392 224.699C463.545 218.772 459.312 226.392 451.692 230.626C445.595 234.012 445.765 228.086 446.611 224.699C450.563 220.183 457.957 209.966 455.925 205.225C453.385 199.298 451.692 205.225 444.918 211.152C438.144 217.079 442.378 204.378 444.071 201.838C445.765 199.298 461.005 166.277 433.911 172.204C406.817 178.131 422.904 213.692 423.751 218.772C424.597 223.852 417.824 211.998 407.664 215.385C397.504 218.772 426.291 237.399 426.291 242.479C426.291 247.56 415.285 239.939 410.204 239.093C405.124 238.246 415.285 250.946 417.824 258.567C419.856 264.663 418.671 266.187 417.824 266.187C415.284 267.88 415.284 264.493 410.204 264.494Z" fill="#82B7FB"/>
<path d="M435.603 189.984C433.91 190.267 431.031 199.806 433.063 235.706C435.095 271.606 432.217 284.532 430.523 286.508" stroke="#1E3E75" stroke-width="2" stroke-linejoin="round"/>
<path d="M407.441 302.219H443.538L439.635 341.242H410.856L407.441 302.219Z" fill="#F5AA45"/>
<mask id="mask1" mask-type="alpha" maskUnits="userSpaceOnUse" x="407" y="302" width="37" height="40">
<path d="M407.441 302.219H443.538L439.635 341.242H410.856L407.441 302.219Z" fill="#F5AA45"/>
</mask>
<g mask="url(#mask1)">
<rect x="402.562" y="295.392" width="45.8518" height="13.658" rx="6.82899" fill="#C77E1C"/>
</g>
<rect x="402.562" y="291.488" width="45.8518" height="13.658" rx="6.82899" fill="#F5AA45"/>
<path d="M408.416 313.926H442.561L441.098 329.535H409.392L408.416 313.926Z" fill="#FFD193"/>
<path d="M358.833 212.495C358.833 212.495 354.184 191.412 352.13 186.835C331.119 165.085 330.777 146.057 330.308 139.66C329.84 133.263 342.003 82.2852 342.003 82.2852C342.003 82.2852 353.193 85.6368 354.725 89.6732C357.824 120.307 351.373 140.669 351.373 140.669C351.373 140.669 362.942 153.859 368.852 165.32C371.375 170.203 382.295 187.232 382.295 187.232L358.833 212.495Z" fill="#EF8675"/>
<path d="M371.32 192.979L373.122 208.17C373.122 208.17 386.997 209.503 391.971 204.169C396.944 198.836 398.296 186.834 398.296 186.834L392.782 172.905L371.32 192.979Z" fill="#EF8675"/>
<path d="M339.211 293.832C339.211 293.832 313.425 314.843 308.776 319.06C302.253 324.916 302.685 331.547 306.163 338.178C309.316 344.197 315.173 356.198 319.93 365.73C324.687 375.263 331.967 395.066 331.967 395.066C331.967 395.066 332.4 396.598 339.86 397.103C344.004 397.373 348.311 391.823 348.311 391.823C348.311 391.823 341.644 361.982 341.103 355.784C339.95 344.774 330.544 336.178 330.544 336.178L359.213 321.474C359.213 321.474 345.139 295.382 339.211 293.832Z" fill="#FFB19C"/>
<path d="M377.467 341.568C377.467 341.568 381.305 329.855 398.387 332.666C415.47 335.477 413.2 339.874 413.2 339.874C413.2 339.874 404.082 360.038 402.568 366.147C401.054 372.255 410.965 380.652 411.344 393.176C411.524 398.978 411.163 431.864 411.163 431.864H395.739C395.739 431.864 391.035 414.133 388.315 403.303C384.35 387.626 379.161 381.427 374.836 369.3C372.583 363.011 377.467 345.856 377.467 341.568Z" fill="#FFB19C"/>
<path d="M307.727 330.628C309.839 332.613 311.659 334.888 313.132 337.385L314.268 340.034C314.268 340.034 309.745 338.593 307.727 330.628Z" fill="#EF8675"/>
<path d="M328.235 350.991C334.614 348.162 336.109 344.612 336.542 343.657C334.812 340.918 332.768 338.39 330.451 336.125L337.857 332.521C336.722 329.422 335.19 323.871 332.073 320.087C328.537 315.64 323.604 312.516 318.072 311.222C314.99 313.636 309.765 318.231 308.449 319.421C301.926 325.277 301.926 333.242 305.404 339.873C307.206 343.477 310.197 347.784 313.297 352.703C318.36 352.775 324.739 352.541 328.235 350.991Z" fill="#0F0F0F"/>
<path d="M392.835 350.649C384.708 347.856 377.717 353.118 374.816 357.136C374.023 362.272 373.933 367.047 374.96 369.93C376.906 375.336 379.807 380.832 381.897 385.283C396.547 389.716 403.521 381.463 406.152 377.12C404.35 373.516 401.809 368.867 402.44 366.308C402.656 365.479 403.016 364.362 403.467 363.101C403.143 360.056 402.224 353.893 392.835 350.649Z" fill="#0F0F0F"/>
<path d="M356.26 272.121C356.26 272.121 344.763 284.392 340.042 289.942C337.069 293.546 326.041 304.574 326.041 304.574C331.296 306.114 335.935 309.266 339.303 313.584C342.545 317.929 344.65 323.014 345.43 328.378C351.449 327.293 357.312 325.477 362.891 322.972C368.529 320.549 373.829 317.405 378.658 313.62L376.73 346.434C376.73 346.434 381.343 340.379 392.479 342.055C402.534 343.586 407.526 352.686 407.526 352.686C407.526 352.686 419.599 333.946 422.626 316.647C423.819 307.942 423.819 299.115 422.626 290.41C422.626 290.41 372.73 264.913 356.26 272.121Z" fill="#0F0F0F"/>
<path d="M398.136 186.832C396.885 191.587 394.121 195.806 390.262 198.851C386.099 202.347 377.99 204.671 372.134 201.158C372.701 197.552 373.637 194.013 374.927 190.598L365.412 189.247C365.412 189.247 357.592 206.978 356.06 214.889C351.537 238.314 356.439 273.11 356.439 273.11L351.447 277.363C351.447 277.363 372.332 292.211 376.044 315.943C376.887 315.151 377.778 314.41 378.711 313.726C386.351 293.22 400.677 289.436 413.074 288.769C416.345 288.808 419.59 289.349 422.697 290.373C422.697 290.373 418.516 275.435 416.895 271.074C414.965 265.334 413.601 259.42 412.822 253.415C411.795 245.738 426.877 212.762 421.057 203.41C413.633 191.445 398.136 186.832 398.136 186.832Z" fill="#0F0F0F"/>
<path d="M391.287 152.849C385.881 146.632 366.835 141.712 358.6 156.705C356.798 160.002 356.798 166.435 356.527 170.093C355.626 183.878 364.348 198.078 371.177 196.33C376.007 195.087 386.638 189.609 390.747 181.248C395.378 171.859 398.351 160.939 391.287 152.849Z" fill="#FFB19C"/>
<path d="M354.979 274.193C354.979 274.193 360.061 285.005 375.846 289.636C398.425 296.339 421.039 284.5 421.039 284.5C421.039 284.5 421.382 279.383 419.111 277.869C413.309 279.004 397.812 287.798 376.981 282.554C368.838 280.634 361.46 276.308 355.808 270.139C355.194 271.398 354.908 272.793 354.979 274.193V274.193Z" fill="white"/>
<path d="M342.004 76.9643C343.202 76.0554 344.541 75.3493 345.968 74.874C346.995 74.874 360.384 81.8476 360.384 81.8476V89.6682L342.004 76.9643Z" fill="#EF8675"/>
<path d="M403.559 193.212C420.443 184.004 426.984 197.068 430.822 197.554C434.661 198.041 440.499 193.212 453.653 193.212C461.348 185.067 467.889 163.876 467.889 163.876C467.889 163.876 458.555 155.1 468.087 145.388C468.555 144.36 469.745 144 471.691 144.469C472.046 144.263 472.443 144.14 472.852 144.107C473.261 144.075 473.673 144.134 474.056 144.281C474.439 144.428 474.785 144.658 475.068 144.956C475.351 145.253 475.564 145.61 475.691 146C476.046 145.8 476.447 145.697 476.854 145.701C477.261 145.706 477.659 145.819 478.009 146.027C478.359 146.236 478.647 146.533 478.844 146.889C479.042 147.245 479.141 147.647 479.133 148.054C479.533 147.85 479.98 147.758 480.428 147.787C480.876 147.817 481.308 147.967 481.677 148.222C482.047 148.477 482.341 148.827 482.527 149.235C482.714 149.644 482.786 150.095 482.737 150.541C482.34 152.884 483.53 159.082 481.854 167.678C481.061 171.822 478.971 183.211 478.25 186.779C476.214 197.735 471.727 208.925 462.681 212.799C444.968 220.349 439.58 223.359 431.543 224.278C425.784 224.85 419.993 225.043 414.208 224.854L403.559 193.212Z" fill="#FFB19C"/>
<path d="M412.193 224.331C415.239 224.493 420.717 224.854 422.266 224.944C422.769 220.897 422.356 216.79 421.059 212.925C415.455 196.977 403.562 193.283 403.562 193.283C396.462 198.419 398.264 210.132 398.156 213.862C398.048 216.637 400.733 224.944 402.391 231.881C405.562 228.494 409.959 224.223 412.193 224.331Z" fill="#FFB19C"/>
<path d="M422.261 224.944C421.039 233.045 418.049 240.778 413.504 247.595C419.158 241.389 422.416 233.371 422.694 224.98L422.261 224.944Z" fill="#EF8675"/>
<path d="M412.19 224.33C409.955 224.222 405.505 228.493 402.369 231.772C402.895 233.824 403.293 235.906 403.558 238.007C404.261 244.909 413.505 247.594 413.505 247.594C418.05 240.777 421.04 233.044 422.263 224.943C420.713 224.853 415.235 224.492 412.19 224.33Z" fill="#EF8675"/>
<path d="M308.253 57.1629C308.697 56.9339 309.17 56.7643 309.658 56.6584L260.609 28.3495C260.123 28.0679 259.586 27.8848 259.029 27.8108C258.472 27.7367 257.905 27.7731 257.362 27.9178C256.266 28.2101 255.33 28.9261 254.762 29.9082C254.193 30.8903 254.038 32.0581 254.33 33.1547C254.622 34.2513 255.338 35.1869 256.32 35.7556L304.108 63.3617C303.946 62.0039 304.274 60.6327 305.034 59.4959C305.795 58.3592 306.936 57.5316 308.253 57.1629V57.1629Z" fill="#0F0F0F"/>
<path d="M327.624 59.8744C331.66 31.3374 321.847 6.35311 305.706 4.07032C289.566 1.78752 273.209 23.0707 269.173 51.6076C265.137 80.1446 274.95 105.129 291.091 107.412C307.231 109.694 323.588 88.4113 327.624 59.8744Z" fill="#0E52A5"/>
<path d="M284.502 105.042L291.494 109.096L318.937 10.3303L311.333 5.89746L284.502 105.042Z" fill="#0E52A5"/>
<path d="M333.873 63.5351C337.908 35.0024 328.096 10.022 311.958 7.73977C295.819 5.45759 279.466 26.7378 275.431 55.2706C271.396 83.8033 281.208 108.784 297.346 111.066C313.484 113.348 329.838 92.0678 333.873 63.5351Z" fill="#2C6EE5"/>
<path d="M338.071 66.0931C342.107 37.5562 332.294 12.5719 316.153 10.2891C300.013 8.00627 283.656 29.2895 279.62 57.8264C275.584 86.3633 285.397 111.348 301.538 113.63C317.679 115.913 334.035 94.63 338.071 66.0931Z" fill="#0E52A5"/>
<path d="M294.936 111.274L301.927 115.328L329.371 16.5627L321.767 12.1299L294.936 111.274Z" fill="#0E52A5"/>
<path d="M344.337 69.767C348.373 41.23 338.56 16.2457 322.419 13.9629C306.278 11.6801 289.922 32.9633 285.886 61.5002C281.85 90.0372 291.663 115.021 307.803 117.304C323.944 119.587 340.301 98.3039 344.337 69.767Z" fill="#2C6EE5"/>
<path d="M536.649 189.139L538.001 188.491L317.963 61.5602L317.783 61.452C317.405 61.3403 317.005 61.3263 316.621 61.4114C316.236 61.4965 315.88 61.6779 315.584 61.9386C314.898 62.7878 314.417 63.7844 314.179 64.8504C313.942 65.9163 313.954 67.0228 314.215 68.0833C314.419 68.8965 314.921 69.6038 315.62 70.0654L534.271 196.311C533.935 195.688 533.729 195.003 533.667 194.298C533.606 193.593 533.689 192.883 533.911 192.212C534.134 191.54 534.492 190.921 534.963 190.392C535.434 189.864 536.008 189.438 536.649 189.139V189.139Z" fill="#0F0F0F"/>
<path d="M467.513 147.172C465.776 149.74 464.251 152.446 462.954 155.263C461.62 159.137 467.891 163.876 467.891 163.876L474.216 165.804C473.788 163.457 473.062 161.174 472.054 159.011C470.609 157.599 469.021 156.343 467.314 155.263C467.314 155.263 472.81 152.686 467.513 147.172Z" fill="#FFB19C"/>
<path d="M360.51 83.833C360.798 86.9183 360.834 90.0219 360.618 93.1131C359.916 97.1495 352.149 98.2848 352.149 98.2848L345.662 96.9333C347.167 95.0779 348.905 93.4244 350.834 92.0139C352.774 91.4666 354.768 91.1283 356.78 91.0048C356.78 91.0048 353.302 86.1035 360.51 83.833Z" fill="#EF8675"/>
<path d="M468.935 142.862C467.234 143.997 465.88 145.582 465.025 147.439C462.935 151.169 463.583 153.224 465.025 153.35C466.466 153.476 471.17 146.682 471.17 146.682C471.17 146.682 473.224 142.862 468.935 142.862Z" fill="#FFB19C"/>
<path d="M472.09 144.45C470.415 145.595 469.087 147.178 468.252 149.027C466.161 152.757 466.792 154.811 468.252 154.938C469.711 155.064 474.396 148.27 474.396 148.27C474.396 148.27 476.379 144.45 472.09 144.45Z" fill="#FFB19C"/>
<path d="M475.836 146.396C474.164 147.552 472.837 149.141 471.998 150.991C469.907 154.722 470.556 156.758 471.998 156.902C473.439 157.046 478.142 150.217 478.142 150.217C478.142 150.217 480.052 146.396 475.836 146.396Z" fill="#FFB19C"/>
<path d="M346.941 73.8857C345.275 75.0483 343.95 76.6346 343.103 78.4808C341.013 82.2108 341.661 84.247 343.103 84.3912C344.545 84.5353 349.266 77.778 349.266 77.778C349.266 77.778 351.23 73.8857 346.941 73.8857Z" fill="#EF8675"/>
<path d="M350.094 75.4893C348.422 76.6452 347.095 78.2334 346.255 80.0843C344.165 83.8143 344.814 85.8506 346.255 85.9947C347.697 86.1389 352.4 79.3094 352.4 79.3094C352.4 79.3094 354.382 75.4893 350.094 75.4893Z" fill="#EF8675"/>
<path d="M353.773 77.4355C352.106 78.585 350.785 80.1675 349.952 82.0125C347.844 85.7426 348.493 87.7788 349.952 87.923C351.412 88.0671 356.097 81.2377 356.097 81.2377C356.097 81.2377 358.079 77.4355 353.773 77.4355Z" fill="#EF8675"/>
<path d="M357.752 79.5801C356.08 80.7361 354.753 82.3242 353.914 84.1751C351.823 87.9052 352.472 89.9414 353.914 90.0855C355.355 90.2297 360.058 83.4002 360.058 83.4002C360.058 83.4002 362.04 79.5801 357.752 79.5801Z" fill="#EF8675"/>
<path d="M460.862 210.312C460.862 210.312 455.924 209.122 453.275 210.312C450.99 211.507 448.83 212.926 446.824 214.546C447.879 215.193 449.092 215.536 450.329 215.536C451.566 215.536 452.779 215.193 453.834 214.546C457.438 212.258 460.862 210.312 460.862 210.312Z" fill="#EF8675"/>
<path d="M378.726 217.735L377.014 220.961L391.808 229.232L393.303 224.943L378.726 217.735Z" fill="white"/>
<path d="M358.602 156.703C359.269 158.694 360.423 160.486 361.959 161.918C363.494 163.35 365.363 164.375 367.395 164.902C374.603 166.434 384.135 161.947 384.135 161.947C384.135 161.947 387.541 167.353 387.037 169.84C391.289 168.614 393.307 174.705 393.307 174.705C393.307 174.705 397.65 168.74 395.542 159.01C393.434 149.279 372.17 134.773 358.602 156.703Z" fill="#7A2305"/>
<path d="M201.289 278.076C201.289 278.076 193.255 296.79 193.655 303.252C194.055 309.714 203.577 310.114 209.653 309.114C215.729 308.113 260.505 302.566 260.505 302.566L268.311 297.934L266.481 279.477L201.289 278.076Z" fill="#EF8675"/>
<path d="M260.43 302.567C260.43 302.567 265.748 305.112 266.749 309.53C267.392 312.389 267.921 315.748 271.695 316.349C275.469 316.949 277.542 309.958 277.285 302.567C277.028 295.176 282.589 289.071 279.001 284.868C276.456 281.909 266.477 279.479 266.477 279.479C266.477 279.479 267.406 290.916 264.947 294.804C263.875 296.534 260.43 302.567 260.43 302.567Z" fill="#CC064E"/>
<path d="M226.105 279.477C221.988 284.296 218.241 289.42 214.896 294.803C208.434 304.91 203.616 323.396 200.4 332.202C197.183 341.009 183.158 373.862 183.158 373.862L194.381 381.124C194.381 381.124 210.107 361.024 217.612 344.797C224.932 328.985 224.846 321.137 228.907 316.376C232.967 311.615 256.427 290.157 256.427 290.157C256.427 290.157 246.148 266.181 226.105 279.477Z" fill="#FFB19C"/>
<path d="M223.588 235.702C223.588 235.702 212.937 249.798 209.578 254.173C206.218 258.548 193.58 282.666 193.58 282.666C193.58 282.666 197.197 288.642 199.599 290.457C202.001 292.273 214.896 294.746 214.896 294.746L226.104 279.42C226.104 279.42 236.798 273.859 244.089 279.42C251.38 284.982 261.331 294.803 261.331 294.803C261.331 294.803 275.441 284.796 274.798 268.798C274.455 260.335 274.226 250.799 274.226 250.799L223.588 235.702Z" fill="#0F0F0F"/>
<path d="M162.042 223.207C162.042 223.207 151.72 231.499 147.746 233.901C143.771 236.303 144.886 240.663 148.66 244.609C150.862 246.896 153.278 246.41 155.337 245.395C156.08 245.023 156.767 243.679 153.678 242.407C152.006 241.721 154.608 237.561 155.108 237.26C157.524 235.702 160.698 236.017 159.397 237.26C155.108 241.063 156.438 242.707 157.181 242.407C158.982 241.721 164.973 239.548 165.216 238.461C165.616 236.689 168.432 233.572 168.432 233.572L162.042 223.207Z" fill="#EF8675"/>
<path d="M323.466 238.132C323.366 240.991 322.522 245.709 323.466 248.568C324.409 251.428 326.182 257.017 328.355 255.988C330.528 254.959 326.568 250.27 326.654 248.568C326.74 246.867 329.399 246.352 330.943 248.568C332.487 250.784 332.801 252.443 332.501 256.117C332.201 259.791 333.802 261.835 335.089 262.422C336.376 263.008 339.964 250.841 339.964 248.568C339.964 246.295 337.977 235.044 337.977 235.044L323.466 238.132Z" fill="#FFB19C"/>
<path d="M233.112 165.05C233.112 165.05 222.919 162.919 214.898 174.771C213.269 177.173 193.983 196.087 189.165 199.075C184.347 202.063 183.546 208.267 181.945 210.812C180.344 213.357 175.312 211.227 173.911 212.742C169.093 217.989 157.041 227.039 157.041 227.039L168.292 233.515C168.292 233.515 182.703 231.156 189.966 227.067C206.035 218.018 222.847 197.474 222.847 197.474C222.847 197.474 227.794 215.53 227.136 217.917C226.479 220.305 223.033 226.267 221.032 229.769C217.629 235.702 220.874 239.219 220.874 239.219L218.015 242.965C218.015 242.965 229.538 255.488 235.299 258.005C249.381 264.138 274.857 255.846 274.857 255.846C274.857 255.846 276.859 237.461 274.271 221.091C273.585 216.702 271.769 203.521 271.769 203.521C271.769 203.521 283.207 202.406 289.783 207.009C293 209.254 298.818 208.968 301.706 212.957C304.394 216.645 308.611 210.812 309.212 213.643C309.898 216.86 312.871 220.176 315.23 223.179C316.66 224.923 323.451 239.19 323.451 239.19L338.262 236.889C338.262 236.889 334.073 214.987 326.367 208.139C324.609 206.58 323.865 202.106 320.949 199.075C319.748 197.831 316.832 198.56 315.473 197.116C313.415 194.972 315.159 192.513 313.729 191.398C310.613 188.924 304.737 188.81 300.534 186.651C287.924 180.161 285.923 174.771 274.8 169.682C267.867 166.493 245.907 159.803 245.907 159.803L233.112 165.05Z" fill="#CC064E"/>
<path d="M236.4 171.282C236.4 171.282 237.573 183.591 238.602 184.149C243.649 186.865 253.828 180.274 258.431 171.282C252.126 165.006 245.965 159.845 245.965 159.845L236.4 171.282Z" fill="#EF8675"/>
<path d="M252.557 142.461C248.268 137.529 233.156 133.626 226.623 145.52C225.193 148.137 225.193 153.241 224.979 156.143C224.264 167.094 231.184 178.345 236.588 176.958C240.433 175.972 248.868 171.626 252.128 165.006C255.802 157.544 258.218 148.894 252.557 142.461Z" fill="#FFB19C"/>
<path d="M226.62 145.52C227.15 147.099 228.065 148.521 229.283 149.657C230.502 150.793 231.984 151.607 233.596 152.025C239.315 153.24 246.878 149.68 246.878 149.68C246.878 149.68 249.58 153.969 249.18 155.942C252.553 154.97 254.155 159.802 254.155 159.802C254.155 159.802 258.043 155.256 256.385 147.522C255.613 143.976 254.183 138.858 248.994 136.885C247.015 136.236 245.001 135.702 242.961 135.284C240.465 134.638 238.194 133.317 236.399 131.467C235.895 132.985 235.739 134.598 235.941 136.185C234.114 134.905 232.402 133.47 230.823 131.896C230.221 133.768 230.012 135.744 230.208 137.7C228.96 136.925 227.531 136.491 226.062 136.442C226.062 136.442 225.776 143.218 226.62 145.52Z" fill="#7A2305"/>
<path d="M268.234 314.816C268.234 314.816 272.523 313.93 273.067 311.228C273.395 309.798 271.866 299.991 273.067 297.932C274.267 295.873 279.157 292.728 279.285 289.926C279.363 288.234 279.267 286.538 279 284.865C279 284.865 284.818 287.138 281.201 293.8C279.486 296.974 277.284 301.149 277.284 302.564C277.284 303.979 279.057 315.145 274.854 318.447C270.65 321.75 268.234 314.816 268.234 314.816Z" fill="#0F0F0F"/>
<path d="M230.895 201.72V210.097C230.895 210.097 240.559 210.226 244.162 212.828C247.764 215.43 258.458 218.547 258.458 218.547V210.097C258.458 210.097 249.608 204.979 244.691 203.564C240.156 202.537 235.539 201.92 230.895 201.72Z" fill="white"/>
<path d="M280.214 180.16L275.311 189.281C275.311 189.281 283.888 192.484 287.92 194.099C289.996 194.908 292.012 195.863 293.953 196.958L297.556 188.595C297.556 188.595 286.147 180.689 280.214 180.16Z" fill="white"/>
<path d="M320.588 233.372C320.588 233.372 322.49 232.414 327.651 230.227C330.367 229.114 333.017 227.844 335.585 226.424L334.57 223.207C331.509 224.27 328.532 225.56 325.664 227.067C323.262 228.625 319.502 231.184 319.502 231.184L320.588 233.372Z" fill="#A80045"/>
<path d="M220.918 239.218C220.918 239.218 227.108 244.936 231.326 249.697C235.543 254.458 238.645 256.331 246.28 255.616C253.914 254.901 265.623 252.985 265.623 252.985C262.76 251.492 259.622 250.601 256.402 250.369C250.483 249.768 242.734 252.685 240.433 251.284C238.131 249.883 229.682 241.448 226.136 240.333C224.449 239.749 222.696 239.375 220.918 239.218Z" fill="#A80045"/>
<path d="M233.619 239.218C233.619 239.218 237.508 245.265 240.953 246.295C254.192 250.197 264.742 242.177 264.742 242.177C260.79 241.957 256.827 242.058 252.891 242.477C242.855 244.179 238.237 237.974 233.619 239.218Z" fill="#A80045"/>
<path d="M162.045 223.207C162.045 223.207 167.492 226.367 169.093 228.297C170.25 229.737 171.334 231.235 172.338 232.786L174.383 232.342C173.569 229.852 172.244 227.559 170.494 225.609C168.642 223.985 166.689 222.481 164.647 221.105L162.045 223.207Z" fill="#A80045"/>
<path d="M222.86 197.474C222.86 197.474 223.031 193.099 222.86 191.084C222.688 189.068 222.86 184.765 222.86 184.765C222.86 184.765 217.399 189.282 216.198 192.485C214.997 195.687 217.727 203.25 217.727 203.25L222.86 197.474Z" fill="#A80045"/>
<path d="M271.768 203.548L270.339 192.111C270.339 192.111 265.664 196.4 264.763 198.745C264.403 200.166 264.33 201.645 264.55 203.094C264.77 204.543 265.278 205.934 266.045 207.184C266.811 208.434 267.819 209.518 269.011 210.371C270.203 211.225 271.554 211.831 272.984 212.155C272.469 208.166 271.768 203.548 271.768 203.548Z" fill="#A80045"/>
<path d="M217.671 309.527C215.255 311.729 212.453 319.349 212.453 319.349C212.453 319.349 216.47 315.746 217.671 314.531C218.872 313.316 217.671 309.527 217.671 309.527Z" fill="#EF8675"/>
<path d="M268.68 257.561C268.523 257.561 269.424 267.968 268.237 271.185C267.051 274.402 252.611 286.625 252.611 286.625L254.313 288.155C254.313 288.155 263.82 281.278 268.237 275.445C272.655 269.612 272.069 267.168 272.069 263.351V256.688L268.68 257.561Z" fill="white"/>
<path d="M247.42 277.205L252.61 282.223C252.61 282.223 256.241 278.806 258.428 276.404C260.615 274.003 262.345 272.43 262.345 272.43L257.399 268.87L247.42 277.205Z" fill="white"/>
<path d="M157.853 327.456C158.036 328.499 158.132 329.556 158.139 330.616C158.137 334.553 156.895 338.39 154.59 341.581C152.284 344.773 149.032 347.158 145.294 348.397C141.557 349.636 137.524 349.666 133.768 348.484C130.013 347.301 126.725 344.966 124.371 341.81C124.832 344.613 125.925 347.275 127.566 349.594C129.208 351.913 131.355 353.829 133.845 355.196C136.336 356.563 139.104 357.346 141.942 357.486C144.78 357.626 147.612 357.119 150.225 356.003C152.838 354.888 155.163 353.193 157.024 351.046C158.886 348.9 160.235 346.359 160.97 343.614C161.705 340.87 161.806 337.994 161.266 335.205C160.726 332.415 159.559 329.785 157.853 327.513V327.456Z" fill="#0F0F0F"/>
<path d="M139.383 349.356C144.355 349.356 149.124 347.382 152.641 343.867C156.158 340.353 158.136 335.586 158.14 330.614C158.132 329.554 158.037 328.498 157.854 327.454C155.5 324.298 152.212 321.962 148.457 320.78C144.701 319.598 140.668 319.628 136.931 320.867C133.194 322.106 129.941 324.491 127.636 327.682C125.33 330.874 124.088 334.711 124.086 338.648C124.093 339.707 124.189 340.764 124.372 341.808C126.112 344.15 128.375 346.052 130.982 347.363C133.588 348.674 136.466 349.356 139.383 349.356V349.356Z" fill="white"/>
<path d="M158.139 339.836C157.295 336.191 156.237 327.456 150.819 324.611C145.401 321.766 141.483 333.26 139.982 338.65C138.481 344.039 139.982 353.589 139.982 353.589L133.063 350.93C132.508 347.241 132.702 343.477 133.633 339.864C134.564 336.251 136.213 332.862 138.481 329.9C142.984 324.182 147.545 319.793 150.676 321.651C153.807 323.51 160.683 333.088 160.683 333.088L158.139 339.836Z" fill="#0F0F0F"/>
<path d="M125.516 331.617C129.028 330.215 132.306 328.287 135.237 325.898C137.425 324.111 139.419 322.099 141.184 319.894C138.193 320.089 135.306 321.076 132.821 322.753C126.531 327.456 125.516 331.617 125.516 331.617Z" fill="#0F0F0F"/>
</g>
</svg>
