<svg width="241" height="321" viewBox="0 0 241 321" fill="none" xmlns="http://www.w3.org/2000/svg">
<mask id="mask0" mask-type="alpha" maskUnits="userSpaceOnUse" x="0" y="0" width="241" height="321">
<rect width="241" height="321" fill="#C4C4C4"/>
</mask>
<g mask="url(#mask0)">
<path d="M140.532 408.26C135.018 389.758 108.36 343.723 106.864 339.765C105.367 335.807 103.781 329.411 100.04 323.021C89.2444 312.457 85.4661 304.01 85.3614 297.269C85.3015 293.184 86.0647 287.274 83.1169 284.483C65.9089 268.405 67.0387 193.954 67.0387 193.954C87.2767 193.954 106.452 205.356 126.66 206.464C125.912 214.432 125.059 222.744 120.78 229.507C119.613 231.348 118.199 233.076 117.518 235.148C116.837 237.221 116.957 239.383 117.069 241.538C117.578 250.92 116.829 258.2 117.331 267.589C117.66 273.619 116.77 288.538 115.76 294.463C115.243 297.576 129.81 314.664 133.978 324.936C141.504 343.446 142.716 363.325 146.113 372.819C151.395 387.573 155.794 391.09 155.794 391.09C155.794 391.09 156.61 406.712 140.532 408.26Z" fill="#E3AD7A"/>
<path style="mix-blend-mode:multiply" opacity="0.3" d="M120.704 229.522C124.983 222.789 125.836 214.446 126.585 206.478C120.916 206.081 115.302 205.119 109.825 203.605C108.142 220.507 105.808 237.273 104.805 254.242C104.349 261.97 104.057 269.706 103.638 277.435C103.234 284.834 101.162 293.438 104.536 300.381C106.115 303.636 108.584 306.307 110.888 309.068C112.824 311.425 114.618 313.896 116.26 316.467C120.036 322.314 123.352 328.445 126.181 334.805C128.901 340.932 131.299 347.198 133.363 353.576C135.353 359.659 136.902 365.869 138.892 371.952C141.974 381.341 146.733 391.06 154.993 396.709C155.52 394.878 155.772 392.979 155.741 391.075C155.741 391.075 151.342 387.558 146.059 372.804C142.663 363.34 141.451 343.461 133.924 324.921C129.734 314.686 115.205 297.591 115.684 294.486C116.694 288.5 117.584 273.642 117.255 267.612C116.754 258.222 117.502 250.942 116.993 241.56C116.881 239.405 116.776 237.213 117.442 235.171C118.108 233.128 119.537 231.363 120.704 229.522Z" fill="url(#paint0_linear)"/>
<path d="M66.9609 193.962C66.9609 193.962 66.3175 229.036 69.9012 254.302C89.9822 249.963 114.447 260.968 118.196 267.724C117.747 258.589 118.031 251.264 117.537 242.099C117.418 239.952 117.305 237.094 117.979 235.051C118.636 233.098 119.552 231.241 120.702 229.53C124.982 222.759 129.86 210.646 130.6 202.678C110.392 201.563 87.2065 193.962 66.9609 193.962Z" fill="url(#paint1_linear)"/>
<path style="mix-blend-mode:multiply" opacity="0.3" d="M120.703 229.53C124.983 222.759 129.861 210.646 130.601 202.678C110.401 201.563 87.2075 193.962 66.962 193.962C66.962 193.962 66.8498 200.336 66.962 209.591C71.5184 215.816 78.4689 219.834 85.7411 222.19C89.8527 223.489 94.0641 224.447 98.3328 225.056C101.094 225.467 104.019 225.101 106.742 225.692C108.71 226.111 109.391 227.106 109.136 229.089C108.882 231.071 108.433 233.069 108.343 235.156C108.254 237.244 108.246 239.249 108.261 241.291C108.321 248.391 109.885 255.23 111.65 262.038C114.897 263.991 117.209 265.996 118.167 267.724C117.718 258.589 118.002 251.264 117.508 242.099C117.389 239.952 117.277 237.094 117.95 235.051C118.617 233.096 119.543 231.239 120.703 229.53V229.53Z" fill="url(#paint2_linear)"/>
<path d="M125.767 158.318C125.767 158.318 134.139 180.569 133.697 191.986C133.256 203.403 129.074 221.718 107.047 220.843C85.0212 219.967 1.98914 162.904 3.08895 157.622C4.18876 152.34 5.73748 144.155 15.6433 142.203C25.5491 140.25 78.6393 153.425 87.4677 155.857C96.2962 158.288 119.385 162.904 125.767 158.318Z" fill="#E3AD7A"/>
<path style="mix-blend-mode:multiply" opacity="0.3" d="M130.738 173.805C129.681 175.216 128.337 176.386 126.795 177.239C123.049 179.468 118.988 181.118 114.749 182.132C97.863 186.419 80.5279 183.673 64.2851 178.212C55.7859 175.361 47.4961 171.688 38.8024 169.473C34.1787 168.291 29.4502 167.61 24.7816 168.919C22.562 169.578 20.4179 170.468 18.3848 171.575C43.2091 190.137 91.107 220.206 107.051 220.835C129.077 221.71 133.237 203.432 133.7 191.978C133.91 187.047 132.414 180.104 130.738 173.805Z" fill="url(#paint3_linear)"/>
<path d="M125.771 158.318C119.389 162.942 96.2629 158.318 87.4494 155.894C83.4093 154.787 64.892 150.058 50.6543 146.916C55.8242 154.203 61.9292 192.397 53.228 198.891C71.9772 210.114 98.3577 221.082 107.037 221.434C129.063 222.309 133.223 203.478 133.701 192.016C134.18 180.554 125.771 158.318 125.771 158.318Z" fill="url(#paint4_linear)"/>
<path style="mix-blend-mode:multiply" opacity="0.3" d="M125.769 158.318C124.932 158.887 124 159.3 123.016 159.538C124.512 167.947 124.924 176.985 122.724 185.267C118.841 199.894 100.691 202.805 87.7248 201.323C76.6628 199.917 66.1538 195.669 57.2218 188.993C56.6532 193.617 55.4037 197.223 53.2266 198.869C71.9757 210.092 98.3563 221.06 107.035 221.412C129.061 222.287 133.221 203.456 133.7 191.994C134.179 180.532 125.769 158.318 125.769 158.318Z" fill="url(#paint5_linear)"/>
<path d="M33.2726 167.095C33.2726 167.095 46.2459 180.704 47.8694 192.937C48.6176 198.406 51.6103 214.088 54.3411 226.47C57.633 241.493 60.5883 253.015 60.5883 253.015C60.5883 253.015 42.9614 260.497 38.7716 254.751C39.4375 245.503 32.8611 228.662 29.0454 218.943C25.4242 209.576 1.10867 173.821 3.09132 157.623C4.26595 148.076 22.4765 153.882 33.2726 167.095Z" fill="#E3AD7A"/>
<path style="mix-blend-mode:multiply" opacity="0.3" d="M46.374 223.133C48.4539 233.906 50.5862 245.091 50.5862 256.187C54.0011 255.402 57.3465 254.342 60.5892 253.014C60.5892 253.014 57.5966 241.493 54.3645 226.469C51.6636 214.087 48.6185 198.405 47.8703 192.936C46.7331 184.445 40.1268 175.294 36.1914 170.491C40.037 187.939 42.9549 205.595 46.374 223.133Z" fill="url(#paint6_linear)"/>
<path d="M54.3648 226.469C53.1079 220.775 51.8135 214.431 50.6838 208.618C46.1274 208.199 33.401 209.882 26.832 214.311C27.8346 216.204 39.4387 245.503 38.8028 254.75C42.9926 260.473 60.6195 253.014 60.6195 253.014C60.6195 253.014 57.6343 241.492 54.3648 226.469Z" fill="url(#paint7_linear)"/>
<path d="M38.5651 250.867C38.5651 250.867 31.7268 260.698 22.1876 265.397C17.1973 267.866 3.09426 269.048 5.00958 274.061C6.9249 279.073 14.1074 281.842 24.3872 281.251C34.6671 280.659 66.0604 277.861 69.4197 275.026C72.1356 272.736 72.1954 270.088 69.6142 265.98C68.0057 264.087 60.2771 250.561 60.2771 250.561C60.2771 250.561 54.6059 254.967 47.8724 254.743C41.1388 254.518 38.5651 250.867 38.5651 250.867Z" fill="url(#paint8_linear)"/>
<path d="M69.6101 265.981C69.423 265.764 69.1537 265.383 68.8619 264.896C67.3655 270.403 57.6393 272.034 50.9058 273.538C43.9253 275.087 37.0721 276.755 29.957 277.316C24.6375 277.735 11.4397 279.561 4.9082 273.471C4.93592 273.673 4.98611 273.871 5.05784 274.062C6.96567 279.052 14.1556 281.843 24.4355 281.252C34.7153 280.66 66.1086 277.862 69.4679 275.027C72.1314 272.737 72.1912 270.089 69.6101 265.981Z" fill="url(#paint9_linear)"/>
<path d="M124.039 55.8195C135.583 53.575 147.494 55.3781 159.113 57.2111L167.096 58.4755C173.575 59.5005 186.549 58.1763 192.429 61.0268C202.634 65.9423 200.951 75.9902 201.407 80.1201C199.672 82.2823 190.843 83.9732 188.217 84.1602C169.745 85.4471 150.906 79.9331 132.748 83.5842C131.599 82.0217 130.535 80.3983 129.561 78.721C125.498 72.2793 124.301 63.4958 124.039 55.8195Z" fill="#E3AD7A"/>
<path style="mix-blend-mode:multiply" opacity="0.3" d="M162.727 77.6806C155.874 76.6481 148.085 77.0297 141.172 76.476C136.216 76.1558 131.357 74.9549 126.822 72.9297C127.514 74.9652 128.43 76.9174 129.553 78.7505C130.527 80.4277 131.591 82.0512 132.74 83.6136C150.898 79.9625 169.737 85.4765 188.21 84.1897C190.836 84.0026 199.664 82.3118 201.4 80.1495C201.235 78.6532 201.46 79.566 201.161 76.9548C188.569 78.4063 177.496 79.9026 162.727 77.6806Z" fill="url(#paint10_linear)"/>
<path d="M252.928 163.046C252.112 163.607 249.8 161.737 249.8 161.737C249.8 161.737 249.052 163.39 247.556 163.151C243.927 162.589 225.552 147.289 225.552 147.289C225.552 147.289 223.382 148.142 223.667 148.636C223.951 149.13 225.829 154.023 225.163 156.424C224.497 158.826 222.26 159.963 221.939 159.155C221.617 158.347 219.634 150.925 217.958 148.008C216.282 145.09 214.644 132.116 216.858 129.303C216.941 129.206 217.016 129.109 217.113 129.012C217.066 129.029 217.021 129.052 216.978 129.079C212.908 120.101 206.541 112.619 200.391 104.898C193.104 95.7628 184.313 87.4057 180.131 76.4674C179.383 74.582 178.821 72.5395 179.233 70.5644C179.712 68.3199 181.418 66.4868 183.191 64.983C184.964 63.4792 186.932 61.0626 189.924 60.7334C193.343 61.7053 196.453 63.5427 198.955 66.0679C201.172 68.4919 203.071 71.1898 204.603 74.0957C212.167 87.2785 217.045 102.04 224.624 115.245C226.375 118.29 227.505 120.669 229.592 123.251C229.592 123.251 236.752 130.231 240.688 133.239C244.623 136.246 251.02 142.628 251.252 144.783C251.431 146.541 250.429 146.721 248.259 144.948C246.089 143.174 240.62 138.214 240.276 137.877C240.762 138.543 253.938 156.671 252.352 158.647C253.923 160.973 253.758 162.485 252.928 163.046Z" fill="url(#paint11_linear)"/>
<path style="mix-blend-mode:multiply" opacity="0.3" d="M236.103 152.332C233.299 149.64 230.653 146.787 228.18 143.788C225.89 141.065 223.646 138.364 222.247 135.065C220.788 131.623 220.376 127.89 219.082 124.411C217.586 120.43 215.087 116.772 212.737 113.263C207.904 106.058 202.615 99.1075 197.422 92.1644C193.016 86.2464 192.342 78.2634 181.045 78.7647C185.429 88.9398 193.39 96.1821 200.34 104.891C206.49 112.619 212.857 120.079 216.927 129.072C216.97 129.045 217.015 129.022 217.062 129.004C216.965 129.102 216.89 129.199 216.807 129.296C214.563 132.117 216.231 145.098 217.907 148C219.583 150.903 221.558 158.333 221.888 159.148C222.217 159.964 224.401 158.819 225.112 156.417C225.823 154.016 223.915 149.108 223.616 148.629C223.317 148.15 225.501 147.282 225.501 147.282C225.501 147.282 243.876 162.582 247.505 163.143C247.927 163.19 248.353 163.108 248.728 162.909C249.102 162.711 249.409 162.404 249.607 162.029C244.655 159.476 240.105 156.209 236.103 152.332Z" fill="url(#paint12_linear)"/>
<path d="M91.3242 56.141C99.1761 55.0425 107.08 54.3557 115.004 54.0835C123.054 53.7992 140.008 54.2855 148.589 55.4003C154.575 63.6302 151.53 84.332 151.53 84.332C151.53 84.332 130.237 83.9954 129.795 89.6141C129.346 95.3526 123.735 152.894 125.403 156.007C127.311 159.553 133.439 178.16 133.633 184.744C128.254 187.737 113.066 160.907 94.5189 158.244C78.8971 156.478 65.8265 156.501 63.9785 150.089C57.245 126.589 43.6807 78.2644 44.7206 74.5983C46.0449 69.9672 57.7163 66.2188 57.7163 66.2188L91.3242 56.141Z" fill="url(#paint13_linear)"/>
<path d="M72.559 153.172C71.1449 142.248 70.1873 131.123 67.0375 120.521C64.7032 112.598 60.2665 102.909 50.9219 102.954C55.1116 118.853 60.476 137.856 63.9775 150.089C64.8304 153.082 68.0924 154.645 72.8882 155.678L72.559 153.172Z" fill="url(#paint14_linear)"/>
<path style="mix-blend-mode:multiply" opacity="0.3" d="M138.915 79.0112C134.149 79.3778 127.416 79.879 124.341 84.1212C119.986 90.1065 118.759 99.4587 115.984 106.035C113.208 112.612 64.3598 128.039 58.8907 128.989L58.0527 129.116C60.2299 136.927 62.3173 144.274 63.9783 150.065C65.8188 156.484 78.8968 156.462 94.4812 158.228C113.028 160.891 128.216 187.698 133.596 184.728C133.438 178.144 127.311 159.537 125.366 155.99C123.697 152.878 129.309 95.3363 129.757 89.5978C130.199 83.979 151.492 84.3157 151.492 84.3157C151.492 84.3157 151.926 81.3903 152.15 77.2979C147.893 78.5922 143.359 78.667 138.915 79.0112Z" fill="url(#paint15_linear)"/>
<path d="M151.8 80.3131C147.453 80.9939 143.143 81.8768 138.819 82.6848C135.078 83.3806 131.113 83.6799 127.499 84.9293C119.741 87.5779 118.843 95.9574 117.945 103.02C116.957 110.861 116.404 118.814 115.932 126.7C115.057 141.169 115.184 155.669 115.334 170.154C123.923 178.017 130.447 186.501 133.597 184.758C133.44 178.174 127.312 159.567 125.367 156.021C123.698 152.908 129.31 95.3663 129.759 89.6278C130.2 84.0091 151.493 84.3458 151.493 84.3458C151.493 84.3458 151.732 82.7447 151.942 80.2607C151.897 80.2853 151.849 80.303 151.8 80.3131V80.3131Z" fill="url(#paint16_linear)"/>
<path d="M47.8696 66.7344C47.8696 66.7344 36.3179 71.7621 35.2854 78.8847C33.6544 90.1073 40.777 130.509 55.6581 135.888C66.0876 131.93 70.24 111.565 70.24 110.981C70.24 110.398 65.115 99.7587 63.686 95.5614C59.5636 83.456 64.7634 68.0586 64.7634 68.0586L47.8696 66.7344Z" fill="#E3AD7A"/>
<path style="mix-blend-mode:multiply" opacity="0.3" d="M57.6771 124.845C55.7618 122.93 50.562 114.738 49.4472 111.535C44.8174 98.2864 42.2658 84.4006 41.8832 70.3711C38.8905 72.2266 36.3617 75.4287 35.8979 78.8853C34.2743 90.1079 40.8283 130.509 55.7094 135.888C59.0463 134.624 61.7397 131.669 63.8645 128.227C61.5257 127.703 59.3816 126.531 57.6771 124.845V124.845Z" fill="url(#paint17_linear)"/>
<path d="M65.7803 100.238C65.5035 99.6614 63.6929 94.3045 63.5358 93.691C61.3361 82.1841 64.7254 68.0586 64.7254 68.0586L47.8691 66.7344C47.8691 66.7344 36.2425 71.5302 35.2026 78.6453C34.4544 83.7403 35.5916 97.1999 38.689 108.572C48.7594 108.408 57.9619 106.395 65.7803 100.238Z" fill="url(#paint18_linear)"/>
<path d="M43.3828 22.5173C43.3828 22.5173 41.5274 36.1939 42.0361 37.8997C42.5748 39.7252 43.5774 40.9971 43.944 42.067C45.1186 45.4637 40.6371 52.2496 41.5049 53.6487C42.1933 54.7635 46.2858 56.4095 46.2858 56.4095C47.4824 58.8958 48.3044 61.5456 48.7248 64.2727C49.473 68.9862 50.67 69.9963 55.9521 70.3329C58.9324 70.5774 61.926 70.0626 64.6533 68.8366C67.8779 70.5574 69.6661 74.0738 70.9305 78.1663C75.3516 78.7883 79.8579 78.0887 83.8823 76.1557C87.9068 74.2227 91.2696 71.1425 93.5477 67.3028C95.5902 63.9959 94.8196 59.5667 94.3707 57.7262C94.3106 57.4838 94.1908 57.2603 94.0222 57.076C93.8537 56.8918 93.6417 56.7526 93.4055 56.6713C91.8244 56.2227 90.4349 55.266 89.4518 53.9489C88.4687 52.6318 87.9467 51.0276 87.9663 49.3841C87.9663 43.0696 86.6421 34.6526 86.687 30.3731C86.7618 23.5273 81.2702 13.7038 64.4214 15.058C45.9117 16.5693 43.3828 22.5173 43.3828 22.5173Z" fill="#E3AD7A"/>
<path style="mix-blend-mode:multiply" opacity="0.3" d="M79.0312 63.1351C78.283 61.8857 77.677 61.0627 76.0984 61.3844C74.5197 61.7061 73.0533 62.589 71.6094 63.1426C68.8289 64.2535 65.9919 65.2175 63.1101 66.0305C58.0899 67.4221 54.581 68.0356 49.4336 67.3024C50.3688 69.2626 51.9474 70.0931 55.7033 70.3325C58.7505 70.5562 61.8069 70.043 64.614 68.8362C67.8386 70.557 69.6267 74.0734 70.8911 78.1659C76.6209 78.9567 82.4372 77.542 87.1638 74.2081C83.4379 71.2902 81.4179 67.1752 79.0312 63.1351Z" fill="url(#paint19_linear)"/>
<path d="M156.016 98.1509C156.016 98.1509 157.782 98.3753 157.265 99.55C156.749 100.725 149.342 104.623 149.342 104.623C149.342 104.623 146.769 107.713 138.696 110.211C132.899 111.905 127.015 113.281 121.069 114.334V114.454C121.069 114.454 105.656 122.826 98.6237 125.324C91.5909 127.823 60.7961 140.512 55.6562 135.874C50.5162 131.235 59.0379 109.516 67.8439 108.558H82.9719C89.5409 108.558 108.2 105.648 119.67 102.154C120.316 101.625 121.002 101.144 121.72 100.717C127.877 97.2306 143.821 93.9312 147.509 93.1756C151.033 92.4274 156.487 91.2453 156.959 92.1281C158.866 91.6119 161.133 91.2528 161.448 91.7615C162.428 93.3925 156.016 98.1509 156.016 98.1509Z" fill="#E3AD7A"/>
<path style="mix-blend-mode:multiply" opacity="0.3" d="M135.654 107.001C127.776 109.164 119.883 111.356 112.356 114.558C105.009 117.693 97.8269 121.052 90.1058 123.244C82.9308 125.279 74.5738 126.985 67.092 126.05C63.9198 125.646 58.7873 124.718 55.9817 122.227C53.8569 127.943 53.2808 133.756 55.66 135.873C60.7999 140.49 91.5722 127.793 98.605 125.302C105.638 122.81 121.05 114.431 121.05 114.431V114.311C126.996 113.259 132.881 111.882 138.677 110.189C146.75 107.69 149.324 104.6 149.324 104.6C149.324 104.6 153.626 102.355 155.9 100.739C149.301 103.246 142.478 105.139 135.654 107.001Z" fill="url(#paint20_linear)"/>
<path d="M40.6718 35.4015C46.2532 37.257 53.0091 31.9824 55.2611 34.1521C57.5131 36.3217 61.7179 41.8807 69.2071 44.6713C72.8806 46.0405 70.8755 38.5363 70.8755 38.5363C70.8755 38.5363 74.6163 43.7735 75.978 47.8586C78.6864 55.8266 86.9387 50.8512 88.4126 52.6394C89.6845 29.0495 88.7717 16.7271 72.701 12.7169C56.6303 8.70674 44.4351 17.3556 42.5123 20.655C38.8911 26.992 38.0382 32.7455 40.6718 35.4015Z" fill="url(#paint21_linear)"/>
<path d="M70.2407 41.1629C70.2407 40.9683 69.9938 38.0505 70.0387 37.8559C70.2083 37.0819 70.5878 36.3694 71.1355 35.7967C71.6831 35.2239 72.3779 34.813 73.1436 34.6089C73.9759 34.3894 74.8572 34.4483 75.6529 34.7765C76.4486 35.1048 77.115 35.6844 77.5504 36.4269C77.846 37.1372 77.9863 37.9025 77.9619 38.6715C78.0072 41.5164 77.554 44.3474 76.6226 47.036C76.4847 47.5336 76.2452 47.9972 75.9193 48.3977C75.3325 48.9865 74.5431 49.329 73.7122 49.3553V49.3553C73.0937 49.4191 72.4742 49.245 71.9794 48.8684C71.4847 48.4918 71.1519 47.9409 71.0487 47.3278L70.2407 41.1629Z" fill="url(#paint22_linear)"/>
<path style="mix-blend-mode:multiply" opacity="0.3" d="M72.1577 42.0369C72.1577 40.4433 70.998 39.0442 71.0279 38.8572C71.1561 38.2737 71.4425 37.7368 71.8555 37.3053C72.2686 36.8738 72.7924 36.5643 73.3697 36.4106C73.997 36.2485 74.6599 36.2943 75.259 36.5412C75.858 36.7881 76.3607 37.2227 76.6916 37.7798C76.9168 38.3167 77.0215 38.8964 76.9983 39.4781C77.0334 41.6259 76.6916 43.7631 75.9883 45.7927C75.8855 46.1643 75.7072 46.5106 75.4646 46.8102C75.0256 47.2652 74.4279 47.5332 73.7961 47.5584V47.5584C73.3349 47.6076 72.872 47.4808 72.5003 47.2033C72.1285 46.9259 71.8752 46.5183 71.791 46.0621L72.1577 42.0369Z" fill="url(#paint23_linear)"/>
</g>
<defs>
<linearGradient id="paint0_linear" x1="11409.7" y1="100924" x2="-19019.8" y2="74379.9" gradientUnits="userSpaceOnUse">
<stop stop-color="#F97564"/>
<stop offset="1" stop-color="#FFAEAE"/>
</linearGradient>
<linearGradient id="paint1_linear" x1="66.916" y1="230.839" x2="130.6" y2="230.839" gradientUnits="userSpaceOnUse">
<stop stop-color="#981B86"/>
<stop offset="1" stop-color="#1C2584"/>
</linearGradient>
<linearGradient id="paint2_linear" x1="5509.8" y1="21801.1" x2="10931" y2="21801.1" gradientUnits="userSpaceOnUse">
<stop stop-color="#981B86"/>
<stop offset="1" stop-color="#1C2584"/>
</linearGradient>
<linearGradient id="paint3_linear" x1="12768.7" y1="17944" x2="12418.4" y2="11271.2" gradientUnits="userSpaceOnUse">
<stop stop-color="#F97564"/>
<stop offset="1" stop-color="#FFAEAE"/>
</linearGradient>
<linearGradient id="paint4_linear" x1="5343.67" y1="17332.3" x2="14565.7" y2="17332.3" gradientUnits="userSpaceOnUse">
<stop stop-color="#981B86"/>
<stop offset="1" stop-color="#1C2584"/>
</linearGradient>
<linearGradient id="paint5_linear" x1="5182.24" y1="15191" x2="14118.6" y2="15191" gradientUnits="userSpaceOnUse">
<stop stop-color="#981B86"/>
<stop offset="1" stop-color="#1C2584"/>
</linearGradient>
<linearGradient id="paint6_linear" x1="1726.96" y1="29486.1" x2="-2056.36" y2="20121.9" gradientUnits="userSpaceOnUse">
<stop stop-color="#F97564"/>
<stop offset="1" stop-color="#FFAEAE"/>
</linearGradient>
<linearGradient id="paint7_linear" x1="2046.99" y1="16807.3" x2="1057.09" y2="10793" gradientUnits="userSpaceOnUse">
<stop stop-color="#182284"/>
<stop offset="1" stop-color="#7539FB"/>
</linearGradient>
<linearGradient id="paint8_linear" x1="6112.03" y1="10932.2" x2="902.646" y2="9010.11" gradientUnits="userSpaceOnUse">
<stop stop-color="white"/>
<stop offset="1" stop-color="#CCCCCC"/>
</linearGradient>
<linearGradient id="paint9_linear" x1="6010.74" y1="6107.27" x2="2005.88" y2="3343.59" gradientUnits="userSpaceOnUse">
<stop stop-color="#981B86"/>
<stop offset="1" stop-color="#1C2584"/>
</linearGradient>
<linearGradient id="paint10_linear" x1="14423.4" y1="932.932" x2="15081.4" y2="3529.91" gradientUnits="userSpaceOnUse">
<stop stop-color="#F97564"/>
<stop offset="1" stop-color="#FFAEAE"/>
</linearGradient>
<linearGradient id="paint11_linear" x1="14202.4" y1="8315.42" x2="23319.4" y2="12333.8" gradientUnits="userSpaceOnUse">
<stop stop-color="#F97564"/>
<stop offset="1" stop-color="#FFAEAE"/>
</linearGradient>
<linearGradient id="paint12_linear" x1="12736.9" y1="7806.83" x2="20751.7" y2="11755" gradientUnits="userSpaceOnUse">
<stop stop-color="#F97564"/>
<stop offset="1" stop-color="#FFAEAE"/>
</linearGradient>
<linearGradient id="paint13_linear" x1="98.4572" y1="184.927" x2="98.4572" y2="53.9941" gradientUnits="userSpaceOnUse">
<stop stop-color="#2656FF"/>
<stop offset="0.2613" stop-color="#2AB2FF"/>
<stop offset="0.7297" stop-color="#3347FF"/>
<stop offset="1" stop-color="#563AFF"/>
</linearGradient>
<linearGradient id="paint14_linear" x1="48.9168" y1="74.7482" x2="65.0623" y2="134.093" gradientUnits="userSpaceOnUse">
<stop stop-color="#1A1A1A"/>
<stop offset="1" stop-color="#4D4D4D"/>
</linearGradient>
<linearGradient id="paint15_linear" x1="94.0398" y1="62.4766" x2="110.178" y2="121.822" gradientUnits="userSpaceOnUse">
<stop stop-color="#FEC200"/>
<stop offset="1" stop-color="#F2562D"/>
</linearGradient>
<linearGradient id="paint16_linear" x1="5614.43" y1="6391.12" x2="9935.69" y2="11959.5" gradientUnits="userSpaceOnUse">
<stop stop-color="#1A1A1A"/>
<stop offset="1" stop-color="#4D4D4D"/>
</linearGradient>
<linearGradient id="paint17_linear" x1="2578.35" y1="8436.94" x2="5249.93" y2="8653.84" gradientUnits="userSpaceOnUse">
<stop stop-color="#F97564"/>
<stop offset="1" stop-color="#FFAEAE"/>
</linearGradient>
<linearGradient id="paint18_linear" x1="50.3727" y1="108.556" x2="50.3727" y2="66.7312" gradientUnits="userSpaceOnUse">
<stop stop-color="#2656FF"/>
<stop offset="0.2613" stop-color="#2AB2FF"/>
<stop offset="0.7297" stop-color="#3347FF"/>
<stop offset="1" stop-color="#563AFF"/>
</linearGradient>
<linearGradient id="paint19_linear" x1="2023.48" y1="1388.52" x2="4668.37" y2="1388.52" gradientUnits="userSpaceOnUse">
<stop stop-color="#F97564"/>
<stop offset="1" stop-color="#FFAEAE"/>
</linearGradient>
<linearGradient id="paint20_linear" x1="9122.12" y1="4933.9" x2="16887.6" y2="9059.9" gradientUnits="userSpaceOnUse">
<stop stop-color="#F97564"/>
<stop offset="1" stop-color="#FFAEAE"/>
</linearGradient>
<linearGradient id="paint21_linear" x1="39.4695" y1="35.2584" x2="88.6094" y2="31.8186" gradientUnits="userSpaceOnUse">
<stop stop-color="#592026"/>
<stop offset="1" stop-color="#42210B"/>
</linearGradient>
<linearGradient id="paint22_linear" x1="702.909" y1="1049.66" x2="1115.38" y2="630.649" gradientUnits="userSpaceOnUse">
<stop stop-color="#F97564"/>
<stop offset="1" stop-color="#FFAEAE"/>
</linearGradient>
<linearGradient id="paint23_linear" x1="69.7388" y1="41.8787" x2="75.6807" y2="41.7405" gradientUnits="userSpaceOnUse">
<stop stop-color="#F9CEBB"/>
<stop offset="1" stop-color="#FFAEAE"/>
</linearGradient>
</defs>
</svg>
