<svg width="411" height="254" viewBox="0 0 411 254" fill="none" xmlns="http://www.w3.org/2000/svg">
<path opacity="0.21" d="M114.992 183.807C78.1948 228.341 22.9985 239.825 0 240H394V0C383.308 9.45295 343.161 33.2954 268.114 53.0416C174.304 77.7243 160.989 128.14 114.992 183.807Z" fill="#EAEDFE"/>
<path d="M131.992 183.807C95.1948 228.341 39.9985 239.825 17 240H411V0C400.308 9.45295 360.161 33.2954 285.114 53.0416C191.304 77.7243 177.989 128.14 131.992 183.807Z" fill="#D7DDFF"/>
<path d="M172.289 204.229C151.065 200.363 135.666 202.618 130.669 204.229L136.981 207.977L157.495 209.357L172.289 204.229Z" fill="#969696"/>
<path d="M149.605 216.557C149.447 208.667 144.74 192.69 142.406 185.688C140.598 177.962 138.559 166.831 144.871 184.11C152.761 205.708 149.802 226.419 149.605 216.557Z" fill="#316D91"/>
<path d="M147.526 216.356C149.416 208.694 149.004 192.043 148.561 184.675C148.815 176.745 149.727 165.466 151.351 183.789C153.382 206.694 145.164 225.933 147.526 216.356Z" fill="#234370"/>
<path d="M127.449 180.214C130.92 188.498 138.692 187.282 142.144 185.638C147.206 184.356 156.602 179.227 153.682 168.97C150.763 158.714 143.524 151.284 140.27 148.851L132.873 156.149L141.65 144.315L138.494 145.991L139.777 141.356L127.942 128.732L125.871 133.17V126.661C122.517 124.294 114.726 120.211 110.387 122.815C104.963 126.069 105.85 156.643 114.529 162.264C123.208 167.886 123.109 169.858 127.449 180.214Z" fill="#316D91"/>
<path d="M144.28 185.885C138.066 171.223 123.667 140.163 115.777 133.22" stroke="white" stroke-opacity="0.2"/>
<path d="M149.875 185.84C145.47 181.205 135.101 165.563 137.547 142.051C138.928 142.939 141.926 144.596 142.873 144.122C141.525 142.807 138.889 139.822 139.125 138.402C139.421 136.627 140.407 119.368 149.283 114.93L152.242 119.762L151.157 113.45C151.65 112.398 154.077 109.939 159.836 108.519C160.329 108.552 161.611 108.144 162.795 106.251C162.795 107.401 162.538 110.077 161.513 111.576C160.231 113.45 164.866 108.42 164.471 106.251C164.077 104.081 170.783 116.508 170.586 123.707C168.882 125.438 165.629 128.467 163.909 129.22C166.247 128.92 169.827 128.283 170.586 127.455C171.671 126.271 171.178 147.179 169.994 149.744L161.315 154.872L169.994 152.308C167.989 158.423 159.501 174.636 149.875 185.84H149.875Z" fill="#234370"/>
<path d="M149.999 185.688C148.98 169.546 149.092 135.153 157.692 126.711" stroke="white" stroke-opacity="0.2"/>
<path d="M186.852 170.401C176.516 173.636 163.281 186.411 157.955 192.394L162.426 178.784L174.557 168.034L193.46 162.511L194.742 157.679C197.996 157.876 199.771 166.358 186.852 170.401Z" fill="#234370"/>
<path d="M169.198 173.853C164.859 181.348 159.829 189.14 157.856 192.098C157.232 188.745 158.054 180.224 166.338 172.965C176.694 163.892 181.033 164.977 185.372 163.399C188.844 162.137 189.58 160.112 189.515 159.257C190.461 160.519 189.909 162.544 189.515 163.399C192.828 161.821 194.38 158.928 194.742 157.679C197.188 158.783 197.076 160.901 196.714 161.821C191.684 168.725 174.622 164.484 169.198 173.853Z" fill="#08033B"/>
<path d="M150.886 216.754C151.675 207.918 157.001 195.912 159.565 191.013C162.721 185.491 167.299 177.64 159.172 189.633C149.014 204.624 149.9 227.8 150.886 216.754Z" fill="#234370"/>
<path d="M130.669 204.229L131.06 204.267C144.77 205.619 158.581 205.606 172.289 204.229V222.474C172.289 233.967 162.972 243.284 151.479 243.284C139.986 243.284 130.669 233.967 130.669 222.474V204.229Z" fill="#C4C4C4"/>
<path d="M282.528 176.589C286.764 175.08 286.044 167.06 284.862 163.157L279.43 162.968C280.835 165.803 276.747 170.763 278.36 171.434C279.603 171.952 279.548 170.843 280.367 169.308C281.278 170.226 281.536 173.431 281.415 175.557C281.378 176.207 281.915 176.807 282.528 176.589Z" fill="#EA8F72"/>
<path d="M302.395 216.037L296.611 210.589L290.349 216.682L298.794 221.528L302.395 216.037Z" fill="#B88B60"/>
<path d="M297.703 221.227C299.109 220.097 301.088 216.767 301.902 215.242L302.024 215.014L308.772 218.03L299.128 236.091C297.272 239.567 296.457 236.918 296.282 235.159C298.04 231.867 297.962 224.5 297.703 221.227Z" fill="#1D104A"/>
<path d="M234.55 240.471L236.631 232.803L228.307 230.148L228.01 239.881L234.55 240.471Z" fill="#B88B60"/>
<path d="M227.762 238.777C229.42 239.485 233.291 239.662 235.019 239.662H235.278L235.796 247.035H215.321C211.381 247.035 213.334 245.069 214.803 244.086C218.535 244.086 224.997 240.547 227.762 238.777Z" fill="#1D104A"/>
<path d="M272.304 190.016V153.749H246.441L259.521 199.529L292.816 220.635L299.951 212.312L272.304 190.016Z" fill="#5DB3BB"/>
<path d="M237.82 235.797L272.898 153.451H246.738L226.524 235.797H237.82Z" fill="#79C7CE"/>
<path d="M211.403 153.622C214.631 156.298 220.663 152.03 223.218 149.27L228.214 143.409L220.8 144.732C219.192 147.195 213.282 146.141 213.506 147.774C213.68 149.032 214.542 148.473 216.161 148.434C215.86 149.586 213.489 151.245 211.735 152.14C211.154 152.437 210.901 153.206 211.403 153.622Z" fill="#EF937E"/>
<path d="M245.85 87.3367C245.747 86.7897 245.775 86.1887 245.862 85.5858C246.182 83.3787 247.328 81.3046 248.768 79.6013C259.791 75.5019 263.043 85.1675 263.291 90.5128L259.906 105.722L251.538 105.176L252.508 100.633C251.628 99.4732 250.214 99.7123 247.328 99.9226C244.441 100.133 245.301 97.6529 245.274 97.2162C245.258 96.958 244.914 96.5442 244.61 96.2355C244.465 96.088 244.474 95.843 244.639 95.7179C244.784 95.6084 244.812 95.4027 244.702 95.2584L244.534 95.037C244.363 94.8107 244.371 94.4956 244.555 94.279L244.734 94.0675C244.87 93.9067 244.885 93.6755 244.769 93.4992L244.528 93.1315C243.994 92.316 244.147 91.2491 244.744 90.4786C245.445 89.5755 246.054 88.4275 245.85 87.3367Z" fill="#F3AEAE"/>
<path fill-rule="evenodd" clip-rule="evenodd" d="M254.857 75.1345C254.399 74.809 253.858 74.5863 253.263 74.5046C252.5 74.4001 251.761 74.5426 251.126 74.8709C250.576 74.0212 249.674 73.4071 248.593 73.2588C246.624 72.9889 244.81 74.3656 244.54 76.3339C244.49 76.6966 244.496 77.0541 244.552 77.3977C243.99 77.9011 243.596 78.599 243.486 79.4051C243.238 81.2094 244.5 82.8726 246.305 83.1201C246.745 83.1805 247.177 83.151 247.582 83.0457C248.499 83.8897 250.209 85.1084 251.541 84.8586C251.58 86.7803 252.03 90.5537 253.521 90.2741C253.68 89.7617 254.062 89.1149 254.709 88.7139C256.867 87.3753 259.483 91.1309 257.791 93.0245C257.419 93.4412 256.883 93.6173 256.124 93.3544C254.851 92.9128 254.928 93.7746 255.426 94.7741C255.336 94.9503 255.273 95.1445 255.245 95.3518C255.11 96.336 255.798 97.2432 256.782 97.3782C257.525 97.4801 258.225 97.1126 258.581 96.5028C258.742 96.8059 258.987 97.0606 259.291 97.2309C259.227 97.3784 259.182 97.5371 259.159 97.7043C259.024 98.6884 259.712 99.5957 260.696 99.7306C261.327 99.8171 261.926 99.5656 262.31 99.1148C262.645 100.019 263.454 100.714 264.476 100.854C265.952 101.057 267.313 100.024 267.515 98.5479C267.604 97.9007 267.455 97.2758 267.136 96.7608C267.274 96.6493 267.405 96.5297 267.529 96.4025C268.381 96.3661 269.112 95.7249 269.232 94.8497C269.271 94.5668 269.242 94.2903 269.157 94.0366C269.704 93.6192 270.092 92.9938 270.193 92.2583C270.287 91.5738 270.116 90.9141 269.757 90.3832C270.245 89.9683 270.588 89.3791 270.682 88.6945C270.81 87.766 270.448 86.8831 269.795 86.3054C269.805 86.2559 269.813 86.206 269.82 86.1555C270.011 84.7621 269.102 83.4714 267.758 83.1608C267.819 82.9687 267.864 82.7689 267.892 82.5626C268.159 80.6196 266.82 78.8264 264.892 78.521C264.682 77.5474 263.883 76.7633 262.839 76.6201C262.379 76.557 261.932 76.6264 261.535 76.799C261.034 76.3788 260.412 76.0902 259.716 75.9948L259.701 75.9928C259.201 75.185 258.358 74.5982 257.344 74.4591C256.421 74.3325 255.535 74.6008 254.857 75.1345Z" fill="#393939"/>
<path d="M235.378 123.264C240.946 112.381 249.368 105.29 251.899 102.97C254.324 109.403 255.12 124.846 246.768 136.235C238.415 147.625 225.36 151.527 219.876 152.054L216.08 147.308C220.192 143.828 229.81 134.147 235.378 123.264Z" fill="#ECAD0C"/>
<path d="M246.264 155.558C243.48 144.422 249.58 115.942 251.9 102.97C252.796 103.369 253.819 103.367 254.714 102.967L255.31 102.7L266.067 103.016L274.292 155.534L246.264 155.558Z" fill="white"/>
<path d="M248.983 154.901C244.427 139.209 251.725 111.453 255.943 99.5364L274.292 98.9037C278.089 101.182 273.554 108.289 270.812 111.559C281.948 122.695 285.576 151.421 285.998 164.392C283.994 164.498 279.797 164.646 279.038 164.392C278.279 164.139 275.558 158.381 274.292 155.534L248.983 154.901Z" fill="#FFBB0B"/>
<mask id="mask0" mask-type="alpha" maskUnits="userSpaceOnUse" x="247" y="98" width="39" height="67">
<path d="M248.983 154.901C244.427 139.209 251.725 111.453 255.943 99.5364L274.292 98.9037C278.089 101.182 273.554 108.289 270.812 111.559C281.948 122.695 285.576 151.421 285.998 164.392C283.994 164.498 279.797 164.646 279.038 164.392C278.279 164.139 275.558 158.381 274.292 155.534L248.983 154.901Z" fill="#1DB6E7"/>
</mask>
<g mask="url(#mask0)">
<path d="M267.965 136.868L274.292 156.167L263.536 159.647L267.965 136.868Z" fill="#ECAD0C"/>
</g>
<path d="M309.29 189.847C307.153 194.122 325.143 198.04 334.405 199.465L334.939 188.778C337.611 175.419 337.611 172.213 334.405 172.748C331.199 173.282 328.527 179.694 327.458 175.954C326.389 172.213 334.405 162.595 331.733 155.648C329.061 148.702 323.718 159.923 321.58 158.32C319.443 156.717 323.183 138.549 319.977 137.48C316.771 136.412 316.237 151.373 315.168 146.03C314.099 140.686 305.55 129.465 298.603 133.74C291.656 138.015 310.893 148.702 309.29 150.839C307.687 152.976 297 146.564 297 152.976C297 159.389 314.634 161.526 318.374 164.198C322.115 166.87 306.618 169.541 302.878 171.144C299.137 172.748 300.206 178.625 310.893 179.16C321.58 179.694 323.718 182.366 324.786 185.038C325.855 187.709 311.962 184.503 309.29 189.847Z" fill="#5A87DF"/>
<path d="M310.893 146.03C313.565 148.345 319.443 155.969 321.58 167.938C323.718 179.908 330.308 191.45 333.336 195.725" stroke="#436BAC"/>
<path d="M358.71 189.164C360.847 193.439 342.857 197.358 333.595 198.783L333.061 188.096C330.389 174.737 330.389 171.531 333.595 172.065C336.801 172.6 339.473 179.012 340.542 175.271C341.611 171.531 333.595 161.912 336.267 154.966C338.939 148.019 344.282 159.241 346.42 157.638C348.557 156.035 344.817 137.867 348.023 136.798C351.229 135.729 351.763 150.691 352.832 145.348C353.901 140.004 362.45 128.783 369.397 133.057C376.344 137.332 357.107 148.019 358.71 150.157C360.313 152.294 371 145.882 371 152.294C371 158.706 353.366 160.844 349.626 163.516C345.885 166.187 361.382 168.859 365.122 170.462C368.863 172.065 367.794 177.943 357.107 178.477C346.42 179.012 344.282 181.684 343.214 184.355C342.145 187.027 356.038 183.821 358.71 189.164Z" fill="#5A87DF"/>
<path d="M357.107 145.347C354.435 147.663 348.557 155.286 346.42 167.256C344.282 179.225 337.692 190.767 334.664 195.042" stroke="#1F4FAB"/>
<path d="M322.132 178.052C317.638 178.052 322.725 186.541 325.686 189.897L334.569 199.372C338.912 197.596 348.072 193.568 349.967 191.673C352.336 189.304 349.375 188.712 346.414 188.12C344.045 187.646 345.427 185.553 346.414 184.566C356.364 181.724 359.641 176.275 360.036 173.906C360.036 173.314 360.036 172.129 357.667 170.352C355.298 168.576 345.822 182.197 346.414 173.314C347.006 164.43 360.628 154.362 360.036 150.216C359.443 146.07 356.482 151.401 351.152 154.362C346.888 156.731 347.006 152.585 347.598 150.216C350.362 147.058 355.535 139.911 354.113 136.595C352.336 132.449 351.152 136.595 346.414 140.74C341.676 144.886 344.637 136.002 345.822 134.226C347.006 132.449 357.667 109.351 338.715 113.497C319.763 117.643 331.016 142.517 331.608 146.07C332.2 149.624 327.462 141.333 320.356 143.702C313.249 146.07 333.385 159.1 333.385 162.653C333.385 166.207 325.686 160.877 322.132 160.284C318.579 159.692 325.686 168.576 327.462 173.906C328.884 178.17 328.055 179.236 327.462 179.236C325.686 180.421 325.686 178.052 322.132 178.052Z" fill="#82B7FB"/>
<path d="M339.899 125.934C338.714 126.131 336.701 132.804 338.122 157.915C339.543 183.026 337.53 192.068 336.346 193.45" stroke="#1E3E75" stroke-width="2" stroke-linejoin="round"/>
<path d="M320.201 204.44H345.45L342.72 231.736H322.59L320.201 204.44Z" fill="#F5AA45"/>
<mask id="mask1" mask-type="alpha" maskUnits="userSpaceOnUse" x="320" y="204" width="26" height="28">
<path d="M320.201 204.44H345.45L342.72 231.736H322.59L320.201 204.44Z" fill="#F5AA45"/>
</mask>
<g mask="url(#mask1)">
<rect x="316.79" y="199.663" width="32.0723" height="9.55346" rx="4.77673" fill="#C77E1C"/>
</g>
<rect x="316.79" y="196.934" width="32.0723" height="9.55346" rx="4.77673" fill="#F5AA45"/>
<path d="M320.884 212.629H344.767L343.744 223.547H321.566L320.884 212.629Z" fill="#FFD193"/>
<path d="M217.915 156.762C221.335 154.336 218.773 147.405 216.77 144.223L211.76 145.384C213.723 147.575 211.175 153.011 212.81 153.216C214.07 153.374 213.754 152.397 214.135 150.823C215.17 151.411 216.159 154.131 216.57 156.057C216.706 156.695 217.383 157.139 217.915 156.762Z" fill="#EF937E"/>
<path d="M119.298 106.352C117.549 110.163 123.233 114.885 126.56 116.639L133.514 119.947L130.318 113.128C127.522 112.212 127.01 106.231 125.492 106.871C124.322 107.364 125.084 108.052 125.541 109.605C124.35 109.613 122.134 107.752 120.815 106.289C120.379 105.805 119.57 105.759 119.298 106.352Z" fill="#EF937E"/>
<path d="M155.77 109.178C161.507 91.6373 167.949 84.9204 168.885 83.069C169.859 96.6726 167.017 123.584 160.395 127.887C153.773 132.189 136.655 123.981 128.923 119.338L131.038 111.302C147.546 117.031 154.404 112.273 155.77 109.178Z" fill="#655FC9"/>
<path d="M168.183 84.1225L173.492 79.8595L178.474 80.4041L186.236 136.894L156.589 143.519C156.759 141.744 159.86 123.473 162.223 109.26C164.393 96.2068 167.416 89.0307 168.183 84.1225Z" fill="white"/>
<path d="M165.621 64.7466L166.671 61.4627L168.423 58.5259C169.349 58.0506 172.908 57.5537 179.739 59.3684C186.57 61.1831 182.315 73.495 179.334 79.4241L179.074 81.5815C174.551 83.6359 167.199 85.7965 168.274 83.995C169.278 82.3124 169.446 81.4999 169.595 80.2455C168.245 80.4089 166.961 80.3454 165.978 80.0623C164.312 79.582 165.19 77.5794 165.838 76.6382C165.367 76.3572 165.213 75.7477 165.494 75.2768L165.01 74.839C164.799 74.6482 164.728 74.347 164.831 74.0821C165.014 73.6147 164.832 73.0837 164.401 72.8266L163.596 72.3458C163.218 72.1206 163.133 71.6103 163.418 71.275L165.315 69.0363C165.686 68.5987 165.804 68.0002 165.627 67.4546C165.341 66.5749 165.339 65.6276 165.621 64.7466Z" fill="#EF937E"/>
<path d="M177.55 76.8178L178.433 78.2435C178.832 78.8876 179.774 78.8715 180.151 78.2141L183.233 72.8351C184.746 70.1941 186.069 67.3145 185.751 64.2875C185.393 60.8775 183.767 56.9772 179.218 55.0751C170.582 51.4638 167.982 55.8216 167.641 55.7468C167.369 55.6869 167.021 54.9915 166.882 54.6513C166.746 54.8787 166.727 55.6292 166.734 55.9761C166.142 55.4175 166.597 54.2673 166.899 53.7621C162.671 57.9196 164.519 60.6924 165.972 61.5592C167.548 61.4292 170.864 61.498 171.518 62.8132C172.336 64.4572 171.862 64.1746 173.644 65.4945C175.069 66.5505 174.197 70.0213 173.583 71.6246L172.622 73.2351L175.004 72.4725C175.346 70.0046 177.209 68.9922 178.098 68.7945C180.385 69.4398 178.686 74.4122 177.55 76.8178Z" fill="#393939"/>
<path d="M199.28 237.367L198.256 228.035L187.956 228.711L191.833 239.543L199.28 237.367Z" fill="#EF937E"/>
<path d="M191.083 238.436C193.213 238.498 197.546 237.021 199.446 236.275L199.731 236.163L203.486 244.047L180.969 252.891C176.636 254.592 177.934 251.587 179.125 249.871C183.229 248.259 188.807 241.576 191.083 238.436Z" fill="#1D104A"/>
<path d="M155.712 244.535L158.171 235.475L148.337 232.339L147.985 243.838L155.712 244.535Z" fill="#EF937E"/>
<path d="M147.693 242.534C149.653 243.37 154.225 243.579 156.267 243.579H156.573L157.186 252.291H132.994C128.34 252.291 130.647 249.968 132.382 248.806C136.791 248.806 144.426 244.625 147.693 242.534Z" fill="#1D104A"/>
<path d="M170.257 187.061C174.913 201.699 180.806 218.349 188.025 235.851H201.723C198.211 225.548 190.554 191.808 188.025 139.265L157.118 137.508C153.488 150.855 146.511 189.209 147.635 235.851L159.225 236.202C161.71 223.357 165.76 204.439 170.257 187.061Z" fill="#393939"/>
<mask id="mask2" mask-type="alpha" maskUnits="userSpaceOnUse" x="147" y="137" width="55" height="100">
<path d="M170.257 187.061C174.913 201.699 180.806 218.349 188.025 235.851H201.723C198.211 225.548 190.554 191.808 188.025 139.265L157.118 137.508C153.488 150.855 146.511 189.209 147.635 235.851L159.225 236.202C161.71 223.357 165.76 204.439 170.257 187.061Z" fill="#79C7CE"/>
</mask>
<g mask="url(#mask2)">
<path d="M170.113 186.328L161.683 237.256H144.473L140.61 202.484L157.118 136.454L170.113 186.328Z" fill="#262626"/>
</g>
<path d="M165.755 141.159C159.502 125.911 168.384 96.6163 173.524 82.4736L179.071 80.9616C203.317 93.5282 215.39 127.676 218.654 144.405L210.297 146.273C208.49 146.677 193.154 119.319 193.154 119.319C193.154 119.319 189.166 115.366 198.991 145.56L165.755 141.159Z" fill="#7873D7"/>
</svg>
