<svg width="493" height="493" viewBox="0 0 493 493" fill="none" xmlns="http://www.w3.org/2000/svg">
<g clip-path="url(#clip0_823_35056)">
<path d="M246.339 492.678C382.388 492.678 492.678 382.388 492.678 246.339C492.678 110.29 382.388 0 246.339 0C110.29 0 0 110.29 0 246.339C0 382.388 110.29 492.678 246.339 492.678Z" fill="#166534" fill-opacity="0.2"/>
<path d="M323.74 392H124C118.477 392 114 387.523 114 382V122C114 116.477 118.477 112 124 112H378.796C384.318 112 388.796 116.477 388.796 122V334.751" stroke="#166534" stroke-width="12"/>
<path d="M388.409 334.059L325.93 390.492C325.287 391.073 324.26 390.617 324.26 389.75V338.711C324.26 335.95 326.498 333.711 329.26 333.711H388.275C388.458 333.711 388.545 333.937 388.409 334.059Z" fill="#166534" stroke="#166534" stroke-width="15"/>
<path d="M341.118 268.135H160.635C157.873 268.135 155.635 270.373 155.635 273.135V273.544C155.635 276.305 157.873 278.544 160.635 278.544H341.118C343.879 278.544 346.118 276.305 346.118 273.544V273.135C346.118 270.373 343.879 268.135 341.118 268.135Z" fill="#166534"/>
<path d="M341.118 291.033H160.635C157.873 291.033 155.635 293.272 155.635 296.033V296.442C155.635 299.204 157.873 301.442 160.635 301.442H341.118C343.879 301.442 346.118 299.204 346.118 296.442V296.033C346.118 293.272 343.879 291.033 341.118 291.033Z" fill="#166534"/>
<path d="M319.26 313.934H160.635C157.873 313.934 155.635 316.172 155.635 318.934V319.342C155.635 322.104 157.873 324.342 160.635 324.342H319.26C322.021 324.342 324.26 322.104 324.26 319.342V318.934C324.26 316.172 322.021 313.934 319.26 313.934Z" fill="#166534"/>
<path d="M298.442 336.832H160.635C157.873 336.832 155.635 339.071 155.635 341.832V342.241C155.635 345.002 157.873 347.241 160.635 347.241H298.442C301.203 347.241 303.442 345.002 303.442 342.241V341.832C303.442 339.071 301.203 336.832 298.442 336.832Z" fill="#166534"/>
<path d="M298.442 359.732H160.635C157.873 359.732 155.635 361.971 155.635 364.732V365.141C155.635 367.903 157.873 370.141 160.635 370.141H298.442C301.203 370.141 303.442 367.903 303.442 365.141V364.732C303.442 361.971 301.203 359.732 298.442 359.732Z" fill="#166534"/>
<path d="M268.677 206.723H236C233.239 206.723 231 208.961 231 211.723V241.277C231 244.038 233.239 246.277 236 246.277H268.677C271.438 246.277 273.677 244.038 273.677 241.277V211.723C273.677 208.961 271.438 206.723 268.677 206.723Z" stroke="#166534" stroke-width="10"/>
<path d="M267.218 136.982H234.541C231.78 136.982 229.541 139.221 229.541 141.982V171.536C229.541 174.298 231.78 176.536 234.541 176.536H267.218C269.979 176.536 272.218 174.298 272.218 171.536V141.982C272.218 139.221 269.979 136.982 267.218 136.982Z" stroke="#166534" stroke-width="10"/>
<path d="M344.677 207H312C309.239 207 307 209.239 307 212V241.554C307 244.315 309.239 246.554 312 246.554H344.677C347.438 246.554 349.677 244.315 349.677 241.554V212C349.677 209.239 347.438 207 344.677 207Z" stroke="#166534" stroke-width="10"/>
<path d="M193.313 206.723H160.637C157.875 206.723 155.637 208.961 155.637 211.723V241.277C155.637 244.038 157.875 246.277 160.637 246.277H193.313C196.075 246.277 198.313 244.038 198.313 241.277V211.723C198.313 208.961 196.075 206.723 193.313 206.723Z" stroke="#166534" stroke-width="10"/>
<path d="M171.25 186.822C171.25 185.165 172.593 183.822 174.25 183.822H330.629C332.286 183.822 333.629 185.165 333.629 186.822V194.231H171.25V186.822Z" fill="#166534"/>
<path d="M181.659 194.232H171.25V210.887H181.659V194.232Z" fill="#166534"/>
<path d="M333.63 194.232H323.221V210.887H333.63V194.232Z" fill="#166534"/>
<path d="M257.409 172.373H247V206.722H257.409V172.373Z" fill="#166534"/>
</g>
<defs>
<clipPath id="clip0_823_35056">
<rect width="493" height="493" fill="white"/>
</clipPath>
</defs>
</svg>
