<svg width="108" height="108" viewBox="0 0 108 108" fill="none" xmlns="http://www.w3.org/2000/svg">
<path d="M70.6522 82.7435C70.9901 83.2565 71.1818 83.8502 71.207 84.462C71.2322 85.0739 71.09 85.6811 70.7953 86.2196C70.5007 86.758 70.0646 87.2077 69.5331 87.521C69.0016 87.8344 68.3944 87.9999 67.7757 88H4.43413C3.81546 87.9999 3.2083 87.8344 2.6768 87.521C2.14529 87.2077 1.70918 86.758 1.41454 86.2196C1.11989 85.6811 0.977652 85.0739 1.00285 84.462C1.02805 83.8502 1.21975 83.2565 1.55769 82.7435C6.39227 75.3779 13.5034 69.7568 21.8301 66.7192C17.2269 63.686 13.7322 59.2671 11.8626 54.1159C9.99304 48.9647 9.84792 43.3547 11.4487 38.1156C13.0495 32.8764 16.3112 28.2863 20.7515 25.0239C25.1918 21.7614 30.575 20 36.1049 20C41.6349 20 47.018 21.7614 51.4583 25.0239C55.8986 28.2863 59.1603 32.8764 60.7611 38.1156C62.3619 43.3547 62.2168 48.9647 60.3472 54.1159C58.4777 59.2671 54.9829 63.686 50.3798 66.7192C58.7064 69.7568 65.8176 75.3779 70.6522 82.7435Z" fill="#6366F1"/>
<path d="M107.394 82.6799C102.558 75.3453 95.4623 69.7484 87.1597 66.7194C92.594 63.0962 96.4291 57.5595 97.8844 51.2362C99.3396 44.9129 98.3058 38.2784 94.9931 32.683C91.6805 27.0877 86.3381 22.952 80.0535 21.118C73.7688 19.2839 67.0142 19.8893 61.1645 22.8108C60.9408 22.9251 60.7453 23.0867 60.5917 23.2841C60.4381 23.4816 60.3303 23.71 60.2758 23.9533C60.2213 24.1965 60.2215 24.4487 60.2764 24.6918C60.3314 24.935 60.4396 25.1633 60.5935 25.3604C64.9432 30.7308 67.4413 37.3387 67.7217 44.2161C68.0022 51.0936 66.0503 57.8792 62.152 63.5791C61.9 63.9516 61.8069 64.4075 61.8929 64.8476C61.979 65.2878 62.2372 65.6764 62.6113 65.929C67.694 69.4401 72.0451 73.8882 75.4265 79.0297C76.7902 81.0969 77.3472 83.5846 76.9935 86.0284C76.9537 86.2715 76.9677 86.5203 77.0346 86.7575C77.1015 86.9947 77.2197 87.2147 77.381 87.4022C77.5423 87.5897 77.7428 87.7403 77.9687 87.8436C78.1946 87.9468 78.4405 88.0002 78.6893 88.0001H104.577C105.333 88.0004 106.069 87.7535 106.669 87.2979C107.269 86.8423 107.7 86.2033 107.896 85.4803C108.015 85.0047 108.032 84.5097 107.946 84.0272C107.859 83.5448 107.671 83.0857 107.394 82.6799Z" fill="#A5B4FC"/>
</svg>
