<svg width="210" height="191" viewBox="0 0 210 191" fill="none" xmlns="http://www.w3.org/2000/svg">
<path d="M181.454 47.4481H28.6537C18.1051 47.4481 9.55371 56.0153 9.55371 66.5835V162.261C9.55371 172.829 18.1051 181.396 28.6537 181.396H181.454C192.002 181.396 200.554 172.829 200.554 162.261V66.5835C200.554 56.0153 192.002 47.4481 181.454 47.4481Z" stroke="white" stroke-opacity="0.1" stroke-width="18" stroke-linecap="round" stroke-linejoin="round"/>
<path d="M143.502 181.396V28.1551C143.502 23.0749 141.476 18.2027 137.871 14.6104C134.266 11.0181 129.376 9 124.278 9H85.8295C80.731 9 75.8413 11.0181 72.2361 14.6104C68.6309 18.2027 66.6055 23.0749 66.6055 28.1551V181.396" stroke="white" stroke-opacity="0.1" stroke-width="18" stroke-linecap="round" stroke-linejoin="round"/>
</svg>
