<svg width="493" height="493" viewBox="0 0 493 493" fill="none" xmlns="http://www.w3.org/2000/svg">
<g clip-path="url(#clip0_823_35085)">
<path d="M246.339 492.678C382.388 492.678 492.678 382.388 492.678 246.339C492.678 110.29 382.388 0 246.339 0C110.29 0 0 110.29 0 246.339C0 382.388 110.29 492.678 246.339 492.678Z" fill="#3730A3" fill-opacity="0.2"/>
<g filter="url(#filter0_d_823_35085)">
<path d="M123.545 252.683H160.782C162.958 252.683 164.721 250.804 164.721 248.482C164.721 246.162 162.958 244.283 160.782 244.283H123.545C118.216 244.283 113.881 239.661 113.881 233.982V158.797C113.881 153.117 118.216 148.496 123.545 148.496C125.723 148.496 127.486 146.616 127.486 144.295C127.486 141.975 125.723 140.096 123.545 140.096C113.87 140.096 106 148.485 106 158.797V233.982C106 244.294 113.87 252.683 123.545 252.683Z" fill="#3730A3"/>
<path d="M160.782 252.183H123.545C114.176 252.183 106.5 244.048 106.5 233.982V158.797C106.5 148.73 114.176 140.596 123.545 140.596C125.417 140.596 126.986 142.22 126.986 144.295C126.986 146.37 125.417 147.996 123.545 147.996C117.91 147.996 113.381 152.871 113.381 158.797V233.982C113.381 239.906 117.91 244.783 123.545 244.783H160.782C162.652 244.783 164.221 246.407 164.221 248.482C164.221 250.558 162.652 252.183 160.782 252.183Z" stroke="#3730A3"/>
</g>
<g filter="url(#filter1_d_823_35085)">
<path d="M369.165 227.918C366.988 227.918 365.221 230.283 365.221 233.205C365.221 236.125 366.988 238.49 369.165 238.49C374.101 238.49 378.116 243.876 378.116 250.494V359.29C378.116 365.909 374.101 371.292 369.165 371.292H350.895C348.717 371.292 346.953 373.66 346.953 376.579C346.953 379.498 348.717 381.866 350.895 381.866H369.165C378.45 381.866 386.001 371.739 386.001 359.29V250.494C386.001 238.045 378.45 227.918 369.165 227.918Z" fill="#3730A3"/>
<path d="M365.721 233.205C365.721 231.841 366.134 230.627 366.777 229.765C367.421 228.903 368.27 228.418 369.165 228.418C373.613 228.418 377.686 230.843 380.664 234.836C383.642 238.83 385.501 244.367 385.501 250.494V359.29C385.501 365.417 383.642 370.954 380.664 374.947C377.686 378.941 373.613 381.366 369.165 381.366H350.895C350 381.366 349.151 380.881 348.508 380.018C347.865 379.156 347.453 377.941 347.453 376.579C347.453 375.216 347.865 374.002 348.508 373.14C349.151 372.277 350 371.792 350.895 371.792H369.165C371.827 371.792 374.201 370.339 375.892 368.072C377.583 365.805 378.616 362.697 378.616 359.29V250.494C378.616 247.088 377.583 243.979 375.892 241.711C374.202 239.444 371.828 237.99 369.165 237.99C368.27 237.99 367.421 237.505 366.777 236.643C366.134 235.782 365.721 234.568 365.721 233.205Z" stroke="#3730A3"/>
</g>
<g filter="url(#filter2_d_823_35085)">
<path d="M323.38 321.775H150.523C145.001 321.775 140.523 326.253 140.523 331.775V371C140.523 376.523 145.001 381 150.523 381H323.38C328.903 381 333.38 376.523 333.38 371V331.775C333.38 326.253 328.903 321.775 323.38 321.775Z" stroke="#3730A3" stroke-width="10" shape-rendering="crispEdges"/>
</g>
<g filter="url(#filter3_d_823_35085)">
<path d="M335.761 195.723H187.666C182.143 195.723 177.666 200.2 177.666 205.723V286.277C177.666 291.8 182.143 296.277 187.666 296.277H335.761C341.284 296.277 345.761 291.8 345.761 286.277V205.723C345.761 200.2 341.284 195.723 335.761 195.723Z" stroke="#3730A3" stroke-width="10" shape-rendering="crispEdges"/>
</g>
<g filter="url(#filter4_d_823_35085)">
<path d="M287.19 111H161C155.477 111 151 115.477 151 121V160.225C151 165.748 155.477 170.225 161 170.225H287.19C292.713 170.225 297.19 165.748 297.19 160.225V121C297.19 115.477 292.713 111 287.19 111Z" stroke="#3730A3" stroke-width="10" shape-rendering="crispEdges"/>
</g>
<g filter="url(#filter5_d_823_35085)">
<path d="M278.142 125.631H170.047C167.285 125.631 165.047 127.869 165.047 130.631V130.963C165.047 133.724 167.285 135.963 170.047 135.963H278.142C280.903 135.963 283.142 133.724 283.142 130.963V130.631C283.142 127.869 280.903 125.631 278.142 125.631Z" fill="#3730A3"/>
<path d="M170.047 126.131H278.142C280.627 126.131 282.642 128.146 282.642 130.631V130.963C282.642 133.448 280.627 135.463 278.142 135.463H170.047C167.562 135.463 165.547 133.448 165.547 130.963V130.631C165.547 128.146 167.562 126.131 170.047 126.131Z" stroke="#3730A3"/>
</g>
<g filter="url(#filter6_d_823_35085)">
<path d="M278.142 144.229H170.047C167.285 144.229 165.047 146.467 165.047 149.229V149.561C165.047 152.322 167.285 154.561 170.047 154.561H278.142C280.903 154.561 283.142 152.322 283.142 149.561V149.229C283.142 146.467 280.903 144.229 278.142 144.229Z" fill="#3730A3"/>
<path d="M170.047 144.729H278.142C280.627 144.729 282.642 146.743 282.642 149.229V149.561C282.642 152.046 280.627 154.061 278.142 154.061H170.047C167.562 154.061 165.547 152.046 165.547 149.561V149.229C165.547 146.743 167.562 144.729 170.047 144.729Z" stroke="#3730A3"/>
</g>
<g filter="url(#filter7_d_823_35085)">
<path d="M267.667 336.406H159.572C156.811 336.406 154.572 338.645 154.572 341.406V341.738C154.572 344.5 156.811 346.738 159.572 346.738H267.667C270.429 346.738 272.667 344.5 272.667 341.738V341.406C272.667 338.645 270.429 336.406 267.667 336.406Z" fill="#3730A3"/>
<path d="M159.572 336.906H267.667C270.153 336.906 272.167 338.921 272.167 341.406V341.738C272.167 344.224 270.153 346.238 267.667 346.238H159.572C157.087 346.238 155.072 344.224 155.072 341.738V341.406C155.072 338.921 157.087 336.906 159.572 336.906Z" stroke="#3730A3"/>
</g>
<g filter="url(#filter8_d_823_35085)">
<path d="M267.667 355.004H159.572C156.811 355.004 154.572 357.242 154.572 360.004V360.336C154.572 363.097 156.811 365.336 159.572 365.336H267.667C270.429 365.336 272.667 363.097 272.667 360.336V360.004C272.667 357.242 270.429 355.004 267.667 355.004Z" fill="#3730A3"/>
<path d="M159.572 355.504H267.667C270.153 355.504 272.167 357.519 272.167 360.004V360.336C272.167 362.821 270.153 364.836 267.667 364.836H159.572C157.087 364.836 155.072 362.821 155.072 360.336V360.004C155.072 357.519 157.087 355.504 159.572 355.504Z" stroke="#3730A3"/>
</g>
<g filter="url(#filter9_d_823_35085)">
<path d="M323.857 212.42H222.428C219.666 212.42 217.428 214.658 217.428 217.42V217.752C217.428 220.513 219.666 222.752 222.428 222.752H323.857C326.618 222.752 328.857 220.513 328.857 217.752V217.42C328.857 214.658 326.618 212.42 323.857 212.42Z" fill="#3730A3"/>
<path d="M222.428 212.92H323.857C326.342 212.92 328.357 214.935 328.357 217.42V217.752C328.357 220.237 326.342 222.252 323.857 222.252H222.428C219.942 222.252 217.928 220.237 217.928 217.752V217.42C217.928 214.935 219.942 212.92 222.428 212.92Z" stroke="#3730A3"/>
</g>
<g filter="url(#filter10_d_823_35085)">
<path d="M323.857 249.617H222.428C219.666 249.617 217.428 251.856 217.428 254.617V254.949C217.428 257.711 219.666 259.949 222.428 259.949H323.857C326.618 259.949 328.857 257.711 328.857 254.949V254.617C328.857 251.856 326.618 249.617 323.857 249.617Z" fill="#3730A3"/>
<path d="M222.428 250.117H323.857C326.342 250.117 328.357 252.132 328.357 254.617V254.949C328.357 257.435 326.342 259.449 323.857 259.449H222.428C219.942 259.449 217.928 257.435 217.928 254.949V254.617C217.928 252.132 219.942 250.117 222.428 250.117Z" stroke="#3730A3"/>
</g>
<path d="M222.428 231.518H323.857C326.342 231.518 328.357 233.532 328.357 236.018V236.35C328.357 238.835 326.342 240.85 323.857 240.85H222.428C219.942 240.85 217.928 238.835 217.928 236.35V236.018C217.928 233.532 219.942 231.518 222.428 231.518Z" fill="#3730A3" stroke="#3730A3"/>
<path d="M222.428 268.715H323.857C326.342 268.715 328.357 270.73 328.357 273.215V273.547C328.357 276.032 326.342 278.047 323.857 278.047H222.428C219.942 278.047 217.928 276.032 217.928 273.547V273.215C217.928 270.73 219.942 268.715 222.428 268.715Z" fill="#3730A3" stroke="#3730A3"/>
<path d="M194.119 196.389H202.643V293.544H194.119V196.389Z" fill="#3730A3" stroke="#3730A3"/>
<path d="M315.689 336.85L315.689 336.85C317.567 338.405 317.952 341.282 316.55 343.276L301.564 364.577C300.162 366.571 297.502 366.927 295.624 365.373C293.746 363.818 293.361 360.941 294.764 358.947L309.749 337.645C311.152 335.651 313.811 335.295 315.689 336.85Z" fill="#3730A3" stroke="#3730A3"/>
<path d="M285.731 349.185C287.475 347.453 290.174 347.572 291.759 349.451L300.458 359.76C302.043 361.639 301.914 364.566 300.17 366.297C298.426 368.029 295.727 367.91 294.142 366.032L285.444 355.722C283.859 353.844 283.987 350.917 285.731 349.185Z" fill="#3730A3" stroke="#3730A3"/>
</g>
<defs>
<filter id="filter0_d_823_35085" x="102" y="140.096" width="66.7207" height="120.587" filterUnits="userSpaceOnUse" color-interpolation-filters="sRGB">
<feFlood flood-opacity="0" result="BackgroundImageFix"/>
<feColorMatrix in="SourceAlpha" type="matrix" values="0 0 0 0 0 0 0 0 0 0 0 0 0 0 0 0 0 0 127 0" result="hardAlpha"/>
<feOffset dy="4"/>
<feGaussianBlur stdDeviation="2"/>
<feComposite in2="hardAlpha" operator="out"/>
<feColorMatrix type="matrix" values="0 0 0 0 0 0 0 0 0 0 0 0 0 0 0 0 0 0 0.25 0"/>
<feBlend mode="normal" in2="BackgroundImageFix" result="effect1_dropShadow_823_35085"/>
<feBlend mode="normal" in="SourceGraphic" in2="effect1_dropShadow_823_35085" result="shape"/>
</filter>
<filter id="filter1_d_823_35085" x="342.953" y="227.918" width="47.0479" height="161.948" filterUnits="userSpaceOnUse" color-interpolation-filters="sRGB">
<feFlood flood-opacity="0" result="BackgroundImageFix"/>
<feColorMatrix in="SourceAlpha" type="matrix" values="0 0 0 0 0 0 0 0 0 0 0 0 0 0 0 0 0 0 127 0" result="hardAlpha"/>
<feOffset dy="4"/>
<feGaussianBlur stdDeviation="2"/>
<feComposite in2="hardAlpha" operator="out"/>
<feColorMatrix type="matrix" values="0 0 0 0 0 0 0 0 0 0 0 0 0 0 0 0 0 0 0.25 0"/>
<feBlend mode="normal" in2="BackgroundImageFix" result="effect1_dropShadow_823_35085"/>
<feBlend mode="normal" in="SourceGraphic" in2="effect1_dropShadow_823_35085" result="shape"/>
</filter>
<filter id="filter2_d_823_35085" x="131.523" y="316.775" width="210.857" height="77.2246" filterUnits="userSpaceOnUse" color-interpolation-filters="sRGB">
<feFlood flood-opacity="0" result="BackgroundImageFix"/>
<feColorMatrix in="SourceAlpha" type="matrix" values="0 0 0 0 0 0 0 0 0 0 0 0 0 0 0 0 0 0 127 0" result="hardAlpha"/>
<feOffset dy="4"/>
<feGaussianBlur stdDeviation="2"/>
<feComposite in2="hardAlpha" operator="out"/>
<feColorMatrix type="matrix" values="0 0 0 0 0 0 0 0 0 0 0 0 0 0 0 0 0 0 0.25 0"/>
<feBlend mode="normal" in2="BackgroundImageFix" result="effect1_dropShadow_823_35085"/>
<feBlend mode="normal" in="SourceGraphic" in2="effect1_dropShadow_823_35085" result="shape"/>
</filter>
<filter id="filter3_d_823_35085" x="168.666" y="190.723" width="186.095" height="118.554" filterUnits="userSpaceOnUse" color-interpolation-filters="sRGB">
<feFlood flood-opacity="0" result="BackgroundImageFix"/>
<feColorMatrix in="SourceAlpha" type="matrix" values="0 0 0 0 0 0 0 0 0 0 0 0 0 0 0 0 0 0 127 0" result="hardAlpha"/>
<feOffset dy="4"/>
<feGaussianBlur stdDeviation="2"/>
<feComposite in2="hardAlpha" operator="out"/>
<feColorMatrix type="matrix" values="0 0 0 0 0 0 0 0 0 0 0 0 0 0 0 0 0 0 0.25 0"/>
<feBlend mode="normal" in2="BackgroundImageFix" result="effect1_dropShadow_823_35085"/>
<feBlend mode="normal" in="SourceGraphic" in2="effect1_dropShadow_823_35085" result="shape"/>
</filter>
<filter id="filter4_d_823_35085" x="142" y="106" width="164.19" height="77.2246" filterUnits="userSpaceOnUse" color-interpolation-filters="sRGB">
<feFlood flood-opacity="0" result="BackgroundImageFix"/>
<feColorMatrix in="SourceAlpha" type="matrix" values="0 0 0 0 0 0 0 0 0 0 0 0 0 0 0 0 0 0 127 0" result="hardAlpha"/>
<feOffset dy="4"/>
<feGaussianBlur stdDeviation="2"/>
<feComposite in2="hardAlpha" operator="out"/>
<feColorMatrix type="matrix" values="0 0 0 0 0 0 0 0 0 0 0 0 0 0 0 0 0 0 0.25 0"/>
<feBlend mode="normal" in2="BackgroundImageFix" result="effect1_dropShadow_823_35085"/>
<feBlend mode="normal" in="SourceGraphic" in2="effect1_dropShadow_823_35085" result="shape"/>
</filter>
<filter id="filter5_d_823_35085" x="161.047" y="125.631" width="126.095" height="18.332" filterUnits="userSpaceOnUse" color-interpolation-filters="sRGB">
<feFlood flood-opacity="0" result="BackgroundImageFix"/>
<feColorMatrix in="SourceAlpha" type="matrix" values="0 0 0 0 0 0 0 0 0 0 0 0 0 0 0 0 0 0 127 0" result="hardAlpha"/>
<feOffset dy="4"/>
<feGaussianBlur stdDeviation="2"/>
<feComposite in2="hardAlpha" operator="out"/>
<feColorMatrix type="matrix" values="0 0 0 0 0 0 0 0 0 0 0 0 0 0 0 0 0 0 0.25 0"/>
<feBlend mode="normal" in2="BackgroundImageFix" result="effect1_dropShadow_823_35085"/>
<feBlend mode="normal" in="SourceGraphic" in2="effect1_dropShadow_823_35085" result="shape"/>
</filter>
<filter id="filter6_d_823_35085" x="161.047" y="144.229" width="126.095" height="18.332" filterUnits="userSpaceOnUse" color-interpolation-filters="sRGB">
<feFlood flood-opacity="0" result="BackgroundImageFix"/>
<feColorMatrix in="SourceAlpha" type="matrix" values="0 0 0 0 0 0 0 0 0 0 0 0 0 0 0 0 0 0 127 0" result="hardAlpha"/>
<feOffset dy="4"/>
<feGaussianBlur stdDeviation="2"/>
<feComposite in2="hardAlpha" operator="out"/>
<feColorMatrix type="matrix" values="0 0 0 0 0 0 0 0 0 0 0 0 0 0 0 0 0 0 0.25 0"/>
<feBlend mode="normal" in2="BackgroundImageFix" result="effect1_dropShadow_823_35085"/>
<feBlend mode="normal" in="SourceGraphic" in2="effect1_dropShadow_823_35085" result="shape"/>
</filter>
<filter id="filter7_d_823_35085" x="150.572" y="336.406" width="126.095" height="18.332" filterUnits="userSpaceOnUse" color-interpolation-filters="sRGB">
<feFlood flood-opacity="0" result="BackgroundImageFix"/>
<feColorMatrix in="SourceAlpha" type="matrix" values="0 0 0 0 0 0 0 0 0 0 0 0 0 0 0 0 0 0 127 0" result="hardAlpha"/>
<feOffset dy="4"/>
<feGaussianBlur stdDeviation="2"/>
<feComposite in2="hardAlpha" operator="out"/>
<feColorMatrix type="matrix" values="0 0 0 0 0 0 0 0 0 0 0 0 0 0 0 0 0 0 0.25 0"/>
<feBlend mode="normal" in2="BackgroundImageFix" result="effect1_dropShadow_823_35085"/>
<feBlend mode="normal" in="SourceGraphic" in2="effect1_dropShadow_823_35085" result="shape"/>
</filter>
<filter id="filter8_d_823_35085" x="150.572" y="355.004" width="126.095" height="18.332" filterUnits="userSpaceOnUse" color-interpolation-filters="sRGB">
<feFlood flood-opacity="0" result="BackgroundImageFix"/>
<feColorMatrix in="SourceAlpha" type="matrix" values="0 0 0 0 0 0 0 0 0 0 0 0 0 0 0 0 0 0 127 0" result="hardAlpha"/>
<feOffset dy="4"/>
<feGaussianBlur stdDeviation="2"/>
<feComposite in2="hardAlpha" operator="out"/>
<feColorMatrix type="matrix" values="0 0 0 0 0 0 0 0 0 0 0 0 0 0 0 0 0 0 0.25 0"/>
<feBlend mode="normal" in2="BackgroundImageFix" result="effect1_dropShadow_823_35085"/>
<feBlend mode="normal" in="SourceGraphic" in2="effect1_dropShadow_823_35085" result="shape"/>
</filter>
<filter id="filter9_d_823_35085" x="213.428" y="212.42" width="119.429" height="18.332" filterUnits="userSpaceOnUse" color-interpolation-filters="sRGB">
<feFlood flood-opacity="0" result="BackgroundImageFix"/>
<feColorMatrix in="SourceAlpha" type="matrix" values="0 0 0 0 0 0 0 0 0 0 0 0 0 0 0 0 0 0 127 0" result="hardAlpha"/>
<feOffset dy="4"/>
<feGaussianBlur stdDeviation="2"/>
<feComposite in2="hardAlpha" operator="out"/>
<feColorMatrix type="matrix" values="0 0 0 0 0 0 0 0 0 0 0 0 0 0 0 0 0 0 0.25 0"/>
<feBlend mode="normal" in2="BackgroundImageFix" result="effect1_dropShadow_823_35085"/>
<feBlend mode="normal" in="SourceGraphic" in2="effect1_dropShadow_823_35085" result="shape"/>
</filter>
<filter id="filter10_d_823_35085" x="213.428" y="249.617" width="119.429" height="18.332" filterUnits="userSpaceOnUse" color-interpolation-filters="sRGB">
<feFlood flood-opacity="0" result="BackgroundImageFix"/>
<feColorMatrix in="SourceAlpha" type="matrix" values="0 0 0 0 0 0 0 0 0 0 0 0 0 0 0 0 0 0 127 0" result="hardAlpha"/>
<feOffset dy="4"/>
<feGaussianBlur stdDeviation="2"/>
<feComposite in2="hardAlpha" operator="out"/>
<feColorMatrix type="matrix" values="0 0 0 0 0 0 0 0 0 0 0 0 0 0 0 0 0 0 0.25 0"/>
<feBlend mode="normal" in2="BackgroundImageFix" result="effect1_dropShadow_823_35085"/>
<feBlend mode="normal" in="SourceGraphic" in2="effect1_dropShadow_823_35085" result="shape"/>
</filter>
<clipPath id="clip0_823_35085">
<rect width="493" height="493" fill="white"/>
</clipPath>
</defs>
</svg>
