<svg width="593" height="774" viewBox="0 0 593 774" fill="none" xmlns="http://www.w3.org/2000/svg">
<mask id="mask0" mask-type="alpha" maskUnits="userSpaceOnUse" x="0" y="0" width="593" height="774">
<rect width="593" height="774" fill="#C4C4C4"/>
</mask>
<g mask="url(#mask0)">
<path d="M137.986 245.398C142.505 210.755 121.086 211.612 108.218 216.895C107.448 217.211 106.61 216.555 106.788 215.742C113.437 185.289 124.405 123.163 118.215 103.047C112.182 83.4411 87.6927 93.4363 74.5742 101.835C73.8504 102.299 72.9035 101.704 73.0073 100.85C78.8954 52.4524 85.8469 14.0187 37.1539 10.1232C-1.77039 7.0093 -5.57153 63.6682 -2.53769 93.7274C-2.4677 94.4207 -3.14073 94.9506 -3.81965 94.7934C-40.254 86.3584 -36.5739 113.784 -30.0676 128.749C-20.1821 161.042 -3.57444 223.254 -16.2279 213.764C-28.7203 204.395 -37.1016 209.671 -39.8497 213.612C-39.9204 213.714 -39.9684 213.832 -39.9951 213.953C-63.576 320.537 23.3327 328.436 54.9477 328.436C86.5813 328.436 132.055 290.871 137.986 245.398Z" fill="#8EBEFB"/>
<path d="M37.1564 53.6202C40.0103 130.676 39.7921 309.983 37.156 397.635L54.9499 401.589C49.0186 227.604 35.1794 0.237862 37.1564 53.6202Z" fill="#0F287A"/>
<path d="M50.9941 308.666C70.1061 295.485 110.307 263.193 118.216 239.467" stroke="#0F287A" stroke-linecap="round"/>
<path d="M41.1074 290.873C25.3681 280.328 -7.73864 254.494 -14.2514 235.514" stroke="#0F287A" stroke-linecap="round"/>
<path d="M45.0625 184.109C63.0503 172.058 100.887 142.533 108.33 120.842" stroke="#0F287A" stroke-linecap="round"/>
<path d="M45.0625 211.788C33.8202 204.256 -9.59856 132.422 -14.2506 118.864" stroke="#0F287A" stroke-linecap="round"/>
<path d="M96.5153 227.605C95.8562 240.786 101.656 265.17 130.126 257.262" stroke="#0F287A" stroke-width="0.5" stroke-linecap="round"/>
<path d="M68.8356 255.284C68.1765 268.465 73.976 292.849 102.446 284.941" stroke="#0F287A" stroke-width="0.5" stroke-linecap="round"/>
<path d="M72.7907 124.795C72.1316 137.976 77.9311 162.36 106.401 154.452" stroke="#0F287A" stroke-width="0.5" stroke-linecap="round"/>
<path d="M21.298 152.475C21.84 162.498 17.0708 181.04 -6.34154 175.026" stroke="#0F287A" stroke-width="0.5" stroke-linecap="round"/>
<path d="M13.3898 239.467C13.9318 249.49 9.1626 268.032 -14.2497 262.018" stroke="#0F287A" stroke-width="0.5" stroke-linecap="round"/>
<mask id="mask1" mask-type="alpha" maskUnits="userSpaceOnUse" x="-6" y="124" width="569" height="650">
<rect x="-6" y="124" width="569" height="650" fill="#C4C4C4"/>
</mask>
<g mask="url(#mask1)">
<path d="M419.26 654.682C415.737 661.729 445.393 668.189 460.662 670.538L461.543 652.92C465.947 630.898 465.947 625.613 460.662 626.494C455.376 627.375 450.972 637.946 449.21 631.779C447.448 625.613 460.662 609.757 456.257 598.306C451.853 586.854 443.044 605.353 439.521 602.71C435.997 600.068 442.163 570.118 436.878 568.356C431.593 566.594 430.712 591.259 428.95 582.45C427.188 573.641 413.094 555.143 401.643 562.19C390.191 569.237 421.903 586.854 419.26 590.378C416.618 593.901 399 583.331 399 593.901C399 604.472 428.069 607.996 434.235 612.4C440.401 616.804 414.856 621.209 408.69 623.851C402.524 626.494 404.285 636.184 421.903 637.065C439.52 637.946 443.044 642.35 444.806 646.754C446.568 651.159 423.665 645.873 419.26 654.682Z" fill="#5A87DF"/>
<path d="M421.904 582.45C426.309 586.267 435.998 598.834 439.522 618.566C443.045 638.298 453.91 657.325 458.901 664.372" stroke="#436BAC"/>
<path d="M500.729 653.557C504.253 660.604 474.596 667.064 459.328 669.413L458.447 651.795C454.042 629.773 454.042 624.488 459.328 625.369C464.613 626.25 469.017 636.821 470.779 630.654C472.541 624.488 459.328 608.632 463.732 597.181C468.136 585.729 476.945 604.228 480.469 601.585C483.992 598.943 477.826 568.993 483.111 567.231C488.397 565.469 489.278 590.134 491.039 581.325C492.801 572.516 506.895 554.018 518.347 561.065C529.798 568.112 498.086 585.729 500.729 589.253C503.372 592.776 520.989 582.206 520.989 592.776C520.989 603.347 491.92 606.871 485.754 611.275C479.588 615.679 505.133 620.084 511.3 622.726C517.466 625.369 515.704 635.059 498.086 635.94C480.469 636.821 476.945 641.225 475.183 645.629C473.422 650.034 496.325 644.748 500.729 653.557Z" fill="#415BB2"/>
<path d="M498.086 581.325C493.682 585.142 483.992 597.71 480.468 617.441C476.945 637.173 466.081 656.2 461.089 663.247" stroke="#1F4FAB"/>
<path d="M440.43 635.238C433.02 635.238 441.406 649.231 446.288 654.764L460.931 670.385C468.091 667.456 483.191 660.817 486.315 657.693C490.221 653.788 485.339 652.811 480.458 651.835C476.552 651.054 478.83 647.604 480.458 645.977C496.86 641.291 502.262 632.309 502.913 628.403C502.913 627.427 502.913 625.474 499.008 622.546C495.102 619.617 479.481 642.072 480.458 627.427C481.434 612.782 503.889 596.185 502.913 589.351C501.936 582.517 497.055 591.303 488.268 596.185C481.239 600.09 481.434 593.256 482.41 589.351C486.966 584.144 495.493 572.363 493.15 566.896C490.221 560.061 488.268 566.896 480.458 573.73C472.647 580.564 477.529 565.919 479.481 562.99C481.434 560.061 499.008 521.985 467.766 528.819C436.523 535.654 455.073 576.659 456.05 582.517C457.026 588.375 449.216 574.706 437.5 578.611C425.785 582.517 458.979 603.996 458.979 609.853C458.979 615.711 446.288 606.925 440.43 605.948C434.572 604.972 446.288 619.617 449.216 628.403C451.559 635.433 450.192 637.19 449.216 637.19C446.287 639.143 446.287 635.238 440.43 635.238Z" fill="#274C97"/>
<path d="M469.717 549.322C467.764 549.647 464.444 560.647 466.788 602.043C469.131 643.438 465.812 658.343 463.859 660.622" stroke="#1E3E75" stroke-width="2" stroke-linejoin="round"/>
<path d="M437.248 678.739H478.87L474.37 723.736H441.185L437.248 678.739Z" fill="#F5AA45"/>
<mask id="mask2" mask-type="alpha" maskUnits="userSpaceOnUse" x="437" y="678" width="42" height="46">
<path d="M437.248 678.739H478.87L474.37 723.736H441.185L437.248 678.739Z" fill="#F5AA45"/>
</mask>
<g mask="url(#mask2)">
<rect x="431.625" y="670.865" width="52.8712" height="15.7489" rx="7.87443" fill="#C77E1C"/>
</g>
<rect x="431.623" y="666.365" width="52.8712" height="15.7489" rx="7.87443" fill="#F5AA45"/>
<path d="M438.371 692.238H477.743L476.056 710.236H439.496L438.371 692.238Z" fill="#FFD193"/>
<rect width="35.7893" height="124.063" rx="17.8946" transform="matrix(-1.96052e-08 -1 -1 2.26725e-08 120.824 767.646)" fill="#10256B"/>
<rect width="52.7416" height="182.827" rx="20" transform="matrix(-1.96052e-08 -1 -1 2.26725e-08 148.908 751.753)" fill="#011042"/>
<rect x="-0.5" y="-0.5" width="51.7416" height="181.827" rx="19.5" transform="matrix(-1.96052e-08 -1 -1 2.26725e-08 147.908 750.753)" stroke="white" stroke-opacity="0.04"/>
<path fill-rule="evenodd" clip-rule="evenodd" d="M-112.226 436.982C-140.268 324.439 -78.1614 208.758 26.4926 178.602C131.147 148.446 238.718 215.235 266.76 327.778C289.547 419.233 252.805 512.759 182.077 560.78C160.198 586.27 142.514 614.41 142.547 644.379L-26.044 622.756C-27.3535 617.501 -28.5283 612.239 -29.7091 606.951C-34.5769 585.15 -39.5464 562.894 -54.4666 538.74C-81.5263 512.426 -102.081 477.698 -112.226 436.982Z" fill="#FD8221"/>
<mask id="mask3" mask-type="alpha" maskUnits="userSpaceOnUse" x="-119" y="171" width="393" height="474">
<path fill-rule="evenodd" clip-rule="evenodd" d="M-112.226 436.982C-140.268 324.439 -78.1614 208.758 26.4926 178.602C131.147 148.446 238.718 215.235 266.76 327.778C289.547 419.233 252.805 512.759 182.077 560.78C160.198 586.27 142.514 614.41 142.547 644.379L-26.044 622.756C-27.3535 617.501 -28.5283 612.239 -29.7091 606.951C-34.5769 585.15 -39.5464 562.894 -54.4667 538.74C-81.5263 512.426 -102.081 477.698 -112.226 436.982Z" fill="#FD8221"/>
</mask>
<g mask="url(#mask3)">
<path fill-rule="evenodd" clip-rule="evenodd" d="M-96.8782 440.359C-124.92 327.816 -62.8138 212.135 41.8402 181.979C146.494 151.824 254.066 218.612 282.108 331.155C304.895 422.609 268.154 516.134 197.427 564.156C175.547 589.646 157.862 617.786 157.896 647.756L-10.6955 626.133C-12.005 620.878 -13.1798 615.616 -14.3607 610.328C-19.2283 588.528 -24.1977 566.273 -39.1169 542.12C-66.1777 515.805 -86.7329 481.076 -96.8782 440.359Z" fill="#FDAC1A"/>
</g>
<path d="M101.136 451.913L88.4598 619.372L59.5756 619.894L60.287 448.083C51.3604 402.553 23.6829 324.465 24.0196 302.527C24.3562 280.59 35.4392 290.136 40.9386 297.652L77.8848 409.762C78.2673 410.922 79.988 410.446 79.8047 409.23L62.6305 295.302C65.7714 278.796 76.468 292.615 74.5953 299.655L85.0741 420.947L91.0318 294.918C104.904 269.08 107.649 288.83 107.287 301.935L92.4339 407.24C92.2634 408.449 93.4719 408.694 93.787 407.511C100.333 382.938 114.916 323.274 122.636 305.312C135.977 288.988 138.427 300.762 137.984 308.69L89.8995 417.684C89.4863 418.62 90.0749 419.044 90.6803 418.218C100.382 404.989 136.986 348.561 152.006 335.851C168.779 321.657 167.576 335.265 164.877 343.843L101.136 451.913Z" stroke="#FFDC87" stroke-width="0.3"/>
<rect width="52.7416" height="182.827" rx="20" transform="matrix(-1.96052e-08 -1 -1 2.26725e-08 151.559 704.187)" fill="#011042"/>
<rect x="-0.5" y="-0.5" width="51.7416" height="181.827" rx="19.5" transform="matrix(-1.96052e-08 -1 -1 2.26725e-08 150.559 703.187)" stroke="white" stroke-opacity="0.04"/>
<rect width="52.7416" height="182.827" rx="20" transform="matrix(-1.96052e-08 -1 -1 2.26725e-08 154.215 656.62)" fill="#011042"/>
<rect x="-0.5" y="-0.5" width="51.7416" height="181.827" rx="19.5" transform="matrix(-1.96052e-08 -1 -1 2.26725e-08 153.215 655.62)" stroke="white" stroke-opacity="0.04"/>
<ellipse rx="21.0225" ry="41.4339" transform="matrix(-0.998787 -0.0492346 -0.0425869 0.999093 227.678 417.053)" fill="white" fill-opacity="0.31"/>
<path d="M77.01 751.588C65.5314 730.842 66.3739 720.342 68.23 717.685L74.7312 701.741L47.8523 696.234C47.5399 700.554 46.6356 711.087 45.5172 718.662C44.1193 728.131 35.7692 737.594 19.0702 754.027C2.37115 770.461 22.7602 776.959 42.2434 756.541C61.7266 736.122 67.74 751.579 73.3005 753.578C77.7489 755.177 77.627 752.917 77.01 751.588Z" fill="#EE9F86"/>
<path d="M301.236 567.87L170.366 687.966L208.635 736.911L295.855 664.369L369.664 758.695L404.749 736.911L308.54 568.943C307.01 566.272 303.534 565.761 301.236 567.87Z" fill="#332D7B"/>
<path d="M528.488 744.626L480.02 744.626L482.81 711.619L528.488 710.119L528.488 744.626Z" fill="#EE9F86"/>
<path d="M523.309 708.865C526.631 717.237 527.461 736.771 527.461 745.492L527.461 746.8L562.065 749.416L562.065 646.077C562.065 626.194 552.838 636.048 548.224 643.461C548.224 662.297 531.614 694.912 523.309 708.865Z" fill="#1D104A"/>
<path d="M161.987 773.893C99.484 775.094 94.4468 702.436 99.5623 676.431L223.375 678.047C261.156 685.434 336.131 686.705 359.501 686.856C362.658 686.877 365.756 687.289 368.804 688.108L380.954 691.375L505.123 700.377L503.822 750.969C474.058 748.968 452.817 757.47 409.288 762.271C365.759 767.072 341.474 766.892 326.617 760.39C297.783 764.391 224.49 772.693 161.987 773.893Z" fill="#5F5CB0"/>
<path d="M349.781 690.984C362.522 673.759 336.836 650.46 322.254 642.192L306.919 657.599C318.327 661.617 320.415 687.867 326.612 685.06C331.388 682.896 328.276 679.874 326.412 673.057C332.169 673.017 343.801 684.495 348.257 690.927C348.633 691.469 349.39 691.513 349.781 690.984Z" fill="#EE9F86"/>
<path d="M198.947 451.148C201.964 445.766 200.204 390.597 198.947 363.686L180.088 363.686L158.715 451.148L198.947 451.148Z" fill="#393939"/>
<path d="M203.677 375.12C204.203 372.105 203.903 368.722 203.33 365.41C201.856 356.887 197.964 348.783 192.76 342.162L191.596 340.68C145.958 322.428 132.492 365.462 131.464 389.261L145.479 456.98L180.126 454.548L176.112 434.32C179.755 429.156 185.608 430.221 197.559 431.157C209.509 432.093 205.95 421.051 206.06 419.107C206.126 417.958 207.553 416.115 208.809 414.741C209.41 414.084 209.371 412.993 208.688 412.436C208.091 411.949 207.974 411.033 208.427 410.391L209.405 409.004C209.951 408.231 209.924 407.154 209.34 406.413L207.81 404.471C207.534 404.121 207.505 403.618 207.739 403.234L212.087 396.097C212.601 395.252 212.473 394.136 211.808 393.422C208.001 389.334 202.481 381.974 203.677 375.12Z" fill="#EE9F86"/>
<path d="M189.575 349.211C190.1 362.59 183.824 382.673 154.802 382.673C151.122 382.138 144.077 383.958 145.339 395.517C146.916 409.967 148.492 419.599 143.76 435.654C141.237 444.645 138.503 447.963 137.451 448.498L102.752 448.498C98.5464 397.123 110.638 299.188 192.655 318.454C202.118 322.735 215.652 332.641 208.426 347.353C205.285 353.746 191.726 356.426 189.531 349.059L189.575 349.211Z" fill="#393939"/>
<path d="M247.026 535.079C223.972 486.623 189.105 455.054 178.627 444.724C168.584 473.366 165.291 542.122 199.871 592.831C234.451 643.541 288.504 660.913 311.208 663.261L326.927 642.132C309.899 626.638 270.079 583.535 247.026 535.079Z" fill="#182E79"/>
<path d="M201.185 678.756C212.712 629.173 188.235 502.477 178.63 444.724L177.993 445.029C174.711 446.597 170.894 446.592 167.616 445.015L164.509 443.521L119.974 444.929L85.918 678.756H201.185Z" fill="white"/>
<path d="M190.704 675.938C209.566 606.072 179.352 482.491 161.887 429.434L85.9157 426.617C70.1975 436.759 88.972 468.405 100.324 482.96C54.2173 532.543 39.1976 660.443 37.4512 718.196C45.7469 718.665 66.8466 721.289 69.9903 720.162C73.1339 719.035 80.6763 691.432 85.9157 678.755L190.704 675.938Z" fill="#2F4CAC"/>
<mask id="mask4" mask-type="alpha" maskUnits="userSpaceOnUse" x="37" y="426" width="160" height="294">
<path d="M190.704 675.938C209.566 606.072 179.352 482.491 161.887 429.434L85.9157 426.617C70.1975 436.759 88.972 468.405 100.324 482.96C54.2173 532.543 39.1976 660.443 37.4512 718.196C45.7469 718.665 65.6143 719.964 68.758 718.837C71.9016 717.71 80.6763 691.432 85.9157 678.755L190.704 675.938Z" fill="#1DB6E7"/>
</mask>
<g mask="url(#mask4)">
<path d="M112.115 595.65L85.918 681.574L130.453 697.069L112.115 595.65Z" fill="#182E79"/>
</g>
</g>
</g>
</svg>
