<svg width="472" height="257" viewBox="0 0 472 257" fill="none" xmlns="http://www.w3.org/2000/svg">
<path opacity="0.1" d="M458.798 2H11.9445C6.38111 2 1.87109 7.74816 1.87109 14.8389V238.161C1.87109 245.252 6.38111 251 11.9445 251H458.798C464.361 251 468.871 245.252 468.871 238.161V14.8389C468.871 7.74816 464.361 2 458.798 2Z" stroke="#080809" stroke-width="3"/>
<g opacity="0.3">
<path opacity="0.3" d="M282.922 115.689V82.5572C282.922 78.1513 279.338 74.5676 274.933 74.5676H263.87C262.883 74.5676 262.082 75.3678 262.082 76.3553C262.082 77.3438 262.883 78.1439 263.87 78.1439H274.933C277.366 78.1439 279.346 80.1235 279.346 82.5572V115.689C279.346 118.123 277.366 120.102 274.933 120.102H221.066V78.1439H256.717C257.704 78.1439 258.506 77.3438 258.506 76.3553C258.506 75.3678 257.704 74.5676 256.717 74.5676H214.645C210.238 74.5676 206.654 78.1513 206.654 82.5572V115.689C206.654 120.095 210.238 123.68 214.645 123.68H274.933C279.338 123.68 282.922 120.095 282.922 115.689ZM217.49 120.102H214.645C212.211 120.102 210.231 118.123 210.231 115.689V82.5572C210.231 80.1235 212.211 78.1439 214.645 78.1439H217.49V120.102Z" fill="#09090A"/>
<path opacity="0.3" d="M272.221 82.9338H225.725C224.738 82.9338 223.938 83.7338 223.938 84.7225C223.938 85.7096 224.738 86.5096 225.725 86.5096H272.221C273.208 86.5096 274.008 85.7096 274.008 84.7225C274.008 83.7338 273.208 82.9338 272.221 82.9338Z" fill="#09090A"/>
<path opacity="0.3" d="M272.221 92.5342H225.725C224.738 92.5342 223.938 93.3342 223.938 94.3229C223.938 95.3108 224.738 96.1108 225.725 96.1108H272.221C273.208 96.1108 274.008 95.3108 274.008 94.3229C274.008 93.3342 273.208 92.5342 272.221 92.5342Z" fill="#09090A"/>
<path opacity="0.3" d="M272.221 102.134H225.725C224.738 102.134 223.938 102.936 223.938 103.923C223.938 104.911 224.738 105.712 225.725 105.712H272.221C273.208 105.712 274.008 104.911 274.008 103.923C274.008 102.936 273.208 102.134 272.221 102.134Z" fill="#09090A"/>
<path opacity="0.3" d="M272.221 111.736H225.725C224.738 111.736 223.938 112.536 223.938 113.525C223.938 114.512 224.738 115.312 225.725 115.312H272.221C273.208 115.312 274.008 114.512 274.008 113.525C274.008 112.536 273.208 111.736 272.221 111.736Z" fill="#09090A"/>
<path opacity="0.3" d="M185.72 100.973H202.618C203.605 100.973 204.406 100.173 204.406 99.1841C204.406 98.1962 203.605 97.3962 202.618 97.3962H185.72C183.301 97.3962 181.334 95.4285 181.334 93.0107V61.0014C181.334 58.5833 183.301 56.6157 185.72 56.6157C186.708 56.6157 187.509 55.8155 187.509 54.8271C187.509 53.8395 186.708 53.0394 185.72 53.0394C181.33 53.0394 177.758 56.6111 177.758 61.0014V93.0107C177.758 97.4011 181.33 100.973 185.72 100.973Z" fill="#09090A"/>
<path opacity="0.3" d="M197.303 69.2689H254.24C258.276 69.2689 261.557 65.9871 261.557 61.9521V51.9726C261.557 50.9851 260.757 50.184 259.769 50.184C258.781 50.184 257.981 50.9851 257.981 51.9726V61.9521C257.981 64.0147 256.303 65.6926 254.24 65.6926H197.303C195.241 65.6926 193.564 64.0147 193.564 61.9521V47.0544C193.564 44.9917 195.241 43.3138 197.303 43.3138H254.24C255.74 43.3138 257.091 44.2054 257.681 45.5842C258.069 46.4923 259.122 46.9132 260.029 46.5246C260.937 46.1352 261.358 45.0849 260.969 44.1767C259.815 41.48 257.174 39.7375 254.24 39.7375H197.303C193.269 39.7375 189.986 43.0194 189.986 47.0544V61.9521C189.986 65.9871 193.269 69.2689 197.303 69.2689Z" fill="#09090A"/>
<path opacity="0.3" d="M249.9 57.1833H201.643C200.656 57.1833 199.855 57.9835 199.855 58.971C199.855 59.9595 200.656 60.7596 201.643 60.7596H249.9C250.888 60.7596 251.689 59.9595 251.689 58.971C251.689 57.9835 250.888 57.1833 249.9 57.1833Z" fill="#09090A"/>
<path opacity="0.3" d="M249.9 48.2469H201.643C200.656 48.2469 199.855 49.0471 199.855 50.0355C199.855 51.0231 200.656 51.8232 201.643 51.8232H249.9C250.888 51.8232 251.689 51.0231 251.689 50.0355C251.689 49.0471 250.888 48.2469 249.9 48.2469Z" fill="#09090A"/>
<path opacity="0.3" d="M246.649 147.339H187.913C186.925 147.339 186.125 148.14 186.125 149.128C186.125 150.115 186.925 150.916 187.913 150.916H246.648C247.636 150.916 248.437 150.115 248.437 149.128C248.437 148.14 247.637 147.339 246.649 147.339Z" fill="#09090A"/>
<path opacity="0.3" d="M246.649 138.404H187.913C186.925 138.404 186.125 139.204 186.125 140.191C186.125 141.179 186.925 141.979 187.913 141.979H246.648C247.636 141.979 248.437 141.179 248.437 140.191C248.437 139.204 247.637 138.404 246.649 138.404Z" fill="#09090A"/>
<path opacity="0.3" d="M287.717 94.3707C286.73 94.3707 285.929 95.1707 285.929 96.1586C285.929 97.1465 286.73 97.9465 287.717 97.9465C289.956 97.9465 291.777 99.7683 291.777 102.008V138.81C291.777 141.05 289.956 142.871 287.717 142.871H279.43C278.443 142.871 277.643 143.672 277.643 144.659C277.643 145.647 278.443 146.447 279.43 146.447H287.717C291.928 146.447 295.353 143.022 295.353 138.81V102.008C295.353 97.7965 291.928 94.3707 287.717 94.3707Z" fill="#09090A"/>
<path opacity="0.3" d="M265.659 128.614H230.699C229.711 128.614 228.91 129.414 228.91 130.403C228.91 131.39 229.711 132.191 230.699 132.191H265.659C268.637 132.191 271.06 134.614 271.06 137.592V151.728C271.06 154.706 268.637 157.129 265.659 157.129H185.475C182.497 157.129 180.074 154.706 180.074 151.728V137.592C180.074 134.614 182.497 132.191 185.475 132.191H223.545C224.533 132.191 225.334 131.39 225.334 130.403C225.334 129.414 224.533 128.614 223.545 128.614H185.475C180.525 128.614 176.498 132.642 176.498 137.592V151.728C176.498 156.678 180.525 160.705 185.475 160.705H265.659C270.609 160.705 274.637 156.678 274.637 151.728V137.592C274.637 132.642 270.609 128.614 265.659 128.614Z" fill="#09090A"/>
<path opacity="0.3" d="M257.516 150.288L265.558 138.346C266.111 137.526 265.894 136.415 265.074 135.863C264.254 135.313 263.143 135.53 262.592 136.348L256.033 146.088L253.86 142.862C253.308 142.042 252.196 141.826 251.378 142.378C250.558 142.93 250.341 144.042 250.893 144.86L254.549 150.288C255.257 151.34 256.807 151.34 257.516 150.288Z" fill="#09090A"/>
</g>
<path opacity="0.6" d="M97.9057 194.638C97.7773 195.712 97.3687 196.543 96.68 197.129C95.9974 197.71 95.0872 198 93.9496 198C92.7165 198 91.728 197.57 90.9818 196.71C90.2417 195.85 89.8711 194.699 89.8711 193.257V192.281C89.8711 191.337 90.0436 190.506 90.3873 189.79C90.736 189.074 91.2277 188.525 91.8638 188.144C92.4987 187.758 93.2352 187.565 94.0719 187.565C95.1802 187.565 96.0683 187.868 96.7375 188.471C97.4066 189.071 97.7968 189.904 97.9057 190.969H96.5234C96.4035 190.16 96.1429 189.574 95.7417 189.211C95.3453 188.849 94.7887 188.667 94.0719 188.667C93.1923 188.667 92.5012 188.983 91.9996 189.615C91.503 190.249 91.2546 191.148 91.2546 192.315V193.299C91.2546 194.401 91.4907 195.277 91.9642 195.929C92.4376 196.58 93.0994 196.905 93.9496 196.905C94.7141 196.905 95.3001 196.738 95.7062 196.402C96.116 196.063 96.3888 195.475 96.5234 194.638H97.9057ZM101.024 197.861H99.6978V187.146H101.024V197.861ZM104.593 197.861H103.267V190.313H104.593V197.861ZM103.16 188.312C103.16 188.102 103.225 187.925 103.354 187.781C103.488 187.637 103.683 187.565 103.941 187.565C104.2 187.565 104.395 187.637 104.529 187.781C104.663 187.925 104.73 188.102 104.73 188.312C104.73 188.52 104.663 188.695 104.529 188.835C104.395 188.974 104.2 189.044 103.941 189.044C103.683 189.044 103.488 188.974 103.354 188.835C103.225 188.695 103.16 188.52 103.16 188.312ZM109.833 196.946C110.306 196.946 110.72 196.807 111.073 196.529C111.427 196.25 111.623 195.901 111.662 195.482H112.916C112.891 195.914 112.738 196.326 112.457 196.717C112.174 197.107 111.797 197.419 111.324 197.651C110.856 197.885 110.359 198 109.833 198C108.777 198 107.937 197.658 107.31 196.975C106.689 196.287 106.378 195.348 106.378 194.157V193.94C106.378 193.206 106.517 192.552 106.794 191.981C107.072 191.408 107.468 190.964 107.984 190.648C108.504 190.332 109.118 190.174 109.827 190.174C110.695 190.174 111.417 190.427 111.991 190.935C112.569 191.44 112.878 192.099 112.916 192.908H111.662C111.623 192.42 111.432 192.02 111.088 191.708C110.748 191.392 110.328 191.235 109.827 191.235C109.153 191.235 108.629 191.471 108.256 191.945C107.889 192.415 107.704 193.096 107.704 193.989V194.233C107.704 195.104 107.889 195.773 108.256 196.243C108.624 196.712 109.15 196.946 109.833 196.946ZM116.571 194.365L115.74 195.21V197.861H114.414V187.146H115.74V193.626L116.45 192.796L118.864 190.313H120.478L117.46 193.467L120.829 197.861H119.273L116.571 194.365ZM133.373 194.638C133.243 195.712 132.835 196.543 132.147 197.129C131.463 197.71 130.553 198 129.415 198C128.182 198 127.194 197.57 126.448 196.71C125.708 195.85 125.337 194.699 125.337 193.257V192.281C125.337 191.337 125.509 190.506 125.853 189.79C126.202 189.074 126.695 188.525 127.33 188.144C127.966 187.758 128.701 187.565 129.538 187.565C130.646 187.565 131.535 187.868 132.203 188.471C132.872 189.071 133.263 189.904 133.373 190.969H131.989C131.869 190.16 131.609 189.574 131.208 189.211C130.811 188.849 130.255 188.667 129.538 188.667C128.658 188.667 127.968 188.983 127.465 189.615C126.969 190.249 126.721 191.148 126.721 192.315V193.299C126.721 194.401 126.957 195.277 127.43 195.929C127.903 196.58 128.565 196.905 129.415 196.905C130.18 196.905 130.766 196.738 131.172 196.402C131.583 196.063 131.855 195.475 131.989 194.638H133.373ZM138.798 191.471C138.598 191.439 138.38 191.423 138.146 191.423C137.276 191.423 136.687 191.783 136.376 192.504V197.861H135.05V190.313H136.339L136.361 191.186C136.796 190.511 137.412 190.174 138.211 190.174C138.469 190.174 138.665 190.206 138.798 190.271V191.471ZM143.099 198C142.047 198 141.192 197.665 140.533 196.995C139.873 196.321 139.543 195.421 139.543 194.296V194.06C139.543 193.311 139.69 192.643 139.981 192.057C140.277 191.467 140.688 191.006 141.214 190.676C141.744 190.342 142.318 190.174 142.934 190.174C143.942 190.174 144.726 190.496 145.285 191.143C145.844 191.789 146.123 192.715 146.123 193.919V194.457H140.869C140.889 195.201 141.111 195.804 141.536 196.263C141.966 196.719 142.511 196.946 143.17 196.946C143.639 196.946 144.035 196.854 144.36 196.668C144.686 196.482 144.97 196.236 145.213 195.929L146.023 196.543C145.373 197.514 144.398 198 143.099 198ZM142.934 191.235C142.398 191.235 141.949 191.425 141.586 191.806C141.224 192.183 140.999 192.713 140.913 193.396H144.797V193.299C144.759 192.643 144.578 192.136 144.253 191.779C143.927 191.415 143.488 191.235 142.934 191.235ZM152.453 197.861C152.377 197.712 152.314 197.446 152.267 197.065C151.65 197.689 150.914 198 150.059 198C149.294 198 148.666 197.79 148.173 197.373C147.687 196.949 147.443 196.414 147.443 195.768C147.443 194.982 147.749 194.373 148.361 193.94C148.976 193.504 149.841 193.285 150.955 193.285H152.245V192.692C152.245 192.24 152.106 191.883 151.829 191.618C151.552 191.348 151.144 191.213 150.604 191.213C150.131 191.213 149.734 191.33 149.414 191.562C149.093 191.794 148.933 192.076 148.933 192.406H147.6C147.6 192.03 147.737 191.667 148.008 191.318C148.286 190.964 148.659 190.686 149.126 190.481C149.6 190.276 150.119 190.174 150.682 190.174C151.575 190.174 152.276 190.393 152.783 190.83C153.289 191.262 153.552 191.86 153.571 192.623V196.096C153.571 196.789 153.662 197.34 153.843 197.749V197.861H152.453ZM150.252 196.877C150.668 196.877 151.063 196.773 151.435 196.563C151.808 196.354 152.078 196.082 152.245 195.748V194.199H151.206C149.581 194.199 148.769 194.662 148.769 195.587C148.769 195.992 148.907 196.307 149.184 196.536C149.462 196.763 149.818 196.877 150.252 196.877ZM157.449 188.486V190.313H158.897V191.311H157.449V195.992C157.449 196.294 157.513 196.521 157.642 196.675C157.771 196.824 157.992 196.898 158.301 196.898C158.454 196.898 158.664 196.87 158.932 196.814V197.861C158.584 197.954 158.245 198 157.915 198C157.323 198 156.875 197.826 156.574 197.477C156.273 197.129 156.122 196.633 156.122 195.992V191.311H154.711V190.313H156.122V188.486H157.449ZM163.67 198C162.619 198 161.764 197.665 161.104 196.995C160.444 196.321 160.115 195.421 160.115 194.296V194.06C160.115 193.311 160.261 192.643 160.552 192.057C160.849 191.467 161.259 191.006 161.785 190.676C162.316 190.342 162.889 190.174 163.505 190.174C164.514 190.174 165.297 190.496 165.856 191.143C166.415 191.789 166.695 192.715 166.695 193.919V194.457H161.441C161.461 195.201 161.682 195.804 162.108 196.263C162.537 196.719 163.083 196.946 163.742 196.946C164.211 196.946 164.607 196.854 164.931 196.668C165.257 196.482 165.541 196.236 165.785 195.929L166.595 196.543C165.946 197.514 164.971 198 163.67 198ZM163.505 191.235C162.97 191.235 162.522 191.425 162.158 191.806C161.795 192.183 161.57 192.713 161.484 193.396H165.369V193.299C165.331 192.643 165.149 192.136 164.825 191.779C164.5 191.415 164.06 191.235 163.505 191.235ZM172.085 197.861V187.705H175.497C176.63 187.705 177.48 187.932 178.049 188.388C178.623 188.844 178.909 189.518 178.909 190.411C178.909 190.886 178.771 191.306 178.493 191.674C178.216 192.036 177.838 192.318 177.361 192.518C177.924 192.671 178.369 192.964 178.694 193.396C179.024 193.824 179.189 194.336 179.189 194.931C179.189 195.843 178.886 196.558 178.279 197.08C177.671 197.6 176.813 197.861 175.705 197.861H172.085ZM173.461 193.111V196.765H175.733C176.374 196.765 176.878 196.605 177.246 196.285C177.618 195.958 177.805 195.512 177.805 194.945C177.805 193.721 177.122 193.111 175.755 193.111H173.461ZM173.461 192.036H175.54C176.142 192.036 176.622 191.889 176.981 191.596C177.344 191.304 177.525 190.906 177.525 190.404C177.525 189.846 177.359 189.442 177.024 189.19C176.69 188.935 176.181 188.807 175.497 188.807H173.461V192.036ZM185.812 197.114C185.296 197.705 184.538 198 183.539 198C182.713 198 182.082 197.768 181.647 197.302C181.217 196.833 180.999 196.14 180.995 195.224V190.313H182.321V195.189C182.321 196.333 182.799 196.905 183.754 196.905C184.767 196.905 185.441 196.538 185.775 195.804V190.313H187.101V197.861H185.84L185.812 197.114ZM190.922 188.486V190.313H192.37V191.311H190.922V195.992C190.922 196.294 190.986 196.521 191.116 196.675C191.245 196.824 191.465 196.898 191.775 196.898C191.928 196.898 192.139 196.87 192.405 196.814V197.861C192.057 197.954 191.718 198 191.388 198C190.796 198 190.349 197.826 190.048 197.477C189.747 197.129 189.597 196.633 189.597 195.992V191.311H188.184V190.313H189.597V188.486H190.922ZM195.724 188.486V190.313H197.173V191.311H195.724V195.992C195.724 196.294 195.789 196.521 195.918 196.675C196.047 196.824 196.267 196.898 196.578 196.898C196.731 196.898 196.94 196.87 197.208 196.814V197.861C196.86 197.954 196.521 198 196.19 198C195.598 198 195.152 197.826 194.85 197.477C194.549 197.129 194.398 196.633 194.398 195.992V191.311H192.987V190.313H194.398V188.486H195.724ZM198.233 194.018C198.233 193.277 198.381 192.613 198.677 192.023C198.978 191.432 199.394 190.976 199.925 190.655C200.46 190.335 201.069 190.174 201.753 190.174C202.808 190.174 203.662 190.53 204.312 191.24C204.966 191.952 205.294 192.899 205.294 194.08V194.17C205.294 194.906 205.147 195.565 204.856 196.151C204.57 196.733 204.157 197.187 203.616 197.512C203.081 197.838 202.465 198 201.767 198C200.715 198 199.863 197.644 199.208 196.933C198.559 196.221 198.233 195.28 198.233 194.108V194.018ZM199.567 194.17C199.567 195.008 199.765 195.68 200.161 196.187C200.562 196.694 201.098 196.946 201.767 196.946C202.441 196.946 202.976 196.692 203.372 196.18C203.769 195.663 203.968 194.943 203.968 194.018C203.968 193.189 203.765 192.52 203.359 192.008C202.956 191.492 202.422 191.235 201.753 191.235C201.098 191.235 200.57 191.488 200.169 191.994C199.767 192.501 199.567 193.226 199.567 194.17ZM208.21 190.313L208.253 191.262C208.847 190.537 209.621 190.174 210.576 190.174C212.216 190.174 213.043 191.074 213.056 192.874V197.861H211.73V192.867C211.725 192.323 211.597 191.92 211.343 191.66C211.095 191.399 210.705 191.269 210.175 191.269C209.745 191.269 209.368 191.381 209.042 191.604C208.717 191.827 208.464 192.12 208.283 192.482V197.861H206.957V190.313H208.21ZM220.496 188.486V190.313H221.944V191.311H220.496V195.992C220.496 196.294 220.561 196.521 220.689 196.675C220.819 196.824 221.039 196.898 221.35 196.898C221.503 196.898 221.712 196.87 221.98 196.814V197.861C221.631 197.954 221.292 198 220.962 198C220.37 198 219.924 197.826 219.621 197.477C219.32 197.129 219.17 196.633 219.17 195.992V191.311H217.758V190.313H219.17V188.486H220.496ZM223.005 194.018C223.005 193.277 223.153 192.613 223.449 192.023C223.75 191.432 224.166 190.976 224.697 190.655C225.231 190.335 225.841 190.174 226.524 190.174C227.58 190.174 228.434 190.53 229.084 191.24C229.738 191.952 230.066 192.899 230.066 194.08V194.17C230.066 194.906 229.919 195.565 229.628 196.151C229.342 196.733 228.928 197.187 228.388 197.512C227.853 197.838 227.236 198 226.539 198C225.487 198 224.634 197.644 223.98 196.933C223.33 196.221 223.005 195.28 223.005 194.108V194.018ZM224.338 194.17C224.338 195.008 224.537 195.68 224.933 196.187C225.334 196.694 225.87 196.946 226.539 196.946C227.213 196.946 227.748 196.692 228.144 196.18C228.54 195.663 228.74 194.943 228.74 194.018C228.74 193.189 228.537 192.52 228.131 192.008C227.728 191.492 227.194 191.235 226.524 191.235C225.87 191.235 225.342 191.488 224.94 191.994C224.539 192.501 224.338 193.226 224.338 194.17ZM243.254 194.638C243.125 195.712 242.716 196.543 242.029 197.129C241.345 197.71 240.435 198 239.297 198C238.065 198 237.075 197.57 236.33 196.71C235.589 195.85 235.218 194.699 235.218 193.257V192.281C235.218 191.337 235.391 190.506 235.735 189.79C236.083 189.074 236.576 188.525 237.211 188.144C237.847 187.758 238.583 187.565 239.419 187.565C240.528 187.565 241.417 187.868 242.086 188.471C242.755 189.071 243.144 189.904 243.254 190.969H241.871C241.751 190.16 241.49 189.574 241.089 189.211C240.693 188.849 240.136 188.667 239.419 188.667C238.54 188.667 237.85 188.983 237.348 189.615C236.85 190.249 236.602 191.148 236.602 192.315V193.299C236.602 194.401 236.839 195.277 237.312 195.929C237.785 196.58 238.447 196.905 239.297 196.905C240.062 196.905 240.647 196.738 241.054 196.402C241.465 196.063 241.737 195.475 241.871 194.638H243.254ZM248.68 191.471C248.479 191.439 248.262 191.423 248.028 191.423C247.158 191.423 246.568 191.783 246.258 192.504V197.861H244.931V190.313H246.222L246.243 191.186C246.678 190.511 247.295 190.174 248.092 190.174C248.351 190.174 248.546 190.206 248.68 190.271V191.471ZM252.981 198C251.93 198 251.074 197.665 250.414 196.995C249.755 196.321 249.426 195.421 249.426 194.296V194.06C249.426 193.311 249.571 192.643 249.863 192.057C250.159 191.467 250.57 191.006 251.096 190.676C251.627 190.342 252.199 190.174 252.816 190.174C253.824 190.174 254.608 190.496 255.167 191.143C255.726 191.789 256.006 192.715 256.006 193.919V194.457H250.752C250.77 195.201 250.993 195.804 251.419 196.263C251.848 196.719 252.392 196.946 253.053 196.946C253.52 196.946 253.918 196.854 254.242 196.668C254.567 196.482 254.851 196.236 255.095 195.929L255.906 196.543C255.255 197.514 254.28 198 252.981 198ZM252.816 191.235C252.281 191.235 251.832 191.425 251.469 191.806C251.105 192.183 250.88 192.713 250.795 193.396H254.68V193.299C254.641 192.643 254.46 192.136 254.134 191.779C253.81 191.415 253.37 191.235 252.816 191.235ZM262.334 197.861C262.258 197.712 262.196 197.446 262.148 197.065C261.532 197.689 260.796 198 259.94 198C259.176 198 258.548 197.79 258.055 197.373C257.568 196.949 257.325 196.414 257.325 195.768C257.325 194.982 257.631 194.373 258.242 193.94C258.859 193.504 259.724 193.285 260.837 193.285H262.127V192.692C262.127 192.24 261.988 191.883 261.711 191.618C261.434 191.348 261.025 191.213 260.486 191.213C260.012 191.213 259.616 191.33 259.295 191.562C258.975 191.794 258.815 192.076 258.815 192.406H257.483C257.483 192.03 257.618 191.667 257.891 191.318C258.168 190.964 258.541 190.686 259.009 190.481C259.481 190.276 260 190.174 260.564 190.174C261.458 190.174 262.158 190.393 262.664 190.83C263.171 191.262 263.434 191.86 263.453 192.623V196.096C263.453 196.789 263.544 197.34 263.725 197.749V197.861H262.334ZM260.135 196.877C260.549 196.877 260.944 196.773 261.316 196.563C261.689 196.354 261.96 196.082 262.127 195.748V194.199H261.088C259.463 194.199 258.651 194.662 258.651 195.587C258.651 195.992 258.789 196.307 259.067 196.536C259.343 196.763 259.699 196.877 260.135 196.877ZM267.33 188.486V190.313H268.778V191.311H267.33V195.992C267.33 196.294 267.395 196.521 267.525 196.675C267.653 196.824 267.873 196.898 268.184 196.898C268.337 196.898 268.547 196.87 268.814 196.814V197.861C268.465 197.954 268.126 198 267.796 198C267.204 198 266.758 197.826 266.457 197.477C266.154 197.129 266.004 196.633 266.004 195.992V191.311H264.592V190.313H266.004V188.486H267.33ZM273.552 198C272.501 198 271.646 197.665 270.986 196.995C270.327 196.321 269.997 195.421 269.997 194.296V194.06C269.997 193.311 270.142 192.643 270.435 192.057C270.731 191.467 271.142 191.006 271.667 190.676C272.198 190.342 272.771 190.174 273.388 190.174C274.396 190.174 275.179 190.496 275.738 191.143C276.298 191.789 276.577 192.715 276.577 193.919V194.457H271.323C271.342 195.201 271.564 195.804 271.99 196.263C272.42 196.719 272.965 196.946 273.624 196.946C274.092 196.946 274.489 196.854 274.814 196.668C275.138 196.482 275.423 196.236 275.667 195.929L276.477 196.543C275.827 197.514 274.852 198 273.552 198ZM273.388 191.235C272.852 191.235 272.403 191.425 272.04 191.806C271.676 192.183 271.453 192.713 271.366 193.396H275.251V193.299C275.213 192.643 275.031 192.136 274.707 191.779C274.381 191.415 273.942 191.235 273.388 191.235ZM289.988 197.861H288.604L283.35 190.035V197.861H281.967V187.705H283.35L288.619 195.565V187.705H289.988V197.861ZM295.443 198C294.392 198 293.536 197.665 292.876 196.995C292.217 196.321 291.888 195.421 291.888 194.296V194.06C291.888 193.311 292.033 192.643 292.324 192.057C292.621 191.467 293.032 191.006 293.558 190.676C294.087 190.342 294.661 190.174 295.278 190.174C296.286 190.174 297.07 190.496 297.629 191.143C298.188 191.789 298.468 192.715 298.468 193.919V194.457H293.214C293.232 195.201 293.455 195.804 293.881 196.263C294.31 196.719 294.854 196.946 295.514 196.946C295.982 196.946 296.38 196.854 296.704 196.668C297.029 196.482 297.313 196.236 297.557 195.929L298.368 196.543C297.717 197.514 296.742 198 295.443 198ZM295.278 191.235C294.743 191.235 294.293 191.425 293.931 191.806C293.567 192.183 293.342 192.713 293.257 193.396H297.142V193.299C297.103 192.643 296.922 192.136 296.596 191.779C296.272 191.415 295.832 191.235 295.278 191.235ZM306.876 196.082L308.366 190.313H309.692L307.435 197.861H306.359L304.474 192.14L302.639 197.861H301.564L299.313 190.313H300.632L302.159 195.963L303.965 190.313H305.033L306.876 196.082ZM317.146 194.66L317.347 195.999L317.641 194.792L319.706 187.705H320.866L322.881 194.792L323.167 196.019L323.39 194.652L325.01 187.705H326.393L323.862 197.861H322.608L320.458 190.46L320.293 189.686L320.129 190.46L317.899 197.861H316.645L314.121 187.705H315.497L317.146 194.66ZM327.138 194.018C327.138 193.277 327.286 192.613 327.582 192.023C327.883 191.432 328.299 190.976 328.83 190.655C329.365 190.335 329.974 190.174 330.658 190.174C331.713 190.174 332.567 190.53 333.217 191.24C333.871 191.952 334.199 192.899 334.199 194.08V194.17C334.199 194.906 334.052 195.565 333.761 196.151C333.475 196.733 333.062 197.187 332.521 197.512C331.986 197.838 331.37 198 330.672 198C329.62 198 328.768 197.644 328.113 196.933C327.464 196.221 327.138 195.28 327.138 194.108V194.018ZM328.472 194.17C328.472 195.008 328.67 195.68 329.066 196.187C329.467 196.694 330.003 196.946 330.672 196.946C331.346 196.946 331.881 196.692 332.277 196.18C332.674 195.663 332.873 194.943 332.873 194.018C332.873 193.189 332.67 192.52 332.264 192.008C331.861 191.492 331.327 191.235 330.658 191.235C330.003 191.235 329.475 191.488 329.074 191.994C328.672 192.501 328.472 193.226 328.472 194.17ZM339.61 191.471C339.409 191.439 339.193 191.423 338.958 191.423C338.088 191.423 337.498 191.783 337.188 192.504V197.861H335.862V190.313H337.152L337.173 191.186C337.609 190.511 338.225 190.174 339.023 190.174C339.281 190.174 339.476 190.206 339.61 190.271V191.471ZM343.001 194.365L342.169 195.21V197.861H340.843V187.146H342.169V193.626L342.878 192.796L345.294 190.313H346.907L343.889 193.467L347.258 197.861H345.703L343.001 194.365ZM353.121 188.242C352.529 188.149 352.051 188.102 351.687 188.102C350.732 188.102 350.255 188.59 350.255 189.567V190.313H351.91V191.311H350.255V197.861H348.929V191.311H347.703V190.313H348.929V189.49C348.933 188.686 349.165 188.069 349.624 187.642C350.083 187.214 350.735 187 351.581 187C352.063 187 353.018 187.142 354.447 187.425V197.861H353.121V188.242ZM356.269 194.018C356.269 193.277 356.417 192.613 356.713 192.023C357.014 191.432 357.43 190.976 357.959 190.655C358.495 190.335 359.104 190.174 359.788 190.174C360.844 190.174 361.696 190.53 362.346 191.24C363.001 191.952 363.328 192.899 363.328 194.08V194.17C363.328 194.906 363.183 195.565 362.892 196.151C362.604 196.733 362.191 197.187 361.651 197.512C361.115 197.838 360.5 198 359.802 198C358.751 198 357.898 197.644 357.242 196.933C356.593 196.221 356.269 195.28 356.269 194.108V194.018ZM357.601 194.17C357.601 195.008 357.8 195.68 358.197 196.187C358.598 196.694 359.132 196.946 359.802 196.946C360.476 196.946 361.011 196.692 361.408 196.18C361.804 195.663 362.002 194.943 362.002 194.018C362.002 193.189 361.799 192.52 361.393 192.008C360.992 191.492 360.456 191.235 359.788 191.235C359.132 191.235 358.605 191.488 358.204 191.994C357.802 192.501 357.601 193.226 357.601 194.17ZM371.858 196.082L373.348 190.313H374.674L372.417 197.861H371.342L369.457 192.14L367.622 197.861H366.547L364.296 190.313H365.615L367.141 195.963L368.948 190.313H370.016L371.858 196.082ZM380.545 195.858C380.545 195.51 380.409 195.24 380.136 195.05C379.87 194.855 379.399 194.687 378.725 194.548C378.056 194.408 377.523 194.24 377.126 194.045C376.734 193.85 376.443 193.618 376.251 193.348C376.065 193.077 375.972 192.757 375.972 192.385C375.972 191.767 376.24 191.243 376.775 190.815C377.316 190.388 378.003 190.174 378.84 190.174C379.718 190.174 380.431 190.395 380.976 190.837C381.525 191.279 381.8 191.843 381.8 192.531H380.467C380.467 192.179 380.311 191.874 380.001 191.618C379.695 191.362 379.308 191.235 378.84 191.235C378.357 191.235 377.98 191.337 377.707 191.54C377.434 191.745 377.298 192.013 377.298 192.343C377.298 192.655 377.424 192.889 377.679 193.048C377.932 193.206 378.388 193.357 379.048 193.501C379.712 193.645 380.249 193.818 380.66 194.018C381.071 194.217 381.374 194.46 381.57 194.743C381.771 195.021 381.871 195.363 381.871 195.768C381.871 196.443 381.595 196.985 381.04 197.393C380.485 197.798 379.767 198 378.883 198C378.261 198 377.712 197.893 377.234 197.68C376.756 197.465 376.381 197.168 376.108 196.787C375.841 196.4 375.707 195.985 375.707 195.538H377.033C377.057 195.97 377.234 196.314 377.564 196.57C377.898 196.821 378.338 196.946 378.883 196.946C379.384 196.946 379.785 196.849 380.086 196.654C380.392 196.454 380.545 196.189 380.545 195.858Z" fill="#635F5F"/>
</svg>
