<svg id="Layer_1" data-name="Layer 1" xmlns="http://www.w3.org/2000/svg" viewBox="0 0 410 262.5"><defs><style>.cls-1,.cls-15,.cls-17{fill:none;stroke:#c3c3c3;stroke-width:2px;}.cls-1,.cls-11,.cls-12,.cls-15,.cls-17,.cls-4,.cls-8{stroke-miterlimit:10;}.cls-10,.cls-11,.cls-12,.cls-14,.cls-2{fill:#c3c3c3;}.cls-11,.cls-2,.cls-6,.cls-9{opacity:0.36;}.cls-3{fill:#cfcfce;}.cls-4{fill:#d3d3d3;stroke:#c6c6c4;stroke-width:3px;}.cls-5{fill:#1b4475;}.cls-6{fill:#fdfefe;}.cls-16,.cls-7,.cls-8{fill:#b0adad;}.cls-11,.cls-12,.cls-8{stroke:#b0adad;}.cls-9{fill:#bababa;}.cls-11{stroke-width:0.5px;}.cls-12{stroke-width:0.2px;}.cls-13{fill:#b3b3b3;}.cls-14{opacity:0.5;}.cls-15,.cls-16,.cls-17{opacity:0.8;}.cls-17{stroke-linecap:round;}</style></defs><title>one [Recovered]</title><rect class="cls-1" x="1" y="1" width="408" height="260.5" rx="10" ry="10"/><path class="cls-2" d="M250.61,271.5h5.55l15.84,94-4.92,0Z" transform="translate(-106.03 -149.43)"/><path class="cls-3" d="M247.81,271l2.8.47,16.22,94.12-2.79-.5Z" transform="translate(-106.03 -149.43)"/><rect class="cls-3" x="94.38" y="116.72" width="72.42" height="5.35"/><rect class="cls-2" x="166.8" y="116.72" width="173.23" height="5.35"/><path class="cls-4" d="M287.89,200.88a1,1,0,0,1,1-1.07l68.38.85a6,6,0,0,1,5.91,5.57l3.27,45.67a6,6,0,0,1-6,6.43l-63.06,0a6,6,0,0,1-6-5.59Z" transform="translate(-106.03 -149.43)"/><path class="cls-5" d="M367.88,258.33l2.88-1.65-.62-.41-2.26.62-.83,1.23Z" transform="translate(-106.03 -149.43)"/><path class="cls-6" d="M293.17,209.37a5.2,5.2,0,0,1,5.08-5.66h55.09a5.17,5.17,0,0,1,5.08,4.91l2.77,40.15a5.21,5.21,0,0,1-5.08,5.65H301a5.17,5.17,0,0,1-5.08-4.9Z" transform="translate(-106.03 -149.43)"/><path class="cls-7" d="M330.15,213.22c6.22,0,11.27,2.52,11.27,5.64s-5.05,5.64-11.27,5.64-11.28-2.53-11.28-5.64S323.92,213.22,330.15,213.22Zm-11.28,8.46c0,3.11,5.05,5.64,11.28,5.64s11.27-2.53,11.27-5.64v4.23a3.16,3.16,0,0,1-.53,1.72,8.46,8.46,0,0,0-9.6,3.88l-1.14,0c-6.23,0-11.28-2.52-11.28-5.63Zm0,7c0,3.12,5.05,5.64,11.39,5.64l-.11,1.41a8.48,8.48,0,0,0,.48,2.82h-.48c-6.23,0-11.28-2.52-11.28-5.64Z" transform="translate(-106.03 -149.43)"/><rect class="cls-8" x="213.29" y="108.9" width="2.06" height="7.82"/><rect class="cls-7" x="215.35" y="108.4" width="30.04" height="8.31"/><path class="cls-7" d="M350.39,365.72a6.17,6.17,0,0,1,6.17-6.17h37a6.18,6.18,0,0,1,6.18,6.17Z" transform="translate(-106.03 -149.43)"/><rect class="cls-9" x="265.34" y="148.81" width="7.41" height="61.31"/><rect class="cls-10" x="263.9" y="148.81" width="10.7" height="7.82" rx="2" ry="2"/><path class="cls-11" d="M302,263.88c.81-6.62,12.15-5,17.34-3.09l-.54,6c-4.32-1-10.48.14-12.54-.06C304.78,266.69,301.9,266,302,263.88Z" transform="translate(-106.03 -149.43)"/><path class="cls-2" d="M376.75,199.84l.26-.73s0,0,.27-2.05c.36-2.66,2.48-5.07,5.29-6.53s7.36.35,11.2,5.78c3.06,4.34-.52,10.13-.54,16l.57,6.74-11,1.54c-1.54-2.56-.71-6.54-1.9-6.54a7.79,7.79,0,0,1-2.46,0,.89.89,0,0,1-.63-1l.09-.93a.9.9,0,0,0-.06-.46l-.38-1a1,1,0,0,1,.22-1.06l.26-.26-.38-.13a1,1,0,0,1-.67-.95v-.12a1,1,0,0,0-.54-.89l-.06,0a1,1,0,0,1-.47-1.25l1-2.51a.77.77,0,0,0,0-.54A4.53,4.53,0,0,1,376.75,199.84Z" transform="translate(-106.03 -149.43)"/><path class="cls-7" d="M387.41,190.28a13.13,13.13,0,0,1,7.68,4.65c2.05,2.8,1,11-.12,16.66a3.84,3.84,0,0,1-3.81,3h-4.81a4,4,0,0,1-3.75-2.58L381,207.92a3.26,3.26,0,0,0,.36-.54c1-1.6.22-4.34-1.55-3.73l-.23-2.23a1.92,1.92,0,0,0-.84-1.2,25,25,0,0,1-2.71-2.58c-1.63-1.31-3.27-3.82-.62-7.21-.22.52-.49,1.68.18,2.14a3.59,3.59,0,0,1-.06-1.29c.19.31.64.94.92,1,.05,0,.13-.1.26-.27.71-.93,2.91-3.8,10.54-1.73Z" transform="translate(-106.03 -149.43)"/><path class="cls-2" d="M352.8,349.16l-3.47-13.46-9.77,3.22,4.78,12.2Z" transform="translate(-106.03 -149.43)"/><path class="cls-7" d="M343.6,349.93c2.38.21,7.32-1.17,9.49-1.89l.33-.1L355.9,356a2.08,2.08,0,0,1-1.27,2.53c-6.94,2.61-18.52,8.2-23.25,7.6-5.25-.66,1.17-4.31,5.51-7.34C340.08,356.59,341.8,353.37,343.6,349.93Z" transform="translate(-106.03 -149.43)"/><path class="cls-12" d="M353.48,343.71c-3.71,1.23-11.24,3.29-13.16,3.29-4.22-13.91-18-40.49-16.33-59.25.44-5.12,5.06-8.42,10.16-9.05l46.91-1V298l-16.5-2.16a16,16,0,0,0-17.66,19.48Z" transform="translate(-106.03 -149.43)"/><path class="cls-2" d="M307.11,356.13,314.39,339H304.1l-5.65,16.37Z" transform="translate(-106.03 -149.43)"/><path class="cls-7" d="M298.12,354c2.2.94,7.32,1.18,9.61,1.18h.34v7.75a2,2,0,0,1-2,2H281.34c-4.56-.1,2.15-3.88,6.39-5.55A66.53,66.53,0,0,0,298.12,354Z" transform="translate(-106.03 -149.43)"/><path class="cls-12" d="M309.68,353.79c-3.53,0-10.24-2.06-12.16-2.06,3.18-12,17.41-46.55,26-66.49a12.16,12.16,0,0,1,8.22-7,20.23,20.23,0,0,1,4.84-.59H381V298l-29-2.28a16,16,0,0,0-15.31,8.31Z" transform="translate(-106.03 -149.43)"/><path class="cls-12" d="M381.38,216.67c6.87,1.39,6.87,1.39,12.08-.4a17.7,17.7,0,0,1,11.19,17l-1.81,55.28H364.06V250.29l-2.83,5.86a17.27,17.27,0,0,1-14.79,9.68l-27.54,1.24v-6.74L341.24,256a17.25,17.25,0,0,0,12.35-9.61l10.47-22.47a7.85,7.85,0,0,1,4.56-4.1Z" transform="translate(-106.03 -149.43)"/><path class="cls-10" d="M363.45,291l7.38-62.69h36.51a6.52,6.52,0,0,1,4.9,2.2,6.27,6.27,0,0,1,1.55,4.95l-5.71,46.63c-.85,5.18-1.79,6.95-4,9.31-4,4.27-9,6.72-13.61,6.72H390l-32.9.41Z" transform="translate(-106.03 -149.43)"/><path class="cls-7" d="M407.34,228.85a6,6,0,0,1,4.53,2,5.74,5.74,0,0,1,1.42,4.56L407.59,282c-.83,5.07-1.74,6.79-3.89,9.07-3.92,4.17-8.75,6.56-13.24,6.56h-.52l-31.78.39,5.58-6.56.19-.23,0-.3,7.3-62.1h36.07m0-1h-37l-7.41,63-7,8.24,34-.42h.5c5.29,0,10.38-3.07,14-6.88,2.32-2.46,3.29-4.36,4.15-9.58l5.71-46.64a6.93,6.93,0,0,0-7-7.71Z" transform="translate(-106.03 -149.43)"/><path class="cls-13" d="M341.42,297.06v-.19a1.86,1.86,0,0,1,1.89-1.82,19.33,19.33,0,0,0,19.43-16.95L368,229.68a2.11,2.11,0,0,1,4.2.42l-6.35,61.5a8.47,8.47,0,0,1-8.52,7.47H343.5A2,2,0,0,1,341.42,297.06Z" transform="translate(-106.03 -149.43)"/><path class="cls-1" d="M234.73,277.23c-2.68,2.32-8.55,9.94-10.69,21.91s-8.73,23.51-11.76,27.79" transform="translate(-106.03 -149.43)"/><path class="cls-14" d="M197.24,304.86c-4.5,0,.59,8.48,3.55,11.84l8.89,9.48c4.34-1.78,13.5-5.81,15.39-7.7,2.37-2.37-.59-3-3.55-3.56-2.37-.47-1-2.56,0-3.55,9.95-2.84,13.23-8.29,13.62-10.66,0-.59,0-1.78-2.37-3.55s-11.84,11.84-11.25,3,14.21-18.95,13.62-23.1-3.55,1.18-8.88,4.15c-4.27,2.36-4.15-1.78-3.56-4.15,2.77-3.16,7.94-10.31,6.52-13.62-1.78-4.15-3,0-7.7,4.14s-1.78-4.73-.59-6.51,11.84-24.88-7.11-20.73-7.7,29-7.11,32.57-4.14-4.73-11.25-2.37,13,15.4,13,19-7.7-1.78-11.25-2.37,3.55,8.29,5.33,13.62c1.42,4.26.59,5.33,0,5.33C200.79,307.22,200.79,304.86,197.24,304.86Z" transform="translate(-106.03 -149.43)"/><path class="cls-2" d="M186.25,317.31c-2.14,4.27,15.85,8.19,25.11,9.62l.54-10.69c2.67-13.36,2.67-16.56-.54-16s-5.88,7-6.94,3.21,6.94-13.36,4.27-20.31-8,4.28-10.15,2.67,1.6-19.77-1.6-20.84-3.75,13.9-4.81,8.55-9.62-16.56-16.57-12.29,12.29,15,10.69,17.1S174,274,174,280.44s17.63,8.55,21.37,11.22-11.75,5.34-15.49,6.95-2.68,7.48,8,8,12.83,3.21,13.89,5.88S188.92,312,186.25,317.31Z" transform="translate(-106.03 -149.43)"/><path class="cls-1" d="M187.85,276.48c2.67,2.32,8.55,9.94,10.69,21.91s8.73,23.51,11.75,27.79" transform="translate(-106.03 -149.43)"/><path class="cls-2" d="M238.32,317.12c2.14,4.27-15.85,8.19-25.12,9.62l-.53-10.69c-2.67-13.36-2.67-16.56.53-16s5.88,7,7,3.21-7-13.36-4.27-20.31,8,4.28,10.15,2.67-1.6-19.77,1.6-20.84,3.74,13.9,4.81,8.55S242.06,256.74,249,261s-12.29,15-10.69,17.1,12.29-4.27,12.29,2.14S233,288.8,229.24,291.47s11.75,5.34,15.49,6.95,2.67,7.48-8,8-12.83,3.21-13.9,5.88S235.65,311.78,238.32,317.12Z" transform="translate(-106.03 -149.43)"/><path class="cls-1" d="M214.55,258.66c-1.18.2-3.2,6.87-1.78,32s-.59,34.15-1.77,35.54" transform="translate(-106.03 -149.43)"/><path class="cls-15" d="M199.66,336.8h25.25l-2.73,27.3H202.05Z" transform="translate(-106.03 -149.43)"/><path class="cls-16" d="M202.66,364.86h18.1c2.13,0,3.85.56,3.85,1.25h0c0,.69-1.72,1.25-3.85,1.25h-18.1c-2.13,0-3.85-.56-3.85-1.25h0C198.81,365.42,200.53,364.86,202.66,364.86Z" transform="translate(-106.03 -149.43)"/><line class="cls-17" x1="100.07" y1="194.52" x2="110.82" y2="194.52"/><line class="cls-17" x1="100.07" y1="201.02" x2="110.82" y2="201.02"/><line class="cls-17" x1="100.19" y1="207.52" x2="110.94" y2="207.52"/><path class="cls-7" d="M336.62,239.54l0-.4a3.38,3.38,0,0,1,1-2.67,3.29,3.29,0,0,0,1.18-2.11c0-.79-.54-1.31-1.6-1.33a3.19,3.19,0,0,0-1.69.48l-.41-1a4.71,4.71,0,0,1,2.4-.61c1.94,0,2.81,1.09,2.81,2.26a4.07,4.07,0,0,1-1.44,2.68,2.91,2.91,0,0,0-1,2.27v.4Zm-.37,2.16a1,1,0,0,1,1-1,1,1,0,1,1,0,1.92A.94.94,0,0,1,336.25,241.7Z" transform="translate(-106.03 -149.43)"/><path class="cls-15" d="M201,325.88h22.52a4.77,4.77,0,0,1,4.78,4.77h0a4.78,4.78,0,0,1-4.78,4.78H201a4.78,4.78,0,0,1-4.77-4.78h0A4.77,4.77,0,0,1,201,325.88Z" transform="translate(-106.03 -149.43)"/></svg>