<svg width="25" height="25" viewBox="0 0 25 25" fill="none" xmlns="http://www.w3.org/2000/svg">
<circle cx="12.5" cy="12.5" r="12.5" fill="#FFD54F" fill-opacity="0.57"/>
<path d="M12.72 5C8.30182 5 4.52869 7.91096 3 12.02C4.52869 16.129 8.30182 19.04 12.72 19.04C17.1382 19.04 20.9113 16.129 22.44 12.02C20.9113 7.91096 17.1382 5 12.72 5ZM12.72 16.7C10.2812 16.7 8.30182 14.6034 8.30182 12.02C8.30182 9.43664 10.2812 7.34 12.72 7.34C15.1588 7.34 17.1382 9.43664 17.1382 12.02C17.1382 14.6034 15.1588 16.7 12.72 16.7ZM12.72 9.212C11.2532 9.212 10.0691 10.4662 10.0691 12.02C10.0691 13.5738 11.2532 14.828 12.72 14.828C14.1868 14.828 15.3709 13.5738 15.3709 12.02C15.3709 10.4662 14.1868 9.212 12.72 9.212Z" fill="#F3C637"/>
</svg>
