<svg width="20" height="15" viewBox="0 0 20 15" fill="none" xmlns="http://www.w3.org/2000/svg">
<path d="M9.72 0C5.30182 0 1.52869 2.91096 0 7.02C1.52869 11.129 5.30182 14.04 9.72 14.04C14.1382 14.04 17.9113 11.129 19.44 7.02C17.9113 2.91096 14.1382 0 9.72 0ZM9.72 11.7C7.28116 11.7 5.30182 9.60336 5.30182 7.02C5.30182 4.43664 7.28116 2.34 9.72 2.34C12.1588 2.34 14.1382 4.43664 14.1382 7.02C14.1382 9.60336 12.1588 11.7 9.72 11.7ZM9.72 4.212C8.25316 4.212 7.06909 5.46624 7.06909 7.02C7.06909 8.57376 8.25316 9.828 9.72 9.828C11.1868 9.828 12.3709 8.57376 12.3709 7.02C12.3709 5.46624 11.1868 4.212 9.72 4.212Z" fill="#F3C637"/>
</svg>
