<svg width="20" height="20" viewBox="0 0 20 20" fill="none" xmlns="http://www.w3.org/2000/svg">
<path d="M10 19C14.9706 19 19 14.9706 19 10C19 5.02944 14.9706 1 10 1C5.02944 1 1 5.02944 1 10C1 14.9706 5.02944 19 10 19Z" stroke="#E0E0E0" stroke-width="2"/>
<path d="M7 10.1846C7 9.35614 6.32843 8.68457 5.5 8.68457C4.67157 8.68457 4 9.35614 4 10.1846C4 11.013 4.67157 11.6846 5.5 11.6846C6.32843 11.6846 7 11.013 7 10.1846Z" fill="#E0E0E0"/>
<path d="M11.5 10.1846C11.5 9.35614 10.8284 8.68457 10 8.68457C9.17157 8.68457 8.5 9.35614 8.5 10.1846C8.5 11.013 9.17157 11.6846 10 11.6846C10.8284 11.6846 11.5 11.013 11.5 10.1846Z" fill="#E0E0E0"/>
<path d="M16 10.1846C16 9.35614 15.3284 8.68457 14.5 8.68457C13.6716 8.68457 13 9.35614 13 10.1846C13 11.013 13.6716 11.6846 14.5 11.6846C15.3284 11.6846 16 11.013 16 10.1846Z" fill="#E0E0E0"/>
</svg>
