<svg width="358" height="64" viewBox="0 0 358 64" fill="none" xmlns="http://www.w3.org/2000/svg">
<path fill-rule="evenodd" clip-rule="evenodd" d="M0.669464 63.0413L7.82965 17.4709C15.8898 17.4709 22.0243 25.0479 20.71 33.3799L18.2073 49.2458H23.7951C26.5982 49.2458 29.0971 48.7295 31.2916 47.6968C33.5046 46.6446 35.3487 44.8909 36.8241 42.4358C38.3178 39.9611 39.3967 36.5805 40.0605 32.2937C40.6876 28.2408 40.6691 25.1135 40.0052 22.9116C39.3413 20.6903 38.0781 19.151 36.2155 18.2936C34.3529 17.4168 31.9463 16.9784 28.9956 16.9784L23.4577 16.8886C12.2081 16.8886 8.7565 7.76305 8.45081 3.20337H31.3388C37.1663 3.20337 42.0153 4.4202 45.9249 6.89482C49.8346 9.36944 52.61 12.906 54.2513 17.5045C55.8926 22.103 56.2153 27.5783 55.2195 33.9305C54.2605 40.0488 52.3149 45.2806 49.3827 49.6258C46.469 53.971 42.7438 57.2932 38.2072 59.5925C33.689 61.8917 28.553 63.0413 22.7993 63.0413H0.669464Z" fill="url(#paint0_linear_714_34628)"/>
<path fill-rule="evenodd" clip-rule="evenodd" d="M14.0599 3.20293L31.3388 3.20293C37.1663 3.20293 42.0153 4.41977 45.9249 6.89438C49.8345 9.369 52.61 12.9056 54.2513 17.5041C55.8926 22.1026 56.2153 27.5779 55.2195 33.9301C54.2605 40.0484 52.3149 45.2802 49.3827 49.6254C47.6167 52.2589 45.5527 54.5167 43.1905 56.3987C43.1968 56.3955 43.2031 56.3923 43.2095 56.3891C47.7461 54.0899 51.4713 50.7676 54.385 46.4224C57.3172 42.0773 59.2628 36.8455 60.2218 30.7271C61.2176 24.375 60.8949 18.8996 59.2536 14.3011C57.6123 9.70263 54.8368 6.16607 50.9272 3.69145C47.0176 1.21684 42.1686 0 36.3411 0H13.4531C13.5147 0.919416 13.7043 2.02448 14.0599 3.20293Z" fill="url(#paint1_linear_714_34628)"/>
<path fill-rule="evenodd" clip-rule="evenodd" d="M131.866 54.0889C127.505 54.0889 123.64 53.1328 120.271 51.2205C116.941 49.2667 114.324 46.6062 112.421 43.239C110.519 39.8302 109.567 35.9434 109.567 31.5784C109.567 27.172 110.519 23.2851 112.421 19.9179C114.324 16.5091 116.941 13.8486 120.271 11.9363C123.601 9.98252 127.426 9.00562 131.747 9.00562C136.108 9.00562 139.953 9.98252 143.283 11.9363C146.613 13.8486 149.229 16.5091 151.132 19.9179C153.035 23.2851 153.986 27.172 153.986 31.5784C153.986 35.9434 153.035 39.8302 151.132 43.239C149.269 46.6062 146.672 49.2667 143.342 51.2205C140.012 53.1328 136.187 54.0889 131.866 54.0889ZM131.866 43.4884C134.007 43.4884 135.89 42.9896 137.515 41.9919C139.14 40.9526 140.409 39.5392 141.321 37.7517C142.232 35.9641 142.688 33.9064 142.688 31.5784C142.688 29.2505 142.213 27.1927 141.261 25.4052C140.349 23.5761 139.061 22.1627 137.396 21.165C135.771 20.1257 133.888 19.6061 131.747 19.6061C129.646 19.6061 127.763 20.1257 126.098 21.165C124.473 22.1627 123.184 23.5761 122.233 25.4052C121.321 27.1927 120.865 29.2505 120.865 31.5784C120.865 33.9064 121.341 35.9641 122.292 37.7517C123.244 39.5392 124.532 40.9526 126.157 41.9919C127.822 42.9896 129.725 43.4884 131.866 43.4884ZM83.2883 42.4284C85.0325 42.4284 86.638 42.1582 88.1048 41.6177C89.5715 41.0773 90.8401 40.3291 91.9104 39.3729C92.9807 38.4168 93.8132 37.2736 94.4079 35.9434C95.0025 34.6131 95.2998 33.1373 95.2998 31.5161C95.2998 29.8948 95.0025 28.4191 94.4079 27.0888C93.8132 25.7586 92.9807 24.6154 91.9104 23.6592C90.8401 22.7031 89.5715 21.9549 88.1048 21.4144C86.638 20.874 85.0325 20.6038 83.2883 20.6038H80.3746V42.4284H83.2883ZM95.3593 12.4975C91.8708 10.6269 87.8471 9.69153 83.2883 9.69153H80.3746H74.6661H69.3739V53.3406H74.6661H80.3746H83.2883C87.8471 53.3406 91.8708 52.4053 95.3593 50.5346C98.8874 48.664 101.643 46.0866 103.625 42.8025C105.607 39.5184 106.598 35.7563 106.598 31.5161C106.598 27.2343 105.607 23.4722 103.625 20.2297C101.643 16.9456 98.8874 14.3682 95.3593 12.4975ZM169.21 30.8089L153.91 53.3406H167.171L175.306 40.3924L183.404 53.3406H196.664L181.441 30.7797L196.189 9.69153H183.047L175.317 21.5159L167.527 9.69153H154.386L169.21 30.8089ZM223.141 44.6108L211.843 27.5502V53.3406H200.842V10.9386V9.69153H206.253H211.843H213.032L223.081 25.2992L233.131 9.69153H234.32H240.028H245.321V10.7516V53.3406H234.32V27.545L223.141 44.6108ZM278.929 46.3568L281.365 53.3406H293.02L277.084 9.69153H276.192H266.142H265.251L249.314 53.3406H260.969L263.405 46.3568H278.929ZM275.385 36.1928L271.167 24.0992L266.95 36.1928H275.385ZM301.46 53.3406V20.292H289.687V9.69153H324.175V20.292H312.461V53.3406H301.46ZM328.769 9.69153V53.3406H336.499H339.77H357.074V42.7401H339.77V36.6293H353.446V26.3405H339.77V20.292H356.658V9.69153H339.77H336.499H328.769Z" fill="#344054"/>
<defs>
<linearGradient id="paint0_linear_714_34628" x1="55.7836" y1="3.1829" x2="-1.99623" y2="60.347" gradientUnits="userSpaceOnUse">
<stop stop-color="#7B79FF"/>
<stop offset="1" stop-color="#4240B8"/>
</linearGradient>
<linearGradient id="paint1_linear_714_34628" x1="60.7481" y1="-2.09508e-06" x2="22.1763" y2="31.7301" gradientUnits="userSpaceOnUse">
<stop stop-color="#7B79FF"/>
<stop offset="1" stop-color="#7B79FF" stop-opacity="0"/>
</linearGradient>
</defs>
</svg>
