<svg width="512" height="512" viewBox="0 0 512 512" fill="none" xmlns="http://www.w3.org/2000/svg">
<path fill-rule="evenodd" clip-rule="evenodd" d="M0 512L60.9 141.8C129.6 141.8 181.7 203.4 170.7 270.9L149.4 399.8H197.1C221.1 399.8 242.3 395.6 260.9 387.3C279.7 378.7 295.4 364.6 308.1 344.5C320.8 324.5 330.1 296.8 335.7 262.1C341.1 229.1 340.8 203.7 335.2 185.8C329.6 167.7 318.8 155.2 302.9 148.4C287 141.3 266.5 137.6 241.5 137.6L194.3 136.9C98.4 136.9 69.1 62.8 66.4 25.6H261.3C310.9 25.6 352.3 35.4 385.5 55.7C418.8 75.7 442.5 104.6 456.4 141.8C470.3 179.2 473 223.7 464.7 275.3C456.6 324.9 440 367.5 415.1 402.7C390.2 437.9 358.6 465 320 483.6C281.6 502.2 237.8 511.7 188.7 511.7H0V512Z" fill="url(#paint0_linear_109_1904)"/>
<path fill-rule="evenodd" clip-rule="evenodd" d="M114 25.9H261.2C310.8 25.9 352.2 35.7 385.4 56C418.7 76 442.4 104.9 456.3 142.1C470.2 179.5 472.9 224 464.6 275.6C456.5 325.2 439.9 367.8 415 403C399.8 424.3 382.5 442.6 362.2 458C362.2 458 362.2 458 362.4 458C401 439.4 432.8 412.3 457.5 377.1C482.4 341.9 499.1 299.3 507.1 249.7C515.7 198.1 512.7 153.6 498.8 116.2C484.9 78.8 461.1 50.2 427.9 30.1C394.9 9.80001 353.6 0 303.9 0H108.8C109.3 7.6 111 16.4 114 25.9Z" fill="url(#paint1_linear_109_1904)"/>
<defs>
<linearGradient id="paint0_linear_109_1904" x1="446.159" y1="3.35352" x2="-22.8452" y2="490.012" gradientUnits="userSpaceOnUse">
<stop stop-color="#7B79FF"/>
<stop offset="1" stop-color="#4240B8"/>
</linearGradient>
<linearGradient id="paint1_linear_109_1904" x1="509.997" y1="-2.0811" x2="194.164" y2="270.414" gradientUnits="userSpaceOnUse">
<stop stop-color="#7B79FF"/>
<stop offset="1" stop-color="#7B79FF" stop-opacity="0"/>
</linearGradient>
</defs>
</svg>
