<svg width="200" height="36" viewBox="0 0 200 36" fill="none" xmlns="http://www.w3.org/2000/svg">
<path fill-rule="evenodd" clip-rule="evenodd" d="M0 35.4925L4.55931 9.83047C9.70456 9.83047 13.6047 14.1018 12.7807 18.78L11.1877 27.7125H14.7583C16.5527 27.7125 18.1457 27.4244 19.5373 26.8481C20.9472 26.2549 22.1191 25.2718 23.0712 23.8819C24.0234 22.492 24.7192 20.5767 25.1403 18.1698C25.5431 15.8816 25.5248 14.1188 25.1037 12.8814C24.6825 11.6272 23.8769 10.7627 22.6867 10.2881C21.4965 9.79657 19.9584 9.54232 18.0908 9.54232L14.5568 9.49147C7.37913 9.49147 5.18187 4.35567 4.98045 1.7793H19.5739C23.2909 1.7793 26.3854 2.45729 28.8756 3.86413C31.3659 5.25401 33.142 7.25409 34.1857 9.83047C35.2294 12.4238 35.4308 15.5087 34.8082 19.0851C34.204 22.5259 32.9589 25.4752 31.0912 27.9159C29.2235 30.3567 26.8615 32.2382 23.9684 33.5263C21.0937 34.8145 17.8161 35.4756 14.1357 35.4756H0V35.4925Z" fill="url(#paint0_linear_674_34642)"/>
<path fill-rule="evenodd" clip-rule="evenodd" d="M8.53271 1.79668H19.5556C23.2727 1.79668 26.3671 2.47468 28.8574 3.88151C31.3476 5.2714 33.1237 7.27148 34.1674 9.84785C35.2111 12.4412 35.4125 15.526 34.79 19.1025C34.1857 22.5433 32.9406 25.4926 31.0729 27.9333C29.9377 29.408 28.6376 30.6792 27.1179 31.747C27.1179 31.747 27.1179 31.747 27.1362 31.747C30.0292 30.4589 32.4096 28.5774 34.2589 26.1366C36.1266 23.6959 37.3717 20.7466 37.976 17.3058C38.6168 13.7294 38.3971 10.6445 37.3534 8.05117C36.3097 5.45785 34.5336 3.47472 32.0434 2.08483C29.5715 0.677993 26.477 0 22.76 0H8.14819C8.18481 0.525445 8.31299 1.13564 8.53271 1.79668Z" fill="url(#paint1_linear_674_34642)"/>
<path fill-rule="evenodd" clip-rule="evenodd" d="M78.8268 24.2264C76.4752 24.2264 74.4019 23.7656 72.5918 22.8586C70.7971 21.9227 69.3891 20.6557 68.368 19.0432C67.3469 17.4163 66.8363 15.559 66.8363 13.4713C66.8363 11.3693 67.3469 9.51198 68.368 7.89944C69.3891 6.27251 70.7971 5.00552 72.5918 4.08407C74.3865 3.14822 76.4442 2.6875 78.765 2.6875C81.1166 2.6875 83.1744 3.14822 84.9691 4.08407C86.7638 4.99112 88.1717 6.27251 89.1928 7.89944C90.214 9.51198 90.7246 11.3549 90.7246 13.4713C90.7246 15.559 90.214 17.4163 89.1928 19.0432C88.1872 20.6557 86.7947 21.9227 85 22.8586C83.2053 23.78 81.1476 24.2264 78.8268 24.2264ZM78.8268 19.1728C79.9717 19.1728 80.9929 18.928 81.8593 18.4529C82.7412 17.9634 83.4219 17.2867 83.9015 16.4228C84.3966 15.5734 84.6442 14.5943 84.6442 13.4713C84.6442 12.3627 84.3812 11.3837 83.8706 10.5198C83.3755 9.64156 82.6948 8.97927 81.7974 8.48975C80.931 8.00023 79.9099 7.74107 78.765 7.74107C77.6355 7.74107 76.6299 7.98583 75.7325 8.48975C74.8661 8.96487 74.1699 9.64156 73.6593 10.5198C73.1642 11.3693 72.9167 12.3483 72.9167 13.4713C72.9167 14.5799 73.1797 15.559 73.6903 16.4228C74.2008 17.2723 74.897 17.949 75.7635 18.4529C76.6453 18.928 77.6665 19.1728 78.8268 19.1728ZM52.6952 18.6689C53.639 18.6689 54.4899 18.5393 55.279 18.2801C56.068 18.021 56.7488 17.661 57.3212 17.2147C57.8937 16.754 58.3424 16.2069 58.6673 15.5734C58.9922 14.9399 59.1469 14.2344 59.1469 13.4569C59.1469 12.6795 58.9922 11.974 58.6673 11.3405C58.3424 10.707 57.8937 10.1599 57.3212 9.69915C56.7488 9.23842 56.068 8.89288 55.279 8.63372C54.4899 8.37457 53.6235 8.24499 52.6952 8.24499H51.1326V18.6545H52.6952V18.6689ZM59.1933 4.38642C57.3212 3.49377 55.1552 3.04744 52.6952 3.04744H51.1326H48.0692H45.2224V23.8808H48.0692H51.1326H52.6952C55.1397 23.8808 57.3058 23.4345 59.1933 22.5418C61.0963 21.6492 62.5661 20.4254 63.6337 18.856C64.7012 17.2867 65.2273 15.487 65.2273 13.4713C65.2273 11.4269 64.7012 9.62716 63.6337 8.08661C62.5661 6.50287 61.0809 5.27907 59.1933 4.38642ZM98.909 13.1258L90.6781 23.8808H97.8106L102.189 17.6898L106.552 23.8664H113.684L105.5 13.097L113.437 3.03304H106.366L102.189 8.69131L97.9962 3.04744H90.9257L98.909 13.1258ZM127.918 19.7055L121.838 11.5708V23.8808H115.928V3.63774V3.04744H118.837H121.838H122.472L127.887 10.491L133.287 3.04744H133.921H137H139.847V3.55136V23.8808H133.937V11.5564L127.918 19.7055ZM157.918 20.5406L159.233 23.8808H165.499L156.928 3.04744H156.448H151.049H150.569L141.998 23.8808H148.264L149.579 20.5406H157.918ZM156.015 15.6886L153.741 9.91511L151.466 15.6886H156.015ZM170.032 23.8808V8.10101H163.704V3.04744H182.255V8.10101H175.958V23.8808H170.032ZM184.73 3.04744V23.8808H188.892H190.656H199.97V18.8272H190.656V15.9045H198.005V10.9805H190.656V8.10101H199.738V3.04744H190.656H188.892H184.73Z" fill="#313D4E"/>
<path d="M45.2495 31.5706V27.2607H45.6735V31.5706H45.2495ZM45.6735 27.6134V27.2607H47.9205V27.6134H45.6735ZM45.6735 29.5332V29.1806H47.7722V29.5332H45.6735ZM45.6735 31.5706V31.2179H47.9205V31.5706H45.6735Z" fill="#515D6C"/>
<path d="M49.0229 31.5711V28.4954H49.4045L49.4257 29.0635V31.5711H49.0229ZM51.4184 29.9843C51.4184 29.6512 51.376 29.377 51.2912 29.2007C51.2064 29.0243 51.0792 28.9068 50.9308 28.848C50.7824 28.7893 50.6129 28.7501 50.4221 28.7501C50.1041 28.7501 49.8709 28.848 49.6801 29.0635C49.5105 29.279 49.4045 29.5729 49.4045 29.9647H49.1501C49.1501 29.6316 49.1925 29.3574 49.2985 29.1223C49.4045 28.8872 49.5529 28.7109 49.7437 28.5934C49.9345 28.4758 50.1889 28.3975 50.4645 28.3975C50.8672 28.3975 51.1852 28.515 51.4184 28.7501C51.6516 28.9852 51.7788 29.3378 51.7788 29.7884L51.4184 29.9843ZM51.4184 31.5711V30.0039L51.8212 29.8275V31.5907H51.4184V31.5711Z" fill="#515D6C"/>
<path d="M52.3511 28.8281V28.4951H54.4073V28.8281H52.3511ZM53.9198 31.6491C53.623 31.6491 53.3686 31.5707 53.199 31.4336C53.0294 31.2769 52.9446 31.081 52.9446 30.7871V27.5352H53.3474V30.7871C53.3474 30.9438 53.3898 31.081 53.4958 31.1789C53.6018 31.2769 53.7502 31.3161 53.9198 31.3161C53.9834 31.3161 54.0258 31.3161 54.0682 31.2965C54.1106 31.2769 54.1954 31.2377 54.3014 31.1789L54.4709 31.4924C54.3438 31.5511 54.259 31.5903 54.1742 31.6099C54.0894 31.6295 54.0046 31.6491 53.9198 31.6491Z" fill="#515D6C"/>
<path d="M56.612 31.6494C56.2941 31.6494 56.0185 31.5711 55.7641 31.4339C55.5097 31.2968 55.3189 31.1009 55.1917 30.8658C55.0433 30.6307 54.9797 30.3369 54.9797 30.0234C54.9797 29.71 55.0433 29.4357 55.1917 29.1811C55.3189 28.946 55.5097 28.7501 55.7641 28.613C55.9973 28.4758 56.2729 28.3975 56.5908 28.3975C56.9088 28.3975 57.1632 28.4758 57.3964 28.613C57.6296 28.7501 57.778 28.946 57.9052 29.2007C58.0111 29.4553 58.0747 29.7296 58.0747 30.0626H57.672C57.672 29.8079 57.6296 29.5729 57.5448 29.377C57.46 29.1811 57.354 29.0243 57.1844 28.9068C57.0148 28.7893 56.824 28.7305 56.5908 28.7305C56.3577 28.7305 56.1457 28.7893 55.9549 28.8872C55.7641 29.0048 55.6369 29.1419 55.5309 29.3378C55.4249 29.5337 55.3825 29.7492 55.3825 30.0039C55.3825 30.2585 55.4461 30.474 55.5521 30.6699C55.6581 30.8658 55.8065 31.0029 55.9973 31.1205C56.1881 31.238 56.4 31.2772 56.6332 31.2772C56.8876 31.2772 57.0996 31.2184 57.2904 31.1009C57.46 30.9834 57.6084 30.8266 57.7144 30.6503L58.0535 30.8462C57.9688 31.0029 57.8628 31.1401 57.7144 31.2576C57.5872 31.3752 57.4176 31.4731 57.248 31.5319C57.036 31.6102 56.824 31.6494 56.612 31.6494ZM55.2341 30.0626V29.7296H57.7568V30.0626H55.2341Z" fill="#515D6C"/>
<path d="M58.7954 31.5708V28.4951H59.1982V31.5708H58.7954ZM58.9438 29.886C58.9438 29.553 59.0074 29.2787 59.1558 29.0828C59.283 28.8869 59.4738 28.7302 59.6858 28.6322C59.8977 28.5343 60.1309 28.4951 60.3641 28.4951V28.8281C60.1733 28.8281 59.9825 28.8673 59.7918 28.9261C59.6222 28.9849 59.4738 29.1024 59.3466 29.2395C59.2406 29.3963 59.177 29.5922 59.177 29.8468L58.9438 29.886Z" fill="#515D6C"/>
<path d="M60.9578 32.8052V28.4954H61.3393L61.3605 29.0635V32.8052H60.9578ZM62.5265 31.6494C62.2509 31.6494 61.9965 31.5711 61.7845 31.4339C61.5725 31.2968 61.4029 31.1009 61.2757 30.8658C61.1486 30.6307 61.085 30.3369 61.085 30.0234C61.085 29.71 61.1486 29.4357 61.2757 29.1811C61.4029 28.946 61.5725 28.7501 61.7845 28.613C61.9965 28.4758 62.2509 28.3975 62.5265 28.3975C62.8232 28.3975 63.0776 28.4758 63.3108 28.613C63.544 28.7501 63.7136 28.946 63.8408 29.1811C63.968 29.4161 64.0316 29.71 64.0316 30.0234C64.0316 30.3369 63.968 30.6111 63.8408 30.8658C63.7136 31.1009 63.544 31.2968 63.3108 31.4339C63.0776 31.5711 62.8232 31.6494 62.5265 31.6494ZM62.4629 31.3164C62.6961 31.3164 62.908 31.2576 63.0776 31.1597C63.2472 31.0421 63.3956 30.905 63.5016 30.7091C63.6076 30.5132 63.65 30.2977 63.65 30.043C63.65 29.7884 63.6076 29.5729 63.5016 29.377C63.3956 29.1811 63.2684 29.0243 63.0776 28.9264C62.908 28.8089 62.6961 28.7697 62.4629 28.7697C62.2509 28.7697 62.0601 28.8284 61.8905 28.9264C61.7209 29.0439 61.5937 29.1811 61.5089 29.377C61.4241 29.5729 61.3605 29.7884 61.3605 30.043C61.3605 30.2977 61.4029 30.5132 61.5089 30.7091C61.5937 30.905 61.7209 31.0617 61.8905 31.1597C62.0601 31.2576 62.2509 31.3164 62.4629 31.3164Z" fill="#515D6C"/>
<path d="M64.8372 31.5708V28.4951H65.2399V31.5708H64.8372ZM65.0067 29.886C65.0067 29.553 65.0703 29.2787 65.2187 29.0828C65.3459 28.8869 65.5367 28.7302 65.7487 28.6322C65.9607 28.5343 66.1939 28.4951 66.4271 28.4951V28.8281C66.2363 28.8281 66.0455 28.8673 65.8547 28.9261C65.6851 28.9849 65.5367 29.1024 65.4095 29.2395C65.3035 29.3963 65.2399 29.5922 65.2399 29.8468L65.0067 29.886Z" fill="#515D6C"/>
<path d="M67.2114 27.692C67.1478 27.692 67.0842 27.6724 67.0206 27.6136C66.957 27.5548 66.9358 27.5156 66.9358 27.4373C66.9358 27.3589 66.957 27.3002 67.0206 27.261C67.0842 27.2218 67.1266 27.1826 67.2114 27.1826C67.2962 27.1826 67.3598 27.2022 67.4022 27.261C67.4446 27.3002 67.487 27.3589 67.487 27.4373C67.487 27.4961 67.4658 27.5548 67.4022 27.6136C67.3598 27.6724 67.2962 27.692 67.2114 27.692ZM66.9994 31.5708L67.0206 28.4952H67.4234L67.4022 31.5708H66.9994Z" fill="#515D6C"/>
<path d="M69.5855 31.6493C69.3311 31.6493 69.1191 31.6101 68.9284 31.5514C68.7376 31.473 68.5892 31.3946 68.4832 31.2771C68.3772 31.1596 68.2924 31.042 68.25 30.9245L68.6104 30.8069C68.6952 30.9637 68.8012 31.0812 68.9708 31.1791C69.1403 31.2771 69.3099 31.3163 69.5007 31.3163C69.7339 31.3163 69.9459 31.2771 70.0943 31.1791C70.2639 31.0812 70.3487 30.9637 70.3487 30.8069C70.3487 30.6502 70.2851 30.5327 70.1791 30.4347C70.0519 30.3368 69.8823 30.2584 69.6491 30.1996L69.3311 30.1213C69.0344 30.0429 68.8012 29.945 68.6316 29.8078C68.462 29.6707 68.3984 29.514 68.3984 29.3377C68.3984 29.0634 68.5044 28.8283 68.6952 28.6716C68.9072 28.5149 69.2039 28.4365 69.6067 28.4365C69.7975 28.4365 69.9671 28.4561 70.1155 28.5149C70.2639 28.5737 70.3911 28.6324 70.5183 28.7304C70.6243 28.8283 70.709 28.9459 70.7514 29.0634L70.3911 29.2005C70.3275 29.0438 70.2215 28.9263 70.0731 28.8675C69.9459 28.8087 69.7551 28.7696 69.5431 28.7696C69.3099 28.7696 69.1191 28.8087 68.992 28.9067C68.8648 29.0046 68.78 29.1222 68.78 29.2985C68.78 29.3964 68.8436 29.4748 68.9496 29.5728C69.0555 29.6707 69.2251 29.7295 69.4371 29.7882L69.7339 29.847C69.9459 29.9058 70.1367 29.9646 70.2851 30.0625C70.4335 30.1605 70.5607 30.2584 70.6455 30.3759C70.7302 30.4935 70.7726 30.6306 70.7726 30.7677C70.7726 30.9441 70.7302 31.1204 70.6243 31.2379C70.5183 31.375 70.3911 31.473 70.2003 31.5514C70.0095 31.6101 69.7975 31.6493 69.5855 31.6493Z" fill="#515D6C"/>
<path d="M72.9775 31.6494C72.6595 31.6494 72.3839 31.5711 72.1296 31.4339C71.8752 31.2968 71.6844 31.1009 71.5572 30.8658C71.4088 30.6307 71.3452 30.3369 71.3452 30.0234C71.3452 29.71 71.4088 29.4357 71.5572 29.1811C71.6844 28.946 71.8752 28.7501 72.1296 28.613C72.3627 28.4758 72.6383 28.3975 72.9563 28.3975C73.2743 28.3975 73.5287 28.4758 73.7619 28.613C73.995 28.7501 74.1434 28.946 74.2706 29.2007C74.3766 29.4553 74.4402 29.7296 74.4402 30.0626H74.0374C74.0374 29.8079 73.995 29.5729 73.9102 29.377C73.8255 29.1811 73.7195 29.0243 73.5499 28.9068C73.3803 28.7893 73.1895 28.7305 72.9563 28.7305C72.7231 28.7305 72.5111 28.7893 72.3203 28.8872C72.1296 29.0048 72.0024 29.1419 71.8964 29.3378C71.7904 29.5337 71.748 29.7492 71.748 30.0039C71.748 30.2585 71.8116 30.474 71.9176 30.6699C72.0236 30.8658 72.172 31.0029 72.3627 31.1205C72.5535 31.238 72.7655 31.2772 72.9987 31.2772C73.2531 31.2772 73.4651 31.2184 73.6559 31.1009C73.8255 30.9834 73.9738 30.8266 74.0798 30.6503L74.419 30.8462C74.3342 31.0029 74.2282 31.1401 74.0798 31.2576C73.9527 31.3752 73.7831 31.4731 73.6135 31.5319C73.4015 31.6102 73.2107 31.6494 72.9775 31.6494ZM71.6208 30.0626V29.7296H74.1434V30.0626H71.6208Z" fill="#515D6C"/>
<path d="M78.2771 31.6494C77.9591 31.6494 77.6835 31.5711 77.4291 31.4339C77.1747 31.2968 76.984 31.1009 76.8568 30.8658C76.7084 30.6307 76.6448 30.3369 76.6448 30.0234C76.6448 29.71 76.7084 29.4357 76.8568 29.1811C76.984 28.946 77.1959 28.7501 77.4291 28.613C77.6835 28.4758 77.9591 28.3975 78.2771 28.3975C78.5951 28.3975 78.8706 28.4562 79.125 28.5934C79.3794 28.7305 79.549 28.9068 79.6974 29.1223L79.3582 29.2986C79.2522 29.1223 79.1038 28.9852 78.9342 28.8872C78.7434 28.7893 78.5315 28.7305 78.2983 28.7305C78.0651 28.7305 77.8531 28.7893 77.6623 28.8872C77.4715 29.0048 77.3443 29.1419 77.2383 29.3378C77.1323 29.5337 77.0899 29.7492 77.0899 30.0039C77.0899 30.2585 77.1535 30.474 77.2595 30.6699C77.3655 30.8658 77.5139 31.0029 77.7047 31.1205C77.8955 31.238 78.1075 31.2772 78.3407 31.2772C78.5739 31.2772 78.7858 31.2184 78.9766 31.1009C79.1674 30.9834 79.2946 30.8266 79.4006 30.6307L79.761 30.807C79.6338 31.0617 79.443 31.2576 79.1886 31.3948C78.8706 31.5711 78.5951 31.6494 78.2771 31.6494Z" fill="#515D6C"/>
<path d="M81.8596 31.6494C81.5416 31.6494 81.266 31.5711 81.0116 31.4339C80.7573 31.2968 80.5665 31.1009 80.4393 30.8658C80.2909 30.6307 80.2273 30.3369 80.2273 30.0234C80.2273 29.71 80.2909 29.4357 80.4393 29.1811C80.5665 28.946 80.7785 28.7501 81.0116 28.613C81.266 28.4758 81.5416 28.3975 81.8596 28.3975C82.1776 28.3975 82.4532 28.4758 82.7075 28.613C82.9619 28.7501 83.1527 28.946 83.2799 29.1811C83.4071 29.4161 83.4919 29.71 83.4919 30.0234C83.4919 30.3369 83.4283 30.6111 83.2799 30.8658C83.1527 31.1009 82.9619 31.2968 82.7075 31.4339C82.4532 31.5711 82.1776 31.6494 81.8596 31.6494ZM81.8596 31.2968C82.0928 31.2968 82.3048 31.238 82.4956 31.1401C82.6863 31.0225 82.8135 30.8854 82.9195 30.6895C83.0255 30.4936 83.0679 30.2781 83.0679 30.0234C83.0679 29.7688 83.0255 29.5533 82.9195 29.3574C82.8135 29.1615 82.6651 29.0243 82.4744 28.9068C82.2836 28.7893 82.0716 28.7501 81.8384 28.7501C81.6052 28.7501 81.3932 28.8089 81.2024 28.9068C81.0116 29.0243 80.8845 29.1615 80.7785 29.3574C80.6725 29.5533 80.6301 29.7688 80.6301 30.0234C80.6301 30.2781 80.6937 30.4936 80.7997 30.6895C80.9057 30.8854 81.054 31.0225 81.2448 31.1401C81.4144 31.2576 81.6264 31.2968 81.8596 31.2968Z" fill="#515D6C"/>
<path d="M84.2764 31.5711V28.4954H84.6579L84.6791 29.0635V31.5711H84.2764ZM86.6718 29.9843C86.6718 29.6512 86.6294 29.377 86.5446 29.2007C86.4598 29.0243 86.3326 28.9068 86.1843 28.848C86.0359 28.7893 85.8663 28.7501 85.6755 28.7501C85.3575 28.7501 85.1243 28.848 84.9335 29.0635C84.7639 29.279 84.6579 29.5729 84.6579 29.9647H84.4036C84.4036 29.6316 84.446 29.3574 84.5519 29.1223C84.6579 28.8872 84.8063 28.7109 84.9971 28.5934C85.1879 28.4758 85.4423 28.3975 85.7179 28.3975C86.1207 28.3975 86.4386 28.515 86.6718 28.7501C86.905 28.9852 87.0322 29.3378 87.0322 29.7884L86.6718 29.9843ZM86.6718 31.5711V30.0039L87.0746 29.8275V31.5907H86.6718V31.5711Z" fill="#515D6C"/>
<path d="M87.6045 28.8281V28.4951H89.6608V28.8281H87.6045ZM89.1732 31.6491C88.8764 31.6491 88.622 31.5707 88.4524 31.4336C88.2828 31.2769 88.1981 31.081 88.1981 30.7871V27.5352H88.6008V30.7871C88.6008 30.9438 88.6432 31.081 88.7492 31.1789C88.8552 31.2769 89.0036 31.3161 89.1732 31.3161C89.2368 31.3161 89.2792 31.3161 89.3216 31.2965C89.364 31.2769 89.4488 31.2377 89.5548 31.1789L89.7244 31.4924C89.5972 31.5511 89.5124 31.5903 89.4276 31.6099C89.3428 31.6295 89.258 31.6491 89.1732 31.6491Z" fill="#515D6C"/>
<path d="M91.8442 31.6494C91.5262 31.6494 91.2506 31.5711 90.9963 31.4339C90.7419 31.2968 90.5511 31.1009 90.4239 30.8658C90.2755 30.6307 90.2119 30.3369 90.2119 30.0234C90.2119 29.71 90.2755 29.4357 90.4239 29.1811C90.5511 28.946 90.7419 28.7501 90.9963 28.613C91.2294 28.4758 91.505 28.3975 91.823 28.3975C92.141 28.3975 92.3954 28.4758 92.6286 28.613C92.8405 28.7501 93.0101 28.946 93.1373 29.2007C93.2433 29.4553 93.3069 29.7296 93.3069 30.0626H92.9041C92.9041 29.8079 92.8617 29.5729 92.7769 29.377C92.6922 29.1811 92.5862 29.0243 92.4166 28.9068C92.247 28.7893 92.0562 28.7305 91.823 28.7305C91.5898 28.7305 91.3778 28.7893 91.187 28.8872C90.9963 29.0048 90.8691 29.1419 90.7631 29.3378C90.6571 29.5337 90.6147 29.7492 90.6147 30.0039C90.6147 30.2585 90.6783 30.474 90.7843 30.6699C90.8903 30.8658 91.0387 31.0029 91.2294 31.1205C91.4202 31.238 91.6322 31.2772 91.8654 31.2772C92.1198 31.2772 92.3318 31.2184 92.5226 31.1009C92.6922 30.9834 92.8405 30.8266 92.9465 30.6503L93.2857 30.8462C93.2009 31.0029 93.0949 31.1401 92.9465 31.2576C92.8193 31.3752 92.6498 31.4731 92.4802 31.5319C92.2682 31.6102 92.0774 31.6494 91.8442 31.6494ZM90.4875 30.0626V29.7296H93.0101V30.0626H90.4875Z" fill="#515D6C"/>
<path d="M94.0278 31.5711V28.4954H94.4094L94.4306 29.0635V31.5711H94.0278ZM96.4233 29.9843C96.4233 29.6512 96.3809 29.377 96.2961 29.2007C96.2113 29.0243 96.0841 28.9068 95.9357 28.848C95.7873 28.7893 95.6177 28.7501 95.4269 28.7501C95.109 28.7501 94.8758 28.848 94.685 29.0635C94.5154 29.279 94.4094 29.5729 94.4094 29.9647H94.155C94.155 29.6316 94.1974 29.3574 94.3034 29.1223C94.4094 28.8872 94.5578 28.7109 94.7486 28.5934C94.9394 28.4758 95.1938 28.3975 95.4693 28.3975C95.8721 28.3975 96.1901 28.515 96.4233 28.7501C96.6565 28.9852 96.7837 29.3378 96.7837 29.7884L96.4233 29.9843ZM96.4233 31.5711V30.0039L96.8261 29.8275V31.5907H96.4233V31.5711Z" fill="#515D6C"/>
<path d="M97.356 28.8281V28.4951H99.4122V28.8281H97.356ZM98.9247 31.6491C98.6279 31.6491 98.3735 31.5707 98.2039 31.4336C98.0343 31.2769 97.9495 31.081 97.9495 30.7871V27.5352H98.3523V30.7871C98.3523 30.9438 98.3947 31.081 98.5007 31.1789C98.6067 31.2769 98.7551 31.3161 98.9247 31.3161C98.9883 31.3161 99.0307 31.3161 99.073 31.2965C99.1154 31.2769 99.2002 31.2377 99.3062 31.1789L99.4758 31.4924C99.3486 31.5511 99.2638 31.5903 99.179 31.6099C99.0942 31.6295 99.0095 31.6491 98.9247 31.6491Z" fill="#515D6C"/>
<path d="M102.868 31.6495C102.486 31.6495 102.168 31.5711 101.956 31.3948C101.744 31.2381 101.617 31.003 101.617 30.7092C101.617 30.4153 101.723 30.1606 101.956 30.0039C102.168 29.8276 102.486 29.7492 102.868 29.7492H103.864V30.0823H102.91C102.592 30.0823 102.359 30.141 102.211 30.239C102.062 30.3565 101.999 30.4937 101.999 30.6896C101.999 30.8855 102.062 31.0226 102.211 31.1401C102.359 31.2381 102.55 31.2969 102.804 31.2969C103.016 31.2969 103.207 31.2577 103.355 31.1597C103.504 31.0814 103.631 30.9442 103.694 30.7875C103.779 30.6308 103.822 30.4545 103.822 30.239H104.182C104.182 30.6504 104.055 31.003 103.822 31.2577C103.631 31.5124 103.313 31.6495 102.868 31.6495ZM103.906 31.5711L103.864 31.101V29.906C103.864 29.6513 103.822 29.4358 103.758 29.2595C103.694 29.0832 103.588 28.9656 103.461 28.8677C103.334 28.7893 103.143 28.7306 102.931 28.7306C102.719 28.7306 102.528 28.7697 102.38 28.8481C102.232 28.9265 102.105 29.044 102.02 29.2007L101.659 29.044C101.765 28.8873 101.871 28.7697 101.999 28.6718C102.126 28.5738 102.274 28.4955 102.422 28.4563C102.571 28.4171 102.762 28.3779 102.931 28.3779C103.228 28.3779 103.482 28.4367 103.673 28.5347C103.864 28.6522 104.012 28.8089 104.118 29.0244C104.224 29.2399 104.267 29.5337 104.267 29.8668V31.5124H103.906V31.5711Z" fill="#515D6C"/>
<path d="M105.178 31.5711V28.4954H105.56L105.581 29.0635V31.5711H105.178ZM107.552 29.9843C107.552 29.6512 107.51 29.377 107.425 29.2007C107.34 29.0243 107.213 28.9068 107.065 28.848C106.917 28.7893 106.747 28.7501 106.556 28.7501C106.238 28.7501 106.005 28.848 105.814 29.0635C105.645 29.279 105.539 29.5729 105.539 29.9647H105.284C105.284 29.6316 105.327 29.3574 105.433 29.1223C105.539 28.8872 105.687 28.7109 105.878 28.5934C106.069 28.4758 106.323 28.3975 106.599 28.3975C107.001 28.3975 107.319 28.515 107.552 28.7501C107.786 28.9852 107.913 29.3378 107.913 29.7884L107.552 29.9843ZM107.552 31.5711V30.0039L107.955 29.8275V31.5907H107.552V31.5711Z" fill="#515D6C"/>
<path d="M110.16 31.6489C109.863 31.6489 109.609 31.5706 109.376 31.4334C109.142 31.2963 108.973 31.1004 108.846 30.8653C108.718 30.6302 108.655 30.3364 108.655 30.023C108.655 29.7095 108.718 29.4352 108.846 29.1806C108.973 28.9455 109.142 28.7496 109.376 28.6125C109.609 28.4753 109.863 28.397 110.16 28.397C110.435 28.397 110.69 28.4753 110.902 28.6125C111.114 28.7496 111.283 28.9455 111.411 29.1806C111.538 29.4157 111.601 29.7095 111.601 30.023C111.601 30.3364 111.538 30.6107 111.411 30.8653C111.283 31.1004 111.114 31.2963 110.902 31.4334C110.69 31.5706 110.457 31.6489 110.16 31.6489ZM110.245 31.3159C110.457 31.3159 110.647 31.2571 110.817 31.1592C110.987 31.0416 111.114 30.9045 111.199 30.7086C111.283 30.5127 111.347 30.2972 111.347 30.0425C111.347 29.7879 111.305 29.5724 111.199 29.3765C111.114 29.1806 110.987 29.0239 110.817 28.9259C110.647 28.8084 110.457 28.7692 110.245 28.7692C110.012 28.7692 109.8 28.828 109.63 28.9259C109.46 29.0434 109.312 29.1806 109.206 29.3765C109.1 29.5724 109.058 29.7879 109.058 30.0425C109.058 30.2972 109.1 30.5127 109.206 30.7086C109.312 30.9045 109.439 31.0612 109.63 31.1592C109.8 31.2571 110.012 31.3159 110.245 31.3159ZM111.347 31.5706L111.326 31.0025V27.2607H111.729V31.5706H111.347Z" fill="#515D6C"/>
<path d="M114.4 31.5706V27.2607H114.802V31.0025L114.781 31.5706H114.4ZM115.968 31.6489C115.693 31.6489 115.438 31.5706 115.226 31.4334C115.014 31.2963 114.845 31.1004 114.718 30.8653C114.59 30.6302 114.527 30.3364 114.527 30.023C114.527 29.7095 114.59 29.4352 114.718 29.1806C114.845 28.9455 115.014 28.7496 115.226 28.6125C115.438 28.4753 115.693 28.397 115.968 28.397C116.265 28.397 116.52 28.4753 116.753 28.6125C116.986 28.7496 117.155 28.9455 117.283 29.1806C117.41 29.4157 117.473 29.7095 117.473 30.023C117.473 30.3364 117.41 30.6107 117.283 30.8653C117.155 31.1004 116.986 31.2963 116.753 31.4334C116.52 31.5706 116.265 31.6489 115.968 31.6489ZM115.884 31.3159C116.117 31.3159 116.329 31.2571 116.498 31.1592C116.668 31.0416 116.816 30.9045 116.922 30.7086C117.028 30.5127 117.071 30.2972 117.071 30.0425C117.071 29.7879 117.028 29.5724 116.922 29.3765C116.816 29.1806 116.689 29.0239 116.498 28.9259C116.329 28.8084 116.117 28.7692 115.884 28.7692C115.672 28.7692 115.481 28.828 115.311 28.9259C115.142 29.0434 115.014 29.1806 114.93 29.3765C114.845 29.5724 114.781 29.7879 114.781 30.0425C114.781 30.2972 114.824 30.5127 114.93 30.7086C115.014 30.9045 115.142 31.0612 115.311 31.1592C115.481 31.2571 115.672 31.3159 115.884 31.3159Z" fill="#515D6C"/>
<path d="M118.576 30.0623C118.576 30.3954 118.618 30.6696 118.703 30.8459C118.788 31.0222 118.915 31.1398 119.063 31.1986C119.212 31.2573 119.381 31.2965 119.572 31.2965C119.89 31.2965 120.123 31.179 120.314 30.9831C120.484 30.7676 120.59 30.4737 120.59 30.0819H120.844C120.844 30.4149 120.802 30.6892 120.696 30.9243C120.59 31.1594 120.441 31.3357 120.251 31.4532C120.06 31.5708 119.805 31.6491 119.53 31.6491C119.127 31.6491 118.809 31.5316 118.576 31.2965C118.343 31.0614 118.215 30.7088 118.215 30.2582L118.576 30.0623ZM118.173 30.2582V28.4951H118.576V30.0623L118.173 30.2582ZM120.59 31.5708L120.569 31.0027V28.4951H120.971V31.5708H120.59Z" fill="#515D6C"/>
<path d="M123.091 31.6493C122.837 31.6493 122.625 31.6101 122.434 31.5514C122.243 31.473 122.095 31.3946 121.989 31.2771C121.883 31.1596 121.798 31.042 121.756 30.9245L122.116 30.8069C122.201 30.9637 122.307 31.0812 122.476 31.1791C122.646 31.2771 122.816 31.3163 123.006 31.3163C123.24 31.3163 123.452 31.2771 123.6 31.1791C123.769 31.0812 123.854 30.9637 123.854 30.8069C123.854 30.6502 123.791 30.5327 123.685 30.4347C123.579 30.3368 123.388 30.2584 123.155 30.1996L122.837 30.1213C122.54 30.0429 122.307 29.945 122.137 29.8078C121.968 29.6707 121.904 29.514 121.904 29.3377C121.904 29.0634 122.01 28.8283 122.201 28.6716C122.413 28.5149 122.71 28.4365 123.112 28.4365C123.303 28.4365 123.473 28.4561 123.621 28.5149C123.769 28.5737 123.897 28.6324 124.024 28.7304C124.13 28.8283 124.215 28.9459 124.257 29.0634L123.897 29.2005C123.833 29.0438 123.727 28.9263 123.579 28.8675C123.452 28.8087 123.261 28.7696 123.049 28.7696C122.816 28.7696 122.625 28.8087 122.498 28.9067C122.37 29.0046 122.286 29.1222 122.286 29.2985C122.286 29.3964 122.349 29.4748 122.455 29.5728C122.561 29.6707 122.731 29.7295 122.943 29.7882L123.24 29.847C123.452 29.9058 123.642 29.9646 123.791 30.0625C123.939 30.1605 124.066 30.2584 124.151 30.3759C124.236 30.4935 124.278 30.6306 124.278 30.7677C124.278 30.9441 124.236 31.1204 124.13 31.2379C124.024 31.375 123.897 31.473 123.706 31.5514C123.515 31.6101 123.324 31.6493 123.091 31.6493Z" fill="#515D6C"/>
<path d="M125.296 27.692C125.232 27.692 125.169 27.6724 125.105 27.6136C125.041 27.5548 125.02 27.5156 125.02 27.4373C125.02 27.3589 125.041 27.3002 125.105 27.261C125.169 27.2218 125.211 27.1826 125.296 27.1826C125.381 27.1826 125.444 27.2022 125.487 27.261C125.529 27.3002 125.571 27.3589 125.571 27.4373C125.571 27.4961 125.55 27.5548 125.487 27.6136C125.444 27.6724 125.381 27.692 125.296 27.692ZM125.084 31.5708L125.105 28.4952H125.508L125.487 31.5708H125.084Z" fill="#515D6C"/>
<path d="M126.525 31.5711V28.4954H126.907L126.928 29.0635V31.5711H126.525ZM128.921 29.9843C128.921 29.6512 128.878 29.377 128.794 29.2007C128.709 29.0243 128.582 28.9068 128.433 28.848C128.285 28.7893 128.115 28.7501 127.925 28.7501C127.607 28.7501 127.373 28.848 127.183 29.0635C127.013 29.279 126.907 29.5729 126.907 29.9647H126.653C126.653 29.6316 126.695 29.3574 126.801 29.1223C126.907 28.8872 127.055 28.7109 127.246 28.5934C127.437 28.4758 127.691 28.3975 127.967 28.3975C128.37 28.3975 128.688 28.515 128.921 28.7501C129.154 28.9852 129.281 29.3378 129.281 29.7884L128.921 29.9843ZM128.921 31.5711V30.0039L129.324 29.8275V31.5907H128.921V31.5711Z" fill="#515D6C"/>
<path d="M131.655 31.6494C131.338 31.6494 131.062 31.5711 130.808 31.4339C130.553 31.2968 130.362 31.1009 130.235 30.8658C130.087 30.6307 130.023 30.3369 130.023 30.0234C130.023 29.71 130.087 29.4357 130.235 29.1811C130.362 28.946 130.553 28.7501 130.808 28.613C131.041 28.4758 131.316 28.3975 131.634 28.3975C131.952 28.3975 132.207 28.4758 132.44 28.613C132.652 28.7501 132.821 28.946 132.949 29.2007C133.055 29.4553 133.118 29.7296 133.118 30.0626H132.715C132.715 29.8079 132.673 29.5729 132.588 29.377C132.503 29.1811 132.397 29.0243 132.228 28.9068C132.058 28.7893 131.867 28.7305 131.634 28.7305C131.401 28.7305 131.189 28.7893 130.998 28.8872C130.808 29.0048 130.68 29.1419 130.574 29.3378C130.468 29.5337 130.426 29.7492 130.426 30.0039C130.426 30.2585 130.49 30.474 130.596 30.6699C130.702 30.8658 130.85 31.0029 131.041 31.1205C131.232 31.238 131.444 31.2772 131.677 31.2772C131.931 31.2772 132.143 31.2184 132.334 31.1009C132.503 30.9834 132.652 30.8266 132.758 30.6503L133.097 30.8462C133.012 31.0029 132.906 31.1401 132.758 31.2576C132.631 31.3752 132.461 31.4731 132.291 31.5319C132.079 31.6102 131.867 31.6494 131.655 31.6494ZM130.299 30.0626V29.7296H132.821V30.0626H130.299Z" fill="#515D6C"/>
<path d="M134.962 31.6493C134.708 31.6493 134.496 31.6101 134.305 31.5514C134.115 31.473 133.966 31.3946 133.86 31.2771C133.754 31.1596 133.669 31.042 133.627 30.9245L133.987 30.8069C134.072 30.9637 134.178 31.0812 134.348 31.1791C134.517 31.2771 134.687 31.3163 134.878 31.3163C135.111 31.3163 135.323 31.2771 135.471 31.1791C135.641 31.0812 135.726 30.9637 135.726 30.8069C135.726 30.6502 135.662 30.5327 135.556 30.4347C135.429 30.3368 135.259 30.2584 135.026 30.1996L134.708 30.1213C134.411 30.0429 134.178 29.945 134.009 29.8078C133.839 29.6707 133.775 29.514 133.775 29.3377C133.775 29.0634 133.881 28.8283 134.072 28.6716C134.284 28.5149 134.581 28.4365 134.984 28.4365C135.174 28.4365 135.344 28.4561 135.492 28.5149C135.641 28.5737 135.768 28.6324 135.895 28.7304C136.001 28.8283 136.086 28.9459 136.128 29.0634L135.768 29.2005C135.704 29.0438 135.598 28.9263 135.45 28.8675C135.323 28.8087 135.132 28.7696 134.92 28.7696C134.687 28.7696 134.496 28.8087 134.369 28.9067C134.242 29.0046 134.157 29.1222 134.157 29.2985C134.157 29.3964 134.221 29.4748 134.327 29.5728C134.433 29.6707 134.602 29.7295 134.814 29.7882L135.111 29.847C135.323 29.9058 135.514 29.9646 135.662 30.0625C135.81 30.1605 135.938 30.2584 136.022 30.3759C136.107 30.4935 136.15 30.6306 136.15 30.7677C136.15 30.9441 136.107 31.1204 136.001 31.2379C135.895 31.375 135.768 31.473 135.577 31.5514C135.386 31.6101 135.196 31.6493 134.962 31.6493Z" fill="#515D6C"/>
<path d="M138.057 31.6493C137.803 31.6493 137.591 31.6101 137.4 31.5514C137.209 31.473 137.061 31.3946 136.955 31.2771C136.849 31.1596 136.764 31.042 136.722 30.9245L137.082 30.8069C137.167 30.9637 137.273 31.0812 137.443 31.1791C137.612 31.2771 137.782 31.3163 137.973 31.3163C138.206 31.3163 138.418 31.2771 138.566 31.1791C138.736 31.0812 138.821 30.9637 138.821 30.8069C138.821 30.6502 138.757 30.5327 138.651 30.4347C138.524 30.3368 138.354 30.2584 138.121 30.1996L137.803 30.1213C137.506 30.0429 137.273 29.945 137.104 29.8078C136.934 29.6707 136.87 29.514 136.87 29.3377C136.87 29.0634 136.976 28.8283 137.167 28.6716C137.379 28.5149 137.676 28.4365 138.079 28.4365C138.269 28.4365 138.439 28.4561 138.587 28.5149C138.736 28.5737 138.863 28.6324 138.99 28.7304C139.096 28.8283 139.181 28.9459 139.223 29.0634L138.863 29.2005C138.799 29.0438 138.693 28.9263 138.545 28.8675C138.418 28.8087 138.227 28.7696 138.015 28.7696C137.782 28.7696 137.591 28.8087 137.464 28.9067C137.337 29.0046 137.252 29.1222 137.252 29.2985C137.252 29.3964 137.315 29.4748 137.421 29.5728C137.527 29.6707 137.697 29.7295 137.909 29.7882L138.206 29.847C138.418 29.9058 138.609 29.9646 138.757 30.0625C138.905 30.1605 139.033 30.2584 139.117 30.3759C139.202 30.4935 139.245 30.6306 139.245 30.7677C139.245 30.9441 139.202 31.1204 139.096 31.2379C138.99 31.375 138.863 31.473 138.672 31.5514C138.503 31.6101 138.291 31.6493 138.057 31.6493Z" fill="#515D6C"/>
<path d="M141.746 32.8052V28.4954H142.128L142.149 29.0635V32.8052H141.746ZM143.315 31.6494C143.039 31.6494 142.785 31.5711 142.573 31.4339C142.361 31.2968 142.191 31.1009 142.064 30.8658C141.937 30.6307 141.873 30.3369 141.873 30.0234C141.873 29.71 141.937 29.4357 142.064 29.1811C142.191 28.946 142.361 28.7501 142.573 28.613C142.785 28.4758 143.039 28.3975 143.315 28.3975C143.612 28.3975 143.866 28.4758 144.099 28.613C144.332 28.7501 144.502 28.946 144.629 29.1811C144.756 29.4161 144.82 29.71 144.82 30.0234C144.82 30.3369 144.756 30.6111 144.629 30.8658C144.502 31.1009 144.332 31.2968 144.099 31.4339C143.866 31.5711 143.59 31.6494 143.315 31.6494ZM143.23 31.3164C143.463 31.3164 143.675 31.2576 143.845 31.1597C144.014 31.0421 144.163 30.905 144.269 30.7091C144.375 30.5132 144.417 30.2977 144.417 30.043C144.417 29.7884 144.375 29.5729 144.269 29.377C144.163 29.1811 144.036 29.0243 143.845 28.9264C143.675 28.8089 143.463 28.7697 143.23 28.7697C143.018 28.7697 142.827 28.8284 142.658 28.9264C142.488 29.0439 142.361 29.1811 142.276 29.377C142.191 29.5729 142.128 29.7884 142.128 30.043C142.128 30.2977 142.17 30.5132 142.276 30.7091C142.361 30.905 142.488 31.0617 142.658 31.1597C142.827 31.2576 143.018 31.3164 143.23 31.3164Z" fill="#515D6C"/>
<path d="M145.604 31.5708V28.4951H146.007V31.5708H145.604ZM145.774 29.886C145.774 29.553 145.837 29.2787 145.986 29.0828C146.113 28.8869 146.304 28.7302 146.516 28.6322C146.728 28.5343 146.961 28.4951 147.194 28.4951V28.8281C147.003 28.8281 146.813 28.8673 146.622 28.9261C146.452 28.9849 146.304 29.1024 146.177 29.2395C146.071 29.3963 146.007 29.5922 146.007 29.8468L145.774 29.886Z" fill="#515D6C"/>
<path d="M149.187 31.6494C148.869 31.6494 148.593 31.5711 148.339 31.4339C148.084 31.2968 147.894 31.1009 147.766 30.8658C147.618 30.6307 147.554 30.3369 147.554 30.0234C147.554 29.71 147.618 29.4357 147.766 29.1811C147.894 28.946 148.106 28.7501 148.339 28.613C148.593 28.4758 148.869 28.3975 149.187 28.3975C149.505 28.3975 149.78 28.4758 150.035 28.613C150.289 28.7501 150.48 28.946 150.607 29.1811C150.734 29.4161 150.819 29.71 150.819 30.0234C150.819 30.3369 150.755 30.6111 150.607 30.8658C150.48 31.1009 150.289 31.2968 150.035 31.4339C149.78 31.5711 149.505 31.6494 149.187 31.6494ZM149.187 31.2968C149.42 31.2968 149.632 31.238 149.823 31.1401C150.013 31.0225 150.141 30.8854 150.247 30.6895C150.353 30.4936 150.395 30.2781 150.395 30.0234C150.395 29.7688 150.353 29.5533 150.247 29.3574C150.141 29.1615 149.992 29.0243 149.801 28.9068C149.611 28.7893 149.399 28.7501 149.166 28.7501C148.932 28.7501 148.72 28.8089 148.53 28.9068C148.339 29.0243 148.212 29.1615 148.106 29.3574C148 29.5533 147.957 29.7688 147.957 30.0234C147.957 30.2781 148.021 30.4936 148.127 30.6895C148.233 30.8854 148.381 31.0225 148.572 31.1401C148.742 31.2576 148.954 31.2968 149.187 31.2968Z" fill="#515D6C"/>
<path d="M153.045 31.6494C152.727 31.6494 152.451 31.5711 152.197 31.4339C151.943 31.2968 151.752 31.1009 151.625 30.8658C151.476 30.6307 151.413 30.3369 151.413 30.0234C151.413 29.71 151.476 29.4357 151.625 29.1811C151.752 28.946 151.964 28.7501 152.197 28.613C152.451 28.4758 152.727 28.3975 153.045 28.3975C153.363 28.3975 153.638 28.4562 153.893 28.5934C154.147 28.7305 154.317 28.9068 154.465 29.1223L154.126 29.2986C154.02 29.1223 153.872 28.9852 153.702 28.8872C153.511 28.7893 153.299 28.7305 153.066 28.7305C152.833 28.7305 152.621 28.7893 152.43 28.8872C152.239 29.0048 152.112 29.1419 152.006 29.3378C151.9 29.5337 151.858 29.7492 151.858 30.0039C151.858 30.2585 151.921 30.474 152.027 30.6699C152.133 30.8658 152.282 31.0029 152.473 31.1205C152.663 31.238 152.875 31.2772 153.108 31.2772C153.342 31.2772 153.554 31.2184 153.744 31.1009C153.935 30.9834 154.062 30.8266 154.168 30.6307L154.529 30.807C154.402 31.0617 154.211 31.2576 153.956 31.3948C153.66 31.5711 153.363 31.6494 153.045 31.6494Z" fill="#515D6C"/>
<path d="M156.627 31.6494C156.309 31.6494 156.034 31.5711 155.779 31.4339C155.525 31.2968 155.334 31.1009 155.207 30.8658C155.059 30.6307 154.995 30.3369 154.995 30.0234C154.995 29.71 155.059 29.4357 155.207 29.1811C155.334 28.946 155.525 28.7501 155.779 28.613C156.013 28.4758 156.288 28.3975 156.606 28.3975C156.924 28.3975 157.179 28.4758 157.412 28.613C157.624 28.7501 157.793 28.946 157.921 29.2007C158.027 29.4553 158.09 29.7296 158.09 30.0626H157.687C157.687 29.8079 157.645 29.5729 157.56 29.377C157.475 29.1811 157.369 29.0243 157.2 28.9068C157.03 28.7893 156.839 28.7305 156.606 28.7305C156.373 28.7305 156.161 28.7893 155.97 28.8872C155.779 29.0048 155.652 29.1419 155.546 29.3378C155.44 29.5337 155.398 29.7492 155.398 30.0039C155.398 30.2585 155.461 30.474 155.567 30.6699C155.673 30.8658 155.822 31.0029 156.013 31.1205C156.203 31.238 156.415 31.2772 156.649 31.2772C156.903 31.2772 157.115 31.2184 157.306 31.1009C157.475 30.9834 157.624 30.8266 157.73 30.6503L158.069 30.8462C157.984 31.0029 157.878 31.1401 157.73 31.2576C157.603 31.3752 157.433 31.4731 157.263 31.5319C157.051 31.6102 156.861 31.6494 156.627 31.6494ZM155.271 30.0626V29.7296H157.793V30.0626H155.271Z" fill="#515D6C"/>
<path d="M159.956 31.6493C159.701 31.6493 159.489 31.6101 159.298 31.5514C159.108 31.473 158.959 31.3946 158.853 31.2771C158.747 31.1596 158.663 31.042 158.62 30.9245L158.98 30.8069C159.065 30.9637 159.171 31.0812 159.341 31.1791C159.51 31.2771 159.68 31.3163 159.871 31.3163C160.104 31.3163 160.316 31.2771 160.464 31.1791C160.634 31.0812 160.719 30.9637 160.719 30.8069C160.719 30.6502 160.655 30.5327 160.549 30.4347C160.422 30.3368 160.252 30.2584 160.019 30.1996L159.701 30.1213C159.404 30.0429 159.171 29.945 159.002 29.8078C158.832 29.6707 158.768 29.514 158.768 29.3377C158.768 29.0634 158.874 28.8283 159.065 28.6716C159.277 28.5149 159.574 28.4365 159.977 28.4365C160.168 28.4365 160.337 28.4561 160.486 28.5149C160.634 28.5737 160.761 28.6324 160.888 28.7304C160.994 28.8283 161.079 28.9459 161.122 29.0634L160.761 29.2005C160.698 29.0438 160.592 28.9263 160.443 28.8675C160.316 28.8087 160.125 28.7696 159.913 28.7696C159.68 28.7696 159.489 28.8087 159.362 28.9067C159.235 29.0046 159.15 29.1222 159.15 29.2985C159.15 29.3964 159.214 29.4748 159.32 29.5728C159.426 29.6707 159.595 29.7295 159.807 29.7882L160.104 29.847C160.316 29.9058 160.507 29.9646 160.655 30.0625C160.804 30.1605 160.931 30.2584 161.016 30.3759C161.1 30.4935 161.143 30.6306 161.143 30.7677C161.143 30.9441 161.1 31.1204 160.994 31.2379C160.888 31.375 160.761 31.473 160.57 31.5514C160.38 31.6101 160.168 31.6493 159.956 31.6493Z" fill="#515D6C"/>
<path d="M163.051 31.6493C162.796 31.6493 162.584 31.6101 162.394 31.5514C162.203 31.473 162.055 31.3946 161.949 31.2771C161.843 31.1596 161.758 31.042 161.715 30.9245L162.076 30.8069C162.161 30.9637 162.267 31.0812 162.436 31.1791C162.606 31.2771 162.775 31.3163 162.966 31.3163C163.199 31.3163 163.411 31.2771 163.56 31.1791C163.729 31.0812 163.814 30.9637 163.814 30.8069C163.814 30.6502 163.75 30.5327 163.644 30.4347C163.517 30.3368 163.348 30.2584 163.114 30.1996L162.796 30.1213C162.5 30.0429 162.266 29.945 162.097 29.8078C161.927 29.6707 161.864 29.514 161.864 29.3377C161.864 29.0634 161.97 28.8283 162.16 28.6716C162.372 28.5149 162.669 28.4365 163.072 28.4365C163.263 28.4365 163.432 28.4561 163.581 28.5149C163.729 28.5737 163.856 28.6324 163.984 28.7304C164.09 28.8283 164.174 28.9459 164.217 29.0634L163.856 29.2005C163.793 29.0438 163.687 28.9263 163.538 28.8675C163.411 28.8087 163.22 28.7696 163.008 28.7696C162.775 28.7696 162.584 28.8087 162.457 28.9067C162.33 29.0046 162.245 29.1222 162.245 29.2985C162.245 29.3964 162.309 29.4748 162.415 29.5728C162.521 29.6707 162.69 29.7295 162.902 29.7882L163.199 29.847C163.411 29.9058 163.602 29.9646 163.75 30.0625C163.899 30.1605 164.026 30.2584 164.111 30.3759C164.196 30.4935 164.238 30.6306 164.238 30.7677C164.238 30.9441 164.196 31.1204 164.09 31.2379C163.984 31.375 163.856 31.473 163.666 31.5514C163.475 31.6101 163.284 31.6493 163.051 31.6493Z" fill="#515D6C"/>
<path d="M167.736 31.6495C167.354 31.6495 167.036 31.5711 166.824 31.3948C166.612 31.2381 166.485 31.003 166.485 30.7092C166.485 30.4153 166.591 30.1606 166.824 30.0039C167.057 29.8472 167.354 29.7492 167.736 29.7492H168.732V30.0823H167.778C167.46 30.0823 167.227 30.141 167.078 30.239C166.93 30.3565 166.866 30.4937 166.866 30.6896C166.866 30.8855 166.93 31.0226 167.078 31.1401C167.227 31.2381 167.418 31.2969 167.672 31.2969C167.884 31.2969 168.075 31.2577 168.223 31.1597C168.372 31.0814 168.499 30.9442 168.562 30.7875C168.647 30.6308 168.69 30.4545 168.69 30.239H169.05C169.05 30.6504 168.923 31.003 168.69 31.2577C168.499 31.5124 168.16 31.6495 167.736 31.6495ZM168.753 31.5711L168.711 31.101V29.906C168.711 29.6513 168.668 29.4358 168.605 29.2595C168.541 29.0832 168.435 28.9656 168.308 28.8677C168.181 28.7893 167.99 28.7306 167.778 28.7306C167.566 28.7306 167.375 28.7697 167.227 28.8481C167.078 28.9265 166.951 29.044 166.866 29.2007L166.506 29.044C166.612 28.8873 166.718 28.7697 166.845 28.6718C166.972 28.5738 167.121 28.4955 167.269 28.4563C167.418 28.4171 167.608 28.3779 167.778 28.3779C168.075 28.3779 168.329 28.4367 168.52 28.5347C168.711 28.6522 168.859 28.8089 168.965 29.0244C169.071 29.2399 169.114 29.5337 169.114 29.8668V31.5124H168.753V31.5711Z" fill="#515D6C"/>
<path d="M170.322 30.0623C170.322 30.3954 170.364 30.6696 170.449 30.8459C170.534 31.0222 170.661 31.1398 170.81 31.1986C170.958 31.2573 171.128 31.2965 171.318 31.2965C171.636 31.2965 171.869 31.179 172.06 30.9831C172.23 30.7676 172.336 30.4737 172.336 30.0819H172.59C172.59 30.4149 172.548 30.6892 172.442 30.9243C172.336 31.1594 172.187 31.3357 171.997 31.4532C171.806 31.5708 171.551 31.6491 171.276 31.6491C170.873 31.6491 170.555 31.5316 170.322 31.2965C170.089 31.0614 169.962 30.7088 169.962 30.2582L170.322 30.0623ZM169.919 30.2582V28.4951H170.322V30.0623L169.919 30.2582ZM172.336 31.5708L172.315 31.0027V28.4951H172.717V31.5708H172.336Z" fill="#515D6C"/>
<path d="M173.353 28.8281V28.4951H175.41V28.8281H173.353ZM174.922 31.6491C174.625 31.6491 174.371 31.5707 174.201 31.4336C174.032 31.2769 173.947 31.081 173.947 30.7871V27.5352H174.35V30.7871C174.35 30.9438 174.392 31.081 174.498 31.1789C174.604 31.2769 174.752 31.3161 174.922 31.3161C174.986 31.3161 175.028 31.3161 175.07 31.2965C175.113 31.2769 175.198 31.2377 175.304 31.1789L175.473 31.4924C175.346 31.5511 175.261 31.5903 175.176 31.6099C175.092 31.6295 175.007 31.6491 174.922 31.6491Z" fill="#515D6C"/>
<path d="M177.593 31.6494C177.275 31.6494 176.999 31.5711 176.745 31.4339C176.491 31.2968 176.3 31.1009 176.173 30.8658C176.024 30.6307 175.961 30.3369 175.961 30.0234C175.961 29.71 176.024 29.4357 176.173 29.1811C176.3 28.946 176.512 28.7501 176.745 28.613C176.999 28.4758 177.275 28.3975 177.593 28.3975C177.911 28.3975 178.187 28.4758 178.441 28.613C178.695 28.7501 178.886 28.946 179.013 29.1811C179.14 29.4161 179.225 29.71 179.225 30.0234C179.225 30.3369 179.162 30.6111 179.013 30.8658C178.886 31.1009 178.695 31.2968 178.441 31.4339C178.187 31.5711 177.911 31.6494 177.593 31.6494ZM177.593 31.2968C177.826 31.2968 178.038 31.238 178.229 31.1401C178.42 31.0225 178.547 30.8854 178.653 30.6895C178.759 30.4936 178.801 30.2781 178.801 30.0234C178.801 29.7688 178.759 29.5533 178.653 29.3574C178.547 29.1615 178.399 29.0243 178.208 28.9068C178.017 28.7893 177.805 28.7501 177.572 28.7501C177.339 28.7501 177.127 28.8089 176.936 28.9068C176.745 29.0243 176.618 29.1615 176.512 29.3574C176.406 29.5533 176.363 29.7688 176.363 30.0234C176.363 30.2781 176.427 30.4936 176.533 30.6895C176.639 30.8854 176.787 31.0225 176.978 31.1401C177.148 31.2576 177.36 31.2968 177.593 31.2968Z" fill="#515D6C"/>
<path d="M180.01 31.5711V28.4954H180.391L180.413 29.0635V31.5711H180.01ZM182.405 29.9843C182.405 29.6512 182.363 29.377 182.278 29.2007C182.193 29.0243 182.066 28.9068 181.918 28.848C181.769 28.7893 181.6 28.7501 181.409 28.7501C181.091 28.7501 180.858 28.848 180.667 29.0635C180.497 29.279 180.391 29.5729 180.391 29.9647H180.137C180.137 29.6316 180.179 29.3574 180.285 29.1223C180.391 28.8872 180.54 28.7109 180.731 28.5934C180.921 28.4758 181.176 28.3975 181.451 28.3975C181.854 28.3975 182.172 28.515 182.405 28.7501C182.638 28.9852 182.766 29.3378 182.766 29.7884L182.405 29.9843ZM182.405 31.5711V30.0039L182.808 29.8275V31.5907H182.405V31.5711ZM184.801 29.9843C184.801 29.6512 184.758 29.377 184.673 29.2007C184.589 29.0243 184.462 28.9068 184.313 28.848C184.165 28.7893 183.995 28.7501 183.804 28.7501C183.486 28.7501 183.253 28.848 183.062 29.0635C182.893 29.279 182.787 29.5729 182.787 29.9647H182.532C182.532 29.6316 182.575 29.3574 182.681 29.1223C182.787 28.8872 182.935 28.7109 183.126 28.5934C183.317 28.4758 183.571 28.3975 183.847 28.3975C184.25 28.3975 184.568 28.515 184.801 28.7501C185.034 28.9852 185.161 29.3378 185.161 29.7884L184.801 29.9843ZM184.801 31.5711V30.0039L185.203 29.8275V31.5907H184.801V31.5711Z" fill="#515D6C"/>
<path d="M187.133 31.6495C186.751 31.6495 186.433 31.5711 186.221 31.3948C186.009 31.2381 185.882 31.003 185.882 30.7092C185.882 30.4153 185.988 30.1606 186.221 30.0039C186.454 29.8472 186.751 29.7492 187.133 29.7492H188.129V30.0823H187.175C186.857 30.0823 186.624 30.141 186.475 30.239C186.327 30.3565 186.263 30.4937 186.263 30.6896C186.263 30.8855 186.327 31.0226 186.475 31.1401C186.624 31.2381 186.815 31.2969 187.069 31.2969C187.281 31.2969 187.472 31.2577 187.62 31.1597C187.769 31.0814 187.896 30.9442 187.959 30.7875C188.044 30.6308 188.087 30.4545 188.087 30.239H188.447C188.447 30.6504 188.32 31.003 188.087 31.2577C187.896 31.5124 187.557 31.6495 187.133 31.6495ZM188.171 31.5711L188.129 31.101V29.906C188.129 29.6513 188.086 29.4358 188.023 29.2595C187.959 29.0832 187.853 28.9656 187.726 28.8677C187.599 28.7893 187.408 28.7306 187.196 28.7306C186.984 28.7306 186.793 28.7697 186.645 28.8481C186.497 28.9265 186.369 29.044 186.285 29.2007L185.924 29.044C186.03 28.8873 186.136 28.7697 186.263 28.6718C186.391 28.5738 186.539 28.4955 186.687 28.4563C186.836 28.4171 187.027 28.3779 187.196 28.3779C187.493 28.3779 187.747 28.4367 187.938 28.5347C188.129 28.6522 188.277 28.8089 188.383 29.0244C188.489 29.2399 188.532 29.5337 188.532 29.8668V31.5124H188.171V31.5711Z" fill="#515D6C"/>
<path d="M189.062 28.8281V28.4951H191.118V28.8281H189.062ZM190.63 31.6491C190.333 31.6491 190.079 31.5707 189.909 31.4336C189.74 31.2769 189.655 31.081 189.655 30.7871V27.5352H190.058V30.7871C190.058 30.9438 190.1 31.081 190.206 31.1789C190.312 31.2769 190.461 31.3161 190.63 31.3161C190.694 31.3161 190.736 31.3161 190.779 31.2965C190.821 31.2769 190.906 31.2377 191.012 31.1789L191.181 31.4924C191.054 31.5511 190.969 31.5903 190.885 31.6099C190.8 31.6295 190.715 31.6491 190.63 31.6491Z" fill="#515D6C"/>
<path d="M192.114 27.692C192.051 27.692 191.987 27.6724 191.923 27.6136C191.86 27.5548 191.839 27.5156 191.839 27.4373C191.839 27.3589 191.86 27.3002 191.923 27.261C191.987 27.2218 192.029 27.1826 192.114 27.1826C192.199 27.1826 192.263 27.2022 192.305 27.261C192.347 27.3002 192.39 27.3589 192.39 27.4373C192.39 27.4961 192.369 27.5548 192.305 27.6136C192.263 27.6724 192.199 27.692 192.114 27.692ZM191.902 31.5708L191.923 28.4952H192.326L192.305 31.5708H191.902Z" fill="#515D6C"/>
<path d="M194.785 31.6494C194.467 31.6494 194.192 31.5711 193.937 31.4339C193.683 31.2968 193.492 31.1009 193.365 30.8658C193.216 30.6307 193.153 30.3369 193.153 30.0234C193.153 29.71 193.216 29.4357 193.365 29.1811C193.492 28.946 193.704 28.7501 193.937 28.613C194.192 28.4758 194.467 28.3975 194.785 28.3975C195.103 28.3975 195.379 28.4758 195.633 28.613C195.887 28.7501 196.078 28.946 196.205 29.1811C196.333 29.4161 196.417 29.71 196.417 30.0234C196.417 30.3369 196.354 30.6111 196.205 30.8658C196.078 31.1009 195.887 31.2968 195.633 31.4339C195.379 31.5711 195.103 31.6494 194.785 31.6494ZM194.785 31.2968C195.018 31.2968 195.23 31.238 195.421 31.1401C195.612 31.0225 195.739 30.8854 195.845 30.6895C195.951 30.4936 195.993 30.2781 195.993 30.0234C195.993 29.7688 195.951 29.5533 195.845 29.3574C195.739 29.1615 195.591 29.0243 195.4 28.9068C195.209 28.7893 194.997 28.7501 194.764 28.7501C194.531 28.7501 194.319 28.8089 194.128 28.9068C193.937 29.0243 193.81 29.1615 193.704 29.3574C193.598 29.5533 193.556 29.7688 193.556 30.0234C193.556 30.2781 193.619 30.4936 193.725 30.6895C193.831 30.8854 193.98 31.0225 194.17 31.1401C194.34 31.2576 194.552 31.2968 194.785 31.2968Z" fill="#515D6C"/>
<path d="M197.202 31.5711V28.4954H197.583L197.605 29.0635V31.5711H197.202ZM199.597 29.9843C199.597 29.6512 199.555 29.377 199.47 29.2007C199.385 29.0243 199.258 28.9068 199.11 28.848C198.961 28.7893 198.792 28.7501 198.601 28.7501C198.283 28.7501 198.05 28.848 197.859 29.0635C197.689 29.279 197.583 29.5729 197.583 29.9647H197.329C197.329 29.6316 197.371 29.3574 197.477 29.1223C197.583 28.8872 197.732 28.7109 197.923 28.5934C198.113 28.4758 198.368 28.3975 198.643 28.3975C199.046 28.3975 199.364 28.515 199.597 28.7501C199.831 28.9852 199.958 29.3378 199.958 29.7884L199.597 29.9843ZM199.597 31.5711V30.0039L200 29.8275V31.5907H199.597V31.5711Z" fill="#515D6C"/>
<defs>
<linearGradient id="paint0_linear_674_34642" x1="33.4136" y1="0.238608" x2="1.08908" y2="36.4663" gradientUnits="userSpaceOnUse">
<stop stop-color="#7B79FF"/>
<stop offset="1" stop-color="#4240B8"/>
</linearGradient>
<linearGradient id="paint1_linear_674_34642" x1="38.1894" y1="-0.140395" x2="16.1113" y2="20.434" gradientUnits="userSpaceOnUse">
<stop stop-color="#7B79FF"/>
<stop offset="1" stop-color="#7B79FF" stop-opacity="0"/>
</linearGradient>
</defs>
</svg>
