<svg width="800" height="129" viewBox="0 0 800 129" fill="none" xmlns="http://www.w3.org/2000/svg">
<path fill-rule="evenodd" clip-rule="evenodd" d="M0 128.9L15.3 35.8C32.6 35.8 45.7 51.3 42.9 68.3L37.5 100.7H49.5C55.5 100.7 60.9 99.7 65.6 97.6C70.3 95.4 74.3 91.9 77.5 86.8C80.7 81.8 83 74.8 84.4 66.1C85.8 57.8 85.7 51.4 84.3 46.9C82.9 42.3 80.2 39.2 76.2 37.5C72.2 35.7 67 34.8 60.8 34.8L48.9 34.6C24.8 34.6 17.4 16 16.7 6.59998H65.7C78.2 6.59998 88.6 9.10001 96.9 14.2C105.3 19.2 111.2 26.5 114.7 35.8C118.2 45.2 118.9 56.4 116.8 69.4C114.8 81.9 110.6 92.6 104.3 101.4C98 110.3 90.1 117.1 80.4 121.8C70.7 126.5 59.7 128.9 47.4 128.9H0Z" fill="url(#paint0_linear_109_1909)"/>
<path fill-rule="evenodd" clip-rule="evenodd" d="M28.7 6.59998H65.7C78.2 6.59998 88.6 9.10001 96.9 14.2C105.3 19.2 111.2 26.5 114.7 35.8C118.2 45.2 118.9 56.4 116.8 69.4C114.8 81.9 110.6 92.6 104.3 101.4C100.5 106.7 96.1 111.4 91 115.2C91 115.2 91 115.2 91.1 115.2C100.8 110.5 108.8 103.7 115 94.8C121.3 85.9 125.5 75.2 127.5 62.8C129.7 49.8 128.9 38.6 125.4 29.2C121.9 19.8 115.9 12.6 107.6 7.59998C99.3 2.49998 88.9 0 76.4 0H27.3C27.5 2 27.9 4.19998 28.7 6.59998Z" fill="url(#paint1_linear_109_1909)"/>
<path fill-rule="evenodd" clip-rule="evenodd" d="M296 112.8C286.2 112.8 277.6 110.7 270.1 106.7C262.6 102.5 256.8 96.7999 252.5 89.5999C248.3 82.2999 246.1 73.9999 246.1 64.5999C246.1 55.1999 248.2 46.7999 252.5 39.5999C256.7 32.2999 262.6 26.5999 270.1 22.4999C277.6 18.2999 286.1 16.2 295.8 16.2C305.6 16.2 314.1 18.2999 321.6 22.4999C329.1 26.5999 334.9 32.2999 339.2 39.5999C343.4 46.7999 345.6 55.0999 345.6 64.5999C345.6 73.9999 343.5 82.2999 339.2 89.5999C335 96.7999 329.2 102.5 321.8 106.7C314.2 110.8 305.7 112.8 296 112.8ZM296 90.0999C300.8 90.0999 305 89 308.6 86.9C312.3 84.7 315.1 81.6999 317.1 77.7999C319.2 73.9999 320.2 69.5999 320.2 64.5999C320.2 59.5999 319.1 55.2 317 51.4C314.9 47.5 312.1 44.4999 308.4 42.2999C304.8 40.0999 300.5 38.9 295.8 38.9C291.1 38.9 286.9 39.9999 283.2 42.2999C279.6 44.3999 276.7 47.5 274.6 51.4C272.5 55.2 271.5 59.5999 271.5 64.5999C271.5 69.5999 272.6 73.9999 274.7 77.7999C276.8 81.5999 279.7 84.6 283.3 86.9C286.9 89 291.2 90.0999 296 90.0999ZM187.3 87.9C191.2 87.9 194.8 87.2999 198 86.2C201.3 85 204.1 83.4 206.5 81.4C208.9 79.3 210.7 76.8999 212.1 73.9999C213.5 71.1999 214.1 67.9999 214.1 64.4999C214.1 60.9999 213.5 57.8999 212.1 54.9999C210.7 52.1999 208.9 49.6999 206.5 47.5999C204.1 45.4999 201.3 43.9999 198 42.7999C194.7 41.5999 191.1 41.0999 187.3 41.0999H180.8V87.7999L187.3 87.9ZM214.3 23.7999C206.5 19.7999 197.5 17.7999 187.3 17.7999H180.8H168.1H156.3V111.2H168.1H180.8H187.3C197.5 111.2 206.5 109.2 214.3 105.2C222.2 101.2 228.3 95.7 232.8 88.7C237.2 81.7 239.4 73.5999 239.4 64.5999C239.4 55.3999 237.2 47.3999 232.8 40.4999C228.4 33.2999 222.2 27.7999 214.3 23.7999ZM379.6 62.9999L345.4 111.2H375L393.2 83.4L411.4 111.1H441.1L407.1 62.7999L440.1 17.7H410.7L393.3 43.0999L375.9 17.7999H346.5L379.6 62.9999ZM500.3 92.4999L475 55.9999V111.2H450.4V20.4999V17.9H462.5H475H477.6L500.1 51.2999L522.6 17.9H525.2H538H549.8V20.2V111.3H525.2V55.9999L500.3 92.4999ZM625.1 96.2999L630.6 111.3H656.7L621 17.9H619H596.5H594.5L558.8 111.3H584.9L590.4 96.2999H625.1ZM617.1 74.4999L607.6 48.5999L598.1 74.4999H617.1ZM675.5 111.2V40.4999H649.2V17.7999H726.4V40.4999H700.2V111.2H675.5ZM736.6 17.7999V111.2H753.9H761.2H799.9V88.4999H761.2V75.4999H791.8V53.4H761.2V40.4999H799V17.7999H761.2H753.9H736.6Z" fill="#313D4E"/>
<defs>
<linearGradient id="paint0_linear_109_1909" x1="112.143" y1="1.00634" x2="-5.78457" y2="123.331" gradientUnits="userSpaceOnUse">
<stop stop-color="#7B79FF"/>
<stop offset="1" stop-color="#4240B8"/>
</linearGradient>
<linearGradient id="paint1_linear_109_1909" x1="128.242" y1="-0.523455" x2="48.7976" y2="68.0397" gradientUnits="userSpaceOnUse">
<stop stop-color="#7B79FF"/>
<stop offset="1" stop-color="#7B79FF" stop-opacity="0"/>
</linearGradient>
</defs>
</svg>
