<svg width="800" height="130" viewBox="0 0 800 130" fill="none" xmlns="http://www.w3.org/2000/svg">
<path d="M0 129.4L15.3 36.2996C32.6 36.2996 45.7 51.7996 42.9 68.7996L37.5 101.2H49.5C55.5 101.2 60.9 100.2 65.6 98.0996C70.3 95.8996 74.3 92.3996 77.5 87.2996C80.7 82.2996 83 75.2996 84.4 66.5996C85.8 58.2996 85.7 51.8997 84.3 47.3997C82.9 42.7997 80.2 39.6996 76.2 37.9996C72.2 36.1996 67 35.2996 60.8 35.2996L48.9 35.0996C24.8 35.0996 17.4 16.4996 16.7 7.09961H65.7C78.2 7.09961 88.6 9.59965 96.9 14.6996C105.3 19.6996 111.2 26.9996 114.7 36.2996C118.2 45.6996 118.9 56.8997 116.8 69.8997C114.8 82.3997 110.6 93.0997 104.3 101.9C98 110.8 90.1 117.6 80.4 122.3C70.7 127 59.7 129.4 47.4 129.4H0Z" fill="white"/>
<g opacity="0.5">
<path d="M28.7008 7.09998H65.7008C78.2008 7.09998 88.6008 9.60001 96.9008 14.7C105.301 19.7 111.201 27 114.701 36.3C118.201 45.7 118.901 56.9 116.801 69.9C114.801 82.4 110.601 93.1 104.301 101.9C100.501 107.2 96.1008 111.9 91.0008 115.7C91.0008 115.7 91.0008 115.7 91.1008 115.7C100.801 111 108.801 104.2 115.001 95.3C121.301 86.4 125.501 75.7 127.501 63.3C129.701 50.3 128.901 39.1 125.401 29.7C121.901 20.3 115.901 13.1 107.601 8.09998C99.3008 2.99998 88.9008 0.5 76.4008 0.5H27.3008C27.5008 2.5 27.9008 4.69998 28.7008 7.09998Z" fill="white"/>
</g>
<path fill-rule="evenodd" clip-rule="evenodd" d="M296.001 113.299C286.201 113.299 277.601 111.199 270.101 107.199C262.601 102.999 256.801 97.2992 252.501 90.0992C248.301 82.7992 246.101 74.4992 246.101 65.0992C246.101 55.6992 248.201 47.2992 252.501 40.0992C256.701 32.7992 262.601 27.0992 270.101 22.9992C277.601 18.7992 286.101 16.6992 295.801 16.6992C305.601 16.6992 314.101 18.7992 321.601 22.9992C329.101 27.0992 334.901 32.7992 339.201 40.0992C343.401 47.2992 345.601 55.5992 345.601 65.0992C345.601 74.4992 343.501 82.7992 339.201 90.0992C335.001 97.2992 329.201 102.999 321.801 107.199C314.201 111.299 305.701 113.299 296.001 113.299ZM296.001 90.5992C300.801 90.5992 305.001 89.4992 308.601 87.3992C312.301 85.1992 315.101 82.1992 317.101 78.2992C319.201 74.4992 320.201 70.0992 320.201 65.0992C320.201 60.0992 319.101 55.6992 317.001 51.8992C314.901 47.9992 312.101 44.9992 308.401 42.7992C304.801 40.5992 300.501 39.3992 295.801 39.3992C291.101 39.3992 286.901 40.4992 283.201 42.7992C279.601 44.8992 276.701 47.9992 274.601 51.8992C272.501 55.6992 271.501 60.0992 271.501 65.0992C271.501 70.0992 272.601 74.4992 274.701 78.2992C276.801 82.0992 279.701 85.0992 283.301 87.3992C286.901 89.4992 291.201 90.5992 296.001 90.5992ZM187.301 88.3992C191.201 88.3992 194.801 87.7992 198.001 86.6992C201.301 85.4992 204.101 83.8992 206.501 81.8992C208.901 79.7992 210.701 77.3992 212.101 74.4992C213.501 71.6992 214.101 68.4992 214.101 64.9992C214.101 61.4992 213.501 58.3992 212.101 55.4992C210.701 52.6992 208.901 50.1992 206.501 48.0992C204.101 45.9992 201.301 44.4992 198.001 43.2992C194.701 42.0992 191.101 41.5992 187.301 41.5992H180.801V88.2992L187.301 88.3992ZM214.301 24.2992C206.501 20.2992 197.501 18.2992 187.301 18.2992H180.801H168.101H156.301V111.699H168.101H180.801H187.301C197.501 111.699 206.501 109.699 214.301 105.699C222.201 101.699 228.301 96.1992 232.801 89.1992C237.201 82.1992 239.401 74.0992 239.401 65.0992C239.401 55.8992 237.201 47.8992 232.801 40.9992C228.401 33.7992 222.201 28.2992 214.301 24.2992ZM379.601 63.4992L345.401 111.699H375.001L393.201 83.8992L411.401 111.599H441.101L407.101 63.2992L440.101 18.1992H410.701L393.301 43.5992L375.901 18.2992H346.501L379.601 63.4992ZM500.301 92.9992L475.001 56.4992V111.699H450.401V20.9992V18.3992H462.501H475.001H477.601L500.101 51.7992L522.601 18.3992H525.201H538.001H549.801V20.6992V111.799H525.201V56.4992L500.301 92.9992ZM625.101 96.7992L630.601 111.799H656.701L621.001 18.3992H619.001H596.501H594.501L558.801 111.799H584.901L590.401 96.7992H625.101ZM617.101 74.9992L607.601 49.0992L598.101 74.9992H617.101ZM675.501 111.699V40.9992H649.201V18.2992H726.401V40.9992H700.201V111.699H675.501ZM736.601 18.2992V111.699H753.901H761.201H799.901V88.9992H761.201V75.9992H791.801V53.8992H761.201V40.9992H799.001V18.2992H761.201H753.901H736.601Z" fill="white"/>
</svg>
