<svg width="269" height="52" viewBox="0 0 269 52" fill="none" xmlns="http://www.w3.org/2000/svg">
<mask id="mask0" mask-type="alpha" maskUnits="userSpaceOnUse" x="0" y="0" width="269" height="52">
<path d="M269 0H0V52H269V0Z" fill="#C4C4C4"/>
</mask>
<g mask="url(#mask0)">
<path d="M190.212 40.063C189.853 40.063 189.526 39.9813 189.232 39.818C188.943 39.6547 188.714 39.4237 188.546 39.125C188.383 38.8217 188.301 38.4717 188.301 38.075C188.301 37.683 188.385 37.3377 188.553 37.039C188.726 36.7357 188.959 36.5047 189.253 36.346C189.547 36.1827 189.876 36.101 190.24 36.101C190.604 36.101 190.933 36.1827 191.227 36.346C191.521 36.5047 191.752 36.7333 191.92 37.032C192.093 37.3307 192.179 37.6783 192.179 38.075C192.179 38.4717 192.09 38.8217 191.913 39.125C191.74 39.4237 191.505 39.6547 191.206 39.818C190.907 39.9813 190.576 40.063 190.212 40.063ZM190.212 39.503C190.441 39.503 190.655 39.4493 190.856 39.342C191.057 39.2347 191.218 39.0737 191.339 38.859C191.465 38.6443 191.528 38.383 191.528 38.075C191.528 37.767 191.467 37.5057 191.346 37.291C191.225 37.0763 191.066 36.9177 190.87 36.815C190.674 36.7077 190.462 36.654 190.233 36.654C190 36.654 189.785 36.7077 189.589 36.815C189.398 36.9177 189.244 37.0763 189.127 37.291C189.01 37.5057 188.952 37.767 188.952 38.075C188.952 38.3877 189.008 38.6513 189.12 38.866C189.237 39.0807 189.391 39.2417 189.582 39.349C189.773 39.4517 189.983 39.503 190.212 39.503ZM200.577 36.164L199.38 40H198.722L197.798 36.955L196.874 40H196.216L195.012 36.164H195.663L196.545 39.384L197.497 36.164H198.148L199.079 39.391L199.947 36.164H200.577ZM207.159 37.935C207.159 38.0563 207.152 38.1847 207.138 38.32H204.072C204.095 38.698 204.223 38.9943 204.457 39.209C204.695 39.419 204.982 39.524 205.318 39.524C205.593 39.524 205.822 39.461 206.004 39.335C206.19 39.2043 206.321 39.0317 206.396 38.817H207.082C206.979 39.1857 206.774 39.4867 206.466 39.72C206.158 39.9487 205.775 40.063 205.318 40.063C204.954 40.063 204.627 39.9813 204.338 39.818C204.053 39.6547 203.829 39.4237 203.666 39.125C203.502 38.8217 203.421 38.4717 203.421 38.075C203.421 37.6783 203.5 37.3307 203.659 37.032C203.817 36.7333 204.039 36.5047 204.324 36.346C204.613 36.1827 204.944 36.101 205.318 36.101C205.682 36.101 206.004 36.1803 206.284 36.339C206.564 36.4977 206.778 36.717 206.928 36.997C207.082 37.2723 207.159 37.585 207.159 37.935ZM206.501 37.802C206.501 37.5593 206.447 37.3517 206.34 37.179C206.232 37.0017 206.085 36.8687 205.899 36.78C205.717 36.6867 205.514 36.64 205.29 36.64C204.968 36.64 204.692 36.7427 204.464 36.948C204.24 37.1533 204.111 37.438 204.079 37.802H206.501ZM211.087 36.787C211.199 36.5677 211.357 36.3973 211.563 36.276C211.773 36.1547 212.027 36.094 212.326 36.094V36.752H212.158C211.444 36.752 211.087 37.1393 211.087 37.914V40H210.45V36.164H211.087V36.787ZM215.273 38.068C215.273 37.676 215.352 37.333 215.511 37.039C215.67 36.7403 215.887 36.5093 216.162 36.346C216.442 36.1827 216.755 36.101 217.1 36.101C217.399 36.101 217.676 36.171 217.933 36.311C218.19 36.4463 218.386 36.626 218.521 36.85V34.82H219.165V40H218.521V39.279C218.395 39.5077 218.208 39.6967 217.961 39.846C217.714 39.9907 217.424 40.063 217.093 40.063C216.752 40.063 216.442 39.979 216.162 39.811C215.887 39.643 215.67 39.4073 215.511 39.104C215.352 38.8007 215.273 38.4553 215.273 38.068ZM218.521 38.075C218.521 37.7857 218.463 37.5337 218.346 37.319C218.229 37.1043 218.071 36.941 217.87 36.829C217.674 36.7123 217.457 36.654 217.219 36.654C216.981 36.654 216.764 36.71 216.568 36.822C216.372 36.934 216.216 37.0973 216.099 37.312C215.982 37.5267 215.924 37.7787 215.924 38.068C215.924 38.362 215.982 38.6187 216.099 38.838C216.216 39.0527 216.372 39.2183 216.568 39.335C216.764 39.447 216.981 39.503 217.219 39.503C217.457 39.503 217.674 39.447 217.87 39.335C218.071 39.2183 218.229 39.0527 218.346 38.838C218.463 38.6187 218.521 38.3643 218.521 38.075ZM227.645 36.878C227.775 36.6493 227.967 36.4627 228.219 36.318C228.471 36.1733 228.758 36.101 229.08 36.101C229.425 36.101 229.735 36.1827 230.011 36.346C230.286 36.5093 230.503 36.7403 230.662 37.039C230.82 37.333 230.9 37.676 230.9 38.068C230.9 38.4553 230.82 38.8007 230.662 39.104C230.503 39.4073 230.284 39.643 230.004 39.811C229.728 39.979 229.42 40.063 229.08 40.063C228.748 40.063 228.457 39.9907 228.205 39.846C227.957 39.7013 227.771 39.517 227.645 39.293V40H227.008V34.82H227.645V36.878ZM230.249 38.068C230.249 37.7787 230.19 37.5267 230.074 37.312C229.957 37.0973 229.798 36.934 229.598 36.822C229.402 36.71 229.185 36.654 228.947 36.654C228.713 36.654 228.496 36.7123 228.296 36.829C228.1 36.941 227.941 37.1067 227.82 37.326C227.703 37.5407 227.645 37.7903 227.645 38.075C227.645 38.3643 227.703 38.6187 227.82 38.838C227.941 39.0527 228.1 39.2183 228.296 39.335C228.496 39.447 228.713 39.503 228.947 39.503C229.185 39.503 229.402 39.447 229.598 39.335C229.798 39.2183 229.957 39.0527 230.074 38.838C230.19 38.6187 230.249 38.362 230.249 38.068ZM237.492 36.164L235.182 41.806H234.524L235.28 39.958L233.733 36.164H234.44L235.644 39.272L236.834 36.164H237.492ZM246.446 40.049C246.124 40.049 245.834 39.993 245.578 39.881C245.326 39.7643 245.127 39.6057 244.983 39.405C244.838 39.1997 244.763 38.964 244.759 38.698H245.438C245.461 38.9267 245.554 39.1203 245.718 39.279C245.886 39.433 246.128 39.51 246.446 39.51C246.749 39.51 246.987 39.4353 247.16 39.286C247.337 39.132 247.426 38.936 247.426 38.698C247.426 38.5113 247.374 38.3597 247.272 38.243C247.169 38.1263 247.041 38.0377 246.887 37.977C246.733 37.9163 246.525 37.851 246.264 37.781C245.942 37.697 245.683 37.613 245.487 37.529C245.295 37.445 245.13 37.3143 244.99 37.137C244.854 36.955 244.787 36.7123 244.787 36.409C244.787 36.143 244.854 35.9073 244.99 35.702C245.125 35.4967 245.314 35.338 245.557 35.226C245.804 35.114 246.086 35.058 246.404 35.058C246.861 35.058 247.234 35.1723 247.524 35.401C247.818 35.6297 247.983 35.933 248.021 36.311H247.321C247.297 36.1243 247.199 35.961 247.027 35.821C246.854 35.6763 246.625 35.604 246.341 35.604C246.075 35.604 245.858 35.674 245.69 35.814C245.522 35.9493 245.438 36.1407 245.438 36.388C245.438 36.5653 245.487 36.71 245.585 36.822C245.687 36.934 245.811 37.0203 245.956 37.081C246.105 37.137 246.313 37.2023 246.579 37.277C246.901 37.3657 247.16 37.4543 247.356 37.543C247.552 37.627 247.72 37.76 247.86 37.942C248 38.1193 248.07 38.362 248.07 38.67C248.07 38.908 248.007 39.132 247.881 39.342C247.755 39.552 247.568 39.7223 247.321 39.853C247.073 39.9837 246.782 40.049 246.446 40.049ZM252.094 39.482H253.802V40H251.457V35.121H252.094V39.482ZM259.931 35.121V35.639H258.601V40H257.964V35.639H256.627V35.121H259.931Z" fill="#375AA9"/>
<path d="M37.6903 9.4083L26.8997 3.56641L26.6025 25.0646L37.6903 30.6728V9.4083Z" fill="url(#paint0_linear)"/>
<path d="M37.6895 9.39272L17.0622 20.5624L6.11523 15.0788L26.9771 3.56641L37.6895 9.39272Z" fill="url(#paint1_linear)"/>
<path d="M39.05 36.6389L17.156 48.4473L6.20898 42.6989L28.2125 30.8281L39.05 36.6389Z" fill="url(#paint2_linear)"/>
<path d="M17.1405 20.5617L6.02148 15.0781V42.87L17.1249 48.4938L17.1405 20.5617Z" fill="url(#paint3_linear)"/>
<path d="M62.9304 23.5709C62.9503 25.0157 62.6846 26.4502 62.1485 27.7927C61.6657 29.0422 60.919 30.1738 59.9591 31.1109C58.9908 32.0517 57.8419 32.7881 56.5812 33.2763C55.1727 33.8073 53.677 34.0715 52.1711 34.0552H44.0859V13.1023H52.1711C53.677 13.086 55.1727 13.3502 56.5812 13.8812C57.8488 14.3631 58.9999 15.1063 59.9591 16.0622C60.921 16.9916 61.6681 18.1186 62.1485 19.3648C62.6853 20.7017 62.9511 22.1312 62.9304 23.5709ZM58.4734 23.5709C58.491 22.5671 58.3431 21.5672 58.0355 20.6111C57.7811 19.7888 57.3548 19.0296 56.7845 18.3833C56.2454 17.7704 55.5709 17.2905 54.814 16.9813C53.9744 16.6457 53.0756 16.4814 52.1711 16.4984H48.4647V30.6591H52.1711C53.0756 30.676 53.9744 30.5118 54.814 30.1762C55.5709 29.867 56.2454 29.3871 56.7845 28.7741C57.3548 28.1279 57.7811 27.3687 58.0355 26.5464C58.3418 25.5846 58.4896 24.5798 58.4734 23.5709Z" fill="#375AA9"/>
<path d="M86.4513 23.5698C86.4623 25.0239 86.197 26.4669 85.6694 27.8227C85.1845 29.094 84.4388 30.2507 83.48 31.2188C82.5198 32.2114 81.3646 32.9963 80.0864 33.5244C77.2517 34.6044 74.1166 34.6044 71.2819 33.5244C70.0064 33.0112 68.8472 32.2484 67.8727 31.2811C66.9093 30.3136 66.1584 29.1571 65.6677 27.885C64.6459 25.1411 64.6459 22.1231 65.6677 19.3792C66.1592 18.1043 66.9124 16.9456 67.8791 15.9772C68.8458 15.0088 70.0048 14.2521 71.2819 13.7554C74.1127 12.6544 77.2556 12.6544 80.0864 13.7554C81.3623 14.2592 82.5183 15.0233 83.48 15.9987C84.4353 16.9697 85.1805 18.1255 85.6694 19.3948C86.1891 20.7257 86.4543 22.1417 86.4513 23.5698ZM82.01 23.5698C82.0212 22.5715 81.8734 21.5777 81.5721 20.6255C81.3092 19.8036 80.8778 19.045 80.3054 18.3978C79.7688 17.7752 79.0867 17.2937 78.3193 16.9957C77.4805 16.6572 76.5811 16.4928 75.6764 16.5128C74.7718 16.4959 73.8731 16.6601 73.0334 16.9957C72.2633 17.297 71.5769 17.7778 71.0317 18.3978C70.4648 19.0464 70.0388 19.8049 69.7806 20.6255C69.4848 21.5786 69.3423 22.5723 69.3584 23.5698C69.3447 24.5774 69.4871 25.581 69.7806 26.5453C70.0428 27.3549 70.4685 28.1024 71.0317 28.7418C71.5856 29.3521 72.2695 29.8311 73.0334 30.1439C73.8731 30.4795 74.7718 30.6437 75.6764 30.6268C76.5811 30.6468 77.4805 30.4824 78.3193 30.1439C79.0807 29.8348 79.7603 29.355 80.3054 28.7418C80.8741 28.1038 81.3053 27.3561 81.5721 26.5453C81.8709 25.5818 82.0186 24.5782 82.01 23.5698Z" fill="#375AA9"/>
<path d="M106.39 34.0549H102.043C101.785 34.064 101.532 33.9872 101.323 33.8368C101.153 33.6914 101.01 33.5174 100.901 33.3227L96.3503 25.6114L96.2095 25.9385C96.1783 26.0343 96.1307 26.1238 96.0688 26.2034L91.7525 33.3227C91.6229 33.5118 91.4706 33.6844 91.299 33.8368C91.1185 33.9839 90.8909 34.0614 90.6578 34.0549H86.6074L93.4884 23.2591L86.8576 13.102H91.2052C91.4247 13.0842 91.6452 13.1217 91.8463 13.211C91.9997 13.2987 92.1246 13.4285 92.206 13.5849L96.7256 21.0625C96.7256 20.9379 96.8351 20.8288 96.8976 20.7198C96.9497 20.5824 97.0179 20.4517 97.1009 20.3303L101.151 13.7251C101.252 13.5651 101.379 13.4229 101.527 13.3045C101.687 13.2092 101.871 13.1606 102.058 13.1643H106.218L99.5249 23.1344L106.39 34.0549Z" fill="#375AA9"/>
<path d="M115.664 23.5217C116.193 23.5756 116.726 23.5234 117.234 23.3682C117.742 23.213 118.213 22.9579 118.62 22.6182C118.95 22.257 119.204 21.834 119.368 21.374C119.531 20.914 119.602 20.426 119.574 19.9387C119.582 19.456 119.502 18.9758 119.339 18.5211C119.19 18.0974 118.938 17.7174 118.604 17.415C118.257 17.092 117.839 16.8522 117.385 16.714C116.833 16.5109 116.252 16.4004 115.664 16.3868H112.912V23.5217H115.664ZM115.664 13.0998C116.923 13.0765 118.178 13.2446 119.386 13.5983C120.343 13.8808 121.229 14.3642 121.982 15.0159C122.669 15.591 123.206 16.3233 123.546 17.1502C123.879 18.0148 124.044 18.9348 124.031 19.8608C124.013 20.8063 123.822 21.7407 123.468 22.6182C123.121 23.4635 122.586 24.2198 121.904 24.8303C121.146 25.4824 120.263 25.9751 119.308 26.2791C118.116 26.6295 116.876 26.7976 115.633 26.7776H112.912V33.9904H108.564V13.0998H115.664Z" fill="#375AA9"/>
<path d="M133.32 23.0232C133.94 23.0332 134.558 22.9437 135.15 22.7583C135.609 22.5945 136.034 22.3461 136.401 22.0262C136.725 21.7098 136.975 21.3271 137.136 20.9045C137.303 20.4559 137.388 19.981 137.386 19.5025C137.409 19.0688 137.332 18.6356 137.162 18.236C136.991 17.8365 136.731 17.481 136.401 17.1969C135.509 16.5841 134.431 16.2979 133.351 16.3868H131.131V23.0232H133.32ZM143.501 34.0527H139.576C139.262 34.0693 138.951 33.9996 138.675 33.8512C138.399 33.7027 138.17 33.4814 138.012 33.2114L134.024 26.7776C133.877 26.558 133.685 26.3721 133.461 26.2323C133.193 26.1041 132.897 26.0452 132.601 26.061H131.131V34.0527H126.736V13.0997H133.351C134.623 13.0778 135.891 13.2298 137.12 13.5515C138.047 13.8091 138.917 14.2371 139.685 14.8134C140.326 15.3242 140.827 15.9889 141.139 16.7451C141.462 17.5254 141.621 18.3628 141.609 19.2065C141.607 19.8768 141.506 20.5433 141.311 21.1849C141.117 21.788 140.827 22.356 140.451 22.8674C140.064 23.391 139.594 23.8487 139.06 24.2227C138.482 24.6393 137.844 24.9651 137.167 25.1886C137.457 25.3324 137.721 25.5217 137.949 25.7494C138.208 25.9667 138.43 26.2245 138.606 26.5127L143.501 34.0527Z" fill="#375AA9"/>
<path d="M165.535 23.5694C165.554 25.0242 165.288 26.4686 164.753 27.8223C164.274 29.0966 163.528 30.2544 162.564 31.2184C161.61 32.211 160.46 32.996 159.186 33.524C156.346 34.6036 153.206 34.6036 150.366 33.524C149.09 33.0214 147.932 32.2609 146.966 31.2902C145.999 30.3196 145.246 29.16 144.752 27.8846C143.73 25.1407 143.73 22.1228 144.752 19.3788C145.258 18.1146 146.007 16.961 146.957 15.9827C147.928 15.0154 149.088 14.2571 150.366 13.755C153.202 12.6546 156.35 12.6546 159.186 13.755C160.454 14.2622 161.603 15.0249 162.561 15.9953C163.519 16.9658 164.266 18.123 164.753 19.3944C165.28 20.7232 165.546 22.1407 165.535 23.5694ZM161.094 23.5694C161.113 22.5706 160.965 21.5755 160.656 20.6251C160.405 19.8013 159.978 19.0414 159.405 18.3974C158.865 17.7781 158.184 17.2972 157.419 16.9953C156.579 16.6597 155.681 16.4955 154.776 16.5124C153.866 16.4955 152.962 16.6597 152.117 16.9953C151.35 17.3008 150.664 17.7809 150.116 18.3974C149.554 19.0474 149.134 19.8058 148.88 20.6251C148.571 21.5755 148.423 22.5706 148.442 23.5694C148.426 24.5783 148.574 25.5831 148.88 26.5449C149.138 27.3532 149.558 28.1006 150.116 28.7414C150.673 29.3482 151.356 29.8267 152.117 30.1435C152.962 30.4792 153.866 30.6433 154.776 30.6264C155.681 30.6434 156.579 30.4791 157.419 30.1435C158.178 29.8306 158.857 29.3514 159.405 28.7414C159.975 28.1069 160.402 27.3578 160.656 26.5449C160.962 25.5831 161.11 24.5783 161.094 23.5694Z" fill="#375AA9"/>
<path d="M181.379 30.9308C181.004 31.6504 180.421 32.2417 179.706 32.6289C178.832 33.094 177.85 33.3198 176.86 33.2832C175.848 33.3002 174.847 33.0815 173.935 32.6445C173.118 32.2694 172.412 31.6897 171.887 30.962C171.39 30.2915 171.082 29.5008 170.995 28.672H172.184C172.292 29.2625 172.509 29.8277 172.825 30.3388C173.212 30.9443 173.751 31.4384 174.389 31.7721C175.146 32.1793 175.999 32.3783 176.86 32.3485C177.384 32.383 177.911 32.3095 178.406 32.1326C178.901 31.9557 179.354 31.6792 179.737 31.3203C180.071 30.9817 180.333 30.5797 180.508 30.138C180.682 29.6964 180.766 29.2243 180.754 28.7499C180.791 27.9864 180.564 27.2333 180.112 26.6156C179.7 26.0839 179.163 25.6612 178.549 25.3849C177.736 25.0272 176.9 24.7253 176.046 24.4814C175.124 24.2211 174.22 23.8984 173.341 23.5155C172.656 23.1954 172.068 22.7011 171.636 22.0823C171.082 21.2076 170.843 20.1707 170.96 19.1426C171.076 18.1146 171.541 17.1568 172.277 16.4273C173.334 15.5674 174.687 15.1536 176.046 15.2745C177.418 15.1979 178.77 15.6246 179.847 16.4741C180.74 17.1943 181.354 18.2024 181.582 19.3249H180.363C180.171 18.4812 179.704 17.7248 179.033 17.1751C178.193 16.4937 177.128 16.1492 176.046 16.2093C175.041 16.1601 174.052 16.4755 173.263 17.0972C172.907 17.411 172.628 17.8013 172.446 18.2386C172.265 18.6759 172.186 19.1486 172.215 19.6209C172.175 20.3462 172.391 21.0625 172.825 21.6461C173.243 22.1603 173.779 22.5665 174.389 22.8301C175.178 23.1838 175.993 23.4755 176.828 23.7025C177.77 23.9635 178.69 24.2968 179.581 24.6995C180.277 25.0362 180.879 25.5393 181.332 26.1638C181.844 26.9501 182.095 27.8762 182.052 28.8122C181.991 29.56 181.761 30.2844 181.379 30.9308Z" fill="#375AA9"/>
<path d="M195.321 19.8907C196.308 20.4591 197.111 21.297 197.636 22.3054C198.181 23.4741 198.464 24.7475 198.464 26.0364C198.464 27.3253 198.181 28.5987 197.636 29.7674C197.112 30.7763 196.309 31.6144 195.321 32.1821C194.285 32.7564 193.114 33.0467 191.928 33.0233C190.576 33.0644 189.249 32.653 188.159 31.8549C187.128 31.0781 186.385 29.9821 186.047 28.7393L186 40H185V19.2209H186.11V23.2868C186.449 22.0444 187.191 20.9488 188.221 20.1711C189.311 19.3731 190.638 18.9617 191.99 19.0028C193.159 19.0046 194.307 19.3107 195.321 19.8907ZM188.8 20.7943C187.946 21.2697 187.247 21.9776 186.783 22.835C186.275 23.7944 186.022 24.8668 186.047 25.9507C186.028 27.0341 186.28 28.1052 186.783 29.0664C187.237 29.951 187.937 30.6865 188.8 31.1851C189.689 31.6783 190.691 31.9307 191.709 31.9172C192.463 31.9598 193.218 31.843 193.924 31.5745C194.631 31.306 195.272 30.892 195.806 30.3594C196.882 29.1478 197.443 27.5668 197.37 25.9507C197.445 24.3438 196.883 22.7718 195.806 21.5732C195.269 21.0438 194.628 20.6318 193.922 20.3636C193.217 20.0953 192.463 19.9767 191.709 20.0154C190.686 20.0093 189.681 20.2785 188.8 20.7943Z" fill="#375AA9"/>
<path d="M212.016 20.4441C213.041 21.2234 213.778 22.319 214.112 23.5597V19.4471H215.253V33.1093H214.112V29.0278C213.78 30.2695 213.043 31.3658 212.016 32.1434C210.921 32.9438 209.589 33.3552 208.232 33.3118C207.035 33.319 205.858 33.007 204.822 32.4083C203.83 31.8322 203.027 30.9829 202.508 29.9625C201.962 28.7937 201.68 27.5204 201.68 26.2314C201.68 24.9425 201.962 23.6692 202.508 22.5004C203.032 21.492 203.835 20.6542 204.822 20.0858C205.859 19.5114 207.03 19.2212 208.216 19.2445C209.582 19.2066 210.921 19.6293 212.016 20.4441ZM204.385 21.8773C203.308 23.0759 202.746 24.6479 202.821 26.2548C202.748 27.8709 203.309 29.4518 204.385 30.6635C204.919 31.1997 205.563 31.616 206.272 31.8847C206.982 32.1533 207.74 32.2681 208.498 32.2213C209.515 32.2348 210.518 31.9823 211.406 31.4891C212.264 30.9897 212.96 30.254 213.408 29.3705C213.898 28.4054 214.145 27.3361 214.127 26.2548C214.15 25.173 213.903 24.1025 213.408 23.1391C212.959 22.2598 212.264 21.5292 211.406 21.036C210.522 20.5311 209.517 20.2728 208.498 20.2883C207.736 20.2483 206.974 20.3692 206.263 20.643C205.551 20.9169 204.906 21.3375 204.369 21.8773H204.385Z" fill="#375AA9"/>
<path d="M229.593 20.6154C230.71 21.4964 231.453 22.7647 231.673 24.1672H230.484C230.31 23.024 229.692 21.9946 228.764 21.3008C227.75 20.5777 226.523 20.2105 225.276 20.2571C224.329 20.2481 223.394 20.4729 222.555 20.9114C221.706 21.373 221.01 22.0714 220.554 22.921C220.056 23.9651 219.798 25.1066 219.798 26.2625C219.798 27.4185 220.056 28.5599 220.554 29.6041C221.01 30.4537 221.706 31.1521 222.555 31.6137C223.394 32.0522 224.329 32.277 225.276 32.268C226.526 32.316 227.754 31.9428 228.764 31.2087C229.227 30.8681 229.617 30.4393 229.913 29.9473C230.208 29.4552 230.402 28.9097 230.484 28.3423H231.673C231.465 29.7576 230.721 31.0399 229.593 31.9253C228.368 32.8627 226.851 33.3423 225.308 33.2806C224.107 33.3041 222.921 33.0141 221.867 32.4394C220.856 31.8805 220.034 31.0345 219.506 30.0091C218.94 28.8435 218.646 27.5653 218.646 26.2703C218.646 24.9754 218.94 23.6972 219.506 22.5315C220.038 21.5135 220.86 20.6738 221.867 20.1169C222.921 19.5421 224.107 19.2521 225.308 19.2756C226.849 19.2095 228.366 19.6835 229.593 20.6154Z" fill="#375AA9"/>
<path d="M244.542 31.2709C245.006 30.9346 245.397 30.509 245.693 30.0193C245.988 29.5296 246.182 28.9858 246.262 28.4201H247.451C247.241 29.8138 246.502 31.0741 245.387 31.9408C244.162 32.8657 242.653 33.3391 241.117 33.2806C239.909 33.2944 238.717 32.9937 237.661 32.4082C236.656 31.8405 235.837 30.9969 235.3 29.9779C234.734 28.8123 234.439 27.5341 234.439 26.2391C234.439 24.9442 234.734 23.666 235.3 22.5003C235.842 21.4891 236.661 20.6519 237.661 20.0857C238.72 19.511 239.912 19.2211 241.117 19.2444C242.319 19.2135 243.507 19.504 244.558 20.0857C245.485 20.5988 246.245 21.3667 246.747 22.2978C247.245 23.1939 247.503 24.2024 247.498 25.2265C247.493 25.6706 247.451 26.1135 247.373 26.5507H235.581C235.556 27.672 235.831 28.7798 236.379 29.7598C236.837 30.5793 237.528 31.2458 238.365 31.676C239.202 32.0836 240.123 32.2916 241.055 32.2835C242.298 32.3391 243.524 31.9831 244.542 31.2709ZM238.381 20.8334C237.543 21.2614 236.848 21.9214 236.379 22.734C235.844 23.6852 235.569 24.7595 235.581 25.8497H246.419C246.506 24.7733 246.289 23.6942 245.793 22.734C245.344 21.9133 244.657 21.2458 243.823 20.8178C242.992 20.4071 242.076 20.1939 241.149 20.1947C240.188 20.1809 239.238 20.4001 238.381 20.8334Z" fill="#375AA9"/>
<path d="M258.273 20.412C259.177 21.211 259.738 22.3271 259.836 23.5276H258.757C258.682 22.6008 258.264 21.7349 257.584 21.0974C256.823 20.4298 255.83 20.0835 254.816 20.1316C253.946 20.0771 253.087 20.3494 252.408 20.8949C252.12 21.1428 251.891 21.4522 251.74 21.8001C251.588 22.148 251.517 22.5255 251.532 22.9045C251.505 23.4459 251.69 23.9766 252.048 24.3845C252.395 24.7572 252.831 25.036 253.315 25.1945C253.997 25.4294 254.691 25.627 255.395 25.7865C256.214 25.9553 257.019 26.1844 257.803 26.472C258.41 26.7026 258.948 27.0832 259.367 27.578C259.814 28.1679 260.036 28.8967 259.993 29.6344C260.011 30.1294 259.917 30.6222 259.716 31.0756C259.516 31.529 259.215 31.9311 258.835 32.2515C257.981 32.9552 256.894 33.3162 255.786 33.2641C254.449 33.3176 253.135 32.9105 252.064 32.1113C251.095 31.3419 250.471 30.2218 250.328 28.9957H251.47C251.507 29.4645 251.639 29.9211 251.856 30.3385C252.074 30.7559 252.373 31.1256 252.736 31.4259C253.621 32.126 254.737 32.4706 255.864 32.3917C256.276 32.4211 256.691 32.3688 257.083 32.2378C257.474 32.1067 257.836 31.8996 258.147 31.6284C258.417 31.3725 258.629 31.0623 258.769 30.7185C258.91 30.3747 258.975 30.0052 258.961 29.6344C258.988 29.0667 258.798 28.51 258.429 28.0765C258.069 27.6764 257.611 27.3759 257.1 27.2041C256.413 26.9729 255.713 26.7804 255.004 26.6277C254.203 26.4496 253.414 26.2206 252.643 25.9423C252.045 25.7171 251.509 25.3541 251.079 24.883C250.649 24.327 250.433 23.6364 250.469 22.9357C250.449 22.4306 250.546 21.9279 250.752 21.466C250.958 21.0042 251.268 20.5956 251.657 20.2718C252.551 19.5879 253.659 19.2403 254.785 19.2903C256.048 19.2146 257.293 19.615 258.273 20.412Z" fill="#375AA9"/>
</g>
<defs>
<linearGradient id="paint0_linear" x1="30.4809" y1="4.82826" x2="34.7025" y2="36.5813" gradientUnits="userSpaceOnUse">
<stop stop-color="#0A799C"/>
<stop offset="1" stop-color="#205164"/>
</linearGradient>
<linearGradient id="paint1_linear" x1="34.0145" y1="5.13982" x2="8.90177" y2="19.9304" gradientUnits="userSpaceOnUse">
<stop stop-color="#E4F0FA"/>
<stop offset="0.53" stop-color="#BEE6FA"/>
<stop offset="1" stop-color="#E4F0FA"/>
</linearGradient>
<linearGradient id="paint2_linear" x1="35.2967" y1="32.2613" x2="10.184" y2="47.0519" gradientUnits="userSpaceOnUse">
<stop stop-color="#E4F0FA"/>
<stop offset="0.53" stop-color="#BEE6FA"/>
<stop offset="1" stop-color="#E4F0FA"/>
</linearGradient>
<linearGradient id="paint3_linear" x1="9.54016" y1="16.3867" x2="13.7617" y2="48.1242" gradientUnits="userSpaceOnUse">
<stop stop-color="#6FCEEA"/>
<stop offset="1" stop-color="#BFE6F2"/>
</linearGradient>
</defs>
</svg>
