<svg width="880" height="249" viewBox="0 0 880 249" fill="none" xmlns="http://www.w3.org/2000/svg">
<path d="M174.655 32.317L115.091 0L113.427 118.971L174.655 150.1V32.317Z" fill="url(#paint0_linear)"/>
<path d="M174.655 32.2378L60.8323 94.0996L0.000244141 63.6836L115.09 0L174.655 32.2378Z" fill="url(#paint1_linear)"/>
<path d="M182.096 183.052L61.3037 248.399L1.10529 216.557L122.532 150.814L182.096 183.052Z" fill="url(#paint2_linear)"/>
<path d="M61.2281 94.0991L0 63.6831V217.189L61.2281 248.318V94.0991Z" fill="url(#paint3_linear)"/>
<path d="M313.904 119.912C313.904 128.387 312.465 136.195 309.587 143.338C306.762 150.427 302.737 156.53 297.514 161.647C292.344 166.764 286.107 170.761 278.805 173.64C271.503 176.518 263.401 177.957 254.5 177.957H209.886V61.9467H254.5C263.401 61.9467 271.503 63.3859 278.805 66.2641C286.107 69.1424 292.344 73.1667 297.514 78.3369C302.737 83.4538 306.762 89.5568 309.587 96.6459C312.465 103.735 313.904 111.49 313.904 119.912ZM289.279 119.912C289.279 113.836 288.479 108.372 286.88 103.522C285.281 98.6713 282.989 94.5671 280.004 91.2092C277.02 87.8512 273.368 85.2661 269.051 83.4538C264.787 81.6416 259.936 80.7354 254.5 80.7354H234.032V159.168H254.5C259.936 159.168 264.787 158.289 269.051 156.53C273.368 154.718 277.02 152.133 280.004 148.775C282.989 145.363 285.281 141.232 286.88 136.382C288.479 131.532 289.279 126.042 289.279 119.912Z" fill="white"/>
<path d="M443.625 119.912C443.625 128.387 442.186 136.249 439.307 143.498C436.483 150.747 432.458 157.01 427.235 162.286C422.065 167.563 415.828 171.721 408.526 174.759C401.224 177.744 393.122 179.236 384.221 179.236C375.319 179.236 367.217 177.744 359.915 174.759C352.613 171.721 346.35 167.563 341.126 162.286C335.903 157.01 331.852 150.747 328.974 143.498C326.149 136.249 324.736 128.387 324.736 119.912C324.736 111.437 326.149 103.602 328.974 96.406C331.852 89.1571 335.903 82.8941 341.126 77.6173C346.35 72.3405 352.613 68.2096 359.915 65.2247C367.217 62.1866 375.319 60.6675 384.221 60.6675C393.122 60.6675 401.224 62.1866 408.526 65.2247C415.828 68.2096 422.065 72.3671 427.235 77.6973C432.458 82.9741 436.483 89.237 439.307 96.486C442.186 103.682 443.625 111.49 443.625 119.912ZM419.08 119.912C419.08 113.836 418.28 108.399 416.681 103.602C415.082 98.7513 412.763 94.6471 409.725 91.2891C406.74 87.8778 403.089 85.2927 398.772 83.5338C394.508 81.7215 389.657 80.8154 384.221 80.8154C378.784 80.8154 373.907 81.7215 369.589 83.5338C365.272 85.2927 361.594 87.8778 358.556 91.2891C355.571 94.6471 353.279 98.7513 351.68 103.602C350.081 108.399 349.282 113.836 349.282 119.912C349.282 126.042 350.081 131.532 351.68 136.382C353.279 141.179 355.571 145.257 358.556 148.615C361.594 151.973 365.272 154.558 369.589 156.37C373.907 158.129 378.784 159.008 384.221 159.008C389.657 159.008 394.508 158.129 398.772 156.37C403.089 154.558 406.74 151.973 409.725 148.615C412.763 145.257 415.082 141.179 416.681 136.382C418.28 131.532 419.08 126.042 419.08 119.912Z" fill="white"/>
<path d="M553.588 177.957H529.602C528.003 177.957 526.697 177.557 525.684 176.758C524.725 175.958 523.952 175.025 523.366 173.959L498.261 131.265C497.994 131.851 497.728 132.438 497.461 133.024C497.248 133.557 496.982 134.063 496.662 134.543L472.836 173.959C472.143 174.972 471.317 175.905 470.358 176.758C469.451 177.557 468.279 177.957 466.84 177.957H444.453L482.43 118.233L445.892 61.9467H469.878C471.477 61.9467 472.65 62.1599 473.396 62.5863C474.142 63.0127 474.808 63.7057 475.395 64.6651L500.34 105.68C500.606 105.041 500.899 104.401 501.219 103.762C501.539 103.069 501.912 102.376 502.338 101.683L524.725 65.0648C525.365 63.9988 526.057 63.2259 526.804 62.7462C527.603 62.2132 528.563 61.9467 529.682 61.9467H552.628L515.77 117.194L553.588 177.957Z" fill="white"/>
<path d="M604.787 119.672C612.302 119.672 617.792 117.86 621.257 114.235C624.775 110.611 626.534 105.654 626.534 99.3643C626.534 96.486 626.081 93.8742 625.175 91.529C624.322 89.1304 622.989 87.1049 621.177 85.4526C619.418 83.747 617.179 82.4411 614.461 81.535C611.743 80.6288 608.518 80.1758 604.787 80.1758H589.596V119.672H604.787ZM604.787 61.9467C612.729 61.9467 619.578 62.8795 625.335 64.745C631.144 66.6106 635.915 69.2224 639.646 72.5803C643.377 75.885 646.122 79.8293 647.881 84.4132C649.693 88.9971 650.599 93.9808 650.599 99.3643C650.599 105.067 649.667 110.291 647.801 115.035C645.936 119.779 643.111 123.856 639.326 127.268C635.542 130.679 630.771 133.344 625.015 135.263C619.258 137.128 612.516 138.061 604.787 138.061H589.596V177.957H565.61V61.9467H604.787Z" fill="white"/>
<path d="M702.161 116.874C706.052 116.874 709.41 116.394 712.235 115.435C715.06 114.422 717.378 113.063 719.191 111.357C721.003 109.598 722.336 107.546 723.188 105.201C724.041 102.855 724.468 100.297 724.468 97.5254C724.468 92.0353 722.629 87.7712 718.951 84.733C715.326 81.6949 709.783 80.1758 702.321 80.1758H689.848V116.874H702.161ZM758.367 177.957H736.7C732.649 177.957 729.718 176.411 727.906 173.32L705.839 137.741C704.933 136.355 703.92 135.343 702.801 134.703C701.735 134.063 700.136 133.744 698.003 133.744H689.848V177.957H665.863V61.9467H702.321C710.423 61.9467 717.352 62.7995 723.108 64.5052C728.865 66.1575 733.582 68.4761 737.26 71.461C740.938 74.4459 743.629 78.0171 745.335 82.1746C747.041 86.2788 747.894 90.8094 747.894 95.7664C747.894 99.6041 747.334 103.255 746.215 106.72C745.149 110.131 743.576 113.249 741.497 116.074C739.419 118.899 736.86 121.404 733.822 123.59C730.784 125.775 727.319 127.534 723.428 128.867C724.974 129.719 726.413 130.759 727.746 131.985C729.078 133.157 730.277 134.57 731.343 136.222L758.367 177.957Z" fill="white"/>
<path d="M879.926 119.912C879.926 128.387 878.486 136.249 875.608 143.498C872.783 150.747 868.759 157.01 863.535 162.286C858.365 167.563 852.129 171.721 844.827 174.759C837.524 177.744 829.422 179.236 820.521 179.236C811.62 179.236 803.518 177.744 796.216 174.759C788.913 171.721 782.651 167.563 777.427 162.286C772.203 157.01 768.153 150.747 765.274 143.498C762.449 136.249 761.037 128.387 761.037 119.912C761.037 111.437 762.449 103.602 765.274 96.406C768.153 89.1571 772.203 82.8941 777.427 77.6173C782.651 72.3405 788.913 68.2096 796.216 65.2247C803.518 62.1866 811.62 60.6675 820.521 60.6675C829.422 60.6675 837.524 62.1866 844.827 65.2247C852.129 68.2096 858.365 72.3671 863.535 77.6973C868.759 82.9741 872.783 89.237 875.608 96.486C878.486 103.682 879.926 111.49 879.926 119.912ZM855.38 119.912C855.38 113.836 854.581 108.399 852.982 103.602C851.383 98.7513 849.064 94.6471 846.026 91.2891C843.041 87.8778 839.39 85.2927 835.072 83.5338C830.808 81.7215 825.958 80.8154 820.521 80.8154C815.084 80.8154 810.207 81.7215 805.89 83.5338C801.573 85.2927 797.895 87.8778 794.857 91.2891C791.872 94.6471 789.58 98.7513 787.981 103.602C786.382 108.399 785.582 113.836 785.582 119.912C785.582 126.042 786.382 131.532 787.981 136.382C789.58 141.179 791.872 145.257 794.857 148.615C797.895 151.973 801.573 154.558 805.89 156.37C810.207 158.129 815.084 159.008 820.521 159.008C825.958 159.008 830.808 158.129 835.072 156.37C839.39 154.558 843.041 151.973 846.026 148.615C849.064 145.257 851.383 141.179 852.982 136.382C854.581 131.532 855.38 126.042 855.38 119.912Z" fill="white"/>
<defs>
<linearGradient id="paint0_linear" x1="120.556" y1="8.87134" x2="144.041" y2="184.635" gradientUnits="userSpaceOnUse">
<stop stop-color="#07799C"/>
<stop offset="1" stop-color="#1E5064"/>
</linearGradient>
<linearGradient id="paint1_linear" x1="154.14" y1="8.23763" x2="15.2874" y2="89.6639" gradientUnits="userSpaceOnUse">
<stop stop-color="#E4F0FA"/>
<stop offset="0.526042" stop-color="#BEE5F9"/>
<stop offset="1" stop-color="#E4F0FA"/>
</linearGradient>
<linearGradient id="paint2_linear" x1="161.582" y1="159.052" x2="22.7292" y2="240.478" gradientUnits="userSpaceOnUse">
<stop stop-color="#E4F0FA"/>
<stop offset="0.526042" stop-color="#BEE5F9"/>
<stop offset="0.9999" stop-color="#E4F0FA"/>
<stop offset="1" stop-color="#C4C4C4" stop-opacity="0"/>
<stop offset="1" stop-color="#E4F0FA"/>
</linearGradient>
<linearGradient id="paint3_linear" x1="7.12876" y1="72.5544" x2="30.614" y2="248.318" gradientUnits="userSpaceOnUse">
<stop stop-color="#6DCDE9"/>
<stop offset="1" stop-color="#BEE7F2"/>
</linearGradient>
</defs>
</svg>
