<svg width="254" height="46" viewBox="0 0 254 46" fill="none" xmlns="http://www.w3.org/2000/svg">
<path d="M31.6903 6.4083L20.8997 0.566406L20.6025 22.0646L31.6903 27.6728V6.4083Z" fill="url(#paint0_linear)"/>
<path d="M31.6895 6.39272L11.0622 17.5624L0.115234 12.0788L20.9771 0.566406L31.6895 6.39272Z" fill="url(#paint1_linear)"/>
<path d="M33.05 33.6389L11.156 45.4473L0.208984 39.6989L22.2125 27.8281L33.05 33.6389Z" fill="url(#paint2_linear)"/>
<path d="M11.1405 17.5617L0.0214844 12.0781V39.87L11.1249 45.4938L11.1405 17.5617Z" fill="url(#paint3_linear)"/>
<path d="M56.9304 20.5709C56.9503 22.0157 56.6846 23.4502 56.1485 24.7927C55.6657 26.0422 54.919 27.1738 53.9591 28.1109C52.9908 29.0517 51.8419 29.7881 50.5812 30.2763C49.1727 30.8073 47.677 31.0715 46.1711 31.0552H38.0859V10.1023H46.1711C47.677 10.086 49.1727 10.3502 50.5812 10.8812C51.8488 11.3631 52.9999 12.1063 53.9591 13.0622C54.921 13.9916 55.6681 15.1186 56.1485 16.3648C56.6853 17.7017 56.9511 19.1312 56.9304 20.5709ZM52.4734 20.5709C52.491 19.5671 52.3431 18.5672 52.0355 17.6111C51.7811 16.7888 51.3548 16.0296 50.7845 15.3833C50.2454 14.7704 49.5709 14.2905 48.814 13.9813C47.9744 13.6457 47.0756 13.4814 46.1711 13.4984H42.4647V27.6591H46.1711C47.0756 27.676 47.9744 27.5118 48.814 27.1762C49.5709 26.867 50.2454 26.3871 50.7845 25.7741C51.3548 25.1279 51.7811 24.3687 52.0355 23.5464C52.3418 22.5846 52.4896 21.5798 52.4734 20.5709Z" fill="#375AA9"/>
<path d="M80.4513 20.5698C80.4623 22.0239 80.197 23.4669 79.6694 24.8227C79.1845 26.094 78.4388 27.2507 77.48 28.2188C76.5198 29.2114 75.3646 29.9963 74.0864 30.5244C71.2517 31.6044 68.1166 31.6044 65.2819 30.5244C64.0064 30.0112 62.8472 29.2484 61.8727 28.2811C60.9093 27.3136 60.1584 26.1571 59.6677 24.885C58.6459 22.1411 58.6459 19.1231 59.6677 16.3792C60.1592 15.1043 60.9124 13.9456 61.8791 12.9772C62.8458 12.0088 64.0048 11.2521 65.2819 10.7554C68.1127 9.65444 71.2556 9.65444 74.0864 10.7554C75.3623 11.2592 76.5183 12.0233 77.48 12.9987C78.4353 13.9697 79.1805 15.1255 79.6694 16.3948C80.1891 17.7257 80.4543 19.1417 80.4513 20.5698ZM76.01 20.5698C76.0212 19.5715 75.8734 18.5777 75.5721 17.6255C75.3092 16.8036 74.8778 16.045 74.3054 15.3978C73.7688 14.7752 73.0867 14.2937 72.3193 13.9957C71.4805 13.6572 70.5811 13.4928 69.6764 13.5128C68.7718 13.4959 67.8731 13.6601 67.0334 13.9957C66.2633 14.297 65.5769 14.7778 65.0317 15.3978C64.4648 16.0464 64.0388 16.8049 63.7806 17.6255C63.4848 18.5786 63.3423 19.5723 63.3584 20.5698C63.3447 21.5774 63.4871 22.581 63.7806 23.5453C64.0428 24.3549 64.4685 25.1024 65.0317 25.7418C65.5856 26.3521 66.2695 26.8311 67.0334 27.1439C67.8731 27.4795 68.7718 27.6437 69.6764 27.6268C70.5811 27.6468 71.4805 27.4824 72.3193 27.1439C73.0807 26.8348 73.7603 26.355 74.3054 25.7418C74.8741 25.1038 75.3053 24.3561 75.5721 23.5453C75.8709 22.5818 76.0186 21.5782 76.01 20.5698Z" fill="#375AA9"/>
<path d="M100.39 31.0549H96.043C95.785 31.064 95.532 30.9872 95.323 30.8368C95.153 30.6914 95.01 30.5174 94.901 30.3227L90.3503 22.6114L90.2095 22.9385C90.1783 23.0343 90.1307 23.1238 90.0688 23.2034L85.7525 30.3227C85.6229 30.5118 85.4706 30.6844 85.299 30.8368C85.1185 30.9839 84.8909 31.0614 84.6578 31.0549H80.6074L87.4884 20.2591L80.8576 10.102H85.2052C85.4247 10.0842 85.6452 10.1217 85.8463 10.211C85.9997 10.2987 86.1246 10.4285 86.206 10.5849L90.7256 18.0625C90.7256 17.9379 90.8351 17.8288 90.8976 17.7198C90.9497 17.5824 91.0179 17.4517 91.1009 17.3303L95.151 10.7251C95.252 10.5651 95.379 10.4229 95.527 10.3045C95.687 10.2092 95.871 10.1606 96.058 10.1643H100.218L93.5249 20.1344L100.39 31.0549Z" fill="#375AA9"/>
<path d="M109.664 20.5217C110.193 20.5756 110.726 20.5234 111.234 20.3682C111.742 20.213 112.213 19.9579 112.62 19.6182C112.95 19.257 113.204 18.834 113.368 18.374C113.531 17.914 113.602 17.426 113.574 16.9387C113.582 16.456 113.502 15.9758 113.339 15.5211C113.19 15.0974 112.938 14.7174 112.604 14.415C112.257 14.092 111.839 13.8522 111.385 13.714C110.833 13.5109 110.252 13.4004 109.664 13.3868H106.912V20.5217H109.664ZM109.664 10.0998C110.923 10.0765 112.178 10.2446 113.386 10.5983C114.343 10.8808 115.229 11.3642 115.982 12.0159C116.669 12.591 117.206 13.3233 117.546 14.1502C117.879 15.0148 118.044 15.9348 118.031 16.8608C118.013 17.8063 117.822 18.7407 117.468 19.6182C117.121 20.4635 116.586 21.2198 115.904 21.8303C115.146 22.4824 114.263 22.9751 113.308 23.2791C112.116 23.6295 110.876 23.7976 109.633 23.7776H106.912V30.9904H102.564V10.0998H109.664Z" fill="#375AA9"/>
<path d="M127.32 20.0232C127.94 20.0332 128.558 19.9437 129.15 19.7583C129.609 19.5945 130.034 19.3461 130.401 19.0262C130.725 18.7098 130.975 18.3271 131.136 17.9045C131.303 17.4559 131.388 16.981 131.386 16.5025C131.409 16.0688 131.332 15.6356 131.162 15.236C130.991 14.8365 130.731 14.481 130.401 14.1969C129.509 13.5841 128.431 13.2979 127.351 13.3868H125.131V20.0232H127.32ZM137.501 31.0527H133.576C133.262 31.0693 132.951 30.9996 132.675 30.8512C132.399 30.7027 132.17 30.4814 132.012 30.2114L128.024 23.7776C127.877 23.558 127.685 23.3721 127.461 23.2323C127.193 23.1041 126.897 23.0452 126.601 23.061H125.131V31.0527H120.736V10.0997H127.351C128.623 10.0778 129.891 10.2298 131.12 10.5515C132.047 10.8091 132.917 11.2371 133.685 11.8134C134.326 12.3242 134.827 12.9889 135.139 13.7451C135.462 14.5254 135.621 15.3628 135.609 16.2065C135.607 16.8768 135.506 17.5433 135.311 18.1849C135.117 18.788 134.827 19.356 134.451 19.8674C134.064 20.391 133.594 20.8487 133.06 21.2227C132.482 21.6393 131.844 21.9651 131.167 22.1886C131.457 22.3324 131.721 22.5217 131.949 22.7494C132.208 22.9667 132.43 23.2245 132.606 23.5127L137.501 31.0527Z" fill="#375AA9"/>
<path d="M159.535 20.5694C159.554 22.0242 159.288 23.4686 158.753 24.8223C158.274 26.0966 157.528 27.2544 156.564 28.2184C155.61 29.211 154.46 29.996 153.186 30.524C150.346 31.6036 147.206 31.6036 144.366 30.524C143.09 30.0214 141.932 29.2609 140.966 28.2902C139.999 27.3196 139.246 26.16 138.752 24.8846C137.73 22.1407 137.73 19.1228 138.752 16.3788C139.258 15.1146 140.007 13.961 140.957 12.9827C141.928 12.0154 143.088 11.2571 144.366 10.755C147.202 9.65459 150.35 9.65459 153.186 10.755C154.454 11.2622 155.603 12.0249 156.561 12.9953C157.519 13.9658 158.266 15.123 158.753 16.3944C159.28 17.7232 159.546 19.1407 159.535 20.5694ZM155.094 20.5694C155.113 19.5706 154.965 18.5755 154.656 17.6251C154.405 16.8013 153.978 16.0414 153.405 15.3974C152.865 14.7781 152.184 14.2972 151.419 13.9953C150.579 13.6597 149.681 13.4955 148.776 13.5124C147.866 13.4955 146.962 13.6597 146.117 13.9953C145.35 14.3008 144.664 14.7809 144.116 15.3974C143.554 16.0474 143.134 16.8058 142.88 17.6251C142.571 18.5755 142.423 19.5706 142.442 20.5694C142.426 21.5783 142.574 22.5831 142.88 23.5449C143.138 24.3532 143.558 25.1006 144.116 25.7414C144.673 26.3482 145.356 26.8267 146.117 27.1435C146.962 27.4792 147.866 27.6433 148.776 27.6264C149.681 27.6434 150.579 27.4791 151.419 27.1435C152.178 26.8306 152.857 26.3514 153.405 25.7414C153.975 25.1069 154.402 24.3578 154.656 23.5449C154.962 22.5831 155.11 21.5783 155.094 20.5694Z" fill="#375AA9"/>
<path d="M175.379 27.9308C175.004 28.6504 174.421 29.2417 173.706 29.6289C172.832 30.094 171.85 30.3198 170.86 30.2832C169.848 30.3002 168.847 30.0815 167.935 29.6445C167.118 29.2694 166.412 28.6897 165.887 27.962C165.39 27.2915 165.082 26.5008 164.995 25.672H166.184C166.292 26.2625 166.509 26.8277 166.825 27.3388C167.212 27.9443 167.751 28.4384 168.389 28.7721C169.146 29.1793 169.999 29.3783 170.86 29.3485C171.384 29.383 171.911 29.3095 172.406 29.1326C172.901 28.9557 173.354 28.6792 173.737 28.3203C174.071 27.9817 174.333 27.5797 174.508 27.138C174.682 26.6964 174.766 26.2243 174.754 25.7499C174.791 24.9864 174.564 24.2333 174.112 23.6156C173.7 23.0839 173.163 22.6612 172.549 22.3849C171.736 22.0272 170.9 21.7253 170.046 21.4814C169.124 21.2211 168.22 20.8984 167.341 20.5155C166.656 20.1954 166.068 19.7011 165.636 19.0823C165.082 18.2076 164.843 17.1707 164.96 16.1426C165.076 15.1146 165.541 14.1568 166.277 13.4273C167.334 12.5674 168.687 12.1536 170.046 12.2745C171.418 12.1979 172.77 12.6246 173.847 13.4741C174.74 14.1943 175.354 15.2024 175.582 16.3249H174.363C174.171 15.4812 173.704 14.7248 173.033 14.1751C172.193 13.4937 171.128 13.1492 170.046 13.2093C169.041 13.1601 168.052 13.4755 167.263 14.0972C166.907 14.411 166.628 14.8013 166.446 15.2386C166.265 15.6759 166.186 16.1486 166.215 16.6209C166.175 17.3462 166.391 18.0625 166.825 18.6461C167.243 19.1603 167.779 19.5665 168.389 19.8301C169.178 20.1838 169.993 20.4755 170.828 20.7025C171.77 20.9635 172.69 21.2968 173.581 21.6995C174.277 22.0362 174.879 22.5393 175.332 23.1638C175.844 23.9501 176.095 24.8762 176.052 25.8122C175.991 26.56 175.761 27.2844 175.379 27.9308Z" fill="#375AA9"/>
<path d="M189.321 16.8907C190.308 17.4591 191.111 18.297 191.636 19.3054C192.181 20.4741 192.464 21.7475 192.464 23.0364C192.464 24.3253 192.181 25.5987 191.636 26.7674C191.112 27.7763 190.309 28.6144 189.321 29.1821C188.285 29.7564 187.114 30.0467 185.928 30.0233C184.576 30.0644 183.249 29.653 182.159 28.8549C181.128 28.0781 180.385 26.9821 180.047 25.7393L180 37H179V16.2209H180.11V20.2868C180.449 19.0444 181.191 17.9488 182.221 17.1711C183.311 16.3731 184.638 15.9617 185.99 16.0028C187.159 16.0046 188.307 16.3107 189.321 16.8907ZM182.8 17.7943C181.946 18.2697 181.247 18.9776 180.783 19.835C180.275 20.7944 180.022 21.8668 180.047 22.9507C180.028 24.0341 180.28 25.1052 180.783 26.0664C181.237 26.951 181.937 27.6865 182.8 28.1851C183.689 28.6783 184.691 28.9307 185.709 28.9172C186.463 28.9598 187.218 28.843 187.924 28.5745C188.631 28.306 189.272 27.892 189.806 27.3594C190.882 26.1478 191.443 24.5668 191.37 22.9507C191.445 21.3438 190.883 19.7718 189.806 18.5732C189.269 18.0438 188.628 17.6318 187.922 17.3636C187.217 17.0953 186.463 16.9767 185.709 17.0154C184.686 17.0093 183.681 17.2785 182.8 17.7943Z" fill="#375AA9"/>
<path d="M206.016 17.4441C207.041 18.2234 207.778 19.319 208.112 20.5597V16.4471H209.253V30.1093H208.112V26.0278C207.78 27.2695 207.043 28.3658 206.016 29.1434C204.921 29.9438 203.589 30.3552 202.232 30.3118C201.035 30.319 199.858 30.007 198.822 29.4083C197.83 28.8322 197.027 27.9829 196.508 26.9625C195.962 25.7937 195.68 24.5204 195.68 23.2314C195.68 21.9425 195.962 20.6692 196.508 19.5004C197.032 18.492 197.835 17.6542 198.822 17.0858C199.859 16.5114 201.03 16.2212 202.216 16.2445C203.582 16.2066 204.921 16.6293 206.016 17.4441ZM198.385 18.8773C197.308 20.0759 196.746 21.6479 196.821 23.2548C196.748 24.8709 197.309 26.4518 198.385 27.6635C198.919 28.1997 199.563 28.616 200.272 28.8847C200.982 29.1533 201.74 29.2681 202.498 29.2213C203.515 29.2348 204.518 28.9823 205.406 28.4891C206.264 27.9897 206.96 27.254 207.408 26.3705C207.898 25.4054 208.145 24.3361 208.127 23.2548C208.15 22.173 207.903 21.1025 207.408 20.1391C206.959 19.2598 206.264 18.5292 205.406 18.036C204.522 17.5311 203.517 17.2728 202.498 17.2883C201.736 17.2483 200.974 17.3692 200.263 17.643C199.551 17.9169 198.906 18.3375 198.369 18.8773H198.385Z" fill="#375AA9"/>
<path d="M223.593 17.6154C224.71 18.4964 225.453 19.7647 225.673 21.1672H224.484C224.31 20.024 223.692 18.9946 222.764 18.3008C221.75 17.5777 220.523 17.2105 219.276 17.2571C218.329 17.2481 217.394 17.4729 216.555 17.9114C215.706 18.373 215.01 19.0714 214.554 19.921C214.056 20.9651 213.798 22.1066 213.798 23.2625C213.798 24.4185 214.056 25.5599 214.554 26.6041C215.01 27.4537 215.706 28.1521 216.555 28.6137C217.394 29.0522 218.329 29.277 219.276 29.268C220.526 29.316 221.754 28.9428 222.764 28.2087C223.227 27.8681 223.617 27.4393 223.913 26.9473C224.208 26.4552 224.402 25.9097 224.484 25.3423H225.673C225.465 26.7576 224.721 28.0399 223.593 28.9253C222.368 29.8627 220.851 30.3423 219.308 30.2806C218.107 30.3041 216.921 30.0141 215.867 29.4394C214.856 28.8805 214.034 28.0345 213.506 27.0091C212.94 25.8435 212.646 24.5653 212.646 23.2703C212.646 21.9754 212.94 20.6972 213.506 19.5315C214.038 18.5135 214.86 17.6738 215.867 17.1169C216.921 16.5421 218.107 16.2521 219.308 16.2756C220.849 16.2095 222.366 16.6835 223.593 17.6154Z" fill="#375AA9"/>
<path d="M238.542 28.2709C239.006 27.9346 239.397 27.509 239.693 27.0193C239.988 26.5296 240.182 25.9858 240.262 25.4201H241.451C241.241 26.8138 240.502 28.0741 239.387 28.9408C238.162 29.8657 236.653 30.3391 235.117 30.2806C233.909 30.2944 232.717 29.9937 231.661 29.4082C230.656 28.8405 229.837 27.9969 229.3 26.9779C228.734 25.8123 228.439 24.5341 228.439 23.2391C228.439 21.9442 228.734 20.666 229.3 19.5003C229.842 18.4891 230.661 17.6519 231.661 17.0857C232.72 16.511 233.912 16.2211 235.117 16.2444C236.319 16.2135 237.507 16.504 238.558 17.0857C239.485 17.5988 240.245 18.3667 240.747 19.2978C241.245 20.1939 241.503 21.2024 241.498 22.2265C241.493 22.6706 241.451 23.1135 241.373 23.5507H229.581C229.556 24.672 229.831 25.7798 230.379 26.7598C230.837 27.5793 231.528 28.2458 232.365 28.676C233.202 29.0836 234.123 29.2916 235.055 29.2835C236.298 29.3391 237.524 28.9831 238.542 28.2709ZM232.381 17.8334C231.543 18.2614 230.848 18.9214 230.379 19.734C229.844 20.6852 229.569 21.7595 229.581 22.8497H240.419C240.506 21.7733 240.289 20.6942 239.793 19.734C239.344 18.9133 238.657 18.2458 237.823 17.8178C236.992 17.4071 236.076 17.1939 235.149 17.1947C234.188 17.1809 233.238 17.4001 232.381 17.8334Z" fill="#375AA9"/>
<path d="M252.273 17.412C253.177 18.211 253.738 19.3271 253.836 20.5276H252.757C252.682 19.6008 252.264 18.7349 251.584 18.0974C250.823 17.4298 249.83 17.0835 248.816 17.1316C247.946 17.0771 247.087 17.3494 246.408 17.8949C246.12 18.1428 245.891 18.4522 245.74 18.8001C245.588 19.148 245.517 19.5255 245.532 19.9045C245.505 20.4459 245.69 20.9766 246.048 21.3845C246.395 21.7572 246.831 22.036 247.315 22.1945C247.997 22.4294 248.691 22.627 249.395 22.7865C250.214 22.9553 251.019 23.1844 251.803 23.472C252.41 23.7026 252.948 24.0832 253.367 24.578C253.814 25.1679 254.036 25.8967 253.993 26.6344C254.011 27.1294 253.917 27.6222 253.716 28.0756C253.516 28.529 253.215 28.9311 252.835 29.2515C251.981 29.9552 250.894 30.3162 249.786 30.2641C248.449 30.3176 247.135 29.9105 246.064 29.1113C245.095 28.3419 244.471 27.2218 244.328 25.9957H245.47C245.507 26.4645 245.639 26.9211 245.856 27.3385C246.074 27.7559 246.373 28.1256 246.736 28.4259C247.621 29.126 248.737 29.4706 249.864 29.3917C250.276 29.4211 250.691 29.3688 251.083 29.2378C251.474 29.1067 251.836 28.8996 252.147 28.6284C252.417 28.3725 252.629 28.0623 252.769 27.7185C252.91 27.3747 252.975 27.0052 252.961 26.6344C252.988 26.0667 252.798 25.51 252.429 25.0765C252.069 24.6764 251.611 24.3759 251.1 24.2041C250.413 23.9729 249.713 23.7804 249.004 23.6277C248.203 23.4496 247.414 23.2206 246.643 22.9423C246.045 22.7171 245.509 22.3541 245.079 21.883C244.649 21.327 244.433 20.6364 244.469 19.9357C244.449 19.4306 244.546 18.9279 244.752 18.466C244.958 18.0042 245.268 17.5956 245.657 17.2718C246.551 16.5879 247.659 16.2403 248.785 16.2903C250.048 16.2146 251.293 16.615 252.273 17.412Z" fill="#375AA9"/>
<defs>
<linearGradient id="paint0_linear" x1="24.4809" y1="1.82826" x2="28.7025" y2="33.5813" gradientUnits="userSpaceOnUse">
<stop stop-color="#0A799C"/>
<stop offset="1" stop-color="#205164"/>
</linearGradient>
<linearGradient id="paint1_linear" x1="28.0145" y1="2.13982" x2="2.90177" y2="16.9304" gradientUnits="userSpaceOnUse">
<stop stop-color="#E4F0FA"/>
<stop offset="0.53" stop-color="#BEE6FA"/>
<stop offset="1" stop-color="#E4F0FA"/>
</linearGradient>
<linearGradient id="paint2_linear" x1="29.2967" y1="29.2613" x2="4.184" y2="44.0519" gradientUnits="userSpaceOnUse">
<stop stop-color="#E4F0FA"/>
<stop offset="0.53" stop-color="#BEE6FA"/>
<stop offset="1" stop-color="#E4F0FA"/>
</linearGradient>
<linearGradient id="paint3_linear" x1="3.54016" y1="13.3867" x2="7.76171" y2="45.1242" gradientUnits="userSpaceOnUse">
<stop stop-color="#6FCEEA"/>
<stop offset="1" stop-color="#BFE6F2"/>
</linearGradient>
</defs>
</svg>
