<svg width="283" height="367" viewBox="0 0 283 367" fill="none" xmlns="http://www.w3.org/2000/svg">
<mask id="mask0" mask-type="alpha" maskUnits="userSpaceOnUse" x="0" y="0" width="283" height="367">
<rect width="283" height="367" fill="#C4C4C4"/>
</mask>
<g mask="url(#mask0)">
<path d="M240.406 154.113C251.162 170.403 301.761 114.773 325.715 84.9215L289.005 61.2068C247.21 24.4756 235.869 17.9282 231.212 30.3598C226.555 42.7915 243.779 65.3367 228.366 61.4782C212.953 57.6197 195.3 9.62638 165.273 4.89071C135.246 0.155026 164.025 41.9717 153.99 46.2582C143.955 50.5448 87.3313 0.212383 77.0038 9.37034C66.6762 18.5283 118.507 50.9729 97.4238 43.8407C76.3406 36.7085 19.1894 44.0338 20.1239 77.3346C21.0585 110.635 98.1443 64.4175 102.431 74.4526C106.718 84.4877 62.2119 109.194 84.8928 122.289C107.574 135.384 151.145 77.3766 168.234 69.6022C185.323 61.8279 163.127 122.096 161.159 138.6C159.19 155.105 182.164 163.328 205.878 126.618C229.593 89.9076 243.408 87.8035 255.041 89.4795C266.674 91.1556 226.962 133.75 240.406 154.113Z" fill="#82B7FB"/>
<path d="M88.694 58.9606C102.34 54.2389 141.309 49.0164 188.012 65.8997C234.714 82.7831 288.998 83.0428 310.303 81.0623" stroke="white" stroke-opacity="0.32" stroke-width="3"/>
<path d="M307.941 185.543C322.286 193.825 321.692 157.361 318.425 141.194L307.536 94.5859C290.401 92.2537 253.748 88.2285 244.208 90.7847C232.282 93.9801 240.642 101.326 249.001 108.673C255.688 114.55 247.422 118.682 242.453 120.013C205.462 110.753 184.965 122.103 179.34 128.936C178.248 130.826 176.066 134.606 180.352 144.641C184.639 154.676 239.978 128.665 221.72 155.924C203.461 183.184 141.439 190.217 135.69 204.539C129.942 218.861 149.213 207.306 171.68 207.677C189.653 207.973 181.637 220.986 175.382 227.455C160.741 232.443 131.067 245.719 129.492 258.923C127.524 275.427 138.943 264.379 161.702 259.878C184.461 255.378 158.642 278.273 151.589 281.76C144.535 285.248 67.9553 339.319 136.076 361.008C204.197 382.697 214.118 282.58 218.775 270.149C223.432 257.717 223.275 292.907 250.32 298.442C277.366 303.976 237.111 225.293 243.658 213.952C250.206 202.612 264.955 233.808 275.204 242.245C285.453 250.683 279.141 209.237 283.292 188.953C286.614 172.726 291.224 170.851 293.113 171.942C300.966 171.436 296.601 178.996 307.941 185.543Z" fill="#5A87DF"/>
<path d="M155.214 319.135C159.358 320.687 178.078 303.103 219.81 220.345C261.543 137.587 284.627 112.441 290.953 110.213" stroke="white" stroke-opacity="0.19" stroke-width="3" stroke-linejoin="round"/>
</g>
</svg>
