<svg width="270" height="375" viewBox="0 0 270 375" fill="none" xmlns="http://www.w3.org/2000/svg">
<mask id="mask0" mask-type="alpha" maskUnits="userSpaceOnUse" x="0" y="0" width="270" height="375">
<rect width="270" height="375" fill="#C4C4C4"/>
</mask>
<g mask="url(#mask0)">
<path d="M41.4515 218.598C30.4983 202.44 -19.4193 258.682 -43.0089 288.823L-6.01269 312.089C36.2271 348.309 47.6464 354.717 52.152 342.23C56.6576 329.742 39.1597 307.409 54.6185 311.079C70.0773 314.75 88.3132 362.525 118.396 366.894C148.478 371.264 119.192 329.801 129.174 325.392C139.156 320.984 196.389 370.623 206.604 361.34C216.82 352.057 164.598 320.246 185.766 327.121C206.934 333.996 263.992 325.975 262.652 292.688C261.312 259.401 184.795 306.554 180.387 296.572C175.978 286.59 220.179 261.343 197.341 248.526C174.502 235.708 131.641 294.242 114.648 302.224C97.6546 310.205 119.115 249.671 120.882 233.144C122.649 216.617 99.5775 208.674 76.3115 245.671C53.0455 282.667 39.2569 284.939 27.6045 283.405C15.9521 281.871 55.143 238.796 41.4515 218.598Z" fill="#82B7FB"/>
<path d="M194.311 311.895C180.723 316.783 141.821 322.48 94.9162 306.166C48.0115 289.853 -6.27175 290.254 -27.5503 292.494" stroke="white" stroke-opacity="0.32" stroke-width="3"/>
<path d="M-26.461 187.993C-40.9054 179.886 -39.8677 216.341 -36.4044 232.466L-24.9481 278.939C-7.78672 281.062 28.9131 284.641 38.4214 281.968C50.3069 278.628 41.8589 271.384 33.411 264.14C26.6526 258.345 34.8675 254.113 39.8198 252.721C76.9209 261.53 97.2789 249.931 102.82 243.03C103.888 241.127 106.025 237.321 101.616 227.338C97.2078 217.356 42.1891 244.04 60.1144 216.56C78.0397 189.08 139.972 181.292 145.546 166.901C151.12 152.511 131.99 164.299 109.521 164.202C91.5449 164.124 99.4025 151.015 105.578 144.471C120.157 139.305 149.667 125.668 151.081 112.446C152.848 95.919 141.565 107.105 118.862 111.883C96.1593 116.66 121.697 93.4526 128.708 89.8792C135.719 86.3058 211.635 31.3067 143.255 10.4489C74.8745 -10.409 66.1739 89.8208 61.6683 102.308C57.1627 114.796 56.892 79.6062 29.7807 74.4014C2.66948 69.1966 43.8799 147.384 37.4711 158.803C31.0623 170.223 15.9343 139.208 5.58316 130.896C-4.76802 122.584 2.04855 163.95 -1.85567 184.283C-4.97903 200.55 -9.56591 202.48 -11.4689 201.412C-19.3148 202.014 -15.0417 194.402 -26.461 187.993Z" fill="#5A87DF"/>
<path d="M124.629 52.5526C120.466 51.0507 101.961 68.862 61.2398 152.122C20.5184 235.382 -2.25852 260.807 -8.55684 263.112" stroke="white" stroke-opacity="0.19" stroke-width="3" stroke-linejoin="round"/>
</g>
</svg>
