<svg width="210" height="129" viewBox="0 0 210 129" fill="none" xmlns="http://www.w3.org/2000/svg">
<g opacity="0.7">
<rect width="188.982" height="97.4646" transform="translate(15.7051 0.362305)" fill="white"/>
<path fill-rule="evenodd" clip-rule="evenodd" d="M140.323 53.8618H154.811H161.435H185.697C191.987 53.8618 197.085 48.763 197.085 42.4733C197.085 36.1836 191.987 31.0848 185.697 31.0848H158.188C150.931 13.0853 133.12 0.362305 112.299 0.362305C98.926 0.362305 86.7949 5.61073 77.9044 14.1346H59.2923C53.0026 14.1346 47.9038 19.2335 47.9038 25.5232C47.9038 31.323 52.2393 36.1102 57.8463 36.8207C58.255 36.7574 58.6738 36.7246 59.1002 36.7246H76.5559C81.0424 36.7246 84.6795 40.3616 84.6795 44.8481C84.6795 49.3346 81.0424 52.9716 76.5559 52.9716H63.0834C63.0834 52.9716 63.0834 52.9717 63.0834 52.9717H35.5864C31.0999 52.9717 27.4629 56.6087 27.4629 61.0952C27.4629 65.5817 31.0999 69.2187 35.5864 69.2187H67.3222C75.0831 86.0922 92.3027 97.8269 112.299 97.8269C121.119 97.8269 129.4 95.5436 136.566 91.5431H164.364C168.606 91.5431 172.044 88.1043 172.044 83.8624C172.044 79.6206 168.606 76.1818 164.364 76.1818H137.118C132.388 74.7976 128.934 70.4274 128.934 65.2504C128.934 58.9606 134.033 53.8618 140.323 53.8618Z" fill="#E2E2F2"/>
<rect x="177.949" y="76.1816" width="26.7381" height="15.325" rx="7.66249" fill="#E2E2F2"/>
<rect x="15.7051" y="14.3906" width="26.7381" height="20.4333" rx="10.2167" fill="#E2E2F2"/>
</g>
<rect width="19.315" height="1.51774" rx="0.75887" transform="matrix(0.998758 0.0498135 -0.051122 0.998692 78.1934 64.1348)" fill="#FB6D54"/>
<path d="M114.777 58.978C114.271 55.9505 109.21 54.9764 106.346 55.0851L105.621 58.6629C107.976 58.8411 109.601 62.3316 110.383 61.3136C110.985 60.529 110.196 60.3622 109.276 59.4965C110.036 59.0569 112.065 59.3781 113.528 59.8101C114.153 59.9946 114.884 59.6192 114.777 58.978Z" fill="#F3AEAE"/>
<path d="M101.334 84.3756V84.3756C101.334 92.7755 108.143 99.5849 116.543 99.5849H150.686C169.234 99.5849 184.269 84.5493 184.269 66.002V66.002" stroke="#FF0000" stroke-dasharray="12 12"/>
<path d="M54.6953 25.9902H17.4414C11.973 25.9902 7.54005 30.4232 7.54005 35.8916V35.8916C7.54005 41.36 11.973 45.793 17.4414 45.793H36.6819C44.5744 45.793 50.9725 52.1911 50.9725 60.0836V60.0836C50.9725 67.9761 44.5744 74.3742 36.6819 74.3742H8.06575C4.06313 74.3742 0.818359 77.619 0.818359 81.6216V81.6216C0.818359 85.6242 4.06313 88.869 8.06575 88.869H59.5556" stroke="#0BDEAF" stroke-dasharray="12 12"/>
<rect x="50.457" y="20.4775" width="132.159" height="71.6573" rx="6" fill="#2574D9"/>
<mask id="mask0" mask-type="alpha" maskUnits="userSpaceOnUse" x="50" y="20" width="133" height="73">
<rect x="50.457" y="20.6826" width="132.159" height="71.6573" rx="6" fill="#4632C3"/>
</mask>
<g mask="url(#mask0)">
<path d="M160.278 7.20996L72.7922 106.121V107.551L43.2168 103.876V7.20996H160.278Z" fill="white" fill-opacity="0.1"/>
</g>
<rect x="52.7305" y="26.6025" width="127.816" height="63.2871" fill="#CDE7FF"/>
<ellipse cx="53.7663" cy="23.9485" rx="1.24093" ry="1.22491" fill="#D63838"/>
<ellipse cx="58.1081" cy="23.9485" rx="1.24093" ry="1.22491" fill="#DFDFDF"/>
<ellipse cx="62.4499" cy="23.9485" rx="1.24093" ry="1.22491" fill="#3BD638"/>
<rect x="52.5488" y="26.667" width="10.973" height="63.4408" fill="#323659"/>
<path d="M169.183 96.6396C168.391 98.2039 175.06 99.6378 178.493 100.159L178.691 96.2485C179.682 91.3602 179.682 90.187 178.493 90.3825C177.305 90.5781 176.314 92.9245 175.918 91.5557C175.522 90.187 178.493 86.6674 177.503 84.1255C176.512 81.5836 174.531 85.6898 173.739 85.1032C172.947 84.5166 174.333 77.8685 173.145 77.4774C171.956 77.0863 171.758 82.5612 171.362 80.6059C170.966 78.6506 167.796 74.5444 165.221 76.1087C162.646 77.6729 169.777 81.5836 169.183 82.3657C168.589 83.1478 164.627 80.8014 164.627 83.1478C164.627 85.4942 171.164 86.2764 172.551 87.254C173.937 88.2317 168.193 89.2093 166.806 89.7959C165.419 90.3825 165.815 92.5334 169.777 92.7289C173.739 92.9245 174.531 93.9021 174.928 94.8798C175.324 95.8575 170.173 94.6843 169.183 96.6396Z" fill="#62A2F4"/>
<path d="M169.773 80.6065C170.764 81.4538 172.943 84.2434 173.735 88.6233C174.528 93.0032 176.971 97.2268 178.093 98.791" stroke="white" stroke-opacity="0.32"/>
<path d="M187.501 96.3906C188.293 97.9548 181.624 99.3887 178.19 99.9102L177.992 95.9995C177.002 91.1112 177.002 89.938 178.19 90.1335C179.379 90.3291 180.369 92.6754 180.766 91.3067C181.162 89.938 178.19 86.4184 179.181 83.8765C180.171 81.3346 182.152 85.4407 182.945 84.8541C183.737 84.2675 182.35 77.6194 183.539 77.2284C184.727 76.8373 184.925 82.3122 185.322 80.3569C185.718 78.4016 188.887 74.2954 191.462 75.8596C194.038 77.4239 186.906 81.3346 187.501 82.1167C188.095 82.8988 192.057 80.5524 192.057 82.8988C192.057 85.2452 185.52 86.0273 184.133 87.005C182.746 87.9827 188.491 88.9603 189.878 89.5469C191.264 90.1335 190.868 92.2844 186.906 92.4799C182.945 92.6754 182.152 93.6531 181.756 94.6308C181.36 95.6084 186.51 94.4352 187.501 96.3906Z" fill="#569BF4"/>
<path d="M186.908 80.3545C185.918 81.2018 183.739 83.9914 182.946 88.3714C182.154 92.7513 179.711 96.9748 178.588 98.5391" stroke="white" stroke-opacity="0.32"/>
<path d="M173.939 92.3235C172.272 92.3235 174.158 95.4298 175.256 96.6578L178.549 100.125C180.159 99.4751 183.555 98.0015 184.257 97.308C185.136 96.4411 184.038 96.2244 182.94 96.0077C182.062 95.8343 182.574 95.0686 182.94 94.7074C186.628 93.6671 187.843 91.6734 187.99 90.8065C187.99 90.5898 187.99 90.1563 187.111 89.5062C186.233 88.856 182.72 93.8405 182.94 90.5898C183.16 87.339 188.209 83.6548 187.99 82.1378C187.77 80.6208 186.672 82.5713 184.696 83.6548C183.116 84.5217 183.16 83.0047 183.379 82.1378C184.404 80.982 186.321 78.367 185.794 77.1534C185.136 75.6363 184.696 77.1534 182.94 78.6704C181.184 80.1874 182.281 76.9366 182.72 76.2865C183.16 75.6363 187.111 67.1844 180.086 68.7014C173.06 70.2184 177.232 79.3205 177.451 80.6208C177.671 81.9211 175.915 78.8871 173.28 79.754C170.645 80.6208 178.11 85.3886 178.11 86.6889C178.11 87.9892 175.256 86.0387 173.939 85.822C172.621 85.6053 175.256 88.856 175.915 90.8065C176.441 92.3668 176.134 92.7569 175.915 92.7569C175.256 93.1904 175.256 92.3235 173.939 92.3235Z" fill="#82B7FB"/>
<path d="M180.526 73.2539C180.087 73.3261 179.341 75.7678 179.867 84.9566C180.394 94.1454 179.648 97.4539 179.209 97.9596" stroke="white" stroke-opacity="0.19" stroke-width="2" stroke-linejoin="round"/>
<path d="M173.227 101.982H182.586L181.575 111.971H174.112L173.227 101.982Z" fill="#E92476"/>
<mask id="mask1" mask-type="alpha" maskUnits="userSpaceOnUse" x="173" y="101" width="10" height="11">
<path d="M173.227 101.982H182.586L181.575 111.971H174.112L173.227 101.982Z" fill="#E92476"/>
</mask>
<g mask="url(#mask1)">
<rect x="171.961" y="100.234" width="11.8895" height="3.49584" rx="1.74792" fill="#D2055B"/>
</g>
<rect x="171.961" y="99.2334" width="11.8895" height="3.49584" rx="1.74792" fill="#E92476"/>
<path d="M173.479 104.978H182.332L181.953 108.973H173.731L173.479 104.978Z" fill="#F27CAD"/>
<g filter="url(#filter0_d)">
<rect x="91.6113" y="32.7266" width="39.0892" height="51.0379" rx="3" fill="white"/>
</g>
<g filter="url(#filter1_d)">
<path d="M132.77 32.7266H177.443V46.6089H132.77V32.7266Z" fill="white"/>
</g>
<ellipse cx="155.105" cy="36.4009" rx="2.06821" ry="2.04152" fill="#CDE7FF"/>
<ellipse cx="95.9549" cy="37.6255" rx="2.06821" ry="2.04152" fill="#FFCDD6"/>
<rect x="146.006" y="39.667" width="17.9935" height="0.816607" rx="0.408304" fill="#1978DC" fill-opacity="0.38"/>
<rect x="99.2617" y="36.1973" width="17.9935" height="0.816607" rx="0.408304" fill="#B1D7FF"/>
<ellipse cx="58.1053" cy="33.5435" rx="2.06821" ry="2.04152" fill="#FFCDD6"/>
<rect x="61.2109" y="32.7266" width="17.9935" height="0.816607" rx="0.408304" fill="white" fill-opacity="0.25"/>
<rect x="61.2109" y="33.7471" width="5.37736" height="0.816607" rx="0.408304" fill="white" fill-opacity="0.25"/>
<ellipse cx="58.1053" cy="41.0972" rx="2.06821" ry="2.04152" fill="#FFCDD6"/>
<rect x="61.2109" y="40.2822" width="17.9935" height="0.816607" rx="0.408304" fill="white" fill-opacity="0.25"/>
<rect x="61.2109" y="41.3018" width="5.37736" height="0.816607" rx="0.408304" fill="white" fill-opacity="0.25"/>
<ellipse cx="58.1053" cy="48.6528" rx="2.06821" ry="2.04152" fill="#FFCDD6"/>
<rect x="61.2109" y="47.8379" width="17.9935" height="0.816607" rx="0.408304" fill="white" fill-opacity="0.25"/>
<rect x="61.2109" y="48.8574" width="5.37736" height="0.816607" rx="0.408304" fill="white" fill-opacity="0.25"/>
<ellipse cx="58.1053" cy="56.2036" rx="2.06821" ry="2.04152" fill="#FFCDD6"/>
<rect x="61.2109" y="55.3867" width="17.9935" height="0.816607" rx="0.408304" fill="white" fill-opacity="0.25"/>
<rect x="61.2109" y="56.4062" width="5.37736" height="0.816607" rx="0.408304" fill="white" fill-opacity="0.25"/>
<rect x="99.2617" y="37.626" width="7.65239" height="0.816607" rx="0.408304" fill="#B1D7FF"/>
<rect x="94.0977" y="41.0967" width="10.3411" height="0.816607" rx="0.408304" fill="#B1D7FF"/>
<rect x="94.0977" y="42.5254" width="9.30696" height="0.816607" rx="0.408304" fill="#B1D7FF"/>
<rect x="93.8867" y="43.9551" width="7.23875" height="0.816607" rx="0.408304" fill="#B1D7FF"/>
<rect x="93.8867" y="45.3828" width="4.75689" height="0.816607" rx="0.408304" fill="#B1D7FF"/>
<path d="M93.6816 48.0381V80.7024H127.394" stroke="#B1D7FF"/>
<g filter="url(#filter2_d)">
<rect x="132.768" y="48.2441" width="44.6734" height="13.8823" rx="6.94116" fill="white"/>
</g>
<ellipse cx="138.351" cy="53.1431" rx="2.06821" ry="2.04152" fill="#FFCDD6"/>
<rect x="142.07" y="52.3271" width="17.9935" height="0.816607" rx="0.408304" fill="#B1D7FF"/>
<rect x="142.07" y="53.7559" width="7.65239" height="0.816607" rx="0.408304" fill="#B1D7FF"/>
<rect x="136.488" y="56.4092" width="12.6161" height="0.816607" rx="0.408304" fill="#B1D7FF"/>
<rect x="149.729" y="56.4092" width="4.55007" height="0.816607" rx="0.408304" fill="#B1D7FF"/>
<rect x="155.105" y="56.4092" width="7.23875" height="0.816607" rx="0.408304" fill="#B1D7FF"/>
<rect x="163.17" y="56.4092" width="2.27503" height="0.816607" rx="0.408304" fill="#B1D7FF"/>
<rect x="166.062" y="56.4092" width="10.1342" height="0.816607" rx="0.408304" fill="#B1D7FF"/>
<rect x="140.42" y="42.1162" width="29.3686" height="1.02076" rx="0.510379" fill="#1978DC" fill-opacity="0.38"/>
<path d="M95.9551 78.7626L104.642 73.5567L111.156 62.7367L124.496 47.5273" stroke="#FFB800" stroke-width="2"/>
<ellipse cx="95.9564" cy="78.6613" rx="0.620464" ry="0.612455" fill="#FFB800"/>
<ellipse cx="110.845" cy="63.1457" rx="0.620464" ry="0.612455" fill="#FFB800"/>
<ellipse cx="124.499" cy="47.4259" rx="0.620464" ry="0.612455" fill="#FFB800"/>
<rect x="46.2734" y="33.6299" width="32.471" height="62.4704" rx="5" fill="#4632C3"/>
<rect x="47.6738" y="35.0576" width="29.6648" height="59.6123" rx="5" fill="#CDE7FF"/>
<rect x="58.2969" y="37.1006" width="8.61883" height="1.02076" rx="0.510379" fill="#4632C3"/>
<g filter="url(#filter3_d)">
<rect x="48.4746" y="40.5703" width="27.46" height="7.55362" rx="3.77681" fill="white"/>
</g>
<ellipse cx="53.2876" cy="44.2446" rx="2.00438" ry="2.04152" fill="#FFCDD6"/>
<rect x="56.4941" y="43.4287" width="17.4381" height="0.816607" rx="0.408304" fill="#B1D7FF"/>
<rect x="56.4941" y="44.6533" width="7.41621" height="0.816607" rx="0.408304" fill="#B1D7FF"/>
<g filter="url(#filter4_d)">
<path d="M48.6777 89.8741C48.6777 88.6902 49.6375 87.7305 50.8213 87.7305H73.9941C75.178 87.7305 76.1377 88.6902 76.1377 89.8741V89.8741C76.1377 91.0579 75.178 92.0177 73.9941 92.0177H50.8213C49.6375 92.0177 48.6777 91.0579 48.6777 89.8741V89.8741Z" fill="#5E4DFF"/>
</g>
<rect opacity="0.87" x="53.0859" y="89.3643" width="18.8412" height="1.02076" rx="0.510379" fill="white" fill-opacity="0.44"/>
<rect x="48.6777" y="50.3701" width="27.2596" height="34.5017" rx="6" fill="white"/>
<path d="M52.7168 78.7943L58.6997 75.0946L63.1868 67.4048L72.3748 56.5957" stroke="#FFB800" stroke-width="2"/>
<ellipse cx="52.7164" cy="78.7234" rx="0.427349" ry="0.435267" fill="#FFB800"/>
<ellipse cx="62.9742" cy="67.696" rx="0.427349" ry="0.435267" fill="#FFB800"/>
<ellipse cx="72.3727" cy="56.5241" rx="0.427349" ry="0.435267" fill="#FFB800"/>
<g filter="url(#filter5_d)">
<path d="M132.768 47.6299H201.019V68.839H132.768V47.6299Z" fill="white"/>
</g>
<ellipse cx="141.298" cy="55.1131" rx="3.15977" ry="3.11899" fill="#FFCDD6"/>
<rect x="146.984" y="53.8652" width="27.49" height="1.24759" rx="0.623797" fill="#B1D7FF"/>
<rect x="146.984" y="56.0498" width="11.6912" height="1.24759" rx="0.623797" fill="#B1D7FF"/>
<rect x="138.453" y="60.1035" width="19.2746" height="1.24759" rx="0.623797" fill="#B1D7FF"/>
<rect x="158.678" y="60.1035" width="6.9515" height="1.24759" rx="0.623797" fill="#B1D7FF"/>
<rect x="166.893" y="60.1035" width="11.0592" height="1.24759" rx="0.623797" fill="#B1D7FF"/>
<rect x="179.215" y="60.1035" width="3.47575" height="1.24759" rx="0.623797" fill="#B1D7FF"/>
<rect x="183.637" y="60.1035" width="15.4829" height="1.24759" rx="0.623797" fill="#B1D7FF"/>
<path d="M136.601 46.5639C134.145 44.2712 128.813 47.0207 126.422 48.9578L127.916 52.9596C129.536 51.1175 134.334 52.6508 134.334 51.2843C134.333 50.2312 133.552 50.5924 132.2 50.4418C132.566 49.5666 134.572 48.5238 136.114 47.9655C136.727 47.7436 137.079 47.0102 136.601 46.5639Z" fill="#EE9F86"/>
<path d="M68.4886 76.2749C71.8558 76.6059 74.3617 71.2018 75.0475 68.2223L71.3814 65.9657C71.2463 68.4014 66.5033 70.0952 67.3527 71.1743C68.0072 72.0059 68.4003 71.2473 69.5615 70.5481C69.8152 71.4588 68.8848 73.4881 68.0158 74.8622C67.6668 75.4141 67.8363 76.2108 68.4886 76.2749Z" fill="#EE9F86"/>
<path d="M108.23 30.8549C108.752 29.9995 108.448 21.2313 108.23 16.9541H104.964L101.264 30.8549H108.23Z" fill="#393939"/>
<path d="M109.605 20.9728C109.712 20.6538 109.746 20.2917 109.743 19.9236C109.733 18.5762 109.21 17.2404 108.479 16.1026C102.135 12.7435 99.3583 18.2626 98.7631 21.442L99.5508 30.8247L104.671 31.1849L104.461 28.3856C105.091 27.7636 105.929 28.0228 107.662 28.3856C109.395 28.7485 109.08 27.1934 109.132 26.9342C109.163 26.7809 109.407 26.5615 109.616 26.4016C109.717 26.3252 109.731 26.1778 109.642 26.0894C109.563 26.012 109.563 25.8865 109.642 25.8091L109.762 25.6904C109.885 25.569 109.906 25.3797 109.813 25.2349L109.722 25.0936C109.652 24.9862 109.663 24.8466 109.748 24.7505L109.911 24.5654C110.31 24.1123 110.306 23.4484 110.004 22.9269C109.659 22.3319 109.392 21.6028 109.605 20.9728Z" fill="#EF937E"/>
<mask id="mask2" mask-type="alpha" maskUnits="userSpaceOnUse" x="98" y="15" width="13" height="17">
<path d="M109.605 20.9728C109.712 20.6538 109.746 20.2917 109.743 19.9236C109.733 18.5762 109.21 17.2404 108.479 16.1026C102.135 12.7435 99.3583 18.2626 98.7631 21.442L99.5508 30.8247L104.671 31.1849L104.461 28.3856C105.091 27.7636 105.929 28.0228 107.662 28.3856C109.395 28.7485 109.08 27.1934 109.132 26.9342C109.163 26.7809 109.407 26.5615 109.616 26.4016C109.717 26.3252 109.731 26.1778 109.642 26.0894C109.563 26.012 109.563 25.8865 109.642 25.8091L109.762 25.6904C109.885 25.569 109.906 25.3797 109.813 25.2349L109.722 25.0936C109.652 24.9862 109.663 24.8466 109.748 24.7505L109.911 24.5654C110.31 24.1123 110.306 23.4484 110.004 22.9269C109.659 22.3319 109.392 21.6028 109.605 20.9728Z" fill="#EE9F86"/>
</mask>
<g mask="url(#mask2)">
<path d="M102.967 26.8525C103.418 27.4394 104.746 27.8817 105.567 28.1625C106.016 28.7049 106.715 29.8042 105.919 29.8619C105.123 29.9196 103.762 27.9684 102.967 26.8525Z" fill="#E99494"/>
</g>
<path d="M107.678 17.8293C107.749 19.5845 106.9 22.2191 102.974 22.2191C102.476 22.1489 101.523 22.3876 101.693 23.9041C101.907 25.7996 102.12 27.0634 101.48 29.1695C101.138 30.349 100.769 30.7843 100.626 30.8545H95.9321C95.3631 24.1147 96.9989 11.267 108.094 13.7944C109.374 14.3561 111.205 15.6556 110.228 17.5855C109.803 18.4242 107.969 18.7759 107.672 17.8093L107.678 17.8293Z" fill="#393939"/>
<path d="M119.824 123.679L118.33 118.246L124.305 116.365L124.518 123.261L119.824 123.679Z" fill="#EE9F86"/>
<path d="M124.697 122.479C123.506 122.98 120.728 123.105 119.488 123.105H119.302L118.93 128.329H133.626C136.454 128.329 135.052 126.936 133.998 126.24C131.319 126.24 126.681 123.732 124.697 122.479Z" fill="#1D104A"/>
<path d="M60.3121 83.6083L66.0152 83.5904L66.3092 89.7735L59.5061 88.1922L60.3121 83.6083Z" fill="#EE9F86"/>
<path d="M60.2281 88.564C60.0455 87.299 60.6418 84.6178 60.9628 83.4353L61.011 83.2579L55.9953 81.5511L52.1916 95.5636C51.4597 98.2597 53.1856 97.284 54.1401 96.4592C54.8334 93.905 58.4876 90.1315 60.2281 88.564Z" fill="#1D104A"/>
<path d="M117.262 119.104L92.084 60.7627H110.861L125.37 119.104H117.262Z" fill="#163A49"/>
<path d="M106.38 92.3554L111.075 60.7627H91.8712L95.4985 80.5608L63.2793 82.8776V90.0386L106.38 92.3554Z" fill="#143441"/>
<path d="M112.064 47.7749C107.845 37.5214 105.321 32.1323 104.676 31.0639C104.661 39.2424 105.857 56.8626 110.053 59.1599C114.248 61.4573 124.275 55.8318 128.764 52.732L127.143 48.013C117.381 52.1293 113.023 49.5694 112.064 47.7749Z" fill="#E7A82C"/>
<path d="M104.677 31.064L100.753 30.2289L97.71 30.3389L88.8137 59.5418L111.358 61.6018C111.333 60.5328 110.719 56.4906 108.465 48.8739C106.211 41.2572 104.927 34.0328 104.677 31.064Z" fill="white"/>
<path d="M102.749 67.2273C107.207 58.3781 103.333 38.803 100.839 30.1216L97.742 29.2024C82.4992 35.6688 73.2656 57.0143 70.5541 66.8787L75.5361 68.3575C76.359 68.6018 84.3114 56.9744 86.8558 53.1449C85.119 56.4925 84.597 63.1108 84.5586 66.2125L102.749 67.2273Z" fill="#FEBE40"/>
<defs>
<filter id="filter0_d" x="83.6113" y="28.7266" width="55.0892" height="67.0379" filterUnits="userSpaceOnUse" color-interpolation-filters="sRGB">
<feFlood flood-opacity="0" result="BackgroundImageFix"/>
<feColorMatrix in="SourceAlpha" type="matrix" values="0 0 0 0 0 0 0 0 0 0 0 0 0 0 0 0 0 0 127 0"/>
<feOffset dy="4"/>
<feGaussianBlur stdDeviation="4"/>
<feColorMatrix type="matrix" values="0 0 0 0 0 0 0 0 0 0 0 0 0 0 0 0 0 0 0.1 0"/>
<feBlend mode="normal" in2="BackgroundImageFix" result="effect1_dropShadow"/>
<feBlend mode="normal" in="SourceGraphic" in2="effect1_dropShadow" result="shape"/>
</filter>
<filter id="filter1_d" x="124.77" y="28.7266" width="60.6734" height="29.8823" filterUnits="userSpaceOnUse" color-interpolation-filters="sRGB">
<feFlood flood-opacity="0" result="BackgroundImageFix"/>
<feColorMatrix in="SourceAlpha" type="matrix" values="0 0 0 0 0 0 0 0 0 0 0 0 0 0 0 0 0 0 127 0"/>
<feOffset dy="4"/>
<feGaussianBlur stdDeviation="4"/>
<feColorMatrix type="matrix" values="0 0 0 0 0 0 0 0 0 0 0 0 0 0 0 0 0 0 0.1 0"/>
<feBlend mode="normal" in2="BackgroundImageFix" result="effect1_dropShadow"/>
<feBlend mode="normal" in="SourceGraphic" in2="effect1_dropShadow" result="shape"/>
</filter>
<filter id="filter2_d" x="124.768" y="44.2441" width="60.6734" height="29.8823" filterUnits="userSpaceOnUse" color-interpolation-filters="sRGB">
<feFlood flood-opacity="0" result="BackgroundImageFix"/>
<feColorMatrix in="SourceAlpha" type="matrix" values="0 0 0 0 0 0 0 0 0 0 0 0 0 0 0 0 0 0 127 0"/>
<feOffset dy="4"/>
<feGaussianBlur stdDeviation="4"/>
<feColorMatrix type="matrix" values="0 0 0 0 0 0 0 0 0 0 0 0 0 0 0 0 0 0 0.1 0"/>
<feBlend mode="normal" in2="BackgroundImageFix" result="effect1_dropShadow"/>
<feBlend mode="normal" in="SourceGraphic" in2="effect1_dropShadow" result="shape"/>
</filter>
<filter id="filter3_d" x="40.4746" y="36.5703" width="43.46" height="23.5536" filterUnits="userSpaceOnUse" color-interpolation-filters="sRGB">
<feFlood flood-opacity="0" result="BackgroundImageFix"/>
<feColorMatrix in="SourceAlpha" type="matrix" values="0 0 0 0 0 0 0 0 0 0 0 0 0 0 0 0 0 0 127 0"/>
<feOffset dy="4"/>
<feGaussianBlur stdDeviation="4"/>
<feColorMatrix type="matrix" values="0 0 0 0 0 0 0 0 0 0 0 0 0 0 0 0 0 0 0.1 0"/>
<feBlend mode="normal" in2="BackgroundImageFix" result="effect1_dropShadow"/>
<feBlend mode="normal" in="SourceGraphic" in2="effect1_dropShadow" result="shape"/>
</filter>
<filter id="filter4_d" x="40.6777" y="83.7305" width="43.46" height="20.2872" filterUnits="userSpaceOnUse" color-interpolation-filters="sRGB">
<feFlood flood-opacity="0" result="BackgroundImageFix"/>
<feColorMatrix in="SourceAlpha" type="matrix" values="0 0 0 0 0 0 0 0 0 0 0 0 0 0 0 0 0 0 127 0"/>
<feOffset dy="4"/>
<feGaussianBlur stdDeviation="4"/>
<feColorMatrix type="matrix" values="0 0 0 0 0 0 0 0 0 0 0 0 0 0 0 0 0 0 0.1 0"/>
<feBlend mode="normal" in2="BackgroundImageFix" result="effect1_dropShadow"/>
<feBlend mode="normal" in="SourceGraphic" in2="effect1_dropShadow" result="shape"/>
</filter>
<filter id="filter5_d" x="124.768" y="43.6299" width="84.2511" height="37.2091" filterUnits="userSpaceOnUse" color-interpolation-filters="sRGB">
<feFlood flood-opacity="0" result="BackgroundImageFix"/>
<feColorMatrix in="SourceAlpha" type="matrix" values="0 0 0 0 0 0 0 0 0 0 0 0 0 0 0 0 0 0 127 0"/>
<feOffset dy="4"/>
<feGaussianBlur stdDeviation="4"/>
<feColorMatrix type="matrix" values="0 0 0 0 0 0 0 0 0 0 0 0 0 0 0 0 0 0 0.37 0"/>
<feBlend mode="normal" in2="BackgroundImageFix" result="effect1_dropShadow"/>
<feBlend mode="normal" in="SourceGraphic" in2="effect1_dropShadow" result="shape"/>
</filter>
</defs>
</svg>
