<svg width="64" height="64" viewBox="0 0 64 64" fill="none" xmlns="http://www.w3.org/2000/svg">
<circle cx="32" cy="32" r="32" fill="#1978DC"/>
<path d="M29.1663 40.5006C31.6809 40.5001 34.123 39.6583 36.1038 38.1093L42.3314 44.337L44.3346 42.3338L38.1069 36.1061C39.6568 34.1252 40.4991 31.6825 40.4997 29.1673C40.4997 22.9184 35.4153 17.834 29.1663 17.834C22.9174 17.834 17.833 22.9184 17.833 29.1673C17.833 35.4162 22.9174 40.5006 29.1663 40.5006ZM29.1663 20.6673C33.8541 20.6673 37.6663 24.4796 37.6663 29.1673C37.6663 33.8551 33.8541 37.6673 29.1663 37.6673C24.4786 37.6673 20.6663 33.8551 20.6663 29.1673C20.6663 24.4796 24.4786 20.6673 29.1663 20.6673Z" fill="white"/>
<path d="M31.1669 27.1624C31.7038 27.7007 31.9999 28.4119 31.9999 29.1656H34.8333C34.8345 28.421 34.6882 27.6836 34.4027 26.9959C34.1172 26.3083 33.6983 25.684 33.1701 25.1592C31.0253 23.0172 27.3065 23.0172 25.1631 25.1592L27.1634 27.1652C28.2401 26.0914 30.0959 26.0942 31.1669 27.1624Z" fill="white"/>
</svg>
