<svg width="265" height="406" viewBox="0 0 265 406" fill="none" xmlns="http://www.w3.org/2000/svg">
<path d="M55.2713 281.874L70.6885 279.24L75.2509 295.777L55.826 294.567L55.2713 281.874Z" fill="#EE9F86"/>
<path d="M57.8106 295.885C56.4388 292.45 56.6071 285.125 56.7352 281.67L56.6473 281.255L41.9514 278.837L40.0616 318.633C39.7293 326.199 43.9414 322.748 45.9975 320.278C46.5818 312.888 53.9504 300.998 57.8106 295.885Z" fill="#1B154A"/>
<path d="M-12.1149 269.276L3.30228 266.642L7.86472 283.179L-11.5602 281.969L-12.1149 269.276Z" fill="#EE9F86"/>
<path d="M-9.40688 283.041C-10.7787 279.607 -10.6105 272.281 -10.4823 268.826L-10.5703 268.411L-25.2663 265.993L-27.156 305.789C-27.4883 313.355 -23.2761 309.904 -21.22 307.435C-20.6357 300.044 -13.2671 288.155 -9.40688 283.041Z" fill="#1B154A"/>
<path d="M189.653 136.478C191.217 134.731 192.641 113.044 193.189 102.441L185.175 101.122L172.289 133.621L189.653 136.478Z" fill="#3A3A39"/>
<path d="M195.744 113.14C196.235 112.42 196.223 111.352 196.299 110.697C196.677 107.426 195.725 103.936 194.03 100.99C179.122 90.2681 170.621 102.736 168.544 110.128L168.053 133.115L180.628 135.852L180.884 128.961C182.531 127.632 184.704 128.79 188.874 130.276C193.045 131.763 192.67 127.968 192.746 127.314C192.909 127.074 193.651 126.529 194.229 126.224C194.392 125.985 194.556 125.745 194.305 125.57C194.054 125.395 194.217 125.156 194.38 124.916L194.544 124.676C194.707 124.436 195.034 123.957 194.947 123.542L194.859 123.128C194.771 122.713 194.935 122.474 195.098 122.234L195.676 121.929C196.745 120.905 197.06 119.357 196.131 118.004C195.617 116.585 195.015 114.753 195.744 113.14Z" fill="#EE937E"/>
<path d="M192.062 104.858C191.693 109.215 189.088 115.213 179.302 113.737C178.128 113.276 175.627 113.668 175.751 117.303C175.887 122.011 175.923 125.23 173.723 130.09C172.585 132.848 171.511 133.876 171.094 133.941L159.3 132.135C159.614 115.318 167.12 84.6894 194.126 95.2901C197.32 97.1542 201.371 101.034 198.414 105.367C197.099 107.293 192.591 107.354 192.062 104.858Z" fill="#3A3A39"/>
<path d="M173.401 109.144L184.127 107.884L165.779 102.099C165.331 105.973 169.222 109.377 173.401 109.144Z" fill="#595552"/>
<path d="M208.284 109.445C208.647 105.142 204.04 105.441 201.724 104.53C202.237 98.9306 200.126 86.9499 186.27 84.6668C172.413 82.3836 166.942 93.6439 166.266 99.4813C165.445 99.6103 164.137 100.452 164.647 101.858C165.654 103.611 207.683 114.634 208.284 109.445Z" fill="#FEDF00"/>
<path d="M198.601 96.7089C198.688 97.1194 198.365 97.5943 197.954 97.6587C197.544 97.7231 197.046 97.3771 196.959 96.9666L198.601 96.7089ZM194.859 93.0555C194.362 92.7094 194.275 92.299 194.599 91.8241C194.922 91.3493 195.333 91.2848 195.83 91.6309L194.859 93.0555ZM196.959 96.9666C196.873 96.5562 196.699 95.7353 196.363 95.1518C196.028 94.5684 195.443 93.8119 194.859 93.0555L195.83 91.6309C196.825 92.3229 197.496 93.4898 198.08 94.2463C198.503 95.2402 198.676 96.0611 199.012 96.6445L196.959 96.9666Z" fill="white" fill-opacity="0.8"/>
<path d="M145.885 127.258C145.885 127.258 114.644 134.997 108.381 141.998C102.37 149.174 102.847 155.536 105.188 156.453C107.528 157.37 124.273 166.52 127.589 164.922C130.905 163.323 145.885 127.258 145.885 127.258Z" fill="url(#paint0_linear)"/>
<path d="M107.824 192.161C107.824 192.161 94.9059 205.13 99.9534 229.171C105.088 253.626 110.074 271.252 110.074 271.252L58.5427 276.85L62.2849 294.673C62.2849 294.673 129.355 306.957 134.51 298.858C139.666 290.76 144.004 249.171 138.137 226.331L107.824 192.161Z" fill="url(#paint1_linear)"/>
<path d="M100.519 196.175C100.519 196.175 66.9331 239.424 33.1482 253.135C-0.636803 266.845 -8.24508 262.266 -8.24508 262.266L0.868985 285.248C0.868985 285.248 46.6784 285.917 78.9162 266.88C111.154 247.843 132.827 219.339 132.827 219.339L100.519 196.175Z" fill="url(#paint2_linear)"/>
<path d="M102.838 138.64L97.2139 171.666L138.305 180.896L142.562 151.492L116.608 146.458L114.163 140.887L102.838 138.64Z" fill="url(#paint3_linear)"/>
<path d="M144.795 126.464C144.795 126.464 109.226 185.085 91.9188 194.692C91.9188 194.692 142.205 238.853 146.526 237.954C146.526 237.954 149.651 207.855 178.878 165.04C178.878 165.04 213.148 153.39 221.332 147.374L213.785 132.91C213.949 132.669 179.233 141.173 144.795 126.464Z" fill="url(#paint4_linear)"/>
<path d="M219.625 143.074L214.917 133.82C213.737 131.24 214.617 128.334 217.164 127.292L218.725 126.619C221.273 125.576 224.252 126.593 225.432 129.173L230.14 138.427C231.32 141.006 230.44 143.912 227.892 144.955L226.332 145.628C223.784 146.67 220.805 145.653 219.625 143.074Z" fill="url(#paint5_linear)"/>
<path d="M229.405 139.881C229.405 139.881 241.547 134.087 251.532 121.107C251.532 121.107 256.382 121.63 259.843 116.565C263.303 111.5 262.68 107.512 262.68 107.512C262.68 107.512 259.879 111.612 254.282 111.638C254.282 111.638 254.977 105.72 251.486 107.563C247.995 109.406 244.071 118.416 244.071 118.416L224.947 127.896L229.405 139.881Z" fill="#EE937E"/>
<defs>
<linearGradient id="paint0_linear" x1="113.907" y1="133.822" x2="137.993" y2="150.266" gradientUnits="userSpaceOnUse">
<stop stop-color="#C4E6EC"/>
<stop offset="1" stop-color="white"/>
</linearGradient>
<linearGradient id="paint1_linear" x1="76.5681" y1="237.513" x2="144.825" y2="284.088" gradientUnits="userSpaceOnUse">
<stop stop-color="#0061A5"/>
<stop offset="1" stop-color="#074C7C"/>
</linearGradient>
<linearGradient id="paint2_linear" x1="20.7255" y1="219.901" x2="96.7177" y2="271.761" gradientUnits="userSpaceOnUse">
<stop stop-color="#0061A5"/>
<stop offset="1" stop-color="#074C7C"/>
</linearGradient>
<linearGradient id="paint3_linear" x1="97.7952" y1="146.239" x2="141.645" y2="176.142" gradientUnits="userSpaceOnUse">
<stop stop-color="#F48C96"/>
<stop offset="1" stop-color="#F16A94"/>
</linearGradient>
<linearGradient id="paint4_linear" x1="124.41" y1="146.911" x2="190.729" y2="192.183" gradientUnits="userSpaceOnUse">
<stop stop-color="#C4E6EC"/>
<stop offset="1" stop-color="white"/>
</linearGradient>
<linearGradient id="paint5_linear" x1="218.116" y1="126.971" x2="226.538" y2="145.604" gradientUnits="userSpaceOnUse">
<stop stop-color="#C4E6EC"/>
<stop offset="1" stop-color="white"/>
</linearGradient>
</defs>
</svg>
