<svg width="213" height="355" viewBox="0 0 213 355" fill="none" xmlns="http://www.w3.org/2000/svg">
<mask id="mask0" mask-type="alpha" maskUnits="userSpaceOnUse" x="0" y="0" width="213" height="355">
<rect width="213" height="355" fill="#C4C4C4"/>
</mask>
<g mask="url(#mask0)">
<path d="M120.782 110.399C130.348 118.843 152.262 129.924 162.822 104.843" stroke="#3D5DA7" stroke-width="0.5" stroke-linecap="round"/>
<path d="M124.555 147.398C134.121 155.842 156.035 166.923 166.595 141.842" stroke="#3D5DA7" stroke-width="0.5" stroke-linecap="round"/>
<path d="M56.9843 44.3191L53.1935 39.7406L50.423 34.3367C50.538 32.4658 53.0917 27.1999 61.8218 19.2491C70.8349 11.4248 84.8656 29.2325 91.1438 39.0882L99.3048 34.0868C100.692 65.1441 92.5284 73.3481 86.4257 57.4834C85.0692 54.3138 85.5219 54.8366 83.7673 53.4113C82.859 55.5683 81.4981 57.2025 80.3643 58.2974C78.2102 60.2177 75.8909 56.9379 75.2127 55.3531C74.4194 55.6392 73.1735 55.4025 72.8344 54.6101L71.758 54.7697C71.3614 54.9127 70.7952 54.6595 70.6257 54.2633C70.173 53.7406 69.0407 53.2342 68.5306 53.6468L67.2271 54.3457C66.4339 54.6318 65.5846 54.252 65.5286 53.5862L63.8905 48.6886C63.5514 47.8962 62.9291 46.9773 61.6832 46.7406C59.361 46.6634 57.776 45.6343 56.9843 44.3191Z" fill="#EE9F86"/>
<path d="M85.6055 39.4571L91.5001 39.8485L81.0315 20.7351C76.8411 16.2954 65.6245 9.35461 55.0187 16.1563C41.974 24.7535 46.0478 32.6687 45.6509 32.8119C45.254 32.9551 43.8937 32.988 43.3271 32.7346C43.4968 33.1312 44.5163 33.9079 45.0829 34.1613C43.6089 34.4642 42.3636 32.6245 42.0242 31.8313C44.2256 41.7954 50.2338 41.9169 52.8424 40.518C54.1482 38.2158 57.0431 33.738 59.6503 33.9419C62.8241 34.3993 62.0303 34.6857 65.4888 33.6669C68.2671 32.6646 72.7408 37.2311 74.4391 39.5941L75.9101 42.4969L76.9341 38.4651C73.4225 35.6117 73.9359 31.993 74.2207 30.5169C77.4535 28.4351 83.2285 35.5077 85.6055 39.4571Z" fill="#3A3A39"/>
<path d="M193.799 278.757L183.92 265.325L168.848 274.671L184.468 288.098L193.799 278.757Z" fill="#EDA9A9"/>
<path d="M181.743 286.911C185.215 285.197 190.426 279.364 192.569 276.73L192.801 276.181L205.808 285.243L179.285 317.138C174.247 323.375 173.327 317.418 173.735 314.011C178.425 308.598 180.926 293.726 181.743 286.911Z" fill="#1B154A"/>
<path d="M4.91203 133.841C3.99768 143.985 21.1927 144.634 29.2823 143.772L31.0447 134.007C25.6129 135.737 17.4763 126.345 15.9464 129.179C14.7567 131.205 16.6797 131.425 19.1666 133.496C16.8461 135.017 11.0197 135.291 4.91203 133.841Z" fill="#EA8F72"/>
<path d="M71.7717 90.1079C70.763 74.862 78.1619 60.4839 82.3709 55.2917C79.5255 60.4508 81.8962 77.2711 111.758 100.926C141.734 124.31 153.358 148.809 155.509 158.134L121.024 157.496C125.181 146.813 108.16 121.508 99.1373 110.073L100.806 149.414C100.86 151.689 100.233 153.982 98.7544 155.893C96.1382 158.903 92.2739 160.068 88.3548 158.958L28.375 142.731L30.3183 130.092L80.5328 139.055C79.8584 131.034 73.1781 105.21 71.7717 90.1079Z" fill="url(#paint0_linear)"/>
<path d="M134.132 320.463L132.098 304.405L113.94 304.98L121.151 323.999L134.132 320.463Z" fill="#EDA9A9"/>
<path d="M118.86 321.957C122.458 322.274 130.227 319.931 133.712 318.904L134.112 318.759L141.067 332.867L101.418 346.488C93.8189 349.231 95.994 344.06 97.9386 341.05C105.137 338.452 114.914 327.306 118.86 321.957Z" fill="#1B154A"/>
<path d="M179.467 120.891L122.166 145.477L80.6578 182.975L118.088 314.348L141.913 312.279L123.388 196.187L179.467 120.891Z" fill="#212121"/>
<path d="M94.5372 188.757L145.554 144.757L181.589 147.649L132.908 193.34L193.963 272.006L178.214 283.683L94.5372 188.757Z" fill="#171717"/>
<path d="M94.4822 60.0902C90.7182 67.4311 85.0899 59.1096 83.0449 54.3261C80.8754 61.0913 82.0638 68.715 86.6696 74.6447L138.411 144.544L158.537 111.97L97.1822 33.5768C97.2904 39.7498 98.1322 53.0205 94.4822 60.0902Z" fill="white"/>
<path d="M143.828 132.06L146.272 117.917C146.272 117.917 145.625 116.976 144.991 117.664C144.356 118.351 94.727 158.271 94.727 158.271L97.2044 169.765L143.828 132.06Z" fill="#A27F68"/>
<path d="M88.0529 159.322L97.6437 170.651L143.556 131.937L133.966 120.609L88.0529 159.322Z" fill="#AC856D"/>
<path d="M134.818 121.179L139.063 112.695L90.4655 151.569L88.0767 158.939L134.818 121.179Z" fill="#A27F68"/>
<path d="M139.015 111.701L139.501 112.244L135.308 121.24L134.639 120.287L139.015 111.701Z" fill="#916B57"/>
<path d="M138.587 113.596L143.882 119.856L141.936 128.647L135.133 121.061L138.587 113.596Z" fill="white"/>
<path d="M135.273 132.888C135.893 131.401 135.111 129.615 133.527 128.9C131.944 128.184 130.158 128.808 129.539 130.295C128.92 131.782 129.702 133.567 131.285 134.283C132.869 134.999 134.654 134.374 135.273 132.888Z" fill="#353334" stroke="#B94826" stroke-width="0.75" stroke-miterlimit="10"/>
<path d="M123.071 133.582L92.2041 159.617L98.0477 166.522L128.915 140.486L123.071 133.582Z" fill="white"/>
<path d="M116.08 96.2253L118.524 82.082C118.524 82.082 117.877 81.1418 117.243 81.8292C116.609 82.5166 66.9795 122.436 66.9795 122.436L69.4569 133.931L116.08 96.2253Z" fill="#02586E"/>
<path d="M60.4844 123.42L70.0752 134.748L115.988 96.0348L106.397 84.7063L60.4844 123.42Z" fill="#3C8AB3"/>
<path d="M106.956 85.6178L111.315 76.8606L62.7178 115.734L60.3291 123.105L106.956 85.6178Z" fill="#00759A"/>
<path d="M111.268 75.8658L111.753 76.4088L107.56 85.4051L106.773 84.7287L111.268 75.8658Z" fill="#02586E"/>
<path d="M110.724 78.0399L116.128 84.0254L114.183 92.8121L107.384 85.2298L110.724 78.0399Z" fill="white"/>
<path d="M107.526 97.0529C108.145 95.5662 107.363 93.7806 105.78 93.0646C104.196 92.3487 102.411 92.9735 101.792 94.4602C101.173 95.9469 101.954 97.7325 103.538 98.4485C105.121 99.1644 106.907 98.5396 107.526 97.0529Z" fill="#353334" stroke="#B94826" stroke-width="0.75" stroke-miterlimit="10"/>
<path d="M95.3492 98.1506L64.4821 124.186L70.3257 131.091L101.193 105.055L95.3492 98.1506Z" fill="white"/>
<path d="M134.084 120.231L136.528 106.088C136.528 106.088 135.881 105.147 135.247 105.835C134.613 106.522 84.9833 146.442 84.9833 146.442L87.4606 157.937L134.084 120.231Z" fill="#68A87E"/>
<path d="M78.0896 147.42L87.6803 158.749L133.593 120.035L124.002 108.707L78.0896 147.42Z" fill="#97C4A8"/>
<path d="M124.972 109.628L129.041 100.737L80.6023 140.025L78.2125 147.397L124.972 109.628Z" fill="#7FBB95"/>
<path d="M128.97 99.7389L129.639 100.692L125.262 109.278L124.777 108.735L128.97 99.7389Z" fill="#68A87E"/>
<path d="M128.734 102.054L134.141 108.042L131.793 116.974L125.103 109.117L128.734 102.054Z" fill="white"/>
<path d="M125.251 120.938C125.87 119.451 125.088 117.665 123.505 116.95C121.921 116.234 120.136 116.858 119.517 118.345C118.898 119.832 119.679 121.617 121.263 122.333C122.846 123.049 124.632 122.424 125.251 120.938Z" fill="#353334" stroke="#B94826" stroke-width="0.75" stroke-miterlimit="10"/>
<path d="M113.144 122.038L82.277 148.074L88.1206 154.979L118.988 128.943L113.144 122.038Z" fill="white"/>
<path d="M87.6587 140.344L72.5463 140.287C72.5463 140.287 71.7909 139.623 72.4196 138.94C73.0483 138.257 122.261 98.5825 122.261 98.5825L133.89 102.87L87.6587 140.344Z" fill="#BD1F3E"/>
<path d="M78.1586 129.625L87.7545 140.96L133.662 102.253L124.066 90.9177L78.1586 129.625Z" fill="#E31B49"/>
<path d="M78.4705 129.781L68.817 132.217L116.916 93.1156L124.902 92.1914L78.4705 129.781Z" fill="#D11F47"/>
<path d="M68.8082 133.199L69.2678 133.725L78.7497 131.329L78.29 130.803L68.8082 133.199Z" fill="#BD1F3E"/>
<path d="M70.6172 133.357L75.9257 139.222L85.2519 138.695L78.573 131.265L70.6172 133.357Z" fill="white"/>
<path d="M92.2826 131.422C92.9013 129.936 92.1188 128.15 90.5349 127.434C88.951 126.718 87.1655 127.342 86.5468 128.828C85.9282 130.314 86.7106 132.1 88.2946 132.816C89.8785 133.532 91.664 132.908 92.2826 131.422Z" fill="#353334" stroke="#B94826" stroke-width="0.75" stroke-miterlimit="10"/>
<path d="M98.98 128.179L129.844 102.147L123.997 95.2381L93.1332 121.27L98.98 128.179Z" fill="white"/>
<path d="M100.576 166.749L110.35 178.29L156.276 139.557L146.502 128.016L100.576 166.749Z" fill="#FFDE79"/>
<path d="M114.802 168.621C115.423 167.132 114.644 165.347 113.063 164.633C111.481 163.919 109.695 164.547 109.074 166.036C108.453 167.525 109.232 169.31 110.814 170.024C112.395 170.738 114.181 170.11 114.802 168.621Z" fill="#353334" stroke="#B94826" stroke-width="0.75" stroke-miterlimit="10"/>
<path opacity="0.1" d="M82.677 122.629L125.373 88.1119C125.373 88.1119 116.925 114.095 117.692 116.383C117.806 116.111 88.7157 117.255 82.677 122.629Z" fill="#020202"/>
<path d="M121.64 165.586L152.522 139.531L146.692 132.645L115.811 158.7L121.64 165.586Z" fill="white"/>
<path d="M82.6771 122.552L125.269 88.0937C125.269 88.0937 122.122 109.624 123.001 111.637C123.001 111.637 88.7011 117.187 82.6771 122.552Z" fill="#E5E5E5"/>
<path d="M110.98 88.8004C110.98 88.8004 116.735 84.4558 118.069 78.8091L119.145 70.4221C119.145 70.4221 115.506 78.9867 113.552 81.0758L110.98 88.8004Z" fill="#D3D3D3"/>
<path d="M109.375 170.162C118.213 176.712 126.382 162.174 129.49 154.794L121.456 147.954C120.417 153.661 108.412 155.44 110.305 158.235C111.738 160.5 112.716 158.988 115.646 157.699C116.161 160.528 113.399 165.465 109.375 170.162Z" fill="#EA8F72"/>
<path d="M96.7139 43.1463L100.678 51.3409C104.302 58.7413 110.423 65.0115 116.999 70.2009C151.071 97.3226 137.65 132.415 131.793 147.132L191.584 152.369C192.34 132.159 175.454 109.836 169.904 99.0056C164.978 89.096 136.139 47.9408 109.944 30.1223C105.749 27.2822 100.245 28.3516 97.405 31.8971C95.3596 35.1559 94.9019 39.4461 96.7139 43.1463Z" fill="url(#paint1_linear)"/>
<path d="M165.894 93.233C168.137 82.2477 138.511 50.8478 117.692 30.8401C112.43 25.5697 103.785 25.9142 99.4294 31.4177C95.1883 36.6486 95.6384 45.2744 100.614 50.4168C106.505 56.6167 115.656 65.5714 127.783 75.5336C150.379 93.7439 132.598 131.151 121.306 147.484L133.262 157.045C142.951 141.291 163.249 105.982 165.894 93.233Z" fill="url(#paint2_linear)"/>
</g>
<defs>
<linearGradient id="paint0_linear" x1="83.3399" y1="167.111" x2="124.908" y2="74.2221" gradientUnits="userSpaceOnUse">
<stop stop-color="#96ACD6"/>
<stop offset="1" stop-color="#9CBDDC"/>
</linearGradient>
<linearGradient id="paint1_linear" x1="123.118" y1="143.153" x2="163.146" y2="53.678" gradientUnits="userSpaceOnUse">
<stop stop-color="#96ACD6"/>
<stop offset="1" stop-color="#9CBDDC"/>
</linearGradient>
<linearGradient id="paint2_linear" x1="99.1798" y1="141.891" x2="143.978" y2="41.7657" gradientUnits="userSpaceOnUse">
<stop stop-color="#96ACD6"/>
<stop offset="1" stop-color="#9CBDDC"/>
</linearGradient>
</defs>
</svg>
