<svg width="74" height="106" viewBox="0 0 74 106" fill="none" xmlns="http://www.w3.org/2000/svg">
<mask id="mask0" mask-type="alpha" maskUnits="userSpaceOnUse" x="-32" y="0" width="106" height="106">
<path d="M21 106C50.2711 106 74 82.2711 74 53C74 23.7289 50.2711 0 21 0C-8.27109 0 -32 23.7289 -32 53C-32 82.2711 -8.27109 106 21 106Z" fill="url(#paint0_linear)"/>
</mask>
<g mask="url(#mask0)">
<path d="M21.8624 105.791C51.1335 105.791 74.8624 82.0619 74.8624 52.7908C74.8624 23.5197 51.1335 -0.209229 21.8624 -0.209229C-7.40867 -0.209229 -31.1376 23.5197 -31.1376 52.7908C-31.1376 82.0619 -7.40867 105.791 21.8624 105.791Z" fill="url(#paint1_linear)"/>
<g opacity="0.1">
<path d="M12.7186 -8.73096C12.7186 -8.73096 23.7343 17.873 19.3696 28.4729C15.0049 39.073 17.7069 58.1945 10.6402 55.4926C3.57352 52.7906 5.23627 52.7906 1.91078 43.022C-1.41471 33.2533 6.69118 22.2377 -1.20686 33.2533C-9.1049 44.269 -8.27353 37.2024 -7.85784 51.7514C-7.44215 66.3004 -5.98725 62.3514 -7.85784 70.2494C-9.72843 78.1475 2.74217 71.0808 1.07942 62.7671C-0.583322 54.4533 8.97746 70.6651 13.55 67.1318C18.3304 63.5985 19.3696 65.469 20.6167 60.0651C21.8637 54.6612 24.15 46.3475 24.5657 40.1122C24.9814 33.8769 26.852 25.5631 24.5657 18.0808C22.2794 10.5984 22.6951 7.4808 19.1618 2.07688C15.6284 -3.32704 12.7186 -8.73096 12.7186 -8.73096Z" fill="white"/>
<path d="M21.8638 105.792C21.8638 105.792 19.3696 85.2152 24.3579 81.8897C29.3461 78.5642 29.3461 90.4113 35.3736 83.5525C41.401 76.6936 43.0638 67.5485 43.0638 58.1956C43.0638 48.8427 38.9069 43.8544 44.7265 42.1917C50.5461 40.5289 47.2206 35.3329 50.5461 40.5289C53.8716 45.5172 57.4049 43.8544 59.0677 35.5407C60.7304 27.227 59.8991 28.6819 62.3932 19.5368C64.8873 10.1838 58.4442 34.9172 66.55 44.0623C74.6559 53.2074 64.8873 17.0427 75.903 16.2113C86.9187 15.3799 86.9187 39.074 84.4245 44.8936C81.9304 50.7132 69.252 62.5603 66.7579 65.2623C64.2638 67.7564 60.1069 64.6387 54.9108 66.0936C49.0912 67.7564 45.5579 78.7721 45.5579 78.7721C45.5579 78.7721 44.7265 87.2936 43.0638 89.7878C41.401 92.2819 47.2206 88.125 41.401 92.2819C35.5814 96.4387 27.8912 94.776 27.8912 94.776C27.8912 94.776 19.3696 99.3485 21.8638 105.792Z" fill="white"/>
<path d="M35.787 31.7986C35.787 31.7986 33.085 10.8064 38.2811 7.48092C43.4771 3.94759 43.4772 16.0025 49.5046 9.14367C55.5321 2.28485 57.1948 -7.27594 57.1948 -16.6289C57.1948 -25.9818 52.8301 -31.1779 58.8576 -33.0485C64.885 -34.7112 61.3517 -39.9073 64.885 -34.7112C68.4183 -29.5152 71.7438 -31.1779 73.4066 -39.9073C75.0693 -48.4289 74.2379 -46.7661 76.9399 -56.3269C79.434 -65.8877 72.9909 -40.5308 81.3046 -31.3857C89.6183 -22.2406 79.6419 -58.821 90.8654 -59.8602C102.089 -60.8995 102.089 -36.5818 99.387 -30.5544C96.685 -24.5269 84.0065 -12.472 81.3046 -9.97791C78.8105 -7.48379 74.4458 -10.6014 69.2497 -9.14653C63.2223 -7.48379 59.6889 3.73975 59.6889 3.73975C59.6889 3.73975 58.8576 12.2613 57.1948 14.9633C55.5321 17.4574 61.5595 13.3005 55.5321 17.4574C49.5046 21.8221 41.8144 19.9515 41.8144 19.9515C41.8144 19.9515 33.085 25.3554 35.787 31.7986Z" fill="#C72525"/>
<path opacity="0.4" d="M-37.1642 64.0136C-37.1642 64.0136 2.94957 34.9155 26.8515 60.2724C50.9613 85.6292 66.1339 98.0998 71.9535 72.1194C77.7731 46.139 117.263 20.3665 65.7182 7.48023C14.1731 -5.40605 -33.0073 -19.1237 -39.8661 15.1704C-46.5171 49.2567 -37.1642 64.0136 -37.1642 64.0136Z" fill="black"/>
</g>
</g>
<defs>
<linearGradient id="paint0_linear" x1="-25.9233" y1="78.3415" x2="72.5667" y2="25.2866" gradientUnits="userSpaceOnUse">
<stop stop-color="#EBEA6E"/>
<stop offset="1" stop-color="#007187"/>
</linearGradient>
<linearGradient id="paint1_linear" x1="-25.0609" y1="78.1323" x2="73.4291" y2="25.0774" gradientUnits="userSpaceOnUse">
<stop stop-color="#EBEA6E"/>
<stop offset="1" stop-color="#007187"/>
</linearGradient>
</defs>
</svg>
