<svg width="56" height="98" viewBox="0 0 56 98" fill="none" xmlns="http://www.w3.org/2000/svg">
<path d="M55.134 22.1416L50.957 2.50959C50.957 2.50959 49.7039 1.67421 49.2862 2.92731C48.8685 4.18041 9.18689 84.379 9.18689 84.379L17.9586 97.7454L55.134 22.1416Z" fill="#02586E"/>
<path d="M38.333 14.0205L1.19012 89.314L18.4215 97.8144L55.5643 22.5209L38.333 14.0205Z" fill="#3C8AB3"/>
<path d="M38.4285 13.7841L38.8462 0L0 78.5278L0.835389 89.3879L38.4285 13.7841Z" fill="#00759A"/>
<path d="M38.8439 0L40.097 0.835389L39.2615 14.2018L38.4261 13.7841L38.8439 0Z" fill="#02586E"/>
<path d="M39.6814 2.92578L49.2885 7.52052L51.377 20.4692L39.2637 14.2037L39.6814 2.92578Z" fill="white"/>
<path d="M41.3506 33C43.6575 33 45.5276 31.1299 45.5276 28.823C45.5276 26.5161 43.6575 24.646 41.3506 24.646C39.0437 24.646 37.1736 26.5161 37.1736 28.823C37.1736 31.1299 39.0437 33 41.3506 33Z" fill="#353334" stroke="#B94826" stroke-width="0.75" stroke-miterlimit="10"/>
<path d="M31.2632 36.7602L6.31622 87.3303L16.8049 92.5044L41.7519 41.9343L31.2632 36.7602Z" fill="white"/>
</svg>
