<svg width="1440" height="784" viewBox="0 0 1440 784" fill="none" xmlns="http://www.w3.org/2000/svg">
<g opacity="0.5">
<path opacity="0.4" fill-rule="evenodd" clip-rule="evenodd" d="M1291.76 305.905L1278.54 301.408L1272.32 307.321L1287.01 324.665L1287.17 324.36L1288.78 326.256C1290.2 327.942 1292.73 328.15 1294.41 326.722L1323.52 302.059L1333.84 322.474L1341.1 316.318L1341.28 287.019L1362.89 268.705C1362.98 268.628 1363 268.491 1362.92 268.4C1356.71 261.076 1345.75 260.169 1338.42 266.374L1325.21 277.566L1310.9 275.27L1303.63 281.427L1312.76 288.117L1291.76 305.905ZM1280.05 325.851L1282 332C1187.51 407.226 981.32 606.135 883.424 755.685C932.003 663.856 1079.34 449.328 1280.05 325.851Z" fill="#AAB8F9"/>
<path d="M1203.49 738.852C1206.41 716.484 1192.99 716.47 1184.42 719.726C1183.65 720.022 1182.81 719.345 1182.98 718.532C1187.4 698.136 1194.45 657.774 1190.4 644.605C1186.5 631.933 1170.96 637.938 1162.14 643.404C1161.41 643.857 1160.45 643.264 1160.56 642.411C1164.44 610.716 1168.72 585.641 1136.73 583.082C1111.17 581.037 1108.49 617.927 1110.4 637.947C1110.47 638.641 1109.81 639.184 1109.13 639.033C1085.51 633.794 1087.95 651.779 1092.22 661.621C1098.77 683.002 1109.76 724.191 1101.39 717.908C1093.17 711.746 1087.64 715.153 1085.78 717.756C1085.71 717.857 1085.66 717.976 1085.64 718.097C1070.07 788.604 1127.59 793.83 1148.51 793.83C1169.46 793.83 1199.56 768.959 1203.49 738.852Z" fill="#1157B6"/>
<path d="M1136.73 611.88C1138.62 662.897 1138.47 781.613 1136.73 839.645L1148.51 842.263C1144.58 727.071 1135.42 576.537 1136.73 611.88Z" fill="#3A6ECB"/>
<path d="M1145.89 780.74C1158.55 772.014 1185.16 750.633 1190.4 734.925" stroke="#801336" stroke-linecap="round"/>
<path d="M1139.35 768.96C1128.93 761.979 1107.01 744.875 1102.7 732.308" stroke="#801336" stroke-linecap="round"/>
<path d="M1141.97 698.274C1153.88 690.296 1178.93 670.748 1183.86 656.386" stroke="#3A6ECB" stroke-linecap="round"/>
<path d="M1141.97 716.6C1134.52 711.614 1105.78 664.053 1102.7 655.077" stroke="#3A6ECB" stroke-linecap="round"/>
<path d="M1176.03 727.072C1175.6 735.798 1179.44 751.943 1198.29 746.707" stroke="#801336" stroke-width="0.5" stroke-linecap="round"/>
<path d="M1157.71 745.398C1157.27 754.125 1161.11 770.269 1179.96 765.033" stroke="#801336" stroke-width="0.5" stroke-linecap="round"/>
<path d="M1160.33 659.003C1159.89 667.73 1163.73 683.874 1182.58 678.638" stroke="#3A6ECB" stroke-width="0.5" stroke-linecap="round"/>
<path d="M1126.23 677.33C1126.59 683.966 1123.43 696.242 1107.93 692.261" stroke="#3A6ECB" stroke-width="0.5" stroke-linecap="round"/>
<path d="M1121 734.925C1121.35 741.561 1118.2 753.837 1102.7 749.856" stroke="#801336" stroke-width="0.5" stroke-linecap="round"/>
<path d="M1035.68 316.175H925.766V760.185H1035.68V316.175Z" fill="#6D5AFF"/>
<path d="M940.851 319.405H937.622V788.204H940.851V319.405Z" fill="#C2CDFF"/>
<path d="M955.936 319.405H952.707V788.204H955.936V319.405Z" fill="#C2CDFF"/>
<path d="M972.094 319.405H968.865V788.204H972.094V319.405Z" fill="#C2CDFF"/>
<path d="M987.179 319.405H983.95V788.204H987.179V319.405Z" fill="#C2CDFF"/>
<path d="M1003.35 319.405H1000.12V788.204H1003.35V319.405Z" fill="#C2CDFF"/>
<path d="M1018.43 319.405H1015.2V788.204H1018.43V319.405Z" fill="#C2CDFF"/>
<path d="M1033.52 319.405H1030.29V788.204H1033.52V319.405Z" fill="#C2CDFF"/>
<path d="M1016.23 306.832V282.066H1018.06V278.396H999.75V264.642H992.387V260.972H988.252V256.383H992.387V249.507H986.429V243.083H984.129V232.536H982.759V214.194H978.624V232.536H977.254V243.083H974.966V249.507H969.008V256.383H973.143V260.972H968.996V264.642H961.62V278.396H943.33V282.066H945.153V306.832H913.517V314.161H919.475V788.347H1041.91V314.161H1047.87V306.832H1016.23ZM939.195 730.986H929.115V720.892H939.195V730.986ZM939.195 717.233H929.115V707.151H939.195V717.233ZM939.195 703.468H929.115V693.386H939.195V703.468ZM939.195 689.715H929.115V679.621H939.195V689.715ZM939.195 675.962H929.115V665.867H939.195V675.962ZM939.195 662.197H929.115V652.114H939.195V662.197ZM939.195 648.444H929.115V638.385H939.195V648.444ZM939.195 634.679H929.115V624.596H939.195V634.679ZM939.195 620.925H929.115V610.831H939.195V620.925ZM939.195 607.172H929.115V597.078H939.195V607.172ZM939.195 593.407H929.115V583.325H939.195V593.407ZM939.195 579.654H929.115V569.56H939.195V579.654ZM939.195 565.901H929.115V555.795H939.195V565.901ZM939.195 552.136H929.115V542.041H939.195V552.136ZM939.195 538.383H929.115V528.384H939.195V538.383ZM939.195 524.618H929.115V514.535H939.195V524.618ZM939.195 510.864H929.115V500.77H939.195V510.864ZM939.195 497.111H929.115V487.017H939.195V497.111ZM939.195 483.346H929.115V473.264H939.195V483.346ZM939.195 469.593H929.115V459.499H939.195V469.593ZM939.195 455.84H929.115V445.746H939.195V455.84ZM939.195 442.075H929.115V431.992H939.195V442.075ZM939.195 428.322H929.115V418.263H939.195V428.322ZM939.195 414.557H929.115V404.474H939.195V414.557ZM939.195 400.803H929.115V390.709H939.195V400.803ZM939.195 387.038H929.115V377.027H939.195V387.038ZM939.195 373.285H929.115V363.203H939.195V373.285ZM939.195 359.532H929.115V349.438H939.195V359.532ZM939.195 345.767H929.115V335.685H939.195V345.767ZM939.195 332.014H929.115V321.919H939.195V332.014ZM954.793 730.986H944.7V720.904H954.793V730.986ZM954.793 717.233H944.7V707.151H954.793V717.233ZM954.793 703.48H944.7V693.386H954.793V703.48ZM954.793 689.715H944.7V679.633H954.793V689.715ZM954.793 675.962H944.7V665.867H954.793V675.962ZM954.793 662.197H944.7V652.114H954.793V662.197ZM954.793 648.444H944.7V638.361H954.793V648.444ZM954.793 634.69H944.7V624.596H954.793V634.69ZM954.793 620.925H944.7V610.843H954.793V620.925ZM954.793 607.172H944.7V597.078H954.793V607.172ZM954.793 593.407H944.7V583.325H954.793V593.407ZM954.793 579.654H944.7V569.56H954.793V579.654ZM954.793 565.901H944.7V555.795H954.793V565.901ZM954.793 552.136H944.7V542.041H954.793V552.136ZM954.793 538.383H944.7V528.384H954.793V538.383ZM954.793 524.618H944.7V514.535H954.793V524.618ZM954.793 510.864H944.7V500.77H954.793V510.864ZM954.793 497.111H944.7V487.017H954.793V497.111ZM954.793 483.358H944.7V473.264H954.793V483.358ZM954.793 469.593H944.7V459.511H954.793V469.593ZM954.793 455.84H944.7V445.746H954.793V455.84ZM954.793 442.075H944.7V431.992H954.793V442.075ZM954.793 428.322H944.7V418.263H954.793V428.322ZM954.793 414.557H944.7V404.474H954.793V414.557ZM954.793 400.803H944.7V390.709H954.793V400.803ZM954.793 387.038H944.7V377.027H954.793V387.038ZM954.793 373.285H944.7V363.203H954.793V373.285ZM954.793 359.532H944.7V349.438H954.793V359.532ZM954.793 345.767H944.7V335.685H954.793V345.767ZM954.793 332.014H944.7V321.919H954.793V332.014ZM970.378 730.986H960.286V720.904H970.378V730.986ZM970.378 717.233H960.286V707.151H970.378V717.233ZM970.378 703.48H960.286V693.386H970.378V703.48ZM970.378 689.715H960.286V679.633H970.378V689.715ZM970.378 675.962H960.286V665.867H970.378V675.962ZM970.378 662.197H960.286V652.114H970.378V662.197ZM970.378 648.444H960.286V638.361H970.378V648.444ZM970.378 634.69H960.286V624.596H970.378V634.69ZM970.378 620.925H960.286V610.843H970.378V620.925ZM970.378 607.172H960.286V597.078H970.378V607.172ZM970.378 593.407H960.286V583.325H970.378V593.407ZM970.378 579.654H960.286V569.572H970.378V579.654ZM970.378 565.901H960.286V555.795H970.378V565.901ZM970.378 552.136H960.286V542.089H970.378V552.136ZM970.378 538.383H960.286V528.384H970.378V538.383ZM970.378 524.618H960.286V514.535H970.378V524.618ZM970.378 510.864H960.286V500.77H970.378V510.864ZM970.378 497.111H960.286V487.017H970.378V497.111ZM970.378 483.358H960.286V473.264H970.378V483.358ZM970.378 469.593H960.286V459.511H970.378V469.593ZM970.378 455.84H960.286V445.746H970.378V455.84ZM970.378 442.075H960.286V431.992H970.378V442.075ZM970.378 428.322H960.286V418.263H970.378V428.322ZM970.378 414.569H960.286V404.474H970.378V414.569ZM970.378 400.803H960.286V390.709H970.378V400.803ZM970.378 387.05H960.286V377.027H970.378V387.05ZM970.378 373.285H960.286V363.203H970.378V373.285ZM970.378 359.532H960.286V349.438H970.378V359.532ZM970.378 345.779H960.286V335.685H970.378V345.779ZM970.378 332.014H960.286V321.967H970.378V332.014ZM985.964 730.986H975.919V720.904H986.012L985.964 730.986ZM985.964 717.233H975.919V707.151H986.012L985.964 717.233ZM985.964 703.48H975.919V693.386H986.012L985.964 703.48ZM985.964 689.715H975.919V679.633H986.012L985.964 689.715ZM985.964 675.962H975.919V665.867H986.012L985.964 675.962ZM985.964 662.197H975.919V652.114H986.012L985.964 662.197ZM985.964 648.444H975.919V638.361H986.012L985.964 648.444ZM985.964 634.69H975.919V624.596H986.012L985.964 634.69ZM985.964 620.925H975.919V610.843H986.012L985.964 620.925ZM985.964 607.172H975.919V597.078H986.012L985.964 607.172ZM985.964 593.407H975.919V583.325H986.012L985.964 593.407ZM985.964 579.654H975.919V569.572H986.012L985.964 579.654ZM985.964 565.901H975.919V555.795H986.012L985.964 565.901ZM985.964 552.136H975.919V542.089H986.012L985.964 552.136ZM985.964 538.383H975.919V528.384H986.012L985.964 538.383ZM985.964 524.618H975.919V514.535H986.012L985.964 524.618ZM985.964 510.864H975.919V500.77H986.012L985.964 510.864ZM985.964 497.111H975.919V487.017H986.012L985.964 497.111ZM985.964 483.358H975.919V473.264H986.012L985.964 483.358ZM985.964 469.593H975.919V459.511H986.012L985.964 469.593ZM985.964 455.84H975.919V445.746H986.012L985.964 455.84ZM985.964 442.075H975.919V431.992H986.012L985.964 442.075ZM985.964 428.322H975.919V418.263H986.012L985.964 428.322ZM985.964 414.569H975.919V404.474H986.012L985.964 414.569ZM985.964 400.803H975.919V390.709H986.012L985.964 400.803ZM985.964 387.05H975.919V377.027H986.012L985.964 387.05ZM985.964 373.285H975.919V363.203H986.012L985.964 373.285ZM985.964 359.532H975.919V349.438H986.012L985.964 359.532ZM985.964 345.779H975.919V335.685H986.012L985.964 345.779ZM985.964 332.014H975.919V321.967H986.012L985.964 332.014ZM1001.55 730.986H991.469V720.904H1001.55V730.986ZM1001.55 717.233H991.469V707.151H1001.55V717.233ZM1001.55 703.48H991.469V693.386H1001.55V703.48ZM1001.55 689.715H991.469V679.633H1001.55V689.715ZM1001.55 675.962H991.469V665.867H1001.55V675.962ZM1001.55 662.197H991.469V652.114H1001.55V662.197ZM1001.55 648.444H991.469V638.361H1001.55V648.444ZM1001.55 634.679H991.469V624.596H1001.55V634.679ZM1001.55 620.925H991.469V610.843H1001.55V620.925ZM1001.55 607.172H991.469V597.078H1001.55V607.172ZM1001.55 593.407H991.469V583.325H1001.55V593.407ZM1001.55 579.654H991.469V569.572H1001.55V579.654ZM1001.55 565.901H991.469V555.795H1001.55V565.901ZM1001.55 552.136H991.469V542.089H1001.55V552.136ZM1001.55 538.383H991.469V528.384H1001.55V538.383ZM1001.55 524.618H991.469V514.535H1001.55V524.618ZM1001.55 510.864H991.469V500.77H1001.55V510.864ZM1001.55 497.111H991.469V487.017H1001.55V497.111ZM1001.55 483.358H991.469V473.264H1001.55V483.358ZM1001.55 469.593H991.469V459.511H1001.55V469.593ZM1001.55 455.84H991.469V445.746H1001.55V455.84ZM1001.55 442.075H991.469V431.992H1001.55V442.075ZM1001.55 428.322H991.469V418.263H1001.55V428.322ZM1001.55 414.557H991.469V404.474H1001.55V414.557ZM1001.55 400.803H991.469V390.709H1001.55V400.803ZM1001.55 387.05H991.469V377.027H1001.55V387.05ZM1001.55 373.285H991.469V363.203H1001.55V373.285ZM1001.55 359.532H991.469V349.438H1001.55V359.532ZM1001.55 345.779H991.469V335.685H1001.55V345.779ZM1001.55 332.014H991.469V321.967H1001.55V332.014ZM1017.15 730.986H1007.05V720.904H1017.15V730.986ZM1017.15 717.233H1007.05V707.151H1017.15V717.233ZM1017.15 703.48H1007.05V693.386H1017.15V703.48ZM1017.15 689.715H1007.05V679.633H1017.15V689.715ZM1017.15 675.962H1007.05V665.867H1017.15V675.962ZM1017.15 662.197H1007.05V652.114H1017.15V662.197ZM1017.15 648.444H1007.05V638.361H1017.15V648.444ZM1017.15 634.69H1007.05V624.596H1017.15V634.69ZM1017.15 620.925H1007.05V610.843H1017.15V620.925ZM1017.15 607.172H1007.05V597.078H1017.15V607.172ZM1017.15 593.407H1007.05V583.325H1017.15V593.407ZM1017.15 579.654H1007.05V569.572H1017.15V579.654ZM1017.15 565.901H1007.05V555.795H1017.15V565.901ZM1017.15 552.136H1007.05V542.089H1017.15V552.136ZM1017.15 538.383H1007.05V528.384H1017.15V538.383ZM1017.15 524.618H1007.05V514.535H1017.15V524.618ZM1017.15 510.864H1007.05V500.77H1017.15V510.864ZM1017.15 497.111H1007.05V487.017H1017.15V497.111ZM1017.15 483.358H1007.05V473.264H1017.15V483.358ZM1017.15 469.593H1007.05V459.511H1017.15V469.593ZM1017.15 455.84H1007.05V445.746H1017.15V455.84ZM1017.15 442.075H1007.05V431.992H1017.15V442.075ZM1017.15 428.322H1007.05V418.263H1017.15V428.322ZM1017.15 414.569H1007.05V404.474H1017.15V414.569ZM1017.15 400.803H1007.05V390.709H1017.15V400.803ZM1017.15 387.05H1007.05V377.027H1017.15V387.05ZM1017.15 373.285H1007.05V363.203H1017.15V373.285ZM1017.15 359.532H1007.05V349.438H1017.15V359.532ZM1017.15 345.779H1007.05V335.685H1017.15V345.779ZM1017.15 332.014H1007.05V321.967H1017.15V332.014ZM1032.73 730.986H1022.64V720.904H1032.73V730.986ZM1032.73 717.233H1022.64V707.151H1032.73V717.233ZM1032.73 703.48H1022.64V693.386H1032.73V703.48ZM1032.73 689.715H1022.64V679.633H1032.73V689.715ZM1032.73 675.962H1022.64V665.867H1032.73V675.962ZM1032.73 662.197H1022.64V652.114H1032.73V662.197ZM1032.73 648.444H1022.64V638.361H1032.73V648.444ZM1032.73 634.69H1022.64V624.596H1032.73V634.69ZM1032.73 620.925H1022.64V610.843H1032.73V620.925ZM1032.73 607.172H1022.64V597.078H1032.73V607.172ZM1032.73 593.407H1022.64V583.325H1032.73V593.407ZM1032.73 579.654H1022.64V569.572H1032.73V579.654ZM1032.73 565.901H1022.64V555.795H1032.73V565.901ZM1032.73 552.136H1022.64V542.089H1032.73V552.136ZM1032.73 538.383H1022.64V528.384H1032.73V538.383ZM1032.73 524.618H1022.64V514.535H1032.73V524.618ZM1032.73 510.864H1022.64V500.77H1032.73V510.864ZM1032.73 497.111H1022.64V487.017H1032.73V497.111ZM1032.73 483.358H1022.64V473.264H1032.73V483.358ZM1032.73 469.593H1022.64V459.511H1032.73V469.593ZM1032.73 455.84H1022.64V445.746H1032.73V455.84ZM1032.73 442.075H1022.64V431.992H1032.73V442.075ZM1032.73 428.322H1022.64V418.263H1032.73V428.322ZM1032.73 414.569H1022.64V404.474H1032.73V414.569ZM1032.73 400.803H1022.64V390.709H1032.73V400.803ZM1032.73 387.05H1022.64V377.027H1032.73V387.05ZM1032.73 373.285H1022.64V363.203H1032.73V373.285ZM1032.73 359.532H1022.64V349.438H1032.73V359.532ZM1032.73 345.779H1022.64V335.685H1032.73V345.779ZM1032.73 332.014H1022.64V321.967H1032.73V332.014Z" fill="#95A1F7"/>
<path d="M1048.6 306.474H913.91V310.24H1048.6V306.474Z" fill="#BDC1FF"/>
<path d="M1048.6 310.24H913.91V314.006H1048.6V310.24Z" fill="#6C61EE"/>
<path d="M1018.43 278.455H943.009V280.612H1018.43V278.455Z" fill="#BDC1FF"/>
<path d="M1018.43 280.612H943.009V282.769H1018.43V280.612Z" fill="#6C61EE"/>
<path d="M1140.07 335.899C1138.4 337.472 1134.96 341.691 1134.56 345.898C1135.06 338.354 1135.76 321.884 1134.56 316.402C1131.5 319.341 1129.46 323.19 1128.76 327.378C1129.2 321.192 1129.58 311.599 1128.55 307.988C1127.6 308.743 1126.83 309.704 1126.31 310.798C1125.79 311.893 1125.52 313.091 1125.53 314.304L1124.03 304.77H1118.51V298.978H1115.51V291.076H1107.99V274.808H1102.98V269.541H1099.97V266.907H1097.46V219.498H1100.46V213.753H1097.46L1095.44 158.455H1097.46V149.981H1095.44L1092.95 118.411H1095.46V110.486H1092.95L1090.31 93.3836L1089.94 91V788.287H1125.03C1118.18 725.79 1105.58 569.202 1109.99 442.802H1117.01V435.961H1113.01V432.266H1117.01V426.999H1113.01V423.841H1115.51V409.623C1123.7 398.217 1140.07 374.441 1140.07 370.651C1140.07 369.46 1140.16 367.243 1140.28 364.395C1140.63 355.695 1141.2 341.453 1140.07 335.899ZM1086.87 110.486H1084.35V118.411H1086.92L1084.35 149.981H1082.3V158.407H1084.35L1082.24 213.753H1079.16V219.545H1082.24V266.907H1079.67V269.541H1076.58V274.808H1071.45V291.124H1063.74V299.025H1060.66V304.817H1055L1053.47 314.352C1053.47 313.132 1053.2 311.928 1052.66 310.833C1052.12 309.738 1051.34 308.78 1050.38 308.035C1049.32 311.611 1049.7 321.24 1050.17 327.425C1049.42 323.218 1047.33 319.366 1044.21 316.449C1043.02 321.931 1043.69 338.402 1044.21 345.946C1043.79 341.739 1040.26 337.52 1038.55 335.947C1037.36 341.5 1037.99 355.742 1038.34 364.442C1038.46 367.291 1038.55 369.531 1038.55 370.699C1038.55 374.489 1055.34 398.265 1063.73 409.67V423.888H1066.3V427.046H1062.19V432.314H1066.3V436.009H1062.19V442.849H1069.34C1073.85 569.25 1061 725.838 1053.92 788.335H1089.88V91L1086.87 110.486Z" fill="#8292F4"/>
<path d="M1140.28 364.395C1140.16 367.243 1140.07 369.484 1140.07 370.651C1140.07 374.441 1123.7 398.217 1115.51 409.623V423.841H1113.01V426.999H1117.01V432.267H1113.01V435.961H1117.01V442.802H1109.99C1105.58 569.202 1118.18 725.79 1125.03 788.287H1090.31V93.3837L1092.95 110.486H1095.46V118.411H1092.95L1095.46 150.005H1097.46V158.431H1095.44L1097.46 213.754H1100.46V219.546H1097.46V266.907H1099.96V269.541H1102.96V274.808H1107.98V291.124H1115.5V299.025H1118.5V304.818H1124.02L1125.52 314.352C1125.51 313.139 1125.78 311.94 1126.3 310.846C1126.82 309.752 1127.59 308.791 1128.53 308.035C1129.57 311.611 1129.19 321.24 1128.75 327.426C1129.45 323.238 1131.49 319.388 1134.55 316.449C1135.74 321.931 1135.05 338.402 1134.55 345.946C1134.94 341.739 1138.39 337.52 1140.06 335.947C1141.2 341.453 1140.63 355.695 1140.28 364.395Z" fill="#ABB2FF"/>
<path d="M1059.33 354.264V373.452H1045.03V354.264C1045.03 349.962 1047.91 346.422 1051.58 346.065H1052.18C1053.14 346.073 1054.09 346.29 1054.97 346.701C1055.84 347.113 1056.61 347.709 1057.23 348.448C1058.61 350.071 1059.35 352.136 1059.33 354.264Z" fill="#C2CDFF"/>
<path d="M1058.14 354.264V373.452H1045.03V354.264C1045.03 349.962 1047.91 346.422 1051.58 346.065C1053.32 346.254 1054.92 347.108 1056.04 348.448C1057.42 350.071 1058.16 352.136 1058.14 354.264Z" fill="#6D5AFF"/>
<path d="M1078.39 354.264V373.452H1064.09V354.264C1064.09 349.962 1066.98 346.422 1070.65 346.065H1071.24C1072.21 346.073 1073.16 346.29 1074.03 346.701C1074.9 347.113 1075.68 347.709 1076.3 348.448C1077.67 350.071 1078.42 352.136 1078.39 354.264Z" fill="#C2CDFF"/>
<path d="M1077.2 354.264V373.452H1064.09V354.264C1064.09 349.962 1066.98 346.422 1070.65 346.065C1072.39 346.254 1073.98 347.108 1075.1 348.448C1076.48 350.071 1077.23 352.136 1077.2 354.264Z" fill="#6D5AFF"/>
<path d="M1116.52 354.264V373.452H1102.22V354.264C1102.22 349.962 1105.11 346.422 1108.78 346.065H1109.37C1110.34 346.073 1111.29 346.29 1112.16 346.701C1113.03 347.113 1113.81 347.709 1114.43 348.448C1115.8 350.071 1116.55 352.136 1116.52 354.264Z" fill="#C2CDFF"/>
<path d="M1115.33 354.264V373.452H1102.22V354.264C1102.22 349.962 1105.11 346.422 1108.78 346.065C1110.52 346.254 1112.11 347.108 1113.23 348.448C1114.61 350.071 1115.36 352.136 1115.33 354.264Z" fill="#6D5AFF"/>
<path d="M1134.4 354.264V373.452H1120.1V354.264C1120.1 349.962 1122.98 346.422 1126.65 346.065H1127.25C1128.21 346.073 1129.16 346.29 1130.04 346.701C1130.91 347.113 1131.68 347.709 1132.3 348.448C1133.68 350.071 1134.42 352.136 1134.4 354.264Z" fill="#C2CDFF"/>
<path d="M1133.21 354.264V373.452H1120.1V354.264C1120.1 349.962 1122.98 346.422 1126.65 346.065C1128.39 346.254 1129.99 347.108 1131.11 348.448C1132.48 350.071 1133.23 352.136 1133.21 354.264Z" fill="#6D5AFF"/>
<path d="M1097.46 354.264V373.452H1083.16V354.264C1083.16 349.962 1086.04 346.422 1089.71 346.065H1090.31C1091.27 346.073 1092.22 346.29 1093.1 346.701C1093.97 347.113 1094.74 347.709 1095.36 348.448C1096.74 350.071 1097.48 352.136 1097.46 354.264Z" fill="#6D5AFF"/>
<path d="M1067.51 327.092V341.274H1056.95V327.092C1056.87 325.662 1057.32 324.255 1058.21 323.138C1059.11 322.021 1060.38 321.273 1061.79 321.037H1062.22C1062.94 321.045 1063.65 321.209 1064.29 321.518C1064.94 321.827 1065.51 322.273 1065.97 322.825C1066.98 324.015 1067.53 325.53 1067.51 327.092Z" fill="#C2CDFF"/>
<path d="M1066.63 327.092V341.274H1056.95V327.092C1056.87 325.662 1057.32 324.255 1058.21 323.138C1059.11 322.021 1060.38 321.273 1061.79 321.037C1063.08 321.173 1064.26 321.806 1065.08 322.801C1066.11 323.995 1066.66 325.52 1066.63 327.092Z" fill="#6D5AFF"/>
<path d="M1081.61 327.092V341.274H1071.04V327.092C1070.96 325.664 1071.41 324.256 1072.3 323.139C1073.19 322.021 1074.47 321.273 1075.88 321.037H1076.32C1077.03 321.044 1077.74 321.208 1078.38 321.517C1079.03 321.826 1079.6 322.272 1080.05 322.825C1081.07 324.011 1081.62 325.527 1081.61 327.092Z" fill="#C2CDFF"/>
<path d="M1080.78 327.092V341.274H1071.09V327.092C1071.01 325.664 1071.46 324.256 1072.35 323.139C1073.24 322.021 1074.52 321.273 1075.93 321.037C1077.22 321.17 1078.4 321.804 1079.23 322.801C1080.24 323.998 1080.79 325.521 1080.78 327.092Z" fill="#6D5AFF"/>
<path d="M1109.79 327.092V341.274H1099.22V327.092C1099.14 325.664 1099.59 324.258 1100.49 323.141C1101.38 322.024 1102.65 321.275 1104.06 321.037H1104.5C1105.22 321.045 1105.92 321.209 1106.57 321.518C1107.21 321.827 1107.79 322.273 1108.24 322.825C1109.25 324.015 1109.8 325.53 1109.79 327.092Z" fill="#C2CDFF"/>
<path d="M1108.91 327.092V341.274H1099.22V327.092C1099.14 325.664 1099.59 324.258 1100.49 323.141C1101.38 322.024 1102.65 321.275 1104.06 321.037C1105.35 321.17 1106.53 321.804 1107.36 322.801C1108.38 323.998 1108.93 325.521 1108.91 327.092Z" fill="#6D5AFF"/>
<path d="M1122.99 327.092V341.274H1112.44V327.092C1112.36 325.664 1112.8 324.256 1113.7 323.139C1114.59 322.021 1115.86 321.273 1117.27 321.037H1117.72C1118.43 321.044 1119.13 321.208 1119.78 321.517C1120.42 321.826 1120.99 322.272 1121.44 322.825C1122.46 324.012 1123.01 325.529 1122.99 327.092Z" fill="#C2CDFF"/>
<path d="M1122.12 327.092V341.274H1112.44V327.092C1112.36 325.664 1112.8 324.256 1113.7 323.139C1114.59 322.021 1115.86 321.273 1117.27 321.037C1118.56 321.168 1119.74 321.802 1120.56 322.801C1121.59 323.994 1122.14 325.519 1122.12 327.092Z" fill="#6D5AFF"/>
<path d="M1095.69 327.092V341.274H1085.13V327.092C1085.05 325.661 1085.5 324.252 1086.39 323.133C1087.29 322.014 1088.56 321.264 1089.98 321.026H1090.42C1091.13 321.035 1091.83 321.199 1092.48 321.505C1093.12 321.812 1093.69 322.254 1094.15 322.801C1095.16 323.998 1095.71 325.522 1095.69 327.092Z" fill="#6D5AFF"/>
<path d="M1077.46 307.904V316.247H1071.24V307.904C1071.19 307.062 1071.46 306.231 1071.98 305.571C1072.51 304.911 1073.26 304.468 1074.09 304.329H1074.35C1074.77 304.333 1075.19 304.428 1075.57 304.61C1075.95 304.791 1076.28 305.053 1076.55 305.378C1077.15 306.079 1077.48 306.978 1077.46 307.904Z" fill="#C2CDFF"/>
<path d="M1076.94 307.904V316.247H1071.24V307.904C1071.19 307.062 1071.46 306.231 1071.98 305.571C1072.51 304.911 1073.26 304.468 1074.09 304.329C1074.85 304.408 1075.55 304.78 1076.03 305.366C1076.63 306.075 1076.95 306.976 1076.94 307.904Z" fill="#6D5AFF"/>
<path d="M1085.75 307.904V316.247H1079.58V307.904C1079.53 307.062 1079.8 306.231 1080.32 305.571C1080.85 304.911 1081.6 304.468 1082.43 304.329H1082.69C1083.11 304.333 1083.53 304.428 1083.91 304.61C1084.29 304.791 1084.62 305.053 1084.89 305.378C1085.47 306.09 1085.77 306.987 1085.75 307.904Z" fill="#C2CDFF"/>
<path d="M1085.23 307.904V316.247H1079.58V307.904C1079.53 307.062 1079.8 306.231 1080.32 305.571C1080.85 304.911 1081.6 304.468 1082.43 304.329C1083.19 304.411 1083.88 304.782 1084.36 305.366C1084.95 306.077 1085.26 306.98 1085.23 307.904Z" fill="#6D5AFF"/>
<path d="M1102.33 307.904V316.247H1096.11V307.904C1096.06 307.062 1096.33 306.231 1096.85 305.571C1097.38 304.911 1098.13 304.468 1098.96 304.329H1099.22C1099.64 304.333 1100.06 304.428 1100.43 304.61C1100.81 304.791 1101.15 305.053 1101.41 305.378C1102.02 306.079 1102.35 306.978 1102.33 307.904Z" fill="#C2CDFF"/>
<path d="M1101.81 307.904V316.247H1096.11V307.904C1096.06 307.062 1096.33 306.231 1096.85 305.571C1097.38 304.911 1098.13 304.468 1098.96 304.329C1099.72 304.408 1100.41 304.78 1100.9 305.366C1101.5 306.075 1101.82 306.976 1101.81 307.904Z" fill="#6D5AFF"/>
<path d="M1110.1 307.904V316.247H1103.88V307.904C1103.83 307.062 1104.09 306.231 1104.62 305.571C1105.15 304.911 1105.9 304.468 1106.73 304.329H1106.99C1107.41 304.333 1107.82 304.428 1108.2 304.61C1108.58 304.791 1108.92 305.053 1109.18 305.378C1109.79 306.079 1110.11 306.978 1110.1 307.904Z" fill="#C2CDFF"/>
<path d="M1109.58 307.904V316.247H1103.88V307.904C1103.83 307.062 1104.09 306.231 1104.62 305.571C1105.15 304.911 1105.9 304.468 1106.73 304.329C1107.49 304.408 1108.18 304.78 1108.67 305.366C1109.27 306.075 1109.59 306.976 1109.58 307.904Z" fill="#6D5AFF"/>
<path d="M1094.04 307.904V316.247H1087.82V307.904C1087.77 307.062 1088.04 306.233 1088.56 305.573C1089.09 304.914 1089.84 304.471 1090.67 304.329H1090.93C1091.35 304.332 1091.77 304.428 1092.15 304.609C1092.53 304.791 1092.86 305.053 1093.13 305.378C1093.73 306.084 1094.05 306.98 1094.04 307.904Z" fill="#6D5AFF"/>
<path d="M1041.45 375.835H1137.97C1138.6 375.835 1139.21 376.087 1139.66 376.534C1140.1 376.981 1140.35 377.587 1140.35 378.219H1039.07C1039.07 377.587 1039.32 376.981 1039.77 376.534C1040.22 376.087 1040.82 375.835 1041.45 375.835Z" fill="#BDC1FF"/>
<path d="M1039.07 378.219H1140.35C1140.35 378.851 1140.1 379.458 1139.66 379.905C1139.21 380.352 1138.6 380.603 1137.97 380.603H1041.45C1040.82 380.603 1040.22 380.352 1039.77 379.905C1039.32 379.458 1039.07 378.851 1039.07 378.219Z" fill="#6C61EE"/>
<path d="M1101.03 213.753H1078.39V219.712H1101.03V213.753Z" fill="#CFD4F4"/>
<path d="M1108.18 274.534H1071.24V291.219H1108.18V274.534Z" fill="#CFD4F4"/>
<path d="M1113.01 432.266V435.961H1117.01V442.575H1062.2V435.961H1066.31V432.266H1062.2V427.082H1117.01V432.266H1113.01Z" fill="#CFD4F4"/>
<path d="M1030.84 466.328V458.152H999.75V466.328H1009.57V477.769H1003.03V485.956H1009.57V783.747H1022.68V485.956H1027.59V477.769H1022.65V466.328H1030.84ZM1511.78 469.605V461.417H1480.69V469.605H1490.52V481.058H1483.97V489.234H1490.52V756.753H1475.66V730.533H1462.71V547.595H1467.61V541.016H1462.71V531.804H1470.88V525.225H1439.79V531.804H1449.62V541.016H1443.07V547.595H1449.62V730.569H1424.76L1432.05 599.307L1435.87 599.521L1436.17 594.384L1432.29 594.17L1432.69 587.019L1439.07 587.377L1439.35 582.252L1415.16 580.822L1414.88 585.947L1422.53 586.376L1422.12 593.526L1417.02 593.252L1416.75 598.377L1421.85 598.663L1415.75 708.402H1383.72C1384.27 677.869 1380.44 613.346 1360.75 599.604C1341.05 585.863 1332.84 578.069 1331.2 575.876V561.229H1318.09V548.12H1332.88V533.413H1304.92V517.92H1311.49L1290.15 487.649L1282.76 415.653V643.033H1291.75V662.662L1336.75 707.663H1349.01V722.394H1342.47V773.116H1357.22V787H1511.78V756.729H1503.6V489.234H1508.55V481.058H1503.65V469.605H1511.78ZM1282.69 414.652L1275.43 486.278L1254.23 516.68H1260.7V532.293H1233.05V547.083H1247.71V560.192H1234.68V574.982C1233.05 577.163 1224.9 585.005 1205.33 598.818C1185.77 612.631 1181.96 677.475 1182.51 708.104H1145.84V730.295H1095.9L1101.45 630.329L1104.6 630.507L1104.83 626.288L1101.69 626.122L1102.01 620.163L1107.25 620.461L1107.48 616.242L1087.59 615.133L1087.35 619.352L1093.63 619.698L1093.31 625.657L1089.12 625.418L1088.89 629.637L1093.07 629.864L1086.03 756.586H1062.09L1055.05 629.864L1059.25 629.637L1059.01 625.418L1054.82 625.657L1054.5 619.698L1060.78 619.352L1060.54 615.133L1040.64 616.242L1040.88 620.461L1046.11 620.163L1046.45 626.122L1043.3 626.288L1043.54 630.507L1046.69 630.329L1055.21 783.615H1055.37V787H1212.42V773.116H1226.31V722.394H1218.14V707.663H1232.87L1277.85 662.662V643.033H1282.76V413.973L1282.69 414.652Z" fill="#AAB8F9"/>
<path d="M1503.6 469.605V481.058H1508.55V489.234H1503.65V756.753H1511.82V787H1357.22V773.116H1342.47V722.394H1349.01V707.663H1336.75L1291.75 662.662V643.033H1282.69V414.652L1282.76 413.973V415.605L1290.15 487.601L1311.49 517.872H1304.92V533.365H1332.84V548.084H1318.05V561.193H1331.16V575.912C1332.8 578.105 1341 585.899 1360.71 599.64C1380.42 613.381 1384.23 677.904 1383.68 708.438H1415.71L1421.85 598.699L1416.75 598.413L1417.02 593.288L1422.12 593.562L1422.53 586.411L1414.88 585.982L1415.16 580.858L1439.44 582.216L1439.15 587.341L1432.78 586.983L1432.37 594.134L1436.21 594.349L1435.91 599.485L1432.08 599.271L1424.79 730.533H1449.66V547.595H1443.11V541.016H1449.66V531.804H1439.79V525.225H1470.88V531.804H1462.71V541.016H1467.61V547.595H1462.71V730.569H1475.66V756.788H1490.52V489.234H1483.97V481.058H1490.52V469.605H1480.69V461.417H1511.78V469.605H1503.6Z" fill="#95A1F3"/>
<g opacity="0.33">
<path opacity="0.33" d="M1333.15 532.71H1233.23V548.537H1333.15V532.71Z" fill="#9CA2FF"/>
<path opacity="0.33" d="M1331.16 560.419H1234.21V577.235H1331.16V560.419Z" fill="#9CA2FF"/>
</g>
<path opacity="0.28" d="M1226.29 756.335H1053.17V773.151H1226.29V756.335Z" fill="#CFD4F4"/>
<path opacity="0.28" d="M1212.44 773.151H1053.17V787H1212.44V773.151Z" fill="#ABB2FF"/>
<path d="M1762.35 782.233H915.149V794.151H1762.35V782.233Z" fill="#6A5DFF"/>
<path d="M1020.98 713.534C1020.46 711.673 1021.07 711.025 1020.77 708.424C1020.46 705.694 1020.16 703.309 1022.77 701.901C1025.39 700.493 1028.72 697.469 1030.96 699.245C1033.2 701.021 1035.22 700.232 1036.2 701.831C1037.18 703.43 1037.68 704.979 1037.43 707.947C1037.26 709.988 1020.98 713.534 1020.98 713.534Z" fill="#393939"/>
<path d="M1034.56 763.896C1034.56 763.896 1023.86 793.231 1021.58 796.085C1019.3 798.938 1002.21 814.473 1002.21 814.473C1002.21 814.473 997.773 811.764 998.73 809.947C999.687 808.129 1008.36 792.813 1012.31 788.541C1016.26 784.268 1013.94 768.198 1018.67 756.231C1023.4 744.264 1034.56 763.896 1034.56 763.896Z" fill="#001838"/>
<path d="M1034.56 763.895C1034.56 763.895 1023.41 744.262 1018.68 756.229C1016.94 760.63 1016.01 765.907 1015.62 770.617C1019.53 779.524 1021.62 788.862 1022.45 794.587C1025.81 787.885 1034.56 763.895 1034.56 763.895Z" fill="#000915"/>
<path d="M1024.27 707.665C1024.27 707.665 1020.15 715.055 1015.65 722.981C1008.35 735.859 1016.57 759.234 1019.17 761.734C1021.78 764.233 1035.32 759.786 1036.17 757.917C1037.03 756.048 1035.86 743.355 1031.8 735.347C1027.73 727.34 1025.66 721.975 1026.76 718.433C1027.67 715.476 1029.06 709.908 1029.06 709.908L1024.27 707.665Z" fill="#EE9F86"/>
<path d="M1024.27 707.665L1029.06 709.908C1029.06 709.908 1027.67 715.476 1026.76 718.433C1026.54 719.191 1026.44 719.981 1026.47 720.771C1024.78 719.299 1022.75 716.834 1021.36 712.854C1023.11 709.734 1024.27 707.665 1024.27 707.665Z" fill="#EB957A"/>
<path d="M1035.29 708.972C1036.36 712.604 1035.77 716.646 1033.5 717.735C1031.84 718.53 1026.25 717.372 1025.41 713.254C1024.63 709.366 1024.77 705.705 1027.5 704.521C1030.22 703.337 1034.17 705.166 1035.29 708.972Z" fill="#EE9F86"/>
<path d="M1034.72 753.725C1040.33 781.286 1060.44 812.985 1059.47 814.768C1058.55 816.469 1053.7 817.143 1053.7 817.143C1053.7 817.143 1037.22 799.71 1036.02 792.06C1034.83 784.41 1018.87 772.48 1017.06 762.51C1015.25 752.54 1017.06 754.242 1017.06 754.242L1034.72 753.725Z" fill="#001838"/>
<path d="M1028 724.227C1032.5 727.771 1043.82 730.739 1043.82 730.739H1029.06L1028 724.227Z" fill="#81CFFF"/>
<path d="M1016.26 720.839L1018.09 717.761C1018.09 717.761 1019.11 718.816 1022.35 720.204C1025.59 721.591 1027.62 721.544 1027.62 721.544L1031.74 734.953L1018.36 728.44L1016.26 720.839Z" fill="#81CFFF"/>
<path d="M1015.62 719.964C1020.34 718.191 1024.94 724.896 1026.57 728.153C1028.2 731.41 1028.96 733.708 1028.96 733.708L1031.74 732.942C1031.74 732.942 1035 740.413 1035.57 744.148C1036.15 747.883 1036.82 760.669 1036.82 760.669C1036.82 760.669 1016.56 759.5 1016.49 758.902C1016.43 758.305 1013.21 751.777 1012.17 746.735C1010.47 738.496 1011.33 726.812 1013.2 723.556C1015.08 720.299 1015.62 719.964 1015.62 719.964Z" fill="#001838"/>
<path d="M1029.52 760.121H1064.91C1065 760.121 1065 728.177 1064.91 728.177H1029.52C1029.47 728.177 1029.43 728.195 1029.4 728.225C1029.37 728.256 1029.35 728.297 1029.35 728.341V759.959C1029.35 760.002 1029.37 760.043 1029.4 760.073C1029.43 760.104 1029.47 760.121 1029.52 760.121Z" fill="#EB9C63"/>
<path d="M1040.24 760.121H1065.64C1065.73 760.121 1065.73 728.177 1065.64 728.177H1040.24C1040.2 728.177 1040.15 728.194 1040.12 728.225C1040.09 728.255 1040.07 728.297 1040.07 728.341V759.959C1040.08 760.002 1040.09 760.044 1040.12 760.074C1040.15 760.104 1040.2 760.121 1040.24 760.121Z" fill="#F0B589"/>
<g opacity="0.5">
<path opacity="0.5" d="M1042.86 736.808H1048.57C1048.66 736.808 1048.74 736.882 1048.74 736.972V737.758C1048.74 737.848 1048.66 737.922 1048.57 737.922H1042.86C1042.77 737.922 1042.69 737.848 1042.69 737.758V736.972C1042.69 736.882 1042.77 736.808 1042.86 736.808Z" fill="#E86C1F"/>
<path opacity="0.5" d="M1047.22 732.276L1047.92 732.973C1047.94 732.996 1047.96 733.025 1047.96 733.057C1047.97 733.089 1047.97 733.121 1047.95 733.151C1047.94 733.181 1047.92 733.206 1047.89 733.224C1047.87 733.242 1047.83 733.252 1047.8 733.252H1047.78C1047.74 733.252 1047.7 733.269 1047.67 733.299C1047.64 733.33 1047.62 733.371 1047.62 733.414V737.203C1047.62 737.246 1047.6 737.287 1047.57 737.318C1047.54 737.349 1047.5 737.366 1047.46 737.366H1046.75C1046.73 737.366 1046.71 737.362 1046.69 737.354C1046.67 737.346 1046.65 737.334 1046.64 737.318C1046.62 737.303 1046.61 737.285 1046.6 737.265C1046.6 737.245 1046.59 737.224 1046.59 737.203V733.414C1046.59 733.393 1046.59 733.371 1046.58 733.352C1046.57 733.332 1046.56 733.314 1046.54 733.299C1046.53 733.284 1046.51 733.272 1046.49 733.264C1046.47 733.256 1046.45 733.252 1046.43 733.252H1046.41C1046.38 733.252 1046.34 733.242 1046.32 733.224C1046.29 733.206 1046.27 733.181 1046.26 733.151C1046.25 733.121 1046.24 733.089 1046.25 733.057C1046.25 733.025 1046.27 732.996 1046.29 732.973L1046.99 732.276C1047.02 732.246 1047.06 732.228 1047.11 732.228C1047.15 732.228 1047.19 732.246 1047.22 732.276Z" fill="#E86C1F"/>
<path opacity="0.5" d="M1044.35 732.277L1045.05 732.974C1045.07 732.997 1045.09 733.026 1045.09 733.058C1045.1 733.089 1045.1 733.122 1045.08 733.152C1045.07 733.182 1045.05 733.207 1045.02 733.225C1045 733.243 1044.96 733.253 1044.93 733.253H1044.91C1044.87 733.253 1044.83 733.27 1044.8 733.3C1044.77 733.33 1044.75 733.372 1044.75 733.415V737.203C1044.75 737.246 1044.73 737.288 1044.7 737.319C1044.67 737.349 1044.63 737.367 1044.59 737.367H1043.89C1043.84 737.367 1043.8 737.35 1043.77 737.319C1043.74 737.288 1043.72 737.247 1043.72 737.203V733.415C1043.72 733.393 1043.72 733.372 1043.71 733.352C1043.7 733.332 1043.69 733.314 1043.67 733.299C1043.66 733.283 1043.64 733.272 1043.62 733.264C1043.6 733.256 1043.58 733.252 1043.55 733.253H1043.54C1043.5 733.253 1043.47 733.243 1043.45 733.225C1043.42 733.207 1043.4 733.182 1043.39 733.152C1043.37 733.122 1043.37 733.089 1043.38 733.058C1043.38 733.026 1043.4 732.997 1043.42 732.974L1044.12 732.277C1044.13 732.261 1044.15 732.249 1044.17 732.241C1044.19 732.232 1044.21 732.228 1044.23 732.228C1044.26 732.228 1044.28 732.232 1044.3 732.241C1044.32 732.249 1044.34 732.261 1044.35 732.277Z" fill="#E86C1F"/>
</g>
<path d="M1047 759.83C1047.95 758.998 1048.87 758.042 1048.08 757.986C1047.26 757.928 1045.42 758.964 1044.01 759.846C1042.9 759.862 1042.15 759.883 1042.15 759.883L1039.64 762.919C1041.63 763.168 1043.64 763.312 1045.64 763.35C1049.16 763.426 1052.57 761.913 1053.81 760.709C1054.53 760.014 1050.52 759.847 1047 759.83Z" fill="#F09959"/>
<path d="M1018.03 721.122C1012.71 722.695 1011.76 730.2 1015.3 739.715C1018.85 749.23 1032.54 762.303 1039.58 763.742C1043.3 764.502 1043.83 760.007 1043.83 760.007C1043.83 760.007 1030.95 747.328 1028.66 742.455C1026.38 737.582 1022.86 719.69 1018.03 721.122Z" fill="#81CFFF"/>
<path d="M1020.98 713.534C1022.83 713.595 1025.89 712.535 1026.08 711.712C1026.27 710.889 1025.85 709.488 1026.46 710.002C1027.07 710.517 1027.43 713.786 1027.98 714.183C1028.92 714.867 1029.06 710.626 1028.51 709.142C1028.13 708.105 1029.65 706.649 1032.1 708.293C1034.21 709.709 1035.65 709.242 1036.43 708.916C1037.22 708.59 1036.77 706.118 1036.77 706.118L1030.85 701.627L1024.69 704.931L1020.98 713.534Z" fill="#393939"/>
<path d="M1026.71 710.822C1026.91 712.048 1026.41 713.152 1025.58 713.289C1024.75 713.425 1023.91 712.543 1023.71 711.318C1023.5 710.092 1024.01 708.988 1024.84 708.85C1025.67 708.712 1026.51 709.595 1026.71 710.822Z" fill="#EB957A"/>
<path d="M1250.39 732.899L1234.5 736.964L1231.5 730.76H1249.1L1250.39 732.899Z" fill="#EE9F86"/>
<path d="M1251.62 718.629L1238.98 731.412C1238.35 732.043 1238.8 733.115 1239.69 733.115H1249.99C1250.24 733.115 1250.49 733.017 1250.68 732.842L1264.92 719.381C1265.6 718.74 1265.11 717.603 1264.18 717.656L1252.27 718.334C1252.03 718.348 1251.79 718.453 1251.62 718.629Z" fill="#333333"/>
<path d="M1233.5 722.516C1235.56 716.8 1231.11 712.562 1228.49 709.338C1228.71 709.124 1227.87 709.338 1226.99 709.338C1226.13 709.338 1222.83 708.156 1218.75 710.295C1213.43 717.653 1214.97 733.476 1216.26 740.107C1222.84 740.25 1233.5 742.058 1233.5 740.975C1233.5 740.498 1233.5 740.37 1233.5 740.351C1233.5 740.267 1233.5 740.017 1233.5 739.35C1233.5 736.518 1233.5 731.584 1233.5 722.516Z" fill="#000915"/>
<path d="M1213.77 755.055C1212.39 748.924 1214.78 742.532 1216.14 740.102L1233.17 740.645C1233.69 749.832 1214.92 797.45 1203.84 820.102L1197.8 817.485C1203.7 799.229 1215.15 761.186 1213.77 755.055Z" fill="#211C5F"/>
<path d="M1216.09 735.894L1215.66 723.06L1222.32 722.418L1221.24 732.472L1237.55 723.846L1239.27 726.413L1219.96 738.889H1219.09C1217.43 738.889 1216.09 737.548 1216.09 735.894Z" fill="#EE9F86"/>
<path d="M1245.17 721.996C1243.2 720.473 1239.35 722.378 1237.55 723.849L1239.27 726.416C1240.53 724.967 1243.61 726.973 1243.61 725.898C1243.61 725.069 1243 725.353 1241.95 725.235C1242.21 724.596 1243.58 723.843 1244.73 723.386C1245.34 723.147 1245.69 722.396 1245.17 721.996Z" fill="#EE9F86"/>
<path d="M1234.28 823.52L1233.5 740.882L1216.54 740.321L1228.01 823.52H1234.28Z" fill="#262168"/>
<path d="M1214.8 715.377C1214.8 712.77 1216.92 710.656 1219.53 710.656C1222.13 710.656 1224.25 712.77 1224.25 715.377V723.062H1214.8V715.377Z" fill="#830000"/>
<path d="M1234.86 699.502C1234.98 699.137 1235.02 698.724 1235.01 698.303C1235 696.763 1234.41 695.237 1233.58 693.936C1226.41 690.098 1223.28 696.405 1222.6 700.038L1223.49 710.761L1224.91 711.121C1227.18 711.697 1229.34 709.861 1229.13 707.534C1230.01 707.534 1230.7 707.559 1232.66 707.973C1234.62 708.388 1234.26 706.611 1234.32 706.315C1234.36 706.139 1234.63 705.889 1234.87 705.706C1234.98 705.619 1235 705.45 1234.9 705.349C1234.81 705.261 1234.81 705.117 1234.9 705.029L1235.04 704.893C1235.17 704.755 1235.2 704.538 1235.09 704.373L1234.99 704.211C1234.91 704.088 1234.92 703.929 1235.02 703.819L1235.2 703.608C1235.65 703.09 1235.65 702.331 1235.31 701.735C1234.92 701.055 1234.62 700.222 1234.86 699.502Z" fill="#F3AEAE"/>
<path d="M1223.07 704.251C1223.39 706.201 1222.41 703.601 1221.94 701.907C1221.4 701.202 1219.89 697.362 1220.51 695.077C1220.95 693.432 1221.46 691.642 1224.28 691.371C1219.21 691.597 1222.39 691.348 1225.05 691.307L1224.64 690.893C1223.74 690.002 1222.9 689.444 1222.35 689.444C1217.78 689.651 1211.76 690.479 1209.48 688.202C1207.65 686.381 1204.29 687.443 1202.83 688.202C1193.91 691.307 1178.33 687.788 1187.26 681.165C1196.19 674.541 1196.4 677.646 1203.46 681.165C1210.52 684.684 1209.06 680.751 1218.2 681.786C1225.51 682.614 1225.81 688.478 1225.05 691.307C1222.39 691.348 1219.21 691.597 1224.28 691.371C1224.52 691.348 1224.78 691.336 1225.05 691.336C1225.25 691.327 1225.46 691.317 1225.67 691.307C1234.39 690.893 1235.46 697.751 1234.8 697.101C1234.07 696.374 1227.63 696.451 1226.98 700.351C1225.52 698.488 1225.2 697.691 1224.37 698.726C1223.54 699.761 1222.69 701.998 1223.07 704.251Z" fill="#393939"/>
<path d="M1302.99 697.453L1303.59 695.218L1304.68 693.193C1305.29 692.846 1307.68 692.405 1312.33 693.416C1316.99 694.427 1314.45 702.638 1312.62 706.708L1312.62 711.715C1309.64 713.231 1306.46 711.774 1306.46 710.439L1306.46 707.586C1305.56 707.737 1304.36 707.885 1303.69 707.725C1302.56 707.453 1303.09 706.082 1303.49 705.43C1303.17 705.257 1303.05 704.852 1303.22 704.527L1302.88 704.247C1302.73 704.126 1302.68 703.926 1302.74 703.745C1302.85 703.426 1302.71 703.075 1302.41 702.916L1301.85 702.617C1301.59 702.477 1301.52 702.137 1301.7 701.902L1302.91 700.344C1303.15 700.039 1303.21 699.633 1303.07 699.272C1302.85 698.69 1302.82 698.054 1302.99 697.453Z" fill="#F3AEAE"/>
<path d="M1311.1 706.226L1311.43 706.707C1311.86 707.33 1312.8 707.27 1313.15 706.597L1314.11 704.727C1315.51 702.015 1316.84 698.992 1315.9 696.096C1315.3 694.263 1314.02 692.477 1311.56 691.579C1305.64 689.417 1304.02 692.421 1303.79 692.381C1303.6 692.349 1303.35 691.893 1303.24 691.669C1303.16 691.826 1303.17 692.33 1303.18 692.563C1302.77 692.206 1303.04 691.42 1303.22 691.072C1300.5 693.991 1301.83 695.796 1302.84 696.334C1303.9 696.199 1306.13 696.144 1306.61 697.007C1307.21 698.086 1306.88 697.911 1308.12 698.743C1309.12 699.409 1308.64 701.765 1308.27 702.86L1307.67 703.97L1309.25 703.386C1309.41 701.719 1310.63 700.983 1311.23 700.823C1312.79 701.187 1311.79 704.576 1311.1 706.226Z" fill="#393939"/>
<path d="M1306.44 708.246L1304.45 708.905L1302.25 743.357H1315.02V708.246H1312.6L1312.56 708.884C1312.46 710.499 1311.12 711.757 1309.5 711.757C1307.81 711.757 1306.44 710.385 1306.44 708.692V708.246Z" fill="white"/>
<path d="M1283.58 704.834C1281.15 706.108 1281.63 710.821 1282.39 713.173L1285.74 713.293C1284.79 711.498 1287.89 708.356 1286.8 707.931C1285.96 707.604 1286 708.306 1285.44 709.278C1284.89 708.762 1284.69 707.11 1284.71 705.804C1284.72 705.148 1284.16 704.53 1283.58 704.834Z" fill="#EA8F72"/>
<path d="M1305.89 732.506C1306.5 735.173 1311.19 735.931 1313.67 735.806L1314.65 732.617C1312.66 733.069 1310.42 729.265 1309.73 730.207C1309.19 730.933 1309.88 731.079 1310.68 731.865C1310.04 732.259 1308.38 732.023 1307.12 731.665C1306.49 731.487 1305.75 731.868 1305.89 732.506Z" fill="#EA8F72"/>
<path d="M1321.41 743.138H1296.75L1294.99 824.112H1302.47L1307.32 765.082L1320.31 824.112H1328.23L1321.41 743.138Z" fill="#333333"/>
<path d="M1302.03 759.376L1304.45 708.904L1303.57 709.124C1303.13 709.343 1303.18 709.299 1298.07 710.879C1292.96 712.459 1289.78 721.925 1288.82 726.46L1285.96 713.074H1282.22L1283.11 732.386C1283.22 734.964 1285.35 736.993 1287.93 736.993C1289.82 736.993 1291.53 735.895 1292.32 734.182L1295.87 726.46C1294.11 736.773 1290.54 757.796 1290.36 759.376C1290.19 760.956 1298.07 760.034 1302.03 759.376Z" fill="#000915"/>
<mask id="mask0" mask-type="alpha" maskUnits="userSpaceOnUse" x="1282" y="708" width="23" height="53">
<path d="M1302.03 759.376L1304.45 708.904L1303.57 709.124C1303.13 709.343 1303.18 709.299 1298.07 710.879C1292.96 712.459 1289.77 721.925 1288.82 726.46L1285.96 713.074H1282.22L1283.1 732.386C1283.22 734.964 1285.35 736.993 1287.93 736.993C1289.81 736.993 1291.53 735.895 1292.31 734.182L1295.87 726.46C1294.1 736.773 1290.54 757.796 1290.36 759.376C1290.19 760.956 1298.07 760.034 1302.03 759.376Z" fill="#DEECF9"/>
</mask>
<g mask="url(#mask0)">
<ellipse cx="1287.5" cy="739.186" rx="5.28397" ry="5.26663" fill="#BFCEE1" fill-opacity="0.3"/>
<line y1="-0.5" x2="52.2937" y2="-0.5" transform="matrix(-0.0505205 0.998723 -0.99874 -0.0501924 1303.35 708.464)" stroke="#000915"/>
<path d="M1288.82 728.872L1288.6 724.263V722.288L1289.48 722.727L1288.82 728.872Z" fill="#7D809D"/>
</g>
<path fill-rule="evenodd" clip-rule="evenodd" d="M1328.01 715.489C1326.6 713.032 1318.76 709.491 1315.02 708.028L1314.29 732.53L1313.48 732.386V735.897L1314.19 736.124L1313.48 760.036H1326.25L1324.34 739.316C1326.68 740.041 1328.87 740.71 1330.43 741.164C1334.66 742.393 1335.42 738.165 1335.28 735.897C1333.44 730.119 1329.42 717.947 1328.01 715.489ZM1322.95 724.264L1327.35 735.675L1323.17 734.578L1322.95 724.264Z" fill="#000915"/>
<path d="M1313.48 732.389V735.9L1327.35 740.289L1327.57 735.681L1313.48 732.389Z" fill="url(#paint0_linear)"/>
<mask id="mask1" mask-type="alpha" maskUnits="userSpaceOnUse" x="1313" y="708" width="23" height="53">
<path fill-rule="evenodd" clip-rule="evenodd" d="M1328.01 715.489C1326.6 713.032 1318.76 709.491 1315.02 708.028L1314.29 732.533L1313.48 732.386V735.897L1314.19 736.124L1313.48 760.036H1326.25L1324.34 739.316C1326.68 740.041 1328.87 740.71 1330.43 741.164C1334.66 742.393 1335.42 738.165 1335.28 735.897C1333.44 730.119 1329.42 717.947 1328.01 715.489ZM1322.95 724.269L1326.91 734.802L1323.83 733.485L1322.95 724.269Z" fill="#7873D7"/>
</mask>
<g mask="url(#mask1)">
<line x1="1316.18" y1="707.152" x2="1316.18" y2="733.046" stroke="#000915"/>
<path d="M1315.88 736.809L1315.88 760.016" stroke="#000915"/>
<ellipse cx="1336.38" cy="740.949" rx="5.284" ry="5.26663" fill="#BFCEE1" fill-opacity="0.3"/>
<path d="M1328.89 736.56L1327.35 735.682L1327.13 735.024L1328.89 736.56Z" fill="#7D809D"/>
</g>
<g opacity="0.1">
<path fill-rule="evenodd" clip-rule="evenodd" d="M1241.65 -34.3113C1246.35 -50.871 1261.58 -63 1279.65 -63C1298.83 -63 1314.82 -49.3261 1318.4 -31.1934C1321.68 -32.3165 1325.19 -32.9262 1328.84 -32.9262C1346.57 -32.9262 1360.95 -18.5492 1360.95 -0.814186C1360.95 14.3788 1350.4 27.1074 1336.22 30.4442C1334.63 30.9974 1332.91 31.298 1331.13 31.298H1195.55C1186.96 31.298 1180 24.3376 1180 15.7517C1180 7.16566 1186.96 0.205341 1195.55 0.205341H1204.48C1203.81 -2.22829 1203.45 -4.79262 1203.45 -7.44121C1203.45 -23.2057 1216.23 -35.9853 1231.99 -35.9853C1235.38 -35.9853 1238.63 -35.3949 1241.65 -34.3113Z" fill="#000915"/>
<path fill-rule="evenodd" clip-rule="evenodd" d="M1282.07 -16.9869C1286.77 -33.5465 1302.01 -45.6755 1320.08 -45.6755C1339.26 -45.6755 1355.25 -32.0022 1358.83 -13.87C1362.1 -14.9932 1365.61 -15.603 1369.26 -15.603C1387 -15.603 1401.37 -1.2259 1401.37 16.5091C1401.37 31.7021 1390.82 44.4307 1376.65 47.7675C1375.05 48.3207 1373.34 48.6212 1371.56 48.6212H1235.97C1227.38 48.6212 1220.42 41.6609 1220.42 33.0749C1220.42 24.4889 1227.38 17.5286 1235.97 17.5286H1244.91C1244.23 15.0954 1243.87 12.5314 1243.87 9.88327C1243.87 -5.88117 1256.65 -18.6608 1272.42 -18.6608C1275.81 -18.6608 1279.06 -18.0704 1282.07 -16.9869Z" fill="#001838"/>
</g>
<g opacity="0.1">
<path fill-rule="evenodd" clip-rule="evenodd" d="M1409.47 175.758C1411.98 166.927 1420.11 160.458 1429.74 160.458C1439.97 160.458 1448.5 167.751 1450.41 177.422C1452.16 176.823 1454.03 176.498 1455.98 176.498C1465.43 176.498 1473.1 184.166 1473.1 193.624C1473.1 201.729 1467.47 208.519 1459.91 210.297C1459.06 210.59 1458.15 210.75 1457.2 210.75H1456.12C1456.07 210.75 1456.02 210.751 1455.98 210.751C1455.93 210.751 1455.88 210.75 1455.83 210.75H1384.89C1380.31 210.75 1376.6 207.038 1376.6 202.459C1376.6 197.879 1380.31 194.167 1384.89 194.167H1389.65C1389.29 192.869 1389.1 191.502 1389.1 190.089C1389.1 181.681 1395.92 174.866 1404.32 174.866C1406.13 174.866 1407.87 175.18 1409.47 175.758Z" fill="#000915"/>
<path fill-rule="evenodd" clip-rule="evenodd" d="M1431.03 184.998C1433.54 176.166 1441.67 169.698 1451.3 169.698C1461.53 169.698 1470.06 176.99 1471.97 186.661C1473.71 186.062 1475.59 185.736 1477.53 185.736C1486.99 185.736 1494.66 193.404 1494.66 202.863C1494.66 210.964 1489.04 217.751 1481.48 219.533C1480.63 219.829 1479.71 219.99 1478.76 219.99H1406.45C1401.87 219.99 1398.15 216.278 1398.15 211.698C1398.15 207.119 1401.87 203.407 1406.45 203.407H1411.21C1410.85 202.109 1410.66 200.741 1410.66 199.329C1410.66 190.921 1417.48 184.105 1425.88 184.105C1427.69 184.105 1429.42 184.42 1431.03 184.998Z" fill="#001838"/>
</g>
<path d="M955.489 756.852C958.407 734.484 944.993 734.47 936.424 737.726C935.646 738.022 934.807 737.345 934.983 736.532C939.397 716.136 946.451 675.774 942.399 662.605C938.5 649.933 922.956 655.938 914.138 661.404C913.408 661.857 912.454 661.264 912.558 660.411C916.435 628.716 920.721 603.641 888.73 601.082C863.168 599.037 860.485 635.927 862.403 655.947C862.47 656.641 861.81 657.184 861.129 657.033C837.512 651.794 839.945 669.779 844.224 679.621C850.769 701.002 861.765 742.191 853.387 735.908C845.171 729.746 839.64 733.153 837.784 735.756C837.713 735.857 837.664 735.976 837.638 736.097C822.074 806.604 879.586 811.83 900.511 811.83C921.455 811.83 951.562 786.959 955.489 756.852Z" fill="#1157B6"/>
<path d="M888.729 629.88C890.618 680.897 890.474 799.613 888.728 857.645L900.509 860.263C896.582 745.071 887.42 594.537 888.729 629.88Z" fill="#95A1F7"/>
<path d="M897.893 798.74C910.547 790.014 937.163 768.633 942.399 752.925" stroke="#95A1F7" stroke-linecap="round"/>
<path d="M891.35 786.96C880.929 779.979 859.01 762.875 854.698 750.308" stroke="#95A1F7" stroke-linecap="round"/>
<path d="M893.968 716.274C905.877 708.296 930.928 688.748 935.856 674.386" stroke="#95A1F7" stroke-linecap="round"/>
<path d="M893.968 734.6C886.525 729.614 857.778 682.053 854.698 673.077" stroke="#95A1F7" stroke-linecap="round"/>
<path d="M928.033 745.072C927.596 753.798 931.436 769.943 950.286 764.707" stroke="#95A1F7" stroke-width="0.5" stroke-linecap="round"/>
<path d="M909.707 763.398C909.271 772.125 913.111 788.269 931.96 783.033" stroke="#95A1F7" stroke-width="0.5" stroke-linecap="round"/>
<path d="M912.326 677.004C911.889 685.73 915.729 701.875 934.579 696.639" stroke="#95A1F7" stroke-width="0.5" stroke-linecap="round"/>
<path d="M878.232 695.33C878.591 701.966 875.433 714.242 859.933 710.261" stroke="#95A1F7" stroke-width="0.5" stroke-linecap="round"/>
<path d="M872.996 752.925C873.355 759.561 870.197 771.837 854.696 767.856" stroke="#95A1F7" stroke-width="0.5" stroke-linecap="round"/>
</g>
<g opacity="0.5">
<path d="M-366.162 486.328V478.152H-397.25V486.328H-387.431V497.769H-393.973V505.956H-387.431V803.747H-374.324V505.956H-369.415V497.769H-374.348V486.328H-366.162ZM114.776 489.605V481.417H83.6887V489.605H93.519V501.058H86.9655V509.234H93.519V776.753H78.6602V750.533H65.708V567.595H70.6053V561.016H65.708V551.804H73.8821V545.225H42.7943V551.804H52.6246V561.016H46.071V567.595H52.6246V750.569H27.7567L35.0491 619.307L38.874 619.521L39.1719 614.384L35.2874 614.17L35.6925 607.019L42.0674 607.377L42.3534 602.252L18.1647 600.822L17.8787 605.947L25.5285 606.376L25.1234 613.526L20.0235 613.252L19.7494 618.377L24.8493 618.663L18.7485 728.402H-13.2807C-12.7325 697.869 -16.5575 633.346 -36.254 619.604C-55.9505 605.863 -64.1603 598.069 -65.8047 595.876V581.229H-78.9119V568.12H-64.1246V553.413H-92.0787V537.92H-85.5132L-106.854 507.649L-114.242 435.653V663.033H-105.245V682.662L-60.252 727.663H-47.9909V742.394H-54.5325V793.116H-39.781V807H114.776V776.729H106.602V509.234H111.547V501.058H106.65V489.605H114.776ZM-114.313 434.652L-121.57 506.278L-142.768 536.68H-136.298V552.293H-163.954V567.083H-149.286V580.192H-162.321V594.982C-163.954 597.163 -172.104 605.005 -191.669 618.818C-211.235 632.631 -215.036 697.475 -214.488 728.104H-251.164V750.295H-301.102L-295.55 650.329L-292.404 650.507L-292.166 646.288L-295.311 646.122L-294.99 640.163L-289.747 640.461L-289.52 636.242L-309.408 635.133L-309.646 639.352L-303.366 639.698L-303.688 645.657L-307.882 645.418L-308.109 649.637L-303.926 649.864L-310.969 776.586H-334.907L-341.949 649.864L-337.755 649.637L-337.993 645.418L-342.176 645.657L-342.497 639.698L-336.218 639.352L-336.456 635.133L-356.355 636.242L-356.117 640.461L-350.886 640.163L-350.552 646.122L-353.698 646.288L-353.46 650.507L-350.314 650.329L-341.794 803.615H-341.627V807H-184.58V793.116H-170.686V742.394H-178.86V727.663H-164.132L-119.151 682.662V663.033H-114.242V433.973L-114.313 434.652Z" fill="#AAB8F9"/>
<path d="M106.602 489.605V501.058H111.547V509.234H106.65V776.753H114.824V807H-39.7812V793.116H-54.5327V742.394H-47.991V727.663H-60.2522L-105.246 682.662V663.033H-114.313V434.652L-114.242 433.973V435.605L-106.854 507.601L-85.5133 537.872H-92.0788V553.365H-64.1605V568.084H-78.9478V581.193H-65.8406V595.912C-64.1963 598.105 -55.9983 605.899 -36.2899 619.64C-16.5815 633.381 -12.7685 697.904 -13.3166 728.438H18.7126L24.8492 618.699L19.7493 618.413L20.0233 613.288L25.1232 613.562L25.5284 606.411L17.8785 605.982L18.1645 600.858L42.4366 602.216L42.1507 607.341L35.7758 606.983L35.3707 614.134L39.2075 614.349L38.9096 619.485L35.0847 619.271L27.7923 750.533H52.6602V567.595H46.1066V561.016H52.6602V551.804H42.7941V545.225H73.882V551.804H65.7078V561.016H70.6052V567.595H65.7078V750.569H78.6601V776.788H93.5189V509.234H86.9653V501.058H93.5189V489.605H83.6885V481.417H114.776V489.605H106.602Z" fill="#95A1F3"/>
<path d="M450.428 713.648C449.439 713.159 447.568 721.609 446.746 725.899H454.098C453.287 722.014 451.405 714.136 450.428 713.648ZM498.186 731.393C497.208 730.893 495.326 739.355 494.516 743.633H501.856C501.057 739.76 499.174 731.918 498.186 731.393ZM530.036 743.645C529.011 738.735 526.116 729.058 522.684 729.558C519.252 730.059 517.179 739.152 516.559 743.645H504.31C503.5 738.949 501.188 729.534 498.186 729.534C495.183 729.534 492.883 738.925 492.061 743.621H482.266V725.875H477.977C477.166 720.572 474.914 709.953 472.472 709.953C470.029 709.953 467.372 720.572 466.347 725.875H456.54C455.349 720.572 451.286 709.953 449.808 709.953C448.331 709.953 445.53 720.572 444.303 725.875H432.661V736.899H411.821V731.393H416.718V725.875H411.821V715.471H416.718V709.953H411.821V703.828H416.718V693.411H411.821V687.905H416.718V683.055H411.821V676.929H416.718V667.121H411.821V578.929H444.279C439.382 574.638 424.678 565.819 405.077 564.842C392.024 564.092 378.939 564.092 365.886 564.842L308.942 490.117L305.903 464.959V803.055H552.699V743.645H530.036ZM391.636 660.959H368.365V580.109H391.636V660.959ZM468.79 725.959C469.612 721.668 471.495 713.219 472.472 713.707C473.449 714.196 475.319 722.05 476.142 725.959H468.79ZM520.253 743.049C521.075 738.759 522.958 730.309 523.935 730.798C524.912 731.286 526.783 739.14 527.605 743.049H520.253ZM161.39 713.648C160.401 714.136 158.531 721.99 157.709 725.899H165.06C164.238 721.609 162.368 713.159 161.39 713.648ZM113.621 731.381C112.644 731.882 110.761 739.724 109.951 743.633H117.291C116.48 739.355 114.598 730.893 113.621 731.381ZM305.772 466.031L302.841 490.07L245.896 564.794C232.843 564.044 219.758 564.044 206.706 564.794C187.104 565.772 172.412 574.591 167.503 578.881H199.961V667.073H195.064V676.881H199.961V683.055H195.064V687.953H199.961V693.459H195.064V703.875H199.961V710.001H195.064V715.507H199.961V725.923H195.064V731.441H199.961V736.947H179.145V725.923H167.551C166.359 720.62 163.511 710.001 162.046 710.001C160.58 710.001 156.529 720.62 155.313 725.923H145.507C144.494 720.62 141.837 710.001 139.382 710.001C136.928 710.001 134.688 720.62 133.877 725.923H129.588V743.693H119.793C118.971 738.997 116.612 729.606 113.668 729.606C110.725 729.606 108.366 738.997 107.544 743.693H95.2468C94.6391 739.2 92.5539 730.094 89.1222 729.606C85.6905 729.117 82.795 738.782 81.7822 743.693H59.1187V803.103H305.903V464.959L305.772 466.031ZM84.2249 743.049C85.0471 739.164 86.9178 731.286 87.9068 730.798C88.8958 730.309 90.7546 738.759 91.5768 743.049H84.2249ZM135.665 725.959C136.487 722.074 138.358 714.196 139.335 713.707C140.312 713.219 142.194 721.668 143.017 725.959H135.665ZM243.441 661.007H220.17V580.109H243.441V661.007Z" fill="#8396F2"/>
<path d="M281.405 771.128V798.658H260.886V771.128C260.886 764.954 265.02 759.877 270.287 759.365C270.565 759.365 270.851 759.365 271.145 759.365C271.738 759.363 272.329 759.423 272.909 759.543C275.054 759.985 276.986 761.14 278.39 762.821C280.363 765.136 281.433 768.086 281.405 771.128Z" fill="#2D20E2"/>
<path d="M281.404 771.128V798.658H264.46V771.128C264.46 765.336 268.106 760.497 272.908 759.508C275.053 759.949 276.986 761.104 278.39 762.785C280.371 765.11 281.442 768.074 281.404 771.128Z" fill="#5136FF"/>
<path d="M319.535 771.128V798.658H299.016V771.128C299.016 764.954 303.151 759.877 308.417 759.365C308.695 759.365 308.981 759.365 309.275 759.365C309.868 759.363 310.459 759.423 311.039 759.543C313.184 759.985 315.116 761.14 316.52 762.821C318.493 765.136 319.563 768.086 319.535 771.128Z" fill="#5136FF"/>
<path d="M244.871 771.128V798.658H224.353V771.128C224.353 764.954 228.487 759.877 233.754 759.365C234.032 759.365 234.318 759.365 234.612 759.365C235.204 759.363 235.795 759.423 236.375 759.543C238.52 759.985 240.452 761.14 241.857 762.821C243.83 765.136 244.9 768.086 244.871 771.128Z" fill="#2D20E2"/>
<path d="M244.871 771.128V798.658H227.927V771.128C227.927 765.336 231.573 760.497 236.375 759.508C238.52 759.949 240.452 761.104 241.857 762.785C243.838 765.11 244.909 768.074 244.871 771.128Z" fill="#5136FF"/>
<path d="M208.326 771.128V798.658H187.807V771.128C187.807 764.954 191.942 759.877 197.209 759.365C197.487 759.365 197.773 759.365 198.067 759.365C198.659 759.363 199.25 759.423 199.83 759.543C201.975 759.985 203.907 761.14 205.311 762.821C207.284 765.136 208.355 768.086 208.326 771.128Z" fill="#2D20E2"/>
<path d="M208.326 771.128V798.658H191.382V771.128C191.382 765.336 195.028 760.497 199.83 759.508C201.975 759.949 203.907 761.104 205.312 762.785C207.293 765.11 208.364 768.074 208.326 771.128Z" fill="#5136FF"/>
<path d="M171.781 771.128V798.658H151.262V771.128C151.262 764.954 155.397 759.877 160.664 759.365C160.942 759.365 161.228 759.365 161.522 759.365C162.114 759.363 162.705 759.423 163.285 759.543C165.43 759.985 167.362 761.14 168.766 762.821C170.739 765.136 171.81 768.086 171.781 771.128Z" fill="#2D20E2"/>
<path d="M171.781 771.128V798.658H154.837V771.128C154.837 765.336 158.483 760.497 163.285 759.508C165.43 759.949 167.362 761.104 168.766 762.785C170.747 765.11 171.818 768.074 171.781 771.128Z" fill="#5136FF"/>
<path d="M135.248 771.128V798.658H114.729V771.128C114.729 764.954 118.864 759.877 124.13 759.365C124.408 759.365 124.694 759.365 124.988 759.365C125.581 759.363 126.172 759.423 126.752 759.543C128.897 759.985 130.829 761.14 132.233 762.821C134.206 765.136 135.276 768.086 135.248 771.128Z" fill="#2D20E2"/>
<path d="M135.247 771.128V798.658H118.303V771.128C118.303 765.336 121.95 760.497 126.752 759.508C128.897 759.949 130.829 761.104 132.233 762.785C134.214 765.11 135.285 768.074 135.247 771.128Z" fill="#5136FF"/>
<path d="M98.7022 771.128V798.658H78.1835V771.128C78.1835 764.954 82.3182 759.877 87.5849 759.365C87.863 759.365 88.1489 759.365 88.4428 759.365C89.0352 759.363 89.6262 759.423 90.2063 759.543C92.3512 759.985 94.2834 761.14 95.6875 762.821C97.6605 765.136 98.731 768.086 98.7022 771.128Z" fill="#2D20E2"/>
<path d="M98.7022 771.128V798.658H81.7581V771.128C81.7581 765.336 85.4043 760.497 90.2063 759.508C92.3512 759.949 94.2833 761.104 95.6875 762.785C97.6686 765.11 98.7397 768.074 98.7022 771.128Z" fill="#5136FF"/>
<path opacity="0.16" d="M530.036 743.645C529.011 738.735 526.116 729.057 522.684 729.558C519.252 730.059 517.179 739.152 516.559 743.645H504.31C503.5 738.949 501.188 729.534 498.186 729.534C495.183 729.534 492.883 738.925 492.061 743.621H482.266V725.875H477.977C477.166 720.572 474.914 709.953 472.472 709.953C470.029 709.953 467.372 720.572 466.347 725.875H456.54C455.349 720.572 451.286 709.953 449.808 709.953C448.331 709.953 445.53 720.572 444.303 725.875H432.661V736.899H411.821V731.393H416.718V725.875H411.821V715.471H416.718V709.953H411.821V703.827H416.718V693.411H411.821V687.905H416.718V683.055H411.821V676.929H416.718V667.121H411.821V578.929H444.279C439.382 574.638 424.678 565.819 405.077 564.842C392.024 564.092 378.939 564.092 365.886 564.842L308.941 490.117L305.903 464.959L305.772 466.031V803.055H552.7V743.645H530.036ZM391.636 660.959H368.365V580.109H391.636V660.959Z" fill="#5136FF"/>
<path d="M519.455 769.936V797.466H539.974V769.936C539.974 763.763 535.839 758.686 530.572 758.173C530.294 758.173 530.008 758.173 529.714 758.173C529.122 758.172 528.531 758.232 527.951 758.352C525.806 758.793 523.874 759.949 522.47 761.629C520.497 763.944 519.426 766.894 519.455 769.936Z" fill="#2D20E2"/>
<path d="M519.455 769.936V797.466H536.399V769.936C536.399 764.144 532.753 759.305 527.951 758.316C525.806 758.757 523.874 759.912 522.47 761.593C520.489 763.918 519.418 766.882 519.455 769.936Z" fill="#5136FF"/>
<path d="M482.922 769.936V797.466H503.44V769.936C503.44 763.763 499.306 758.686 494.039 758.173C493.761 758.173 493.475 758.173 493.181 758.173C492.589 758.172 491.998 758.232 491.418 758.352C489.273 758.793 487.341 759.949 485.936 761.629C483.963 763.944 482.893 766.894 482.922 769.936Z" fill="#2D20E2"/>
<path d="M482.922 769.936V797.466H499.866V769.936C499.866 764.144 496.22 759.305 491.418 758.316C489.273 758.757 487.341 759.912 485.937 761.593C483.955 763.918 482.884 766.882 482.922 769.936Z" fill="#5136FF"/>
<path d="M446.376 769.936V797.466H466.895V769.936C466.895 763.763 462.76 758.686 457.494 758.173C457.215 758.173 456.929 758.173 456.636 758.173C456.043 758.172 455.452 758.232 454.872 758.352C452.727 758.793 450.795 759.949 449.391 761.629C447.418 763.944 446.347 766.894 446.376 769.936Z" fill="#2D20E2"/>
<path d="M446.376 769.936V797.466H463.32V769.936C463.32 764.144 459.674 759.305 454.872 758.316C452.727 758.757 450.795 759.912 449.391 761.593C447.41 763.918 446.339 766.882 446.376 769.936Z" fill="#5136FF"/>
<path d="M409.831 769.936V797.466H430.35V769.936C430.35 763.763 426.215 758.686 420.948 758.173C420.67 758.173 420.384 758.173 420.09 758.173C419.498 758.172 418.907 758.232 418.327 758.352C416.182 758.793 414.25 759.949 412.846 761.629C410.873 763.944 409.802 766.894 409.831 769.936Z" fill="#2D20E2"/>
<path d="M409.831 769.936V797.466H426.775V769.936C426.775 764.144 423.129 759.305 418.327 758.316C416.182 758.757 414.25 759.912 412.846 761.593C410.865 763.918 409.794 766.882 409.831 769.936Z" fill="#5136FF"/>
<path d="M373.298 769.936V797.466H393.817V769.936C393.817 763.763 389.682 758.686 384.415 758.173C384.137 758.173 383.851 758.173 383.557 758.173C382.965 758.172 382.374 758.232 381.794 758.352C379.649 758.793 377.717 759.949 376.313 761.629C374.34 763.944 373.269 766.894 373.298 769.936Z" fill="#2D20E2"/>
<path d="M373.298 769.936V797.466H390.242V769.936C390.242 764.144 386.596 759.305 381.794 758.316C379.649 758.757 377.717 759.912 376.313 761.593C374.332 763.918 373.261 766.882 373.298 769.936Z" fill="#5136FF"/>
<path d="M336.753 769.936V797.466H357.271V769.936C357.271 763.763 353.137 758.686 347.87 758.173C347.592 758.173 347.306 758.173 347.012 758.173C346.42 758.172 345.829 758.232 345.249 758.352C343.104 758.793 341.172 759.949 339.767 761.629C337.795 763.944 336.724 766.894 336.753 769.936Z" fill="#2D20E2"/>
<path d="M336.753 769.936V797.466H353.697V769.936C353.697 764.144 350.051 759.305 345.249 758.316C343.104 758.757 341.172 759.912 339.768 761.593C337.787 763.918 336.715 766.882 336.753 769.936Z" fill="#5136FF"/>
<path d="M556 742.643H55.5438V747.411H556V742.643Z" fill="#5136FF"/>
<path opacity="0.45" d="M552.699 747.411H59.1187V749.795H552.699V747.411Z" fill="#3C39E2"/>
<path d="M417.779 725.959H194.957V730.726H417.779V725.959Z" fill="#5136FF"/>
<path d="M417.779 709.274H194.957V714.041H417.779V709.274Z" fill="#5136FF"/>
<path d="M417.779 693.781H194.957V698.548H417.779V693.781Z" fill="#5136FF"/>
<path d="M417.779 667.562H194.957V672.329H417.779V667.562Z" fill="#5136FF"/>
<path d="M290.68 810.288C288.409 814.815 307.524 818.965 317.365 820.474L317.933 809.156C320.771 795.009 320.771 791.613 317.365 792.179C313.958 792.745 311.119 799.536 309.984 795.575C308.848 791.613 317.365 781.427 314.526 774.07C311.687 766.714 306.01 778.598 303.738 776.9C301.467 775.202 305.442 755.962 302.035 754.83C298.629 753.698 298.061 769.543 296.925 763.884C295.79 758.225 286.705 746.341 279.324 750.868C271.943 755.396 292.383 766.714 290.68 768.977C288.976 771.241 277.621 764.45 277.621 771.241C277.621 778.032 296.357 780.295 300.332 783.125C304.306 785.954 287.841 788.784 283.867 790.482C279.892 792.179 281.028 798.404 292.383 798.97C303.738 799.536 306.01 802.365 307.145 805.195C308.281 808.025 293.519 804.629 290.68 810.288Z" fill="#FF403F"/>
<path d="M292.383 763.884C295.222 766.337 301.468 774.41 303.739 787.086C306.01 799.763 313.012 811.986 316.23 816.513" stroke="#000915"/>
<path d="M343.188 809.564C345.459 814.091 326.345 818.241 316.503 819.75L315.936 808.432C313.097 794.285 313.097 790.889 316.503 791.455C319.91 792.021 322.749 798.812 323.884 794.851C325.02 790.889 316.503 780.703 319.342 773.346C322.181 765.99 327.859 777.874 330.13 776.176C332.401 774.478 328.426 755.238 331.833 754.106C335.24 752.974 335.807 768.819 336.943 763.16C338.078 757.501 347.163 745.617 354.544 750.144C361.925 754.672 341.485 765.99 343.188 768.253C344.892 770.517 356.247 763.726 356.247 770.517C356.247 777.308 337.511 779.571 333.536 782.401C329.562 785.23 346.027 788.06 350.002 789.758C353.976 791.455 352.84 797.68 341.485 798.246C330.13 798.812 327.859 801.641 326.723 804.471C325.588 807.301 340.35 803.905 343.188 809.564Z" fill="#000915"/>
<path d="M341.486 763.161C338.647 765.613 332.402 773.686 330.131 786.363C327.859 799.039 320.857 811.262 317.64 815.789" stroke="white" stroke-opacity="0.32"/>
<path d="M304.326 797.794C299.55 797.794 304.955 806.784 308.102 810.339L317.54 820.374C322.155 818.492 331.888 814.227 333.901 812.22C336.419 809.711 333.272 809.084 330.126 808.457C327.609 807.955 329.077 805.739 330.126 804.694C340.698 801.683 344.18 795.913 344.599 793.404C344.599 792.777 344.599 791.522 342.082 789.641C339.565 787.759 329.496 802.185 330.126 792.777C330.755 783.368 345.228 772.706 344.599 768.315C343.97 763.925 340.823 769.57 335.16 772.706C330.629 775.215 330.755 770.824 331.384 768.315C334.321 764.97 339.817 757.402 338.306 753.89C336.419 749.499 335.16 753.89 330.126 758.28C325.092 762.671 328.238 753.262 329.496 751.381C330.755 749.499 342.082 725.038 321.945 729.428C301.808 733.819 313.764 760.162 314.394 763.925C315.023 767.688 309.989 758.907 302.438 761.416C294.886 763.925 316.282 777.724 316.282 781.487C316.282 785.25 308.102 779.605 304.326 778.978C300.55 778.351 308.102 787.759 309.989 793.404C311.499 797.92 310.618 799.049 309.989 799.049C308.101 800.303 308.102 797.794 304.326 797.794Z" fill="#001838"/>
<path d="M323.201 742.603C321.942 742.812 319.802 749.879 321.313 776.472C322.823 803.066 320.684 812.641 319.425 814.105" stroke="#000915" stroke-width="2" stroke-linejoin="round"/>
<path d="M283.553 787.666C285.747 785.692 283.898 780.763 282.442 778.457L278.671 779.328C280.148 780.972 278.231 785.05 279.461 785.204C280.41 785.323 280.172 784.59 280.459 783.409C281.183 783.819 281.877 785.611 282.219 787.022C282.373 787.656 283.068 788.102 283.553 787.666Z" fill="#EF937E"/>
<path d="M208.956 750.341C208.047 753.144 212.12 756.491 214.538 757.762L219.772 760.244L217.366 755.128C215.262 754.441 214.877 749.953 213.734 750.433C212.853 750.803 213.427 751.32 213.771 752.485C212.937 752.49 211.437 751.283 210.432 750.231C209.981 749.76 209.157 749.721 208.956 750.341Z" fill="#EF937E"/>
<path d="M236.525 752.162C240.844 739.003 245.692 733.963 246.397 732.574C247.13 742.78 244.991 762.971 240.007 766.199C235.022 769.427 222.136 763.268 216.316 759.785L217.909 753.756C230.334 758.054 235.497 754.485 236.525 752.162Z" fill="#000915"/>
<path d="M245.868 733.362L249.864 730.164L253.615 730.572L259.457 772.954L237.141 777.924C237.269 776.592 239.604 762.884 241.382 752.221C243.016 742.428 245.291 737.044 245.868 733.362Z" fill="white"/>
<path d="M243.94 718.824L244.73 716.36L246.049 714.157C246.746 713.8 249.426 713.428 254.567 714.789C259.709 716.151 256.506 725.388 254.262 729.836L254.067 731.455C250.662 732.996 245.128 734.617 245.937 733.265C246.693 732.003 246.819 731.393 246.931 730.452C245.916 730.575 244.949 730.527 244.209 730.315C242.955 729.954 243.616 728.452 244.103 727.746C243.749 727.535 243.633 727.078 243.845 726.724L243.48 726.396C243.321 726.253 243.268 726.027 243.346 725.828C243.484 725.477 243.347 725.079 243.023 724.887L242.416 724.526C242.132 724.357 242.068 723.973 242.283 723.721L243.71 722.043C243.989 721.714 244.078 721.265 243.945 720.856C243.73 720.196 243.728 719.485 243.94 718.824Z" fill="#EF937E"/>
<path d="M252.92 727.885L253.366 728.603C253.765 729.245 254.708 729.228 255.085 728.571L256.624 725.894C258.143 723.252 259.561 720.325 258.912 717.352C258.422 715.107 257.102 712.793 254.176 711.573C247.675 708.863 245.718 712.133 245.461 712.077C245.256 712.032 244.995 711.51 244.89 711.255C244.788 711.425 244.773 711.989 244.778 712.249C244.333 711.83 244.675 710.967 244.902 710.588C241.72 713.707 243.111 715.787 244.205 716.437C245.391 716.34 247.887 716.392 248.38 717.378C248.995 718.612 248.639 718.4 249.98 719.39C251.053 720.182 250.396 722.786 249.934 723.989L249.211 725.197L251.004 724.625C251.261 722.774 252.663 722.014 253.332 721.866C255.054 722.35 253.775 726.08 252.92 727.885Z" fill="#393939"/>
<path d="M247.431 810.594C250.936 821.576 255.372 834.068 260.806 847.199H271.117C268.473 839.47 262.709 814.155 260.806 774.735L237.541 773.418C234.809 783.431 229.557 812.206 230.403 847.199L239.127 847.463C240.997 837.825 244.046 823.632 247.431 810.594Z" fill="#393939"/>
<mask id="mask2" mask-type="alpha" maskUnits="userSpaceOnUse" x="230" y="773" width="42" height="75">
<path d="M247.431 810.594C250.936 821.576 255.372 834.068 260.806 847.199H271.117C268.473 839.47 262.709 814.155 260.806 774.735L237.541 773.418C234.809 783.431 229.557 812.206 230.403 847.199L239.127 847.463C240.997 837.825 244.046 823.632 247.431 810.594Z" fill="#79C7CE"/>
</mask>
<g mask="url(#mask2)">
<path d="M247.322 810.042L240.977 848.251H228.022L225.114 822.164L237.54 772.625L247.322 810.042Z" fill="#262626"/>
</g>
<path d="M244.042 776.155C239.335 764.715 246.021 742.737 249.89 732.127L254.065 730.992C272.316 740.42 281.403 766.04 283.86 778.591L277.569 779.992C276.209 780.295 264.665 759.77 264.665 759.77C264.665 759.77 261.664 756.804 269.06 779.457L244.042 776.155Z" fill="#000915"/>
<path d="M414.489 762.852C417.407 740.484 403.993 740.47 395.424 743.726C394.646 744.022 393.807 743.345 393.983 742.532C398.397 722.136 405.451 681.774 401.399 668.605C397.5 655.933 381.956 661.938 373.138 667.404C372.408 667.857 371.454 667.264 371.558 666.411C375.435 634.716 379.721 609.641 347.73 607.082C322.168 605.037 319.485 641.927 321.403 661.947C321.47 662.641 320.81 663.184 320.129 663.033C296.512 657.794 298.945 675.779 303.224 685.621C309.769 707.002 320.765 748.191 312.387 741.908C304.171 735.746 298.64 739.153 296.784 741.756C296.713 741.857 296.664 741.976 296.638 742.097C281.074 812.604 338.586 817.83 359.511 817.83C380.455 817.83 410.562 792.959 414.489 762.852Z" fill="#1157B6"/>
<path d="M347.729 635.88C349.618 686.897 349.474 805.613 347.728 863.645L359.509 866.263C355.582 751.071 346.42 600.537 347.729 635.88Z" fill="#3A6ECB"/>
<path d="M356.893 804.74C369.547 796.014 396.163 774.633 401.399 758.925" stroke="#3A6ECB" stroke-linecap="round"/>
<path d="M350.35 792.96C339.929 785.979 318.01 768.875 313.698 756.308" stroke="#3A6ECB" stroke-linecap="round"/>
<path d="M352.968 722.274C364.877 714.296 389.928 694.748 394.856 680.386" stroke="#3A6ECB" stroke-linecap="round"/>
<path d="M352.968 740.6C345.525 735.614 316.778 688.053 313.698 679.077" stroke="#3A6ECB" stroke-linecap="round"/>
<path d="M387.033 751.072C386.596 759.798 390.436 775.943 409.286 770.707" stroke="#3A6ECB" stroke-width="0.5" stroke-linecap="round"/>
<path d="M368.707 769.398C368.271 778.125 372.111 794.269 390.96 789.033" stroke="#3A6ECB" stroke-width="0.5" stroke-linecap="round"/>
<path d="M371.326 683.004C370.889 691.73 374.729 707.875 393.579 702.639" stroke="#3A6ECB" stroke-width="0.5" stroke-linecap="round"/>
<path d="M337.232 701.33C337.591 707.966 334.434 720.242 318.933 716.261" stroke="#3A6ECB" stroke-width="0.5" stroke-linecap="round"/>
<path d="M331.996 758.925C332.355 765.561 329.197 777.837 313.696 773.856" stroke="#3A6ECB" stroke-width="0.5" stroke-linecap="round"/>
<g opacity="0.05">
<path fill-rule="evenodd" clip-rule="evenodd" d="M406.509 -24.5262C411.212 -41.0858 426.446 -53.2148 444.513 -53.2148C463.696 -53.2148 479.686 -39.5409 483.267 -21.4082C486.538 -22.5314 490.048 -23.1411 493.7 -23.1411C511.435 -23.1411 525.812 -8.76403 525.812 8.97097C525.812 24.1639 515.261 36.8926 501.086 40.2294C499.491 40.7826 497.777 41.0831 495.992 41.0831H360.408C351.822 41.0831 344.862 34.1228 344.862 25.5368C344.862 16.9508 351.822 9.9905 360.408 9.9905H369.346C368.671 7.55687 368.31 4.99253 368.31 2.34394C368.31 -13.4205 381.09 -26.2001 396.855 -26.2001C400.243 -26.2001 403.493 -25.6097 406.509 -24.5262Z" fill="#000915"/>
<path fill-rule="evenodd" clip-rule="evenodd" d="M446.933 -7.20073C451.636 -23.7604 466.87 -35.8894 484.938 -35.8894C504.12 -35.8894 520.11 -22.2161 523.691 -4.08391C526.962 -5.2071 530.472 -5.81682 534.124 -5.81682C551.859 -5.81682 566.236 8.56023 566.236 26.2952C566.236 41.4882 555.685 54.2169 541.511 57.5536C539.915 58.1068 538.201 58.4074 536.417 58.4074H400.833C392.247 58.4074 385.286 51.4471 385.286 42.8611C385.286 34.2751 392.247 27.3148 400.833 27.3148H409.77C409.096 24.8815 408.735 22.3176 408.735 19.6694C408.735 3.90496 421.515 -8.87464 437.279 -8.87464C440.667 -8.87464 443.918 -8.28425 446.933 -7.20073Z" fill="#001838"/>
</g>
<g opacity="0.05">
<path fill-rule="evenodd" clip-rule="evenodd" d="M392.847 441.525C395.322 432.811 403.338 426.429 412.846 426.429C422.941 426.429 431.355 433.624 433.239 443.166C434.96 442.575 436.807 442.255 438.728 442.255C448.061 442.255 455.627 449.82 455.627 459.153C455.627 467.15 450.071 473.85 442.609 475.603C441.771 475.893 440.871 476.051 439.934 476.051H438.862C438.818 476.051 438.773 476.051 438.728 476.051C438.684 476.051 438.639 476.051 438.595 476.051H368.587C364.068 476.051 360.406 472.388 360.406 467.87C360.406 463.352 364.068 459.689 368.587 459.689H373.29C372.935 458.408 372.745 457.059 372.745 455.665C372.745 447.369 379.47 440.644 387.766 440.644C389.549 440.644 391.26 440.955 392.847 441.525Z" fill="#000915"/>
<path fill-rule="evenodd" clip-rule="evenodd" d="M414.119 450.642C416.594 441.928 424.61 435.546 434.118 435.546C444.212 435.546 452.626 442.741 454.511 452.282C456.232 451.691 458.079 451.37 460 451.37C469.333 451.37 476.898 458.936 476.898 468.268C476.898 476.262 471.348 482.959 463.892 484.716C463.051 485.009 462.147 485.167 461.206 485.167H389.858C385.34 485.167 381.677 481.505 381.677 476.986C381.677 472.468 385.34 468.806 389.858 468.806H394.562C394.207 467.525 394.017 466.175 394.017 464.782C394.017 456.486 400.742 449.761 409.037 449.761C410.821 449.761 412.532 450.072 414.119 450.642Z" fill="#001838"/>
</g>
<g opacity="0.1">
<path fill-rule="evenodd" clip-rule="evenodd" d="M12.4735 195.758C14.9819 186.927 23.1068 180.458 32.7425 180.458C42.9737 180.458 51.5016 187.751 53.4112 197.422C55.1557 196.823 57.0276 196.498 58.9754 196.498C68.434 196.498 76.1018 204.166 76.1018 213.624C76.1018 221.729 70.472 228.519 62.9096 230.297C62.06 230.59 61.1478 230.75 60.1983 230.75H59.1192C59.0713 230.75 59.0234 230.751 58.9754 230.751C58.9274 230.751 58.8795 230.75 58.8316 230.75H-12.1133C-16.6925 230.75 -20.4046 227.038 -20.4046 222.459C-20.4046 217.879 -16.6925 214.167 -12.1133 214.167H-7.34662C-7.70664 212.869 -7.89905 211.502 -7.89905 210.089C-7.89905 201.681 -1.08326 194.866 7.32444 194.866C9.13165 194.866 10.8653 195.18 12.4735 195.758Z" fill="#000915"/>
<path fill-rule="evenodd" clip-rule="evenodd" d="M34.0319 204.998C36.5402 196.166 44.6651 189.698 54.3008 189.698C64.5317 189.698 73.0592 196.99 74.9693 206.661C76.7139 206.062 78.5859 205.736 80.5337 205.736C89.9924 205.736 97.6602 213.404 97.6602 222.863C97.6602 230.964 92.0357 237.751 84.4788 239.533C83.6262 239.829 82.7102 239.99 81.7567 239.99H9.44508C4.86589 239.99 1.15372 236.278 1.15372 231.698C1.15372 227.119 4.86589 223.407 9.44508 223.407H14.2117C13.8517 222.109 13.6593 220.741 13.6593 219.329C13.6593 210.921 20.4751 204.105 28.8828 204.105C30.69 204.105 32.4237 204.42 34.0319 204.998Z" fill="#001838"/>
</g>
</g>
<defs>
<linearGradient id="paint0_linear" x1="1313.7" y1="734.364" x2="1328.22" y2="738.338" gradientUnits="userSpaceOnUse">
<stop stop-color="#7873D7"/>
<stop offset="1" stop-color="#D7E8F7" stop-opacity="0"/>
</linearGradient>
</defs>
</svg>
