<svg width="741" height="820" viewBox="0 0 741 820" fill="none" xmlns="http://www.w3.org/2000/svg">
<mask id="mask0" mask-type="alpha" maskUnits="userSpaceOnUse" x="0" y="0" width="741" height="820">
<rect width="741" height="820" fill="#C4C4C4"/>
</mask>
<g mask="url(#mask0)">
<rect opacity="0.5" width="1141.77" height="483.171" transform="matrix(0.708817 0.705393 -0.708817 0.705392 -68.5195 -573)" fill="url(#paint0_linear)"/>
<g filter="url(#filter0_d)">
<circle cx="281.585" cy="423.77" r="36.7687" transform="rotate(-39.1382 281.585 423.77)" fill="white"/>
</g>
<path d="M295.869 416.209L284.739 402.532L260.15 422.542L271.281 436.219L295.869 416.209ZM282.512 399.797C283.237 399.207 284.166 398.93 285.096 399.026C286.026 399.122 286.88 399.583 287.471 400.309L300.827 416.722C301.417 417.447 301.696 418.377 301.601 419.307C301.506 420.237 301.046 421.091 300.321 421.68L290.759 429.462L296.83 431.342L297.943 432.71L287.015 441.603L285.902 440.235L285.295 433.908L275.733 441.69C275.009 442.279 274.079 442.557 273.149 442.461C272.219 442.365 271.365 441.903 270.775 441.178L257.418 424.765C256.183 423.247 256.408 421.04 257.924 419.806L282.512 399.797ZM262.63 422.798L277.656 410.57L283.221 417.408L268.195 429.636L262.63 422.798ZM279.022 409.458L284.486 405.011L286.712 407.747L281.248 412.193L279.022 409.458ZM287.825 409.115L293.39 415.953L287.926 420.4L282.361 413.561L287.825 409.115ZM269.308 431.004L276.138 425.446L278.364 428.181L271.534 433.74L269.308 431.004ZM277.504 424.334L284.334 418.776L286.56 421.512L279.73 427.07L277.504 424.334Z" fill="#1978DC"/>
<g filter="url(#filter1_d)">
<circle cx="480.585" cy="332.769" r="36.7687" fill="white"/>
</g>
<path d="M487.229 316.91L498.872 318.476L489.284 328.063L487.229 316.91Z" fill="#9C27B0"/>
<path d="M473.532 348.218L461.89 346.652L471.477 337.064L473.532 348.218Z" fill="#9C27B0"/>
<path d="M464.727 325.715L466.292 314.072L475.88 323.66L464.727 325.715Z" fill="#9C27B0"/>
<path d="M465.999 329.824L461.89 330.607C461.792 331.292 461.792 331.879 461.792 332.564C461.792 337.064 463.357 341.369 466.292 344.695L469.227 342.151C466.977 339.51 465.705 336.086 465.705 332.564C465.705 331.683 465.803 330.705 465.999 329.824Z" fill="#9C27B0"/>
<path d="M480.38 313.975C475.097 313.975 470.401 316.225 466.977 319.747L469.716 322.486C472.455 319.649 476.173 317.888 480.38 317.888C481.26 317.888 482.239 317.986 483.119 318.182L483.804 314.366C482.728 314.072 481.554 313.975 480.38 313.975Z" fill="#9C27B0"/>
<path d="M494.761 335.304L498.87 334.521C498.968 333.836 498.968 333.249 498.968 332.565C498.968 328.26 497.501 324.053 494.761 320.727L491.729 323.172C493.881 325.814 495.055 329.14 495.055 332.467C495.055 333.445 494.957 334.423 494.761 335.304V335.304Z" fill="#9C27B0"/>
<path d="M491.045 342.641C488.306 345.478 484.588 347.239 480.381 347.239C479.501 347.239 478.522 347.141 477.642 346.945L476.957 350.761C478.131 350.957 479.305 351.054 480.381 351.054C485.664 351.054 490.36 348.804 493.785 345.282L491.045 342.641V342.641Z" fill="#9C27B0"/>
<path d="M496.034 339.41L494.469 351.053L484.881 341.465L496.034 339.41Z" fill="#9C27B0"/>
<g filter="url(#filter2_d)">
<circle cx="281.585" cy="686.769" r="36.7687" transform="rotate(26.3539 281.585 686.769)" fill="white"/>
</g>
<path d="M274.435 662.255L305.42 677.605C305.778 677.782 306.05 678.094 306.177 678.472C306.305 678.85 306.277 679.263 306.1 679.62L290.75 710.605C290.573 710.962 290.261 711.235 289.883 711.362C289.506 711.49 289.093 711.462 288.735 711.285L257.75 695.935C257.393 695.758 257.121 695.446 256.993 695.068C256.866 694.69 256.893 694.278 257.07 693.92L272.42 662.935C272.597 662.578 272.909 662.305 273.287 662.178C273.665 662.05 274.078 662.078 274.435 662.255V662.255Z" fill="#EBEDEE"/>
<path d="M273.484 669.99L299.842 683.048L288.235 706.477L261.878 693.419L273.484 669.99Z" fill="white"/>
<path d="M276.393 665.96C276.587 666.057 276.716 666.265 276.752 666.539C276.787 666.813 276.726 667.13 276.581 667.421C276.437 667.713 276.222 667.954 275.982 668.092C275.743 668.23 275.499 668.253 275.305 668.157C275.111 668.061 274.982 667.853 274.947 667.579C274.912 667.305 274.973 666.987 275.117 666.696C275.261 666.405 275.477 666.163 275.716 666.026C275.956 665.888 276.199 665.864 276.393 665.96V665.96Z" fill="#E74C3C"/>
<path d="M279.688 667.593C279.979 667.737 280.201 667.991 280.305 668.299C280.409 668.607 280.387 668.944 280.242 669.235C280.098 669.526 279.844 669.749 279.536 669.852C279.228 669.956 278.891 669.934 278.6 669.789C278.309 669.645 278.087 669.391 277.983 669.083C277.879 668.775 277.901 668.438 278.046 668.147C278.19 667.856 278.444 667.634 278.752 667.53C279.06 667.426 279.397 667.449 279.688 667.593Z" fill="#F39C12"/>
<path d="M283.348 669.405C283.64 669.55 283.862 669.804 283.965 670.112C284.069 670.42 284.047 670.756 283.902 671.048C283.758 671.339 283.504 671.561 283.196 671.665C282.888 671.769 282.551 671.746 282.26 671.602C281.969 671.458 281.747 671.203 281.643 670.896C281.539 670.588 281.562 670.251 281.706 669.96C281.85 669.668 282.104 669.446 282.412 669.342C282.72 669.238 283.057 669.261 283.348 669.405Z" fill="#17A085"/>
<path d="M287.375 671.4L302.018 678.655L300.93 680.851L286.287 673.597L287.375 671.4Z" fill="white"/>
<path d="M272.061 680.227L271.231 681.9L280.017 686.253L280.847 684.579L272.061 680.227ZM269.573 685.247L278.359 689.6L279.188 687.926L270.402 683.574L269.573 685.247ZM267.915 688.594L276.701 692.947L277.53 691.273L268.744 686.921L267.915 688.594ZM266.257 691.941L275.043 696.294L275.872 694.62L267.086 690.268L266.257 691.941Z" fill="#BDC3C7"/>
<path d="M274.6 675.102L295.1 685.258L293.649 688.186L273.149 678.03L274.6 675.102Z" fill="#1ABC9C"/>
<path d="M282.311 685.305L279.823 690.325L290.074 695.403L292.561 690.383L282.311 685.305ZM276.507 697.019L286.757 702.097L289.245 697.077L278.994 691.999L276.507 697.019Z" fill="#BDC3C7"/>
<circle cx="274.316" cy="552.5" r="12.5" fill="#27AE60"/>
<circle cx="179.316" cy="285.5" r="41.5" fill="#2F80ED"/>
<circle cx="385.816" cy="656" r="12" fill="#2F80ED"/>
<circle cx="208.816" cy="808" r="12" fill="#F2994A"/>
<circle cx="477.816" cy="511" r="12" fill="#BDBDBD"/>
</g>
<defs>
<filter id="filter0_d" x="209.858" y="356.043" width="143.454" height="143.454" filterUnits="userSpaceOnUse" color-interpolation-filters="sRGB">
<feFlood flood-opacity="0" result="BackgroundImageFix"/>
<feColorMatrix in="SourceAlpha" type="matrix" values="0 0 0 0 0 0 0 0 0 0 0 0 0 0 0 0 0 0 127 0"/>
<feOffset dy="4"/>
<feGaussianBlur stdDeviation="10"/>
<feColorMatrix type="matrix" values="0 0 0 0 0 0 0 0 0 0 0 0 0 0 0 0 0 0 0.1 0"/>
<feBlend mode="normal" in2="BackgroundImageFix" result="effect1_dropShadow"/>
<feBlend mode="normal" in="SourceGraphic" in2="effect1_dropShadow" result="shape"/>
</filter>
<filter id="filter1_d" x="423.816" y="280" width="113.537" height="113.537" filterUnits="userSpaceOnUse" color-interpolation-filters="sRGB">
<feFlood flood-opacity="0" result="BackgroundImageFix"/>
<feColorMatrix in="SourceAlpha" type="matrix" values="0 0 0 0 0 0 0 0 0 0 0 0 0 0 0 0 0 0 127 0"/>
<feOffset dy="4"/>
<feGaussianBlur stdDeviation="10"/>
<feColorMatrix type="matrix" values="0 0 0 0 0 0 0 0 0 0 0 0 0 0 0 0 0 0 0.1 0"/>
<feBlend mode="normal" in2="BackgroundImageFix" result="effect1_dropShadow"/>
<feBlend mode="normal" in="SourceGraphic" in2="effect1_dropShadow" result="shape"/>
</filter>
<filter id="filter2_d" x="212.315" y="621.5" width="138.539" height="138.539" filterUnits="userSpaceOnUse" color-interpolation-filters="sRGB">
<feFlood flood-opacity="0" result="BackgroundImageFix"/>
<feColorMatrix in="SourceAlpha" type="matrix" values="0 0 0 0 0 0 0 0 0 0 0 0 0 0 0 0 0 0 127 0"/>
<feOffset dy="4"/>
<feGaussianBlur stdDeviation="10"/>
<feColorMatrix type="matrix" values="0 0 0 0 0 0 0 0 0 0 0 0 0 0 0 0 0 0 0.1 0"/>
<feBlend mode="normal" in2="BackgroundImageFix" result="effect1_dropShadow"/>
<feBlend mode="normal" in="SourceGraphic" in2="effect1_dropShadow" result="shape"/>
</filter>
<linearGradient id="paint0_linear" x1="1138.81" y1="449.98" x2="618.531" y2="236.624" gradientUnits="userSpaceOnUse">
<stop stop-color="#E8F3F5"/>
<stop offset="1" stop-color="#F4F5F7" stop-opacity="0"/>
</linearGradient>
</defs>
</svg>
