<svg width="1440" height="924" viewBox="0 0 1440 924" fill="none" xmlns="http://www.w3.org/2000/svg">
<g clip-path="url(#clip0)">
<mask id="mask0" mask-type="alpha" maskUnits="userSpaceOnUse" x="-6" y="0" width="1446" height="924">
<path d="M1440 0H-6V924H1440V0Z" fill="#C4C4C4"/>
</mask>
<g mask="url(#mask0)">
<path opacity="0.5" d="M578.97 88.3966L-230.336 -717L-572.816 -376.175L236.49 429.222L578.97 88.3966Z" fill="url(#paint0_linear)"/>
<path opacity="0.5" d="M1041.99 685.42L2033.18 1254.92L2275.35 837.496L1284.16 267.995L1041.99 685.42Z" fill="url(#paint1_linear)"/>
<g filter="url(#filter0_d)">
<path d="M1403.61 317.152C1413.77 299.566 1407.74 277.079 1390.15 266.925C1372.57 256.772 1350.08 262.798 1339.93 280.384C1329.77 297.97 1335.8 320.457 1353.39 330.611C1370.97 340.764 1393.46 334.739 1403.61 317.152Z" fill="white"/>
</g>
<path d="M1388.25 307.811C1389.22 306.124 1388.66 303.982 1387 303.02L1383.47 309.122C1385.14 310.084 1387.27 309.497 1388.25 307.811ZM1385.36 291.834L1376.28 286.59C1371.2 283.661 1364.88 284.832 1361.07 289.052L1357.02 286.718L1354.37 291.318L1358.41 293.651C1356.66 299.06 1358.81 305.126 1363.88 308.054L1372.97 313.298L1374.22 318.113L1375.74 318.987L1391.67 291.39L1390.16 290.516L1385.36 291.834ZM1376.66 292.946L1374.01 297.546L1378.55 300.168L1376.78 303.234L1372.24 300.612L1369.58 305.211L1366.54 303.454L1369.19 298.855L1364.65 296.233L1366.42 293.166L1370.96 295.789L1373.62 291.189L1376.66 292.946Z" fill="#27AE60"/>
<g filter="url(#filter1_d)">
<path d="M1211.25 293.963C1230.14 301.428 1251.5 292.17 1258.96 273.285C1266.43 254.4 1257.17 233.04 1238.29 225.575C1219.4 218.11 1198.04 227.368 1190.58 246.253C1183.11 265.138 1192.37 286.498 1211.25 293.963Z" fill="white"/>
</g>
<path d="M1202.77 259.859L1214.17 264.365L1209.66 275.763L1198.26 271.257L1202.77 259.859Z" fill="#00BCD4"/>
<path d="M1239.24 259.819L1235.66 250.95C1235.41 250.317 1235.68 249.626 1236.3 249.339L1244.97 245.312C1245.59 245.025 1246.25 245.284 1246.5 245.918L1250.08 254.786C1250.34 255.419 1250.06 256.11 1249.44 256.398L1240.77 260.424C1240.15 260.712 1239.49 260.452 1239.24 259.819Z" fill="#00BCD4"/>
<path d="M1213.57 249.194C1217.14 250.604 1221.24 248.685 1222.73 244.908C1224.23 241.131 1222.55 236.926 1218.98 235.516C1215.41 234.106 1211.31 236.025 1209.82 239.802C1208.32 243.579 1210 247.784 1213.57 249.194Z" fill="#3F51B5"/>
<path d="M1230.26 284.781C1233.82 286.192 1237.86 284.443 1239.27 280.876C1240.68 277.308 1238.93 273.274 1235.36 271.864C1231.8 270.454 1227.76 272.202 1226.35 275.769C1224.94 279.337 1226.69 283.371 1230.26 284.781Z" fill="#448AFF"/>
<path d="M1210.23 254.119L1212.54 255.066L1210.46 260.521L1208.15 259.574L1210.23 254.119Z" fill="#90A4AE"/>
<path d="M1212.68 251.316L1207.68 254.195L1214.44 256.972L1212.68 251.316Z" fill="#90A4AE"/>
<path d="M1225.45 244.783L1231.05 247.07L1230.25 249.179L1224.65 246.892L1225.45 244.783Z" fill="#90A4AE"/>
<path d="M1234.01 249.451L1230.66 244.32L1228.2 250.821L1234.01 249.451Z" fill="#90A4AE"/>
<path d="M1238.07 261.289L1240.38 262.236L1238.31 267.69L1235.99 266.744L1238.07 261.289Z" fill="#90A4AE"/>
<path d="M1235.85 270.494L1240.85 267.615L1234.09 264.838L1235.85 270.494Z" fill="#90A4AE"/>
<g filter="url(#filter2_d)">
<path d="M142.977 308.289C158.728 295.471 161.105 272.312 148.288 256.562C135.47 240.811 112.311 238.434 96.5607 251.251C80.8103 264.069 78.4326 287.228 91.2501 302.978C104.068 318.728 127.227 321.106 142.977 308.289Z" fill="white"/>
</g>
<path d="M134.053 272.209L122.922 258.532L98.3338 278.542L109.465 292.219L134.053 272.209ZM120.696 255.797C121.421 255.207 122.35 254.93 123.28 255.026C124.21 255.122 125.064 255.583 125.654 256.309L139.011 272.722C139.601 273.447 139.879 274.377 139.785 275.307C139.69 276.237 139.229 277.091 138.505 277.68L128.943 285.462L135.014 287.342L136.127 288.71L125.199 297.603L124.086 296.235L123.479 289.908L113.917 297.69C113.192 298.279 112.263 298.557 111.333 298.461C110.403 298.365 109.549 297.903 108.959 297.178L95.6018 280.765C94.3663 279.247 94.5914 277.04 96.1077 275.806L120.696 255.797ZM100.813 278.798L115.839 266.57L121.404 273.408L106.378 285.636L100.813 278.798ZM117.205 265.458L122.669 261.011L124.895 263.747L119.431 268.193L117.205 265.458ZM126.008 265.115L131.574 271.953L126.11 276.4L120.544 269.561L126.008 265.115ZM107.491 287.004L114.321 281.446L116.547 284.181L109.717 289.74L107.491 287.004ZM115.687 280.334L122.517 274.776L124.743 277.512L117.913 283.07L115.687 280.334Z" fill="#1978DC"/>
<g filter="url(#filter3_d)">
<path d="M1185.39 558.611C1202.97 568.764 1225.46 562.739 1235.61 545.152C1245.77 527.566 1239.74 505.079 1222.15 494.925C1204.57 484.772 1182.08 490.797 1171.93 508.384C1161.77 525.97 1167.8 548.457 1185.39 558.611Z" fill="white"/>
</g>
<path d="M1210.75 529.604L1211.74 533.288L1207.15 534.518C1206.81 534.61 1206.69 534.825 1206.78 535.165L1207.04 536.129C1207.13 536.469 1207.34 536.593 1207.68 536.502L1212.27 535.272L1214.17 542.357L1209.58 543.587C1209.24 543.678 1209.12 543.882 1209.23 544.198L1209.47 545.198C1209.56 545.538 1209.77 545.662 1210.11 545.571L1214.7 544.341L1215.66 547.912C1215.75 548.252 1215.71 548.577 1215.53 548.889C1215.35 549.2 1215.08 549.414 1214.73 549.529L1205.66 551.959C1205.29 552.036 1204.96 551.985 1204.64 551.805C1204.33 551.625 1204.13 551.365 1204.04 551.025L1199.14 532.717L1188.48 535.573C1187.88 535.735 1187.3 535.657 1186.75 535.339C1186.2 535.02 1185.84 534.559 1185.68 533.954L1184.54 529.611C1184.38 529.006 1184.46 528.435 1184.77 527.896C1185.08 527.357 1185.54 527.006 1186.14 526.844L1196.8 523.989L1191.88 505.625C1191.78 505.284 1191.83 504.959 1192.01 504.647C1192.19 504.336 1192.45 504.135 1192.79 504.043L1201.88 501.578C1202.24 501.5 1202.58 501.552 1202.89 501.731C1203.2 501.911 1203.4 502.171 1203.5 502.511L1204.45 506.082L1199.86 507.312C1199.52 507.403 1199.4 507.619 1199.49 507.959L1199.75 508.923C1199.84 509.263 1200.05 509.387 1200.39 509.296L1204.98 508.066L1206.88 515.151L1202.29 516.381C1201.95 516.472 1201.83 516.688 1201.92 517.028L1202.18 517.991C1202.27 518.331 1202.48 518.456 1202.82 518.365L1207.41 517.135L1208.38 520.855L1226.35 516.04C1226.95 515.878 1227.52 515.953 1228.06 516.264C1228.6 516.575 1228.95 517.033 1229.11 517.638L1230.28 522.002C1230.45 522.607 1230.37 523.178 1230.06 523.717C1229.75 524.256 1229.29 524.607 1228.69 524.769L1210.75 529.604ZM1181.6 528.152C1181.54 528.371 1181.53 528.575 1181.58 528.764L1183.56 536.132C1183.61 536.321 1183.71 536.495 1183.88 536.654C1183.62 536.824 1183.44 536.912 1183.34 536.919L1175.9 535.208C1175.32 534.876 1175.02 534.634 1174.97 534.483C1174.93 534.332 1175.08 533.969 1175.41 533.394L1181 528.19C1181.08 528.17 1181.28 528.157 1181.6 528.152Z" fill="#EB5757"/>
<g filter="url(#filter4_d)">
<path d="M308.769 148.537C329.076 148.537 345.537 132.075 345.537 111.769C345.537 91.4619 329.076 75 308.769 75C288.462 75 272 91.4619 272 111.769C272 132.075 288.462 148.537 308.769 148.537Z" fill="white"/>
</g>
<path d="M315.413 95.9099L327.055 97.4759L317.468 107.063L315.413 95.9099Z" fill="#9C27B0"/>
<path d="M301.716 127.218L290.073 125.652L299.661 116.064L301.716 127.218Z" fill="#9C27B0"/>
<path d="M292.91 104.715L294.476 93.0718L304.063 102.66L292.91 104.715Z" fill="#9C27B0"/>
<path d="M294.182 108.824L290.073 109.607C289.976 110.292 289.976 110.879 289.976 111.564C289.976 116.064 291.541 120.369 294.476 123.695L297.411 121.151C295.161 118.51 293.889 115.086 293.889 111.564C293.889 110.683 293.987 109.705 294.182 108.824Z" fill="#9C27B0"/>
<path d="M308.564 92.9749C303.28 92.9749 298.584 95.2248 295.16 98.7468L297.9 101.486C300.639 98.6488 304.357 96.8878 308.564 96.8878C309.444 96.8878 310.422 96.9859 311.303 97.1819L311.988 93.3658C310.912 93.0718 309.738 92.9749 308.564 92.9749Z" fill="#9C27B0"/>
<path d="M322.945 114.304L327.054 113.521C327.152 112.836 327.152 112.249 327.152 111.565C327.152 107.26 325.684 103.053 322.945 99.7268L319.912 102.172C322.064 104.814 323.238 108.14 323.238 111.467C323.238 112.445 323.141 113.423 322.945 114.304Z" fill="#9C27B0"/>
<path d="M319.229 121.641C316.489 124.478 312.772 126.239 308.565 126.239C307.684 126.239 306.706 126.141 305.825 125.945L305.141 129.761C306.315 129.957 307.489 130.054 308.565 130.054C313.848 130.054 318.544 127.804 321.968 124.282L319.229 121.641Z" fill="#9C27B0"/>
<path d="M324.218 118.41L322.652 130.053L313.064 120.465L324.218 118.41Z" fill="#9C27B0"/>
<g filter="url(#filter5_d)">
<path d="M103.447 575.716C121.643 584.731 143.702 577.287 152.717 559.091C161.731 540.895 154.288 518.836 136.091 509.822C117.895 500.807 95.8364 508.25 86.8219 526.447C77.8074 544.643 85.2507 566.702 103.447 575.716Z" fill="white"/>
</g>
<path d="M112.619 518.255L143.604 533.605C143.961 533.782 144.233 534.094 144.361 534.472C144.488 534.85 144.461 535.263 144.284 535.62L128.934 566.605C128.757 566.962 128.445 567.235 128.067 567.362C127.689 567.49 127.276 567.462 126.919 567.285L95.9337 551.935C95.5764 551.758 95.3041 551.446 95.1766 551.068C95.0491 550.69 95.0769 550.278 95.2539 549.92L110.604 518.935C110.781 518.578 111.093 518.305 111.471 518.178C111.848 518.05 112.261 518.078 112.619 518.255Z" fill="#EBEDEE"/>
<path d="M111.668 525.99L138.026 539.048L126.419 562.477L100.061 549.419L111.668 525.99Z" fill="white"/>
<path d="M114.577 521.96C114.771 522.057 114.9 522.265 114.935 522.539C114.971 522.813 114.909 523.13 114.765 523.421C114.621 523.713 114.405 523.954 114.166 524.092C113.926 524.23 113.683 524.253 113.489 524.157C113.295 524.061 113.166 523.853 113.13 523.579C113.095 523.305 113.156 522.987 113.301 522.696C113.445 522.405 113.66 522.163 113.9 522.026C114.139 521.888 114.383 521.864 114.577 521.96Z" fill="#E74C3C"/>
<path d="M117.872 523.593C118.163 523.737 118.385 523.991 118.489 524.299C118.593 524.607 118.57 524.944 118.426 525.235C118.282 525.526 118.027 525.749 117.719 525.852C117.411 525.956 117.075 525.934 116.784 525.789C116.492 525.645 116.27 525.391 116.166 525.083C116.062 524.775 116.085 524.438 116.229 524.147C116.374 523.856 116.628 523.634 116.936 523.53C117.244 523.426 117.58 523.449 117.872 523.593Z" fill="#F39C12"/>
<path d="M121.532 525.405C121.823 525.55 122.045 525.804 122.149 526.112C122.253 526.42 122.23 526.756 122.086 527.048C121.942 527.339 121.688 527.561 121.38 527.665C121.072 527.769 120.735 527.746 120.444 527.602C120.152 527.458 119.93 527.203 119.826 526.896C119.723 526.588 119.745 526.251 119.89 525.96C120.034 525.668 120.288 525.446 120.596 525.342C120.904 525.238 121.241 525.261 121.532 525.405Z" fill="#17A085"/>
<path d="M125.559 527.4L140.202 534.655L139.114 536.851L124.47 529.597L125.559 527.4Z" fill="white"/>
<path d="M110.244 536.227L109.415 537.9L118.201 542.253L119.03 540.579L110.244 536.227ZM107.757 541.247L116.543 545.6L117.372 543.926L108.586 539.574L107.757 541.247ZM106.099 544.594L114.885 548.947L115.714 547.273L106.928 542.921L106.099 544.594ZM104.441 547.941L113.227 552.294L114.056 550.62L105.27 546.268L104.441 547.941Z" fill="#BDC3C7"/>
<path d="M112.783 531.102L133.284 541.258L131.833 544.186L111.332 534.03L112.783 531.102Z" fill="#1ABC9C"/>
<path d="M120.494 541.305L118.007 546.325L128.257 551.403L130.744 546.383L120.494 541.305ZM114.691 553.019L124.941 558.097L127.428 553.077L117.178 547.999L114.691 553.019Z" fill="#BDC3C7"/>
<path d="M1446.5 141C1453.4 141 1459 135.404 1459 128.5C1459 121.596 1453.4 116 1446.5 116C1439.6 116 1434 121.596 1434 128.5C1434 135.404 1439.6 141 1446.5 141Z" fill="#EB5757"/>
<path d="M1335.5 613C1342.4 613 1348 607.404 1348 600.5C1348 593.596 1342.4 588 1335.5 588C1328.6 588 1323 593.596 1323 600.5C1323 607.404 1328.6 613 1335.5 613Z" fill="#F2C94C"/>
<path d="M112.5 421C119.404 421 125 415.404 125 408.5C125 401.596 119.404 396 112.5 396C105.596 396 100 401.596 100 408.5C100 415.404 105.596 421 112.5 421Z" fill="#27AE60"/>
<path d="M17.5 183C40.4198 183 59 164.42 59 141.5C59 118.58 40.4198 100 17.5 100C-5.41982 100 -24 118.58 -24 141.5C-24 164.42 -5.41982 183 17.5 183Z" fill="#2F80ED"/>
<path d="M224 524C230.627 524 236 518.627 236 512C236 505.373 230.627 500 224 500C217.373 500 212 505.373 212 512C212 518.627 217.373 524 224 524Z" fill="#2F80ED"/>
<path d="M47 676C53.6274 676 59 670.627 59 664C59 657.373 53.6274 652 47 652C40.3726 652 35 657.373 35 664C35 670.627 40.3726 676 47 676Z" fill="#F2994A"/>
<path d="M316 379C322.627 379 328 373.627 328 367C328 360.373 322.627 355 316 355C309.373 355 304 360.373 304 367C304 373.627 309.373 379 316 379Z" fill="#BDBDBD"/>
<path d="M1372 462C1378.63 462 1384 456.627 1384 450C1384 443.373 1378.63 438 1372 438C1365.37 438 1360 443.373 1360 450C1360 456.627 1365.37 462 1372 462Z" fill="#BDBDBD"/>
<path d="M1261.5 152C1264.54 152 1267 149.538 1267 146.5C1267 143.462 1264.54 141 1261.5 141C1258.46 141 1256 143.462 1256 146.5C1256 149.538 1258.46 152 1261.5 152Z" fill="#BDBDBD"/>
<path d="M1164 367C1167.31 367 1170 364.314 1170 361C1170 357.686 1167.31 355 1164 355C1160.69 355 1158 357.686 1158 361C1158 364.314 1160.69 367 1164 367Z" fill="#EB5757"/>
</g>
</g>
<defs>
<filter id="filter0_d" x="1301.54" y="232.541" width="140.454" height="140.454" filterUnits="userSpaceOnUse" color-interpolation-filters="sRGB">
<feFlood flood-opacity="0" result="BackgroundImageFix"/>
<feColorMatrix in="SourceAlpha" type="matrix" values="0 0 0 0 0 0 0 0 0 0 0 0 0 0 0 0 0 0 127 0"/>
<feOffset dy="4"/>
<feGaussianBlur stdDeviation="10"/>
<feColorMatrix type="matrix" values="0 0 0 0 0 0 0 0 0 0 0 0 0 0 0 0 0 0 0.1 0"/>
<feBlend mode="normal" in2="BackgroundImageFix" result="effect1_dropShadow"/>
<feBlend mode="normal" in="SourceGraphic" in2="effect1_dropShadow" result="shape"/>
</filter>
<filter id="filter1_d" x="1157.06" y="196.058" width="135.421" height="135.421" filterUnits="userSpaceOnUse" color-interpolation-filters="sRGB">
<feFlood flood-opacity="0" result="BackgroundImageFix"/>
<feColorMatrix in="SourceAlpha" type="matrix" values="0 0 0 0 0 0 0 0 0 0 0 0 0 0 0 0 0 0 127 0"/>
<feOffset dy="4"/>
<feGaussianBlur stdDeviation="10"/>
<feColorMatrix type="matrix" values="0 0 0 0 0 0 0 0 0 0 0 0 0 0 0 0 0 0 0.1 0"/>
<feBlend mode="normal" in2="BackgroundImageFix" result="effect1_dropShadow"/>
<feBlend mode="normal" in="SourceGraphic" in2="effect1_dropShadow" result="shape"/>
</filter>
<filter id="filter2_d" x="48.042" y="212.043" width="143.454" height="143.454" filterUnits="userSpaceOnUse" color-interpolation-filters="sRGB">
<feFlood flood-opacity="0" result="BackgroundImageFix"/>
<feColorMatrix in="SourceAlpha" type="matrix" values="0 0 0 0 0 0 0 0 0 0 0 0 0 0 0 0 0 0 127 0"/>
<feOffset dy="4"/>
<feGaussianBlur stdDeviation="10"/>
<feColorMatrix type="matrix" values="0 0 0 0 0 0 0 0 0 0 0 0 0 0 0 0 0 0 0.1 0"/>
<feBlend mode="normal" in2="BackgroundImageFix" result="effect1_dropShadow"/>
<feBlend mode="normal" in="SourceGraphic" in2="effect1_dropShadow" result="shape"/>
</filter>
<filter id="filter3_d" x="1133.54" y="460.541" width="140.454" height="140.454" filterUnits="userSpaceOnUse" color-interpolation-filters="sRGB">
<feFlood flood-opacity="0" result="BackgroundImageFix"/>
<feColorMatrix in="SourceAlpha" type="matrix" values="0 0 0 0 0 0 0 0 0 0 0 0 0 0 0 0 0 0 127 0"/>
<feOffset dy="4"/>
<feGaussianBlur stdDeviation="10"/>
<feColorMatrix type="matrix" values="0 0 0 0 0 0 0 0 0 0 0 0 0 0 0 0 0 0 0.1 0"/>
<feBlend mode="normal" in2="BackgroundImageFix" result="effect1_dropShadow"/>
<feBlend mode="normal" in="SourceGraphic" in2="effect1_dropShadow" result="shape"/>
</filter>
<filter id="filter4_d" x="252" y="59" width="113.537" height="113.537" filterUnits="userSpaceOnUse" color-interpolation-filters="sRGB">
<feFlood flood-opacity="0" result="BackgroundImageFix"/>
<feColorMatrix in="SourceAlpha" type="matrix" values="0 0 0 0 0 0 0 0 0 0 0 0 0 0 0 0 0 0 127 0"/>
<feOffset dy="4"/>
<feGaussianBlur stdDeviation="10"/>
<feColorMatrix type="matrix" values="0 0 0 0 0 0 0 0 0 0 0 0 0 0 0 0 0 0 0.1 0"/>
<feBlend mode="normal" in2="BackgroundImageFix" result="effect1_dropShadow"/>
<feBlend mode="normal" in="SourceGraphic" in2="effect1_dropShadow" result="shape"/>
</filter>
<filter id="filter5_d" x="50.4995" y="477.5" width="138.539" height="138.539" filterUnits="userSpaceOnUse" color-interpolation-filters="sRGB">
<feFlood flood-opacity="0" result="BackgroundImageFix"/>
<feColorMatrix in="SourceAlpha" type="matrix" values="0 0 0 0 0 0 0 0 0 0 0 0 0 0 0 0 0 0 127 0"/>
<feOffset dy="4"/>
<feGaussianBlur stdDeviation="10"/>
<feColorMatrix type="matrix" values="0 0 0 0 0 0 0 0 0 0 0 0 0 0 0 0 0 0 0.1 0"/>
<feBlend mode="normal" in2="BackgroundImageFix" result="effect1_dropShadow"/>
<feBlend mode="normal" in="SourceGraphic" in2="effect1_dropShadow" result="shape"/>
</filter>
<linearGradient id="paint0_linear" x1="257.919" y1="403.721" x2="42.1538" y2="-114.524" gradientUnits="userSpaceOnUse">
<stop stop-color="#E8F3F5"/>
<stop offset="1" stop-color="#F4F5F7" stop-opacity="0"/>
</linearGradient>
<linearGradient id="paint1_linear" x1="1270.09" y1="298.145" x2="1612.73" y2="743.585" gradientUnits="userSpaceOnUse">
<stop stop-color="#E8F3F5"/>
<stop offset="1" stop-color="#F4F5F7" stop-opacity="0"/>
</linearGradient>
<clipPath id="clip0">
<rect width="1440" height="924" fill="white"/>
</clipPath>
</defs>
</svg>
