<svg width="906" height="597" viewBox="0 0 906 597" fill="none" xmlns="http://www.w3.org/2000/svg">
<path d="M392.419 247.671C396.673 215.053 376.577 215.763 364.415 220.713C363.644 221.026 362.806 220.367 362.983 219.554C369.264 190.757 379.586 132.221 373.749 113.25C368.068 94.7879 345.056 104.122 332.643 112.039C331.918 112.502 330.971 111.907 331.075 111.054C336.632 65.4093 343.143 29.1778 297.204 25.5026C260.482 22.5649 256.865 75.9647 259.715 104.37C259.785 105.063 259.113 105.595 258.434 105.438C224.113 97.5306 227.587 123.4 233.727 137.52C243.061 168.014 258.744 226.761 246.795 217.8C235.008 208.959 227.096 213.928 224.495 217.648C224.425 217.749 224.377 217.868 224.35 217.988C202.091 318.625 284.153 326.084 314.006 326.084C343.878 326.084 386.818 290.611 392.419 247.671Z" fill="#7873D7" fill-opacity="0.79"/>
<path d="M297.206 66.5766C299.901 139.34 299.695 308.659 297.206 391.428L314.009 395.162C308.408 230.869 295.339 16.1679 297.206 66.5766Z" fill="#333435"/>
<path d="M310.273 307.415C328.321 294.968 366.282 264.474 373.75 242.071" stroke="#0F287A" stroke-linecap="round"/>
<path d="M300.938 290.613C286.075 280.655 254.812 256.26 248.662 238.337" stroke="#0F287A" stroke-linecap="round"/>
<path d="M323.5 182.392C340.486 171.012 376.214 143.132 383.243 122.649" stroke="#333435" stroke-linecap="round"/>
<path d="M304.672 215.934C294.056 208.821 253.056 140.988 248.663 128.186" stroke="#333435" stroke-linecap="round"/>
<path d="M353.259 230.869C352.636 243.316 358.113 266.342 384.997 258.874" stroke="#0F287A" stroke-width="0.5" stroke-linecap="round"/>
<path d="M327.122 257.007C326.5 269.453 331.976 292.479 358.86 285.011" stroke="#0F287A" stroke-width="0.5" stroke-linecap="round"/>
<path d="M330.856 133.787C330.234 146.234 335.71 169.26 362.595 161.792" stroke="#333435" stroke-width="0.5" stroke-linecap="round"/>
<path d="M282.232 159.925C282.744 169.389 278.24 186.898 256.132 181.22" stroke="#333435" stroke-width="0.5" stroke-linecap="round"/>
<path d="M274.765 242.071C275.277 251.535 270.773 269.044 248.665 263.366" stroke="#0F287A" stroke-width="0.5" stroke-linecap="round"/>
<path opacity="0.6" d="M302.06 508.029H799.732C886.195 361.586 807.533 241.057 745.086 133.074C682.64 25.0899 503.307 -66.6222 447.265 65.0291C391.223 196.68 405.146 136.625 336.094 196.8C262.382 261.035 295.152 378.625 226.301 360.875C157.45 343.124 146.24 301.705 82.1929 331.29C18.1452 360.875 -50.3523 508.029 302.06 508.029Z" fill="#EAEDFE"/>
<path fill-rule="evenodd" clip-rule="evenodd" d="M255.812 479.452C254.857 485.697 253.683 492.088 252.259 498.445C246.879 522.459 237.892 546.101 223.437 559.487L222.758 558.754C226.049 555.705 229.058 552.11 231.804 548.086L221.726 506.031L222.699 505.798L232.562 546.955C237.886 538.861 242.198 529.144 245.663 518.72L245.623 518.73L235.446 478.703L236.415 478.457L246.219 517.017C248.18 510.915 249.857 504.592 251.283 498.227C252.702 491.894 253.871 485.527 254.823 479.306L247.836 451.365L248.806 451.122L255.207 476.721C257.566 460.392 258.439 445.258 258.439 434.647H259.439C259.439 445.818 258.476 461.967 255.842 479.258L255.886 479.434L255.812 479.452Z" fill="#4773CC"/>
<path d="M241.068 564.396C240.534 564.372 239.992 564.35 239.44 564.329C236.254 534.108 231.881 489.762 231.857 471.387C231.824 445.793 179.793 464.675 180.721 427.997C181.649 391.32 181.028 382.25 169.417 378.488C157.806 374.726 143.599 418.441 127.3 371.344C111.001 324.248 82.5739 326.108 73.6256 326.057C64.6774 326.007 57.8514 326.805 93.3326 387.749C128.814 448.693 101.477 426.291 85.7306 467.626C69.9842 508.961 129.334 511.531 141.695 511.183C154.056 510.835 132.613 546.146 140.017 558.811C145.84 568.771 207.412 563.159 239.44 564.329C239.805 567.784 240.153 571.055 240.478 574.08L241.068 564.396Z" fill="#2F4CAC" fill-opacity="0.78"/>
<path fill-rule="evenodd" clip-rule="evenodd" d="M153.729 458.95C148.814 415.254 118.896 388.141 104.591 380.067L105.067 379.19C119.576 387.379 149.756 414.743 154.717 458.848C156.26 472.563 157.734 482.121 159.394 488.917C161.054 495.717 162.888 499.699 165.117 502.308C167.337 504.906 169.989 506.193 173.428 507.513C174.108 507.774 174.819 508.037 175.561 508.311L175.562 508.311C178.246 509.302 181.344 510.446 184.924 512.242L192.642 470.813L193.62 471.011L185.849 512.716C185.972 512.78 186.095 512.845 186.219 512.91C194.565 517.334 199.953 525.74 203.304 534.372C206.658 543.011 208.001 551.952 208.21 557.56L207.216 557.586C207.011 552.074 205.686 543.248 202.379 534.73C199.07 526.205 193.804 518.061 185.766 513.8C181.698 511.643 178.251 510.37 175.253 509.263L175.252 509.263C174.503 508.986 173.781 508.72 173.085 508.453C169.611 507.119 166.759 505.759 164.368 502.96C161.986 500.172 160.103 496.006 158.428 489.147C156.753 482.284 155.273 472.673 153.729 458.95Z" fill="#2F4CAC" fill-opacity="0.78"/>
<path d="M181.162 488.778C175.407 564.046 260.3 574.682 303.466 570.591C317.855 568.546 345.194 548.502 339.439 484.687C333.683 420.872 268.523 354.467 236.662 329.241C191.441 302.311 109.425 266.858 143.136 340.49C185.274 432.531 188.357 394.692 181.162 488.778Z" fill="#7873D7" fill-opacity="0.8"/>
<path d="M159.816 337.633C194.668 359.159 272.161 432.757 303.322 554.942" stroke="#4162B4"/>
<rect x="173.133" y="197.779" width="601.24" height="330.259" fill="#2F539B"/>
<rect x="183.387" y="218.882" width="582" height="291" fill="#F6F7FB"/>
<rect x="183.387" y="218.882" width="160.091" height="290.717" fill="#4886FF" fill-opacity="0.6"/>
<rect x="360.014" y="240.855" width="385.986" height="245.425" rx="5" fill="#C5CCE7"/>
<rect x="376.688" y="246.469" width="352.629" height="234.196" rx="5" fill="#8EB3FD"/>
<rect x="502.963" y="254.49" width="102.453" height="4.01021" rx="2.00511" fill="#4632C3"/>
<g filter="url(#filter0_d)">
<rect x="386.213" y="268.125" width="326.421" height="29.6756" rx="7" fill="white"/>
</g>
<ellipse cx="443.399" cy="282.56" rx="23.8263" ry="8.02043" fill="#FFCDD6"/>
<rect x="481.52" y="279.353" width="207.289" height="3.20817" rx="1.60409" fill="#B1D7FF"/>
<rect x="481.52" y="284.166" width="88.1574" height="3.20817" rx="1.60409" fill="#B1D7FF"/>
<g filter="url(#filter1_d)">
<path d="M388.602 461.818C388.602 457.167 392.372 453.396 397.023 453.396H706.601C711.252 453.396 715.022 457.167 715.022 461.818V461.818C715.022 466.469 711.252 470.239 706.601 470.239H397.023C392.372 470.239 388.602 466.469 388.602 461.818V461.818Z" fill="white"/>
</g>
<rect opacity="0.87" x="441.006" y="459.813" width="223.967" height="4.01021" rx="2.00511" fill="#8EB3FD"/>
<rect x="388.602" y="306.623" width="324.038" height="135.545" rx="6" fill="white"/>
<path d="M458.032 360.168C458.032 361.56 457.552 362.72 456.592 363.648C455.648 364.56 454.2 365.016 452.248 365.016H449.032V372H446.848V355.272H452.248C454.136 355.272 455.568 355.728 456.544 356.64C457.536 357.552 458.032 358.728 458.032 360.168ZM452.248 363.216C453.464 363.216 454.36 362.952 454.936 362.424C455.512 361.896 455.8 361.144 455.8 360.168C455.8 358.104 454.616 357.072 452.248 357.072H449.032V363.216H452.248ZM459.21 365.376C459.21 364.032 459.482 362.856 460.026 361.848C460.57 360.824 461.314 360.032 462.258 359.472C463.218 358.912 464.282 358.632 465.45 358.632C466.602 358.632 467.602 358.88 468.45 359.376C469.298 359.872 469.93 360.496 470.346 361.248V358.848H472.554V372H470.346V369.552C469.914 370.32 469.266 370.96 468.402 371.472C467.554 371.968 466.562 372.216 465.426 372.216C464.258 372.216 463.202 371.928 462.258 371.352C461.314 370.776 460.57 369.968 460.026 368.928C459.482 367.888 459.21 366.704 459.21 365.376ZM470.346 365.4C470.346 364.408 470.146 363.544 469.746 362.808C469.346 362.072 468.802 361.512 468.114 361.128C467.442 360.728 466.698 360.528 465.882 360.528C465.066 360.528 464.322 360.72 463.65 361.104C462.978 361.488 462.442 362.048 462.042 362.784C461.642 363.52 461.442 364.384 461.442 365.376C461.442 366.384 461.642 367.264 462.042 368.016C462.442 368.752 462.978 369.32 463.65 369.72C464.322 370.104 465.066 370.296 465.882 370.296C466.698 370.296 467.442 370.104 468.114 369.72C468.802 369.32 469.346 368.752 469.746 368.016C470.146 367.264 470.346 366.392 470.346 365.4ZM480.949 358.632C482.085 358.632 483.077 358.88 483.925 359.376C484.789 359.872 485.429 360.496 485.845 361.248V358.848H488.053V372.288C488.053 373.488 487.797 374.552 487.285 375.48C486.773 376.424 486.037 377.16 485.077 377.688C484.133 378.216 483.029 378.48 481.765 378.48C480.037 378.48 478.597 378.072 477.445 377.256C476.293 376.44 475.613 375.328 475.405 373.92H477.565C477.805 374.72 478.301 375.36 479.053 375.84C479.805 376.336 480.709 376.584 481.765 376.584C482.965 376.584 483.941 376.208 484.693 375.456C485.461 374.704 485.845 373.648 485.845 372.288V369.528C485.413 370.296 484.773 370.936 483.925 371.448C483.077 371.96 482.085 372.216 480.949 372.216C479.781 372.216 478.717 371.928 477.757 371.352C476.813 370.776 476.069 369.968 475.525 368.928C474.981 367.888 474.709 366.704 474.709 365.376C474.709 364.032 474.981 362.856 475.525 361.848C476.069 360.824 476.813 360.032 477.757 359.472C478.717 358.912 479.781 358.632 480.949 358.632ZM485.845 365.4C485.845 364.408 485.645 363.544 485.245 362.808C484.845 362.072 484.301 361.512 483.613 361.128C482.941 360.728 482.197 360.528 481.381 360.528C480.565 360.528 479.821 360.72 479.149 361.104C478.477 361.488 477.941 362.048 477.541 362.784C477.141 363.52 476.941 364.384 476.941 365.376C476.941 366.384 477.141 367.264 477.541 368.016C477.941 368.752 478.477 369.32 479.149 369.72C479.821 370.104 480.565 370.296 481.381 370.296C482.197 370.296 482.941 370.104 483.613 369.72C484.301 369.32 484.845 368.752 485.245 368.016C485.645 367.264 485.845 366.392 485.845 365.4ZM503.024 364.92C503.024 365.336 503 365.776 502.952 366.24H492.44C492.52 367.536 492.96 368.552 493.76 369.288C494.576 370.008 495.56 370.368 496.712 370.368C497.656 370.368 498.44 370.152 499.064 369.72C499.704 369.272 500.152 368.68 500.408 367.944H502.76C502.408 369.208 501.704 370.24 500.648 371.04C499.592 371.824 498.28 372.216 496.712 372.216C495.464 372.216 494.344 371.936 493.352 371.376C492.376 370.816 491.608 370.024 491.048 369C490.488 367.96 490.208 366.76 490.208 365.4C490.208 364.04 490.48 362.848 491.024 361.824C491.568 360.8 492.328 360.016 493.304 359.472C494.296 358.912 495.432 358.632 496.712 358.632C497.96 358.632 499.064 358.904 500.024 359.448C500.984 359.992 501.72 360.744 502.232 361.704C502.76 362.648 503.024 363.72 503.024 364.92ZM500.768 364.464C500.768 363.632 500.584 362.92 500.216 362.328C499.848 361.72 499.344 361.264 498.704 360.96C498.08 360.64 497.384 360.48 496.616 360.48C495.512 360.48 494.568 360.832 493.784 361.536C493.016 362.24 492.576 363.216 492.464 364.464H500.768ZM517.273 358.608C518.873 358.608 520.169 359.096 521.161 360.072C522.153 361.032 522.649 362.424 522.649 364.248V372H520.489V364.56C520.489 363.248 520.161 362.248 519.505 361.56C518.849 360.856 517.953 360.504 516.817 360.504C515.665 360.504 514.745 360.864 514.057 361.584C513.385 362.304 513.049 363.352 513.049 364.728V372H510.865V358.848H513.049V360.72C513.481 360.048 514.065 359.528 514.801 359.16C515.553 358.792 516.377 358.608 517.273 358.608ZM531.233 372.216C530.001 372.216 528.881 371.936 527.873 371.376C526.881 370.816 526.097 370.024 525.521 369C524.961 367.96 524.681 366.76 524.681 365.4C524.681 364.056 524.969 362.872 525.545 361.848C526.137 360.808 526.937 360.016 527.945 359.472C528.953 358.912 530.081 358.632 531.329 358.632C532.577 358.632 533.705 358.912 534.713 359.472C535.721 360.016 536.513 360.8 537.089 361.824C537.681 362.848 537.977 364.04 537.977 365.4C537.977 366.76 537.673 367.96 537.065 369C536.473 370.024 535.665 370.816 534.641 371.376C533.617 371.936 532.481 372.216 531.233 372.216ZM531.233 370.296C532.017 370.296 532.753 370.112 533.441 369.744C534.129 369.376 534.681 368.824 535.097 368.088C535.529 367.352 535.745 366.456 535.745 365.4C535.745 364.344 535.537 363.448 535.121 362.712C534.705 361.976 534.161 361.432 533.489 361.08C532.817 360.712 532.089 360.528 531.305 360.528C530.505 360.528 529.769 360.712 529.097 361.08C528.441 361.432 527.913 361.976 527.513 362.712C527.113 363.448 526.913 364.344 526.913 365.4C526.913 366.472 527.105 367.376 527.489 368.112C527.889 368.848 528.417 369.4 529.073 369.768C529.729 370.12 530.449 370.296 531.233 370.296ZM542.792 360.648V368.4C542.792 369.04 542.928 369.496 543.2 369.768C543.472 370.024 543.944 370.152 544.616 370.152H546.224V372H544.256C543.04 372 542.128 371.72 541.52 371.16C540.912 370.6 540.608 369.68 540.608 368.4V360.648H538.904V358.848H540.608V355.536H542.792V358.848H546.224V360.648H542.792ZM559.181 360.648H556.421V372H554.237V360.648H552.533V358.848H554.237V357.912C554.237 356.44 554.613 355.368 555.365 354.696C556.133 354.008 557.357 353.664 559.037 353.664V355.488C558.077 355.488 557.397 355.68 556.997 356.064C556.613 356.432 556.421 357.048 556.421 357.912V358.848H559.181V360.648ZM566.743 372.216C565.511 372.216 564.391 371.936 563.383 371.376C562.391 370.816 561.607 370.024 561.031 369C560.471 367.96 560.191 366.76 560.191 365.4C560.191 364.056 560.479 362.872 561.055 361.848C561.647 360.808 562.447 360.016 563.455 359.472C564.463 358.912 565.591 358.632 566.839 358.632C568.087 358.632 569.215 358.912 570.223 359.472C571.231 360.016 572.023 360.8 572.599 361.824C573.191 362.848 573.487 364.04 573.487 365.4C573.487 366.76 573.183 367.96 572.575 369C571.983 370.024 571.175 370.816 570.151 371.376C569.127 371.936 567.991 372.216 566.743 372.216ZM566.743 370.296C567.527 370.296 568.263 370.112 568.951 369.744C569.639 369.376 570.191 368.824 570.607 368.088C571.039 367.352 571.255 366.456 571.255 365.4C571.255 364.344 571.047 363.448 570.631 362.712C570.215 361.976 569.671 361.432 568.999 361.08C568.327 360.712 567.599 360.528 566.815 360.528C566.015 360.528 565.279 360.712 564.607 361.08C563.951 361.432 563.423 361.976 563.023 362.712C562.623 363.448 562.423 364.344 562.423 365.4C562.423 366.472 562.615 367.376 562.999 368.112C563.399 368.848 563.927 369.4 564.583 369.768C565.239 370.12 565.959 370.296 566.743 370.296ZM587.303 358.848V372H585.119V370.056C584.703 370.728 584.119 371.256 583.367 371.64C582.631 372.008 581.815 372.192 580.919 372.192C579.895 372.192 578.975 371.984 578.159 371.568C577.343 371.136 576.695 370.496 576.215 369.648C575.751 368.8 575.519 367.768 575.519 366.552V358.848H577.679V366.264C577.679 367.56 578.007 368.56 578.663 369.264C579.319 369.952 580.215 370.296 581.351 370.296C582.519 370.296 583.439 369.936 584.111 369.216C584.783 368.496 585.119 367.448 585.119 366.072V358.848H587.303ZM596.679 358.608C598.279 358.608 599.575 359.096 600.567 360.072C601.559 361.032 602.055 362.424 602.055 364.248V372H599.895V364.56C599.895 363.248 599.567 362.248 598.911 361.56C598.255 360.856 597.359 360.504 596.223 360.504C595.071 360.504 594.151 360.864 593.463 361.584C592.791 362.304 592.455 363.352 592.455 364.728V372H590.271V358.848H592.455V360.72C592.887 360.048 593.471 359.528 594.207 359.16C594.959 358.792 595.783 358.608 596.679 358.608ZM604.086 365.376C604.086 364.032 604.358 362.856 604.902 361.848C605.446 360.824 606.19 360.032 607.134 359.472C608.094 358.912 609.166 358.632 610.35 358.632C611.374 358.632 612.326 358.872 613.206 359.352C614.086 359.816 614.758 360.432 615.222 361.2V354.24H617.43V372H615.222V369.528C614.79 370.312 614.15 370.96 613.302 371.472C612.454 371.968 611.462 372.216 610.326 372.216C609.158 372.216 608.094 371.928 607.134 371.352C606.19 370.776 605.446 369.968 604.902 368.928C604.358 367.888 604.086 366.704 604.086 365.376ZM615.222 365.4C615.222 364.408 615.022 363.544 614.622 362.808C614.222 362.072 613.678 361.512 612.99 361.128C612.318 360.728 611.574 360.528 610.758 360.528C609.942 360.528 609.198 360.72 608.526 361.104C607.854 361.488 607.318 362.048 606.918 362.784C606.518 363.52 606.318 364.384 606.318 365.376C606.318 366.384 606.518 367.264 606.918 368.016C607.318 368.752 607.854 369.32 608.526 369.72C609.198 370.104 609.942 370.296 610.758 370.296C611.574 370.296 612.318 370.104 612.99 369.72C613.678 369.32 614.222 368.752 614.622 368.016C615.022 367.264 615.222 366.392 615.222 365.4Z" fill="#9E9E9E"/>
<path d="M758.326 465.1C753.226 475.301 796.153 484.651 818.254 488.051L819.529 462.55C825.905 430.673 825.905 423.023 818.254 424.298C810.604 425.573 804.229 440.874 801.679 431.949C799.128 423.023 818.254 400.072 811.879 383.496C805.504 366.92 792.753 393.697 787.653 389.871C782.553 386.046 791.478 342.694 783.828 340.144C776.177 337.594 774.902 373.296 772.352 360.545C769.802 347.794 749.401 321.018 732.825 331.219C716.249 341.419 762.152 366.92 758.326 372.021C754.501 377.121 729 361.82 729 377.121C729 392.422 771.077 397.522 780.002 403.897C788.928 410.272 751.951 416.648 743.026 420.473C734.1 424.298 736.65 438.324 762.152 439.599C787.653 440.874 792.753 447.249 795.303 453.625C797.853 460 764.702 452.35 758.326 465.1Z" fill="#62A2F4"/>
<path d="M762.152 360.545C768.528 366.07 782.553 384.261 787.654 412.822C792.754 441.384 808.48 468.925 815.705 479.125" stroke="white" stroke-opacity="0.32"/>
<path d="M876.252 463.472C881.352 473.673 838.425 483.023 816.324 486.423L815.049 460.922C808.673 429.046 808.673 421.395 816.324 422.67C823.974 423.945 830.349 439.246 832.9 430.321C835.45 421.395 816.324 398.444 822.699 381.868C829.074 365.292 841.825 392.069 846.925 388.244C852.026 384.418 843.1 341.066 850.75 338.516C858.401 335.966 859.676 371.668 862.226 358.917C864.776 346.167 885.177 319.39 901.753 329.591C918.329 339.791 872.427 365.292 876.252 370.393C880.077 375.493 905.578 360.192 905.578 375.493C905.578 390.794 863.501 395.894 854.576 402.269C845.65 408.645 882.627 415.02 891.552 418.845C900.478 422.67 897.928 436.696 872.427 437.971C846.925 439.246 841.825 445.621 839.275 451.997C836.725 458.372 869.876 450.722 876.252 463.472Z" fill="#7873D7"/>
<path d="M872.426 358.917C866.05 364.443 852.025 382.633 846.925 411.195C841.824 439.756 826.099 467.298 818.873 477.498" stroke="white" stroke-opacity="0.32"/>
<path d="M777.443 444.225C766.718 444.225 778.856 464.481 785.922 472.489L807.119 495.1C817.482 490.86 839.34 481.251 843.862 476.728C849.515 471.076 842.449 469.662 835.383 468.249C829.73 467.119 833.028 462.125 835.383 459.77C859.125 452.987 866.944 439.985 867.887 434.333C867.887 432.919 867.887 430.093 862.234 425.853C856.581 421.614 833.97 454.117 835.383 432.919C836.796 411.721 869.3 387.697 867.887 377.804C866.473 367.912 859.407 380.631 846.689 387.697C836.514 393.35 836.796 383.457 838.209 377.804C844.804 370.267 857.146 353.215 853.755 345.301C849.515 335.408 846.689 345.301 835.383 355.193C824.077 365.086 831.143 343.888 833.97 339.648C836.796 335.408 862.234 280.294 817.011 290.186C771.789 300.078 798.64 359.433 800.053 367.912C801.466 376.391 790.161 356.607 773.203 362.259C756.245 367.912 804.293 399.003 804.293 407.482C804.293 415.961 785.922 403.242 777.443 401.829C768.964 400.416 785.922 421.614 790.161 434.333C793.553 444.508 791.574 447.051 790.161 447.051C785.922 449.878 785.922 444.225 777.443 444.225Z" fill="#2F4CAC"/>
<path d="M819.836 319.863C817.009 320.334 812.204 336.256 815.596 396.176C818.988 456.096 814.183 477.671 811.357 480.968" stroke="white" stroke-opacity="0.19" stroke-width="2" stroke-linejoin="round"/>
<path d="M784.363 499.923H844.611L838.097 565.055H790.062L784.363 499.923Z" fill="#E92476"/>
<mask id="mask0" mask-type="alpha" maskUnits="userSpaceOnUse" x="784" y="499" width="61" height="67">
<path d="M784.365 499.922H844.612L838.099 565.054H790.064L784.365 499.922Z" fill="#E92476"/>
</mask>
<g mask="url(#mask0)">
<rect x="776.223" y="488.524" width="76.5303" height="22.7963" rx="10" fill="#D2055B"/>
</g>
<rect x="776.223" y="482.011" width="76.5303" height="22.7963" rx="10" fill="#E92476"/>
<path d="M785.99 519.462H842.981L840.538 545.515H787.619L785.99 519.462Z" fill="#F27CAD"/>
<path d="M749.446 560.667C753.382 554.052 753.094 550.704 752.457 549.857L750.228 544.773L759.445 543.017C759.552 544.394 759.862 547.753 760.245 550.168C760.725 553.188 763.588 556.205 769.314 561.445C775.04 566.685 768.049 568.757 761.368 562.247C754.687 555.736 752.625 560.665 750.718 561.302C749.193 561.812 749.235 561.091 749.446 560.667Z" fill="#EE9F86"/>
<path d="M675.499 504.593L717.436 540.381L704.314 555.987L674.406 532.856L649.097 562.933L637.067 555.987L667.996 505.774C669.605 503.162 673.165 502.602 675.499 504.593Z" fill="#332D7B"/>
<path d="M594.636 558.448L611.256 558.448L610.299 547.923L594.636 547.445L594.636 558.448Z" fill="#EE9F86"/>
<path d="M596.412 547.045C595.273 549.714 594.988 555.943 594.988 558.724L594.988 559.141L583.122 559.975L583.122 527.024C583.122 520.684 586.287 523.827 587.869 526.19C587.869 532.196 593.564 542.596 596.412 547.045Z" fill="#1D104A"/>
<path d="M720.305 567.78C741.737 568.162 743.464 544.995 741.71 536.703L699.255 537.218C687.557 539.345 665.461 539.882 655.383 540.001C652.44 540.036 649.518 540.394 646.663 541.107L645.221 541.468L602.644 544.338L603.09 560.47C613.296 559.832 620.58 562.543 635.506 564.074C650.432 565.605 658.759 565.547 663.853 563.474C673.741 564.75 698.873 567.397 720.305 567.78Z" fill="#5C79B0"/>
<path d="M707.923 470.724C706.889 468.644 707.492 447.321 707.923 436.92L714.39 436.92L721.719 470.724L707.923 470.724Z" fill="#182E79"/>
<path d="M706.013 440.626C705.867 439.849 705.907 438.996 706.03 438.14C706.484 435.007 708.112 432.062 710.156 429.644C725.805 423.824 730.422 437.546 730.775 445.135L725.969 466.728L714.089 465.952L715.465 459.502C714.216 457.856 712.209 458.195 708.111 458.494C704.013 458.792 705.234 455.271 705.196 454.652C705.173 454.285 704.684 453.697 704.253 453.259C704.047 453.05 704.061 452.702 704.295 452.524C704.499 452.369 704.539 452.077 704.384 451.872L704.146 451.558C703.902 451.237 703.914 450.789 704.175 450.482L704.429 450.181C704.622 449.953 704.643 449.625 704.479 449.375L703.749 448.26C703.214 447.444 703.358 446.372 703.995 445.634C705.154 444.291 706.347 442.405 706.013 440.626Z" fill="#EE9F86"/>
<path d="M710.847 432.364C710.667 436.631 712.819 443.034 722.771 443.034C724.033 442.864 726.448 443.444 726.016 447.13C725.475 451.737 724.934 454.809 726.557 459.928C727.422 462.795 728.36 463.853 728.72 464.023L740.619 464.023C742.061 447.642 737.914 416.414 709.791 422.557C706.546 423.922 701.905 427.081 704.383 431.772C705.46 433.81 710.11 434.665 710.862 432.316L710.847 432.364Z" fill="#393939"/>
<path d="M692.986 522.713V509.963L714.793 475.795L716.649 532.912L705.978 534.952L692.986 522.713Z" fill="#182E79" stroke="#182E79"/>
<path d="M694 485C702 468.5 708.475 471.889 715.082 463.963C718.981 472.979 716.154 493.718 700.407 507.976C687.968 519.24 646.084 495.655 646.084 495.655L646 486.5C682.854 495.26 688.918 495.482 694 485Z" fill="#182E79"/>
<path d="M632.69 482.554C631.041 486.305 636.737 491.062 640.058 492.848L647.007 496.235L646.866 486.955C644.079 486.005 640.348 482.53 638.851 483.141C637.698 483.613 638.465 484.308 638.941 485.856C637.757 485.845 635.523 483.956 634.194 482.484C633.758 482.001 632.952 481.959 632.69 482.554Z" fill="#EF937E"/>
<path d="M706.868 537.444C702.915 521.634 711.308 481.235 714.602 462.82C715.874 463.386 717.326 463.384 718.597 462.815L719.444 462.437L734.715 462.886L746.393 537.444H706.868Z" fill="white"/>
<path d="M710.462 536.545C703.994 514.268 714.354 474.863 720.343 457.945L746.393 457.046C751.783 460.28 745.345 470.371 741.453 475.012C757.263 490.822 762.413 531.605 763.012 550.02C760.167 550.169 752.932 551.006 751.854 550.647C750.776 550.287 748.19 541.486 746.393 537.444L710.462 536.545Z" fill="#2F4CAC"/>
<mask id="mask1" mask-type="alpha" maskUnits="userSpaceOnUse" x="708" y="457" width="56" height="94">
<path d="M710.462 536.545C703.994 514.268 714.354 474.863 720.343 457.945L746.393 457.046C751.783 460.28 745.345 470.371 741.453 475.012C757.263 490.822 762.413 531.605 763.012 550.02C760.167 550.169 753.355 550.584 752.277 550.224C751.199 549.865 748.19 541.486 746.393 537.444L710.462 536.545Z" fill="#1DB6E7"/>
</mask>
<g mask="url(#mask1)">
<path d="M737.41 510.945L746.393 538.343L731.122 543.283L737.41 510.945Z" fill="#182E79"/>
</g>
<line y1="-3.5" x2="147.04" y2="-3.5" transform="matrix(-0.12781 0.991799 -0.993563 -0.113278 296.766 417.368)" stroke="#47484A" stroke-width="7"/>
<line y1="-3.5" x2="147.04" y2="-3.5" transform="matrix(-0.12781 0.991799 -0.993563 -0.113278 210.631 417.368)" stroke="#47484A" stroke-width="7"/>
<path d="M316.743 306.245C316.365 303.245 313.814 300.995 310.79 300.995H214.301C210.69 300.995 207.897 304.161 208.348 307.744L225.631 445.015C226.009 448.016 228.56 450.266 231.584 450.266H328.072C331.683 450.266 334.476 447.099 334.025 443.516L316.743 306.245Z" fill="#47484A"/>
<line y1="-3.5" x2="147.04" y2="-3.5" transform="matrix(0.12781 0.991799 0.993563 -0.113278 229.947 417.368)" stroke="#47484A" stroke-width="7"/>
<line y1="-3.5" x2="147.04" y2="-3.5" transform="matrix(0.12781 0.991799 0.993563 -0.113278 316.082 417.368)" stroke="#47484A" stroke-width="7"/>
<path d="M315.774 307.288C315.942 303.863 313.21 300.995 309.781 300.995H213.212C210.013 300.995 207.376 303.505 207.22 306.701L200.499 443.972C200.331 447.397 203.062 450.266 206.491 450.266H303.06C306.26 450.266 308.896 447.755 309.053 444.559L315.774 307.288Z" fill="#47484A"/>
<path d="M313.686 309.744C313.854 306.319 311.122 303.45 307.693 303.45H215.037C211.838 303.45 209.201 305.961 209.044 309.157L202.587 441.027C202.419 444.452 205.151 447.32 208.58 447.32H301.236C304.435 447.32 307.072 444.809 307.228 441.614L313.686 309.744Z" fill="#A6A6A6"/>
<path d="M229.705 426.025L240.253 411.466L247.905 420.409L230.326 431.017L229.705 426.025Z" fill="#D9142B"/>
<path fill-rule="evenodd" clip-rule="evenodd" d="M228.497 436.008H230.391C231.541 434.021 233.841 428.687 233.841 423.249C233.841 417.81 230.233 413.405 228.43 411.882V411.926L228.429 411.882C226.626 413.405 223.086 417.811 223.086 423.249C223.086 428.687 225.386 434.021 226.536 436.009H228.497L228.497 436.008Z" fill="#FF455B"/>
<mask id="mask2" mask-type="alpha" maskUnits="userSpaceOnUse" x="223" y="411" width="11" height="26">
<path fill-rule="evenodd" clip-rule="evenodd" d="M228.497 436.008H230.391C231.541 434.021 233.841 428.687 233.841 423.249C233.841 417.81 230.233 413.405 228.43 411.882V411.926L228.429 411.882C226.626 413.405 223.086 417.811 223.086 423.249C223.086 428.687 225.386 434.021 226.536 436.009H228.497L228.497 436.008Z" fill="#D75720"/>
</mask>
<g mask="url(#mask2)">
<rect x="221.432" y="419.37" width="14.4775" height="12.4792" fill="#FFD262"/>
<rect x="211.504" y="419.37" width="34.3324" height="0.83194" fill="#382FAC"/>
<rect x="211.504" y="431.433" width="34.3324" height="0.831947" fill="#382FAC"/>
</g>
<path d="M271.48 426.025L260.933 411.466L253.28 420.409L270.86 431.017L271.48 426.025Z" fill="#D9142B"/>
<path fill-rule="evenodd" clip-rule="evenodd" d="M272.688 436.008H270.795C269.645 434.021 267.345 428.687 267.345 423.249C267.345 417.811 270.952 413.405 272.756 411.882L272.756 411.882C272.756 411.882 272.756 411.882 272.756 411.882C272.756 411.882 272.756 411.882 272.756 411.882V411.882C274.56 413.406 278.1 417.811 278.1 423.249C278.1 428.687 275.8 434.021 274.65 436.008H272.688L272.688 436.008Z" fill="#FF455B"/>
<mask id="mask3" mask-type="alpha" maskUnits="userSpaceOnUse" x="267" y="411" width="12" height="26">
<path fill-rule="evenodd" clip-rule="evenodd" d="M272.688 436.008H270.795C269.645 434.021 267.345 428.687 267.345 423.249C267.345 417.811 270.952 413.405 272.756 411.882L272.756 411.882C272.756 411.882 272.756 411.882 272.756 411.882C272.756 411.882 272.756 411.882 272.756 411.882V411.882C274.56 413.406 278.1 417.811 278.1 423.249C278.1 428.687 275.8 434.021 274.65 436.008H272.688L272.688 436.008Z" fill="#D75720"/>
</mask>
<g mask="url(#mask3)">
<rect width="14.4775" height="12.4792" transform="matrix(-1 0 0 1 279.754 419.37)" fill="#FEB261"/>
<rect width="34.3324" height="0.831947" transform="matrix(-1 0 0 1 289.682 419.37)" fill="#382FAC"/>
<rect width="34.3324" height="0.831947" transform="matrix(-1 0 0 1 289.682 431.433)" fill="#382FAC"/>
</g>
<path fill-rule="evenodd" clip-rule="evenodd" d="M250.385 427.481H244.595C241.079 420.062 234.047 400.151 234.047 379.852C234.047 359.553 244.87 343.108 250.385 337.423V337.422C250.385 337.422 250.386 337.422 250.386 337.423C250.386 337.422 250.386 337.422 250.386 337.422V337.423C255.901 343.108 266.931 359.553 266.931 379.852C266.931 400.151 259.899 420.062 256.383 427.481H250.593H250.385Z" fill="#FFD262"/>
<path d="M256.384 427.481H250.386V337.422C255.901 343.107 266.932 359.552 266.932 379.852C266.932 400.151 259.9 420.062 256.384 427.481Z" fill="#FEB261"/>
<mask id="mask4" mask-type="alpha" maskUnits="userSpaceOnUse" x="234" y="337" width="33" height="91">
<path fill-rule="evenodd" clip-rule="evenodd" d="M250.385 427.481H244.595C241.079 420.062 234.047 400.151 234.047 379.852C234.047 359.553 244.87 343.108 250.385 337.423V337.422C250.385 337.422 250.386 337.422 250.386 337.423C250.386 337.422 250.386 337.422 250.386 337.422V337.423C255.901 343.108 266.931 359.553 266.931 379.852C266.931 400.151 259.899 420.062 256.383 427.481H250.593H250.385Z" fill="#FEFFFB"/>
</mask>
<g mask="url(#mask4)">
<rect x="233.84" y="334.511" width="34.3324" height="24.5424" fill="#FF455B"/>
<rect x="233.426" y="358.637" width="34.3324" height="2.49584" fill="#382FAC"/>
<rect x="233.426" y="425.609" width="34.3324" height="2.49584" fill="#382FAC"/>
</g>
<mask id="mask5" mask-type="alpha" maskUnits="userSpaceOnUse" x="234" y="337" width="33" height="91">
<path fill-rule="evenodd" clip-rule="evenodd" d="M250.385 427.481H244.595C241.079 420.062 234.047 400.151 234.047 379.852C234.047 359.553 244.87 343.108 250.385 337.423V337.422C250.385 337.422 250.386 337.422 250.386 337.423C250.386 337.422 250.386 337.422 250.386 337.422V337.423C255.901 343.108 266.931 359.553 266.931 379.852C266.931 400.151 259.899 420.062 256.383 427.481H250.593H250.385Z" fill="#FEFFFB"/>
</mask>
<g mask="url(#mask5)">
<ellipse cx="250.385" cy="373.196" rx="9.10015" ry="9.15142" fill="#363636"/>
<mask id="mask6" mask-type="alpha" maskUnits="userSpaceOnUse" x="241" y="364" width="19" height="19">
<ellipse cx="250.385" cy="373.196" rx="9.10015" ry="9.15142" fill="white" fill-opacity="0.2"/>
</mask>
<g mask="url(#mask6)">
<path d="M254.33 356.876L258.425 360.994L239.466 380.06L235.371 375.941L254.33 356.876Z" fill="white" fill-opacity="0.2"/>
<path d="M262.975 362.824L242.348 383.568L243.561 385.398L264.492 364.35L262.975 362.824Z" fill="white" fill-opacity="0.2"/>
<path d="M265.402 366.485L245.533 386.466L249.628 390.889L269.648 370.756L265.402 366.485Z" fill="white" fill-opacity="0.2"/>
</g>
</g>
<rect width="38.6305" height="6.38331" rx="3.19165" transform="matrix(-1 0 0 1 280.584 300.013)" fill="#47484A"/>
<ellipse rx="2.08814" ry="1.9641" transform="matrix(-1 0 0 1 275.363 303.45)" fill="white"/>
<ellipse rx="2.08814" ry="1.9641" transform="matrix(-1 0 0 1 246.652 303.45)" fill="white"/>
<path d="M251.35 337.085V321.372H234.122" stroke="white" stroke-dasharray="6 6"/>
<path d="M267.531 377.595H291.545V342.486" stroke="white" stroke-dasharray="6 6"/>
<path d="M225.51 429.152H217.679V390.361" stroke="white" stroke-dasharray="6 6"/>
<rect width="18.2712" height="0.491024" transform="matrix(-1 0 0 1 230.469 327.51)" fill="white"/>
<rect width="17.7492" height="2.45512" transform="matrix(-1 0 0 1 230.467 320.145)" fill="white"/>
<rect width="17.7492" height="0.491024" transform="matrix(-1 0 0 1 230.467 323.582)" fill="white"/>
<rect width="17.7492" height="0.491024" transform="matrix(-1 0 0 1 230.467 324.564)" fill="white"/>
<rect width="13.5729" height="0.491024" transform="matrix(-1 0 0 1 230.467 325.546)" fill="white"/>
<rect width="15.139" height="0.491024" transform="matrix(-1 0 0 1 230.467 326.528)" fill="white"/>
<rect width="9.39661" height="0.491024" transform="matrix(-1 0 0 1 230.467 328.492)" fill="white"/>
<rect width="14.0949" height="0.491024" transform="matrix(-1 0 0 1 230.467 329.475)" fill="white"/>
<rect x="280.582" y="329.966" width="17.7492" height="2.45512" fill="white"/>
<rect x="280.582" y="333.403" width="17.7492" height="0.491024" fill="white"/>
<rect x="280.582" y="334.385" width="17.7492" height="0.491024" fill="white"/>
<rect x="280.582" y="335.367" width="13.5729" height="0.491024" fill="white"/>
<rect x="280.582" y="336.35" width="15.139" height="0.491024" fill="white"/>
<rect x="280.582" y="338.313" width="9.39661" height="0.491024" fill="white"/>
<rect x="280.582" y="339.295" width="14.0949" height="0.491024" fill="white"/>
<rect x="210.631" y="377.595" width="17.7492" height="2.45512" fill="white"/>
<rect x="210.631" y="381.032" width="17.7492" height="0.491024" fill="white"/>
<rect x="210.631" y="382.014" width="17.7492" height="0.491024" fill="white"/>
<rect x="210.631" y="382.996" width="13.5729" height="0.491024" fill="white"/>
<rect x="210.631" y="383.978" width="15.139" height="0.491024" fill="white"/>
<rect x="210.631" y="385.942" width="9.39661" height="0.491024" fill="white"/>
<rect x="210.631" y="386.924" width="14.0949" height="0.491024" fill="white"/>
<path d="M160.95 552.194L158.016 541.382L169.752 537.64L170.171 551.363L160.95 552.194Z" fill="#F3AEAE"/>
<path d="M170.52 549.807C168.181 550.805 162.724 551.055 160.288 551.055H159.922L159.191 561.451H188.062C193.616 561.451 190.863 558.679 188.792 557.292C183.53 557.292 174.418 552.302 170.52 549.807Z" fill="#1D104A"/>
<path d="M99.7987 536.622L102.664 525.791L114.699 528.418L108.201 540.512L99.7987 536.622Z" fill="#F3AEAE"/>
<path d="M109.282 539.34C106.757 539.035 101.906 536.522 99.7964 535.304L99.4799 535.121L93.6488 543.759L118.651 558.194C123.462 560.972 122.464 557.194 121.363 554.958C116.806 552.327 111.41 543.45 109.282 539.34Z" fill="#1D104A"/>
<path d="M202.028 366.761L171.011 374.725L165.143 362.57H199.513L202.028 366.761Z" fill="#EE9F86"/>
<path d="M204.693 338.534L178.138 365.479C177.515 366.111 177.963 367.181 178.85 367.181H201.631C201.887 367.181 202.133 367.083 202.319 366.907L232.321 338.463C232.997 337.822 232.506 336.686 231.576 336.739L205.348 338.238C205.1 338.252 204.867 338.357 204.693 338.534Z" fill="#333333"/>
<path d="M169.049 346.407C173.077 335.205 164.386 326.9 159.27 320.583C159.69 320.164 158.049 320.583 156.336 320.583C154.661 320.583 148.207 318.266 140.244 322.458C129.849 336.877 132.865 367.883 135.38 380.877C148.234 381.156 169.049 384.699 169.049 382.578C169.049 379.644 169.049 383.449 169.049 379.394C169.049 373.843 169.049 364.175 169.049 346.407Z" fill="#FEAF22"/>
<path d="M130.517 410.178C127.82 398.165 132.483 385.638 135.152 380.877L168.411 381.941C169.423 399.943 132.765 493.253 111.133 537.64L99.334 532.512C110.852 496.74 133.214 422.192 130.517 410.178Z" fill="#04138A"/>
<path d="M135.053 372.63L134.215 347.481L147.209 346.223L145.113 365.923L176.968 349.021L180.322 354.051L142.598 378.498H140.921C137.68 378.498 135.053 375.871 135.053 372.63Z" fill="#EE9F86"/>
<path d="M192.718 346.262C189.26 341.788 180.769 345.902 176.968 349.021L180.319 354.052C182.786 351.211 188.797 355.143 188.796 353.036C188.796 351.411 187.605 351.968 185.548 351.736C186.158 350.26 189.75 348.475 192.142 347.696C192.762 347.494 193.117 346.778 192.718 346.262Z" fill="#EE9F86"/>
<path d="M167.612 544.335L169.051 382.403L135.936 381.304L155.013 544.335H167.612Z" fill="#030E68"/>
<path d="M132.537 332.391C132.537 327.298 136.666 323.17 141.758 323.17V323.17C146.851 323.17 150.98 327.298 150.98 332.391V347.481H132.537V332.391Z" fill="#EE9D0C"/>
<path d="M171.727 301.32C171.965 300.607 172.039 299.796 172.033 298.973C172.01 295.957 170.855 292.968 169.239 290.421C155.225 282.904 149.092 295.255 147.777 302.37L149.517 323.369L155.89 324.991C158.565 325.672 161.109 323.504 160.861 320.754L160.525 317.049C162.263 317.049 163.606 317.098 167.435 317.91C171.263 318.722 170.567 315.242 170.683 314.662C170.752 314.319 171.29 313.828 171.753 313.47C171.974 313.299 172.007 312.969 171.809 312.771C171.636 312.598 171.636 312.317 171.809 312.144L172.075 311.878C172.346 311.607 172.393 311.183 172.186 310.859L171.985 310.543C171.832 310.302 171.856 309.99 172.043 309.775L172.823 308.878C173.463 308.143 173.466 307.061 172.94 306.24C172.036 304.829 171.191 302.93 171.727 301.32Z" fill="#F3AEAE"/>
<path d="M148.671 310.615C149.308 314.436 147.397 309.342 146.465 306.023C145.423 304.64 142.476 297.117 143.681 292.639C144.547 289.416 145.539 285.907 151.044 285.377C141.147 285.819 147.345 285.331 152.549 285.251L151.738 284.44C149.99 282.693 148.358 281.601 147.277 281.601C138.355 282.007 126.595 283.629 122.134 279.168C118.565 275.598 111.995 277.68 109.157 279.168C91.7188 285.251 61.3038 278.356 78.7418 265.377C96.1797 252.398 96.5852 258.482 110.373 265.377C124.162 272.272 121.323 264.566 139.166 266.594C153.441 268.216 154.036 279.708 152.549 285.251C147.345 285.331 141.147 285.819 151.044 285.377C151.512 285.332 152.013 285.309 152.549 285.309C152.935 285.291 153.34 285.272 153.766 285.251C170.798 284.44 172.871 297.878 171.597 296.605C170.173 295.181 157.587 295.331 156.313 302.973C153.474 299.323 152.84 297.761 151.218 299.789C149.596 301.817 147.935 306.201 148.671 310.615Z" fill="#393939"/>
<path d="M468.453 226.371C434.967 226.371 407.816 253.522 407.816 287.007C407.816 320.493 434.967 347.644 468.453 347.644C501.938 347.644 529.089 320.493 529.089 287.007C529.089 253.522 501.938 226.371 468.453 226.371ZM468.453 322.198C465.462 322.198 463.039 319.775 463.039 316.784C463.039 313.793 465.462 311.37 468.453 311.37C471.444 311.37 473.867 313.793 473.867 316.784C473.867 319.775 471.444 322.198 468.453 322.198ZM476.966 292.489C475.74 292.962 474.686 293.794 473.94 294.876C473.194 295.957 472.791 297.239 472.784 298.553V301.625C472.784 302.221 472.297 302.708 471.701 302.708H465.204C464.609 302.708 464.122 302.221 464.122 301.625V298.715C464.122 295.589 465.028 292.503 466.815 289.931C468.561 287.413 470.997 285.492 473.867 284.395C478.469 282.622 481.446 278.765 481.446 274.555C481.446 268.586 475.613 263.727 468.453 263.727C461.293 263.727 455.459 268.586 455.459 274.555V275.584C455.459 276.179 454.972 276.667 454.376 276.667H447.88C447.284 276.667 446.797 276.179 446.797 275.584V274.555C446.797 269.236 449.125 264.269 453.348 260.574C457.408 257.014 462.768 255.065 468.453 255.065C474.137 255.065 479.497 257.028 483.558 260.574C487.781 264.269 490.109 269.236 490.109 274.555C490.109 282.378 484.952 289.417 476.966 292.489Z" fill="#566DBB"/>
<path d="M460.637 290.278C466.506 296.931 456.407 308.077 450.329 312.432L442.351 306.798C447.373 304.353 446.789 292.965 449.812 293.776C452.141 294.401 450.885 295.894 450.427 298.935C452.914 298.61 457.179 293.631 459.089 290.502C459.429 289.945 460.205 289.789 460.637 290.278Z" fill="#EE9F86"/>
<path d="M331.328 538.307L332.858 524.366L348.245 525.376L342.453 541.557L331.328 538.307Z" fill="#EE9F86"/>
<path d="M343.573 539.903C340.391 539.996 333.918 537.789 331.08 536.675L330.654 536.507L325.045 548.286L358.683 561.497C365.155 564.039 363.216 559.549 361.437 556.987C355.306 554.578 346.973 544.594 343.573 539.903Z" fill="#1D104A"/>
<path d="M396.413 549.016L392.74 535.481L407.432 530.796L407.956 547.974L396.413 549.016Z" fill="#EE9F86"/>
<path d="M408.394 546.026C405.466 547.275 398.635 547.588 395.585 547.588H395.128L394.213 560.602H430.352C437.306 560.602 433.859 557.131 431.267 555.396C424.68 555.396 413.274 549.149 408.394 546.026Z" fill="#1D104A"/>
<path d="M374.685 463.155C367.729 485.022 358.927 509.896 348.142 536.043L329.445 530.271C334.692 514.88 344.364 470.246 348.142 391.752L394.314 389.129C399.736 409.067 410.16 466.364 408.481 536.043L391.166 536.567C387.455 517.378 381.404 489.117 374.685 463.155Z" fill="#262626"/>
<mask id="mask7" mask-type="alpha" maskUnits="userSpaceOnUse" x="329" y="389" width="80" height="148">
<path d="M374.685 463.155C367.729 485.022 358.927 509.896 348.142 536.043L329.445 530.271C334.692 514.88 344.364 470.246 348.142 391.752L394.314 389.129C399.736 409.067 410.16 466.364 408.481 536.043L391.166 536.567C387.455 517.378 381.404 489.117 374.685 463.155Z" fill="#79C7CE"/>
</mask>
<g mask="url(#mask7)">
<path d="M374.902 462.061L387.495 538.141H413.205L418.976 486.197L394.316 387.555L374.902 462.061Z" fill="#0F0F0F"/>
</g>
<path d="M389.737 302.066L388.759 297.198L386.721 292.714C385.471 291.885 380.456 290.605 370.389 292.11C360.322 293.615 364.443 311.918 367.761 320.882L367.788 324.011C373.934 327.675 384.007 330.139 382.757 327.389C381.589 324.82 381.583 325.434 381.571 323.615C383.476 324.064 385.325 324.179 386.776 323.931C389.237 323.51 388.301 320.503 387.525 319.052C388.244 318.725 388.562 317.877 388.235 317.159L388.998 316.609C389.33 316.37 389.48 315.95 389.374 315.554C389.187 314.856 389.532 314.125 390.19 313.826L391.447 313.255C392.009 312.999 392.207 312.299 391.863 311.787L389.488 308.255C389.027 307.569 388.954 306.694 389.295 305.941C389.845 304.727 389.999 303.372 389.737 302.066Z" fill="#EE9F86"/>
<path d="M370.734 317.436L367.749 321.237L360.608 304.761C360.033 299.786 361.472 289.079 371.823 286.048C384.762 282.26 387.786 288.914 388.286 288.861C388.686 288.819 389.294 287.879 389.548 287.414C389.706 287.762 389.614 288.839 389.549 289.334C390.485 288.629 390.017 286.91 389.667 286.139C395.053 292.766 391.964 296.439 389.747 297.447C387.511 297.009 382.754 296.578 381.607 298.355C380.174 300.578 380.897 300.249 378.136 301.854C375.927 303.137 376.62 308.244 377.242 310.637L378.36 313.096L375.073 311.624C374.978 308.037 372.473 306.29 371.233 305.865C367.856 306.423 369.493 313.812 370.734 317.436Z" fill="#393939"/>
<path d="M396.604 399.098L388.533 351.06L379.289 346.104L381.343 399.623L396.604 399.098Z" fill="#5DB3BB"/>
<path d="M345.016 416.413C342.237 368.827 356.426 335.45 363.868 324.711L366.348 323.719C398.099 328.478 433.31 307.772 444.555 303.806L451.414 311.522C409.497 342.719 388.83 353.46 382.224 353.46C387.681 370.81 387.185 392.124 385.697 403.525C384.506 412.646 377.593 415.917 374.286 416.413H345.016Z" fill="#7873D7"/>
<path d="M468.453 225.525C434.967 225.525 407.816 252.676 407.816 286.162C407.816 319.647 434.967 346.798 468.453 346.798C501.938 346.798 529.089 319.647 529.089 286.162C529.089 252.676 501.938 225.525 468.453 225.525ZM468.453 321.352C465.462 321.352 463.039 318.93 463.039 315.938C463.039 312.947 465.462 310.525 468.453 310.525C471.444 310.525 473.867 312.947 473.867 315.938C473.867 318.93 471.444 321.352 468.453 321.352ZM476.966 291.643C475.74 292.117 474.686 292.948 473.94 294.03C473.194 295.112 472.791 296.393 472.784 297.707V300.779C472.784 301.375 472.297 301.862 471.701 301.862H465.204C464.609 301.862 464.122 301.375 464.122 300.779V297.869C464.122 294.743 465.028 291.657 466.815 289.085C468.561 286.568 470.997 284.646 473.867 283.549C478.469 281.776 481.446 277.919 481.446 273.71C481.446 267.741 475.613 262.882 468.453 262.882C461.293 262.882 455.459 267.741 455.459 273.71V274.738C455.459 275.334 454.972 275.821 454.376 275.821H447.88C447.284 275.821 446.797 275.334 446.797 274.738V273.71C446.797 268.39 449.125 263.423 453.348 259.728C457.408 256.168 462.768 254.219 468.453 254.219C474.137 254.219 479.497 256.182 483.558 259.728C487.781 263.423 490.109 268.39 490.109 273.71C490.109 281.533 484.952 288.571 476.966 291.643Z" fill="#2E27B6" fill-opacity="0.5"/>
<path d="M460.637 289.433C466.506 296.085 456.407 307.231 450.329 311.586L442.351 305.953C447.373 303.507 446.789 292.12 449.812 292.931C452.141 293.556 450.885 295.049 450.427 298.089C452.914 297.764 457.179 292.786 459.089 289.656C459.429 289.1 460.205 288.944 460.637 289.433Z" fill="#EE9F86"/>
<path d="M331.328 537.461L332.858 523.52L348.245 524.53L342.453 540.712L331.328 537.461Z" fill="#EE9F86"/>
<path d="M343.573 539.058C340.391 539.151 333.918 536.944 331.08 535.829L330.654 535.662L325.045 547.441L358.683 560.652C365.155 563.194 363.216 558.704 361.437 556.141C355.306 553.733 346.973 543.749 343.573 539.058Z" fill="#1D104A"/>
<path d="M396.413 548.169L392.74 534.635L407.432 529.95L407.956 547.128L396.413 548.169Z" fill="#EE9F86"/>
<path d="M408.394 545.179C405.466 546.429 398.635 546.741 395.585 546.741H395.128L394.213 559.755H430.352C437.306 559.755 433.859 556.284 431.267 554.549C424.68 554.549 413.274 548.303 408.394 545.179Z" fill="#1D104A"/>
<path d="M374.685 462.309C367.729 484.177 358.927 509.051 348.142 535.197L329.445 529.425C334.692 514.034 344.364 469.401 348.142 390.907L394.314 388.283C399.736 408.221 410.16 465.518 408.481 535.197L391.166 535.722C387.455 516.532 381.404 488.271 374.685 462.309Z" fill="#262626"/>
<mask id="mask8" mask-type="alpha" maskUnits="userSpaceOnUse" x="329" y="388" width="80" height="148">
<path d="M374.685 462.309C367.729 484.177 358.927 509.051 348.142 535.197L329.445 529.425C334.692 514.034 344.364 469.401 348.142 390.907L394.314 388.283C399.736 408.221 410.16 465.518 408.481 535.197L391.166 535.722C387.455 516.532 381.404 488.271 374.685 462.309Z" fill="#79C7CE"/>
</mask>
<g mask="url(#mask8)">
<path d="M374.902 461.215L387.495 537.295H413.205L418.976 485.351L394.316 386.708L374.902 461.215Z" fill="#0F0F0F"/>
</g>
<path d="M389.737 301.22L388.759 296.351L386.721 291.868C385.471 291.039 380.456 289.759 370.389 291.264C360.322 292.769 364.443 311.072 367.761 320.035L367.788 323.165C373.934 326.829 384.007 329.293 382.757 326.543C381.589 323.974 381.583 324.588 381.571 322.769C383.476 323.218 385.325 323.333 386.776 323.084C389.237 322.663 388.301 319.657 387.525 318.206C388.244 317.879 388.562 317.031 388.235 316.312L388.998 315.763C389.33 315.524 389.48 315.104 389.374 314.708C389.187 314.01 389.532 313.279 390.19 312.98L391.447 312.409C392.009 312.153 392.207 311.453 391.863 310.94L389.488 307.409C389.027 306.723 388.954 305.847 389.295 305.095C389.845 303.881 389.999 302.526 389.737 301.22Z" fill="#EE9F86"/>
<path d="M370.734 316.59L367.749 320.391L360.608 303.915C360.033 298.94 361.472 288.233 371.823 285.202C384.762 281.414 387.786 288.067 388.286 288.015C388.686 287.973 389.294 287.033 389.548 286.568C389.706 286.915 389.614 287.993 389.549 288.488C390.485 287.783 390.017 286.064 389.667 285.293C395.053 291.92 391.964 295.593 389.747 296.601C387.511 296.163 382.754 295.731 381.607 297.509C380.174 299.732 380.897 299.403 378.136 301.007C375.927 302.291 376.62 307.398 377.242 309.791L378.36 312.25L375.073 310.778C374.978 307.191 372.473 305.444 371.233 305.019C367.856 305.576 369.493 312.965 370.734 316.59Z" fill="#393939"/>
<path d="M396.604 398.253L388.533 350.214L379.289 345.259L381.343 398.777L396.604 398.253Z" fill="#2E27B6"/>
<path d="M345.016 415.567C342.237 367.981 356.426 334.605 363.868 323.865L366.348 322.873C398.099 327.632 433.31 306.926 444.555 302.96L451.414 310.676C409.497 341.873 388.83 352.615 382.224 352.615C387.681 369.964 387.185 391.279 385.697 402.679C384.506 411.8 377.593 415.072 374.286 415.567H345.016Z" fill="#7873D7"/>
<rect x="38.0293" y="562.84" width="823.978" height="8.45105" rx="4.22553" fill="#4147C9"/>
<g opacity="0.5">
<path fill-rule="evenodd" clip-rule="evenodd" d="M75.5071 27.2287C79.9708 11.5118 94.4298 0 111.578 0C129.785 0 144.96 12.978 148.359 30.1878C151.464 29.1216 154.796 28.5428 158.262 28.5428C175.095 28.5428 188.74 42.1882 188.74 59.0207C188.74 73.4393 178.728 85.5194 165.277 88.6876C163.761 89.2132 162.134 89.4987 160.439 89.4987H31.7549C23.6059 89.4987 16.9998 82.8926 16.9998 74.7435C16.9998 66.5945 23.6059 59.9883 31.755 59.9883H40.2357C39.5951 57.6787 39.2528 55.2451 39.2528 52.7315C39.2528 37.7693 51.3821 25.64 66.3443 25.64C69.5602 25.64 72.6453 26.2003 75.5071 27.2287Z" fill="#E1E4FE"/>
<path fill-rule="evenodd" clip-rule="evenodd" d="M113.874 43.6716C118.338 27.9547 132.797 16.4429 149.945 16.4429C168.152 16.4429 183.328 29.4208 186.726 46.6307C189.831 45.5645 193.163 44.9857 196.63 44.9857C213.462 44.9857 227.107 58.6311 227.107 75.4636C227.107 89.8821 217.095 101.962 203.644 105.13C202.128 105.656 200.501 105.942 198.807 105.942H70.1221C61.9731 105.942 55.367 99.3355 55.367 91.1864C55.367 83.0373 61.9731 76.4312 70.1221 76.4312H78.6029C77.9623 74.1216 77.62 71.688 77.62 69.1744C77.62 54.2121 89.7493 42.0829 104.711 42.0829C107.927 42.0829 111.012 42.6432 113.874 43.6716Z" fill="#EDEEF9"/>
</g>
<defs>
<filter id="filter0_d" x="378.213" y="264.125" width="342.421" height="45.6756" filterUnits="userSpaceOnUse" color-interpolation-filters="sRGB">
<feFlood flood-opacity="0" result="BackgroundImageFix"/>
<feColorMatrix in="SourceAlpha" type="matrix" values="0 0 0 0 0 0 0 0 0 0 0 0 0 0 0 0 0 0 127 0"/>
<feOffset dy="4"/>
<feGaussianBlur stdDeviation="4"/>
<feColorMatrix type="matrix" values="0 0 0 0 0 0 0 0 0 0 0 0 0 0 0 0 0 0 0.1 0"/>
<feBlend mode="normal" in2="BackgroundImageFix" result="effect1_dropShadow"/>
<feBlend mode="normal" in="SourceGraphic" in2="effect1_dropShadow" result="shape"/>
</filter>
<filter id="filter1_d" x="380.602" y="449.396" width="342.421" height="32.8429" filterUnits="userSpaceOnUse" color-interpolation-filters="sRGB">
<feFlood flood-opacity="0" result="BackgroundImageFix"/>
<feColorMatrix in="SourceAlpha" type="matrix" values="0 0 0 0 0 0 0 0 0 0 0 0 0 0 0 0 0 0 127 0"/>
<feOffset dy="4"/>
<feGaussianBlur stdDeviation="4"/>
<feColorMatrix type="matrix" values="0 0 0 0 0 0 0 0 0 0 0 0 0 0 0 0 0 0 0.1 0"/>
<feBlend mode="normal" in2="BackgroundImageFix" result="effect1_dropShadow"/>
<feBlend mode="normal" in="SourceGraphic" in2="effect1_dropShadow" result="shape"/>
</filter>
</defs>
</svg>
