<svg width="451" height="455" viewBox="0 0 451 455" fill="none" xmlns="http://www.w3.org/2000/svg">
<path d="M100.928 260.707C95.8993 222.157 119.871 223.299 134.099 229.224C134.867 229.543 135.706 228.893 135.528 228.08C128.168 194.432 115.954 125.378 122.824 103.052C129.536 81.238 156.877 92.5094 171.356 101.837C172.079 102.302 173.025 101.707 172.921 100.854C166.394 47.1416 158.594 4.45708 212.601 0.13649C255.777 -3.31757 259.933 59.6321 256.545 92.8833C256.474 93.5766 257.149 94.104 257.828 93.9456C298.342 84.4922 294.265 114.922 287.05 131.517C276.102 167.281 257.708 236.183 271.722 225.673C285.575 215.283 294.864 221.155 297.895 225.521C297.966 225.622 298.014 225.741 298.04 225.861C324.172 343.925 227.91 352.674 192.894 352.674C157.859 352.674 107.497 311.07 100.928 260.707Z" fill="#82B7FB"/>
<path d="M212.6 48.311C209.44 133.651 209.681 332.238 212.601 429.314L192.894 433.693C199.463 241.001 214.79 -10.811 212.6 48.311Z" fill="#3A5CA6"/>
<path d="M197.271 330.779C176.105 316.182 131.581 280.417 122.822 254.141" stroke="#3A5CA6" stroke-linecap="round"/>
<path d="M208.221 311.069C225.652 299.391 262.319 270.779 269.532 249.758" stroke="#3A5CA6" stroke-linecap="round"/>
<path d="M203.842 192.831C183.92 179.485 142.016 146.786 133.772 122.762" stroke="#3A5CA6" stroke-linecap="round"/>
<path d="M203.842 223.485C216.293 215.144 264.38 135.585 269.532 120.57" stroke="#3A5CA6" stroke-linecap="round"/>
<path d="M146.857 241.004C147.587 255.602 141.164 282.608 109.633 273.849" stroke="#3A5CA6" stroke-width="0.5" stroke-linecap="round"/>
<path d="M177.513 271.656C178.243 286.254 171.82 313.26 140.288 304.501" stroke="#3A5CA6" stroke-width="0.5" stroke-linecap="round"/>
<path d="M173.132 127.137C173.862 141.735 167.439 168.741 135.907 159.982" stroke="#3A5CA6" stroke-width="0.5" stroke-linecap="round"/>
<path d="M230.163 157.797C229.563 168.897 234.845 189.433 260.775 182.772" stroke="#3A5CA6" stroke-width="0.5" stroke-linecap="round"/>
<path d="M238.921 254.141C238.321 265.241 243.603 285.776 269.532 279.116" stroke="#3A5CA6" stroke-width="0.5" stroke-linecap="round"/>
<g filter="url(#filter0_d)">
<path d="M323.664 279.167C424.116 313.831 396.763 397.07 370.53 434.356H135.756C105.839 419.471 40.0784 375.022 16.38 316.307C-13.243 242.912 19.475 147.411 36.7182 122.21C53.9615 97.008 78.2788 100.545 118.955 108.503C159.632 116.462 198.097 235.838 323.664 279.167Z" fill="#FCB435"/>
<path d="M128.854 137.879L125.874 129.836L121.955 122.771C120.15 121.243 113.542 118.096 101.546 117.728C89.5502 117.36 100.349 145.129 107.248 159.059L98.1999 160.648C128.686 190.914 140.761 191.991 127.839 172.381C125.273 168.487 125.778 169.228 125.196 166.568C127.694 167.71 130.019 168.349 131.739 168.356C134.656 168.369 132.56 163.741 131.148 161.425C131.936 161.131 132.292 160.382 131.942 159.751L131.438 158.842L131.981 158.415C132.463 158.036 132.635 157.471 132.422 156.965L132.32 156.724C131.896 155.714 132.501 154.595 133.716 154.141L134.517 153.843C134.979 153.671 135.165 153.218 134.918 152.866L129.817 145.59C129.259 144.795 129.049 143.869 129.218 142.956L129.271 142.67C129.57 141.061 129.428 139.425 128.854 137.879Z" fill="#EE9F86"/>
<path d="M114.375 156.295L111.747 161.262L97.1056 134.425C94.7355 126.739 93.1028 110.905 105.533 109.052C121.07 106.735 127.165 117.61 127.796 117.662C128.3 117.704 128.782 116.442 128.96 115.806C129.278 116.373 129.51 117.98 129.587 118.713C130.571 117.893 129.403 115.166 128.696 113.905C137.845 125.364 135.04 130.11 132.494 131.051C129.453 129.797 123.144 127.885 122.238 130.275C121.106 133.261 121.936 132.955 118.88 134.654C116.436 136.014 119.003 143.931 120.592 147.72L122.844 151.739L118.101 148.64C116.806 143.183 112.988 139.876 111.241 138.904C107.045 138.856 111.582 150.478 114.375 156.295Z" fill="#393939"/>
<path d="M244.255 430.528L239.234 412.026L259.318 405.621L260.035 429.104L244.255 430.528Z" fill="#EDA9A9"/>
<path d="M260.633 426.441C256.631 428.149 247.292 428.576 243.123 428.576H242.498L241.247 446.367H290.65C300.155 446.367 295.444 441.622 291.901 439.25C282.896 439.25 267.303 430.711 260.633 426.441Z" fill="#1D104A"/>
<path d="M253.198 153.549C263.524 160.21 250.944 175.676 243.966 182.138L233.49 176.556C239.176 172.845 236.743 159.202 240.511 159.722C243.415 160.122 242.126 162.113 242.036 165.849C245.373 164.978 249.876 160.044 253.198 153.549Z" fill="#EA8F72"/>
<path d="M163.611 182.776C150.17 170.75 130.893 167.007 122.934 166.859C130.008 168.283 143.98 182.39 143.273 225.663C142.565 268.936 156.537 296.75 163.611 305.247L189.254 274.74C176.167 270.496 165.232 237.306 161.4 221.242L196.971 251.154C199.126 252.966 201.852 253.96 204.667 253.96C209.294 253.96 213.505 251.291 215.48 247.107L245.848 182.776L232.584 175.26L202.841 225.663C196.209 219.326 177.052 194.802 163.611 182.776Z" fill="#4885FC"/>
<path d="M328.764 407.839L313.618 391.732L324.036 378.011L339.201 400.565L328.764 407.839Z" fill="#EDA9A9"/>
<path d="M337.207 392.584C335.206 396.122 328.068 400.498 324.75 402.244L324.252 402.506L335.591 422.423L374.915 401.731C382.482 397.75 375.442 394.551 370.977 393.45C363.809 397.222 345.477 394.444 337.207 392.584Z" fill="#1D104A"/>
<path d="M110.112 301.27L175.548 269.436L241.426 260.594L335.158 386.602L315.262 405.614L221.53 306.576L110.112 301.27Z" fill="#212121"/>
<path d="M237.003 276.953L157.419 289.775L148.576 321.609L212.243 313.65L239.656 423.742L262.646 418.436L237.003 276.953Z" fill="#161616"/>
<path d="M119.84 181.012C129.39 183.134 125.882 172.022 122.934 166.864C130.918 169.795 136.994 176.401 139.249 184.601L165.516 280.116L119.84 274.302L92.8691 164.211C98.6168 168.632 110.289 178.89 119.84 181.012Z" fill="white"/>
<path d="M208.947 274.395C208.342 286.668 188.657 283.506 179.572 280.694L179.169 268.83C185.226 271.899 195.824 262.971 197.258 266.493C198.364 269.208 195.995 269.088 192.714 270.877C195.137 273.332 201.661 274.765 208.947 274.395Z" fill="#EA8F72"/>
<path d="M102.38 171.134L106.909 180.623C111.053 189.305 112.245 199.026 112.194 208.646C111.93 258.071 147.198 280.411 165.379 285.799L132.661 333.549C113.06 319.548 105.022 288.778 99.0093 276.045C93.522 264.425 76.5742 209.469 79.8411 173.752C80.3652 168.022 85.4291 164.07 91.1827 164.07C95.9645 164.07 100.321 166.818 102.38 171.134Z" fill="#4885FC"/>
<path d="M97.0853 266.979C85.3571 260.965 78.0993 212.798 75.1917 180.207C74.4428 171.812 81.145 164.746 89.5729 164.746C97.687 164.746 105.199 171.243 106.278 179.285C107.576 188.961 109.023 203.054 109.023 220.997C109.023 253.538 157.068 265.211 181.091 266.979V284.222C158.837 281.422 110.88 274.053 97.0853 266.979Z" fill="#3B7DFD"/>
<path d="M86.68 260.598C176.875 269.087 217.257 380.564 234.795 434.357H135.757C15.7788 366.677 8.06909 295.502 4.07289 258.61L4.00087 257.945L86.68 260.598Z" fill="#E9941C"/>
</g>
<path d="M430.719 369.393C434.246 376.448 404.558 382.914 389.274 385.266L388.392 367.63C383.983 345.585 383.983 340.294 389.274 341.176C394.565 342.057 398.974 352.639 400.737 346.466C402.501 340.294 389.274 324.421 393.683 312.958C398.092 301.494 406.91 320.012 410.437 317.367C413.964 314.721 407.792 284.74 413.083 282.977C418.373 281.213 419.255 305.903 421.019 297.085C422.782 288.267 436.891 269.75 448.355 276.804C459.818 283.858 428.073 301.494 430.719 305.022C433.364 308.549 451 297.967 451 308.549C451 319.13 421.901 322.658 415.728 327.067C409.555 331.476 435.128 335.885 441.3 338.53C447.473 341.176 445.709 350.875 428.073 351.757C410.437 352.639 406.91 357.048 405.146 361.457C403.383 365.866 426.31 360.575 430.719 369.393Z" fill="#5A87DF"/>
<path d="M428.072 297.082C423.663 300.903 413.963 313.484 410.436 333.236C406.909 352.989 396.033 372.035 391.037 379.09" stroke="#436BAC"/>
<path d="M349.164 368.268C345.637 375.323 375.324 381.789 390.609 384.141L391.491 366.505C395.9 344.46 395.9 339.169 390.609 340.051C385.318 340.932 380.909 351.514 379.146 345.341C377.382 339.169 390.609 323.296 386.2 311.833C381.791 300.369 372.973 318.887 369.446 316.242C365.918 313.596 372.091 283.615 366.8 281.852C361.509 280.088 360.628 304.778 358.864 295.96C357.1 287.142 342.992 268.625 331.528 275.679C320.065 282.733 351.81 300.369 349.164 303.897C346.519 307.424 328.883 296.842 328.883 307.424C328.883 318.005 357.982 321.533 364.155 325.942C370.327 330.351 344.755 334.76 338.583 337.405C332.41 340.051 334.174 349.75 351.81 350.632C369.446 351.514 372.973 355.923 374.736 360.332C376.5 364.741 353.573 359.45 349.164 368.268Z" fill="#5A87DF"/>
<path d="M351.811 295.957C356.22 299.778 365.919 312.359 369.447 332.111C372.974 351.864 383.849 370.91 388.846 377.965" stroke="#1F4FAB"/>
<path d="M409.528 349.932C416.945 349.932 408.55 363.94 403.664 369.478L389.004 385.116C381.837 382.184 366.721 375.538 363.594 372.41C359.684 368.501 364.571 367.524 369.458 366.546C373.367 365.765 371.087 362.311 369.458 360.682C353.039 355.991 347.631 347 346.979 343.09C346.979 342.113 346.979 340.158 350.888 337.226C354.798 334.294 370.435 356.773 369.458 342.113C368.48 327.453 346.002 310.838 346.979 303.997C347.956 297.156 352.843 305.952 361.639 310.838C368.676 314.748 368.48 307.906 367.503 303.997C362.942 298.785 354.407 286.991 356.752 281.518C359.684 274.677 361.639 281.518 369.458 288.36C377.276 295.201 372.39 280.541 370.435 277.609C368.48 274.677 350.888 236.561 382.163 243.402C413.438 250.244 394.868 291.292 393.891 297.156C392.914 303.02 400.732 289.337 412.46 293.246C424.188 297.156 390.959 318.657 390.959 324.521C390.959 330.385 403.664 321.589 409.528 320.612C415.392 319.634 403.664 334.294 400.732 343.09C398.387 350.127 399.755 351.886 400.732 351.886C403.664 353.841 403.664 349.932 409.528 349.932Z" fill="#82B7FB"/>
<path d="M380.21 263.926C382.165 264.252 385.488 275.263 383.142 316.702C380.796 358.141 384.119 373.061 386.073 375.342" stroke="#1E3E75" stroke-width="2" stroke-linejoin="round"/>
<path d="M412.711 393.48H371.045L375.55 438.524H408.77L412.711 393.48Z" fill="#F5AA45"/>
<mask id="mask0" mask-type="alpha" maskUnits="userSpaceOnUse" x="371" y="393" width="42" height="46">
<path d="M412.712 393.477H371.046L375.551 438.52H408.771L412.712 393.477Z" fill="#F5AA45"/>
</mask>
<g mask="url(#mask0)">
<rect width="52.9265" height="15.7653" rx="7.88267" transform="matrix(-1 0 0 1 418.341 385.594)" fill="#C77E1C"/>
</g>
<rect width="52.9265" height="15.7653" rx="7.88267" transform="matrix(-1 0 0 1 418.342 381.09)" fill="#F5AA45"/>
<path d="M411.587 406.992H372.174L373.863 425.01H410.461L411.587 406.992Z" fill="#FFD193"/>
<defs>
<filter id="filter0_d" x="0.000976562" y="102.617" width="398.892" height="351.749" filterUnits="userSpaceOnUse" color-interpolation-filters="sRGB">
<feFlood flood-opacity="0" result="BackgroundImageFix"/>
<feColorMatrix in="SourceAlpha" type="matrix" values="0 0 0 0 0 0 0 0 0 0 0 0 0 0 0 0 0 0 127 0"/>
<feOffset dy="4"/>
<feGaussianBlur stdDeviation="2"/>
<feColorMatrix type="matrix" values="0 0 0 0 0 0 0 0 0 0 0 0 0 0 0 0 0 0 0.25 0"/>
<feBlend mode="normal" in2="BackgroundImageFix" result="effect1_dropShadow"/>
<feBlend mode="normal" in="SourceGraphic" in2="effect1_dropShadow" result="shape"/>
</filter>
</defs>
</svg>
