<svg width="92" height="92" viewBox="0 0 92 92" fill="none" xmlns="http://www.w3.org/2000/svg">
<g filter="url(#filter0_d)">
<circle cx="46" cy="46" r="36" fill="white"/>
</g>
<path d="M34.5254 65.5962L40.1424 58.4326L44.2174 62.8331L34.8558 68.0523L34.5254 65.5962Z" fill="#D9142B"/>
<path fill-rule="evenodd" clip-rule="evenodd" d="M33.8816 70.5088H34.8924C35.5047 69.531 36.7294 66.9064 36.7294 64.2306C36.7294 61.5548 34.8084 59.3871 33.8478 58.6377V59.3951L33.8455 58.6388C32.885 59.3882 31 61.5559 31 64.2317C31 66.9075 32.2247 69.5321 32.837 70.51H33.8816L33.8816 70.5088Z" fill="#FF455B"/>
<mask id="mask0" mask-type="alpha" maskUnits="userSpaceOnUse" x="31" y="58" width="6" height="13">
<path fill-rule="evenodd" clip-rule="evenodd" d="M33.8816 70.5088H34.8924C35.5047 69.531 36.7294 66.9064 36.7294 64.2306C36.7294 61.5548 34.8084 59.3871 33.8478 58.6377V59.3951L33.8455 58.6388C32.885 59.3882 31 61.5559 31 64.2317C31 66.9075 32.2247 69.5321 32.837 70.51H33.8816L33.8816 70.5088Z" fill="#D75720"/>
</mask>
<g mask="url(#mask0)">
<rect x="30.1211" y="62.3223" width="7.70955" height="6.14023" fill="#FFD262"/>
<rect x="24.834" y="62.3223" width="18.2827" height="0.409345" fill="#382FAC"/>
<rect x="24.834" y="68.2568" width="18.2827" height="0.409348" fill="#382FAC"/>
</g>
<path d="M56.7695 65.5952L51.1526 58.4316L47.0775 62.8321L56.4391 68.0513L56.7695 65.5952Z" fill="#D9142B"/>
<path fill-rule="evenodd" clip-rule="evenodd" d="M57.4134 70.5078H56.4037C55.7914 69.53 54.5667 66.9054 54.5667 64.2296C54.5667 61.5538 56.4878 59.3861 57.4483 58.6367V59.0004L57.4494 58.6368C58.4099 59.3862 60.2949 61.5539 60.2949 64.2297C60.2949 66.9055 59.0703 69.5301 58.4579 70.5079H57.4134L57.4134 70.5078Z" fill="#FF455B"/>
<mask id="mask1" mask-type="alpha" maskUnits="userSpaceOnUse" x="54" y="58" width="7" height="13">
<path fill-rule="evenodd" clip-rule="evenodd" d="M57.4134 70.5078H56.4037C55.7914 69.53 54.5667 66.9054 54.5667 64.2296C54.5667 61.5538 56.4878 59.3861 57.4483 58.6367V59.0004L57.4494 58.6368C58.4099 59.3862 60.2949 61.5539 60.2949 64.2297C60.2949 66.9055 59.0703 69.5301 58.4579 70.5079H57.4134L57.4134 70.5078Z" fill="#D75720"/>
</mask>
<g mask="url(#mask1)">
<rect width="7.70955" height="6.14023" transform="matrix(-1 0 0 1 61.1758 62.3213)" fill="#FEB261"/>
<rect width="18.2826" height="0.409348" transform="matrix(-1 0 0 1 66.4629 62.3213)" fill="#382FAC"/>
<rect width="18.2826" height="0.409348" transform="matrix(-1 0 0 1 66.4629 68.2559)" fill="#382FAC"/>
</g>
<path fill-rule="evenodd" clip-rule="evenodd" d="M45.6469 66.312H48.7309C50.6033 62.662 54.3479 52.8649 54.3479 42.8768C54.3479 32.8887 48.4739 24.7972 45.537 22V22.1015L45.5367 22.0002C42.5997 24.7974 36.8359 32.8889 36.8359 42.877C36.8359 52.8651 40.5806 62.6622 42.4529 66.3122H45.6469V66.312Z" fill="#FFD262"/>
<path d="M48.7307 66.312H45.5367V22C48.4737 24.7972 54.3477 32.8887 54.3477 42.8768C54.3477 52.8649 50.603 62.662 48.7307 66.312Z" fill="#FEB261"/>
<mask id="mask2" mask-type="alpha" maskUnits="userSpaceOnUse" x="36" y="22" width="19" height="45">
<path fill-rule="evenodd" clip-rule="evenodd" d="M45.6469 66.312H48.7309C50.6033 62.662 54.3479 52.8649 54.3479 42.8768C54.3479 32.8887 48.4739 24.7972 45.537 22V22.1015L45.5367 22.0002C42.5997 24.7974 36.8359 32.8889 36.8359 42.877C36.8359 52.8651 40.5806 62.6622 42.4529 66.3122H45.6469V66.312Z" fill="#FEFFFB"/>
</mask>
<g mask="url(#mask2)">
<rect x="36.7285" y="20.5674" width="18.2827" height="12.0758" fill="#FF455B"/>
<rect x="36.5078" y="32.4385" width="18.2827" height="1.22805" fill="#382FAC"/>
<rect x="36.5078" y="65.3916" width="18.2827" height="1.22805" fill="#382FAC"/>
</g>
<mask id="mask3" mask-type="alpha" maskUnits="userSpaceOnUse" x="36" y="22" width="19" height="45">
<path fill-rule="evenodd" clip-rule="evenodd" d="M45.6469 66.312H48.7309C50.6033 62.662 54.3479 52.8649 54.3479 42.8768C54.3479 32.8887 48.4739 24.7972 45.537 22V22.1015L45.5367 22.0002C42.5997 24.7974 36.8359 32.8889 36.8359 42.877C36.8359 52.8651 40.5806 62.6622 42.4529 66.3122H45.6469V66.312Z" fill="#FEFFFB"/>
</mask>
<g mask="url(#mask3)">
<ellipse cx="45.5374" cy="39.6024" rx="4.846" ry="4.50284" fill="#363636"/>
<mask id="mask4" mask-type="alpha" maskUnits="userSpaceOnUse" x="40" y="35" width="11" height="10">
<ellipse cx="45.5374" cy="39.6024" rx="4.846" ry="4.50284" fill="white" fill-opacity="0.2"/>
</mask>
<g mask="url(#mask4)">
<path d="M47.6349 31.5723L49.8156 33.5985L39.7198 42.9795L37.5391 40.9532L47.6349 31.5723Z" fill="white" fill-opacity="0.2"/>
<path d="M52.2386 34.4991L41.2543 44.7055L41.9005 45.6061L53.0463 35.2496L52.2386 34.4991Z" fill="white" fill-opacity="0.2"/>
<path d="M53.5309 36.3002L42.9504 46.1314L45.1311 48.3078L55.7923 38.4016L53.5309 36.3002Z" fill="white" fill-opacity="0.2"/>
</g>
</g>
<defs>
<filter id="filter0_d" x="0" y="0" width="92" height="92" filterUnits="userSpaceOnUse" color-interpolation-filters="sRGB">
<feFlood flood-opacity="0" result="BackgroundImageFix"/>
<feColorMatrix in="SourceAlpha" type="matrix" values="0 0 0 0 0 0 0 0 0 0 0 0 0 0 0 0 0 0 127 0"/>
<feOffset/>
<feGaussianBlur stdDeviation="5"/>
<feColorMatrix type="matrix" values="0 0 0 0 0 0 0 0 0 0 0 0 0 0 0 0 0 0 0.25 0"/>
<feBlend mode="normal" in2="BackgroundImageFix" result="effect1_dropShadow"/>
<feBlend mode="normal" in="SourceGraphic" in2="effect1_dropShadow" result="shape"/>
</filter>
</defs>
</svg>
