<svg width="908" height="614" viewBox="0 0 908 614" fill="none" xmlns="http://www.w3.org/2000/svg">
<path d="M133.195 521.742C146.1 647.762 296.712 611.99 384.752 572.523C396.227 567.38 408.565 564.342 421.05 562.845C451.539 559.189 512.637 548.121 609.987 521.742C767.227 479.135 907.221 70.3108 674.912 11.4726C442.602 -47.3657 368.548 132.192 320.868 275.23C273.189 418.268 115.949 353.343 133.195 521.742Z" fill="#EAEDFE"/>
<g opacity="0.9">
<path d="M40.3219 404.795C42.4277 414.185 37.3331 434.655 0.107676 441.413C1.41187 431.555 11.2806 410.43 40.3219 404.795Z" fill="#5A92FF"/>
<path d="M237.23 534.394C220.649 506.129 173.712 441.011 118.612 406.654C49.7374 363.706 68.8693 294.33 84.1748 276.711" stroke="black"/>
<path d="M116.705 405.552C107.458 398.945 77.1018 389.694 41.1338 405.552M661.008 481.535C687.474 473.46 744.423 431.761 760.494 329.568" stroke="black"/>
<path d="M79.7834 283.224C75.6381 274.781 75.957 253.491 110.394 235.872C111.351 245.783 106.568 269.129 79.7834 283.224Z" fill="#5A92FF"/>
<path d="M758.969 331.81C755.88 325.52 756.118 309.659 781.773 296.533C782.486 303.917 778.923 321.309 758.969 331.81Z" fill="#436DBF"/>
<path d="M755.137 283.53C756.706 290.526 752.911 305.775 725.178 310.81C726.15 303.466 733.502 287.728 755.137 283.53Z" fill="#436DBF"/>
<path d="M666.745 397.844C666.745 377.289 678.99 330.671 727.967 308.646" stroke="black"/>
<path d="M694.485 332.873C702.138 320.76 712.278 290.807 691.615 267.902" stroke="black"/>
<path d="M692.238 269.63C686.191 267.696 676.616 256.288 686.695 226.123C691.734 230.763 699.897 245.962 692.238 269.63Z" fill="#436DBF"/>
<path d="M181.943 494.164C256.042 565.739 304.915 549.776 319.249 535.417C328.07 519.953 254.193 368.63 138.413 338.808C22.6326 308.985 -5.24938 384.494 29.2422 406.443C47.1113 417.814 152.702 456.801 181.943 494.164Z" fill="#123B8E"/>
<path d="M298.906 521.78C284.123 477.762 214.042 388.846 51.9854 385.324" stroke="#041335"/>
<path d="M737.508 549.79C729.054 559.85 654.141 557.115 617.741 554.49L615.795 557.691C624.254 526.547 642.018 458.784 645.398 436.877C649.624 409.494 706.234 436.566 711.17 397.196C716.106 357.826 718.303 348.203 732.24 345.709C746.178 343.216 755.327 391.87 781.733 343.624C808.14 295.378 840.452 301.121 850.728 302.248C861.003 303.374 868.705 305.129 818.023 365.661C767.342 426.194 802.372 405.83 813.677 452.14C824.981 498.451 756.464 493.367 742.338 491.362C728.212 489.358 748.076 537.214 737.508 549.79Z" fill="#435DB4"/>
<path fill-rule="evenodd" clip-rule="evenodd" d="M737.003 433.897C749.796 387.771 788.578 362.687 806.342 355.924L805.987 354.989C788.03 361.825 748.944 387.103 736.04 433.629C732.026 448.102 728.77 458.136 725.753 465.192C722.735 472.25 719.974 476.281 716.975 478.791C713.983 481.295 710.707 482.327 706.54 483.287C705.714 483.477 704.855 483.665 703.957 483.86L703.957 483.86C700.692 484.571 696.927 485.391 692.492 486.858L690.412 441.457L689.413 441.503L691.506 487.191C691.336 487.25 691.166 487.31 690.994 487.37C680.731 490.99 673.187 499.25 667.931 508.043C662.673 516.839 659.67 526.225 658.513 532.197L659.495 532.387C660.632 526.515 663.598 517.241 668.789 508.556C673.983 499.868 681.37 491.825 691.326 488.313C696.354 486.54 700.527 485.631 704.148 484.842L704.15 484.842C705.054 484.645 705.924 484.455 706.764 484.262C710.963 483.294 714.435 482.221 717.617 479.558C720.791 476.901 723.628 472.703 726.672 465.585C729.717 458.465 732.987 448.378 737.003 433.897Z" fill="#2F4CAC"/>
<path d="M614.181 404.818C559.028 510.372 616.461 545.137 652.072 549.326C658.809 550.524 665.404 546.684 667.86 544.614C694.384 500.633 669.088 455.78 653.124 438.851L643.652 441.992V430.997L628.916 417.907L614.181 404.818Z" fill="#6A91E0"/>
<path fill-rule="evenodd" clip-rule="evenodd" d="M618.71 455.053C619.842 461.761 621.233 468.628 622.921 475.458C629.299 501.261 639.949 526.652 657.066 541.022L657.709 540.256C653.803 536.977 650.234 533.11 646.977 528.783L658.92 483.607L657.953 483.351L646.214 527.754C639.841 519.019 634.687 508.511 630.553 497.235L630.601 497.248L642.663 454.247L641.7 453.977L629.998 495.698C627.629 489.052 625.607 482.158 623.892 475.218C622.211 468.416 620.826 461.577 619.698 454.895L627.978 424.88L627.014 424.614L619.31 452.541C616.464 434.837 615.411 418.408 615.411 406.917H614.411C614.411 418.917 615.553 436.267 618.675 454.843L618.624 455.029L618.71 455.053Z" fill="#4773CC"/>
<path d="M190.681 544.497H215.109H239.539C246.572 511.555 255.529 425.24 243.981 396.814C229.546 361.282 226.214 329.081 152.928 326.86C91.3476 324.994 152.557 474.542 190.681 544.497Z" fill="#2F4CAC"/>
<path fill-rule="evenodd" clip-rule="evenodd" d="M214.18 535.405C212.295 516.167 209.307 490.73 205.391 464.871C205.088 459.627 205.519 452.542 207.195 445.577C209.516 435.933 214.184 426.686 222.413 422.788L221.985 421.884C213.336 425.981 208.565 435.611 206.223 445.343C205.154 449.784 204.582 454.282 204.383 458.343C203.599 453.356 202.781 448.371 201.93 443.43C199.145 427.262 196.01 411.556 192.567 397.761L192.68 397.714C192.599 397.518 192.506 397.312 192.401 397.096C192.018 395.572 191.631 394.071 191.24 392.597C187.275 377.636 182.916 365.286 178.211 357.668L177.36 358.194C181.983 365.678 186.312 377.904 190.273 392.853C190.391 393.297 190.508 393.743 190.625 394.191C186.898 389.032 178.762 381.688 164.603 377.44L164.315 378.398C181.115 383.438 189.181 392.856 191.457 397.442C194.947 411.338 198.124 427.225 200.944 443.599C202.163 450.676 203.314 457.842 204.395 464.977C204.515 467.016 204.744 468.791 205.056 470.191L205.17 470.166C209.254 497.924 212.247 524.75 213.931 543.412L214.423 543.367L214.929 543.376C215.114 533.395 215.946 518.54 217.838 506.413C218.785 500.343 219.992 494.99 221.502 491.277C222.259 489.417 223.075 488.01 223.94 487.128C224.793 486.259 225.649 485.938 226.545 486.117L226.741 485.137C225.417 484.872 224.237 485.397 223.226 486.428C222.227 487.446 221.352 488.992 220.576 490.9C219.021 494.724 217.8 500.169 216.85 506.259C215.405 515.52 214.576 526.349 214.18 535.405ZM204.774 503.679C210.107 519.482 212.891 534.398 213.82 543.317L212.825 543.421C211.904 534.574 209.135 519.731 203.827 503.999C198.517 488.263 190.678 471.678 179.638 459.312L180.384 458.646C191.551 471.153 199.443 487.88 204.774 503.679Z" fill="#293159"/>
<path d="M790.933 449.911C753.623 488.257 752.069 536.708 755.955 556.14H685.999C685.999 500.434 708.023 471.934 731.341 447.32C754.66 422.706 837.57 401.978 790.933 449.911Z" fill="#F7A333"/>
<path d="M715.153 547.903C715.153 524.153 726.812 468.102 773.449 433.901" stroke="white"/>
</g>
<path d="M669.386 384.993C673.905 350.35 652.486 351.207 639.618 356.49C638.849 356.806 638.01 356.15 638.188 355.337C644.837 324.884 655.805 262.758 649.615 242.643C643.583 223.036 619.093 233.032 605.975 241.43C605.251 241.894 604.304 241.299 604.408 240.446C610.296 192.048 617.247 153.614 568.554 149.718C529.63 146.605 525.829 203.263 528.863 233.323C528.933 234.016 528.26 234.546 527.581 234.389C491.146 225.954 494.826 253.38 501.333 268.344C511.218 300.637 527.826 362.85 515.172 353.359C502.68 343.99 494.299 349.267 491.551 353.208C491.48 353.309 491.432 353.427 491.405 353.548C467.824 460.132 554.733 468.031 586.348 468.031C617.982 468.031 663.455 430.466 669.386 384.993Z" fill="#8EBEFB"/>
<path d="M568.556 193.215C571.41 270.271 571.192 449.579 568.555 537.23L586.349 541.184C580.418 367.199 566.579 139.833 568.556 193.215Z" fill="#0F287A"/>
<path d="M582.395 448.261C601.507 435.08 641.708 402.788 649.616 379.062" stroke="#0F287A" stroke-linecap="round"/>
<path d="M572.508 430.468C556.769 419.923 523.662 394.089 517.149 375.109" stroke="#0F287A" stroke-linecap="round"/>
<path d="M576.462 323.704C594.45 311.653 632.286 282.129 639.729 260.437" stroke="#0F287A" stroke-linecap="round"/>
<path d="M576.462 351.383C565.22 343.851 521.801 272.017 517.149 258.459" stroke="#0F287A" stroke-linecap="round"/>
<path d="M627.915 367.2C627.256 380.381 633.055 404.765 661.525 396.857" stroke="#0F287A" stroke-width="0.5" stroke-linecap="round"/>
<path d="M600.235 394.879C599.576 408.06 605.375 432.444 633.846 424.536" stroke="#0F287A" stroke-width="0.5" stroke-linecap="round"/>
<path d="M604.19 264.391C603.531 277.571 609.331 301.956 637.801 294.047" stroke="#0F287A" stroke-width="0.5" stroke-linecap="round"/>
<path d="M552.697 292.07C553.239 302.093 548.47 320.635 525.058 314.621" stroke="#0F287A" stroke-width="0.5" stroke-linecap="round"/>
<path d="M544.79 379.062C545.332 389.085 540.563 407.627 517.151 401.613" stroke="#0F287A" stroke-width="0.5" stroke-linecap="round"/>
<path d="M440.507 437.511C443.621 413.635 429.226 413.723 420.126 417.23C419.349 417.529 418.51 416.851 418.686 416.038C423.376 394.402 430.91 351.368 426.595 337.346C422.434 323.823 405.794 330.313 396.443 336.142C395.714 336.596 394.759 336.005 394.864 335.152C398.988 301.402 403.601 274.683 369.556 271.96C342.35 269.783 339.529 309.106 341.585 330.361C341.652 331.055 340.989 331.595 340.309 331.443C315.116 325.812 317.702 344.958 322.256 355.431C329.212 378.154 340.898 421.93 331.994 415.252C323.252 408.695 317.37 412.332 315.404 415.1C315.333 415.201 315.285 415.32 315.258 415.441C298.708 490.386 359.836 495.941 382.077 495.941C404.336 495.941 436.333 469.508 440.507 437.511Z" fill="#8EBEFB"/>
<path d="M369.557 302.567C371.565 356.787 371.411 482.957 369.556 544.633L382.077 547.416C377.904 424.991 368.166 265.004 369.557 302.567Z" fill="#3A5CA6"/>
<path d="M379.295 482.03C392.743 472.755 421.031 450.033 426.595 433.338" stroke="#3A5CA6" stroke-linecap="round"/>
<path d="M372.339 469.509C361.264 462.089 337.968 443.911 333.386 430.556" stroke="#3A5CA6" stroke-linecap="round"/>
<path d="M375.12 394.385C387.777 385.906 414.401 365.131 419.638 349.867" stroke="#3A5CA6" stroke-linecap="round"/>
<path d="M375.12 413.861C367.209 408.561 336.658 358.015 333.384 348.475" stroke="#3A5CA6" stroke-linecap="round"/>
<path d="M411.326 424.991C410.862 434.266 414.943 451.424 434.976 445.859" stroke="#3A5CA6" stroke-width="0.5" stroke-linecap="round"/>
<path d="M391.85 444.468C391.386 453.742 395.467 470.9 415.5 465.336" stroke="#3A5CA6" stroke-width="0.5" stroke-linecap="round"/>
<path d="M394.631 352.649C394.167 361.924 398.248 379.082 418.281 373.517" stroke="#3A5CA6" stroke-width="0.5" stroke-linecap="round"/>
<path d="M358.4 372.125C358.781 379.178 355.425 392.225 338.951 387.993" stroke="#3A5CA6" stroke-width="0.5" stroke-linecap="round"/>
<path d="M352.834 433.338C353.216 440.391 349.86 453.438 333.386 449.206" stroke="#3A5CA6" stroke-width="0.5" stroke-linecap="round"/>
<path d="M316.518 440.01C317.483 429.704 301.71 426.458 293.103 426.788L291.098 436.824C297.618 437.323 302.118 447.114 304.282 444.258C305.949 442.058 303.765 441.59 301.216 439.162C303.73 437.688 311.267 439.263 315.143 440.773C315.751 441.009 316.458 440.659 316.518 440.01Z" fill="#EE9F86"/>
<path d="M313.748 546.891V524.485L327.937 525.775L328.582 546.891H313.748Z" fill="#EE9F86"/>
<path d="M329.12 544.497C325.521 546.032 317.123 546.416 313.374 546.416H312.812L311.688 562.413H356.111C364.658 562.413 360.422 558.148 357.236 556.015C349.138 556.015 335.118 548.336 329.12 544.497Z" fill="#1D104A"/>
<path d="M268.505 528.227L279.267 508.574L291.093 516.52L281.517 535.351L268.505 528.227Z" fill="#F3AEAE"/>
<path d="M283.138 533.509C279.243 533.127 271.694 529.431 268.405 527.631L267.912 527.361L259.243 540.852L298.207 562.188C305.704 566.293 304.037 560.516 302.267 557.115C295.164 553.226 286.555 539.757 283.138 533.509Z" fill="#1D104A"/>
<path d="M238.195 476.112C209.301 476.628 206.808 446.659 209.173 435.479H266.574C285.493 438.919 325.266 446.315 333.006 448.379C340.746 450.443 342.68 458.268 342.68 461.923L332.327 536.739H310.432L313.498 484.106L286.569 532.224L266.54 521.905L288.716 473.072C273.549 474.476 255.026 475.812 238.195 476.112Z" fill="#79C7CE"/>
<mask id="mask0" mask-type="alpha" maskUnits="userSpaceOnUse" x="208" y="435" width="135" height="102">
<path d="M238.195 476.112C209.301 476.628 206.808 446.659 209.173 435.479H266.574C285.493 438.919 325.266 446.315 333.006 448.379C340.746 450.443 342.68 458.268 342.68 461.923L332.327 536.739H310.432L313.498 484.106L286.569 532.224L266.54 521.905L288.716 473.072C273.549 474.476 255.026 475.812 238.195 476.112Z" fill="#79C7CE"/>
</mask>
<g mask="url(#mask0)">
<path d="M314.266 472.243L288.468 473.533L252.35 519.325L285.243 539.319L312.331 498.041L314.266 472.243Z" fill="#5DB3BB"/>
</g>
<path d="M268.286 328.253C268.762 327.421 269.056 326.429 269.255 325.399C269.98 321.63 269.286 317.61 267.907 314.029C252.296 301.143 241.554 315.024 238.134 323.575L235.056 350.216L248.97 354.051L249.958 346.116C252.043 344.727 254.207 345.913 258.782 347.884C263.356 349.855 263.358 345.337 263.648 344.642C263.819 344.231 264.613 343.753 265.281 343.422C265.6 343.264 265.723 342.86 265.525 342.564C265.352 342.305 265.423 341.954 265.682 341.781L266.08 341.516C266.487 341.245 266.651 340.728 266.475 340.272L266.303 339.827C266.172 339.489 266.279 339.105 266.566 338.883L268.129 337.678C268.901 337.083 269.121 336.022 268.743 335.123C267.888 333.092 267.136 330.265 268.286 328.253Z" fill="#EE9F86"/>
<path fill-rule="evenodd" clip-rule="evenodd" d="M276.006 312.825C276.29 312.298 276.502 311.72 276.626 311.102C277.298 307.75 275.124 304.487 271.771 303.815C269.93 303.447 268.116 303.936 266.744 305.007C265.896 304.114 264.774 303.465 263.475 303.205C262.461 303.002 261.455 303.059 260.526 303.331C259.724 302.08 258.435 301.144 256.863 300.829C255.135 300.483 253.433 300.961 252.165 301.993L252.14 301.988C250.955 301.75 249.781 301.868 248.729 302.268C248.181 301.764 247.493 301.399 246.71 301.242C244.931 300.885 243.19 301.71 242.297 303.174C238.99 302.582 235.802 304.743 235.138 308.053C235.068 308.404 235.029 308.755 235.019 309.101C232.658 308.848 230.451 310.434 229.976 312.807C229.959 312.893 229.944 312.979 229.932 313.065C228.544 313.636 227.459 314.868 227.143 316.449C226.909 317.615 227.134 318.767 227.694 319.717C226.811 320.378 226.16 321.354 225.926 322.521C225.675 323.773 225.954 325.009 226.607 325.996C226.326 326.361 226.123 326.794 226.026 327.276C225.727 328.767 226.554 330.222 227.92 330.762C228.05 331.039 228.196 331.308 228.357 331.567C227.547 332.224 226.953 333.156 226.732 334.258C226.229 336.773 227.859 339.22 230.373 339.723C232.114 340.072 233.823 339.398 234.876 338.116C235.247 339.066 236.079 339.814 237.153 340.029C238.83 340.365 240.461 339.278 240.797 337.601C240.854 337.317 240.87 337.033 240.849 336.757C241.439 336.652 241.982 336.376 242.415 335.974C242.649 337.167 243.579 338.159 244.845 338.413C246.521 338.749 248.153 337.662 248.489 335.986C248.559 335.633 248.567 335.282 248.519 334.944C249.894 333.6 250.506 332.242 248.186 332.242C245.576 332.241 245.14 330.14 245.483 327.892C245.867 325.382 248.216 323.356 250.676 323.987C253.473 324.704 254.207 327.175 254.157 328.702C256.423 329.998 259.285 324.116 260.433 321.014C262.458 322.171 265.925 321.155 267.893 320.3C268.492 320.7 269.177 320.991 269.927 321.142C273.001 321.757 275.991 319.765 276.607 316.692C276.882 315.318 276.637 313.961 276.006 312.825Z" fill="#393939"/>
<path d="M207.244 431.526C206.316 434.893 207.774 435.708 208.933 436.175C224.201 436.175 256.061 437.138 258.844 437.138C261.627 437.138 261.937 436.203 261.743 435.735C261.279 432.368 255.706 419.413 255.899 415.438C256.896 394.943 266.331 390.702 264.579 379.632C262.828 368.562 263.179 358.316 249.389 351.421C238.539 345.997 237.798 345.637 231.594 347.424C227.536 348.593 219.071 353.877 217.68 365.662C215.94 380.393 208.403 427.318 207.244 431.526Z" fill="#FC7383"/>
<path d="M232.486 423.567V384.823L252.553 385.826L251.658 411.774C251.595 413.622 252.806 415.272 254.588 415.766L293.19 426.463L293.691 436.998L235.838 427.514C233.905 427.197 232.486 425.526 232.486 423.567Z" fill="#EE9F86"/>
<path d="M231.033 369.423C231.806 362.019 238.436 356.643 245.841 357.417V357.417C253.246 358.191 258.621 364.821 257.847 372.225L255.414 395.512L228.6 392.71L231.033 369.423Z" fill="#F55669"/>
<path fill-rule="evenodd" clip-rule="evenodd" d="M334.875 449.668L360.378 405.497L353.322 401.423L330.125 441.601L284.823 434.361L283.682 441.502L334.784 449.669L334.792 449.62L334.875 449.668Z" fill="#C4C4C4"/>
<rect x="150.155" y="532.213" width="9.63739" height="35.9262" rx="4.81869" transform="rotate(-9.56068 150.155 532.213)" fill="#10256B"/>
<rect x="153.023" y="523.482" width="14.2023" height="52.9433" rx="7.10117" transform="rotate(-9.56068 153.023 523.482)" fill="#041345"/>
<rect x="153.6" y="523.892" width="13.2023" height="51.9433" rx="6.60117" transform="rotate(-9.56068 153.6 523.892)" stroke="white" stroke-opacity="0.04"/>
<path fill-rule="evenodd" clip-rule="evenodd" d="M249.167 583.972C280.401 586.946 308.132 564.037 311.106 532.804C314.08 501.57 291.171 473.839 259.937 470.865C234.557 468.448 211.49 483.122 202.139 505.466C196.423 512.855 189.801 519.164 181.841 520.495L195.691 567.671C197.149 567.809 198.603 567.91 200.064 568.01C206.087 568.425 212.236 568.849 219.368 572.029C227.657 578.58 237.867 582.896 249.167 583.972Z" fill="#FD8221"/>
<mask id="mask1" mask-type="alpha" maskUnits="userSpaceOnUse" x="176" y="463" width="141" height="127">
<path fill-rule="evenodd" clip-rule="evenodd" d="M249.167 583.972C280.401 586.946 308.132 564.037 311.106 532.804C314.08 501.57 291.171 473.839 259.937 470.865C234.557 468.448 211.49 483.122 202.139 505.466C196.423 512.855 189.801 519.164 181.841 520.495L195.691 567.671C197.149 567.809 198.603 567.91 200.064 568.01C206.087 568.425 212.236 568.849 219.368 572.029C227.657 578.58 237.867 582.896 249.167 583.972Z" fill="#FFB80B"/>
</mask>
<g mask="url(#mask1)">
<path fill-rule="evenodd" clip-rule="evenodd" d="M247.533 579.74C278.767 582.714 306.498 559.805 309.472 528.572C312.446 497.338 289.537 469.607 258.304 466.633C232.923 464.216 209.856 478.89 200.506 501.234C194.789 508.623 188.167 514.932 180.207 516.263L194.057 563.439C195.516 563.578 196.969 563.678 198.43 563.778C204.453 564.193 210.602 564.617 217.734 567.797C226.023 574.348 236.233 578.664 247.533 579.74Z" fill="#FDAC1A"/>
</g>
<path d="M234.941 523.712L191.084 534.822L192.334 543.093L237.923 535.206C250.442 535.718 272.509 540.129 278.318 539.052C284.128 537.975 281.059 535.237 278.799 534.003L255.027 529.831C253.827 529.62 253.975 527.853 255.194 527.846L278.38 527.703C282.612 526.068 278.428 523.632 276.649 524.481L257.818 525.881C256.581 525.974 256.316 524.176 257.528 523.908L277.116 519.576C283.31 514.459 277.933 514.558 274.471 515.248L253.756 522.053C252.615 522.428 252.207 521.417 253.295 520.908C260.357 517.603 269.566 513.252 272.836 511.016C276.529 506.476 273.284 506.303 271.201 506.784L246.711 523.895C245.881 524.474 245.473 524.031 246.175 523.301C250.879 518.409 261.026 508.184 263.314 503.995C266.276 498.57 262.721 499.523 260.573 500.677L234.941 523.712Z" stroke="#FFDC87" stroke-width="0.3"/>
<rect x="165.528" y="520.598" width="14.2023" height="52.9433" rx="7.10117" transform="rotate(-9.56068 165.528 520.598)" fill="#041345"/>
<rect x="166.104" y="521.008" width="13.2023" height="51.9433" rx="6.60117" transform="rotate(-9.56068 166.104 521.008)" stroke="white" stroke-opacity="0.04"/>
<rect x="178.03" y="517.711" width="14.2023" height="52.9433" rx="7.10117" transform="rotate(-9.56068 178.03 517.711)" fill="#041345"/>
<rect x="178.606" y="518.121" width="13.2023" height="51.9433" rx="6.60117" transform="rotate(-9.56068 178.606 518.121)" stroke="white" stroke-opacity="0.04"/>
<ellipse cx="238.112" cy="486.019" rx="6.08671" ry="11.159" transform="rotate(77.8148 238.112 486.019)" fill="white" fill-opacity="0.31"/>
<rect x="699.032" y="585.85" width="13.5034" height="50.338" rx="6.75171" transform="rotate(-90 699.032 585.85)" fill="#10256B"/>
<rect x="687.638" y="579.853" width="19.8996" height="74.1815" rx="9.9498" transform="rotate(-90 687.638 579.853)" fill="#011042"/>
<rect x="688.138" y="579.353" width="18.8996" height="73.1815" rx="9.4498" transform="rotate(-90 688.138 579.353)" stroke="white" stroke-opacity="0.04"/>
<path fill-rule="evenodd" clip-rule="evenodd" d="M793.592 461.089C804.97 418.626 779.77 374.979 737.307 363.601C694.844 352.224 651.198 377.423 639.82 419.886C630.574 454.392 645.481 489.68 674.179 507.798C683.057 517.416 690.232 528.033 690.219 539.341L758.624 531.183C759.155 529.2 759.632 527.215 760.111 525.219C762.086 516.994 764.103 508.596 770.156 499.483C781.136 489.554 789.476 476.451 793.592 461.089Z" fill="#FD8221"/>
<mask id="mask2" mask-type="alpha" maskUnits="userSpaceOnUse" x="613" y="343" width="202" height="217">
<path fill-rule="evenodd" clip-rule="evenodd" d="M793.592 461.089C804.97 418.626 779.77 374.979 737.307 363.601C694.844 352.224 651.198 377.423 639.82 419.886C630.574 454.392 645.481 489.68 674.179 507.798C683.057 517.416 690.232 528.033 690.219 539.341L758.624 531.183C759.155 529.2 759.632 527.215 760.111 525.219C762.086 516.994 764.103 508.596 770.156 499.483C781.136 489.554 789.476 476.451 793.592 461.089Z" fill="#FD8221"/>
</mask>
<g mask="url(#mask2)">
<path fill-rule="evenodd" clip-rule="evenodd" d="M787.364 462.363C798.742 419.9 773.543 376.253 731.08 364.875C688.617 353.497 644.97 378.697 633.592 421.16C624.346 455.666 639.254 490.954 667.951 509.072C676.829 518.69 684.005 529.307 683.991 540.615L752.396 532.457C752.928 530.474 753.404 528.488 753.883 526.493C755.859 518.268 757.875 509.87 763.929 500.757C774.908 490.828 783.248 477.725 787.364 462.363Z" fill="#FDAC1A"/>
</g>
<path d="M707.021 466.722L712.164 529.905L723.884 530.102L723.595 465.277C727.217 448.099 738.447 418.636 738.31 410.359C738.174 402.081 733.677 405.683 731.446 408.519L718.663 444.587C718.256 445.736 716.539 445.296 716.734 444.093L722.644 407.632C721.37 401.405 717.03 406.618 717.789 409.275L714.825 441.179C714.711 442.414 712.894 442.376 712.831 441.137L711.12 407.488C705.492 397.739 704.378 405.191 704.525 410.135L709.683 444.141C709.863 445.329 708.769 445.582 708.447 444.424C705.468 433.692 700.912 417.067 698.297 411.409C692.884 405.25 691.89 409.693 692.07 412.684L710.628 451.801C711.062 452.716 710.528 453.062 709.921 452.251C704.678 445.254 691.916 427.288 686.38 422.932C679.575 417.576 680.063 422.711 681.158 425.947L707.021 466.722Z" stroke="#FFDC87" stroke-width="0.3"/>
<rect x="686.562" y="561.906" width="19.8996" height="74.1815" rx="9.9498" transform="rotate(-90 686.562 561.906)" fill="#011042"/>
<rect x="687.062" y="561.406" width="18.8996" height="73.1815" rx="9.4498" transform="rotate(-90 687.062 561.406)" stroke="white" stroke-opacity="0.04"/>
<rect x="685.484" y="543.959" width="19.8996" height="74.1815" rx="9.9498" transform="rotate(-90 685.484 543.959)" fill="#011042"/>
<rect x="685.984" y="543.459" width="18.8996" height="73.1815" rx="9.4498" transform="rotate(-90 685.984 543.459)" stroke="white" stroke-opacity="0.04"/>
<ellipse cx="655.677" cy="453.569" rx="8.5284" ry="15.6354" transform="rotate(-2.62454 655.677 453.569)" fill="white" fill-opacity="0.31"/>
<path d="M716.81 579.791C721.467 571.963 721.125 568.002 720.372 566.999L717.734 560.984L728.64 558.906C728.767 560.535 729.134 564.51 729.588 567.368C730.155 570.941 733.543 574.511 740.319 580.711C747.094 586.912 738.821 589.364 730.916 581.66C723.011 573.956 720.571 579.788 718.315 580.542C716.51 581.145 716.559 580.293 716.81 579.791Z" fill="#EE9F86"/>
<path d="M628.493 512.745L678.931 555.786L663.403 574.253L628.014 546.883L598.066 582.472L583.831 574.253L620.99 513.926C622.599 511.314 626.159 510.753 628.493 512.745Z" fill="#332D7B"/>
<path d="M533.624 577.164L553.29 577.164L552.158 564.71L533.624 564.144L533.624 577.164Z" fill="#EE9F86"/>
<path d="M535.726 563.671C534.378 566.83 534.041 574.2 534.041 577.491L534.041 577.984L520 578.971L520 539.981C520 532.479 523.744 536.197 525.616 538.994C525.616 546.101 532.356 558.407 535.726 563.671Z" fill="#1D104A"/>
<path d="M682.33 588.207C707.691 588.659 709.735 561.246 707.659 551.434L657.422 552.043C643.257 554.619 616.206 555.224 604.697 555.346C601.753 555.377 598.834 555.735 595.979 556.449L593.485 557.072L543.104 560.469L543.632 579.557C555.708 578.802 564.327 582.01 581.989 583.821C599.651 585.633 609.504 585.565 615.532 583.112C627.231 584.621 656.97 587.754 682.33 588.207Z" fill="#5F5CB0"/>
<path d="M605.68 556.287C601.634 549.863 611.577 541.534 617.303 538.515L623.525 544.328C618.896 545.844 618.049 555.749 615.534 554.69C613.597 553.873 614.859 552.733 615.616 550.161C613.466 550.147 609.299 553.812 607.238 556.288C606.821 556.79 606.028 556.839 605.68 556.287Z" fill="#EE9F86"/>
<path d="M667.335 466.434C666.111 464.403 666.825 443.587 667.335 433.434L674.987 433.434L683.659 466.434L667.335 466.434Z" fill="#393939"/>
<path d="M665.416 437.748C665.244 436.829 665.29 435.819 665.437 434.806C665.974 431.099 667.9 427.614 670.318 424.753C688.836 417.867 694.299 434.104 694.716 443.083L689.03 468.634L674.972 467.716L676.601 460.084C675.122 458.136 672.748 458.537 667.899 458.891C663.05 459.244 664.494 455.078 664.449 454.344C664.423 453.91 663.843 453.215 663.334 452.697C663.09 452.449 663.106 452.037 663.383 451.827C663.625 451.643 663.673 451.298 663.489 451.055L663.206 450.683C662.918 450.303 662.932 449.774 663.241 449.41L663.542 449.055C663.771 448.785 663.795 448.396 663.601 448.1L662.567 446.523C662.033 445.707 662.174 444.633 662.824 443.907C664.255 442.307 665.831 439.958 665.416 437.748Z" fill="#EE9F86"/>
<path d="M671.137 427.972C670.924 433.02 673.471 440.598 685.246 440.598C686.739 440.396 689.598 441.082 689.086 445.444C688.446 450.895 687.806 454.53 689.726 460.588C690.75 463.98 691.859 465.232 692.286 465.434L706.365 465.434C708.072 446.049 703.165 409.098 669.887 416.367C666.048 417.983 660.556 421.72 663.488 427.271C664.763 429.683 670.264 430.695 671.155 427.915L671.137 427.972Z" fill="#393939"/>
<path d="M647.827 498.101C657.181 479.819 671.328 467.907 675.58 464.01C679.654 474.816 680.991 500.758 666.96 519.891C652.929 539.024 630.997 545.579 621.785 546.465L615.408 538.493C622.317 532.646 638.473 516.384 647.827 498.101Z" fill="#182E79"/>
<path d="M666.428 552.311C661.751 533.603 671.682 485.8 675.58 464.01C677.085 464.679 678.803 464.677 680.307 464.004L681.309 463.556L699.379 464.087L713.197 552.311H666.428Z" fill="white"/>
<path d="M670.68 551.248C663.026 524.887 675.286 478.259 682.372 458.241L713.197 457.178C719.575 461.004 711.957 472.945 707.351 478.436C726.059 497.144 732.153 545.401 732.861 567.192C729.495 567.369 720.934 568.359 719.659 567.934C718.383 567.508 715.323 557.094 713.197 552.311L670.68 551.248Z" fill="#2F4CAC"/>
<mask id="mask3" mask-type="alpha" maskUnits="userSpaceOnUse" x="668" y="457" width="65" height="111">
<path d="M670.68 551.248C663.026 524.887 675.286 478.259 682.372 458.241L713.197 457.178C719.575 461.004 711.957 472.945 707.351 478.436C726.059 497.144 732.153 545.401 732.861 567.192C729.495 567.369 721.434 567.859 720.159 567.434C718.883 567.008 715.323 557.094 713.197 552.311L670.68 551.248Z" fill="#1DB6E7"/>
</mask>
<g mask="url(#mask3)">
<path d="M702.568 520.955L713.197 553.374L695.127 559.22L702.568 520.955Z" fill="#182E79"/>
</g>
<path d="M543.416 235.036C550.7 242.885 538.625 256.234 531.379 261.426L521.938 254.76C527.882 251.866 527.19 238.392 530.767 239.351C533.523 240.091 532.036 241.857 531.495 245.455C534.492 245.063 539.67 238.962 541.866 235.275C542.199 234.715 542.972 234.557 543.416 235.036Z" fill="#EC8F71"/>
<path d="M477.799 275.644C454.337 280.808 437.087 289.457 431.394 293.137C442.323 301.053 470.644 314.323 496.495 304.075C522.347 293.826 528.969 269.91 532.786 259.656L525.756 249.965C517.054 256.091 501.261 270.48 477.799 275.644Z" fill="#4A44BB"/>
<path d="M552.75 163C513.127 163 481 195.127 481 234.75C481 274.373 513.127 306.5 552.75 306.5C592.373 306.5 624.5 274.373 624.5 234.75C624.5 195.127 592.373 163 552.75 163ZM552.75 276.391C549.211 276.391 546.344 273.524 546.344 269.984C546.344 266.445 549.211 263.578 552.75 263.578C556.289 263.578 559.156 266.445 559.156 269.984C559.156 273.524 556.289 276.391 552.75 276.391ZM562.824 241.236C561.373 241.796 560.125 242.781 559.243 244.06C558.36 245.34 557.883 246.857 557.875 248.411V252.047C557.875 252.752 557.298 253.328 556.594 253.328H548.906C548.202 253.328 547.625 252.752 547.625 252.047V248.604C547.625 244.904 548.698 241.252 550.812 238.209C552.878 235.23 555.761 232.956 559.156 231.659C564.602 229.561 568.125 224.996 568.125 220.016C568.125 212.953 561.222 207.203 552.75 207.203C544.278 207.203 537.375 212.953 537.375 220.016V221.233C537.375 221.938 536.798 222.514 536.094 222.514H528.406C527.702 222.514 527.125 221.938 527.125 221.233V220.016C527.125 213.721 529.88 207.844 534.877 203.471C539.681 199.259 546.023 196.953 552.75 196.953C559.477 196.953 565.819 199.275 570.623 203.471C575.62 207.844 578.375 213.721 578.375 220.016C578.375 229.273 572.273 237.601 562.824 241.236Z" fill="#566DBB"/>
<path d="M543.342 238.444C550.626 246.293 538.55 259.642 531.305 264.834L521.864 258.168C527.807 255.274 527.116 241.8 530.693 242.759C533.449 243.499 531.962 245.266 531.421 248.864C534.417 248.472 539.596 242.37 541.791 238.684C542.125 238.123 542.898 237.966 543.342 238.444Z" fill="#EE9F86"/>
<path d="M390.492 532.108L392.302 515.613L410.509 516.808L403.656 535.955L390.492 532.108Z" fill="#EE9F86"/>
<path d="M404.981 533.998C401.216 534.108 393.557 531.497 390.198 530.177L389.694 529.98L383.057 543.917L422.861 559.55C430.519 562.558 428.225 557.245 426.12 554.212C418.865 551.363 409.005 539.549 404.981 533.998Z" fill="#1D104A"/>
<path d="M467.507 544.78L463.161 528.764L480.545 523.221L481.166 543.548L467.507 544.78Z" fill="#EE9F86"/>
<path d="M481.685 541.242C478.22 542.72 470.137 543.09 466.528 543.09H465.987L464.904 558.489H507.667C515.895 558.489 511.817 554.382 508.75 552.329C500.955 552.329 487.459 544.938 481.685 541.242Z" fill="#1D104A"/>
<path d="M441.798 443.182C433.567 469.058 423.151 498.491 410.389 529.429L388.266 522.6C394.474 504.388 405.918 451.573 410.389 358.693L465.024 355.588C471.44 379.181 483.774 446.979 481.787 529.429L461.299 530.05C456.907 507.343 449.748 473.902 441.798 443.182Z" fill="#262626"/>
<mask id="mask4" mask-type="alpha" maskUnits="userSpaceOnUse" x="388" y="355" width="95" height="176">
<path d="M441.798 443.182C433.567 469.058 423.151 498.491 410.389 529.429L388.266 522.6C394.474 504.388 405.918 451.573 410.389 358.693L465.024 355.588C471.44 379.181 483.774 446.979 481.787 529.429L461.299 530.05C456.907 507.343 449.748 473.902 441.798 443.182Z" fill="#79C7CE"/>
</mask>
<g mask="url(#mask4)">
<path d="M442.054 441.888L456.954 531.912H487.376L494.206 470.447L465.026 353.726L442.054 441.888Z" fill="#0F0F0F"/>
</g>
<path d="M459.605 252.568L458.448 246.808L456.036 241.502C454.558 240.522 448.623 239.007 436.711 240.788C424.798 242.569 429.675 264.226 433.602 274.833L433.633 278.536C440.905 282.871 452.825 285.787 451.345 282.533C449.963 279.493 449.957 280.219 449.942 278.067C452.196 278.599 454.384 278.734 456.101 278.441C459.014 277.942 457.906 274.384 456.988 272.668C457.838 272.281 458.214 271.278 457.828 270.427L458.73 269.777C459.123 269.494 459.301 268.997 459.175 268.529C458.954 267.703 459.363 266.838 460.141 266.484L461.825 265.718C462.388 265.463 462.586 264.763 462.241 264.25L459.311 259.891C458.765 259.08 458.679 258.044 459.082 257.154C459.733 255.718 459.916 254.114 459.605 252.568Z" fill="#EE9F86"/>
<path d="M437.119 270.756L433.588 275.253L425.137 255.757C424.457 249.871 426.159 237.201 438.408 233.615C453.718 229.132 457.297 237.005 457.889 236.943C458.362 236.893 459.081 235.781 459.382 235.231C459.569 235.642 459.46 236.917 459.382 237.503C460.49 236.669 459.937 234.635 459.522 233.722C465.896 241.563 462.241 245.91 459.617 247.103C456.971 246.585 451.342 246.074 449.985 248.178C448.29 250.807 449.145 250.418 445.878 252.317C443.264 253.836 444.084 259.879 444.821 262.711L446.144 265.62L442.253 263.878C442.141 259.633 439.177 257.566 437.709 257.063C433.714 257.723 435.651 266.467 437.119 270.756Z" fill="#393939"/>
<path d="M467.733 367.386L458.183 310.542L447.245 304.679L449.676 368.006L467.733 367.386Z" fill="white"/>
<path d="M406.69 387.874C403.403 331.566 420.192 292.072 428.998 279.364L431.933 278.191C469.503 283.821 511.168 259.32 524.474 254.628L532.59 263.758C482.99 300.673 458.535 313.383 450.718 313.383C457.175 333.912 456.588 359.133 454.827 372.624C453.418 383.416 445.239 387.287 441.325 387.874H406.69Z" fill="#7873D7"/>
</svg>
