<svg width="208" height="142" viewBox="0 0 208 142" fill="none" xmlns="http://www.w3.org/2000/svg">
<ellipse cx="104.43" cy="130.646" rx="103.46" ry="10.6733" fill="#4886FF" fill-opacity="0.1"/>
<path d="M80.6585 77.2715C82.0058 67.0753 76.3621 66.3239 72.1303 67.5441C71.3318 67.7744 70.4864 67.0816 70.6604 66.2689C72.864 55.9708 76.09 37.1878 74.1369 30.9222C72.3275 25.1177 65.4848 27.2816 61.0049 29.7778C60.256 30.1951 59.3002 29.5944 59.4067 28.7437C61.292 13.6797 62.9596 1.89494 47.3982 0.666103C34.969 -0.315395 33.3968 16.9411 34.2169 26.9237C34.2739 27.6175 33.6284 28.1675 32.9442 28.0387C21.9303 25.9643 23.136 34.5489 25.2246 39.2907C28.4854 49.8052 33.9636 70.0616 29.7898 66.9717C25.7781 64.0018 23.0517 65.5515 22.0738 66.8196C21.9977 66.9182 21.9483 67.0401 21.9213 67.1617C14.2425 101.743 42.852 104.309 53.2676 104.309C63.7022 104.309 78.702 92.0777 80.6585 77.2715Z" fill="#82B7FB"/>
<path d="M47.4011 14.8295C48.3424 39.9187 48.2705 98.3014 47.4009 126.841L53.2704 126.841C51.3139 70.1912 46.7489 -2.55185 47.4011 14.8295Z" fill="#3A5CA6"/>
<path d="M51.9668 97.8729C58.271 93.5812 71.5317 83.0667 74.1403 75.3418" stroke="#3A5CA6" stroke-linecap="round"/>
<path d="M48.7051 92.0786C43.5133 88.6453 32.5928 80.2337 30.4445 74.0537" stroke="#3A5CA6" stroke-linecap="round"/>
<path d="M50.0059 57.3176C55.9393 53.3938 68.4199 43.7806 70.8751 36.7178" stroke="#3A5CA6" stroke-linecap="round"/>
<path d="M50.0059 66.3302C46.2975 63.8779 31.9755 40.4885 30.441 36.0742" stroke="#3A5CA6" stroke-linecap="round"/>
<path d="M66.9808 71.4805C66.7634 75.7721 68.6765 83.7116 78.0676 81.1366" stroke="#3A5CA6" stroke-width="0.5" stroke-linecap="round"/>
<path d="M57.848 80.4922C57.6306 84.7838 59.5436 92.7233 68.9348 90.1484" stroke="#3A5CA6" stroke-width="0.5" stroke-linecap="round"/>
<path d="M59.1547 38.0039C58.9373 42.2955 60.8503 50.2351 70.2414 47.6601" stroke="#3A5CA6" stroke-width="0.5" stroke-linecap="round"/>
<path d="M42.1704 47.0166C42.3492 50.28 40.7761 56.3172 33.0533 54.3592" stroke="#3A5CA6" stroke-width="0.5" stroke-linecap="round"/>
<path d="M39.5572 75.3418C39.7359 78.6052 38.1628 84.6424 30.44 82.6844" stroke="#3A5CA6" stroke-width="0.5" stroke-linecap="round"/>
<path d="M174.415 110.047C174.626 108.448 174.199 107.711 173.58 107.44C172.818 107.107 171.862 106.441 172.017 105.625C172.555 102.8 173.102 98.9875 172.659 97.5663C172.349 96.5747 171.495 96.4467 170.603 96.6573C169.769 96.8544 168.791 96.2412 168.883 95.3888C169.236 92.1177 169.083 89.7052 165.458 89.419C162.516 89.1867 161.833 92.7496 161.861 95.4408C161.868 96.1369 161.217 96.6609 160.523 96.712C158.694 96.8465 159.002 98.7182 159.488 99.8198C160.366 102.651 161.841 108.106 160.717 107.274C159.744 106.553 159.051 106.821 158.731 107.13C158.642 107.217 158.594 107.341 158.568 107.463C156.607 116.644 164.248 117.328 167.039 117.328C169.849 117.328 173.888 114.034 174.415 110.047Z" fill="#82B7FB"/>
<path d="M165.456 93.2325C165.71 99.9884 165.691 115.71 165.456 123.395L167.037 123.395C166.51 108.14 165.281 88.552 165.456 93.2325Z" fill="#3A5CA6"/>
<path d="M166.688 115.595C168.385 114.44 171.956 111.608 172.658 109.528" stroke="#3A5CA6" stroke-linecap="round"/>
<path d="M165.809 114.034C164.411 113.11 161.47 110.845 160.891 109.181" stroke="#3A5CA6" stroke-linecap="round"/>
<path d="M166.16 104.673C167.758 103.616 171.119 101.028 171.78 99.126" stroke="#3A5CA6" stroke-linecap="round"/>
<path d="M166.16 107.1C165.162 106.44 161.305 100.142 160.892 98.9531" stroke="#3A5CA6" stroke-linecap="round"/>
<path d="M170.731 108.488C170.672 109.644 171.187 111.782 173.716 111.088" stroke="#3A5CA6" stroke-width="0.5" stroke-linecap="round"/>
<path d="M168.274 110.914C168.215 112.07 168.73 114.208 171.259 113.514" stroke="#3A5CA6" stroke-width="0.5" stroke-linecap="round"/>
<path d="M168.625 99.4736C168.567 100.629 169.082 102.767 171.611 102.074" stroke="#3A5CA6" stroke-width="0.5" stroke-linecap="round"/>
<path d="M164.049 101.899C164.097 102.778 163.674 104.404 161.594 103.877" stroke="#3A5CA6" stroke-width="0.5" stroke-linecap="round"/>
<path d="M163.35 109.528C163.398 110.407 162.974 112.033 160.895 111.506" stroke="#3A5CA6" stroke-width="0.5" stroke-linecap="round"/>
<path d="M171.439 23.6827C136.431 15.9664 130.794 35.1349 132.351 45.6837C132.528 47.7104 134.159 49.309 134.953 49.8549C149.816 54.0877 160.893 43.372 164.574 37.485L162.921 35.0064L166.12 34.1603L168.78 28.9215L171.439 23.6827Z" fill="#6A91E0"/>
<path fill-rule="evenodd" clip-rule="evenodd" d="M170.752 23.5723C165.965 24.8384 158.441 27.4856 151.397 31.3209C144.373 35.146 137.733 40.2026 134.837 46.3278L135.744 46.7574C136.359 45.4559 137.156 44.1991 138.101 42.9897L152.006 42.9438L151.997 41.9455L138.925 41.9886C140.845 39.772 143.251 37.7243 145.916 35.8624L159.277 36.0162L159.283 35.0179L147.371 34.8807C148.824 33.933 150.339 33.0378 151.881 32.1977C153.699 31.2078 155.55 30.2978 157.377 29.4711L166.678 29.5388L166.679 28.5404L159.626 28.4891C163.969 26.6595 168.034 25.3255 171.014 24.5373L170.752 23.5723Z" fill="#4773CC"/>
<path d="M189.221 49.8643C162.812 25.9037 148.22 39.722 144.226 49.6261C143.352 51.4684 143.955 53.658 144.366 54.5226C155.094 65.5238 170.115 61.7108 176.284 58.4292L176.109 55.4671L179.308 56.3131L184.264 53.0887L189.221 49.8643Z" fill="#4B7DE2"/>
<path fill-rule="evenodd" clip-rule="evenodd" d="M188.686 49.4326C183.898 48.1664 176.042 46.7456 167.999 46.5908C159.978 46.4364 151.666 47.5383 146.056 51.4139L146.623 52.2334C147.816 51.4098 149.142 50.7148 150.573 50.1337L162.638 56.9565L163.136 56.0874L151.794 49.6737C154.58 48.7016 157.701 48.1154 160.953 47.8186L172.443 54.5442L172.953 53.6825L162.71 47.6865C164.448 47.5829 166.213 47.5551 167.974 47.589C170.049 47.6289 172.113 47.7543 174.113 47.9399L182.131 52.5879L182.639 51.7241L176.558 48.1993C181.247 48.7584 185.443 49.6094 188.424 50.3977L188.686 49.4326Z" fill="#4773CC"/>
<path d="M131.215 77.7656V94.6224H148.909V121.914" stroke="#FEB261" stroke-width="2" stroke-dasharray="5 5"/>
<path d="M114.014 77.7656V119.974" stroke="#FEB261" stroke-width="2" stroke-dasharray="5 5"/>
<path d="M106.087 45.2598H99.4518C99.0118 45.2598 98.5899 45.4323 98.2788 45.7393C97.9677 46.0464 97.793 46.4629 97.793 46.8971V59.9962C97.793 60.4305 97.9677 60.8469 98.2788 61.154C98.5899 61.4611 99.0118 61.6336 99.4518 61.6336H109.405C109.844 61.6336 110.266 61.4611 110.577 61.154C110.889 60.8469 111.063 60.4305 111.063 59.9962V50.1719L106.087 45.2598Z" stroke="#2B2788" stroke-width="2" stroke-linecap="round" stroke-linejoin="round"/>
<path d="M106.086 45.2598V50.1719H111.062" stroke="#2B2788" stroke-width="2" stroke-linecap="round" stroke-linejoin="round"/>
<path d="M107.75 54.2656H101.115" stroke="#2B2788" stroke-width="2" stroke-linecap="round" stroke-linejoin="round"/>
<path d="M107.75 57.54H101.115" stroke="#2B2788" stroke-width="2" stroke-linecap="round" stroke-linejoin="round"/>
<path d="M102.774 50.9912H101.945H101.115" stroke="#2B2788" stroke-width="2" stroke-linecap="round" stroke-linejoin="round"/>
<path d="M75.6782 76.7959V95.2581H57.9844V120.945" stroke="#FEB261" stroke-width="2" stroke-dasharray="5 5"/>
<path d="M94.3535 76.7959V119.974" stroke="#FEB261" stroke-width="2" stroke-dasharray="5 5"/>
<ellipse cx="57.0008" cy="120.216" rx="6.38943" ry="6.54953" fill="#FEAF22"/>
<ellipse cx="94.3543" cy="120.216" rx="6.38943" ry="6.54953" fill="#FEAF22"/>
<ellipse cx="114.016" cy="120.216" rx="6.38943" ry="6.54953" fill="#FEAF22"/>
<ellipse cx="148.172" cy="120.216" rx="6.63518" ry="6.54953" fill="#FEAF22"/>
<path d="M188.565 128.176L187.994 126.101L190.276 125.383L190.357 128.016L188.565 128.176Z" fill="#B88B60"/>
<path d="M190.425 127.718C189.97 127.909 188.909 127.957 188.436 127.957H188.365L188.223 129.952H193.836C194.916 129.952 194.38 129.42 193.978 129.154C192.955 129.154 191.183 128.197 190.425 127.718Z" fill="#1D104A"/>
<path d="M180.533 128.177L181.104 126.102L178.822 125.384L178.74 128.017L180.533 128.177Z" fill="#B88B60"/>
<path d="M178.674 127.718C179.129 127.909 180.19 127.957 180.664 127.957H180.735L180.877 129.952H175.264C174.184 129.952 174.719 129.42 175.122 129.154C176.145 129.154 177.917 128.197 178.674 127.718Z" fill="#1D104A"/>
<path d="M181.335 81.1263L181.56 80.3079L181.964 79.5657C182.189 79.4385 183.071 79.2766 184.794 79.6472C186.517 80.0179 185.579 83.0278 184.902 84.5199L184.902 86.3552C183.798 86.911 182.621 86.3767 182.621 85.8874L182.621 84.8417C182.286 84.8969 181.845 84.9513 181.597 84.8925C181.176 84.7929 181.372 84.2903 181.523 84.0515L181.521 84.0504C181.402 83.9871 181.357 83.8393 181.422 83.7203L181.296 83.6174C181.241 83.5731 181.221 83.5 181.243 83.4336C181.284 83.3166 181.233 83.1885 181.124 83.1306L180.916 83.0204C180.819 82.9691 180.793 82.8433 180.861 82.7567L181.306 82.188C181.394 82.0755 181.417 81.926 181.367 81.7936C181.286 81.5806 181.275 81.3471 181.335 81.1263Z" fill="#F3AEAE"/>
<path d="M184.338 84.3427L184.349 84.3585C184.558 84.66 185.017 84.6287 185.188 84.3013C185.882 82.9705 186.623 81.4087 185.886 80.1129C185.616 79.6384 185.183 79.2171 184.509 78.9737C182.316 78.1811 181.717 79.2824 181.631 79.2677C181.562 79.256 181.468 79.0888 181.429 79.0066C181.398 79.0641 181.401 79.249 181.407 79.3342C181.253 79.2034 181.354 78.9153 181.423 78.7876C180.416 79.8577 180.908 80.5195 181.28 80.7166C181.672 80.6671 182.499 80.6472 182.677 80.9635C182.899 81.359 182.778 81.2947 183.237 81.5997C183.604 81.8437 183.426 82.7075 183.291 83.1089L183.069 83.5159L183.655 83.3017C183.712 82.6906 184.165 82.4208 184.385 82.3623C184.962 82.4956 184.594 83.7381 184.338 84.3427Z" fill="#393939"/>
<path d="M182.615 85.084L181.881 85.3253L181.066 97.9545H185.793V85.084H184.897L184.882 85.3078C184.845 85.9056 184.349 86.371 183.75 86.371C183.123 86.371 182.615 85.8629 182.615 85.2361V85.084Z" fill="white"/>
<path d="M173.642 84.4473C173.359 85.172 173.509 86.261 173.715 86.8898L174.953 86.9336C174.601 86.2756 175.751 85.1241 175.346 84.9683C175.034 84.8482 175.048 85.1055 174.843 85.462C174.752 85.3774 174.687 85.2094 174.644 85.0066C174.507 84.3653 173.88 83.8363 173.642 84.4473Z" fill="#EA8F72"/>
<path d="M182.879 94.6212C183.515 95.0791 184.621 95.2181 185.29 95.1847L185.653 94.0155C184.918 94.1812 184.089 92.787 183.832 93.1324C183.633 93.3986 183.889 93.452 184.184 93.7402C184.075 93.8068 183.885 93.8242 183.667 93.8107C183.013 93.7705 182.349 94.2396 182.879 94.6212Z" fill="#EA8F72"/>
<path d="M188.152 97.8721H179.025L178.373 127.555H181.144L182.937 105.916L187.745 127.555H190.678L188.152 97.8721Z" fill="#333333"/>
<path d="M180.983 103.827L181.879 85.3252L181.553 85.4056C181.39 85.4861 181.407 85.47 179.516 86.0492C177.625 86.6283 176.446 90.098 176.093 91.7604L175.034 86.8536H173.648L173.977 93.914C174.021 94.8697 174.809 95.6216 175.765 95.6216C176.462 95.6216 177.096 95.2172 177.389 94.585L178.701 91.7604C178.049 95.5412 176.729 103.247 176.664 103.827C176.598 104.406 179.516 104.068 180.983 103.827Z" fill="#7873D7"/>
<mask id="mask0" mask-type="alpha" maskUnits="userSpaceOnUse" x="173" y="85" width="9" height="20">
<path d="M180.985 103.827L181.881 85.3252L181.555 85.4056C181.392 85.4861 181.408 85.47 179.518 86.0492C177.627 86.6283 176.448 90.098 176.095 91.7604L175.036 86.8536H173.65L173.979 93.914C174.023 94.8697 174.811 95.6216 175.767 95.6216C176.464 95.6216 177.098 95.2172 177.391 94.585L178.703 91.7604C178.051 95.5412 176.731 103.247 176.666 103.827C176.6 104.406 179.518 104.068 180.985 103.827Z" fill="#DEECF9"/>
</mask>
<g mask="url(#mask0)">
<ellipse cx="175.606" cy="96.4257" rx="1.95582" ry="1.93057" fill="#BFCEE1" fill-opacity="0.3"/>
<line y1="-0.5" x2="19.1708" y2="-0.5" transform="matrix(-0.051013 0.998698 -0.998764 -0.0497078 181.475 85.1641)" stroke="#6762D1"/>
<path d="M176.097 92.6447L176.016 90.9554V90.2314L176.342 90.3923L176.097 92.6447Z" fill="#7D809D"/>
</g>
<path fill-rule="evenodd" clip-rule="evenodd" d="M190.603 87.7369C190.082 86.836 187.18 85.5382 185.795 85.002L185.526 93.9837L185.225 93.9309V95.2179L185.487 95.3008L185.225 104.066H189.951L189.243 96.4712C190.109 96.7369 190.921 96.9819 191.5 97.1485C193.064 97.599 193.347 96.0491 193.292 95.2179C192.613 93.0996 191.125 88.6379 190.603 87.7369ZM188.729 90.9546L190.359 95.1375L188.81 94.7353L188.729 90.9546Z" fill="#7873D7"/>
<path d="M185.225 93.9307V95.2177L190.359 96.8265L190.44 95.1373L185.225 93.9307Z" fill="url(#paint0_linear)"/>
<mask id="mask1" mask-type="alpha" maskUnits="userSpaceOnUse" x="185" y="85" width="9" height="20">
<path fill-rule="evenodd" clip-rule="evenodd" d="M190.603 87.7369C190.082 86.836 187.18 85.5382 185.795 85.002L185.526 93.9846L185.225 93.9309V95.2179L185.487 95.3008L185.225 104.066H189.951L189.243 96.4712C190.109 96.7369 190.921 96.9819 191.5 97.1485C193.064 97.599 193.347 96.0491 193.292 95.2179C192.613 93.0996 191.125 88.6379 190.603 87.7369ZM188.726 90.9531L190.193 94.8143L189.052 94.3316L188.726 90.9531Z" fill="#7873D7"/>
</mask>
<g mask="url(#mask1)">
<line x1="186.537" y1="84.6797" x2="186.537" y2="94.1717" stroke="#6762D1"/>
<path d="M186.113 95.5518L186.113 104.059" stroke="#6762D1"/>
<ellipse cx="193.698" cy="97.0673" rx="1.95582" ry="1.93057" fill="#BFCEE1" fill-opacity="0.3"/>
<path d="M190.927 95.4586L190.357 95.1368L190.275 94.8955L190.927 95.4586Z" fill="#7D809D"/>
</g>
<path d="M138.335 80.7829C138.335 82.5557 137.625 84.2559 136.363 85.5094C135.1 86.763 133.387 87.4672 131.601 87.4672H77.7335C75.9476 87.4672 74.235 86.763 72.9722 85.5094C71.7094 84.2559 71 82.5557 71 80.7829V33.9929C71 32.2201 71.7094 30.5199 72.9722 29.2664C74.235 28.0128 75.9476 27.3086 77.7335 27.3086H94.5672L101.301 37.335H131.601C133.387 37.335 135.1 38.0393 136.363 39.2928C137.625 40.5464 138.335 42.2465 138.335 44.0193V80.7829Z" fill="#7873D7"/>
<path d="M120.41 48.7316V45.3857L122.557 45.5784L122.654 48.7316H120.41Z" fill="#EE9F86"/>
<path d="M122.737 48.374C122.192 48.6034 120.922 48.6607 120.355 48.6607H120.27L120.1 51.0495H126.82C128.113 51.0495 127.472 50.4125 126.99 50.094C125.765 50.094 123.644 48.9473 122.737 48.374Z" fill="#1D104A"/>
<path d="M123.208 33.7965C122.474 32.8089 120.477 32.5144 119.288 32.5595L118.245 34.0759C119.351 33.8466 120.939 36.0302 121.321 35.5322C121.616 35.1484 121.23 35.0668 120.78 34.6433C121.049 34.4876 121.643 34.527 122.223 34.6408C122.863 34.7664 123.596 34.3178 123.208 33.7965Z" fill="#EE9F86"/>
<path d="M113.902 24.8696C112.184 21.5565 110.194 19.3157 109.413 18.6094C108.665 20.5677 107.813 25.3512 110.389 28.8184C112.965 32.2856 116.991 33.4734 118.683 33.634L119.853 32.1893C118.585 31.1299 115.619 28.1827 113.902 24.8696Z" fill="#CF3316"/>
<path d="M113.569 45.9464L115.197 43.0117L116.986 44.1983L115.538 47.0103L113.569 45.9464Z" fill="#EF937E"/>
<path d="M115.78 46.7346C115.191 46.6776 114.049 46.1257 113.551 45.8568L113.477 45.8165L112.165 47.8311L118.06 51.0171C119.194 51.6301 118.942 50.7675 118.674 50.2596C117.599 49.6789 116.297 47.6676 115.78 46.7346Z" fill="#1D104A"/>
<path d="M108.982 38.1633C104.61 38.2404 104.233 33.7651 104.591 32.0957H113.275C116.137 32.6094 122.154 33.7137 123.325 34.0219C124.496 34.3301 124.788 35.4987 124.788 36.0445L123.222 47.2166H119.91L120.373 39.357L116.3 46.5424L113.27 45.0014L116.624 37.7093C114.33 37.9189 111.528 38.1184 108.982 38.1633Z" fill="#2276BC"/>
<mask id="mask2" mask-type="alpha" maskUnits="userSpaceOnUse" x="104" y="32" width="21" height="16">
<path d="M108.982 38.1633C104.61 38.2404 104.233 33.7651 104.591 32.0957H113.275C116.137 32.6094 122.154 33.7137 123.325 34.0219C124.496 34.3301 124.788 35.4987 124.788 36.0445L123.222 47.2166H119.91L120.373 39.357L116.3 46.5424L113.27 45.0014L116.624 37.7093C114.33 37.9189 111.528 38.1184 108.982 38.1633Z" fill="#79C7CE"/>
</mask>
<g mask="url(#mask2)">
<path d="M120.486 37.5879L116.583 37.7805L111.119 44.6186L113.607 46.1115L116.095 47.6043L120.193 41.4403L120.486 37.5879Z" fill="#08589A"/>
</g>
<path d="M110.963 13.5203L110.664 12.5484L110.153 11.6749C109.878 11.5309 108.817 11.3693 106.769 11.8755C104.72 12.3817 105.938 16.0305 106.803 17.7916L106.872 18.4289C108.214 19.054 110.344 19.3567 110.03 18.8209C109.738 18.3204 109.749 18.4457 109.71 18.0751C110.112 18.129 110.496 18.1157 110.791 18.0364C111.291 17.9018 111.037 17.3076 110.848 17.0272C110.989 16.9469 111.038 16.7673 110.956 16.6272L111.103 16.4997C111.167 16.4446 111.189 16.3562 111.159 16.2776C111.107 16.139 111.162 15.9837 111.292 15.9101L111.535 15.7711C111.649 15.7062 111.676 15.5552 111.592 15.4544L111.037 14.7886C110.928 14.6575 110.895 14.4798 110.95 14.3196C111.039 14.0616 111.044 13.7819 110.963 13.5203Z" fill="#EE9F86"/>
<path d="M107.413 15.9442L106.535 17.1963C106.204 16.9175 104.822 15.3738 105.551 12.7946C106.002 11.2023 108.046 11.2274 109.728 11.4005C110.225 11.4517 110.751 11.3103 111.12 11.4005C111.173 13.0734 109.507 13.2593 108.667 13.1431C108.711 13.5846 108.713 14.2512 107.706 14.3069C106.698 14.3627 107.214 15.5492 107.413 15.9442Z" fill="#393939"/>
<path d="M123.463 16.3919C122.273 16.0427 120.501 16.9991 119.581 17.7444L119.679 19.5743C120.42 18.7319 123.022 19.525 123.021 18.9001C123.021 18.4185 122.664 18.5837 122.046 18.5149C122.165 18.2306 122.662 17.9076 123.193 17.6528C123.78 17.371 124.091 16.5762 123.463 16.3919Z" fill="#EE9F86"/>
<path d="M113.141 32.0943L110.371 23.1801L108.652 22.2705L109.034 32.0943H113.141Z" fill="white"/>
<path d="M102.281 35.1769C101.764 26.442 104.403 20.3155 105.787 18.3441L106.248 18.1622C112.152 19.0356 117.811 17.7982 119.902 17.0703L120.363 19.527C114.274 23.2575 110.984 23.6518 109.2 23.6214C110.215 26.806 110.123 30.7185 109.846 32.8112C109.625 34.4854 108.339 35.0859 107.724 35.1769H102.281Z" fill="#E3482C"/>
<path d="M96.5388 59.27V60.572H92.4088V63.442H95.6288V64.744H92.4088V69H90.8128V59.27H96.5388ZM102.652 69L100.412 65.108H99.1939V69H97.5979V59.27H100.958C101.705 59.27 102.335 59.4007 102.848 59.662C103.371 59.9233 103.758 60.2733 104.01 60.712C104.271 61.1507 104.402 61.6407 104.402 62.182C104.402 62.8167 104.215 63.3953 103.842 63.918C103.478 64.4313 102.913 64.7813 102.148 64.968L104.556 69H102.652ZM99.1939 63.834H100.958C101.555 63.834 102.003 63.6847 102.302 63.386C102.61 63.0873 102.764 62.686 102.764 62.182C102.764 61.678 102.615 61.286 102.316 61.006C102.017 60.7167 101.565 60.572 100.958 60.572H99.1939V63.834ZM107.62 60.558V63.414H110.98V64.716H107.62V67.698H111.4V69H106.024V59.256H111.4V60.558H107.62ZM114.541 60.558V63.414H117.901V64.716H114.541V67.698H118.321V69H112.945V59.256H118.321V60.558H114.541Z" fill="#4A45B1"/>
<defs>
<linearGradient id="paint0_linear" x1="185.306" y1="94.6546" x2="190.675" y2="96.138" gradientUnits="userSpaceOnUse">
<stop stop-color="#7873D7"/>
<stop offset="1" stop-color="#D7E8F7" stop-opacity="0"/>
</linearGradient>
</defs>
</svg>
