<svg width="488" height="346" viewBox="0 0 488 346" fill="none" xmlns="http://www.w3.org/2000/svg">
<line y1="340" x2="488" y2="340" stroke="black" stroke-width="4"/>
<circle cx="239" cy="168" r="168" fill="#FDFBB6"/>
<mask id="mask0" mask-type="alpha" maskUnits="userSpaceOnUse" x="71" y="0" width="336" height="336">
<circle cx="239" cy="168" r="168" fill="#FDFBB6"/>
</mask>
<g mask="url(#mask0)">
<path d="M134.063 131.5C113.663 149.5 62.8963 174.333 40.063 184.5C7.56297 272.5 69.563 240.5 114.063 225.5C158.563 210.5 143.563 168.5 161.563 147.5C179.563 126.5 272.563 95.4999 232.563 63.4999C192.563 31.4999 159.563 109 134.063 131.5Z" stroke="#717D79"/>
<path d="M264.063 62.5C274.063 24.1 268.23 -8.5 264.063 -20L364.563 21.5C339.563 39.5 288.463 76.3 284.063 79.5C278.563 83.5 251.563 110.5 264.063 62.5Z" stroke="#717D79"/>
<path d="M56.063 268C77.563 271.667 124.363 270.7 139.563 237.5C158.563 196 155.063 179.5 208.063 172.5C261.063 165.5 303.063 130 328.563 80.5C348.963 40.9 383.063 25.3333 397.563 22.5" stroke="#717D79"/>
<path d="M56.063 301.5C77.563 305.167 124.363 304.2 139.563 271C158.563 229.5 155.063 213 208.063 206C261.063 199 303.063 163.5 328.563 114C348.963 74.4 383.063 58.8333 397.563 56" stroke="#717D79"/>
<path d="M302.063 181C347.663 165 377.063 110.333 386.063 85L446.063 150.5C436.23 163.167 399.463 195.3 331.063 222.5C245.563 256.5 245.063 201 302.063 181Z" stroke="#717D79"/>
</g>
<path d="M407.401 160.509H415.263L414.413 168.371H408.145L407.401 160.509Z" fill="#2467E9"/>
<mask id="mask1" mask-type="alpha" maskUnits="userSpaceOnUse" x="407" y="160" width="9" height="9">
<path d="M407.672 160.351H415.091L414.289 168.371H408.374L407.672 160.351Z" fill="#2467E9"/>
</mask>
<g mask="url(#mask1)">
<rect x="406.686" y="159.079" width="10.7211" height="2.85896" rx="1.42948" fill="#0946BB"/>
</g>
<path d="M405.863 151.826C409.286 154.981 410.148 157.897 410.119 159.079H412.012C413.275 150.332 415.68 132.493 415.201 131.115L415.187 131.075C414.603 129.391 414.568 129.291 410.119 129.291C405.634 129.291 407.328 127.873 405.435 127.062C404.462 126.646 403.438 127.182 402.662 127.86C401.985 128.452 402.045 129.465 402.62 130.156L402.744 130.305L402.215 130.103C401.554 129.851 400.75 129.953 400.49 130.61C399.914 132.065 400.494 134.322 401.146 135.966C401.425 136.669 402.126 137.093 402.883 137.093H404.438L403.89 137.79C403.484 138.305 403.362 138.985 403.521 139.622C403.955 141.365 404.328 143.788 403.541 144.388C402.875 144.896 402.846 146.319 402.992 147.547C403.092 148.393 403.817 148.979 404.646 149.179C405.203 149.314 405.725 149.505 405.933 149.758C406.389 150.314 405.334 151.338 405.863 151.826Z" fill="#3CE4BB"/>
<path d="M411.69 158.365C411.204 150.747 410.094 134.793 409.545 131.919" stroke="#52CEB1"/>
<path d="M408.116 162.653H414.549L414.273 166.227H408.3L408.116 162.653Z" fill="#45383D"/>
<path d="M415.757 154.403C413.972 155.526 413.393 157.827 413.334 158.977L411.518 159.079C411.216 158.671 410.55 157.569 410.308 156.427C410.005 154.998 411.216 152.04 411.821 150.203C412.426 148.367 411.72 147.551 411.418 144.796C411.176 142.592 412.325 141.497 412.931 141.225C413.243 141.462 413.663 141.122 413.497 140.768L413.233 140.205C413.45 139.438 413.103 137.34 412.699 135.467C412.522 134.648 413.457 134.008 414.141 134.492L413.092 131.84C412.989 131.579 412.998 131.286 413.132 131.04C415.172 127.33 418.46 128.233 419.891 129.187C421.303 133.166 423.522 131.737 425.439 132.247C427.356 132.758 427.759 135.308 427.154 135.92C426.67 136.41 423.475 136.847 422.768 137.936L422.961 138.664C422.999 138.805 423.068 138.936 423.154 139.054C423.516 139.553 423.951 140.414 423.522 140.919C422.917 141.633 422.917 146.531 421.808 147.245C420.92 147.816 420.563 148.367 420.496 148.571C420.496 149.541 418.771 150.393 417.781 151.337C417.607 151.503 417.392 151.626 417.154 151.661L417.134 151.663C416.52 151.753 416.135 152.376 416.329 152.966L416.349 153.026C416.522 153.551 416.225 154.108 415.757 154.403Z" fill="#2BDDB3"/>
<path d="M416.844 154.195C414.766 155.214 414.111 157.75 414.049 158.977L412.233 159.079C411.93 158.671 411.265 157.569 411.023 156.427C410.72 154.998 411.931 152.04 412.536 150.203C413.141 148.367 412.435 147.551 412.132 144.796C411.89 142.592 413.04 141.497 413.645 141.225C413.957 141.462 414.378 141.122 414.212 140.768L413.948 140.205C414.165 139.438 413.818 137.34 413.413 135.467C413.236 134.648 414.172 134.008 414.856 134.492L413.807 131.84C413.704 131.579 413.712 131.286 413.847 131.04C415.887 127.33 419.174 128.233 420.606 129.187C422.018 133.166 424.237 131.737 426.154 132.247C428.07 132.758 428.474 135.308 427.869 135.92C427.384 136.41 425.851 138.709 425.145 139.797C424.66 139.442 424.18 140.039 424.287 140.63C424.309 140.751 424.296 140.85 424.237 140.919C423.632 141.633 423.632 146.531 422.522 147.245C421.635 147.816 421.278 148.367 421.211 148.571C421.211 149.516 419.771 151.501 418.815 152.669C418.63 152.895 418.305 152.937 418.064 152.775C417.61 152.468 417.026 152.911 417.197 153.431C417.297 153.733 417.129 154.055 416.844 154.195Z" fill="#63E9C9"/>
<path d="M413.119 159.08C413.771 153.328 415.76 140.006 422.411 131.919" stroke="#42B79B" stroke-opacity="0.53"/>
<rect x="406.686" y="158.365" width="9.29161" height="2.85896" rx="1.42948" fill="#2467E9"/>
<path d="M130.082 177.663L139.719 177.663L167.237 340.98L158.692 341.026L130.082 177.663Z" fill="#C6C6C6"/>
<path d="M125.224 176.849L130.082 177.663L158.251 341.164L153.411 340.286L125.224 176.849Z" fill="#535353"/>
<path d="M432.209 177.663L441.709 177.663L469.941 340.98L460.65 340.98L432.209 177.663Z" fill="#C6C6C6"/>
<path d="M427.414 176.308L432.417 177.662L460.292 340.623L455.602 339.745L427.414 176.308Z" fill="#535353"/>
<rect x="42.8843" y="168.371" width="125.794" height="9.29161" fill="#535353"/>
<rect x="168.678" y="168.371" width="300.905" height="9.29161" fill="#C4C4C4"/>
<path d="M26.0219 38.9868C25.8643 36.6759 27.6964 34.7147 30.0126 34.7147H163.512C165.616 34.7147 167.36 36.344 167.503 38.4426L171.246 93.3397C171.404 95.6505 169.572 97.6118 167.255 97.6118H33.7556C31.6521 97.6118 29.908 95.9825 29.7649 93.8839L26.0219 38.9868Z" fill="#3394EA" fill-opacity="0.77"/>
<path d="M320.581 39.0612C320.378 36.7242 322.22 34.7147 324.566 34.7147H360.29C362.365 34.7147 364.095 36.3012 364.275 38.3682L365.568 53.2398C365.772 55.5769 363.929 57.5864 361.583 57.5864H325.859C323.784 57.5864 322.054 55.9999 321.874 53.9329L320.581 39.0612Z" fill="#3394EA" fill-opacity="0.77"/>
<path d="M323.44 65.5067C323.237 63.1696 325.079 61.1602 327.425 61.1602H363.149C365.224 61.1602 366.954 62.7466 367.134 64.8136L368.427 79.6853C368.631 82.0223 366.788 84.0318 364.442 84.0318H328.718C326.643 84.0318 324.913 82.4454 324.733 80.3783L323.44 65.5067Z" fill="#3394EA" fill-opacity="0.77"/>
<path d="M126.172 108.391C125.969 106.054 127.811 104.044 130.157 104.044H165.881C167.956 104.044 169.686 105.631 169.866 107.698L171.159 122.57C171.363 124.907 169.52 126.916 167.174 126.916H131.45C129.375 126.916 127.645 125.33 127.465 123.263L126.172 108.391Z" fill="#3394EA" fill-opacity="0.77"/>
<path d="M195.583 61.8696C195.335 58.3964 198.086 55.4421 201.568 55.4421H323.193C326.341 55.4421 328.954 57.8748 329.178 61.0147L335.468 149.078C335.716 152.551 332.966 155.506 329.484 155.506H207.858C204.71 155.506 202.097 153.073 201.873 149.933L195.583 61.8696Z" fill="#C9CACC"/>
<path d="M203.701 53.2979L197.983 55.7994L195.481 59.373H201.556L203.701 53.2979Z" fill="#C9CACC"/>
<path d="M333.783 154.791L338.786 151.932L337.714 151.217L333.783 152.289L332.354 154.433L333.783 154.791Z" fill="#C9CACC"/>
<path d="M199.871 59.7253C199.623 56.2521 202.374 53.2979 205.856 53.2979H327.482C330.63 53.2979 333.242 55.7305 333.466 58.8704L339.757 146.934C340.005 150.407 337.254 153.361 333.772 153.361H212.146C208.999 153.361 206.386 150.929 206.162 147.789L199.871 59.7253Z" fill="#D7D7D9"/>
<path d="M199.848 59.7049C199.612 56.239 202.36 53.2979 205.834 53.2979H327.463C330.618 53.2979 333.235 55.7423 333.449 58.8908L339.144 142.64H205.488L199.848 59.7049Z" fill="#231F20"/>
<path d="M203.059 57.2247C203.019 56.647 203.477 56.1567 204.056 56.1567H328.529C329.055 56.1567 329.491 56.5641 329.527 57.0887L335.213 140.496H208.735L203.059 57.2247Z" fill="#444444"/>
<rect x="249.444" y="154.791" width="3.57369" height="13.58" fill="#958F8F"/>
<rect x="253.018" y="154.791" width="52.1759" height="13.58" fill="#C4C4C4"/>
<path d="M24.3347 258.347C20.1026 266.811 55.7229 274.57 74.0621 277.392L75.1202 256.231C80.4103 229.78 80.4103 223.432 74.0621 224.49C67.7139 225.548 62.4238 238.244 60.3077 230.838C58.1917 223.432 74.0621 204.388 68.772 190.633C63.4818 176.879 52.9015 199.097 48.6694 195.923C44.4373 192.749 51.8435 156.776 45.4953 154.66C39.1471 152.544 38.0891 182.169 35.973 171.589C33.857 161.008 16.9285 138.79 3.17409 147.254C-10.5803 155.718 27.5088 176.879 24.3347 181.111C21.1606 185.343 -4.57855e-06 172.647 -4.02357e-06 185.343C-3.4686e-06 198.039 34.915 202.271 42.3212 207.562C49.7274 212.852 19.0445 218.142 11.6383 221.316C4.2321 224.49 6.34816 236.128 27.5088 237.186C48.6694 238.244 52.9015 243.535 55.0176 248.825C57.1336 254.115 29.6248 247.767 24.3347 258.347Z" fill="#31CAB8"/>
<path d="M27.5087 171.589C32.7989 176.173 44.4372 191.268 48.6693 214.968C52.9015 238.668 65.9505 261.521 71.946 269.985" stroke="white" stroke-opacity="0.32"/>
<path d="M122.187 256.996C126.419 265.46 90.7986 273.219 72.4594 276.041L71.4014 254.88C66.1112 228.429 66.1112 222.081 72.4594 223.139C78.8076 224.197 84.0977 236.893 86.2138 229.487C88.3298 222.081 72.4594 203.036 77.7495 189.282C83.0397 175.528 93.62 197.746 97.8521 194.572C102.084 191.398 94.678 155.425 101.026 153.309C107.374 151.193 108.432 180.818 110.548 170.238C112.665 159.657 129.593 137.439 143.347 145.903C157.102 154.367 119.013 175.528 122.187 179.76C125.361 183.992 146.522 171.296 146.522 183.992C146.522 196.688 111.607 200.92 104.2 206.211C96.7941 211.501 127.477 216.791 134.883 219.965C142.289 223.139 140.173 234.777 119.013 235.835C97.8521 236.893 93.62 242.184 91.504 247.474C89.3879 252.764 116.897 246.416 122.187 256.996Z" fill="#31CAB8"/>
<path d="M119.013 170.237C113.723 174.822 102.084 189.917 97.8522 213.617C93.62 237.317 80.571 260.17 74.5755 268.634" stroke="white" stroke-opacity="0.32"/>
<path d="M49.7626 234.992C40.8628 234.992 50.9353 251.8 56.7986 258.445L74.3873 277.208C82.9868 273.69 101.124 265.716 104.876 261.963C109.567 257.273 103.704 256.1 97.8404 254.927C93.1498 253.989 95.886 249.846 97.8404 247.892C117.541 242.263 124.03 231.474 124.811 226.784C124.811 225.611 124.811 223.266 120.121 219.748C115.43 216.23 96.6678 243.201 97.8404 225.611C99.0131 208.021 125.984 188.086 124.811 179.878C123.639 171.669 117.776 182.223 107.222 188.086C98.7785 192.777 99.0131 184.568 100.186 179.878C105.658 173.623 115.899 159.473 113.085 152.906C109.567 144.698 107.222 152.906 97.8404 161.115C88.4592 169.324 94.3225 151.734 96.6678 148.216C99.0131 144.698 120.121 98.9643 82.5959 107.173C45.0709 115.382 67.3514 164.633 68.524 171.669C69.6967 178.705 60.3161 162.288 46.2442 166.978C32.1723 171.669 72.0427 197.467 72.0427 204.503C72.0427 211.539 56.7986 200.985 49.7626 199.813C42.7267 198.64 56.7986 216.23 60.3161 226.784C63.1302 235.227 61.4887 237.338 60.3161 237.338C56.7982 239.683 56.7985 234.992 49.7626 234.992Z" fill="#00AE87"/>
<path d="M84.9396 131.798C82.5943 132.189 78.6073 145.401 81.4217 195.122C84.236 244.842 80.2495 262.745 77.9045 265.481" stroke="white" stroke-opacity="0.19" stroke-width="2" stroke-linejoin="round"/>
<path d="M45.9391 287.242H95.9315L90.5269 341.288H50.6681L45.9391 287.242Z" fill="#E92476"/>
<mask id="mask2" mask-type="alpha" maskUnits="userSpaceOnUse" x="45" y="287" width="51" height="55">
<path d="M45.9391 287.242H95.9315L90.5269 341.288H50.6681L45.9391 287.242Z" fill="#E92476"/>
</mask>
<g mask="url(#mask2)">
<rect x="39.1839" y="277.784" width="63.5039" height="18.916" rx="9.45802" fill="#D2055B"/>
</g>
<rect x="39.1836" y="272.38" width="63.5039" height="18.916" rx="9.45802" fill="#E92476"/>
<path d="M47.2899 303.456H94.58L92.5533 325.074H48.6411L47.2899 303.456Z" fill="#F27CAD"/>
<path d="M221.877 164.752C223.276 153.257 242.966 156.124 251.997 159.395L251.057 169.9C243.546 168.205 232.84 170.141 229.266 169.792C226.738 169.648 221.722 168.439 221.877 164.752Z" fill="#EE9F86"/>
<path d="M348.979 53.8238L349.642 51.925C349.641 51.9282 349.63 51.9047 350.114 48.3551C350.744 43.7445 354.419 39.5484 359.304 37.0268C364.189 34.5052 372.094 37.6365 378.754 47.0557C384.082 54.591 377.85 64.6569 377.819 74.8223L378.812 86.5333L359.681 89.2C357.012 84.7465 358.45 77.8399 356.382 77.843C354.774 77.8454 353.701 78.376 351.593 77.6961C351.175 77.5611 350.927 77.1421 350.97 76.7035L351.196 74.3601C351.211 74.2062 351.19 74.0511 351.135 73.9071L350.243 71.5817C350.104 71.2179 350.189 70.805 350.462 70.5243L351.238 69.7259L350.087 69.331C349.684 69.1928 349.415 68.8134 349.416 68.3865L349.422 67.1947C349.423 66.8206 349.216 66.4781 348.884 66.307L347.79 65.7428C347.337 65.5091 347.135 64.9704 347.322 64.4936L349.316 59.4038C349.407 59.1712 349.409 58.9135 349.319 58.6812L349.038 57.9478C348.531 56.6262 348.51 55.1651 348.979 53.8238Z" fill="#EE9F86"/>
<path fill-rule="evenodd" clip-rule="evenodd" d="M367.708 36.5955C372.376 37.611 377.782 40.2023 381.059 44.6682C384.905 49.9091 382.523 66.1066 380.365 75.8513C379.969 77.6419 378.365 78.8839 376.531 78.8839H363.826C362.163 78.8839 360.674 77.8551 360.085 76.2998L356.655 67.2354C356.74 67.1508 356.969 66.7935 357.273 66.2913C358.956 63.5135 357.652 58.744 354.585 59.8129L354.176 55.9421C354.089 55.1132 353.396 54.3376 352.723 53.8462C351.411 52.8882 349.563 51.0141 348.015 49.3637C345.177 47.0918 342.326 42.7386 346.943 36.8402C346.562 37.7455 346.091 39.7591 347.248 40.5703C347.144 39.9927 346.979 38.7356 347.15 38.3282C347.478 38.8676 348.255 39.9573 348.736 40.0013C348.83 40.0099 348.968 39.8289 349.195 39.5331C350.425 37.9278 354.245 32.9415 367.496 36.5368C367.567 36.5561 367.638 36.5756 367.708 36.5955Z" fill="#393939"/>
<path d="M307.601 312.563L301.558 289.195L284.586 294.783L292.898 315.976L307.601 312.563Z" fill="#EE9F86"/>
<path d="M291.618 313.913C295.749 314.266 304.327 311.87 308.099 310.628L308.665 310.442L313.392 325.885C313.711 326.925 313.146 328.026 312.122 328.395C300.285 332.662 278.912 343.186 270.392 342.103C268.189 341.824 266.594 341.481 265.473 341.088C259.837 339.114 270.088 334.161 275.567 331.785C284.102 328.085 287.752 321.291 291.618 313.913Z" fill="#1D104A"/>
<path d="M308.767 303.099C302.335 305.243 289.252 308.817 285.917 308.817C278.59 284.657 254.701 238.482 257.539 205.895C258.314 196.995 266.331 191.278 275.196 190.17L356.675 188.384V223.763L311.166 217.817C300.095 216.371 290.984 226.421 293.506 237.297L308.767 303.099Z" fill="#105C9B"/>
<path d="M228.221 324.683L240.867 294.88H222.999L213.188 323.327L228.221 324.683Z" fill="#EE9F86"/>
<path d="M212.618 320.968C216.43 322.595 225.327 323.002 229.299 323.002H229.895L229.895 337.95C229.895 339.055 229.007 339.95 227.902 339.95H184.021C180.64 339.95 179.147 339.32 178.779 338.414C177.065 334.193 185.319 333.273 189.691 331.991C197.893 329.587 207.749 324.084 212.618 320.968Z" fill="#1D104A"/>
<path d="M175.402 38.2721C175.245 35.9612 177.077 34 179.393 34H312.893C314.996 34 316.74 35.6292 316.884 37.7279L322.771 124.073C322.928 126.384 321.096 128.346 318.78 128.346H185.28C183.177 128.346 181.433 126.716 181.29 124.618L175.402 38.2721Z" fill="#3394EA" fill-opacity="0.77"/>
<path d="M232.692 320.61C226.563 320.61 214.897 317.037 211.563 317.037C216.909 296.909 240.244 239.973 255.266 204.924C258.78 196.725 265.945 190.688 274.598 188.521C274.964 188.43 275.339 188.384 275.715 188.384H356.654V223.763L298.622 219.214C292.328 218.72 286.332 221.974 283.316 227.521L232.692 320.61Z" fill="#2276BC"/>
<path d="M357.726 82.4252C369.52 84.8381 369.52 84.8381 378.454 81.7357L385.431 84.554C393.19 87.6884 398.164 95.3289 397.893 103.699L394.551 207.259L328.007 207.259L328.007 140.827L319.902 157.802C317.192 163.478 311.575 167.203 305.295 167.488L250.515 169.974L250.514 158.261L295.149 149.502C300.521 148.448 305.063 144.874 307.352 139.899L328.005 95.0228C329.541 91.6847 332.367 89.1111 335.834 87.8929L357.726 82.4252Z" fill="#E3482C"/>
<mask id="mask3" mask-type="alpha" maskUnits="userSpaceOnUse" x="250" y="81" width="148" height="127">
<path d="M357.726 82.4252C369.52 84.8381 369.52 84.8381 378.454 81.7357L385.431 84.554C393.19 87.6884 398.164 95.3289 397.893 103.699L394.551 207.259L328.007 207.259L328.007 140.827L319.902 157.802C317.192 163.478 311.575 167.203 305.295 167.488L250.515 169.974L250.514 158.261L295.149 149.502C300.521 148.448 305.063 144.874 307.352 139.899L328.005 95.0228C329.541 91.6847 332.367 89.1111 335.834 87.8929L357.726 82.4252Z" fill="#E3482C"/>
</mask>
<g mask="url(#mask3)">
<path d="M335.927 87.9629C332.497 87.1052 330.209 90.4644 329.495 92.2513C329.495 91.7748 328.708 92.0369 325.564 96.8971C322.419 101.757 274.579 141.807 250.159 158.365V170.515H313.77C322.466 153.6 340.144 114.837 342.717 109.405C345.934 102.615 340.216 89.035 335.927 87.9629Z" fill="#CB3013"/>
</g>
<path d="M303.407 341.338C303.407 335.417 308.207 330.617 314.128 330.617H378.454C384.375 330.617 389.175 335.417 389.175 341.338H303.407Z" fill="#4B3886"/>
<rect x="339.858" y="224.121" width="12.8653" height="106.496" fill="#3D2C63"/>
<rect x="337.357" y="224.121" width="18.5832" height="13.58" rx="2" fill="#4B3886"/>
<path d="M408.085 100.471H338.072L325.206 211.707L313.056 226.265L372.954 225.502C388.991 225.298 402.4 213.253 404.317 197.329L415.035 108.307C415.536 104.14 412.283 100.471 408.085 100.471Z" fill="#B1C9E5"/>
<path d="M288.755 222.004V221.674C288.755 219.898 290.195 218.458 291.971 218.458H303.086C313.833 218.458 322.845 210.345 323.971 199.658L334.121 103.335C334.329 101.358 336.1 99.9232 338.078 100.13C340.051 100.336 341.486 102.098 341.288 104.072L330.453 212.393C329.706 219.862 323.421 225.55 315.915 225.55H292.301C290.342 225.55 288.755 223.962 288.755 222.004Z" fill="#393F84"/>
</svg>
