<svg width="127" height="44" viewBox="0 0 127 44" fill="none" xmlns="http://www.w3.org/2000/svg">
<path d="M0.418829 38.9268L1.54844 33.3352C1.74604 32.3571 3.09708 32.2399 3.46011 33.1694L4.19597 35.0535C4.34581 35.4371 4.71556 35.6897 5.12744 35.6897H5.98472C7.02672 35.6897 7.37401 37.0841 6.45373 37.5728L1.86803 40.008C1.12222 40.4041 0.25161 39.7545 0.418829 38.9268Z" fill="white"/>
<path d="M126 43.3719C125.737 35.3479 118.805 20.0848 93.1776 23.2247C90.1142 24.5329 85.1952 27.9344 90.0266 31.0742C92.3898 30.8126 96.276 28.6147 92.915 21.9164C88.7137 13.5435 55.8913 -27.0125 5.73869 34.214" stroke="white" stroke-dasharray="5 5"/>
</svg>
