<svg width="612" height="430" viewBox="0 0 612 430" fill="none" xmlns="http://www.w3.org/2000/svg">
<ellipse opacity="0.05" cx="330.075" cy="420.019" rx="275.466" ry="5.52657" fill="black"/>
<ellipse opacity="0.05" cx="344.937" cy="423.473" rx="78.1119" ry="5.52657" fill="black"/>
<path d="M601.047 393.155C589.434 407.524 552.429 415.031 535.378 416.988L534.686 417.679L528.811 343.071C533.88 339.501 545.954 331.948 553.696 330.29C563.374 328.218 571.323 329.945 575.816 340.307C580.309 350.67 594.48 344.452 604.503 352.397C614.527 360.341 615.563 375.194 601.047 393.155Z" fill="#00D7A7"/>
<mask id="mask0" mask-type="alpha" maskUnits="userSpaceOnUse" x="528" y="329" width="84" height="89">
<path d="M601.047 393.155C589.434 407.524 552.429 415.031 535.378 416.988L534.686 417.679L528.811 343.071C533.88 339.501 545.954 331.948 553.696 330.29C563.374 328.218 571.323 329.945 575.816 340.307C580.309 350.67 594.48 344.452 604.503 352.397C614.527 360.341 615.563 375.194 601.047 393.155Z" fill="#00D7A7"/>
</mask>
<g mask="url(#mask0)">
<path d="M568.213 354.737C563.789 353.355 562.913 332.745 563.028 322.613L642.868 351.282C639.066 353.7 626.347 358.398 605.886 357.845C580.309 357.154 573.743 356.464 568.213 354.737Z" fill="#00AE87"/>
</g>
<path d="M570.41 322.251C568.329 351.632 547.554 392.684 537.427 409.537C539.998 412.947 549.336 414.754 566.123 394.697C587.107 369.626 573.012 285.525 570.41 322.251Z" fill="#00C89B"/>
<path fill-rule="evenodd" clip-rule="evenodd" d="M546.783 391.982C556.911 371.992 568.7 343.84 570.241 322.086C572.62 288.506 584.607 355.938 570.603 386.902C564.336 390.202 557.196 392.07 549.619 392.07C548.667 392.07 547.721 392.04 546.783 391.982Z" fill="#14FFCB"/>
<path d="M591.809 364.768C579.242 383.352 549.904 402.522 536.806 409.783C537.202 413.01 542.67 417.754 561.38 410.913C584.767 402.361 607.517 341.538 591.809 364.768Z" fill="#00C89B"/>
<path fill-rule="evenodd" clip-rule="evenodd" d="M549.661 401.768C563.955 392.437 582.455 378.355 591.76 364.594C606.123 343.353 588.332 392.387 567.301 407.478C561.911 407.27 556.492 405.786 551.497 402.904C550.869 402.542 550.257 402.163 549.661 401.768Z" fill="#14FFCB"/>
<path d="M50.1477 396.771C43.5695 407.251 100.763 413.873 130.182 415.875C137.857 380.761 150.136 312.499 137.857 320.359C122.508 330.183 125.249 328.546 120.863 334.55C116.478 340.554 119.219 312.718 117.026 303.439C114.833 294.16 115.381 286.519 109.899 283.244C104.418 279.969 98.1433 307.863 93.2097 310.592C88.276 313.321 73.1713 273.966 61.1113 267.962C51.4633 263.159 51.6095 268.144 52.8886 271.237C55.264 279.242 64.2281 308.839 58.527 311.459C51.4006 314.734 28.2204 282.698 11.775 281.061C-1.38136 279.751 0.445911 288.52 3.00409 293.069C10.6786 301.438 26.4663 319.267 28.2204 323.634C30.4132 329.092 25.4795 323.088 8.4859 326.363C-5.109 328.983 0.628634 334.732 5.19681 337.279C19.6323 341.827 48.3935 351.906 47.955 355.836C47.4068 360.748 26.5759 358.019 18.9013 359.111C12.7617 359.984 15.2468 364.569 17.2568 366.752C42.4731 372.028 88.9589 383.454 73.1713 386.947C57.3837 390.44 51.244 394.952 50.1477 396.771Z" fill="#00D7A7"/>
<mask id="mask1" mask-type="alpha" maskUnits="userSpaceOnUse" x="0" y="265" width="144" height="151">
<path d="M50.839 396.771C44.2608 407.251 101.454 413.873 130.873 415.875C138.548 380.761 150.827 312.499 138.548 320.359C123.199 330.183 125.94 328.546 121.554 334.55C117.169 340.554 119.91 312.718 117.717 303.439C115.524 294.16 116.073 286.519 110.591 283.244C105.109 279.969 98.8346 307.863 93.901 310.592C88.9673 313.321 73.8626 273.966 61.8026 267.962C52.1546 263.159 52.3008 268.144 53.5799 271.237C55.9553 279.242 64.9194 308.839 59.2183 311.459C52.0919 314.734 28.9117 282.698 12.4663 281.061C-0.690077 279.751 1.13719 288.52 3.69537 293.069C11.3699 301.438 27.1575 319.267 28.9117 323.634C31.1044 329.092 26.1708 323.088 9.17718 326.363C-4.41771 328.983 1.31992 334.732 5.8881 337.279C20.3235 341.827 49.0848 351.906 48.6462 355.836C48.0981 360.748 27.2671 358.019 19.5926 359.111C13.453 359.984 15.9381 364.569 17.9481 366.752C43.1644 372.028 89.6502 383.454 73.8626 386.947C58.0749 390.44 51.9353 394.952 50.839 396.771Z" fill="#0CFFC9"/>
</mask>
<g mask="url(#mask1)">
<ellipse cx="13.8252" cy="332.976" rx="103.688" ry="103.623" fill="#03EBB7" fill-opacity="0.3"/>
</g>
<path d="M130.494 415.874C106.794 381.791 49.3361 308.339 9.10419 287.196" stroke="#06FFC7"/>
<path d="M65.03 399.411C79.2499 403.57 109.684 405.476 123.123 405.91L120.956 402.877C119.222 405.65 82.9494 401.721 65.03 399.411Z" fill="#06FFC7"/>
<path d="M138.325 324.89C135.469 343.503 122.843 380.778 116.886 397.089L114.453 393.778C117.855 392.709 131.997 347.272 138.325 324.89Z" fill="#06FFC7"/>
<path d="M110.729 291.096C107.873 309.709 95.6976 346.706 89.7414 363.017L87.1402 359.551C90.5427 358.482 104.401 313.478 110.729 291.096Z" fill="#06FFC7"/>
<path d="M85.2942 356.905L85.4061 357.384L81.5043 353.052C83.6674 349.867 68.8602 294.965 60.897 268.45C69.4257 288.849 80.5305 336.474 85.2942 356.905Z" fill="#06FFC7"/>
<path d="M32.9485 363.017C48.0475 367.176 81.107 369.082 95.3773 369.515L92.8328 366.04C90.9915 368.813 51.9757 365.327 32.9485 363.017Z" fill="#06FFC7"/>
<path d="M6.06946 332.688C21.1685 336.848 54.6614 338.321 68.9318 338.754L65.9538 335.712C64.1124 338.485 25.0967 334.999 6.06946 332.688Z" fill="#06FFC7"/>
<path d="M51.2574 239.479C51.7003 248.773 82.4422 257.735 97.7578 261.055H109.936C162.526 232.287 132.079 189.688 129.865 184.156C127.651 178.624 84.4719 120.535 62.3289 127.727C40.1859 134.919 62.3289 162.027 62.3289 166.453C62.3289 170.879 55.686 182.987 51.2574 190.179C46.8287 197.371 62.3289 207.392 62.3289 215.69C62.3289 223.989 50.7038 227.861 51.2574 239.479Z" fill="#31CAB8"/>
<path d="M108.587 266.524C108.007 261.169 107.013 253.941 105.577 245.502M78.1404 150.9C85.0474 165.527 90.6923 182.183 95.1828 198.477M95.1828 198.477L103.051 175.242M95.1828 198.477C99.8586 215.444 103.283 232.019 105.577 245.502M95.1828 198.477L105.577 245.502M105.577 245.502L81.4619 227.799" stroke="#078695"/>
<path d="M586.622 270.192C586.376 275.342 569.344 280.307 560.859 282.146H554.112C524.975 266.208 541.844 242.607 543.071 239.542C544.297 236.477 568.22 204.293 580.488 208.278C592.756 212.263 580.488 227.281 580.488 229.733C580.488 232.186 584.168 238.894 586.622 242.879C589.075 246.863 580.488 252.415 580.488 257.013C580.488 261.61 586.928 263.756 586.622 270.192Z" fill="#31CAB8"/>
<path d="M554.859 285.176C555.181 282.209 555.731 278.205 556.527 273.529M571.728 221.117C567.901 229.22 564.774 238.449 562.286 247.476M562.286 247.476L557.926 234.603M562.286 247.476C559.695 256.876 557.798 266.059 556.527 273.529M562.286 247.476L556.527 273.529M556.527 273.529L569.888 263.721" stroke="#078695"/>
<path d="M579.129 328.639C582.594 334.159 552.472 337.646 536.978 338.7C532.936 320.207 526.469 284.256 532.936 288.396C541.02 293.57 539.576 292.708 541.886 295.87C544.196 299.032 542.752 284.371 543.907 279.485C545.062 274.598 544.773 270.573 547.66 268.849C550.547 267.124 553.852 281.815 556.45 283.252C559.048 284.689 567.003 263.962 573.355 260.8C578.436 258.27 578.359 260.896 577.686 262.525C576.435 266.741 571.714 282.328 574.716 283.708C578.469 285.433 590.678 268.561 599.339 267.699C606.268 267.009 605.305 271.627 603.958 274.023C599.916 278.431 591.601 287.821 590.678 290.12C589.523 292.995 592.121 289.833 601.071 291.558C608.231 292.937 605.209 295.965 602.803 297.307C595.201 299.702 580.053 305.011 580.284 307.08C580.573 309.667 591.544 308.23 595.586 308.805C598.819 309.265 597.51 311.68 596.452 312.829C583.171 315.608 558.689 321.626 567.003 323.465C575.318 325.305 578.552 327.681 579.129 328.639Z" fill="#00AE87"/>
<path d="M536.814 338.701C549.296 320.75 579.557 282.066 600.745 270.93" stroke="#06FFC7"/>
<path d="M571.291 330.029C563.802 332.22 547.774 333.224 540.695 333.452L541.837 331.855C542.75 333.315 561.854 331.246 571.291 330.029Z" fill="#0BDEAF"/>
<path d="M532.689 290.782C534.194 300.585 540.844 320.216 543.98 328.806L545.262 327.063C543.47 326.5 536.022 302.57 532.689 290.782Z" fill="#0BDEAF"/>
<path d="M547.223 272.984C548.728 282.787 555.14 302.272 558.277 310.862L559.647 309.037C557.855 308.474 550.556 284.772 547.223 272.984Z" fill="#0BDEAF"/>
<path d="M560.619 307.643L560.56 307.896L562.615 305.614C561.475 303.937 569.274 275.022 573.468 261.057C568.976 271.801 563.127 296.883 560.619 307.643Z" fill="#0BDEAF"/>
<path d="M588.187 310.862C580.235 313.053 562.824 314.057 555.308 314.285L556.648 312.455C557.618 313.915 578.166 312.079 588.187 310.862Z" fill="#0BDEAF"/>
<path d="M602.344 294.889C594.392 297.08 576.752 297.856 569.236 298.084L570.805 296.482C571.775 297.942 592.323 296.106 602.344 294.889Z" fill="#0BDEAF"/>
<path d="M364.203 93.7233L365.005 90.2337L365.005 86.6873C364.44 85.7722 361.571 83.4384 354.614 81.425C347.657 79.4116 344.939 92.6361 344.45 99.5L342.014 107.165C344.913 111.398 352.581 113.474 352.581 111.299C352.581 109.267 352.054 106.603 352.581 105.407C353.682 106.269 354.845 106.895 355.857 107.165C357.573 107.622 357.852 105.373 357.777 104.19C358.338 104.19 358.793 103.735 358.793 103.174L358.793 103.161L359.443 103.029C359.732 102.971 359.954 102.74 360.002 102.45C360.086 101.936 360.53 101.559 361.051 101.559L362.001 101.559C362.451 101.559 362.792 101.156 362.72 100.713L362.222 97.6897C362.126 97.1076 362.336 96.5171 362.778 96.1257C363.491 95.493 363.99 94.6531 364.203 93.7233Z" fill="#EE9F86"/>
<path d="M371.678 145.085L372.326 147.504L379.149 172.952L372.397 173.809C369.912 163.894 365.904 155.266 362.66 149.501C360.985 146.525 362.439 142.54 365.738 141.656C368.325 140.963 370.984 142.499 371.678 145.085Z" fill="#EA8F72"/>
<path d="M371.442 143.505C366.047 119.978 356.83 109.767 353.969 107.316C353.969 107.622 353.356 109.767 352.436 112.524C351.425 115.555 342.627 147.692 338.029 164.337L356.115 165.256L355.808 136.766L361.02 146.875L371.442 143.505Z" fill="#1DB6E7"/>
<path d="M352.54 108.804C346.409 114.686 344.773 108.848 342.627 104.865C342.607 104.829 342.628 104.863 339.868 103.027C339.673 102.897 315.345 153.002 318.717 155.759C321.414 157.965 337.62 156.945 345.386 156.945C347.01 143.691 353.988 107.316 353.969 107.316C353.647 107.349 353.107 108.261 352.54 108.804Z" fill="white"/>
<path d="M316.571 214.845L312.892 152.656L345.386 156.945L369.909 214.845H353.356L330.978 165.523V214.845H316.571Z" fill="#1D104A"/>
<path d="M317.49 118.691C320.924 105.212 333.737 102.619 339.868 103.027C331.285 111.605 325.665 145.548 323.928 162.193L305.535 152.696C308.09 146.978 314.057 132.171 317.49 118.691Z" fill="#18BBEF"/>
<path d="M340.481 139.217C334.841 124.267 337.518 108.848 339.868 103.027L338.948 103.946C326.196 113.014 323.213 122.061 323.008 125.431C319.943 158.823 347.531 157.904 340.481 139.217Z" fill="#18BBEF"/>
<path fill-rule="evenodd" clip-rule="evenodd" d="M365.134 145.923C369.732 145.481 378.934 146.921 379.424 152.213C379.484 152.862 378.789 153.262 378.16 153.087C375.871 152.449 372.181 151.976 370.939 152.803C371.328 153.133 371.699 153.39 372.02 153.611C372.927 154.239 373.431 154.588 372.8 155.528C372.298 156.275 371.091 155.282 369.602 154.056C367.801 152.574 365.588 150.753 363.713 151.261L365.134 145.923ZM341.052 140.932L338.749 140.455C336.081 139.902 333.468 141.617 332.915 144.286C332.203 147.713 335.179 150.729 338.652 150.297C345.013 149.506 354.009 149.076 363.712 151.259L365.133 145.92L341.052 140.932Z" fill="#EE9F86"/>
<path d="M386.136 177.926C389.292 174.514 379.364 176.366 377.573 169.505L372.055 169.306C373.281 172.369 368.859 179.58 370.829 179.309C372.348 179.1 371.575 177.951 376.04 176.858C377.722 177.297 381.859 178.151 385.45 178.212C385.707 178.216 385.961 178.115 386.136 177.926Z" fill="#EA8F72"/>
<path d="M350.061 91.4103C349.001 93.7124 348.232 94.8563 347.629 95.4282C346.869 96.1501 345.799 96.5811 345.302 97.5042L344.299 99.3644C345.076 93.9787 345.578 88.9795 346.83 84.8791C347.46 82.8161 351.107 81.548 352.408 81.4563C356.109 78.9407 359.653 81.2081 361.204 82.4402C367.773 86.9647 366.909 91.8673 364.961 94.3168C364.64 94.7208 364.049 94.7156 363.66 94.3758C359.459 90.7003 356.852 89.8273 352.935 93.8462C352.498 94.294 352.45 92.8802 352.475 91.7542C352.492 90.9879 352.125 90.0659 351.359 90.1053C350.798 90.1341 350.502 90.6476 350.061 91.4103Z" fill="#393939"/>
<ellipse cx="119.587" cy="186.522" rx="4.14754" ry="4.14493" fill="#D63838"/>
<ellipse cx="134.104" cy="186.522" rx="4.14753" ry="4.14493" fill="#DFDFDF"/>
<ellipse cx="148.62" cy="186.522" rx="4.14754" ry="4.14493" fill="#3BD638"/>
<g filter="url(#filter0_d)">
<rect x="246.087" y="216.227" width="130.647" height="172.705" rx="9" fill="white"/>
</g>
<g filter="url(#filter1_d)">
<rect x="383.647" y="216.227" width="149.311" height="46.9759" rx="9" fill="white"/>
</g>
<ellipse cx="458.303" cy="228.662" rx="6.91257" ry="6.90821" fill="#CDE7FF"/>
<ellipse cx="260.604" cy="232.807" rx="6.91255" ry="6.90821" fill="#FFCDD6"/>
<rect x="427.887" y="239.715" width="60.1393" height="2.76326" rx="1.38163" fill="#1978DC" fill-opacity="0.38"/>
<rect x="271.664" y="227.971" width="60.1393" height="2.76329" rx="1.38165" fill="#B1D7FF"/>
<ellipse cx="134.104" cy="218.99" rx="6.91256" ry="6.90823" fill="#FFCDD6"/>
<rect x="144.473" y="216.227" width="60.1393" height="2.76329" rx="1.38165" fill="white" fill-opacity="0.25"/>
<rect x="144.473" y="219.681" width="17.9726" height="2.76329" rx="1.38165" fill="white" fill-opacity="0.25"/>
<rect x="115.44" y="259.749" width="116.822" height="22.7971" fill="#8174FF"/>
<ellipse cx="134.104" cy="244.551" rx="6.91256" ry="6.90822" fill="#FFCDD6"/>
<rect x="144.473" y="241.788" width="60.1393" height="2.76329" rx="1.38165" fill="white" fill-opacity="0.25"/>
<rect x="144.473" y="245.242" width="17.9726" height="2.76329" rx="1.38165" fill="white" fill-opacity="0.25"/>
<ellipse cx="134.104" cy="270.111" rx="6.91256" ry="6.9082" fill="#FFCDD6"/>
<rect x="144.473" y="267.348" width="60.1393" height="2.76328" rx="1.38164" fill="white" fill-opacity="0.25"/>
<rect x="144.473" y="270.802" width="17.9726" height="2.76324" rx="1.38162" fill="white" fill-opacity="0.25"/>
<ellipse cx="134.104" cy="295.671" rx="6.91256" ry="6.90822" fill="#FFCDD6"/>
<rect x="144.473" y="292.908" width="60.1393" height="2.76331" rx="1.38165" fill="white" fill-opacity="0.25"/>
<rect x="144.473" y="296.362" width="17.9726" height="2.76328" rx="1.38164" fill="white" fill-opacity="0.25"/>
<rect x="271.664" y="232.807" width="25.5765" height="2.76329" rx="1.38165" fill="#B1D7FF"/>
<rect x="254.382" y="244.551" width="34.5628" height="2.76329" rx="1.38165" fill="#B1D7FF"/>
<rect x="254.382" y="249.387" width="31.1065" height="2.76326" rx="1.38163" fill="#B1D7FF"/>
<rect x="253.691" y="254.222" width="24.1939" height="2.76328" rx="1.38164" fill="#B1D7FF"/>
<rect x="86.1943" y="174.778" width="448.333" height="246.112" fill="#4886FF"/>
<rect x="92.8951" y="196.023" width="433.986" height="216.857" fill="#F6F7FB"/>
<ellipse cx="100.285" cy="185.437" rx="4.48333" ry="4.25871" fill="#D63838"/>
<ellipse cx="114.629" cy="185.437" rx="4.48333" ry="4.25871" fill="#DFDFDF"/>
<ellipse cx="128.977" cy="185.437" rx="4.48333" ry="4.25871" fill="#3BD638"/>
<rect x="93.368" y="195.072" width="118.36" height="216.857" fill="#323659"/>
<g filter="url(#filter2_d)">
<rect x="226.074" y="216.58" width="132.706" height="175.636" rx="2" fill="white"/>
</g>
<g filter="url(#filter3_d)">
<rect x="365.952" y="216.58" width="150.64" height="46.5973" rx="2" fill="white"/>
</g>
<ellipse cx="441.274" cy="229.124" rx="7.17331" ry="7.16882" fill="#CDE7FF"/>
<ellipse cx="240.42" cy="232.709" rx="7.17333" ry="7.1688" fill="#FFCDD6"/>
<rect x="410.786" y="239.877" width="60.9732" height="3.5844" rx="1.7922" fill="#1978DC" fill-opacity="0.38"/>
<rect x="251.182" y="227.331" width="60.9732" height="3.58443" rx="1.79221" fill="#B1D7FF"/>
<ellipse cx="112.155" cy="218.951" rx="7.01616" ry="7.01175" fill="#FFCDD6"/>
<rect x="122.677" y="216.147" width="61.0406" height="2.8047" rx="1.40235" fill="white" fill-opacity="0.25"/>
<rect x="122.677" y="219.653" width="18.242" height="2.8047" rx="1.40235" fill="white" fill-opacity="0.25"/>
<rect x="93.368" y="259.591" width="118.36" height="23.2986" fill="#4886FF"/>
<ellipse cx="112.155" cy="244.895" rx="7.01616" ry="7.01175" fill="#FFCDD6"/>
<rect x="122.677" y="242.089" width="61.0406" height="2.8047" rx="1.40235" fill="white" fill-opacity="0.25"/>
<rect x="122.677" y="245.597" width="18.242" height="2.8047" rx="1.40235" fill="white" fill-opacity="0.25"/>
<ellipse cx="112.155" cy="270.838" rx="7.01616" ry="7.01175" fill="white"/>
<rect x="122.677" y="268.033" width="61.0406" height="2.80469" rx="1.40234" fill="white"/>
<rect x="122.677" y="271.54" width="18.242" height="2.80469" rx="1.40234" fill="white"/>
<ellipse cx="112.155" cy="296.782" rx="7.01616" ry="7.01175" fill="#FFCDD6"/>
<rect x="122.677" y="293.979" width="61.0406" height="2.80469" rx="1.40234" fill="white" fill-opacity="0.25"/>
<rect x="122.677" y="297.484" width="18.242" height="2.80472" rx="1.40236" fill="white" fill-opacity="0.25"/>
<rect x="251.182" y="232.708" width="26.9" height="3.5844" rx="1.7922" fill="#B1D7FF"/>
<rect x="235.041" y="245.254" width="34.0733" height="1.79221" rx="0.896103" fill="#B1D7FF"/>
<rect x="235.041" y="250.63" width="30.4866" height="1.79222" rx="0.896111" fill="#B1D7FF"/>
<rect x="233.247" y="254.216" width="25.1067" height="3.5844" rx="1.7922" fill="#B1D7FF"/>
<rect x="233.247" y="259.591" width="16.14" height="3.58441" rx="1.79221" fill="#B1D7FF"/>
<path d="M233.247 268.553V381.462H348.02" stroke="#B1D7FF"/>
<rect x="391.062" y="248.839" width="100.427" height="3.58443" rx="1.79221" fill="#1978DC" fill-opacity="0.38"/>
<path d="M240.55 374.262L270.018 356.382L292.119 319.22L337.373 266.982" stroke="#FFB800" stroke-width="2"/>
<ellipse cx="240.55" cy="373.911" rx="2.10485" ry="2.10352" fill="#FFB800"/>
<ellipse cx="291.065" cy="320.623" rx="2.10486" ry="2.10353" fill="#FFB800"/>
<ellipse cx="337.373" cy="266.632" rx="2.10484" ry="2.10352" fill="#FFB800"/>
<rect x="253.691" y="259.058" width="15.8989" height="2.76328" rx="1.38164" fill="#B1D7FF"/>
<path d="M253 268.039V378.57H365.674" stroke="#B1D7FF"/>
<rect x="409.224" y="248.005" width="98.1584" height="3.4541" rx="1.72705" fill="#1978DC" fill-opacity="0.38"/>
<ellipse opacity="0.05" cx="105.071" cy="423.473" rx="78.1119" ry="5.52657" fill="black"/>
<path d="M487.505 208.592V198.062L480.832 198.669L480.529 208.592H487.505Z" fill="#EE9F86"/>
<path d="M480.276 207.467C481.968 208.189 485.917 208.369 487.68 208.369H487.944L488.473 215.887H467.584C463.564 215.887 465.556 213.882 467.055 212.88C470.862 212.88 477.455 209.271 480.276 207.467Z" fill="#1D104A"/>
<path d="M477.939 164.144C478.06 158.977 486.44 157.526 491.001 157.701L494.241 162.473C490.803 161.751 485.868 168.623 484.679 167.056C483.764 165.848 484.963 165.591 486.363 164.258C485.092 163.514 481.485 164.187 479.259 164.945C478.642 165.155 477.924 164.796 477.939 164.144Z" fill="#EE9F86"/>
<path d="M507.743 133.502C513.081 123.076 519.268 116.024 521.694 113.801C524.02 119.964 526.668 135.018 518.661 145.929C510.655 156.841 498.139 160.579 492.882 161.084L489.242 156.538C493.185 153.204 502.405 143.929 507.743 133.502Z" fill="#CF3316"/>
<path d="M508.779 199.822L503.718 190.585L498.157 194.319L502.661 203.169L508.779 199.822Z" fill="#EF937E"/>
<path d="M501.897 202.304C503.729 202.125 507.279 200.388 508.825 199.542L509.057 199.415L513.135 205.756L494.813 215.782C491.288 217.711 492.071 214.996 492.903 213.397C496.243 211.57 500.291 205.24 501.897 202.304Z" fill="#1D104A"/>
<path d="M523.033 175.33C536.621 175.573 537.793 161.489 536.681 156.235H509.688C500.792 157.851 482.089 161.327 478.449 162.297C474.81 163.267 473.9 166.944 473.9 168.662L478.769 203.821H489.065L487.623 179.087L500.286 201.7L509.704 196.85L499.276 173.901C506.409 174.561 515.119 175.189 523.033 175.33Z" fill="#2276BC"/>
<mask id="mask2" mask-type="alpha" maskUnits="userSpaceOnUse" x="473" y="156" width="65" height="48">
<path d="M523.033 175.33C536.621 175.573 537.793 161.489 536.681 156.235H509.688C500.792 157.851 482.089 161.327 478.449 162.297C474.81 163.267 473.9 166.944 473.9 168.662L478.769 203.821H489.065L487.623 179.087L500.286 201.7L509.704 196.85L499.276 173.901C506.409 174.561 515.119 175.189 523.033 175.33Z" fill="#79C7CE"/>
</mask>
<g mask="url(#mask2)">
<path d="M487.261 173.512L499.392 174.118L516.377 195.638L508.643 200.336L500.909 205.034L488.171 185.636L487.261 173.512Z" fill="#08589A"/>
</g>
<path d="M516.875 97.784L517.806 94.7224L519.394 91.9734C520.248 91.52 523.546 91.0114 529.914 92.6045C536.281 94.1975 532.495 105.681 529.806 111.223L529.593 113.229C525.42 115.196 518.801 116.149 519.775 114.462C520.685 112.887 520.65 113.281 520.772 112.115C519.521 112.285 518.327 112.243 517.411 111.993C515.858 111.57 516.646 109.7 517.235 108.817C516.794 108.563 516.643 107.999 516.897 107.559L516.442 107.159C516.244 106.984 516.174 106.706 516.266 106.459C516.43 106.022 516.254 105.532 515.85 105.299L515.096 104.864C514.742 104.66 514.656 104.187 514.916 103.872L516.648 101.769C516.987 101.358 517.088 100.801 516.916 100.297C516.639 99.4846 516.625 98.6055 516.875 97.784Z" fill="#EE9F86"/>
<path d="M527.909 105.413L530.639 109.353C531.669 108.476 535.962 103.618 533.696 95.5009C532.297 90.4899 525.942 90.5687 520.715 91.1134C519.168 91.2746 517.533 90.8296 516.388 91.1134C516.223 96.3784 521.402 96.9634 524.012 96.5978C523.874 97.9872 523.867 100.085 526.999 100.26C530.131 100.436 528.527 104.17 527.909 105.413Z" fill="#393939"/>
<path d="M475.782 108.32C479.002 104.276 486.558 108.18 490.086 111.073L489.782 116.832C487.479 114.181 479.392 116.677 479.393 114.71C479.393 113.195 480.504 113.715 482.426 113.498C481.863 112.138 478.582 110.496 476.35 109.755C475.731 109.55 475.376 108.831 475.782 108.32Z" fill="#EE9F86"/>
<path d="M510.103 156.234L518.711 128.181L524.054 125.318L522.867 156.234H510.103Z" fill="white"/>
<path d="M543.866 165.934C545.472 138.445 537.27 119.164 532.969 112.96L531.535 112.387C513.182 115.136 495.593 111.242 489.093 108.951L487.659 116.682C506.586 128.423 516.814 129.663 522.358 129.568C519.204 139.59 519.49 151.903 520.351 158.489C521.039 163.758 525.035 165.648 526.946 165.934H543.866Z" fill="#E3482C"/>
<path d="M147.116 293.294C143.58 288.771 134.733 293.337 130.861 296.512L133.175 302.788C135.684 299.899 143.117 302.304 143.117 300.161C143.116 298.509 141.905 299.076 139.812 298.84C140.434 297.335 144.108 295.514 146.542 294.725C147.162 294.524 147.518 293.808 147.116 293.294Z" fill="#EE9F86"/>
<path d="M40.413 339.229C45.9822 340.634 50.1679 331.605 51.2774 326.724L45.5987 323.185C45.3893 327.005 38.0426 329.661 39.3582 331.354C40.3721 332.658 40.9809 331.468 42.7796 330.372C43.2116 331.942 41.4271 335.632 39.9892 337.746C39.6223 338.285 39.7804 339.069 40.413 339.229Z" fill="#EE9F86"/>
<path d="M102.678 268.121C103.487 266.779 103.015 253.029 102.678 246.321H97.6199L91.8874 268.121H102.678Z" fill="#393939"/>
<path d="M104.813 252.624C104.98 252.123 105.031 251.555 105.027 250.978C105.011 248.865 104.201 246.77 103.068 244.986C93.2416 239.718 88.941 248.373 88.019 253.359L89.2393 268.074L97.1706 268.639L96.8452 264.249C97.8214 263.273 99.1184 263.68 101.803 264.249C104.487 264.818 103.999 262.379 104.081 261.973C104.129 261.732 104.506 261.388 104.831 261.137C104.986 261.018 105.009 260.786 104.87 260.648C104.749 260.526 104.749 260.33 104.87 260.208L105.056 260.022C105.247 259.832 105.279 259.535 105.135 259.308L104.994 259.086C104.886 258.918 104.903 258.699 105.034 258.548L105.287 258.258C105.906 257.547 105.898 256.506 105.431 255.688C104.897 254.755 104.483 253.612 104.813 252.624Z" fill="#EF937E"/>
<mask id="mask3" mask-type="alpha" maskUnits="userSpaceOnUse" x="88" y="243" width="18" height="26">
<path d="M104.813 252.624C104.98 252.123 105.031 251.555 105.027 250.978C105.011 248.865 104.201 246.77 103.068 244.986C93.2416 239.718 88.941 248.373 88.019 253.359L89.2393 268.074L97.1706 268.639L96.8452 264.249C97.8214 263.273 99.1184 263.68 101.803 264.249C104.487 264.818 103.999 262.379 104.081 261.973C104.129 261.732 104.506 261.388 104.831 261.137C104.986 261.018 105.009 260.786 104.87 260.648C104.749 260.526 104.749 260.33 104.87 260.208L105.056 260.022C105.247 259.832 105.279 259.535 105.135 259.308L104.994 259.086C104.886 258.918 104.903 258.699 105.034 258.548L105.287 258.258C105.906 257.547 105.898 256.506 105.431 255.688C104.897 254.755 104.483 253.612 104.813 252.624Z" fill="#EE9F86"/>
</mask>
<g mask="url(#mask3)">
<path d="M94.5316 261.845C95.2309 262.766 97.2875 263.459 98.5588 263.9C99.2545 264.75 100.338 266.474 99.1048 266.565C97.8719 266.655 95.7626 263.595 94.5316 261.845Z" fill="#E99494"/>
</g>
<path d="M101.819 247.694C101.929 250.447 100.614 254.579 94.5321 254.579C93.7609 254.469 92.2846 254.843 92.549 257.221C92.8795 260.194 93.2097 262.176 92.2182 265.479C91.6893 267.329 91.1165 268.011 90.8961 268.121H83.6248C82.7435 257.552 85.2774 237.403 102.464 241.367C104.447 242.247 107.283 244.285 105.769 247.312C105.111 248.627 102.27 249.179 101.809 247.663L101.819 247.694Z" fill="#393939"/>
<path d="M120.642 413.695L118.328 405.174L127.583 402.225L127.913 413.039L120.642 413.695Z" fill="#EE9F86"/>
<path d="M128.189 411.813C126.345 412.599 122.042 412.796 120.121 412.796H119.832L119.256 420.989H142.021C146.401 420.989 144.23 418.804 142.597 417.712C138.448 417.712 131.263 413.779 128.189 411.813Z" fill="#1D104A"/>
<path d="M28.4601 350.855L37.2936 350.826L37.7476 360.523L27.2108 358.045L28.4601 350.855Z" fill="#EE9F86"/>
<path d="M28.3235 358.627C28.0409 356.643 28.9651 352.438 29.4624 350.583L29.537 350.305L21.7696 347.629L15.8758 369.606C14.7418 373.834 17.4149 372.304 18.8932 371.01C19.9676 367.004 25.6277 361.085 28.3235 358.627Z" fill="#1D104A"/>
<path d="M116.676 406.519L77.6751 315.024H106.76L129.235 406.519H116.676Z" fill="#163A49"/>
<path d="M99.8196 364.57L107.091 315.024H77.3447L82.9635 346.073L33.056 349.707V360.937L99.8196 364.57Z" fill="#143441"/>
<path d="M108.62 294.66C102.088 278.579 98.1803 270.127 97.1804 268.452C97.1555 281.279 99.005 308.914 105.502 312.516C112 316.119 127.532 307.293 134.486 302.431L131.976 295.03C116.854 301.488 110.105 297.474 108.62 294.66Z" fill="#E7A82C"/>
<path d="M97.1789 268.45L91.1008 267.142L86.3879 267.315L72.6025 313.117L107.52 316.343C107.481 314.666 106.53 308.327 103.041 296.382C99.5516 284.436 97.5642 273.106 97.1789 268.45Z" fill="white"/>
<path d="M94.1868 325.164C101.093 311.285 95.0975 280.585 91.2365 266.97L86.4402 265.529C62.8304 275.674 48.5243 309.153 44.3225 324.625L52.0384 326.943C53.3129 327.326 65.6324 309.088 69.5741 303.082C66.8833 308.332 66.0732 318.712 66.013 323.577L94.1868 325.164Z" fill="#FEBE40"/>
<path d="M147.723 176.31C145.359 172.34 145.533 170.33 145.915 169.822L147.254 166.77L141.718 165.716C141.654 166.543 141.468 168.559 141.237 170.009C140.949 171.821 139.23 173.632 135.79 176.777C132.351 179.922 136.55 181.166 140.563 177.258C144.575 173.35 145.814 176.309 146.959 176.691C147.875 176.997 147.85 176.565 147.723 176.31Z" fill="#EE9F86"/>
<path d="M190.364 144.166L166.949 164.134L174.831 173.501L192.794 159.617L207.995 177.671L215.22 173.501L197.868 145.348C196.258 142.737 192.698 142.176 190.364 144.166Z" fill="#332D7B"/>
<path d="M240.704 174.978L230.722 174.978L231.296 168.661L240.704 168.374L240.704 174.978Z" fill="#EF937E"/>
<path d="M239.637 168.133C240.321 169.736 240.492 173.474 240.492 175.143L240.492 175.394L247.619 175.895L247.619 156.116C247.619 152.311 245.719 154.197 244.769 155.616C244.769 159.221 241.348 165.463 239.637 168.133Z" fill="#1D104A"/>
<path d="M165.225 180.579C152.352 180.809 151.242 167.466 152.295 162.489H177.867C184.566 163.706 196.941 163.895 203.326 163.922C205.686 163.932 208.031 164.214 210.321 164.786L235.893 166.509L235.625 176.192C229.495 175.809 225.121 177.436 216.156 178.355C207.191 179.274 202.19 179.239 199.13 177.995C193.192 178.761 178.097 180.35 165.225 180.579Z" fill="#5F5CB0"/>
<path d="M204.414 163.823C205.617 160.658 200.972 156.817 198.231 155.373L195.073 158.322C197.422 159.091 197.852 164.115 199.129 163.578C200.112 163.164 199.471 162.585 199.088 161.281C200.047 161.274 201.8 162.713 202.92 163.914C203.365 164.391 204.182 164.433 204.414 163.823Z" fill="#EE9F86"/>
<path d="M173.811 104.258C173.898 103.792 173.875 103.28 173.8 102.766C173.528 100.885 172.55 99.1177 171.322 97.6662C161.922 94.1721 159.15 102.408 158.939 106.963L161.826 119.924L168.962 119.459L168.135 115.588C168.885 114.6 170.09 114.803 172.552 114.983C175.013 115.162 174.28 113.049 174.302 112.677C174.316 112.457 174.61 112.104 174.868 111.841C174.992 111.715 174.984 111.507 174.843 111.4C174.72 111.307 174.696 111.131 174.79 111.008L174.933 110.82C175.079 110.627 175.072 110.359 174.915 110.174L174.763 109.994C174.646 109.857 174.634 109.66 174.733 109.509L174.922 109.22C175.387 108.511 175.253 107.585 174.736 106.913C174.147 106.147 173.638 105.179 173.811 104.258Z" fill="#EE9F86"/>
<path fill-rule="evenodd" clip-rule="evenodd" d="M174.918 95.7879C174.965 95.4952 174.97 95.1906 174.928 94.8815C174.698 93.204 173.15 92.0305 171.472 92.2603C170.55 92.3866 169.781 92.9101 169.313 93.6343C168.771 93.3544 168.14 93.2329 167.49 93.3219C166.983 93.3914 166.521 93.5814 166.131 93.859C165.552 93.4041 164.797 93.1754 164.01 93.2832C163.146 93.4017 162.427 93.9016 162.001 94.59L161.988 94.5917C161.395 94.673 160.864 94.919 160.437 95.2772C160.099 95.1302 159.718 95.0711 159.326 95.1247C158.436 95.2467 157.755 95.9147 157.575 96.7444C155.931 97.0039 154.79 98.5323 155.017 100.189C155.041 100.364 155.08 100.535 155.132 100.698C153.985 100.963 153.21 102.063 153.373 103.25C153.379 103.293 153.386 103.336 153.394 103.378C152.838 103.87 152.53 104.623 152.639 105.414C152.719 105.997 153.011 106.499 153.427 106.852C153.121 107.305 152.975 107.867 153.055 108.451C153.141 109.078 153.472 109.611 153.938 109.966C153.866 110.182 153.841 110.418 153.875 110.659C153.977 111.405 154.601 111.952 155.328 111.983C155.433 112.091 155.545 112.192 155.662 112.287C155.39 112.726 155.263 113.259 155.339 113.81C155.511 115.068 156.672 115.948 157.93 115.776C158.802 115.657 159.492 115.064 159.777 114.293C160.104 114.678 160.615 114.892 161.153 114.819C161.992 114.704 162.579 113.931 162.464 113.092C162.444 112.949 162.406 112.814 162.351 112.688C162.61 112.543 162.819 112.326 162.956 112.067C163.26 112.587 163.856 112.901 164.49 112.814C165.329 112.699 165.916 111.926 165.801 111.087C165.776 110.911 165.723 110.746 165.646 110.596C166.071 109.744 166.138 109.009 165.051 109.386C164.682 109.514 164.374 109.519 164.119 109.434C161.709 108.632 164.985 103.95 166.716 105.809C166.997 106.111 167.178 106.463 167.271 106.761C168.542 106.999 168.925 103.783 168.958 102.146C170.094 102.359 171.552 101.32 172.334 100.6C172.68 100.69 173.048 100.716 173.424 100.664C174.962 100.454 176.038 99.0363 175.827 97.4986C175.732 96.8117 175.397 96.2169 174.918 95.7879Z" fill="#393939"/>
<path d="M182.738 134.872C177.991 125.598 170.81 119.556 168.652 117.579C166.584 123.061 165.905 136.22 173.027 145.926C180.149 155.631 191.281 158.956 195.957 159.405L199.194 155.361C195.687 152.396 187.486 144.146 182.738 134.872Z" fill="#ECAD0C"/>
<path d="M173.297 162.371C175.671 152.881 170.63 128.633 168.652 117.58C167.888 117.919 167.016 117.918 166.252 117.577L165.744 117.349L156.572 117.619L149.558 162.371H173.297Z" fill="white"/>
<path d="M171.138 161.832C175.023 148.46 168.801 124.808 165.204 114.653L149.557 114.114C146.32 116.055 150.187 122.112 152.525 124.897C143.029 134.387 139.936 158.866 139.576 169.92C141.285 170.009 144.864 170.135 145.511 169.92C146.158 169.704 148.478 164.797 149.557 162.371L171.138 161.832Z" fill="#FFBB0B"/>
<mask id="mask4" mask-type="alpha" maskUnits="userSpaceOnUse" x="139" y="114" width="34" height="57">
<path d="M171.138 161.832C175.023 148.46 168.801 124.808 165.204 114.653L149.557 114.114C146.32 116.055 150.187 122.112 152.525 124.897C143.029 134.387 139.936 158.866 139.576 169.92C141.285 170.009 144.864 170.135 145.511 169.92C146.158 169.704 148.478 164.797 149.557 162.371L171.138 161.832Z" fill="#1DB6E7"/>
</mask>
<g mask="url(#mask4)">
<path d="M154.953 146.465L149.558 162.91L158.73 165.876L154.953 146.465Z" fill="#ECAD0C"/>
</g>
<path d="M582.374 386.619C561.366 382.795 546.125 385.026 541.179 386.619L547.427 390.326L567.731 391.692L582.374 386.619Z" fill="#1A0D0B"/>
<path d="M559.921 398.814C559.765 391.009 555.105 375.205 552.795 368.279C551.005 360.637 548.988 349.626 555.235 366.718C563.044 388.082 560.116 408.569 559.921 398.814Z" fill="#316D91"/>
<path d="M557.863 398.615C559.733 391.036 559.325 374.565 558.888 367.277C559.138 359.433 560.041 348.276 561.649 366.401C563.659 389.058 555.525 408.089 557.863 398.615Z" fill="#234370"/>
<path d="M537.991 362.864C541.427 371.059 549.119 369.856 552.536 368.23C557.547 366.962 566.846 361.889 563.957 351.743C561.067 341.597 553.902 334.248 550.681 331.842L543.36 339.061L552.047 327.354L548.924 329.012L550.193 324.427L538.479 311.94L536.429 316.33V309.892C533.11 307.55 525.398 303.511 521.103 306.087C515.734 309.306 516.613 339.548 525.203 345.109C533.793 350.67 533.696 352.621 537.991 362.864Z" fill="#316D91"/>
<path d="M554.65 368.475C548.5 353.971 534.248 323.248 526.439 316.38" stroke="white"/>
<path d="M560.188 368.429C555.828 363.844 545.565 348.372 547.986 325.115C549.353 325.993 552.32 327.632 553.257 327.163C551.923 325.863 549.314 322.91 549.548 321.505C549.841 319.749 550.817 302.677 559.602 298.287L562.531 303.067L561.457 296.824C561.945 295.783 564.347 293.351 570.047 291.946C570.535 291.978 571.804 291.575 572.976 289.702C572.976 290.84 572.722 293.487 571.707 294.97C570.438 296.824 575.026 291.848 574.635 289.702C574.245 287.556 580.883 299.848 580.688 306.969C579.001 308.681 575.781 311.678 574.079 312.423C576.393 312.126 579.936 311.496 580.688 310.677C581.761 309.506 581.273 330.188 580.102 332.724L571.512 337.797L580.102 335.261C578.117 341.309 569.715 357.347 560.188 368.429H560.188Z" fill="#234370"/>
<path d="M560.312 368.279C559.303 352.312 559.414 318.292 567.926 309.941" stroke="white"/>
<path d="M596.788 353.158C586.558 356.358 573.458 368.994 568.186 374.913L572.612 361.45L584.619 350.817L603.328 345.353L604.597 340.573C607.819 340.768 609.576 349.158 596.788 353.158Z" fill="#234370"/>
<path d="M579.314 356.572C575.019 363.987 570.041 371.693 568.088 374.62C567.47 371.303 568.283 362.874 576.483 355.694C586.733 346.719 591.028 347.792 595.323 346.231C598.759 344.983 599.488 342.98 599.423 342.134C600.36 343.383 599.814 345.386 599.423 346.231C602.703 344.671 604.239 341.809 604.597 340.573C607.018 341.666 606.907 343.76 606.549 344.671C601.571 351.499 584.683 347.305 579.314 356.572Z" fill="#08033B"/>
<path d="M561.189 399.009C561.97 390.268 567.241 378.392 569.779 373.547C572.903 368.084 577.434 360.319 569.39 372.181C559.336 387.01 560.213 409.935 561.189 399.009Z" fill="#234370"/>
<path d="M541.179 386.619L541.566 386.657C555.136 387.994 568.806 387.982 582.374 386.619V386.619V404.654C582.374 416.029 573.152 425.251 561.776 425.251V425.251C550.401 425.251 541.179 416.029 541.179 404.654V386.619Z" fill="#66342D"/>
<path d="M306.343 316.389C302.837 320.848 294.092 316.333 290.264 313.194L292.554 306.982C295.037 309.841 302.394 307.462 302.393 309.583C302.393 311.217 301.194 310.656 299.122 310.89C299.737 312.377 303.362 314.176 305.77 314.958C306.391 315.16 306.746 315.876 306.343 316.389Z" fill="#EE9F86"/>
<g filter="url(#filter4_d)">
<rect width="173.764" height="56.3019" rx="9" transform="matrix(0.944597 0.328234 -0.328712 0.94443 317.13 259.058)" fill="white"/>
</g>
<ellipse rx="8.04395" ry="8.27867" transform="matrix(0.944602 0.328219 -0.328727 0.944425 331.11 284.951)" fill="#FFCDD6"/>
<rect width="69.9923" height="3.31242" rx="1.65621" transform="matrix(0.944583 0.328274 -0.328672 0.944444 345.878 286.578)" fill="#B1D7FF"/>
<rect width="29.7664" height="3.31224" rx="1.65612" transform="matrix(0.944588 0.328259 -0.328687 0.944439 343.974 292.051)" fill="#B1D7FF"/>
<rect width="49.0748" height="3.31236" rx="1.65618" transform="matrix(0.944585 0.328268 -0.328678 0.944442 319.919 295.083)" fill="#B1D7FF"/>
<rect width="17.6986" height="3.31208" rx="1.65604" transform="matrix(0.944592 0.328247 -0.328699 0.944435 368.555 311.986)" fill="#B1D7FF"/>
<rect width="28.1574" height="3.31223" rx="1.65612" transform="matrix(0.944588 0.328258 -0.328688 0.944439 388.314 318.853)" fill="#B1D7FF"/>
<rect width="8.849" height="3.31182" rx="1.65591" transform="matrix(0.944598 0.328231 -0.328716 0.944429 417.95 329.153)" fill="#B1D7FF"/>
<rect width="39.4205" height="3.31232" rx="1.65616" transform="matrix(0.944585 0.328266 -0.328681 0.944441 428.589 332.851)" fill="#B1D7FF"/>
<path d="M274.251 285.16C267.988 272.928 260.73 264.655 257.883 262.047C255.155 269.277 252.048 286.938 261.441 299.74C270.835 312.541 284.885 312.659 291.053 313.252L295.322 307.918C290.697 304.007 280.513 297.393 274.251 285.16Z" fill="#079FCF"/>
<path d="M234.687 405.819L235.726 396.371L246.159 397.054L242.23 408.021L234.687 405.819Z" fill="#EEABAB"/>
<path d="M242.993 406.9C240.835 406.963 236.446 405.468 234.521 404.712L234.232 404.599L230.427 412.584L253.237 421.535C257.626 423.258 256.311 420.214 255.106 418.477C250.948 416.846 245.298 410.079 242.993 406.9Z" fill="#1D104A"/>
<path d="M278.825 413.075L276.334 403.902L286.297 400.727L286.652 412.369L278.825 413.075Z" fill="#EDA9A9"/>
<path d="M286.95 411.049C284.964 411.896 280.332 412.107 278.263 412.107H277.953L277.333 420.927H301.84C306.556 420.927 304.219 418.575 302.461 417.399C297.993 417.399 290.259 413.166 286.95 411.049Z" fill="#1D104A"/>
<path d="M264.09 354.886C259.373 369.706 253.404 386.564 246.09 404.283L233.411 400.372C236.969 389.941 243.528 359.692 246.09 306.496L277.401 304.718C281.078 318.23 288.147 357.061 287.008 404.283L275.266 404.639C272.749 391.634 268.646 372.481 264.09 354.886Z" fill="#79C7CE"/>
<mask id="mask5" mask-type="alpha" maskUnits="userSpaceOnUse" x="233" y="304" width="55" height="101">
<path d="M264.09 354.886C259.373 369.706 253.404 386.564 246.09 404.283L233.411 400.372C236.969 389.941 243.528 359.692 246.09 306.496L277.401 304.718C281.078 318.23 288.147 357.061 287.008 404.283L275.266 404.639C272.749 391.634 268.646 372.481 264.09 354.886Z" fill="#79C7CE"/>
</mask>
<g mask="url(#mask5)">
<path d="M264.236 354.145L272.776 405.705H290.211L294.125 370.502L277.401 303.651L264.236 354.145Z" fill="#5EB3BB"/>
</g>
<path d="M320.105 267.546C318.783 261.429 307.988 261.901 302.743 263.265L302.171 270.443C305.928 268.751 312.107 274.453 313.074 272.358C313.819 270.744 312.38 270.751 310.44 269.576C311.743 268.372 316.248 268.26 318.974 268.601C319.621 268.682 320.243 268.184 320.105 267.546Z" fill="#EE9F86"/>
<path d="M274.296 245.715L273.632 242.415L272.249 239.376C271.402 238.815 268.001 237.946 261.175 238.965C254.349 239.984 257.145 252.389 259.396 258.465L259.415 260.586C263.582 263.069 270.413 264.741 269.565 262.877C268.773 261.135 268.769 261.551 268.761 260.318C270.052 260.623 271.306 260.701 272.29 260.533C273.959 260.248 273.324 258.21 272.798 257.227C273.285 257.005 273.501 256.431 273.279 255.943L273.796 255.571C274.021 255.409 274.123 255.125 274.051 254.856C273.924 254.383 274.158 253.888 274.604 253.685L275.438 253.306C275.829 253.129 275.967 252.643 275.727 252.287L274.128 249.909C273.815 249.444 273.766 248.851 273.997 248.341C274.369 247.519 274.474 246.6 274.296 245.715Z" fill="#EE9F86"/>
<path d="M261.412 256.131L259.388 258.706L254.544 247.539C254.154 244.167 255.128 236.91 262.147 234.857C270.92 232.291 272.972 236.801 273.311 236.765C273.582 236.737 273.995 236.1 274.167 235.785C274.274 236.02 274.212 236.75 274.167 237.086C274.802 236.608 274.485 235.443 274.247 234.92C277.9 239.413 275.806 241.902 274.302 242.585C272.786 242.288 269.56 241.995 268.783 243.2C267.811 244.706 268.302 244.483 266.429 245.57C264.932 246.44 265.402 249.901 265.825 251.523L266.583 253.19L264.353 252.192C264.289 249.76 262.59 248.576 261.749 248.288C259.459 248.666 260.57 253.674 261.412 256.131Z" fill="#393939"/>
<path d="M278.955 311.474L273.481 278.918L267.213 275.56L268.606 311.83L278.955 311.474Z" fill="white"/>
<path d="M243.97 323.209C242.086 290.959 251.708 268.339 256.755 261.061L258.437 260.389C279.968 263.614 295.524 265.09 303.15 262.403L304.832 271.473C282.628 285.246 275.707 280.657 269.203 280.545C272.903 292.302 272.567 306.748 271.558 314.474C270.75 320.655 266.063 322.873 263.82 323.209H243.97Z" fill="#1DB6E7"/>
<path d="M487.005 309.959C486.663 309.607 486.39 309.153 486.159 308.668C485.317 306.895 485.145 304.815 485.37 302.864C491.456 294.484 498.56 299.986 501.352 303.784L506.293 316.587L499.887 320.266L498.38 316.462C497.168 316.041 496.248 316.905 494.233 318.467C492.218 320.028 491.638 317.79 491.405 317.483C491.268 317.302 490.813 317.166 490.439 317.088C490.261 317.05 490.148 316.866 490.208 316.694C490.261 316.543 490.181 316.379 490.03 316.326L489.799 316.246C489.562 316.164 489.415 315.929 489.444 315.68L489.472 315.438C489.494 315.253 489.391 315.077 489.22 315.004L488.891 314.863C488.086 314.519 487.67 313.645 487.73 312.771C487.798 311.775 487.681 310.652 487.005 309.959Z" fill="#EE9F86"/>
<path d="M504.4 311.794C505.401 314.35 505.492 307.241 505.691 305.304C505.94 304.008 505.436 297.851 503.12 295.16C501.454 293.224 499.608 291.132 495.68 292.58C502.57 289.624 498.185 291.329 494.613 292.988L494.895 292.162C495.502 290.382 496.249 289.092 496.986 288.735C503.2 286.076 511.754 283.321 513.304 278.776C514.544 275.14 519.714 274.412 522.145 274.502C536.056 272.953 554.476 258.181 538.263 254.977C522.05 251.773 523.805 256.101 516.713 265.396C509.62 274.691 508.982 268.443 497.503 275.718C488.319 281.539 491.749 289.657 494.613 292.988C498.185 291.329 502.57 289.624 495.68 292.58C495.346 292.703 494.997 292.851 494.632 293.028C494.363 293.143 494.08 293.263 493.784 293.389C481.909 298.44 484.313 307.63 485.294 305.43C486.078 303.671 492.959 304.83 496.301 305.63C497.017 302.178 498.111 303.029 499.893 303.893C501.64 304.74 503.093 308.454 504.327 311.607L504.4 311.794Z" fill="#393939"/>
<path d="M506.187 413.817L504.617 407.239L499.225 409.083L501.246 415.297L506.187 413.817Z" fill="#F3AEAE"/>
<path d="M501.009 415.34C502.647 414.793 505.532 412.461 506.77 411.363L506.956 411.198L512.015 416.148C508.302 419.442 502.261 429.158 497.347 429.158C493.821 429.157 490.797 429.665 490.164 428.309C490.843 427.707 497.494 424.286 498.115 423.262C499.939 420.255 500.371 417.596 501.009 415.34Z" fill="#1D104A"/>
<path d="M528.262 374.4C544.363 370.757 539.164 357.701 534.551 351.628L518.828 358.46L486.801 371.995C486.322 372.197 486.078 372.733 486.24 373.228L499.33 413.112L506.249 411.16C502.479 393.613 500.479 384.736 499.228 380.885C498.947 380.02 499.824 378.613 500.734 378.587C505.71 378.446 514.927 377.417 528.262 374.4Z" fill="#271713"/>
<path d="M533.952 349.066C535.108 350.501 533.776 350.946 533.417 351.396C527.258 354.374 515.562 361.28 514.439 361.823C513.316 362.365 512.974 361.977 512.944 361.715C512.348 360.009 510.197 355.843 509.195 353.973C504.741 345.658 501.116 343.219 497.126 339.748C493.136 336.277 494.349 331.658 495.016 324.69C495.55 319.115 502.043 315.754 505.223 314.77C507.132 314.54 511.775 315.425 515.074 320.808C519.198 327.537 532.506 347.273 533.952 349.066Z" fill="#143441"/>
<rect width="25.995" height="2.49159" rx="1.24579" transform="matrix(-0.877164 0.480139 0.480653 0.876939 534.9 348.65)" fill="#225367"/>
<path d="M503.704 413.817L503.869 407.434L496.743 409.083L498.764 415.297L503.704 413.817Z" fill="#F3AEAE"/>
<path d="M498.527 415.34C500.165 414.793 503.05 412.461 504.288 411.363L504.474 411.198L509.533 416.148C505.82 419.442 499.779 429.158 494.865 429.158C491.339 429.157 488.315 429.665 487.681 428.309C488.361 427.707 495.012 424.286 495.633 423.262C497.456 420.255 497.889 417.596 498.527 415.34Z" fill="#1D104A"/>
<path d="M527.766 374.399C544.599 370.756 539.163 357.7 534.341 351.628L517.903 358.459L484.412 371.997C483.92 372.197 483.669 372.746 483.841 373.249L497.519 413.111L504.752 411.159C500.828 393.689 498.738 384.813 497.429 380.935C497.135 380.064 498.027 378.612 498.947 378.588C504.14 378.451 513.789 377.425 527.766 374.399Z" fill="#3D2823"/>
<path fill-rule="evenodd" clip-rule="evenodd" d="M500.124 328.486L503.141 324.632C504.81 322.502 508 322.402 509.799 324.424C511.039 325.818 511.251 327.851 510.26 329.432C505.946 336.315 498.082 347.347 494.939 350.247C491.345 353.562 479.732 358.882 473.165 361.645C470.353 364.679 464.235 369.444 460.819 366.391C460.333 365.956 460.588 365.19 461.171 364.898C463.095 363.934 465.775 362.081 466.109 360.8C465.647 360.812 465.242 360.861 464.892 360.904C463.901 361.026 463.35 361.094 463.21 360.08C463.093 359.227 464.36 359.218 465.986 359.206C467.758 359.193 469.958 359.176 471.258 358.062L471.292 358.126C475.811 354.747 485.221 348.142 490.792 345.756L500.124 328.486Z" fill="#EE9F86"/>
<path d="M512.32 328.313C514.11 325.309 513.126 321.424 510.121 319.636V319.636C507.117 317.847 503.23 318.831 501.439 321.835L495.631 331.579L506.511 338.057L512.32 328.313Z" fill="#225367"/>
<defs>
<filter id="filter0_d" x="238.087" y="212.227" width="146.647" height="188.705" filterUnits="userSpaceOnUse" color-interpolation-filters="sRGB">
<feFlood flood-opacity="0" result="BackgroundImageFix"/>
<feColorMatrix in="SourceAlpha" type="matrix" values="0 0 0 0 0 0 0 0 0 0 0 0 0 0 0 0 0 0 127 0"/>
<feOffset dy="4"/>
<feGaussianBlur stdDeviation="4"/>
<feColorMatrix type="matrix" values="0 0 0 0 0 0 0 0 0 0 0 0 0 0 0 0 0 0 0.1 0"/>
<feBlend mode="normal" in2="BackgroundImageFix" result="effect1_dropShadow"/>
<feBlend mode="normal" in="SourceGraphic" in2="effect1_dropShadow" result="shape"/>
</filter>
<filter id="filter1_d" x="375.647" y="212.227" width="165.311" height="62.9759" filterUnits="userSpaceOnUse" color-interpolation-filters="sRGB">
<feFlood flood-opacity="0" result="BackgroundImageFix"/>
<feColorMatrix in="SourceAlpha" type="matrix" values="0 0 0 0 0 0 0 0 0 0 0 0 0 0 0 0 0 0 127 0"/>
<feOffset dy="4"/>
<feGaussianBlur stdDeviation="4"/>
<feColorMatrix type="matrix" values="0 0 0 0 0 0 0 0 0 0 0 0 0 0 0 0 0 0 0.1 0"/>
<feBlend mode="normal" in2="BackgroundImageFix" result="effect1_dropShadow"/>
<feBlend mode="normal" in="SourceGraphic" in2="effect1_dropShadow" result="shape"/>
</filter>
<filter id="filter2_d" x="218.074" y="212.58" width="148.706" height="191.636" filterUnits="userSpaceOnUse" color-interpolation-filters="sRGB">
<feFlood flood-opacity="0" result="BackgroundImageFix"/>
<feColorMatrix in="SourceAlpha" type="matrix" values="0 0 0 0 0 0 0 0 0 0 0 0 0 0 0 0 0 0 127 0"/>
<feOffset dy="4"/>
<feGaussianBlur stdDeviation="4"/>
<feColorMatrix type="matrix" values="0 0 0 0 0 0 0 0 0 0 0 0 0 0 0 0 0 0 0.1 0"/>
<feBlend mode="normal" in2="BackgroundImageFix" result="effect1_dropShadow"/>
<feBlend mode="normal" in="SourceGraphic" in2="effect1_dropShadow" result="shape"/>
</filter>
<filter id="filter3_d" x="357.952" y="212.58" width="166.64" height="62.5973" filterUnits="userSpaceOnUse" color-interpolation-filters="sRGB">
<feFlood flood-opacity="0" result="BackgroundImageFix"/>
<feColorMatrix in="SourceAlpha" type="matrix" values="0 0 0 0 0 0 0 0 0 0 0 0 0 0 0 0 0 0 127 0"/>
<feOffset dy="4"/>
<feGaussianBlur stdDeviation="4"/>
<feColorMatrix type="matrix" values="0 0 0 0 0 0 0 0 0 0 0 0 0 0 0 0 0 0 0.1 0"/>
<feBlend mode="normal" in2="BackgroundImageFix" result="effect1_dropShadow"/>
<feBlend mode="normal" in="SourceGraphic" in2="effect1_dropShadow" result="shape"/>
</filter>
<filter id="filter4_d" x="293.078" y="257.511" width="193.732" height="121.303" filterUnits="userSpaceOnUse" color-interpolation-filters="sRGB">
<feFlood flood-opacity="0" result="BackgroundImageFix"/>
<feColorMatrix in="SourceAlpha" type="matrix" values="0 0 0 0 0 0 0 0 0 0 0 0 0 0 0 0 0 0 127 0"/>
<feOffset dy="4"/>
<feGaussianBlur stdDeviation="4"/>
<feColorMatrix type="matrix" values="0 0 0 0 0 0 0 0 0 0 0 0 0 0 0 0 0 0 0.1 0"/>
<feBlend mode="normal" in2="BackgroundImageFix" result="effect1_dropShadow"/>
<feBlend mode="normal" in="SourceGraphic" in2="effect1_dropShadow" result="shape"/>
</filter>
</defs>
</svg>
