<svg width="1440" height="491" viewBox="0 0 1440 491" fill="none" xmlns="http://www.w3.org/2000/svg">
<mask id="mask0" mask-type="alpha" maskUnits="userSpaceOnUse" x="0" y="0" width="1440" height="491">
<rect width="1440" height="491" fill="#C4C4C4"/>
</mask>
<g mask="url(#mask0)">
<rect width="1440" height="491" fill="url(#paint0_linear)"/>
<g opacity="0.1">
<g opacity="0.6">
<path fill-rule="evenodd" clip-rule="evenodd" d="M70.2599 327.298C72.0265 321.534 75.6519 316.516 80.5701 313.029C85.4884 309.542 91.4228 307.781 97.4471 308.022C103.471 308.262 109.247 310.49 113.871 314.358C118.496 318.226 121.71 323.517 123.012 329.403C125.324 328.626 127.747 328.229 130.187 328.228C135.548 328.117 140.759 330.004 144.805 333.522C148.852 337.04 151.445 341.938 152.079 347.263C152.714 352.587 151.345 357.958 148.239 362.329C145.133 366.699 140.511 369.758 135.274 370.91C134.146 371.301 132.96 371.497 131.766 371.489H38.5771C37.1136 371.636 35.6354 371.475 34.2381 371.015C32.8407 370.556 31.5552 369.809 30.4644 368.822C29.3736 367.835 28.5018 366.63 27.905 365.286C27.3083 363.942 27 362.487 27 361.016C27 359.545 27.3083 358.09 27.905 356.746C28.5018 355.402 29.3736 354.197 30.4644 353.21C31.5552 352.223 32.8407 351.476 34.2381 351.017C35.6354 350.557 37.1136 350.396 38.5771 350.543H44.7172C44.2441 348.87 44.0021 347.141 43.9979 345.403C44.0163 342.846 44.539 340.317 45.5361 337.963C46.5332 335.608 47.9851 333.473 49.8087 331.68C51.6323 329.888 53.7917 328.473 56.1632 327.516C58.5346 326.559 61.0716 326.08 63.6286 326.105C65.8903 326.128 68.132 326.531 70.2599 327.298Z" fill="#F4F4F4"/>
<path fill-rule="evenodd" clip-rule="evenodd" d="M98.048 338.966C99.8147 333.201 103.44 328.184 108.358 324.697C113.277 321.21 119.211 319.449 125.235 319.689C131.26 319.93 137.035 322.158 141.659 326.026C146.284 329.894 149.498 335.184 150.8 341.071C153.113 340.299 155.536 339.908 157.975 339.913C163.334 339.807 168.542 341.697 172.585 345.217C176.628 348.736 179.217 353.634 179.849 358.957C180.481 364.28 179.111 369.648 176.006 374.017C172.9 378.386 168.28 381.443 163.045 382.595C161.914 382.974 160.729 383.163 159.536 383.157H66.3653C64.8959 383.316 63.4094 383.164 62.0025 382.711C60.5957 382.258 59.3 381.513 58.2 380.526C57.0999 379.539 56.2201 378.331 55.6178 376.982C55.0155 375.632 54.7042 374.17 54.7042 372.692C54.7042 371.214 55.0155 369.753 55.6178 368.403C56.2201 367.053 57.0999 365.845 58.2 364.858C59.3 363.871 60.5957 363.127 62.0025 362.673C63.4094 362.22 64.8959 362.068 66.3653 362.228H72.4878C72.0073 360.551 71.7652 358.815 71.7685 357.07C71.7869 354.513 72.3096 351.985 73.3067 349.63C74.3038 347.275 75.7558 345.14 77.5794 343.348C79.403 341.555 81.5624 340.14 83.9338 339.183C86.3053 338.227 88.8422 337.747 91.3992 337.773C93.6666 337.795 95.9142 338.199 98.048 338.966Z" fill="#F4F4F4"/>
</g>
<g opacity="0.6">
<path fill-rule="evenodd" clip-rule="evenodd" d="M1112.11 54.1404C1114.32 46.9296 1118.86 40.6533 1125.01 36.2912C1131.16 31.929 1138.59 29.7264 1146.12 30.0272C1153.66 30.3279 1160.88 33.115 1166.67 37.9536C1172.45 42.7921 1176.47 49.4098 1178.1 56.7737C1180.99 55.8012 1184.03 55.3046 1187.08 55.3034C1193.78 55.164 1200.3 57.5246 1205.36 61.9257C1210.43 66.3269 1213.67 72.4538 1214.46 79.1142C1215.26 85.7747 1213.54 92.4924 1209.66 97.96C1205.77 103.428 1199.99 107.254 1193.44 108.695C1192.03 109.183 1190.55 109.428 1189.05 109.419H1072.48C1070.65 109.603 1068.8 109.401 1067.05 108.826C1065.31 108.251 1063.7 107.317 1062.33 106.082C1060.97 104.848 1059.88 103.341 1059.13 101.659C1058.39 99.9776 1058 98.1581 1058 96.3181C1058 94.4781 1058.39 92.6585 1059.13 90.9767C1059.88 89.2949 1060.97 87.7883 1062.33 86.5539C1063.7 85.3195 1065.31 84.3848 1067.05 83.81C1068.8 83.2353 1070.65 83.0333 1072.48 83.2171H1080.16C1079.57 81.1249 1079.27 78.9616 1079.26 76.7873C1079.29 73.5886 1079.94 70.4259 1081.19 67.4804C1082.43 64.5348 1084.25 61.8644 1086.53 59.622C1088.81 57.3795 1091.51 55.6093 1094.48 54.4126C1097.45 53.2159 1100.62 52.6163 1103.82 52.6481C1106.65 52.6766 1109.45 53.1811 1112.11 54.1404Z" fill="#F4F4F4"/>
<path fill-rule="evenodd" clip-rule="evenodd" d="M1146.87 68.7346C1149.08 61.5238 1153.62 55.2476 1159.77 50.8854C1165.92 46.5233 1173.35 44.3207 1180.88 44.6214C1188.42 44.9221 1195.64 47.7093 1201.43 52.5478C1207.21 57.3864 1211.23 64.004 1212.86 71.368C1215.76 70.4025 1218.79 69.9134 1221.84 69.9196C1228.54 69.7863 1235.06 72.151 1240.11 76.5539C1245.17 80.9569 1248.41 87.0833 1249.2 93.7418C1249.99 100.4 1248.28 107.115 1244.39 112.58C1240.51 118.045 1234.73 121.87 1228.18 123.311C1226.77 123.785 1225.28 124.022 1223.79 124.013H1107.24C1105.4 124.213 1103.54 124.023 1101.78 123.456C1100.03 122.889 1098.4 121.958 1097.03 120.723C1095.65 119.488 1094.55 117.977 1093.8 116.289C1093.04 114.6 1092.66 112.772 1092.66 110.923C1092.66 109.074 1093.04 107.246 1093.8 105.558C1094.55 103.869 1095.65 102.359 1097.03 101.124C1098.4 99.8889 1100.03 98.9577 1101.78 98.3907C1103.54 97.8238 1105.4 97.6339 1107.24 97.8333H1114.9C1114.3 95.7355 1114 93.5637 1114 91.3815C1114.02 88.1829 1114.68 85.0202 1115.93 82.0746C1117.17 79.1291 1118.99 76.4586 1121.27 74.2162C1123.55 71.9738 1126.25 70.2035 1129.22 69.0068C1132.19 67.8101 1135.36 67.2105 1138.56 67.2424C1141.39 67.2705 1144.21 67.7749 1146.87 68.7346Z" fill="#F4F4F4"/>
</g>
<g opacity="0.6">
<path fill-rule="evenodd" clip-rule="evenodd" d="M147.26 34.2983C149.027 28.5339 152.652 23.5165 157.57 20.0293C162.488 16.5421 168.423 14.7813 174.447 15.0217C180.471 15.2621 186.247 17.4902 190.871 21.3582C195.496 25.2263 198.71 30.5166 200.012 36.4035C202.324 35.626 204.747 35.229 207.187 35.2281C212.548 35.1166 217.759 37.0037 221.805 40.5221C225.852 44.0404 228.445 48.9384 229.079 54.2629C229.714 59.5874 228.345 64.9577 225.239 69.3286C222.133 73.6995 217.511 76.7585 212.274 77.9103C211.146 78.3008 209.96 78.4966 208.766 78.4892H115.577C114.114 78.6361 112.635 78.4746 111.238 78.0152C109.841 77.5557 108.555 76.8085 107.464 75.8217C106.374 74.8349 105.502 73.6305 104.905 72.286C104.308 70.9415 104 69.4869 104 68.016C104 66.5451 104.308 65.0905 104.905 63.746C105.502 62.4016 106.374 61.1971 107.464 60.2103C108.555 59.2235 109.841 58.4763 111.238 58.0168C112.635 57.5574 114.114 57.3959 115.577 57.5428H121.717C121.244 55.8703 121.002 54.1409 120.998 52.4027C121.016 49.8456 121.539 47.3173 122.536 44.9626C123.533 42.6078 124.985 40.473 126.809 38.6804C128.632 36.8878 130.792 35.4726 133.163 34.5159C135.535 33.5592 138.072 33.0799 140.629 33.1054C142.89 33.1281 145.132 33.5314 147.26 34.2983Z" fill="#F4F4F4"/>
<path fill-rule="evenodd" clip-rule="evenodd" d="M175.048 45.9648C176.815 40.2004 180.44 35.183 185.358 31.6958C190.277 28.2086 196.211 26.4478 202.235 26.6882C208.26 26.9286 214.035 29.1567 218.659 33.0248C223.284 36.8928 226.498 42.1831 227.8 48.07C230.113 47.2982 232.536 46.9071 234.975 46.9121C240.334 46.8055 245.542 48.6959 249.585 52.2157C253.628 55.7355 256.217 60.6331 256.849 65.9561C257.481 71.279 256.111 76.6469 253.006 81.0158C249.9 85.3848 245.28 88.4425 240.045 89.5943C238.914 89.9728 237.729 90.1625 236.536 90.1557H143.365C141.896 90.3151 140.409 90.1633 139.003 89.7101C137.596 89.2569 136.3 88.5124 135.2 87.5253C134.1 86.5381 133.22 85.3303 132.618 83.9806C132.015 82.6308 131.704 81.1693 131.704 79.6913C131.704 78.2132 132.015 76.7518 132.618 75.402C133.22 74.0522 134.1 72.8445 135.2 71.8573C136.3 70.8701 137.596 70.1257 139.003 69.6725C140.409 69.2193 141.896 69.0674 143.365 69.2269H149.488C149.007 67.5499 148.765 65.8137 148.769 64.0692C148.787 61.5121 149.31 58.9838 150.307 56.6291C151.304 54.2743 152.756 52.1395 154.579 50.3469C156.403 48.5543 158.562 47.1391 160.934 46.1824C163.305 45.2257 165.842 44.7464 168.399 44.7719C170.667 44.7943 172.914 45.1976 175.048 45.9648Z" fill="#F4F4F4"/>
</g>
</g>
<g opacity="0.05">
<path d="M1198.94 490.758V209.276H1119.97V270.586H1034.5V490.758H1198.94Z" fill="#D0DAE4"/>
<path d="M1166.41 313.325H1182.21V297.529H1166.41V313.325Z" fill="#369ED8"/>
<path opacity="0.5" d="M1166.41 276.812H1182.21V261.016H1166.41V276.812Z" fill="#369ED8"/>
<path opacity="0.5" d="M1134.87 313.325H1150.67V297.529H1134.87V313.325Z" fill="#369ED8"/>
<path opacity="0.25" d="M1134.87 276.812H1150.67V261.016H1134.87V276.812Z" fill="#369ED8"/>
<path d="M662.654 249.464H599.27V489.366H662.654V249.464Z" fill="white"/>
<path d="M567.542 491.239V306.209H619.448V346.515H675.628V491.239H567.542Z" fill="#D0DAE4"/>
<path d="M588.91 364.223H578.531V374.601H588.91V364.223Z" fill="#369ED8"/>
<path d="M641.337 266.899H630.958V277.278H641.337V266.899Z" fill="#369ED8"/>
<path d="M641.337 286.558H630.958V296.936H641.337V286.558Z" fill="#369ED8"/>
<path opacity="0.5" d="M588.91 340.22H578.531V350.599H588.91V340.22Z" fill="#369ED8"/>
<path opacity="0.5" d="M609.648 364.223H599.27V374.601H609.648V364.223Z" fill="#369ED8"/>
<path opacity="0.5" d="M623.734 266.899H613.355V277.278H623.734V266.899Z" fill="#369ED8"/>
<path opacity="0.25" d="M609.648 340.22H599.27V350.599H609.648V340.22Z" fill="#369ED8"/>
<path d="M611.352 249.465V231.646L650.565 192.44V249.465H611.352Z" fill="white"/>
<path d="M1391.52 119.756H1295.09V484.716H1391.52V119.756Z" fill="white"/>
<path d="M1439.78 487.571V206.083H1360.82V267.4H1275.35V487.571H1439.78Z" fill="#D0DAE4"/>
<path d="M1407.26 310.129H1423.06V294.334H1407.26V310.129Z" fill="#369ED8"/>
<path d="M1327.51 162.079H1343.3V146.283H1327.51V162.079Z" fill="#369ED8"/>
<path d="M1327.51 191.979H1343.3V176.183H1327.51V191.979Z" fill="#369ED8"/>
<path opacity="0.5" d="M1407.26 273.623H1423.06V257.827H1407.26V273.623Z" fill="#369ED8"/>
<path opacity="0.5" d="M1375.73 310.129H1391.52V294.334H1375.73V310.129Z" fill="#369ED8"/>
<path opacity="0.5" d="M1354.29 162.079H1370.09V146.283H1354.29V162.079Z" fill="#369ED8"/>
<path opacity="0.25" d="M1375.73 273.623H1391.52V257.827H1375.73V273.623Z" fill="#369ED8"/>
<path d="M1373.13 119.756V92.6518L1313.48 33V119.756H1373.13Z" fill="white"/>
<path d="M553.281 250.824H489.896V489.073H553.281V250.824Z" fill="white"/>
<path d="M458.174 490.933V307.179H510.075V347.205H566.26V490.933H458.174Z" fill="#D0DAE4"/>
<path d="M479.543 364.795H469.164V375.102H479.543V364.795Z" fill="#369ED8"/>
<path d="M531.97 268.141H521.591V278.448H531.97V268.141Z" fill="#369ED8"/>
<path d="M531.97 287.663H521.591V297.97H531.97V287.663Z" fill="#369ED8"/>
<path opacity="0.5" d="M479.543 340.962H469.164V351.269H479.543V340.962Z" fill="#369ED8"/>
<path opacity="0.5" d="M500.275 364.795H489.896V375.102H500.275V364.795Z" fill="#369ED8"/>
<path opacity="0.5" d="M514.367 268.141H503.988V278.448H514.367V268.141Z" fill="#369ED8"/>
<path opacity="0.25" d="M500.275 340.962H489.896V351.269H500.275V340.962Z" fill="#369ED8"/>
<path d="M501.985 250.824V233.136L541.198 194.189V250.824H501.985Z" fill="white"/>
<path d="M145.927 452.585C145.927 452.585 159.434 448.82 192.996 437.921C281.378 409.23 311.76 354.832 397.124 369.789C482.483 384.746 551.147 441.244 630.939 431.275C710.731 421.306 705.164 351.405 801.662 368.072C898.159 384.739 887.02 439.989 992.797 438.122C1098.57 436.256 1096.71 353.167 1245.16 373.106C1393.61 393.044 1453 491.096 1453 491.096H13" fill="#E3E9F1"/>
</g>
</g>
<defs>
<linearGradient id="paint0_linear" x1="-33.5" y1="491" x2="1227.17" y2="-327.714" gradientUnits="userSpaceOnUse">
<stop stop-color="#DD6195"/>
<stop offset="1" stop-color="#261B58"/>
</linearGradient>
</defs>
</svg>
