<svg width="622" height="367" viewBox="0 0 622 367" fill="none" xmlns="http://www.w3.org/2000/svg">
<circle cx="315" cy="168" r="168" fill="#FDFBB6"/>
<mask id="mask0" mask-type="alpha" maskUnits="userSpaceOnUse" x="147" y="0" width="336" height="336">
<circle cx="315" cy="168" r="168" fill="#FDFBB6"/>
</mask>
<g mask="url(#mask0)">
<path d="M210.063 131.5C189.663 149.5 138.896 174.333 116.063 184.5C83.563 272.5 145.563 240.5 190.063 225.5C234.563 210.5 219.563 168.5 237.563 147.5C255.563 126.5 348.563 95.4999 308.563 63.4999C268.563 31.4999 235.563 109 210.063 131.5Z" stroke="#717D79"/>
<path d="M340.063 62.5C350.063 24.1 344.23 -8.5 340.063 -20L440.563 21.5C415.563 39.5 364.463 76.3 360.063 79.5C354.563 83.5 327.563 110.5 340.063 62.5Z" stroke="#717D79"/>
<path d="M132.063 268C153.563 271.667 200.363 270.7 215.563 237.5C234.563 196 231.063 179.5 284.063 172.5C337.063 165.5 379.063 130 404.563 80.5C424.963 40.9 459.063 25.3333 473.563 22.5" stroke="#717D79"/>
<path d="M132.063 301.5C153.563 305.167 200.363 304.2 215.563 271C234.563 229.5 231.063 213 284.063 206C337.063 199 379.063 163.5 404.563 114C424.963 74.4 459.063 58.8333 473.563 56" stroke="#717D79"/>
<path d="M378.063 181C423.663 165 453.063 110.333 462.063 85L522.063 150.5C512.23 163.167 475.463 195.3 407.063 222.5C321.563 256.5 321.063 201 378.063 181Z" stroke="#717D79"/>
</g>
<g opacity="0.9">
<path d="M26.9882 232.504C28.3977 238.789 24.9878 252.49 0.0720821 257.013C0.944994 250.415 7.5503 236.275 26.9882 232.504Z" fill="#5A92FF"/>
<path d="M158.783 319.247C147.685 300.329 116.269 256.744 79.3899 233.748C33.2905 205.002 46.0959 158.567 56.3402 146.774" stroke="black"/>
<path d="M78.1129 233.01C71.9236 228.588 51.6057 222.397 27.5316 233.01M442.427 283.868C460.141 278.463 498.258 250.552 509.015 182.153" stroke="black"/>
<path d="M53.4008 151.134C50.6263 145.483 50.8398 131.233 73.8895 119.44C74.5298 126.074 71.3285 141.699 53.4008 151.134Z" fill="#5A92FF"/>
<path d="M507.994 183.653C505.928 179.443 506.087 168.827 523.258 160.042C523.735 164.984 521.35 176.625 507.994 183.653Z" fill="#436DBF"/>
<path d="M505.43 151.339C506.48 156.021 503.939 166.228 485.377 169.598C486.028 164.682 490.949 154.148 505.43 151.339Z" fill="#436DBF"/>
<path d="M446.267 227.851C446.267 214.093 454.462 182.89 487.244 168.149" stroke="black"/>
<path d="M464.834 184.365C469.956 176.257 476.743 156.209 462.913 140.878" stroke="black"/>
<path d="M463.329 142.035C459.282 140.741 452.874 133.105 459.619 112.915C462.992 116.021 468.456 126.194 463.329 142.035Z" fill="#436DBF"/>
<path d="M121.778 292.321C171.374 340.227 204.086 329.543 213.68 319.932C219.584 309.582 170.137 208.298 92.6425 188.337C15.1484 168.376 -3.51362 218.916 19.5723 233.607C31.5325 241.218 102.207 267.313 121.778 292.321Z" fill="#123B8E"/>
<path d="M200.064 310.805C190.169 281.342 143.263 221.829 34.795 219.472" stroke="#041335"/>
<path d="M98.2772 268.477C94.1386 322.6 155.182 330.247 186.221 327.306C196.567 325.835 216.225 311.422 212.087 265.536C207.948 219.649 161.094 171.9 138.185 153.761C105.668 134.397 46.6939 108.904 70.9338 161.85C101.234 228.032 103.45 200.824 98.2772 268.477Z" fill="#5C88DF"/>
<path d="M82.9278 159.796C107.988 175.274 163.71 228.195 186.117 316.053" stroke="#4162B4"/>
<path d="M503.584 331.433C497.397 338.174 446.129 340.083 421.268 340.194L419.81 342.303C426.817 322.295 441.624 278.79 444.791 264.84C448.749 247.402 486.523 261.697 491.433 236.681C496.343 211.666 498.222 205.504 507.876 203.259C517.531 201.015 521.92 231.19 541.898 199.549C561.876 167.908 583.813 169.956 590.816 170.167C597.819 170.378 603.032 171.109 565.931 211.659C528.83 252.208 553.643 237.695 559.601 266.291C565.559 294.887 518.769 295.007 509.159 294.431C499.549 293.854 511.318 323.008 503.584 331.433Z" fill="#3160BB"/>
<path fill-rule="evenodd" clip-rule="evenodd" d="M508.372 258.694C514.078 244.27 523.982 232.522 534.067 223.692C544.153 214.861 554.391 208.973 560.719 206.26L560.437 205.319C554.008 208.075 543.673 214.024 533.499 222.932C523.325 231.84 513.284 243.733 507.488 258.383C503.896 267.463 501.082 273.785 498.603 278.279C496.125 282.772 494.001 285.405 491.8 287.139C489.6 288.873 487.281 289.743 484.34 290.639C483.759 290.816 483.154 290.994 482.523 291.18L482.519 291.181C480.794 291.688 478.869 292.254 476.684 293.021L477.894 263.348L476.928 263.386L475.706 293.372C474.946 293.65 474.157 293.953 473.335 294.287C466.007 297.26 460.299 302.853 456.148 308.605C451.999 314.356 449.38 320.299 448.235 324.038L449.149 324.261C450.258 320.64 452.821 314.813 456.892 309.172C460.962 303.532 466.515 298.11 473.597 295.236C474.485 294.876 475.334 294.552 476.146 294.257L476.634 294.237L476.641 294.079C478.899 293.277 480.88 292.695 482.671 292.168L482.671 292.168L482.675 292.166C483.312 291.979 483.925 291.799 484.517 291.618C487.48 290.716 489.956 289.801 492.323 287.936C494.69 286.071 496.905 283.29 499.423 278.726C501.939 274.164 504.775 267.785 508.372 258.694Z" fill="#2F4CAC"/>
<path d="M411.084 232.519C374.169 303.169 412.611 326.438 436.446 329.242C440.955 330.044 445.369 327.473 447.013 326.088C464.766 296.65 447.835 266.629 437.15 255.298L430.81 257.401V250.041L420.947 241.28L411.084 232.519Z" fill="#6A91E0"/>
<path fill-rule="evenodd" clip-rule="evenodd" d="M413.94 266.094C414.701 270.612 415.636 275.238 416.774 279.84C421.044 297.119 428.183 314.157 439.682 323.81L440.325 323.044C437.74 320.874 435.376 318.317 433.215 315.456L441.189 285.297L440.222 285.041L432.454 314.424C428.314 308.677 424.949 301.8 422.236 294.423L430.307 265.648L429.344 265.378L421.652 292.8C420.144 288.511 418.85 284.071 417.745 279.6C416.623 275.063 415.699 270.503 414.946 266.046L420.478 245.991L419.514 245.725L414.561 263.682C412.747 252.13 412.073 241.444 412.073 233.924H411.073C411.073 241.956 411.837 253.563 413.923 265.993L413.899 266.083L413.94 266.094Z" fill="#4773CC"/>
<path d="M127.627 326.009H143.977H160.329C165.036 303.961 171.031 246.188 163.302 227.162C153.64 203.379 151.41 181.827 102.358 180.34C61.141 179.091 102.11 279.187 127.627 326.009Z" fill="#2F4CAC"/>
<path fill-rule="evenodd" clip-rule="evenodd" d="M143.299 317.682C142.03 305.103 140.11 289.026 137.637 272.697C137.437 269.207 137.723 264.484 138.841 259.839C140.391 253.398 143.498 247.272 148.937 244.696L148.509 243.793C142.65 246.568 139.44 253.076 137.869 259.605C137.279 262.054 136.914 264.531 136.729 266.85C136.275 264.002 135.805 261.158 135.319 258.335C133.453 247.502 131.352 236.976 129.044 227.731L129.118 227.701C129.064 227.571 129.003 227.436 128.934 227.294C128.679 226.279 128.421 225.279 128.161 224.297C125.507 214.281 122.584 205.995 119.421 200.874L118.57 201.4C121.65 206.387 124.543 214.55 127.194 224.553C127.202 224.583 127.21 224.612 127.217 224.641C124.505 221.215 119.132 216.71 110.22 214.036L109.932 214.994C121.123 218.351 126.481 224.613 127.99 227.64C130.323 236.931 132.448 247.554 134.333 258.505C135.148 263.237 135.919 268.03 136.642 272.802C136.722 274.173 136.877 275.367 137.087 276.311L137.163 276.294C139.487 292.094 141.283 307.442 142.461 319.36C141.487 313.62 139.797 306.283 137.216 298.636C133.645 288.051 128.353 276.832 120.858 268.438L120.112 269.104C127.481 277.357 132.718 288.434 136.269 298.956C139.818 309.474 141.668 319.397 142.284 325.306L143.018 325.23L143.024 325.298L143.518 325.253L144.022 325.263C144.145 318.586 144.702 308.651 145.967 300.544C146.6 296.485 147.406 292.918 148.409 290.45C148.913 289.213 149.449 288.295 150.006 287.727C150.551 287.172 151.07 286.991 151.599 287.097L151.795 286.116C150.838 285.925 149.995 286.311 149.292 287.027C148.601 287.731 148.006 288.789 147.483 290.074C146.435 292.651 145.615 296.311 144.979 300.39C144.127 305.851 143.595 312.122 143.299 317.682Z" fill="#293159"/>
<path d="M529.389 262.701C504.417 288.367 503.376 320.796 505.978 333.802H459.154C459.154 296.517 473.895 277.441 489.503 260.967C505.11 244.492 560.604 230.618 529.389 262.701Z" fill="#F7A333"/>
<path d="M478.667 328.289C478.667 312.393 486.471 274.876 517.686 251.985" stroke="white"/>
</g>
<path d="M469.453 212.557C472.405 189.926 458.819 189.929 450.158 193.23C449.381 193.526 448.541 192.848 448.717 192.035C453.18 171.424 460.317 130.596 456.22 117.279C452.275 104.458 436.54 110.548 427.629 116.077C426.899 116.53 425.945 115.938 426.049 115.085C429.969 83.0321 434.312 57.6704 401.964 55.0825C376.115 53.0146 373.408 90.329 375.35 110.564C375.417 111.258 374.756 111.8 374.076 111.649C350.184 106.342 352.644 124.529 356.971 134.481C363.587 156.095 374.703 197.736 366.234 191.384C357.926 185.153 352.334 188.6 350.459 191.232C350.387 191.332 350.339 191.452 350.312 191.572C334.577 262.852 392.719 268.136 413.873 268.136C435.046 268.136 465.483 242.993 469.453 212.557Z" fill="#2F4CAC"/>
<path d="M401.965 84.1961C403.875 135.771 403.729 255.785 401.965 314.452L413.874 317.099C409.904 200.647 400.642 48.4661 401.965 84.1961Z" fill="#0F287A"/>
<path d="M411.227 254.903C424.019 246.081 450.927 224.467 456.22 208.587" stroke="#0F287A" stroke-linecap="round"/>
<path d="M404.61 242.994C394.075 235.936 371.916 218.645 367.557 205.941" stroke="#0F287A" stroke-linecap="round"/>
<path d="M407.257 171.535C419.296 163.469 444.621 143.707 449.603 129.189" stroke="#0F287A" stroke-linecap="round"/>
<path d="M407.257 190.061C399.732 185.02 370.671 136.939 367.557 127.865" stroke="#0F287A" stroke-linecap="round"/>
<path d="M441.695 200.648C441.254 209.47 445.136 225.791 464.191 220.498" stroke="#0F287A" stroke-width="0.5" stroke-linecap="round"/>
<path d="M423.169 219.174C422.727 227.996 426.609 244.317 445.665 239.024" stroke="#0F287A" stroke-width="0.5" stroke-linecap="round"/>
<path d="M425.816 131.835C425.374 140.657 429.256 156.978 448.312 151.685" stroke="#0F287A" stroke-width="0.5" stroke-linecap="round"/>
<path d="M391.351 150.362C391.713 157.07 388.521 169.48 372.851 165.455" stroke="#0F287A" stroke-width="0.5" stroke-linecap="round"/>
<path d="M386.058 208.587C386.421 215.296 383.228 227.706 367.558 223.681" stroke="#0F287A" stroke-width="0.5" stroke-linecap="round"/>
<path d="M294.84 254.401C296.854 238.966 287.934 238.494 281.834 240.595C281.047 240.866 280.201 240.192 280.376 239.378C283.522 224.701 288.374 196.606 285.529 187.359C282.834 178.6 272.319 182.384 265.971 186.173C265.233 186.613 264.274 186.022 264.379 185.169C267.114 162.921 269.896 145.398 247.352 143.594C229.345 142.154 227.298 167.875 228.585 182.205C228.648 182.899 228.002 183.452 227.32 183.309C210.946 179.872 212.673 192.518 215.692 199.463C220.348 214.672 228.17 243.973 222.211 239.503C216.412 235.154 212.494 237.505 211.143 239.351C211.07 239.45 211.021 239.571 210.995 239.692C199.965 289.795 240.852 293.51 255.732 293.51C270.63 293.51 292.047 275.818 294.84 254.401Z" fill="#5C88E0"/>
<path d="M247.352 164.08C248.696 200.371 248.593 284.82 247.352 326.101L255.732 327.963C252.939 246.022 246.421 138.939 247.352 164.08Z" fill="#3A5CA6"/>
<path d="M253.87 284.199C262.871 277.992 281.805 262.783 285.529 251.609" stroke="#3A5CA6" stroke-linecap="round"/>
<path d="M249.214 275.818C241.801 270.852 226.209 258.685 223.142 249.746" stroke="#3A5CA6" stroke-linecap="round"/>
<path d="M251.076 225.536C259.548 219.861 277.367 205.956 280.873 195.74" stroke="#3A5CA6" stroke-linecap="round"/>
<path d="M251.076 238.572C245.781 235.025 225.332 201.193 223.141 194.808" stroke="#3A5CA6" stroke-linecap="round"/>
<path d="M275.309 246.022C274.999 252.229 277.73 263.714 291.139 259.989" stroke="#3A5CA6" stroke-width="0.5" stroke-linecap="round"/>
<path d="M262.273 259.058C261.963 265.265 264.694 276.75 278.103 273.025" stroke="#3A5CA6" stroke-width="0.5" stroke-linecap="round"/>
<path d="M264.135 197.602C263.825 203.809 266.556 215.293 279.965 211.569" stroke="#3A5CA6" stroke-width="0.5" stroke-linecap="round"/>
<path d="M239.884 210.638C240.14 215.358 237.893 224.091 226.867 221.258" stroke="#3A5CA6" stroke-width="0.5" stroke-linecap="round"/>
<path d="M236.159 251.609C236.414 256.329 234.168 265.062 223.142 262.23" stroke="#3A5CA6" stroke-width="0.5" stroke-linecap="round"/>
<path d="M418.602 289.025C393.329 284.421 374.992 287.107 369.042 289.025L376.558 293.488L400.986 295.132L418.602 289.025Z" fill="#8F570C"/>
<path d="M391.589 303.705C391.401 294.309 385.795 275.284 383.016 266.946C380.863 257.746 378.436 244.491 385.952 265.067C395.347 290.786 391.824 315.449 391.589 303.705Z" fill="#316D91"/>
<path d="M389.114 303.466C391.364 294.342 390.873 274.514 390.346 265.741C390.648 256.298 391.734 242.866 393.669 264.686C396.087 291.96 386.301 314.871 389.114 303.466Z" fill="#234370"/>
<path d="M365.206 260.427C369.34 270.292 378.594 268.844 382.704 266.887C388.733 265.36 399.921 259.253 396.445 247.039C392.969 234.825 384.349 225.978 380.473 223.081L371.665 231.772L382.117 217.679L378.359 219.676L379.886 214.156L365.793 199.124L363.327 204.408V196.657C359.334 193.839 350.056 188.977 344.889 192.077C338.43 195.953 339.487 232.359 349.821 239.053C360.156 245.747 360.039 248.096 365.206 260.427Z" fill="#316D91"/>
<path d="M385.249 267.181C377.85 249.722 360.704 212.736 351.309 204.468" stroke="#1F506D"/>
<path d="M391.911 267.127C386.665 261.608 374.318 242.982 377.231 214.984C378.875 216.041 382.445 218.014 383.573 217.45C381.968 215.884 378.828 212.33 379.11 210.639C379.462 208.525 380.637 187.973 391.206 182.688L394.729 188.443L393.438 180.926C394.025 179.674 396.914 176.746 403.772 175.054C404.36 175.094 405.886 174.608 407.296 172.353C407.296 173.723 406.99 176.91 405.769 178.695C404.242 180.926 409.762 174.937 409.292 172.353C408.822 169.77 416.808 184.567 416.573 193.14C414.544 195.201 410.671 198.808 408.623 199.705C411.406 199.347 415.67 198.589 416.573 197.603C417.865 196.194 417.278 221.091 415.869 224.144L405.534 230.251L415.869 227.198C413.481 234.479 403.373 253.786 391.911 267.127H391.911Z" fill="#234370"/>
<path d="M392.06 266.947C390.846 247.725 390.98 206.77 401.22 196.717" stroke="#152F54"/>
<path d="M435.943 248.743C423.635 252.595 407.875 267.807 401.533 274.932L406.857 258.725L421.302 245.924L443.811 239.347L445.338 233.593C449.214 233.828 451.327 243.928 435.943 248.743Z" fill="#234370"/>
<path d="M414.921 252.853C409.754 261.779 403.764 271.057 401.415 274.58C400.672 270.587 401.65 260.44 411.515 251.796C423.846 240.992 429.014 242.284 434.181 240.405C438.315 238.902 439.192 236.49 439.114 235.472C440.241 236.976 439.583 239.387 439.114 240.405C443.06 238.526 444.907 235.081 445.338 233.593C448.25 234.909 448.117 237.43 447.687 238.526C441.697 246.747 421.38 241.697 414.921 252.853Z" fill="#08033B"/>
<path d="M393.115 303.94C394.054 293.417 400.396 279.121 403.449 273.288C407.207 266.711 412.658 257.363 402.981 271.644C390.885 289.495 391.94 317.093 393.115 303.94Z" fill="#234370"/>
<path d="M369.042 289.025L369.507 289.071C385.833 290.681 402.279 290.666 418.602 289.025V310.752C418.602 324.437 407.507 335.532 393.822 335.532C380.136 335.532 369.042 324.437 369.042 310.752V289.025Z" fill="#F5AA45"/>
<path d="M211.878 258.635C212.062 252.071 201.821 249.992 196.18 250.209L194.838 256.925C199.202 257.26 202.214 263.813 203.662 261.902C204.778 260.429 203.316 260.116 201.61 258.49C203.21 257.552 207.851 258.46 210.533 259.42C211.147 259.64 211.86 259.287 211.878 258.635Z" fill="#EE9F86"/>
<path d="M209.998 330.597V315.6L219.495 316.463L219.927 330.597H209.998Z" fill="#EE9F86"/>
<path d="M220.286 328.994C217.877 330.022 212.257 330.279 209.748 330.279H209.371L208.619 340.986H238.352C244.073 340.986 241.238 338.131 239.105 336.703C233.685 336.703 224.301 331.564 220.286 328.994Z" fill="#1D104A"/>
<path d="M179.716 317.45L186.289 304.95L194.843 310.856L189.054 322.872L179.716 317.45Z" fill="#F3AEAE"/>
<path d="M189.035 322.031C186.438 321.6 181.276 318.913 179.02 317.624L178.681 317.431L173.516 325.444L200.254 340.722C205.399 343.661 204.046 339.964 202.726 337.748C197.853 334.964 191.568 326.11 189.035 322.031Z" fill="#1D104A"/>
<path d="M159.429 283.223C140.089 283.568 138.42 263.509 140.003 256.026H178.423C191.086 258.328 217.707 263.279 222.887 264.66C228.068 266.041 229.363 271.279 229.363 273.725L222.433 323.801H207.778L209.83 288.573L191.806 320.78L178.4 313.873L193.243 281.188C183.091 282.127 170.694 283.021 159.429 283.223Z" fill="#79C7CE"/>
<mask id="mask1" mask-type="alpha" maskUnits="userSpaceOnUse" x="139" y="256" width="91" height="68">
<path d="M159.429 283.223C140.089 283.568 138.42 263.509 140.003 256.026H178.423C191.086 258.328 217.707 263.279 222.887 264.66C228.068 266.041 229.363 271.279 229.363 273.725L222.433 323.801H207.778L209.83 288.573L191.806 320.78L178.4 313.873L193.243 281.188C183.091 282.127 170.694 283.021 159.429 283.223Z" fill="#79C7CE"/>
</mask>
<g mask="url(#mask1)">
<path d="M210.345 280.633L193.077 281.496L168.903 312.146L190.919 325.528L209.05 297.9L210.345 280.633Z" fill="#5DB3BB"/>
</g>
<path d="M179.301 185.499C179.579 184.953 179.725 184.279 179.804 183.572C180.089 181.031 179.431 178.194 178.334 175.602C167.314 165.434 160.873 174.216 159.03 179.879L158.323 198.116L167.762 201.872L168.019 196.446C169.335 195.646 170.833 196.64 173.972 198.367C177.111 200.095 176.885 196.961 177.042 196.502C177.136 196.229 177.644 195.958 178.073 195.782C178.274 195.699 178.332 195.43 178.186 195.209C178.058 195.015 178.085 194.778 178.246 194.68L178.502 194.525C178.759 194.369 178.84 194.021 178.698 193.686L178.565 193.371C178.461 193.126 178.511 192.869 178.688 192.74L179.287 192.304C179.992 191.79 180.112 190.732 179.714 189.753C179.146 188.354 178.717 186.649 179.301 185.499Z" fill="#EE9F86"/>
<path fill-rule="evenodd" clip-rule="evenodd" d="M184.846 174.663C185.177 174.278 185.399 173.804 185.474 173.257C185.745 171.278 184.002 169.094 181.58 168.38C180.107 167.945 178.722 168.154 177.802 168.83C177.276 168.46 176.676 168.163 176.027 167.972C175.321 167.763 174.635 167.703 174.011 167.771C173.388 167.132 172.563 166.617 171.628 166.341C170.102 165.891 168.679 166.194 167.858 167.017C167.205 166.896 166.579 166.903 166.018 167.02C165.684 166.799 165.311 166.621 164.909 166.503C163.337 166.039 161.914 166.656 161.632 167.885C159.334 167.341 157.321 168.361 157.06 170.257C156.99 170.771 157.055 171.298 157.233 171.81C155.461 171.337 153.885 172.105 153.686 173.559C153.658 173.759 153.658 173.963 153.683 174.166C152.672 174.358 151.923 175.024 151.789 175.996C151.681 176.783 151.997 177.612 152.588 178.297C151.721 178.552 151.096 179.18 150.975 180.061C150.869 180.831 151.171 181.643 151.739 182.32C151.737 182.347 151.735 182.374 151.733 182.401C151.403 182.619 151.179 182.949 151.123 183.363C150.992 184.313 151.79 185.357 152.925 185.755C153.024 185.881 153.13 186.003 153.24 186.123C152.315 186.355 151.641 186.999 151.515 187.917C151.311 189.401 152.619 191.039 154.435 191.575C155.678 191.941 156.837 191.697 157.511 191.031C157.858 191.42 158.34 191.736 158.893 191.899C160.104 192.256 161.196 191.744 161.331 190.754C161.374 190.44 161.316 190.116 161.178 189.808C161.631 189.841 162.045 189.748 162.367 189.553C162.704 190.119 163.311 190.602 164.041 190.817C165.252 191.175 166.344 190.662 166.48 189.672C166.541 189.226 166.397 188.76 166.111 188.349C167.48 187.596 168.63 186.434 166.547 186.168C165.625 186.051 165.057 185.665 164.734 185.144C163.274 182.79 166.663 180.506 168.905 182.001C170.058 182.771 170.479 183.876 170.524 184.589C172.194 185.565 173.847 182.31 174.465 180.56C176.134 181.536 178.908 181.048 180.087 180.681L178.019 179.071C178.622 178.983 179.156 178.762 179.575 178.43C179.997 178.696 180.465 178.911 180.963 179.058C183.183 179.713 185.185 178.773 185.434 176.958C185.54 176.188 185.312 175.384 184.846 174.663ZM162.22 186.74C162.439 186.931 162.622 187.149 162.76 187.381C162.885 187.306 163.023 187.246 163.172 187.202C162.977 186.9 162.751 186.566 162.498 186.206C162.421 186.394 162.328 186.572 162.22 186.74Z" fill="#393939"/>
<path d="M138.712 253.38C138.092 255.634 139.067 256.179 139.843 256.492C150.062 256.492 171.387 257.136 173.25 257.136C175.113 257.136 175.32 256.51 175.19 256.197C174.88 253.944 171.149 245.272 171.279 242.612C171.946 228.894 178.261 226.056 177.088 218.646C175.916 211.237 176.151 204.379 166.921 199.764C159.659 196.133 159.163 195.893 155.011 197.089C152.294 197.871 146.629 201.408 145.697 209.296C144.533 219.155 139.489 250.563 138.712 253.38Z" fill="#E3482C"/>
<path d="M155.607 246.929V222.121L169.039 222.792L168.476 239.117C168.412 240.965 169.623 242.616 171.405 243.11L196.237 249.991L196.573 257.043L158.96 250.877C157.026 250.56 155.607 248.889 155.607 246.929Z" fill="#EE9F86"/>
<path d="M154.635 211.814C155.153 206.858 159.59 203.26 164.546 203.777C169.502 204.295 173.1 208.733 172.582 213.689L170.954 229.275L153.006 227.4L154.635 211.814Z" fill="#CE361B"/>
<path fill-rule="evenodd" clip-rule="evenodd" d="M224.139 265.523L241.208 235.958L236.486 233.231L220.96 260.123L190.638 255.277L189.874 260.057L224.078 265.523L224.083 265.491L224.139 265.523Z" fill="#C4C4C4"/>
<rect x="104.056" y="317.595" width="5.2336" height="19.5098" rx="2.6168" transform="rotate(-16.0693 104.056 317.595)" fill="#10256B"/>
<rect x="105.067" y="312.708" width="7.7126" height="28.751" rx="3.8563" transform="rotate(-16.0693 105.067 312.708)" fill="#041345"/>
<rect x="105.686" y="313.05" width="6.7126" height="27.751" rx="3.3563" transform="rotate(-16.0693 105.686 313.05)" stroke="white" stroke-opacity="0.04"/>
<path fill-rule="evenodd" clip-rule="evenodd" d="M160.665 339.427C177.7 339.109 191.252 325.042 190.934 308.006C190.616 290.971 176.549 277.419 159.514 277.737C145.671 277.995 134.128 287.333 130.459 299.964C127.829 304.302 124.644 308.114 120.431 309.322L130.808 333.923C131.604 333.908 132.394 333.873 133.189 333.837C136.464 333.69 139.808 333.541 143.851 334.817C148.727 337.842 154.502 339.542 160.665 339.427Z" fill="#FD8221"/>
<mask id="mask2" mask-type="alpha" maskUnits="userSpaceOnUse" x="119" y="277" width="73" height="64">
<path fill-rule="evenodd" clip-rule="evenodd" d="M160.665 339.427C177.7 339.109 191.252 325.042 190.934 308.006C190.616 290.971 176.549 277.419 159.514 277.737C145.671 277.995 134.128 287.333 130.459 299.964C127.829 304.302 124.644 308.114 120.431 309.322L130.808 333.923C131.604 333.908 132.394 333.873 133.189 333.837C136.464 333.69 139.808 333.541 143.851 334.817C148.727 337.842 154.502 339.542 160.665 339.427Z" fill="#FFB80B"/>
</mask>
<g mask="url(#mask2)">
<path fill-rule="evenodd" clip-rule="evenodd" d="M159.523 337.244C176.558 336.926 190.11 322.859 189.792 305.823C189.474 288.788 175.407 275.236 158.371 275.554C144.529 275.813 132.986 285.15 129.316 297.781C126.687 302.12 123.502 305.931 119.289 307.139L129.666 331.741C130.462 331.726 131.252 331.69 132.047 331.655C135.322 331.508 138.666 331.358 142.709 332.635C147.585 335.659 153.36 337.359 159.523 337.244Z" fill="#FDAC1A"/>
</g>
<path d="M149.28 307.79L126.3 316.483L127.484 320.869L151.596 313.807C158.383 313.313 170.56 314.335 173.628 313.396C176.697 312.457 174.873 311.169 173.577 310.642L165.552 310.159C164.335 310.086 164.283 308.314 165.492 308.168L172.963 307.269C175.146 306.126 172.738 305.069 171.831 305.637L168.006 306.364C166.786 306.596 166.32 304.84 167.494 304.436L171.781 302.962C174.808 299.82 171.913 300.204 170.087 300.789L163.309 303.906C162.217 304.408 161.715 303.477 162.733 302.838C165.349 301.193 167.847 299.557 168.944 298.607C170.658 295.93 168.896 296.036 167.802 296.424L156.869 306.08C156.11 306.75 155.696 306.38 156.313 305.577C158.755 302.404 162.526 297.491 163.375 295.405C164.639 292.295 162.779 293.028 161.691 293.783L149.28 307.79Z" stroke="#FFDC87" stroke-width="0.3"/>
<rect x="111.636" y="310.382" width="7.7126" height="28.751" rx="3.8563" transform="rotate(-16.0693 111.636 310.382)" fill="#041345"/>
<rect x="112.255" y="310.724" width="6.7126" height="27.751" rx="3.3563" transform="rotate(-16.0693 112.255 310.724)" stroke="white" stroke-opacity="0.04"/>
<rect x="118.204" y="308.055" width="7.7126" height="28.751" rx="3.8563" transform="rotate(-16.0693 118.204 308.055)" fill="#041345"/>
<rect x="118.823" y="308.397" width="6.7126" height="27.751" rx="3.3563" transform="rotate(-16.0693 118.823 308.397)" stroke="white" stroke-opacity="0.04"/>
<ellipse cx="148.67" cy="287.257" rx="3.3054" ry="6.0599" transform="rotate(71.3061 148.67 287.257)" fill="white" fill-opacity="0.31"/>
<rect x="464.759" y="338.672" width="9.03813" height="33.6923" rx="4.51907" transform="rotate(-90 464.759 338.672)" fill="#10256B"/>
<rect x="457.132" y="334.659" width="13.3192" height="49.6513" rx="6.65961" transform="rotate(-90 457.132 334.659)" fill="#011042"/>
<rect x="457.632" y="334.159" width="12.3192" height="48.6513" rx="6.15961" transform="rotate(-90 457.632 334.159)" stroke="white" stroke-opacity="0.04"/>
<path fill-rule="evenodd" clip-rule="evenodd" d="M528.05 255.168C535.665 226.746 518.799 197.532 490.377 189.917C461.956 182.301 432.742 199.168 425.127 227.589C418.938 250.685 428.916 274.304 448.124 286.431C454.066 292.868 458.869 299.975 458.86 307.543L504.645 302.083C505.001 300.755 505.32 299.427 505.64 298.091C506.962 292.586 508.312 286.965 512.364 280.865C519.713 274.22 525.295 265.45 528.05 255.168Z" fill="#FD8221"/>
<mask id="mask3" mask-type="alpha" maskUnits="userSpaceOnUse" x="407" y="176" width="135" height="146">
<path fill-rule="evenodd" clip-rule="evenodd" d="M528.05 255.168C535.665 226.746 518.799 197.532 490.377 189.917C461.956 182.301 432.742 199.168 425.127 227.589C418.938 250.685 428.916 274.304 448.124 286.431C454.066 292.868 458.869 299.975 458.86 307.543L504.645 302.083C505.001 300.755 505.32 299.427 505.64 298.091C506.962 292.586 508.312 286.965 512.364 280.865C519.713 274.22 525.295 265.45 528.05 255.168Z" fill="#FD8221"/>
</mask>
<g mask="url(#mask3)">
<path fill-rule="evenodd" clip-rule="evenodd" d="M523.881 256.02C531.497 227.599 514.63 198.385 486.209 190.77C457.788 183.154 428.574 200.021 420.958 228.442C414.77 251.538 424.748 275.157 443.956 287.284C449.898 293.721 454.7 300.827 454.691 308.396L500.477 302.935C500.832 301.608 501.151 300.279 501.472 298.944C502.794 293.438 504.144 287.818 508.195 281.718C515.544 275.073 521.126 266.303 523.881 256.02Z" fill="#FDAC1A"/>
</g>
<path d="M470.106 258.938L473.548 301.228L481.392 301.36L481.199 257.971C483.624 246.473 491.14 226.753 491.049 221.213C490.957 215.673 487.947 218.084 486.454 219.982L479.123 240.666C478.716 241.815 476.999 241.375 477.194 240.172L480.563 219.388C479.71 215.22 476.805 218.709 477.314 220.487L475.755 237.258C475.641 238.494 473.824 238.456 473.761 237.216L472.85 219.291C469.083 212.766 468.337 217.754 468.435 221.063L471.412 240.691C471.593 241.878 470.534 242.115 470.212 240.957C468.277 233.994 465.784 225.198 464.267 221.916C460.644 217.793 459.978 220.767 460.099 222.769L472.012 247.881C472.446 248.795 471.946 249.121 471.344 248.308C467.504 243.123 459.768 232.364 456.291 229.628C451.736 226.044 452.062 229.48 452.795 231.646L470.106 258.938Z" stroke="#FFDC87" stroke-width="0.3"/>
<rect x="456.412" y="322.646" width="13.3192" height="49.6513" rx="6.65961" transform="rotate(-90 456.412 322.646)" fill="#011042"/>
<rect x="456.912" y="322.146" width="12.3192" height="48.6513" rx="6.15961" transform="rotate(-90 456.912 322.146)" stroke="white" stroke-opacity="0.04"/>
<rect x="455.691" y="310.634" width="13.3192" height="49.6513" rx="6.65961" transform="rotate(-90 455.691 310.634)" fill="#011042"/>
<rect x="456.191" y="310.134" width="12.3192" height="48.6513" rx="6.15961" transform="rotate(-90 456.191 310.134)" stroke="white" stroke-opacity="0.04"/>
<ellipse cx="435.74" cy="250.134" rx="5.70824" ry="10.4651" transform="rotate(-2.62454 435.74 250.134)" fill="white" fill-opacity="0.31"/>
<path d="M479.058 333.857C481.96 328.336 481.629 325.677 481.101 325.038L479.187 321.106L486.403 319.156C486.53 320.251 486.878 322.917 487.254 324.825C487.725 327.211 490.075 329.453 494.752 333.303C499.429 337.152 493.978 339.223 488.509 334.414C483.04 329.605 481.565 333.667 480.08 334.289C478.893 334.787 478.904 334.209 479.058 333.857Z" fill="#EE9F86"/>
<path d="M419.671 293.064L452.826 318.31L442.971 331.488L418.715 314.863L399.707 340.261L390.022 335.449L412.252 294.789C413.747 292.054 417.269 291.235 419.671 293.064Z" fill="#332D7B"/>
<path d="M356.359 338.439L369.714 337.228L368.701 329.458L356.103 330.243L356.359 338.439Z" fill="#EE9F86"/>
<path d="M357.725 329.054C356.832 331.219 356.744 336.09 356.812 338.255L356.822 338.58L346.865 340.136L346.063 314.481C345.909 309.545 348.646 311.75 350.034 313.469C350.18 318.145 355.222 325.807 357.725 329.054Z" fill="#1D104A"/>
<path d="M456.265 337.828C473.312 336.698 474.126 320.613 472.532 315.01L438.795 318.126C429.665 320.325 412.441 322.114 404.297 322.869C401.749 323.106 399.226 323.582 396.753 324.326L395.944 324.57L362.166 329.318L362.91 340.411C371.008 339.307 376.863 340.703 388.765 340.787C400.668 340.872 407.286 340.291 411.286 338.531C419.176 338.767 439.219 338.958 456.265 337.828Z" fill="#5F5CB0"/>
<path d="M403.705 321.62C401.437 317.561 407.581 311.813 411.206 309.591L415.498 313.148C412.457 314.384 412.149 321.01 410.448 320.429C409.137 319.982 409.948 319.162 410.384 317.415C409.045 317.505 406.613 319.825 405.234 321.555C404.821 322.074 404.018 322.181 403.705 321.62Z" fill="#EE9F86"/>
<path d="M442.209 259.638C441.321 258.313 440.88 244.328 440.771 237.501L445.77 237.263L452.874 259.131L442.209 259.638Z" fill="#393939"/>
<path d="M439.607 240.458C439.451 239.85 439.437 239.174 439.49 238.493C439.682 235.996 440.812 233.607 442.296 231.619C454.328 226.442 458.69 237.128 459.366 243.118L456.712 260.376L447.304 260.198L448.051 255.045C446.979 253.788 445.415 254.13 442.2 254.516C438.984 254.902 439.762 252.072 439.699 251.583C439.662 251.294 439.246 250.848 438.884 250.517C438.71 250.359 438.702 250.083 438.877 249.934C439.03 249.803 439.046 249.571 438.913 249.414L438.709 249.174C438.5 248.929 438.486 248.575 438.675 248.323L438.86 248.075C439 247.888 438.999 247.627 438.856 247.435L438.435 246.866C437.848 246.075 437.925 245 438.484 244.215C439.251 243.139 439.934 241.739 439.607 240.458Z" fill="#EE9F86"/>
<path d="M443.15 233.676C443.231 237.078 445.243 242.095 453.005 241.728C453.98 241.545 455.894 241.918 455.749 244.867C455.567 248.554 455.305 251.018 456.837 255.032C457.661 257.281 458.447 258.089 458.737 258.211L468.017 257.773C468.29 244.683 463.432 219.986 441.816 225.911C439.356 227.117 435.901 229.801 438.077 233.443C439.023 235.026 442.694 235.534 443.159 233.637L443.15 233.676Z" fill="#393939"/>
<path d="M430.196 281.623C436.28 269.194 445.795 260.587 448.648 257.794C451.672 264.533 453.109 281.244 443.818 294.52C434.527 307.795 419.539 313.427 413.207 314.583L408.652 309.825C413.299 305.603 424.112 294.051 430.196 281.623Z" fill="#182E79"/>
<path d="M443.078 317.03C439.439 305.109 445.403 273.249 447.682 258.767C448.751 259.109 449.938 258.999 450.979 258.461L451.669 258.104L464.283 257.296L475.697 314.041L443.078 317.03Z" fill="white"/>
<path d="M445.822 316.406C439.971 299.705 447.56 268.517 452.086 255.011L473.503 252.352C478.015 254.44 472.957 262.712 469.864 266.587C483.25 277.594 488.457 308.673 489.387 322.837C487.05 323.168 481.116 324.359 480.22 324.163C479.325 323.967 476.987 317.371 475.413 314.388L445.822 316.406Z" fill="#2F4CAC"/>
<mask id="mask4" mask-type="alpha" maskUnits="userSpaceOnUse" x="443" y="252" width="47" height="72">
<path d="M445.396 316.513C439.608 300.176 447.517 269.228 452.194 255.796L473.862 252.662C478.407 254.614 473.231 262.895 470.075 266.792C483.522 277.33 488.55 307.866 489.382 321.817C487.017 322.198 481.354 323.154 480.451 322.982C479.547 322.811 476.89 316.72 475.321 313.815L445.396 316.513Z" fill="#1DB6E7"/>
</mask>
<g mask="url(#mask4)">
<path d="M467.788 295.282L475.854 315.418L463.09 320.652L467.788 295.282Z" fill="#182E79"/>
</g>
<path d="M363.998 119.202C368.272 124.492 360.415 133.139 355.663 136.544L349.344 132.082C353.322 130.145 352.86 121.127 355.253 121.769C357.098 122.264 356.103 123.446 355.741 125.855C357.651 125.605 360.887 121.888 362.46 119.403C362.809 118.852 363.588 118.694 363.998 119.202Z" fill="#EC8F71"/>
<path d="M319.801 150.06C304.098 153.516 292.551 159.306 288.741 161.768C296.056 167.067 315.012 175.949 332.315 169.089C349.618 162.23 354.05 146.222 356.605 139.359L351.899 132.873C346.075 136.973 335.505 146.604 319.801 150.06Z" fill="#079FCF"/>
<rect x="361.008" y="66.0571" width="6.02542" height="22.4615" rx="3.01271" transform="rotate(90 361.008 66.0571)" fill="#10256B"/>
<rect x="366.093" y="68.7327" width="8.87949" height="33.1009" rx="4.43974" transform="rotate(90 366.093 68.7327)" fill="#041345"/>
<rect x="365.593" y="69.2327" width="7.87949" height="32.1009" rx="3.93974" transform="rotate(90 365.593 69.2327)" stroke="white" stroke-opacity="0.04"/>
<path fill-rule="evenodd" clip-rule="evenodd" d="M318.815 121.726C313.738 140.674 324.983 160.15 343.93 165.227C362.878 170.304 382.354 159.059 387.431 140.112C391.557 124.714 384.904 108.968 372.098 100.883C368.137 96.592 364.936 91.8548 364.942 86.8096L334.418 90.4499C334.181 91.3347 333.968 92.2205 333.755 93.1109C332.873 96.7813 331.973 100.529 329.272 104.595C324.373 109.026 320.652 114.872 318.815 121.726Z" fill="#FD8221"/>
<mask id="mask5" mask-type="alpha" maskUnits="userSpaceOnUse" x="309" y="77" width="91" height="98">
<path fill-rule="evenodd" clip-rule="evenodd" d="M318.815 121.726C313.738 140.674 324.983 160.15 343.93 165.227C362.878 170.304 382.354 159.059 387.431 140.112C391.557 124.714 384.904 108.968 372.098 100.883C368.137 96.592 364.936 91.8548 364.942 86.8096L334.418 90.4499C334.181 91.3347 333.968 92.2205 333.755 93.1109C332.873 96.7813 331.973 100.529 329.272 104.595C324.373 109.026 320.652 114.872 318.815 121.726Z" fill="#FFB80B"/>
</mask>
<g mask="url(#mask5)">
<path fill-rule="evenodd" clip-rule="evenodd" d="M321.594 121.158C316.517 140.106 327.761 159.582 346.709 164.659C365.656 169.736 385.132 158.491 390.209 139.544C394.335 124.146 387.682 108.4 374.876 100.315C370.915 96.0239 367.714 91.2866 367.72 86.2415L337.197 89.8818C336.96 90.7666 336.747 91.6524 336.533 92.5428C335.652 96.2132 334.752 99.9604 332.05 104.027C327.152 108.457 323.431 114.304 321.594 121.158Z" fill="#FDAC1A"/>
</g>
<path d="M357.444 119.213L355.149 91.0197L349.919 90.9317L350.048 119.858C348.432 127.523 343.421 140.67 343.482 144.363C343.543 148.057 345.549 146.449 346.545 145.184L350.197 134.878C350.604 133.729 352.322 134.169 352.127 135.372L350.472 145.58C351.041 148.358 352.978 146.032 352.639 144.847L353.248 138.286C353.363 137.051 355.18 137.089 355.243 138.328L355.614 145.644C358.126 149.994 358.623 146.669 358.557 144.463L357.052 134.537C356.872 133.349 357.908 133.123 358.236 134.278C359.34 138.169 360.54 142.171 361.336 143.894C363.752 146.643 364.195 144.66 364.115 143.326L356.685 127.664C356.251 126.749 356.728 126.447 357.328 127.262C360.039 130.944 364.534 137.085 366.654 138.753C369.691 141.142 369.473 138.851 368.984 137.407L357.444 119.213Z" stroke="#FFDC87" stroke-width="0.3"/>
<rect x="366.573" y="76.7407" width="8.87949" height="33.1009" rx="4.43974" transform="rotate(90 366.573 76.7407)" fill="#041345"/>
<rect x="366.073" y="77.2407" width="7.87949" height="32.1009" rx="3.93974" transform="rotate(90 366.073 77.2407)" stroke="white" stroke-opacity="0.04"/>
<rect x="367.054" y="84.7495" width="8.87949" height="33.1009" rx="4.43974" transform="rotate(90 367.054 84.7495)" fill="#041345"/>
<rect x="366.554" y="85.2495" width="7.87949" height="32.1009" rx="3.93974" transform="rotate(90 366.554 85.2495)" stroke="white" stroke-opacity="0.04"/>
<ellipse cx="380.354" cy="125.082" rx="3.80549" ry="6.97674" transform="rotate(177.375 380.354 125.082)" fill="white" fill-opacity="0.31"/>
<path d="M363.949 125.483C368.222 130.773 360.365 139.42 355.613 142.825L349.294 138.363C353.272 136.426 352.81 127.408 355.204 128.05C357.049 128.545 356.053 129.727 355.691 132.136C357.601 131.886 360.837 128.169 362.41 125.684C362.759 125.133 363.539 124.975 363.949 125.483Z" fill="#EE9F86"/>
<path d="M261.55 321.068L262.006 310.456L274.736 312.302L270.899 324.34L261.55 321.068Z" fill="#EE9F86"/>
<path d="M270.573 323.457C268.063 323.317 262.825 321.312 260.519 320.327L260.173 320.179L256.389 328.275L283.709 339.947C288.966 342.193 287.185 338.843 285.638 336.886C280.658 334.759 273.52 327.047 270.573 323.457Z" fill="#1D104A"/>
<path d="M312.912 330.198L310.003 319.479L321.639 315.769L322.054 329.374L312.912 330.198Z" fill="#EE9F86"/>
<path d="M322.402 327.83C320.083 328.82 314.672 329.067 312.257 329.067H311.895L311.17 339.374H339.792C345.3 339.374 342.57 336.626 340.517 335.251C335.3 335.251 326.266 330.304 322.402 327.83Z" fill="#1D104A"/>
<path d="M295.705 262.197C290.195 279.516 283.224 299.216 274.682 319.924L259.875 315.353C264.03 303.163 271.69 267.813 274.682 205.646L311.251 203.568C315.545 219.359 323.8 264.738 322.471 319.924L308.757 320.339C305.818 305.141 301.026 282.759 295.705 262.197Z" fill="#79C7CE"/>
<mask id="mask6" mask-type="alpha" maskUnits="userSpaceOnUse" x="259" y="203" width="64" height="118">
<path d="M295.705 262.197C290.195 279.516 283.224 299.216 274.682 319.924L259.875 315.353C264.03 303.163 271.69 267.813 274.682 205.646L311.251 203.568C315.545 219.359 323.8 264.738 322.471 319.924L308.757 320.339C305.818 305.141 301.026 282.759 295.705 262.197Z" fill="#79C7CE"/>
</mask>
<g mask="url(#mask6)">
<path d="M295.876 261.331L305.849 321.586H326.211L330.782 280.446L311.251 202.322L295.876 261.331Z" fill="#5EB3BB"/>
</g>
<path d="M308.392 133.815L307.883 130.213L306.466 126.876C305.488 126.32 301.44 125.671 293.081 127.527C284.722 129.383 287.054 143.289 289.265 150.01L289.107 152.434C293.946 154.853 302.081 156.074 301.212 154.027C300.4 152.116 300.361 152.592 300.455 151.183C301.994 151.401 303.507 151.363 304.714 151.071C306.761 150.577 306.165 148.31 305.611 147.238L305.776 147.156C306.294 146.899 306.53 146.257 306.303 145.722L307.021 145.201C307.272 145.019 307.395 144.696 307.329 144.391C307.216 143.864 307.478 143.315 307.953 143.079L309.107 142.505C309.61 142.256 309.787 141.595 309.474 141.133L307.919 138.842C307.541 138.285 307.509 137.537 307.838 136.921C308.346 135.967 308.541 134.874 308.392 133.815Z" fill="#EE9F86"/>
<path d="M291.477 146.704L288.848 149.798L284.005 137.734C283.823 133.985 285.593 125.736 294.138 122.733C304.819 118.98 306.889 123.843 307.296 123.769C307.621 123.71 308.167 122.954 308.399 122.583C308.507 122.836 308.371 123.663 308.29 124.044C309.087 123.445 308.807 122.167 308.567 121.604C312.548 126.287 309.841 129.292 307.99 130.208C306.207 130.025 302.383 130.016 301.355 131.446C300.069 133.235 300.673 132.936 298.348 134.343C296.489 135.468 296.76 139.31 297.128 141.091L297.892 142.888L295.317 141.987C295.443 139.263 293.516 138.101 292.537 137.86C289.774 138.512 290.679 144.028 291.477 146.704Z" fill="#393939"/>
<path d="M313.064 211.464L306.672 173.418L299.351 169.493L300.978 211.88L313.064 211.464Z" fill="white"/>
<path d="M272.207 225.178C270.006 187.49 281.244 161.056 287.137 152.55L289.102 151.764C314.249 155.533 342.136 139.134 351.042 135.993L356.474 142.104C323.275 166.812 306.907 175.32 301.675 175.32C305.997 189.06 305.605 205.941 304.426 214.971C303.483 222.194 298.008 224.785 295.389 225.178H272.207Z" fill="#1DB6E7"/>
<line x1="55" y1="341" x2="543" y2="341" stroke="black" stroke-width="4"/>
</svg>
