<svg width="1440" height="928" viewBox="0 0 1440 928" fill="none" xmlns="http://www.w3.org/2000/svg">
<mask id="mask0" style="mask-type:alpha" maskUnits="userSpaceOnUse" x="0" y="0" width="1440" height="928">
<rect width="1440" height="928" fill="#C4C4C4"/>
</mask>
<g mask="url(#mask0)">
<g clip-path="url(#clip0)">
<rect width="1440" height="329" transform="translate(0 615.999)" fill="white"/>
<rect x="-12.9033" y="642.182" width="356.559" height="321.265" fill="#132D4C"/>
<path d="M9.52721 744.002C30.8626 748.816 51.6409 733.339 55.9369 709.435C60.2328 685.53 46.4197 662.25 25.0843 657.437C3.7489 652.624 -17.0294 668.1 -21.3254 692.004C-25.6214 715.909 -11.8082 739.189 9.52721 744.002Z" fill="#ED157B"/>
<path d="M320.29 955.882C341.625 960.695 362.404 945.218 366.7 921.314C370.996 897.41 357.182 874.129 335.847 869.316C314.512 864.503 293.733 879.979 289.437 903.884C285.141 927.788 298.955 951.068 320.29 955.882Z" fill="url(#paint0_linear)"/>
<path fill-rule="evenodd" clip-rule="evenodd" d="M370.969 615.683C370.969 627.02 368.992 637.84 365.404 647.733C376.6 651.066 384.851 662.501 384.851 676.095C384.851 686.717 379.814 696.02 372.27 701.171C379.923 707.826 384.848 718.232 384.848 729.927C384.848 746.93 374.438 761.209 360.369 765.198C367.022 775.017 370.97 787.263 370.97 800.542C370.97 810.075 368.935 819.076 365.325 827.029C380.06 830.474 391.13 845.109 391.13 862.642C391.13 871.521 388.291 879.656 383.575 885.972C396.346 894.191 404.946 909.625 404.946 927.31C404.946 953.621 385.91 974.949 362.427 974.949C338.944 974.949 319.907 953.621 319.907 927.31C319.907 911.85 326.48 898.11 336.666 889.406C330.224 882.758 326.188 873.228 326.188 862.642C326.188 861.217 326.262 859.811 326.404 858.428C323.905 858.84 321.348 859.053 318.746 859.053C289.904 859.053 266.523 832.857 266.523 800.542C266.523 768.227 289.904 742.03 318.746 742.03C319.764 742.03 320.775 742.063 321.778 742.127C320.567 738.313 319.907 734.207 319.907 729.927C319.907 714.852 328.091 701.918 339.753 696.399C337.72 694.023 336.04 691.264 334.808 688.229C323.217 696.241 309.562 700.865 294.943 700.865C267.435 700.865 243.339 684.497 229.991 659.979C225.674 669.54 216.824 676.095 206.607 676.095C203.102 676.095 199.757 675.323 196.702 673.924C183.271 700.909 157.541 719.16 128.006 719.16C104.156 719.16 82.7862 707.258 68.3711 688.466C62.4244 690.755 56.0434 691.998 49.4033 691.998C17.1793 691.998 -8.94336 662.73 -8.94336 626.626C-8.94336 590.522 17.1793 561.253 49.4033 561.253C58.1363 561.253 66.4211 563.403 73.8593 567.256C87.9561 552.242 107.021 543.027 128.006 543.027C167.267 543.027 199.805 575.279 205.667 617.426C205.979 617.414 206.292 617.407 206.607 617.407C211.114 617.407 215.355 618.683 219.058 620.929C218.964 619.194 218.916 617.445 218.916 615.683C218.916 568.639 252.954 530.502 294.943 530.502C336.931 530.502 370.969 568.639 370.969 615.683Z" fill="white"/>
<path fill-rule="evenodd" clip-rule="evenodd" d="M359.915 629.617C359.915 640.953 357.938 651.773 354.35 661.666C365.546 665 373.795 676.434 373.795 690.027C373.795 700.648 368.759 709.951 361.216 715.102C368.871 721.757 373.797 732.164 373.797 743.86C373.797 760.864 363.386 775.143 349.316 779.131C355.968 788.95 359.916 801.196 359.916 814.474C359.916 824.008 357.881 833.009 354.271 840.962C369.006 844.407 380.075 859.043 380.075 876.575C380.075 885.453 377.237 893.588 372.522 899.904C385.293 908.123 393.895 923.557 393.895 941.243C393.895 967.554 374.858 988.883 351.375 988.883C327.892 988.883 308.855 967.554 308.855 941.243C308.855 925.784 315.428 912.044 325.612 903.341C319.17 896.693 315.134 887.162 315.134 876.575C315.134 875.15 315.207 873.744 315.349 872.361C312.85 872.773 310.294 872.986 307.693 872.986C278.851 872.986 255.47 846.789 255.47 814.474C255.47 782.159 278.851 755.963 307.693 755.963C308.711 755.963 309.722 755.995 310.726 756.06C309.515 752.246 308.855 748.14 308.855 743.86C308.855 728.786 317.038 715.853 328.699 710.333C326.665 707.957 324.985 705.198 323.753 702.163C312.162 710.175 298.507 714.798 283.889 714.798C256.381 714.798 232.286 698.43 218.938 673.913C214.621 683.473 205.77 690.028 195.553 690.028C192.048 690.028 188.704 689.256 185.648 687.857C172.217 714.842 146.487 733.093 116.952 733.093C93.1018 733.093 71.7325 721.191 57.3174 702.399C51.3707 704.688 44.9897 705.931 38.3496 705.931C6.12562 705.931 -19.9971 676.663 -19.9971 640.559C-19.9971 604.455 6.12562 575.187 38.3496 575.187C47.0825 575.187 55.3674 577.336 62.8056 581.189C76.9023 566.175 95.9669 556.961 116.952 556.961C156.213 556.961 188.751 589.212 194.613 631.359C194.925 631.347 195.239 631.341 195.553 631.341C200.06 631.341 204.301 632.616 208.004 634.862C207.91 633.127 207.862 631.378 207.862 629.617C207.862 582.572 241.9 544.436 283.889 544.436C325.877 544.436 359.915 582.572 359.915 629.617Z" fill="white" fill-opacity="0.06"/>
</g>
<path d="M1761.82 5.96842L783.569 -180.346L597.874 794.659L1576.13 980.973L1761.82 5.96842Z" fill="url(#paint1_linear)"/>
<path d="M863.698 248.32C899.552 255.149 934.154 231.619 940.983 195.764C947.812 159.909 924.281 125.308 888.427 118.479C852.572 111.65 817.97 135.18 811.141 171.035C804.313 206.89 827.843 241.492 863.698 248.32Z" fill="url(#paint2_linear)"/>
<g opacity="0.1">
<g opacity="0.1">
<path opacity="0.1" d="M1094.53 -82.3135C1094.53 -82.3135 1101.76 -47.0629 1094 -35.074C1086.25 -23.0851 1085.11 1.10518 1077.1 -3.91858C1069.09 -8.94234 1071.01 -8.54959 1069.45 -21.3142C1067.88 -34.0788 1080.07 -45.5916 1067.91 -34.074C1055.75 -22.5563 1058.33 -30.9002 1055.43 -13.0173C1052.52 4.86559 1055.34 0.405993 1051.13 9.57046C1046.91 18.7349 1063.91 13.0049 1063.91 2.53651C1063.9 -7.93189 1071.69 13.9873 1078.3 10.7749C1084.91 7.56243 1085.88 10.2188 1088.6 3.76873C1091.33 -2.68132 1096.12 -12.2362 1098.07 -19.8597C1100.03 -27.4832 1104.35 -37.0743 1103.2 -46.7873C1102.05 -56.5004 1103.29 -60.2106 1100.23 -67.7627C1097.17 -75.3149 1094.53 -82.3135 1094.53 -82.3135Z" fill="white"/>
<path opacity="0.1" d="M1039.95 -55.3395C1039.95 -55.3395 1047.17 -20.0634 1039.42 -8.0999C1031.68 3.86362 1030.54 28.0792 1022.52 23.0555C1014.51 18.0317 1016.44 18.4244 1014.87 5.65983C1013.3 -7.10477 1025.46 -18.6224 1013.3 -7.10475C1001.14 4.41291 1003.73 -3.93092 1000.82 13.952C997.918 31.8348 1000.76 27.4054 996.522 36.5397C992.284 45.674 1009.33 39.9789 1009.33 29.5105C1009.32 19.0421 1017.11 40.9614 1023.7 37.7441C1030.28 34.5268 1031.3 37.1928 1034 30.738C1036.7 24.2831 1041.54 14.7379 1043.49 7.13976C1045.44 -0.458394 1049.77 -10.0749 1048.62 -19.7879C1047.47 -29.5009 1048.68 -33.2414 1045.65 -40.7887C1042.62 -48.336 1039.95 -55.3395 1039.95 -55.3395Z" fill="white"/>
<path opacity="0.1" d="M1078.86 60.1932C1078.86 60.1932 1080.52 34.3412 1087.53 31.3633C1094.54 28.3853 1091.77 42.9277 1100.61 36.011C1109.45 29.0944 1113.68 18.0905 1115.85 6.6951C1118.02 -4.70029 1114.13 -11.885 1121.68 -12.603C1129.23 -13.321 1126.38 -20.3076 1129.34 -13.3017C1132.29 -6.29586 1136.84 -7.55886 1140.87 -17.5476C1143.13 -23.9922 1145.77 -30.2957 1148.78 -36.4239C1154.05 -47.255 1140.33 -18.4395 1148.14 -5.40789C1155.94 7.62368 1152.37 -38.9752 1166.05 -37.4491C1179.72 -35.923 1174.21 -6.96499 1169.69 -0.224853C1165.17 6.51528 1146.89 17.9726 1143.2 20.5046C1139.51 23.0366 1135.12 18.1771 1128.49 18.7803C1120.84 19.4536 1114.13 32.1422 1114.13 32.1422C1114.13 32.1422 1111.12 42.2989 1108.44 45.0242C1105.77 47.7495 1113.92 43.9098 1105.8 47.729C1100.27 49.9128 1094.12 49.8987 1088.61 47.6894C1088.61 47.6894 1077.27 51.7105 1078.86 60.1932Z" fill="white"/>
<path opacity="0.4" d="M1016.39 -4.91043C1016.39 -4.91043 1072.26 -31.3521 1095.95 5.40412C1119.65 42.1603 1135.32 61.0834 1148.57 30.4683C1161.81 -0.146805 1216.26 -22.3899 1156.06 -50.3181C1095.87 -78.2464 1041.19 -106.018 1024.82 -65.5033C1008.46 -24.989 1016.39 -4.91043 1016.39 -4.91043Z" fill="#231F20"/>
</g>
</g>
<path d="M1348.7 633.32C1384.55 640.149 1419.15 616.619 1425.98 580.764C1432.81 544.909 1409.28 510.308 1373.43 503.479C1337.57 496.65 1302.97 520.18 1296.14 556.035C1289.31 591.89 1312.84 626.492 1348.7 633.32Z" fill="#ED157B"/>
<g opacity="0.1">
<g opacity="0.1">
<path opacity="0.1" d="M1465.79 579.213C1465.79 579.213 1431.07 588.75 1418.61 581.801C1406.15 574.852 1381.92 575.313 1386.4 566.987C1390.88 558.661 1390.64 560.589 1403.25 558.203C1415.85 555.817 1428.28 567.205 1415.88 555.796C1403.49 544.388 1412.11 546.477 1394.06 544.748C1376 543.019 1380.75 545.58 1371.24 541.928C1361.73 538.276 1368.76 554.948 1379.1 554.235C1389.44 553.521 1368.18 562.675 1371.84 569.132C1375.5 575.59 1372.88 576.642 1379.49 578.953C1386.1 581.264 1395.96 585.404 1403.68 586.848C1411.4 588.292 1421.3 591.991 1430.89 590.216C1440.49 588.44 1444.2 589.384 1451.63 585.855C1459.07 582.326 1465.79 579.213 1465.79 579.213Z" fill="white"/>
<path opacity="0.1" d="M1435.27 526.508C1435.27 526.508 1400.55 536.045 1388.09 529.096C1375.63 522.147 1351.4 522.608 1355.88 514.282C1360.36 505.956 1360.12 507.884 1372.75 505.503C1385.38 503.122 1397.79 514.505 1385.39 503.096C1372.99 491.688 1381.59 493.773 1363.56 492.048C1345.53 490.324 1350.25 492.88 1340.72 489.223C1331.18 485.566 1338.24 502.243 1348.58 501.53C1358.92 500.816 1337.69 509.975 1341.32 516.427C1344.96 522.88 1342.36 523.937 1349 526.253C1355.63 528.568 1365.47 532.704 1373.16 534.143C1380.86 535.582 1390.78 539.286 1400.37 537.511C1409.97 535.735 1413.68 536.679 1421.14 533.155C1428.6 529.63 1435.27 526.508 1435.27 526.508Z" fill="white"/>
<path opacity="0.1" d="M1322.54 572.919C1322.54 572.919 1348.45 572.883 1351.87 579.687C1355.28 586.491 1340.63 584.675 1348.11 593.043C1355.59 601.411 1366.89 604.93 1378.35 606.324C1389.82 607.719 1396.79 603.287 1398 610.881C1399.21 618.476 1405.99 615.034 1399.18 618.471C1392.38 621.908 1393.95 626.337 1404.17 629.704C1410.75 631.566 1417.22 633.807 1423.54 636.417C1434.66 640.982 1405.03 629.185 1392.53 637.929C1380.03 646.673 1426.33 639.974 1425.66 653.707C1424.99 667.439 1395.73 663.787 1388.76 659.827C1381.78 655.868 1369.19 638.295 1366.34 634.754C1363.49 631.213 1368.14 626.549 1367.1 619.962C1365.92 612.372 1352.81 606.508 1352.81 606.508C1352.81 606.508 1342.47 604.171 1339.57 601.7C1336.68 599.228 1341.02 607.235 1336.71 599.208C1334.18 593.841 1333.79 587.708 1335.63 582.066C1335.63 582.066 1330.89 570.8 1322.54 572.919Z" fill="white"/>
<path opacity="0.1" d="M1412.1 601.471C1412.1 601.471 1438.41 601.431 1441.96 608.366C1445.5 615.3 1430.47 613.437 1438.11 621.94C1445.75 630.443 1457.19 634.017 1468.91 635.46C1480.63 636.902 1487.67 632.379 1488.88 640.105C1490.09 647.831 1497 644.282 1490.04 647.796C1483.09 651.311 1484.73 655.805 1495.12 659.282C1501.83 661.147 1508.42 663.404 1514.87 666.042C1526.19 670.696 1496.04 658.696 1483.33 667.584C1470.62 676.472 1517.68 669.654 1517.09 683.64C1516.51 697.625 1486.62 693.932 1479.54 689.822C1472.46 685.712 1459.55 667.894 1456.73 664.307C1453.92 660.72 1458.56 655.975 1457.52 649.255C1456.36 641.564 1442.98 635.571 1442.98 635.571C1442.98 635.571 1432.47 633.2 1429.53 630.669C1426.59 628.137 1431.1 636.228 1426.59 628.162C1424.02 622.7 1423.63 616.467 1425.49 610.726C1425.49 610.726 1420.62 599.305 1412.1 601.471Z" fill="white"/>
<path opacity="0.4" d="M1383.41 506.319C1383.41 506.319 1413.44 560.326 1378.36 586.257C1343.28 612.188 1325.48 629.18 1356.79 640.404C1388.11 651.628 1414.07 704.492 1437.89 642.699C1461.7 580.905 1485.92 524.424 1444.41 510.678C1402.9 496.933 1383.41 506.319 1383.41 506.319Z" fill="#231F20"/>
</g>
</g>
<path d="M884.394 449.943C903.513 453.584 921.964 441.037 925.605 421.918C929.246 402.799 916.699 384.349 897.581 380.707C878.462 377.066 860.011 389.613 856.37 408.732C852.728 427.851 865.275 446.301 884.394 449.943Z" fill="#ED157B"/>
<g opacity="0.1">
<g opacity="0.1">
<path opacity="0.1" d="M943.809 356.912C943.809 356.912 925.3 361.987 918.643 358.273C911.986 354.559 899.078 354.81 901.474 350.374C903.871 345.939 903.728 346.964 910.466 345.696C917.203 344.428 923.831 350.503 917.218 344.352C910.605 338.2 915.196 339.364 905.59 338.429C895.985 337.494 898.43 338.88 893.406 336.95C888.382 335.02 892.086 343.878 897.601 343.509C903.115 343.139 891.765 348.052 893.722 351.449C895.678 354.846 894.27 355.472 897.798 356.696C902 358.386 906.309 359.796 910.697 360.915C914.808 361.698 920.091 363.651 925.22 362.682C930.349 361.712 932.376 362.256 936.184 360.351C939.992 358.447 943.809 356.912 943.809 356.912Z" fill="white"/>
<path opacity="0.1" d="M927.572 328.808C927.572 328.808 909.064 333.883 902.407 330.169C895.75 326.456 882.842 326.706 885.238 322.271C887.635 317.835 887.492 318.86 894.23 317.592C900.967 316.324 907.57 322.395 900.982 316.248C894.394 310.102 898.96 311.261 889.329 310.32C879.698 309.38 882.168 310.771 877.144 308.841C872.12 306.912 875.825 315.77 881.339 315.4C886.854 315.03 875.529 319.948 877.485 323.345C879.442 326.742 878.034 327.368 881.562 328.593C885.768 330.271 890.076 331.68 894.461 332.811C898.572 333.594 903.86 335.522 908.984 334.578C914.108 333.634 916.14 334.152 919.948 332.248C923.756 330.343 927.572 328.808 927.572 328.808Z" fill="white"/>
<path opacity="0.1" d="M867.446 353.547C867.446 353.547 881.253 353.546 883.09 357.157C884.927 360.769 877.085 359.827 881.073 364.295C885.422 368.528 891.153 371.048 897.211 371.393C903.354 372.142 907.042 369.767 907.692 373.809C908.342 377.852 911.948 376.04 908.317 377.847C904.685 379.654 905.543 382.053 910.986 383.852C914.504 384.821 917.959 386.006 921.33 387.4C927.261 389.819 911.546 383.538 904.769 388.191C897.991 392.844 922.787 389.282 922.444 396.607C922.101 403.932 906.477 402.008 902.783 399.859C899.09 397.709 892.3 388.341 890.814 386.48C889.327 384.619 891.655 382.064 891.198 378.663C890.578 374.6 883.597 371.482 883.597 371.482C881.127 370.986 878.748 370.116 876.54 368.902C875.003 367.584 877.297 371.834 875.003 367.584C873.649 364.726 873.443 361.458 874.428 358.453C874.428 358.453 871.894 352.421 867.446 353.547Z" fill="white"/>
<path opacity="0.1" d="M915.254 368.779C915.254 368.779 929.29 368.822 931.173 372.468C933.056 376.114 925.057 375.169 929.112 379.702C933.534 384.018 939.37 386.587 945.54 386.934C951.784 387.702 955.537 385.261 956.198 389.385C956.859 393.508 960.526 391.655 956.834 393.503C953.142 395.351 953.995 397.776 959.54 399.594C963.112 400.593 966.623 401.798 970.057 403.202C976.104 405.695 960.018 399.291 953.226 404.02C946.434 408.749 971.559 405.118 971.193 412.702C970.827 420.286 954.943 418.207 951.178 416.017C947.413 413.827 940.496 404.304 939.019 402.392C937.542 400.481 939.869 397.926 939.416 394.368C938.78 390.249 931.652 387.077 931.652 387.077C929.151 386.56 926.741 385.676 924.499 384.452C922.911 383.124 925.271 387.439 922.911 383.124C921.553 380.202 921.351 376.875 922.344 373.811C922.344 373.811 919.759 367.638 915.254 368.779Z" fill="white"/>
<path opacity="0.4" d="M899.908 318.018C899.908 318.018 915.936 346.818 897.209 360.636C878.482 374.454 868.968 383.53 885.709 389.533C902.45 395.535 916.283 423.707 928.987 390.7C941.691 357.694 954.598 327.619 932.445 320.349C910.291 313.078 899.908 318.018 899.908 318.018Z" fill="#231F20"/>
</g>
</g>
<path opacity="0.3" d="M1590.57 651.619C1545.95 631.285 1496.54 636.714 1459.91 661.526C1446.08 632.761 1422.55 609.793 1393.46 596.654C1326.77 566.266 1249.18 593.318 1220.2 656.924C1218.45 660.757 1216.91 664.679 1215.59 668.673C1206.17 651.062 1191.2 637.058 1173.01 628.843C1158.75 622.19 1142.98 619.445 1127.31 620.888C1111.64 622.331 1096.64 627.911 1083.83 637.057C1076.56 630.237 1068.22 624.654 1059.15 620.529C1053 617.713 1046.56 615.582 1039.94 614.174C1038.82 571.059 1012.52 529.526 969.074 509.727C953.364 502.453 936.277 498.638 918.966 498.54C901.655 498.441 884.524 502.061 868.734 509.155C869.804 507.122 870.863 505.061 871.832 502.934C878.984 487.019 882.298 469.646 881.505 452.216C880.713 434.785 875.838 417.785 867.272 402.584C881.314 399.57 894.463 393.332 905.679 384.362C916.894 375.391 925.87 363.935 931.895 350.898C953.497 303.492 930.735 246.72 881.083 224.095C878.618 222.972 876.139 221.986 873.623 221.08C875.026 218.697 876.305 216.243 877.454 213.728C882.296 202.989 884.751 191.328 884.648 179.549C884.545 167.77 881.887 156.153 876.858 145.501C889.203 142.802 900.755 137.279 910.608 129.367C920.46 121.454 928.346 111.366 933.646 99.8943C941.522 82.545 942.994 62.9655 937.8 44.6337C949.264 34.6841 958.448 22.3801 964.727 8.56018C967.693 2.01776 969.997 -4.8044 971.607 -11.8048C996.669 -20.1444 1017.72 -37.5291 1030.65 -60.5618C1043.58 -83.5945 1047.45 -110.62 1041.52 -136.358C1050.79 -140.623 1058.9 -147.068 1065.15 -155.143C1071.4 -163.218 1075.6 -172.683 1077.4 -182.734C1079.21 -192.784 1078.55 -203.12 1075.5 -212.863C1072.44 -222.605 1067.08 -231.465 1059.86 -238.687C1052.64 -245.909 1043.79 -251.279 1034.04 -254.34C1024.3 -257.402 1013.97 -258.063 1003.92 -256.268C993.866 -254.473 984.397 -250.275 976.319 -244.031C968.24 -237.788 961.79 -229.684 957.518 -220.41C957.047 -219.376 956.567 -218.323 956.096 -217.289C932.937 -221.316 909.096 -217.547 888.307 -206.575C867.518 -195.603 850.955 -178.046 841.211 -156.654C838.248 -150.118 835.947 -143.302 834.341 -136.308C819.062 -131.221 805.14 -122.726 793.629 -111.464C782.119 -100.203 773.32 -86.4706 767.899 -71.3069C762.479 -56.1431 760.579 -39.945 762.342 -23.9383C764.106 -7.93172 769.487 7.46407 778.079 21.084C776.893 23.16 775.777 25.2921 774.772 27.4984C769.929 38.2366 767.474 49.8979 767.577 61.6772C767.68 73.4564 770.338 85.073 775.367 95.725C763.022 98.4241 751.47 103.947 741.618 111.859C731.765 119.772 723.879 129.86 718.579 141.332C699.767 182.615 719.064 231.927 761.689 252.431C757.872 257.562 754.614 263.086 751.971 268.91C746.976 279.981 744.228 291.933 743.888 304.073C743.547 316.214 745.621 328.301 749.989 339.634C709.657 342.859 672.858 366.25 655.495 404.353C629.509 461.379 656.881 529.685 716.61 556.903C732.319 564.176 749.407 567.991 766.718 568.09C784.029 568.188 801.159 564.568 816.95 557.474C815.86 559.498 814.83 561.549 813.861 563.676C787.875 620.702 815.182 689.098 874.931 716.325C896.249 726.112 919.932 729.563 943.157 726.266C951.962 747.379 968.477 764.346 989.345 773.718C1003.6 780.374 1019.37 783.123 1035.04 781.683C1050.7 780.243 1065.71 774.667 1078.51 765.524C1085.79 772.328 1094.13 777.903 1103.2 782.032C1145.68 801.388 1194.76 785.707 1215.73 747.16C1221.68 764.784 1231.21 780.99 1243.72 794.762C1256.22 808.535 1271.43 819.579 1288.4 827.203C1333.01 847.528 1382.43 842.108 1419.04 817.287C1432.88 846.049 1456.4 869.017 1485.49 882.159C1552.16 912.538 1629.75 885.486 1658.74 821.88C1687.72 758.275 1657.33 682.043 1590.57 651.619Z" fill="white"/>
<path d="M1574.85 647.08C1552.78 642.799 1529.98 644.349 1508.7 651.577C1487.41 658.805 1468.38 671.461 1453.49 688.294C1434.09 663.873 1406.55 647.259 1375.9 641.498C1305.99 628.184 1238.7 673.068 1225.6 741.839C1224.8 746.03 1224.23 750.197 1223.87 754.339C1215.65 744.877 1205.49 737.312 1194.06 732.166C1182.64 727.02 1170.24 724.416 1157.71 724.533C1145.18 724.651 1132.83 727.488 1121.51 732.847C1110.19 738.207 1100.16 745.962 1092.13 755.575C1083.72 750.737 1074.56 747.346 1065.02 745.543C1058.57 744.313 1052 743.807 1045.43 744.035C1040.38 725.321 1030.74 708.162 1017.38 694.112C1004.03 680.062 987.382 669.564 968.948 663.569C950.514 657.575 930.876 656.273 911.811 659.781C892.747 663.288 874.859 671.496 859.766 683.659C860.345 681.435 860.864 679.177 861.297 676.902C864.512 659.879 863.754 642.343 859.083 625.66C854.412 608.977 845.954 593.597 834.367 580.718C847.079 574.259 858.146 564.978 866.722 553.585C875.297 542.192 881.153 528.988 883.842 514.984C893.588 463.809 859.26 414.289 807.183 404.371C804.608 403.88 802.03 403.523 799.457 403.255C800.226 400.622 800.891 397.947 801.414 395.2C803.596 383.701 803.304 371.868 800.556 360.49C797.807 349.112 792.666 338.451 785.475 329.216C795.255 324.231 803.938 317.338 811.013 308.944C818.087 300.551 823.409 290.825 826.666 280.342C829.923 269.859 831.047 258.83 829.974 247.905C828.901 236.98 825.652 226.381 820.417 216.732C833.156 198.253 839.891 176.298 839.708 153.855C861.65 139.411 877.602 117.492 884.6 92.1724C891.598 66.8525 889.166 39.853 877.756 16.1912C889.646 6.62249 897.734 -6.87139 900.57 -21.8673C907.108 -56.199 885.32 -89.3664 851.889 -95.7335C818.458 -102.1 785.985 -79.4012 779.43 -44.9836C779.213 -43.8463 779.021 -42.8378 778.788 -41.6148C732.985 -38.242 693.03 -3.58162 683.786 44.9549C682.468 52.0153 681.846 59.1882 681.931 66.3703C668.571 75.1412 657.321 86.7654 648.993 100.406C640.664 114.047 635.464 129.365 633.766 145.256C632.069 161.148 633.916 177.219 639.175 192.311C644.435 207.403 652.975 221.141 664.181 232.537C663.525 234.813 662.947 237.149 662.493 239.531C660.309 251.032 660.602 262.868 663.355 274.247C666.107 285.626 671.254 296.288 678.454 305.52C667.274 311.232 657.543 319.419 650.002 329.457C642.461 339.495 637.308 351.12 634.934 363.449C626.446 408.016 655.811 451.142 700.752 460.702C694.896 474.84 692.608 490.201 694.089 505.431C695.57 520.661 700.775 535.294 709.245 548.038C690.329 554.434 673.444 565.725 660.308 580.764C647.172 595.802 638.253 614.051 634.458 633.655C622.738 695.195 664.022 754.778 726.656 766.707C743.272 769.922 760.391 769.465 776.812 765.368C793.233 761.27 808.559 753.631 821.717 742.986C821.138 745.211 820.619 747.469 820.186 749.743C808.461 811.304 849.745 870.887 912.4 882.82C934.853 887.138 958.079 884.757 979.188 875.973C986.862 886.743 996.902 895.61 1008.54 901.895C1020.17 908.18 1033.09 911.715 1046.31 912.228C1059.52 912.742 1072.68 910.22 1084.76 904.857C1096.85 899.494 1107.55 891.432 1116.04 881.291C1124.42 886.103 1133.54 889.487 1143.04 891.303C1187.58 899.787 1230.47 872.733 1241.62 830.275C1251.07 845.799 1263.69 859.161 1278.64 869.49C1293.59 879.82 1310.55 886.887 1328.42 890.232C1375.22 899.146 1417.18 912.785 1446.15 879.858C1464.77 903.416 1495.41 889.751 1527.36 895.836C1597.27 909.15 1664.58 864.158 1677.66 795.495C1690.74 726.831 1644.74 660.391 1574.85 647.08Z" fill="white"/>
<circle cx="643.277" cy="567.614" r="137.5" fill="white"/>
<circle cx="1035.5" cy="776.5" r="137.5" fill="white"/>
<path d="M1039.44 379.819L1092.15 371.921L1089.49 406.736L1030.3 391.491L1039.44 379.819Z" fill="#FBAC1D"/>
<path fill-rule="evenodd" clip-rule="evenodd" d="M1015.98 397.996L1019.95 402.013C1032.64 398.391 1044.3 391.814 1053.96 382.821C1065.37 371.503 1067.02 354.695 1066.43 347.718C1059.43 347.043 1042.75 348.706 1031.34 359.999C1022.23 369.567 1015.52 381.159 1011.75 393.824L1015.85 397.972L1015.98 397.996Z" fill="#BC3647"/>
<path d="M1127.26 468.424L1135.6 415.889L1100.85 418.159L1115.56 477.505L1127.26 468.424Z" fill="#D56627"/>
<path fill-rule="evenodd" clip-rule="evenodd" d="M1108.85 491.744L1104.88 487.727C1108.65 475.062 1115.36 463.47 1124.47 453.902C1135.88 442.609 1152.71 441.107 1159.69 441.752C1160.3 448.759 1158.5 465.405 1147.08 476.724C1137.42 485.717 1125.77 492.294 1113.08 495.916L1108.95 491.764L1108.85 491.744Z" fill="#BC3647"/>
<path fill-rule="evenodd" clip-rule="evenodd" d="M1079.87 426.704L1067.69 414.417C1075.86 391.54 1102.84 335.241 1145.4 293.062C1187.97 250.883 1245.2 239.666 1268.69 239.536C1268.35 263.141 1257.06 320.639 1214.49 362.818C1171.93 404.997 1115.39 431.47 1092.42 439.51L1080.24 427.223L1079.87 426.704Z" fill="#FBAC1D"/>
<path d="M1092.47 439.412L1079.87 426.703L1268.71 239.539C1268.37 263.145 1257.08 320.643 1214.52 362.822C1171.95 405.001 1115.41 431.474 1092.47 439.412Z" fill="#F58227"/>
<mask id="mask1" style="mask-type:alpha" maskUnits="userSpaceOnUse" x="1065" y="208" width="207" height="257">
<path fill-rule="evenodd" clip-rule="evenodd" d="M1081.29 426.148L1069.11 413.861C1077.28 390.984 1104.26 334.685 1146.82 292.506C1189.39 250.327 1246.62 239.109 1270.11 238.979C1269.77 262.584 1258.48 320.082 1215.91 362.261C1173.35 404.44 1116.81 430.913 1093.84 438.953L1081.66 426.666L1081.29 426.148Z" fill="#FBAC1D"/>
</mask>
<g mask="url(#mask1)">
<path d="M1240.06 198.436L1188.58 249.444L1260.74 322.266L1312.22 271.258L1240.06 198.436Z" fill="#DE445E"/>
<path d="M1188.6 247.722L1183.37 252.905L1255.53 325.727L1260.76 320.544L1188.6 247.722Z" fill="#A01D20"/>
<path d="M1048.15 386.91L1042.92 392.093L1115.08 464.915L1120.31 459.732L1048.15 386.91Z" fill="#A01D20"/>
</g>
<path d="M1212.82 333.252C1223.43 322.747 1223.46 305.587 1212.89 294.924C1202.33 284.262 1185.17 284.134 1174.56 294.639C1163.96 305.144 1163.93 322.304 1174.5 332.966C1185.06 343.629 1202.22 343.757 1212.82 333.252Z" fill="#373636"/>
<path d="M1236.22 288.347L1236.2 305.596L1156.36 304.987L1156.39 287.738L1236.22 288.347Z" fill="white" fill-opacity="0.2"/>
<path d="M1241.92 319.045L1155.09 318.288L1153.87 324.683L1242.01 325.348L1241.92 319.045Z" fill="white" fill-opacity="0.2"/>
<path d="M1019.66 403.553L675.275 808.279L555.86 581.436L1009.17 393.335L1019.66 403.553Z" fill="white"/>
<path d="M1059.88 412.931L1091.79 442.975L843.018 987.916L595.14 800.911L586.581 711.617L1059.88 412.931Z" fill="white"/>
<path d="M1104.89 487.725L814.073 819.344L947.46 918.941L1112.98 495.895L1104.89 487.725Z" fill="white"/>
<path opacity="0.1" d="M1887.16 -91.7446C1888.42 -96.2912 1889.58 -100.882 1890.53 -105.593C1897.49 -140.192 1894.78 -176.04 1882.69 -209.196C1870.6 -242.352 1849.6 -271.533 1822 -293.531C1794.41 -315.528 1761.28 -329.491 1726.26 -333.884C1691.24 -338.277 1655.69 -332.93 1623.52 -318.431C1600.91 -336.825 1574.42 -349.833 1546.04 -356.469C1517.66 -363.105 1488.15 -363.194 1459.73 -356.73C1431.32 -350.266 1404.74 -337.418 1382.03 -319.16C1359.31 -300.903 1341.05 -277.714 1328.63 -251.352C1316.21 -224.99 1309.95 -196.146 1310.33 -167.005C1310.71 -137.865 1317.71 -109.193 1330.82 -83.1631C1343.92 -57.1327 1362.78 -34.4268 1385.96 -16.7659C1409.14 0.894978 1436.04 13.0474 1464.61 18.7704C1503.88 26.7084 1544.64 22.097 1581.14 5.58895C1585.96 9.53234 1590.97 13.2207 1596.2 16.6891C1594.91 21.2309 1593.75 25.8222 1592.83 30.5125C1585.98 64.6448 1588.54 99.9968 1600.23 132.786C1611.93 165.575 1632.32 194.569 1659.22 216.663C1686.12 238.758 1718.52 253.124 1752.96 258.223C1787.4 263.322 1822.57 258.963 1854.72 245.612C1886.88 232.261 1914.79 210.42 1935.49 182.427C1956.18 154.434 1968.88 121.341 1972.21 86.6883C1975.55 52.0362 1969.4 17.1287 1954.43 -14.2995C1939.46 -45.7277 1916.22 -72.494 1887.21 -91.7349L1887.16 -91.7446Z" fill="white"/>
<g opacity="0.08">
<path opacity="0.5" d="M1749.88 333.502L953.521 -354.771L905.902 -322.786L1718.19 379.619L1749.88 333.502Z" fill="white"/>
<path opacity="0.5" d="M855.561 -312.677L720.226 -221.837L1751.52 682.051L1854.18 569.708L855.561 -312.677Z" fill="white"/>
</g>
<path d="M1317.42 737.24C1319.48 737.633 1321.47 736.281 1321.86 734.22C1322.25 732.16 1320.9 730.171 1318.84 729.779C1316.78 729.386 1314.79 730.739 1314.4 732.799C1314 734.86 1315.36 736.848 1317.42 737.24Z" fill="white"/>
<g opacity="0.5">
<path opacity="0.5" d="M1195.6 520.551C1197.66 520.943 1199.65 519.591 1200.05 517.53C1200.44 515.47 1199.09 513.481 1197.03 513.089C1194.97 512.697 1192.98 514.049 1192.58 516.109C1192.19 518.17 1193.54 520.158 1195.6 520.551Z" fill="white"/>
<path opacity="0.5" d="M1238.11 530.012C1240.17 530.404 1242.16 529.052 1242.55 526.992C1242.95 524.931 1241.59 522.943 1239.53 522.55C1237.47 522.158 1235.48 523.51 1235.09 525.571C1234.7 527.631 1236.05 529.62 1238.11 530.012Z" fill="white"/>
<path opacity="0.5" d="M1266.9 500.935C1268.96 501.327 1270.95 499.975 1271.34 497.915C1271.73 495.854 1270.38 493.866 1268.32 493.473C1266.26 493.081 1264.27 494.433 1263.88 496.493C1263.49 498.554 1264.84 500.542 1266.9 500.935Z" fill="white"/>
<path opacity="0.5" d="M1413.85 456.521C1415.92 456.913 1417.9 455.561 1418.3 453.501C1418.69 451.44 1417.34 449.452 1415.28 449.059C1413.22 448.667 1411.23 450.019 1410.83 452.079C1410.44 454.14 1411.79 456.128 1413.85 456.521Z" fill="white"/>
<path opacity="0.5" d="M1219.45 399.165C1221.51 399.557 1223.5 398.205 1223.89 396.145C1224.29 394.084 1222.93 392.096 1220.87 391.703C1218.81 391.311 1216.83 392.663 1216.43 394.723C1216.04 396.784 1217.39 398.772 1219.45 399.165Z" fill="white"/>
<path opacity="0.5" d="M1235.17 139.526C1237.23 139.918 1239.21 138.566 1239.61 136.505C1240 134.445 1238.65 132.456 1236.59 132.064C1234.53 131.672 1232.54 133.024 1232.14 135.084C1231.75 137.145 1233.1 139.133 1235.17 139.526Z" fill="white"/>
<path opacity="0.5" d="M1277.65 148.984C1279.71 149.377 1281.7 148.024 1282.09 145.964C1282.49 143.903 1281.13 141.915 1279.07 141.523C1277.01 141.13 1275.02 142.482 1274.63 144.543C1274.24 146.603 1275.59 148.592 1277.65 148.984Z" fill="white"/>
<path opacity="0.5" d="M1306.47 119.913C1308.53 120.305 1310.52 118.953 1310.91 116.893C1311.3 114.832 1309.95 112.844 1307.89 112.451C1305.83 112.059 1303.84 113.411 1303.45 115.472C1303.06 117.532 1304.41 119.52 1306.47 119.913Z" fill="white"/>
<path opacity="0.5" d="M1363.61 368.919C1365.67 369.311 1367.66 367.959 1368.05 365.898C1368.44 363.838 1367.09 361.85 1365.03 361.457C1362.97 361.065 1360.98 362.417 1360.59 364.477C1360.19 366.538 1361.55 368.526 1363.61 368.919Z" fill="white"/>
<path opacity="0.5" d="M1259.02 18.1668C1261.08 18.5592 1263.07 17.207 1263.46 15.1465C1263.85 13.0861 1262.5 11.0976 1260.44 10.7052C1258.38 10.3128 1256.39 11.665 1256 13.7254C1255.61 15.7859 1256.96 17.7743 1259.02 18.1668Z" fill="white"/>
<path opacity="0.5" d="M852.154 55.2932C854.215 55.6857 856.203 54.3334 856.596 52.273C856.988 50.2125 855.636 48.2241 853.576 47.8316C851.515 47.4392 849.527 48.7914 849.134 50.8519C848.742 52.9123 850.094 54.9008 852.154 55.2932Z" fill="white"/>
<path opacity="0.5" d="M894.666 64.7869C896.727 65.1793 898.715 63.8271 899.107 61.7666C899.5 59.7062 898.148 57.7177 896.087 57.3253C894.027 56.9329 892.038 58.2851 891.646 60.3455C891.253 62.406 892.606 64.3944 894.666 64.7869Z" fill="white"/>
<path opacity="0.5" d="M923.458 35.6848C925.519 36.0773 927.507 34.725 927.899 32.6646C928.292 30.6041 926.94 28.6157 924.879 28.2232C922.819 27.8308 920.83 29.183 920.438 31.2435C920.045 33.3039 921.398 35.2924 923.458 35.6848Z" fill="white"/>
<path opacity="0.5" d="M1154.58 61.3704C1156.64 61.7628 1158.63 60.4106 1159.02 58.3501C1159.41 56.2897 1158.06 54.3012 1156 53.9088C1153.94 53.5164 1151.95 54.8686 1151.56 56.929C1151.17 58.9895 1152.52 60.9779 1154.58 61.3704Z" fill="white"/>
<path opacity="0.5" d="M980.621 284.722C982.682 285.114 984.67 283.762 985.063 281.702C985.455 279.641 984.103 277.653 982.042 277.26C979.982 276.868 977.993 278.22 977.601 280.281C977.209 282.341 978.561 284.33 980.621 284.722Z" fill="white"/>
</g>
<path d="M153.016 935.262V837H125.45V858.402H95.6162V935.262H153.016Z" fill="#132E4C"/>
<path d="M141.665 827.699H147.18V822.185H141.665V827.699Z" fill="#4B92BA"/>
<path opacity="0.5" d="M141.665 814.954H147.18V809.44H141.665V814.954Z" fill="#4B92BA"/>
<path opacity="0.5" d="M130.655 827.699H136.169V822.185H130.655V827.699Z" fill="#4B92BA"/>
<path opacity="0.25" d="M130.655 814.954H136.169V809.44H130.655V814.954Z" fill="#4B92BA"/>
<path d="M14.3159 780.552H42.9131V888.788H14.3159V780.552Z" fill="#294B6B"/>
<path d="M0.00109729 935.481V852H23.4207V870.183H48.7666V935.481H0.00109729Z" fill="#132E4C"/>
<path d="M9.64681 837.012H4.96191L4.96191 832.327H9.64681V837.012Z" fill="#4B92BA"/>
<path d="M33.3021 793.104H28.6172V788.419H33.3021V793.104Z" fill="#4B92BA"/>
<path d="M33.3021 801.971H28.6172V797.286H33.3021V801.971Z" fill="#4B92BA"/>
<path opacity="0.5" d="M9.64681 826.185H4.96191L4.96191 821.5H9.64681V826.185Z" fill="#4B92BA"/>
<path opacity="0.5" d="M18.9994 837.012H14.3145V832.327H18.9994V837.012Z" fill="#4B92BA"/>
<path opacity="0.5" d="M25.3568 793.104H20.6719V788.419H25.3568V793.104Z" fill="#4B92BA"/>
<path opacity="0.25" d="M18.9994 826.185H14.3145V821.5H18.9994V826.185Z" fill="#4B92BA"/>
<path d="M19.7706 780.552V772.517L37.4609 754.822V780.552H19.7706Z" fill="#294B6B"/>
<path d="M232.375 784.517H260.973V892.753H232.375V784.517Z" fill="#294B6B"/>
<path d="M218.061 893.601V810.12H241.48V828.303H266.826V893.601H218.061Z" fill="#1A395C"/>
<path d="M227.706 840.978H223.021V836.293H227.706V840.978Z" fill="#4B92BA"/>
<path d="M251.362 797.069H246.677V792.384H251.362V797.069Z" fill="#4B92BA"/>
<path d="M251.362 805.937H246.677V801.251H251.362V805.937Z" fill="#4B92BA"/>
<path opacity="0.5" d="M227.706 830.15H223.021V825.465H227.706V830.15Z" fill="#4B92BA"/>
<path opacity="0.5" d="M237.059 840.978H232.374V836.293H237.059V840.978Z" fill="#4B92BA"/>
<path opacity="0.5" d="M243.416 797.069H238.731V792.384H243.416V797.069Z" fill="#4B92BA"/>
<path opacity="0.25" d="M237.059 830.15H232.374V825.465H237.059V830.15Z" fill="#4B92BA"/>
<path d="M237.83 784.517V776.482L255.521 758.787V784.517H237.83Z" fill="#294B6B"/>
<path d="M104.639 780.552H76.042V888.788H104.639V780.552Z" fill="#294B6B"/>
<path d="M118.954 935.481V852H95.5343V870.183H70.1885V935.481H118.954Z" fill="#132E4C"/>
<path d="M109.308 837.012H113.993V832.327H109.308V837.012Z" fill="#4B92BA"/>
<path d="M85.653 793.104H90.3379V788.419H85.653V793.104Z" fill="#4B92BA"/>
<path d="M85.653 801.971H90.3379V797.286H85.653V801.971Z" fill="#4B92BA"/>
<path opacity="0.5" d="M109.308 826.185H113.993V821.5H109.308V826.185Z" fill="#4B92BA"/>
<path opacity="0.5" d="M99.9557 837.012H104.641V832.327H99.9557V837.012Z" fill="#4B92BA"/>
<path opacity="0.5" d="M93.5992 793.104H98.2842V788.419H93.5992V793.104Z" fill="#4B92BA"/>
<path opacity="0.25" d="M99.9557 826.185H104.641V821.5H99.9557V826.185Z" fill="#4B92BA"/>
<path d="M99.1845 780.552V772.517L81.4941 754.822V780.552H99.1845Z" fill="#294B6B"/>
<path d="M324.94 934.842V799.967H287.103V829.344H246.153V934.842H324.94Z" fill="#132E4C"/>
<path d="M309.359 849.826H316.928V842.257H309.359V849.826Z" fill="#4B92BA"/>
<path opacity="0.5" d="M309.359 832.333H316.928V824.763H309.359V832.333Z" fill="#4B92BA"/>
<path opacity="0.5" d="M294.249 849.826H301.818V842.257H294.249V849.826Z" fill="#4B92BA"/>
<path opacity="0.25" d="M294.249 832.333H301.818V824.763H294.249V832.333Z" fill="#4B92BA"/>
<path d="M593 934.842V799.967H553.687V829.344H511.141V934.842H593Z" fill="#132E4C"/>
<path d="M576.81 849.826H584.675V842.257H576.81V849.826Z" fill="#4B92BA"/>
<path opacity="0.5" d="M576.81 832.333H584.675V824.763H576.81V832.333Z" fill="#4B92BA"/>
<path opacity="0.5" d="M561.11 849.826H568.975V842.257H561.11V849.826Z" fill="#4B92BA"/>
<path opacity="0.25" d="M561.11 832.333H568.975V824.763H561.11V832.333Z" fill="#4B92BA"/>
<path d="M872.167 934.842V799.967H834.329V829.344H793.38V934.842H872.167Z" fill="#132E4C"/>
<path d="M856.585 849.826H864.153V842.257H856.585V849.826Z" fill="#4B92BA"/>
<path opacity="0.5" d="M856.585 832.333H864.153V824.763H856.585V832.333Z" fill="#4B92BA"/>
<path opacity="0.5" d="M841.474 849.826H849.043V842.257H841.474V849.826Z" fill="#4B92BA"/>
<path opacity="0.25" d="M841.474 832.333H849.043V824.763H841.474V832.333Z" fill="#4B92BA"/>
<path d="M1297.58 934.842V799.967H1259.74V829.344H1218.79V934.842H1297.58Z" fill="#132E4C"/>
<path d="M1281.99 849.826H1289.56V842.257H1281.99V849.826Z" fill="#4B92BA"/>
<path opacity="0.5" d="M1281.99 832.333H1289.56V824.763H1281.99V832.333Z" fill="#4B92BA"/>
<path opacity="0.5" d="M1266.88 849.826H1274.45V842.257H1266.88V849.826Z" fill="#4B92BA"/>
<path opacity="0.25" d="M1266.88 832.333H1274.45V824.763H1266.88V832.333Z" fill="#4B92BA"/>
<path d="M321 935V800H362.302V829.404H407V935H321Z" fill="#132E4C"/>
<path d="M340.523 849.826H332.954V842.257H340.523V849.826Z" fill="#4B92BA"/>
<path opacity="0.5" d="M340.523 832.333H332.954V824.763H340.523V832.333Z" fill="#4B92BA"/>
<path opacity="0.5" d="M355.633 849.826H348.063V842.257H355.633V849.826Z" fill="#4B92BA"/>
<path opacity="0.25" d="M355.633 832.333H348.063V824.763H355.633V832.333Z" fill="#4B92BA"/>
<path d="M589.928 934.842V799.967H627.765V829.344H668.715V934.842H589.928Z" fill="#132E4C"/>
<path d="M866 943V792H908.262V824.889H954V943H866Z" fill="#132E4C"/>
<path d="M605.51 849.826H597.941V842.257H605.51V849.826Z" fill="#4B92BA"/>
<path opacity="0.5" d="M605.51 832.333H597.941V824.763H605.51V832.333Z" fill="#4B92BA"/>
<path opacity="0.5" d="M620.621 849.826H613.052V842.257H620.621V849.826Z" fill="#4B92BA"/>
<path opacity="0.25" d="M620.621 832.333H613.052V824.763H620.621V832.333Z" fill="#4B92BA"/>
<path d="M1101 936V801H1059.22V830.404H1014V936H1101Z" fill="#132E4C"/>
<path d="M1085.28 851.082H1092.85V843.513H1085.28V851.082Z" fill="#4B92BA"/>
<path opacity="0.5" d="M1085.28 833.588H1092.85V826.019H1085.28V833.588Z" fill="#4B92BA"/>
<path opacity="0.5" d="M1070.17 851.082H1077.74V843.513H1070.17V851.082Z" fill="#4B92BA"/>
<path opacity="0.25" d="M1070.17 833.588H1077.74V826.019H1070.17V833.588Z" fill="#4B92BA"/>
<path d="M1180 931V797H1141.1V826.186H1099V931H1180Z" fill="#132E4C"/>
<path d="M1164.07 846.388H1171.64V838.819H1164.07V846.388Z" fill="#4B92BA"/>
<path opacity="0.5" d="M1164.07 828.894H1171.64V821.325H1164.07V828.894Z" fill="#4B92BA"/>
<path opacity="0.5" d="M1148.96 846.388H1156.53V838.819H1148.96V846.388Z" fill="#4B92BA"/>
<path opacity="0.25" d="M1148.96 828.894H1156.53V821.325H1148.96V828.894Z" fill="#4B92BA"/>
<path d="M1295 935V800H1335.82V829.404H1380V935H1295Z" fill="#132E4C"/>
<path d="M1312.57 850.138H1305V842.569H1312.57V850.138Z" fill="#4B92BA"/>
<path opacity="0.5" d="M1312.57 832.569H1305V825H1312.57V832.569Z" fill="#4B92BA"/>
<path opacity="0.5" d="M1328.14 850.138H1320.57V842.569H1328.14V850.138Z" fill="#4B92BA"/>
<path opacity="0.25" d="M1328.14 832.569H1320.57V825H1328.14V832.569Z" fill="#4B92BA"/>
<path d="M258.536 785.115H219.284V933.678H258.536V785.115Z" fill="#294B6B"/>
<path d="M278.186 934.843V820.258H246.04V845.216H211.251V934.843H278.186Z" fill="#132E4C"/>
<path d="M264.948 862.613H271.378V856.183H264.948V862.613Z" fill="#4B92BA"/>
<path d="M232.477 802.344H238.907V795.913H232.477V802.344Z" fill="#4B92BA"/>
<path d="M232.477 814.516H238.907V808.085H232.477V814.516Z" fill="#4B92BA"/>
<path opacity="0.5" d="M264.948 847.751H271.378V841.321H264.948V847.751Z" fill="#4B92BA"/>
<path opacity="0.5" d="M252.11 862.613H258.54V856.183H252.11V862.613Z" fill="#4B92BA"/>
<path opacity="0.5" d="M243.382 802.344H249.812V795.913H243.382V802.344Z" fill="#4B92BA"/>
<path opacity="0.25" d="M252.11 847.751H258.54V841.321H252.11V847.751Z" fill="#4B92BA"/>
<path d="M251.051 785.116V774.087L226.77 749.799V785.116H251.051Z" fill="#294B6B"/>
<path d="M201.285 785.115H162.033V933.678H201.285V785.115Z" fill="#294B6B"/>
<path d="M220.935 934.585V820H188.789V844.958H154V934.585H220.935Z" fill="#132E4C"/>
<path d="M207.697 862.613H214.127V856.183H207.697V862.613Z" fill="#4B92BA"/>
<path d="M175.226 802.344H181.656V795.913H175.226V802.344Z" fill="#4B92BA"/>
<path d="M175.226 814.516H181.656V808.085H175.226V814.516Z" fill="#4B92BA"/>
<path opacity="0.5" d="M207.697 847.751H214.127V841.321H207.697V847.751Z" fill="#4B92BA"/>
<path opacity="0.5" d="M194.859 862.613H201.289V856.183H194.859V862.613Z" fill="#4B92BA"/>
<path opacity="0.5" d="M186.131 802.344H192.562V795.913H186.131V802.344Z" fill="#4B92BA"/>
<path opacity="0.25" d="M194.859 847.751H201.289V841.321H194.859V847.751Z" fill="#4B92BA"/>
<path d="M193.8 785.116V774.087L169.519 749.799V785.116H193.8Z" fill="#294B6B"/>
<path d="M958.285 785.115H919.033V933.678H958.285V785.115Z" fill="#294B6B"/>
<path d="M977.935 934.843V820.258H945.789V845.216H911V934.843H977.935Z" fill="#132E4C"/>
<path d="M964.697 862.613H971.127V856.183H964.697V862.613Z" fill="#4B92BA"/>
<path d="M932.226 802.344H938.656V795.913H932.226V802.344Z" fill="#4B92BA"/>
<path d="M932.226 814.516H938.656V808.085H932.226V814.516Z" fill="#4B92BA"/>
<path opacity="0.5" d="M964.697 847.751H971.127V841.321H964.697V847.751Z" fill="#4B92BA"/>
<path opacity="0.5" d="M951.859 862.613H958.289V856.183H951.859V862.613Z" fill="#4B92BA"/>
<path opacity="0.5" d="M943.131 802.344H949.562V795.913H943.131V802.344Z" fill="#4B92BA"/>
<path opacity="0.25" d="M951.859 847.751H958.289V841.321H951.859V847.751Z" fill="#4B92BA"/>
<path d="M950.8 785.116V774.087L926.519 749.799V785.116H950.8Z" fill="#294B6B"/>
<path d="M1171.29 785.115H1132.03V933.678H1171.29V785.115Z" fill="#294B6B"/>
<path d="M1190.94 934.843V820.258H1158.79V845.216H1124V934.843H1190.94Z" fill="#132E4C"/>
<path d="M1177.7 862.613H1184.13V856.183H1177.7V862.613Z" fill="#4B92BA"/>
<path d="M1145.23 802.344H1151.66V795.913H1145.23V802.344Z" fill="#4B92BA"/>
<path d="M1145.23 814.516H1151.66V808.085H1145.23V814.516Z" fill="#4B92BA"/>
<path opacity="0.5" d="M1177.7 847.751H1184.13V841.321H1177.7V847.751Z" fill="#4B92BA"/>
<path opacity="0.5" d="M1164.86 862.613H1171.29V856.183H1164.86V862.613Z" fill="#4B92BA"/>
<path opacity="0.5" d="M1156.13 802.344H1162.56V795.913H1156.13V802.344Z" fill="#4B92BA"/>
<path opacity="0.25" d="M1164.86 847.751H1171.29V841.321H1164.86V847.751Z" fill="#4B92BA"/>
<path d="M1163.8 785.116V774.087L1139.52 749.799V785.116H1163.8Z" fill="#294B6B"/>
<path d="M523.525 785.115H484.272V933.678H523.525V785.115Z" fill="#294B6B"/>
<path d="M543 935V820H505.54V845.048H465V935H543Z" fill="#132E4C"/>
<path d="M529.935 862.613H536.365V856.183H529.935V862.613Z" fill="#4B92BA"/>
<path d="M497.466 802.344H503.896V795.913H497.466V802.344Z" fill="#4B92BA"/>
<path d="M497.466 814.516H503.896V808.085H497.466V814.516Z" fill="#4B92BA"/>
<path opacity="0.5" d="M529.935 847.751H536.365V841.321H529.935V847.751Z" fill="#4B92BA"/>
<path opacity="0.5" d="M517.097 862.613H523.527V856.183H517.097V862.613Z" fill="#4B92BA"/>
<path opacity="0.5" d="M508.371 802.344H514.802V795.913H508.371V802.344Z" fill="#4B92BA"/>
<path opacity="0.25" d="M517.097 847.751H523.527V841.321H517.097V847.751Z" fill="#4B92BA"/>
<path d="M516.039 785.116V774.087L491.758 749.799V785.116H516.039Z" fill="#294B6B"/>
<path d="M805.764 785.115H766.512V933.678H805.764V785.115Z" fill="#294B6B"/>
<path d="M825 935V820H778.896V845.048H729V935H825Z" fill="#132E4C"/>
<path d="M812.175 862.613H818.605V856.183H812.175V862.613Z" fill="#4B92BA"/>
<path d="M779.705 802.344H786.136V795.913H779.705V802.344Z" fill="#4B92BA"/>
<path d="M779.705 814.516H786.136V808.085H779.705V814.516Z" fill="#4B92BA"/>
<path opacity="0.5" d="M812.175 847.751H818.605V841.321H812.175V847.751Z" fill="#4B92BA"/>
<path opacity="0.5" d="M799.337 862.613H805.768V856.183H799.337V862.613Z" fill="#4B92BA"/>
<path opacity="0.5" d="M790.611 802.344H797.041V795.913H790.611V802.344Z" fill="#4B92BA"/>
<path opacity="0.25" d="M799.337 847.751H805.768V841.321H799.337V847.751Z" fill="#4B92BA"/>
<path d="M798.279 785.116V774.087L773.997 749.799V785.116H798.279Z" fill="#294B6B"/>
<path d="M1231.17 785.115H1191.92V933.678H1231.17V785.115Z" fill="#294B6B"/>
<path d="M1250.82 934.843V820.258H1218.68V845.216H1183.89V934.843H1250.82Z" fill="#132E4C"/>
<path d="M1237.58 862.613H1244.01V856.183H1237.58V862.613Z" fill="#4B92BA"/>
<path d="M1205.11 802.344H1211.54V795.913H1205.11V802.344Z" fill="#4B92BA"/>
<path d="M1205.11 814.516H1211.54V808.085H1205.11V814.516Z" fill="#4B92BA"/>
<path opacity="0.5" d="M1237.58 847.751H1244.01V841.321H1237.58V847.751Z" fill="#4B92BA"/>
<path opacity="0.5" d="M1224.75 862.613H1231.18V856.183H1224.75V862.613Z" fill="#4B92BA"/>
<path opacity="0.5" d="M1216.02 802.344H1222.45V795.913H1216.02V802.344Z" fill="#4B92BA"/>
<path opacity="0.25" d="M1224.75 847.751H1231.18V841.321H1224.75V847.751Z" fill="#4B92BA"/>
<path d="M1223.69 785.116V774.087L1199.41 749.799V785.116H1223.69Z" fill="#294B6B"/>
<path opacity="0.5" d="M423.861 929.467C424.91 929.679 425.931 928.999 426.142 927.95C426.354 926.901 425.675 925.88 424.626 925.669C423.577 925.457 422.555 926.137 422.344 927.186C422.133 928.234 422.812 929.256 423.861 929.467Z" fill="#BDF3FF"/>
<path opacity="0.5" d="M460.334 919.843C461.382 920.054 462.404 919.375 462.615 918.326C462.826 917.277 462.147 916.256 461.098 916.045C460.05 915.833 459.028 916.512 458.817 917.561C458.606 918.61 459.285 919.632 460.334 919.843Z" fill="#BDF3FF"/>
<path opacity="0.5" d="M535.535 897.974C536.584 898.186 537.606 897.507 537.817 896.458C538.028 895.409 537.349 894.387 536.3 894.176C535.251 893.965 534.229 894.644 534.018 895.693C533.807 896.742 534.486 897.763 535.535 897.974Z" fill="#BDF3FF"/>
<path opacity="0.5" d="M585.477 896.522C586.526 896.733 587.547 896.054 587.759 895.005C587.97 893.956 587.291 892.934 586.242 892.723C585.193 892.512 584.172 893.191 583.96 894.24C583.749 895.289 584.428 896.31 585.477 896.522Z" fill="#BDF3FF"/>
<path opacity="0.5" d="M558.387 892.802C559.436 893.013 560.458 892.334 560.669 891.285C560.88 890.236 560.201 889.215 559.152 889.004C558.103 888.792 557.082 889.471 556.87 890.52C556.659 891.569 557.338 892.591 558.387 892.802Z" fill="#BDF3FF"/>
<path opacity="0.5" d="M436.677 867.676C437.726 867.887 438.748 867.208 438.959 866.159C439.17 865.11 438.491 864.089 437.442 863.878C436.393 863.666 435.372 864.345 435.161 865.394C434.949 866.443 435.628 867.465 436.677 867.676Z" fill="#BDF3FF"/>
<path opacity="0.5" d="M446.082 735.316C447.131 735.527 448.152 734.848 448.363 733.799C448.574 732.75 447.895 731.728 446.846 731.517C445.798 731.306 444.776 731.985 444.565 733.034C444.354 734.083 445.033 735.105 446.082 735.316Z" fill="#BDF3FF"/>
<path opacity="0.5" d="M467.704 740.369C468.753 740.581 469.774 739.902 469.986 738.853C470.197 737.804 469.518 736.782 468.469 736.571C467.42 736.36 466.398 737.039 466.187 738.088C465.976 739.137 466.655 740.158 467.704 740.369Z" fill="#BDF3FF"/>
<path opacity="0.5" d="M482.559 725.693C483.608 725.904 484.63 725.225 484.841 724.176C485.052 723.127 484.373 722.105 483.324 721.894C482.275 721.683 481.254 722.362 481.042 723.411C480.831 724.46 481.51 725.482 482.559 725.693Z" fill="#BDF3FF"/>
<path opacity="0.5" d="M600.32 740.023C601.369 740.234 602.391 739.555 602.602 738.506C602.813 737.457 602.134 736.435 601.085 736.224C600.036 736.013 599.014 736.692 598.803 737.741C598.592 738.79 599.271 739.812 600.32 740.023Z" fill="#BDF3FF"/>
<path opacity="0.5" d="M557.754 703.823C558.802 704.034 559.824 703.355 560.035 702.306C560.246 701.257 559.567 700.236 558.518 700.025C557.469 699.813 556.448 700.492 556.237 701.541C556.026 702.59 556.705 703.612 557.754 703.823Z" fill="#BDF3FF"/>
<path opacity="0.5" d="M510.373 853.018C511.422 853.23 512.443 852.551 512.654 851.502C512.866 850.453 512.187 849.431 511.138 849.22C510.089 849.009 509.067 849.688 508.856 850.737C508.645 851.786 509.324 852.807 510.373 853.018Z" fill="#BDF3FF"/>
<path opacity="0.5" d="M607.699 702.384C608.748 702.595 609.77 701.916 609.981 700.867C610.192 699.818 609.513 698.796 608.464 698.585C607.415 698.374 606.393 699.053 606.182 700.102C605.971 701.151 606.65 702.172 607.699 702.384Z" fill="#BDF3FF"/>
<path opacity="0.5" d="M580.607 698.652C581.656 698.863 582.677 698.184 582.889 697.135C583.1 696.086 582.421 695.064 581.372 694.853C580.323 694.642 579.301 695.321 579.09 696.37C578.879 697.419 579.558 698.44 580.607 698.652Z" fill="#BDF3FF"/>
<path opacity="0.5" d="M458.898 673.538C459.947 673.75 460.968 673.071 461.18 672.022C461.391 670.973 460.712 669.951 459.663 669.74C458.614 669.529 457.592 670.208 457.381 671.257C457.17 672.306 457.849 673.327 458.898 673.538Z" fill="#BDF3FF"/>
<path opacity="0.5" d="M251.157 690.298C252.206 690.509 253.227 689.83 253.439 688.781C253.65 687.732 252.971 686.711 251.922 686.5C250.873 686.288 249.851 686.968 249.64 688.016C249.429 689.065 250.108 690.087 251.157 690.298Z" fill="#BDF3FF"/>
<path opacity="0.5" d="M272.792 695.369C273.841 695.58 274.862 694.901 275.073 693.852C275.285 692.803 274.605 691.782 273.556 691.57C272.508 691.359 271.486 692.038 271.275 693.087C271.064 694.136 271.743 695.158 272.792 695.369Z" fill="#BDF3FF"/>
<path opacity="0.5" d="M688.849 929.467C689.898 929.679 690.92 928.999 691.131 927.95C691.342 926.901 690.663 925.88 689.614 925.669C688.565 925.457 687.544 926.137 687.332 927.186C687.121 928.234 687.8 929.256 688.849 929.467Z" fill="#BDF3FF"/>
<path opacity="0.5" d="M725.324 919.843C726.373 920.054 727.394 919.375 727.606 918.326C727.817 917.277 727.138 916.256 726.089 916.045C725.04 915.833 724.018 916.512 723.807 917.561C723.596 918.61 724.275 919.632 725.324 919.843Z" fill="#BDF3FF"/>
<path opacity="0.5" d="M800.523 897.974C801.572 898.186 802.594 897.507 802.805 896.458C803.016 895.409 802.337 894.387 801.288 894.176C800.239 893.965 799.217 894.644 799.006 895.693C798.795 896.742 799.474 897.763 800.523 897.974Z" fill="#BDF3FF"/>
<path opacity="0.5" d="M850.465 896.522C851.514 896.733 852.535 896.054 852.746 895.005C852.958 893.956 852.278 892.934 851.229 892.723C850.18 892.512 849.159 893.191 848.948 894.24C848.736 895.289 849.416 896.31 850.465 896.522Z" fill="#BDF3FF"/>
<path opacity="0.5" d="M823.376 892.802C824.424 893.013 825.446 892.334 825.657 891.285C825.868 890.236 825.189 889.215 824.14 889.004C823.091 888.792 822.07 889.471 821.859 890.52C821.648 891.569 822.327 892.591 823.376 892.802Z" fill="#BDF3FF"/>
<path opacity="0.5" d="M701.665 867.676C702.714 867.887 703.735 867.208 703.946 866.159C704.157 865.11 703.478 864.089 702.429 863.878C701.381 863.666 700.359 864.345 700.148 865.394C699.937 866.443 700.616 867.465 701.665 867.676Z" fill="#BDF3FF"/>
<path opacity="0.5" d="M711.07 735.316C712.119 735.527 713.14 734.848 713.352 733.799C713.563 732.75 712.884 731.728 711.835 731.517C710.786 731.306 709.764 731.985 709.553 733.034C709.342 734.083 710.021 735.105 711.07 735.316Z" fill="#BDF3FF"/>
<path opacity="0.5" d="M732.691 740.369C733.74 740.581 734.762 739.902 734.973 738.853C735.184 737.804 734.505 736.782 733.456 736.571C732.407 736.36 731.385 737.039 731.174 738.088C730.963 739.137 731.642 740.158 732.691 740.369Z" fill="#BDF3FF"/>
<path opacity="0.5" d="M747.547 725.693C748.596 725.904 749.618 725.225 749.829 724.176C750.04 723.127 749.361 722.105 748.312 721.894C747.263 721.683 746.242 722.362 746.031 723.411C745.819 724.46 746.499 725.482 747.547 725.693Z" fill="#BDF3FF"/>
<path opacity="0.5" d="M865.308 740.023C866.357 740.234 867.378 739.555 867.59 738.506C867.801 737.457 867.122 736.435 866.073 736.224C865.024 736.013 864.003 736.692 863.791 737.741C863.58 738.79 864.259 739.812 865.308 740.023Z" fill="#BDF3FF"/>
<path opacity="0.5" d="M822.743 703.823C823.792 704.034 824.813 703.355 825.024 702.306C825.235 701.257 824.556 700.236 823.507 700.025C822.459 699.813 821.437 700.492 821.226 701.541C821.015 702.59 821.694 703.612 822.743 703.823Z" fill="#BDF3FF"/>
<path opacity="0.5" d="M775.361 853.018C776.41 853.23 777.432 852.551 777.643 851.502C777.854 850.453 777.175 849.431 776.126 849.22C775.077 849.009 774.055 849.688 773.844 850.737C773.633 851.786 774.312 852.807 775.361 853.018Z" fill="#BDF3FF"/>
<path opacity="0.5" d="M872.687 702.384C873.736 702.595 874.757 701.916 874.968 700.867C875.18 699.818 874.501 698.796 873.452 698.585C872.403 698.374 871.382 699.053 871.17 700.102C870.959 701.151 871.638 702.172 872.687 702.384Z" fill="#BDF3FF"/>
<path opacity="0.5" d="M845.595 698.652C846.644 698.863 847.666 698.184 847.877 697.135C848.088 696.086 847.409 695.064 846.36 694.853C845.311 694.642 844.29 695.321 844.079 696.37C843.867 697.419 844.546 698.44 845.595 698.652Z" fill="#BDF3FF"/>
<path opacity="0.5" d="M723.886 673.538C724.935 673.75 725.957 673.071 726.168 672.022C726.379 670.973 725.7 669.951 724.651 669.74C723.602 669.529 722.581 670.208 722.37 671.257C722.158 672.306 722.837 673.327 723.886 673.538Z" fill="#BDF3FF"/>
<path opacity="0.5" d="M516.144 690.298C517.193 690.509 518.215 689.83 518.426 688.781C518.637 687.732 517.958 686.711 516.909 686.5C515.86 686.288 514.839 686.968 514.627 688.016C514.416 689.065 515.095 690.087 516.144 690.298Z" fill="#BDF3FF"/>
<path opacity="0.5" d="M537.779 695.369C538.828 695.58 539.85 694.901 540.061 693.852C540.272 692.803 539.593 691.782 538.544 691.57C537.495 691.359 536.473 692.038 536.262 693.087C536.051 694.136 536.73 695.158 537.779 695.369Z" fill="#BDF3FF"/>
<path opacity="0.5" d="M971.09 929.467C972.139 929.679 973.161 928.999 973.372 927.95C973.583 926.901 972.904 925.88 971.855 925.669C970.806 925.457 969.785 926.137 969.574 927.186C969.362 928.234 970.042 929.256 971.09 929.467Z" fill="#BDF3FF"/>
<path opacity="0.5" d="M1007.56 919.843C1008.61 920.054 1009.63 919.375 1009.85 918.326C1010.06 917.277 1009.38 916.256 1008.33 916.045C1007.28 915.833 1006.26 916.512 1006.05 917.561C1005.84 918.61 1006.52 919.632 1007.56 919.843Z" fill="#BDF3FF"/>
<path opacity="0.5" d="M1082.76 897.974C1083.81 898.186 1084.83 897.507 1085.05 896.458C1085.26 895.409 1084.58 894.387 1083.53 894.176C1082.48 893.965 1081.46 894.644 1081.25 895.693C1081.04 896.742 1081.72 897.763 1082.76 897.974Z" fill="#BDF3FF"/>
<path opacity="0.5" d="M1132.71 896.522C1133.75 896.733 1134.78 896.054 1134.99 895.005C1135.2 893.956 1134.52 892.934 1133.47 892.723C1132.42 892.512 1131.4 893.191 1131.19 894.24C1130.98 895.289 1131.66 896.31 1132.71 896.522Z" fill="#BDF3FF"/>
<path opacity="0.5" d="M1105.62 892.802C1106.66 893.013 1107.69 892.334 1107.9 891.285C1108.11 890.236 1107.43 889.215 1106.38 889.004C1105.33 888.792 1104.31 889.471 1104.1 890.52C1103.89 891.569 1104.57 892.591 1105.62 892.802Z" fill="#BDF3FF"/>
<path opacity="0.5" d="M983.906 867.676C984.955 867.887 985.976 867.208 986.187 866.159C986.399 865.11 985.72 864.089 984.671 863.878C983.622 863.666 982.6 864.345 982.389 865.394C982.178 866.443 982.857 867.465 983.906 867.676Z" fill="#BDF3FF"/>
<path opacity="0.5" d="M993.311 735.316C994.36 735.527 995.382 734.848 995.593 733.799C995.804 732.75 995.125 731.728 994.076 731.517C993.027 731.306 992.006 731.985 991.794 733.034C991.583 734.083 992.262 735.105 993.311 735.316Z" fill="#BDF3FF"/>
<path opacity="0.5" d="M1014.93 740.369C1015.98 740.581 1017 739.902 1017.21 738.853C1017.43 737.804 1016.75 736.782 1015.7 736.571C1014.65 736.36 1013.63 737.039 1013.42 738.088C1013.2 739.137 1013.88 740.158 1014.93 740.369Z" fill="#BDF3FF"/>
<path opacity="0.5" d="M1029.79 725.693C1030.84 725.904 1031.86 725.225 1032.07 724.176C1032.28 723.127 1031.6 722.105 1030.55 721.894C1029.5 721.683 1028.48 722.362 1028.27 723.411C1028.06 724.46 1028.74 725.482 1029.79 725.693Z" fill="#BDF3FF"/>
<path opacity="0.5" d="M1147.55 740.023C1148.6 740.234 1149.62 739.555 1149.83 738.506C1150.04 737.457 1149.36 736.435 1148.31 736.224C1147.26 736.013 1146.24 736.692 1146.03 737.741C1145.82 738.79 1146.5 739.812 1147.55 740.023Z" fill="#BDF3FF"/>
<path opacity="0.5" d="M1104.98 703.823C1106.03 704.034 1107.05 703.355 1107.27 702.306C1107.48 701.257 1106.8 700.236 1105.75 700.025C1104.7 699.813 1103.68 700.492 1103.47 701.541C1103.26 702.59 1103.94 703.612 1104.98 703.823Z" fill="#BDF3FF"/>
<path opacity="0.5" d="M1057.6 853.018C1058.65 853.23 1059.67 852.551 1059.88 851.502C1060.09 850.453 1059.42 849.431 1058.37 849.22C1057.32 849.009 1056.3 849.688 1056.08 850.737C1055.87 851.786 1056.55 852.807 1057.6 853.018Z" fill="#BDF3FF"/>
<path opacity="0.5" d="M1154.93 702.384C1155.98 702.595 1157 701.916 1157.21 700.867C1157.42 699.818 1156.74 698.796 1155.69 698.585C1154.64 698.374 1153.62 699.053 1153.41 700.102C1153.2 701.151 1153.88 702.172 1154.93 702.384Z" fill="#BDF3FF"/>
<path opacity="0.5" d="M1127.84 698.652C1128.88 698.863 1129.91 698.184 1130.12 697.135C1130.33 696.086 1129.65 695.064 1128.6 694.853C1127.55 694.642 1126.53 695.321 1126.32 696.37C1126.11 697.419 1126.79 698.44 1127.84 698.652Z" fill="#BDF3FF"/>
<path opacity="0.5" d="M1006.13 673.538C1007.18 673.75 1008.2 673.071 1008.41 672.022C1008.62 670.973 1007.94 669.951 1006.89 669.74C1005.84 669.529 1004.82 670.208 1004.61 671.257C1004.4 672.306 1005.08 673.327 1006.13 673.538Z" fill="#BDF3FF"/>
<path opacity="0.5" d="M798.384 690.298C799.433 690.509 800.455 689.83 800.666 688.781C800.877 687.732 800.198 686.711 799.149 686.5C798.1 686.288 797.079 686.968 796.868 688.016C796.656 689.065 797.335 690.087 798.384 690.298Z" fill="#BDF3FF"/>
<path opacity="0.5" d="M820.02 695.369C821.069 695.58 822.091 694.901 822.302 693.852C822.513 692.803 821.834 691.782 820.785 691.57C819.736 691.359 818.715 692.038 818.503 693.087C818.292 694.136 818.971 695.158 820.02 695.369Z" fill="#BDF3FF"/>
<path opacity="0.5" d="M1396.5 929.467C1397.55 929.679 1398.57 928.999 1398.78 927.95C1398.99 926.901 1398.31 925.88 1397.26 925.669C1396.21 925.457 1395.19 926.137 1394.98 927.186C1394.77 928.234 1395.45 929.256 1396.5 929.467Z" fill="#BDF3FF"/>
<path opacity="0.5" d="M1432.97 919.843C1434.02 920.054 1435.04 919.375 1435.25 918.326C1435.46 917.277 1434.78 916.256 1433.74 916.045C1432.69 915.833 1431.66 916.512 1431.45 917.561C1431.24 918.61 1431.92 919.632 1432.97 919.843Z" fill="#BDF3FF"/>
<path opacity="0.5" d="M1409.31 867.676C1410.36 867.887 1411.38 867.208 1411.59 866.159C1411.81 865.11 1411.13 864.089 1410.08 863.878C1409.03 863.666 1408.01 864.345 1407.8 865.394C1407.58 866.443 1408.26 867.465 1409.31 867.676Z" fill="#BDF3FF"/>
<path opacity="0.5" d="M1418.72 735.316C1419.77 735.527 1420.79 734.848 1421 733.799C1421.21 732.75 1420.53 731.728 1419.48 731.517C1418.43 731.306 1417.41 731.985 1417.2 733.034C1416.99 734.083 1417.67 735.105 1418.72 735.316Z" fill="#BDF3FF"/>
<path opacity="0.5" d="M1440.34 740.369C1441.39 740.581 1442.41 739.902 1442.62 738.853C1442.83 737.804 1442.15 736.782 1441.11 736.571C1440.06 736.36 1439.03 737.039 1438.82 738.088C1438.61 739.137 1439.29 740.158 1440.34 740.369Z" fill="#BDF3FF"/>
<path opacity="0.5" d="M1431.53 673.538C1432.58 673.75 1433.6 673.071 1433.82 672.022C1434.03 670.973 1433.35 669.951 1432.3 669.74C1431.25 669.529 1430.23 670.208 1430.02 671.257C1429.81 672.306 1430.48 673.327 1431.53 673.538Z" fill="#BDF3FF"/>
<path opacity="0.5" d="M1223.79 690.298C1224.84 690.509 1225.86 689.83 1226.07 688.781C1226.28 687.732 1225.61 686.711 1224.56 686.5C1223.51 686.288 1222.49 686.968 1222.27 688.016C1222.06 689.065 1222.74 690.087 1223.79 690.298Z" fill="#BDF3FF"/>
<path opacity="0.5" d="M1245.43 695.369C1246.48 695.58 1247.5 694.901 1247.71 693.852C1247.92 692.803 1247.24 691.782 1246.19 691.57C1245.14 691.359 1244.12 692.038 1243.91 693.087C1243.7 694.136 1244.38 695.158 1245.43 695.369Z" fill="#BDF3FF"/>
<path d="M423.38 785.115H462.632V933.678H423.38V785.115Z" fill="#294B6B"/>
<path d="M403.73 934.843V820.258H435.876V845.216H470.665V934.843H403.73Z" fill="#132E4C"/>
<path d="M416.968 862.613H410.538V856.183H416.968V862.613Z" fill="#4B92BA"/>
<path d="M449.438 802.344H443.008V795.913H449.438V802.344Z" fill="#4B92BA"/>
<path d="M449.438 814.516H443.008V808.085H449.438V814.516Z" fill="#4B92BA"/>
<path opacity="0.5" d="M416.968 847.751H410.538V841.321H416.968V847.751Z" fill="#4B92BA"/>
<path opacity="0.5" d="M429.806 862.613H423.376V856.183H429.806V862.613Z" fill="#4B92BA"/>
<path opacity="0.5" d="M438.533 802.344H432.103V795.913H438.533V802.344Z" fill="#4B92BA"/>
<path opacity="0.25" d="M429.806 847.751H423.376V841.321H429.806V847.751Z" fill="#4B92BA"/>
<path d="M430.865 785.116V774.087L455.146 749.799V785.116H430.865Z" fill="#294B6B"/>
<path d="M688.367 785.115H727.619V933.678H688.367V785.115Z" fill="#294B6B"/>
<path d="M663 935V820H698.058V845.048H736V935H663Z" fill="#132E4C"/>
<path d="M676.43 859.293H670V852.863H676.43V859.293Z" fill="#4B92BA"/>
<path d="M714.426 802.344H707.995V795.913H714.426V802.344Z" fill="#4B92BA"/>
<path d="M714.426 814.516H707.995V808.085H714.426V814.516Z" fill="#4B92BA"/>
<path opacity="0.5" d="M676.43 844.431H670V838H676.43V844.431Z" fill="#4B92BA"/>
<path opacity="0.5" d="M689.268 859.293H682.838V852.863H689.268V859.293Z" fill="#4B92BA"/>
<path opacity="0.5" d="M703.521 802.344H697.09V795.913H703.521V802.344Z" fill="#4B92BA"/>
<path opacity="0.25" d="M689.268 844.431H682.838V838H689.268V844.431Z" fill="#4B92BA"/>
<path d="M695.852 785.116V774.087L720.134 749.799V785.116H695.852Z" fill="#294B6B"/>
<path d="M970.606 785.115H1009.86V933.678H970.606V785.115Z" fill="#294B6B"/>
<path d="M950.956 934.843V820.258H983.102V845.216H1017.89V934.843H950.956Z" fill="#132E4C"/>
<path d="M964.195 862.613H957.765V856.183H964.195V862.613Z" fill="#4B92BA"/>
<path d="M996.664 802.344H990.233V795.913H996.664V802.344Z" fill="#4B92BA"/>
<path d="M996.664 814.516H990.233V808.085H996.664V814.516Z" fill="#4B92BA"/>
<path opacity="0.5" d="M964.195 847.751H957.765V841.321H964.195V847.751Z" fill="#4B92BA"/>
<path opacity="0.5" d="M977.033 862.613H970.603V856.183H977.033V862.613Z" fill="#4B92BA"/>
<path opacity="0.5" d="M985.758 802.344H979.328V795.913H985.758V802.344Z" fill="#4B92BA"/>
<path opacity="0.25" d="M977.033 847.751H970.603V841.321H977.033V847.751Z" fill="#4B92BA"/>
<path d="M978.09 785.116V774.087L1002.37 749.799V785.116H978.09Z" fill="#294B6B"/>
<path d="M1396.02 785.115H1435.27V933.678H1396.02V785.115Z" fill="#294B6B"/>
<path d="M1376.36 934.843V820.258H1408.51V845.216H1443.3V934.843H1376.36Z" fill="#132E4C"/>
<path d="M1389.6 862.613H1383.17V856.183H1389.6V862.613Z" fill="#4B92BA"/>
<path d="M1422.07 802.344H1415.64V795.913H1422.07V802.344Z" fill="#4B92BA"/>
<path d="M1422.07 814.516H1415.64V808.085H1422.07V814.516Z" fill="#4B92BA"/>
<path opacity="0.5" d="M1389.6 847.751H1383.17V841.321H1389.6V847.751Z" fill="#4B92BA"/>
<path opacity="0.5" d="M1402.44 862.613H1396.01V856.183H1402.44V862.613Z" fill="#4B92BA"/>
<path opacity="0.5" d="M1411.17 802.344H1404.74V795.913H1411.17V802.344Z" fill="#4B92BA"/>
<path opacity="0.25" d="M1402.44 847.751H1396.01V841.321H1402.44V847.751Z" fill="#4B92BA"/>
<path d="M1403.5 785.116V774.087L1427.78 749.799V785.116H1403.5Z" fill="#294B6B"/>
<path d="M123.17 810.096L136.193 800.065L148.566 813.179L129.929 821.612L123.17 810.096Z" fill="#EE9F86"/>
<path d="M132.419 821.857C129.455 819.342 126.008 812.456 124.427 809.184L124.141 808.841L109.302 813.825L127.126 851.716C130.539 858.907 132.753 853.629 133.448 850.324C130.355 843.173 131.349 828.505 132.419 821.857Z" fill="#858E8F"/>
<path d="M176.447 608.945C177.039 606.553 167.693 585.71 162.986 575.593L154.894 578.311L158.915 614.833L176.447 608.945Z" fill="#3A3A39"/>
<path d="M170.625 584.273C170.727 583.364 170.19 582.377 169.938 581.732C168.681 578.508 166.079 575.735 163.056 573.832C143.935 571.208 142.174 586.97 143.881 594.857L154.734 616.449L167.76 612.804L164.607 606.278C165.482 604.234 168.07 604.24 172.675 603.569C177.28 602.898 175.065 599.558 174.813 598.913C174.847 598.61 175.268 597.739 175.655 597.171C175.689 596.868 175.723 596.565 175.403 596.526C175.084 596.488 175.118 596.185 175.152 595.882L175.186 595.578C175.22 595.275 175.287 594.669 175.002 594.327L174.717 593.986C174.431 593.644 174.465 593.341 174.499 593.038L174.886 592.47C175.375 590.993 174.906 589.4 173.377 588.601C172.202 587.536 170.741 586.131 170.625 584.273Z" fill="#EE937E"/>
<path d="M163.13 578.394C164.931 582.622 165.462 589.474 155.647 592.918C154.33 593.068 152.2 594.662 154.104 597.977C156.547 602.283 158.164 605.255 158.511 610.85C158.811 613.972 158.319 615.455 157.964 615.721L146.122 619.846C138.139 604.072 130.043 571.933 160.34 568.493C164.224 568.653 169.895 570.263 169.28 575.742C169.006 578.177 164.85 580.453 163.13 578.394Z" fill="#3A3A39"/>
<path d="M147.906 591.555L157.248 585.108L137.361 588.762C138.85 592.58 144.139 593.827 147.906 591.555Z" fill="#595552"/>
<path d="M180.451 574.673C178.671 570.499 174.54 573.042 171.941 573.336C169.663 567.883 161.808 557.794 147.816 562.49C133.823 567.187 134.281 580.337 136.526 586.09C135.826 586.614 135.025 588.04 136.191 589.095C137.989 590.226 182.446 579.788 180.451 574.673Z" fill="#FEDF00"/>
<path d="M165.194 567.608C165.477 567.946 165.41 568.546 165.06 568.808C164.711 569.07 164.079 568.993 163.796 568.655L165.194 567.608ZM159.921 566.055C159.289 565.979 159.006 565.64 159.073 565.04C159.14 564.44 159.49 564.178 160.122 564.255L159.921 566.055ZM163.796 568.655C163.513 568.316 162.948 567.639 162.349 567.263C161.751 566.886 160.836 566.471 159.921 566.055L160.122 564.255C161.386 564.408 162.584 565.162 163.499 565.577C164.38 566.292 164.945 566.969 165.544 567.346L163.796 568.655Z" fill="white" fill-opacity="0.8"/>
<path d="M54.3846 831.543L67.4076 821.512L79.7804 834.626L61.1442 843.059L54.3846 831.543Z" fill="#EE9F86"/>
<path d="M63.6709 842.996C60.7073 840.482 57.2598 833.595 55.6791 830.324L55.393 829.981L40.5543 834.965L58.3775 872.856C61.7909 880.046 64.0051 874.768 64.7 871.464C61.6068 864.312 62.6014 849.645 63.6709 842.996Z" fill="#858E8F"/>
<path d="M131.263 621.916C131.263 621.916 106.055 644.473 103.682 654.056C101.629 663.678 105.202 669.352 107.827 669.052C110.452 668.752 130.506 669.013 132.799 665.897C135.093 662.781 131.263 621.916 131.263 621.916Z" fill="url(#paint3_linear)"/>
<path d="M127.841 700.92C127.841 700.92 122.224 719.32 138.739 739.165C155.539 759.352 168.841 773.269 168.841 773.269L123.735 803.82L135.978 818.532C135.978 818.532 204.313 796.945 205.118 786.887C205.922 776.829 189.491 736.069 172.806 717.742L127.841 700.92Z" fill="url(#paint4_linear)"/>
<path d="M123.032 708.24C123.032 708.24 113.115 764.93 88.4817 794.285C63.8487 823.64 54.5294 823.129 54.5294 823.129L74.3007 839.991C74.3007 839.991 117.175 818.075 137.752 784.535C158.328 750.995 164.434 713.859 164.434 713.859L123.032 708.24Z" fill="url(#paint5_linear)"/>
<path d="M96.8798 653.665L107.903 687.105L150.608 675.463L140.096 646.059L113.515 654.152L108.503 650.181L96.8798 653.665Z" fill="url(#paint6_linear)"/>
<path d="M129.86 621.715C129.86 621.715 125.664 693.659 114.317 711.095C114.317 711.095 182.746 727.372 186.317 724.412C186.317 724.412 174.412 694.919 180.494 640.776C180.494 640.776 206.591 613.096 211.232 603.483L197.107 593.762C197.141 593.457 169.081 618.434 129.86 621.715Z" fill="url(#paint7_linear)"/>
<path d="M207.529 600.328L198.603 594.049C196.239 592.234 195.626 589.102 197.48 586.881L198.598 585.488C200.451 583.266 203.719 582.745 206.083 584.56L215.009 590.839C217.373 592.654 217.986 595.786 216.133 598.007L215.014 599.4C213.161 601.622 209.893 602.143 207.529 600.328Z" fill="url(#paint8_linear)"/>
<path d="M215.043 592.552C215.043 592.552 223.469 581.197 226.357 564.23C226.357 564.23 231.119 562.329 231.841 555.923C232.563 549.516 230.023 546.119 230.023 546.119C230.023 546.119 229.438 551.305 224.252 554.082C224.252 554.082 221.987 548.244 219.651 551.673C217.315 555.103 218.103 565.401 218.103 565.401L205.005 583.614L215.043 592.552Z" fill="#EE937E"/>
</g>
<defs>
<linearGradient id="paint0_linear" x1="335.847" y1="869.316" x2="316.51" y2="955.029" gradientUnits="userSpaceOnUse">
<stop stop-color="#4295E1"/>
<stop offset="1" stop-color="#3419CC"/>
</linearGradient>
<linearGradient id="paint1_linear" x1="690.724" y1="307.144" x2="1668.98" y2="493.458" gradientUnits="userSpaceOnUse">
<stop stop-color="#132D4C"/>
<stop offset="1" stop-color="#261B58"/>
</linearGradient>
<linearGradient id="paint2_linear" x1="812.736" y1="203.399" x2="945.855" y2="161.345" gradientUnits="userSpaceOnUse">
<stop stop-color="#EBEA6E"/>
<stop offset="1" stop-color="#007187"/>
</linearGradient>
<linearGradient id="paint3_linear" x1="104.792" y1="643.744" x2="135.252" y2="647.167" gradientUnits="userSpaceOnUse">
<stop stop-color="#C4E6EC"/>
<stop offset="1" stop-color="white"/>
</linearGradient>
<linearGradient id="paint4_linear" x1="121.124" y1="758.417" x2="207.431" y2="768.095" gradientUnits="userSpaceOnUse">
<stop stop-color="#0061A5"/>
<stop offset="1" stop-color="#074C7C"/>
</linearGradient>
<linearGradient id="paint5_linear" x1="60.5945" y1="769.53" x2="156.686" y2="780.311" gradientUnits="userSpaceOnUse">
<stop stop-color="#0061A5"/>
<stop offset="1" stop-color="#074C7C"/>
</linearGradient>
<linearGradient id="paint6_linear" x1="95.9346" y1="663.204" x2="151.371" y2="669.404" gradientUnits="userSpaceOnUse">
<stop stop-color="#F48C96"/>
<stop offset="1" stop-color="#F16A94"/>
</linearGradient>
<linearGradient id="paint7_linear" x1="120.987" y1="650.734" x2="204.853" y2="660.154" gradientUnits="userSpaceOnUse">
<stop stop-color="#C4E6EC"/>
<stop offset="1" stop-color="white"/>
</linearGradient>
<linearGradient id="paint8_linear" x1="198.206" y1="586.114" x2="215.194" y2="599.276" gradientUnits="userSpaceOnUse">
<stop stop-color="#C4E6EC"/>
<stop offset="1" stop-color="white"/>
</linearGradient>
<clipPath id="clip0">
<rect width="1440" height="329" fill="white" transform="translate(0 615.999)"/>
</clipPath>
</defs>
</svg>
