<svg width="1440" height="928" viewBox="0 0 1440 928" fill="none" xmlns="http://www.w3.org/2000/svg">
<mask id="mask0" style="mask-type:alpha" maskUnits="userSpaceOnUse" x="0" y="0" width="1440" height="928">
<rect width="1440" height="928" fill="#C4C4C4"/>
</mask>
<g mask="url(#mask0)">
<g clip-path="url(#clip0)">
<rect width="1440" height="329" transform="translate(0 615.999)" fill="white"/>
<rect x="-12.9033" y="642.182" width="356.559" height="321.265" fill="#132D4C"/>
<path d="M9.52721 744.002C30.8626 748.816 51.6409 733.339 55.9369 709.435C60.2328 685.53 46.4197 662.25 25.0843 657.437C3.7489 652.624 -17.0294 668.1 -21.3254 692.004C-25.6214 715.909 -11.8082 739.189 9.52721 744.002Z" fill="#ED157B"/>
<path d="M320.29 955.882C341.625 960.695 362.404 945.218 366.7 921.314C370.996 897.41 357.182 874.129 335.847 869.316C314.512 864.503 293.733 879.979 289.437 903.884C285.141 927.788 298.955 951.068 320.29 955.882Z" fill="url(#paint0_linear)"/>
<path fill-rule="evenodd" clip-rule="evenodd" d="M370.969 615.683C370.969 627.02 368.992 637.84 365.404 647.733C376.6 651.066 384.851 662.501 384.851 676.095C384.851 686.717 379.814 696.02 372.27 701.171C379.923 707.826 384.848 718.232 384.848 729.927C384.848 746.93 374.438 761.209 360.369 765.198C367.022 775.017 370.97 787.263 370.97 800.542C370.97 810.075 368.935 819.076 365.325 827.029C380.06 830.474 391.13 845.109 391.13 862.642C391.13 871.521 388.291 879.656 383.575 885.972C396.346 894.191 404.946 909.625 404.946 927.31C404.946 953.621 385.91 974.949 362.427 974.949C338.944 974.949 319.907 953.621 319.907 927.31C319.907 911.85 326.48 898.11 336.666 889.406C330.224 882.758 326.188 873.228 326.188 862.642C326.188 861.217 326.262 859.811 326.404 858.428C323.905 858.84 321.348 859.053 318.746 859.053C289.904 859.053 266.523 832.857 266.523 800.542C266.523 768.227 289.904 742.03 318.746 742.03C319.764 742.03 320.775 742.063 321.778 742.127C320.567 738.313 319.907 734.207 319.907 729.927C319.907 714.852 328.091 701.918 339.753 696.399C337.72 694.023 336.04 691.264 334.808 688.229C323.217 696.241 309.562 700.865 294.943 700.865C267.435 700.865 243.339 684.497 229.991 659.979C225.674 669.54 216.824 676.095 206.607 676.095C203.102 676.095 199.757 675.323 196.702 673.924C183.271 700.909 157.541 719.16 128.006 719.16C104.156 719.16 82.7862 707.258 68.3711 688.466C62.4244 690.755 56.0434 691.998 49.4033 691.998C17.1793 691.998 -8.94336 662.73 -8.94336 626.626C-8.94336 590.522 17.1793 561.253 49.4033 561.253C58.1363 561.253 66.4211 563.403 73.8593 567.256C87.9561 552.242 107.021 543.027 128.006 543.027C167.267 543.027 199.805 575.279 205.667 617.426C205.979 617.414 206.292 617.407 206.607 617.407C211.114 617.407 215.355 618.683 219.058 620.929C218.964 619.194 218.916 617.445 218.916 615.683C218.916 568.639 252.954 530.502 294.943 530.502C336.931 530.502 370.969 568.639 370.969 615.683Z" fill="white"/>
<path fill-rule="evenodd" clip-rule="evenodd" d="M359.915 629.617C359.915 640.953 357.938 651.773 354.35 661.666C365.546 665 373.795 676.434 373.795 690.027C373.795 700.648 368.759 709.951 361.216 715.102C368.871 721.757 373.797 732.164 373.797 743.86C373.797 760.864 363.386 775.143 349.316 779.131C355.968 788.95 359.916 801.196 359.916 814.474C359.916 824.008 357.881 833.009 354.271 840.962C369.006 844.407 380.075 859.043 380.075 876.575C380.075 885.453 377.237 893.588 372.522 899.904C385.293 908.123 393.895 923.557 393.895 941.243C393.895 967.554 374.858 988.883 351.375 988.883C327.892 988.883 308.855 967.554 308.855 941.243C308.855 925.784 315.428 912.044 325.612 903.341C319.17 896.693 315.134 887.162 315.134 876.575C315.134 875.15 315.207 873.744 315.349 872.361C312.85 872.773 310.294 872.986 307.693 872.986C278.851 872.986 255.47 846.789 255.47 814.474C255.47 782.159 278.851 755.963 307.693 755.963C308.711 755.963 309.722 755.995 310.726 756.06C309.515 752.246 308.855 748.14 308.855 743.86C308.855 728.786 317.038 715.853 328.699 710.333C326.665 707.957 324.985 705.198 323.753 702.163C312.162 710.175 298.507 714.798 283.889 714.798C256.381 714.798 232.286 698.43 218.938 673.913C214.621 683.473 205.77 690.028 195.553 690.028C192.048 690.028 188.704 689.256 185.648 687.857C172.217 714.842 146.487 733.093 116.952 733.093C93.1018 733.093 71.7325 721.191 57.3174 702.399C51.3707 704.688 44.9897 705.931 38.3496 705.931C6.12562 705.931 -19.9971 676.663 -19.9971 640.559C-19.9971 604.455 6.12562 575.187 38.3496 575.187C47.0825 575.187 55.3674 577.336 62.8056 581.189C76.9023 566.175 95.9669 556.961 116.952 556.961C156.213 556.961 188.751 589.212 194.613 631.359C194.925 631.347 195.239 631.341 195.553 631.341C200.06 631.341 204.301 632.616 208.004 634.862C207.91 633.127 207.862 631.378 207.862 629.617C207.862 582.572 241.9 544.436 283.889 544.436C325.877 544.436 359.915 582.572 359.915 629.617Z" fill="white" fill-opacity="0.06"/>
</g>
<path d="M1973.82 -21.0316L995.569 -207.346L809.874 767.659L1788.13 953.973L1973.82 -21.0316Z" fill="url(#paint1_linear)"/>
<path d="M1075.7 221.32C1111.55 228.149 1146.15 204.619 1152.98 168.764C1159.81 132.909 1136.28 98.3076 1100.43 91.4788C1064.57 84.6501 1029.97 108.18 1023.14 144.035C1016.31 179.89 1039.84 214.492 1075.7 221.32Z" fill="url(#paint2_linear)"/>
<g opacity="0.1">
<g opacity="0.1">
<path opacity="0.1" d="M1306.53 -109.314C1306.53 -109.314 1313.76 -74.0629 1306 -62.074C1298.25 -50.0851 1297.11 -25.8948 1289.1 -30.9186C1281.09 -35.9423 1283.01 -35.5496 1281.45 -48.3142C1279.88 -61.0788 1292.07 -72.5916 1279.91 -61.074C1267.75 -49.5563 1270.33 -57.9002 1267.43 -40.0173C1264.52 -22.1344 1267.34 -26.594 1263.13 -17.4295C1258.91 -8.26507 1275.91 -13.9951 1275.91 -24.4635C1275.9 -34.9319 1283.69 -13.0127 1290.3 -16.2251C1296.91 -19.4376 1297.88 -16.7812 1300.6 -23.2313C1303.33 -29.6813 1308.12 -39.2362 1310.07 -46.8597C1312.03 -54.4832 1316.35 -64.0743 1315.2 -73.7873C1314.05 -83.5004 1315.29 -87.2106 1312.23 -94.7627C1309.17 -102.315 1306.53 -109.314 1306.53 -109.314Z" fill="white"/>
<path opacity="0.1" d="M1251.95 -82.3395C1251.95 -82.3395 1259.17 -47.0634 1251.42 -35.0999C1243.68 -23.1364 1242.54 1.07925 1234.52 -3.94451C1226.51 -8.96827 1228.44 -8.57556 1226.87 -21.3402C1225.3 -34.1048 1237.46 -45.6224 1225.3 -34.1047C1213.14 -22.5871 1215.73 -30.9309 1212.82 -13.048C1209.92 4.83483 1212.76 0.405445 1208.52 9.5397C1204.28 18.674 1221.33 12.9789 1221.33 2.51054C1221.32 -7.95786 1229.11 13.9614 1235.7 10.7441C1242.28 7.52683 1243.3 10.1928 1246 3.73796C1248.7 -2.71692 1253.54 -12.2621 1255.49 -19.8602C1257.44 -27.4584 1261.77 -37.0749 1260.62 -46.7879C1259.47 -56.5009 1260.68 -60.2414 1257.65 -67.7887C1254.62 -75.336 1251.95 -82.3395 1251.95 -82.3395Z" fill="white"/>
<path opacity="0.1" d="M1290.86 33.1932C1290.86 33.1932 1292.52 7.34124 1299.53 4.36326C1306.54 1.38527 1303.77 15.9277 1312.61 9.01104C1321.45 2.09438 1325.68 -8.9095 1327.85 -20.3049C1330.02 -31.7003 1326.13 -38.885 1333.68 -39.603C1341.23 -40.321 1338.38 -47.3076 1341.34 -40.3017C1344.29 -33.2959 1348.84 -34.5589 1352.87 -44.5476C1355.13 -50.9922 1357.77 -57.2957 1360.78 -63.4239C1366.05 -74.255 1352.33 -45.4395 1360.14 -32.4079C1367.94 -19.3763 1364.37 -65.9752 1378.05 -64.4491C1391.72 -62.923 1386.21 -33.965 1381.69 -27.2249C1377.17 -20.4847 1358.89 -9.02737 1355.2 -6.4954C1351.51 -3.96343 1347.12 -8.82288 1340.49 -8.21969C1332.84 -7.54638 1326.13 5.14223 1326.13 5.14223C1326.13 5.14223 1323.12 15.2989 1320.44 18.0242C1317.77 20.7495 1325.92 16.9098 1317.8 20.729C1312.27 22.9128 1306.12 22.8987 1300.61 20.6894C1300.61 20.6894 1289.27 24.7105 1290.86 33.1932Z" fill="white"/>
<path opacity="0.4" d="M1228.39 -31.9104C1228.39 -31.9104 1284.26 -58.3521 1307.95 -21.5959C1331.65 15.1603 1347.32 34.0834 1360.57 3.46828C1373.81 -27.1468 1428.26 -49.3899 1368.06 -77.3181C1307.87 -105.246 1253.19 -133.018 1236.82 -92.5033C1220.46 -51.989 1228.39 -31.9104 1228.39 -31.9104Z" fill="#231F20"/>
</g>
</g>
<path d="M1096.39 422.943C1115.51 426.584 1133.96 414.037 1137.61 394.918C1141.25 375.799 1128.7 357.349 1109.58 353.707C1090.46 350.066 1072.01 362.613 1068.37 381.732C1064.73 400.851 1077.28 419.301 1096.39 422.943Z" fill="#ED157B"/>
<g opacity="0.1">
<g opacity="0.1">
<path opacity="0.1" d="M1155.81 329.912C1155.81 329.912 1137.3 334.987 1130.64 331.273C1123.99 327.559 1111.08 327.81 1113.47 323.374C1115.87 318.939 1115.73 319.964 1122.47 318.696C1129.2 317.428 1135.83 323.503 1129.22 317.352C1122.6 311.2 1127.2 312.364 1117.59 311.429C1107.98 310.494 1110.43 311.88 1105.41 309.95C1100.38 308.02 1104.09 316.878 1109.6 316.509C1115.12 316.139 1103.76 321.052 1105.72 324.449C1107.68 327.846 1106.27 328.472 1109.8 329.696C1114 331.386 1118.31 332.796 1122.7 333.915C1126.81 334.698 1132.09 336.651 1137.22 335.682C1142.35 334.712 1144.38 335.256 1148.18 333.351C1151.99 331.447 1155.81 329.912 1155.81 329.912Z" fill="white"/>
<path opacity="0.1" d="M1139.57 301.808C1139.57 301.808 1121.06 306.883 1114.41 303.169C1107.75 299.456 1094.84 299.706 1097.24 295.271C1099.63 290.835 1099.49 291.86 1106.23 290.592C1112.97 289.324 1119.57 295.395 1112.98 289.248C1106.39 283.102 1110.96 284.261 1101.33 283.32C1091.7 282.38 1094.17 283.771 1089.14 281.841C1084.12 279.912 1087.82 288.77 1093.34 288.4C1098.85 288.03 1087.53 292.948 1089.49 296.345C1091.44 299.742 1090.03 300.368 1093.56 301.593C1097.77 303.271 1102.08 304.68 1106.46 305.811C1110.57 306.594 1115.86 308.522 1120.98 307.578C1126.11 306.634 1128.14 307.152 1131.95 305.248C1135.76 303.343 1139.57 301.808 1139.57 301.808Z" fill="white"/>
<path opacity="0.1" d="M1079.45 326.547C1079.45 326.547 1093.25 326.546 1095.09 330.157C1096.93 333.769 1089.09 332.827 1093.07 337.295C1097.42 341.528 1103.15 344.048 1109.21 344.393C1115.35 345.142 1119.04 342.767 1119.69 346.809C1120.34 350.852 1123.95 349.04 1120.32 350.847C1116.69 352.654 1117.54 355.053 1122.99 356.852C1126.5 357.821 1129.96 359.006 1133.33 360.4C1139.26 362.819 1123.55 356.538 1116.77 361.191C1109.99 365.844 1134.79 362.282 1134.44 369.607C1134.1 376.932 1118.48 375.008 1114.78 372.859C1111.09 370.709 1104.3 361.341 1102.81 359.48C1101.33 357.619 1103.65 355.064 1103.2 351.663C1102.58 347.6 1095.6 344.482 1095.6 344.482C1093.13 343.986 1090.75 343.116 1088.54 341.902C1087 340.584 1089.3 344.834 1087 340.584C1085.65 337.726 1085.44 334.458 1086.43 331.453C1086.43 331.453 1083.89 325.421 1079.45 326.547Z" fill="white"/>
<path opacity="0.1" d="M1127.25 341.779C1127.25 341.779 1141.29 341.822 1143.17 345.468C1145.06 349.114 1137.06 348.169 1141.11 352.702C1145.53 357.018 1151.37 359.587 1157.54 359.934C1163.78 360.702 1167.54 358.261 1168.2 362.385C1168.86 366.508 1172.53 364.655 1168.83 366.503C1165.14 368.351 1165.99 370.776 1171.54 372.594C1175.11 373.593 1178.62 374.798 1182.06 376.202C1188.1 378.695 1172.02 372.291 1165.23 377.02C1158.43 381.749 1183.56 378.118 1183.19 385.702C1182.83 393.286 1166.94 391.207 1163.18 389.017C1159.41 386.827 1152.5 377.304 1151.02 375.392C1149.54 373.481 1151.87 370.926 1151.42 367.368C1150.78 363.249 1143.65 360.077 1143.65 360.077C1141.15 359.56 1138.74 358.676 1136.5 357.452C1134.91 356.124 1137.27 360.439 1134.91 356.124C1133.55 353.202 1133.35 349.875 1134.34 346.811C1134.34 346.811 1131.76 340.638 1127.25 341.779Z" fill="white"/>
<path opacity="0.4" d="M1111.91 291.018C1111.91 291.018 1127.94 319.818 1109.21 333.636C1090.48 347.454 1080.97 356.53 1097.71 362.533C1114.45 368.535 1128.28 396.707 1140.99 363.7C1153.69 330.694 1166.6 300.619 1144.44 293.349C1122.29 286.078 1111.91 291.018 1111.91 291.018Z" fill="#231F20"/>
</g>
</g>
<path opacity="0.3" d="M1802.57 624.619C1757.95 604.285 1708.54 609.714 1671.91 634.526C1658.08 605.761 1634.55 582.793 1605.46 569.654C1538.77 539.266 1461.18 566.318 1432.2 629.924C1430.45 633.757 1428.91 637.679 1427.59 641.673C1418.17 624.062 1403.2 610.058 1385.01 601.843C1370.75 595.19 1354.98 592.445 1339.31 593.888C1323.64 595.331 1308.64 600.911 1295.83 610.057C1288.56 603.237 1280.22 597.654 1271.15 593.529C1265 590.713 1258.56 588.582 1251.94 587.174C1250.82 544.059 1224.52 502.526 1181.07 482.727C1165.36 475.453 1148.28 471.638 1130.97 471.54C1113.65 471.441 1096.52 475.061 1080.73 482.155C1081.8 480.122 1082.86 478.061 1083.83 475.934C1090.98 460.019 1094.3 442.646 1093.51 425.216C1092.71 407.785 1087.84 390.785 1079.27 375.584C1093.31 372.57 1106.46 366.332 1117.68 357.362C1128.89 348.391 1137.87 336.935 1143.89 323.898C1165.5 276.492 1142.73 219.72 1093.08 197.095C1090.62 195.972 1088.14 194.986 1085.62 194.08C1087.03 191.697 1088.3 189.243 1089.45 186.728C1094.3 175.989 1096.75 164.328 1096.65 152.549C1096.55 140.77 1093.89 129.153 1088.86 118.501C1101.2 115.802 1112.76 110.279 1122.61 102.367C1132.46 94.4538 1140.35 84.366 1145.65 72.8943C1153.52 55.545 1154.99 35.9655 1149.8 17.6337C1161.26 7.6841 1170.45 -4.61987 1176.73 -18.4398C1179.69 -24.9822 1182 -31.8044 1183.61 -38.8048C1208.67 -47.1444 1229.72 -64.5291 1242.65 -87.5618C1255.58 -110.594 1259.45 -137.62 1253.52 -163.358C1262.79 -167.623 1270.9 -174.068 1277.15 -182.143C1283.4 -190.218 1287.6 -199.683 1289.4 -209.734C1291.21 -219.784 1290.55 -230.12 1287.5 -239.863C1284.44 -249.605 1279.08 -258.465 1271.86 -265.687C1264.64 -272.909 1255.79 -278.279 1246.04 -281.34C1236.3 -284.402 1225.97 -285.063 1215.92 -283.268C1205.87 -281.473 1196.4 -277.275 1188.32 -271.031C1180.24 -264.788 1173.79 -256.684 1169.52 -247.41C1169.05 -246.376 1168.57 -245.323 1168.1 -244.289C1144.94 -248.316 1121.1 -244.547 1100.31 -233.575C1079.52 -222.603 1062.96 -205.046 1053.21 -183.654C1050.25 -177.118 1047.95 -170.302 1046.34 -163.308C1031.06 -158.221 1017.14 -149.726 1005.63 -138.464C994.119 -127.203 985.32 -113.471 979.899 -98.3069C974.479 -83.1431 972.579 -66.945 974.342 -50.9383C976.106 -34.9317 981.487 -19.5359 990.079 -5.91599C988.893 -3.84 987.777 -1.70788 986.772 0.498429C981.929 11.2366 979.474 22.8979 979.577 34.6772C979.68 46.4564 982.338 58.073 987.367 68.725C975.022 71.4241 963.47 76.9466 953.618 84.8593C943.765 92.7721 935.879 102.86 930.579 114.332C911.767 155.615 931.064 204.927 973.689 225.431C969.872 230.562 966.614 236.086 963.971 241.91C958.976 252.981 956.228 264.933 955.888 277.073C955.547 289.214 957.621 301.301 961.989 312.634C921.657 315.859 884.858 339.25 867.495 377.353C841.509 434.379 868.881 502.685 928.61 529.903C944.319 537.176 961.407 540.991 978.718 541.09C996.029 541.188 1013.16 537.568 1028.95 530.474C1027.86 532.498 1026.83 534.549 1025.86 536.676C999.875 593.702 1027.18 662.098 1086.93 689.325C1108.25 699.112 1131.93 702.563 1155.16 699.266C1163.96 720.379 1180.48 737.346 1201.34 746.718C1215.6 753.374 1231.37 756.123 1247.04 754.683C1262.7 753.243 1277.71 747.667 1290.51 738.524C1297.79 745.328 1306.13 750.903 1315.2 755.032C1357.68 774.388 1406.76 758.707 1427.73 720.16C1433.68 737.784 1443.21 753.99 1455.72 767.762C1468.22 781.535 1483.43 792.579 1500.4 800.203C1545.01 820.528 1594.43 815.108 1631.04 790.287C1644.88 819.049 1668.4 842.017 1697.49 855.159C1764.16 885.538 1841.75 858.486 1870.74 794.88C1899.72 731.275 1869.33 655.043 1802.57 624.619Z" fill="white"/>
<path d="M1786.85 620.08C1764.78 615.799 1741.98 617.349 1720.7 624.577C1699.41 631.805 1680.38 644.461 1665.49 661.294C1646.09 636.873 1618.55 620.259 1587.9 614.498C1517.99 601.184 1450.7 646.068 1437.6 714.839C1436.8 719.03 1436.23 723.197 1435.87 727.339C1427.65 717.877 1417.49 710.312 1406.06 705.166C1394.64 700.02 1382.24 697.416 1369.71 697.533C1357.18 697.651 1344.83 700.488 1333.51 705.847C1322.19 711.207 1312.16 718.962 1304.13 728.575C1295.72 723.737 1286.56 720.346 1277.02 718.543C1270.57 717.313 1264 716.807 1257.43 717.035C1252.38 698.321 1242.74 681.162 1229.38 667.112C1216.03 653.062 1199.38 642.564 1180.95 636.569C1162.51 630.575 1142.88 629.273 1123.81 632.781C1104.75 636.288 1086.86 644.496 1071.77 656.659C1072.35 654.435 1072.86 652.177 1073.3 649.902C1076.51 632.879 1075.75 615.343 1071.08 598.66C1066.41 581.977 1057.95 566.597 1046.37 553.718C1059.08 547.259 1070.15 537.978 1078.72 526.585C1087.3 515.192 1093.15 501.988 1095.84 487.984C1105.59 436.809 1071.26 387.289 1019.18 377.371C1016.61 376.88 1014.03 376.523 1011.46 376.255C1012.23 373.622 1012.89 370.947 1013.41 368.2C1015.6 356.701 1015.3 344.868 1012.56 333.49C1009.81 322.112 1004.67 311.451 997.475 302.216C1007.26 297.231 1015.94 290.338 1023.01 281.944C1030.09 273.551 1035.41 263.825 1038.67 253.342C1041.92 242.859 1043.05 231.83 1041.97 220.905C1040.9 209.98 1037.65 199.381 1032.42 189.732C1045.16 171.253 1051.89 149.298 1051.71 126.855C1073.65 112.411 1089.6 90.4923 1096.6 65.1724C1103.6 39.8525 1101.17 12.853 1089.76 -10.8088C1101.65 -20.3775 1109.73 -33.8714 1112.57 -48.8673C1119.11 -83.199 1097.32 -116.366 1063.89 -122.733C1030.46 -129.1 997.985 -106.401 991.43 -71.9836C991.213 -70.8463 991.021 -69.8378 990.788 -68.6148C944.985 -65.242 905.03 -30.5816 895.786 17.9549C894.468 25.0153 893.846 32.1882 893.931 39.3703C880.571 48.1412 869.321 59.7654 860.993 73.4062C852.664 87.0469 847.464 102.365 845.766 118.256C844.069 134.148 845.916 150.219 851.175 165.311C856.435 180.403 864.975 194.141 876.181 205.537C875.525 207.813 874.947 210.149 874.493 212.531C872.309 224.032 872.602 235.868 875.355 247.247C878.107 258.626 883.254 269.288 890.454 278.52C879.274 284.232 869.543 292.419 862.002 302.457C854.461 312.495 849.308 324.12 846.934 336.449C838.446 381.016 867.811 424.142 912.752 433.702C906.896 447.84 904.608 463.201 906.089 478.431C907.57 493.661 912.775 508.294 921.245 521.038C902.329 527.434 885.444 538.725 872.308 553.764C859.172 568.802 850.253 587.051 846.458 606.655C834.738 668.195 876.022 727.778 938.656 739.707C955.272 742.922 972.391 742.465 988.812 738.368C1005.23 734.27 1020.56 726.631 1033.72 715.986C1033.14 718.211 1032.62 720.469 1032.19 722.743C1020.46 784.304 1061.74 843.887 1124.4 855.82C1146.85 860.138 1170.08 857.757 1191.19 848.973C1198.86 859.743 1208.9 868.61 1220.54 874.895C1232.17 881.18 1245.09 884.715 1258.31 885.228C1271.52 885.742 1284.68 883.22 1296.76 877.857C1308.85 872.494 1319.55 864.432 1328.04 854.291C1336.42 859.103 1345.54 862.487 1355.04 864.303C1399.58 872.787 1442.47 845.733 1453.62 803.275C1463.07 818.799 1475.69 832.161 1490.64 842.49C1505.59 852.82 1522.55 859.887 1540.42 863.232C1587.22 872.146 1629.18 885.785 1658.15 852.858C1676.77 876.416 1707.41 862.751 1739.36 868.836C1809.27 882.15 1876.58 837.158 1889.66 768.495C1902.74 699.831 1856.74 633.391 1786.85 620.08Z" fill="white"/>
<circle cx="855.277" cy="540.614" r="137.5" fill="white"/>
<circle cx="1247.5" cy="749.5" r="137.5" fill="white"/>
<path d="M1251.44 352.819L1304.15 344.921L1301.49 379.736L1242.3 364.491L1251.44 352.819Z" fill="#FBAC1D"/>
<path fill-rule="evenodd" clip-rule="evenodd" d="M1227.98 370.996L1231.95 375.013C1244.64 371.391 1256.3 364.814 1265.96 355.821C1277.37 344.503 1279.02 327.695 1278.43 320.718C1271.43 320.043 1254.75 321.706 1243.34 332.999C1234.23 342.567 1227.52 354.159 1223.75 366.824L1227.85 370.972L1227.98 370.996Z" fill="#BC3647"/>
<path d="M1339.26 441.424L1347.6 388.889L1312.85 391.159L1327.56 450.505L1339.26 441.424Z" fill="#D56627"/>
<path fill-rule="evenodd" clip-rule="evenodd" d="M1320.85 464.744L1316.88 460.727C1320.65 448.062 1327.36 436.47 1336.47 426.902C1347.88 415.609 1364.71 414.107 1371.69 414.752C1372.3 421.759 1370.5 438.405 1359.08 449.724C1349.42 458.717 1337.77 465.294 1325.08 468.916L1320.95 464.764L1320.85 464.744Z" fill="#BC3647"/>
<path fill-rule="evenodd" clip-rule="evenodd" d="M1291.87 399.704L1279.69 387.417C1287.86 364.54 1314.84 308.241 1357.4 266.062C1399.97 223.883 1457.2 212.666 1480.69 212.536C1480.35 236.141 1469.06 293.639 1426.49 335.818C1383.93 377.997 1327.39 404.47 1304.42 412.51L1292.24 400.223L1291.87 399.704Z" fill="#FBAC1D"/>
<path d="M1304.47 412.412L1291.87 399.703L1480.71 212.539C1480.37 236.145 1469.08 293.643 1426.52 335.822C1383.95 378.001 1327.41 404.474 1304.47 412.412Z" fill="#F58227"/>
<mask id="mask1" style="mask-type:alpha" maskUnits="userSpaceOnUse" x="1277" y="181" width="207" height="257">
<path fill-rule="evenodd" clip-rule="evenodd" d="M1293.29 399.148L1281.11 386.861C1289.28 363.984 1316.26 307.685 1358.82 265.506C1401.39 223.327 1458.62 212.109 1482.11 211.979C1481.77 235.584 1470.48 293.082 1427.91 335.261C1385.35 377.44 1328.81 403.913 1305.84 411.953L1293.66 399.666L1293.29 399.148Z" fill="#FBAC1D"/>
</mask>
<g mask="url(#mask1)">
<path d="M1452.06 171.436L1400.58 222.444L1472.74 295.266L1524.22 244.258L1452.06 171.436Z" fill="#DE445E"/>
<path d="M1400.6 220.722L1395.37 225.905L1467.53 298.727L1472.76 293.544L1400.6 220.722Z" fill="#A01D20"/>
<path d="M1260.15 359.91L1254.92 365.093L1327.08 437.915L1332.31 432.732L1260.15 359.91Z" fill="#A01D20"/>
</g>
<path d="M1424.82 306.252C1435.43 295.747 1435.46 278.587 1424.89 267.924C1414.33 257.262 1397.17 257.134 1386.56 267.639C1375.96 278.144 1375.93 295.304 1386.5 305.966C1397.06 316.629 1414.22 316.757 1424.82 306.252Z" fill="#373636"/>
<path d="M1448.22 261.347L1448.2 278.596L1368.36 277.987L1368.39 260.738L1448.22 261.347Z" fill="white" fill-opacity="0.2"/>
<path d="M1453.92 292.045L1367.09 291.288L1365.87 297.683L1454.01 298.348L1453.92 292.045Z" fill="white" fill-opacity="0.2"/>
<path d="M1231.66 376.553L887.275 781.279L767.86 554.436L1221.17 366.335L1231.66 376.553Z" fill="white"/>
<path d="M1271.88 385.931L1303.79 415.975L1055.02 960.916L807.14 773.911L798.581 684.617L1271.88 385.931Z" fill="white"/>
<path d="M1316.89 460.725L1026.07 792.344L1159.46 891.941L1324.98 468.895L1316.89 460.725Z" fill="white"/>
<g opacity="0.08">
<path opacity="0.5" d="M1961.88 306.502L1165.52 -381.771L1117.9 -349.786L1930.19 352.619L1961.88 306.502Z" fill="white"/>
<path opacity="0.5" d="M1067.56 -339.677L932.226 -248.837L1963.52 655.051L2066.18 542.708L1067.56 -339.677Z" fill="white"/>
</g>
<g opacity="0.5">
<path opacity="0.5" d="M1407.6 493.551C1409.66 493.943 1411.65 492.591 1412.05 490.53C1412.44 488.47 1411.09 486.481 1409.03 486.089C1406.97 485.697 1404.98 487.049 1404.58 489.109C1404.19 491.17 1405.54 493.158 1407.6 493.551Z" fill="white"/>
<path opacity="0.5" d="M1431.45 372.165C1433.51 372.557 1435.5 371.205 1435.89 369.145C1436.29 367.084 1434.93 365.096 1432.87 364.703C1430.81 364.311 1428.83 365.663 1428.43 367.723C1428.04 369.784 1429.39 371.772 1431.45 372.165Z" fill="white"/>
<path opacity="0.5" d="M1064.15 28.2932C1066.21 28.6857 1068.2 27.3334 1068.6 25.273C1068.99 23.2125 1067.64 21.2241 1065.58 20.8316C1063.52 20.4392 1061.53 21.7914 1061.13 23.8519C1060.74 25.9123 1062.09 27.9008 1064.15 28.2932Z" fill="white"/>
<path opacity="0.5" d="M1106.67 37.7869C1108.73 38.1793 1110.72 36.8271 1111.11 34.7666C1111.5 32.7062 1110.15 30.7177 1108.09 30.3253C1106.03 29.9329 1104.04 31.2851 1103.65 33.3455C1103.25 35.406 1104.61 37.3944 1106.67 37.7869Z" fill="white"/>
<path opacity="0.5" d="M1135.46 8.68483C1137.52 9.07725 1139.51 7.72505 1139.9 5.66459C1140.29 3.60413 1138.94 1.61567 1136.88 1.22325C1134.82 0.83082 1132.83 2.18303 1132.44 4.24349C1132.05 6.30394 1133.4 8.2924 1135.46 8.68483Z" fill="white"/>
<path opacity="0.5" d="M1366.58 34.3704C1368.64 34.7628 1370.63 33.4106 1371.02 31.3501C1371.41 29.2897 1370.06 27.3012 1368 26.9088C1365.94 26.5164 1363.95 27.8686 1363.56 29.929C1363.17 31.9895 1364.52 33.9779 1366.58 34.3704Z" fill="white"/>
<path opacity="0.5" d="M1192.62 257.722C1194.68 258.114 1196.67 256.762 1197.06 254.702C1197.45 252.641 1196.1 250.653 1194.04 250.26C1191.98 249.868 1189.99 251.22 1189.6 253.281C1189.21 255.341 1190.56 257.33 1192.62 257.722Z" fill="white"/>
</g>
<path d="M153.016 935.262V837H125.45V858.402H95.6162V935.262H153.016Z" fill="#132E4C"/>
<path d="M141.665 827.699H147.18V822.185H141.665V827.699Z" fill="#4B92BA"/>
<path opacity="0.5" d="M141.665 814.954H147.18V809.44H141.665V814.954Z" fill="#4B92BA"/>
<path opacity="0.5" d="M130.655 827.699H136.169V822.185H130.655V827.699Z" fill="#4B92BA"/>
<path opacity="0.25" d="M130.655 814.954H136.169V809.44H130.655V814.954Z" fill="#4B92BA"/>
<path d="M14.3159 780.552H42.9131V888.788H14.3159V780.552Z" fill="#294B6B"/>
<path d="M0.00109729 935.481V852H23.4207V870.183H48.7666V935.481H0.00109729Z" fill="#132E4C"/>
<path d="M9.64681 837.012H4.96191L4.96191 832.327H9.64681V837.012Z" fill="#4B92BA"/>
<path d="M33.3021 793.104H28.6172V788.419H33.3021V793.104Z" fill="#4B92BA"/>
<path d="M33.3021 801.971H28.6172V797.286H33.3021V801.971Z" fill="#4B92BA"/>
<path opacity="0.5" d="M9.64681 826.185H4.96191L4.96191 821.5H9.64681V826.185Z" fill="#4B92BA"/>
<path opacity="0.5" d="M18.9994 837.012H14.3145V832.327H18.9994V837.012Z" fill="#4B92BA"/>
<path opacity="0.5" d="M25.3568 793.104H20.6719V788.419H25.3568V793.104Z" fill="#4B92BA"/>
<path opacity="0.25" d="M18.9994 826.185H14.3145V821.5H18.9994V826.185Z" fill="#4B92BA"/>
<path d="M19.7706 780.552V772.517L37.4609 754.822V780.552H19.7706Z" fill="#294B6B"/>
<path d="M232.375 784.517H260.973V892.753H232.375V784.517Z" fill="#294B6B"/>
<path d="M218.061 893.601V810.12H241.48V828.303H266.826V893.601H218.061Z" fill="#1A395C"/>
<path d="M227.706 840.978H223.021V836.293H227.706V840.978Z" fill="#4B92BA"/>
<path d="M251.362 797.069H246.677V792.384H251.362V797.069Z" fill="#4B92BA"/>
<path d="M251.362 805.937H246.677V801.251H251.362V805.937Z" fill="#4B92BA"/>
<path opacity="0.5" d="M227.706 830.15H223.021V825.465H227.706V830.15Z" fill="#4B92BA"/>
<path opacity="0.5" d="M237.059 840.978H232.374V836.293H237.059V840.978Z" fill="#4B92BA"/>
<path opacity="0.5" d="M243.416 797.069H238.731V792.384H243.416V797.069Z" fill="#4B92BA"/>
<path opacity="0.25" d="M237.059 830.15H232.374V825.465H237.059V830.15Z" fill="#4B92BA"/>
<path d="M237.83 784.517V776.482L255.521 758.787V784.517H237.83Z" fill="#294B6B"/>
<path d="M104.639 780.552H76.042V888.788H104.639V780.552Z" fill="#294B6B"/>
<path d="M118.954 935.481V852H95.5343V870.183H70.1885V935.481H118.954Z" fill="#132E4C"/>
<path d="M109.308 837.012H113.993V832.327H109.308V837.012Z" fill="#4B92BA"/>
<path d="M85.653 793.104H90.3379V788.419H85.653V793.104Z" fill="#4B92BA"/>
<path d="M85.653 801.971H90.3379V797.286H85.653V801.971Z" fill="#4B92BA"/>
<path opacity="0.5" d="M109.308 826.185H113.993V821.5H109.308V826.185Z" fill="#4B92BA"/>
<path opacity="0.5" d="M99.9557 837.012H104.641V832.327H99.9557V837.012Z" fill="#4B92BA"/>
<path opacity="0.5" d="M93.5992 793.104H98.2842V788.419H93.5992V793.104Z" fill="#4B92BA"/>
<path opacity="0.25" d="M99.9557 826.185H104.641V821.5H99.9557V826.185Z" fill="#4B92BA"/>
<path d="M99.1845 780.552V772.517L81.4941 754.822V780.552H99.1845Z" fill="#294B6B"/>
<path d="M324.94 934.842V799.967H287.103V829.344H246.153V934.842H324.94Z" fill="#132E4C"/>
<path d="M309.359 849.826H316.928V842.257H309.359V849.826Z" fill="#4B92BA"/>
<path opacity="0.5" d="M309.359 832.333H316.928V824.763H309.359V832.333Z" fill="#4B92BA"/>
<path opacity="0.5" d="M294.249 849.826H301.818V842.257H294.249V849.826Z" fill="#4B92BA"/>
<path opacity="0.25" d="M294.249 832.333H301.818V824.763H294.249V832.333Z" fill="#4B92BA"/>
<path d="M593 934.842V799.967H553.687V829.344H511.141V934.842H593Z" fill="#132E4C"/>
<path d="M576.81 849.826H584.675V842.257H576.81V849.826Z" fill="#4B92BA"/>
<path opacity="0.5" d="M576.81 832.333H584.675V824.763H576.81V832.333Z" fill="#4B92BA"/>
<path opacity="0.5" d="M561.11 849.826H568.975V842.257H561.11V849.826Z" fill="#4B92BA"/>
<path opacity="0.25" d="M561.11 832.333H568.975V824.763H561.11V832.333Z" fill="#4B92BA"/>
<path d="M872.167 934.842V799.967H834.329V829.344H793.38V934.842H872.167Z" fill="#132E4C"/>
<path d="M856.585 849.826H864.153V842.257H856.585V849.826Z" fill="#4B92BA"/>
<path opacity="0.5" d="M856.585 832.333H864.153V824.763H856.585V832.333Z" fill="#4B92BA"/>
<path opacity="0.5" d="M841.474 849.826H849.043V842.257H841.474V849.826Z" fill="#4B92BA"/>
<path opacity="0.25" d="M841.474 832.333H849.043V824.763H841.474V832.333Z" fill="#4B92BA"/>
<path d="M1297.58 934.842V799.967H1259.74V829.344H1218.79V934.842H1297.58Z" fill="#132E4C"/>
<path d="M1281.99 849.826H1289.56V842.257H1281.99V849.826Z" fill="#4B92BA"/>
<path opacity="0.5" d="M1281.99 832.333H1289.56V824.763H1281.99V832.333Z" fill="#4B92BA"/>
<path opacity="0.5" d="M1266.88 849.826H1274.45V842.257H1266.88V849.826Z" fill="#4B92BA"/>
<path opacity="0.25" d="M1266.88 832.333H1274.45V824.763H1266.88V832.333Z" fill="#4B92BA"/>
<path d="M321 935V800H362.302V829.404H407V935H321Z" fill="#132E4C"/>
<path d="M340.523 849.826H332.954V842.257H340.523V849.826Z" fill="#4B92BA"/>
<path opacity="0.5" d="M340.523 832.333H332.954V824.763H340.523V832.333Z" fill="#4B92BA"/>
<path opacity="0.5" d="M355.633 849.826H348.063V842.257H355.633V849.826Z" fill="#4B92BA"/>
<path opacity="0.25" d="M355.633 832.333H348.063V824.763H355.633V832.333Z" fill="#4B92BA"/>
<path d="M589.928 934.842V799.967H627.765V829.344H668.715V934.842H589.928Z" fill="#132E4C"/>
<path d="M866 943V792H908.262V824.889H954V943H866Z" fill="#132E4C"/>
<path d="M605.51 849.826H597.941V842.257H605.51V849.826Z" fill="#4B92BA"/>
<path opacity="0.5" d="M605.51 832.333H597.941V824.763H605.51V832.333Z" fill="#4B92BA"/>
<path opacity="0.5" d="M620.621 849.826H613.052V842.257H620.621V849.826Z" fill="#4B92BA"/>
<path opacity="0.25" d="M620.621 832.333H613.052V824.763H620.621V832.333Z" fill="#4B92BA"/>
<path d="M1101 936V801H1059.22V830.404H1014V936H1101Z" fill="#132E4C"/>
<path d="M1085.28 851.082H1092.85V843.513H1085.28V851.082Z" fill="#4B92BA"/>
<path opacity="0.5" d="M1085.28 833.588H1092.85V826.019H1085.28V833.588Z" fill="#4B92BA"/>
<path opacity="0.5" d="M1070.17 851.082H1077.74V843.513H1070.17V851.082Z" fill="#4B92BA"/>
<path opacity="0.25" d="M1070.17 833.588H1077.74V826.019H1070.17V833.588Z" fill="#4B92BA"/>
<path d="M1180 931V797H1141.1V826.186H1099V931H1180Z" fill="#132E4C"/>
<path d="M1164.07 846.388H1171.64V838.819H1164.07V846.388Z" fill="#4B92BA"/>
<path opacity="0.5" d="M1164.07 828.894H1171.64V821.325H1164.07V828.894Z" fill="#4B92BA"/>
<path opacity="0.5" d="M1148.96 846.388H1156.53V838.819H1148.96V846.388Z" fill="#4B92BA"/>
<path opacity="0.25" d="M1148.96 828.894H1156.53V821.325H1148.96V828.894Z" fill="#4B92BA"/>
<path d="M1295 935V800H1335.82V829.404H1380V935H1295Z" fill="#132E4C"/>
<path d="M1312.57 850.138H1305V842.569H1312.57V850.138Z" fill="#4B92BA"/>
<path opacity="0.5" d="M1312.57 832.569H1305V825H1312.57V832.569Z" fill="#4B92BA"/>
<path opacity="0.5" d="M1328.14 850.138H1320.57V842.569H1328.14V850.138Z" fill="#4B92BA"/>
<path opacity="0.25" d="M1328.14 832.569H1320.57V825H1328.14V832.569Z" fill="#4B92BA"/>
<path d="M258.536 785.115H219.284V933.678H258.536V785.115Z" fill="#294B6B"/>
<path d="M278.186 934.843V820.258H246.04V845.216H211.251V934.843H278.186Z" fill="#132E4C"/>
<path d="M264.948 862.613H271.378V856.183H264.948V862.613Z" fill="#4B92BA"/>
<path d="M232.477 802.344H238.907V795.913H232.477V802.344Z" fill="#4B92BA"/>
<path d="M232.477 814.516H238.907V808.085H232.477V814.516Z" fill="#4B92BA"/>
<path opacity="0.5" d="M264.948 847.751H271.378V841.321H264.948V847.751Z" fill="#4B92BA"/>
<path opacity="0.5" d="M252.11 862.613H258.54V856.183H252.11V862.613Z" fill="#4B92BA"/>
<path opacity="0.5" d="M243.382 802.344H249.812V795.913H243.382V802.344Z" fill="#4B92BA"/>
<path opacity="0.25" d="M252.11 847.751H258.54V841.321H252.11V847.751Z" fill="#4B92BA"/>
<path d="M251.051 785.116V774.087L226.77 749.799V785.116H251.051Z" fill="#294B6B"/>
<path d="M201.285 785.115H162.033V933.678H201.285V785.115Z" fill="#294B6B"/>
<path d="M220.935 934.585V820H188.789V844.958H154V934.585H220.935Z" fill="#132E4C"/>
<path d="M207.697 862.613H214.127V856.183H207.697V862.613Z" fill="#4B92BA"/>
<path d="M175.226 802.344H181.656V795.913H175.226V802.344Z" fill="#4B92BA"/>
<path d="M175.226 814.516H181.656V808.085H175.226V814.516Z" fill="#4B92BA"/>
<path opacity="0.5" d="M207.697 847.751H214.127V841.321H207.697V847.751Z" fill="#4B92BA"/>
<path opacity="0.5" d="M194.859 862.613H201.289V856.183H194.859V862.613Z" fill="#4B92BA"/>
<path opacity="0.5" d="M186.131 802.344H192.562V795.913H186.131V802.344Z" fill="#4B92BA"/>
<path opacity="0.25" d="M194.859 847.751H201.289V841.321H194.859V847.751Z" fill="#4B92BA"/>
<path d="M193.8 785.116V774.087L169.519 749.799V785.116H193.8Z" fill="#294B6B"/>
<path d="M958.285 785.115H919.033V933.678H958.285V785.115Z" fill="#294B6B"/>
<path d="M977.935 934.843V820.258H945.789V845.216H911V934.843H977.935Z" fill="#132E4C"/>
<path d="M964.697 862.613H971.127V856.183H964.697V862.613Z" fill="#4B92BA"/>
<path d="M932.226 802.344H938.656V795.913H932.226V802.344Z" fill="#4B92BA"/>
<path d="M932.226 814.516H938.656V808.085H932.226V814.516Z" fill="#4B92BA"/>
<path opacity="0.5" d="M964.697 847.751H971.127V841.321H964.697V847.751Z" fill="#4B92BA"/>
<path opacity="0.5" d="M951.859 862.613H958.289V856.183H951.859V862.613Z" fill="#4B92BA"/>
<path opacity="0.5" d="M943.131 802.344H949.562V795.913H943.131V802.344Z" fill="#4B92BA"/>
<path opacity="0.25" d="M951.859 847.751H958.289V841.321H951.859V847.751Z" fill="#4B92BA"/>
<path d="M950.8 785.116V774.087L926.519 749.799V785.116H950.8Z" fill="#294B6B"/>
<path d="M1171.29 785.115H1132.03V933.678H1171.29V785.115Z" fill="#294B6B"/>
<path d="M1190.94 934.843V820.258H1158.79V845.216H1124V934.843H1190.94Z" fill="#132E4C"/>
<path d="M1177.7 862.613H1184.13V856.183H1177.7V862.613Z" fill="#4B92BA"/>
<path d="M1145.23 802.344H1151.66V795.913H1145.23V802.344Z" fill="#4B92BA"/>
<path d="M1145.23 814.516H1151.66V808.085H1145.23V814.516Z" fill="#4B92BA"/>
<path opacity="0.5" d="M1177.7 847.751H1184.13V841.321H1177.7V847.751Z" fill="#4B92BA"/>
<path opacity="0.5" d="M1164.86 862.613H1171.29V856.183H1164.86V862.613Z" fill="#4B92BA"/>
<path opacity="0.5" d="M1156.13 802.344H1162.56V795.913H1156.13V802.344Z" fill="#4B92BA"/>
<path opacity="0.25" d="M1164.86 847.751H1171.29V841.321H1164.86V847.751Z" fill="#4B92BA"/>
<path d="M1163.8 785.116V774.087L1139.52 749.799V785.116H1163.8Z" fill="#294B6B"/>
<path d="M523.525 785.115H484.272V933.678H523.525V785.115Z" fill="#294B6B"/>
<path d="M543 935V820H505.54V845.048H465V935H543Z" fill="#132E4C"/>
<path d="M529.935 862.613H536.365V856.183H529.935V862.613Z" fill="#4B92BA"/>
<path d="M497.466 802.344H503.896V795.913H497.466V802.344Z" fill="#4B92BA"/>
<path d="M497.466 814.516H503.896V808.085H497.466V814.516Z" fill="#4B92BA"/>
<path opacity="0.5" d="M529.935 847.751H536.365V841.321H529.935V847.751Z" fill="#4B92BA"/>
<path opacity="0.5" d="M517.097 862.613H523.527V856.183H517.097V862.613Z" fill="#4B92BA"/>
<path opacity="0.5" d="M508.371 802.344H514.802V795.913H508.371V802.344Z" fill="#4B92BA"/>
<path opacity="0.25" d="M517.097 847.751H523.527V841.321H517.097V847.751Z" fill="#4B92BA"/>
<path d="M516.039 785.116V774.087L491.758 749.799V785.116H516.039Z" fill="#294B6B"/>
<path d="M805.764 785.115H766.512V933.678H805.764V785.115Z" fill="#294B6B"/>
<path d="M825 935V820H778.896V845.048H729V935H825Z" fill="#132E4C"/>
<path d="M812.175 862.613H818.605V856.183H812.175V862.613Z" fill="#4B92BA"/>
<path d="M779.705 802.344H786.136V795.913H779.705V802.344Z" fill="#4B92BA"/>
<path d="M779.705 814.516H786.136V808.085H779.705V814.516Z" fill="#4B92BA"/>
<path opacity="0.5" d="M812.175 847.751H818.605V841.321H812.175V847.751Z" fill="#4B92BA"/>
<path opacity="0.5" d="M799.337 862.613H805.768V856.183H799.337V862.613Z" fill="#4B92BA"/>
<path opacity="0.5" d="M790.611 802.344H797.041V795.913H790.611V802.344Z" fill="#4B92BA"/>
<path opacity="0.25" d="M799.337 847.751H805.768V841.321H799.337V847.751Z" fill="#4B92BA"/>
<path d="M798.279 785.116V774.087L773.997 749.799V785.116H798.279Z" fill="#294B6B"/>
<path d="M1231.17 785.115H1191.92V933.678H1231.17V785.115Z" fill="#294B6B"/>
<path d="M1250.82 934.843V820.258H1218.68V845.216H1183.89V934.843H1250.82Z" fill="#132E4C"/>
<path d="M1237.58 862.613H1244.01V856.183H1237.58V862.613Z" fill="#4B92BA"/>
<path d="M1205.11 802.344H1211.54V795.913H1205.11V802.344Z" fill="#4B92BA"/>
<path d="M1205.11 814.516H1211.54V808.085H1205.11V814.516Z" fill="#4B92BA"/>
<path opacity="0.5" d="M1237.58 847.751H1244.01V841.321H1237.58V847.751Z" fill="#4B92BA"/>
<path opacity="0.5" d="M1224.75 862.613H1231.18V856.183H1224.75V862.613Z" fill="#4B92BA"/>
<path opacity="0.5" d="M1216.02 802.344H1222.45V795.913H1216.02V802.344Z" fill="#4B92BA"/>
<path opacity="0.25" d="M1224.75 847.751H1231.18V841.321H1224.75V847.751Z" fill="#4B92BA"/>
<path d="M1223.69 785.116V774.087L1199.41 749.799V785.116H1223.69Z" fill="#294B6B"/>
<path opacity="0.5" d="M423.861 929.467C424.91 929.679 425.931 928.999 426.142 927.95C426.354 926.901 425.675 925.88 424.626 925.669C423.577 925.457 422.555 926.137 422.344 927.186C422.133 928.234 422.812 929.256 423.861 929.467Z" fill="#BDF3FF"/>
<path opacity="0.5" d="M460.334 919.843C461.382 920.054 462.404 919.375 462.615 918.326C462.826 917.277 462.147 916.256 461.098 916.045C460.05 915.833 459.028 916.512 458.817 917.561C458.606 918.61 459.285 919.632 460.334 919.843Z" fill="#BDF3FF"/>
<path opacity="0.5" d="M535.535 897.974C536.584 898.186 537.606 897.507 537.817 896.458C538.028 895.409 537.349 894.387 536.3 894.176C535.251 893.965 534.229 894.644 534.018 895.693C533.807 896.742 534.486 897.763 535.535 897.974Z" fill="#BDF3FF"/>
<path opacity="0.5" d="M585.477 896.522C586.526 896.733 587.547 896.054 587.759 895.005C587.97 893.956 587.291 892.934 586.242 892.723C585.193 892.512 584.172 893.191 583.96 894.24C583.749 895.289 584.428 896.31 585.477 896.522Z" fill="#BDF3FF"/>
<path opacity="0.5" d="M558.387 892.802C559.436 893.013 560.458 892.334 560.669 891.285C560.88 890.236 560.201 889.215 559.152 889.004C558.103 888.792 557.082 889.471 556.87 890.52C556.659 891.569 557.338 892.591 558.387 892.802Z" fill="#BDF3FF"/>
<path opacity="0.5" d="M436.677 867.676C437.726 867.887 438.748 867.208 438.959 866.159C439.17 865.11 438.491 864.089 437.442 863.878C436.393 863.666 435.372 864.345 435.161 865.394C434.949 866.443 435.628 867.465 436.677 867.676Z" fill="#BDF3FF"/>
<path opacity="0.5" d="M446.082 735.316C447.131 735.527 448.152 734.848 448.363 733.799C448.574 732.75 447.895 731.728 446.846 731.517C445.798 731.306 444.776 731.985 444.565 733.034C444.354 734.083 445.033 735.105 446.082 735.316Z" fill="#BDF3FF"/>
<path opacity="0.5" d="M467.704 740.369C468.753 740.581 469.774 739.902 469.986 738.853C470.197 737.804 469.518 736.782 468.469 736.571C467.42 736.36 466.398 737.039 466.187 738.088C465.976 739.137 466.655 740.158 467.704 740.369Z" fill="#BDF3FF"/>
<path opacity="0.5" d="M482.559 725.693C483.608 725.904 484.63 725.225 484.841 724.176C485.052 723.127 484.373 722.105 483.324 721.894C482.275 721.683 481.254 722.362 481.042 723.411C480.831 724.46 481.51 725.482 482.559 725.693Z" fill="#BDF3FF"/>
<path opacity="0.5" d="M600.32 740.023C601.369 740.234 602.391 739.555 602.602 738.506C602.813 737.457 602.134 736.435 601.085 736.224C600.036 736.013 599.014 736.692 598.803 737.741C598.592 738.79 599.271 739.812 600.32 740.023Z" fill="#BDF3FF"/>
<path opacity="0.5" d="M557.754 703.823C558.802 704.034 559.824 703.355 560.035 702.306C560.246 701.257 559.567 700.236 558.518 700.025C557.469 699.813 556.448 700.492 556.237 701.541C556.026 702.59 556.705 703.612 557.754 703.823Z" fill="#BDF3FF"/>
<path opacity="0.5" d="M510.373 853.018C511.422 853.23 512.443 852.551 512.654 851.502C512.866 850.453 512.187 849.431 511.138 849.22C510.089 849.009 509.067 849.688 508.856 850.737C508.645 851.786 509.324 852.807 510.373 853.018Z" fill="#BDF3FF"/>
<path opacity="0.5" d="M607.699 702.384C608.748 702.595 609.77 701.916 609.981 700.867C610.192 699.818 609.513 698.796 608.464 698.585C607.415 698.374 606.393 699.053 606.182 700.102C605.971 701.151 606.65 702.172 607.699 702.384Z" fill="#BDF3FF"/>
<path opacity="0.5" d="M580.607 698.652C581.656 698.863 582.677 698.184 582.889 697.135C583.1 696.086 582.421 695.064 581.372 694.853C580.323 694.642 579.301 695.321 579.09 696.37C578.879 697.419 579.558 698.44 580.607 698.652Z" fill="#BDF3FF"/>
<path opacity="0.5" d="M458.898 673.538C459.947 673.75 460.968 673.071 461.18 672.022C461.391 670.973 460.712 669.951 459.663 669.74C458.614 669.529 457.592 670.208 457.381 671.257C457.17 672.306 457.849 673.327 458.898 673.538Z" fill="#BDF3FF"/>
<path opacity="0.5" d="M251.157 690.298C252.206 690.509 253.227 689.83 253.439 688.781C253.65 687.732 252.971 686.711 251.922 686.5C250.873 686.288 249.851 686.968 249.64 688.016C249.429 689.065 250.108 690.087 251.157 690.298Z" fill="#BDF3FF"/>
<path opacity="0.5" d="M272.792 695.369C273.841 695.58 274.862 694.901 275.073 693.852C275.285 692.803 274.605 691.782 273.556 691.57C272.508 691.359 271.486 692.038 271.275 693.087C271.064 694.136 271.743 695.158 272.792 695.369Z" fill="#BDF3FF"/>
<path opacity="0.5" d="M688.849 929.467C689.898 929.679 690.92 928.999 691.131 927.95C691.342 926.901 690.663 925.88 689.614 925.669C688.565 925.457 687.544 926.137 687.332 927.186C687.121 928.234 687.8 929.256 688.849 929.467Z" fill="#BDF3FF"/>
<path opacity="0.5" d="M725.324 919.843C726.373 920.054 727.394 919.375 727.606 918.326C727.817 917.277 727.138 916.256 726.089 916.045C725.04 915.833 724.018 916.512 723.807 917.561C723.596 918.61 724.275 919.632 725.324 919.843Z" fill="#BDF3FF"/>
<path opacity="0.5" d="M800.523 897.974C801.572 898.186 802.594 897.507 802.805 896.458C803.016 895.409 802.337 894.387 801.288 894.176C800.239 893.965 799.217 894.644 799.006 895.693C798.795 896.742 799.474 897.763 800.523 897.974Z" fill="#BDF3FF"/>
<path opacity="0.5" d="M850.465 896.522C851.514 896.733 852.535 896.054 852.746 895.005C852.958 893.956 852.278 892.934 851.229 892.723C850.18 892.512 849.159 893.191 848.948 894.24C848.736 895.289 849.416 896.31 850.465 896.522Z" fill="#BDF3FF"/>
<path opacity="0.5" d="M823.376 892.802C824.424 893.013 825.446 892.334 825.657 891.285C825.868 890.236 825.189 889.215 824.14 889.004C823.091 888.792 822.07 889.471 821.859 890.52C821.648 891.569 822.327 892.591 823.376 892.802Z" fill="#BDF3FF"/>
<path opacity="0.5" d="M701.665 867.676C702.714 867.887 703.735 867.208 703.946 866.159C704.157 865.11 703.478 864.089 702.429 863.878C701.381 863.666 700.359 864.345 700.148 865.394C699.937 866.443 700.616 867.465 701.665 867.676Z" fill="#BDF3FF"/>
<path opacity="0.5" d="M711.07 735.316C712.119 735.527 713.14 734.848 713.352 733.799C713.563 732.75 712.884 731.728 711.835 731.517C710.786 731.306 709.764 731.985 709.553 733.034C709.342 734.083 710.021 735.105 711.07 735.316Z" fill="#BDF3FF"/>
<path opacity="0.5" d="M732.691 740.369C733.74 740.581 734.762 739.902 734.973 738.853C735.184 737.804 734.505 736.782 733.456 736.571C732.407 736.36 731.385 737.039 731.174 738.088C730.963 739.137 731.642 740.158 732.691 740.369Z" fill="#BDF3FF"/>
<path opacity="0.5" d="M747.547 725.693C748.596 725.904 749.618 725.225 749.829 724.176C750.04 723.127 749.361 722.105 748.312 721.894C747.263 721.683 746.242 722.362 746.031 723.411C745.819 724.46 746.499 725.482 747.547 725.693Z" fill="#BDF3FF"/>
<path opacity="0.5" d="M865.308 740.023C866.357 740.234 867.378 739.555 867.59 738.506C867.801 737.457 867.122 736.435 866.073 736.224C865.024 736.013 864.003 736.692 863.791 737.741C863.58 738.79 864.259 739.812 865.308 740.023Z" fill="#BDF3FF"/>
<path opacity="0.5" d="M822.743 703.823C823.792 704.034 824.813 703.355 825.024 702.306C825.235 701.257 824.556 700.236 823.507 700.025C822.459 699.813 821.437 700.492 821.226 701.541C821.015 702.59 821.694 703.612 822.743 703.823Z" fill="#BDF3FF"/>
<path opacity="0.5" d="M775.361 853.018C776.41 853.23 777.432 852.551 777.643 851.502C777.854 850.453 777.175 849.431 776.126 849.22C775.077 849.009 774.055 849.688 773.844 850.737C773.633 851.786 774.312 852.807 775.361 853.018Z" fill="#BDF3FF"/>
<path opacity="0.5" d="M872.687 702.384C873.736 702.595 874.757 701.916 874.968 700.867C875.18 699.818 874.501 698.796 873.452 698.585C872.403 698.374 871.382 699.053 871.17 700.102C870.959 701.151 871.638 702.172 872.687 702.384Z" fill="#BDF3FF"/>
<path opacity="0.5" d="M845.595 698.652C846.644 698.863 847.666 698.184 847.877 697.135C848.088 696.086 847.409 695.064 846.36 694.853C845.311 694.642 844.29 695.321 844.079 696.37C843.867 697.419 844.546 698.44 845.595 698.652Z" fill="#BDF3FF"/>
<path opacity="0.5" d="M723.886 673.538C724.935 673.75 725.957 673.071 726.168 672.022C726.379 670.973 725.7 669.951 724.651 669.74C723.602 669.529 722.581 670.208 722.37 671.257C722.158 672.306 722.837 673.327 723.886 673.538Z" fill="#BDF3FF"/>
<path opacity="0.5" d="M516.144 690.298C517.193 690.509 518.215 689.83 518.426 688.781C518.637 687.732 517.958 686.711 516.909 686.5C515.86 686.288 514.839 686.968 514.627 688.016C514.416 689.065 515.095 690.087 516.144 690.298Z" fill="#BDF3FF"/>
<path opacity="0.5" d="M537.779 695.369C538.828 695.58 539.85 694.901 540.061 693.852C540.272 692.803 539.593 691.782 538.544 691.57C537.495 691.359 536.473 692.038 536.262 693.087C536.051 694.136 536.73 695.158 537.779 695.369Z" fill="#BDF3FF"/>
<path opacity="0.5" d="M971.09 929.467C972.139 929.679 973.161 928.999 973.372 927.95C973.583 926.901 972.904 925.88 971.855 925.669C970.806 925.457 969.785 926.137 969.574 927.186C969.362 928.234 970.042 929.256 971.09 929.467Z" fill="#BDF3FF"/>
<path opacity="0.5" d="M1007.56 919.843C1008.61 920.054 1009.63 919.375 1009.85 918.326C1010.06 917.277 1009.38 916.256 1008.33 916.045C1007.28 915.833 1006.26 916.512 1006.05 917.561C1005.84 918.61 1006.52 919.632 1007.56 919.843Z" fill="#BDF3FF"/>
<path opacity="0.5" d="M1082.76 897.974C1083.81 898.186 1084.83 897.507 1085.05 896.458C1085.26 895.409 1084.58 894.387 1083.53 894.176C1082.48 893.965 1081.46 894.644 1081.25 895.693C1081.04 896.742 1081.72 897.763 1082.76 897.974Z" fill="#BDF3FF"/>
<path opacity="0.5" d="M1132.71 896.522C1133.75 896.733 1134.78 896.054 1134.99 895.005C1135.2 893.956 1134.52 892.934 1133.47 892.723C1132.42 892.512 1131.4 893.191 1131.19 894.24C1130.98 895.289 1131.66 896.31 1132.71 896.522Z" fill="#BDF3FF"/>
<path opacity="0.5" d="M1105.62 892.802C1106.66 893.013 1107.69 892.334 1107.9 891.285C1108.11 890.236 1107.43 889.215 1106.38 889.004C1105.33 888.792 1104.31 889.471 1104.1 890.52C1103.89 891.569 1104.57 892.591 1105.62 892.802Z" fill="#BDF3FF"/>
<path opacity="0.5" d="M983.906 867.676C984.955 867.887 985.976 867.208 986.187 866.159C986.399 865.11 985.72 864.089 984.671 863.878C983.622 863.666 982.6 864.345 982.389 865.394C982.178 866.443 982.857 867.465 983.906 867.676Z" fill="#BDF3FF"/>
<path opacity="0.5" d="M993.311 735.316C994.36 735.527 995.382 734.848 995.593 733.799C995.804 732.75 995.125 731.728 994.076 731.517C993.027 731.306 992.006 731.985 991.794 733.034C991.583 734.083 992.262 735.105 993.311 735.316Z" fill="#BDF3FF"/>
<path opacity="0.5" d="M1014.93 740.369C1015.98 740.581 1017 739.902 1017.21 738.853C1017.43 737.804 1016.75 736.782 1015.7 736.571C1014.65 736.36 1013.63 737.039 1013.42 738.088C1013.2 739.137 1013.88 740.158 1014.93 740.369Z" fill="#BDF3FF"/>
<path opacity="0.5" d="M1029.79 725.693C1030.84 725.904 1031.86 725.225 1032.07 724.176C1032.28 723.127 1031.6 722.105 1030.55 721.894C1029.5 721.683 1028.48 722.362 1028.27 723.411C1028.06 724.46 1028.74 725.482 1029.79 725.693Z" fill="#BDF3FF"/>
<path opacity="0.5" d="M1147.55 740.023C1148.6 740.234 1149.62 739.555 1149.83 738.506C1150.04 737.457 1149.36 736.435 1148.31 736.224C1147.26 736.013 1146.24 736.692 1146.03 737.741C1145.82 738.79 1146.5 739.812 1147.55 740.023Z" fill="#BDF3FF"/>
<path opacity="0.5" d="M1104.98 703.823C1106.03 704.034 1107.05 703.355 1107.27 702.306C1107.48 701.257 1106.8 700.236 1105.75 700.025C1104.7 699.813 1103.68 700.492 1103.47 701.541C1103.26 702.59 1103.94 703.612 1104.98 703.823Z" fill="#BDF3FF"/>
<path opacity="0.5" d="M1057.6 853.018C1058.65 853.23 1059.67 852.551 1059.88 851.502C1060.09 850.453 1059.42 849.431 1058.37 849.22C1057.32 849.009 1056.3 849.688 1056.08 850.737C1055.87 851.786 1056.55 852.807 1057.6 853.018Z" fill="#BDF3FF"/>
<path opacity="0.5" d="M1154.93 702.384C1155.98 702.595 1157 701.916 1157.21 700.867C1157.42 699.818 1156.74 698.796 1155.69 698.585C1154.64 698.374 1153.62 699.053 1153.41 700.102C1153.2 701.151 1153.88 702.172 1154.93 702.384Z" fill="#BDF3FF"/>
<path opacity="0.5" d="M1127.84 698.652C1128.88 698.863 1129.91 698.184 1130.12 697.135C1130.33 696.086 1129.65 695.064 1128.6 694.853C1127.55 694.642 1126.53 695.321 1126.32 696.37C1126.11 697.419 1126.79 698.44 1127.84 698.652Z" fill="#BDF3FF"/>
<path opacity="0.5" d="M1006.13 673.538C1007.18 673.75 1008.2 673.071 1008.41 672.022C1008.62 670.973 1007.94 669.951 1006.89 669.74C1005.84 669.529 1004.82 670.208 1004.61 671.257C1004.4 672.306 1005.08 673.327 1006.13 673.538Z" fill="#BDF3FF"/>
<path opacity="0.5" d="M798.384 690.298C799.433 690.509 800.455 689.83 800.666 688.781C800.877 687.732 800.198 686.711 799.149 686.5C798.1 686.288 797.079 686.968 796.868 688.016C796.656 689.065 797.335 690.087 798.384 690.298Z" fill="#BDF3FF"/>
<path opacity="0.5" d="M820.02 695.369C821.069 695.58 822.091 694.901 822.302 693.852C822.513 692.803 821.834 691.782 820.785 691.57C819.736 691.359 818.715 692.038 818.503 693.087C818.292 694.136 818.971 695.158 820.02 695.369Z" fill="#BDF3FF"/>
<path opacity="0.5" d="M1396.5 929.467C1397.55 929.679 1398.57 928.999 1398.78 927.95C1398.99 926.901 1398.31 925.88 1397.26 925.669C1396.21 925.457 1395.19 926.137 1394.98 927.186C1394.77 928.234 1395.45 929.256 1396.5 929.467Z" fill="#BDF3FF"/>
<path opacity="0.5" d="M1432.97 919.843C1434.02 920.054 1435.04 919.375 1435.25 918.326C1435.46 917.277 1434.78 916.256 1433.74 916.045C1432.69 915.833 1431.66 916.512 1431.45 917.561C1431.24 918.61 1431.92 919.632 1432.97 919.843Z" fill="#BDF3FF"/>
<path opacity="0.5" d="M1409.31 867.676C1410.36 867.887 1411.38 867.208 1411.59 866.159C1411.81 865.11 1411.13 864.089 1410.08 863.878C1409.03 863.666 1408.01 864.345 1407.8 865.394C1407.58 866.443 1408.26 867.465 1409.31 867.676Z" fill="#BDF3FF"/>
<path opacity="0.5" d="M1418.72 735.316C1419.77 735.527 1420.79 734.848 1421 733.799C1421.21 732.75 1420.53 731.728 1419.48 731.517C1418.43 731.306 1417.41 731.985 1417.2 733.034C1416.99 734.083 1417.67 735.105 1418.72 735.316Z" fill="#BDF3FF"/>
<path opacity="0.5" d="M1440.34 740.369C1441.39 740.581 1442.41 739.902 1442.62 738.853C1442.83 737.804 1442.15 736.782 1441.11 736.571C1440.06 736.36 1439.03 737.039 1438.82 738.088C1438.61 739.137 1439.29 740.158 1440.34 740.369Z" fill="#BDF3FF"/>
<path opacity="0.5" d="M1431.53 673.538C1432.58 673.75 1433.6 673.071 1433.82 672.022C1434.03 670.973 1433.35 669.951 1432.3 669.74C1431.25 669.529 1430.23 670.208 1430.02 671.257C1429.81 672.306 1430.48 673.327 1431.53 673.538Z" fill="#BDF3FF"/>
<path opacity="0.5" d="M1223.79 690.298C1224.84 690.509 1225.86 689.83 1226.07 688.781C1226.28 687.732 1225.61 686.711 1224.56 686.5C1223.51 686.288 1222.49 686.968 1222.27 688.016C1222.06 689.065 1222.74 690.087 1223.79 690.298Z" fill="#BDF3FF"/>
<path opacity="0.5" d="M1245.43 695.369C1246.48 695.58 1247.5 694.901 1247.71 693.852C1247.92 692.803 1247.24 691.782 1246.19 691.57C1245.14 691.359 1244.12 692.038 1243.91 693.087C1243.7 694.136 1244.38 695.158 1245.43 695.369Z" fill="#BDF3FF"/>
<path d="M423.38 785.115H462.632V933.678H423.38V785.115Z" fill="#294B6B"/>
<path d="M403.73 934.843V820.258H435.876V845.216H470.665V934.843H403.73Z" fill="#132E4C"/>
<path d="M416.968 862.613H410.538V856.183H416.968V862.613Z" fill="#4B92BA"/>
<path d="M449.438 802.344H443.008V795.913H449.438V802.344Z" fill="#4B92BA"/>
<path d="M449.438 814.516H443.008V808.085H449.438V814.516Z" fill="#4B92BA"/>
<path opacity="0.5" d="M416.968 847.751H410.538V841.321H416.968V847.751Z" fill="#4B92BA"/>
<path opacity="0.5" d="M429.806 862.613H423.376V856.183H429.806V862.613Z" fill="#4B92BA"/>
<path opacity="0.5" d="M438.533 802.344H432.103V795.913H438.533V802.344Z" fill="#4B92BA"/>
<path opacity="0.25" d="M429.806 847.751H423.376V841.321H429.806V847.751Z" fill="#4B92BA"/>
<path d="M430.865 785.116V774.087L455.146 749.799V785.116H430.865Z" fill="#294B6B"/>
<path d="M688.367 785.115H727.619V933.678H688.367V785.115Z" fill="#294B6B"/>
<path d="M663 935V820H698.058V845.048H736V935H663Z" fill="#132E4C"/>
<path d="M676.43 859.293H670V852.863H676.43V859.293Z" fill="#4B92BA"/>
<path d="M714.426 802.344H707.995V795.913H714.426V802.344Z" fill="#4B92BA"/>
<path d="M714.426 814.516H707.995V808.085H714.426V814.516Z" fill="#4B92BA"/>
<path opacity="0.5" d="M676.43 844.431H670V838H676.43V844.431Z" fill="#4B92BA"/>
<path opacity="0.5" d="M689.268 859.293H682.838V852.863H689.268V859.293Z" fill="#4B92BA"/>
<path opacity="0.5" d="M703.521 802.344H697.09V795.913H703.521V802.344Z" fill="#4B92BA"/>
<path opacity="0.25" d="M689.268 844.431H682.838V838H689.268V844.431Z" fill="#4B92BA"/>
<path d="M695.852 785.116V774.087L720.134 749.799V785.116H695.852Z" fill="#294B6B"/>
<path d="M970.606 785.115H1009.86V933.678H970.606V785.115Z" fill="#294B6B"/>
<path d="M950.956 934.843V820.258H983.102V845.216H1017.89V934.843H950.956Z" fill="#132E4C"/>
<path d="M964.195 862.613H957.765V856.183H964.195V862.613Z" fill="#4B92BA"/>
<path d="M996.664 802.344H990.233V795.913H996.664V802.344Z" fill="#4B92BA"/>
<path d="M996.664 814.516H990.233V808.085H996.664V814.516Z" fill="#4B92BA"/>
<path opacity="0.5" d="M964.195 847.751H957.765V841.321H964.195V847.751Z" fill="#4B92BA"/>
<path opacity="0.5" d="M977.033 862.613H970.603V856.183H977.033V862.613Z" fill="#4B92BA"/>
<path opacity="0.5" d="M985.758 802.344H979.328V795.913H985.758V802.344Z" fill="#4B92BA"/>
<path opacity="0.25" d="M977.033 847.751H970.603V841.321H977.033V847.751Z" fill="#4B92BA"/>
<path d="M978.09 785.116V774.087L1002.37 749.799V785.116H978.09Z" fill="#294B6B"/>
<path d="M1396.02 785.115H1435.27V933.678H1396.02V785.115Z" fill="#294B6B"/>
<path d="M1376.36 934.843V820.258H1408.51V845.216H1443.3V934.843H1376.36Z" fill="#132E4C"/>
<path d="M1389.6 862.613H1383.17V856.183H1389.6V862.613Z" fill="#4B92BA"/>
<path d="M1422.07 802.344H1415.64V795.913H1422.07V802.344Z" fill="#4B92BA"/>
<path d="M1422.07 814.516H1415.64V808.085H1422.07V814.516Z" fill="#4B92BA"/>
<path opacity="0.5" d="M1389.6 847.751H1383.17V841.321H1389.6V847.751Z" fill="#4B92BA"/>
<path opacity="0.5" d="M1402.44 862.613H1396.01V856.183H1402.44V862.613Z" fill="#4B92BA"/>
<path opacity="0.5" d="M1411.17 802.344H1404.74V795.913H1411.17V802.344Z" fill="#4B92BA"/>
<path opacity="0.25" d="M1402.44 847.751H1396.01V841.321H1402.44V847.751Z" fill="#4B92BA"/>
<path d="M1403.5 785.116V774.087L1427.78 749.799V785.116H1403.5Z" fill="#294B6B"/>
<path d="M123.17 810.096L136.193 800.065L148.566 813.179L129.929 821.612L123.17 810.096Z" fill="#EE9F86"/>
<path d="M132.419 821.857C129.455 819.342 126.008 812.456 124.427 809.184L124.141 808.841L109.302 813.825L127.126 851.716C130.539 858.907 132.753 853.629 133.448 850.324C130.355 843.173 131.349 828.505 132.419 821.857Z" fill="#858E8F"/>
<path d="M176.447 608.945C177.039 606.553 167.693 585.71 162.986 575.593L154.894 578.311L158.915 614.833L176.447 608.945Z" fill="#3A3A39"/>
<path d="M170.625 584.273C170.727 583.364 170.19 582.377 169.938 581.732C168.681 578.508 166.079 575.735 163.056 573.832C143.935 571.208 142.174 586.97 143.881 594.857L154.734 616.449L167.76 612.804L164.607 606.278C165.482 604.234 168.07 604.24 172.675 603.569C177.28 602.898 175.065 599.558 174.813 598.913C174.847 598.61 175.268 597.739 175.655 597.171C175.689 596.868 175.723 596.565 175.403 596.526C175.084 596.488 175.118 596.185 175.152 595.882L175.186 595.578C175.22 595.275 175.287 594.669 175.002 594.327L174.717 593.986C174.431 593.644 174.465 593.341 174.499 593.038L174.886 592.47C175.375 590.993 174.906 589.4 173.377 588.601C172.202 587.536 170.741 586.131 170.625 584.273Z" fill="#EE937E"/>
<path d="M163.13 578.394C164.931 582.622 165.462 589.474 155.647 592.918C154.33 593.068 152.2 594.662 154.104 597.977C156.547 602.283 158.164 605.255 158.511 610.85C158.811 613.972 158.319 615.455 157.964 615.721L146.122 619.846C138.139 604.072 130.043 571.933 160.34 568.493C164.224 568.653 169.895 570.263 169.28 575.742C169.006 578.177 164.85 580.453 163.13 578.394Z" fill="#3A3A39"/>
<path d="M147.906 591.555L157.248 585.108L137.361 588.762C138.85 592.58 144.139 593.827 147.906 591.555Z" fill="#595552"/>
<path d="M180.451 574.673C178.671 570.499 174.54 573.042 171.941 573.336C169.663 567.883 161.808 557.794 147.816 562.49C133.823 567.187 134.281 580.337 136.526 586.09C135.826 586.614 135.025 588.04 136.191 589.095C137.989 590.226 182.446 579.788 180.451 574.673Z" fill="#FEDF00"/>
<path d="M165.194 567.608C165.477 567.946 165.41 568.546 165.06 568.808C164.711 569.07 164.079 568.993 163.796 568.655L165.194 567.608ZM159.921 566.055C159.289 565.979 159.006 565.64 159.073 565.04C159.14 564.44 159.49 564.178 160.122 564.255L159.921 566.055ZM163.796 568.655C163.513 568.316 162.948 567.639 162.349 567.263C161.751 566.886 160.836 566.471 159.921 566.055L160.122 564.255C161.386 564.408 162.584 565.162 163.499 565.577C164.38 566.292 164.945 566.969 165.544 567.346L163.796 568.655Z" fill="white" fill-opacity="0.8"/>
<path d="M54.3846 831.543L67.4076 821.512L79.7804 834.626L61.1442 843.059L54.3846 831.543Z" fill="#EE9F86"/>
<path d="M63.6709 842.996C60.7073 840.482 57.2598 833.595 55.6791 830.324L55.393 829.981L40.5543 834.965L58.3775 872.856C61.7909 880.046 64.0051 874.768 64.7 871.464C61.6068 864.312 62.6014 849.645 63.6709 842.996Z" fill="#858E8F"/>
<path d="M131.263 621.916C131.263 621.916 106.055 644.473 103.682 654.056C101.629 663.678 105.202 669.352 107.827 669.052C110.452 668.752 130.506 669.013 132.799 665.897C135.093 662.781 131.263 621.916 131.263 621.916Z" fill="url(#paint3_linear)"/>
<path d="M127.841 700.92C127.841 700.92 122.224 719.32 138.739 739.165C155.539 759.352 168.841 773.269 168.841 773.269L123.735 803.82L135.978 818.532C135.978 818.532 204.313 796.945 205.118 786.887C205.922 776.829 189.491 736.069 172.806 717.742L127.841 700.92Z" fill="url(#paint4_linear)"/>
<path d="M123.032 708.24C123.032 708.24 113.115 764.93 88.4817 794.285C63.8487 823.64 54.5294 823.129 54.5294 823.129L74.3007 839.991C74.3007 839.991 117.175 818.075 137.752 784.535C158.328 750.995 164.434 713.859 164.434 713.859L123.032 708.24Z" fill="url(#paint5_linear)"/>
<path d="M96.8798 653.665L107.903 687.105L150.608 675.463L140.096 646.059L113.515 654.152L108.503 650.181L96.8798 653.665Z" fill="url(#paint6_linear)"/>
<path d="M129.86 621.715C129.86 621.715 125.664 693.659 114.317 711.095C114.317 711.095 182.746 727.372 186.317 724.412C186.317 724.412 174.412 694.919 180.494 640.776C180.494 640.776 206.591 613.096 211.232 603.483L197.107 593.762C197.141 593.457 169.081 618.434 129.86 621.715Z" fill="url(#paint7_linear)"/>
<path d="M207.529 600.328L198.603 594.049C196.239 592.234 195.626 589.102 197.48 586.881L198.598 585.488C200.451 583.266 203.719 582.745 206.083 584.56L215.009 590.839C217.373 592.654 217.986 595.786 216.133 598.007L215.014 599.4C213.161 601.622 209.893 602.143 207.529 600.328Z" fill="url(#paint8_linear)"/>
<path d="M215.043 592.552C215.043 592.552 223.469 581.197 226.357 564.23C226.357 564.23 231.119 562.329 231.841 555.923C232.563 549.516 230.023 546.119 230.023 546.119C230.023 546.119 229.438 551.305 224.252 554.082C224.252 554.082 221.987 548.244 219.651 551.673C217.315 555.103 218.103 565.401 218.103 565.401L205.005 583.614L215.043 592.552Z" fill="#EE937E"/>
</g>
<defs>
<linearGradient id="paint0_linear" x1="335.847" y1="869.316" x2="316.51" y2="955.029" gradientUnits="userSpaceOnUse">
<stop stop-color="#4295E1"/>
<stop offset="1" stop-color="#3419CC"/>
</linearGradient>
<linearGradient id="paint1_linear" x1="902.724" y1="280.144" x2="1880.98" y2="466.458" gradientUnits="userSpaceOnUse">
<stop stop-color="#132D4C"/>
<stop offset="1" stop-color="#261B58"/>
</linearGradient>
<linearGradient id="paint2_linear" x1="1024.74" y1="176.399" x2="1157.86" y2="134.345" gradientUnits="userSpaceOnUse">
<stop stop-color="#EBEA6E"/>
<stop offset="1" stop-color="#007187"/>
</linearGradient>
<linearGradient id="paint3_linear" x1="104.792" y1="643.744" x2="135.252" y2="647.167" gradientUnits="userSpaceOnUse">
<stop stop-color="#C4E6EC"/>
<stop offset="1" stop-color="white"/>
</linearGradient>
<linearGradient id="paint4_linear" x1="121.124" y1="758.417" x2="207.431" y2="768.095" gradientUnits="userSpaceOnUse">
<stop stop-color="#0061A5"/>
<stop offset="1" stop-color="#074C7C"/>
</linearGradient>
<linearGradient id="paint5_linear" x1="60.5945" y1="769.53" x2="156.686" y2="780.311" gradientUnits="userSpaceOnUse">
<stop stop-color="#0061A5"/>
<stop offset="1" stop-color="#074C7C"/>
</linearGradient>
<linearGradient id="paint6_linear" x1="95.9346" y1="663.204" x2="151.371" y2="669.404" gradientUnits="userSpaceOnUse">
<stop stop-color="#F48C96"/>
<stop offset="1" stop-color="#F16A94"/>
</linearGradient>
<linearGradient id="paint7_linear" x1="120.987" y1="650.734" x2="204.853" y2="660.154" gradientUnits="userSpaceOnUse">
<stop stop-color="#C4E6EC"/>
<stop offset="1" stop-color="white"/>
</linearGradient>
<linearGradient id="paint8_linear" x1="198.206" y1="586.114" x2="215.194" y2="599.276" gradientUnits="userSpaceOnUse">
<stop stop-color="#C4E6EC"/>
<stop offset="1" stop-color="white"/>
</linearGradient>
<clipPath id="clip0">
<rect width="1440" height="329" fill="white" transform="translate(0 615.999)"/>
</clipPath>
</defs>
</svg>
