<svg width="1440" height="928" viewBox="0 0 1440 928" fill="none" xmlns="http://www.w3.org/2000/svg">
<mask id="mask0" style="mask-type:alpha" maskUnits="userSpaceOnUse" x="0" y="0" width="1440" height="928">
<rect width="1440" height="928" fill="#C4C4C4"/>
</mask>
<g mask="url(#mask0)">
<g clip-path="url(#clip0)">
<rect width="1440" height="329" transform="translate(0 615.999)" fill="white"/>
<rect x="-12.9033" y="642.182" width="356.559" height="321.265" fill="#132D4C"/>
<path d="M9.52721 744.002C30.8626 748.815 51.6409 733.339 55.9369 709.434C60.2328 685.53 46.4197 662.25 25.0843 657.436C3.7489 652.623 -17.0294 668.1 -21.3254 692.004C-25.6214 715.908 -11.8082 739.189 9.52721 744.002Z" fill="#ED157B"/>
<path d="M320.29 955.881C341.625 960.694 362.404 945.218 366.7 921.314C370.996 897.409 357.182 874.129 335.847 869.316C314.512 864.503 293.733 879.979 289.437 903.883C285.141 927.788 298.955 951.068 320.29 955.881Z" fill="url(#paint0_linear)"/>
<path fill-rule="evenodd" clip-rule="evenodd" d="M370.969 615.683C370.969 627.02 368.992 637.839 365.404 647.733C376.6 651.066 384.851 662.501 384.851 676.094C384.851 686.716 379.814 696.02 372.27 701.17C379.923 707.826 384.848 718.232 384.848 729.927C384.848 746.929 374.438 761.208 360.369 765.197C367.022 775.017 370.97 787.262 370.97 800.541C370.97 810.075 368.935 819.076 365.325 827.028C380.06 830.473 391.13 845.109 391.13 862.642C391.13 871.52 388.291 879.656 383.575 885.971C396.346 894.191 404.946 909.625 404.946 927.309C404.946 953.62 385.91 974.949 362.427 974.949C338.944 974.949 319.907 953.62 319.907 927.309C319.907 911.849 326.48 898.109 336.666 889.406C330.224 882.758 326.188 873.228 326.188 862.642C326.188 861.216 326.262 859.81 326.404 858.428C323.905 858.839 321.348 859.052 318.746 859.052C289.904 859.052 266.523 832.856 266.523 800.541C266.523 768.226 289.904 742.03 318.746 742.03C319.764 742.03 320.775 742.062 321.778 742.127C320.567 738.313 319.907 734.206 319.907 729.927C319.907 714.851 328.091 701.918 339.753 696.398C337.72 694.022 336.04 691.264 334.808 688.228C323.217 696.241 309.562 700.864 294.943 700.864C267.435 700.864 243.339 684.496 229.991 659.979C225.674 669.54 216.824 676.094 206.607 676.094C203.102 676.094 199.757 675.323 196.702 673.923C183.271 700.908 157.541 719.159 128.006 719.159C104.156 719.159 82.7862 707.257 68.3711 688.466C62.4244 690.755 56.0434 691.998 49.4033 691.998C17.1793 691.998 -8.94336 662.729 -8.94336 626.625C-8.94336 590.521 17.1793 561.253 49.4033 561.253C58.1363 561.253 66.4211 563.403 73.8593 567.255C87.9561 552.241 107.021 543.027 128.006 543.027C167.267 543.027 199.805 575.279 205.667 617.426C205.979 617.413 206.292 617.407 206.607 617.407C211.114 617.407 215.355 618.682 219.058 620.929C218.964 619.194 218.916 617.445 218.916 615.683C218.916 568.639 252.954 530.502 294.943 530.502C336.931 530.502 370.969 568.639 370.969 615.683Z" fill="white"/>
<path fill-rule="evenodd" clip-rule="evenodd" d="M359.915 629.616C359.915 640.953 357.938 651.772 354.35 661.666C365.546 664.999 373.795 676.434 373.795 690.027C373.795 700.648 368.759 709.951 361.216 715.101C368.871 721.757 373.797 732.164 373.797 743.86C373.797 760.863 363.386 775.142 349.316 779.131C355.968 788.95 359.916 801.195 359.916 814.474C359.916 824.007 357.881 833.009 354.271 840.962C369.006 844.407 380.075 859.042 380.075 876.575C380.075 885.453 377.237 893.588 372.522 899.903C385.293 908.122 393.895 923.557 393.895 941.243C393.895 967.553 374.858 988.882 351.375 988.882C327.892 988.882 308.855 967.553 308.855 941.243C308.855 925.783 315.428 912.044 325.612 903.34C319.17 896.692 315.134 887.162 315.134 876.575C315.134 875.149 315.207 873.743 315.349 872.361C312.85 872.772 310.294 872.985 307.693 872.985C278.851 872.985 255.47 846.789 255.47 814.474C255.47 782.159 278.851 755.962 307.693 755.962C308.711 755.962 309.722 755.995 310.726 756.059C309.515 752.246 308.855 748.139 308.855 743.86C308.855 728.785 317.038 715.853 328.699 710.333C326.665 707.957 324.985 705.198 323.753 702.162C312.162 710.174 298.507 714.797 283.889 714.797C256.381 714.797 232.286 698.429 218.938 673.912C214.621 683.473 205.77 690.027 195.553 690.027C192.048 690.027 188.704 689.256 185.648 687.856C172.217 714.841 146.487 733.092 116.952 733.092C93.1018 733.092 71.7325 721.191 57.3174 702.399C51.3707 704.688 44.9897 705.931 38.3496 705.931C6.12562 705.931 -19.9971 676.663 -19.9971 640.558C-19.9971 604.454 6.12562 575.186 38.3496 575.186C47.0825 575.186 55.3674 577.336 62.8056 581.188C76.9023 566.174 95.9669 556.96 116.952 556.96C156.213 556.96 188.751 589.212 194.613 631.359C194.925 631.346 195.239 631.34 195.553 631.34C200.06 631.34 204.301 632.615 208.004 634.861C207.91 633.127 207.862 631.378 207.862 629.616C207.862 582.572 241.9 544.435 283.889 544.435C325.877 544.435 359.915 582.572 359.915 629.616Z" fill="white" fill-opacity="0.06"/>
</g>
<path d="M153.016 935.262V837H125.45V858.402H95.6162V935.262H153.016Z" fill="#132E4C"/>
<path d="M141.665 827.699H147.18V822.185H141.665V827.699Z" fill="#4B92BA"/>
<path opacity="0.5" d="M141.665 814.954H147.18V809.44H141.665V814.954Z" fill="#4B92BA"/>
<path opacity="0.5" d="M130.655 827.699H136.169V822.185H130.655V827.699Z" fill="#4B92BA"/>
<path opacity="0.25" d="M130.655 814.954H136.169V809.44H130.655V814.954Z" fill="#4B92BA"/>
<path d="M14.3159 780.552H42.9131V888.788H14.3159V780.552Z" fill="#294B6B"/>
<path d="M0.00109729 935.481V852H23.4207V870.183H48.7666V935.481H0.00109729Z" fill="#132E4C"/>
<path d="M9.64681 837.012H4.96191L4.96191 832.327H9.64681V837.012Z" fill="#4B92BA"/>
<path d="M33.3021 793.104H28.6172V788.419H33.3021V793.104Z" fill="#4B92BA"/>
<path d="M33.3021 801.971H28.6172V797.286H33.3021V801.971Z" fill="#4B92BA"/>
<path opacity="0.5" d="M9.64681 826.185H4.96191L4.96191 821.5H9.64681V826.185Z" fill="#4B92BA"/>
<path opacity="0.5" d="M18.9994 837.012H14.3145V832.327H18.9994V837.012Z" fill="#4B92BA"/>
<path opacity="0.5" d="M25.3568 793.104H20.6719V788.419H25.3568V793.104Z" fill="#4B92BA"/>
<path opacity="0.25" d="M18.9994 826.185H14.3145V821.5H18.9994V826.185Z" fill="#4B92BA"/>
<path d="M19.7706 780.552V772.517L37.4609 754.822V780.552H19.7706Z" fill="#294B6B"/>
<path d="M232.375 784.517H260.973V892.753H232.375V784.517Z" fill="#294B6B"/>
<path d="M218.061 893.601V810.12H241.48V828.303H266.826V893.601H218.061Z" fill="#1A395C"/>
<path d="M227.706 840.978H223.021V836.293H227.706V840.978Z" fill="#4B92BA"/>
<path d="M251.362 797.069H246.677V792.384H251.362V797.069Z" fill="#4B92BA"/>
<path d="M251.362 805.937H246.677V801.251H251.362V805.937Z" fill="#4B92BA"/>
<path opacity="0.5" d="M227.706 830.15H223.021V825.465H227.706V830.15Z" fill="#4B92BA"/>
<path opacity="0.5" d="M237.059 840.978H232.374V836.293H237.059V840.978Z" fill="#4B92BA"/>
<path opacity="0.5" d="M243.416 797.069H238.731V792.384H243.416V797.069Z" fill="#4B92BA"/>
<path opacity="0.25" d="M237.059 830.15H232.374V825.465H237.059V830.15Z" fill="#4B92BA"/>
<path d="M237.83 784.517V776.482L255.521 758.787V784.517H237.83Z" fill="#294B6B"/>
<path d="M104.639 780.552H76.042V888.788H104.639V780.552Z" fill="#294B6B"/>
<path d="M118.954 935.481V852H95.5343V870.183H70.1885V935.481H118.954Z" fill="#132E4C"/>
<path d="M109.308 837.012H113.993V832.327H109.308V837.012Z" fill="#4B92BA"/>
<path d="M85.653 793.104H90.3379V788.419H85.653V793.104Z" fill="#4B92BA"/>
<path d="M85.653 801.971H90.3379V797.286H85.653V801.971Z" fill="#4B92BA"/>
<path opacity="0.5" d="M109.308 826.185H113.993V821.5H109.308V826.185Z" fill="#4B92BA"/>
<path opacity="0.5" d="M99.9557 837.012H104.641V832.327H99.9557V837.012Z" fill="#4B92BA"/>
<path opacity="0.5" d="M93.5992 793.104H98.2842V788.419H93.5992V793.104Z" fill="#4B92BA"/>
<path opacity="0.25" d="M99.9557 826.185H104.641V821.5H99.9557V826.185Z" fill="#4B92BA"/>
<path d="M99.1845 780.552V772.517L81.4941 754.822V780.552H99.1845Z" fill="#294B6B"/>
<path d="M324.94 934.842V799.967H287.103V829.344H246.153V934.842H324.94Z" fill="#132E4C"/>
<path d="M309.359 849.826H316.928V842.257H309.359V849.826Z" fill="#4B92BA"/>
<path opacity="0.5" d="M309.359 832.333H316.928V824.763H309.359V832.333Z" fill="#4B92BA"/>
<path opacity="0.5" d="M294.249 849.826H301.818V842.257H294.249V849.826Z" fill="#4B92BA"/>
<path opacity="0.25" d="M294.249 832.333H301.818V824.763H294.249V832.333Z" fill="#4B92BA"/>
<path d="M593 934.842V799.967H553.687V829.344H511.141V934.842H593Z" fill="#132E4C"/>
<path d="M576.81 849.826H584.675V842.257H576.81V849.826Z" fill="#4B92BA"/>
<path opacity="0.5" d="M576.81 832.333H584.675V824.763H576.81V832.333Z" fill="#4B92BA"/>
<path opacity="0.5" d="M561.11 849.826H568.975V842.257H561.11V849.826Z" fill="#4B92BA"/>
<path opacity="0.25" d="M561.11 832.333H568.975V824.763H561.11V832.333Z" fill="#4B92BA"/>
<path d="M872.167 934.842V799.967H834.329V829.344H793.38V934.842H872.167Z" fill="#132E4C"/>
<path d="M856.585 849.826H864.153V842.257H856.585V849.826Z" fill="#4B92BA"/>
<path opacity="0.5" d="M856.585 832.333H864.153V824.763H856.585V832.333Z" fill="#4B92BA"/>
<path opacity="0.5" d="M841.474 849.826H849.043V842.257H841.474V849.826Z" fill="#4B92BA"/>
<path opacity="0.25" d="M841.474 832.333H849.043V824.763H841.474V832.333Z" fill="#4B92BA"/>
<path d="M1297.58 934.842V799.967H1259.74V829.344H1218.79V934.842H1297.58Z" fill="#132E4C"/>
<path d="M1281.99 849.826H1289.56V842.257H1281.99V849.826Z" fill="#4B92BA"/>
<path opacity="0.5" d="M1281.99 832.333H1289.56V824.763H1281.99V832.333Z" fill="#4B92BA"/>
<path opacity="0.5" d="M1266.88 849.826H1274.45V842.257H1266.88V849.826Z" fill="#4B92BA"/>
<path opacity="0.25" d="M1266.88 832.333H1274.45V824.763H1266.88V832.333Z" fill="#4B92BA"/>
<path d="M321 935V800H362.302V829.404H407V935H321Z" fill="#132E4C"/>
<path d="M340.523 849.826H332.954V842.257H340.523V849.826Z" fill="#4B92BA"/>
<path opacity="0.5" d="M340.523 832.333H332.954V824.763H340.523V832.333Z" fill="#4B92BA"/>
<path opacity="0.5" d="M355.633 849.826H348.063V842.257H355.633V849.826Z" fill="#4B92BA"/>
<path opacity="0.25" d="M355.633 832.333H348.063V824.763H355.633V832.333Z" fill="#4B92BA"/>
<path d="M589.928 934.842V799.967H627.765V829.344H668.715V934.842H589.928Z" fill="#132E4C"/>
<path d="M866 943V792H908.262V824.889H954V943H866Z" fill="#132E4C"/>
<path d="M605.51 849.826H597.941V842.257H605.51V849.826Z" fill="#4B92BA"/>
<path opacity="0.5" d="M605.51 832.333H597.941V824.763H605.51V832.333Z" fill="#4B92BA"/>
<path opacity="0.5" d="M620.621 849.826H613.052V842.257H620.621V849.826Z" fill="#4B92BA"/>
<path opacity="0.25" d="M620.621 832.333H613.052V824.763H620.621V832.333Z" fill="#4B92BA"/>
<path d="M1101 936V801H1059.22V830.404H1014V936H1101Z" fill="#132E4C"/>
<path d="M1085.28 851.082H1092.85V843.513H1085.28V851.082Z" fill="#4B92BA"/>
<path opacity="0.5" d="M1085.28 833.588H1092.85V826.019H1085.28V833.588Z" fill="#4B92BA"/>
<path opacity="0.5" d="M1070.17 851.082H1077.74V843.513H1070.17V851.082Z" fill="#4B92BA"/>
<path opacity="0.25" d="M1070.17 833.588H1077.74V826.019H1070.17V833.588Z" fill="#4B92BA"/>
<path d="M1180 931V797H1141.1V826.186H1099V931H1180Z" fill="#132E4C"/>
<path d="M1164.07 846.388H1171.64V838.819H1164.07V846.388Z" fill="#4B92BA"/>
<path opacity="0.5" d="M1164.07 828.894H1171.64V821.325H1164.07V828.894Z" fill="#4B92BA"/>
<path opacity="0.5" d="M1148.96 846.388H1156.53V838.819H1148.96V846.388Z" fill="#4B92BA"/>
<path opacity="0.25" d="M1148.96 828.894H1156.53V821.325H1148.96V828.894Z" fill="#4B92BA"/>
<path d="M1295 935V800H1335.82V829.404H1380V935H1295Z" fill="#132E4C"/>
<path d="M1312.57 850.138H1305V842.569H1312.57V850.138Z" fill="#4B92BA"/>
<path opacity="0.5" d="M1312.57 832.569H1305V825H1312.57V832.569Z" fill="#4B92BA"/>
<path opacity="0.5" d="M1328.14 850.138H1320.57V842.569H1328.14V850.138Z" fill="#4B92BA"/>
<path opacity="0.25" d="M1328.14 832.569H1320.57V825H1328.14V832.569Z" fill="#4B92BA"/>
<path d="M258.536 785.115H219.284V933.678H258.536V785.115Z" fill="#294B6B"/>
<path d="M278.186 934.843V820.258H246.04V845.216H211.251V934.843H278.186Z" fill="#132E4C"/>
<path d="M264.948 862.613H271.378V856.183H264.948V862.613Z" fill="#4B92BA"/>
<path d="M232.477 802.344H238.907V795.913H232.477V802.344Z" fill="#4B92BA"/>
<path d="M232.477 814.516H238.907V808.085H232.477V814.516Z" fill="#4B92BA"/>
<path opacity="0.5" d="M264.948 847.751H271.378V841.321H264.948V847.751Z" fill="#4B92BA"/>
<path opacity="0.5" d="M252.11 862.613H258.54V856.183H252.11V862.613Z" fill="#4B92BA"/>
<path opacity="0.5" d="M243.382 802.344H249.812V795.913H243.382V802.344Z" fill="#4B92BA"/>
<path opacity="0.25" d="M252.11 847.751H258.54V841.321H252.11V847.751Z" fill="#4B92BA"/>
<path d="M251.051 785.116V774.087L226.77 749.799V785.116H251.051Z" fill="#294B6B"/>
<path d="M201.285 785.115H162.033V933.678H201.285V785.115Z" fill="#294B6B"/>
<path d="M220.935 934.585V820H188.789V844.958H154V934.585H220.935Z" fill="#132E4C"/>
<path d="M207.697 862.613H214.127V856.183H207.697V862.613Z" fill="#4B92BA"/>
<path d="M175.226 802.344H181.656V795.913H175.226V802.344Z" fill="#4B92BA"/>
<path d="M175.226 814.516H181.656V808.085H175.226V814.516Z" fill="#4B92BA"/>
<path opacity="0.5" d="M207.697 847.751H214.127V841.321H207.697V847.751Z" fill="#4B92BA"/>
<path opacity="0.5" d="M194.859 862.613H201.289V856.183H194.859V862.613Z" fill="#4B92BA"/>
<path opacity="0.5" d="M186.131 802.344H192.562V795.913H186.131V802.344Z" fill="#4B92BA"/>
<path opacity="0.25" d="M194.859 847.751H201.289V841.321H194.859V847.751Z" fill="#4B92BA"/>
<path d="M193.8 785.116V774.087L169.519 749.799V785.116H193.8Z" fill="#294B6B"/>
<path d="M958.285 785.115H919.033V933.678H958.285V785.115Z" fill="#294B6B"/>
<path d="M977.935 934.843V820.258H945.789V845.216H911V934.843H977.935Z" fill="#132E4C"/>
<path d="M964.697 862.613H971.127V856.183H964.697V862.613Z" fill="#4B92BA"/>
<path d="M932.226 802.344H938.656V795.913H932.226V802.344Z" fill="#4B92BA"/>
<path d="M932.226 814.516H938.656V808.085H932.226V814.516Z" fill="#4B92BA"/>
<path opacity="0.5" d="M964.697 847.751H971.127V841.321H964.697V847.751Z" fill="#4B92BA"/>
<path opacity="0.5" d="M951.859 862.613H958.289V856.183H951.859V862.613Z" fill="#4B92BA"/>
<path opacity="0.5" d="M943.131 802.344H949.562V795.913H943.131V802.344Z" fill="#4B92BA"/>
<path opacity="0.25" d="M951.859 847.751H958.289V841.321H951.859V847.751Z" fill="#4B92BA"/>
<path d="M950.8 785.116V774.087L926.519 749.799V785.116H950.8Z" fill="#294B6B"/>
<path d="M1171.29 785.115H1132.03V933.678H1171.29V785.115Z" fill="#294B6B"/>
<path d="M1190.94 934.843V820.258H1158.79V845.216H1124V934.843H1190.94Z" fill="#132E4C"/>
<path d="M1177.7 862.613H1184.13V856.183H1177.7V862.613Z" fill="#4B92BA"/>
<path d="M1145.23 802.344H1151.66V795.913H1145.23V802.344Z" fill="#4B92BA"/>
<path d="M1145.23 814.516H1151.66V808.085H1145.23V814.516Z" fill="#4B92BA"/>
<path opacity="0.5" d="M1177.7 847.751H1184.13V841.321H1177.7V847.751Z" fill="#4B92BA"/>
<path opacity="0.5" d="M1164.86 862.613H1171.29V856.183H1164.86V862.613Z" fill="#4B92BA"/>
<path opacity="0.5" d="M1156.13 802.344H1162.56V795.913H1156.13V802.344Z" fill="#4B92BA"/>
<path opacity="0.25" d="M1164.86 847.751H1171.29V841.321H1164.86V847.751Z" fill="#4B92BA"/>
<path d="M1163.8 785.116V774.087L1139.52 749.799V785.116H1163.8Z" fill="#294B6B"/>
<path d="M523.525 785.115H484.272V933.678H523.525V785.115Z" fill="#294B6B"/>
<path d="M543 935V820H505.54V845.048H465V935H543Z" fill="#132E4C"/>
<path d="M529.935 862.613H536.365V856.183H529.935V862.613Z" fill="#4B92BA"/>
<path d="M497.466 802.344H503.896V795.913H497.466V802.344Z" fill="#4B92BA"/>
<path d="M497.466 814.516H503.896V808.085H497.466V814.516Z" fill="#4B92BA"/>
<path opacity="0.5" d="M529.935 847.751H536.365V841.321H529.935V847.751Z" fill="#4B92BA"/>
<path opacity="0.5" d="M517.097 862.613H523.527V856.183H517.097V862.613Z" fill="#4B92BA"/>
<path opacity="0.5" d="M508.371 802.344H514.802V795.913H508.371V802.344Z" fill="#4B92BA"/>
<path opacity="0.25" d="M517.097 847.751H523.527V841.321H517.097V847.751Z" fill="#4B92BA"/>
<path d="M516.039 785.116V774.087L491.758 749.799V785.116H516.039Z" fill="#294B6B"/>
<path d="M805.764 785.115H766.512V933.678H805.764V785.115Z" fill="#294B6B"/>
<path d="M825 935V820H778.896V845.048H729V935H825Z" fill="#132E4C"/>
<path d="M812.175 862.613H818.605V856.183H812.175V862.613Z" fill="#4B92BA"/>
<path d="M779.705 802.344H786.136V795.913H779.705V802.344Z" fill="#4B92BA"/>
<path d="M779.705 814.516H786.136V808.085H779.705V814.516Z" fill="#4B92BA"/>
<path opacity="0.5" d="M812.175 847.751H818.605V841.321H812.175V847.751Z" fill="#4B92BA"/>
<path opacity="0.5" d="M799.337 862.613H805.768V856.183H799.337V862.613Z" fill="#4B92BA"/>
<path opacity="0.5" d="M790.611 802.344H797.041V795.913H790.611V802.344Z" fill="#4B92BA"/>
<path opacity="0.25" d="M799.337 847.751H805.768V841.321H799.337V847.751Z" fill="#4B92BA"/>
<path d="M798.279 785.116V774.087L773.997 749.799V785.116H798.279Z" fill="#294B6B"/>
<path d="M1231.17 785.115H1191.92V933.678H1231.17V785.115Z" fill="#294B6B"/>
<path d="M1250.82 934.843V820.258H1218.68V845.216H1183.89V934.843H1250.82Z" fill="#132E4C"/>
<path d="M1237.58 862.613H1244.01V856.183H1237.58V862.613Z" fill="#4B92BA"/>
<path d="M1205.11 802.344H1211.54V795.913H1205.11V802.344Z" fill="#4B92BA"/>
<path d="M1205.11 814.516H1211.54V808.085H1205.11V814.516Z" fill="#4B92BA"/>
<path opacity="0.5" d="M1237.58 847.751H1244.01V841.321H1237.58V847.751Z" fill="#4B92BA"/>
<path opacity="0.5" d="M1224.75 862.613H1231.18V856.183H1224.75V862.613Z" fill="#4B92BA"/>
<path opacity="0.5" d="M1216.02 802.344H1222.45V795.913H1216.02V802.344Z" fill="#4B92BA"/>
<path opacity="0.25" d="M1224.75 847.751H1231.18V841.321H1224.75V847.751Z" fill="#4B92BA"/>
<path d="M1223.69 785.116V774.087L1199.41 749.799V785.116H1223.69Z" fill="#294B6B"/>
<path opacity="0.5" d="M423.861 929.467C424.91 929.679 425.931 928.999 426.142 927.95C426.354 926.901 425.675 925.88 424.626 925.669C423.577 925.457 422.555 926.137 422.344 927.186C422.133 928.234 422.812 929.256 423.861 929.467Z" fill="#BDF3FF"/>
<path opacity="0.5" d="M460.334 919.843C461.382 920.054 462.404 919.375 462.615 918.326C462.826 917.277 462.147 916.256 461.098 916.045C460.05 915.833 459.028 916.512 458.817 917.561C458.606 918.61 459.285 919.632 460.334 919.843Z" fill="#BDF3FF"/>
<path opacity="0.5" d="M535.535 897.974C536.584 898.186 537.606 897.507 537.817 896.458C538.028 895.409 537.349 894.387 536.3 894.176C535.251 893.965 534.229 894.644 534.018 895.693C533.807 896.742 534.486 897.763 535.535 897.974Z" fill="#BDF3FF"/>
<path opacity="0.5" d="M585.477 896.522C586.526 896.733 587.547 896.054 587.759 895.005C587.97 893.956 587.291 892.934 586.242 892.723C585.193 892.512 584.172 893.191 583.96 894.24C583.749 895.289 584.428 896.31 585.477 896.522Z" fill="#BDF3FF"/>
<path opacity="0.5" d="M558.387 892.802C559.436 893.013 560.458 892.334 560.669 891.285C560.88 890.236 560.201 889.215 559.152 889.004C558.103 888.792 557.082 889.471 556.87 890.52C556.659 891.569 557.338 892.591 558.387 892.802Z" fill="#BDF3FF"/>
<path opacity="0.5" d="M436.677 867.676C437.726 867.887 438.748 867.208 438.959 866.159C439.17 865.11 438.491 864.089 437.442 863.878C436.393 863.666 435.372 864.345 435.161 865.394C434.949 866.443 435.628 867.465 436.677 867.676Z" fill="#BDF3FF"/>
<path opacity="0.5" d="M446.082 735.316C447.131 735.527 448.152 734.848 448.363 733.799C448.574 732.75 447.895 731.728 446.846 731.517C445.798 731.306 444.776 731.985 444.565 733.034C444.354 734.083 445.033 735.105 446.082 735.316Z" fill="#BDF3FF"/>
<path opacity="0.5" d="M467.704 740.369C468.753 740.581 469.774 739.902 469.986 738.853C470.197 737.804 469.518 736.782 468.469 736.571C467.42 736.36 466.398 737.039 466.187 738.088C465.976 739.137 466.655 740.158 467.704 740.369Z" fill="#BDF3FF"/>
<path opacity="0.5" d="M482.559 725.693C483.608 725.904 484.63 725.225 484.841 724.176C485.052 723.127 484.373 722.105 483.324 721.894C482.275 721.683 481.254 722.362 481.042 723.411C480.831 724.46 481.51 725.482 482.559 725.693Z" fill="#BDF3FF"/>
<path opacity="0.5" d="M600.32 740.023C601.369 740.234 602.391 739.555 602.602 738.506C602.813 737.457 602.134 736.435 601.085 736.224C600.036 736.013 599.014 736.692 598.803 737.741C598.592 738.79 599.271 739.812 600.32 740.023Z" fill="#BDF3FF"/>
<path opacity="0.5" d="M557.754 703.823C558.802 704.034 559.824 703.355 560.035 702.306C560.246 701.257 559.567 700.236 558.518 700.025C557.469 699.813 556.448 700.492 556.237 701.541C556.026 702.59 556.705 703.612 557.754 703.823Z" fill="#BDF3FF"/>
<path opacity="0.5" d="M510.373 853.018C511.422 853.23 512.443 852.551 512.654 851.502C512.866 850.453 512.187 849.431 511.138 849.22C510.089 849.009 509.067 849.688 508.856 850.737C508.645 851.786 509.324 852.807 510.373 853.018Z" fill="#BDF3FF"/>
<path opacity="0.5" d="M607.699 702.384C608.748 702.595 609.77 701.916 609.981 700.867C610.192 699.818 609.513 698.796 608.464 698.585C607.415 698.374 606.393 699.053 606.182 700.102C605.971 701.151 606.65 702.172 607.699 702.384Z" fill="#BDF3FF"/>
<path opacity="0.5" d="M580.607 698.652C581.656 698.863 582.677 698.184 582.889 697.135C583.1 696.086 582.421 695.064 581.372 694.853C580.323 694.642 579.301 695.321 579.09 696.37C578.879 697.419 579.558 698.44 580.607 698.652Z" fill="#BDF3FF"/>
<path opacity="0.5" d="M458.898 673.538C459.947 673.75 460.968 673.071 461.18 672.022C461.391 670.973 460.712 669.951 459.663 669.74C458.614 669.529 457.592 670.208 457.381 671.257C457.17 672.306 457.849 673.327 458.898 673.538Z" fill="#BDF3FF"/>
<path opacity="0.5" d="M251.157 690.298C252.206 690.509 253.227 689.83 253.439 688.781C253.65 687.732 252.971 686.711 251.922 686.5C250.873 686.288 249.851 686.968 249.64 688.016C249.429 689.065 250.108 690.087 251.157 690.298Z" fill="#BDF3FF"/>
<path opacity="0.5" d="M272.792 695.369C273.841 695.58 274.862 694.901 275.073 693.852C275.285 692.803 274.605 691.782 273.556 691.57C272.508 691.359 271.486 692.038 271.275 693.087C271.064 694.136 271.743 695.158 272.792 695.369Z" fill="#BDF3FF"/>
<path opacity="0.5" d="M688.849 929.467C689.898 929.679 690.92 928.999 691.131 927.95C691.342 926.901 690.663 925.88 689.614 925.669C688.565 925.457 687.544 926.137 687.332 927.186C687.121 928.234 687.8 929.256 688.849 929.467Z" fill="#BDF3FF"/>
<path opacity="0.5" d="M725.324 919.843C726.373 920.054 727.394 919.375 727.606 918.326C727.817 917.277 727.138 916.256 726.089 916.045C725.04 915.833 724.018 916.512 723.807 917.561C723.596 918.61 724.275 919.632 725.324 919.843Z" fill="#BDF3FF"/>
<path opacity="0.5" d="M800.523 897.974C801.572 898.186 802.594 897.507 802.805 896.458C803.016 895.409 802.337 894.387 801.288 894.176C800.239 893.965 799.217 894.644 799.006 895.693C798.795 896.742 799.474 897.763 800.523 897.974Z" fill="#BDF3FF"/>
<path opacity="0.5" d="M850.465 896.522C851.514 896.733 852.535 896.054 852.746 895.005C852.958 893.956 852.278 892.934 851.229 892.723C850.18 892.512 849.159 893.191 848.948 894.24C848.736 895.289 849.416 896.31 850.465 896.522Z" fill="#BDF3FF"/>
<path opacity="0.5" d="M823.376 892.802C824.424 893.013 825.446 892.334 825.657 891.285C825.868 890.236 825.189 889.215 824.14 889.004C823.091 888.792 822.07 889.471 821.859 890.52C821.648 891.569 822.327 892.591 823.376 892.802Z" fill="#BDF3FF"/>
<path opacity="0.5" d="M701.665 867.676C702.714 867.887 703.735 867.208 703.946 866.159C704.157 865.11 703.478 864.089 702.429 863.878C701.381 863.666 700.359 864.345 700.148 865.394C699.937 866.443 700.616 867.465 701.665 867.676Z" fill="#BDF3FF"/>
<path opacity="0.5" d="M711.07 735.316C712.119 735.527 713.14 734.848 713.352 733.799C713.563 732.75 712.884 731.728 711.835 731.517C710.786 731.306 709.764 731.985 709.553 733.034C709.342 734.083 710.021 735.105 711.07 735.316Z" fill="#BDF3FF"/>
<path opacity="0.5" d="M732.691 740.369C733.74 740.581 734.762 739.902 734.973 738.853C735.184 737.804 734.505 736.782 733.456 736.571C732.407 736.36 731.385 737.039 731.174 738.088C730.963 739.137 731.642 740.158 732.691 740.369Z" fill="#BDF3FF"/>
<path opacity="0.5" d="M747.547 725.693C748.596 725.904 749.618 725.225 749.829 724.176C750.04 723.127 749.361 722.105 748.312 721.894C747.263 721.683 746.242 722.362 746.031 723.411C745.819 724.46 746.499 725.482 747.547 725.693Z" fill="#BDF3FF"/>
<path opacity="0.5" d="M865.308 740.023C866.357 740.234 867.378 739.555 867.59 738.506C867.801 737.457 867.122 736.435 866.073 736.224C865.024 736.013 864.003 736.692 863.791 737.741C863.58 738.79 864.259 739.812 865.308 740.023Z" fill="#BDF3FF"/>
<path opacity="0.5" d="M822.743 703.823C823.792 704.034 824.813 703.355 825.024 702.306C825.235 701.257 824.556 700.236 823.507 700.025C822.459 699.813 821.437 700.492 821.226 701.541C821.015 702.59 821.694 703.612 822.743 703.823Z" fill="#BDF3FF"/>
<path opacity="0.5" d="M775.361 853.018C776.41 853.23 777.432 852.551 777.643 851.502C777.854 850.453 777.175 849.431 776.126 849.22C775.077 849.009 774.055 849.688 773.844 850.737C773.633 851.786 774.312 852.807 775.361 853.018Z" fill="#BDF3FF"/>
<path opacity="0.5" d="M872.687 702.384C873.736 702.595 874.757 701.916 874.968 700.867C875.18 699.818 874.501 698.796 873.452 698.585C872.403 698.374 871.382 699.053 871.17 700.102C870.959 701.151 871.638 702.172 872.687 702.384Z" fill="#BDF3FF"/>
<path opacity="0.5" d="M845.595 698.652C846.644 698.863 847.666 698.184 847.877 697.135C848.088 696.086 847.409 695.064 846.36 694.853C845.311 694.642 844.29 695.321 844.079 696.37C843.867 697.419 844.546 698.44 845.595 698.652Z" fill="#BDF3FF"/>
<path opacity="0.5" d="M723.886 673.538C724.935 673.75 725.957 673.071 726.168 672.022C726.379 670.973 725.7 669.951 724.651 669.74C723.602 669.529 722.581 670.208 722.37 671.257C722.158 672.306 722.837 673.327 723.886 673.538Z" fill="#BDF3FF"/>
<path opacity="0.5" d="M516.144 690.298C517.193 690.509 518.215 689.83 518.426 688.781C518.637 687.732 517.958 686.711 516.909 686.5C515.86 686.288 514.839 686.968 514.627 688.016C514.416 689.065 515.095 690.087 516.144 690.298Z" fill="#BDF3FF"/>
<path opacity="0.5" d="M537.779 695.369C538.828 695.58 539.85 694.901 540.061 693.852C540.272 692.803 539.593 691.782 538.544 691.57C537.495 691.359 536.473 692.038 536.262 693.087C536.051 694.136 536.73 695.158 537.779 695.369Z" fill="#BDF3FF"/>
<path opacity="0.5" d="M971.09 929.467C972.139 929.679 973.161 928.999 973.372 927.95C973.583 926.901 972.904 925.88 971.855 925.669C970.806 925.457 969.785 926.137 969.574 927.186C969.362 928.234 970.042 929.256 971.09 929.467Z" fill="#BDF3FF"/>
<path opacity="0.5" d="M1007.56 919.843C1008.61 920.054 1009.63 919.375 1009.85 918.326C1010.06 917.277 1009.38 916.256 1008.33 916.045C1007.28 915.833 1006.26 916.512 1006.05 917.561C1005.84 918.61 1006.52 919.632 1007.56 919.843Z" fill="#BDF3FF"/>
<path opacity="0.5" d="M1082.76 897.974C1083.81 898.186 1084.83 897.507 1085.05 896.458C1085.26 895.409 1084.58 894.387 1083.53 894.176C1082.48 893.965 1081.46 894.644 1081.25 895.693C1081.04 896.742 1081.72 897.763 1082.76 897.974Z" fill="#BDF3FF"/>
<path opacity="0.5" d="M1132.71 896.522C1133.75 896.733 1134.78 896.054 1134.99 895.005C1135.2 893.956 1134.52 892.934 1133.47 892.723C1132.42 892.512 1131.4 893.191 1131.19 894.24C1130.98 895.289 1131.66 896.31 1132.71 896.522Z" fill="#BDF3FF"/>
<path opacity="0.5" d="M1105.62 892.802C1106.66 893.013 1107.69 892.334 1107.9 891.285C1108.11 890.236 1107.43 889.215 1106.38 889.004C1105.33 888.792 1104.31 889.471 1104.1 890.52C1103.89 891.569 1104.57 892.591 1105.62 892.802Z" fill="#BDF3FF"/>
<path opacity="0.5" d="M983.906 867.676C984.955 867.887 985.976 867.208 986.187 866.159C986.399 865.11 985.72 864.089 984.671 863.878C983.622 863.666 982.6 864.345 982.389 865.394C982.178 866.443 982.857 867.465 983.906 867.676Z" fill="#BDF3FF"/>
<path opacity="0.5" d="M993.311 735.316C994.36 735.527 995.382 734.848 995.593 733.799C995.804 732.75 995.125 731.728 994.076 731.517C993.027 731.306 992.006 731.985 991.794 733.034C991.583 734.083 992.262 735.105 993.311 735.316Z" fill="#BDF3FF"/>
<path opacity="0.5" d="M1014.93 740.369C1015.98 740.581 1017 739.902 1017.21 738.853C1017.43 737.804 1016.75 736.782 1015.7 736.571C1014.65 736.36 1013.63 737.039 1013.42 738.088C1013.2 739.137 1013.88 740.158 1014.93 740.369Z" fill="#BDF3FF"/>
<path opacity="0.5" d="M1029.79 725.693C1030.84 725.904 1031.86 725.225 1032.07 724.176C1032.28 723.127 1031.6 722.105 1030.55 721.894C1029.5 721.683 1028.48 722.362 1028.27 723.411C1028.06 724.46 1028.74 725.482 1029.79 725.693Z" fill="#BDF3FF"/>
<path opacity="0.5" d="M1147.55 740.023C1148.6 740.234 1149.62 739.555 1149.83 738.506C1150.04 737.457 1149.36 736.435 1148.31 736.224C1147.26 736.013 1146.24 736.692 1146.03 737.741C1145.82 738.79 1146.5 739.812 1147.55 740.023Z" fill="#BDF3FF"/>
<path opacity="0.5" d="M1104.98 703.823C1106.03 704.034 1107.05 703.355 1107.27 702.306C1107.48 701.257 1106.8 700.236 1105.75 700.025C1104.7 699.813 1103.68 700.492 1103.47 701.541C1103.26 702.59 1103.94 703.612 1104.98 703.823Z" fill="#BDF3FF"/>
<path opacity="0.5" d="M1057.6 853.018C1058.65 853.23 1059.67 852.551 1059.88 851.502C1060.09 850.453 1059.42 849.431 1058.37 849.22C1057.32 849.009 1056.3 849.688 1056.08 850.737C1055.87 851.786 1056.55 852.807 1057.6 853.018Z" fill="#BDF3FF"/>
<path opacity="0.5" d="M1154.93 702.384C1155.98 702.595 1157 701.916 1157.21 700.867C1157.42 699.818 1156.74 698.796 1155.69 698.585C1154.64 698.374 1153.62 699.053 1153.41 700.102C1153.2 701.151 1153.88 702.172 1154.93 702.384Z" fill="#BDF3FF"/>
<path opacity="0.5" d="M1127.84 698.652C1128.88 698.863 1129.91 698.184 1130.12 697.135C1130.33 696.086 1129.65 695.064 1128.6 694.853C1127.55 694.642 1126.53 695.321 1126.32 696.37C1126.11 697.419 1126.79 698.44 1127.84 698.652Z" fill="#BDF3FF"/>
<path opacity="0.5" d="M1006.13 673.538C1007.18 673.75 1008.2 673.071 1008.41 672.022C1008.62 670.973 1007.94 669.951 1006.89 669.74C1005.84 669.529 1004.82 670.208 1004.61 671.257C1004.4 672.306 1005.08 673.327 1006.13 673.538Z" fill="#BDF3FF"/>
<path opacity="0.5" d="M798.384 690.298C799.433 690.509 800.455 689.83 800.666 688.781C800.877 687.732 800.198 686.711 799.149 686.5C798.1 686.288 797.079 686.968 796.868 688.016C796.656 689.065 797.335 690.087 798.384 690.298Z" fill="#BDF3FF"/>
<path opacity="0.5" d="M820.02 695.369C821.069 695.58 822.091 694.901 822.302 693.852C822.513 692.803 821.834 691.782 820.785 691.57C819.736 691.359 818.715 692.038 818.503 693.087C818.292 694.136 818.971 695.158 820.02 695.369Z" fill="#BDF3FF"/>
<path opacity="0.5" d="M1396.5 929.467C1397.55 929.679 1398.57 928.999 1398.78 927.95C1398.99 926.901 1398.31 925.88 1397.26 925.669C1396.21 925.457 1395.19 926.137 1394.98 927.186C1394.77 928.234 1395.45 929.256 1396.5 929.467Z" fill="#BDF3FF"/>
<path opacity="0.5" d="M1432.97 919.843C1434.02 920.054 1435.04 919.375 1435.25 918.326C1435.46 917.277 1434.78 916.256 1433.74 916.045C1432.69 915.833 1431.66 916.512 1431.45 917.561C1431.24 918.61 1431.92 919.632 1432.97 919.843Z" fill="#BDF3FF"/>
<path opacity="0.5" d="M1409.31 867.676C1410.36 867.887 1411.38 867.208 1411.59 866.159C1411.81 865.11 1411.13 864.089 1410.08 863.878C1409.03 863.666 1408.01 864.345 1407.8 865.394C1407.58 866.443 1408.26 867.465 1409.31 867.676Z" fill="#BDF3FF"/>
<path opacity="0.5" d="M1418.72 735.316C1419.77 735.527 1420.79 734.848 1421 733.799C1421.21 732.75 1420.53 731.728 1419.48 731.517C1418.43 731.306 1417.41 731.985 1417.2 733.034C1416.99 734.083 1417.67 735.105 1418.72 735.316Z" fill="#BDF3FF"/>
<path opacity="0.5" d="M1440.34 740.369C1441.39 740.581 1442.41 739.902 1442.62 738.853C1442.83 737.804 1442.15 736.782 1441.11 736.571C1440.06 736.36 1439.03 737.039 1438.82 738.088C1438.61 739.137 1439.29 740.158 1440.34 740.369Z" fill="#BDF3FF"/>
<path opacity="0.5" d="M1431.53 673.538C1432.58 673.75 1433.6 673.071 1433.82 672.022C1434.03 670.973 1433.35 669.951 1432.3 669.74C1431.25 669.529 1430.23 670.208 1430.02 671.257C1429.81 672.306 1430.48 673.327 1431.53 673.538Z" fill="#BDF3FF"/>
<path opacity="0.5" d="M1223.79 690.298C1224.84 690.509 1225.86 689.83 1226.07 688.781C1226.28 687.732 1225.61 686.711 1224.56 686.5C1223.51 686.288 1222.49 686.968 1222.27 688.016C1222.06 689.065 1222.74 690.087 1223.79 690.298Z" fill="#BDF3FF"/>
<path opacity="0.5" d="M1245.43 695.369C1246.48 695.58 1247.5 694.901 1247.71 693.852C1247.92 692.803 1247.24 691.782 1246.19 691.57C1245.14 691.359 1244.12 692.038 1243.91 693.087C1243.7 694.136 1244.38 695.158 1245.43 695.369Z" fill="#BDF3FF"/>
<path d="M423.38 785.115H462.632V933.678H423.38V785.115Z" fill="#294B6B"/>
<path d="M403.73 934.843V820.258H435.876V845.216H470.665V934.843H403.73Z" fill="#132E4C"/>
<path d="M416.968 862.613H410.538V856.183H416.968V862.613Z" fill="#4B92BA"/>
<path d="M449.438 802.344H443.008V795.913H449.438V802.344Z" fill="#4B92BA"/>
<path d="M449.438 814.516H443.008V808.085H449.438V814.516Z" fill="#4B92BA"/>
<path opacity="0.5" d="M416.968 847.751H410.538V841.321H416.968V847.751Z" fill="#4B92BA"/>
<path opacity="0.5" d="M429.806 862.613H423.376V856.183H429.806V862.613Z" fill="#4B92BA"/>
<path opacity="0.5" d="M438.533 802.344H432.103V795.913H438.533V802.344Z" fill="#4B92BA"/>
<path opacity="0.25" d="M429.806 847.751H423.376V841.321H429.806V847.751Z" fill="#4B92BA"/>
<path d="M430.865 785.116V774.087L455.146 749.799V785.116H430.865Z" fill="#294B6B"/>
<path d="M688.367 785.115H727.619V933.678H688.367V785.115Z" fill="#294B6B"/>
<path d="M663 935V820H698.058V845.048H736V935H663Z" fill="#132E4C"/>
<path d="M676.43 859.293H670V852.863H676.43V859.293Z" fill="#4B92BA"/>
<path d="M714.426 802.344H707.995V795.913H714.426V802.344Z" fill="#4B92BA"/>
<path d="M714.426 814.516H707.995V808.085H714.426V814.516Z" fill="#4B92BA"/>
<path opacity="0.5" d="M676.43 844.431H670V838H676.43V844.431Z" fill="#4B92BA"/>
<path opacity="0.5" d="M689.268 859.293H682.838V852.863H689.268V859.293Z" fill="#4B92BA"/>
<path opacity="0.5" d="M703.521 802.344H697.09V795.913H703.521V802.344Z" fill="#4B92BA"/>
<path opacity="0.25" d="M689.268 844.431H682.838V838H689.268V844.431Z" fill="#4B92BA"/>
<path d="M695.852 785.116V774.087L720.134 749.799V785.116H695.852Z" fill="#294B6B"/>
<path d="M970.606 785.115H1009.86V933.678H970.606V785.115Z" fill="#294B6B"/>
<path d="M950.956 934.843V820.258H983.102V845.216H1017.89V934.843H950.956Z" fill="#132E4C"/>
<path d="M964.195 862.613H957.765V856.183H964.195V862.613Z" fill="#4B92BA"/>
<path d="M996.664 802.344H990.233V795.913H996.664V802.344Z" fill="#4B92BA"/>
<path d="M996.664 814.516H990.233V808.085H996.664V814.516Z" fill="#4B92BA"/>
<path opacity="0.5" d="M964.195 847.751H957.765V841.321H964.195V847.751Z" fill="#4B92BA"/>
<path opacity="0.5" d="M977.033 862.613H970.603V856.183H977.033V862.613Z" fill="#4B92BA"/>
<path opacity="0.5" d="M985.758 802.344H979.328V795.913H985.758V802.344Z" fill="#4B92BA"/>
<path opacity="0.25" d="M977.033 847.751H970.603V841.321H977.033V847.751Z" fill="#4B92BA"/>
<path d="M978.09 785.116V774.087L1002.37 749.799V785.116H978.09Z" fill="#294B6B"/>
<path d="M1396.02 785.115H1435.27V933.678H1396.02V785.115Z" fill="#294B6B"/>
<path d="M1376.36 934.843V820.258H1408.51V845.216H1443.3V934.843H1376.36Z" fill="#132E4C"/>
<path d="M1389.6 862.613H1383.17V856.183H1389.6V862.613Z" fill="#4B92BA"/>
<path d="M1422.07 802.344H1415.64V795.913H1422.07V802.344Z" fill="#4B92BA"/>
<path d="M1422.07 814.516H1415.64V808.085H1422.07V814.516Z" fill="#4B92BA"/>
<path opacity="0.5" d="M1389.6 847.751H1383.17V841.321H1389.6V847.751Z" fill="#4B92BA"/>
<path opacity="0.5" d="M1402.44 862.613H1396.01V856.183H1402.44V862.613Z" fill="#4B92BA"/>
<path opacity="0.5" d="M1411.17 802.344H1404.74V795.913H1411.17V802.344Z" fill="#4B92BA"/>
<path opacity="0.25" d="M1402.44 847.751H1396.01V841.321H1402.44V847.751Z" fill="#4B92BA"/>
<path d="M1403.5 785.116V774.087L1427.78 749.799V785.116H1403.5Z" fill="#294B6B"/>
<path d="M123.17 810.096L136.193 800.065L148.566 813.179L129.929 821.612L123.17 810.096Z" fill="#EE9F86"/>
<path d="M132.419 821.857C129.455 819.342 126.008 812.456 124.427 809.184L124.141 808.841L109.302 813.825L127.126 851.716C130.539 858.907 132.753 853.629 133.448 850.324C130.355 843.173 131.349 828.505 132.419 821.857Z" fill="#858E8F"/>
<path d="M176.447 608.945C177.039 606.553 167.693 585.71 162.986 575.593L154.894 578.311L158.915 614.833L176.447 608.945Z" fill="#3A3A39"/>
<path d="M170.625 584.273C170.727 583.364 170.19 582.377 169.938 581.732C168.681 578.508 166.079 575.735 163.056 573.832C143.935 571.208 142.174 586.97 143.881 594.857L154.734 616.449L167.76 612.804L164.607 606.278C165.482 604.234 168.07 604.24 172.675 603.569C177.28 602.898 175.065 599.558 174.813 598.913C174.847 598.61 175.268 597.739 175.655 597.171C175.689 596.868 175.723 596.565 175.403 596.526C175.084 596.488 175.118 596.185 175.152 595.882L175.186 595.578C175.22 595.275 175.287 594.669 175.002 594.327L174.717 593.986C174.431 593.644 174.465 593.341 174.499 593.038L174.886 592.47C175.375 590.993 174.906 589.4 173.377 588.601C172.202 587.536 170.741 586.131 170.625 584.273Z" fill="#EE937E"/>
<path d="M163.13 578.394C164.931 582.622 165.462 589.474 155.647 592.918C154.33 593.068 152.2 594.662 154.104 597.977C156.547 602.283 158.164 605.255 158.511 610.85C158.811 613.972 158.319 615.455 157.964 615.721L146.122 619.846C138.139 604.072 130.043 571.933 160.34 568.493C164.224 568.653 169.895 570.263 169.28 575.742C169.006 578.177 164.85 580.453 163.13 578.394Z" fill="#3A3A39"/>
<path d="M147.906 591.555L157.248 585.108L137.361 588.762C138.85 592.58 144.139 593.827 147.906 591.555Z" fill="#595552"/>
<path d="M180.451 574.673C178.671 570.499 174.54 573.042 171.941 573.336C169.663 567.883 161.808 557.794 147.816 562.49C133.823 567.187 134.281 580.337 136.526 586.09C135.826 586.614 135.025 588.04 136.191 589.095C137.989 590.226 182.446 579.788 180.451 574.673Z" fill="#FEDF00"/>
<path d="M165.194 567.608C165.477 567.946 165.41 568.546 165.06 568.808C164.711 569.07 164.079 568.993 163.796 568.655L165.194 567.608ZM159.921 566.055C159.289 565.979 159.006 565.64 159.073 565.04C159.14 564.44 159.49 564.178 160.122 564.255L159.921 566.055ZM163.796 568.655C163.513 568.316 162.948 567.639 162.349 567.263C161.751 566.886 160.836 566.471 159.921 566.055L160.122 564.255C161.386 564.408 162.584 565.162 163.499 565.577C164.38 566.292 164.945 566.969 165.544 567.346L163.796 568.655Z" fill="white" fill-opacity="0.8"/>
<path d="M54.3846 831.543L67.4076 821.512L79.7804 834.626L61.1442 843.059L54.3846 831.543Z" fill="#EE9F86"/>
<path d="M63.6709 842.996C60.7073 840.482 57.2598 833.595 55.6791 830.324L55.393 829.981L40.5543 834.965L58.3775 872.856C61.7909 880.046 64.0051 874.768 64.7 871.464C61.6068 864.312 62.6014 849.645 63.6709 842.996Z" fill="#858E8F"/>
<path d="M131.263 621.916C131.263 621.916 106.055 644.473 103.682 654.056C101.629 663.678 105.202 669.352 107.827 669.052C110.452 668.752 130.506 669.013 132.799 665.897C135.093 662.781 131.263 621.916 131.263 621.916Z" fill="url(#paint1_linear)"/>
<path d="M127.841 700.92C127.841 700.92 122.224 719.32 138.739 739.165C155.539 759.352 168.841 773.269 168.841 773.269L123.735 803.82L135.978 818.532C135.978 818.532 204.313 796.945 205.118 786.887C205.922 776.829 189.491 736.069 172.806 717.742L127.841 700.92Z" fill="url(#paint2_linear)"/>
<path d="M123.032 708.24C123.032 708.24 113.115 764.93 88.4817 794.285C63.8487 823.64 54.5294 823.129 54.5294 823.129L74.3007 839.991C74.3007 839.991 117.175 818.075 137.752 784.535C158.328 750.995 164.434 713.859 164.434 713.859L123.032 708.24Z" fill="url(#paint3_linear)"/>
<path d="M96.8798 653.665L107.903 687.105L150.608 675.463L140.096 646.059L113.515 654.152L108.503 650.181L96.8798 653.665Z" fill="url(#paint4_linear)"/>
<path d="M129.86 621.715C129.86 621.715 125.664 693.659 114.317 711.095C114.317 711.095 182.746 727.372 186.317 724.412C186.317 724.412 174.412 694.919 180.494 640.776C180.494 640.776 206.591 613.096 211.232 603.483L197.107 593.762C197.141 593.457 169.081 618.434 129.86 621.715Z" fill="url(#paint5_linear)"/>
<path d="M207.529 600.328L198.603 594.049C196.239 592.234 195.626 589.102 197.48 586.881L198.598 585.488C200.451 583.266 203.719 582.745 206.083 584.56L215.009 590.839C217.373 592.654 217.986 595.786 216.133 598.007L215.014 599.4C213.161 601.622 209.893 602.143 207.529 600.328Z" fill="url(#paint6_linear)"/>
<path d="M215.043 592.552C215.043 592.552 223.469 581.197 226.357 564.23C226.357 564.23 231.119 562.329 231.841 555.923C232.563 549.516 230.023 546.119 230.023 546.119C230.023 546.119 229.438 551.305 224.252 554.082C224.252 554.082 221.987 548.244 219.651 551.673C217.315 555.103 218.103 565.401 218.103 565.401L205.005 583.614L215.043 592.552Z" fill="#EE937E"/>
</g>
<defs>
<linearGradient id="paint0_linear" x1="335.847" y1="869.316" x2="316.51" y2="955.029" gradientUnits="userSpaceOnUse">
<stop stop-color="#4295E1"/>
<stop offset="1" stop-color="#3419CC"/>
</linearGradient>
<linearGradient id="paint1_linear" x1="104.792" y1="643.744" x2="135.252" y2="647.167" gradientUnits="userSpaceOnUse">
<stop stop-color="#C4E6EC"/>
<stop offset="1" stop-color="white"/>
</linearGradient>
<linearGradient id="paint2_linear" x1="121.124" y1="758.417" x2="207.431" y2="768.095" gradientUnits="userSpaceOnUse">
<stop stop-color="#0061A5"/>
<stop offset="1" stop-color="#074C7C"/>
</linearGradient>
<linearGradient id="paint3_linear" x1="60.5945" y1="769.53" x2="156.686" y2="780.311" gradientUnits="userSpaceOnUse">
<stop stop-color="#0061A5"/>
<stop offset="1" stop-color="#074C7C"/>
</linearGradient>
<linearGradient id="paint4_linear" x1="95.9346" y1="663.204" x2="151.371" y2="669.404" gradientUnits="userSpaceOnUse">
<stop stop-color="#F48C96"/>
<stop offset="1" stop-color="#F16A94"/>
</linearGradient>
<linearGradient id="paint5_linear" x1="120.987" y1="650.734" x2="204.853" y2="660.154" gradientUnits="userSpaceOnUse">
<stop stop-color="#C4E6EC"/>
<stop offset="1" stop-color="white"/>
</linearGradient>
<linearGradient id="paint6_linear" x1="198.206" y1="586.114" x2="215.194" y2="599.276" gradientUnits="userSpaceOnUse">
<stop stop-color="#C4E6EC"/>
<stop offset="1" stop-color="white"/>
</linearGradient>
<clipPath id="clip0">
<rect width="1440" height="329" fill="white" transform="translate(0 615.999)"/>
</clipPath>
</defs>
</svg>
