<?xml version="1.0" encoding="utf-8"?>
<!-- Generator: Adobe Illustrator 24.0.0, SVG Export Plug-In . SVG Version: 6.00 Build 0)  -->
<svg version="1.1" id="Layer_1" xmlns="http://www.w3.org/2000/svg" xmlns:xlink="http://www.w3.org/1999/xlink" x="0px" y="0px"
	 viewBox="0 0 1340 869" style="enable-background:new 0 0 1340 869;" xml:space="preserve">
<style type="text/css">
	.st0{clip-path:url(#SVGID_2_);}
	.st1{fill:#132D4C;}
	.st2{fill:none;stroke:#FFFFFF;}
	.st3{fill:#D0DAE4;}
	.st4{fill:#369ED8;}
	.st5{opacity:0.5;fill:#369ED8;enable-background:new    ;}
	.st6{opacity:0.25;fill:#369ED8;enable-background:new    ;}
	.st7{fill:#DCE2E9;}
	.st8{fill:#E3E9F1;}
	.st9{opacity:0.2;fill:url(#SVGID_3_);enable-background:new    ;}
	.st10{opacity:0.2;fill:url(#SVGID_4_);enable-background:new    ;}
	.st11{fill:url(#SVGID_5_);}
	.st12{fill:none;}
	.st13{fill:#FBAC1D;}
	.st14{fill:#BC3647;}
	.st15{fill:#004869;}
	.st16{fill:#00405B;}
	.st17{fill:#F3A485;}
	.st18{fill:#D03927;}
	.st19{opacity:0.1;fill:#232323;enable-background:new    ;}
	.st20{fill:#E5E5E5;}
	.st21{fill:#EF6940;}
	.st22{fill:#E05736;}
	.st23{opacity:0.5;fill:#E88468;enable-background:new    ;}
	.st24{fill:#F29C81;}
	.st25{fill:#3A3A39;}
	.st26{fill:none;stroke:#FDFEFE;stroke-width:0.5;stroke-miterlimit:10;}
	.st27{opacity:0.1;fill:#F6D2C9;enable-background:new    ;}
	.st28{opacity:0.1;fill:#FFFFFF;enable-background:new    ;}
	.st29{opacity:0.3;fill:url(#SVGID_6_);enable-background:new    ;}
	.st30{fill:#1C2755;}
	.st31{fill:#26376D;}
	.st32{fill:#595959;}
	.st33{fill:#A27F68;}
	.st34{fill:#AC856D;}
	.st35{fill:#916B57;}
	.st36{fill:#FFFFFF;}
	.st37{fill:#353334;stroke:#B94826;stroke-width:0.75;stroke-miterlimit:10;}
	.st38{fill:#68A87E;}
	.st39{fill:#97C4A8;}
	.st40{fill:#7FBB95;}
	.st41{fill:#02586E;}
	.st42{fill:#3C8AB3;}
	.st43{fill:#00759A;}
	.st44{fill:#BD1F3E;}
	.st45{fill:#E31B49;}
	.st46{fill:#D11F47;}
	.st47{fill:#FFDE79;}
	.st48{opacity:0.1;fill:#020202;enable-background:new    ;}
	.st49{fill:#D3D3D3;}
	.st50{fill:url(#SVGID_7_);}
	.st51{fill:url(#SVGID_8_);}
	.st52{fill:none;stroke:url(#SVGID_9_);stroke-width:2;stroke-miterlimit:10;}
	.st53{fill:none;stroke:url(#SVGID_10_);stroke-width:2;stroke-miterlimit:10;}
	.st54{fill:url(#SVGID_11_);}
	.st55{fill:url(#SVGID_12_);}
	.st56{fill:url(#SVGID_13_);}
	.st57{fill:url(#SVGID_14_);}
	.st58{fill:url(#SVGID_15_);}
	.st59{fill:url(#SVGID_16_);}
	.st60{fill:url(#SVGID_17_);}
	.st61{fill:url(#SVGID_18_);}
	.st62{fill:url(#SVGID_19_);}
	.st63{fill:url(#SVGID_20_);}
	.st64{fill:url(#SVGID_21_);}
	.st65{fill:url(#SVGID_22_);}
	.st66{fill:url(#SVGID_23_);}
	.st67{fill:url(#SVGID_24_);}
	.st68{fill:url(#SVGID_25_);}
	.st69{fill:url(#SVGID_26_);}
	.st70{fill:#456CB4;}
	.st71{fill:#F68B1F;}
	.st72{fill:url(#SVGID_27_);}
	.st73{fill:#F3AEAF;}
	.st74{fill:#1B154A;}
	.st75{fill:#EE9F86;}
	.st76{fill:#333333;}
	.st77{fill:#FBAE24;}
	.st78{fill:#2A317E;}
	.st79{fill:#222461;}
	.st80{fill:#ED9E21;}
	.st81{fill:#F7AC48;}
	.st82{fill:#DC8327;}
	.st83{fill:#6284C3;}
	.st84{fill:none;stroke:#61C3AC;}
	.st85{fill:#3A5FAC;}
	.st86{fill:#486DB5;}
	.st87{fill:none;stroke:#204588;stroke-linecap:round;stroke-linejoin:round;}
	.st88{fill:#A3B9E0;}
	.st89{fill:#204C7F;}
	.st90{fill:#A8BDE2;}
	.st91{fill:#1B4475;}
	.st92{fill:#396AA6;}
	.st93{fill:#231F20;}
	.st94{fill:#454545;}
	.st95{fill:url(#SVGID_28_);}
	.st96{opacity:0.5;fill:none;stroke:#231F20;enable-background:new    ;}
	.st97{fill:url(#SVGID_29_);}
	.st98{fill:url(#SVGID_30_);}
	.st99{opacity:0.5;fill:none;stroke:#231F20;stroke-width:2;stroke-linejoin:round;enable-background:new    ;}
	.st100{fill:url(#SVGID_31_);}
	.st101{fill:url(#SVGID_32_);}
	.st102{fill:url(#SVGID_33_);}
	.st103{fill:url(#SVGID_34_);}
	.st104{fill:#3650A3;}
	.st105{fill:#465FAC;}
	.st106{fill:#2D286C;}
	.st107{fill:#462D87;}
	.st108{fill:url(#SVGID_35_);}
	.st109{fill:url(#SVGID_36_);}
	.st110{fill:#B1C9E5;}
	.st111{fill:#66CEF6;}
	.st112{fill:#7BBFE0;}
	.st113{fill:#147086;}
	.st114{fill:#5B758E;}
	.st115{fill:#020202;}
	.st116{fill:#16B2D5;}
	.st117{fill:#F3AFA2;}
	.st118{fill:#EDA9A9;}
	.st119{fill:url(#SVGID_37_);}
	.st120{fill:#A4D4F2;}
	.st121{fill:#046080;}
	.st122{fill:#D56627;}
	.st123{fill:#F58227;}
	.st124{fill:#A01D20;}
	.st125{fill:#DE445E;}
	.st126{fill:#373636;}
	.st127{fill:#FFFFFF;fill-opacity:0.2;}
	.st128{fill:#22B6E6;}
	.st129{fill:#D5E0E2;}
	.st130{fill:#FABCAC;}
	.st131{fill:#AAC8CC;}
	.st132{fill:#727373;}
	.st133{opacity:0.4;fill:#E5E5E5;enable-background:new    ;}
	.st134{fill:#232323;}
	.st135{fill:url(#SVGID_38_);}
	.st136{fill:url(#SVGID_39_);}
	.st137{fill:url(#SVGID_40_);}
	.st138{fill:none;stroke:#FDFEFE;stroke-width:2;stroke-miterlimit:10;}
	.st139{fill:url(#SVGID_41_);}
	.st140{fill:url(#SVGID_42_);}
	.st141{fill:none;stroke:#273171;}
	.st142{fill:url(#SVGID_43_);}
	.st143{fill:none;stroke:#3650A3;}
	.st144{fill:#8F5923;}
	.st145{fill:#326E92;}
	.st146{fill:#244471;}
	.st147{fill:url(#SVGID_44_);}
	.st148{fill:none;stroke:#21516E;}
	.st149{fill:url(#SVGID_45_);}
	.st150{fill:none;stroke:#143054;}
	.st151{fill:url(#SVGID_46_);}
	.st152{fill:#11113A;}
	.st153{fill:#F5AA46;}
</style>
<g>
	<defs>
		<rect id="SVGID_1_" y="0" width="1340" height="869"/>
	</defs>
	<clipPath id="SVGID_2_">
		<use xlink:href="#SVGID_1_"  style="overflow:visible;"/>
	</clipPath>
	<g class="st0">
		<path class="st1" d="M1538.1,617.6H2.5v284.8h1535.6V617.6z"/>
		<line class="st2" x1="1626.6" y1="628.6" x2="1218" y2="962.8"/>
		<line class="st2" x1="1627.6" y1="502" x2="1064.3" y2="962.8"/>
		<line class="st2" x1="1473.9" y1="502" x2="910.5" y2="962.8"/>
		<line class="st2" x1="1320.1" y1="502" x2="756.8" y2="962.8"/>
		<line class="st2" x1="1166.4" y1="502" x2="603" y2="962.8"/>
		<line class="st2" x1="1012.7" y1="502" x2="449.3" y2="962.8"/>
		<line class="st2" x1="858.9" y1="502" x2="295.5" y2="962.8"/>
		<line class="st2" x1="705.2" y1="502" x2="141.8" y2="962.8"/>
		<line class="st2" x1="551.4" y1="502" x2="-12" y2="962.8"/>
		<line class="st2" x1="397.7" y1="502" x2="-165.7" y2="962.8"/>
		<line class="st2" x1="243.9" y1="502" x2="-319.4" y2="962.8"/>
		<line class="st2" x1="1587.9" y1="699.4" x2="-59" y2="699.4"/>
		<line class="st2" x1="1587.9" y1="783" x2="-59" y2="783"/>
		<line class="st2" x1="1587.9" y1="866.5" x2="-59" y2="866.5"/>
		<path class="st3" d="M1331.9,620.1V398H1268v48.4h-69.1v173.7H1331.9z"/>
		<path class="st4" d="M1305.6,480.1h12.8v-12.5h-12.8V480.1z"/>
		<path class="st5" d="M1305.6,451.3h12.8v-12.5h-12.8V451.3z"/>
		<path class="st5" d="M1280.1,480.1h12.8v-12.5h-12.8V480.1z"/>
		<path class="st6" d="M1280.1,451.3h12.8v-12.5h-12.8V451.3z"/>
		<path class="st7" d="M898.1,429.7h-51.3V619h51.3V429.7z"/>
		<path class="st3" d="M821.2,620.5v-146h42v31.8h45.4v114.2H821.2z"/>
		<path class="st4" d="M838.5,520.3h-8.4v8.2h8.4V520.3z"/>
		<path class="st4" d="M880.9,443.5h-8.4v8.2h8.4V443.5z"/>
		<path class="st4" d="M880.9,459h-8.4v8.2h8.4V459z"/>
		<path class="st5" d="M838.5,501.4h-8.4v8.2h8.4V501.4z"/>
		<path class="st5" d="M855.3,520.3h-8.4v8.2h8.4V520.3z"/>
		<path class="st5" d="M866.7,443.5h-8.4v8.2h8.4V443.5z"/>
		<path class="st6" d="M855.3,501.4h-8.4v8.2h8.4V501.4z"/>
		<path class="st7" d="M856.6,429.7v-14.1l31.7-30.9v45H856.6z"/>
		<path class="st7" d="M809.7,430.8h-51.3v188h51.3V430.8z"/>
		<path class="st3" d="M732.7,620.3v-145h42v31.6h45.4v113.4H732.7z"/>
		<path class="st4" d="M750,520.8h-8.4v8.1h8.4V520.8z"/>
		<path class="st4" d="M792.4,444.5H784v8.1h8.4V444.5z"/>
		<path class="st4" d="M792.4,459.9H784v8.1h8.4V459.9z"/>
		<path class="st5" d="M750,501.9h-8.4v8.1h8.4V501.9z"/>
		<path class="st5" d="M766.8,520.8h-8.4v8.1h8.4V520.8z"/>
		<path class="st5" d="M778.2,444.5h-8.4v8.1h8.4V444.5z"/>
		<path class="st6" d="M766.8,501.9h-8.4v8.1h8.4V501.9z"/>
		<path class="st7" d="M768.2,430.8v-14l31.7-30.7v44.7H768.2z"/>
		<path class="st8" d="M480.2,590c0,0,10.9-3,38.1-11.6c71.5-22.6,96.1-65.6,165.1-53.8S808,581,872.5,573.1s60-63,138.1-49.9
			c78.1,13.2,69,56.7,154.6,55.3c85.6-1.5,84.1-67,204.1-51.3c120.1,15.7,168.1,93.1,168.1,93.1H372.6"/>
		
			<linearGradient id="SVGID_3_" gradientUnits="userSpaceOnUse" x1="1397.1189" y1="255.6905" x2="1305.8889" y2="-93.1857" gradientTransform="matrix(1 0 0 1 0 28.11)">
			<stop  offset="0" style="stop-color:#FFF7B0"/>
			<stop  offset="0.74" style="stop-color:#FFFEF4;stop-opacity:0.1"/>
			<stop  offset="1" style="stop-color:#FFFFFF;stop-opacity:0"/>
		</linearGradient>
		<path class="st9" d="M1351.2,287.4c101.5,0,183.8-80.3,183.8-179.2c0-99-82.3-179.2-183.8-179.2s-183.8,80.3-183.8,179.2
			C1167.4,207.2,1249.7,287.4,1351.2,287.4z"/>
		
			<linearGradient id="SVGID_4_" gradientUnits="userSpaceOnUse" x1="54067.5" y1="80.09" x2="200052" y2="80.09" gradientTransform="matrix(1 0 0 1 0 28.11)">
			<stop  offset="0" style="stop-color:#FFF7B0"/>
			<stop  offset="0.74" style="stop-color:#FFFEF4;stop-opacity:0.1"/>
			<stop  offset="1" style="stop-color:#FFFFFF;stop-opacity:0"/>
		</linearGradient>
		<path class="st10" d="M1351.2,238.6c73.8,0,133.7-58.4,133.7-130.4S1425-22.2,1351.2-22.2c-73.8,0-133.7,58.4-133.7,130.4
			S1277.3,238.6,1351.2,238.6z"/>
		
			<linearGradient id="SVGID_5_" gradientUnits="userSpaceOnUse" x1="1370.9236" y1="155.5082" x2="1332.0835" y2="6.9933" gradientTransform="matrix(1 0 0 1 0 28.11)">
			<stop  offset="0" style="stop-color:#FFF7B0"/>
			<stop  offset="1" style="stop-color:#FFFEF8;stop-opacity:6.000000e-02"/>
		</linearGradient>
		<path class="st11" d="M1351.2,184.5c43.2,0,78.2-34.2,78.2-76.3s-35-76.3-78.2-76.3s-78.2,34.2-78.2,76.3S1308,184.5,1351.2,184.5
			z"/>
		<rect x="761.5" y="625" class="st12" width="277.6" height="70.9"/>
		<rect x="412.1" y="723.7" class="st12" width="435.2" height="60.1"/>
		<path class="st13" d="M1232.3,571.3l39.5-52.6l28.7,32.3l-65.8,38.3L1232.3,571.3z"/>
		<path class="st14" d="M1227.8,607.4h7.1c4.3-7.2,12.9-26.4,12.9-46.1c0-19.6-13.5-35.6-20.3-41.1c-6.8,5.5-20,21.4-20,41.1
			c0,19.6,8.6,38.9,12.9,46.1H1227.8L1227.8,607.4z"/>
		<path class="st15" d="M370.8,534.9c0,0-2,11.4-1,20.9s11.1,54.6,11.1,55.1s10.3,0.5,10.4-2.8s-0.5-15.9-3.2-22.9
			c-2.8-7-4.7-17.8-3.1-24.9c1.6-7.1,4.8-14.5,4.8-14.5s6,31.5,5.9,35.7s-1.8,35.4-1.6,36.4c0.2,1.1,5.8-0.6,8.4,1.8
			c0,0,6-23.1,5.3-34.9c-0.7-11.8-1-19.7-0.7-23.2S410,535,410,535l-21.4-11.6L370.8,534.9z"/>
		<path class="st16" d="M404.5,620.8l-7.1-1.8c1.9-5.4,3-11.1,3.5-16.8c0.8-9.3,2-18.7,0-24.9c-2-6.1-1.4-23.8,0-27.4
			c1.4-3.6,1.3-9.3,1.3-9.3h-13.7v7.6l2.9,59.1l-2.3,3.7l-3,1.6c0,0,2.4-10,1.2-12.6c-1.2-2.5-6.8-20.2-7.4-26.8s-1.4-14.7,1-19.2
			s4.2-18.7,4.2-18.7s-12.3,5.4-17.8,2.5c-5.5-2.8,0-11.5,0-11.5l16.4-5.4H398l12.6,6.7c0,0-1.2,68.5-1.8,69
			C408.2,597.1,404.5,620.8,404.5,620.8z"/>
		<path class="st17" d="M359.8,492.4c0,0-2,2.9-2.6,17.2c0,0,21.6,4.8,31.9,3.9l-0.7-7l-20-3.2l2.3-6.7L359.8,492.4z"/>
		<path class="st17" d="M387.7,506.6l5.5-0.2c0,0,2.6-3.6,3.9-3.9c0.9-0.2,1.9-0.1,2.8,0.3s1.6,1,2.2,1.7c0,0,4,0.4,5.7,0.5
			s-0.8,6.2-5.3,8.1c-4.5,1.8-6.9,1.4-7.1,1.2c-0.3-0.2-0.6-0.5-1-0.7l-8.5-0.1L387.7,506.6z"/>
		<path class="st18" d="M422.8,494.4l-1.4-6.9c-1.8-12.2-6.9-18.2-6.9-18.2c-4.7-1.1-17-7.1-17-7.1l-7,2l-7-0.6
			c0,0-12.2,4.5-16.9,5.7c0,0-5.1,6-6.9,18.2l-1.4,7l12.6,4.8l1.1-4.7l-0.8,39.6l19.3-0.4l19.3,0.4l-0.8-39.6l1.1,4.7L422.8,494.4z"
			/>
		<path class="st19" d="M410,499.2c0,0,0-7.5,1.5-8.6s-2.7-7.3-2.7-7.3s0.6,9.2-0.6,10.4v-6c0,0-2.5,8.7-3.2,10.3s-3.9,7.8-4.6,9.4
			c-0.6,1.5-5.3,13.9-5.3,13.9s2.7,6.2,3.6,6.3c1,0.1,13.1-5.4,13.1-5.4l-2.5-21.4L410,499.2z"/>
		<path class="st19" d="M423.7,486.2c0,0-6.5,0.2-8.2,2s0.4-3.4,8.2-3.6C431.5,484.6,423.7,486.2,423.7,486.2z"/>
		<path class="st19" d="M410.3,503.9c0,0,2.3,2.4,2.7,3.1c0.5,0.6-1-2.8-1.4-3.1c-0.4-0.3,4.6,0.4,5.2,1.2c0.7,0.8-0.7-1.9-1.6-2
			s3.8,0.5,4.3,1.3c0.6,0.7-2.5-5.8-9.6-6.2L410.3,503.9z"/>
		<path class="st17" d="M421.4,493.1c0,0,2,2.9,2.6,17.2c0,0-21.6,4.8-31.9,3.9l1.2-7.3l19.6-3l-2.3-6.7L421.4,493.1z"/>
		<path class="st20" d="M362.3,503.7c0,0,10.9,8.8,12.8,11.3l17.5-0.1L381,501.5L362.3,503.7z"/>
		<path class="st17" d="M398.7,507.2l-5.5-0.2c0,0-2.6-3.6-3.9-3.9c-0.9-0.2-1.9-0.1-2.8,0.3s-1.6,1-2.2,1.7c0,0-4,0.4-5.7,0.5
			s0.8,6.2,5.3,8.1c4.5,1.8,6.9,1.4,7.1,1.2c0.3-0.2,0.6-0.5,1-0.7l8.5-0.1L398.7,507.2z"/>
		<path class="st21" d="M394.1,617.8c-0.3,2-0.9,3.9-1.7,5.8c-1.2,2.5-3.3,7.8-1.1,8.7c2.2,0.8,7.9,0.9,8.8,0s4.5-2.6,3.4-8.4
			c-1.1-5.8-2.4-7.1-2.4-7.1L394.1,617.8z"/>
		<path class="st22" d="M393.4,613.2v3.1c-1.8,0.8-3.7,1.5-5.6,2c-2.8,0.7-1.8,3.3-5.2,4.6c-3.4,1.3-11.9,1-11.9,1L393.4,613.2z"/>
		<path class="st21" d="M390.3,607.9c0,0,2.9,0.1,3.1,5.4c-1.7,1.1-3.5,2.1-5.4,2.8c-3,1.1-4.6,5.1-6.4,5.6s-11.7,3.1-11.2,2
			s7.1-5.9,7.8-6.9s3-7.4,3-7.4L390.3,607.9z"/>
		<path class="st17" d="M397.3,457.1l0.2,5.1l-8.2,6.6l-5.7-5.2l0.4-5.5L397.3,457.1z"/>
		<path class="st23" d="M380.5,450.7c0,0,2,15.2,9,14.8c6.9-0.4,8.5-9.1,8.5-11.2s0.2-10.5-3.7-14.9c0,0-9.7-3.3-12,2.5
			C379.9,447.8,380.5,450.7,380.5,450.7z"/>
		<path class="st24" d="M380.5,449.7c0,0,2,15.2,9,14.9c6.9-0.4,8.5-9.1,8.5-11.2s0.2-10.5-3.7-14.9c0,0-9.7-3.3-12,2.5
			C379.9,446.8,380.5,449.7,380.5,449.7z"/>
		<path class="st24" d="M399.1,450.6c0.1-1.7-0.4-3.1-1-3.1c-0.7,0-1.2,1.3-1.3,3c-0.1,1.7,0.4,3.1,1,3.1
			C398.5,453.6,399.1,452.3,399.1,450.6z"/>
		<path class="st24" d="M381.3,453.1c0.6-0.1,1-1.5,0.7-3.2s-1-3-1.6-2.9s-1,1.5-0.7,3.2C380,451.9,380.7,453.2,381.3,453.1z"/>
		<path class="st25" d="M379.9,449.6c0,0.7,3.2-2.6,3.7-5.9h11.3c0,0,1.4,6.1,2.2,6.5c0.8,0.4,1.9-0.1,1.4-4.9s-1.1-11.5-8.4-10.7
			C382.8,435.5,379.7,436,379.9,449.6z"/>
		<path class="st26" d="M385,453.3c1.3,0,2.4-1,2.4-2.3s-1.1-2.3-2.4-2.3s-2.4,1-2.4,2.3C382.7,452.3,383.7,453.3,385,453.3z"/>
		<path class="st26" d="M393,453.3c1.3,0,2.4-1,2.4-2.3s-1.1-2.3-2.4-2.3s-2.4,1-2.4,2.3S391.7,453.3,393,453.3z"/>
		<path class="st26" d="M387.4,451h3.2"/>
		<path class="st26" d="M395.3,451l1.8-0.8"/>
		<path class="st26" d="M382.7,451l-2.1-1.3"/>
		<path class="st27" d="M513.8,552.8c-2.6-1.3-4.6-3.5-5.6-6.2c0-0.1-0.2-0.2-0.3-0.2c-0.1-0.1-0.2-0.1-0.2-0.1
			c1.2,3,3.5,5.5,6.5,6.9c0.1,0.1,0-0.1-0.1-0.1C514,552.9,513.9,552.8,513.8,552.8L513.8,552.8z"/>
		<path class="st27" d="M512.3,533.9c0-0.4-0.2-0.9-0.5-1.2c-0.3-0.4-0.7-0.6-1.1-0.8c-0.8-0.3-1.7-0.4-2.6-0.2
			c-0.4,0.1-0.8,0.2-1.2,0.5c-0.3,0.3-0.6,0.6-0.8,1c-0.4,1-0.2,2,0,3c0.1,0.3,0.6,0.1,0.6-0.1c-0.2-0.8-0.3-1.7-0.1-2.5
			c0.1-0.4,0.3-0.7,0.5-0.9c0.3-0.2,0.6-0.4,1-0.5c0.7-0.1,1.5-0.1,2.2,0.2c0.4,0.1,0.7,0.3,1,0.6s0.4,0.7,0.5,1.1
			C511.7,534.3,512.3,534.2,512.3,533.9L512.3,533.9z"/>
		<path class="st27" d="M499.9,554c3.9,2.6,8.4,4.2,13.1,4.4c0.8,0,3.1,0.4,2.8-1c-0.1-0.3-0.7-0.2-0.6,0.1c0.2,0.6-1.6,0.4-2,0.4
			c-0.7,0-1.3-0.1-2-0.2c-1.3-0.2-2.6-0.5-3.9-0.8c-2.5-0.7-4.9-1.9-7.1-3.3c0,0-0.1,0-0.1-0.1H500h-0.1c0,0-0.1,0-0.1,0.1v0.1v0.1
			C499.8,553.9,499.8,553.9,499.9,554L499.9,554L499.9,554z"/>
		<path class="st27" d="M515.3,560.1c1.3,2.1,2.1,4.5,2.4,7c0.3,2.7,0.5,5.3,0.4,8c-0.1,5.6-0.7,11.2-1.7,16.7
			c-0.5,3.1-1.2,6.1-1.8,9.2c-0.1,0.3,0.5,0,0.5-0.2c2.3-10.9,4.5-22.1,3.2-33.3c-0.3-2.7-1-5.4-2.5-7.8
			C515.7,559.6,515.2,559.9,515.3,560.1L515.3,560.1z"/>
		<path class="st28" d="M524.9,515.4c0-0.8-0.2-1.5-0.5-2.2c-0.4-0.7-1-1.2-1.7-1.6s-1.5-0.7-2.3-0.7s-1.6,0.3-2.3,0.7
			c-0.2,0.1,0.3,0.3,0.5,0.2c0.6-0.4,1.3-0.6,2-0.7c0.7,0.1,1.4,0.3,2,0.8c1.2,0.8,1.6,2,1.7,3.3
			C524.3,515.5,524.9,515.5,524.9,515.4L524.9,515.4z"/>
		
			<linearGradient id="SVGID_6_" gradientUnits="userSpaceOnUse" x1="-111547.8438" y1="145170.2031" x2="-128953.7422" y2="167648.2031" gradientTransform="matrix(1 0 0 1 0 28.11)">
			<stop  offset="0" style="stop-color:#050606"/>
			<stop  offset="1" style="stop-color:#595959;stop-opacity:0"/>
		</linearGradient>
		<path class="st29" d="M408.9,621.5c0,0-7.3-4.1-11-4.6c-3.6-0.4-4,2.3-6.8,1.7c-1.9-0.4-3.9-0.7-5.9-0.7l-1.5,2.7
			c-1.5,2.9-1.1,4.5-0.6,5.4l-0.1,0.1l-0.2,0.3c-0.1,0.1-0.1,0.1-0.2,0.2c0,0,0,0.1-0.1,0.3l-0.1,0.2c-0.7,1.3-1.7,3.3-2.8,5.7
			l-22.7,46.9c-1.6,1.4-2.6,2.2-2.6,2.2s9.8-30.6,12-34.2c2.1-3.7,18.6-30.4,18.9-31.4c1.2-1.6,2.7-3.1,4.3-4.3
			c2.3-1.7,6.7-5.4,5.1-7.2s-6.6-4.4-7.7-4c-1.2,0.4-5.2,0.3-7,5.9c-0.4,1.2-0.7,2.4-1,3.6l-1.4-1.3c0,0-14.6,19.2-15.4,19.4
			c-0.5,0.1-19.7,33.7-29.4,50.6c-3.3-0.7-4.4-0.3-4.4-0.3c-1,4.3-2.3,8.5-3.7,12.7H324l-3.3,8.2c-6.7-0.8-13.5-1.9-13.5-1.9
			c-2.3,2-6.4,12.9-8.8,21c-1.2-0.5-2.1-0.9-2.1-0.9s-7.7-2.2-0.7,1.4c0.8,0.4,1.6,0.7,2.4,1c-0.4,1.2-0.7,2.4-0.9,3.4
			c-1.1,4.7-1.5,9.6-1.3,14.4c8.6,8.8,9.2,15.1,9.2,15.1l1.2-1.4l0,0l0,0l-1.9,3.8c-0.9,0.9-1.6,1.8-2.2,2.9
			c-0.1,0.1-0.1,0.2-0.2,0.4c-0.1,0.1-0.2,0.2-0.2,0.4c-0.6-0.1-1.7,0.8-2.5,2.1c-0.7,1.1-1,2.1-0.9,2.8c-0.4,0.7-0.7,1.4-1,2.2
			c-1.9,4.5-4.6,10.6,2.3,13.2c6.5,2.5,9.5,3.5,15.1-6.6c0.7-0.6,1.2-1.4,1.5-2.4c0.4-1.2,0.5-2.4,0.3-2.9c0.7-2.2,1.5-5.7,1.5-8.8
			l1.2-1.9c0,0,9.2-0.7,15.9,0.2c0,0,5.5-2,7.5-5s4.1-8.1,5.9-9.4c1.8-1.3,11.9-9.1,12.1-14.1c0.2-4.3-4.7-8.8-7.1-9.6
			c-0.1-0.4-0.3-0.8-0.4-1.2l0.8-1.2c2.3-3.2,4.2-5.8,5.9-7.9l5.1,0.8c0,0,9.1-5.1,5.5-10.2c-0.6-0.8-1.4-1.5-2.3-2.1l0.1-0.2
			c2.4-3.4,6.3-9.2,8.6-14.8c3.5-8.4,15.1-48.7,16.5-53.3c1.5-1.3,4.5-4.1,5.4-4.5c1.1-0.5,9.2-1.8,10.2-2.5
			C409.2,621.7,409.1,621.6,408.9,621.5z M314.1,713.3l2.2-4.5l0.6,0.2l-0.9,2.2l-1.4,1.3c0,0-0.6,1-1.3,2.3l0.2-1.8
			C313.7,713.1,313.9,713.2,314.1,713.3z"/>
		<path class="st30" d="M576,515.6H177.5v14.6H576V515.6z"/>
		<path class="st30" d="M220.8,618.1v-90.2h-11.1v90.2H220.8z"/>
		<path class="st30" d="M543.6,618.1v-90.2h-11v90.2H543.6z"/>
		<path class="st31" d="M576,523H177.5v7.1H576V523z"/>
		<path class="st32" d="M421.7,484.6h-55.2c-0.5,0-1,0.4-1,1v31.9c0,0.5,0.4,1,1,1h55.2c0.5,0,1-0.4,1-1v-31.9
			C422.6,485,422.2,484.6,421.7,484.6z"/>
		<path class="st33" d="M461.4,519.8l5.9-4.5c0,0,0.1-0.5-0.4-0.5s-33.6,0-33.6,0l-3.1,5H461.4z"/>
		<path class="st34" d="M461.4,512.9h-31.2v6.9h31.2V512.9z"/>
		<path class="st33" d="M461.4,512.9l4.6-2h-32.4l-3.4,2H461.4z"/>
		<path class="st35" d="M466,510.9v0.4l-4.6,2v-0.4L466,510.9z"/>
		<path class="st36" d="M465.3,511.7v3.9l-3.9,2.7v-4.9L465.3,511.7z"/>
		<path class="st37" d="M456.9,517.9c0.9,0,1.5-0.7,1.5-1.5s-0.7-1.5-1.5-1.5c-0.9,0-1.5,0.7-1.5,1.5S456,517.9,456.9,517.9z"/>
		<path class="st36" d="M452.8,514.3h-21v4.3h21V514.3z"/>
		<path class="st38" d="M461.4,512.2l5.9-4.5c0,0,0.1-0.5-0.4-0.5s-33.6,0-33.6,0l-3.1,5H461.4z"/>
		<path class="st39" d="M461.4,505.3h-31.2v6.9h31.2V505.3z"/>
		<path class="st40" d="M461.4,505.3l4.6-2h-32.4l-3.4,2H461.4z"/>
		<path class="st38" d="M466,503.3v0.4l-4.6,2v-0.4L466,503.3z"/>
		<path class="st36" d="M465.3,504.1v3.9l-3.9,2.7v-4.9L465.3,504.1z"/>
		<path class="st37" d="M456.9,510.3c0.9,0,1.5-0.7,1.5-1.5s-0.7-1.5-1.5-1.5c-0.9,0-1.5,0.7-1.5,1.5
			C455.3,509.6,456,510.3,456.9,510.3z"/>
		<path class="st36" d="M452.8,506.7h-21v4.3h21V506.7z"/>
		<path class="st33" d="M526.6,521.8l5.9-4.5c0,0,0.1-0.5-0.4-0.5s-33.6,0-33.6,0l-3.1,5H526.6z"/>
		<path class="st34" d="M526.6,514.9h-31.2v6.9h31.2V514.9z"/>
		<path class="st33" d="M526.6,514.9l4.6-2h-32.4l-3.4,2H526.6z"/>
		<path class="st35" d="M531.2,512.9v0.4l-4.6,2v-0.4L531.2,512.9z"/>
		<path class="st36" d="M530.4,513.7v3.9l-3.9,2.7v-4.9L530.4,513.7z"/>
		<path class="st37" d="M522,519.9c0.9,0,1.5-0.7,1.5-1.5s-0.7-1.5-1.5-1.5c-0.9,0-1.5,0.7-1.5,1.5S521.2,519.9,522,519.9z"/>
		<path class="st36" d="M517.9,516.3h-21v4.3h21V516.3z"/>
		<path class="st41" d="M527.6,492.4l5.9-4.5c0,0,0.1-0.5-0.4-0.5s-33.6,0-33.6,0l-3.1,5H527.6z"/>
		<path class="st42" d="M527.6,485.5h-31.2v6.9h31.2V485.5z"/>
		<path class="st43" d="M527.6,485.5l4.6-2h-32.4l-3.4,2H527.6z"/>
		<path class="st41" d="M532.2,483.6v0.4l-4.6,2v-0.4L532.2,483.6z"/>
		<path class="st36" d="M531.5,484.3v3.9l-3.9,2.7V486L531.5,484.3z"/>
		<path class="st37" d="M523.1,490.5c0.9,0,1.5-0.7,1.5-1.5s-0.7-1.5-1.5-1.5c-0.9,0-1.5,0.7-1.5,1.5
			C521.5,489.8,522.2,490.5,523.1,490.5z"/>
		<path class="st36" d="M519,487h-21v4.3h21V487z"/>
		<path class="st38" d="M526.6,514.2l5.9-4.5c0,0,0.1-0.5-0.4-0.5s-33.6,0-33.6,0l-3.1,5H526.6z"/>
		<path class="st39" d="M526.6,507.3h-31.2v6.9h31.2V507.3z"/>
		<path class="st40" d="M526.6,507.3l4.6-2h-32.4l-3.4,2H526.6z"/>
		<path class="st38" d="M531.2,505.3v0.4l-4.6,2v-0.4L531.2,505.3z"/>
		<path class="st36" d="M530.4,506v3.9l-3.9,2.7v-4.9L530.4,506z"/>
		<path class="st37" d="M522,512.2c0.9,0,1.5-0.7,1.5-1.5s-0.7-1.5-1.5-1.5c-0.9,0-1.5,0.7-1.5,1.5S521.2,512.2,522,512.2z"/>
		<path class="st36" d="M517.9,508.7h-21v4.3h21V508.7z"/>
		<path class="st44" d="M501.3,507.5l-5.9-4.5c0,0-0.1-0.5,0.4-0.5s33.6,0,33.6,0l3.1,5H501.3z"/>
		<path class="st45" d="M532.5,500.6h-31.2v6.9h31.2V500.6z"/>
		<path class="st46" d="M501.3,500.6l-4.6-2H529l3.4,2H501.3z"/>
		<path class="st44" d="M496.6,498.6v0.4l4.6,2v-0.4L496.6,498.6z"/>
		<path class="st36" d="M497.4,499.3v3.9l3.9,2.7V501L497.4,499.3z"/>
		<path class="st37" d="M505.8,505.5c0.9,0,1.5-0.7,1.5-1.5s-0.7-1.5-1.5-1.5c-0.9,0-1.5,0.7-1.5,1.5S505,505.5,505.8,505.5z"/>
		<path class="st36" d="M509.9,506.2h21V502h-21L509.9,506.2L509.9,506.2z"/>
		<path class="st47" d="M528.9,492.4h-31.2v6.9h31.2V492.4z"/>
		<path class="st37" d="M502.2,497.4c0.9,0,1.5-0.7,1.5-1.5s-0.7-1.5-1.5-1.5c-0.9,0-1.5,0.7-1.5,1.5
			C500.7,496.7,501.4,497.4,502.2,497.4z"/>
		<path class="st48" d="M505.4,499.3H534c0,0-12.3,7.1-12.7,8.1C521.3,507.5,509.5,499.3,505.4,499.3z"/>
		<path class="st36" d="M506.3,498.1h21v-4.3h-21V498.1z"/>
		<path class="st20" d="M505.4,499.3H534c0,0-8.7,7-9.1,8C524.9,507.4,509.5,499.3,505.4,499.3z"/>
		<path class="st49" d="M527.8,488.4c0,0,3.7,0.2,6.2-1.6l3.2-2.8c0,0-4.4,2.1-5.8,2.4L527.8,488.4z"/>
		<path class="st33" d="M493.3,520.1l5.9-4.5c0,0,0.1-0.5-0.4-0.5s-33.6,0-33.6,0l-3.1,5H493.3z"/>
		<path class="st34" d="M493.3,513.2h-31.2v6.9h31.2V513.2z"/>
		<path class="st33" d="M493.3,513.2l4.6-2h-32.4l-3.4,2H493.3z"/>
		<path class="st35" d="M497.9,511.2v0.4l-4.6,2v-0.4L497.9,511.2z"/>
		<path class="st36" d="M497.1,512v3.9l-3.9,2.7v-4.9L497.1,512z"/>
		<path class="st37" d="M488.7,518.2c0.9,0,1.5-0.7,1.5-1.5s-0.7-1.5-1.5-1.5c-0.9,0-1.5,0.7-1.5,1.5S487.9,518.2,488.7,518.2z"/>
		<path class="st36" d="M484.6,514.6h-21v4.3h21V514.6z"/>
		<path class="st41" d="M494.3,490.8l5.9-4.5c0,0,0.1-0.5-0.4-0.5s-33.6,0-33.6,0l-3.1,5H494.3z"/>
		<path class="st42" d="M494.3,483.8h-31.2v6.9h31.2V483.8z"/>
		<path class="st43" d="M494.3,483.9l4.6-2h-32.4l-3.4,2H494.3z"/>
		<path class="st41" d="M498.9,481.9v0.4l-4.6,2v-0.4L498.9,481.9z"/>
		<path class="st36" d="M498.2,482.6v3.9l-3.9,2.7v-4.9L498.2,482.6z"/>
		<path class="st37" d="M489.8,488.8c0.9,0,1.5-0.7,1.5-1.5s-0.7-1.5-1.5-1.5c-0.9,0-1.5,0.7-1.5,1.5
			C488.2,488.1,488.9,488.8,489.8,488.8z"/>
		<path class="st36" d="M485.6,485.3h-21v4.3h21V485.3z"/>
		<path class="st38" d="M493.3,512.5l5.9-4.5c0,0,0.1-0.5-0.4-0.5s-33.6,0-33.6,0l-3.1,5H493.3z"/>
		<path class="st39" d="M493.3,505.6h-31.2v6.9h31.2V505.6z"/>
		<path class="st40" d="M493.3,505.6l4.6-2h-32.4l-3.4,2H493.3z"/>
		<path class="st38" d="M497.9,503.6v0.4l-4.6,2v-0.4L497.9,503.6z"/>
		<path class="st36" d="M497.1,504.3v3.9l-3.9,2.7V506L497.1,504.3z"/>
		<path class="st37" d="M488.7,510.5c0.9,0,1.5-0.7,1.5-1.5s-0.7-1.5-1.5-1.5c-0.9,0-1.5,0.7-1.5,1.5
			C487.2,509.9,487.9,510.5,488.7,510.5z"/>
		<path class="st36" d="M484.6,507h-21v4.3h21V507z"/>
		<path class="st44" d="M468,505.8l-5.9-4.5c0,0-0.1-0.5,0.4-0.5s33.6,0,33.6,0l3.1,5H468z"/>
		<path class="st45" d="M499.2,498.9H468v6.9h31.2V498.9z"/>
		<path class="st46" d="M468,498.9l-4.6-2h32.4l3.4,2H468z"/>
		<path class="st44" d="M463.3,496.9v0.4l4.6,2v-0.4L463.3,496.9z"/>
		<path class="st36" d="M464.1,497.6v3.9l3.9,2.7v-4.9L464.1,497.6z"/>
		<path class="st37" d="M472.5,503.8c0.9,0,1.5-0.7,1.5-1.5s-0.7-1.5-1.5-1.5s-1.5,0.7-1.5,1.5C471,503.1,471.6,503.8,472.5,503.8z"
			/>
		<path class="st36" d="M476.6,504.5h21v-4.3h-21V504.5z"/>
		<path class="st47" d="M495.6,490.8h-31.2v6.9h31.2V490.8z"/>
		<path class="st37" d="M468.9,495.7c0.9,0,1.5-0.7,1.5-1.5s-0.7-1.5-1.5-1.5c-0.9,0-1.5,0.7-1.5,1.5S468.1,495.7,468.9,495.7z"/>
		<path class="st48" d="M472.1,497.6h28.6c0,0-12.3,7.1-12.7,8.1C488,505.8,476.2,497.6,472.1,497.6z"/>
		<path class="st36" d="M473,496.4h21v-4.3h-21V496.4z"/>
		<path class="st20" d="M472.1,497.6h28.6c0,0-8.7,7-9.1,8C491.6,505.7,476.2,497.6,472.1,497.6z"/>
		<path class="st49" d="M494.5,486.7c0,0,3.7,0.2,6.2-1.6l3.2-2.8c0,0-4.4,2.1-5.8,2.4L494.5,486.7z"/>
		<path class="st33" d="M493.9,485.3l5.9-4.5c0,0,0.1-0.5-0.4-0.5s-33.6,0-33.6,0l-3.1,5H493.9z"/>
		<path class="st34" d="M493.9,478.4h-31.2v6.9h31.2V478.4z"/>
		<path class="st33" d="M493.9,478.4l4.6-2h-32.4l-3.4,2H493.9z"/>
		<path class="st35" d="M498.5,476.4v0.4l-4.6,2v-0.4L498.5,476.4z"/>
		<path class="st36" d="M497.8,477.1v3.9l-3.9,2.7v-4.9L497.8,477.1z"/>
		<path class="st37" d="M489.3,483.3c0.9,0,1.5-0.7,1.5-1.5s-0.7-1.5-1.5-1.5s-1.5,0.7-1.5,1.5C487.8,482.6,488.5,483.3,489.3,483.3
			z"/>
		<path class="st36" d="M485.2,479.8h-21v4.3h21V479.8z"/>
		<path class="st41" d="M494.9,455.9l5.9-4.5c0,0,0.1-0.5-0.4-0.5s-33.6,0-33.6,0l-3.1,5H494.9z"/>
		<path class="st42" d="M494.9,449h-31.2v6.9h31.2V449z"/>
		<path class="st43" d="M494.9,449l4.6-2h-32.4l-3.4,2H494.9z"/>
		<path class="st41" d="M499.5,447v0.4l-4.6,2V449L499.5,447z"/>
		<path class="st36" d="M498.8,447.8v3.9l-3.9,2.7v-4.9L498.8,447.8z"/>
		<path class="st37" d="M490.4,454c0.9,0,1.5-0.7,1.5-1.5s-0.7-1.5-1.5-1.5c-0.9,0-1.5,0.7-1.5,1.5C488.8,453.3,489.5,454,490.4,454
			z"/>
		<path class="st36" d="M486.3,450.4h-21v4.3h21V450.4z"/>
		<path class="st38" d="M493.9,477.6l5.9-4.5c0,0,0.1-0.5-0.4-0.5s-33.6,0-33.6,0l-3.1,5H493.9z"/>
		<path class="st39" d="M493.9,470.7h-31.2v6.9h31.2V470.7z"/>
		<path class="st40" d="M493.9,470.7l4.6-2h-32.4l-3.4,2H493.9z"/>
		<path class="st38" d="M498.5,468.7v0.4l-4.6,2v-0.4L498.5,468.7z"/>
		<path class="st36" d="M497.8,469.5v3.9l-3.9,2.7v-4.9L497.8,469.5z"/>
		<path class="st37" d="M489.3,475.7c0.9,0,1.5-0.7,1.5-1.5s-0.7-1.5-1.5-1.5s-1.5,0.7-1.5,1.5S488.5,475.7,489.3,475.7z"/>
		<path class="st36" d="M485.2,472.1h-21v4.3h21V472.1z"/>
		<path class="st44" d="M468.6,470.9l-5.9-4.5c0,0-0.1-0.5,0.4-0.5s33.6,0,33.6,0l3.1,5H468.6z"/>
		<path class="st45" d="M499.8,464h-31.2v6.9h31.2V464z"/>
		<path class="st46" d="M468.6,464l-4.6-2h32.4l3.4,2H468.6z"/>
		<path class="st44" d="M463.9,462v0.4l4.6,2V464L463.9,462z"/>
		<path class="st36" d="M464.7,462.8v3.9l3.9,2.7v-4.9L464.7,462.8z"/>
		<path class="st37" d="M473.1,469c0.9,0,1.5-0.7,1.5-1.5s-0.7-1.5-1.5-1.5s-1.5,0.7-1.5,1.5S472.3,469,473.1,469z"/>
		<path class="st36" d="M477.2,469.7h21v-4.3h-21V469.7z"/>
		<path class="st47" d="M496.2,455.9H465v6.9h31.2V455.9z"/>
		<path class="st37" d="M469.5,460.9c0.9,0,1.5-0.7,1.5-1.5s-0.7-1.5-1.5-1.5c-0.9,0-1.5,0.7-1.5,1.5
			C468,460.2,468.7,460.9,469.5,460.9z"/>
		<path class="st48" d="M472.7,462.8h28.6c0,0-12.3,7.1-12.7,8.1C488.6,470.9,476.8,462.7,472.7,462.8z"/>
		<path class="st36" d="M473.6,461.6h21v-4.3h-21V461.6z"/>
		<path class="st20" d="M472.7,462.8h28.6c0,0-8.7,7-9.1,8C492.2,470.9,476.8,462.7,472.7,462.8z"/>
		<path class="st49" d="M495.1,451.9c0,0,3.7,0.2,6.2-1.6l3.2-2.8c0,0-4.4,2.1-5.8,2.4L495.1,451.9z"/>
		<path class="st28" d="M503.4,514.7c-0.6,0-1.2,0.1-1.7,0.4c-0.2,0.1-0.4,0.3-0.6,0.5s-0.2,0.5-0.2,0.7s0.6,0.4,0.6,0.2
			s0.1-0.5,0.2-0.7s0.3-0.4,0.5-0.5c0.5-0.2,1.1-0.4,1.6-0.4c0.1,0,0-0.2,0-0.2C503.6,514.8,503.5,514.7,503.4,514.7L503.4,514.7z"
			/>
		<path class="st28" d="M495.9,518.7c-0.3,0.3-0.7,0.7-1,1s-0.6,0.6-0.7,1c-0.4,0.8-0.4,1.6-0.2,2.5c0.1,0.3,0.7,0.1,0.6-0.2
			c-0.2-0.8-0.1-1.6,0.3-2.3c0.2-0.3,0.4-0.6,0.7-0.9c0.4-0.3,0.7-0.6,1-0.9v-0.1v-0.1c0,0,0-0.1-0.1-0.1h-0.1c-0.1,0-0.2,0-0.2,0
			C496,518.6,496,518.6,495.9,518.7L495.9,518.7z"/>
		<path class="st28" d="M493.7,543.9c-0.3,0.6-0.4,1.3-0.3,2c0,0.3,0.2,0.6,0.3,0.8c0.2,0.2,0.4,0.5,0.7,0.6
			c0.6,0.3,1.2,0.5,1.9,0.5c0.7,0,1.3-0.1,2-0.3c0.1,0,0.1-0.2,0-0.2s-0.1-0.1-0.2-0.1s-0.1,0-0.2,0c-0.5,0.2-1.1,0.3-1.6,0.3
			c-0.6,0-1.1-0.2-1.6-0.5c-1-0.7-0.7-2.1-0.3-3C494.4,543.8,493.8,543.7,493.7,543.9L493.7,543.9z"/>
		
			<linearGradient id="SVGID_7_" gradientUnits="userSpaceOnUse" x1="661.2017" y1="409.408" x2="865.5228" y2="470.992" gradientTransform="matrix(1 0 0 1 0 28.11)">
			<stop  offset="0" style="stop-color:#B09DCC"/>
			<stop  offset="1" style="stop-color:#6751A2"/>
		</linearGradient>
		<path class="st50" d="M865.4,405.6H652.3v122.7h213.1V405.6z"/>
		
			<linearGradient id="SVGID_8_" gradientUnits="userSpaceOnUse" x1="660.9628" y1="413.2573" x2="853.4399" y2="463.5353" gradientTransform="matrix(1 0 0 1 0 28.11)">
			<stop  offset="0" style="stop-color:#A094C7"/>
			<stop  offset="1" style="stop-color:#684EA0"/>
		</linearGradient>
		<path class="st51" d="M858.5,414.5H659.3v104.9h199.2V414.5z"/>
		
			<linearGradient id="SVGID_9_" gradientUnits="userSpaceOnUse" x1="721.497" y1="438.84" x2="723.497" y2="438.84" gradientTransform="matrix(1 0 0 1 0 28.11)">
			<stop  offset="0" style="stop-color:#B09DCC"/>
			<stop  offset="1" style="stop-color:#6751A2"/>
		</linearGradient>
		<path class="st52" d="M722.5,414.5v104.9"/>
		
			<linearGradient id="SVGID_10_" gradientUnits="userSpaceOnUse" x1="794.241" y1="438.84" x2="796.241" y2="438.84" gradientTransform="matrix(1 0 0 1 0 28.11)">
			<stop  offset="0" style="stop-color:#B09DCC"/>
			<stop  offset="1" style="stop-color:#6751A2"/>
		</linearGradient>
		<path class="st53" d="M795.2,414.5v104.9"/>
		
			<linearGradient id="SVGID_11_" gradientUnits="userSpaceOnUse" x1="666.217" y1="414.84" x2="680.77" y2="414.84" gradientTransform="matrix(1 0 0 1 0 28.11)">
			<stop  offset="0" style="stop-color:#EF58A0"/>
			<stop  offset="1" style="stop-color:#EE4498"/>
		</linearGradient>
		<path class="st54" d="M680.8,439.4h-14.6v7.1h14.6V439.4z"/>
		
			<linearGradient id="SVGID_12_" gradientUnits="userSpaceOnUse" x1="15727.7002" y1="414.84" x2="16160" y2="414.84" gradientTransform="matrix(1 0 0 1 0 28.11)">
			<stop  offset="0" style="stop-color:#EF58A0"/>
			<stop  offset="1" style="stop-color:#EE4498"/>
		</linearGradient>
		<path class="st55" d="M698.4,439.4h-14.6v7.1h14.6V439.4z"/>
		
			<linearGradient id="SVGID_13_" gradientUnits="userSpaceOnUse" x1="16239.4004" y1="414.84" x2="16671.9004" y2="414.84" gradientTransform="matrix(1 0 0 1 0 28.11)">
			<stop  offset="0" style="stop-color:#EF58A0"/>
			<stop  offset="1" style="stop-color:#EE4498"/>
		</linearGradient>
		<path class="st56" d="M715,439.4h-14.6v7.1H715V439.4z"/>
		
			<linearGradient id="SVGID_14_" gradientUnits="userSpaceOnUse" x1="15187.0996" y1="425.54" x2="15619.4004" y2="425.54" gradientTransform="matrix(1 0 0 1 0 28.11)">
			<stop  offset="0" style="stop-color:#EF58A0"/>
			<stop  offset="1" style="stop-color:#EE4498"/>
		</linearGradient>
		<path class="st57" d="M680.8,450.1h-14.6v7.1h14.6V450.1z"/>
		
			<linearGradient id="SVGID_15_" gradientUnits="userSpaceOnUse" x1="15727.7002" y1="425.54" x2="16160" y2="425.54" gradientTransform="matrix(1 0 0 1 0 28.11)">
			<stop  offset="0" style="stop-color:#EF58A0"/>
			<stop  offset="1" style="stop-color:#EE4498"/>
		</linearGradient>
		<path class="st58" d="M698.4,450.1h-14.6v7.1h14.6V450.1z"/>
		
			<linearGradient id="SVGID_16_" gradientUnits="userSpaceOnUse" x1="15158.2002" y1="442.34" x2="15590.5" y2="442.34" gradientTransform="matrix(1 0 0 1 0 28.11)">
			<stop  offset="0" style="stop-color:#EF58A0"/>
			<stop  offset="1" style="stop-color:#EE4498"/>
		</linearGradient>
		<path class="st59" d="M679.8,466.9h-14.6v7.1h14.6V466.9z"/>
		
			<linearGradient id="SVGID_17_" gradientUnits="userSpaceOnUse" x1="15698.7998" y1="442.34" x2="16131.2002" y2="442.34" gradientTransform="matrix(1 0 0 1 0 28.11)">
			<stop  offset="0" style="stop-color:#EF58A0"/>
			<stop  offset="1" style="stop-color:#EE4498"/>
		</linearGradient>
		<path class="st60" d="M697.4,466.9h-14.6v7.1h14.6V466.9z"/>
		
			<linearGradient id="SVGID_18_" gradientUnits="userSpaceOnUse" x1="16210.7002" y1="442.34" x2="16643" y2="442.34" gradientTransform="matrix(1 0 0 1 0 28.11)">
			<stop  offset="0" style="stop-color:#EF58A0"/>
			<stop  offset="1" style="stop-color:#EE4498"/>
		</linearGradient>
		<path class="st61" d="M714.1,466.9h-14.6v7.1h14.6V466.9z"/>
		
			<linearGradient id="SVGID_19_" gradientUnits="userSpaceOnUse" x1="15158.2002" y1="453.14" x2="15590.5" y2="453.14" gradientTransform="matrix(1 0 0 1 0 28.11)">
			<stop  offset="0" style="stop-color:#EF58A0"/>
			<stop  offset="1" style="stop-color:#EE4498"/>
		</linearGradient>
		<path class="st62" d="M679.8,477.7h-14.6v7.1h14.6V477.7z"/>
		
			<linearGradient id="SVGID_20_" gradientUnits="userSpaceOnUse" x1="15158.2002" y1="463.84" x2="15590.5" y2="463.84" gradientTransform="matrix(1 0 0 1 0 28.11)">
			<stop  offset="0" style="stop-color:#EF58A0"/>
			<stop  offset="1" style="stop-color:#EE4498"/>
		</linearGradient>
		<path class="st63" d="M679.8,488.4h-14.6v7.1h14.6V488.4z"/>
		
			<linearGradient id="SVGID_21_" gradientUnits="userSpaceOnUse" x1="15698.7998" y1="463.84" x2="16131.2002" y2="463.84" gradientTransform="matrix(1 0 0 1 0 28.11)">
			<stop  offset="0" style="stop-color:#EF58A0"/>
			<stop  offset="1" style="stop-color:#EE4498"/>
		</linearGradient>
		<path class="st64" d="M697.4,488.4h-14.6v7.1h14.6V488.4z"/>
		
			<linearGradient id="SVGID_22_" gradientUnits="userSpaceOnUse" x1="15698.7998" y1="453.14" x2="16131.2002" y2="453.14" gradientTransform="matrix(1 0 0 1 0 28.11)">
			<stop  offset="0" style="stop-color:#EF58A0"/>
			<stop  offset="1" style="stop-color:#EE4498"/>
		</linearGradient>
		<path class="st65" d="M697.4,477.7h-14.6v7.1h14.6V477.7z"/>
		
			<linearGradient id="SVGID_23_" gradientUnits="userSpaceOnUse" x1="734.458" y1="400.44" x2="749.011" y2="400.44" gradientTransform="matrix(1 0 0 1 0 28.11)">
			<stop  offset="0" style="stop-color:#8BCFB4"/>
			<stop  offset="1" style="stop-color:#67C8C7"/>
		</linearGradient>
		<path class="st66" d="M749,425h-14.6v7.1H749V425z"/>
		
			<linearGradient id="SVGID_24_" gradientUnits="userSpaceOnUse" x1="17823.5" y1="400.44" x2="18255.8008" y2="400.44" gradientTransform="matrix(1 0 0 1 0 28.11)">
			<stop  offset="0" style="stop-color:#8BCFB4"/>
			<stop  offset="1" style="stop-color:#67C8C7"/>
		</linearGradient>
		<path class="st67" d="M766.6,425H752v7.1h14.6V425z"/>
		
			<linearGradient id="SVGID_25_" gradientUnits="userSpaceOnUse" x1="18335.1992" y1="400.44" x2="18767.5996" y2="400.44" gradientTransform="matrix(1 0 0 1 0 28.11)">
			<stop  offset="0" style="stop-color:#8BCFB4"/>
			<stop  offset="1" style="stop-color:#67C8C7"/>
		</linearGradient>
		<path class="st68" d="M783.3,425h-14.6v7.1h14.6V425z"/>
		
			<linearGradient id="SVGID_26_" gradientUnits="userSpaceOnUse" x1="17823.5" y1="411.24" x2="18255.8008" y2="411.24" gradientTransform="matrix(1 0 0 1 0 28.11)">
			<stop  offset="0" style="stop-color:#8BCFB4"/>
			<stop  offset="1" style="stop-color:#67C8C7"/>
		</linearGradient>
		<path class="st69" d="M766.6,435.8H752v7.1h14.6V435.8z"/>
		<path class="st70" d="M819.2,426.9h-14.6v7.1h14.6V426.9z"/>
		<path class="st70" d="M836.8,426.9h-14.6v7.1h14.6V426.9z"/>
		<path class="st70" d="M853.5,426.9h-14.6v7.1h14.6V426.9z"/>
		<path class="st71" d="M836.8,478.5h-14.6v7.1h14.6V478.5z"/>
		<path class="st71" d="M836.8,488.3h-14.6v7.1h14.6V488.3z"/>
		<path class="st71" d="M836.8,498.1h-14.6v7.1h14.6V498.1z"/>
		<path class="st71" d="M819.2,478.5h-14.6v7.1h14.6V478.5z"/>
		<path class="st71" d="M819.2,488.3h-14.6v7.1h14.6V488.3z"/>
		<path class="st71" d="M819.2,498.1h-14.6v7.1h14.6V498.1z"/>
		<path class="st71" d="M853.5,478.5h-14.6v7.1h14.6V478.5z"/>
		<path class="st71" d="M853.5,488.3h-14.6v7.1h14.6V488.3z"/>
		<path class="st71" d="M853.5,498.1h-14.6v7.1h14.6V498.1z"/>
		<path class="st70" d="M836.8,437.6h-14.6v7.1h14.6V437.6z"/>
		
			<linearGradient id="SVGID_27_" gradientUnits="userSpaceOnUse" x1="16210.7002" y1="453.14" x2="16643" y2="453.14" gradientTransform="matrix(1 0 0 1 0 28.11)">
			<stop  offset="0" style="stop-color:#EF58A0"/>
			<stop  offset="1" style="stop-color:#EE4498"/>
		</linearGradient>
		<path class="st72" d="M714.1,477.7h-14.6v7.1h14.6V477.7z"/>
		<path class="st73" d="M661.3,644.1l-2.2-7.9l8.8-2.7l0.3,10L661.3,644.1z"/>
		<path class="st74" d="M668.4,642.4c-1.7,0.7-5.8,0.9-7.6,0.9h-0.3l-0.6,7.6h21.6c4.1,0,2.1-2,0.5-3
			C678.1,647.8,671.3,644.2,668.4,642.4z"/>
		<path class="st73" d="M618.1,632.7l2.1-7.9l9,1.9l-4.8,8.8L618.1,632.7z"/>
		<path class="st74" d="M625.2,634.7c-1.9-0.2-5.5-2.1-7.1-3l-0.2-0.1l-4.3,6.3l18.7,10.6c3.6,2,2.8-0.7,2-2.4
			C630.8,644.2,626.8,637.7,625.2,634.7z"/>
		<path class="st75" d="M694.4,508.5l-23.1,5.8l-4.4-8.9h25.6L694.4,508.5z"/>
		<path class="st76" d="M696.5,487.7l-20.8,20.7l-0.1,0.1v0.1c0,0,0,0.1,0.1,0.1h0.1h18.4c0.1,0,0.1,0,0.2-0.1l23.5-21.9l0.1-0.1
			v-0.1l-0.1-0.1c0,0-0.1,0-0.2,0l-21.1,1.2C696.7,487.6,696.6,487.6,696.5,487.7C696.6,487.6,696.5,487.7,696.5,487.7z"/>
		<path class="st77" d="M667.3,497.6c9.8-12.1-0.8-18.3-4.5-22.9c0.3-0.3-0.9,0-2.1,0c-1.2,0-5.8-1.7-11.6,1.4
			c-7.5,10.5-5.3,33.2-3.5,42.7c9.2,0.2,22.2,3.3,22.2,1.8c0-0.2,0-0.5,0-0.7c0-0.1,0-1.1,0-2.1
			C667.9,513.7,667.3,510.6,667.3,497.6z"/>
		<path class="st78" d="M641.1,540.2c-2-8.8,2.6-18,4.6-21.4l22.1,1.1c0.8,13.2-25,81.2-41.2,113.6l-8.8-3.8
			C626.4,603.5,643.1,549,641.1,540.2z"/>
		<path class="st75" d="M644.4,512.7l-0.6-18.4l9.7-0.9l-1.6,14.4l23.8-12.4l2.5,3.7L650.1,517h-1.2c-1.2,0-2.3-0.5-3.1-1.3
			C644.9,515,644.4,513.9,644.4,512.7L644.4,512.7z"/>
		<path class="st75" d="M687.8,494c-2.3-4.1-9.1-0.9-12.1,1.5l2.5,3.7c1.8-2.1,6.3,0.8,6.3-0.7c0-1.2-0.9-0.8-2.5-1
			c0.5-1.2,3.8-2.7,5.5-3.1h0.1l0.1-0.1v-0.1C687.8,494.1,687.8,494,687.8,494z"/>
		<path class="st79" d="M669.2,638l-1-118.5l-22.7-0.7l14.2,119.3L669.2,638z"/>
		<path class="st80" d="M642.6,483.3c0-1.8,0.7-3.5,2-4.8s3-2,4.9-2l0,0c1.8,0,3.6,0.7,4.9,2c1.3,1.3,2,3,2,4.8v11h-13.7v-11H642.6z
			"/>
		<path class="st73" d="M671.8,460.6c0.2-0.6,0.3-1.3,0.2-2c-0.1-2.1-0.8-4.1-2-5.8l-0.1-0.2c-10.5-5.5-15,3.5-16,8.7l1.3,15.4
			l7.5,1.9c0.2,0,0.3,0,0.5,0s0.3-0.1,0.4-0.2c0.1-0.1,0.2-0.2,0.3-0.4c0.1-0.1,0.1-0.3,0.1-0.5l-0.5-5.5c1.7,0,3.5,0.2,5.2,0.6
			c2.9,0.6,2.3-2,2.4-2.4c0.1-0.2,0.5-0.6,0.8-0.9l0.1-0.1v-0.1V469c0,0,0-0.1-0.1-0.1l-0.1-0.1v-0.1v-0.1c0,0,0-0.1,0.1-0.1
			l0.3-0.3c0.1-0.1,0.1-0.2,0.1-0.3c0-0.1,0-0.2-0.1-0.3l-0.3-0.4v-0.1c0-0.1,0-0.1,0-0.1l1.3-1.4c0.1-0.1,0.1-0.2,0.1-0.3
			s0-0.2-0.1-0.3C672.4,463.8,671.3,462,671.8,460.6z"/>
		<path class="st25" d="M654.6,467.4c0.5,2.8-1-1-1.6-3.3c-0.8-1-3-6.5-2.1-9.8c0.6-2.4,1.4-4.9,5.5-5.3c-7.4,0.3-2.8,0,1.1-0.1
			l-0.6-0.6c-1.3-1.3-2.5-2.1-3.3-2.1c-6.7,0.3-15.4,1.5-18.8-1.8c-2.7-2.6-7.6-1.1-9.7,0c-13,4.5-35.7-0.6-22.7-10.1s13.3-5,23.6,0
			s8.2-0.6,21.5,0.9c10.6,1.2,11.1,9.6,10,13.7c-3.9,0.1-8.5,0.4-1.1,0.1c0.3,0,0.7-0.1,1.1-0.1h0.9c12.7-0.6,14.3,9.2,13.3,8.3
			c-1.1-1-10.5-1-11.4,4.7c-2.1-2.7-2.6-3.8-3.8-2.3C655.3,461,654.1,464.2,654.6,467.4z"/>
		<path class="st81" d="M1066.8,554.4h4.3l-0.5,4.2h-3.5L1066.8,554.4z"/>
		<path class="st82" d="M1067.2,553.7h5.1c0.2,0,0.4,0.1,0.6,0.2c0.2,0.1,0.2,0.3,0.2,0.5l0,0c0,0.2-0.1,0.4-0.2,0.5
			c-0.2,0.1-0.3,0.2-0.6,0.2h-5.1c-0.2,0-0.4-0.1-0.6-0.2c-0.2-0.1-0.2-0.3-0.2-0.5s0.1-0.4,0.2-0.5
			C1066.8,553.7,1067,553.7,1067.2,553.7L1067.2,553.7z"/>
		<path class="st83" d="M1065.9,549.7c1.9,1.7,2.4,3.3,2.3,3.9h1c0.7-4.7,2-14.3,1.8-15.1c-0.3-0.9-0.3-1-2.8-1s-1.5-0.8-2.6-1.2
			c-0.6-0.3-1.3,0.2-1.7,0.6c-0.1,0.1-0.2,0.3-0.2,0.4c0,0.2,0.1,0.3,0.2,0.4l0.2,0.3l-0.5-0.2c-0.1-0.1-0.3-0.1-0.4,0
			c-0.1,0-0.3,0.1-0.3,0.2c-0.5,0.8-0.1,2.3,0.4,3.2c0.1,0.1,0.2,0.2,0.3,0.3c0.1,0.1,0.3,0.1,0.4,0.1h1.1l-0.4,0.5
			c-0.1,0.1-0.1,0.2-0.2,0.3c0,0.1,0,0.3,0,0.4c0.3,1,0.5,2.4,0,2.7c-0.4,0.3-0.4,1.2-0.3,1.9c0,0.2,0.1,0.3,0.2,0.4
			c0.1,0.1,0.3,0.2,0.4,0.2c0.3,0,0.7,0.2,0.9,0.4C1066.2,548.9,1065.6,549.5,1065.9,549.7z"/>
		<path class="st84" d="M1069.1,553.3c-0.3-4.1-0.9-12.7-1.2-14.2"/>
		<path class="st82" d="M1067.2,555.6h3.9l-0.2,1.9h-3.7L1067.2,555.6z"/>
		<path class="st85" d="M1071.5,551.1c-1.1,0.6-1.4,1.9-1.5,2.5l-1,0.1c-0.3-0.4-0.5-0.9-0.7-1.4c-0.2-0.8,0.5-2.4,0.8-3.3
			c0.3-1-0.1-1.4-0.2-2.9c-0.1-1.2,0.5-1.8,0.8-1.9h0.1h0.1l0.1-0.1V544l-0.2-0.3c0.1-0.4-0.1-1.7-0.3-2.8c0-0.1,0-0.2,0-0.2
			c0-0.1,0.1-0.1,0.2-0.2c0.1,0,0.2-0.1,0.2-0.1c0.1,0,0.2,0,0.2,0.1l0.2,0.2l-0.6-1.5c0,0,0-0.1,0-0.2c0-0.1,0-0.1,0-0.2
			c1.1-2.1,3-1.6,3.8-1.1c0.8,2.1,2,1.4,3.1,1.6c1.1,0.3,1.3,1.6,0.9,2c-0.3,0.3-2,0.5-2.4,1.1l0.1,0.4c0,0.1,0,0.1,0.1,0.2
			c0.2,0.3,0.5,0.8,0.2,1c-0.3,0.4-0.3,3-0.9,3.4c-0.3,0.2-0.6,0.4-0.7,0.7c0,0.5-1,1-1.5,1.5c-0.1,0.1-0.2,0.1-0.3,0.1h-0.3
			c-0.1,0-0.1,0-0.2,0.1l-0.1,0.1c0,0,0,0.1-0.1,0.1c0,0.1,0,0.1,0,0.2l0.1,0.3c0,0.1,0,0.2,0,0.3
			C1071.7,550.9,1071.6,551,1071.5,551.1L1071.5,551.1z"/>
		<path class="st86" d="M1072,551c-1.2,0.5-1.5,1.9-1.6,2.6l-1,0.1c-0.3-0.4-0.5-0.9-0.7-1.4c-0.2-0.8,0.5-2.4,0.8-3.3
			c0.3-1-0.1-1.4-0.2-2.9c-0.1-1.2,0.5-1.8,0.8-1.9h0.1h0.1l0.1-0.1V544l-0.1-0.3c0.1-0.4-0.1-1.7-0.4-2.8c0-0.1,0-0.2,0-0.2
			c0-0.1,0.1-0.1,0.2-0.2c0.1,0,0.2-0.1,0.2-0.1c0.1,0,0.2,0,0.2,0.1l0.2,0.2l-0.6-1.5c0,0,0-0.1,0-0.2c0-0.1,0-0.1,0-0.2
			c1.1-2.1,3-1.6,3.8-1.1c0.8,2.1,2,1.4,3.1,1.6c1.1,0.3,1.3,1.6,0.9,2c-0.5,0.7-1,1.4-1.5,2.1c-0.3-0.2-0.5,0.1-0.5,0.4v0.1v0.1
			c-0.3,0.4-0.3,3-0.9,3.4c-0.3,0.2-0.6,0.4-0.7,0.7c0,0.5-0.8,1.6-1.3,2.2c0,0.1-0.1,0.1-0.2,0.1s-0.2,0-0.2-0.1
			c-0.1,0-0.1-0.1-0.2-0.1s-0.1,0-0.2,0.1c-0.1,0-0.1,0.1-0.1,0.2c0,0.1,0,0.1,0,0.2c0,0.1,0,0.2,0,0.2
			C1072.1,550.9,1072.1,551,1072,551L1072,551z"/>
		<path class="st87" d="M1069.9,553.7c0.3-2.9,1.3-9.7,4.7-13.9"/>
		<path class="st81" d="M1067.2,553.3h3.5c0.2,0,0.4,0.1,0.6,0.2c0.2,0.1,0.2,0.3,0.2,0.5l0,0c0,0.2-0.1,0.4-0.2,0.5
			s-0.3,0.2-0.6,0.2h-3.5c-0.2,0-0.4-0.1-0.6-0.2s-0.2-0.3-0.2-0.5l0,0c0-0.2,0.1-0.4,0.2-0.5C1066.8,553.4,1067,553.3,1067.2,553.3
			L1067.2,553.3z"/>
		<path class="st88" d="M913.6,563.7h5.3l15.2,88h-4.7L913.6,563.7z"/>
		<path class="st89" d="M910.9,563.2l2.7,0.4l15.6,88.1l-2.7-0.5L910.9,563.2z"/>
		<path class="st88" d="M1080.5,563.7h5.2l15.6,88h-5.1L1080.5,563.7z"/>
		<path class="st89" d="M1077.8,562.9l2.8,0.7l15.4,87.8l-2.6-0.5L1077.8,562.9z"/>
		<path class="st89" d="M934.9,558.7h-69.5v5h69.5V558.7z"/>
		<path class="st90" d="M1101.1,558.7H934.9v5h166.2V558.7z"/>
		<path class="st91" d="M949.7,500.3c0-0.3,0-0.6,0.1-0.9s0.3-0.6,0.5-0.8c0.2-0.2,0.5-0.4,0.8-0.5s0.6-0.2,0.9-0.2h69.1
			c0.6,0,1.2,0.2,1.6,0.6s0.7,0.9,0.8,1.5l3.6,49.3c0,0.3,0,0.6-0.1,0.9c-0.1,0.3-0.3,0.6-0.5,0.8s-0.5,0.4-0.8,0.5
			s-0.6,0.2-0.9,0.2h-69.1c-0.6,0-1.2-0.2-1.6-0.6c-0.4-0.4-0.7-0.9-0.7-1.5L949.7,500.3z"/>
		<path class="st91" d="M954.3,496.7l-3.2,1.3l-1.4,1.9h3.4L954.3,496.7z"/>
		<path class="st91" d="M1026.1,551.3l2.8-1.5l-0.6-0.4l-2.2,0.6l-0.8,1.2L1026.1,551.3z"/>
		<path class="st92" d="M952.1,499.1c0-0.3,0-0.6,0.1-0.9s0.3-0.6,0.5-0.8c0.2-0.2,0.5-0.4,0.8-0.5s0.6-0.2,0.9-0.2h69.1
			c0.6,0,1.2,0.2,1.6,0.6s0.7,0.9,0.8,1.5l3.6,49.3c0,0.3,0,0.6-0.1,0.9c-0.1,0.3-0.3,0.6-0.5,0.8s-0.5,0.4-0.8,0.5
			s-0.6,0.2-0.9,0.2h-69.1c-0.6,0-1.2-0.2-1.6-0.6c-0.4-0.4-0.7-0.9-0.7-1.5L952.1,499.1z"/>
		<path class="st93" d="M952.1,499.1c0-0.3,0-0.6,0.1-0.9s0.3-0.6,0.5-0.8c0.2-0.2,0.5-0.4,0.8-0.5s0.6-0.2,0.9-0.2h69.1
			c0.6,0,1.2,0.2,1.6,0.6s0.7,0.9,0.7,1.5l3.2,46h-73.8L952.1,499.1z"/>
		<path class="st94" d="M953.9,498.6c0-0.1,0-0.1,0-0.2c0,0,0-0.1,0.1-0.1l0.1-0.1c0,0,0.1,0,0.2,0h69.1c0.1,0,0.2,0,0.3,0.1
			s0.1,0.2,0.1,0.3l3.2,45.1h-69.9L953.9,498.6z"/>
		<path class="st91" d="M981.5,551.3h-2v7.3h2V551.3z"/>
		<path class="st92" d="M1010.3,551.3h-28.8v7.3h28.8V551.3z"/>
		
			<linearGradient id="SVGID_28_" gradientUnits="userSpaceOnUse" x1="841.8001" y1="553.7261" x2="885.4053" y2="553.7261" gradientTransform="matrix(1 0 0 1 0 28.11)">
			<stop  offset="0" style="stop-color:#552E90"/>
			<stop  offset="1" style="stop-color:#91459A"/>
		</linearGradient>
		<path class="st95" d="M855.2,607.1c-2.3,4.6,17.3,8.7,27.5,10.3l0.6-11.4c2.9-14.2,2.9-17.7-0.6-17.1c-3.5,0.6-6.4,7.4-7.6,3.4
			c-1.2-4,7.6-14.2,4.7-21.7c-2.9-7.4-8.8,4.6-11.1,2.9c-2.3-1.7,1.8-21.1-1.8-22.2c-3.5-1.1-4.1,14.8-5.3,9.1s-10.5-17.7-18.1-13.1
			s13.4,16,11.7,18.2c-1.8,2.3-13.4-4.6-13.4,2.3c0,6.8,19.3,9.1,23.4,11.9c4.1,2.8-12.9,5.7-16.9,7.4c-4.1,1.7-2.9,8,8.8,8.6
			s14,3.4,15.2,6.3C873.3,604.9,858.1,601.4,855.2,607.1z"/>
		<path class="st96" d="M857,560.4c2.9,2.5,9.4,10.6,11.7,23.4c2.3,12.8,9.5,25.1,12.9,29.6"/>
		
			<linearGradient id="SVGID_29_" gradientUnits="userSpaceOnUse" x1="879.0947" y1="553.0261" x2="922.6999" y2="553.0261" gradientTransform="matrix(1 0 0 1 0 28.11)">
			<stop  offset="0" style="stop-color:#9D4B9D"/>
			<stop  offset="1" style="stop-color:#783B97"/>
		</linearGradient>
		<path class="st97" d="M909.3,606.4c2.3,4.6-17.3,8.7-27.5,10.3l-0.6-11.4c-2.9-14.3-2.9-17.7,0.6-17.1c3.5,0.6,6.4,7.4,7.6,3.4
			c1.2-4-7.6-14.3-4.7-21.7c2.9-7.4,8.8,4.6,11.1,2.9c2.3-1.7-1.8-21.1,1.8-22.2c3.5-1.1,4.1,14.8,5.3,9.1s10.5-17.7,18.1-13.1
			s-13.4,16-11.7,18.2c1.8,2.3,13.4-4.6,13.4,2.3c0,6.8-19.3,9.1-23.4,11.9c-4.1,2.8,12.9,5.7,16.9,7.4c4.1,1.7,2.9,8-8.8,8.5
			c-11.7,0.6-14,3.4-15.2,6.3C891.2,604.1,906.3,600.7,909.3,606.4z"/>
		<path class="st96" d="M907.5,559.7c-2.9,2.5-9.4,10.6-11.7,23.4c-2.3,12.8-9.5,25.1-12.9,29.6"/>
		
			<linearGradient id="SVGID_30_" gradientUnits="userSpaceOnUse" x1="97842.8828" y1="38590.0781" x2="102450.1797" y2="40398.0781" gradientTransform="matrix(1 0 0 1 0 28.11)">
			<stop  offset="0" style="stop-color:#9D4B9D"/>
			<stop  offset="1" style="stop-color:#783B97"/>
		</linearGradient>
		<path class="st98" d="M869.3,594.6c-4.9,0,0.7,9.1,3.9,12.6l9.7,10.1c4.7-1.9,14.8-6.2,16.8-8.2c2.6-2.5-0.6-3.2-3.9-3.8
			c-2.6-0.5-1.1-2.7,0-3.8c10.9-3,14.5-8.8,14.9-11.4c0-0.6,0-1.9-2.6-3.8c-2.6-1.9-13,12.6-12.3,3.2c0.6-9.5,15.5-20.2,14.9-24.6
			c-0.6-4.4-3.9,1.3-9.7,4.4c-4.7,2.5-4.5-1.9-3.9-4.4c3-3.3,8.7-11,7.1-14.5c-2-4.4-3.2,0-8.4,4.4s-2-5.1-0.6-7
			c1.3-1.9,13-26.5-7.8-22.1c-20.7,4.4-8.4,31-7.8,34.7c0.7,3.8-4.5-5.1-12.3-2.5c-7.8,2.5,14.2,16.4,14.2,20.2s-8.4-1.9-12.3-2.5
			c-3.9-0.6,3.9,8.8,5.8,14.5c1.6,4.5,0.6,5.7,0,5.7C873.1,597.1,873.1,594.6,869.3,594.6z"/>
		<path class="st99" d="M888.7,539c-1.3,0.2-3.5,7.3-2,34.1s-0.6,36.4-2,37.9"/>
		
			<linearGradient id="SVGID_31_" gradientUnits="userSpaceOnUse" x1="867.138" y1="609.14" x2="894.738" y2="609.14" gradientTransform="matrix(1 0 0 1 0 28.11)">
			<stop  offset="0" style="stop-color:#F384A9"/>
			<stop  offset="1" style="stop-color:#EE3486"/>
		</linearGradient>
		<path class="st100" d="M867.1,622.7h27.6l-3,29.1h-22L867.1,622.7z"/>
		
			<linearGradient id="SVGID_32_" gradientUnits="userSpaceOnUse" x1="863.4" y1="594.64" x2="898.471" y2="594.64" gradientTransform="matrix(1 0 0 1 0 28.11)">
			<stop  offset="0" style="stop-color:#FFF33B"/>
			<stop  offset="4.000000e-02" style="stop-color:#FEE72E"/>
			<stop  offset="0.12" style="stop-color:#FED51B"/>
			<stop  offset="0.2" style="stop-color:#FDCA10"/>
			<stop  offset="0.28" style="stop-color:#FDC70C"/>
			<stop  offset="0.67" style="stop-color:#F3903F"/>
			<stop  offset="0.89" style="stop-color:#ED683C"/>
			<stop  offset="1" style="stop-color:#E93E3A"/>
		</linearGradient>
		<path class="st101" d="M894.5,617.6h-27.2c-2.2,0-3.9,1.7-3.9,3.9v2.5c0,2.1,1.8,3.9,3.9,3.9h27.2c2.2,0,3.9-1.7,3.9-3.9v-2.5
			C898.5,619.3,896.7,617.6,894.5,617.6z"/>
		
			<linearGradient id="SVGID_33_" gradientUnits="userSpaceOnUse" x1="49977.8984" y1="591.7401" x2="52489" y2="591.7401" gradientTransform="matrix(1 0 0 1 0 28.11)">
			<stop  offset="0" style="stop-color:#F384A9"/>
			<stop  offset="1" style="stop-color:#EE3486"/>
		</linearGradient>
		<path class="st102" d="M894.5,614.7h-27.2c-2.2,0-3.9,1.7-3.9,3.9v2.5c0,2.1,1.8,3.9,3.9,3.9h27.2c2.2,0,3.9-1.7,3.9-3.9v-2.5
			C898.5,616.4,896.7,614.7,894.5,614.7z"/>
		
			<linearGradient id="SVGID_34_" gradientUnits="userSpaceOnUse" x1="37681.5" y1="609.14" x2="39074.1016" y2="609.14" gradientTransform="matrix(1 0 0 1 0 28.11)">
			<stop  offset="0" style="stop-color:#FFF33B"/>
			<stop  offset="4.000000e-02" style="stop-color:#FEE72E"/>
			<stop  offset="0.12" style="stop-color:#FED51B"/>
			<stop  offset="0.2" style="stop-color:#FDCA10"/>
			<stop  offset="0.28" style="stop-color:#FDC70C"/>
			<stop  offset="0.67" style="stop-color:#F3903F"/>
			<stop  offset="0.89" style="stop-color:#ED683C"/>
			<stop  offset="1" style="stop-color:#E93E3A"/>
		</linearGradient>
		<path class="st103" d="M867.9,631.4H894l-1.1,11.7h-24.3L867.9,631.4z"/>
		<path class="st104" d="M1009.3,651.8c0-1.5,0.6-3,1.7-4.1c1.1-1.1,2.6-1.7,4.2-1.7h35.5c1.6,0,3.1,0.6,4.2,1.7
			c1.1,1.1,1.7,2.6,1.7,4.1H1009.3z"/>
		<path class="st105" d="M1036.6,588.7h-7.1v57.4h7.1V588.7z"/>
		<path class="st104" d="M1037.6,588.7h-8.7c-0.4,0-0.8,0.3-0.8,0.8v5.8c0,0.4,0.3,0.8,0.8,0.8h8.7c0.4,0,0.8-0.3,0.8-0.8v-5.8
			C1038.3,589,1038,588.7,1037.6,588.7z"/>
		<path class="st75" d="M964.3,556.7c0.8-6.2,11.6-4.6,16.7-2.9l-0.5,5.7c-4.1-0.9-10.1,0.1-12-0.1
			C967,559.4,964.2,558.7,964.3,556.7z"/>
		<path class="st75" d="M1034.4,497.3l0.5-1.3c0,0,0,0,0.3-1.9c0.3-2.5,2.4-4.7,5.1-6.1s7.1,0.3,10.7,5.4c2.9,4.1-0.5,9.5-0.5,15
			l0.6,6.3l-10.6,1.4c-1.5-2.4-0.7-6.1-1.8-6.1c-0.9,0-1.5,0.3-2.8-0.1c-0.1,0-0.2-0.1-0.2-0.2s-0.1-0.2-0.1-0.2l0.1-1.4
			c0-0.1,0-0.1,0-0.2l-0.5-1.4c0-0.1,0-0.1,0-0.2s0.1-0.1,0.1-0.2l0.5-0.5l-0.7-0.2c-0.1,0-0.2-0.1-0.2-0.1c0-0.1-0.1-0.1-0.1-0.2
			v-0.8c0-0.1,0-0.1-0.1-0.2c0-0.1-0.1-0.1-0.2-0.1l-0.8-0.4c-0.1,0-0.2-0.1-0.2-0.2s0-0.2,0-0.3l1.2-2.9v-0.1V500l-0.3-0.8
			C1034.2,498.4,1034.2,497.8,1034.4,497.3z"/>
		<path class="st25" d="M1044.8,487.7c2.6,0.5,5.6,1.9,7.4,4.3c2.2,2.9,0.7,12.1-0.5,17.3c-0.1,0.3-0.3,0.6-0.6,0.8
			c-0.3,0.2-0.6,0.3-1,0.3h-7.9c-0.3,0-0.6-0.1-0.9-0.3c-0.3-0.2-0.5-0.4-0.6-0.7l-2.1-5.3c0.1-0.2,0.2-0.3,0.3-0.5
			c0.9-1.5,0.2-4.1-1.5-3.5l-0.2-2.1c-0.1-0.5-0.4-0.9-0.8-1.1c-0.9-0.7-1.8-1.5-2.6-2.4c-1.6-1.2-3.1-3.6-0.6-6.7
			c-0.2,0.5-0.5,1.6,0.2,2c-0.1-0.4-0.1-0.8-0.1-1.2c0.2,0.3,0.6,0.9,0.9,0.9c0.1,0,0.1-0.1,0.3-0.3
			C1035.3,488.4,1037.4,485.7,1044.8,487.7L1044.8,487.7z"/>
		<path class="st75" d="M1011.6,636.3l-3.3-12.6l-9.4,3l4.6,11.4L1011.6,636.3z"/>
		<path class="st74" d="M1002.8,637.1c2.3,0.2,7-1.1,9.1-1.8l0.3-0.1l2.7,8.6c0.1,0.2,0,0.4,0,0.6c-0.1,0.2-0.3,0.3-0.4,0.4
			c-6.5,2.2-18.6,8.1-23.3,7.5c-2.5-0.3-3.6-0.8-3.9-1.3c-1.1-2.1,3.2-3,5.4-3.7C998.3,645.4,1000.5,641.4,1002.8,637.1z"/>
		<path class="st106" d="M1012.3,631.2c-3.5,1.2-10.8,3.1-12.6,3.1c-4.4-14.1-19.5-42.1-15-59.6c0.5-2.1,2.5-3.5,4.7-3.7l4.3-0.5
			l45-1v19.1l-28.7-3.7c-1-0.1-2,0-3,0.3s-1.8,0.9-2.5,1.6c-0.7,0.7-1.2,1.6-1.4,2.6c-0.3,1-0.3,2,0,2.9L1012.3,631.2z"/>
		<path class="st75" d="M967.8,642.9l7-16.1h-9.9l-5.4,15.3L967.8,642.9z"/>
		<path class="st74" d="M959.2,640.9c2.1,0.9,7,1.1,9.2,1.1h0.3v8.4c0,0.2-0.1,0.4-0.2,0.5c-0.1,0.1-0.3,0.2-0.6,0.2h-24.5
			c-3,0-3.3-0.9-2.7-1.8c1-1.5,3-1.8,4.7-2.2C950.2,646,956.3,642.7,959.2,640.9z"/>
		<path class="st107" d="M970.3,640.7c-3.4,0-9.8-1.9-11.7-1.9c3.2-11.7,17.9-46.5,26-64.6c0.4-0.9,1-1.6,1.7-2.2
			c0.7-0.6,1.6-1,2.5-1.3l3.6-0.9c0.8-0.2,1.7-0.3,2.5-0.3h43.7v19.1l-33.7-2.6c-1.2-0.1-2.4,0.2-3.5,0.7s-2,1.4-2.5,2.5
			L970.3,640.7z"/>
		
			<radialGradient id="SVGID_35_" cx="391.3704" cy="-90.214" r="0.9994" gradientTransform="matrix(37.8194 0 0 36.8925 -13780.5391 3873.969)" gradientUnits="userSpaceOnUse">
			<stop  offset="0" style="stop-color:#E7529D"/>
			<stop  offset="1" style="stop-color:#EC148E"/>
		</radialGradient>
		<path class="st108" d="M1039.3,512.4c6.5,1.3,6.5,1.3,11.5-0.4l5.9,2.3c1.5,0.6,2.8,1.6,3.6,2.9c0.9,1.3,1.3,2.9,1.3,4.4
			l-1.9,57.9H1023v-35.8l-5.2,10.6c-0.5,1.1-1.3,2-2.3,2.6c-1,0.7-2.2,1-3.4,1.1l-31.8,1.4v-6.3l26-5c1-0.2,2-0.6,2.9-1.3
			c0.8-0.6,1.5-1.5,2-2.4l12-25.4c0.4-0.9,1-1.7,1.8-2.3c0.7-0.7,1.6-1.2,2.6-1.5L1039.3,512.4z"/>
		
			<radialGradient id="SVGID_36_" cx="401.8435" cy="-92.0784" r="1" gradientTransform="matrix(2568.47 0 0 2217 -943858.9375 261407.125)" gradientUnits="userSpaceOnUse">
			<stop  offset="0" style="stop-color:#E7529D"/>
			<stop  offset="1" style="stop-color:#EC148E"/>
		</radialGradient>
		<path class="st109" d="M1027.3,515.3c-1.9-0.5-3.2,1.3-3.6,2.3c0-0.3-0.4-0.1-2.2,2.5c-1.7,2.6-28.2,24.2-41.6,33.1v6.5h35.1
			c4.8-9.1,14.6-30,16-32.9C1032.8,523.2,1029.7,515.9,1027.3,515.3z"/>
		<path class="st110" d="M1068.4,522.1h-39.9l-7.1,59.9l-6.7,7.8l37.5-0.5c3.1,0,6-1.2,8.3-3.2s3.7-4.7,4.1-7.7l6.6-53.4
			c0-0.4,0-0.8-0.1-1.1s-0.3-0.7-0.6-1c-0.3-0.3-0.6-0.5-0.9-0.7C1069.2,522.2,1068.8,522.1,1068.4,522.1L1068.4,522.1z"/>
		<path class="st104" d="M1001.3,587.6v-0.2c0-0.2,0-0.5,0.1-0.7s0.2-0.4,0.4-0.6c0.2-0.2,0.4-0.3,0.6-0.4c0.2-0.1,0.4-0.1,0.7-0.1
			h9.1c2,0,4-0.7,5.5-2.1c1.5-1.3,2.5-3.2,2.7-5.2l5.9-54.8c0.1-0.5,0.3-0.9,0.7-1.3c0.4-0.3,0.9-0.5,1.4-0.4s1,0.3,1.3,0.7
			s0.5,0.9,0.5,1.4l-6,58.4c-0.2,1.9-1.1,3.7-2.6,5.1c-1.5,1.3-3.4,2-5.4,2h-13c-0.5,0-1-0.2-1.4-0.6
			C1001.5,588.5,1001.3,588.1,1001.3,587.6z"/>
		<path class="st111" d="M733.1,736.6c0,0-26.1,12.3-29.6,11.4c-3.5-0.8,0.3-4.6,2.4-6.2c2.2-1.5,25.6-11.5,25.6-11.5L733.1,736.6z"
			/>
		<path class="st112" d="M733.1,738.9c0,0-26.1,12.3-29.6,11.4c-3.5-0.9,0.3-4.6,2.4-6.2c2.2-1.5,25.6-11.5,25.6-11.5L733.1,738.9z"
			/>
		<path class="st113" d="M764.6,639.4c1.9,2.7,9,2.4,9,2.4s-7.8-19-0.2-46.1"/>
		<path class="st114" d="M773.4,641.4c0,0,18.9,32.5,0,42l-3.5-2.6c0,0,10.2-3.6,7.3-15.2c-2.9-11.5-8.3-25.5-8.3-25.5"/>
		<path class="st111" d="M733.6,737.1c0,0,26.1,12.3,29.6,11.4c3.5-0.8-0.3-4.6-2.4-6.2c-2.2-1.5-25.6-11.5-25.6-11.5L733.6,737.1z"
			/>
		<path class="st110" d="M694.9,682.5H775v-8.2c0-1.2-0.5-2.3-1.3-3.1s-2-1.3-3.2-1.3H705"/>
		<path class="st114" d="M729.7,716.2h8v-24.9h-8V716.2z"/>
		<path class="st114" d="M694.9,682.5H775v4.8h-80.1"/>
		<path class="st114" d="M726.9,692.8h13.6v-5.5h-13.6V692.8z"/>
		<path class="st112" d="M729.1,738.9h9.1v-24.4h-9.1V738.9z"/>
		<path class="st110" d="M773.5,598.6h-20.3c-1.6,0-3.1,0.6-4.3,1.7c-1.1,1.1-1.8,2.6-1.8,4.2v32.9c0,1.8,0.7,3.5,2,4.8s3.1,2,4.9,2
			h19.4C773.5,644.2,763.6,625.2,773.5,598.6z"/>
		<path class="st114" d="M774.8,598.5c0,0-8.5-2.4-10.7,9.5s0,31.4,1.9,34.1c1.9,2.7,9,2.4,9,2.4S767.1,625.6,774.8,598.5z"/>
		<path class="st115" d="M762.6,754.6c1.6,0,3-1.3,3-2.9c0-1.6-1.3-2.9-3-2.9c-1.6,0-3,1.3-3,2.9C759.7,753.3,761,754.6,762.6,754.6
			z"/>
		<path class="st115" d="M764.1,752.8c1.6,0,3-1.3,3-2.9c0-1.6-1.3-2.9-3-2.9c-1.6,0-3,1.3-3,2.9
			C761.2,751.5,762.5,752.8,764.1,752.8z"/>
		<path class="st115" d="M703.7,754.6c1.6,0,3-1.3,3-2.9c0-1.6-1.3-2.9-3-2.9c-1.6,0-3,1.3-3,2.9
			C700.8,753.3,702.1,754.6,703.7,754.6z"/>
		<path class="st112" d="M733.1,738.9c0,0,26.1,12.3,29.6,11.4c3.5-0.9-0.3-4.6-2.4-6.2c-2.2-1.5-25.6-11.5-25.6-11.5L733.1,738.9z"
			/>
		<path class="st110" d="M474.6,595.8H501v45.6h-26.4C474.6,641.4,484.6,622.4,474.6,595.8z"/>
		<path class="st114" d="M474.6,595.8c0,0,8.5-2.4,10.7,9.5s0,31.4-1.9,34.1c-1.9,2.7-9,2.4-9,2.4S482.3,622.9,474.6,595.8z"/>
		<path class="st114" d="M474.6,641.4c0,0-18.9,32.5,0,42l3.5-2.6c0,0-10.2-3.6-7.2-15.2c2.9-11.6,8.3-25.5,8.3-25.5L474.6,641.4z"
			/>
		<path class="st116" d="M518.3,556.5c-2.4,1.9-4.4,4.4-5.7,7.2s-1.8,5.9-1.6,9c0.6,10.7,22,47.3,22,47.3l10.8,2l8.4-11l-1.5-2.5
			C550.8,608.5,523.6,553.1,518.3,556.5z"/>
		<path class="st117" d="M541.5,622.4c0,0,17.1,3.5,38.2-4.9c0,0,4.7,1.5,5.9,0l1.7,1.6l7.6-0.1c0,0,1.4-6.8-1.1-7
			c-2.5-0.1-13.1,1.9-13.1,1.9l-28.3-3.1L541.5,622.4z"/>
		<path class="st111" d="M514.8,736.6c0,0,26.1,12.2,29.6,11.4s-0.3-4.6-2.5-6.2c-2.2-1.5-25.6-11.5-25.6-11.5L514.8,736.6z"/>
		<path class="st110" d="M476.9,670h72.3c1,0,2,0.4,2.8,1.1c0.7,0.7,1.1,1.7,1.1,2.7v8.7H473v-8.7c0-1,0.4-2,1.1-2.7
			C474.9,670.4,475.9,670,476.9,670z"/>
		<path class="st111" d="M514.4,737.1c0,0-26.1,12.3-29.6,11.4c-3.5-0.8,0.3-4.6,2.4-6.2c2.2-1.5,25.6-11.5,25.6-11.5L514.4,737.1z"
			/>
		<path class="st114" d="M553.1,682.5H473v4.8h80.1V682.5z"/>
		<path class="st114" d="M507.5,687.3h13.6v3.4c0,0.6-0.2,1.1-0.6,1.5c-0.4,0.4-1,0.6-1.5,0.6h-9.2c-0.6,0-1.1-0.2-1.5-0.6
			c-0.4-0.4-0.6-0.9-0.6-1.5v-3.4H507.5z"/>
		<path class="st114" d="M517.1,690.9h-5.6v28.5h5.6V690.9z"/>
		<path class="st112" d="M518.8,714.5h-9.1v24.4h9.1V714.5z"/>
		<path class="st115" d="M485.3,754.6c1.6,0,3-1.3,3-2.9c0-1.6-1.3-2.9-3-2.9s-3,1.3-3,2.9C482.4,753.3,483.7,754.6,485.3,754.6z"/>
		<path class="st115" d="M483.8,752.8c1.6,0,3-1.3,3-2.9c0-1.6-1.3-2.9-3-2.9s-3,1.3-3,2.9C480.9,751.5,482.2,752.8,483.8,752.8z"/>
		<path class="st115" d="M544.2,754.6c1.6,0,3-1.3,3-2.9c0-1.6-1.3-2.9-3-2.9c-1.6,0-3,1.3-3,2.9
			C541.3,753.3,542.6,754.6,544.2,754.6z"/>
		<path class="st115" d="M545.8,751.7c1.6,0,3-1.3,3-2.9c0-1.6-1.3-2.9-3-2.9c-1.6,0-3,1.3-3,2.9
			C542.9,750.4,544.2,751.7,545.8,751.7z"/>
		<path class="st112" d="M514.8,738.9c0,0-26.1,12.3-29.6,11.4c-3.5-0.9,0.3-4.6,2.4-6.2c2.2-1.5,25.6-11.5,25.6-11.5L514.8,738.9z"
			/>
		<path class="st112" d="M514.8,738.9c0,0,26.1,12.3,29.6,11.4c3.5-0.9-0.3-4.6-2.5-6.2c-2.2-1.5-25.6-11.5-25.6-11.5L514.8,738.9z"
			/>
		<path class="st118" d="M698.6,745.4l2.6-9.2L691,733l-0.4,11.6L698.6,745.4z"/>
		<path class="st21" d="M690.3,743.4c2,0.8,6.8,1.1,8.9,1.1h0.3l0.6,8.8H675c-4.8,0-2.4-2.4-0.6-3.5
			C679,749.8,686.9,745.5,690.3,743.4z"/>
		
			<radialGradient id="SVGID_37_" cx="401.9549" cy="-92.1004" r="1" gradientTransform="matrix(8910.3301 0 0 7259.77 -3475407.75 781887.1875)" gradientUnits="userSpaceOnUse">
			<stop  offset="0" style="stop-color:#E7529D"/>
			<stop  offset="1" style="stop-color:#EC148E"/>
		</radialGradient>
		<path class="st119" d="M659.6,607.5h32.2c0,0,12.8-34.1,20-36.2c7.3-2.1,20-4.4,26.5-2.1c6.5,2.3,12,6.7,14.1,14.8
			c2.2,8.1,4.4,59.8,4.4,59.8s-18.8,8.9-43.4-0.7l-19.2-18.2h-31L659.6,607.5z"/>
		<path class="st16" d="M745.4,643.7L690,663c0,0-2.4,0.7-2.8,4.4c-0.4,3.6,3.1,71,3.1,71h11.3c0,0,10.3-24.7,9-50.3v-14.6l38.7-6.2
			l2.8-15l4.6-8.5L745.4,643.7z"/>
		<path class="st120" d="M440.8,755.1l13.3-117.9h12.2l-16.6,117.9H440.8z"/>
		<path class="st118" d="M563.9,746.7l-2.6-9.2l10.2-3.2L572,746L563.9,746.7z"/>
		<path class="st74" d="M572.3,744.7c-2,0.8-6.8,1.1-8.9,1.1H563l-0.6,8.8h25.1c4.8,0,2.4-2.4,0.6-3.5
			C583.6,751.1,575.6,746.8,572.3,744.7z"/>
		<path class="st121" d="M687.8,739.8l14,0.9l0.3-3.8l-14-0.9L687.8,739.8z"/>
		<path class="st15" d="M756.8,643.1c0,0,5.1,25.2-13.1,28.1c-18.2,2.9-55.7,1.9-55.7,1.9l16.2,33.7l-11.6,7.6
			c0,0-39.1-35.6-38.4-40.6c0.7-5,1.5-15.8,12.9-17.6S713,643,713,643L756.8,643.1L756.8,643.1z"/>
		<path class="st19" d="M1286.1,408.8c0,0,0-22,4.5-25c4.4-3-7.9-21.3-7.9-21.3s1.6,26.7-1.9,30.3v-17.4c0,0-7.2,25.4-9.3,30.1
			c-2,4.7-11.4,22.8-13.3,27.3s-15.4,40.5-15.4,40.5s7.8,18,10.6,18.4c2.8,0.4,38.1-15.7,38.1-15.7l-7.3-62.2L1286.1,408.8z"/>
		<path class="st19" d="M1325.9,371.3c0,0-19,0.7-24,5.9c-5,5.2,1-10,24-10.3C1348.8,366.5,1325.9,371.3,1325.9,371.3z"/>
		<path class="st19" d="M1286.9,422.7c0,0,6.6,7,7.9,8.9s-2.9-8-4-8.9s13.2,1.2,15.2,3.5s-2.1-5.6-4.6-5.8c-2.5-0.2,11,1.5,12.7,3.7
			c1.6,2.2-7.2-16.9-28-18.1L1286.9,422.7z"/>
		<path class="st122" d="M1370.1,569.1l-39.5-52.6l-28.7,32.3l65.8,38.3L1370.1,569.1z"/>
		<path class="st122" d="M1208.4,568.9l39.5-52.6l28.7,32.3l-65.8,38.3L1208.4,568.9z"/>
		<path class="st14" d="M1203.8,604.9h7.1c4.3-7.2,12.9-26.4,12.9-46.1c0-19.6-13.5-35.6-20.3-41.1c-6.8,5.5-20,21.4-20,41.1
			c0,19.6,8.6,38.9,12.9,46.1H1203.8z"/>
		<path class="st123" d="M1177.4,544.8h54.2v45.1h-54.2V544.8z"/>
		<path class="st124" d="M1140.2,544.8h128.6v3h-128.6V544.8z"/>
		<path class="st124" d="M1140.2,588.4h128.6v3h-128.6V588.4z"/>
		<path class="st13" d="M1353.1,402.3c0,25.2-3.1,50.3-7.7,73.4c-4.1,20.6-9.4,39.6-14.8,55.8c-0.2,0.5-0.3,1-0.5,1.5
			c-0.2,0.5-0.3,1-0.5,1.4c-2.8,8.2-5.5,15.6-8.2,22.1v0c-0.3,0.8-0.6,1.5-0.9,2.2c0,0,0,0,0,0c-0.3,0.7-0.6,1.5-0.9,2.2v0
			c-0.3,0.7-0.6,1.4-0.9,2.1c-0.9,2-1.7,4-2.5,5.8c-0.9,2-1.8,3.9-2.6,5.5h-44.2c-13.2-26.8-39.5-98.7-39.5-172
			c0-24.4,4.5-47.3,11.3-67.7c0.8-2.5,1.7-5,2.6-7.5c0.2-0.5,0.4-1,0.6-1.5c13.7-36.4,34-63.9,46.8-76.6
			c12.8,12.7,33.4,40.1,47.3,76.6l0.6,1.5c0.9,2.5,1.8,5,2.7,7.5C1348.5,355,1353.1,377.9,1353.1,402.3z"/>
		<path class="st123" d="M1353.1,402.3c0,25.2-3.1,50.3-7.7,73.4c-4.1,20.6-9.4,39.6-14.8,55.8c-0.2,0.5-0.3,1-0.5,1.5
			c-0.2,0.5-0.3,1-0.5,1.4c-2.8,8.2-5.5,15.6-8.2,22.1c0,0,0,0,0,0c-0.3,0.8-0.6,1.5-0.9,2.2c0,0,0,0,0,0c-0.3,0.7-0.6,1.5-0.9,2.2
			v0c-0.3,0.7-0.6,1.4-0.9,2.1c-0.9,2-1.7,4-2.5,5.8c-0.9,2-1.8,3.9-2.6,5.5h-22.5V249c12.8,12.7,33.4,40.1,47.3,76.6l0.6,1.5
			c0.9,2.5,1.8,5,2.7,7.5C1348.5,355,1353.1,377.9,1353.1,402.3z"/>
		<path class="st125" d="M1339,327.1h-47.9h-47.3l0.6-1.5c13.7-36.4,34-63.9,46.8-76.6c12.8,12.7,33.4,40.1,47.3,76.6L1339,327.1z"
			/>
		<path class="st124" d="M1339,327.1c0.9,2.5,1.8,5,2.7,7.5h-50.6h-49.9c0.8-2.5,1.7-5,2.6-7.5l0.6-1.5h46.8h47.3L1339,327.1z"/>
		<path class="st124" d="M1356.2,567.6h-128.6v9h128.6V567.6z"/>
		<path class="st126" d="M1325.3,378.3c0,18.3-15.3,33.1-34.1,33.1c-4.2,0-8.3-0.7-12-2.1c-2.7-1-5.2-2.3-7.5-3.8
			c-4.7-3.1-8.5-7.4-11-12.4c-2.3-4.5-3.6-9.5-3.6-14.8c0-5.4,1.3-10.5,3.7-15c3.3-6.2,8.5-11.3,14.9-14.4l0,0
			c4.7-2.3,9.9-3.6,15.5-3.6c5.5,0,10.7,1.3,15.3,3.5c5.1,2.5,9.5,6.2,12.8,10.8c1.6,2.2,2.9,4.7,3.9,7.3
			C1324.5,370.3,1325.3,374.2,1325.3,378.3z"/>
		<path class="st127" d="M1306.5,348.7l-45.7,44.4c-2.3-4.5-3.6-9.5-3.6-14.8c0-5.4,1.3-10.5,3.7-15l14.9-14.4l0,0
			c4.7-2.3,9.9-3.6,15.5-3.6C1296.7,345.2,1301.9,346.5,1306.5,348.7z"/>
		<path class="st127" d="M1323.2,366.7l-43.9,42.6c-2.7-1-5.2-2.3-7.5-3.8l47.5-46C1320.8,361.7,1322.2,364.1,1323.2,366.7z"/>
		<path class="st118" d="M709.2,715.4L703,708l-8.6,6.3l9.5,7L709.2,715.4z"/>
		<path class="st21" d="M702.7,720.8c1.9-1.1,4.8-4.8,6-6.5l0.2-0.3l7.7,4.6l-14.6,20c-2.8,3.8-3.4,0.6-3.3-1.5
			C701.4,733.5,702.5,724.7,702.7,720.8z"/>
		<path class="st118" d="M586.7,746.7l-2.6-9.2l10.2-3.2l0.4,11.6L586.7,746.7z"/>
		<path class="st74" d="M595,744.7c-2,0.8-6.8,1.1-8.9,1.1h-0.3l-0.6,8.8h25.1c4.8,0,2.5-2.4,0.6-3.5
			C606.3,751.1,598.4,746.8,595,744.7z"/>
		<path class="st128" d="M480.7,552.6c0,0-9.6,21.4,10.8,77h41.8c0,0,0.2-27,0-29l13.7,0.3l-6.1-11.8c0,0-4.8,2.9-5.1,1.4
			c-0.3-1.6-0.4-4.1-0.4-4.1l4.2-2.2c0,0-10.6-17.4-12-24.8c-0.2-1.2-0.2-0.9-0.9-1.8l-0.6-1.5c-0.7-0.8-1.5-1.4-2.5-1.9
			c-1-0.4-2-0.7-3-0.7L480.7,552.6z"/>
		<path class="st121" d="M694.2,717.3l11.3-9.2l-2.5-2.9l-11.3,9.2L694.2,717.3z"/>
		<path class="st16" d="M537.3,637.1l55.5,19.3c0,0,2.5,0.7,2.8,4.4c0.3,3.6,0.5,79,0.5,79h-11.3c0,0-13.8-32.7-12.5-58.3v-14.6
			l-25.7-2.5l-15.8-18.7l-4.5-8.5L537.3,637.1z"/>
		<path class="st116" d="M480.7,552.6c-2.8,2.3-5.1,5.1-6.5,8.4c-1.5,3.3-2.1,6.8-1.9,10.4c0.7,12.4,25.6,54.9,25.6,54.9l12.6,2.3
			l9.7-12.7l-1.7-2.9C518.3,612.9,486.8,548.7,480.7,552.6z"/>
		<path class="st15" d="M492.3,637.1c0,0-8.9,31.1,7.1,32.2c16,1.1,47.3,4.1,49.8,1.8c0,0,0.6,27.7,3.9,39.5
			c3.3,11.8,7.8,28.4,7.3,30.4l12.4-0.4c0,0,7.2-79.8-0.4-82.7c-7.6-2.9-39.9-13.8-41-16s0.6-4.7,0.6-4.7L492.3,637.1z"/>
		<path class="st120" d="M694.4,632.9l-11.6,122.2h8.3l15-122.2H694.4z"/>
		<path class="st120" d="M756.5,632.9l17.2,124.3h7.8L769,632.9H756.5z"/>
		<path class="st116" d="M540.9,589.1c0,0-6.1,4.9-7.6,6.2l0.6-8.2c0,0,4.7-3.4,5.6-2.9L540.9,589.1z"/>
		<path class="st129" d="M572.2,626l10.4-37.6h57.1l-11.2,38L572.2,626z"/>
		<path class="st130" d="M511.4,628.6c0,0,16,4.6,40.5-5.2c0,0,5.4,1.7,6.9,0l2,1.9l8.8-0.2c0,0,1.6-7.9-1.3-8.1
			c-2.9-0.2-15.3,2.2-15.3,2.2l-32.8-3.6L511.4,628.6z"/>
		<path class="st131" d="M553.5,625.2c0,0-1.6,3.2,2.2,3.3c3.9,0.1,71,0.4,71,0.4s4.2-2.6,1.7-3.7H553.5z"/>
		<path class="st120" d="M515.6,637.2l17.2,117.9h6.7l-11.9-117.9H515.6z"/>
		<path class="st104" d="M774.5,637.2H451.8h-7.7v-8.6h330.4V637.2z"/>
		<path class="st75" d="M523.8,530.8l-1.2-5.8l-2.2-4.8c-1.4-0.9-6.9-2.3-17.9-0.6s-6.5,21.2-2.9,30.7v3.3
			c6.7,3.9,17.8,6.5,16.4,3.6c-1.3-2.7-1.3-2.1-1.3-4c1.9,0.5,3.8,0.6,5.7,0.3c2.7-0.4,1.7-3.7,0.8-5.2l0.8-0.4
			c0.1,0,0.1-0.1,0.2-0.1s0.1-0.1,0.1-0.2c0-0.1,0-0.2,0-0.2c0-0.1,0-0.2-0.1-0.2l-0.4-0.8l1.1-0.8c0.1-0.1,0.2-0.2,0.2-0.3
			s0-0.2,0-0.4l-0.2-0.8c-0.1-0.2,0-0.4,0.1-0.6c0.1-0.2,0.3-0.4,0.5-0.5l2.7-1.2c0,0,0.1,0,0.1-0.1l0.1-0.1v-0.1c0,0,0-0.1-0.1-0.1
			l-3.3-4.8c-0.2-0.3-0.3-0.6-0.3-0.9c0-0.3,0-0.6,0.2-0.9l0.4-0.9C523.9,532.9,524,531.8,523.8,530.8L523.8,530.8z"/>
		<path class="st25" d="M510.8,512.7c0.8-0.5,1.7-0.9,2.6-0.9c1-0.1,1.9,0.1,2.7,0.5c0.6-0.9,1.4-1.6,2.4-2s2.1-0.5,3.1-0.3
			c1.1,0.2,2,0.8,2.7,1.5c0.7,0.8,1.2,1.8,1.3,2.8c0.1,0.5,0.1,1,0,1.5c0.8,0.7,1.3,1.6,1.5,2.7c0.2,1,0,2.1-0.5,3s-1.3,1.7-2.3,2.1
			s-2.1,0.5-3.1,0.2c-1.3,1.2-3.8,2.9-5.7,2.6c-0.1,2.7-0.7,8.1-2.9,7.6c-0.5-1.5-2.3-3.8-6-2.2c-0.4,0.2-0.7,0.4-0.9,0.8
			c-0.2,0.3-0.3,0.7-0.3,1.1c0,2.5,0.7,5.6,3.5,4.6c1.8-0.6,1.7,0.6,1,2c0.1,0.3,0.2,0.5,0.3,0.8c0.1,0.6,0,1.2-0.4,1.7
			c-0.3,0.5-0.8,0.9-1.4,1.1c-0.6,0.2-1.2,0.2-1.8,0c-0.6-0.2-1-0.6-1.3-1.1c-0.2,0.4-0.6,0.8-1,1c0.1,0.2,0.2,0.4,0.2,0.7
			c0.1,0.5,0,1.1-0.3,1.6s-0.7,0.9-1.2,1.1c-0.5,0.2-1.1,0.3-1.6,0.2c-0.6-0.1-1-0.4-1.4-0.8c-0.3,0.8-0.9,1.5-1.6,1.9
			s-1.6,0.6-2.5,0.5s-1.7-0.5-2.3-1c-0.6-0.6-1-1.4-1.2-2.2c-0.1-0.9,0.1-1.8,0.5-2.5c-0.2-0.2-0.4-0.3-0.6-0.5
			c-0.6,0-1.2-0.3-1.6-0.7s-0.7-0.9-0.8-1.5c-0.1-0.4,0-0.8,0.1-1.1c0.2-2.7-0.6-5.4-2.2-7.6c-0.1-0.6,0-1.3,0.2-1.8
			c0.2-0.6,0.6-1.1,1.1-1.5c0-0.1,0-0.1,0-0.2c-0.1-0.9,0.1-1.9,0.7-2.7s1.4-1.3,2.3-1.6c-0.1-0.3-0.2-0.6-0.2-0.8
			c-0.2-1.3,0.2-2.7,1-3.7c0.8-1.1,2-1.8,3.4-2c0.1-0.5,0.3-1,0.7-1.4c0.3-0.4,0.7-0.7,1.2-1c0.5-0.2,1-0.4,1.5-0.4s1,0.1,1.5,0.3
			c0.8-0.6,1.7-1,2.6-1.1c0.4-0.6,0.8-1,1.4-1.4s1.2-0.6,1.9-0.7c0.7-0.1,1.3-0.1,2,0.1C509.6,512,510.2,512.3,510.8,512.7
			L510.8,512.7z"/>
		<path class="st33" d="M491.5,743.1l10.6-8.1c0,0,0.1-1-0.7-0.9c-0.8,0-60.4,0-60.4,0l-5.5,9H491.5z"/>
		<path class="st34" d="M491.5,730.7h-56v12.4h56V730.7z"/>
		<path class="st33" d="M491.5,730.7l8.3-3.6h-58.2l-6.2,3.6H491.5z"/>
		<path class="st35" d="M499.9,727.2v0.8l-8.3,3.6v-0.8L499.9,727.2z"/>
		<path class="st36" d="M498.5,728.5v7l-7,4.8v-8.8L498.5,728.5z"/>
		<path class="st37" d="M483.4,739.6c1.5,0,2.8-1.2,2.8-2.7s-1.2-2.7-2.8-2.7c-1.5,0-2.8,1.2-2.8,2.7
			C480.6,738.4,481.9,739.6,483.4,739.6z"/>
		<path class="st36" d="M476,733.3h-37.7v7.7H476V733.3z"/>
		<path class="st41" d="M493.4,702.7l10.6-8.1c0,0,0.1-1-0.7-0.9c-0.8,0-60.4,0-60.4,0l-5.5,9H493.4z"/>
		<path class="st42" d="M493.4,690.3h-56v12.4h56V690.3z"/>
		<path class="st43" d="M493.4,690.3l8.3-3.6h-58.2l-6.2,3.6H493.4z"/>
		<path class="st41" d="M501.7,686.8v0.8l-8.3,3.6v-0.8L501.7,686.8z"/>
		<path class="st36" d="M500.3,688.1v7l-7,4.8v-8.8L500.3,688.1z"/>
		<path class="st37" d="M485.2,699.2c1.5,0,2.8-1.2,2.8-2.7s-1.2-2.7-2.8-2.7c-1.5,0-2.8,1.2-2.8,2.7
			C482.5,698,483.7,699.2,485.2,699.2z"/>
		<path class="st36" d="M477.8,692.9h-37.7v7.7h37.7V692.9z"/>
		<path class="st38" d="M491.5,729.4l10.6-8.1c0,0,0.1-1-0.7-0.9c-0.8,0-60.4,0-60.4,0l-5.5,9H491.5z"/>
		<path class="st39" d="M491.5,717h-56v12.4h56V717z"/>
		<path class="st40" d="M491.5,717l8.3-3.6h-58.2l-6.2,3.6H491.5z"/>
		<path class="st38" d="M499.9,713.4v0.8l-8.3,3.6V717L499.9,713.4z"/>
		<path class="st36" d="M498.5,714.8v7l-7,4.8v-8.8L498.5,714.8z"/>
		<path class="st37" d="M483.4,725.9c1.5,0,2.8-1.2,2.8-2.7s-1.2-2.7-2.8-2.7c-1.5,0-2.8,1.2-2.8,2.7S481.9,725.9,483.4,725.9z"/>
		<path class="st36" d="M476,719.6h-37.7v7.7H476V719.6z"/>
		<path class="st44" d="M446.1,717.4l-10.6-8.1c0,0-0.1-1,0.7-0.9c0.8,0,60.4,0,60.4,0l5.5,9H446.1z"/>
		<path class="st45" d="M502.1,705h-56v12.4h56V705z"/>
		<path class="st46" d="M446.1,705l-8.3-3.6H496l6.2,3.6H446.1z"/>
		<path class="st44" d="M437.8,701.4v0.8l8.3,3.6V705L437.8,701.4z"/>
		<path class="st36" d="M439.1,702.8v7l7,4.8v-8.8L439.1,702.8z"/>
		<path class="st37" d="M454.2,713.9c1.5,0,2.8-1.2,2.8-2.7s-1.2-2.7-2.8-2.7c-1.5,0-2.8,1.2-2.8,2.7
			C451.5,712.7,452.7,713.9,454.2,713.9z"/>
		<path class="st36" d="M461.6,715.2h37.7v-7.7h-37.7V715.2z"/>
		<path class="st47" d="M495.7,743.1h-56v12.8h56V743.1z"/>
		<path class="st37" d="M447.8,752.5c1.5,0,2.8-1.2,2.8-2.7s-1.2-2.7-2.8-2.7c-1.5,0-2.8,1.2-2.8,2.7
			C445,751.2,446.3,752.5,447.8,752.5z"/>
		<path class="st48" d="M453.5,702.8H505c0,0-22.1,12.7-22.9,14.6C482,717.4,460.9,702.6,453.5,702.8z"/>
		<path class="st36" d="M455.2,753.8h37.7v-7.7h-37.7V753.8z"/>
		<path class="st20" d="M453.5,702.8H505c0,0-15.6,12.6-16.4,14.5C488.5,717.2,460.9,702.6,453.5,702.8z"/>
		<path class="st49" d="M493.7,695.4c0,0,6.6,0.3,11.1-2.9l5.8-5c0,0-7.8,3.8-10.4,4.2L493.7,695.4z"/>
		<path class="st33" d="M787.3,745l10.6-8.1c0,0,0.1-1-0.7-0.9c-0.8,0-60.4,0-60.4,0l-5.5,9H787.3z"/>
		<path class="st34" d="M787.3,732.6h-56V745h56V732.6z"/>
		<path class="st33" d="M787.3,732.6l8.3-3.6h-58.2l-6.2,3.6H787.3z"/>
		<path class="st35" d="M795.7,729v0.8l-8.3,3.6v-0.8L795.7,729z"/>
		<path class="st36" d="M794.3,730.4v7l-7,4.8v-8.8L794.3,730.4z"/>
		<path class="st37" d="M779.2,741.5c1.5,0,2.8-1.2,2.8-2.7s-1.2-2.7-2.8-2.7s-2.8,1.2-2.8,2.7S777.7,741.5,779.2,741.5z"/>
		<path class="st36" d="M771.8,735.1h-37.7v7.7h37.7V735.1z"/>
		<path class="st41" d="M789.2,704.6l10.6-8.1c0,0,0.1-1-0.7-0.9c-0.8,0-60.4,0-60.4,0l-5.5,9H789.2z"/>
		<path class="st42" d="M789.2,692.2h-56v12.4h56V692.2z"/>
		<path class="st43" d="M789.2,692.2l8.3-3.6h-58.2l-6.2,3.6H789.2z"/>
		<path class="st41" d="M797.5,688.6v0.8l-8.3,3.6v-0.8L797.5,688.6z"/>
		<path class="st36" d="M796.1,690v7l-7,4.8V693L796.1,690z"/>
		<path class="st37" d="M781,701.1c1.5,0,2.8-1.2,2.8-2.7s-1.2-2.7-2.8-2.7s-2.8,1.2-2.8,2.7C778.3,699.9,779.5,701.1,781,701.1z"/>
		<path class="st36" d="M773.7,694.7H736v7.7h37.7V694.7z"/>
		<path class="st38" d="M787.3,731.3l10.6-8.1c0,0,0.1-1-0.7-0.9s-60.4,0-60.4,0l-5.5,9H787.3z"/>
		<path class="st39" d="M787.3,718.9h-56v12.4h56V718.9z"/>
		<path class="st40" d="M787.3,718.9l8.3-3.6h-58.2l-6.2,3.6H787.3z"/>
		<path class="st38" d="M795.7,715.3v0.8l-8.3,3.6v-0.8L795.7,715.3z"/>
		<path class="st36" d="M794.3,716.7v7l-7,4.8v-8.8L794.3,716.7z"/>
		<path class="st37" d="M779.2,727.8c1.5,0,2.8-1.2,2.8-2.7s-1.2-2.7-2.8-2.7s-2.8,1.2-2.8,2.7S777.7,727.8,779.2,727.8z"/>
		<path class="st36" d="M771.8,721.4h-37.7v7.7h37.7V721.4z"/>
		<path class="st44" d="M741.9,719.2l-10.6-8.1c0,0-0.1-1,0.7-0.9c0.8,0,60.4,0,60.4,0l5.5,9H741.9z"/>
		<path class="st45" d="M797.9,706.8h-56v12.4h56V706.8z"/>
		<path class="st46" d="M741.9,706.8l-8.3-3.6h58.2l6.2,3.6H741.9z"/>
		<path class="st44" d="M733.6,703.3v0.8l8.3,3.6v-0.8L733.6,703.3z"/>
		<path class="st36" d="M734.9,704.6v7l7,4.8v-8.8L734.9,704.6z"/>
		<path class="st37" d="M750,715.7c1.5,0,2.8-1.2,2.8-2.7s-1.2-2.7-2.8-2.7c-1.5,0-2.8,1.2-2.8,2.7
			C747.3,714.5,748.5,715.7,750,715.7z"/>
		<path class="st36" d="M757.4,717.1h37.7v-7.7h-37.7V717.1z"/>
		<path class="st47" d="M791.5,745h-56v12.8h56V745z"/>
		<path class="st37" d="M743.6,754.3c1.5,0,2.8-1.2,2.8-2.7s-1.2-2.7-2.8-2.7c-1.5,0-2.8,1.2-2.8,2.7S742.1,754.3,743.6,754.3z"/>
		<path class="st48" d="M749.3,704.7h51.5c0,0-22.1,12.7-22.9,14.6C777.9,719.2,756.7,704.5,749.3,704.7z"/>
		<path class="st36" d="M751,755.6h37.7v-7.7H751V755.6z"/>
		<path class="st20" d="M749.3,704.7h51.5c0,0-15.6,12.6-16.4,14.5C784.4,719.1,756.7,704.5,749.3,704.7z"/>
		<path class="st49" d="M789.5,697.3c0,0,6.6,0.3,11.1-2.9l5.7-5c0,0-7.8,3.8-10.4,4.2L789.5,697.3z"/>
		<path class="st121" d="M573.2,736.6l-14,0.9l0.3,3.8l14-0.9L573.2,736.6z"/>
		<path class="st121" d="M596.3,736.6l-14,0.9l0.3,3.8l14-0.9L596.3,736.6z"/>
		<path class="st75" d="M713.7,542.4l1.4-5.2l2.5-4.7c1.4-0.8,7-1.9,18.1,0.3c11,2.2,5.4,21.7,1.3,31.1l-0.2,6.2
			c-0.1,0.1-0.2,0.3-0.3,0.5c-3.5,5.5-11.7,5.8-14.9,0.1c0,0-0.1-2.7,0-4.6c-1.9,0.4-3.9,0.4-5.8,0.1c-2.7-0.6-1.5-3.8-0.5-5.3
			l-0.6-0.3c-0.1-0.1-0.2-0.1-0.3-0.2c-0.1-0.1-0.1-0.2-0.2-0.3c0-0.1,0-0.2,0-0.3s0-0.2,0.1-0.3l0.3-0.6l-0.9-0.7
			c-0.1-0.1-0.2-0.3-0.3-0.4c0-0.2,0-0.3,0-0.5l0.1-0.4c0.1-0.3,0.1-0.6,0-0.9c-0.1-0.3-0.3-0.5-0.6-0.6l-0.9-0.5
			c-0.2-0.1-0.4-0.3-0.6-0.5c-0.2-0.2-0.3-0.4-0.3-0.7c-0.1-0.2-0.1-0.5,0-0.7s0.2-0.5,0.3-0.7l2.4-3.1c0.3-0.4,0.4-0.8,0.5-1.2
			s0-0.9-0.2-1.3C713.4,545.2,713.3,543.8,713.7,542.4L713.7,542.4z"/>
		<path class="st25" d="M733.7,562.3l2.7,3.7c0,0.1,0.1,0.1,0.2,0.1s0.1,0,0.2,0c0.1,0,0.1,0,0.2-0.1c0.1,0,0.1-0.1,0.1-0.2l7.6-15
			c0.6-1.1,1-2.4,1.1-3.7c0.4-5.8-1.5-15.4-11.5-18.8c-14.1-4.8-17.8,2.2-18.3,2.1c-0.4-0.1-1.1-1.1-1.3-1.6
			c-0.2,0.4-0.2,1.5-0.1,2.1c-1-0.8-0.4-2.6,0.1-3.4c-6.3,6.8-3.1,11-0.7,12.2c2.5-0.3,7.8-0.6,8.9,1.4c1.5,2.5,0.7,2.1,3.6,4
			c2.4,1.5,3.7,5.9,2.9,8.5l1-0.6c0.3-3.9,2.9-3.8,2.9-3.8C736.8,550,735.3,558.5,733.7,562.3z"/>
		<path class="st32" d="M690.4,626L680,588.4h-57.1l11.2,38L690.4,626z"/>
		<path class="st132" d="M709,625.2c0,0,1.6,3.2-2.2,3.3c-3.9,0.1-71,0.4-71,0.4s-4.2-2.6-1.7-3.7H709z"/>
		<path class="st36" d="M1218.4,344.6l-4.9,4.6l-6.3,65.3l16.9,28.9l21.6-34.6l12.3-43.3l-1.1-23.2L1218.4,344.6z"/>
		<path class="st17" d="M1256.2,327.6l0.7,14.7l-24,19.2l-16.5-15.1l1-16.1L1256.2,327.6z"/>
		<path class="st133" d="M1216.3,369l16.1-7.6l16.7,8.5l-13.6-3.3l-11.5,70.5l5.4-70.3L1216.3,369z"/>
		<path class="st15" d="M1175.3,554.4c0,0-5.8,33.3-2.9,60.9s32.3,158.9,32.3,160.3c0,1.4,30.1,1.4,30.4-8.2
			c0.3-9.5-1.4-46.3-9.4-66.8s-13.6-51.8-9.1-72.6s14-42.3,14-42.3s17.5,91.7,17.1,104s-5.3,102.9-4.5,106
			c0.7,3.1,16.8-1.7,24.5,5.1c0,0,17.5-67.2,15.4-101.6c-2.1-34.4-2.8-57.3-2.1-67.5c0.7-10.2,8.4-77.3,8.4-77.3l-62.2-33.8
			L1175.3,554.4z"/>
		<path class="st23" d="M1207.2,309c0,0,5.9,44.3,26.1,43.2c20.2-1.1,24.7-26.5,24.7-32.6s0.6-30.6-10.7-43.5c0,0-28.3-9.6-35,7.4
			S1207.2,309,1207.2,309z"/>
		<path class="st24" d="M1207.4,306c0,0,5.9,44.3,26.1,43.2c20.2-1.1,24.7-26.5,24.7-32.6c0-6,0.6-30.6-10.7-43.5
			c0,0-28.3-9.6-35.1,7.4C1205.7,297.5,1207.4,306,1207.4,306z"/>
		<path class="st24" d="M1261.6,308.5c0.3-5-1.1-9.1-3-9.2s-3.6,3.9-3.9,8.8c-0.3,5,1.1,9.1,3,9.2S1261.3,313.5,1261.6,308.5z"/>
		<path class="st24" d="M1209.7,315.9c1.9-0.3,2.8-4.5,2.1-9.4c-0.8-4.9-2.9-8.7-4.7-8.4c-1.9,0.3-2.8,4.5-2.1,9.4
			C1205.7,312.4,1207.9,316.2,1209.7,315.9z"/>
		<path class="st16" d="M1273.3,804.3l-20.6-5.3c0,0,8.1-21.8,10.3-48.9c2.2-27.1,5.8-54.6,0-72.5s-4-69.4,0-79.9s3.7-27.1,3.7-27.1
			l-27.3-3.7l-8.8,18.6l4.6,179.3l-6.7,10.9l-8.7,4.7c0,0,6.9-29.1,3.4-36.6c-3.6-7.4-19.7-58.9-21.5-78.1
			c-1.8-19.2-4.2-42.8,2.8-55.9c7-13.1,12.4-54.6,12.4-54.6s-35.8,15.6-51.9,7.4c-16.1-8.2,0-33.6,0-33.6l47.9-15.7h41.4l36.7,19.6
			c0,0-3.6,199.5-5.3,200.8C1284,735.3,1273.3,804.3,1273.3,804.3z"/>
		<path class="st134" d="M1258.1,511.2c0,0-12.7-17-5.5-38.5l6.3-1.2l6.5,35.3L1258.1,511.2z"/>
		<path class="st25" d="M1205.7,305.8c0,2,9.2-7.5,10.7-17.3h32.8c0,0,4.2,17.9,6.6,19s5.4-0.2,3.9-14.2c-1.5-14.1-3.1-33.4-24.4-31
			C1213.8,264.7,1204.8,266.1,1205.7,305.8z"/>
		
			<linearGradient id="SVGID_38_" gradientUnits="userSpaceOnUse" x1="1223.4221" y1="427.4974" x2="1331.0658" y2="427.4974" gradientTransform="matrix(1 0 0 1 0 28.11)">
			<stop  offset="0" style="stop-color:#96ACD6"/>
			<stop  offset="1" style="stop-color:#9CBDDC"/>
		</linearGradient>
		<path class="st135" d="M1256.8,342.3c0,0,11.8,10.4,46.2,21.5c0,0,10.9,16.3,17,38.8s13.8,70.1,10.1,80.2c0,0-70.5,23.8-72,28.4
			c0,0,1.7-27.4-5.5-38.5l44.8-8.3l-10.3-27.2c0,0-0.8,64.4,15.1,122.3c0,0-8.8,10.3-66.3,9.6c0,0-10.6-14.5-11.9-45.8
			s0-86.6,0-86.6s14.2-21.5,24.1-60.5C1258.1,337.2,1256.8,342.3,1256.8,342.3z"/>
		<path class="st134" d="M1258.1,511.2c0,0-10.4-18.7-5.5-38.5C1252.6,472.7,1262.1,487.5,1258.1,511.2z"/>
		
			<linearGradient id="SVGID_39_" gradientUnits="userSpaceOnUse" x1="152650" y1="427.3344" x2="164545" y2="427.3344" gradientTransform="matrix(1 0 0 1 0 28.11)">
			<stop  offset="0" style="stop-color:#96ACD6"/>
			<stop  offset="1" style="stop-color:#9CBDDC"/>
		</linearGradient>
		<path class="st136" d="M1216.3,346.4c0,0-22.7,14.2-41.2,20.8c0,0-11.3,12.4-12.2,22.9c-0.9,10.5,0.7,26.2-2,32
			s-17.7,39.3-11.5,52.4c6.3,13.1,30.5,17.7,34.2,14.3c3.8-3.3,7.4-57.9,7.4-57.9s-0.8,10.5-7.8,65.4c-6.9,54-12,63.3-12,63.3
			s34.4,11,41,0s11.9-31.2,11.9-31.2l-0.3-91.7l-9.1-21.3L1216.3,346.4z"/>
		<path class="st20" d="M1150.3,463.4c0,0,31.6,25.5,37.3,33l50.9-0.3l-33.7-39.2L1150.3,463.4z"/>
		<path class="st17" d="M1256.4,473.6l-15.9-0.6c0,0-7.5-10.5-11.4-11.2s-10.7,0.2-14.4,5.9c0,0-11.5,1.1-16.6,1.4
			c-5.1,0.4,2.3,18.1,15.5,23.4s20.1,4.1,20.8,3.6c0.9-0.7,1.8-1.3,2.8-1.9h24.3L1256.4,473.6z"/>
		
			<linearGradient id="SVGID_40_" gradientUnits="userSpaceOnUse" x1="90060.7031" y1="460.44" x2="93392.1016" y2="460.44" gradientTransform="matrix(1 0 0 1 0 28.11)">
			<stop  offset="0" style="stop-color:#96ACD6"/>
			<stop  offset="1" style="stop-color:#9CBDDC"/>
		</linearGradient>
		<path class="st137" d="M1292.8,495.9l-34.5,15.3c0,0,2.2-25-5.7-38.5l36.7-6.8C1289.4,465.9,1294.1,491.8,1292.8,495.9z"/>
		<path class="st21" d="M1243.2,795.7c0,0-1.4,9.5-5,16.9s-9.7,22.8-3.2,25.3s23,2.5,25.5,0s13.1-7.6,9.9-24.4
			c-3.2-16.8-7.2-20.5-7.2-20.5L1243.2,795.7z"/>
		<path class="st22" d="M1241.1,782.4v9c0,0-8,3.9-16.2,6s-5.3,9.7-15.2,13.4c-9.9,3.7-34.6,2.9-34.6,2.9L1241.1,782.4z"/>
		<path class="st21" d="M1232.1,766.8c0,0,8.6,0.4,9,15.6c-4.9,3.3-10.2,6-15.8,8.2c-8.6,3.3-13.5,15-18.5,16.4
			c-5.1,1.4-34,9-32.5,5.9s20.5-17.2,22.6-20c2.1-2.9,8.6-21.6,8.6-21.6L1232.1,766.8z"/>
		<path class="st138" d="M1220.4,316.5c3.8,0,6.9-3,6.9-6.7s-3.1-6.7-6.9-6.7s-6.9,3-6.9,6.7S1216.7,316.5,1220.4,316.5z"/>
		<path class="st138" d="M1243.6,316.5c3.8,0,6.9-3,6.9-6.7s-3.1-6.7-6.9-6.7s-6.9,3-6.9,6.7S1239.8,316.5,1243.6,316.5z"/>
		<path class="st138" d="M1227.3,309.8h9.4"/>
		<path class="st138" d="M1250.5,309.8l5.1-2.3"/>
		<path class="st138" d="M1213.6,309.8l-6.2-3.9"/>
		
			<linearGradient id="SVGID_41_" gradientUnits="userSpaceOnUse" x1="87316.3984" y1="705.1021" x2="90324.1016" y2="705.1021" gradientTransform="matrix(1 0 0 1 0 28.11)">
			<stop  offset="0" style="stop-color:#9D4B9D"/>
			<stop  offset="1" style="stop-color:#783B97"/>
		</linearGradient>
		<path class="st139" d="M408.4,742.6c-5,6.9-21,10.5-28.4,11.5l-0.3,0.3l-2.5-35.9c2.2-1.7,7.4-5.3,10.8-6.1c4.2-1,7.6-0.2,9.6,4.8
			c1.9,5,8.1,2,12.4,5.8C414.3,726.8,414.7,733.9,408.4,742.6z"/>
		<path class="st104" d="M381.1,742.3c5-9.6,10.8-23.1,11.5-33.6c1.2-16.1,7.1,16.2,0.2,31.1c-3.2,1.6-6.7,2.5-10.3,2.5
			C382.1,742.4,381.6,742.4,381.1,742.3z"/>
		<path class="st104" d="M382.6,747c7-4.5,16.1-11.2,20.7-17.9c7.1-10.2-1.7,13.3-12,20.6c-2.7-0.1-5.4-0.9-7.8-2.2
			C383.1,747.4,382.8,747.2,382.6,747z"/>
		
			<linearGradient id="SVGID_42_" gradientUnits="userSpaceOnUse" x1="59989.8984" y1="643.559" x2="61223.8984" y2="643.559" gradientTransform="matrix(1 0 0 1 0 28.11)">
			<stop  offset="0" style="stop-color:#552E90"/>
			<stop  offset="1" style="stop-color:#91459A"/>
		</linearGradient>
		<path class="st140" d="M400.7,683.8c-0.1,2.5-8.5,4.9-12.7,5.7h-3.3c-14.3-7.6-6-19-5.4-20.5s12.4-16.9,18.4-15s0,9.1,0,10.3
			s1.8,4.4,3,6.3c1.2,1.9-3,4.6-3,6.8C397.7,679.7,400.9,680.7,400.7,683.8z"/>
		<path class="st141" d="M385.9,685.4l6.6-4.7 M385.1,691c0.2-1.4,0.4-3.3,0.8-5.6L385.1,691z M393.4,660.3
			c-1.9,4.1-3.5,8.3-4.6,12.7L393.4,660.3z M388.8,672.9l-2.1-6.2L388.8,672.9z M388.8,672.9c-1.3,4.5-2.2,8.9-2.8,12.5L388.8,672.9
			z M388.8,672.9l-2.8,12.5L388.8,672.9z"/>
		
			<linearGradient id="SVGID_43_" gradientUnits="userSpaceOnUse" x1="89995.1016" y1="669.5862" x2="92801.2969" y2="669.5862" gradientTransform="matrix(1 0 0 1 0 28.11)">
			<stop  offset="0" style="stop-color:#552E90"/>
			<stop  offset="1" style="stop-color:#91459A"/>
		</linearGradient>
		<path class="st142" d="M397.1,711.9c1.7,2.7-13.1,4.3-20.7,4.8c-2-8.9-5.2-26.2-2-24.2c4,2.5,3.3,2.1,4.4,3.6s0.4-5.5,1-7.9
			c0.6-2.3,0.4-4.3,1.8-5.1s3,6.2,4.3,6.9s5.2-9.3,8.3-10.8c2.5-1.2,2.5,0,2.1,0.8c-0.6,2-2.9,9.5-1.5,10.2
			c1.9,0.8,7.8-7.3,12.1-7.7c3.4-0.3,2.9,1.9,2.3,3c-2,2.1-6.1,6.6-6.5,7.7c-0.6,1.4,0.7-0.1,5.1,0.7c3.5,0.7,2,2.1,0.9,2.8
			c-3.7,1.1-11.2,3.7-11.1,4.7c0.1,1.2,5.5,0.6,7.5,0.8c1.6,0.2,0.9,1.4,0.4,1.9c-6.5,1.3-18.6,4.2-14.5,5.1
			C395.2,710.3,396.8,711.4,397.1,711.9z"/>
		<path class="st143" d="M376.2,716.7c6.1-8.6,21-27.2,31.5-32.6"/>
		<path class="st144" d="M398.6,739.8c-10.3-1.8-17.8-0.8-20.3,0l3.1,1.8l10,0.7L398.6,739.8z"/>
		<path class="st145" d="M387.6,745.6c-0.1-3.7-2.4-11.3-3.5-14.7c-0.9-3.7-1.9-9,1.2-0.8C389.1,740.5,387.7,750.3,387.6,745.6z"/>
		<path class="st146" d="M386.6,745.5c0.9-3.6,0.7-11.6,0.5-15.1c0.1-3.8,0.6-9.1,1.4-0.4C389.4,740.9,385.4,750.1,386.6,745.5z"/>
		
			<linearGradient id="SVGID_44_" gradientUnits="userSpaceOnUse" x1="55699.6016" y1="688.0345" x2="56780.1992" y2="688.0345" gradientTransform="matrix(1 0 0 1 0 28.11)">
			<stop  offset="0" style="stop-color:#552E90"/>
			<stop  offset="1" style="stop-color:#91459A"/>
		</linearGradient>
		<path class="st147" d="M376.8,728.4c1.7,3.9,5.5,3.3,7.2,2.6c2.4-0.6,7-3,5.6-7.9c-1.2-3.7-3.4-7.1-6.5-9.6l-3.6,3.5l4.3-5.6
			l-1.5,0.8l0.6-2.2l-5.8-6l-1,2.1V703c-1.6-1.1-5.4-3.1-7.5-1.8c-2.6,1.5-2.2,16.1,2,18.7C374.7,722.5,374.7,723.4,376.8,728.4z"/>
		<path class="st148" d="M385,731c-3-7-10-21.7-13.9-25"/>
		
			<linearGradient id="SVGID_45_" gradientUnits="userSpaceOnUse" x1="40716.6016" y1="683.9337" x2="41276.8008" y2="683.9337" gradientTransform="matrix(1 0 0 1 0 28.11)">
			<stop  offset="0" style="stop-color:#9D4B9D"/>
			<stop  offset="1" style="stop-color:#783B97"/>
		</linearGradient>
		<path class="st149" d="M387.7,731c-2.1-2.2-7.2-9.6-6-20.8c0.7,0.4,2.1,1.2,2.6,1c-0.7-0.6-2-2-1.8-2.7c0.1-0.8,0.6-9,4.9-11.2
			l1.4,2.3l-0.5-3c0.2-0.5,1.4-1.7,4.2-2.3c0.2,0,0.9-0.2,1.4-1.1c0,0.9-0.2,1.8-0.6,2.5c-0.6,0.9,1.6-1.5,1.4-2.5s3.1,4.9,3,8.3
			c-0.8,0.8-2.4,2.3-3.3,2.6c1.1-0.1,2.9-0.4,3.3-0.8c0.5-0.6,0.3,9.4-0.3,10.6l-4.2,2.4l4.2-1.2C396.6,718,392.4,725.7,387.7,731
			L387.7,731z"/>
		<path class="st150" d="M387.8,731c-0.5-7.7-0.4-24,3.7-28"/>
		
			<linearGradient id="SVGID_46_" gradientUnits="userSpaceOnUse" x1="47200.6992" y1="697.84" x2="47942.3008" y2="697.84" gradientTransform="matrix(1 0 0 1 0 28.11)">
			<stop  offset="0" style="stop-color:#552E90"/>
			<stop  offset="1" style="stop-color:#91459A"/>
		</linearGradient>
		<path class="st151" d="M405.7,723.7c-5,1.5-11.5,7.6-14.1,10.5l2.2-6.5l5.9-5.1l9.2-2.6l0.6-2.3
			C411.2,717.7,412,721.8,405.7,723.7z"/>
		<path class="st152" d="M397.2,725.3c-2.1,3.6-4.6,7.3-5.5,8.7c-0.3-1.6,0.1-5.6,4.1-9.1c5-4.3,7.2-3.8,9.3-4.5c1.7-0.6,2-1.6,2-2
			c0.5,0.6,0.2,1.6,0,2c1.2-0.5,2.1-1.5,2.5-2.7c0.2,0.1,0.4,0.2,0.5,0.3c0.2,0.1,0.3,0.3,0.4,0.5s0.1,0.4,0.2,0.6
			c0,0.2,0,0.4-0.1,0.6C408.1,722.9,399.8,720.9,397.2,725.3z"/>
		<path class="st153" d="M378.4,739.8l0.8,0.1c6.3,0.6,12.6,0.6,18.9,0l0.6-0.1v10.3c0,2.2-0.9,4.3-2.5,5.9s-3.8,2.4-6,2.4h-3.3
			c-2.3,0-4.4-0.9-6-2.4c-1.6-1.6-2.5-3.7-2.5-5.9V739.8z"/>
	</g>
</g>
</svg>
