<svg width="1440" height="928" viewBox="0 0 1440 928" fill="none" xmlns="http://www.w3.org/2000/svg">
<mask id="mask0" style="mask-type:alpha" maskUnits="userSpaceOnUse" x="0" y="0" width="1440" height="928">
<rect width="1440" height="928" fill="#C4C4C4"/>
</mask>
<g mask="url(#mask0)">
<g clip-path="url(#clip0)">
<rect width="1440" height="329" transform="translate(0 615.999)" fill="white"/>
<rect x="-12.9033" y="642.182" width="356.559" height="321.265" fill="#132D4C"/>
<path d="M9.52721 744.002C30.8626 748.816 51.6409 733.339 55.9369 709.435C60.2328 685.53 46.4197 662.25 25.0843 657.437C3.7489 652.624 -17.0294 668.1 -21.3254 692.004C-25.6214 715.909 -11.8082 739.189 9.52721 744.002Z" fill="#ED157B"/>
<path d="M320.29 955.882C341.625 960.695 362.404 945.218 366.7 921.314C370.996 897.41 357.182 874.129 335.847 869.316C314.512 864.503 293.733 879.979 289.437 903.884C285.141 927.788 298.955 951.068 320.29 955.882Z" fill="url(#paint0_linear)"/>
<path fill-rule="evenodd" clip-rule="evenodd" d="M370.969 615.683C370.969 627.02 368.992 637.84 365.404 647.733C376.6 651.066 384.851 662.501 384.851 676.095C384.851 686.717 379.814 696.02 372.27 701.171C379.923 707.826 384.848 718.232 384.848 729.927C384.848 746.93 374.438 761.209 360.369 765.198C367.022 775.017 370.97 787.263 370.97 800.542C370.97 810.075 368.935 819.076 365.325 827.029C380.06 830.474 391.13 845.109 391.13 862.642C391.13 871.521 388.291 879.656 383.575 885.972C396.346 894.191 404.946 909.625 404.946 927.31C404.946 953.621 385.91 974.949 362.427 974.949C338.944 974.949 319.907 953.621 319.907 927.31C319.907 911.85 326.48 898.11 336.666 889.406C330.224 882.758 326.188 873.228 326.188 862.642C326.188 861.217 326.262 859.811 326.404 858.428C323.905 858.84 321.348 859.053 318.746 859.053C289.904 859.053 266.523 832.857 266.523 800.542C266.523 768.227 289.904 742.03 318.746 742.03C319.764 742.03 320.775 742.063 321.778 742.127C320.567 738.313 319.907 734.207 319.907 729.927C319.907 714.852 328.091 701.918 339.753 696.399C337.72 694.023 336.04 691.264 334.808 688.229C323.217 696.241 309.562 700.865 294.943 700.865C267.435 700.865 243.339 684.497 229.991 659.979C225.674 669.54 216.824 676.095 206.607 676.095C203.102 676.095 199.757 675.323 196.702 673.924C183.271 700.909 157.541 719.16 128.006 719.16C104.156 719.16 82.7862 707.258 68.3711 688.466C62.4244 690.755 56.0434 691.998 49.4033 691.998C17.1793 691.998 -8.94336 662.73 -8.94336 626.626C-8.94336 590.522 17.1793 561.253 49.4033 561.253C58.1363 561.253 66.4211 563.403 73.8593 567.256C87.9561 552.242 107.021 543.027 128.006 543.027C167.267 543.027 199.805 575.279 205.667 617.426C205.979 617.414 206.292 617.407 206.607 617.407C211.114 617.407 215.355 618.683 219.058 620.929C218.964 619.194 218.916 617.445 218.916 615.683C218.916 568.639 252.954 530.502 294.943 530.502C336.931 530.502 370.969 568.639 370.969 615.683Z" fill="white"/>
<path fill-rule="evenodd" clip-rule="evenodd" d="M359.915 629.617C359.915 640.953 357.938 651.773 354.35 661.666C365.546 665 373.795 676.434 373.795 690.027C373.795 700.648 368.759 709.951 361.216 715.102C368.871 721.757 373.797 732.164 373.797 743.86C373.797 760.864 363.386 775.143 349.316 779.131C355.968 788.95 359.916 801.196 359.916 814.474C359.916 824.008 357.881 833.009 354.271 840.962C369.006 844.407 380.075 859.043 380.075 876.575C380.075 885.453 377.237 893.588 372.522 899.904C385.293 908.123 393.895 923.557 393.895 941.243C393.895 967.554 374.858 988.883 351.375 988.883C327.892 988.883 308.855 967.554 308.855 941.243C308.855 925.784 315.428 912.044 325.612 903.341C319.17 896.693 315.134 887.162 315.134 876.575C315.134 875.15 315.207 873.744 315.349 872.361C312.85 872.773 310.294 872.986 307.693 872.986C278.851 872.986 255.47 846.789 255.47 814.474C255.47 782.159 278.851 755.963 307.693 755.963C308.711 755.963 309.722 755.995 310.726 756.06C309.515 752.246 308.855 748.14 308.855 743.86C308.855 728.786 317.038 715.853 328.699 710.333C326.665 707.957 324.985 705.198 323.753 702.163C312.162 710.175 298.507 714.798 283.889 714.798C256.381 714.798 232.286 698.43 218.938 673.913C214.621 683.473 205.77 690.028 195.553 690.028C192.048 690.028 188.704 689.256 185.648 687.857C172.217 714.842 146.487 733.093 116.952 733.093C93.1018 733.093 71.7325 721.191 57.3174 702.399C51.3707 704.688 44.9897 705.931 38.3496 705.931C6.12562 705.931 -19.9971 676.663 -19.9971 640.559C-19.9971 604.455 6.12562 575.187 38.3496 575.187C47.0825 575.187 55.3674 577.336 62.8056 581.189C76.9023 566.175 95.9669 556.961 116.952 556.961C156.213 556.961 188.751 589.212 194.613 631.359C194.925 631.347 195.239 631.341 195.553 631.341C200.06 631.341 204.301 632.616 208.004 634.862C207.91 633.127 207.862 631.378 207.862 629.617C207.862 582.572 241.9 544.436 283.889 544.436C325.877 544.436 359.915 582.572 359.915 629.617Z" fill="white" fill-opacity="0.06"/>
</g>
<path d="M1642.82 41.9684L664.569 -144.346L478.874 830.659L1457.13 1016.97L1642.82 41.9684Z" fill="url(#paint1_linear)"/>
<path d="M744.698 284.32C780.552 291.149 815.154 267.619 821.983 231.764C828.812 195.909 805.281 161.308 769.427 154.479C733.572 147.65 698.97 171.18 692.141 207.035C685.313 242.89 708.843 277.492 744.698 284.32Z" fill="url(#paint2_linear)"/>
<g opacity="0.1">
<g opacity="0.1">
<path opacity="0.1" d="M975.531 -46.3135C975.531 -46.3135 982.757 -11.0629 975.003 0.926031C967.249 12.9149 966.114 37.1052 958.102 32.0814C950.09 27.0577 952.014 27.4504 950.448 14.6858C948.881 1.9212 961.068 -9.59164 948.907 1.92601C936.745 13.4437 939.334 5.09984 936.428 22.9827C933.522 40.8656 936.343 36.406 932.126 45.5705C927.908 54.7349 944.911 49.0049 944.906 38.5365C944.901 28.0681 952.693 49.9873 959.301 46.7749C965.909 43.5624 966.876 46.2188 969.604 39.7687C972.331 33.3187 977.123 23.7638 979.075 16.1403C981.026 8.51678 985.352 -1.0743 984.203 -10.7873C983.055 -20.5004 984.288 -24.2106 981.229 -31.7627C978.17 -39.3149 975.531 -46.3135 975.531 -46.3135Z" fill="white"/>
<path opacity="0.1" d="M920.953 -19.3395C920.953 -19.3395 928.174 15.9366 920.425 27.9001C912.676 39.8636 911.535 64.0792 903.524 59.0555C895.512 54.0317 897.436 54.4244 895.87 41.6598C894.303 28.8952 906.465 17.3776 894.303 28.8953C882.142 40.4129 884.73 32.0691 881.824 49.952C878.918 67.8348 881.76 63.4054 877.522 72.5397C873.284 81.674 890.333 75.9789 890.328 65.5105C890.323 55.0421 898.115 76.9614 904.698 73.7441C911.28 70.5268 912.298 73.1928 915 66.738C917.702 60.2831 922.545 50.7379 924.492 43.1398C926.439 35.5416 930.769 25.9251 929.62 16.2121C928.472 6.49906 929.684 2.75858 926.65 -4.78871C923.617 -12.336 920.953 -19.3395 920.953 -19.3395Z" fill="white"/>
<path opacity="0.1" d="M959.86 96.1932C959.86 96.1932 961.523 70.3412 968.533 67.3633C975.544 64.3853 972.774 78.9277 981.613 72.011C990.453 65.0944 994.679 54.0905 996.849 42.6951C999.019 31.2997 995.128 24.115 1002.68 23.397C1010.23 22.679 1007.38 15.6924 1010.34 22.6983C1013.29 29.7041 1017.84 28.4411 1021.87 18.4524C1024.13 12.0078 1026.77 5.70432 1029.78 -0.423946C1035.05 -11.255 1021.33 17.5605 1029.14 30.5921C1036.94 43.6237 1033.37 -2.97525 1047.05 -1.44912C1060.72 0.0769998 1055.21 29.035 1050.69 35.7751C1046.17 42.5153 1027.89 53.9726 1024.2 56.5046C1020.51 59.0366 1016.12 54.1771 1009.49 54.7803C1001.84 55.4536 995.132 68.1422 995.132 68.1422C995.132 68.1422 992.119 78.2989 989.444 81.0242C986.768 83.7495 994.916 79.9098 986.798 83.729C981.273 85.9128 975.121 85.8987 969.606 83.6894C969.606 83.6894 958.267 87.7105 959.86 96.1932Z" fill="white"/>
<path opacity="0.1" d="M994.225 8.71325C994.225 8.71325 995.929 -17.6306 1003.05 -20.64C1010.17 -23.6494 1007.38 -8.87373 1016.35 -15.9233C1025.32 -22.9729 1029.66 -34.1399 1031.87 -45.7384C1034.08 -57.3368 1030.03 -64.6569 1037.79 -65.3616C1045.55 -66.0664 1042.57 -73.2088 1045.58 -66.0615C1048.58 -58.9142 1053.2 -60.2437 1057.34 -70.3956C1059.63 -76.9589 1062.31 -83.378 1065.37 -89.6176C1070.73 -100.617 1056.78 -71.3177 1064.82 -58.1616C1072.86 -45.0056 1069.14 -92.3176 1083.05 -90.748C1096.95 -89.1783 1091.33 -59.662 1086.78 -52.9013C1082.23 -46.1406 1063.58 -34.3606 1059.79 -31.7416C1056 -29.1226 1051.59 -34.0933 1044.84 -33.484C1037.06 -32.7841 1030.23 -19.8816 1030.23 -19.8816C1030.23 -19.8816 1027.16 -9.52673 1024.45 -6.78087C1021.74 -4.035 1030.13 -7.88196 1021.74 -4.00962C1016.12 -1.79875 1009.87 -1.82283 1004.26 -4.07695C1004.26 -4.07695 992.611 0.068569 994.225 8.71325Z" fill="white"/>
<path opacity="0.4" d="M897.387 31.0896C897.387 31.0896 953.261 4.64794 976.953 41.4041C1000.65 78.1603 1016.32 97.0834 1029.57 66.4683C1042.81 35.8532 1097.26 13.6101 1037.06 -14.3181C976.868 -42.2464 922.193 -70.0177 905.824 -29.5033C889.455 11.011 897.387 31.0896 897.387 31.0896Z" fill="#231F20"/>
</g>
</g>
<path d="M1229.7 669.32C1265.55 676.149 1300.15 652.619 1306.98 616.764C1313.81 580.909 1290.28 546.308 1254.43 539.479C1218.57 532.65 1183.97 556.18 1177.14 592.035C1170.31 627.89 1193.84 662.492 1229.7 669.32Z" fill="#ED157B"/>
<g opacity="0.1">
<g opacity="0.1">
<path opacity="0.1" d="M1346.79 615.213C1346.79 615.213 1312.07 624.75 1299.61 617.801C1287.15 610.852 1262.92 611.313 1267.4 602.987C1271.88 594.661 1271.64 596.589 1284.25 594.203C1296.85 591.817 1309.28 603.205 1296.88 591.796C1284.49 580.388 1293.11 582.477 1275.06 580.748C1257 579.019 1261.75 581.58 1252.24 577.928C1242.73 574.276 1249.76 590.948 1260.1 590.235C1270.44 589.521 1249.18 598.675 1252.84 605.132C1256.5 611.59 1253.88 612.642 1260.49 614.953C1267.1 617.264 1276.96 621.404 1284.68 622.848C1292.4 624.292 1302.3 627.991 1311.89 626.216C1321.49 624.44 1325.2 625.384 1332.63 621.855C1340.07 618.326 1346.79 615.213 1346.79 615.213Z" fill="white"/>
<path opacity="0.1" d="M1316.27 562.508C1316.27 562.508 1281.55 572.045 1269.09 565.096C1256.63 558.147 1232.4 558.608 1236.88 550.282C1241.36 541.956 1241.12 543.884 1253.75 541.503C1266.38 539.122 1278.79 550.505 1266.39 539.096C1253.99 527.688 1262.59 529.773 1244.56 528.048C1226.53 526.324 1231.25 528.88 1221.72 525.223C1212.18 521.566 1219.24 538.243 1229.58 537.53C1239.92 536.816 1218.69 545.975 1222.32 552.427C1225.96 558.88 1223.36 559.937 1230 562.253C1236.63 564.568 1246.47 568.704 1254.16 570.143C1261.86 571.582 1271.78 575.286 1281.37 573.511C1290.97 571.735 1294.68 572.679 1302.14 569.155C1309.6 565.63 1316.27 562.508 1316.27 562.508Z" fill="white"/>
<path opacity="0.1" d="M1203.54 608.919C1203.54 608.919 1229.45 608.883 1232.87 615.687C1236.28 622.491 1221.63 620.675 1229.11 629.043C1236.59 637.411 1247.89 640.93 1259.35 642.324C1270.82 643.719 1277.79 639.287 1279 646.881C1280.21 654.476 1286.99 651.034 1280.18 654.471C1273.38 657.908 1274.95 662.337 1285.17 665.704C1291.75 667.566 1298.22 669.807 1304.54 672.417C1315.66 676.982 1286.03 665.185 1273.53 673.929C1261.03 682.673 1307.33 675.974 1306.66 689.707C1305.99 703.439 1276.73 699.787 1269.76 695.827C1262.78 691.868 1250.19 674.295 1247.34 670.754C1244.49 667.213 1249.14 662.549 1248.1 655.962C1246.92 648.372 1233.81 642.508 1233.81 642.508C1233.81 642.508 1223.47 640.171 1220.57 637.7C1217.68 635.228 1222.02 643.235 1217.71 635.208C1215.18 629.841 1214.79 623.708 1216.63 618.066C1216.63 618.066 1211.89 606.8 1203.54 608.919Z" fill="white"/>
<path opacity="0.1" d="M1293.1 637.471C1293.1 637.471 1319.41 637.431 1322.96 644.366C1326.5 651.3 1311.47 649.437 1319.11 657.94C1326.75 666.443 1338.19 670.017 1349.91 671.46C1361.63 672.902 1368.67 668.379 1369.88 676.105C1371.09 683.831 1378 680.282 1371.04 683.796C1364.09 687.311 1365.73 691.805 1376.12 695.282C1382.83 697.147 1389.42 699.404 1395.87 702.042C1407.19 706.696 1377.04 694.696 1364.33 703.584C1351.62 712.472 1398.68 705.654 1398.09 719.64C1397.51 733.625 1367.62 729.932 1360.54 725.822C1353.46 721.712 1340.55 703.894 1337.73 700.307C1334.92 696.72 1339.56 691.975 1338.52 685.255C1337.36 677.564 1323.98 671.571 1323.98 671.571C1323.98 671.571 1313.47 669.2 1310.53 666.669C1307.59 664.137 1312.1 672.228 1307.59 664.162C1305.02 658.7 1304.63 652.467 1306.49 646.726C1306.49 646.726 1301.62 635.305 1293.1 637.471Z" fill="white"/>
<path opacity="0.4" d="M1264.41 542.319C1264.41 542.319 1294.44 596.326 1259.36 622.257C1224.28 648.188 1206.48 665.18 1237.79 676.404C1269.11 687.628 1295.07 740.492 1318.89 678.699C1342.7 616.905 1366.92 560.424 1325.41 546.678C1283.9 532.933 1264.41 542.319 1264.41 542.319Z" fill="#231F20"/>
</g>
</g>
<path d="M765.394 485.943C784.513 489.584 802.964 477.037 806.605 457.918C810.246 438.799 797.699 420.349 778.581 416.707C759.462 413.066 741.011 425.613 737.37 444.732C733.728 463.851 746.275 482.301 765.394 485.943Z" fill="#ED157B"/>
<g opacity="0.1">
<g opacity="0.1">
<path opacity="0.1" d="M824.809 392.912C824.809 392.912 806.3 397.987 799.643 394.273C792.986 390.559 780.078 390.81 782.474 386.374C784.871 381.939 784.728 382.964 791.466 381.696C798.203 380.428 804.831 386.503 798.218 380.352C791.605 374.2 796.196 375.364 786.59 374.429C776.985 373.494 779.43 374.88 774.406 372.95C769.382 371.02 773.086 379.878 778.601 379.509C784.115 379.139 772.765 384.052 774.722 387.449C776.678 390.846 775.27 391.472 778.798 392.696C783 394.386 787.309 395.796 791.697 396.915C795.808 397.698 801.091 399.651 806.22 398.682C811.349 397.712 813.376 398.256 817.184 396.351C820.992 394.447 824.809 392.912 824.809 392.912Z" fill="white"/>
<path opacity="0.1" d="M808.572 364.808C808.572 364.808 790.064 369.883 783.407 366.169C776.75 362.456 763.842 362.706 766.238 358.271C768.635 353.835 768.492 354.86 775.23 353.592C781.967 352.324 788.57 358.395 781.982 352.248C775.394 346.102 779.96 347.261 770.329 346.32C760.698 345.38 763.168 346.771 758.144 344.841C753.12 342.912 756.825 351.77 762.339 351.4C767.854 351.03 756.529 355.948 758.485 359.345C760.442 362.742 759.034 363.368 762.562 364.593C766.768 366.271 771.076 367.68 775.461 368.811C779.572 369.594 784.86 371.522 789.984 370.578C795.108 369.634 797.14 370.152 800.948 368.248C804.756 366.343 808.572 364.808 808.572 364.808Z" fill="white"/>
<path opacity="0.1" d="M748.446 389.547C748.446 389.547 762.253 389.546 764.09 393.157C765.927 396.769 758.085 395.827 762.073 400.295C766.422 404.528 772.153 407.048 778.211 407.393C784.354 408.142 788.042 405.767 788.692 409.809C789.342 413.852 792.948 412.04 789.317 413.847C785.685 415.654 786.543 418.053 791.986 419.852C795.504 420.821 798.959 422.006 802.33 423.4C808.261 425.819 792.546 419.538 785.769 424.191C778.991 428.844 803.787 425.282 803.444 432.607C803.101 439.932 787.477 438.008 783.783 435.859C780.09 433.709 773.3 424.341 771.814 422.48C770.327 420.619 772.655 418.064 772.198 414.663C771.578 410.6 764.597 407.482 764.597 407.482C762.127 406.986 759.748 406.116 757.54 404.902C756.003 403.584 758.297 407.834 756.003 403.584C754.649 400.726 754.443 397.458 755.428 394.453C755.428 394.453 752.894 388.421 748.446 389.547Z" fill="white"/>
<path opacity="0.1" d="M796.254 404.779C796.254 404.779 810.29 404.822 812.173 408.468C814.056 412.114 806.057 411.169 810.112 415.702C814.534 420.018 820.37 422.587 826.54 422.934C832.784 423.702 836.537 421.261 837.198 425.385C837.859 429.508 841.526 427.655 837.834 429.503C834.142 431.351 834.995 433.776 840.54 435.594C844.112 436.593 847.623 437.798 851.057 439.202C857.104 441.695 841.018 435.291 834.226 440.02C827.434 444.749 852.559 441.118 852.193 448.702C851.827 456.286 835.943 454.207 832.178 452.017C828.413 449.827 821.496 440.304 820.019 438.392C818.542 436.481 820.869 433.926 820.416 430.368C819.78 426.249 812.652 423.077 812.652 423.077C810.151 422.56 807.741 421.676 805.499 420.452C803.911 419.124 806.271 423.439 803.911 419.124C802.553 416.202 802.351 412.875 803.344 409.811C803.344 409.811 800.759 403.638 796.254 404.779Z" fill="white"/>
<path opacity="0.4" d="M780.908 354.018C780.908 354.018 796.936 382.818 778.209 396.636C759.482 410.454 749.968 419.53 766.709 425.533C783.45 431.535 797.283 459.707 809.987 426.7C822.691 393.694 835.598 363.619 813.445 356.349C791.291 349.078 780.908 354.018 780.908 354.018Z" fill="#231F20"/>
</g>
</g>
<path opacity="0.3" d="M1471.57 687.619C1426.95 667.285 1377.54 672.714 1340.91 697.526C1327.08 668.761 1303.55 645.793 1274.46 632.654C1207.77 602.266 1130.18 629.318 1101.2 692.924C1099.45 696.757 1097.91 700.679 1096.59 704.673C1087.17 687.062 1072.2 673.058 1054.01 664.843C1039.75 658.19 1023.98 655.445 1008.31 656.888C992.64 658.331 977.636 663.911 964.832 673.057C957.562 666.237 949.225 660.654 940.15 656.529C933.999 653.713 927.556 651.582 920.938 650.174C919.822 607.059 893.524 565.526 850.074 545.727C834.364 538.453 817.277 534.638 799.966 534.54C782.655 534.441 765.524 538.061 749.734 545.155C750.804 543.122 751.863 541.061 752.832 538.934C759.984 523.019 763.298 505.646 762.505 488.216C761.713 470.785 756.838 453.785 748.272 438.584C762.314 435.57 775.463 429.332 786.679 420.362C797.894 411.391 806.87 399.935 812.895 386.898C834.497 339.492 811.735 282.72 762.083 260.095C759.618 258.972 757.139 257.986 754.623 257.08C756.026 254.697 757.305 252.243 758.454 249.728C763.296 238.989 765.751 227.328 765.648 215.549C765.545 203.77 762.887 192.153 757.858 181.501C770.203 178.802 781.755 173.279 791.608 165.367C801.46 157.454 809.346 147.366 814.646 135.894C822.522 118.545 823.994 98.9655 818.8 80.6337C830.264 70.6841 839.448 58.3801 845.727 44.5602C848.693 38.0178 850.997 31.1956 852.607 24.1952C877.669 15.8556 898.72 -1.52906 911.648 -24.5618C924.577 -47.5945 928.452 -74.6201 922.517 -100.358C931.794 -104.623 939.902 -111.068 946.151 -119.143C952.399 -127.218 956.603 -136.683 958.405 -146.734C960.206 -156.784 959.551 -167.12 956.496 -176.863C953.441 -186.605 948.077 -195.465 940.859 -202.687C933.642 -209.909 924.786 -215.279 915.045 -218.34C905.304 -221.402 894.968 -222.063 884.917 -220.268C874.866 -218.473 865.397 -214.275 857.319 -208.031C849.24 -201.788 842.79 -193.684 838.518 -184.41C838.047 -183.376 837.567 -182.323 837.096 -181.289C813.937 -185.316 790.096 -181.547 769.307 -170.575C748.518 -159.603 731.955 -142.046 722.211 -120.654C719.248 -114.118 716.947 -107.302 715.341 -100.308C700.062 -95.2214 686.14 -86.7258 674.629 -75.4643C663.119 -64.2028 654.32 -50.4706 648.899 -35.3069C643.479 -20.1431 641.579 -3.94497 643.342 12.0617C645.106 28.0683 650.487 43.4641 659.079 57.084C657.893 59.16 656.777 61.2921 655.772 63.4984C650.929 74.2366 648.474 85.8979 648.577 97.6772C648.68 109.456 651.338 121.073 656.367 131.725C644.022 134.424 632.47 139.947 622.618 147.859C612.765 155.772 604.879 165.86 599.579 177.332C580.767 218.615 600.064 267.927 642.689 288.431C638.872 293.562 635.614 299.086 632.971 304.91C627.976 315.981 625.228 327.933 624.888 340.073C624.547 352.214 626.621 364.301 630.989 375.634C590.657 378.859 553.858 402.25 536.495 440.353C510.509 497.379 537.881 565.685 597.61 592.903C613.319 600.176 630.407 603.991 647.718 604.09C665.029 604.188 682.159 600.568 697.95 593.474C696.86 595.498 695.83 597.549 694.861 599.676C668.875 656.702 696.182 725.098 755.931 752.325C777.249 762.112 800.932 765.563 824.157 762.266C832.962 783.379 849.477 800.346 870.345 809.718C884.6 816.374 900.368 819.123 916.035 817.683C931.702 816.243 946.705 810.667 959.509 801.524C966.791 808.328 975.13 813.903 984.2 818.032C1026.68 837.388 1075.76 821.707 1096.73 783.16C1102.68 800.784 1112.21 816.99 1124.72 830.762C1137.22 844.535 1152.43 855.579 1169.4 863.203C1214.01 883.528 1263.43 878.108 1300.04 853.287C1313.88 882.049 1337.4 905.017 1366.49 918.159C1433.16 948.538 1510.75 921.486 1539.74 857.88C1568.72 794.275 1538.33 718.043 1471.57 687.619Z" fill="white"/>
<path d="M1455.85 683.08C1433.78 678.799 1410.98 680.349 1389.7 687.577C1368.41 694.805 1349.38 707.461 1334.49 724.294C1315.09 699.873 1287.55 683.259 1256.9 677.498C1186.99 664.184 1119.7 709.068 1106.6 777.839C1105.8 782.03 1105.23 786.197 1104.87 790.339C1096.65 780.877 1086.49 773.312 1075.06 768.166C1063.64 763.02 1051.24 760.416 1038.71 760.533C1026.18 760.651 1013.83 763.488 1002.51 768.847C991.186 774.207 981.161 781.962 973.129 791.575C964.719 786.737 955.555 783.346 946.022 781.543C939.568 780.313 932.997 779.807 926.43 780.035C921.379 761.321 911.739 744.162 898.385 730.112C885.03 716.062 868.382 705.564 849.948 699.569C831.514 693.575 811.876 692.273 792.811 695.781C773.747 699.288 755.859 707.496 740.766 719.659C741.345 717.435 741.864 715.177 742.297 712.902C745.512 695.879 744.754 678.343 740.083 661.66C735.412 644.977 726.954 629.597 715.367 616.718C728.079 610.259 739.146 600.978 747.722 589.585C756.297 578.192 762.153 564.988 764.842 550.984C774.588 499.809 740.26 450.289 688.183 440.371C685.608 439.88 683.03 439.523 680.457 439.255C681.226 436.622 681.891 433.947 682.414 431.2C684.596 419.701 684.304 407.868 681.556 396.49C678.807 385.112 673.666 374.451 666.475 365.216C676.255 360.231 684.938 353.338 692.013 344.944C699.087 336.551 704.409 326.825 707.666 316.342C710.923 305.859 712.047 294.83 710.974 283.905C709.901 272.98 706.652 262.381 701.417 252.732C714.156 234.253 720.891 212.298 720.708 189.855C742.65 175.411 758.602 153.492 765.6 128.172C772.598 102.852 770.166 75.853 758.756 52.1912C770.646 42.6225 778.734 29.1286 781.57 14.1327C788.108 -20.199 766.32 -53.3664 732.889 -59.7335C699.458 -66.1005 666.985 -43.4012 660.43 -8.98359C660.213 -7.84635 660.021 -6.83783 659.788 -5.61476C613.985 -2.24202 574.03 32.4184 564.786 80.9549C563.468 88.0153 562.846 95.1882 562.931 102.37C549.571 111.141 538.321 122.765 529.993 136.406C521.664 150.047 516.464 165.365 514.766 181.256C513.069 197.148 514.916 213.219 520.175 228.311C525.435 243.403 533.975 257.141 545.181 268.537C544.525 270.813 543.947 273.149 543.493 275.531C541.309 287.032 541.602 298.868 544.355 310.247C547.107 321.626 552.254 332.288 559.454 341.52C548.274 347.232 538.543 355.419 531.002 365.457C523.461 375.495 518.308 387.12 515.934 399.449C507.446 444.016 536.811 487.142 581.752 496.702C575.896 510.84 573.608 526.201 575.089 541.431C576.57 556.661 581.775 571.294 590.245 584.038C571.329 590.434 554.444 601.725 541.308 616.764C528.172 631.802 519.253 650.051 515.458 669.655C503.738 731.195 545.022 790.778 607.656 802.707C624.272 805.922 641.391 805.465 657.812 801.368C674.233 797.27 689.559 789.631 702.717 778.986C702.138 781.211 701.619 783.469 701.186 785.743C689.461 847.304 730.745 906.887 793.4 918.82C815.853 923.138 839.079 920.757 860.188 911.973C867.862 922.743 877.902 931.61 889.537 937.895C901.172 944.18 914.093 947.715 927.307 948.228C940.521 948.742 953.677 946.22 965.765 940.857C977.852 935.494 988.55 927.432 997.037 917.291C1005.42 922.103 1014.54 925.487 1024.04 927.303C1068.58 935.787 1111.47 908.733 1122.62 866.275C1132.07 881.799 1144.69 895.161 1159.64 905.49C1174.59 915.82 1191.55 922.887 1209.42 926.232C1256.22 935.146 1298.18 948.785 1327.15 915.858C1345.77 939.416 1376.41 925.751 1408.36 931.836C1478.27 945.15 1545.58 900.158 1558.66 831.495C1571.74 762.831 1525.74 696.391 1455.85 683.08Z" fill="white"/>
<circle cx="524.277" cy="603.614" r="137.5" fill="white"/>
<circle cx="916.5" cy="812.5" r="137.5" fill="white"/>
<path d="M920.438 415.819L973.148 407.921L970.489 442.736L911.298 427.491L920.438 415.819Z" fill="#FBAC1D"/>
<path fill-rule="evenodd" clip-rule="evenodd" d="M896.981 433.996L900.95 438.013C913.642 434.391 925.295 427.814 934.955 418.821C946.369 407.503 948.018 390.695 947.427 383.718C940.428 383.043 923.753 384.706 912.344 395.999C903.232 405.567 896.517 417.159 892.752 429.824L896.854 433.972L896.981 433.996Z" fill="#BC3647"/>
<path d="M1008.26 504.424L1016.6 451.889L981.851 454.159L996.559 513.505L1008.26 504.424Z" fill="#D56627"/>
<path fill-rule="evenodd" clip-rule="evenodd" d="M989.85 527.744L985.881 523.727C989.646 511.062 996.36 499.47 1005.47 489.902C1016.88 478.609 1033.71 477.107 1040.69 477.752C1041.3 484.759 1039.5 501.405 1028.08 512.724C1018.42 521.717 1006.77 528.294 994.078 531.916L989.951 527.764L989.85 527.744Z" fill="#BC3647"/>
<path fill-rule="evenodd" clip-rule="evenodd" d="M960.87 462.704L948.692 450.417C956.863 427.54 983.839 371.241 1026.4 329.062C1068.97 286.883 1126.2 275.666 1149.69 275.536C1149.35 299.141 1138.06 356.639 1095.49 398.818C1052.93 440.997 996.388 467.47 973.422 475.51L961.244 463.223L960.87 462.704Z" fill="#FBAC1D"/>
<path d="M973.466 475.412L960.869 462.703L1149.71 275.539C1149.37 299.145 1138.08 356.643 1095.52 398.822C1052.95 441.001 996.412 467.474 973.466 475.412Z" fill="#F58227"/>
<mask id="mask1" style="mask-type:alpha" maskUnits="userSpaceOnUse" x="946" y="244" width="207" height="257">
<path fill-rule="evenodd" clip-rule="evenodd" d="M962.29 462.148L950.112 449.861C958.283 426.984 985.259 370.685 1027.82 328.506C1070.39 286.327 1127.62 275.109 1151.11 274.979C1150.77 298.584 1139.48 356.082 1096.91 398.261C1054.35 440.44 997.808 466.913 974.842 474.953L962.664 462.666L962.29 462.148Z" fill="#FBAC1D"/>
</mask>
<g mask="url(#mask1)">
<path d="M1121.06 234.436L1069.58 285.444L1141.74 358.266L1193.22 307.258L1121.06 234.436Z" fill="#DE445E"/>
<path d="M1069.6 283.722L1064.37 288.905L1136.53 361.727L1141.76 356.544L1069.6 283.722Z" fill="#A01D20"/>
<path d="M929.152 422.91L923.922 428.093L996.078 500.915L1001.31 495.732L929.152 422.91Z" fill="#A01D20"/>
</g>
<path d="M1093.82 369.252C1104.43 358.747 1104.46 341.587 1093.89 330.924C1083.33 320.262 1066.17 320.134 1055.56 330.639C1044.96 341.144 1044.93 358.304 1055.5 368.966C1066.06 379.629 1083.22 379.757 1093.82 369.252Z" fill="#373636"/>
<path d="M1117.22 324.347L1117.2 341.596L1037.36 340.987L1037.39 323.738L1117.22 324.347Z" fill="white" fill-opacity="0.2"/>
<path d="M1122.92 355.045L1036.09 354.288L1034.87 360.683L1123.01 361.348L1122.92 355.045Z" fill="white" fill-opacity="0.2"/>
<path d="M900.662 439.553L556.275 844.279L436.86 617.436L890.175 429.335L900.662 439.553Z" fill="white"/>
<path d="M940.88 448.931L972.786 478.975L724.018 1023.92L476.14 836.911L467.581 747.617L940.88 448.931Z" fill="white"/>
<path d="M985.885 523.725L695.073 855.344L828.46 954.941L993.981 531.895L985.885 523.725Z" fill="white"/>
<path opacity="0.1" d="M1768.16 -55.7446C1769.42 -60.2912 1770.58 -64.8824 1771.53 -69.5933C1778.49 -104.192 1775.78 -140.04 1763.69 -173.196C1751.6 -206.352 1730.6 -235.533 1703 -257.531C1675.41 -279.528 1642.28 -293.491 1607.26 -297.884C1572.24 -302.277 1536.69 -296.93 1504.52 -282.431C1481.91 -300.825 1455.42 -313.833 1427.04 -320.469C1398.66 -327.105 1369.15 -327.194 1340.73 -320.73C1312.32 -314.266 1285.74 -301.418 1263.03 -283.16C1240.31 -264.903 1222.05 -241.714 1209.63 -215.352C1197.21 -188.99 1190.95 -160.146 1191.33 -131.005C1191.71 -101.865 1198.71 -73.1934 1211.82 -47.1631C1224.92 -21.1327 1243.78 1.5732 1266.96 19.2341C1290.14 36.895 1317.04 49.0474 1345.61 54.7704C1384.88 62.7084 1425.64 58.097 1462.14 41.589C1466.96 45.5323 1471.97 49.2207 1477.2 52.6891C1475.91 57.2309 1474.75 61.8222 1473.83 66.5125C1466.98 100.645 1469.54 135.997 1481.23 168.786C1492.93 201.575 1513.32 230.569 1540.22 252.663C1567.12 274.758 1599.52 289.124 1633.96 294.223C1668.4 299.322 1703.57 294.963 1735.72 281.612C1767.88 268.261 1795.79 246.42 1816.49 218.427C1837.18 190.434 1849.88 157.341 1853.21 122.688C1856.55 88.0362 1850.4 53.1287 1835.43 21.7005C1820.46 -9.72766 1797.22 -36.494 1768.21 -55.7349L1768.16 -55.7446Z" fill="white"/>
<g opacity="0.08">
<path opacity="0.5" d="M1630.88 369.502L834.521 -318.771L786.902 -286.786L1599.19 415.619L1630.88 369.502Z" fill="white"/>
<path opacity="0.5" d="M736.561 -276.677L601.226 -185.837L1632.52 718.051L1735.18 605.708L736.561 -276.677Z" fill="white"/>
</g>
<path d="M1198.42 773.24C1200.48 773.633 1202.47 772.281 1202.86 770.22C1203.25 768.16 1201.9 766.171 1199.84 765.779C1197.78 765.386 1195.79 766.739 1195.4 768.799C1195 770.86 1196.36 772.848 1198.42 773.24Z" fill="white"/>
<g opacity="0.5">
<path opacity="0.5" d="M1076.6 556.551C1078.66 556.943 1080.65 555.591 1081.05 553.53C1081.44 551.47 1080.09 549.481 1078.03 549.089C1075.97 548.697 1073.98 550.049 1073.58 552.109C1073.19 554.17 1074.54 556.158 1076.6 556.551Z" fill="white"/>
<path opacity="0.5" d="M1119.11 566.012C1121.17 566.404 1123.16 565.052 1123.55 562.992C1123.95 560.931 1122.59 558.943 1120.53 558.55C1118.47 558.158 1116.48 559.51 1116.09 561.571C1115.7 563.631 1117.05 565.62 1119.11 566.012Z" fill="white"/>
<path opacity="0.5" d="M1147.9 536.935C1149.96 537.327 1151.95 535.975 1152.34 533.915C1152.73 531.854 1151.38 529.866 1149.32 529.473C1147.26 529.081 1145.27 530.433 1144.88 532.493C1144.49 534.554 1145.84 536.542 1147.9 536.935Z" fill="white"/>
<path opacity="0.5" d="M1379.03 562.602C1381.09 562.995 1383.08 561.643 1383.48 559.582C1383.87 557.522 1382.52 555.533 1380.46 555.141C1378.39 554.748 1376.41 556.101 1376.01 558.161C1375.62 560.221 1376.97 562.21 1379.03 562.602Z" fill="white"/>
<path opacity="0.5" d="M1294.85 492.521C1296.92 492.913 1298.9 491.561 1299.3 489.501C1299.69 487.44 1298.34 485.452 1296.28 485.059C1294.22 484.667 1292.23 486.019 1291.83 488.079C1291.44 490.14 1292.79 492.128 1294.85 492.521Z" fill="white"/>
<path opacity="0.5" d="M1392.72 488.646C1394.78 489.038 1396.77 487.686 1397.16 485.626C1397.55 483.565 1396.2 481.577 1394.14 481.184C1392.08 480.792 1390.09 482.144 1389.7 484.204C1389.31 486.265 1390.66 488.253 1392.72 488.646Z" fill="white"/>
<path opacity="0.5" d="M1339.54 481.913C1341.6 482.306 1343.59 480.954 1343.98 478.893C1344.37 476.833 1343.02 474.844 1340.96 474.452C1338.9 474.059 1336.91 475.412 1336.52 477.472C1336.13 479.532 1337.48 481.521 1339.54 481.913Z" fill="white"/>
<path opacity="0.5" d="M1100.45 435.165C1102.51 435.557 1104.5 434.205 1104.89 432.145C1105.29 430.084 1103.93 428.096 1101.87 427.703C1099.81 427.311 1097.83 428.663 1097.43 430.723C1097.04 432.784 1098.39 434.772 1100.45 435.165Z" fill="white"/>
<path opacity="0.5" d="M1116.17 175.526C1118.23 175.918 1120.21 174.566 1120.61 172.505C1121 170.445 1119.65 168.456 1117.59 168.064C1115.53 167.672 1113.54 169.024 1113.14 171.084C1112.75 173.145 1114.1 175.133 1116.17 175.526Z" fill="white"/>
<path opacity="0.5" d="M1158.65 184.984C1160.71 185.377 1162.7 184.024 1163.09 181.964C1163.49 179.903 1162.13 177.915 1160.07 177.523C1158.01 177.13 1156.02 178.482 1155.63 180.543C1155.24 182.603 1156.59 184.592 1158.65 184.984Z" fill="white"/>
<path opacity="0.5" d="M1187.47 155.913C1189.53 156.305 1191.52 154.953 1191.91 152.893C1192.3 150.832 1190.95 148.844 1188.89 148.451C1186.83 148.059 1184.84 149.411 1184.45 151.472C1184.06 153.532 1185.41 155.52 1187.47 155.913Z" fill="white"/>
<path opacity="0.5" d="M1418.59 181.578C1420.65 181.97 1422.64 180.618 1423.03 178.558C1423.43 176.497 1422.07 174.509 1420.01 174.116C1417.95 173.724 1415.97 175.076 1415.57 177.137C1415.18 179.197 1416.53 181.185 1418.59 181.578Z" fill="white"/>
<path opacity="0.5" d="M1334.42 111.497C1336.48 111.89 1338.46 110.538 1338.86 108.477C1339.25 106.417 1337.9 104.428 1335.84 104.036C1333.78 103.643 1331.79 104.996 1331.39 107.056C1331 109.116 1332.35 111.105 1334.42 111.497Z" fill="white"/>
<path opacity="0.5" d="M1244.61 404.919C1246.67 405.311 1248.66 403.959 1249.05 401.898C1249.44 399.838 1248.09 397.85 1246.03 397.457C1243.97 397.065 1241.98 398.417 1241.59 400.477C1241.19 402.538 1242.55 404.526 1244.61 404.919Z" fill="white"/>
<path opacity="0.5" d="M1432.28 107.648C1434.34 108.041 1436.33 106.688 1436.72 104.628C1437.12 102.567 1435.76 100.579 1433.7 100.187C1431.64 99.7942 1429.66 101.146 1429.26 103.207C1428.87 105.267 1430.22 107.256 1432.28 107.648Z" fill="white"/>
<path opacity="0.5" d="M1379.1 100.888C1381.16 101.281 1383.15 99.9287 1383.54 97.8682C1383.94 95.8077 1382.58 93.8193 1380.52 93.4269C1378.46 93.0344 1376.47 94.3866 1376.08 96.4471C1375.69 98.5076 1377.04 100.496 1379.1 100.888Z" fill="white"/>
<path opacity="0.5" d="M1140.02 54.1668C1142.08 54.5592 1144.07 53.207 1144.46 51.1465C1144.85 49.0861 1143.5 47.0976 1141.44 46.7052C1139.38 46.3128 1137.39 47.665 1137 49.7254C1136.61 51.7859 1137.96 53.7743 1140.02 54.1668Z" fill="white"/>
<path opacity="0.5" d="M733.154 91.2932C735.215 91.6857 737.203 90.3334 737.596 88.273C737.988 86.2125 736.636 84.2241 734.576 83.8316C732.515 83.4392 730.527 84.7914 730.134 86.8519C729.742 88.9123 731.094 90.9008 733.154 91.2932Z" fill="white"/>
<path opacity="0.5" d="M775.666 100.787C777.727 101.179 779.715 99.8271 780.107 97.7666C780.5 95.7062 779.148 93.7177 777.087 93.3253C775.027 92.9329 773.038 94.2851 772.646 96.3455C772.253 98.406 773.606 100.394 775.666 100.787Z" fill="white"/>
<path opacity="0.5" d="M804.458 71.6848C806.519 72.0773 808.507 70.725 808.899 68.6646C809.292 66.6041 807.94 64.6157 805.879 64.2232C803.819 63.8308 801.83 65.183 801.438 67.2435C801.045 69.3039 802.398 71.2924 804.458 71.6848Z" fill="white"/>
<path opacity="0.5" d="M1035.58 97.3704C1037.64 97.7628 1039.63 96.4106 1040.02 94.3501C1040.41 92.2897 1039.06 90.3012 1037 89.9088C1034.94 89.5164 1032.95 90.8686 1032.56 92.929C1032.17 94.9895 1033.52 96.9779 1035.58 97.3704Z" fill="white"/>
<path opacity="0.5" d="M951.408 27.2961C953.469 27.6886 955.457 26.3364 955.85 24.2759C956.242 22.2155 954.89 20.227 952.829 19.8346C950.769 19.4421 948.781 20.7944 948.388 22.8548C947.996 24.9153 949.348 26.9037 951.408 27.2961Z" fill="white"/>
<path opacity="0.5" d="M861.621 320.722C863.682 321.114 865.67 319.762 866.063 317.702C866.455 315.641 865.103 313.653 863.042 313.26C860.982 312.868 858.993 314.22 858.601 316.281C858.209 318.341 859.561 320.33 861.621 320.722Z" fill="white"/>
<path opacity="0.5" d="M1049.27 23.4202C1051.33 23.8126 1053.32 22.4604 1053.71 20.3999C1054.11 18.3395 1052.75 16.351 1050.69 15.9586C1048.63 15.5662 1046.64 16.9184 1046.25 18.9788C1045.86 21.0393 1047.21 23.0278 1049.27 23.4202Z" fill="white"/>
<path opacity="0.5" d="M996.085 16.6819C998.146 17.0743 1000.13 15.7221 1000.53 13.6616C1000.92 11.6012 999.567 9.61274 997.506 9.22032C995.446 8.82789 993.457 10.1801 993.065 12.2405C992.672 14.301 994.025 16.2894 996.085 16.6819Z" fill="white"/>
</g>
<path d="M153.016 935.262V837H125.45V858.402H95.6162V935.262H153.016Z" fill="#132E4C"/>
<path d="M141.665 827.699H147.18V822.185H141.665V827.699Z" fill="#4B92BA"/>
<path opacity="0.5" d="M141.665 814.954H147.18V809.44H141.665V814.954Z" fill="#4B92BA"/>
<path opacity="0.5" d="M130.655 827.699H136.169V822.185H130.655V827.699Z" fill="#4B92BA"/>
<path opacity="0.25" d="M130.655 814.954H136.169V809.44H130.655V814.954Z" fill="#4B92BA"/>
<path d="M14.3159 780.552H42.9131V888.788H14.3159V780.552Z" fill="#294B6B"/>
<path d="M0.00109729 935.481V852H23.4207V870.183H48.7666V935.481H0.00109729Z" fill="#132E4C"/>
<path d="M9.64681 837.012H4.96191L4.96191 832.327H9.64681V837.012Z" fill="#4B92BA"/>
<path d="M33.3021 793.104H28.6172V788.419H33.3021V793.104Z" fill="#4B92BA"/>
<path d="M33.3021 801.971H28.6172V797.286H33.3021V801.971Z" fill="#4B92BA"/>
<path opacity="0.5" d="M9.64681 826.185H4.96191L4.96191 821.5H9.64681V826.185Z" fill="#4B92BA"/>
<path opacity="0.5" d="M18.9994 837.012H14.3145V832.327H18.9994V837.012Z" fill="#4B92BA"/>
<path opacity="0.5" d="M25.3568 793.104H20.6719V788.419H25.3568V793.104Z" fill="#4B92BA"/>
<path opacity="0.25" d="M18.9994 826.185H14.3145V821.5H18.9994V826.185Z" fill="#4B92BA"/>
<path d="M19.7706 780.552V772.517L37.4609 754.822V780.552H19.7706Z" fill="#294B6B"/>
<path d="M232.375 784.517H260.973V892.753H232.375V784.517Z" fill="#294B6B"/>
<path d="M218.061 893.601V810.12H241.48V828.303H266.826V893.601H218.061Z" fill="#1A395C"/>
<path d="M227.706 840.978H223.021V836.293H227.706V840.978Z" fill="#4B92BA"/>
<path d="M251.362 797.069H246.677V792.384H251.362V797.069Z" fill="#4B92BA"/>
<path d="M251.362 805.937H246.677V801.251H251.362V805.937Z" fill="#4B92BA"/>
<path opacity="0.5" d="M227.706 830.15H223.021V825.465H227.706V830.15Z" fill="#4B92BA"/>
<path opacity="0.5" d="M237.059 840.978H232.374V836.293H237.059V840.978Z" fill="#4B92BA"/>
<path opacity="0.5" d="M243.416 797.069H238.731V792.384H243.416V797.069Z" fill="#4B92BA"/>
<path opacity="0.25" d="M237.059 830.15H232.374V825.465H237.059V830.15Z" fill="#4B92BA"/>
<path d="M237.83 784.517V776.482L255.521 758.787V784.517H237.83Z" fill="#294B6B"/>
<path d="M104.639 780.552H76.042V888.788H104.639V780.552Z" fill="#294B6B"/>
<path d="M118.954 935.481V852H95.5343V870.183H70.1885V935.481H118.954Z" fill="#132E4C"/>
<path d="M109.308 837.012H113.993V832.327H109.308V837.012Z" fill="#4B92BA"/>
<path d="M85.653 793.104H90.3379V788.419H85.653V793.104Z" fill="#4B92BA"/>
<path d="M85.653 801.971H90.3379V797.286H85.653V801.971Z" fill="#4B92BA"/>
<path opacity="0.5" d="M109.308 826.185H113.993V821.5H109.308V826.185Z" fill="#4B92BA"/>
<path opacity="0.5" d="M99.9557 837.012H104.641V832.327H99.9557V837.012Z" fill="#4B92BA"/>
<path opacity="0.5" d="M93.5992 793.104H98.2842V788.419H93.5992V793.104Z" fill="#4B92BA"/>
<path opacity="0.25" d="M99.9557 826.185H104.641V821.5H99.9557V826.185Z" fill="#4B92BA"/>
<path d="M99.1845 780.552V772.517L81.4941 754.822V780.552H99.1845Z" fill="#294B6B"/>
<path d="M324.94 934.842V799.967H287.103V829.344H246.153V934.842H324.94Z" fill="#132E4C"/>
<path d="M309.359 849.826H316.928V842.257H309.359V849.826Z" fill="#4B92BA"/>
<path opacity="0.5" d="M309.359 832.333H316.928V824.763H309.359V832.333Z" fill="#4B92BA"/>
<path opacity="0.5" d="M294.249 849.826H301.818V842.257H294.249V849.826Z" fill="#4B92BA"/>
<path opacity="0.25" d="M294.249 832.333H301.818V824.763H294.249V832.333Z" fill="#4B92BA"/>
<path d="M593 934.842V799.967H553.687V829.344H511.141V934.842H593Z" fill="#132E4C"/>
<path d="M576.81 849.826H584.675V842.257H576.81V849.826Z" fill="#4B92BA"/>
<path opacity="0.5" d="M576.81 832.333H584.675V824.763H576.81V832.333Z" fill="#4B92BA"/>
<path opacity="0.5" d="M561.11 849.826H568.975V842.257H561.11V849.826Z" fill="#4B92BA"/>
<path opacity="0.25" d="M561.11 832.333H568.975V824.763H561.11V832.333Z" fill="#4B92BA"/>
<path d="M872.167 934.842V799.967H834.329V829.344H793.38V934.842H872.167Z" fill="#132E4C"/>
<path d="M856.585 849.826H864.153V842.257H856.585V849.826Z" fill="#4B92BA"/>
<path opacity="0.5" d="M856.585 832.333H864.153V824.763H856.585V832.333Z" fill="#4B92BA"/>
<path opacity="0.5" d="M841.474 849.826H849.043V842.257H841.474V849.826Z" fill="#4B92BA"/>
<path opacity="0.25" d="M841.474 832.333H849.043V824.763H841.474V832.333Z" fill="#4B92BA"/>
<path d="M1297.58 934.842V799.967H1259.74V829.344H1218.79V934.842H1297.58Z" fill="#132E4C"/>
<path d="M1281.99 849.826H1289.56V842.257H1281.99V849.826Z" fill="#4B92BA"/>
<path opacity="0.5" d="M1281.99 832.333H1289.56V824.763H1281.99V832.333Z" fill="#4B92BA"/>
<path opacity="0.5" d="M1266.88 849.826H1274.45V842.257H1266.88V849.826Z" fill="#4B92BA"/>
<path opacity="0.25" d="M1266.88 832.333H1274.45V824.763H1266.88V832.333Z" fill="#4B92BA"/>
<path d="M321 935V800H362.302V829.404H407V935H321Z" fill="#132E4C"/>
<path d="M340.523 849.826H332.954V842.257H340.523V849.826Z" fill="#4B92BA"/>
<path opacity="0.5" d="M340.523 832.333H332.954V824.763H340.523V832.333Z" fill="#4B92BA"/>
<path opacity="0.5" d="M355.633 849.826H348.063V842.257H355.633V849.826Z" fill="#4B92BA"/>
<path opacity="0.25" d="M355.633 832.333H348.063V824.763H355.633V832.333Z" fill="#4B92BA"/>
<path d="M589.928 934.842V799.967H627.765V829.344H668.715V934.842H589.928Z" fill="#132E4C"/>
<path d="M866 943V792H908.262V824.889H954V943H866Z" fill="#132E4C"/>
<path d="M605.51 849.826H597.941V842.257H605.51V849.826Z" fill="#4B92BA"/>
<path opacity="0.5" d="M605.51 832.333H597.941V824.763H605.51V832.333Z" fill="#4B92BA"/>
<path opacity="0.5" d="M620.621 849.826H613.052V842.257H620.621V849.826Z" fill="#4B92BA"/>
<path opacity="0.25" d="M620.621 832.333H613.052V824.763H620.621V832.333Z" fill="#4B92BA"/>
<path d="M1101 936V801H1059.22V830.404H1014V936H1101Z" fill="#132E4C"/>
<path d="M1085.28 851.082H1092.85V843.513H1085.28V851.082Z" fill="#4B92BA"/>
<path opacity="0.5" d="M1085.28 833.588H1092.85V826.019H1085.28V833.588Z" fill="#4B92BA"/>
<path opacity="0.5" d="M1070.17 851.082H1077.74V843.513H1070.17V851.082Z" fill="#4B92BA"/>
<path opacity="0.25" d="M1070.17 833.588H1077.74V826.019H1070.17V833.588Z" fill="#4B92BA"/>
<path d="M1180 931V797H1141.1V826.186H1099V931H1180Z" fill="#132E4C"/>
<path d="M1164.07 846.388H1171.64V838.819H1164.07V846.388Z" fill="#4B92BA"/>
<path opacity="0.5" d="M1164.07 828.894H1171.64V821.325H1164.07V828.894Z" fill="#4B92BA"/>
<path opacity="0.5" d="M1148.96 846.388H1156.53V838.819H1148.96V846.388Z" fill="#4B92BA"/>
<path opacity="0.25" d="M1148.96 828.894H1156.53V821.325H1148.96V828.894Z" fill="#4B92BA"/>
<path d="M1295 935V800H1335.82V829.404H1380V935H1295Z" fill="#132E4C"/>
<path d="M1312.57 850.138H1305V842.569H1312.57V850.138Z" fill="#4B92BA"/>
<path opacity="0.5" d="M1312.57 832.569H1305V825H1312.57V832.569Z" fill="#4B92BA"/>
<path opacity="0.5" d="M1328.14 850.138H1320.57V842.569H1328.14V850.138Z" fill="#4B92BA"/>
<path opacity="0.25" d="M1328.14 832.569H1320.57V825H1328.14V832.569Z" fill="#4B92BA"/>
<path d="M258.536 785.115H219.284V933.678H258.536V785.115Z" fill="#294B6B"/>
<path d="M278.186 934.843V820.258H246.04V845.216H211.251V934.843H278.186Z" fill="#132E4C"/>
<path d="M264.948 862.613H271.378V856.183H264.948V862.613Z" fill="#4B92BA"/>
<path d="M232.477 802.344H238.907V795.913H232.477V802.344Z" fill="#4B92BA"/>
<path d="M232.477 814.516H238.907V808.085H232.477V814.516Z" fill="#4B92BA"/>
<path opacity="0.5" d="M264.948 847.751H271.378V841.321H264.948V847.751Z" fill="#4B92BA"/>
<path opacity="0.5" d="M252.11 862.613H258.54V856.183H252.11V862.613Z" fill="#4B92BA"/>
<path opacity="0.5" d="M243.382 802.344H249.812V795.913H243.382V802.344Z" fill="#4B92BA"/>
<path opacity="0.25" d="M252.11 847.751H258.54V841.321H252.11V847.751Z" fill="#4B92BA"/>
<path d="M251.051 785.116V774.087L226.77 749.799V785.116H251.051Z" fill="#294B6B"/>
<path d="M201.285 785.115H162.033V933.678H201.285V785.115Z" fill="#294B6B"/>
<path d="M220.935 934.585V820H188.789V844.958H154V934.585H220.935Z" fill="#132E4C"/>
<path d="M207.697 862.613H214.127V856.183H207.697V862.613Z" fill="#4B92BA"/>
<path d="M175.226 802.344H181.656V795.913H175.226V802.344Z" fill="#4B92BA"/>
<path d="M175.226 814.516H181.656V808.085H175.226V814.516Z" fill="#4B92BA"/>
<path opacity="0.5" d="M207.697 847.751H214.127V841.321H207.697V847.751Z" fill="#4B92BA"/>
<path opacity="0.5" d="M194.859 862.613H201.289V856.183H194.859V862.613Z" fill="#4B92BA"/>
<path opacity="0.5" d="M186.131 802.344H192.562V795.913H186.131V802.344Z" fill="#4B92BA"/>
<path opacity="0.25" d="M194.859 847.751H201.289V841.321H194.859V847.751Z" fill="#4B92BA"/>
<path d="M193.8 785.116V774.087L169.519 749.799V785.116H193.8Z" fill="#294B6B"/>
<path d="M958.285 785.115H919.033V933.678H958.285V785.115Z" fill="#294B6B"/>
<path d="M977.935 934.843V820.258H945.789V845.216H911V934.843H977.935Z" fill="#132E4C"/>
<path d="M964.697 862.613H971.127V856.183H964.697V862.613Z" fill="#4B92BA"/>
<path d="M932.226 802.344H938.656V795.913H932.226V802.344Z" fill="#4B92BA"/>
<path d="M932.226 814.516H938.656V808.085H932.226V814.516Z" fill="#4B92BA"/>
<path opacity="0.5" d="M964.697 847.751H971.127V841.321H964.697V847.751Z" fill="#4B92BA"/>
<path opacity="0.5" d="M951.859 862.613H958.289V856.183H951.859V862.613Z" fill="#4B92BA"/>
<path opacity="0.5" d="M943.131 802.344H949.562V795.913H943.131V802.344Z" fill="#4B92BA"/>
<path opacity="0.25" d="M951.859 847.751H958.289V841.321H951.859V847.751Z" fill="#4B92BA"/>
<path d="M950.8 785.116V774.087L926.519 749.799V785.116H950.8Z" fill="#294B6B"/>
<path d="M1171.29 785.115H1132.03V933.678H1171.29V785.115Z" fill="#294B6B"/>
<path d="M1190.94 934.843V820.258H1158.79V845.216H1124V934.843H1190.94Z" fill="#132E4C"/>
<path d="M1177.7 862.613H1184.13V856.183H1177.7V862.613Z" fill="#4B92BA"/>
<path d="M1145.23 802.344H1151.66V795.913H1145.23V802.344Z" fill="#4B92BA"/>
<path d="M1145.23 814.516H1151.66V808.085H1145.23V814.516Z" fill="#4B92BA"/>
<path opacity="0.5" d="M1177.7 847.751H1184.13V841.321H1177.7V847.751Z" fill="#4B92BA"/>
<path opacity="0.5" d="M1164.86 862.613H1171.29V856.183H1164.86V862.613Z" fill="#4B92BA"/>
<path opacity="0.5" d="M1156.13 802.344H1162.56V795.913H1156.13V802.344Z" fill="#4B92BA"/>
<path opacity="0.25" d="M1164.86 847.751H1171.29V841.321H1164.86V847.751Z" fill="#4B92BA"/>
<path d="M1163.8 785.116V774.087L1139.52 749.799V785.116H1163.8Z" fill="#294B6B"/>
<path d="M523.525 785.115H484.272V933.678H523.525V785.115Z" fill="#294B6B"/>
<path d="M543 935V820H505.54V845.048H465V935H543Z" fill="#132E4C"/>
<path d="M529.935 862.613H536.365V856.183H529.935V862.613Z" fill="#4B92BA"/>
<path d="M497.466 802.344H503.896V795.913H497.466V802.344Z" fill="#4B92BA"/>
<path d="M497.466 814.516H503.896V808.085H497.466V814.516Z" fill="#4B92BA"/>
<path opacity="0.5" d="M529.935 847.751H536.365V841.321H529.935V847.751Z" fill="#4B92BA"/>
<path opacity="0.5" d="M517.097 862.613H523.527V856.183H517.097V862.613Z" fill="#4B92BA"/>
<path opacity="0.5" d="M508.371 802.344H514.802V795.913H508.371V802.344Z" fill="#4B92BA"/>
<path opacity="0.25" d="M517.097 847.751H523.527V841.321H517.097V847.751Z" fill="#4B92BA"/>
<path d="M516.039 785.116V774.087L491.758 749.799V785.116H516.039Z" fill="#294B6B"/>
<path d="M805.764 785.115H766.512V933.678H805.764V785.115Z" fill="#294B6B"/>
<path d="M825 935V820H778.896V845.048H729V935H825Z" fill="#132E4C"/>
<path d="M812.175 862.613H818.605V856.183H812.175V862.613Z" fill="#4B92BA"/>
<path d="M779.705 802.344H786.136V795.913H779.705V802.344Z" fill="#4B92BA"/>
<path d="M779.705 814.516H786.136V808.085H779.705V814.516Z" fill="#4B92BA"/>
<path opacity="0.5" d="M812.175 847.751H818.605V841.321H812.175V847.751Z" fill="#4B92BA"/>
<path opacity="0.5" d="M799.337 862.613H805.768V856.183H799.337V862.613Z" fill="#4B92BA"/>
<path opacity="0.5" d="M790.611 802.344H797.041V795.913H790.611V802.344Z" fill="#4B92BA"/>
<path opacity="0.25" d="M799.337 847.751H805.768V841.321H799.337V847.751Z" fill="#4B92BA"/>
<path d="M798.279 785.116V774.087L773.997 749.799V785.116H798.279Z" fill="#294B6B"/>
<path d="M1231.17 785.115H1191.92V933.678H1231.17V785.115Z" fill="#294B6B"/>
<path d="M1250.82 934.843V820.258H1218.68V845.216H1183.89V934.843H1250.82Z" fill="#132E4C"/>
<path d="M1237.58 862.613H1244.01V856.183H1237.58V862.613Z" fill="#4B92BA"/>
<path d="M1205.11 802.344H1211.54V795.913H1205.11V802.344Z" fill="#4B92BA"/>
<path d="M1205.11 814.516H1211.54V808.085H1205.11V814.516Z" fill="#4B92BA"/>
<path opacity="0.5" d="M1237.58 847.751H1244.01V841.321H1237.58V847.751Z" fill="#4B92BA"/>
<path opacity="0.5" d="M1224.75 862.613H1231.18V856.183H1224.75V862.613Z" fill="#4B92BA"/>
<path opacity="0.5" d="M1216.02 802.344H1222.45V795.913H1216.02V802.344Z" fill="#4B92BA"/>
<path opacity="0.25" d="M1224.75 847.751H1231.18V841.321H1224.75V847.751Z" fill="#4B92BA"/>
<path d="M1223.69 785.116V774.087L1199.41 749.799V785.116H1223.69Z" fill="#294B6B"/>
<path opacity="0.5" d="M423.861 929.467C424.91 929.679 425.931 928.999 426.142 927.95C426.354 926.901 425.675 925.88 424.626 925.669C423.577 925.457 422.555 926.137 422.344 927.186C422.133 928.234 422.812 929.256 423.861 929.467Z" fill="#BDF3FF"/>
<path opacity="0.5" d="M460.334 919.843C461.382 920.054 462.404 919.375 462.615 918.326C462.826 917.277 462.147 916.256 461.098 916.045C460.05 915.833 459.028 916.512 458.817 917.561C458.606 918.61 459.285 919.632 460.334 919.843Z" fill="#BDF3FF"/>
<path opacity="0.5" d="M535.535 897.974C536.584 898.186 537.606 897.507 537.817 896.458C538.028 895.409 537.349 894.387 536.3 894.176C535.251 893.965 534.229 894.644 534.018 895.693C533.807 896.742 534.486 897.763 535.535 897.974Z" fill="#BDF3FF"/>
<path opacity="0.5" d="M585.477 896.522C586.526 896.733 587.547 896.054 587.759 895.005C587.97 893.956 587.291 892.934 586.242 892.723C585.193 892.512 584.172 893.191 583.96 894.24C583.749 895.289 584.428 896.31 585.477 896.522Z" fill="#BDF3FF"/>
<path opacity="0.5" d="M558.387 892.802C559.436 893.013 560.458 892.334 560.669 891.285C560.88 890.236 560.201 889.215 559.152 889.004C558.103 888.792 557.082 889.471 556.87 890.52C556.659 891.569 557.338 892.591 558.387 892.802Z" fill="#BDF3FF"/>
<path opacity="0.5" d="M436.677 867.676C437.726 867.887 438.748 867.208 438.959 866.159C439.17 865.11 438.491 864.089 437.442 863.878C436.393 863.666 435.372 864.345 435.161 865.394C434.949 866.443 435.628 867.465 436.677 867.676Z" fill="#BDF3FF"/>
<path opacity="0.5" d="M446.082 735.316C447.131 735.527 448.152 734.848 448.363 733.799C448.574 732.75 447.895 731.728 446.846 731.517C445.798 731.306 444.776 731.985 444.565 733.034C444.354 734.083 445.033 735.105 446.082 735.316Z" fill="#BDF3FF"/>
<path opacity="0.5" d="M467.704 740.369C468.753 740.581 469.774 739.902 469.986 738.853C470.197 737.804 469.518 736.782 468.469 736.571C467.42 736.36 466.398 737.039 466.187 738.088C465.976 739.137 466.655 740.158 467.704 740.369Z" fill="#BDF3FF"/>
<path opacity="0.5" d="M482.559 725.693C483.608 725.904 484.63 725.225 484.841 724.176C485.052 723.127 484.373 722.105 483.324 721.894C482.275 721.683 481.254 722.362 481.042 723.411C480.831 724.46 481.51 725.482 482.559 725.693Z" fill="#BDF3FF"/>
<path opacity="0.5" d="M600.32 740.023C601.369 740.234 602.391 739.555 602.602 738.506C602.813 737.457 602.134 736.435 601.085 736.224C600.036 736.013 599.014 736.692 598.803 737.741C598.592 738.79 599.271 739.812 600.32 740.023Z" fill="#BDF3FF"/>
<path opacity="0.5" d="M557.754 703.823C558.802 704.034 559.824 703.355 560.035 702.306C560.246 701.257 559.567 700.236 558.518 700.025C557.469 699.813 556.448 700.492 556.237 701.541C556.026 702.59 556.705 703.612 557.754 703.823Z" fill="#BDF3FF"/>
<path opacity="0.5" d="M510.373 853.018C511.422 853.23 512.443 852.551 512.654 851.502C512.866 850.453 512.187 849.431 511.138 849.22C510.089 849.009 509.067 849.688 508.856 850.737C508.645 851.786 509.324 852.807 510.373 853.018Z" fill="#BDF3FF"/>
<path opacity="0.5" d="M607.699 702.384C608.748 702.595 609.77 701.916 609.981 700.867C610.192 699.818 609.513 698.796 608.464 698.585C607.415 698.374 606.393 699.053 606.182 700.102C605.971 701.151 606.65 702.172 607.699 702.384Z" fill="#BDF3FF"/>
<path opacity="0.5" d="M580.607 698.652C581.656 698.863 582.677 698.184 582.889 697.135C583.1 696.086 582.421 695.064 581.372 694.853C580.323 694.642 579.301 695.321 579.09 696.37C578.879 697.419 579.558 698.44 580.607 698.652Z" fill="#BDF3FF"/>
<path opacity="0.5" d="M458.898 673.538C459.947 673.75 460.968 673.071 461.18 672.022C461.391 670.973 460.712 669.951 459.663 669.74C458.614 669.529 457.592 670.208 457.381 671.257C457.17 672.306 457.849 673.327 458.898 673.538Z" fill="#BDF3FF"/>
<path opacity="0.5" d="M251.157 690.298C252.206 690.509 253.227 689.83 253.439 688.781C253.65 687.732 252.971 686.711 251.922 686.5C250.873 686.288 249.851 686.968 249.64 688.016C249.429 689.065 250.108 690.087 251.157 690.298Z" fill="#BDF3FF"/>
<path opacity="0.5" d="M272.792 695.369C273.841 695.58 274.862 694.901 275.073 693.852C275.285 692.803 274.605 691.782 273.556 691.57C272.508 691.359 271.486 692.038 271.275 693.087C271.064 694.136 271.743 695.158 272.792 695.369Z" fill="#BDF3FF"/>
<path opacity="0.5" d="M688.849 929.467C689.898 929.679 690.92 928.999 691.131 927.95C691.342 926.901 690.663 925.88 689.614 925.669C688.565 925.457 687.544 926.137 687.332 927.186C687.121 928.234 687.8 929.256 688.849 929.467Z" fill="#BDF3FF"/>
<path opacity="0.5" d="M725.324 919.843C726.373 920.054 727.394 919.375 727.606 918.326C727.817 917.277 727.138 916.256 726.089 916.045C725.04 915.833 724.018 916.512 723.807 917.561C723.596 918.61 724.275 919.632 725.324 919.843Z" fill="#BDF3FF"/>
<path opacity="0.5" d="M800.523 897.974C801.572 898.186 802.594 897.507 802.805 896.458C803.016 895.409 802.337 894.387 801.288 894.176C800.239 893.965 799.217 894.644 799.006 895.693C798.795 896.742 799.474 897.763 800.523 897.974Z" fill="#BDF3FF"/>
<path opacity="0.5" d="M850.465 896.522C851.514 896.733 852.535 896.054 852.746 895.005C852.958 893.956 852.278 892.934 851.229 892.723C850.18 892.512 849.159 893.191 848.948 894.24C848.736 895.289 849.416 896.31 850.465 896.522Z" fill="#BDF3FF"/>
<path opacity="0.5" d="M823.376 892.802C824.424 893.013 825.446 892.334 825.657 891.285C825.868 890.236 825.189 889.215 824.14 889.004C823.091 888.792 822.07 889.471 821.859 890.52C821.648 891.569 822.327 892.591 823.376 892.802Z" fill="#BDF3FF"/>
<path opacity="0.5" d="M701.665 867.676C702.714 867.887 703.735 867.208 703.946 866.159C704.157 865.11 703.478 864.089 702.429 863.878C701.381 863.666 700.359 864.345 700.148 865.394C699.937 866.443 700.616 867.465 701.665 867.676Z" fill="#BDF3FF"/>
<path opacity="0.5" d="M711.07 735.316C712.119 735.527 713.14 734.848 713.352 733.799C713.563 732.75 712.884 731.728 711.835 731.517C710.786 731.306 709.764 731.985 709.553 733.034C709.342 734.083 710.021 735.105 711.07 735.316Z" fill="#BDF3FF"/>
<path opacity="0.5" d="M732.691 740.369C733.74 740.581 734.762 739.902 734.973 738.853C735.184 737.804 734.505 736.782 733.456 736.571C732.407 736.36 731.385 737.039 731.174 738.088C730.963 739.137 731.642 740.158 732.691 740.369Z" fill="#BDF3FF"/>
<path opacity="0.5" d="M747.547 725.693C748.596 725.904 749.618 725.225 749.829 724.176C750.04 723.127 749.361 722.105 748.312 721.894C747.263 721.683 746.242 722.362 746.031 723.411C745.819 724.46 746.499 725.482 747.547 725.693Z" fill="#BDF3FF"/>
<path opacity="0.5" d="M865.308 740.023C866.357 740.234 867.378 739.555 867.59 738.506C867.801 737.457 867.122 736.435 866.073 736.224C865.024 736.013 864.003 736.692 863.791 737.741C863.58 738.79 864.259 739.812 865.308 740.023Z" fill="#BDF3FF"/>
<path opacity="0.5" d="M822.743 703.823C823.792 704.034 824.813 703.355 825.024 702.306C825.235 701.257 824.556 700.236 823.507 700.025C822.459 699.813 821.437 700.492 821.226 701.541C821.015 702.59 821.694 703.612 822.743 703.823Z" fill="#BDF3FF"/>
<path opacity="0.5" d="M775.361 853.018C776.41 853.23 777.432 852.551 777.643 851.502C777.854 850.453 777.175 849.431 776.126 849.22C775.077 849.009 774.055 849.688 773.844 850.737C773.633 851.786 774.312 852.807 775.361 853.018Z" fill="#BDF3FF"/>
<path opacity="0.5" d="M872.687 702.384C873.736 702.595 874.757 701.916 874.968 700.867C875.18 699.818 874.501 698.796 873.452 698.585C872.403 698.374 871.382 699.053 871.17 700.102C870.959 701.151 871.638 702.172 872.687 702.384Z" fill="#BDF3FF"/>
<path opacity="0.5" d="M845.595 698.652C846.644 698.863 847.666 698.184 847.877 697.135C848.088 696.086 847.409 695.064 846.36 694.853C845.311 694.642 844.29 695.321 844.079 696.37C843.867 697.419 844.546 698.44 845.595 698.652Z" fill="#BDF3FF"/>
<path opacity="0.5" d="M723.886 673.538C724.935 673.75 725.957 673.071 726.168 672.022C726.379 670.973 725.7 669.951 724.651 669.74C723.602 669.529 722.581 670.208 722.37 671.257C722.158 672.306 722.837 673.327 723.886 673.538Z" fill="#BDF3FF"/>
<path opacity="0.5" d="M516.144 690.298C517.193 690.509 518.215 689.83 518.426 688.781C518.637 687.732 517.958 686.711 516.909 686.5C515.86 686.288 514.839 686.968 514.627 688.016C514.416 689.065 515.095 690.087 516.144 690.298Z" fill="#BDF3FF"/>
<path opacity="0.5" d="M537.779 695.369C538.828 695.58 539.85 694.901 540.061 693.852C540.272 692.803 539.593 691.782 538.544 691.57C537.495 691.359 536.473 692.038 536.262 693.087C536.051 694.136 536.73 695.158 537.779 695.369Z" fill="#BDF3FF"/>
<path opacity="0.5" d="M971.09 929.467C972.139 929.679 973.161 928.999 973.372 927.95C973.583 926.901 972.904 925.88 971.855 925.669C970.806 925.457 969.785 926.137 969.574 927.186C969.362 928.234 970.042 929.256 971.09 929.467Z" fill="#BDF3FF"/>
<path opacity="0.5" d="M1007.56 919.843C1008.61 920.054 1009.63 919.375 1009.85 918.326C1010.06 917.277 1009.38 916.256 1008.33 916.045C1007.28 915.833 1006.26 916.512 1006.05 917.561C1005.84 918.61 1006.52 919.632 1007.56 919.843Z" fill="#BDF3FF"/>
<path opacity="0.5" d="M1082.76 897.974C1083.81 898.186 1084.83 897.507 1085.05 896.458C1085.26 895.409 1084.58 894.387 1083.53 894.176C1082.48 893.965 1081.46 894.644 1081.25 895.693C1081.04 896.742 1081.72 897.763 1082.76 897.974Z" fill="#BDF3FF"/>
<path opacity="0.5" d="M1132.71 896.522C1133.75 896.733 1134.78 896.054 1134.99 895.005C1135.2 893.956 1134.52 892.934 1133.47 892.723C1132.42 892.512 1131.4 893.191 1131.19 894.24C1130.98 895.289 1131.66 896.31 1132.71 896.522Z" fill="#BDF3FF"/>
<path opacity="0.5" d="M1105.62 892.802C1106.66 893.013 1107.69 892.334 1107.9 891.285C1108.11 890.236 1107.43 889.215 1106.38 889.004C1105.33 888.792 1104.31 889.471 1104.1 890.52C1103.89 891.569 1104.57 892.591 1105.62 892.802Z" fill="#BDF3FF"/>
<path opacity="0.5" d="M983.906 867.676C984.955 867.887 985.976 867.208 986.187 866.159C986.399 865.11 985.72 864.089 984.671 863.878C983.622 863.666 982.6 864.345 982.389 865.394C982.178 866.443 982.857 867.465 983.906 867.676Z" fill="#BDF3FF"/>
<path opacity="0.5" d="M993.311 735.316C994.36 735.527 995.382 734.848 995.593 733.799C995.804 732.75 995.125 731.728 994.076 731.517C993.027 731.306 992.006 731.985 991.794 733.034C991.583 734.083 992.262 735.105 993.311 735.316Z" fill="#BDF3FF"/>
<path opacity="0.5" d="M1014.93 740.369C1015.98 740.581 1017 739.902 1017.21 738.853C1017.43 737.804 1016.75 736.782 1015.7 736.571C1014.65 736.36 1013.63 737.039 1013.42 738.088C1013.2 739.137 1013.88 740.158 1014.93 740.369Z" fill="#BDF3FF"/>
<path opacity="0.5" d="M1029.79 725.693C1030.84 725.904 1031.86 725.225 1032.07 724.176C1032.28 723.127 1031.6 722.105 1030.55 721.894C1029.5 721.683 1028.48 722.362 1028.27 723.411C1028.06 724.46 1028.74 725.482 1029.79 725.693Z" fill="#BDF3FF"/>
<path opacity="0.5" d="M1147.55 740.023C1148.6 740.234 1149.62 739.555 1149.83 738.506C1150.04 737.457 1149.36 736.435 1148.31 736.224C1147.26 736.013 1146.24 736.692 1146.03 737.741C1145.82 738.79 1146.5 739.812 1147.55 740.023Z" fill="#BDF3FF"/>
<path opacity="0.5" d="M1104.98 703.823C1106.03 704.034 1107.05 703.355 1107.27 702.306C1107.48 701.257 1106.8 700.236 1105.75 700.025C1104.7 699.813 1103.68 700.492 1103.47 701.541C1103.26 702.59 1103.94 703.612 1104.98 703.823Z" fill="#BDF3FF"/>
<path opacity="0.5" d="M1057.6 853.018C1058.65 853.23 1059.67 852.551 1059.88 851.502C1060.09 850.453 1059.42 849.431 1058.37 849.22C1057.32 849.009 1056.3 849.688 1056.08 850.737C1055.87 851.786 1056.55 852.807 1057.6 853.018Z" fill="#BDF3FF"/>
<path opacity="0.5" d="M1154.93 702.384C1155.98 702.595 1157 701.916 1157.21 700.867C1157.42 699.818 1156.74 698.796 1155.69 698.585C1154.64 698.374 1153.62 699.053 1153.41 700.102C1153.2 701.151 1153.88 702.172 1154.93 702.384Z" fill="#BDF3FF"/>
<path opacity="0.5" d="M1127.84 698.652C1128.88 698.863 1129.91 698.184 1130.12 697.135C1130.33 696.086 1129.65 695.064 1128.6 694.853C1127.55 694.642 1126.53 695.321 1126.32 696.37C1126.11 697.419 1126.79 698.44 1127.84 698.652Z" fill="#BDF3FF"/>
<path opacity="0.5" d="M1006.13 673.538C1007.18 673.75 1008.2 673.071 1008.41 672.022C1008.62 670.973 1007.94 669.951 1006.89 669.74C1005.84 669.529 1004.82 670.208 1004.61 671.257C1004.4 672.306 1005.08 673.327 1006.13 673.538Z" fill="#BDF3FF"/>
<path opacity="0.5" d="M798.384 690.298C799.433 690.509 800.455 689.83 800.666 688.781C800.877 687.732 800.198 686.711 799.149 686.5C798.1 686.288 797.079 686.968 796.868 688.016C796.656 689.065 797.335 690.087 798.384 690.298Z" fill="#BDF3FF"/>
<path opacity="0.5" d="M820.02 695.369C821.069 695.58 822.091 694.901 822.302 693.852C822.513 692.803 821.834 691.782 820.785 691.57C819.736 691.359 818.715 692.038 818.503 693.087C818.292 694.136 818.971 695.158 820.02 695.369Z" fill="#BDF3FF"/>
<path opacity="0.5" d="M1396.5 929.467C1397.55 929.679 1398.57 928.999 1398.78 927.95C1398.99 926.901 1398.31 925.88 1397.26 925.669C1396.21 925.457 1395.19 926.137 1394.98 927.186C1394.77 928.234 1395.45 929.256 1396.5 929.467Z" fill="#BDF3FF"/>
<path opacity="0.5" d="M1432.97 919.843C1434.02 920.054 1435.04 919.375 1435.25 918.326C1435.46 917.277 1434.78 916.256 1433.74 916.045C1432.69 915.833 1431.66 916.512 1431.45 917.561C1431.24 918.61 1431.92 919.632 1432.97 919.843Z" fill="#BDF3FF"/>
<path opacity="0.5" d="M1409.31 867.676C1410.36 867.887 1411.38 867.208 1411.59 866.159C1411.81 865.11 1411.13 864.089 1410.08 863.878C1409.03 863.666 1408.01 864.345 1407.8 865.394C1407.58 866.443 1408.26 867.465 1409.31 867.676Z" fill="#BDF3FF"/>
<path opacity="0.5" d="M1418.72 735.316C1419.77 735.527 1420.79 734.848 1421 733.799C1421.21 732.75 1420.53 731.728 1419.48 731.517C1418.43 731.306 1417.41 731.985 1417.2 733.034C1416.99 734.083 1417.67 735.105 1418.72 735.316Z" fill="#BDF3FF"/>
<path opacity="0.5" d="M1440.34 740.369C1441.39 740.581 1442.41 739.902 1442.62 738.853C1442.83 737.804 1442.15 736.782 1441.11 736.571C1440.06 736.36 1439.03 737.039 1438.82 738.088C1438.61 739.137 1439.29 740.158 1440.34 740.369Z" fill="#BDF3FF"/>
<path opacity="0.5" d="M1431.53 673.538C1432.58 673.75 1433.6 673.071 1433.82 672.022C1434.03 670.973 1433.35 669.951 1432.3 669.74C1431.25 669.529 1430.23 670.208 1430.02 671.257C1429.81 672.306 1430.48 673.327 1431.53 673.538Z" fill="#BDF3FF"/>
<path opacity="0.5" d="M1223.79 690.298C1224.84 690.509 1225.86 689.83 1226.07 688.781C1226.28 687.732 1225.61 686.711 1224.56 686.5C1223.51 686.288 1222.49 686.968 1222.27 688.016C1222.06 689.065 1222.74 690.087 1223.79 690.298Z" fill="#BDF3FF"/>
<path opacity="0.5" d="M1245.43 695.369C1246.48 695.58 1247.5 694.901 1247.71 693.852C1247.92 692.803 1247.24 691.782 1246.19 691.57C1245.14 691.359 1244.12 692.038 1243.91 693.087C1243.7 694.136 1244.38 695.158 1245.43 695.369Z" fill="#BDF3FF"/>
<path d="M423.38 785.115H462.632V933.678H423.38V785.115Z" fill="#294B6B"/>
<path d="M403.73 934.843V820.258H435.876V845.216H470.665V934.843H403.73Z" fill="#132E4C"/>
<path d="M416.968 862.613H410.538V856.183H416.968V862.613Z" fill="#4B92BA"/>
<path d="M449.438 802.344H443.008V795.913H449.438V802.344Z" fill="#4B92BA"/>
<path d="M449.438 814.516H443.008V808.085H449.438V814.516Z" fill="#4B92BA"/>
<path opacity="0.5" d="M416.968 847.751H410.538V841.321H416.968V847.751Z" fill="#4B92BA"/>
<path opacity="0.5" d="M429.806 862.613H423.376V856.183H429.806V862.613Z" fill="#4B92BA"/>
<path opacity="0.5" d="M438.533 802.344H432.103V795.913H438.533V802.344Z" fill="#4B92BA"/>
<path opacity="0.25" d="M429.806 847.751H423.376V841.321H429.806V847.751Z" fill="#4B92BA"/>
<path d="M430.865 785.116V774.087L455.146 749.799V785.116H430.865Z" fill="#294B6B"/>
<path d="M688.367 785.115H727.619V933.678H688.367V785.115Z" fill="#294B6B"/>
<path d="M663 935V820H698.058V845.048H736V935H663Z" fill="#132E4C"/>
<path d="M676.43 859.293H670V852.863H676.43V859.293Z" fill="#4B92BA"/>
<path d="M714.426 802.344H707.995V795.913H714.426V802.344Z" fill="#4B92BA"/>
<path d="M714.426 814.516H707.995V808.085H714.426V814.516Z" fill="#4B92BA"/>
<path opacity="0.5" d="M676.43 844.431H670V838H676.43V844.431Z" fill="#4B92BA"/>
<path opacity="0.5" d="M689.268 859.293H682.838V852.863H689.268V859.293Z" fill="#4B92BA"/>
<path opacity="0.5" d="M703.521 802.344H697.09V795.913H703.521V802.344Z" fill="#4B92BA"/>
<path opacity="0.25" d="M689.268 844.431H682.838V838H689.268V844.431Z" fill="#4B92BA"/>
<path d="M695.852 785.116V774.087L720.134 749.799V785.116H695.852Z" fill="#294B6B"/>
<path d="M970.606 785.115H1009.86V933.678H970.606V785.115Z" fill="#294B6B"/>
<path d="M950.956 934.843V820.258H983.102V845.216H1017.89V934.843H950.956Z" fill="#132E4C"/>
<path d="M964.195 862.613H957.765V856.183H964.195V862.613Z" fill="#4B92BA"/>
<path d="M996.664 802.344H990.233V795.913H996.664V802.344Z" fill="#4B92BA"/>
<path d="M996.664 814.516H990.233V808.085H996.664V814.516Z" fill="#4B92BA"/>
<path opacity="0.5" d="M964.195 847.751H957.765V841.321H964.195V847.751Z" fill="#4B92BA"/>
<path opacity="0.5" d="M977.033 862.613H970.603V856.183H977.033V862.613Z" fill="#4B92BA"/>
<path opacity="0.5" d="M985.758 802.344H979.328V795.913H985.758V802.344Z" fill="#4B92BA"/>
<path opacity="0.25" d="M977.033 847.751H970.603V841.321H977.033V847.751Z" fill="#4B92BA"/>
<path d="M978.09 785.116V774.087L1002.37 749.799V785.116H978.09Z" fill="#294B6B"/>
<path d="M1396.02 785.115H1435.27V933.678H1396.02V785.115Z" fill="#294B6B"/>
<path d="M1376.36 934.843V820.258H1408.51V845.216H1443.3V934.843H1376.36Z" fill="#132E4C"/>
<path d="M1389.6 862.613H1383.17V856.183H1389.6V862.613Z" fill="#4B92BA"/>
<path d="M1422.07 802.344H1415.64V795.913H1422.07V802.344Z" fill="#4B92BA"/>
<path d="M1422.07 814.516H1415.64V808.085H1422.07V814.516Z" fill="#4B92BA"/>
<path opacity="0.5" d="M1389.6 847.751H1383.17V841.321H1389.6V847.751Z" fill="#4B92BA"/>
<path opacity="0.5" d="M1402.44 862.613H1396.01V856.183H1402.44V862.613Z" fill="#4B92BA"/>
<path opacity="0.5" d="M1411.17 802.344H1404.74V795.913H1411.17V802.344Z" fill="#4B92BA"/>
<path opacity="0.25" d="M1402.44 847.751H1396.01V841.321H1402.44V847.751Z" fill="#4B92BA"/>
<path d="M1403.5 785.116V774.087L1427.78 749.799V785.116H1403.5Z" fill="#294B6B"/>
<path d="M123.17 810.096L136.193 800.065L148.566 813.179L129.929 821.612L123.17 810.096Z" fill="#EE9F86"/>
<path d="M132.419 821.857C129.455 819.342 126.008 812.456 124.427 809.184L124.141 808.841L109.302 813.825L127.126 851.716C130.539 858.907 132.753 853.629 133.448 850.324C130.355 843.173 131.349 828.505 132.419 821.857Z" fill="#858E8F"/>
<path d="M176.447 608.945C177.039 606.553 167.693 585.71 162.986 575.593L154.894 578.311L158.915 614.833L176.447 608.945Z" fill="#3A3A39"/>
<path d="M170.625 584.273C170.727 583.364 170.19 582.377 169.938 581.732C168.681 578.508 166.079 575.735 163.056 573.832C143.935 571.208 142.174 586.97 143.881 594.857L154.734 616.449L167.76 612.804L164.607 606.278C165.482 604.234 168.07 604.24 172.675 603.569C177.28 602.898 175.065 599.558 174.813 598.913C174.847 598.61 175.268 597.739 175.655 597.171C175.689 596.868 175.723 596.565 175.403 596.526C175.084 596.488 175.118 596.185 175.152 595.882L175.186 595.578C175.22 595.275 175.287 594.669 175.002 594.327L174.717 593.986C174.431 593.644 174.465 593.341 174.499 593.038L174.886 592.47C175.375 590.993 174.906 589.4 173.377 588.601C172.202 587.536 170.741 586.131 170.625 584.273Z" fill="#EE937E"/>
<path d="M163.13 578.394C164.931 582.622 165.462 589.474 155.647 592.918C154.33 593.068 152.2 594.662 154.104 597.977C156.547 602.283 158.164 605.255 158.511 610.85C158.811 613.972 158.319 615.455 157.964 615.721L146.122 619.846C138.139 604.072 130.043 571.933 160.34 568.493C164.224 568.653 169.895 570.263 169.28 575.742C169.006 578.177 164.85 580.453 163.13 578.394Z" fill="#3A3A39"/>
<path d="M147.906 591.555L157.248 585.108L137.361 588.762C138.85 592.58 144.139 593.827 147.906 591.555Z" fill="#595552"/>
<path d="M180.451 574.673C178.671 570.499 174.54 573.042 171.941 573.336C169.663 567.883 161.808 557.794 147.816 562.49C133.823 567.187 134.281 580.337 136.526 586.09C135.826 586.614 135.025 588.04 136.191 589.095C137.989 590.226 182.446 579.788 180.451 574.673Z" fill="#FEDF00"/>
<path d="M165.194 567.608C165.477 567.946 165.41 568.546 165.06 568.808C164.711 569.07 164.079 568.993 163.796 568.655L165.194 567.608ZM159.921 566.055C159.289 565.979 159.006 565.64 159.073 565.04C159.14 564.44 159.49 564.178 160.122 564.255L159.921 566.055ZM163.796 568.655C163.513 568.316 162.948 567.639 162.349 567.263C161.751 566.886 160.836 566.471 159.921 566.055L160.122 564.255C161.386 564.408 162.584 565.162 163.499 565.577C164.38 566.292 164.945 566.969 165.544 567.346L163.796 568.655Z" fill="white" fill-opacity="0.8"/>
<path d="M54.3846 831.543L67.4076 821.512L79.7804 834.626L61.1442 843.059L54.3846 831.543Z" fill="#EE9F86"/>
<path d="M63.6709 842.996C60.7073 840.482 57.2598 833.595 55.6791 830.324L55.393 829.981L40.5543 834.965L58.3775 872.856C61.7909 880.046 64.0051 874.768 64.7 871.464C61.6068 864.312 62.6014 849.645 63.6709 842.996Z" fill="#858E8F"/>
<path d="M131.263 621.916C131.263 621.916 106.055 644.473 103.682 654.056C101.629 663.678 105.202 669.352 107.827 669.052C110.452 668.752 130.506 669.013 132.799 665.897C135.093 662.781 131.263 621.916 131.263 621.916Z" fill="url(#paint3_linear)"/>
<path d="M127.841 700.92C127.841 700.92 122.224 719.32 138.739 739.165C155.539 759.352 168.841 773.269 168.841 773.269L123.735 803.82L135.978 818.532C135.978 818.532 204.313 796.945 205.118 786.887C205.922 776.829 189.491 736.069 172.806 717.742L127.841 700.92Z" fill="url(#paint4_linear)"/>
<path d="M123.032 708.24C123.032 708.24 113.115 764.93 88.4817 794.285C63.8487 823.64 54.5294 823.129 54.5294 823.129L74.3007 839.991C74.3007 839.991 117.175 818.075 137.752 784.535C158.328 750.995 164.434 713.859 164.434 713.859L123.032 708.24Z" fill="url(#paint5_linear)"/>
<path d="M96.8798 653.665L107.903 687.105L150.608 675.463L140.096 646.059L113.515 654.152L108.503 650.181L96.8798 653.665Z" fill="url(#paint6_linear)"/>
<path d="M129.86 621.715C129.86 621.715 125.664 693.659 114.317 711.095C114.317 711.095 182.746 727.372 186.317 724.412C186.317 724.412 174.412 694.919 180.494 640.776C180.494 640.776 206.591 613.096 211.232 603.483L197.107 593.762C197.141 593.457 169.081 618.434 129.86 621.715Z" fill="url(#paint7_linear)"/>
<path d="M207.529 600.328L198.603 594.049C196.239 592.234 195.626 589.102 197.48 586.881L198.598 585.488C200.451 583.266 203.719 582.745 206.083 584.56L215.009 590.839C217.373 592.654 217.986 595.786 216.133 598.007L215.014 599.4C213.161 601.622 209.893 602.143 207.529 600.328Z" fill="url(#paint8_linear)"/>
<path d="M215.043 592.552C215.043 592.552 223.469 581.197 226.357 564.23C226.357 564.23 231.119 562.329 231.841 555.923C232.563 549.516 230.023 546.119 230.023 546.119C230.023 546.119 229.438 551.305 224.252 554.082C224.252 554.082 221.987 548.244 219.651 551.673C217.315 555.103 218.103 565.401 218.103 565.401L205.005 583.614L215.043 592.552Z" fill="#EE937E"/>
</g>
<defs>
<linearGradient id="paint0_linear" x1="335.847" y1="869.316" x2="316.51" y2="955.029" gradientUnits="userSpaceOnUse">
<stop stop-color="#4295E1"/>
<stop offset="1" stop-color="#3419CC"/>
</linearGradient>
<linearGradient id="paint1_linear" x1="571.724" y1="343.144" x2="1549.98" y2="529.458" gradientUnits="userSpaceOnUse">
<stop stop-color="#132D4C"/>
<stop offset="1" stop-color="#261B58"/>
</linearGradient>
<linearGradient id="paint2_linear" x1="693.736" y1="239.399" x2="826.855" y2="197.345" gradientUnits="userSpaceOnUse">
<stop stop-color="#EBEA6E"/>
<stop offset="1" stop-color="#007187"/>
</linearGradient>
<linearGradient id="paint3_linear" x1="104.792" y1="643.744" x2="135.252" y2="647.167" gradientUnits="userSpaceOnUse">
<stop stop-color="#C4E6EC"/>
<stop offset="1" stop-color="white"/>
</linearGradient>
<linearGradient id="paint4_linear" x1="121.124" y1="758.417" x2="207.431" y2="768.095" gradientUnits="userSpaceOnUse">
<stop stop-color="#0061A5"/>
<stop offset="1" stop-color="#074C7C"/>
</linearGradient>
<linearGradient id="paint5_linear" x1="60.5945" y1="769.53" x2="156.686" y2="780.311" gradientUnits="userSpaceOnUse">
<stop stop-color="#0061A5"/>
<stop offset="1" stop-color="#074C7C"/>
</linearGradient>
<linearGradient id="paint6_linear" x1="95.9346" y1="663.204" x2="151.371" y2="669.404" gradientUnits="userSpaceOnUse">
<stop stop-color="#F48C96"/>
<stop offset="1" stop-color="#F16A94"/>
</linearGradient>
<linearGradient id="paint7_linear" x1="120.987" y1="650.734" x2="204.853" y2="660.154" gradientUnits="userSpaceOnUse">
<stop stop-color="#C4E6EC"/>
<stop offset="1" stop-color="white"/>
</linearGradient>
<linearGradient id="paint8_linear" x1="198.206" y1="586.114" x2="215.194" y2="599.276" gradientUnits="userSpaceOnUse">
<stop stop-color="#C4E6EC"/>
<stop offset="1" stop-color="white"/>
</linearGradient>
<clipPath id="clip0">
<rect width="1440" height="329" fill="white" transform="translate(0 615.999)"/>
</clipPath>
</defs>
</svg>
