<svg width="1440" height="897" viewBox="0 0 1440 897" fill="none" xmlns="http://www.w3.org/2000/svg">
<mask id="mask0" mask-type="alpha" maskUnits="userSpaceOnUse" x="0" y="0" width="1440" height="897">
<rect width="1440" height="897" fill="#C4C4C4"/>
</mask>
<g mask="url(#mask0)">
<g clip-path="url(#clip0)">
<rect width="1440" height="284.014" transform="translate(0 615.999)" fill="white"/>
<rect x="-12.9033" y="639.368" width="356.559" height="286.738" fill="#132D4C"/>
<path d="M9.52721 730.246C30.8626 734.542 51.6409 720.729 55.9369 699.393C60.2328 678.058 46.4197 657.28 25.0843 652.984C3.7489 648.688 -17.0294 662.501 -21.3254 683.836C-25.6214 705.172 -11.8082 725.95 9.52721 730.246Z" fill="#ED157B"/>
<path d="M320.29 919.354C341.625 923.65 362.404 909.837 366.7 888.502C370.996 867.166 357.182 846.388 335.847 842.092C314.512 837.796 293.733 851.609 289.437 872.945C285.141 894.28 298.955 915.058 320.29 919.354Z" fill="url(#paint0_linear)"/>
<path fill-rule="evenodd" clip-rule="evenodd" d="M370.969 615.717C370.969 625.835 368.992 635.492 365.404 644.322C376.6 647.297 384.85 657.503 384.85 669.636C384.85 679.116 379.813 687.419 372.27 692.016C379.923 697.957 384.848 707.245 384.848 717.683C384.848 732.858 374.438 745.602 360.369 749.163C367.021 757.927 370.969 768.857 370.969 780.708C370.969 789.217 368.935 797.251 365.325 804.349C380.061 807.423 391.13 820.486 391.13 836.135C391.13 844.059 388.291 851.32 383.576 856.957C396.346 864.293 404.947 878.068 404.947 893.853C404.947 917.335 385.91 936.372 362.427 936.372C338.944 936.372 319.907 917.335 319.907 893.853C319.907 880.054 326.48 867.791 336.666 860.022C330.224 854.089 326.189 845.583 326.189 836.135C326.189 834.863 326.262 833.608 326.404 832.374C323.905 832.741 321.348 832.931 318.746 832.931C289.904 832.931 266.523 809.55 266.523 780.708C266.523 751.866 289.904 728.485 318.746 728.485C319.764 728.485 320.775 728.514 321.778 728.572C320.567 725.168 319.907 721.502 319.907 717.683C319.907 704.228 328.091 692.684 339.753 687.758C337.719 685.637 336.039 683.175 334.807 680.466C323.217 687.617 309.562 691.743 294.943 691.743C267.435 691.743 243.339 677.135 229.991 655.252C225.674 663.785 216.824 669.636 206.607 669.636C203.102 669.636 199.757 668.947 196.702 667.698C183.271 691.783 157.54 708.073 128.005 708.073C104.155 708.073 82.7857 697.45 68.3706 680.678C62.424 682.721 56.0432 683.83 49.4033 683.83C17.1793 683.83 -8.94336 657.707 -8.94336 625.483C-8.94336 593.259 17.1793 567.137 49.4033 567.137C58.1362 567.137 66.421 569.055 73.8592 572.494C87.9559 559.093 107.02 550.87 128.005 550.87C167.267 550.87 199.805 579.655 205.666 617.272C205.978 617.261 206.292 617.256 206.607 617.256C211.114 617.256 215.355 618.394 219.058 620.399C218.964 618.85 218.916 617.289 218.916 615.717C218.916 573.729 252.954 539.69 294.943 539.69C336.931 539.69 370.969 573.729 370.969 615.717Z" fill="white"/>
<path fill-rule="evenodd" clip-rule="evenodd" d="M359.915 628.152C359.915 638.271 357.938 647.928 354.35 656.758C365.546 659.733 373.795 669.939 373.795 682.071C373.795 691.55 368.759 699.854 361.216 704.451C368.871 710.391 373.797 719.679 373.797 730.118C373.797 745.294 363.385 758.039 349.316 761.599C355.968 770.363 359.916 781.292 359.916 793.143C359.916 801.652 357.881 809.686 354.271 816.784C369.006 819.859 380.075 832.922 380.075 848.57C380.075 856.494 377.237 863.755 372.522 869.392C385.293 876.727 393.894 890.503 393.894 906.288C393.894 929.771 374.858 948.808 351.375 948.808C327.892 948.808 308.855 929.771 308.855 906.288C308.855 892.49 315.428 880.227 325.612 872.459C319.17 866.525 315.134 858.019 315.134 848.57C315.134 847.298 315.207 846.043 315.35 844.809C312.851 845.176 310.294 845.366 307.693 845.366C278.851 845.366 255.47 821.985 255.47 793.143C255.47 764.301 278.851 740.92 307.693 740.92C308.711 740.92 309.722 740.949 310.726 741.007C309.515 737.603 308.855 733.938 308.855 730.118C308.855 716.664 317.038 705.121 328.698 700.194C326.665 698.074 324.985 695.611 323.753 692.902C312.162 700.053 298.507 704.179 283.889 704.179C256.381 704.179 232.286 689.57 218.937 667.688C214.62 676.221 205.77 682.071 195.553 682.071C192.048 682.071 188.704 681.382 185.648 680.133C172.217 704.218 146.487 720.508 116.952 720.508C93.1013 720.508 71.732 709.886 57.3169 693.113C51.3703 695.156 44.9895 696.265 38.3496 696.265C6.12562 696.265 -19.9971 670.143 -19.9971 637.919C-19.9971 605.695 6.12562 579.572 38.3496 579.572C47.0825 579.572 55.3673 581.491 62.8055 584.929C76.9022 571.529 95.9666 563.305 116.952 563.305C156.213 563.305 188.751 592.09 194.612 629.708C194.925 629.697 195.238 629.691 195.553 629.691C200.06 629.691 204.301 630.829 208.004 632.834C207.91 631.286 207.862 629.725 207.862 628.152C207.862 586.164 241.9 552.126 283.889 552.126C325.877 552.126 359.915 586.164 359.915 628.152Z" fill="white" fill-opacity="0.06"/>
<circle cx="1010.5" cy="737.499" r="51.5" fill="#C4C4C4"/>
<circle cx="992.5" cy="737.499" r="51.5" fill="#C4C4C4"/>
</g>
<path d="M1566.36 21.676L762.488 -131.427L596.157 741.903L1400.03 895.006L1566.36 21.676Z" fill="url(#paint1_linear)"/>
<path d="M895.652 182.497C923.098 187.725 949.585 169.713 954.812 142.267C960.039 114.821 942.027 88.3337 914.581 83.1064C887.135 77.8791 860.648 95.891 855.421 123.337C850.194 150.783 868.206 177.27 895.652 182.497Z" fill="url(#paint2_linear)"/>
<g opacity="0.1">
<g opacity="0.1">
<path opacity="0.1" d="M907.65 73.3914C907.65 73.3914 913.181 100.375 907.245 109.552C901.31 118.73 900.441 137.247 894.308 133.401C888.175 129.555 889.648 129.856 888.449 120.085C887.25 110.314 896.579 101.501 887.269 110.318C877.96 119.134 879.942 112.747 877.717 126.436C875.492 140.125 877.652 136.711 874.424 143.727C871.195 150.742 884.211 146.356 884.207 138.342C884.203 130.329 890.168 147.108 895.226 144.649C900.285 142.19 901.025 144.223 903.112 139.286C905.2 134.348 908.868 127.034 910.362 121.198C911.856 115.363 915.167 108.021 914.288 100.586C913.409 93.1508 914.353 90.3107 912.011 84.5297C909.669 78.7487 907.65 73.3914 907.65 73.3914Z" fill="white"/>
<path opacity="0.1" d="M865.87 94.0396C865.87 94.0396 871.398 121.043 865.466 130.2C859.534 139.358 858.661 157.895 852.529 154.049C846.396 150.204 847.869 150.504 846.67 140.733C845.471 130.962 854.78 122.146 845.471 130.962C836.161 139.779 838.143 133.392 835.918 147.081C833.693 160.77 835.869 157.379 832.625 164.371C829.381 171.363 842.431 167.004 842.427 158.99C842.424 150.977 848.388 167.756 853.427 165.293C858.466 162.83 859.245 164.871 861.314 159.93C863.382 154.989 867.089 147.682 868.579 141.866C870.069 136.05 873.384 128.689 872.505 121.254C871.626 113.818 872.554 110.955 870.232 105.178C867.909 99.4006 865.87 94.0396 865.87 94.0396Z" fill="white"/>
<path opacity="0.1" d="M895.654 182.477C895.654 182.477 896.926 162.688 902.293 160.409C907.659 158.129 905.539 169.261 912.305 163.966C919.071 158.672 922.306 150.249 923.968 141.526C925.629 132.803 922.65 127.303 928.432 126.753C934.214 126.204 932.032 120.856 934.292 126.218C936.552 131.581 940.038 130.614 943.125 122.968C944.852 118.035 946.873 113.21 949.178 108.519C953.214 100.228 942.711 122.286 948.683 132.261C954.655 142.236 951.926 106.566 962.394 107.734C972.861 108.902 968.639 131.069 965.181 136.228C961.722 141.388 947.73 150.158 944.905 152.096C942.08 154.035 938.722 150.315 933.641 150.777C927.785 151.292 922.654 161.005 922.654 161.005C922.654 161.005 920.347 168.78 918.299 170.866C916.251 172.952 922.488 170.013 916.274 172.936C912.045 174.608 907.335 174.597 903.114 172.906C903.114 172.906 894.434 175.984 895.654 182.477Z" fill="white"/>
<path opacity="0.1" d="M921.959 115.513C921.959 115.513 923.263 95.3476 928.715 93.044C934.167 90.7403 932.033 102.051 938.899 96.6545C945.765 91.2582 949.084 82.7101 950.775 73.8317C952.466 64.9533 949.366 59.35 955.307 58.8105C961.248 58.271 958.967 52.8037 961.267 58.2748C963.567 63.7458 967.103 62.7282 970.274 54.9571C972.024 49.933 974.075 45.0193 976.418 40.2431C980.518 31.8235 969.845 54.2513 976 64.322C982.155 74.3926 979.308 38.1763 989.951 39.3778C1000.59 40.5793 996.29 63.1735 992.808 68.3486C989.326 73.5238 975.046 82.5412 972.148 84.5459C969.25 86.5507 965.867 82.7458 960.705 83.2121C954.745 83.7479 949.522 93.6245 949.522 93.6245C949.522 93.6245 947.167 101.551 945.095 103.653C943.024 105.755 949.443 102.81 943.02 105.774C938.718 107.467 933.931 107.448 929.642 105.723C929.642 105.723 920.723 108.896 921.959 115.513Z" fill="white"/>
<path opacity="0.4" d="M847.832 132.643C847.832 132.643 890.603 112.402 908.738 140.538C926.874 168.674 938.872 183.16 949.013 159.724C959.153 136.289 1000.83 119.263 954.751 97.8841C908.673 76.5056 866.821 55.2473 854.29 86.2601C841.76 117.273 847.832 132.643 847.832 132.643Z" fill="#231F20"/>
</g>
</g>
<path d="M1191.62 628.041C1219.06 633.269 1245.55 615.257 1250.78 587.811C1256 560.365 1237.99 533.878 1210.55 528.65C1183.1 523.423 1156.61 541.435 1151.38 568.881C1146.16 596.327 1164.17 622.814 1191.62 628.041Z" fill="#ED157B"/>
<g opacity="0.1">
<g opacity="0.1">
<path opacity="0.1" d="M1260.53 576.984C1260.53 576.984 1233.95 584.283 1224.42 578.964C1214.88 573.645 1196.33 573.998 1199.76 567.625C1203.19 561.251 1203.01 562.727 1212.66 560.901C1222.31 559.074 1231.82 567.791 1222.33 559.059C1212.84 550.326 1219.44 551.925 1205.62 550.602C1191.8 549.278 1195.43 551.238 1188.15 548.443C1180.87 545.647 1186.25 558.409 1194.17 557.863C1202.09 557.317 1185.81 564.324 1188.62 569.267C1191.42 574.21 1189.41 575.016 1194.47 576.784C1199.53 578.553 1207.08 581.722 1212.99 582.828C1218.9 583.933 1226.47 586.765 1233.82 585.406C1241.16 584.046 1244.01 584.769 1249.7 582.067C1255.38 579.366 1260.53 576.984 1260.53 576.984Z" fill="white"/>
<path opacity="0.1" d="M1237.17 536.64C1237.17 536.64 1210.59 543.939 1201.05 538.62C1191.52 533.301 1172.97 533.654 1176.4 527.281C1179.83 520.907 1179.65 522.383 1189.31 520.56C1198.98 518.738 1208.48 527.451 1198.99 518.718C1189.5 509.985 1196.08 511.581 1182.28 510.261C1168.48 508.941 1172.09 510.898 1164.79 508.099C1157.49 505.299 1162.89 518.065 1170.81 517.519C1178.72 516.973 1162.47 523.984 1165.25 528.923C1168.04 533.862 1166.05 534.672 1171.13 536.444C1176.21 538.216 1183.74 541.382 1189.63 542.484C1195.52 543.585 1203.11 546.421 1210.46 545.062C1217.8 543.702 1220.64 544.425 1226.35 541.727C1232.06 539.029 1237.17 536.64 1237.17 536.64Z" fill="white"/>
<path opacity="0.1" d="M1150.88 572.165C1150.88 572.165 1170.71 572.138 1173.32 577.347C1175.94 582.555 1164.72 581.165 1170.45 587.57C1176.18 593.975 1184.82 596.669 1193.6 597.737C1202.37 598.804 1207.71 595.412 1208.64 601.225C1209.56 607.038 1214.76 604.403 1209.54 607.035C1204.33 609.666 1205.54 613.056 1213.36 615.633C1218.4 617.059 1223.35 618.774 1228.19 620.772C1236.7 624.266 1214.02 615.236 1204.45 621.929C1194.88 628.622 1230.33 623.495 1229.81 634.007C1229.3 644.519 1206.9 641.723 1201.56 638.692C1196.22 635.662 1186.58 622.21 1184.4 619.499C1182.22 616.789 1185.78 613.218 1184.99 608.176C1184.08 602.366 1174.04 597.878 1174.04 597.878C1174.04 597.878 1166.13 596.089 1163.91 594.197C1161.7 592.305 1165.02 598.434 1161.72 592.289C1159.78 588.181 1159.49 583.486 1160.9 579.167C1160.9 579.167 1157.27 570.544 1150.88 572.165Z" fill="white"/>
<path opacity="0.1" d="M1219.43 594.02C1219.43 594.02 1239.57 593.99 1242.29 599.299C1245 604.607 1233.49 603.181 1239.34 609.69C1245.19 616.198 1253.95 618.934 1262.92 620.038C1271.89 621.143 1277.28 617.68 1278.2 623.594C1279.13 629.508 1284.42 626.791 1279.1 629.482C1273.77 632.172 1275.03 635.612 1282.98 638.274C1288.12 639.701 1293.16 641.429 1298.1 643.449C1306.76 647.011 1283.69 637.825 1273.96 644.629C1264.23 651.432 1300.25 646.214 1299.8 656.919C1299.35 667.625 1276.48 664.798 1271.06 661.652C1265.64 658.505 1255.75 644.866 1253.6 642.12C1251.44 639.374 1254.99 635.742 1254.2 630.599C1253.31 624.711 1243.07 620.124 1243.07 620.124C1243.07 620.124 1235.02 618.309 1232.77 616.371C1230.52 614.433 1233.98 620.626 1230.52 614.452C1228.56 610.271 1228.26 605.5 1229.68 601.106C1229.68 601.106 1225.95 592.362 1219.43 594.02Z" fill="white"/>
<path opacity="0.4" d="M1197.47 521.184C1197.47 521.184 1220.46 562.525 1193.61 582.374C1166.75 602.224 1153.12 615.231 1177.1 623.823C1201.07 632.415 1220.94 672.881 1239.17 625.579C1257.4 578.278 1275.94 535.042 1244.17 524.52C1212.39 513.999 1197.47 521.184 1197.47 521.184Z" fill="#231F20"/>
</g>
</g>
<path d="M789.683 490.169C804.318 492.956 818.441 483.352 821.229 468.717C824.016 454.082 814.411 439.958 799.776 437.171C785.141 434.384 771.018 443.988 768.23 458.623C765.443 473.258 775.048 487.382 789.683 490.169Z" fill="#ED157B"/>
<g opacity="0.1">
<g opacity="0.1">
<path opacity="0.1" d="M826.41 462.937C826.41 462.937 812.242 466.822 807.146 463.979C802.051 461.137 792.17 461.328 794.004 457.933C795.838 454.538 795.729 455.322 800.887 454.352C806.044 453.381 811.118 458.032 806.055 453.323C800.993 448.614 804.508 449.505 797.155 448.789C789.802 448.073 791.673 449.134 787.828 447.657C783.982 446.18 786.818 452.961 791.039 452.678C795.26 452.394 786.572 456.155 788.069 458.756C789.567 461.356 788.49 461.835 791.19 462.772C794.406 464.066 797.705 465.145 801.064 466.002C804.211 466.601 808.255 468.096 812.181 467.354C816.107 466.612 817.658 467.028 820.573 465.57C823.488 464.112 826.41 462.937 826.41 462.937Z" fill="white"/>
<path opacity="0.1" d="M813.981 441.425C813.981 441.425 799.813 445.309 794.718 442.467C789.622 439.624 779.741 439.815 781.575 436.42C783.41 433.025 783.301 433.81 788.458 432.839C793.616 431.868 798.669 436.515 793.627 431.81C788.584 427.105 792.079 427.992 784.707 427.273C777.334 426.553 779.225 427.618 775.38 426.141C771.534 424.663 774.369 431.444 778.591 431.161C782.812 430.878 774.143 434.642 775.641 437.243C777.138 439.843 776.061 440.323 778.761 441.26C781.981 442.544 785.279 443.623 788.635 444.489C791.782 445.088 795.83 446.564 799.752 445.841C803.675 445.119 805.23 445.516 808.145 444.057C811.06 442.599 813.981 441.425 813.981 441.425Z" fill="white"/>
<path opacity="0.1" d="M767.956 460.362C767.956 460.362 778.525 460.362 779.931 463.126C781.338 465.891 775.334 465.17 778.387 468.59C781.716 471.83 786.103 473.759 790.741 474.023C795.443 474.597 798.265 472.779 798.763 475.873C799.261 478.968 802.022 477.581 799.242 478.964C796.462 480.347 797.118 482.183 801.285 483.561C803.978 484.302 806.622 485.209 809.203 486.277C813.743 488.128 801.714 483.32 796.526 486.882C791.338 490.444 810.318 487.717 810.056 493.324C809.793 498.931 797.833 497.459 795.006 495.813C792.179 494.167 786.981 486.997 785.843 485.572C784.705 484.148 786.487 482.192 786.137 479.589C785.663 476.478 780.319 474.092 780.319 474.092C778.429 473.712 776.607 473.046 774.917 472.117C773.741 471.107 775.497 474.361 773.741 471.107C772.704 468.92 772.547 466.418 773.3 464.118C773.3 464.118 771.361 459.501 767.956 460.362Z" fill="white"/>
<path opacity="0.1" d="M804.552 472.022C804.552 472.022 815.297 472.055 816.738 474.846C818.179 477.637 812.056 476.914 815.16 480.384C818.545 483.687 823.012 485.654 827.735 485.919C832.515 486.508 835.387 484.639 835.894 487.795C836.4 490.952 839.206 489.534 836.38 490.948C833.554 492.363 834.207 494.218 838.452 495.611C841.186 496.375 843.874 497.297 846.502 498.372C851.131 500.28 838.818 495.378 833.619 498.999C828.42 502.619 847.652 499.839 847.372 505.644C847.092 511.449 834.933 509.858 832.051 508.182C829.169 506.506 823.874 499.216 822.743 497.753C821.613 496.289 823.394 494.333 823.048 491.61C822.561 488.457 817.104 486.029 817.104 486.029C815.19 485.633 813.345 484.956 811.629 484.02C810.413 483.003 812.22 486.306 810.413 483.003C809.374 480.766 809.219 478.22 809.979 475.874C809.979 475.874 808 471.148 804.552 472.022Z" fill="white"/>
<path opacity="0.4" d="M792.805 433.165C792.805 433.165 805.074 455.212 790.739 465.789C776.403 476.366 769.121 483.314 781.936 487.908C794.75 492.503 805.34 514.068 815.064 488.802C824.788 463.536 834.669 440.515 817.711 434.949C800.752 429.384 792.805 433.165 792.805 433.165Z" fill="#231F20"/>
</g>
</g>
<path opacity="0.3" d="M1421.82 744.388C1381.42 725.977 1336.69 730.893 1303.52 753.357C1291 727.314 1269.69 706.518 1243.35 694.622C1182.98 667.109 1112.72 691.602 1086.48 749.19C1084.9 752.661 1083.51 756.212 1082.31 759.828C1073.79 743.884 1060.23 731.205 1043.76 723.766C1030.85 717.743 1016.57 715.257 1002.38 716.564C988.195 717.871 974.611 722.923 963.019 731.203C956.436 725.029 948.887 719.974 940.672 716.238C935.102 713.689 929.268 711.76 923.277 710.485C922.266 671.448 898.456 633.845 859.116 615.918C844.893 609.333 829.422 605.879 813.748 605.79C798.075 605.701 782.565 608.978 768.268 615.401C769.237 613.56 770.196 611.694 771.074 609.768C777.549 595.359 780.549 579.629 779.832 563.848C779.115 548.066 774.7 532.674 766.945 518.911C779.658 516.183 791.563 510.535 801.718 502.413C811.873 494.291 819.999 483.918 825.454 472.115C845.013 429.193 824.404 377.792 779.449 357.307C777.218 356.29 774.973 355.398 772.695 354.577C773.966 352.42 775.123 350.198 776.163 347.921C780.548 338.198 782.77 327.64 782.677 316.975C782.584 306.31 780.178 295.793 775.624 286.148C786.801 283.704 797.26 278.704 806.181 271.54C815.102 264.376 822.241 255.243 827.04 244.856C834.171 229.148 835.503 211.421 830.801 194.823C841.18 185.815 849.496 174.675 855.181 162.162C857.866 156.239 859.952 150.062 861.41 143.724C884.101 136.173 903.161 120.433 914.866 99.5791C926.571 78.7252 930.08 54.2563 924.707 30.9535C933.106 27.0914 940.447 21.2563 946.104 13.9453C951.762 6.63427 955.568 -1.93598 957.199 -11.0353C958.83 -20.1347 958.237 -29.4934 955.471 -38.3143C952.705 -47.1351 947.848 -55.1567 941.313 -61.6955C934.779 -68.2343 926.76 -73.0966 917.941 -75.8682C909.122 -78.6397 899.764 -79.2384 890.663 -77.6132C881.563 -75.988 872.99 -72.187 865.676 -66.5341C858.361 -60.8813 852.521 -53.544 848.654 -45.1475C848.227 -44.2117 847.793 -43.2579 847.366 -42.3221C826.398 -45.9674 804.812 -42.5558 785.99 -32.6215C767.168 -22.6872 752.172 -6.79109 743.35 12.5775C740.667 18.4947 738.583 24.6657 737.129 30.998C723.296 35.6038 710.691 43.2957 700.269 53.4919C689.847 63.688 681.881 76.1212 676.973 89.8505C672.065 103.58 670.345 118.246 671.941 132.738C673.538 147.23 678.41 161.17 686.189 173.501C685.115 175.381 684.105 177.311 683.195 179.309C678.81 189.031 676.588 199.589 676.681 210.254C676.774 220.919 679.181 231.437 683.734 241.081C672.557 243.525 662.098 248.525 653.177 255.689C644.257 262.853 637.117 271.987 632.319 282.373C615.286 319.752 632.757 364.399 671.35 382.963C667.894 387.608 664.944 392.61 662.552 397.883C658.029 407.906 655.541 418.728 655.233 429.72C654.925 440.712 656.802 451.656 660.756 461.917C624.24 464.837 590.922 486.014 575.202 520.513C551.674 572.145 576.457 633.989 630.536 658.632C644.759 665.217 660.23 668.671 675.903 668.76C691.577 668.85 707.087 665.572 721.384 659.149C720.397 660.981 719.464 662.838 718.586 664.764C695.059 716.395 719.782 778.321 773.879 802.972C793.181 811.834 814.623 814.958 835.651 811.974C843.623 831.089 858.576 846.451 877.47 854.936C890.377 860.962 904.653 863.451 918.838 862.148C933.023 860.844 946.606 855.795 958.199 847.518C964.792 853.677 972.342 858.725 980.554 862.464C1019.01 879.989 1063.45 865.791 1082.44 830.891C1087.83 846.847 1096.46 861.52 1107.78 873.99C1119.1 886.46 1132.87 896.459 1148.24 903.361C1188.62 921.764 1233.37 916.856 1266.51 894.384C1279.04 920.425 1300.35 941.22 1326.68 953.119C1387.04 980.624 1457.29 956.131 1483.54 898.542C1509.78 840.954 1482.27 771.934 1421.82 744.388Z" fill="white"/>
<circle cx="908.908" cy="751.034" r="39.4222" fill="white"/>
<circle cx="949.352" cy="780.909" r="43.2496" fill="white"/>
<circle cx="993.11" cy="795.431" r="39.4222" fill="white"/>
<path d="M1407.59 740.277C1387.61 736.401 1366.96 737.805 1347.69 744.349C1328.42 750.893 1311.19 762.351 1297.7 777.592C1280.15 755.481 1260.45 747.446 1232.7 742.23C1169.41 730.175 1103.24 763.807 1091.38 826.072C1090.65 829.867 1090.13 833.639 1089.81 837.389C1082.37 828.823 1073.17 821.973 1062.82 817.314C1052.48 812.655 1041.25 810.297 1029.91 810.403C1018.57 810.51 1007.38 813.078 997.132 817.931C986.88 822.783 977.804 829.805 970.531 838.509C962.917 834.128 954.62 831.058 945.989 829.426C940.145 828.312 934.196 827.854 928.25 828.06C923.677 811.116 914.949 795.581 902.858 782.86C890.766 770.139 875.693 760.634 859.003 755.207C842.313 749.779 824.532 748.6 807.272 751.776C790.011 754.952 773.815 762.383 760.15 773.396C760.674 771.382 761.144 769.337 761.536 767.278C764.447 751.865 763.761 735.988 759.531 720.883C755.302 705.779 747.644 691.854 737.153 680.193C748.663 674.345 758.684 665.942 766.447 655.626C774.211 645.311 779.513 633.357 781.948 620.678C790.773 574.343 759.692 529.508 712.541 520.528C710.21 520.084 707.876 519.76 705.546 519.518C706.242 517.134 706.844 514.712 707.318 512.225C709.294 501.813 709.029 491.1 706.541 480.799C704.052 470.497 699.398 460.844 692.887 452.482C701.742 447.969 709.603 441.729 716.009 434.129C722.414 426.529 727.233 417.724 730.181 408.232C733.13 398.741 734.148 388.755 733.176 378.864C732.205 368.973 729.263 359.376 724.524 350.64C736.057 333.909 742.155 314.031 741.99 293.711C761.856 280.633 776.299 260.788 782.635 237.864C788.971 214.939 786.769 190.494 776.438 169.07C787.203 160.407 794.526 148.189 797.094 134.612C803.014 103.528 783.286 73.4983 753.018 67.7336C722.75 61.9688 693.348 82.5208 687.414 113.682C687.217 114.712 687.044 115.625 686.833 116.733C645.363 119.786 609.188 151.168 600.818 195.113C599.624 201.505 599.061 208 599.138 214.502C587.042 222.443 576.856 232.968 569.316 245.318C561.775 257.669 557.067 271.537 555.53 285.926C553.993 300.314 555.665 314.865 560.427 328.529C565.189 342.194 572.921 354.632 583.067 364.949C582.474 367.01 581.95 369.125 581.539 371.282C579.561 381.695 579.827 392.411 582.319 402.714C584.811 413.017 589.471 422.669 595.99 431.028C585.867 436.201 577.057 443.613 570.23 452.701C563.402 461.79 558.736 472.315 556.587 483.477C548.902 523.828 575.489 562.875 616.178 571.53C610.877 584.331 608.805 598.238 610.146 612.028C611.487 625.818 616.199 639.066 623.868 650.604C606.741 656.395 591.454 666.618 579.561 680.234C567.667 693.85 559.592 710.373 556.156 728.122C545.545 783.84 582.923 837.786 639.632 848.587C654.676 851.499 670.175 851.085 685.043 847.375C699.911 843.665 713.787 836.749 725.7 827.111C725.176 829.125 724.706 831.169 724.314 833.228C713.698 888.966 751.077 942.912 807.805 953.716C828.133 957.626 849.163 955.47 868.275 947.517C875.223 957.268 884.313 965.296 894.848 970.987C905.382 976.677 917.08 979.877 929.044 980.342C941.008 980.807 952.919 978.524 963.864 973.668C974.808 968.813 984.494 961.514 992.177 952.332C999.766 956.689 1008.03 959.752 1016.62 961.396C1056.95 969.078 1095.78 944.584 1105.88 906.142C1114.44 920.197 1125.86 932.295 1139.4 941.647C1152.94 951 1168.29 957.399 1184.47 960.427C1226.84 968.497 1264.83 980.847 1291.07 951.034C1307.92 972.364 1335.66 959.991 1364.59 965.501C1427.89 977.556 1488.83 936.82 1500.67 874.652C1512.51 812.484 1470.86 752.328 1407.59 740.277Z" fill="white"/>
<path d="M1049.34 301.693L1103.22 293.619L1100.5 329.211L1039.99 313.626L1049.34 301.693Z" fill="#FBAC1D"/>
<path fill-rule="evenodd" clip-rule="evenodd" d="M1025.36 320.275L1029.41 324.382C1042.39 320.679 1054.3 313.955 1064.18 304.761C1075.85 293.19 1077.53 276.008 1076.93 268.875C1069.77 268.185 1052.72 269.885 1041.06 281.43C1031.75 291.211 1024.88 303.062 1021.03 316.01L1025.23 320.25L1025.36 320.275Z" fill="#BC3647"/>
<path d="M1139.11 392.277L1147.65 338.569L1112.12 340.89L1127.16 401.561L1139.11 392.277Z" fill="#D56627"/>
<path fill-rule="evenodd" clip-rule="evenodd" d="M1120.3 416.117L1116.24 412.01C1120.09 399.062 1126.95 387.211 1136.27 377.43C1147.93 365.885 1165.14 364.349 1172.27 365.008C1172.9 372.172 1171.05 389.19 1159.39 400.761C1149.51 409.955 1137.6 416.679 1124.62 420.382L1120.4 416.136L1120.3 416.117Z" fill="#BC3647"/>
<path fill-rule="evenodd" clip-rule="evenodd" d="M1090.67 349.625L1078.22 337.064C1086.57 313.676 1114.15 256.12 1157.67 212.999C1201.18 169.879 1259.7 158.411 1283.71 158.278C1283.36 182.41 1271.81 241.192 1228.3 284.313C1184.78 327.433 1126.98 354.497 1103.5 362.716L1091.05 350.155L1090.67 349.625Z" fill="#FBAC1D"/>
<path d="M1103.55 362.615L1090.67 349.623L1283.73 158.281C1283.38 182.413 1271.84 241.195 1228.32 284.315C1184.81 327.436 1127.01 354.5 1103.55 362.615Z" fill="#F58227"/>
<mask id="mask1" mask-type="alpha" maskUnits="userSpaceOnUse" x="1075" y="126" width="212" height="263">
<path fill-rule="evenodd" clip-rule="evenodd" d="M1092.12 349.055L1079.67 336.493C1088.02 313.106 1115.6 255.55 1159.12 212.429C1202.63 169.309 1261.15 157.84 1285.16 157.708C1284.81 181.84 1273.26 240.622 1229.75 283.742C1186.23 326.863 1128.43 353.927 1104.95 362.146L1092.5 349.585L1092.12 349.055Z" fill="#FBAC1D"/>
</mask>
<g mask="url(#mask1)">
<path d="M1254.44 116.259L1201.81 168.405L1275.58 242.853L1328.21 190.707L1254.44 116.259Z" fill="#DE445E"/>
<path d="M1201.83 166.647L1196.49 171.945L1270.25 246.393L1275.6 241.095L1201.83 166.647Z" fill="#A01D20"/>
<path d="M1058.24 308.942L1052.9 314.24L1126.66 388.688L1132.01 383.39L1058.24 308.942Z" fill="#A01D20"/>
</g>
<path d="M1226.59 254.085C1237.43 243.346 1237.46 225.803 1226.66 214.902C1215.86 204.001 1198.32 203.871 1187.48 214.61C1176.64 225.35 1176.61 242.893 1187.41 253.793C1198.21 264.694 1215.75 264.825 1226.59 254.085Z" fill="#373636"/>
<path d="M1250.52 208.178L1250.49 225.811L1168.87 225.189L1168.9 207.555L1250.52 208.178Z" fill="white" fill-opacity="0.2"/>
<path d="M1256.34 239.561L1167.57 238.786L1166.32 245.325L1256.43 246.004L1256.34 239.561Z" fill="white" fill-opacity="0.2"/>
<path d="M1029.12 325.956L677.043 739.717L554.962 507.81L1018.4 315.509L1029.12 325.956Z" fill="white"/>
<path d="M1078.22 337.064L1103.55 362.618L897.12 835.613L699.812 677.123L693.95 600.184L1078.22 337.064Z" fill="white"/>
<path d="M1116.24 412.008L818.939 751.03L955.304 852.851L1124.52 420.36L1116.24 412.008Z" fill="white"/>
<path opacity="0.1" d="M1583.08 63.381C1584.04 59.9007 1584.93 56.3861 1585.66 52.78C1590.99 26.2954 1588.91 -1.14529 1579.66 -26.5256C1570.4 -51.906 1554.33 -74.2433 1533.2 -91.082C1512.08 -107.921 1486.72 -118.609 1459.91 -121.972C1433.11 -125.334 1405.9 -121.241 1381.27 -110.143C1363.96 -124.223 1343.68 -134.181 1321.96 -139.26C1300.24 -144.339 1277.64 -144.408 1255.89 -139.46C1234.14 -134.512 1213.8 -124.677 1196.41 -110.701C1179.02 -96.7252 1165.05 -78.9749 1155.54 -58.7951C1146.03 -38.6154 1141.24 -16.5358 1141.53 5.77047C1141.82 28.0767 1147.18 50.0243 1157.21 69.9499C1167.24 89.8756 1181.68 107.257 1199.42 120.776C1217.17 134.295 1237.76 143.597 1259.63 147.978C1289.68 154.054 1320.89 150.524 1348.82 137.888C1352.52 140.906 1356.35 143.73 1360.35 146.385C1359.37 149.861 1358.48 153.376 1357.77 156.966C1352.53 183.094 1354.49 210.155 1363.44 235.254C1372.4 260.354 1388 282.548 1408.6 299.461C1429.19 316.374 1453.99 327.371 1480.35 331.274C1506.71 335.177 1533.64 331.84 1558.25 321.62C1582.86 311.4 1604.23 294.682 1620.07 273.254C1635.91 251.825 1645.63 226.493 1648.19 199.968C1650.74 173.442 1646.03 146.721 1634.57 122.664C1623.11 98.606 1605.33 78.1169 1583.12 63.3884L1583.08 63.381Z" fill="white"/>
<g opacity="0.08">
<path opacity="0.5" d="M1478 388.896L868.4 -137.962L831.948 -113.478L1453.74 424.198L1478 388.896Z" fill="white"/>
<path opacity="0.5" d="M793.413 -105.739L689.817 -36.2033L1479.25 655.704L1557.83 569.708L793.413 -105.739Z" fill="white"/>
</g>
<path d="M1146.95 697.95C1148.53 698.25 1150.05 697.215 1150.35 695.638C1150.65 694.061 1149.62 692.539 1148.04 692.238C1146.46 691.938 1144.94 692.973 1144.64 694.55C1144.34 696.127 1145.38 697.65 1146.95 697.95Z" fill="white"/>
<g opacity="0.5">
<path opacity="0.5" d="M1053.71 532.08C1055.29 532.38 1056.81 531.345 1057.11 529.768C1057.41 528.191 1056.37 526.669 1054.8 526.368C1053.22 526.068 1051.7 527.103 1051.4 528.68C1051.1 530.257 1052.13 531.779 1053.71 532.08Z" fill="white"/>
<path opacity="0.5" d="M1086.25 539.321C1087.82 539.621 1089.35 538.586 1089.65 537.009C1089.95 535.432 1088.91 533.91 1087.34 533.609C1085.76 533.309 1084.24 534.344 1083.94 535.921C1083.64 537.499 1084.67 539.021 1086.25 539.321Z" fill="white"/>
<path opacity="0.5" d="M1108.28 517.064C1109.86 517.365 1111.38 516.329 1111.68 514.752C1111.98 513.175 1110.95 511.653 1109.37 511.353C1107.79 511.052 1106.27 512.087 1105.97 513.664C1105.67 515.242 1106.71 516.764 1108.28 517.064Z" fill="white"/>
<path opacity="0.5" d="M1285.21 536.713C1286.79 537.013 1288.31 535.978 1288.61 534.401C1288.91 532.823 1287.88 531.301 1286.3 531.001C1284.72 530.701 1283.2 531.736 1282.9 533.313C1282.6 534.89 1283.64 536.412 1285.21 536.713Z" fill="white"/>
<path opacity="0.5" d="M1220.77 483.067C1222.35 483.368 1223.87 482.332 1224.17 480.755C1224.47 479.178 1223.44 477.656 1221.86 477.355C1220.28 477.055 1218.76 478.09 1218.46 479.667C1218.16 481.245 1219.2 482.767 1220.77 483.067Z" fill="white"/>
<path opacity="0.5" d="M1295.69 480.1C1297.27 480.401 1298.79 479.366 1299.09 477.788C1299.39 476.211 1298.35 474.689 1296.78 474.389C1295.2 474.088 1293.68 475.123 1293.38 476.701C1293.08 478.278 1294.11 479.8 1295.69 480.1Z" fill="white"/>
<path opacity="0.5" d="M1254.98 474.947C1256.56 475.247 1258.08 474.212 1258.38 472.635C1258.68 471.058 1257.65 469.536 1256.07 469.235C1254.49 468.935 1252.97 469.97 1252.67 471.547C1252.37 473.124 1253.4 474.647 1254.98 474.947Z" fill="white"/>
<path opacity="0.5" d="M1071.96 439.161C1073.54 439.461 1075.06 438.426 1075.36 436.849C1075.66 435.272 1074.63 433.75 1073.05 433.449C1071.47 433.149 1069.95 434.184 1069.65 435.761C1069.35 437.338 1070.39 438.86 1071.96 439.161Z" fill="white"/>
<path opacity="0.5" d="M1083.99 240.414C1085.57 240.714 1087.09 239.679 1087.39 238.102C1087.69 236.525 1086.66 235.003 1085.08 234.702C1083.5 234.402 1081.98 235.437 1081.68 237.014C1081.38 238.591 1082.41 240.113 1083.99 240.414Z" fill="white"/>
<path opacity="0.5" d="M1116.51 247.653C1118.09 247.953 1119.61 246.918 1119.91 245.341C1120.21 243.764 1119.18 242.242 1117.6 241.941C1116.02 241.641 1114.5 242.676 1114.2 244.253C1113.9 245.831 1114.94 247.353 1116.51 247.653Z" fill="white"/>
<path opacity="0.5" d="M1138.57 225.4C1140.15 225.701 1141.67 224.665 1141.97 223.088C1142.27 221.511 1141.24 219.989 1139.66 219.688C1138.08 219.388 1136.56 220.423 1136.26 222C1135.96 223.578 1137 225.1 1138.57 225.4Z" fill="white"/>
<path opacity="0.5" d="M1315.49 245.046C1317.07 245.346 1318.59 244.311 1318.89 242.734C1319.19 241.156 1318.16 239.634 1316.58 239.334C1315 239.034 1313.48 240.069 1313.18 241.646C1312.88 243.223 1313.92 244.745 1315.49 245.046Z" fill="white"/>
<path opacity="0.5" d="M1251.06 191.4C1252.63 191.701 1254.16 190.665 1254.46 189.088C1254.76 187.511 1253.72 185.989 1252.14 185.688C1250.57 185.388 1249.05 186.423 1248.75 188C1248.44 189.578 1249.48 191.1 1251.06 191.4Z" fill="white"/>
<path opacity="0.5" d="M1182.31 416.009C1183.89 416.309 1185.41 415.274 1185.71 413.697C1186.01 412.119 1184.98 410.597 1183.4 410.297C1181.82 409.996 1180.3 411.032 1180 412.609C1179.7 414.186 1180.73 415.708 1182.31 416.009Z" fill="white"/>
<path opacity="0.5" d="M1325.97 188.454C1327.55 188.754 1329.07 187.719 1329.37 186.142C1329.67 184.565 1328.64 183.043 1327.06 182.742C1325.48 182.442 1323.96 183.477 1323.66 185.054C1323.36 186.631 1324.4 188.153 1325.97 188.454Z" fill="white"/>
<path opacity="0.5" d="M1285.26 183.28C1286.84 183.58 1288.36 182.545 1288.66 180.968C1288.96 179.391 1287.93 177.869 1286.35 177.568C1284.77 177.268 1283.25 178.303 1282.95 179.88C1282.65 181.457 1283.69 182.98 1285.26 183.28Z" fill="white"/>
<path opacity="0.5" d="M1102.25 147.515C1103.83 147.816 1105.35 146.781 1105.65 145.203C1105.95 143.626 1104.91 142.104 1103.34 141.804C1101.76 141.503 1100.24 142.538 1099.94 144.116C1099.64 145.693 1100.67 147.215 1102.25 147.515Z" fill="white"/>
<path opacity="0.5" d="M790.804 175.935C792.381 176.236 793.904 175.201 794.204 173.623C794.504 172.046 793.469 170.524 791.892 170.224C790.315 169.923 788.793 170.958 788.492 172.536C788.192 174.113 789.227 175.635 790.804 175.935Z" fill="white"/>
<path opacity="0.5" d="M823.347 183.202C824.924 183.502 826.446 182.467 826.747 180.89C827.047 179.313 826.012 177.791 824.435 177.49C822.858 177.19 821.336 178.225 821.035 179.802C820.735 181.379 821.77 182.901 823.347 183.202Z" fill="white"/>
<path opacity="0.5" d="M845.386 160.926C846.963 161.226 848.486 160.191 848.786 158.614C849.086 157.036 848.051 155.514 846.474 155.214C844.897 154.913 843.375 155.949 843.074 157.526C842.774 159.103 843.809 160.625 845.386 160.926Z" fill="white"/>
<path opacity="0.5" d="M1022.3 180.588C1023.88 180.888 1025.4 179.853 1025.7 178.276C1026 176.698 1024.97 175.176 1023.39 174.876C1021.81 174.576 1020.29 175.611 1019.99 177.188C1019.69 178.765 1020.73 180.287 1022.3 180.588Z" fill="white"/>
<path opacity="0.5" d="M957.873 126.947C959.451 127.247 960.973 126.212 961.273 124.635C961.574 123.058 960.539 121.536 958.961 121.235C957.384 120.935 955.862 121.97 955.562 123.547C955.261 125.124 956.296 126.647 957.873 126.947Z" fill="white"/>
<path opacity="0.5" d="M889.143 351.557C890.72 351.858 892.242 350.823 892.543 349.245C892.843 347.668 891.808 346.146 890.231 345.846C888.654 345.545 887.131 346.58 886.831 348.158C886.531 349.735 887.566 351.257 889.143 351.557Z" fill="white"/>
<path opacity="0.5" d="M1032.79 123.979C1034.36 124.28 1035.88 123.245 1036.19 121.667C1036.49 120.09 1035.45 118.568 1033.87 118.268C1032.3 117.967 1030.77 119.002 1030.47 120.579C1030.17 122.157 1031.21 123.679 1032.79 123.979Z" fill="white"/>
<path opacity="0.5" d="M992.073 118.822C993.65 119.122 995.172 118.087 995.472 116.51C995.773 114.933 994.738 113.411 993.161 113.11C991.583 112.81 990.061 113.845 989.761 115.422C989.46 116.999 990.495 118.522 992.073 118.822Z" fill="white"/>
<path opacity="0.5" d="M809.064 83.0408C810.641 83.3411 812.163 82.3061 812.464 80.7288C812.764 79.1516 811.729 77.6295 810.152 77.3291C808.575 77.0287 807.052 78.0638 806.752 79.641C806.452 81.2182 807.487 82.7404 809.064 83.0408Z" fill="white"/>
</g>
<path d="M153.016 772.637V674.374H125.45V695.777H95.6162V772.637H153.016Z" fill="#1A395C"/>
<path d="M141.665 710.699H147.18V705.185H141.665V710.699Z" fill="#4B92BA"/>
<path opacity="0.5" d="M141.665 697.954H147.18V692.44H141.665V697.954Z" fill="#4B92BA"/>
<path opacity="0.5" d="M130.655 710.699H136.169V705.185H130.655V710.699Z" fill="#4B92BA"/>
<path opacity="0.25" d="M130.655 697.954H136.169V692.44H130.655V697.954Z" fill="#4B92BA"/>
<path d="M14.3159 663.551H42.9131V771.787H14.3159V663.551Z" fill="#294B6B"/>
<path d="M0.00109729 772.635V689.153H23.4207V707.336H48.7666V772.635H0.00109729Z" fill="#1A395C"/>
<path d="M9.64681 720.012H4.96191L4.96191 715.327H9.64681V720.012Z" fill="#4B92BA"/>
<path d="M33.3021 676.104H28.6172V671.419H33.3021V676.104Z" fill="#4B92BA"/>
<path d="M33.3021 684.971H28.6172V680.286H33.3021V684.971Z" fill="#4B92BA"/>
<path opacity="0.5" d="M9.64681 709.185H4.96191L4.96191 704.5H9.64681V709.185Z" fill="#4B92BA"/>
<path opacity="0.5" d="M18.9994 720.012H14.3145V715.327H18.9994V720.012Z" fill="#4B92BA"/>
<path opacity="0.5" d="M25.3568 676.104H20.6719V671.419H25.3568V676.104Z" fill="#4B92BA"/>
<path opacity="0.25" d="M18.9994 709.185H14.3145V704.5H18.9994V709.185Z" fill="#4B92BA"/>
<path d="M19.7706 663.551V655.517L37.4609 637.821V663.551H19.7706Z" fill="#294B6B"/>
<path d="M232.375 667.517H260.973V775.753H232.375V667.517Z" fill="#294B6B"/>
<path d="M218.061 776.6V693.119H241.48V711.302H266.826V776.6H218.061Z" fill="#1A395C"/>
<path d="M227.706 723.978H223.021V719.293H227.706V723.978Z" fill="#4B92BA"/>
<path d="M251.362 680.069H246.677V675.384H251.362V680.069Z" fill="#4B92BA"/>
<path d="M251.362 688.937H246.677V684.251H251.362V688.937Z" fill="#4B92BA"/>
<path opacity="0.5" d="M227.706 713.15H223.021V708.465H227.706V713.15Z" fill="#4B92BA"/>
<path opacity="0.5" d="M237.059 723.978H232.374V719.293H237.059V723.978Z" fill="#4B92BA"/>
<path opacity="0.5" d="M243.416 680.069H238.731V675.384H243.416V680.069Z" fill="#4B92BA"/>
<path opacity="0.25" d="M237.059 713.15H232.374V708.465H237.059V713.15Z" fill="#4B92BA"/>
<path d="M237.83 667.517V659.482L255.521 641.787V667.517H237.83Z" fill="#294B6B"/>
<path d="M104.639 663.551H76.042V771.787H104.639V663.551Z" fill="#294B6B"/>
<path d="M118.954 772.635V689.153H95.5343V707.336H70.1885V772.635H118.954Z" fill="#1A395C"/>
<path d="M109.308 720.012H113.993V715.327H109.308V720.012Z" fill="#4B92BA"/>
<path d="M85.653 676.104H90.3379V671.419H85.653V676.104Z" fill="#4B92BA"/>
<path d="M85.653 684.971H90.3379V680.286H85.653V684.971Z" fill="#4B92BA"/>
<path opacity="0.5" d="M109.308 709.185H113.993V704.5H109.308V709.185Z" fill="#4B92BA"/>
<path opacity="0.5" d="M99.9557 720.012H104.641V715.327H99.9557V720.012Z" fill="#4B92BA"/>
<path opacity="0.5" d="M93.5992 676.104H98.2842V671.419H93.5992V676.104Z" fill="#4B92BA"/>
<path opacity="0.25" d="M99.9557 709.185H104.641V704.5H99.9557V709.185Z" fill="#4B92BA"/>
<path d="M99.1845 663.551V655.517L81.4941 637.821V663.551H99.1845Z" fill="#294B6B"/>
<path d="M324.94 817.842V682.968H287.103V712.345H246.153V817.842H324.94Z" fill="#1A395C"/>
<path d="M309.359 732.826H316.928V725.257H309.359V732.826Z" fill="#4B92BA"/>
<path opacity="0.5" d="M309.359 715.333H316.928V707.764H309.359V715.333Z" fill="#4B92BA"/>
<path opacity="0.5" d="M294.249 732.826H301.818V725.257H294.249V732.826Z" fill="#4B92BA"/>
<path opacity="0.25" d="M294.249 715.333H301.818V707.764H294.249V715.333Z" fill="#4B92BA"/>
<path d="M589.927 817.842V682.968H552.09V712.345H511.141V817.842H589.927Z" fill="#1A395C"/>
<path d="M574.346 732.826H581.915V725.257H574.346V732.826Z" fill="#4B92BA"/>
<path opacity="0.5" d="M574.346 715.333H581.915V707.764H574.346V715.333Z" fill="#4B92BA"/>
<path opacity="0.5" d="M559.235 732.826H566.804V725.257H559.235V732.826Z" fill="#4B92BA"/>
<path opacity="0.25" d="M559.235 715.333H566.804V707.764H559.235V715.333Z" fill="#4B92BA"/>
<path d="M872.167 817.842V682.968H834.329V712.345H793.38V817.842H872.167Z" fill="#1A395C"/>
<path d="M856.585 732.826H864.153V725.257H856.585V732.826Z" fill="#4B92BA"/>
<path opacity="0.5" d="M856.585 715.333H864.153V707.764H856.585V715.333Z" fill="#4B92BA"/>
<path opacity="0.5" d="M841.474 732.826H849.043V725.257H841.474V732.826Z" fill="#4B92BA"/>
<path opacity="0.25" d="M841.474 715.333H849.043V707.764H841.474V715.333Z" fill="#4B92BA"/>
<path d="M1297.58 817.842V682.968H1259.74V712.345H1218.79V817.842H1297.58Z" fill="#1A395C"/>
<path d="M1281.99 732.826H1289.56V725.257H1281.99V732.826Z" fill="#4B92BA"/>
<path opacity="0.5" d="M1281.99 715.333H1289.56V707.764H1281.99V715.333Z" fill="#4B92BA"/>
<path opacity="0.5" d="M1266.88 732.826H1274.45V725.257H1266.88V732.826Z" fill="#4B92BA"/>
<path opacity="0.25" d="M1266.88 715.333H1274.45V707.764H1266.88V715.333Z" fill="#4B92BA"/>
<path d="M324.941 817.842V682.968H362.778V712.345H403.728V817.842H324.941Z" fill="#1A395C"/>
<path d="M340.523 732.826H332.954V725.257H340.523V732.826Z" fill="#4B92BA"/>
<path opacity="0.5" d="M340.523 715.333H332.954V707.764H340.523V715.333Z" fill="#4B92BA"/>
<path opacity="0.5" d="M355.633 732.826H348.063V725.257H355.633V732.826Z" fill="#4B92BA"/>
<path opacity="0.25" d="M355.633 715.333H348.063V707.764H355.633V715.333Z" fill="#4B92BA"/>
<path d="M589.928 817.842V682.968H627.765V712.345H668.715V817.842H589.928Z" fill="#1A395C"/>
<path d="M866 826V675H908.262V707.889H954V826H866Z" fill="#1A395C"/>
<path d="M605.51 732.826H597.941V725.257H605.51V732.826Z" fill="#4B92BA"/>
<path opacity="0.5" d="M605.51 715.333H597.941V707.764H605.51V715.333Z" fill="#4B92BA"/>
<path opacity="0.5" d="M620.621 732.826H613.052V725.257H620.621V732.826Z" fill="#4B92BA"/>
<path opacity="0.25" d="M620.621 715.333H613.052V707.764H620.621V715.333Z" fill="#4B92BA"/>
<path d="M1101 819V684H1059.22V713.404H1014V819H1101Z" fill="#1A395C"/>
<path d="M1085.28 734.082H1092.85V726.513H1085.28V734.082Z" fill="#4B92BA"/>
<path opacity="0.5" d="M1085.28 716.589H1092.85V709.02H1085.28V716.589Z" fill="#4B92BA"/>
<path opacity="0.5" d="M1070.17 734.082H1077.74V726.513H1070.17V734.082Z" fill="#4B92BA"/>
<path opacity="0.25" d="M1070.17 716.589H1077.74V709.02H1070.17V716.589Z" fill="#4B92BA"/>
<path d="M1179.65 814.404V679.529H1141.82V708.906H1100.87V814.404H1179.65Z" fill="#1A395C"/>
<path d="M1164.07 729.388H1171.64V721.819H1164.07V729.388Z" fill="#4B92BA"/>
<path opacity="0.5" d="M1164.07 711.895H1171.64V704.325H1164.07V711.895Z" fill="#4B92BA"/>
<path opacity="0.5" d="M1148.96 729.388H1156.53V721.819H1148.96V729.388Z" fill="#4B92BA"/>
<path opacity="0.25" d="M1148.96 711.895H1156.53V704.325H1148.96V711.895Z" fill="#4B92BA"/>
<path d="M1297.58 817.842V682.968H1335.41V712.345H1376.36V817.842H1297.58Z" fill="#1A395C"/>
<path d="M1313.16 732.826H1305.59V725.257H1313.16V732.826Z" fill="#4B92BA"/>
<path opacity="0.5" d="M1313.16 715.333H1305.59V707.764H1313.16V715.333Z" fill="#4B92BA"/>
<path opacity="0.5" d="M1328.27 732.826H1320.7V725.257H1328.27V732.826Z" fill="#4B92BA"/>
<path opacity="0.25" d="M1328.27 715.333H1320.7V707.764H1328.27V715.333Z" fill="#4B92BA"/>
<path d="M258.536 668.114H219.284V816.678H258.536V668.114Z" fill="#294B6B"/>
<path d="M278.186 817.843V703.258H246.04V728.216H211.251V817.843H278.186Z" fill="#1A395C"/>
<path d="M264.948 745.613H271.378V739.183H264.948V745.613Z" fill="#4B92BA"/>
<path d="M232.477 685.344H238.907V678.913H232.477V685.344Z" fill="#4B92BA"/>
<path d="M232.477 697.516H238.907V691.085H232.477V697.516Z" fill="#4B92BA"/>
<path opacity="0.5" d="M264.948 730.751H271.378V724.321H264.948V730.751Z" fill="#4B92BA"/>
<path opacity="0.5" d="M252.11 745.613H258.54V739.183H252.11V745.613Z" fill="#4B92BA"/>
<path opacity="0.5" d="M243.382 685.344H249.812V678.913H243.382V685.344Z" fill="#4B92BA"/>
<path opacity="0.25" d="M252.11 730.751H258.54V724.321H252.11V730.751Z" fill="#4B92BA"/>
<path d="M251.051 668.116V657.087L226.77 632.799V668.116H251.051Z" fill="#294B6B"/>
<path d="M201.285 668.114H162.033V816.678H201.285V668.114Z" fill="#294B6B"/>
<path d="M220.935 817.843V703.258H188.789V728.216H154V817.843H220.935Z" fill="#1A395C"/>
<path d="M207.697 745.613H214.127V739.183H207.697V745.613Z" fill="#4B92BA"/>
<path d="M175.226 685.344H181.656V678.913H175.226V685.344Z" fill="#4B92BA"/>
<path d="M175.226 697.516H181.656V691.085H175.226V697.516Z" fill="#4B92BA"/>
<path opacity="0.5" d="M207.697 730.751H214.127V724.321H207.697V730.751Z" fill="#4B92BA"/>
<path opacity="0.5" d="M194.859 745.613H201.289V739.183H194.859V745.613Z" fill="#4B92BA"/>
<path opacity="0.5" d="M186.131 685.344H192.562V678.913H186.131V685.344Z" fill="#4B92BA"/>
<path opacity="0.25" d="M194.859 730.751H201.289V724.321H194.859V730.751Z" fill="#4B92BA"/>
<path d="M193.8 668.116V657.087L169.519 632.799V668.116H193.8Z" fill="#294B6B"/>
<path d="M969 648H919V837H969V648Z" fill="#294B6B"/>
<path d="M977.935 817.843V703.258H945.789V728.216H911V817.843H977.935Z" fill="#1A395C"/>
<path d="M964.697 745.613H971.127V739.183H964.697V745.613Z" fill="#4B92BA"/>
<path d="M932.226 685.344H938.656V678.913H932.226V685.344Z" fill="#4B92BA"/>
<path d="M932.226 697.516H938.656V691.085H932.226V697.516Z" fill="#4B92BA"/>
<path opacity="0.5" d="M964.697 730.751H971.127V724.321H964.697V730.751Z" fill="#4B92BA"/>
<path opacity="0.5" d="M951.859 745.613H958.289V739.183H951.859V745.613Z" fill="#4B92BA"/>
<path opacity="0.5" d="M943.131 685.344H949.562V678.913H943.131V685.344Z" fill="#4B92BA"/>
<path opacity="0.25" d="M951.859 730.751H958.289V724.321H951.859V730.751Z" fill="#4B92BA"/>
<path d="M950.282 651.317V640.288L926 616V651.317H950.282Z" fill="#294B6B"/>
<path d="M1171.29 668.114H1132.03V816.678H1171.29V668.114Z" fill="#294B6B"/>
<path d="M1190.94 817.843V703.258H1158.79V728.216H1124V817.843H1190.94Z" fill="#1A395C"/>
<path d="M1177.7 745.613H1184.13V739.183H1177.7V745.613Z" fill="#4B92BA"/>
<path d="M1145.23 685.344H1151.66V678.913H1145.23V685.344Z" fill="#4B92BA"/>
<path d="M1145.23 697.516H1151.66V691.085H1145.23V697.516Z" fill="#4B92BA"/>
<path opacity="0.5" d="M1177.7 730.751H1184.13V724.321H1177.7V730.751Z" fill="#4B92BA"/>
<path opacity="0.5" d="M1164.86 745.613H1171.29V739.183H1164.86V745.613Z" fill="#4B92BA"/>
<path opacity="0.5" d="M1156.13 685.344H1162.56V678.913H1156.13V685.344Z" fill="#4B92BA"/>
<path opacity="0.25" d="M1164.86 730.751H1171.29V724.321H1164.86V730.751Z" fill="#4B92BA"/>
<path d="M1163.8 668.116V657.087L1139.52 632.799V668.116H1163.8Z" fill="#294B6B"/>
<path d="M523.525 668.114H484.272V816.678H523.525V668.114Z" fill="#294B6B"/>
<path d="M543 818V703H505.54V728.048H465V818H543Z" fill="#1A395C"/>
<path d="M529.935 745.613H536.365V739.183H529.935V745.613Z" fill="#4B92BA"/>
<path d="M497.466 685.344H503.896V678.913H497.466V685.344Z" fill="#4B92BA"/>
<path d="M497.466 697.516H503.896V691.085H497.466V697.516Z" fill="#4B92BA"/>
<path opacity="0.5" d="M529.935 730.751H536.365V724.321H529.935V730.751Z" fill="#4B92BA"/>
<path opacity="0.5" d="M517.097 745.613H523.527V739.183H517.097V745.613Z" fill="#4B92BA"/>
<path opacity="0.5" d="M508.371 685.344H514.802V678.913H508.371V685.344Z" fill="#4B92BA"/>
<path opacity="0.25" d="M517.097 730.751H523.527V724.321H517.097V730.751Z" fill="#4B92BA"/>
<path d="M516.039 668.116V657.087L491.758 632.799V668.116H516.039Z" fill="#294B6B"/>
<path d="M805.764 668.114H766.512V816.678H805.764V668.114Z" fill="#294B6B"/>
<path d="M825 818V703H778.896V728.048H729V818H825Z" fill="#1A395C"/>
<path d="M812.175 745.613H818.605V739.183H812.175V745.613Z" fill="#4B92BA"/>
<path d="M779.705 685.344H786.136V678.913H779.705V685.344Z" fill="#4B92BA"/>
<path d="M779.705 697.516H786.136V691.085H779.705V697.516Z" fill="#4B92BA"/>
<path opacity="0.5" d="M812.175 730.751H818.605V724.321H812.175V730.751Z" fill="#4B92BA"/>
<path opacity="0.5" d="M799.337 745.613H805.768V739.183H799.337V745.613Z" fill="#4B92BA"/>
<path opacity="0.5" d="M790.611 685.344H797.041V678.913H790.611V685.344Z" fill="#4B92BA"/>
<path opacity="0.25" d="M799.337 730.751H805.768V724.321H799.337V730.751Z" fill="#4B92BA"/>
<path d="M798.279 668.116V657.087L773.997 632.799V668.116H798.279Z" fill="#294B6B"/>
<path d="M1231.17 668.114H1191.92V816.678H1231.17V668.114Z" fill="#294B6B"/>
<path d="M1250.82 817.843V703.258H1218.68V728.216H1183.89V817.843H1250.82Z" fill="#1A395C"/>
<path d="M1237.58 745.613H1244.01V739.183H1237.58V745.613Z" fill="#4B92BA"/>
<path d="M1205.11 685.344H1211.54V678.913H1205.11V685.344Z" fill="#4B92BA"/>
<path d="M1205.11 697.516H1211.54V691.085H1205.11V697.516Z" fill="#4B92BA"/>
<path opacity="0.5" d="M1237.58 730.751H1244.01V724.321H1237.58V730.751Z" fill="#4B92BA"/>
<path opacity="0.5" d="M1224.75 745.613H1231.18V739.183H1224.75V745.613Z" fill="#4B92BA"/>
<path opacity="0.5" d="M1216.02 685.344H1222.45V678.913H1216.02V685.344Z" fill="#4B92BA"/>
<path opacity="0.25" d="M1224.75 730.751H1231.18V724.321H1224.75V730.751Z" fill="#4B92BA"/>
<path d="M1223.69 668.116V657.087L1199.41 632.799V668.116H1223.69Z" fill="#294B6B"/>
<path opacity="0.5" d="M423.861 812.467C424.91 812.679 425.931 811.999 426.142 810.95C426.354 809.901 425.675 808.88 424.626 808.669C423.577 808.457 422.555 809.137 422.344 810.186C422.133 811.234 422.812 812.256 423.861 812.467Z" fill="#BDF3FF"/>
<path opacity="0.5" d="M445.495 817.523C446.544 817.734 447.565 817.055 447.777 816.006C447.988 814.957 447.309 813.935 446.26 813.724C445.211 813.513 444.189 814.192 443.978 815.241C443.767 816.29 444.446 817.312 445.495 817.523Z" fill="#BDF3FF"/>
<path opacity="0.5" d="M460.334 802.843C461.382 803.054 462.404 802.375 462.615 801.326C462.826 800.277 462.147 799.256 461.098 799.045C460.05 798.833 459.028 799.512 458.817 800.561C458.606 801.61 459.285 802.632 460.334 802.843Z" fill="#BDF3FF"/>
<path opacity="0.5" d="M578.1 817.174C579.149 817.385 580.171 816.706 580.382 815.657C580.593 814.608 579.914 813.587 578.865 813.376C577.816 813.164 576.795 813.844 576.583 814.892C576.372 815.941 577.051 816.963 578.1 817.174Z" fill="#BDF3FF"/>
<path opacity="0.5" d="M535.535 780.975C536.584 781.186 537.606 780.507 537.817 779.458C538.028 778.409 537.349 777.388 536.3 777.176C535.251 776.965 534.229 777.644 534.018 778.693C533.807 779.742 534.486 780.764 535.535 780.975Z" fill="#BDF3FF"/>
<path opacity="0.5" d="M585.477 779.521C586.526 779.732 587.547 779.053 587.759 778.004C587.97 776.955 587.291 775.934 586.242 775.722C585.193 775.511 584.172 776.19 583.96 777.239C583.749 778.288 584.428 779.31 585.477 779.521Z" fill="#BDF3FF"/>
<path opacity="0.5" d="M558.387 775.802C559.436 776.013 560.458 775.334 560.669 774.285C560.88 773.236 560.201 772.215 559.152 772.004C558.103 771.792 557.082 772.471 556.87 773.52C556.659 774.569 557.338 775.591 558.387 775.802Z" fill="#BDF3FF"/>
<path opacity="0.5" d="M436.677 750.676C437.726 750.887 438.748 750.208 438.959 749.159C439.17 748.11 438.491 747.089 437.442 746.878C436.393 746.666 435.372 747.345 435.161 748.394C434.949 749.443 435.628 750.465 436.677 750.676Z" fill="#BDF3FF"/>
<path opacity="0.5" d="M446.082 618.316C447.131 618.527 448.152 617.848 448.363 616.799C448.574 615.75 447.895 614.728 446.846 614.517C445.798 614.306 444.776 614.985 444.565 616.034C444.354 617.083 445.033 618.105 446.082 618.316Z" fill="#BDF3FF"/>
<path opacity="0.5" d="M467.704 623.369C468.753 623.581 469.774 622.902 469.986 621.853C470.197 620.804 469.518 619.782 468.469 619.571C467.42 619.36 466.398 620.039 466.187 621.088C465.976 622.137 466.655 623.158 467.704 623.369Z" fill="#BDF3FF"/>
<path opacity="0.5" d="M482.559 608.693C483.608 608.904 484.63 608.225 484.841 607.176C485.052 606.127 484.373 605.105 483.324 604.894C482.275 604.683 481.254 605.362 481.042 606.411C480.831 607.46 481.51 608.482 482.559 608.693Z" fill="#BDF3FF"/>
<path opacity="0.5" d="M600.32 623.023C601.369 623.234 602.391 622.555 602.602 621.506C602.813 620.457 602.134 619.435 601.085 619.224C600.036 619.013 599.014 619.692 598.803 620.741C598.592 621.79 599.271 622.812 600.32 623.023Z" fill="#BDF3FF"/>
<path opacity="0.5" d="M557.754 586.824C558.802 587.035 559.824 586.356 560.035 585.307C560.246 584.258 559.567 583.236 558.518 583.025C557.469 582.814 556.448 583.493 556.237 584.542C556.026 585.591 556.705 586.612 557.754 586.824Z" fill="#BDF3FF"/>
<path opacity="0.5" d="M510.373 736.019C511.422 736.23 512.443 735.551 512.654 734.502C512.866 733.453 512.187 732.432 511.138 732.22C510.089 732.009 509.067 732.688 508.856 733.737C508.645 734.786 509.324 735.808 510.373 736.019Z" fill="#BDF3FF"/>
<path opacity="0.5" d="M607.699 585.383C608.748 585.594 609.77 584.915 609.981 583.866C610.192 582.817 609.513 581.796 608.464 581.585C607.415 581.373 606.393 582.052 606.182 583.101C605.971 584.15 606.65 585.172 607.699 585.383Z" fill="#BDF3FF"/>
<path opacity="0.5" d="M580.607 581.652C581.656 581.863 582.677 581.184 582.889 580.135C583.1 579.086 582.421 578.064 581.372 577.853C580.323 577.642 579.301 578.321 579.09 579.37C578.879 580.419 579.558 581.44 580.607 581.652Z" fill="#BDF3FF"/>
<path opacity="0.5" d="M458.898 556.538C459.947 556.75 460.968 556.071 461.18 555.022C461.391 553.973 460.712 552.951 459.663 552.74C458.614 552.529 457.592 553.208 457.381 554.257C457.17 555.306 457.849 556.327 458.898 556.538Z" fill="#BDF3FF"/>
<path opacity="0.5" d="M251.157 573.298C252.206 573.509 253.227 572.83 253.439 571.781C253.65 570.732 252.971 569.711 251.922 569.5C250.873 569.288 249.851 569.968 249.64 571.016C249.429 572.065 250.108 573.087 251.157 573.298Z" fill="#BDF3FF"/>
<path opacity="0.5" d="M272.792 578.369C273.841 578.58 274.862 577.901 275.073 576.852C275.285 575.803 274.605 574.781 273.556 574.57C272.508 574.359 271.486 575.038 271.275 576.087C271.064 577.136 271.743 578.157 272.792 578.369Z" fill="#BDF3FF"/>
<path opacity="0.5" d="M688.849 812.467C689.898 812.679 690.92 811.999 691.131 810.95C691.342 809.901 690.663 808.88 689.614 808.669C688.565 808.457 687.544 809.137 687.332 810.186C687.121 811.234 687.8 812.256 688.849 812.467Z" fill="#BDF3FF"/>
<path opacity="0.5" d="M710.483 817.523C711.532 817.734 712.553 817.055 712.764 816.006C712.976 814.957 712.297 813.935 711.248 813.724C710.199 813.513 709.177 814.192 708.966 815.241C708.755 816.29 709.434 817.312 710.483 817.523Z" fill="#BDF3FF"/>
<path opacity="0.5" d="M725.324 802.843C726.373 803.054 727.394 802.375 727.606 801.326C727.817 800.277 727.138 799.256 726.089 799.045C725.04 798.833 724.018 799.512 723.807 800.561C723.596 801.61 724.275 802.632 725.324 802.843Z" fill="#BDF3FF"/>
<path opacity="0.5" d="M843.088 817.174C844.136 817.385 845.158 816.706 845.369 815.657C845.58 814.608 844.901 813.587 843.852 813.376C842.803 813.164 841.782 813.844 841.571 814.892C841.359 815.941 842.039 816.963 843.088 817.174Z" fill="#BDF3FF"/>
<path opacity="0.5" d="M800.523 780.975C801.572 781.186 802.594 780.507 802.805 779.458C803.016 778.409 802.337 777.388 801.288 777.176C800.239 776.965 799.217 777.644 799.006 778.693C798.795 779.742 799.474 780.764 800.523 780.975Z" fill="#BDF3FF"/>
<path opacity="0.5" d="M850.465 779.521C851.514 779.732 852.535 779.053 852.746 778.004C852.958 776.955 852.278 775.934 851.229 775.722C850.18 775.511 849.159 776.19 848.948 777.239C848.736 778.288 849.416 779.31 850.465 779.521Z" fill="#BDF3FF"/>
<path opacity="0.5" d="M823.376 775.802C824.424 776.013 825.446 775.334 825.657 774.285C825.868 773.236 825.189 772.215 824.14 772.004C823.091 771.792 822.07 772.471 821.859 773.52C821.648 774.569 822.327 775.591 823.376 775.802Z" fill="#BDF3FF"/>
<path opacity="0.5" d="M701.665 750.676C702.714 750.887 703.735 750.208 703.946 749.159C704.157 748.11 703.478 747.089 702.429 746.878C701.381 746.666 700.359 747.345 700.148 748.394C699.937 749.443 700.616 750.465 701.665 750.676Z" fill="#BDF3FF"/>
<path opacity="0.5" d="M711.07 618.316C712.119 618.527 713.14 617.848 713.352 616.799C713.563 615.75 712.884 614.728 711.835 614.517C710.786 614.306 709.764 614.985 709.553 616.034C709.342 617.083 710.021 618.105 711.07 618.316Z" fill="#BDF3FF"/>
<path opacity="0.5" d="M732.691 623.369C733.74 623.581 734.762 622.902 734.973 621.853C735.184 620.804 734.505 619.782 733.456 619.571C732.407 619.36 731.385 620.039 731.174 621.088C730.963 622.137 731.642 623.158 732.691 623.369Z" fill="#BDF3FF"/>
<path opacity="0.5" d="M747.547 608.693C748.596 608.904 749.618 608.225 749.829 607.176C750.04 606.127 749.361 605.105 748.312 604.894C747.263 604.683 746.242 605.362 746.031 606.411C745.819 607.46 746.499 608.482 747.547 608.693Z" fill="#BDF3FF"/>
<path opacity="0.5" d="M865.308 623.023C866.357 623.234 867.378 622.555 867.59 621.506C867.801 620.457 867.122 619.435 866.073 619.224C865.024 619.013 864.003 619.692 863.791 620.741C863.58 621.79 864.259 622.812 865.308 623.023Z" fill="#BDF3FF"/>
<path opacity="0.5" d="M822.743 586.824C823.792 587.035 824.813 586.356 825.024 585.307C825.235 584.258 824.556 583.236 823.507 583.025C822.459 582.814 821.437 583.493 821.226 584.542C821.015 585.591 821.694 586.612 822.743 586.824Z" fill="#BDF3FF"/>
<path opacity="0.5" d="M775.361 736.019C776.41 736.23 777.432 735.551 777.643 734.502C777.854 733.453 777.175 732.432 776.126 732.22C775.077 732.009 774.055 732.688 773.844 733.737C773.633 734.786 774.312 735.808 775.361 736.019Z" fill="#BDF3FF"/>
<path opacity="0.5" d="M872.687 585.383C873.736 585.594 874.757 584.915 874.968 583.866C875.18 582.817 874.501 581.796 873.452 581.585C872.403 581.373 871.382 582.052 871.17 583.101C870.959 584.15 871.638 585.172 872.687 585.383Z" fill="#BDF3FF"/>
<path opacity="0.5" d="M845.595 581.652C846.644 581.863 847.666 581.184 847.877 580.135C848.088 579.086 847.409 578.064 846.36 577.853C845.311 577.642 844.29 578.321 844.079 579.37C843.867 580.419 844.546 581.44 845.595 581.652Z" fill="#BDF3FF"/>
<path opacity="0.5" d="M723.886 556.538C724.935 556.75 725.957 556.071 726.168 555.022C726.379 553.973 725.7 552.951 724.651 552.74C723.602 552.529 722.581 553.208 722.37 554.257C722.158 555.306 722.837 556.327 723.886 556.538Z" fill="#BDF3FF"/>
<path opacity="0.5" d="M516.144 573.298C517.193 573.509 518.215 572.83 518.426 571.781C518.637 570.732 517.958 569.711 516.909 569.5C515.86 569.288 514.839 569.968 514.627 571.016C514.416 572.065 515.095 573.087 516.144 573.298Z" fill="#BDF3FF"/>
<path opacity="0.5" d="M537.779 578.369C538.828 578.58 539.85 577.901 540.061 576.852C540.272 575.803 539.593 574.781 538.544 574.57C537.495 574.359 536.473 575.038 536.262 576.087C536.051 577.136 536.73 578.157 537.779 578.369Z" fill="#BDF3FF"/>
<path opacity="0.5" d="M971.09 812.467C972.139 812.679 973.161 811.999 973.372 810.95C973.583 809.901 972.904 808.88 971.855 808.669C970.806 808.457 969.785 809.137 969.574 810.186C969.362 811.234 970.042 812.256 971.09 812.467Z" fill="#BDF3FF"/>
<path opacity="0.5" d="M992.723 817.523C993.772 817.734 994.794 817.055 995.005 816.006C995.217 814.957 994.537 813.935 993.488 813.724C992.439 813.513 991.418 814.192 991.206 815.241C990.995 816.29 991.674 817.312 992.723 817.523Z" fill="#BDF3FF"/>
<path opacity="0.5" d="M1007.56 802.843C1008.61 803.054 1009.63 802.375 1009.85 801.326C1010.06 800.277 1009.38 799.256 1008.33 799.045C1007.28 798.833 1006.26 799.512 1006.05 800.561C1005.84 801.61 1006.52 802.632 1007.56 802.843Z" fill="#BDF3FF"/>
<path opacity="0.5" d="M1125.33 817.174C1126.38 817.385 1127.4 816.706 1127.61 815.657C1127.82 814.608 1127.14 813.587 1126.09 813.376C1125.04 813.164 1124.02 813.844 1123.81 814.892C1123.6 815.941 1124.28 816.963 1125.33 817.174Z" fill="#BDF3FF"/>
<path opacity="0.5" d="M1082.76 780.975C1083.81 781.186 1084.83 780.507 1085.05 779.458C1085.26 778.409 1084.58 777.388 1083.53 777.176C1082.48 776.965 1081.46 777.644 1081.25 778.693C1081.04 779.742 1081.72 780.764 1082.76 780.975Z" fill="#BDF3FF"/>
<path opacity="0.5" d="M1132.71 779.521C1133.75 779.732 1134.78 779.053 1134.99 778.004C1135.2 776.955 1134.52 775.934 1133.47 775.722C1132.42 775.511 1131.4 776.19 1131.19 777.239C1130.98 778.288 1131.66 779.31 1132.71 779.521Z" fill="#BDF3FF"/>
<path opacity="0.5" d="M1105.62 775.802C1106.66 776.013 1107.69 775.334 1107.9 774.285C1108.11 773.236 1107.43 772.215 1106.38 772.004C1105.33 771.792 1104.31 772.471 1104.1 773.52C1103.89 774.569 1104.57 775.591 1105.62 775.802Z" fill="#BDF3FF"/>
<path opacity="0.5" d="M983.906 750.676C984.955 750.887 985.976 750.208 986.187 749.159C986.399 748.11 985.72 747.089 984.671 746.878C983.622 746.666 982.6 747.345 982.389 748.394C982.178 749.443 982.857 750.465 983.906 750.676Z" fill="#BDF3FF"/>
<path opacity="0.5" d="M993.311 618.316C994.36 618.527 995.382 617.848 995.593 616.799C995.804 615.75 995.125 614.728 994.076 614.517C993.027 614.306 992.006 614.985 991.794 616.034C991.583 617.083 992.262 618.105 993.311 618.316Z" fill="#BDF3FF"/>
<path opacity="0.5" d="M1014.93 623.369C1015.98 623.581 1017 622.902 1017.21 621.853C1017.43 620.804 1016.75 619.782 1015.7 619.571C1014.65 619.36 1013.63 620.039 1013.42 621.088C1013.2 622.137 1013.88 623.158 1014.93 623.369Z" fill="#BDF3FF"/>
<path opacity="0.5" d="M1029.79 608.693C1030.84 608.904 1031.86 608.225 1032.07 607.176C1032.28 606.127 1031.6 605.105 1030.55 604.894C1029.5 604.683 1028.48 605.362 1028.27 606.411C1028.06 607.46 1028.74 608.482 1029.79 608.693Z" fill="#BDF3FF"/>
<path opacity="0.5" d="M1147.55 623.023C1148.6 623.234 1149.62 622.555 1149.83 621.506C1150.04 620.457 1149.36 619.435 1148.31 619.224C1147.26 619.013 1146.24 619.692 1146.03 620.741C1145.82 621.79 1146.5 622.812 1147.55 623.023Z" fill="#BDF3FF"/>
<path opacity="0.5" d="M1104.98 586.824C1106.03 587.035 1107.05 586.356 1107.27 585.307C1107.48 584.258 1106.8 583.236 1105.75 583.025C1104.7 582.814 1103.68 583.493 1103.47 584.542C1103.26 585.591 1103.94 586.612 1104.98 586.824Z" fill="#BDF3FF"/>
<path opacity="0.5" d="M1057.6 736.019C1058.65 736.23 1059.67 735.551 1059.88 734.502C1060.09 733.453 1059.42 732.432 1058.37 732.22C1057.32 732.009 1056.3 732.688 1056.08 733.737C1055.87 734.786 1056.55 735.808 1057.6 736.019Z" fill="#BDF3FF"/>
<path opacity="0.5" d="M1154.93 585.383C1155.98 585.594 1157 584.915 1157.21 583.866C1157.42 582.817 1156.74 581.796 1155.69 581.585C1154.64 581.373 1153.62 582.052 1153.41 583.101C1153.2 584.15 1153.88 585.172 1154.93 585.383Z" fill="#BDF3FF"/>
<path opacity="0.5" d="M1127.84 581.652C1128.88 581.863 1129.91 581.184 1130.12 580.135C1130.33 579.086 1129.65 578.064 1128.6 577.853C1127.55 577.642 1126.53 578.321 1126.32 579.37C1126.11 580.419 1126.79 581.44 1127.84 581.652Z" fill="#BDF3FF"/>
<path opacity="0.5" d="M1006.13 556.538C1007.18 556.75 1008.2 556.071 1008.41 555.022C1008.62 553.973 1007.94 552.951 1006.89 552.74C1005.84 552.529 1004.82 553.208 1004.61 554.257C1004.4 555.306 1005.08 556.327 1006.13 556.538Z" fill="#BDF3FF"/>
<path opacity="0.5" d="M798.384 573.298C799.433 573.509 800.455 572.83 800.666 571.781C800.877 570.732 800.198 569.711 799.149 569.5C798.1 569.288 797.079 569.968 796.868 571.016C796.656 572.065 797.335 573.087 798.384 573.298Z" fill="#BDF3FF"/>
<path opacity="0.5" d="M820.02 578.369C821.069 578.58 822.091 577.901 822.302 576.852C822.513 575.803 821.834 574.781 820.785 574.57C819.736 574.359 818.715 575.038 818.503 576.087C818.292 577.136 818.971 578.157 820.02 578.369Z" fill="#BDF3FF"/>
<path opacity="0.5" d="M1396.5 812.467C1397.55 812.679 1398.57 811.999 1398.78 810.95C1398.99 809.901 1398.31 808.88 1397.26 808.669C1396.21 808.457 1395.19 809.137 1394.98 810.186C1394.77 811.234 1395.45 812.256 1396.5 812.467Z" fill="#BDF3FF"/>
<path opacity="0.5" d="M1418.13 817.523C1419.18 817.734 1420.2 817.055 1420.41 816.006C1420.62 814.957 1419.94 813.935 1418.9 813.724C1417.85 813.513 1416.82 814.192 1416.61 815.241C1416.4 816.29 1417.08 817.312 1418.13 817.523Z" fill="#BDF3FF"/>
<path opacity="0.5" d="M1432.97 802.843C1434.02 803.054 1435.04 802.375 1435.25 801.326C1435.46 800.277 1434.78 799.256 1433.74 799.045C1432.69 798.833 1431.66 799.512 1431.45 800.561C1431.24 801.61 1431.92 802.632 1432.97 802.843Z" fill="#BDF3FF"/>
<path opacity="0.5" d="M1409.31 750.676C1410.36 750.887 1411.38 750.208 1411.59 749.159C1411.81 748.11 1411.13 747.089 1410.08 746.878C1409.03 746.666 1408.01 747.345 1407.8 748.394C1407.58 749.443 1408.26 750.465 1409.31 750.676Z" fill="#BDF3FF"/>
<path opacity="0.5" d="M1418.72 618.316C1419.77 618.527 1420.79 617.848 1421 616.799C1421.21 615.75 1420.53 614.728 1419.48 614.517C1418.43 614.306 1417.41 614.985 1417.2 616.034C1416.99 617.083 1417.67 618.105 1418.72 618.316Z" fill="#BDF3FF"/>
<path opacity="0.5" d="M1440.34 623.369C1441.39 623.581 1442.41 622.902 1442.62 621.853C1442.83 620.804 1442.15 619.782 1441.11 619.571C1440.06 619.36 1439.03 620.039 1438.82 621.088C1438.61 622.137 1439.29 623.158 1440.34 623.369Z" fill="#BDF3FF"/>
<path opacity="0.5" d="M1431.53 556.538C1432.58 556.75 1433.6 556.071 1433.82 555.022C1434.03 553.973 1433.35 552.951 1432.3 552.74C1431.25 552.529 1430.23 553.208 1430.02 554.257C1429.81 555.306 1430.48 556.327 1431.53 556.538Z" fill="#BDF3FF"/>
<path opacity="0.5" d="M1223.79 573.298C1224.84 573.509 1225.86 572.83 1226.07 571.781C1226.28 570.732 1225.61 569.711 1224.56 569.5C1223.51 569.288 1222.49 569.968 1222.27 571.016C1222.06 572.065 1222.74 573.087 1223.79 573.298Z" fill="#BDF3FF"/>
<path opacity="0.5" d="M1245.43 578.369C1246.48 578.58 1247.5 577.901 1247.71 576.852C1247.92 575.803 1247.24 574.781 1246.19 574.57C1245.14 574.359 1244.12 575.038 1243.91 576.087C1243.7 577.136 1244.38 578.157 1245.43 578.369Z" fill="#BDF3FF"/>
<path d="M423.38 668.114H462.632V816.678H423.38V668.114Z" fill="#294B6B"/>
<path d="M403.73 817.843V703.258H435.876V728.216H470.665V817.843H403.73Z" fill="#1A395C"/>
<path d="M416.968 745.613H410.538V739.183H416.968V745.613Z" fill="#4B92BA"/>
<path d="M449.438 685.344H443.008V678.913H449.438V685.344Z" fill="#4B92BA"/>
<path d="M449.438 697.516H443.008V691.085H449.438V697.516Z" fill="#4B92BA"/>
<path opacity="0.5" d="M416.968 730.751H410.538V724.321H416.968V730.751Z" fill="#4B92BA"/>
<path opacity="0.5" d="M429.806 745.613H423.376V739.183H429.806V745.613Z" fill="#4B92BA"/>
<path opacity="0.5" d="M438.533 685.344H432.103V678.913H438.533V685.344Z" fill="#4B92BA"/>
<path opacity="0.25" d="M429.806 730.751H423.376V724.321H429.806V730.751Z" fill="#4B92BA"/>
<path d="M430.865 668.116V657.087L455.146 632.799V668.116H430.865Z" fill="#294B6B"/>
<path d="M688.367 668.114H727.619V816.678H688.367V668.114Z" fill="#294B6B"/>
<path d="M668.717 817.843V703.258H700.863V728.216H735.652V817.843H668.717Z" fill="#1A395C"/>
<path d="M681.956 745.613H675.525V739.183H681.956V745.613Z" fill="#4B92BA"/>
<path d="M714.426 685.344H707.995V678.913H714.426V685.344Z" fill="#4B92BA"/>
<path d="M714.426 697.516H707.995V691.085H714.426V697.516Z" fill="#4B92BA"/>
<path opacity="0.5" d="M681.956 730.751H675.525V724.321H681.956V730.751Z" fill="#4B92BA"/>
<path opacity="0.5" d="M694.794 745.613H688.363V739.183H694.794V745.613Z" fill="#4B92BA"/>
<path opacity="0.5" d="M703.521 685.344H697.09V678.913H703.521V685.344Z" fill="#4B92BA"/>
<path opacity="0.25" d="M694.794 730.751H688.363V724.321H694.794V730.751Z" fill="#4B92BA"/>
<path d="M695.852 668.116V657.087L720.134 632.799V668.116H695.852Z" fill="#294B6B"/>
<path d="M970.606 668.114H1009.86V816.678H970.606V668.114Z" fill="#294B6B"/>
<path d="M950.956 817.843V703.258H983.102V728.216H1017.89V817.843H950.956Z" fill="#1A395C"/>
<path d="M964.195 745.613H957.765V739.183H964.195V745.613Z" fill="#4B92BA"/>
<path d="M996.664 685.344H990.233V678.913H996.664V685.344Z" fill="#4B92BA"/>
<path d="M996.664 697.516H990.233V691.085H996.664V697.516Z" fill="#4B92BA"/>
<path opacity="0.5" d="M964.195 730.751H957.765V724.321H964.195V730.751Z" fill="#4B92BA"/>
<path opacity="0.5" d="M977.033 745.613H970.603V739.183H977.033V745.613Z" fill="#4B92BA"/>
<path opacity="0.5" d="M985.758 685.344H979.328V678.913H985.758V685.344Z" fill="#4B92BA"/>
<path opacity="0.25" d="M977.033 730.751H970.603V724.321H977.033V730.751Z" fill="#4B92BA"/>
<path d="M978.09 668.116V657.087L1002.37 632.799V668.116H978.09Z" fill="#294B6B"/>
<path d="M1398.86 659.824H1443.8V829.917H1398.86V659.824Z" fill="#294B6B"/>
<path d="M1376.36 831.252V700.061H1413.17V728.635H1453V831.252H1376.36Z" fill="#1A395C"/>
<path d="M1391.52 748.554H1384.16V741.191H1391.52V748.554Z" fill="#4B92BA"/>
<path d="M1428.7 679.55H1421.33V672.187H1428.7V679.55Z" fill="#4B92BA"/>
<path d="M1428.7 693.486H1421.33V686.124H1428.7V693.486Z" fill="#4B92BA"/>
<path opacity="0.5" d="M1391.52 731.538H1384.16V724.176H1391.52V731.538Z" fill="#4B92BA"/>
<path opacity="0.5" d="M1406.22 748.554H1398.86V741.191H1406.22V748.554Z" fill="#4B92BA"/>
<path opacity="0.5" d="M1416.21 679.55H1408.85V672.187H1416.21V679.55Z" fill="#4B92BA"/>
<path opacity="0.25" d="M1406.22 731.538H1398.86V724.176H1406.22V731.538Z" fill="#4B92BA"/>
<path d="M1407.43 659.826V647.199L1435.23 619.391V659.826H1407.43Z" fill="#294B6B"/>
<path d="M123.17 702.096L136.193 692.065L148.566 705.179L129.929 713.611L123.17 702.096Z" fill="#EE9F86"/>
<path d="M132.419 713.857C129.455 711.343 126.008 704.456 124.427 701.184L124.141 700.842L109.302 705.826L127.126 743.717C130.539 750.907 132.753 745.629 133.448 742.325C130.355 735.173 131.349 720.506 132.419 713.857Z" fill="#858E8F"/>
<path d="M176.447 500.945C177.039 498.553 167.693 477.71 162.986 467.593L154.894 470.311L158.915 506.833L176.447 500.945Z" fill="#3A3A39"/>
<path d="M170.625 476.274C170.727 475.364 170.19 474.378 169.938 473.733C168.681 470.508 166.079 467.735 163.056 465.833C143.935 463.209 142.174 478.971 143.881 486.858L154.734 508.449L167.76 504.805L164.607 498.278C165.482 496.234 168.07 496.24 172.675 495.57C177.28 494.899 175.065 491.558 174.813 490.913C174.847 490.61 175.268 489.739 175.655 489.172C175.689 488.869 175.723 488.566 175.403 488.527C175.084 488.488 175.118 488.185 175.152 487.882L175.186 487.579C175.22 487.276 175.287 486.67 175.002 486.328L174.717 485.986C174.431 485.644 174.465 485.341 174.499 485.038L174.886 484.47C175.375 482.994 174.906 481.401 173.377 480.601C172.202 479.537 170.741 478.131 170.625 476.274Z" fill="#EE937E"/>
<path d="M163.13 470.393C164.931 474.622 165.462 481.474 155.647 484.918C154.33 485.067 152.2 486.661 154.104 489.976C156.547 494.282 158.164 497.254 158.511 502.85C158.811 505.971 158.319 507.455 157.964 507.721L146.122 511.845C138.139 496.072 130.043 463.932 160.34 460.492C164.224 460.652 169.895 462.262 169.28 467.742C169.006 470.177 164.85 472.452 163.13 470.393Z" fill="#3A3A39"/>
<path d="M147.906 483.555L157.248 477.108L137.361 480.762C138.85 484.58 144.139 485.827 147.906 483.555Z" fill="#595552"/>
<path d="M180.451 466.673C178.671 462.499 174.54 465.042 171.941 465.336C169.663 459.883 161.808 449.794 147.816 454.49C133.823 459.187 134.281 472.337 136.526 478.09C135.826 478.614 135.025 480.04 136.191 481.095C137.989 482.226 182.446 471.788 180.451 466.673Z" fill="#FEDF00"/>
<path d="M165.194 459.609C165.477 459.947 165.41 460.547 165.06 460.809C164.711 461.071 164.079 460.994 163.796 460.656L165.194 459.609ZM159.921 458.056C159.289 457.98 159.006 457.641 159.073 457.041C159.14 456.441 159.49 456.179 160.122 456.256L159.921 458.056ZM163.796 460.656C163.513 460.317 162.948 459.64 162.349 459.264C161.751 458.887 160.836 458.472 159.921 458.056L160.122 456.256C161.386 456.409 162.584 457.163 163.499 457.578C164.38 458.293 164.945 458.97 165.544 459.347L163.796 460.656Z" fill="white" fill-opacity="0.8"/>
<path d="M54.3846 723.544L67.4076 713.513L79.7804 726.627L61.1442 735.06L54.3846 723.544Z" fill="#EE9F86"/>
<path d="M63.6709 734.997C60.7073 732.482 57.2598 725.596 55.6791 722.324L55.393 721.981L40.5543 726.965L58.3775 764.856C61.7909 772.047 64.0051 766.769 64.7 763.464C61.6068 756.313 62.6014 741.645 63.6709 734.997Z" fill="#858E8F"/>
<path d="M131.263 513.916C131.263 513.916 106.055 536.473 103.682 546.056C101.629 555.678 105.202 561.352 107.827 561.052C110.452 560.752 130.506 561.013 132.799 557.897C135.093 554.781 131.263 513.916 131.263 513.916Z" fill="url(#paint3_linear)"/>
<path d="M127.841 592.92C127.841 592.92 122.224 611.32 138.739 631.165C155.539 651.352 168.841 665.269 168.841 665.269L123.735 695.82L135.978 710.532C135.978 710.532 204.313 688.945 205.118 678.887C205.922 668.829 189.491 628.069 172.806 609.742L127.841 592.92Z" fill="url(#paint4_linear)"/>
<path d="M123.032 600.239C123.032 600.239 113.115 656.93 88.4817 686.284C63.8487 715.639 54.5294 715.129 54.5294 715.129L74.3007 731.99C74.3007 731.99 117.175 710.075 137.752 676.535C158.328 642.995 164.434 605.858 164.434 605.858L123.032 600.239Z" fill="url(#paint5_linear)"/>
<path d="M96.8798 545.665L107.903 579.106L150.608 567.463L140.096 538.06L113.515 546.152L108.503 542.181L96.8798 545.665Z" fill="url(#paint6_linear)"/>
<path d="M129.86 513.715C129.86 513.715 125.664 585.659 114.317 603.096C114.317 603.096 182.746 619.372 186.317 616.412C186.317 616.412 174.412 586.92 180.494 532.776C180.494 532.776 206.591 505.097 211.232 495.483L197.107 485.762C197.141 485.458 169.081 510.434 129.86 513.715Z" fill="url(#paint7_linear)"/>
<path d="M207.529 492.328L198.603 486.049C196.239 484.234 195.626 481.102 197.48 478.881L198.598 477.488C200.451 475.266 203.719 474.745 206.083 476.56L215.009 482.839C217.373 484.654 217.986 487.786 216.133 490.007L215.014 491.4C213.161 493.622 209.893 494.143 207.529 492.328Z" fill="url(#paint8_linear)"/>
<path d="M215.043 484.551C215.043 484.551 223.469 473.197 226.357 456.229C226.357 456.229 231.119 454.329 231.841 447.922C232.563 441.516 230.023 438.118 230.023 438.118C230.023 438.118 229.438 443.304 224.252 446.082C224.252 446.082 221.987 440.243 219.651 443.673C217.315 447.102 218.103 457.401 218.103 457.401L205.005 475.614L215.043 484.551Z" fill="#EE937E"/>
<rect y="770" width="1440" height="139" fill="url(#paint9_linear)"/>
</g>
<defs>
<linearGradient id="paint0_linear" x1="335.847" y1="842.092" x2="320.29" y2="919.354" gradientUnits="userSpaceOnUse">
<stop stop-color="#4295E1"/>
<stop offset="1" stop-color="#3419CC"/>
</linearGradient>
<linearGradient id="paint1_linear" x1="679.325" y1="305.227" x2="1483.2" y2="458.33" gradientUnits="userSpaceOnUse">
<stop stop-color="#132D4C"/>
<stop offset="1" stop-color="#261B58"/>
</linearGradient>
<linearGradient id="paint2_linear" x1="856.642" y1="148.111" x2="958.541" y2="115.919" gradientUnits="userSpaceOnUse">
<stop stop-color="#EBEA6E"/>
<stop offset="1" stop-color="#007187"/>
</linearGradient>
<linearGradient id="paint3_linear" x1="104.792" y1="535.744" x2="135.252" y2="539.167" gradientUnits="userSpaceOnUse">
<stop stop-color="#C4E6EC"/>
<stop offset="1" stop-color="white"/>
</linearGradient>
<linearGradient id="paint4_linear" x1="121.124" y1="650.417" x2="207.431" y2="660.095" gradientUnits="userSpaceOnUse">
<stop stop-color="#0061A5"/>
<stop offset="1" stop-color="#074C7C"/>
</linearGradient>
<linearGradient id="paint5_linear" x1="60.5945" y1="661.53" x2="156.686" y2="672.311" gradientUnits="userSpaceOnUse">
<stop stop-color="#0061A5"/>
<stop offset="1" stop-color="#074C7C"/>
</linearGradient>
<linearGradient id="paint6_linear" x1="95.9346" y1="555.205" x2="151.371" y2="561.405" gradientUnits="userSpaceOnUse">
<stop stop-color="#F48C96"/>
<stop offset="1" stop-color="#F16A94"/>
</linearGradient>
<linearGradient id="paint7_linear" x1="120.987" y1="542.735" x2="204.853" y2="552.155" gradientUnits="userSpaceOnUse">
<stop stop-color="#C4E6EC"/>
<stop offset="1" stop-color="white"/>
</linearGradient>
<linearGradient id="paint8_linear" x1="198.206" y1="478.114" x2="215.194" y2="491.276" gradientUnits="userSpaceOnUse">
<stop stop-color="#C4E6EC"/>
<stop offset="1" stop-color="white"/>
</linearGradient>
<linearGradient id="paint9_linear" x1="633.5" y1="849.429" x2="633.5" y2="770" gradientUnits="userSpaceOnUse">
<stop stop-color="#132E4C"/>
<stop offset="1" stop-color="#1A395C"/>
</linearGradient>
<clipPath id="clip0">
<rect width="1440" height="284.014" fill="white" transform="translate(0 615.999)"/>
</clipPath>
</defs>
</svg>
