<svg width="941" height="774" viewBox="0 0 941 774" fill="none" xmlns="http://www.w3.org/2000/svg">
<mask id="mask0" mask-type="alpha" maskUnits="userSpaceOnUse" x="0" y="0" width="941" height="774">
<rect width="941" height="774" fill="#C4C4C4"/>
</mask>
<g mask="url(#mask0)">
<path opacity="0.4" fill-rule="evenodd" clip-rule="evenodd" d="M490.761 251.905L477.54 247.408L471.316 253.321L486.01 270.665L486.169 270.36L487.776 272.256C489.204 273.942 491.728 274.15 493.413 272.722L522.524 248.059L532.836 268.474L540.102 262.318L540.277 233.019L561.894 214.705C561.985 214.628 561.996 214.491 561.919 214.4C555.714 207.076 544.745 206.169 537.421 212.374L524.21 223.566L509.901 221.27L502.634 227.427L511.757 234.117L490.761 251.905ZM479.052 271.851L481 278C386.506 353.226 180.32 552.135 82.4238 701.685C131.003 609.856 278.339 395.328 479.052 271.851Z" fill="#AAB8F9"/>
<path d="M402.489 684.852C405.407 662.484 391.993 662.47 383.424 665.726C382.646 666.022 381.807 665.345 381.983 664.532C386.397 644.136 393.451 603.774 389.399 590.605C385.5 577.933 369.956 583.938 361.138 589.404C360.408 589.857 359.454 589.264 359.558 588.411C363.435 556.716 367.721 531.641 335.73 529.082C310.168 527.037 307.485 563.927 309.403 583.947C309.47 584.641 308.81 585.184 308.129 585.033C284.512 579.794 286.945 597.779 291.224 607.621C297.769 629.002 308.765 670.191 300.387 663.908C292.171 657.746 286.64 661.153 284.784 663.756C284.713 663.857 284.664 663.976 284.638 664.097C269.074 734.604 326.586 739.83 347.511 739.83C368.455 739.83 398.562 714.959 402.489 684.852Z" fill="#1157B6"/>
<path d="M335.729 557.88C337.618 608.897 337.474 727.613 335.728 785.645L347.509 788.263C343.582 673.071 334.42 522.537 335.729 557.88Z" fill="#3A6ECB"/>
<path d="M344.893 726.74C357.547 718.014 384.163 696.633 389.399 680.925" stroke="#801336" stroke-linecap="round"/>
<path d="M338.35 714.96C327.929 707.979 306.01 690.875 301.698 678.308" stroke="#801336" stroke-linecap="round"/>
<path d="M340.968 644.274C352.877 636.296 377.928 616.748 382.856 602.386" stroke="#3A6ECB" stroke-linecap="round"/>
<path d="M340.968 662.6C333.525 657.614 304.778 610.053 301.698 601.077" stroke="#3A6ECB" stroke-linecap="round"/>
<path d="M375.033 673.072C374.596 681.798 378.436 697.943 397.286 692.707" stroke="#801336" stroke-width="0.5" stroke-linecap="round"/>
<path d="M356.707 691.398C356.271 700.125 360.111 716.269 378.96 711.033" stroke="#801336" stroke-width="0.5" stroke-linecap="round"/>
<path d="M359.326 605.003C358.889 613.73 362.729 629.874 381.579 624.638" stroke="#3A6ECB" stroke-width="0.5" stroke-linecap="round"/>
<path d="M325.232 623.33C325.591 629.966 322.434 642.242 306.933 638.261" stroke="#3A6ECB" stroke-width="0.5" stroke-linecap="round"/>
<path d="M319.996 680.925C320.355 687.561 317.197 699.837 301.696 695.856" stroke="#801336" stroke-width="0.5" stroke-linecap="round"/>
<g clip-path="url(#clip0)">
<path d="M234.676 262.175H124.766V706.185H234.676V262.175Z" fill="#6D5AFF"/>
<path d="M139.851 265.405H136.622V734.204H139.851V265.405Z" fill="#C2CDFF"/>
<path d="M154.936 265.405H151.707V734.204H154.936V265.405Z" fill="#C2CDFF"/>
<path d="M171.094 265.405H167.865V734.204H171.094V265.405Z" fill="#C2CDFF"/>
<path d="M186.179 265.405H182.95V734.204H186.179V265.405Z" fill="#C2CDFF"/>
<path d="M202.349 265.405H199.12V734.204H202.349V265.405Z" fill="#C2CDFF"/>
<path d="M217.434 265.405H214.205V734.204H217.434V265.405Z" fill="#C2CDFF"/>
<path d="M232.519 265.405H229.29V734.204H232.519V265.405Z" fill="#C2CDFF"/>
<path d="M215.23 252.832V228.066H217.065V224.396H198.75V210.642H191.386V206.972H187.252V202.383H191.386V195.507H185.429V189.083H183.129V178.536H181.759V160.194H177.624V178.536H176.254V189.083H173.966V195.507H168.008V202.383H172.143V206.972H167.996V210.642H160.62V224.396H142.33V228.066H144.153V252.832H112.517V260.161H118.475V734.347H240.908V260.161H246.866V252.832H215.23ZM138.195 676.986H128.115V666.892H138.195V676.986ZM138.195 663.233H128.115V653.151H138.195V663.233ZM138.195 649.468H128.115V639.386H138.195V649.468ZM138.195 635.715H128.115V625.621H138.195V635.715ZM138.195 621.962H128.115V611.867H138.195V621.962ZM138.195 608.197H128.115V598.114H138.195V608.197ZM138.195 594.444H128.115V584.385H138.195V594.444ZM138.195 580.679H128.115V570.596H138.195V580.679ZM138.195 566.925H128.115V556.831H138.195V566.925ZM138.195 553.172H128.115V543.078H138.195V553.172ZM138.195 539.407H128.115V529.325H138.195V539.407ZM138.195 525.654H128.115V515.56H138.195V525.654ZM138.195 511.901H128.115V501.795H138.195V511.901ZM138.195 498.136H128.115V488.041H138.195V498.136ZM138.195 484.383H128.115V474.384H138.195V484.383ZM138.195 470.618H128.115V460.535H138.195V470.618ZM138.195 456.864H128.115V446.77H138.195V456.864ZM138.195 443.111H128.115V433.017H138.195V443.111ZM138.195 429.346H128.115V419.264H138.195V429.346ZM138.195 415.593H128.115V405.499H138.195V415.593ZM138.195 401.84H128.115V391.746H138.195V401.84ZM138.195 388.075H128.115V377.992H138.195V388.075ZM138.195 374.322H128.115V364.263H138.195V374.322ZM138.195 360.557H128.115V350.474H138.195V360.557ZM138.195 346.803H128.115V336.709H138.195V346.803ZM138.195 333.038H128.115V323.027H138.195V333.038ZM138.195 319.285H128.115V309.203H138.195V319.285ZM138.195 305.532H128.115V295.438H138.195V305.532ZM138.195 291.767H128.115V281.685H138.195V291.767ZM138.195 278.014H128.115V267.919H138.195V278.014ZM153.793 676.986H143.7V666.904H153.793V676.986ZM153.793 663.233H143.7V653.151H153.793V663.233ZM153.793 649.48H143.7V639.386H153.793V649.48ZM153.793 635.715H143.7V625.633H153.793V635.715ZM153.793 621.962H143.7V611.867H153.793V621.962ZM153.793 608.197H143.7V598.114H153.793V608.197ZM153.793 594.444H143.7V584.361H153.793V594.444ZM153.793 580.69H143.7V570.596H153.793V580.69ZM153.793 566.925H143.7V556.843H153.793V566.925ZM153.793 553.172H143.7V543.078H153.793V553.172ZM153.793 539.407H143.7V529.325H153.793V539.407ZM153.793 525.654H143.7V515.56H153.793V525.654ZM153.793 511.901H143.7V501.795H153.793V511.901ZM153.793 498.136H143.7V488.041H153.793V498.136ZM153.793 484.383H143.7V474.384H153.793V484.383ZM153.793 470.618H143.7V460.535H153.793V470.618ZM153.793 456.864H143.7V446.77H153.793V456.864ZM153.793 443.111H143.7V433.017H153.793V443.111ZM153.793 429.358H143.7V419.264H153.793V429.358ZM153.793 415.593H143.7V405.511H153.793V415.593ZM153.793 401.84H143.7V391.746H153.793V401.84ZM153.793 388.075H143.7V377.992H153.793V388.075ZM153.793 374.322H143.7V364.263H153.793V374.322ZM153.793 360.557H143.7V350.474H153.793V360.557ZM153.793 346.803H143.7V336.709H153.793V346.803ZM153.793 333.038H143.7V323.027H153.793V333.038ZM153.793 319.285H143.7V309.203H153.793V319.285ZM153.793 305.532H143.7V295.438H153.793V305.532ZM153.793 291.767H143.7V281.685H153.793V291.767ZM153.793 278.014H143.7V267.919H153.793V278.014ZM169.378 676.986H159.286V666.904H169.378V676.986ZM169.378 663.233H159.286V653.151H169.378V663.233ZM169.378 649.48H159.286V639.386H169.378V649.48ZM169.378 635.715H159.286V625.633H169.378V635.715ZM169.378 621.962H159.286V611.867H169.378V621.962ZM169.378 608.197H159.286V598.114H169.378V608.197ZM169.378 594.444H159.286V584.361H169.378V594.444ZM169.378 580.69H159.286V570.596H169.378V580.69ZM169.378 566.925H159.286V556.843H169.378V566.925ZM169.378 553.172H159.286V543.078H169.378V553.172ZM169.378 539.407H159.286V529.325H169.378V539.407ZM169.378 525.654H159.286V515.572H169.378V525.654ZM169.378 511.901H159.286V501.795H169.378V511.901ZM169.378 498.136H159.286V488.089H169.378V498.136ZM169.378 484.383H159.286V474.384H169.378V484.383ZM169.378 470.618H159.286V460.535H169.378V470.618ZM169.378 456.864H159.286V446.77H169.378V456.864ZM169.378 443.111H159.286V433.017H169.378V443.111ZM169.378 429.358H159.286V419.264H169.378V429.358ZM169.378 415.593H159.286V405.511H169.378V415.593ZM169.378 401.84H159.286V391.746H169.378V401.84ZM169.378 388.075H159.286V377.992H169.378V388.075ZM169.378 374.322H159.286V364.263H169.378V374.322ZM169.378 360.569H159.286V350.474H169.378V360.569ZM169.378 346.803H159.286V336.709H169.378V346.803ZM169.378 333.05H159.286V323.027H169.378V333.05ZM169.378 319.285H159.286V309.203H169.378V319.285ZM169.378 305.532H159.286V295.438H169.378V305.532ZM169.378 291.779H159.286V281.685H169.378V291.779ZM169.378 278.014H159.286V267.967H169.378V278.014ZM184.964 676.986H174.919V666.904H185.012L184.964 676.986ZM184.964 663.233H174.919V653.151H185.012L184.964 663.233ZM184.964 649.48H174.919V639.386H185.012L184.964 649.48ZM184.964 635.715H174.919V625.633H185.012L184.964 635.715ZM184.964 621.962H174.919V611.867H185.012L184.964 621.962ZM184.964 608.197H174.919V598.114H185.012L184.964 608.197ZM184.964 594.444H174.919V584.361H185.012L184.964 594.444ZM184.964 580.69H174.919V570.596H185.012L184.964 580.69ZM184.964 566.925H174.919V556.843H185.012L184.964 566.925ZM184.964 553.172H174.919V543.078H185.012L184.964 553.172ZM184.964 539.407H174.919V529.325H185.012L184.964 539.407ZM184.964 525.654H174.919V515.572H185.012L184.964 525.654ZM184.964 511.901H174.919V501.795H185.012L184.964 511.901ZM184.964 498.136H174.919V488.089H185.012L184.964 498.136ZM184.964 484.383H174.919V474.384H185.012L184.964 484.383ZM184.964 470.618H174.919V460.535H185.012L184.964 470.618ZM184.964 456.864H174.919V446.77H185.012L184.964 456.864ZM184.964 443.111H174.919V433.017H185.012L184.964 443.111ZM184.964 429.358H174.919V419.264H185.012L184.964 429.358ZM184.964 415.593H174.919V405.511H185.012L184.964 415.593ZM184.964 401.84H174.919V391.746H185.012L184.964 401.84ZM184.964 388.075H174.919V377.992H185.012L184.964 388.075ZM184.964 374.322H174.919V364.263H185.012L184.964 374.322ZM184.964 360.569H174.919V350.474H185.012L184.964 360.569ZM184.964 346.803H174.919V336.709H185.012L184.964 346.803ZM184.964 333.05H174.919V323.027H185.012L184.964 333.05ZM184.964 319.285H174.919V309.203H185.012L184.964 319.285ZM184.964 305.532H174.919V295.438H185.012L184.964 305.532ZM184.964 291.779H174.919V281.685H185.012L184.964 291.779ZM184.964 278.014H174.919V267.967H185.012L184.964 278.014ZM200.55 676.986H190.469V666.904H200.55V676.986ZM200.55 663.233H190.469V653.151H200.55V663.233ZM200.55 649.48H190.469V639.386H200.55V649.48ZM200.55 635.715H190.469V625.633H200.55V635.715ZM200.55 621.962H190.469V611.867H200.55V621.962ZM200.55 608.197H190.469V598.114H200.55V608.197ZM200.55 594.444H190.469V584.361H200.55V594.444ZM200.55 580.679H190.469V570.596H200.55V580.679ZM200.55 566.925H190.469V556.843H200.55V566.925ZM200.55 553.172H190.469V543.078H200.55V553.172ZM200.55 539.407H190.469V529.325H200.55V539.407ZM200.55 525.654H190.469V515.572H200.55V525.654ZM200.55 511.901H190.469V501.795H200.55V511.901ZM200.55 498.136H190.469V488.089H200.55V498.136ZM200.55 484.383H190.469V474.384H200.55V484.383ZM200.55 470.618H190.469V460.535H200.55V470.618ZM200.55 456.864H190.469V446.77H200.55V456.864ZM200.55 443.111H190.469V433.017H200.55V443.111ZM200.55 429.358H190.469V419.264H200.55V429.358ZM200.55 415.593H190.469V405.511H200.55V415.593ZM200.55 401.84H190.469V391.746H200.55V401.84ZM200.55 388.075H190.469V377.992H200.55V388.075ZM200.55 374.322H190.469V364.263H200.55V374.322ZM200.55 360.557H190.469V350.474H200.55V360.557ZM200.55 346.803H190.469V336.709H200.55V346.803ZM200.55 333.05H190.469V323.027H200.55V333.05ZM200.55 319.285H190.469V309.203H200.55V319.285ZM200.55 305.532H190.469V295.438H200.55V305.532ZM200.55 291.779H190.469V281.685H200.55V291.779ZM200.55 278.014H190.469V267.967H200.55V278.014ZM216.147 676.986H206.055V666.904H216.147V676.986ZM216.147 663.233H206.055V653.151H216.147V663.233ZM216.147 649.48H206.055V639.386H216.147V649.48ZM216.147 635.715H206.055V625.633H216.147V635.715ZM216.147 621.962H206.055V611.867H216.147V621.962ZM216.147 608.197H206.055V598.114H216.147V608.197ZM216.147 594.444H206.055V584.361H216.147V594.444ZM216.147 580.69H206.055V570.596H216.147V580.69ZM216.147 566.925H206.055V556.843H216.147V566.925ZM216.147 553.172H206.055V543.078H216.147V553.172ZM216.147 539.407H206.055V529.325H216.147V539.407ZM216.147 525.654H206.055V515.572H216.147V525.654ZM216.147 511.901H206.055V501.795H216.147V511.901ZM216.147 498.136H206.055V488.089H216.147V498.136ZM216.147 484.383H206.055V474.384H216.147V484.383ZM216.147 470.618H206.055V460.535H216.147V470.618ZM216.147 456.864H206.055V446.77H216.147V456.864ZM216.147 443.111H206.055V433.017H216.147V443.111ZM216.147 429.358H206.055V419.264H216.147V429.358ZM216.147 415.593H206.055V405.511H216.147V415.593ZM216.147 401.84H206.055V391.746H216.147V401.84ZM216.147 388.075H206.055V377.992H216.147V388.075ZM216.147 374.322H206.055V364.263H216.147V374.322ZM216.147 360.569H206.055V350.474H216.147V360.569ZM216.147 346.803H206.055V336.709H216.147V346.803ZM216.147 333.05H206.055V323.027H216.147V333.05ZM216.147 319.285H206.055V309.203H216.147V319.285ZM216.147 305.532H206.055V295.438H216.147V305.532ZM216.147 291.779H206.055V281.685H216.147V291.779ZM216.147 278.014H206.055V267.967H216.147V278.014ZM231.733 676.986H221.64V666.904H231.733V676.986ZM231.733 663.233H221.64V653.151H231.733V663.233ZM231.733 649.48H221.64V639.386H231.733V649.48ZM231.733 635.715H221.64V625.633H231.733V635.715ZM231.733 621.962H221.64V611.867H231.733V621.962ZM231.733 608.197H221.64V598.114H231.733V608.197ZM231.733 594.444H221.64V584.361H231.733V594.444ZM231.733 580.69H221.64V570.596H231.733V580.69ZM231.733 566.925H221.64V556.843H231.733V566.925ZM231.733 553.172H221.64V543.078H231.733V553.172ZM231.733 539.407H221.64V529.325H231.733V539.407ZM231.733 525.654H221.64V515.572H231.733V525.654ZM231.733 511.901H221.64V501.795H231.733V511.901ZM231.733 498.136H221.64V488.089H231.733V498.136ZM231.733 484.383H221.64V474.384H231.733V484.383ZM231.733 470.618H221.64V460.535H231.733V470.618ZM231.733 456.864H221.64V446.77H231.733V456.864ZM231.733 443.111H221.64V433.017H231.733V443.111ZM231.733 429.358H221.64V419.264H231.733V429.358ZM231.733 415.593H221.64V405.511H231.733V415.593ZM231.733 401.84H221.64V391.746H231.733V401.84ZM231.733 388.075H221.64V377.992H231.733V388.075ZM231.733 374.322H221.64V364.263H231.733V374.322ZM231.733 360.569H221.64V350.474H231.733V360.569ZM231.733 346.803H221.64V336.709H231.733V346.803ZM231.733 333.05H221.64V323.027H231.733V333.05ZM231.733 319.285H221.64V309.203H231.733V319.285ZM231.733 305.532H221.64V295.438H231.733V305.532ZM231.733 291.779H221.64V281.685H231.733V291.779ZM231.733 278.014H221.64V267.967H231.733V278.014Z" fill="#95A1F7"/>
<path d="M247.605 252.474H112.91V256.24H247.605V252.474Z" fill="#BDC1FF"/>
<path d="M247.605 256.24H112.91V260.006H247.605V256.24Z" fill="#6C61EE"/>
<path d="M217.434 224.455H142.009V226.612H217.434V224.455Z" fill="#BDC1FF"/>
<path d="M217.434 226.612H142.009V228.769H217.434V226.612Z" fill="#6C61EE"/>
<path d="M339.069 281.899C337.4 283.472 333.957 287.691 333.564 291.898C334.064 284.354 334.755 267.884 333.564 262.402C330.499 265.341 328.464 269.19 327.761 273.378C328.201 267.192 328.583 257.599 327.546 253.988C326.598 254.743 325.833 255.704 325.311 256.798C324.789 257.893 324.522 259.091 324.531 260.304L323.03 250.77H317.513V244.978H314.51V237.076H306.992V220.808H301.975V215.541H298.972V212.907H296.458V165.498H299.461V159.753H296.458L294.445 104.455H296.458V95.9812H294.445L291.954 64.411H294.456V56.4856H291.954L289.309 39.3836L288.94 37V734.287H324.031C317.18 671.79 304.585 515.202 308.994 388.802H316.012V381.961H312.008V378.266H316.012V372.999H312.008V369.841H314.51V355.623C322.696 344.217 339.069 320.441 339.069 316.651C339.069 315.46 339.164 313.243 339.283 310.395C339.629 301.695 340.201 287.453 339.069 281.899ZM285.865 56.4856H283.351V64.411H285.925L283.351 95.9812H281.302V104.407H283.351L281.242 159.753H278.156V165.545H281.242V212.907H278.668V215.541H275.582V220.808H270.446V237.124H262.737V245.025H259.663V250.817H254.003L252.466 260.352C252.471 259.132 252.195 257.928 251.66 256.833C251.125 255.738 250.345 254.78 249.38 254.035C248.319 257.611 248.7 267.24 249.165 273.425C248.42 269.218 246.329 265.366 243.207 262.449C242.016 267.931 242.695 284.402 243.207 291.946C242.79 287.739 239.263 283.52 237.547 281.947C236.356 287.5 236.987 301.742 237.345 310.442C237.464 313.291 237.547 315.531 237.547 316.699C237.547 320.489 254.337 344.265 262.725 355.67V369.888H265.299V373.046H261.188V378.314H265.299V382.009H261.188V388.849H268.337C272.853 515.25 259.996 671.838 252.919 734.335H288.88V37L285.865 56.4856Z" fill="#8292F4"/>
<path d="M339.283 310.395C339.164 313.243 339.068 315.484 339.068 316.651C339.068 320.441 322.696 344.217 314.51 355.623V369.841H312.008V372.999H316.012V378.267H312.008V381.961H316.012V388.802H308.993C304.585 515.202 317.179 671.79 324.031 734.287H289.309V39.3837L291.954 56.4857H294.456V64.4111H291.954L294.456 96.0052H296.458V104.431H294.444L296.458 159.754H299.461V165.546H296.458V212.907H298.96V215.541H301.963V220.808H306.98V237.124H314.498V245.025H317.501V250.818H323.018L324.519 260.352C324.51 259.139 324.777 257.94 325.299 256.846C325.821 255.752 326.586 254.791 327.534 254.035C328.571 257.611 328.189 267.24 327.749 273.426C328.452 269.238 330.487 265.388 333.552 262.449C334.743 267.931 334.052 284.402 333.552 291.946C333.945 287.739 337.388 283.52 339.057 281.947C340.2 287.453 339.628 301.695 339.283 310.395Z" fill="#ABB2FF"/>
<path d="M258.328 300.264V319.452H244.03V300.264C244.03 295.962 246.913 292.422 250.583 292.065H251.179C252.143 292.073 253.095 292.29 253.967 292.701C254.839 293.113 255.612 293.709 256.231 294.448C257.608 296.071 258.353 298.136 258.328 300.264V300.264Z" fill="#C2CDFF"/>
<path d="M257.137 300.264V319.452H244.03V300.264C244.03 295.962 246.913 292.422 250.583 292.065C252.321 292.254 253.918 293.108 255.04 294.448C256.417 296.071 257.161 298.136 257.137 300.264V300.264Z" fill="#6D5AFF"/>
<path d="M277.393 300.264V319.452H263.095V300.264C263.095 295.962 265.978 292.422 269.648 292.065H270.244C271.209 292.073 272.16 292.29 273.032 292.701C273.904 293.113 274.677 293.709 275.296 294.448C276.673 296.071 277.418 298.136 277.393 300.264V300.264Z" fill="#C2CDFF"/>
<path d="M276.202 300.264V319.452H263.095V300.264C263.095 295.962 265.978 292.422 269.648 292.065C271.386 292.254 272.983 293.108 274.105 294.448C275.482 296.071 276.226 298.136 276.202 300.264Z" fill="#6D5AFF"/>
<path d="M315.524 300.264V319.452H301.225V300.264C301.225 295.962 304.108 292.422 307.778 292.065H308.374C309.339 292.073 310.29 292.29 311.162 292.701C312.035 293.113 312.807 293.709 313.426 294.448C314.803 296.071 315.548 298.136 315.524 300.264V300.264Z" fill="#C2CDFF"/>
<path d="M314.332 300.264V319.452H301.225V300.264C301.225 295.962 304.108 292.422 307.778 292.065C309.516 292.254 311.113 293.108 312.235 294.448C313.612 296.071 314.356 298.136 314.332 300.264Z" fill="#6D5AFF"/>
<path d="M333.397 300.264V319.452H319.098V300.264C319.098 295.962 321.981 292.422 325.652 292.065H326.247C327.212 292.073 328.163 292.29 329.035 292.701C329.908 293.113 330.68 293.709 331.3 294.448C332.676 296.071 333.421 298.136 333.397 300.264V300.264Z" fill="#C2CDFF"/>
<path d="M332.205 300.264V319.452H319.098V300.264C319.098 295.962 321.981 292.422 325.651 292.065C327.389 292.254 328.986 293.108 330.108 294.448C331.485 296.071 332.23 298.136 332.205 300.264Z" fill="#6D5AFF"/>
<path d="M296.459 300.264V319.452H282.16V300.264C282.16 295.962 285.043 292.422 288.713 292.065H289.309C290.274 292.073 291.225 292.29 292.097 292.701C292.969 293.113 293.742 293.709 294.361 294.448C295.738 296.071 296.483 298.136 296.459 300.264V300.264Z" fill="#6D5AFF"/>
<path d="M266.514 273.092V287.274H255.945V273.092C255.867 271.662 256.319 270.255 257.213 269.138C258.108 268.021 259.383 267.273 260.795 267.037H261.224C261.94 267.045 262.646 267.209 263.292 267.518C263.938 267.827 264.509 268.273 264.965 268.825C265.977 270.015 266.527 271.53 266.514 273.092Z" fill="#C2CDFF"/>
<path d="M265.633 273.092V287.274H255.945V273.092C255.867 271.662 256.319 270.255 257.213 269.138C258.108 268.021 259.383 267.273 260.795 267.037C262.079 267.173 263.26 267.806 264.084 268.801C265.105 269.995 265.656 271.52 265.633 273.092V273.092Z" fill="#6D5AFF"/>
<path d="M280.61 273.092V287.274H270.041V273.092C269.96 271.664 270.409 270.256 271.302 269.139C272.195 268.021 273.469 267.273 274.879 267.037H275.32C276.035 267.044 276.739 267.208 277.383 267.517C278.028 267.826 278.596 268.272 279.05 268.825C280.069 270.011 280.624 271.527 280.61 273.092V273.092Z" fill="#C2CDFF"/>
<path d="M279.776 273.092V287.274H270.089V273.092C270.008 271.664 270.457 270.256 271.349 269.139C272.242 268.021 273.516 267.273 274.927 267.037C276.215 267.17 277.4 267.804 278.227 268.801C279.244 269.998 279.794 271.521 279.776 273.092V273.092Z" fill="#6D5AFF"/>
<path d="M308.791 273.092V287.274H298.222V273.092C298.143 271.664 298.593 270.258 299.486 269.141C300.378 268.024 301.65 267.275 303.06 267.037H303.501C304.217 267.045 304.923 267.209 305.569 267.518C306.215 267.827 306.786 268.273 307.242 268.825C308.254 270.015 308.804 271.53 308.791 273.092Z" fill="#C2CDFF"/>
<path d="M307.909 273.092V287.274H298.222V273.092C298.143 271.664 298.593 270.258 299.486 269.141C300.378 268.024 301.65 267.275 303.06 267.037C304.348 267.17 305.534 267.804 306.36 268.801C307.377 269.998 307.927 271.521 307.909 273.092V273.092Z" fill="#6D5AFF"/>
<path d="M321.994 273.092V287.274H311.437V273.092C311.355 271.664 311.804 270.256 312.697 269.139C313.59 268.021 314.864 267.273 316.274 267.037H316.715C317.43 267.044 318.134 267.208 318.778 267.517C319.423 267.826 319.992 268.272 320.445 268.825C321.461 270.012 322.012 271.529 321.994 273.092V273.092Z" fill="#C2CDFF"/>
<path d="M321.124 273.092V287.274H311.437V273.092C311.355 271.664 311.804 270.256 312.697 269.139C313.59 268.021 314.864 267.273 316.274 267.037C317.56 267.168 318.743 267.802 319.563 268.801C320.588 269.994 321.143 271.519 321.124 273.092V273.092Z" fill="#6D5AFF"/>
<path d="M294.695 273.092V287.274H284.126V273.092C284.047 271.661 284.498 270.252 285.393 269.133C286.288 268.014 287.563 267.264 288.976 267.026H289.416C290.129 267.035 290.832 267.199 291.475 267.505C292.119 267.812 292.689 268.254 293.146 268.801C294.162 269.998 294.712 271.522 294.695 273.092V273.092Z" fill="#6D5AFF"/>
<path d="M276.464 253.904V262.247H270.244V253.904C270.194 253.062 270.457 252.231 270.983 251.571C271.508 250.911 272.259 250.468 273.091 250.329H273.354C273.774 250.333 274.187 250.428 274.566 250.61C274.945 250.791 275.28 251.053 275.546 251.378C276.15 252.079 276.477 252.978 276.464 253.904V253.904Z" fill="#C2CDFF"/>
<path d="M275.939 253.904V262.247H270.244V253.904C270.194 253.062 270.457 252.231 270.983 251.571C271.508 250.911 272.259 250.468 273.091 250.329C273.849 250.408 274.546 250.78 275.034 251.366C275.632 252.075 275.953 252.976 275.939 253.904Z" fill="#6D5AFF"/>
<path d="M284.745 253.904V262.247H278.585V253.904C278.535 253.062 278.798 252.231 279.324 251.571C279.85 250.911 280.601 250.468 281.433 250.329H281.695C282.115 250.333 282.529 250.428 282.907 250.61C283.286 250.791 283.621 251.053 283.887 251.378C284.465 252.09 284.77 252.987 284.745 253.904V253.904Z" fill="#C2CDFF"/>
<path d="M284.233 253.904V262.247H278.585V253.904C278.535 253.062 278.798 252.231 279.324 251.571C279.85 250.911 280.601 250.468 281.433 250.329C282.186 250.411 282.879 250.782 283.363 251.366C283.953 252.077 284.262 252.98 284.233 253.904Z" fill="#6D5AFF"/>
<path d="M301.332 253.904V262.247H295.112V253.904C295.062 253.062 295.325 252.231 295.851 251.571C296.377 250.911 297.128 250.468 297.96 250.329H298.222C298.642 250.333 299.056 250.428 299.435 250.61C299.813 250.791 300.148 251.053 300.415 251.378C301.019 252.079 301.345 252.978 301.332 253.904Z" fill="#C2CDFF"/>
<path d="M300.808 253.904V262.247H295.112V253.904C295.062 253.062 295.325 252.231 295.851 251.571C296.377 250.911 297.128 250.468 297.96 250.329C298.718 250.408 299.415 250.78 299.902 251.366C300.5 252.075 300.822 252.976 300.808 253.904V253.904Z" fill="#6D5AFF"/>
<path d="M309.101 253.904V262.247H302.881V253.904C302.831 253.062 303.094 252.231 303.62 251.571C304.146 250.911 304.897 250.468 305.729 250.329H305.991C306.411 250.333 306.825 250.428 307.204 250.61C307.582 250.791 307.917 251.053 308.183 251.378C308.788 252.079 309.114 252.978 309.101 253.904V253.904Z" fill="#C2CDFF"/>
<path d="M308.577 253.904V262.247H302.881V253.904C302.831 253.062 303.094 252.231 303.62 251.571C304.146 250.911 304.897 250.468 305.729 250.329C306.487 250.408 307.184 250.78 307.671 251.366C308.269 252.075 308.59 252.976 308.577 253.904V253.904Z" fill="#6D5AFF"/>
<path d="M293.039 253.904V262.247H286.819V253.904C286.771 253.062 287.036 252.233 287.561 251.573C288.086 250.914 288.836 250.471 289.666 250.329H289.929C290.35 250.332 290.766 250.428 291.147 250.609C291.527 250.791 291.864 251.053 292.133 251.378C292.728 252.084 293.05 252.98 293.039 253.904V253.904Z" fill="#6D5AFF"/>
<path d="M240.455 321.835H336.972C337.604 321.835 338.21 322.087 338.657 322.534C339.104 322.981 339.355 323.587 339.355 324.219H238.072C238.072 323.587 238.323 322.981 238.77 322.534C239.217 322.087 239.823 321.835 240.455 321.835Z" fill="#BDC1FF"/>
<path d="M238.072 324.219H339.355C339.355 324.851 339.104 325.458 338.657 325.905C338.21 326.352 337.604 326.603 336.972 326.603H240.455C239.823 326.603 239.217 326.352 238.77 325.905C238.323 325.458 238.072 324.851 238.072 324.219Z" fill="#6C61EE"/>
<path d="M300.033 159.753H277.393V165.712H300.033V159.753Z" fill="#CFD4F4"/>
<path d="M307.182 220.534H270.244V237.219H307.182V220.534Z" fill="#CFD4F4"/>
<path d="M312.008 378.266V381.961H316.012V388.575H261.2V381.961H265.311V378.266H261.2V373.082H316.012V378.266H312.008Z" fill="#CFD4F4"/>
<path d="M229.838 412.328V404.152H198.75V412.328H208.569V423.769H202.027V431.956H208.569V729.747H221.676V431.956H226.585V423.769H221.652V412.328H229.838ZM710.777 415.605V407.417H679.689V415.605H689.519V427.058H682.966V435.234H689.519V702.753H674.66V676.533H661.708V493.595H666.605V487.016H661.708V477.804H669.882V471.225H638.794V477.804H648.625V487.016H642.071V493.595H648.625V676.569H623.757L631.049 545.307L634.874 545.521L635.172 540.384L631.287 540.17L631.693 533.019L638.067 533.377L638.353 528.252L614.165 526.822L613.879 531.947L621.529 532.376L621.123 539.526L616.024 539.252L615.749 544.377L620.849 544.663L614.749 654.402H582.719C583.268 623.869 579.443 559.346 559.746 545.604C540.05 531.863 531.84 524.069 530.195 521.876V507.229H517.088V494.12H531.875V479.413H503.921V463.92H510.487L489.146 433.649L481.758 361.653V589.033H490.755V608.662L535.748 653.663H548.009V668.394H541.468V719.116H556.219V733H710.777V702.729H702.602V435.234H707.547V427.058H702.65V415.605H710.777ZM481.687 360.652L474.43 432.278L453.232 462.68H459.703V478.293H432.046V493.083H446.715V506.192H433.679V520.982C432.046 523.163 423.896 531.005 404.331 544.818C384.765 558.631 380.964 623.475 381.512 654.104H344.836V676.295H294.898L300.45 576.329L303.596 576.507L303.834 572.288L300.689 572.122L301.01 566.163L306.253 566.461L306.48 562.242L286.592 561.133L286.354 565.352L292.634 565.698L292.312 571.657L288.118 571.418L287.891 575.637L292.074 575.864L285.031 702.586H261.093L254.051 575.864L258.245 575.637L258.007 571.418L253.824 571.657L253.503 565.698L259.782 565.352L259.544 561.133L239.645 562.242L239.883 566.461L245.114 566.163L245.448 572.122L242.302 572.288L242.54 576.507L245.686 576.329L254.206 729.615H254.373V733H411.42V719.116H425.314V668.394H417.14V653.663H431.868L476.849 608.662V589.033H481.758V359.973L481.687 360.652Z" fill="#AAB8F9"/>
<path d="M702.602 415.605V427.058H707.547V435.234H702.65V702.753H710.824V733H556.219V719.116H541.467V668.394H548.009V653.663H535.748L490.754 608.662V589.033H481.687V360.652L481.758 359.973V361.605L489.146 433.601L510.487 463.872H503.921V479.365H531.839V494.084H517.052V507.193H530.159V521.912C531.804 524.105 540.002 531.899 559.71 545.64C579.419 559.381 583.232 623.904 582.683 654.438H614.713L620.849 544.699L615.749 544.413L616.023 539.288L621.123 539.562L621.528 532.411L613.879 531.982L614.165 526.858L638.437 528.216L638.151 533.341L631.776 532.983L631.371 540.134L635.207 540.349L634.91 545.485L631.085 545.271L623.792 676.533H648.66V493.595H642.107V487.016H648.66V477.804H638.794V471.225H669.882V477.804H661.708V487.016H666.605V493.595H661.708V676.569H674.66V702.788H689.519V435.234H682.965V427.058H689.519V415.605H679.688V407.417H710.776V415.605H702.602Z" fill="#95A1F3"/>
<g opacity="0.33">
<path opacity="0.33" d="M532.149 478.71H432.225V494.537H532.149V478.71Z" fill="#9CA2FF"/>
<path opacity="0.33" d="M530.159 506.419H433.214V523.235H530.159V506.419Z" fill="#9CA2FF"/>
</g>
<path opacity="0.28" d="M425.29 702.335H252.168V719.151H425.29V702.335Z" fill="#CFD4F4"/>
<path opacity="0.28" d="M411.444 719.151H252.168V733H411.444V719.151Z" fill="#ABB2FF"/>
<path d="M961.35 759.219H114.15V820H961.35V759.219Z" fill="#EEEDFF"/>
<path d="M961.35 728.233H114.15V740.151H961.35V728.233Z" fill="#6A5DFF"/>
<path d="M961.35 740.151H114.15V752.068H961.35V740.151Z" fill="#837DF7"/>
<path d="M954.201 747.301H107V759.219H954.201V747.301Z" fill="#ACB3FB"/>
<path d="M1046.43 639.648C1045.44 639.159 1043.57 647.609 1042.75 651.899H1050.1C1049.29 648.014 1047.4 640.136 1046.43 639.648ZM1094.19 657.393C1093.21 656.893 1091.33 665.355 1090.52 669.633H1097.86C1097.06 665.76 1095.17 657.918 1094.19 657.393V657.393ZM1126.04 669.645C1125.01 664.735 1122.12 655.058 1118.68 655.558C1115.25 656.059 1113.18 665.152 1112.56 669.645H1100.31C1099.5 664.949 1097.19 655.534 1094.19 655.534C1091.18 655.534 1088.88 664.925 1088.06 669.621H1078.27V651.875H1073.98C1073.17 646.572 1070.91 635.953 1068.47 635.953C1066.03 635.953 1063.37 646.572 1062.35 651.875H1052.54C1051.35 646.572 1047.29 635.953 1045.81 635.953C1044.33 635.953 1041.53 646.572 1040.3 651.875H1028.66V662.899H1007.82V657.393H1012.72V651.875H1007.82V641.471H1012.72V635.953H1007.82V629.828H1012.72V619.411H1007.82V613.905H1012.72V609.055H1007.82V602.929H1012.72V593.121H1007.82V504.929H1040.28C1035.38 500.638 1020.68 491.819 1001.08 490.842C988.024 490.092 974.939 490.092 961.886 490.842L904.942 416.117L901.903 390.959V729.055H1148.7V669.645H1126.04ZM987.636 586.959H964.365V506.109H987.636V586.959ZM1064.79 651.959C1065.61 647.668 1067.49 639.219 1068.47 639.707C1069.45 640.196 1071.32 648.05 1072.14 651.959H1064.79ZM1116.25 669.049C1117.08 664.759 1118.96 656.309 1119.94 656.798C1120.91 657.286 1122.78 665.14 1123.61 669.049H1116.25ZM757.39 639.648C756.401 640.136 754.531 647.99 753.709 651.899H761.06C760.238 647.609 758.368 639.159 757.39 639.648ZM709.621 657.381C708.644 657.882 706.761 665.724 705.951 669.633H713.291C712.48 665.355 710.598 656.893 709.621 657.381V657.381ZM901.772 392.031L898.841 416.07L841.896 490.794C828.843 490.044 815.758 490.044 802.706 490.794C783.104 491.772 768.412 500.591 763.503 504.881H795.961V593.073H791.064V602.881H795.961V609.055H791.064V613.953H795.961V619.459H791.064V629.875H795.961V636.001H791.064V641.507H795.961V651.923H791.064V657.441H795.961V662.947H775.145V651.923H763.551C762.359 646.62 759.511 636.001 758.046 636.001C756.58 636.001 752.529 646.62 751.313 651.923H741.507C740.494 646.62 737.837 636.001 735.382 636.001C732.928 636.001 730.688 646.62 729.877 651.923H725.588V669.693H715.793C714.971 664.997 712.612 655.606 709.668 655.606C706.725 655.606 704.366 664.997 703.544 669.693H691.247C690.639 665.2 688.554 656.094 685.122 655.606C681.69 655.117 678.795 664.782 677.782 669.693H655.119V729.103H901.903V390.959L901.772 392.031ZM680.225 669.049C681.047 665.164 682.918 657.286 683.907 656.798C684.896 656.309 686.755 664.759 687.577 669.049H680.225ZM731.665 651.959C732.487 648.074 734.358 640.196 735.335 639.707C736.312 639.219 738.194 647.668 739.017 651.959H731.665ZM839.441 587.007H816.17V506.109H839.441V587.007Z" fill="#8396F2"/>
<path d="M877.405 697.128V724.658H856.886V697.128C856.886 690.954 861.02 685.877 866.287 685.365C866.565 685.365 866.851 685.365 867.145 685.365C867.738 685.363 868.329 685.423 868.909 685.543C871.054 685.985 872.986 687.14 874.39 688.821C876.363 691.136 877.433 694.086 877.405 697.128V697.128Z" fill="#2D20E2"/>
<path d="M877.404 697.128V724.658H860.46V697.128C860.46 691.336 864.106 686.497 868.908 685.508C871.053 685.949 872.986 687.104 874.39 688.785C876.371 691.11 877.442 694.074 877.404 697.128V697.128Z" fill="#5136FF"/>
<path d="M915.535 697.128V724.658H895.016V697.128C895.016 690.954 899.151 685.877 904.417 685.365C904.695 685.365 904.981 685.365 905.275 685.365C905.868 685.363 906.459 685.423 907.039 685.543C909.184 685.985 911.116 687.14 912.52 688.821C914.493 691.136 915.563 694.086 915.535 697.128V697.128Z" fill="#5136FF"/>
<path d="M840.871 697.128V724.658H820.353V697.128C820.353 690.954 824.487 685.877 829.754 685.365C830.032 685.365 830.318 685.365 830.612 685.365C831.204 685.363 831.795 685.423 832.375 685.543C834.52 685.985 836.452 687.14 837.857 688.821C839.83 691.136 840.9 694.086 840.871 697.128Z" fill="#2D20E2"/>
<path d="M840.871 697.128V724.658H823.927V697.128C823.927 691.336 827.573 686.497 832.375 685.508C834.52 685.949 836.452 687.104 837.857 688.785C839.838 691.11 840.909 694.074 840.871 697.128Z" fill="#5136FF"/>
<path d="M804.326 697.128V724.658H783.807V697.128C783.807 690.954 787.942 685.877 793.209 685.365C793.487 685.365 793.773 685.365 794.067 685.365C794.659 685.363 795.25 685.423 795.83 685.543C797.975 685.985 799.907 687.14 801.311 688.821C803.284 691.136 804.355 694.086 804.326 697.128Z" fill="#2D20E2"/>
<path d="M804.326 697.128V724.658H787.382V697.128C787.382 691.336 791.028 686.497 795.83 685.508C797.975 685.949 799.907 687.104 801.312 688.785C803.293 691.11 804.364 694.074 804.326 697.128Z" fill="#5136FF"/>
<path d="M767.781 697.128V724.658H747.262V697.128C747.262 690.954 751.397 685.877 756.664 685.365C756.942 685.365 757.228 685.365 757.522 685.365C758.114 685.363 758.705 685.423 759.285 685.543C761.43 685.985 763.362 687.14 764.766 688.821C766.739 691.136 767.81 694.086 767.781 697.128V697.128Z" fill="#2D20E2"/>
<path d="M767.781 697.128V724.658H750.837V697.128C750.837 691.336 754.483 686.497 759.285 685.508C761.43 685.949 763.362 687.104 764.766 688.785C766.747 691.11 767.818 694.074 767.781 697.128V697.128Z" fill="#5136FF"/>
<path d="M731.248 697.128V724.658H710.729V697.128C710.729 690.954 714.864 685.877 720.13 685.365C720.408 685.365 720.694 685.365 720.988 685.365C721.581 685.363 722.172 685.423 722.752 685.543C724.897 685.985 726.829 687.14 728.233 688.821C730.206 691.136 731.276 694.086 731.248 697.128V697.128Z" fill="#2D20E2"/>
<path d="M731.247 697.128V724.658H714.303V697.128C714.303 691.336 717.95 686.497 722.752 685.508C724.897 685.949 726.829 687.104 728.233 688.785C730.214 691.11 731.285 694.074 731.247 697.128V697.128Z" fill="#5136FF"/>
<path d="M694.702 697.128V724.658H674.183V697.128C674.183 690.954 678.318 685.877 683.585 685.365C683.863 685.365 684.149 685.365 684.443 685.365C685.035 685.363 685.626 685.423 686.206 685.543C688.351 685.985 690.283 687.14 691.688 688.821C693.66 691.136 694.731 694.086 694.702 697.128V697.128Z" fill="#2D20E2"/>
<path d="M694.702 697.128V724.658H677.758V697.128C677.758 691.336 681.404 686.497 686.206 685.508C688.351 685.949 690.283 687.104 691.688 688.785C693.669 691.11 694.74 694.074 694.702 697.128V697.128Z" fill="#5136FF"/>
<path opacity="0.16" d="M1126.04 669.645C1125.01 664.735 1122.12 655.057 1118.68 655.558C1115.25 656.059 1113.18 665.152 1112.56 669.645H1100.31C1099.5 664.949 1097.19 655.534 1094.19 655.534C1091.18 655.534 1088.88 664.925 1088.06 669.621H1078.27V651.875H1073.98C1073.17 646.572 1070.91 635.953 1068.47 635.953C1066.03 635.953 1063.37 646.572 1062.35 651.875H1052.54C1051.35 646.572 1047.29 635.953 1045.81 635.953C1044.33 635.953 1041.53 646.572 1040.3 651.875H1028.66V662.899H1007.82V657.393H1012.72V651.875H1007.82V641.471H1012.72V635.953H1007.82V629.827H1012.72V619.411H1007.82V613.905H1012.72V609.055H1007.82V602.929H1012.72V593.121H1007.82V504.929H1040.28C1035.38 500.638 1020.68 491.819 1001.08 490.842C988.024 490.092 974.939 490.092 961.886 490.842L904.941 416.117L901.903 390.959L901.772 392.031V729.055H1148.7V669.645H1126.04ZM987.636 586.959H964.365V506.109H987.636V586.959Z" fill="#5136FF"/>
<path d="M932.753 695.936V723.466H953.271V695.936C953.271 689.763 949.137 684.686 943.87 684.173C943.592 684.173 943.306 684.173 943.012 684.173C942.42 684.172 941.829 684.232 941.249 684.352C939.104 684.793 937.172 685.949 935.767 687.629C933.795 689.944 932.724 692.894 932.753 695.936V695.936Z" fill="#2D20E2"/>
<path d="M932.753 695.936V723.466H949.697V695.936C949.697 690.144 946.051 685.305 941.249 684.316C939.104 684.757 937.172 685.912 935.768 687.593C933.787 689.918 932.715 692.882 932.753 695.936V695.936Z" fill="#5136FF"/>
<path d="M1152 668.643H651.544V673.411H1152V668.643Z" fill="#5136FF"/>
<path opacity="0.45" d="M1148.7 673.411H655.119V675.795H1148.7V673.411Z" fill="#3C39E2"/>
<path d="M1013.78 651.959H790.957V656.726H1013.78V651.959Z" fill="#5136FF"/>
<path d="M1013.78 635.274H790.957V640.041H1013.78V635.274Z" fill="#5136FF"/>
<path d="M1013.78 619.781H790.957V624.548H1013.78V619.781Z" fill="#5136FF"/>
<path d="M1013.78 593.562H790.957V598.329H1013.78V593.562Z" fill="#5136FF"/>
<rect x="841.284" y="716.28" width="14.5403" height="2.63501" rx="1.3175" fill="#000915"/>
<rect x="884.243" y="716.28" width="7.2702" height="2.63501" rx="1.3175" fill="#000915"/>
<rect x="893.494" y="716.28" width="32.3853" height="2.63501" rx="1.3175" fill="#000915"/>
<path d="M886.68 736.288C884.409 740.815 903.524 744.965 913.365 746.474L913.933 735.156C916.771 721.009 916.771 717.613 913.365 718.179C909.958 718.745 907.119 725.536 905.984 721.575C904.848 717.613 913.365 707.427 910.526 700.07C907.687 692.714 902.01 704.598 899.738 702.9C897.467 701.202 901.442 681.962 898.035 680.83C894.629 679.698 894.061 695.543 892.925 689.884C891.79 684.225 882.705 672.341 875.324 676.868C867.943 681.396 888.383 692.714 886.68 694.977C884.976 697.241 873.621 690.45 873.621 697.241C873.621 704.032 892.357 706.295 896.332 709.125C900.306 711.954 883.841 714.784 879.867 716.482C875.892 718.179 877.028 724.404 888.383 724.97C899.738 725.536 902.01 728.365 903.145 731.195C904.281 734.025 889.519 730.629 886.68 736.288Z" fill="#FF403F"/>
<path d="M888.383 689.884C891.222 692.337 897.468 700.41 899.739 713.086C902.01 725.763 909.012 737.986 912.23 742.513" stroke="#000915"/>
<path d="M939.188 735.564C941.459 740.091 922.345 744.241 912.503 745.75L911.936 734.432C909.097 720.285 909.097 716.889 912.503 717.455C915.91 718.021 918.749 724.812 919.884 720.851C921.02 716.889 912.503 706.703 915.342 699.346C918.181 691.99 923.859 703.874 926.13 702.176C928.401 700.478 924.426 681.238 927.833 680.106C931.24 678.974 931.807 694.819 932.943 689.16C934.078 683.501 943.163 671.617 950.544 676.144C957.925 680.672 937.485 691.99 939.188 694.253C940.892 696.517 952.247 689.726 952.247 696.517C952.247 703.308 933.511 705.571 929.536 708.401C925.562 711.23 942.027 714.06 946.002 715.758C949.976 717.455 948.84 723.68 937.485 724.246C926.13 724.812 923.859 727.641 922.723 730.471C921.588 733.301 936.35 729.905 939.188 735.564Z" fill="#000915"/>
<path d="M937.486 689.161C934.647 691.613 928.402 699.686 926.131 712.363C923.859 725.039 916.857 737.262 913.64 741.789" stroke="white" stroke-opacity="0.32"/>
<path d="M900.326 723.794C895.55 723.794 900.955 732.784 904.102 736.339L913.54 746.374C918.155 744.492 927.888 740.227 929.901 738.22C932.419 735.711 929.272 735.084 926.126 734.457C923.609 733.955 925.077 731.739 926.126 730.694C936.698 727.683 940.18 721.913 940.599 719.404C940.599 718.777 940.599 717.522 938.082 715.641C935.565 713.759 925.496 728.185 926.126 718.777C926.755 709.368 941.228 698.706 940.599 694.315C939.97 689.925 936.823 695.57 931.16 698.706C926.629 701.215 926.755 696.824 927.384 694.315C930.321 690.97 935.817 683.402 934.306 679.89C932.419 675.499 931.16 679.89 926.126 684.28C921.092 688.671 924.238 679.262 925.496 677.381C926.755 675.499 938.082 651.038 917.945 655.428C897.808 659.819 909.764 686.162 910.394 689.925C911.023 693.688 905.989 684.907 898.438 687.416C890.886 689.925 912.282 703.724 912.282 707.487C912.282 711.25 904.102 705.605 900.326 704.978C896.55 704.351 904.102 713.759 905.989 719.404C907.499 723.92 906.618 725.049 905.989 725.049C904.101 726.303 904.102 723.794 900.326 723.794Z" fill="#001838"/>
<path d="M919.201 668.603C917.942 668.812 915.802 675.879 917.313 702.472C918.823 729.066 916.684 738.641 915.425 740.105" stroke="#000915" stroke-width="2" stroke-linejoin="round"/>
<path d="M898.275 751.74H925.102L922.202 780.647H900.812L898.275 751.74Z" fill="#E92476"/>
<mask id="mask1" mask-type="alpha" maskUnits="userSpaceOnUse" x="898" y="751" width="28" height="30">
<path d="M898.275 751.74H925.102L922.202 780.647H900.812L898.275 751.74Z" fill="#E92476"/>
</mask>
<g mask="url(#mask1)">
<rect x="894.648" y="746.681" width="34.0779" height="10.1175" rx="5.05875" fill="#D2055B"/>
</g>
<rect x="894.649" y="743.794" width="34.078" height="10.1175" rx="5.05875" fill="#E92476"/>
<path d="M898.999 760.416H924.376L923.289 771.979H899.724L898.999 760.416Z" fill="#F27CAD"/>
<path d="M879.553 713.666C881.747 711.692 879.898 706.763 878.442 704.457L874.671 705.328C876.148 706.972 874.231 711.05 875.461 711.204C876.41 711.323 876.172 710.59 876.459 709.409C877.183 709.819 877.877 711.611 878.219 713.022C878.373 713.656 879.068 714.102 879.553 713.666Z" fill="#EF937E"/>
<path d="M804.956 676.341C804.047 679.144 808.12 682.491 810.538 683.762L815.772 686.244L813.366 681.128C811.262 680.441 810.877 675.953 809.734 676.433C808.853 676.803 809.427 677.32 809.771 678.485C808.937 678.49 807.437 677.283 806.432 676.231C805.981 675.76 805.157 675.721 804.956 676.341Z" fill="#EF937E"/>
<path d="M832.525 678.162C836.844 665.003 841.692 659.963 842.397 658.574C843.13 668.78 840.991 688.971 836.007 692.199C831.022 695.427 818.136 689.268 812.316 685.785L813.909 679.756C826.334 684.054 831.497 680.485 832.525 678.162Z" fill="#000915"/>
<path d="M841.868 659.362L845.864 656.164L849.615 656.572L855.457 698.954L833.141 703.924C833.269 702.592 835.604 688.884 837.382 678.221C839.016 668.428 841.291 663.044 841.868 659.362Z" fill="white"/>
<path d="M839.94 644.824L840.73 642.36L842.049 640.157C842.746 639.8 845.426 639.428 850.567 640.789C855.709 642.151 852.506 651.388 850.262 655.836L850.067 657.455C846.662 658.996 841.128 660.617 841.937 659.265C842.693 658.003 842.819 657.393 842.931 656.452C841.916 656.575 840.949 656.527 840.209 656.315C838.955 655.954 839.616 654.452 840.103 653.746C839.749 653.535 839.633 653.078 839.845 652.724L839.48 652.396C839.321 652.253 839.268 652.027 839.346 651.828C839.484 651.477 839.347 651.079 839.023 650.887L838.416 650.526C838.132 650.357 838.068 649.973 838.283 649.721L839.71 648.043C839.989 647.714 840.078 647.265 839.945 646.856C839.73 646.196 839.728 645.485 839.94 644.824Z" fill="#EF937E"/>
<path d="M848.92 653.885L849.366 654.603C849.765 655.245 850.708 655.228 851.085 654.571L852.624 651.894C854.143 649.252 855.561 646.325 854.912 643.352C854.422 641.107 853.102 638.793 850.176 637.573C843.675 634.863 841.718 638.133 841.461 638.077C841.256 638.032 840.995 637.51 840.89 637.255C840.788 637.425 840.773 637.989 840.778 638.249C840.333 637.83 840.675 636.967 840.902 636.588C837.72 639.707 839.111 641.787 840.205 642.437C841.391 642.34 843.887 642.392 844.38 643.378C844.995 644.612 844.639 644.4 845.98 645.39C847.053 646.182 846.396 648.786 845.934 649.989L845.211 651.197L847.004 650.625C847.261 648.774 848.663 648.014 849.332 647.866C851.054 648.35 849.775 652.08 848.92 653.885Z" fill="#393939"/>
<path d="M865.276 774.332L864.505 767.331L856.753 767.838L859.671 775.965L865.276 774.332Z" fill="#EF937E"/>
<path d="M859.107 775.134C860.711 775.18 863.972 774.072 865.402 773.512L865.617 773.428L868.443 779.344L851.494 785.979C848.233 787.255 849.21 785 850.106 783.713C853.196 782.504 857.394 777.49 859.107 775.134Z" fill="#1D104A"/>
<path d="M832.484 779.716L834.334 772.918L826.932 770.565L826.667 779.193L832.484 779.716Z" fill="#EF937E"/>
<path d="M843.431 736.594C846.936 747.576 851.372 760.068 856.806 773.199H867.117C864.473 765.47 858.709 740.155 856.806 700.735L833.541 699.418C830.809 709.431 825.557 738.206 826.403 773.199L835.127 773.463C836.997 763.825 840.046 749.632 843.431 736.594Z" fill="#393939"/>
<mask id="mask2" mask-type="alpha" maskUnits="userSpaceOnUse" x="826" y="699" width="42" height="75">
<path d="M843.431 736.594C846.936 747.576 851.372 760.068 856.806 773.199H867.117C864.473 765.47 858.709 740.155 856.806 700.735L833.541 699.418C830.809 709.431 825.557 738.206 826.403 773.199L835.127 773.463C836.997 763.825 840.046 749.632 843.431 736.594Z" fill="#79C7CE"/>
</mask>
<g mask="url(#mask2)">
<path d="M843.322 736.042L836.977 774.251H824.022L821.114 748.164L833.54 698.625L843.322 736.042Z" fill="#262626"/>
</g>
<path d="M840.042 702.155C835.335 690.715 842.021 668.737 845.89 658.127L850.065 656.992C868.316 666.42 877.403 692.04 879.86 704.591L873.569 705.992C872.209 706.295 860.665 685.77 860.665 685.77C860.665 685.77 857.664 682.804 865.06 705.457L840.042 702.155Z" fill="#000915"/>
<path d="M219.98 659.534C219.456 657.673 220.071 657.025 219.773 654.424C219.462 651.694 219.16 649.309 221.773 647.901C224.386 646.493 227.724 643.469 229.962 645.245C232.2 647.021 234.223 646.232 235.203 647.831C236.183 649.43 236.683 650.979 236.433 653.947C236.265 655.988 219.98 659.534 219.98 659.534Z" fill="#393939"/>
<path d="M256.591 760.629C256.591 760.629 258.027 761.307 262.68 760.03C266.334 759.024 270.262 758.344 267.775 760.759C265.288 763.174 261.069 764.638 259.388 764.749C257.707 764.86 255.389 766.688 254.29 765.855C253.191 765.022 252.722 761.129 252.837 761.136C252.951 761.143 256.591 760.629 256.591 760.629Z" fill="#0F2D5C"/>
<path d="M198.655 755.634C198.655 755.634 191.53 759.944 192.872 760.977C194.214 762.01 196.329 763.826 197.946 765.652C199.564 767.478 205.487 768.107 205.694 767.083C205.901 766.058 202.131 764.408 201.528 763.491C200.925 762.575 201.251 757.62 201.251 757.62L198.655 755.634Z" fill="#0F2D5C"/>
<path d="M233.563 709.896C233.563 709.896 222.863 739.231 220.583 742.085C218.303 744.938 201.214 760.473 201.214 760.473C201.214 760.473 196.773 757.764 197.73 755.947C198.687 754.129 207.355 738.813 211.309 734.541C215.263 730.268 212.94 714.198 217.669 702.231C222.399 690.264 233.563 709.896 233.563 709.896Z" fill="#001838"/>
<path d="M233.563 709.895C233.563 709.895 222.406 690.262 217.675 702.229C215.936 706.63 215.014 711.907 214.622 716.617C218.532 725.524 220.618 734.862 221.45 740.587C224.811 733.885 233.563 709.895 233.563 709.895Z" fill="#000915"/>
<path d="M223.27 653.665C223.27 653.665 219.145 661.055 214.65 668.981C207.346 681.859 215.568 705.234 218.172 707.734C220.777 710.233 234.317 705.786 235.172 703.917C236.027 702.048 234.863 689.355 230.798 681.347C226.732 673.34 224.663 667.975 225.759 664.433C226.674 661.476 228.058 655.908 228.058 655.908L223.27 653.665Z" fill="#EE9F86"/>
<path d="M223.269 653.665L228.057 655.908C228.057 655.908 226.674 661.476 225.758 664.433C225.535 665.191 225.438 665.981 225.471 666.771C223.779 665.299 221.749 662.834 220.359 658.854C222.114 655.734 223.269 653.665 223.269 653.665Z" fill="#EB957A"/>
<path d="M234.293 654.972C235.364 658.604 234.773 662.646 232.496 663.735C230.84 664.53 225.248 663.372 224.414 659.254C223.626 655.366 223.767 651.705 226.495 650.521C229.224 649.337 233.173 651.166 234.293 654.972Z" fill="#EE9F86"/>
<path d="M233.723 699.725C239.326 727.286 259.439 758.985 258.471 760.768C257.553 762.469 252.695 763.143 252.695 763.143C252.695 763.143 236.216 745.71 235.025 738.06C233.834 730.41 217.871 718.48 216.061 708.51C214.251 698.54 216.061 700.242 216.061 700.242L233.723 699.725Z" fill="#001838"/>
<path d="M227.004 670.227C231.505 673.771 242.821 676.739 242.821 676.739H228.057L227.004 670.227Z" fill="#81CFFF"/>
<path d="M215.256 666.839L217.088 663.761C217.088 663.761 218.11 664.816 221.351 666.204C224.592 667.591 226.62 667.544 226.62 667.544L230.738 680.953L217.355 674.44L215.256 666.839Z" fill="#81CFFF"/>
<path d="M214.622 665.964C219.343 664.191 223.94 670.896 225.568 674.153C227.196 677.41 227.963 679.708 227.963 679.708L230.739 678.942C230.739 678.942 233.997 686.413 234.572 690.148C235.146 693.883 235.816 706.669 235.816 706.669C235.816 706.669 215.559 705.5 215.493 704.902C215.427 704.305 212.209 697.777 211.17 692.735C209.473 684.496 210.331 672.812 212.203 669.556C214.075 666.299 214.622 665.964 214.622 665.964Z" fill="#001838"/>
<path d="M228.517 706.121H263.907C263.998 706.121 263.998 674.177 263.907 674.177H228.517C228.474 674.177 228.432 674.195 228.402 674.225C228.372 674.256 228.355 674.297 228.355 674.341V705.959C228.355 706.002 228.372 706.043 228.403 706.073C228.433 706.104 228.474 706.121 228.517 706.121Z" fill="#EB9C63"/>
<path d="M239.238 706.121H264.644C264.735 706.121 264.735 674.177 264.644 674.177H239.238C239.195 674.177 239.153 674.194 239.123 674.225C239.092 674.255 239.075 674.297 239.075 674.341V705.959C239.075 706.002 239.092 706.044 239.123 706.074C239.154 706.104 239.195 706.121 239.238 706.121V706.121Z" fill="#F0B589"/>
<g opacity="0.5">
<path opacity="0.5" d="M241.858 682.808H247.571C247.662 682.808 247.735 682.882 247.735 682.972V683.758C247.735 683.848 247.662 683.922 247.571 683.922H241.858C241.767 683.922 241.694 683.848 241.694 683.758V682.972C241.694 682.882 241.767 682.808 241.858 682.808Z" fill="#E86C1F"/>
<path opacity="0.5" d="M246.221 678.276L246.918 678.973C246.941 678.996 246.956 679.025 246.962 679.057C246.968 679.089 246.965 679.121 246.952 679.151C246.94 679.181 246.919 679.206 246.892 679.224C246.865 679.242 246.834 679.252 246.802 679.252H246.783C246.74 679.252 246.698 679.269 246.668 679.299C246.637 679.33 246.62 679.371 246.619 679.414V683.203C246.619 683.246 246.602 683.287 246.572 683.318C246.541 683.349 246.5 683.366 246.457 683.366H245.754C245.733 683.366 245.712 683.362 245.692 683.354C245.672 683.346 245.654 683.334 245.639 683.318C245.624 683.303 245.612 683.285 245.604 683.265C245.596 683.245 245.592 683.224 245.592 683.203V679.414C245.592 679.393 245.587 679.371 245.579 679.352C245.571 679.332 245.558 679.314 245.543 679.299C245.528 679.284 245.509 679.272 245.49 679.264C245.47 679.256 245.448 679.252 245.427 679.252H245.408C245.376 679.252 245.344 679.242 245.317 679.224C245.291 679.206 245.27 679.181 245.257 679.151C245.245 679.121 245.241 679.089 245.248 679.057C245.254 679.025 245.269 678.996 245.292 678.973L245.988 678.276C246.019 678.246 246.061 678.228 246.105 678.228C246.148 678.228 246.19 678.246 246.221 678.276V678.276Z" fill="#E86C1F"/>
<path opacity="0.5" d="M243.352 678.277L244.049 678.974C244.071 678.997 244.087 679.026 244.093 679.058C244.099 679.089 244.095 679.122 244.083 679.152C244.071 679.182 244.05 679.207 244.023 679.225C243.996 679.243 243.964 679.253 243.932 679.253H243.914C243.87 679.253 243.829 679.27 243.798 679.3C243.768 679.33 243.75 679.372 243.75 679.415V683.203C243.75 683.246 243.733 683.288 243.702 683.319C243.672 683.349 243.631 683.367 243.587 683.367H242.885C242.841 683.367 242.8 683.35 242.769 683.319C242.738 683.288 242.721 683.247 242.721 683.203V679.415C242.721 679.393 242.717 679.372 242.708 679.352C242.7 679.332 242.688 679.314 242.672 679.299C242.657 679.283 242.638 679.272 242.618 679.264C242.598 679.256 242.576 679.252 242.554 679.253H242.536C242.504 679.253 242.472 679.243 242.445 679.225C242.418 679.207 242.397 679.182 242.385 679.152C242.373 679.122 242.369 679.089 242.375 679.058C242.381 679.026 242.397 678.997 242.419 678.974L243.116 678.277C243.132 678.261 243.15 678.249 243.17 678.241C243.19 678.232 243.212 678.228 243.234 678.228C243.256 678.228 243.278 678.232 243.298 678.241C243.318 678.249 243.336 678.261 243.352 678.277V678.277Z" fill="#E86C1F"/>
</g>
<path d="M246 705.83C246.954 704.998 247.868 704.042 247.077 703.986C246.261 703.928 244.417 704.964 243.011 705.846C241.897 705.862 241.152 705.883 241.152 705.883L238.636 708.919C240.63 709.168 242.635 709.312 244.644 709.35C248.157 709.426 251.566 707.913 252.809 706.709C253.527 706.014 249.516 705.847 246 705.83Z" fill="#F09959"/>
<path d="M217.027 667.122C211.711 668.695 210.76 676.2 214.304 685.715C217.848 695.23 231.544 708.303 238.584 709.742C242.296 710.502 242.826 706.007 242.826 706.007C242.826 706.007 229.945 693.328 227.661 688.455C225.377 683.582 221.864 665.69 217.027 667.122Z" fill="#81CFFF"/>
<path d="M219.979 659.534C221.831 659.595 224.893 658.535 225.079 657.712C225.266 656.889 224.851 655.488 225.459 656.002C226.066 656.517 226.428 659.786 226.976 660.183C227.923 660.867 228.056 656.626 227.512 655.142C227.131 654.105 228.652 652.649 231.103 654.293C233.214 655.709 234.65 655.242 235.433 654.916C236.216 654.59 235.767 652.118 235.767 652.118L229.846 647.627L223.695 650.931L219.979 659.534Z" fill="#393939"/>
<path d="M225.71 656.822C225.912 658.048 225.405 659.152 224.576 659.289C223.747 659.425 222.913 658.543 222.709 657.318C222.505 656.092 223.015 654.988 223.842 654.85C224.67 654.712 225.507 655.595 225.71 656.822Z" fill="#EB957A"/>
<path d="M427.938 773.542L427.473 767.961L432.86 766.105L433.074 773.109L427.938 773.542Z" fill="#F3AEAE"/>
<path d="M433.253 772.314C432.055 772.823 429.261 772.95 428.013 772.95H427.826L427.452 778.256H442.234C445.078 778.256 443.668 776.841 442.608 776.134C439.914 776.134 435.248 773.587 433.253 772.314Z" fill="#1D104A"/>
<path d="M397.043 765.585L398.51 760.058L404.672 761.399L401.345 767.571L397.043 765.585Z" fill="#F3AEAE"/>
<path d="M401.898 766.972C400.605 766.816 398.121 765.534 397.041 764.912L396.879 764.819L393.893 769.227L406.695 776.594C409.158 778.011 408.647 776.084 408.083 774.943C405.75 773.6 402.987 769.069 401.898 766.972Z" fill="#1D104A"/>
<path d="M449.385 678.899L433.504 682.964L430.5 676.76H448.098L449.385 678.899Z" fill="#EE9F86"/>
<path d="M450.618 664.629L437.979 677.412C437.355 678.043 437.802 679.115 438.69 679.115H448.988C449.244 679.115 449.49 679.017 449.675 678.842L463.921 665.381C464.598 664.74 464.108 663.603 463.177 663.656L451.272 664.334C451.025 664.348 450.792 664.453 450.618 664.629Z" fill="#333333"/>
<path d="M432.498 668.516C434.561 662.8 430.111 658.562 427.492 655.338C427.706 655.124 426.866 655.338 425.99 655.338C425.132 655.338 421.827 654.156 417.75 656.295C412.428 663.653 413.972 679.476 415.26 686.107C421.841 686.25 432.498 688.058 432.498 686.975C432.498 686.498 432.498 686.37 432.498 686.351C432.498 686.267 432.498 686.017 432.498 685.35C432.498 682.518 432.498 677.584 432.498 668.516Z" fill="#000915"/>
<path d="M412.769 701.055C411.389 694.924 413.776 688.532 415.143 686.102L432.172 686.645C432.69 695.832 413.92 743.45 402.845 766.102L396.804 763.485C402.701 745.229 414.15 707.186 412.769 701.055Z" fill="#211C5F"/>
<path d="M415.093 681.894L414.664 669.06L421.317 668.418L420.244 678.472L436.554 669.846L438.271 672.413L418.956 684.889H418.088C416.434 684.889 415.093 683.548 415.093 681.894Z" fill="#EE9F86"/>
<path d="M444.173 667.996C442.203 666.473 438.352 668.378 436.553 669.849L438.269 672.416C439.531 670.967 442.609 672.973 442.609 671.898C442.609 671.069 441.999 671.353 440.945 671.235C441.211 670.596 442.576 669.843 443.731 669.386C444.338 669.147 444.69 668.396 444.173 667.996Z" fill="#EE9F86"/>
<path d="M433.285 769.52L432.499 686.882L415.543 686.321L427.006 769.52H433.285Z" fill="#262168"/>
<path d="M413.804 661.377C413.804 658.77 415.918 656.656 418.525 656.656V656.656C421.133 656.656 423.247 658.77 423.247 661.377V669.062H413.804V661.377Z" fill="#830000"/>
<path d="M433.857 645.502C433.979 645.137 434.017 644.724 434.014 644.303C434.002 642.763 433.411 641.237 432.584 639.936C425.414 636.098 422.275 642.405 421.603 646.038L422.493 656.761L423.909 657.121C426.178 657.697 428.337 655.861 428.125 653.534C429.015 653.534 429.702 653.559 431.661 653.973C433.62 654.388 433.264 652.611 433.323 652.315C433.358 652.139 433.633 651.889 433.87 651.706C433.984 651.619 434 651.45 433.899 651.349C433.81 651.261 433.81 651.117 433.899 651.029L434.035 650.893C434.174 650.755 434.198 650.538 434.092 650.373L433.989 650.211C433.911 650.088 433.923 649.929 434.019 649.819L434.203 649.608C434.655 649.09 434.65 648.331 434.308 647.735C433.919 647.055 433.617 646.222 433.857 645.502Z" fill="#F3AEAE"/>
<path d="M422.065 650.251C422.391 652.201 421.413 649.601 420.936 647.907C420.402 647.202 418.894 643.362 419.51 641.077C419.954 639.432 420.462 637.642 423.28 637.371C418.213 637.597 421.386 637.348 424.051 637.307L423.635 636.893C422.741 636.002 421.905 635.444 421.351 635.444C416.783 635.651 410.762 636.479 408.478 634.202C406.651 632.381 403.287 633.443 401.834 634.202C392.905 637.307 377.333 633.788 386.261 627.165C395.189 620.541 395.397 623.646 402.457 627.165C409.516 630.684 408.063 626.751 417.199 627.786C424.507 628.614 424.812 634.478 424.051 637.307C421.386 637.348 418.213 637.597 423.28 637.371C423.52 637.348 423.776 637.336 424.051 637.336C424.248 637.327 424.456 637.317 424.674 637.307C433.394 636.893 434.456 643.751 433.803 643.101C433.074 642.374 426.63 642.451 425.978 646.351C424.524 644.488 424.2 643.691 423.369 644.726C422.539 645.761 421.688 647.998 422.065 650.251Z" fill="#393939"/>
<path d="M521.507 771.806L519.966 766.146L526.131 764.186L526.351 771.371L521.507 771.806Z" fill="#B88B60"/>
<path d="M526.535 770.558C525.306 771.081 522.44 771.211 521.16 771.211H520.968L520.584 776.654H535.748C538.666 776.654 537.22 775.203 536.132 774.477C533.368 774.477 528.582 771.864 526.535 770.558Z" fill="#1D104A"/>
<path d="M499.818 771.807L501.36 766.146L495.195 764.187L494.975 771.372L499.818 771.807Z" fill="#B88B60"/>
<path d="M494.79 770.559C496.018 771.081 498.885 771.212 500.164 771.212H500.356L500.74 776.655H485.576C482.658 776.655 484.104 775.203 485.192 774.477C487.956 774.477 492.742 771.865 494.79 770.559Z" fill="#1D104A"/>
<path d="M501.986 643.453L502.593 641.218L503.684 639.193C504.293 638.846 506.675 638.405 511.331 639.416C515.987 640.427 513.451 648.638 511.624 652.708L511.623 657.715C508.639 659.231 505.459 657.774 505.459 656.439L505.459 653.586C504.556 653.737 503.363 653.885 502.693 653.725C501.556 653.453 502.087 652.082 502.494 651.43C502.169 651.257 502.046 650.852 502.221 650.527L501.881 650.247C501.733 650.126 501.677 649.926 501.738 649.745C501.847 649.426 501.709 649.075 501.412 648.916L500.854 648.617C500.592 648.477 500.52 648.137 500.702 647.902L501.91 646.344C502.147 646.039 502.208 645.633 502.072 645.272C501.853 644.69 501.823 644.054 501.986 643.453Z" fill="#F3AEAE"/>
<path d="M510.1 652.226L510.43 652.707C510.858 653.33 511.798 653.27 512.146 652.597L513.111 650.727C514.511 648.015 515.843 644.992 514.897 642.096C514.298 640.263 513.023 638.477 510.562 637.579C504.636 635.417 503.017 638.421 502.785 638.381C502.6 638.349 502.345 637.893 502.241 637.669C502.156 637.826 502.166 638.33 502.181 638.563C501.766 638.206 502.037 637.42 502.225 637.072C499.504 639.991 500.833 641.796 501.838 642.334C502.895 642.199 505.131 642.144 505.612 643.007C506.212 644.086 505.885 643.911 507.125 644.743C508.117 645.409 507.635 647.765 507.27 648.86L506.672 649.97L508.253 649.386C508.409 647.719 509.633 646.983 510.225 646.823C511.785 647.187 510.792 650.576 510.1 652.226Z" fill="#393939"/>
<path d="M505.435 654.246L503.454 654.905L501.252 689.357H514.022V654.246H511.6L511.56 654.884C511.459 656.499 510.119 657.757 508.501 657.757C506.808 657.757 505.435 656.385 505.435 654.692V654.246Z" fill="white"/>
<path d="M482.583 650.834C480.153 652.108 480.632 656.821 481.395 659.173L484.739 659.293C483.787 657.498 486.894 654.356 485.801 653.931C484.958 653.604 484.996 654.306 484.44 655.278C483.893 654.762 483.694 653.11 483.713 651.804C483.722 651.148 483.163 650.53 482.583 650.834Z" fill="#EA8F72"/>
<path d="M504.892 678.506C505.499 681.173 510.189 681.931 512.665 681.806L513.647 678.617C511.661 679.069 509.42 675.265 508.726 676.207C508.19 676.933 508.88 677.079 509.679 677.865C509.037 678.259 507.38 678.023 506.118 677.665C505.488 677.487 504.746 677.868 504.892 678.506Z" fill="#EA8F72"/>
<path d="M520.406 689.138H495.747L493.986 770.112H501.472L506.315 711.082L519.305 770.112H527.231L520.406 689.138Z" fill="#333333"/>
<path d="M501.032 705.376L503.454 654.904L502.573 655.124C502.133 655.343 502.177 655.299 497.069 656.879C491.961 658.459 488.776 667.925 487.822 672.46L484.96 659.074H481.217L482.106 678.386C482.224 680.964 484.349 682.993 486.929 682.993C488.815 682.993 490.528 681.895 491.316 680.182L494.867 672.46C493.106 682.773 489.539 703.796 489.363 705.376C489.187 706.956 497.069 706.034 501.032 705.376Z" fill="#000915"/>
<mask id="mask3" mask-type="alpha" maskUnits="userSpaceOnUse" x="481" y="654" width="23" height="53">
<path d="M501.03 705.376L503.452 654.904L502.571 655.124C502.131 655.343 502.175 655.299 497.067 656.879C491.959 658.459 488.774 667.925 487.82 672.46L484.958 659.074H481.215L482.104 678.386C482.223 680.964 484.347 682.993 486.928 682.993C488.813 682.993 490.527 681.895 491.315 680.182L494.865 672.46C493.104 682.773 489.537 703.796 489.361 705.376C489.185 706.956 497.067 706.034 501.03 705.376Z" fill="#DEECF9"/>
</mask>
<g mask="url(#mask3)">
<ellipse cx="486.5" cy="685.186" rx="5.28397" ry="5.26663" fill="#BFCEE1" fill-opacity="0.3"/>
<line y1="-0.5" x2="52.2937" y2="-0.5" transform="matrix(-0.0505205 0.998723 -0.99874 -0.0501924 502.348 654.464)" stroke="#000915"/>
<path d="M487.821 674.872L487.601 670.263V668.288L488.482 668.727L487.821 674.872Z" fill="#7D809D"/>
</g>
<path fill-rule="evenodd" clip-rule="evenodd" d="M527.011 661.489C525.601 659.032 517.764 655.491 514.021 654.028L513.295 678.53L512.48 678.386V681.897L513.188 682.124L512.48 706.036H525.249L523.336 685.316C525.676 686.041 527.869 686.71 529.432 687.164C533.66 688.393 534.423 684.165 534.276 681.897C532.441 676.119 528.42 663.947 527.011 661.489ZM521.947 670.264L526.35 681.675L522.167 680.578L521.947 670.264Z" fill="#000915"/>
<path d="M512.48 678.389V681.9L526.35 686.289L526.57 681.681L512.48 678.389Z" fill="url(#paint0_linear)"/>
<mask id="mask4" mask-type="alpha" maskUnits="userSpaceOnUse" x="512" y="654" width="23" height="53">
<path fill-rule="evenodd" clip-rule="evenodd" d="M527.011 661.489C525.601 659.032 517.764 655.491 514.021 654.028L513.295 678.533L512.48 678.386V681.897L513.188 682.124L512.48 706.036H525.249L523.336 685.316C525.676 686.041 527.869 686.71 529.432 687.164C533.66 688.393 534.423 684.165 534.276 681.897C532.441 676.119 528.42 663.947 527.011 661.489ZM521.947 670.269L525.91 680.802L522.828 679.485L521.947 670.269Z" fill="#7873D7"/>
</mask>
<g mask="url(#mask4)">
<line x1="515.179" y1="653.152" x2="515.179" y2="679.046" stroke="#000915"/>
<path d="M514.883 682.809L514.883 706.016" stroke="#000915"/>
<ellipse cx="535.376" cy="686.949" rx="5.284" ry="5.26663" fill="#BFCEE1" fill-opacity="0.3"/>
<path d="M527.89 682.56L526.349 681.682L526.129 681.024L527.89 682.56Z" fill="#7D809D"/>
</g>
<g opacity="0.1">
<path fill-rule="evenodd" clip-rule="evenodd" d="M852.647 11.6887C857.35 -4.87099 872.584 -17 890.651 -17C909.834 -17 925.824 -3.32611 929.405 14.8066C932.676 13.6835 936.186 13.0738 939.838 13.0738C957.573 13.0738 971.95 27.4508 971.95 45.1858C971.95 60.3788 961.399 73.1074 947.224 76.4442C945.629 76.9974 943.915 77.298 942.13 77.298H806.546C797.96 77.298 791 70.3376 791 61.7517C791 53.1657 797.96 46.2053 806.546 46.2053H815.484C814.809 43.7717 814.449 41.2074 814.449 38.5588C814.449 22.7943 827.228 10.0147 842.993 10.0147C846.381 10.0147 849.631 10.6051 852.647 11.6887Z" fill="#000915"/>
<path fill-rule="evenodd" clip-rule="evenodd" d="M893.071 29.0131C897.774 12.4535 913.009 0.324486 931.076 0.324486C950.259 0.324486 966.248 13.9978 969.829 32.13C973.1 31.0068 976.61 30.397 980.262 30.397C997.997 30.397 1012.37 44.7741 1012.37 62.5091C1012.37 77.7021 1001.82 90.4307 987.649 93.7675C986.053 94.3207 984.339 94.6212 982.555 94.6212H846.971C838.385 94.6212 831.425 87.6609 831.425 79.0749C831.425 70.4889 838.385 63.5286 846.971 63.5286H855.909C855.234 61.0954 854.873 58.5314 854.873 55.8833C854.873 40.1188 867.653 27.3392 883.417 27.3392C886.806 27.3392 890.056 27.9296 893.071 29.0131Z" fill="#001838"/>
</g>
</g>
<path d="M1010.49 688.852C1013.41 666.484 999.993 666.47 991.424 669.726C990.646 670.022 989.807 669.345 989.983 668.532C994.397 648.136 1001.45 607.774 997.399 594.605C993.5 581.933 977.956 587.938 969.138 593.404C968.408 593.857 967.454 593.264 967.558 592.411C971.435 560.716 975.721 535.641 943.73 533.082C918.168 531.037 915.485 567.927 917.403 587.947C917.47 588.641 916.81 589.184 916.129 589.033C892.512 583.794 894.945 601.779 899.224 611.621C905.769 633.002 916.765 674.191 908.387 667.908C900.171 661.746 894.64 665.153 892.784 667.756C892.713 667.857 892.664 667.976 892.638 668.097C877.074 738.604 934.586 743.83 955.511 743.83C976.455 743.83 1006.56 718.959 1010.49 688.852Z" fill="#000915"/>
<path d="M946.35 718.96C935.929 711.979 914.01 694.875 909.698 682.308" stroke="#801336" stroke-linecap="round"/>
<path d="M948.968 666.6C941.525 661.614 912.778 614.053 909.698 605.077" stroke="#801336" stroke-linecap="round"/>
<path d="M933.232 627.33C933.591 633.966 930.434 646.242 914.933 642.261" stroke="#801336" stroke-width="0.5" stroke-linecap="round"/>
<path d="M927.996 684.925C928.355 691.561 925.197 703.837 909.696 699.856" stroke="#801336" stroke-width="0.5" stroke-linecap="round"/>
<g opacity="0.1">
<path fill-rule="evenodd" clip-rule="evenodd" d="M452.878 118.3C455.387 109.469 463.511 103 473.147 103C483.378 103 491.906 110.293 493.816 119.964C495.56 119.365 497.432 119.04 499.38 119.04C508.839 119.04 516.506 126.708 516.506 136.166C516.506 144.271 510.877 151.061 503.314 152.839C502.465 153.132 501.552 153.292 500.603 153.292H499.524C499.476 153.292 499.428 153.293 499.38 153.293C499.332 153.293 499.284 153.292 499.236 153.292H428.291C423.712 153.292 420 149.58 420 145.001C420 140.421 423.712 136.709 428.291 136.709H433.058C432.698 135.411 432.506 134.044 432.506 132.631C432.506 124.223 439.321 117.408 447.729 117.408C449.536 117.408 451.27 117.722 452.878 118.3Z" fill="#000915"/>
<path fill-rule="evenodd" clip-rule="evenodd" d="M474.437 127.54C476.945 118.708 485.07 112.24 494.705 112.24C504.936 112.24 513.464 119.532 515.374 129.203C517.119 128.603 518.991 128.278 520.938 128.278C530.397 128.278 538.065 135.946 538.065 145.405C538.065 153.506 532.44 160.293 524.883 162.075C524.031 162.371 523.115 162.532 522.161 162.532H449.85C445.271 162.532 441.558 158.82 441.558 154.24C441.558 149.661 445.271 145.949 449.85 145.949H454.616C454.256 144.651 454.064 143.283 454.064 141.871C454.064 133.463 460.88 126.647 469.287 126.647C471.095 126.647 472.828 126.962 474.437 127.54Z" fill="#001838"/>
</g>
<path d="M154.489 702.852C157.407 680.484 143.993 680.47 135.424 683.726C134.646 684.022 133.807 683.345 133.983 682.532C138.397 662.136 145.451 621.774 141.399 608.605C137.5 595.933 121.956 601.938 113.138 607.404C112.408 607.857 111.454 607.264 111.558 606.411C115.435 574.716 119.721 549.641 87.7304 547.082C62.1682 545.037 59.485 581.927 61.4035 601.947C61.4699 602.641 60.8095 603.184 60.1292 603.033C36.5124 597.794 38.945 615.779 43.2244 625.621C49.7694 647.002 60.765 688.191 52.3874 681.908C44.1709 675.746 38.6405 679.153 36.7842 681.756C36.7125 681.857 36.6641 681.976 36.6375 682.097C21.0738 752.604 78.5859 757.83 99.5113 757.83C120.455 757.83 150.562 732.959 154.489 702.852Z" fill="#1157B6"/>
<path d="M87.7287 575.88C89.6181 626.897 89.4737 745.613 87.7283 803.645L99.5093 806.263C95.5823 691.071 86.4197 540.537 87.7287 575.88Z" fill="#95A1F7"/>
<path d="M96.8931 744.74C109.547 736.014 136.163 714.633 141.399 698.925" stroke="#95A1F7" stroke-linecap="round"/>
<path d="M90.3499 732.96C79.9292 725.979 58.0098 708.875 53.6978 696.308" stroke="#95A1F7" stroke-linecap="round"/>
<path d="M92.968 662.274C104.877 654.296 129.928 634.748 134.856 620.386" stroke="#95A1F7" stroke-linecap="round"/>
<path d="M92.968 680.6C85.5247 675.614 56.778 628.053 53.698 619.077" stroke="#95A1F7" stroke-linecap="round"/>
<path d="M127.033 691.072C126.596 699.798 130.436 715.943 149.286 710.707" stroke="#95A1F7" stroke-width="0.5" stroke-linecap="round"/>
<path d="M108.707 709.398C108.271 718.125 112.111 734.269 130.96 729.033" stroke="#95A1F7" stroke-width="0.5" stroke-linecap="round"/>
<path d="M111.326 623.004C110.889 631.73 114.729 647.875 133.579 642.639" stroke="#95A1F7" stroke-width="0.5" stroke-linecap="round"/>
<path d="M77.2322 641.33C77.591 647.966 74.4334 660.242 58.9325 656.261" stroke="#95A1F7" stroke-width="0.5" stroke-linecap="round"/>
<path d="M71.9958 698.925C72.3546 705.561 69.1971 717.837 53.6962 713.856" stroke="#95A1F7" stroke-width="0.5" stroke-linecap="round"/>
</g>
<defs>
<linearGradient id="paint0_linear" x1="512.7" y1="680.364" x2="527.224" y2="684.338" gradientUnits="userSpaceOnUse">
<stop stop-color="#7873D7"/>
<stop offset="1" stop-color="#D7E8F7" stop-opacity="0"/>
</linearGradient>
<clipPath id="clip0">
<rect width="1045" height="783" fill="white" transform="translate(107 37)"/>
</clipPath>
</defs>
</svg>
