<?xml version="1.0" encoding="utf-8"?>
<!-- Generator: Adobe Illustrator 22.0.1, SVG Export Plug-In . SVG Version: 6.00 Build 0)  -->
<svg version="1.1" id="Layer_1" xmlns="http://www.w3.org/2000/svg" xmlns:xlink="http://www.w3.org/1999/xlink" x="0px" y="0px"
	 viewBox="0 0 1151 912" style="enable-background:new 0 0 1151 912;" xml:space="preserve">
<style type="text/css">
	.st0{fill:#EAEDFE;}
	.st1{fill:#425CB4;}
	.st2{fill:#82B7FB;filter:url(#Adobe_OpacityMaskFilter);}
	.st3{mask:url(#mask0_1_);}
	.st4{fill:#FFFFFF;}
	.st5{fill:#FFFFFF;fill-opacity:0.2;}
	.st6{fill:#FFFFFF;fill-opacity:0.5;}
	.st7{fill:#FFFFFF;stroke:#FFFFFF;}
	.st8{fill:#DCEDF4;}
	.st9{fill:#F0FAFC;}
	.st10{fill:#FDAC1A;}
	.st11{fill:#D9142B;}
	.st12{fill:#FF455B;}
	.st13{fill:#D75720;filter:url(#Adobe_OpacityMaskFilter_1_);}
	.st14{mask:url(#mask1_1_);}
	.st15{fill:#FFD262;}
	.st16{fill:#382FAC;}
	.st17{fill:#D75720;filter:url(#Adobe_OpacityMaskFilter_2_);}
	.st18{mask:url(#mask2_1_);}
	.st19{fill:#FEB261;}
	.st20{fill:#FEFFFB;filter:url(#Adobe_OpacityMaskFilter_3_);}
	.st21{mask:url(#mask3_1_);}
	.st22{fill:#FEFFFB;filter:url(#Adobe_OpacityMaskFilter_4_);}
	.st23{mask:url(#mask4_1_);}
	.st24{fill:#363636;}
	.st25{fill:#FFFFFF;fill-opacity:0.2;filter:url(#Adobe_OpacityMaskFilter_5_);}
	.st26{mask:url(#mask5_1_);}
</style>
<g>
	<path class="st0" d="M382.5,840.5c355.6,0,571.4-20.1,601.2-86.3c96.7-163.7-26.8-320.8-96.7-441.5S616.8,89.5,554.1,236.7
		c-62.6,147.2-47.1,80-124.3,147.3c-82.4,71.8-45.8,203.2-122.7,183.4c-77-19.8-89.5-66.1-161.1-33.1
		C74.5,567.4-11.5,840.5,382.5,840.5z"/>
	<polygon class="st1" points="1150.9,912 0.1,912 38.6,830.3 94.3,714.4 95.2,712.5 160.4,577 221.3,667 245,702.2 250.1,709.8 
		265.9,733.1 271.3,741 291,770.2 302,786.4 336.8,838 337.7,839.2 351.1,859.1 356.4,846.9 359.2,840.2 370.3,814.3 370.5,813.7 
		371.2,812.3 415.2,709.3 420.8,717.8 447.5,758.9 450.7,763.7 457.2,773.6 470,793.4 476.6,803.5 483.9,814.7 500.1,839.7 
		505,847.1 509.1,839.5 549.2,764.9 567.7,730.7 577.8,711.8 589,691.1 603,665.1 622.8,628.3 641.2,657.6 661.9,690.4 666.5,697.8 
		677.3,714.8 685.2,727.5 724.6,790 727.4,794.5 748.7,828.3 755,838.3 762.4,827.1 767.3,819.5 782.2,796.7 840.9,707 844.9,701 
		859.6,678.5 861.9,675 862.7,673.8 941.7,553 988,632.5 1014.1,677.3 	"/>
	<defs>
		<filter id="Adobe_OpacityMaskFilter" filterUnits="userSpaceOnUse" x="16.2" y="517.7" width="1046.6" height="294.9">
			<feColorMatrix  type="matrix" values="1 0 0 0 0  0 1 0 0 0  0 0 1 0 0  0 0 0 1 0"/>
		</filter>
	</defs>
	<mask maskUnits="userSpaceOnUse" x="16.2" y="517.7" width="1046.6" height="294.9" id="mask0_1_">
		<path class="st2" d="M160.4,577L38.6,830.3L0.1,912h1150.7L941.7,553L755,838.3l-132.2-210L505,847.1l-89.8-137.8l-64.1,149.9
			L160.4,577z"/>
	</mask>
	<g class="st3">
		<path class="st4" d="M1004.2,517.7c-2.1,0-4.1,0.1-6.2,0.3c-14.6,1.5-27.5,8.4-36.9,18.6c-8.6-4.9-18.5-7.7-29-7.7
			c-13.3,0-25.6,4.5-35.5,12c-3.3-0.5-6.8-0.8-10.2-0.8c-38.1,0-68.9,30.9-68.9,68.9c0,29.7,18.8,55,45.1,64.7
			c7.4,2.7,15.4,4.2,23.8,4.2c25.2,0,47.2-13.5,59.2-33.6c11.5-2.7,21.8-8.9,29.5-17.3c4,2.3,8.3,4.1,12.8,5.4
			c5.2,1.5,10.6,2.3,16.2,2.3c5.2,0,10.2-0.7,15-1.9c25-6.6,43.5-29.4,43.5-56.6C1062.7,543.9,1036.5,517.7,1004.2,517.7z
			 M260.5,601.5c-0.7-4.2-1.9-8.1-3.4-11.9c-8.7-21.4-29.7-36.6-54.2-36.6c-17,0-32.4,7.3-43.1,18.9c-8.6-4.9-18.5-7.7-29-7.7
			c-6.5,0-12.8,1.1-18.6,3c-6.1,2-11.8,5.1-16.8,8.9c-3.3-0.5-6.8-0.8-10.2-0.8c-38.1,0-68.9,30.8-68.9,68.9s30.8,68.9,68.9,68.9
			c2.9,0,5.8-0.2,8.6-0.5c0.5-0.1,1-0.1,1.5-0.2c20.9-3.1,38.7-15.5,49.1-32.9c11.5-2.7,21.8-8.9,29.5-17.4c8.6,4.9,18.5,7.7,29,7.7
			c6.4,0,12.6-1,18.4-3c23.3-7.7,40.1-29.7,40.1-55.5C261.4,608.1,261.1,604.8,260.5,601.5z M732.5,581.3c-2.3-1.5-4.8-2.8-7.3-3.9
			c-7.3-3.3-15.4-5.1-23.9-5.1c-3.3,0-6.5,0.3-9.6,0.8c-5,0.8-9.8,2.3-14.3,4.3c-0.2,0.1-0.4,0.2-0.6,0.3c-1.1,0.5-2.2,1.1-3.3,1.7
			c-1.2,0.6-2.3,1.3-3.4,2c-4.4,2.8-8.3,6.1-11.8,9.9c-4.9-2.8-10.2-4.9-15.9-6.2c-4.2-1-8.6-1.5-13.2-1.5c-13.3,0-25.6,4.5-35.5,12
			c-1.9-0.3-3.9-0.5-5.8-0.6c-1.5-0.1-2.9-0.1-4.4-0.1c-37.7,0-68.3,30.3-68.9,67.8c-2.7-1.8-5.6-3.5-8.5-4.8
			c-7.4-3.4-15.6-5.3-24.3-5.3c-6,0-11.9,0.9-17.4,2.6c-10,3.1-18.8,8.8-25.7,16.3c-3.4-1.9-6.9-3.5-10.7-4.8c-5.8-1.9-12-3-18.4-3
			c-13.3,0-25.6,4.5-35.5,12c-3.3-0.5-6.7-0.8-10.2-0.8c-38.1,0-68.9,30.9-68.9,68.9c0,9.8,2,19.1,5.7,27.5
			c2.4,5.6,5.6,10.8,9.4,15.5c12.6,15.8,32.1,25.9,53.8,25.9c1.5,0,3,0,4.5-0.2c0.4,0,0.8,0,1.1-0.1c0.5,0,1.1-0.1,1.6-0.1
			c14.8-1.5,28.2-7.8,38.7-17.2c5.2-4.6,9.7-10,13.3-16.1c0.5-0.1,1.1-0.3,1.6-0.4c9.9-2.6,18.8-7.9,25.9-14.9
			c0.7-0.7,1.4-1.4,2-2.1c4.2,2.4,8.8,4.3,13.6,5.7c3.9,1,7.9,1.7,12,2c1.1,0.1,2.3,0.1,3.4,0.1c0.6,0,1.2,0,1.7,0
			c29.5-0.9,53.5-23.5,56.4-52.4c8,6.5,17.4,11.3,27.7,13.7c5.1,1.2,10.4,1.8,15.8,1.8c8.1,0,15.9-1.4,23.2-4c3.1-1.1,6.1-2.5,9-4
			c3.5-1.9,6.8-4,10-6.4c2.9-2.2,5.6-4.7,8.1-7.3c3.4-3.6,6.4-7.6,9-11.9c7-1.6,13.4-4.5,19.2-8.4c3.8-2.5,7.3-5.5,10.4-8.9
			c2.5,1.4,5.1,2.7,7.8,3.7c6.6,2.6,13.7,4,21.2,4c32.3,0,58.5-26.2,58.5-58.5C759.8,609.9,748.9,591.6,732.5,581.3z"/>
	</g>
	<path class="st5" d="M995.6,912H748.4c-0.8-1.7-1.5-3.5-2.1-5.3c-0.9,1.8-1.8,3.6-2.8,5.3H585.5c0,0,0-0.1,0-0.1c0,0,0,0.1,0,0.1
		h-463c-3-8.2-4.6-17-4.6-26.2c0-41.9,33.9-75.8,75.8-75.8c0.6,0,1.3,0,1.9,0c2.2,0.1,4.4,0.2,6.6,0.4
		c19.3-24.6,49.3-40.5,83.1-40.5c2,0,4,0.1,5.9,0.2c3.3,0.2,6.5,0.5,9.7,1c28.1,4.2,52.6,19.4,68.8,41.2c0.3,0.4,0.7,0.9,1,1.3
		c0.7,0.9,1.3,1.8,1.9,2.8c1.8,2.6,3.5,5.4,5,8.2c0.6-0.1,1.2-0.2,1.7-0.3c3.7-0.6,7.5-0.9,11.3-0.9c5.2,0,10.2,0.6,15.1,1.7
		c2,0.4,3.9,1,5.8,1.6c-0.2-2.3-0.3-4.5-0.3-6.9c0-15.4,5.1-29.7,13.6-41.2c6-8.1,13.8-14.9,22.8-19.7c4.5-2.4,9.3-4.4,14.4-5.8
		c2.5-9.1,6.4-17.6,11.3-25.4c6.3-9.9,14.4-18.5,23.8-25.4c15.7-11.5,35-18.4,56-18.4c12.7,0,24.9,2.5,36,7.1
		c8.1,3.3,15.6,7.7,22.4,13.1c5.3,4.1,10.1,8.8,14.3,13.9c2.1,2.5,4.1,5.2,5.9,7.9c1.5,2.2,2.8,4.4,4.1,6.7
		c4.9-15.5,16.2-28.2,30.8-34.9c4.6-2.1,9.4-3.6,14.5-4.5c3.1-0.5,6.3-0.8,9.5-0.8c31.8,0,57.6,25.8,57.6,57.6
		c0,10.4-2.7,20.1-7.5,28.5c16.4,0.1,31.1,7,41.6,18.1c6.9,7.3,11.9,16.5,14.2,26.6c0.6,2.4,1,4.9,1.2,7.5c1.1-0.1,2.2-0.1,3.3-0.1
		c19.9,0,37.5,10.2,47.9,25.6c9.2-6.2,20.2-9.8,32.1-9.8c17.9,0,33.9,8.2,44.5,21c4.4-1.1,9-1.6,13.7-1.6
		C967,865.8,990.3,885.7,995.6,912z"/>
	<path class="st6" d="M956.2,912H150.4c-1.7-6-2.6-12.3-2.6-18.8c0-38.6,31.3-69.9,69.9-69.9c2.6,0,5.2,0.2,7.8,0.4
		c0.6-0.8,1.3-1.6,1.9-2.3c17.8-21.3,44.6-34.9,74.5-35h0.2c2.7,0,5.3,0.1,8,0.3c22.5,1.8,42.8,11.3,58.3,25.8
		c0.6,0.6,1.3,1.2,1.9,1.8c0.7,0.7,1.5,1.4,2.2,2.2c2.4,2.5,4.6,5.1,6.8,7.9c3,3.9,5.8,8.1,8.2,12.4c3.9-0.8,7.9-1.1,12.1-1.1
		c1.6,0,3.2,0.1,4.7,0.2c5.1,0.4,9.9,1.3,14.6,2.8c-0.2-2.1-0.3-4.2-0.3-6.3c0-26.3,15.9-48.9,38.7-58.6c2.6-1.1,5.3-2.1,8.1-2.8
		c0.3-1.2,0.7-2.3,1-3.5c2.3-7,5.4-13.7,9.4-19.8c4.4-7,9.8-13.3,16-18.7c15.4-13.5,35.5-21.8,57.6-21.8c10,0,19.6,1.7,28.5,4.8
		c10.7,3.7,20.5,9.4,28.8,16.7c4.8,4.2,9.1,8.9,12.9,14c2.2,3,4.2,6.1,6,9.4c0.9-3,2.1-5.8,3.6-8.5c8.9-16.9,26.6-28.5,47.1-28.5
		c0.3,0,0.7,0,1,0c2.2,0,4.4,0.2,6.5,0.5c25.8,3.6,45.6,25.8,45.6,52.6c0,7.9-1.7,15.3-4.8,22c-0.7,1.5-1.4,2.9-2.2,4.2
		c1.7,0,3.3,0.1,5,0.3c16.9,1.7,31.4,11.3,39.9,25c1.3,2.1,2.5,4.4,3.5,6.7c2.2,5,3.6,10.5,4.2,16.2c1-0.1,2-0.1,3-0.1
		c18.4,0,34.6,9.4,44.2,23.6c8.5-5.7,18.7-9,29.7-9c16.5,0,31.3,7.6,41,19.4c4-1,8.3-1.5,12.6-1.5
		C929.3,874.8,949.5,890.4,956.2,912z"/>
	<path class="st4" d="M837,912H175.3c7.6-26,31.6-45,60-45c2.4,0,4.7,0.1,7,0.4c12.9-16.5,31.7-28.2,53.2-32
		c5-0.9,10.1-1.3,15.3-1.3c9.1,0,17.8,1.4,26,4c1.5,0.4,2.9,0.9,4.3,1.5c5.4,2,10.5,4.5,15.2,7.4c12.8,7.9,23.4,19,30.7,32.2
		c3.5-0.7,7.1-1,10.8-1h0.4c5.9,0,11.5,1,16.9,2.7c-0.2-1.9-0.3-3.8-0.3-5.7c0-13,4.4-25,11.7-34.6c7.5-9.8,18-17,30.1-20.4
		c2.7-9.8,7.3-18.8,13.3-26.6c3-3.9,6.3-7.4,10-10.7c0.3-0.3,0.6-0.6,1-0.8c13.7-11.8,31.4-18.9,50.9-18.9c6,0,11.8,0.7,17.4,1.9
		c21.8,5,40.2,19.1,50.8,38.2c4-12.5,13-22.8,24.7-28.5c0.5-0.2,1-0.5,1.6-0.7c5.8-2.5,12.2-4,19-4c26.2,0,47.5,21.3,47.5,47.5
		c0,5.3-0.9,10.5-2.5,15.3c-1,2.9-2.2,5.6-3.7,8.2c4.4,0,8.7,0.7,12.7,1.8c18.6,5.3,32.5,21.5,34.3,41.3c0.9,0,1.8-0.1,2.7-0.1
		c16.5,0,31,8.4,39.5,21.1c7.6-5.1,16.7-8.1,26.5-8.1C816,897,828.3,902.8,837,912z"/>
	<polygon class="st7" points="655.9,912 454.6,912 459.5,888 469.2,840.1 476.6,803.5 480.3,785.2 480.9,781.9 483.5,769.3 
		491.7,728.8 497,702.4 506.1,657.7 521.5,581.3 522.3,577.3 525.5,561.6 526.1,558.6 527.3,552.5 578.8,552.5 580.1,558.6 
		580.8,561.6 584.2,577.3 585,581.3 587.9,594.8 603,665.1 611.3,704.1 615.7,724.5 619.6,742.5 625.4,769.9 626.3,774 639.5,835.6 
		650.8,888 	"/>
	<path class="st4" d="M396.8,888l41.5-295h18.5l36,295H396.8z"/>
	<path class="st4" d="M608.8,888l41.5-295h18.5l36,295H608.8z"/>
	<path class="st8" d="M249.9,173.3c3.8-13.5,16.2-23.3,30.9-23.3c15.6,0,28.6,11.1,31.5,25.9c2.7-0.9,5.5-1.4,8.5-1.4
		c14.4,0,26.1,11.7,26.1,26.1c0,12.4-8.6,22.7-20.1,25.4c-1.3,0.4-2.7,0.7-4.1,0.7H212.5c-7,0-12.6-5.7-12.6-12.6
		s5.7-12.6,12.6-12.6h7.3c-0.5-2-0.8-4.1-0.8-6.2c0-12.8,10.4-23.2,23.2-23.2C244.8,172,247.5,172.4,249.9,173.3z"/>
	<path class="st9" d="M282.8,187.4c3.8-13.5,16.2-23.3,30.9-23.3c15.6,0,28.6,11.1,31.5,25.9c2.7-0.9,5.5-1.4,8.5-1.4
		c14.4,0,26.1,11.7,26.1,26.1c0,12.4-8.6,22.7-20.1,25.4c-1.3,0.5-2.7,0.7-4.1,0.7H245.3c-7,0-12.6-5.7-12.6-12.6
		c0-7,5.7-12.6,12.6-12.6h7.3c-0.5-2-0.8-4.1-0.8-6.2c0-12.8,10.4-23.2,23.2-23.2C277.7,186.1,280.4,186.5,282.8,187.4z"/>
	<path class="st8" d="M799,43c1.6-5.8,7-10,13.3-10c6.7,0,12.3,4.8,13.5,11.1c1.1-0.4,2.4-0.6,3.6-0.6c6.2,0,11.2,5,11.2,11.2
		c0,5.3-3.7,9.8-8.6,10.9c-0.6,0.2-1.2,0.3-1.8,0.3h-47.4c-3,0-5.4-2.4-5.4-5.4c0-3,2.4-5.4,5.4-5.4h3.1c-0.2-0.9-0.4-1.7-0.4-2.7
		c0-5.5,4.5-10,10-10C796.8,42.4,798,42.6,799,43z"/>
	<path class="st9" d="M813.1,49.1c1.6-5.8,7-10,13.3-10c6.7,0,12.3,4.8,13.5,11.1c1.1-0.4,2.4-0.6,3.6-0.6c6.2,0,11.2,5,11.2,11.2
		c0,5.3-3.7,9.8-8.6,10.9c-0.6,0.2-1.2,0.3-1.8,0.3H797c-3,0-5.4-2.4-5.4-5.4s2.4-5.4,5.4-5.4h3.1c-0.2-0.9-0.4-1.7-0.4-2.7
		c0-5.5,4.5-10,10-10C810.9,48.5,812.1,48.7,813.1,49.1z"/>
	<path class="st8" d="M829.4,678c1.6-5.8,7-10,13.3-10c6.7,0,12.3,4.8,13.5,11.1c1.1-0.4,2.4-0.6,3.6-0.6c6.2,0,11.2,5,11.2,11.2
		c0,5.3-3.7,9.8-8.6,10.9c-0.6,0.2-1.2,0.3-1.8,0.3h-47.4c-3,0-5.4-2.4-5.4-5.4s2.4-5.4,5.4-5.4h3.1c-0.2-0.9-0.4-1.7-0.4-2.7
		c0-5.5,4.5-10,10-10C827.2,677.4,828.3,677.6,829.4,678z"/>
	<path class="st9" d="M843.5,684.1c1.6-5.8,7-10,13.3-10c6.7,0,12.3,4.8,13.5,11.1c1.1-0.4,2.4-0.6,3.6-0.6c6.2,0,11.2,5,11.2,11.2
		c0,5.3-3.7,9.8-8.6,10.9c-0.6,0.2-1.2,0.3-1.8,0.3h-47.4c-3,0-5.4-2.4-5.4-5.4s2.4-5.4,5.4-5.4h3.1c-0.2-0.9-0.4-1.7-0.4-2.7
		c0-5.5,4.5-10,10-10C841.3,683.5,842.4,683.7,843.5,684.1z"/>
	<path class="st8" d="M229.4,712c1.6-5.8,7-10,13.3-10c6.7,0,12.3,4.8,13.5,11.1c1.1-0.4,2.4-0.6,3.6-0.6c6.2,0,11.2,5,11.2,11.2
		c0,5.3-3.7,9.8-8.6,10.9c-0.6,0.2-1.2,0.3-1.8,0.3h-47.4c-3,0-5.4-2.4-5.4-5.4s2.4-5.4,5.4-5.4h3.1c-0.2-0.9-0.4-1.7-0.4-2.7
		c0-5.5,4.5-10,10-10C227.2,711.4,228.3,711.6,229.4,712z"/>
	<path class="st9" d="M243.5,718.1c1.6-5.8,7-10,13.3-10c6.7,0,12.3,4.8,13.5,11.1c1.1-0.4,2.4-0.6,3.6-0.6c6.2,0,11.2,5,11.2,11.2
		c0,5.3-3.7,9.8-8.6,10.9c-0.6,0.2-1.2,0.3-1.8,0.3h-47.4c-3,0-5.4-2.4-5.4-5.4s2.4-5.4,5.4-5.4h3.1c-0.2-0.9-0.4-1.7-0.4-2.7
		c0-5.5,4.5-10,10-10C241.3,717.5,242.4,717.7,243.5,718.1z"/>
	<g>
		<path class="st10" d="M847.3,240.7c0-13.2-6.8-13.2-13.5-13.2c13.6,0,13.6-8.3,13.6-13.1V214c0.1,13.5,7.3,13.5,13.4,13.5
			C847.6,227.5,847.3,234.9,847.3,240.7c0,0.1,0,0.2,0,0.3C847.3,240.9,847.3,240.8,847.3,240.7z"/>
	</g>
	<g>
		<path class="st10" d="M260.3,605.7c0-13.2-6.8-13.2-13.5-13.2c13.6,0,13.6-8.3,13.6-13.1V579c0.1,13.5,7.3,13.5,13.4,13.5
			C260.6,592.5,260.3,599.9,260.3,605.7c0,0.1,0,0.2,0,0.3C260.3,605.9,260.3,605.8,260.3,605.7z"/>
	</g>
	<g>
		<path class="st10" d="M247.3,92.7c0-13.2-6.8-13.2-13.5-13.2c13.6,0,13.6-8.3,13.6-13.1V66c0.1,13.5,7.3,13.5,13.4,13.5
			C247.6,79.5,247.3,86.9,247.3,92.7c0,0.1,0,0.2,0,0.3C247.3,92.9,247.3,92.8,247.3,92.7z"/>
	</g>
	<g>
		<path class="st10" d="M829.3,562.7c0-13.2-6.8-13.2-13.5-13.2c13.6,0,13.6-8.3,13.6-13.1V536c0.1,13.5,7.3,13.5,13.4,13.5
			C829.6,549.5,829.3,556.9,829.3,562.7c0,0.1,0,0.2,0,0.3C829.3,562.9,829.3,562.8,829.3,562.7z"/>
	</g>
	<g>
		<path class="st10" d="M233.3,308.7c0-13.2-6.8-13.2-13.5-13.2c13.6,0,13.6-8.3,13.6-13.1V282c0.1,13.5,7.3,13.5,13.4,13.5
			C233.6,295.5,233.3,302.9,233.3,308.7c0,0.1,0,0.2,0,0.3C233.3,308.9,233.3,308.8,233.3,308.7z"/>
	</g>
	<path class="st8" d="M939.2,456.9c-2.5-8.8-10.5-15.2-20.1-15.2c-10.1,0-18.6,7.2-20.5,16.8c-1.7-0.6-3.6-0.9-5.5-0.9
		c-9.4,0-17,7.6-17,17c0,8,5.6,14.8,13.1,16.5c0.8,0.3,1.8,0.5,2.7,0.5h71.7c4.5,0,8.2-3.7,8.2-8.2c0-4.5-3.7-8.2-8.2-8.2h-4.7
		c0.4-1.3,0.5-2.6,0.5-4c0-8.3-6.8-15.1-15.1-15.1C942.5,456,940.8,456.4,939.2,456.9z"/>
	<path class="st9" d="M917.9,466.1c-2.5-8.8-10.5-15.2-20.1-15.2c-10.1,0-18.6,7.2-20.5,16.8c-1.7-0.6-3.6-0.9-5.5-0.9
		c-9.4,0-17,7.6-17,17c0,8,5.6,14.8,13.1,16.5c0.8,0.3,1.8,0.5,2.7,0.5h71.7c4.5,0,8.2-3.7,8.2-8.2s-3.7-8.2-8.2-8.2h-4.7
		c0.4-1.3,0.5-2.6,0.5-4c0-8.3-6.8-15.1-15.1-15.1C921.2,465.2,919.5,465.5,917.9,466.1z"/>
	<path class="st11" d="M453.3,551.7l50.2-69l36.4,42.4l-83.7,50.2L453.3,551.7z"/>
	<path class="st12" d="M447.6,599h9c5.5-9.4,16.4-34.7,16.4-60.4c0-25.8-17.2-46.6-25.8-53.8v0.2v-0.2c-8.6,7.2-25.4,28.1-25.4,53.8
		c0,25.8,11,51,16.4,60.4L447.6,599L447.6,599z"/>
	<defs>
		<filter id="Adobe_OpacityMaskFilter_1_" filterUnits="userSpaceOnUse" x="366.7" y="520.2" width="163.5" height="61.1">
			<feColorMatrix  type="matrix" values="1 0 0 0 0  0 1 0 0 0  0 0 1 0 0  0 0 0 1 0"/>
		</filter>
	</defs>
	<mask maskUnits="userSpaceOnUse" x="366.7" y="520.2" width="163.5" height="61.1" id="mask1_1_">
		<path class="st13" d="M447.6,599h9c5.5-9.4,16.4-34.7,16.4-60.4c0-25.8-17.2-46.6-25.8-53.8v0.2v-0.2
			c-8.6,7.2-25.4,28.1-25.4,53.8c0,25.8,11,51,16.4,60.4L447.6,599L447.6,599z"/>
	</mask>
	<g class="st14">
		<rect x="413.9" y="520.2" class="st15" width="68.9" height="59.1"/>
		<rect x="366.7" y="520.2" class="st16" width="163.5" height="3.9"/>
		<rect x="366.7" y="577.3" class="st16" width="163.5" height="3.9"/>
	</g>
	<path class="st11" d="M652.3,551.7l-50.2-69l-36.4,42.4l83.7,50.2L652.3,551.7z"/>
	<path class="st12" d="M658,599h-9c-5.5-9.4-16.4-34.7-16.4-60.4c0-25.8,17.2-46.6,25.8-53.8v0v0c8.6,7.2,25.4,28.1,25.4,53.8
		c0,25.8-11,51-16.4,60.4H658L658,599z"/>
	<defs>
		<filter id="Adobe_OpacityMaskFilter_2_" filterUnits="userSpaceOnUse" x="575.5" y="520.2" width="163.5" height="61.1">
			<feColorMatrix  type="matrix" values="1 0 0 0 0  0 1 0 0 0  0 0 1 0 0  0 0 0 1 0"/>
		</filter>
	</defs>
	<mask maskUnits="userSpaceOnUse" x="575.5" y="520.2" width="163.5" height="61.1" id="mask2_1_">
		<path class="st17" d="M658,599h-9c-5.5-9.4-16.4-34.7-16.4-60.4c0-25.8,17.2-46.6,25.8-53.8v0v0c8.6,7.2,25.4,28.1,25.4,53.8
			c0,25.8-11,51-16.4,60.4H658L658,599z"/>
	</mask>
	<g class="st18">
		<rect x="622.8" y="520.2" class="st19" width="68.9" height="59.1"/>
		<rect x="575.5" y="520.2" class="st16" width="163.5" height="3.9"/>
		<rect x="575.5" y="577.3" class="st16" width="163.5" height="3.9"/>
	</g>
	<path class="st15" d="M551.8,558.6h-27.6C507.5,523.5,474,429.1,474,333c0-96.2,51.5-174.1,77.8-201v0c0,0,0,0,0,0c0,0,0,0,0,0v0
		c26.3,26.9,78.8,104.8,78.8,201c0,96.2-33.5,190.5-50.2,225.6h-27.6H551.8z"/>
	<path class="st19" d="M580.4,558.6h-28.6V132c26.3,26.9,78.8,104.8,78.8,201C630.6,429.1,597.1,523.5,580.4,558.6z"/>
	<defs>
		<filter id="Adobe_OpacityMaskFilter_3_" filterUnits="userSpaceOnUse" x="471.1" y="118.2" width="165.5" height="443.4">
			<feColorMatrix  type="matrix" values="1 0 0 0 0  0 1 0 0 0  0 0 1 0 0  0 0 0 1 0"/>
		</filter>
	</defs>
	<mask maskUnits="userSpaceOnUse" x="471.1" y="118.2" width="165.5" height="443.4" id="mask3_1_">
		<path class="st20" d="M551.8,558.6h-27.6C507.5,523.5,474,429.1,474,333c0-96.2,51.5-174.1,77.8-201v0c0,0,0,0,0,0c0,0,0,0,0,0v0
			c26.3,26.9,78.8,104.8,78.8,201c0,96.2-33.5,190.5-50.2,225.6h-27.6H551.8z"/>
	</mask>
	<g class="st21">
		<rect x="473" y="118.2" class="st12" width="163.5" height="116.3"/>
		<rect x="471.1" y="232.5" class="st16" width="163.5" height="11.8"/>
		<rect x="471.1" y="549.7" class="st16" width="163.5" height="11.8"/>
	</g>
	<defs>
		<filter id="Adobe_OpacityMaskFilter_4_" filterUnits="userSpaceOnUse" x="480.3" y="224.2" width="163.2" height="161.1">
			<feColorMatrix  type="matrix" values="1 0 0 0 0  0 1 0 0 0  0 0 1 0 0  0 0 0 1 0"/>
		</filter>
	</defs>
	<mask maskUnits="userSpaceOnUse" x="480.3" y="224.2" width="163.2" height="161.1" id="mask4_1_">
		<path class="st22" d="M551.8,558.6h-27.6C507.5,523.5,474,429.1,474,333c0-96.2,51.5-174.1,77.8-201v0c0,0,0,0,0,0c0,0,0,0,0,0v0
			c26.3,26.9,78.8,104.8,78.8,201c0,96.2-33.5,190.5-50.2,225.6h-27.6H551.8z"/>
	</mask>
	<g class="st23">
		<ellipse class="st24" cx="551.8" cy="301.5" rx="43.3" ry="43.4"/>
		<defs>
			<filter id="Adobe_OpacityMaskFilter_5_" filterUnits="userSpaceOnUse" x="480.3" y="224.2" width="163.2" height="161.1">
				<feColorMatrix  type="matrix" values="1 0 0 0 0  0 1 0 0 0  0 0 1 0 0  0 0 0 1 0"/>
			</filter>
		</defs>
		<mask maskUnits="userSpaceOnUse" x="480.3" y="224.2" width="163.2" height="161.1" id="mask5_1_">
			<ellipse class="st25" cx="551.8" cy="301.5" rx="43.3" ry="43.4"/>
		</mask>
		<g class="st26">
			<path class="st5" d="M570.6,224.2l19.5,19.5L499.8,334l-19.5-19.5L570.6,224.2z"/>
			<path class="st5" d="M611.8,252.3l-98.2,98.3l5.8,8.7l99.7-99.7L611.8,252.3z"/>
			<path class="st5" d="M623.3,269.7l-94.6,94.6l19.5,21l95.3-95.4L623.3,269.7z"/>
		</g>
	</g>
</g>
</svg>
