<svg width="17" height="17" viewBox="0 0 17 17" fill="none" xmlns="http://www.w3.org/2000/svg">
<path d="M11.4925 11.54C11.4925 11.54 13.7567 9.29166 14.5246 8.49999C16.955 6.12499 15.7437 1.23249 15.7437 1.23249C15.7437 1.23249 10.875 0.0212395 8.5 2.45166C6.6475 4.25666 5.44416 5.50749 5.44416 5.50749C5.44416 5.50749 2.40416 4.87416 0.583328 6.69499L10.2812 16.4167C12.1021 14.5721 11.4925 11.54 11.4925 11.54ZM10.305 4.41499C10.452 4.26778 10.6267 4.15099 10.8189 4.07131C11.0111 3.99163 11.2171 3.95062 11.4252 3.95062C11.6333 3.95062 11.8393 3.99163 12.0315 4.07131C12.2237 4.15099 12.3984 4.26778 12.5454 4.41499C12.7667 4.63649 12.9173 4.91862 12.9782 5.22571C13.0392 5.5328 13.0077 5.85106 12.8878 6.14027C12.768 6.42949 12.565 6.67667 12.3047 6.85057C12.0443 7.02447 11.7383 7.11729 11.4252 7.11729C11.1121 7.11729 10.8061 7.02447 10.5457 6.85057C10.2854 6.67667 10.0825 6.42949 9.96256 6.14027C9.84267 5.85106 9.81121 5.5328 9.87216 5.22571C9.93312 4.91862 10.0837 4.63649 10.305 4.41499ZM1.37499 15.625C2.84042 15.5832 4.24332 15.022 5.33333 14.0417L2.95833 11.6667C1.37499 12.4583 1.37499 15.625 1.37499 15.625Z" fill="white"/>
</svg>
