<svg width="500" height="280" viewBox="0 0 500 280" fill="none" xmlns="http://www.w3.org/2000/svg">
<path d="M442.412 242.4C440.519 242.023 438.595 241.819 436.664 241.789C437.194 240.281 437.618 238.737 437.934 237.169C439.565 228.999 438.145 220.514 433.943 213.319C429.742 206.125 423.049 200.72 415.133 198.128C407.216 195.536 398.624 195.936 390.982 199.252C383.34 202.568 377.178 208.571 373.662 216.124C370.601 213.4 367.004 211.347 363.101 210.098C359.199 208.85 355.078 208.432 351.004 208.873C346.931 209.314 342.995 210.604 339.45 212.659C335.905 214.715 332.83 217.49 330.423 220.806C322.741 217.698 314.173 217.583 306.41 220.482C298.647 223.381 292.252 229.084 288.486 236.467C284.72 243.85 283.857 252.376 286.067 260.364C288.276 268.352 293.399 275.222 300.423 279.619H467.53C469.086 271.357 467.32 262.815 462.618 255.847C457.915 248.879 450.655 244.047 442.412 242.4Z" fill="#D8EDEE"/>
<path d="M316.689 266.507C318.021 262.842 318.368 258.892 317.695 255.052C317.022 251.211 315.353 247.614 312.855 244.621C314.708 242.972 316.133 240.895 317.005 238.572C317.877 236.248 318.17 233.747 317.859 231.285C317.548 228.823 316.643 226.473 315.221 224.439C313.799 222.405 311.903 220.748 309.697 219.611C311.887 217.148 313.506 214.232 314.439 211.071C315.372 207.909 315.595 204.581 315.092 201.323C314.589 198.066 313.374 194.96 311.531 192.226C309.689 189.493 307.267 187.201 304.436 185.513C301.605 183.825 298.437 182.783 295.157 182.462C291.877 182.141 288.567 182.548 285.463 183.655C282.359 184.761 279.537 186.54 277.2 188.864C274.863 191.188 273.068 193.999 271.943 197.097C271.484 198.371 271.138 199.683 270.911 201.018C265.499 198.105 259.171 197.393 253.247 199.03C247.322 200.667 242.257 204.527 239.107 209.806C235.957 215.084 234.964 221.375 236.336 227.368C237.708 233.36 241.338 238.593 246.47 241.975C244.26 243.809 242.458 246.086 241.181 248.659C239.904 251.232 239.18 254.044 239.056 256.914C238.931 259.783 239.409 262.648 240.458 265.321C241.507 267.995 243.105 270.42 245.147 272.439C244.407 273.684 243.786 274.996 243.291 276.358C242.905 277.422 242.596 278.513 242.367 279.622H303.953C306.885 278.464 309.536 276.696 311.732 274.435C313.928 272.174 315.618 269.471 316.689 266.507Z" fill="#D8EDEE"/>
<path d="M431.303 229.618C434.059 227.897 437.161 226.805 440.388 226.418C443.614 226.032 446.886 226.36 449.971 227.381C453.056 228.402 455.879 230.089 458.239 232.324C460.598 234.559 462.437 237.286 463.624 240.312C464.111 241.559 464.487 242.848 464.746 244.162C470.023 241.174 476.248 240.331 482.13 241.807C488.012 243.283 493.101 246.966 496.343 252.093C499.585 257.219 500.73 263.396 499.543 269.344C498.723 273.452 497.603 276.474 496.508 279.613H431.303V229.618Z" fill="#D8EDEE"/>
<path d="M228.001 212.375C229.167 210.653 230.065 208.764 230.667 206.774C233.648 196.951 229.006 186.847 220.304 184.205C212.421 181.81 203.913 186.353 200.16 194.519C192.829 194.298 185.707 199.615 183.216 207.817C181.192 214.49 182.775 221.291 186.783 225.68C183.216 227.038 180.182 230.205 178.894 234.454C176.817 241.291 180.054 248.348 186.12 250.183C186.648 250.339 187.189 250.453 187.736 250.522C187.72 250.568 187.7 250.613 187.687 250.661C185.451 258.027 188.933 265.604 195.464 267.587C201.995 269.569 209.103 265.205 211.339 257.839C211.732 256.545 211.954 255.206 212 253.854C212.168 253.909 212.331 253.969 212.496 254.02C222.941 257.193 234.307 250.211 237.883 238.428C241.144 227.664 236.763 216.616 228.001 212.375Z" fill="#D8EDEE"/>
<path d="M236.901 246.373C236.743 240.498 235.025 234.77 231.924 229.777C228.824 224.785 224.452 220.706 219.257 217.96C214.061 215.214 208.229 213.898 202.358 214.149C196.487 214.399 190.788 216.206 185.845 219.385C185.845 219.257 185.845 219.129 185.845 219.001C185.658 212.016 183.175 205.287 178.779 199.855C174.384 194.424 168.322 190.592 161.53 188.953C154.739 187.314 147.596 187.959 141.208 190.788C134.82 193.618 129.542 198.474 126.191 204.605C123.032 203.006 119.531 202.2 115.991 202.257C112.451 202.314 108.979 203.233 105.873 204.933C102.768 206.633 100.123 209.064 98.1669 212.016C96.2111 214.968 95.0033 218.351 94.6477 221.874C87.1278 219.12 78.8474 219.292 71.4486 222.357C64.0497 225.422 58.0727 231.157 54.7028 238.423C51.3328 245.689 50.8161 253.957 53.2549 261.586C55.6937 269.216 60.9101 275.65 67.8696 279.613H210.966C218.474 277.944 225.168 273.715 229.9 267.65C234.632 261.585 237.107 254.063 236.901 246.373Z" fill="#D8EDEE"/>
<path d="M68.8774 245.027C67.5497 245.285 66.2615 245.715 65.0456 246.307C63.6222 234.361 49.9111 228.581 39.2999 230.641C28.2497 232.793 20.5305 241.837 20.8851 251.56C18.8212 251.337 15.6773 252.025 13.64 252.424C2.27088 253.778 -0.994775 266.544 -0.0010376 274.887L78.4176 265.543L76.0081 245.321C73.6881 244.659 71.244 244.558 68.8774 245.027Z" fill="#D8EDEE"/>
<path d="M243.405 135.753L204.606 254.552L296.677 250.353L255.844 135.753L243.405 135.753Z" fill="#D8EDEE"/>
<path d="M243.313 143.968L214.934 242.338L286.347 239.081L255.114 142.615L243.313 143.968Z" fill="white"/>
<path d="M424.39 235.646C417.611 232.139 409.851 231.011 402.355 232.442C394.858 233.873 388.059 237.781 383.049 243.539C380.861 240.075 377.972 237.108 374.569 234.828C371.165 232.549 367.322 231.007 363.287 230.303C359.251 229.599 355.113 229.747 351.139 230.74C347.164 231.732 343.442 233.545 340.21 236.063C334.084 231.261 326.462 228.769 318.682 229.026C310.902 229.282 303.461 232.27 297.664 237.465C291.866 242.661 288.083 249.732 286.977 257.438C285.871 265.145 287.513 272.995 291.615 279.611H439.912C443.4 271.683 443.736 262.723 440.852 254.556C437.968 246.388 432.082 239.627 424.39 235.646Z" fill="white"/>
<path d="M312.859 261.431C314.713 259.781 316.137 257.705 317.009 255.381C317.881 253.058 318.174 250.557 317.863 248.094C317.553 245.632 316.647 243.282 315.225 241.248C313.803 239.215 311.907 237.558 309.701 236.421C311.891 233.958 313.509 231.042 314.441 227.881C315.373 224.72 315.596 221.392 315.093 218.135C314.59 214.878 313.375 211.772 311.533 209.039C309.691 206.307 307.269 204.014 304.439 202.326C301.609 200.639 298.441 199.597 295.162 199.275C291.883 198.953 288.573 199.36 285.469 200.466C282.365 201.571 279.544 203.349 277.206 205.672C274.869 207.995 273.073 210.805 271.947 213.902C271.488 215.176 271.142 216.488 270.915 217.823C265.506 214.935 259.192 214.24 253.284 215.883C247.376 217.526 242.326 221.38 239.183 226.646C236.039 231.913 235.043 238.187 236.401 244.168C237.759 250.15 241.366 255.379 246.475 258.771C243.486 261.247 241.261 264.519 240.056 268.209C238.851 271.898 238.716 275.853 239.666 279.616H317.676C318.247 276.417 318.112 273.131 317.28 269.99C316.447 266.849 314.939 263.927 312.859 261.431Z" fill="white"/>
<path d="M430.827 245.591C435.46 243.493 440.674 243.054 445.592 244.347C450.511 245.64 454.835 248.586 457.838 252.692C458.627 253.775 459.318 254.926 459.902 256.132C460.694 255.356 461.541 254.637 462.436 253.982C466.413 251.07 471.201 249.476 476.13 249.423C481.058 249.371 485.879 250.862 489.918 253.687C493.957 256.513 497.01 260.532 498.65 265.18C500.291 269.829 500.436 274.874 499.065 279.609H430.827V245.591Z" fill="white"/>
<path d="M233.849 272.579C233.75 271.23 233.475 269.9 233.031 268.623C233.209 268.623 233.381 268.612 233.553 268.599C244.441 267.798 252.533 257.193 251.633 244.912C250.804 233.685 242.737 224.949 233.04 224.151C233.506 222.128 233.664 220.046 233.509 217.976C232.757 207.739 224.789 199.983 215.712 200.654C207.496 201.258 201.193 208.56 200.63 217.531C193.709 219.957 188.982 227.488 189.606 236.038C190.12 242.993 194.042 248.766 199.365 251.426C196.525 253.975 194.836 258.026 195.162 262.453C195.689 269.587 201.241 274.992 207.565 274.526C208.114 274.481 208.659 274.392 209.194 274.26C209.194 274.308 209.194 274.357 209.194 274.405C209.326 276.209 209.774 277.976 210.517 279.625H232.713C233.645 277.4 234.034 274.985 233.849 272.579Z" fill="white"/>
<path d="M71.9671 257.972C70.6182 258.071 69.2882 258.346 68.0108 258.79C68.0108 246.759 55.0798 239.398 44.2995 240.187C33.0723 241.016 24.3372 249.084 23.5389 258.781C21.516 258.315 18.3127 258.626 16.2426 258.781C4.793 258.781 0.0399577 271.07 0.0395508 279.473L79.0129 279.473L79.0129 259.107C76.7876 258.176 74.3725 257.787 71.9671 257.972Z" fill="white"/>
<path d="M250.489 273.869C250.33 267.994 248.613 262.266 245.513 257.274C242.412 252.281 238.041 248.202 232.845 245.456C227.65 242.71 221.818 241.394 215.947 241.645C210.076 241.895 204.378 243.702 199.435 246.881C199.435 246.753 199.435 246.625 199.435 246.497C199.244 239.515 196.759 232.79 192.365 227.361C187.97 221.933 181.91 218.104 175.121 216.465C168.332 214.827 161.193 215.47 154.807 218.296C148.42 221.123 143.142 225.974 139.789 232.101C136.63 230.502 133.129 229.696 129.59 229.754C126.05 229.811 122.577 230.729 119.471 232.429C116.366 234.13 113.721 236.561 111.765 239.512C109.809 242.464 108.602 245.848 108.246 249.371C103.401 247.593 98.1969 247.018 93.0805 247.693C87.964 248.368 83.0875 250.274 78.8689 253.248C74.6504 256.221 71.2155 260.173 68.8587 264.765C66.502 269.357 65.2936 274.452 65.3371 279.614H250.151C250.429 277.712 250.542 275.79 250.489 273.869Z" fill="white"/>
<path d="M284.796 144.635L267.202 120.989L254.435 135.532L283.761 152.777L284.796 144.635Z" fill="#D56627"/>
<path d="M215.1 144.635L232.7 120.964L245.467 135.507L216.135 152.752L215.1 144.635Z" fill="#D56627"/>
<path fill-rule="evenodd" clip-rule="evenodd" d="M213.084 160.893H216.245C218.162 157.665 222.003 148.99 222.003 140.15C222.003 131.31 215.981 124.143 212.974 121.668C209.966 124.118 204.06 131.304 204.06 140.15C204.06 148.996 207.895 157.665 209.813 160.893H213.084Z" fill="#BC3647"/>
<mask id="mask0" style="mask-type:alpha" maskUnits="userSpaceOnUse" x="203" y="121" width="19" height="41">
<path fill-rule="evenodd" clip-rule="evenodd" d="M212.993 161.129H216.154C218.071 157.901 221.912 149.226 221.912 140.386C221.912 131.546 215.89 124.379 212.883 121.904C209.875 124.354 203.969 131.54 203.969 140.386C203.969 149.232 207.804 157.901 209.721 161.129H212.993Z" fill="#BC3647"/>
</mask>
<g mask="url(#mask0)">
<path d="M225.454 133.837H201.299V154.126H225.454V133.837Z" fill="#F99E1C"/>
<path d="M242.012 133.837H184.734V135.191H242.012V133.837Z" fill="#A01D20"/>
<path d="M242.012 153.446H184.734V154.8H242.012V153.446Z" fill="#A01D20"/>
</g>
<path fill-rule="evenodd" clip-rule="evenodd" d="M286.811 160.893H283.65C281.732 157.665 277.897 148.99 277.897 140.15C277.897 131.31 283.913 124.143 286.927 121.668C289.935 124.118 295.841 131.304 295.841 140.15C295.841 148.996 292 157.665 290.082 160.893H286.811Z" fill="#BC3647"/>
<mask id="mask1" style="mask-type:alpha" maskUnits="userSpaceOnUse" x="278" y="121" width="19" height="41">
<path fill-rule="evenodd" clip-rule="evenodd" d="M287.006 161.129H283.845C281.927 157.901 278.092 149.226 278.092 140.386C278.092 131.546 284.108 124.379 287.122 121.904C290.13 124.354 296.036 131.54 296.036 140.386C296.036 149.232 292.195 157.901 290.277 161.129H287.006Z" fill="#BC3647"/>
</mask>
<g mask="url(#mask1)">
<path d="M298.595 133.837H274.44V154.126H298.595V133.837Z" fill="#F58227"/>
<path d="M315.159 133.837H257.88V135.191H315.159V133.837Z" fill="#A01D20"/>
<path d="M315.159 153.446H257.88V154.8H315.159V153.446Z" fill="#A01D20"/>
</g>
<path fill-rule="evenodd" clip-rule="evenodd" d="M249.615 147.03H239.942C234.079 134.968 222.348 102.597 222.348 69.5901C222.348 38.1643 238.735 12.4361 248.236 2.05922C248.985 1.24071 250.244 1.24064 250.995 2.05812C260.522 12.4347 277.182 38.169 277.182 69.5901C277.182 102.591 265.451 134.968 259.588 147.03H249.615Z" fill="#F99E1C"/>
<path d="M259.611 147.03H249.613V1.45377C250.324 1.45377 250.691 1.74688 251.133 2.2233C260.647 12.474 277.181 38.084 277.181 69.5901C277.181 102.591 265.474 134.968 259.611 147.03Z" fill="#F36E21"/>
<mask id="mask2" style="mask-type:alpha" maskUnits="userSpaceOnUse" x="222" y="0" width="55" height="148">
<path fill-rule="evenodd" clip-rule="evenodd" d="M249.597 147.028H239.945C234.128 134.916 222.543 102.411 222.543 69.266C222.543 37.7299 238.781 11.9075 248.21 1.47424C248.961 0.643939 250.233 0.643865 250.985 1.47313C260.44 11.9062 276.949 37.7346 276.949 69.266C276.949 102.405 265.42 134.916 259.603 147.028H249.597Z" fill="#654415"/>
</mask>
<g mask="url(#mask2)">
<path d="M278.402 -4.28851H221.123V35.6107H278.402V-4.28851Z" fill="#ED174B"/>
<path d="M278.592 35.1016H221.313V39.1571H278.592V35.1016Z" fill="#A01D20"/>
<path d="M278.592 143.916H221.313V147.971H278.592V143.916Z" fill="#A01D20"/>
</g>
<path d="M249.602 73.6538C257.985 73.6538 264.782 66.9917 264.782 58.7735C264.782 50.5554 257.985 43.8932 249.602 43.8932C241.218 43.8932 234.421 50.5554 234.421 58.7735C234.421 66.9917 241.218 73.6538 249.602 73.6538Z" fill="#222237"/>
<mask id="mask3" style="mask-type:alpha" maskUnits="userSpaceOnUse" x="234" y="44" width="31" height="30">
<path d="M249.782 73.8708C258.166 73.8708 264.963 67.2086 264.963 58.9905C264.963 50.7723 258.166 44.1102 249.782 44.1102C241.398 44.1102 234.602 50.7723 234.602 58.9905C234.602 67.2086 241.398 73.8708 249.782 73.8708Z" fill="#373636"/>
</mask>
<g mask="url(#mask3)">
<path d="M256.186 32.245L263.023 38.9408L231.394 69.9327L224.557 63.243L256.186 32.245Z" fill="white" fill-opacity="0.2"/>
<path d="M270.615 41.9104L236.199 75.6345L238.226 78.6118L273.145 44.3915L270.615 41.9104Z" fill="white" fill-opacity="0.2"/>
<path d="M274.663 47.8471L241.514 80.3154L248.345 87.5013L281.744 54.7696L274.663 47.8471Z" fill="white" fill-opacity="0.2"/>
</g>
</svg>
