<?xml version="1.0" encoding="utf-8"?>
<!-- Generator: Adobe Illustrator 22.0.1, SVG Export Plug-In . SVG Version: 6.00 Build 0)  -->
<svg version="1.1" id="Layer_1" xmlns="http://www.w3.org/2000/svg" xmlns:xlink="http://www.w3.org/1999/xlink" x="0px" y="0px"
	 viewBox="0 0 650 482" style="enable-background:new 0 0 650 482;" xml:space="preserve">
<style type="text/css">
	.st0{opacity:0.6;fill:#EAEDFE;enable-background:new    ;}
	.st1{opacity:0.9;}
	.st2{fill:#5A92FF;}
	.st3{fill:none;stroke:#000000;}
	.st4{fill:#00AE87;}
	.st5{fill:#83B8FB;}
	.st6{fill:none;stroke:#041335;}
	.st7{fill:#5C88DF;}
	.st8{fill:none;stroke:#4162B4;}
	.st9{fill:#3160BB;}
	.st10{fill:#2F4CAC;}
	.st11{fill:#6A91E0;}
	.st12{fill:#4773CC;}
	.st13{fill:#4147C9;}
	.st14{fill:#293159;}
	.st15{fill:none;stroke:#0BDEAF;stroke-width:3;stroke-dasharray:12,12;}
	.st16{fill:#C5CCE7;}
	.st17{fill:#F6F7FB;}
	.st18{fill:#D63838;}
	.st19{fill:#DFDFDF;}
	.st20{fill:#3BD638;}
	.st21{fill:#999EB1;}
	.st22{fill:#A9B1D0;}
	.st23{fill:#FFFFFF;}
	.st24{fill:#CDE7FF;}
	.st25{fill:#274C97;}
	.st26{fill:#1A7BBF;filter:url(#Adobe_OpacityMaskFilter);}
	.st27{mask:url(#mask0_1_);}
	.st28{fill:none;stroke:#FFFFFF;stroke-width:0.4;stroke-opacity:0.2;}
	.st29{fill:none;stroke:#FFFFFF;}
	.st30{fill:none;stroke:#FFFFFF;stroke-dasharray:4,4;}
	.st31{fill:#FFCDD6;}
	.st32{fill:#1978DC;fill-opacity:0.38;}
	.st33{fill:#B1D7FF;}
	.st34{fill:#FFFFFF;fill-opacity:0.25;}
	.st35{fill:none;stroke:#B1D7FF;}
	.st36{fill:none;stroke:#FFB800;stroke-width:2;}
	.st37{fill:#FFB800;}
	.st38{fill:#62A2F4;}
	.st39{fill:none;stroke:#FFFFFF;stroke-opacity:0.32;}
	.st40{fill:#569BF4;}
	.st41{fill:#82B7FB;}
	.st42{fill:none;stroke:#FFFFFF;stroke-width:2;stroke-linejoin:round;stroke-opacity:0.19;}
	.st43{fill:#E92476;}
	.st44{fill:#E92476;filter:url(#Adobe_OpacityMaskFilter_1_);}
	.st45{mask:url(#mask1_1_);}
	.st46{fill:#D2055B;}
	.st47{fill:#F27CAD;}
	.st48{fill:#EF937E;}
	.st49{fill:#EA596A;}
	.st50{fill:#393939;}
	.st51{fill:#1D104A;}
	.st52{fill:#79C7CE;filter:url(#Adobe_OpacityMaskFilter_2_);}
	.st53{mask:url(#mask2_1_);}
	.st54{fill:#262626;}
	.st55{fill:#FC7383;}
	.st56{fill:#F3AEAE;}
	.st57{fill:#EE9F86;}
	.st58{fill:#333333;}
	.st59{fill:#FEAF22;}
	.st60{fill:#04138A;}
	.st61{fill:#030E68;}
	.st62{fill:#EE9D0C;}
	.st63{fill:#B88B60;}
	.st64{fill:#EA8F72;}
	.st65{fill:#7873D7;}
	.st66{fill:#DEECF9;filter:url(#Adobe_OpacityMaskFilter_3_);}
	.st67{mask:url(#mask3_1_);}
	.st68{fill:#BFCEE1;fill-opacity:0.3;}
	.st69{fill:none;stroke:#6762D1;}
	.st70{fill:#7D809D;}
	.st71{fill:url(#SVGID_1_);}
	.st72{fill:#7873D7;filter:url(#Adobe_OpacityMaskFilter_4_);}
	.st73{mask:url(#mask4_1_);}
	.st74{fill:none;stroke:#47484A;stroke-width:7;}
	.st75{fill:#47484A;}
	.st76{fill:#A6A6A6;}
	.st77{fill:#D9142B;}
	.st78{fill:#FF455B;}
	.st79{fill:#D75720;filter:url(#Adobe_OpacityMaskFilter_5_);}
	.st80{mask:url(#mask5_1_);}
	.st81{fill:#FFD262;}
	.st82{fill:#382FAC;}
	.st83{fill:#D75720;filter:url(#Adobe_OpacityMaskFilter_6_);}
	.st84{mask:url(#mask6_1_);}
	.st85{fill:#FEB261;}
	.st86{fill:#FEFFFB;filter:url(#Adobe_OpacityMaskFilter_7_);}
	.st87{mask:url(#mask7_1_);}
	.st88{fill:#FEFFFB;filter:url(#Adobe_OpacityMaskFilter_8_);}
	.st89{mask:url(#mask8_1_);}
	.st90{fill:#363636;}
	.st91{fill:#FFFFFF;fill-opacity:0.2;filter:url(#Adobe_OpacityMaskFilter_9_);}
	.st92{mask:url(#mask9_1_);}
	.st93{fill:#FFFFFF;fill-opacity:0.2;}
	.st94{fill:none;stroke:#FFFFFF;stroke-dasharray:6,6;}
	.st95{opacity:0.5;}
	.st96{fill:#E1E4FE;}
	.st97{fill:#EDEEF9;}
</style>
<path class="st0" d="M207.6,379.5h373c64.8-109.4,5.8-199.4-41-280.1C492.8,18.7,358.4-49.8,316.4,48.6
	c-42,98.3-31.6,53.5-83.3,98.4c-55.2,48-30.7,135.8-82.3,122.6c-51.6-13.3-60-44.2-108-22.1C-5.2,269.6-56.5,379.5,207.6,379.5z"/>
<g class="st1">
	<path class="st2" d="M28.1,342.3c1.5,7.4-2.1,23.7-28.1,29C1,363.5,7.9,346.7,28.1,342.3z"/>
	<path class="st3" d="M165.5,445c-11.6-22.4-44.3-74-82.7-101.2c-48-34-34.7-89-24-103"/>
	<path class="st3" d="M81.4,342.9c-6.5-5.2-27.6-12.6-52.7,0 M461.1,403.1c18.5-6.4,58.2-39.4,69.4-120.4"/>
	<path class="st2" d="M55.7,245.9c-2.9-6.7-2.7-23.6,21.4-37.5C77.7,216.3,74.3,234.8,55.7,245.9z"/>
	<path class="st4" d="M529.5,284.4c-2.2-5-2-17.6,15.9-28C545.9,262.3,543.4,276.1,529.5,284.4z"/>
	<path class="st4" d="M526.8,246.2c1.1,5.5-1.6,17.6-20.9,21.6C506.6,262,511.7,249.5,526.8,246.2z"/>
	<path class="st3" d="M465.1,336.8c0-16.3,8.5-53.2,42.7-70.7"/>
	<path class="st3" d="M484.5,285.3c5.3-9.6,12.4-33.3-2-51.5"/>
	<path class="st4" d="M482.9,235.2c-4.2-1.5-10.9-10.6-3.9-34.5C482.6,204.4,488.3,216.4,482.9,235.2z"/>
	<path class="st5" d="M126.9,413.1c51.7,56.7,85.8,44.1,95.8,32.7c6.2-12.3-45.4-132.2-126.2-155.8c-80.8-23.6-100.2,36.2-76.2,53.6
		C32.9,352.6,106.5,383.5,126.9,413.1z"/>
	<path class="st6" d="M208.5,435c-10.3-34.9-59.2-105.3-172.3-108.1"/>
	<path class="st7" d="M102.4,384.9c-4.3,64.1,59.3,73.1,91.7,69.6c10.8-1.7,31.3-18.8,27-73.1c-4.3-54.3-53.1-110.9-77-132.3
		c-33.9-22.9-95.4-53.1-70.1,9.6C105.5,337,107.8,304.8,102.4,384.9z"/>
	<path class="st8" d="M86.4,256.2c26.1,18.3,84.2,81,107.5,185"/>
	<path class="st9" d="M444.5,453.9c0.4,0,0.9,0,1.3,0.1c6.6-24.9,16.1-61.4,18.6-76.7c3.5-21.3,42.9-1.6,47.1-32.2
		s5.9-38.1,15.8-40.3c9.9-2.2,15.5,35.2,34.9-2.7s42.1-34.2,49.4-33.5c7.2,0.6,12.6,1.8-24.2,49.8c-36.8,48-11.7,31.4-4.6,67
		c7.2,35.6-41.1,33.2-51,31.9c-9.9-1.2,2.6,29.8-5,39.7c-6,7.8-54.9-1.6-80.9-3.1c-0.8,2.8-1.5,5.5-2.1,8L444.5,453.9z"/>
	<path class="st10" d="M529.5,373c10.3-35.6,38.4-56.1,51.1-61.8l-0.3-0.9c-12.9,5.9-41.3,26.5-51.7,62.6c-3.2,11.2-5.8,19-8.1,24.4
		c-2.3,5.5-4.4,8.6-6.5,10.6c-2.2,2-4.5,2.9-7.5,3.8c-0.6,0.2-1.2,0.3-1.8,0.5c-2,0.6-4.4,1.2-7,2.2l-0.3-35.6l-1,0.1l0.3,35.9
		c-0.4,0.2-0.8,0.3-1.3,0.5c-7.4,3.1-13,9.7-17,16.6c-4,6.9-6.3,14.2-7.3,18.8l1,0.1c1-4.5,3.3-11.7,7.2-18.5
		c3.9-6.8,9.3-13.2,16.4-16.2c3.6-1.5,6.6-2.4,9.2-3.1h0c0.6-0.2,1.3-0.4,1.9-0.5c3-0.9,5.5-1.8,7.9-4c2.3-2.2,4.5-5.5,6.8-11
		C523.7,392,526.3,384.2,529.5,373z"/>
	<path class="st11" d="M428.5,342.3c-38.5,83.6,1.6,111.2,26.4,114.5c4.7,1,9.3-2.1,11-3.7c18.5-34.8,0.9-70.4-10.3-83.8l-6.6,2.5
		V363l-10.3-10.4L428.5,342.3z"/>
	<path class="st12" d="M431.5,382.1c0.8,5.3,1.8,10.8,2.9,16.2c4.4,20.4,11.9,40.6,23.8,52l0.7-0.7c-2.7-2.6-5.2-5.6-7.5-9l8.3-35.8
		l-1-0.2l-8.1,34.8c-4.3-6.8-7.9-15-10.7-23.8l0,0l8.4-34.1l-1-0.2l-8,32.5c-1.6-5.1-2.9-10.4-4.1-15.7c-1.2-5.4-2.1-10.8-2.9-16.1
		l5.8-23.8l-1-0.2l-5.2,21.3c-1.9-13.7-2.6-26.4-2.6-35.4h-1c0,9.5,0.8,23.3,3,38L431.5,382.1L431.5,382.1z"/>
	<path class="st13" d="M41.3,453.4h556.3c2.4,0,4.3,1.9,4.3,4.2l0,0c0,2.3-1.9,4.2-4.3,4.2H41.3c-2.4,0-4.3-1.9-4.3-4.2l0,0
		C37,455.3,38.9,453.4,41.3,453.4z"/>
	<path class="st10" d="M133,453h17h17c4.9-26.1,11.2-94.5,3.1-117c-10.1-28.2-12.4-53.7-63.5-55.4C63.7,279.1,106.4,397.6,133,453z"
		/>
	<path class="st14" d="M149.1,452.1L149.1,452.1l0.4,0l0.6,0c0.1-7.9,0.7-19.7,2-29.3c0.7-4.8,1.5-9,2.6-12c0.5-1.5,1.1-2.6,1.7-3.3
		c0.6-0.7,1.1-0.9,1.6-0.8l0.2-1c-1-0.2-1.9,0.2-2.6,1.1c-0.7,0.8-1.3,2.1-1.9,3.6c-1.1,3-1.9,7.4-2.6,12.2
		c-0.9,6.6-1.5,14.1-1.8,20.7c-1.3-14.9-3.3-34.1-5.9-53.6c-0.2-4.1,0.1-9.8,1.3-15.3c1.6-7.7,4.9-14.9,10.6-18l-0.5-0.9
		c-6.1,3.3-9.4,11-11.1,18.7c-0.6,3-1,6-1.2,8.7c-0.5-3.4-1-6.9-1.5-10.3c-1.9-12.8-4.1-25.3-6.5-36.2l0.1,0
		c-0.1-0.2-0.1-0.3-0.2-0.5c-0.3-1.2-0.5-2.4-0.8-3.6c-2.8-11.9-5.8-21.6-9.1-27.7l-0.9,0.5c3.2,5.9,6.2,15.6,9,27.4
		c0,0.1,0.1,0.2,0.1,0.3c-2.8-4.1-8.4-9.4-17.8-12.6l-0.3,0.9c11.7,4,17.3,11.4,18.9,15c2.4,11,4.6,23.6,6.6,36.5
		c0.9,5.6,1.7,11.3,2.4,16.9c0.1,1.6,0.2,3,0.5,4.2l0.1,0c2.5,19.1,4.4,37.6,5.6,51.8c-1-6.9-2.8-15.9-5.6-25.3
		c-3.7-12.5-9.2-25.8-17-35.7l-0.8,0.6c7.7,9.8,13.2,22.9,16.9,35.4c3.7,12.5,5.6,24.2,6.3,31.2L149.1,452.1L149.1,452.1
		L149.1,452.1L149.1,452.1z"/>
</g>
<path class="st15" d="M222.6,129H79.9C65.6,129,54,140.6,54,154.9l0,0c0,14.3,11.6,25.9,25.9,25.9h92c20.6,0,37.3,16.7,37.3,37.3
	l0,0c0,20.6-16.7,37.3-37.3,37.3h-123c-10.5,0-18.9,8.5-18.9,18.9l0,0c0,10.5,8.5,18.9,18.9,18.9h191"/>
<rect x="104.2" y="174" class="st16" width="450.6" height="279.4"/>
<rect x="110.9" y="198.2" class="st17" width="436.2" height="247.7"/>
<ellipse class="st18" cx="118.3" cy="186.1" rx="4.5" ry="4.9"/>
<ellipse class="st19" cx="132.7" cy="186.1" rx="4.5" ry="4.9"/>
<ellipse class="st20" cx="147.2" cy="186.1" rx="4.5" ry="4.9"/>
<rect x="110.8" y="197.4" class="st21" width="120" height="247.5"/>
<rect x="111.4" y="270.8" class="st22" width="119" height="26.6"/>
<g>
	<path class="st23" d="M387.3,221.7h147.4c1.1,0,2,0.9,2,2V273c0,1.1-0.9,2-2,2H387.3c-1.1,0-2-0.9-2-2v-49.2
		C385.3,222.6,386.2,221.7,387.3,221.7z"/>
</g>
<ellipse class="st23" cx="130.2" cy="283.7" rx="7.1" ry="8"/>
<path class="st23" d="M142.4,280.5h58.1c0.9,0,1.6,0.7,1.6,1.6l0,0c0,0.9-0.7,1.6-1.6,1.6h-58.1c-0.9,0-1.6-0.7-1.6-1.6l0,0
	C140.8,281.2,141.5,280.5,142.4,280.5z"/>
<path class="st23" d="M142.4,284.5h15.1c0.9,0,1.6,0.7,1.6,1.6l0,0c0,0.9-0.7,1.6-1.6,1.6h-15.1c-0.9,0-1.6-0.7-1.6-1.6l0,0
	C140.8,285.2,141.5,284.5,142.4,284.5z"/>
<ellipse class="st24" cx="461" cy="236" rx="7.2" ry="8.2"/>
<path class="st25" d="M150.9,219.5l145.5-1.6l2.4,196.2l-145.5,1.8L150.9,219.5z"/>
<defs>
	<filter id="Adobe_OpacityMaskFilter" filterUnits="userSpaceOnUse" x="117.2" y="218.7" width="204.2" height="197.7">
		<feColorMatrix  type="matrix" values="1 0 0 0 0  0 1 0 0 0  0 0 1 0 0  0 0 0 1 0"/>
	</filter>
</defs>
<mask maskUnits="userSpaceOnUse" x="117.2" y="218.7" width="204.2" height="197.7" id="mask0_1_">
	<path class="st26" d="M150.9,218.2l145.4-1.6l2.4,196.2l-145.5,1.8L150.9,218.2z"/>
</mask>
<g class="st27">
	<line class="st28" x1="151.9" y1="220.6" x2="154.7" y2="416"/>
	<line class="st28" x1="156.7" y1="220.5" x2="159.5" y2="415.9"/>
	<line class="st28" x1="161.5" y1="220.5" x2="164.3" y2="415.8"/>
	<line class="st28" x1="166.2" y1="220.4" x2="169" y2="415.8"/>
	<line class="st28" x1="171" y1="221" x2="173.8" y2="416.4"/>
	<line class="st28" x1="175.8" y1="220.9" x2="178.6" y2="416.3"/>
	<line class="st28" x1="180.5" y1="220.9" x2="183.3" y2="416.2"/>
	<line class="st28" x1="185.3" y1="220.8" x2="188.1" y2="416.2"/>
	<line class="st28" x1="190.1" y1="220.7" x2="192.9" y2="416.1"/>
	<line class="st28" x1="194.8" y1="220.7" x2="197.6" y2="416"/>
	<line class="st28" x1="199.6" y1="220.6" x2="202.4" y2="416"/>
	<line class="st28" x1="204.4" y1="220.5" x2="207.1" y2="415.9"/>
	<line class="st28" x1="209.1" y1="220.5" x2="211.9" y2="415.8"/>
	<line class="st28" x1="213.9" y1="220.4" x2="216.7" y2="415.8"/>
	<line class="st28" x1="218.6" y1="220.3" x2="221.4" y2="415.7"/>
	<line class="st28" x1="223.4" y1="220.3" x2="226.2" y2="415.6"/>
	<line class="st28" x1="228.2" y1="220.2" x2="231" y2="415.6"/>
	<line class="st28" x1="232.9" y1="220.1" x2="235.7" y2="415.5"/>
	<line class="st28" x1="237.7" y1="220.1" x2="240.5" y2="415.4"/>
	<line class="st28" x1="242.5" y1="220" x2="245.3" y2="415.4"/>
	<line class="st28" x1="247.5" y1="218.9" x2="250.3" y2="414.3"/>
	<line class="st28" x1="252.3" y1="218.8" x2="255.1" y2="414.2"/>
	<line class="st28" x1="257" y1="218.7" x2="259.8" y2="414.1"/>
	<line class="st28" x1="261.8" y1="218.7" x2="264.6" y2="414.1"/>
	<line class="st28" x1="266.6" y1="219.3" x2="269.4" y2="414.7"/>
	<line class="st28" x1="271.3" y1="219.2" x2="274.1" y2="414.6"/>
	<line class="st28" x1="276.1" y1="219.1" x2="278.9" y2="414.5"/>
	<line class="st28" x1="280.9" y1="219.1" x2="283.7" y2="414.5"/>
	<line class="st28" x1="285.6" y1="219" x2="288.4" y2="414.4"/>
	<line class="st28" x1="290.4" y1="219" x2="293.2" y2="414.3"/>
	<line class="st28" x1="319.6" y1="247.3" x2="123.5" y2="250.1"/>
	<line class="st28" x1="318" y1="241.3" x2="122" y2="244"/>
	<line class="st28" x1="315.7" y1="234.9" x2="119.7" y2="237.7"/>
	<line class="st28" x1="314.6" y1="227.7" x2="118.6" y2="230.5"/>
	<line class="st28" x1="313.2" y1="221" x2="117.2" y2="223.8"/>
	<line class="st28" x1="319.6" y1="252" x2="123.6" y2="254.8"/>
	<line class="st28" x1="319.7" y1="256.8" x2="123.7" y2="259.6"/>
	<line class="st28" x1="319.8" y1="261.5" x2="123.7" y2="264.3"/>
	<line class="st28" x1="319.1" y1="266.3" x2="123.1" y2="269.1"/>
	<line class="st28" x1="319.2" y1="271" x2="123.2" y2="273.8"/>
	<line class="st28" x1="319.3" y1="275.8" x2="123.3" y2="278.6"/>
	<line class="st28" x1="319.4" y1="280.5" x2="123.3" y2="283.3"/>
	<line class="st28" x1="319.4" y1="285.3" x2="123.4" y2="288.1"/>
	<line class="st28" x1="319.5" y1="290" x2="123.5" y2="292.8"/>
	<line class="st28" x1="319.6" y1="294.8" x2="123.5" y2="297.6"/>
	<line class="st28" x1="319.6" y1="299.5" x2="123.6" y2="302.3"/>
	<line class="st28" x1="319.7" y1="304.3" x2="123.7" y2="307.1"/>
	<line class="st28" x1="319.8" y1="309" x2="123.7" y2="311.8"/>
	<line class="st28" x1="319.8" y1="313.8" x2="123.8" y2="316.6"/>
	<line class="st28" x1="319.9" y1="318.5" x2="123.9" y2="321.3"/>
	<line class="st28" x1="320" y1="323.3" x2="123.9" y2="326.1"/>
	<line class="st28" x1="320" y1="328" x2="124" y2="330.8"/>
	<line class="st28" x1="320.1" y1="332.8" x2="124.1" y2="335.5"/>
	<line class="st28" x1="320.2" y1="337.5" x2="124.1" y2="340.3"/>
	<line class="st28" x1="321.3" y1="342.5" x2="125.2" y2="345.3"/>
	<line class="st28" x1="321.3" y1="347.3" x2="125.3" y2="350.1"/>
	<line class="st28" x1="321.4" y1="352" x2="125.4" y2="354.8"/>
	<line class="st28" x1="321.5" y1="356.8" x2="125.4" y2="359.6"/>
	<line class="st28" x1="320.9" y1="361.5" x2="124.8" y2="364.3"/>
	<line class="st28" x1="320.9" y1="366.3" x2="124.9" y2="369.1"/>
	<line class="st28" x1="321" y1="371" x2="125" y2="373.8"/>
	<line class="st28" x1="321.1" y1="375.8" x2="125" y2="378.6"/>
	<line class="st28" x1="321.1" y1="380.5" x2="125.1" y2="383.3"/>
	<line class="st28" x1="321.2" y1="385.3" x2="125.2" y2="388.1"/>
	<line class="st28" x1="321.3" y1="390.5" x2="125.3" y2="393.3"/>
	<line class="st28" x1="320.6" y1="396.9" x2="124.6" y2="399.7"/>
	<line class="st28" x1="319" y1="405.1" x2="122.9" y2="407.9"/>
</g>
<path class="st29" d="M182.5,377l9.1-14.5l4.6,14.2l-15.1,9.8L182.5,377z"/>
<path class="st23" d="M176.8,397.3l0,0.5l0.3,0l0.1-0.2L176.8,397.3z M173.8,397.3l0-0.5l-0.5,0l0,0.5H173.8z M173.8,359.3l0.3-0.4
	l-0.8-0.7l0,1.1L173.8,359.3z M173.8,359.8l-0.5,0l1,0L173.8,359.8z M173.8,359.3l0.5,0l0-1.1l-0.8,0.7L173.8,359.3z M170.6,397.3
	l-0.4,0.3l0.1,0.2l0.3,0L170.6,397.3z M173.8,397.3l0,0.5l0.5,0v-0.5H173.8z M176.8,396.8l-3,0l0,1l3,0L176.8,396.8z M181.8,377.2
	c0,8.5-3.7,16.8-5.5,19.8l0.9,0.5c1.9-3.2,5.6-11.7,5.6-20.3L181.8,377.2z M173.5,359.7c2.8,2.4,8.4,9.2,8.4,17.6l1,0
	c0-8.8-5.8-15.9-8.7-18.3L173.5,359.7z M174.3,359.8l0-0.5l-1,0l0,0.5L174.3,359.8z M174.3,359.8l0-0.5l-1,0l0,0.5L174.3,359.8z
	 M173.5,358.9c-2.9,2.4-8.7,9.5-8.8,18.3l1,0c0-8.4,5.6-15.2,8.4-17.5L173.5,358.9z M164.7,377.2c0,8.7,3.6,17.2,5.5,20.4l0.9-0.5
	c-1.8-3.1-5.4-11.4-5.3-19.9L164.7,377.2z M170.6,397.8l3.1,0l0-1l-3.1,0L170.6,397.8z M174.3,397.3L174.3,397.3l-1,0v0L174.3,397.3
	z"/>
<path class="st29" d="M235.5,377.1l-8.8-15.7l-5.8,16.4l15.9,10.1L235.5,377.1z"/>
<path class="st23" d="M247.2,397.6l0.4,0.3l-0.1,0.2l-0.3,0L247.2,397.6z M244.2,397.6l-0.5,0l0-0.5l0.5,0L244.2,397.6z
	 M244.3,359.6L244,360l-0.2-0.1l0-0.2L244.3,359.6z M244.3,359.6l-0.3-0.4l0.8-0.7l0,1.1L244.3,359.6z M244.3,359.6l0.3,0.4
	l-0.3,0.3L244,360L244.3,359.6z M244.3,359.6l-0.5,0l0-1.1l0.8,0.7L244.3,359.6z M244.3,359.6l0.5,0l0,0.2l-0.2,0.1L244.3,359.6z
	 M241,397.6l0,0.5l-0.3,0l-0.1-0.2L241,397.6z M244.2,397.6l0.5,0l0,0.5l-0.5,0L244.2,397.6z M247.2,398.1l-3,0l0-1l3,0L247.2,398.1
	z M253.2,377.5c0,8.7-3.8,17.2-5.6,20.3l-0.9-0.5c1.8-3.1,5.5-11.4,5.5-19.8L253.2,377.5z M244.6,359.2c2.9,2.5,8.6,9.6,8.6,18.3
	l-1,0c0-8.4-5.5-15.2-8.2-17.6L244.6,359.2z M243.8,359.6L243.8,359.6l1,0v0L243.8,359.6z M244.6,360C244.6,360,244.6,360,244.6,360
	l-0.6-0.8c0,0,0,0,0,0L244.6,360z M244.6,359.2C244.6,359.2,244.6,359.2,244.6,359.2L244,360c0,0,0,0,0,0L244.6,359.2z M243.8,359.6
	L243.8,359.6l1,0v0L243.8,359.6z M244.6,360c-2.8,2.3-8.5,9.1-8.5,17.5l-1,0c0-8.8,5.9-15.8,8.9-18.3L244.6,360z M236.1,377.5
	c0,8.5,3.6,16.8,5.3,19.9l-0.9,0.5c-1.8-3.2-5.5-11.7-5.5-20.4L236.1,377.5z M241,397.1l3.1,0l0,1l-3.1,0L241,397.1z M243.7,397.6
	L243.7,397.6l1,0v0L243.7,397.6z"/>
<path class="st23" d="M199.4,384l-0.5,0.2l0.1,0.3l0.3,0L199.4,384z M208.6,384l0.5,0l0-0.5l-0.5,0L208.6,384z M209.2,242h0.5l0-1.2
	l-0.9,0.9L209.2,242z M209.2,242.5l-0.5,0l1,0L209.2,242.5z M209.2,242l0.4-0.3l-0.9-0.9l0,1.2L209.2,242z M218.2,384.1l0,0.5l0.3,0
	l0.1-0.3L218.2,384.1z M208.6,384l-0.5,0l0,0.5l0.5,0L208.6,384z M199.4,384.5l9.2,0l0-1l-9.2,0L199.4,384.5z M182.4,308.8
	c-0.1,32.1,11,63.6,16.5,75.4l0.9-0.4c-5.5-11.7-16.6-43-16.4-74.9L182.4,308.8z M208.8,241.7c-8.9,9-26.3,35-26.4,67.1l1,0
	c0.1-31.8,17.4-57.6,26.1-66.4L208.8,241.7z M209.7,242.5l0-0.5l-1,0l0,0.5L209.7,242.5z M209.7,242.5l0-0.5l-1,0l0,0.5L209.7,242.5
	z M208.8,242.4c8.7,8.9,26,34.8,25.9,66.7l1,0c0.1-32.2-17.4-58.3-26.2-67.4L208.8,242.4z M234.8,309c-0.1,31.9-11.4,63.2-17,74.8
	l0.9,0.4c5.7-11.7,17-43.1,17.1-75.2L234.8,309z M218.2,383.6l-9.5,0l0,1l9.5,0L218.2,383.6z M209.1,384L209.1,384l-1,0v0L209.1,384
	z"/>
<path class="st30" d="M223.4,342.1l22.4,0.4l0-23.2l11.7-0.1"/>
<rect x="230" y="250.4" transform="matrix(0.9999 -1.246079e-02 1.246079e-02 0.9999 -3.1218 3.2548)" class="st23" width="59.2" height="3.5"/>
<rect x="240.2" y="292.8" transform="matrix(0.9999 -1.246079e-02 1.246079e-02 0.9999 -3.6496 3.2631)" class="st23" width="39.7" height="3.5"/>
<rect x="239.9" y="298.2" transform="matrix(0.9999 -1.246079e-02 1.246079e-02 0.9999 -3.7015 3.2592)" class="st23" width="39.7" height="0.9"/>
<rect x="239.3" y="301" transform="matrix(0.9999 -1.246079e-02 1.246079e-02 0.9999 -3.7358 3.2527)" class="st23" width="39.7" height="0.9"/>
<rect x="248.3" y="355.4" transform="matrix(0.9999 -1.246079e-02 1.246079e-02 0.9999 -4.4283 3.3686)" class="st23" width="39.7" height="3.3"/>
<rect x="248.7" y="359.3" transform="matrix(0.9999 -1.246079e-02 1.246079e-02 0.9999 -4.4663 3.3737)" class="st23" width="39.7" height="1.6"/>
<rect x="249" y="361.8" transform="matrix(0.9999 -1.246079e-02 1.246079e-02 0.9999 -4.4982 3.2813)" class="st23" width="24.1" height="1.6"/>
<rect x="252.1" y="364.7" transform="matrix(0.9999 -1.246079e-02 1.246079e-02 0.9999 -4.5336 3.3911)" class="st23" width="35.5" height="1.6"/>
<rect x="252.4" y="367.3" transform="matrix(0.9999 -1.246079e-02 1.246079e-02 0.9999 -4.5659 3.3948)" class="st23" width="35.5" height="1.6"/>
<rect x="230.4" y="256.3" transform="matrix(0.9999 -1.246079e-02 1.246079e-02 0.9999 -3.1796 3.1312)" class="st23" width="38.5" height="0.9"/>
<rect x="230.6" y="258.8" transform="matrix(0.9999 -1.246079e-02 1.246079e-02 0.9999 -3.2119 3.1334)" class="st23" width="38.5" height="0.9"/>
<rect x="163.6" y="224.5" transform="matrix(0.9999 -1.246079e-02 1.246079e-02 0.9999 -2.8044 2.4248)" class="st23" width="59.2" height="3.5"/>
<path class="st29" d="M234.7,319.7l-51.3,1.1l0.8,6.4l49.9-0.6L234.7,319.7z"/>
<rect x="184.2" y="230.4" transform="matrix(0.9999 -1.246079e-02 1.246079e-02 0.9999 -2.8605 2.5529)" class="st23" width="38.5" height="0.9"/>
<rect x="184.8" y="232.2" transform="matrix(0.9999 -1.246079e-02 1.246079e-02 0.9999 -2.8829 2.5612)" class="st23" width="38.5" height="0.9"/>
<rect x="231" y="261.3" transform="matrix(0.9999 -1.246079e-02 1.246079e-02 0.9999 -3.2419 3.1382)" class="st23" width="38.5" height="0.9"/>
<rect x="231.7" y="264.6" transform="matrix(0.9999 -1.246079e-02 1.246079e-02 0.9999 -3.2833 3.147)" class="st23" width="38.5" height="0.9"/>
<rect x="170.2" y="256.9" transform="matrix(0.9999 -1.246079e-02 1.246079e-02 0.9999 -3.1931 2.245)" class="st23" width="16.7" height="0.9"/>
<rect x="170.2" y="258.6" transform="matrix(0.9999 -1.246079e-02 1.246079e-02 0.9999 -3.2139 2.2447)" class="st23" width="16.7" height="0.9"/>
<rect x="170.2" y="260.1" transform="matrix(0.9999 -1.246079e-02 1.246079e-02 0.9999 -3.2328 2.2453)" class="st23" width="16.7" height="0.9"/>
<rect x="170.3" y="261.6" transform="matrix(0.9999 -1.246079e-02 1.246079e-02 0.9999 -3.2517 2.2459)" class="st23" width="16.7" height="0.9"/>
<ellipse class="st23" cx="163.4" cy="260.3" rx="6.1" ry="6.1"/>
<path class="st29" d="M221.2,289.8c-3.3,7.1-11.4,10.2-17.9,7.2c-6.5-3.1-9.2-11.2-5.9-18.3c3.3-7.1,11.4-10.2,17.9-7.2
	C221.8,274.5,224.5,282.7,221.2,289.8z"/>
<rect x="272.8" y="315.3" transform="matrix(0.9999 -1.246079e-02 1.246079e-02 0.9999 -3.9125 3.5278)" class="st23" width="16.7" height="0.9"/>
<rect x="272.8" y="317" transform="matrix(0.9999 -1.246079e-02 1.246079e-02 0.9999 -3.9333 3.5275)" class="st23" width="16.7" height="0.9"/>
<rect x="272.8" y="318.5" transform="matrix(0.9999 -1.246079e-02 1.246079e-02 0.9999 -3.9522 3.5281)" class="st23" width="16.7" height="0.9"/>
<rect x="272.8" y="320" transform="matrix(0.9999 -1.246079e-02 1.246079e-02 0.9999 -3.9711 3.5287)" class="st23" width="16.7" height="0.9"/>
<ellipse class="st23" cx="266" cy="318.6" rx="6.1" ry="6.1"/>
<path class="st30" d="M195.6,351.6l-23,0.9l-0.8-75.7"/>
<ellipse class="st31" cx="259.2" cy="240.1" rx="7.2" ry="8.2"/>
<path class="st32" d="M432.4,248.3h57.2c1.1,0,2,0.9,2,2l0,0c0,1.1-0.9,2-2,2h-57.2c-1.1,0-2-0.9-2-2l0,0
	C430.4,249.3,431.3,248.3,432.4,248.3z"/>
<path class="st33" d="M272,234h57.2c1.1,0,2,0.9,2,2l0,0c0,1.1-0.9,2-2,2H272c-1.1,0-2-0.9-2-2l0,0C270,234.9,270.9,234,272,234z"/>
<ellipse class="st31" cx="130.2" cy="224.4" rx="7.1" ry="8"/>
<path class="st34" d="M142.4,221.2h58.1c0.9,0,1.6,0.7,1.6,1.6l0,0c0,0.9-0.7,1.6-1.6,1.6h-58.1c-0.9,0-1.6-0.7-1.6-1.6l0,0
	C140.8,221.9,141.5,221.2,142.4,221.2z"/>
<path class="st34" d="M142.4,225.2h15.1c0.9,0,1.6,0.7,1.6,1.6l0,0c0,0.9-0.7,1.6-1.6,1.6h-15.1c-0.9,0-1.6-0.7-1.6-1.6l0,0
	C140.8,225.9,141.5,225.2,142.4,225.2z"/>
<ellipse class="st31" cx="130.2" cy="254.1" rx="7.1" ry="8"/>
<path class="st34" d="M142.4,250.9h58.1c0.9,0,1.6,0.7,1.6,1.6l0,0c0,0.9-0.7,1.6-1.6,1.6h-58.1c-0.9,0-1.6-0.7-1.6-1.6l0,0
	C140.8,251.6,141.5,250.9,142.4,250.9z"/>
<path class="st34" d="M142.4,254.9h15.1c0.9,0,1.6,0.7,1.6,1.6l0,0c0,0.9-0.7,1.6-1.6,1.6h-15.1c-0.9,0-1.6-0.7-1.6-1.6l0,0
	C140.8,255.6,141.5,254.9,142.4,254.9z"/>
<ellipse class="st31" cx="130.2" cy="313.3" rx="7.1" ry="8"/>
<path class="st34" d="M142.4,310.1h58.1c0.9,0,1.6,0.7,1.6,1.6l0,0c0,0.9-0.7,1.6-1.6,1.6h-58.1c-0.9,0-1.6-0.7-1.6-1.6l0,0
	C140.8,310.9,141.5,310.1,142.4,310.1z"/>
<path class="st34" d="M142.4,314.1h15.1c0.9,0,1.6,0.7,1.6,1.6l0,0c0,0.9-0.7,1.6-1.6,1.6h-15.1c-0.9,0-1.6-0.7-1.6-1.6l0,0
	C140.8,314.9,141.5,314.1,142.4,314.1z"/>
<path class="st33" d="M272,240.1H295c1.1,0,2,0.9,2,2l0,0c0,1.1-0.9,2-2,2H272c-1.1,0-2-0.9-2-2l0,0
	C270,241.1,270.9,240.1,272,240.1z"/>
<path class="st33" d="M254.8,254.5H287c0.6,0,1,0.5,1,1v0c0,0.6-0.5,1-1,1h-32.2c-0.6,0-1-0.5-1-1v0
	C253.8,254.9,254.2,254.5,254.8,254.5z"/>
<path class="st33" d="M254.8,260.6h28.6c0.6,0,1,0.5,1,1l0,0c0,0.6-0.5,1-1,1h-28.6c-0.6,0-1-0.5-1-1l0,0
	C253.8,261.1,254.2,260.6,254.8,260.6z"/>
<path class="st33" d="M254,264.7h21.1c1.1,0,2,0.9,2,2l0,0c0,1.1-0.9,2-2,2H254c-1.1,0-2-0.9-2-2l0,0
	C251.9,265.6,252.9,264.7,254,264.7z"/>
<path class="st33" d="M254,270.8h12.1c1.1,0,2,0.9,2,2l0,0c0,1.1-0.9,2-2,2H254c-1.1,0-2-0.9-2-2l0,0
	C251.9,271.8,252.9,270.8,254,270.8z"/>
<path class="st35" d="M251.9,281.1v129h115.4"/>
<path class="st32" d="M412.6,258.6h96.8c1.1,0,2,0.9,2,2l0,0c0,1.1-0.9,2-2,2h-96.8c-1.1,0-2-0.9-2-2l0,0
	C410.6,259.5,411.5,258.6,412.6,258.6z"/>
<path class="st36" d="M259.3,401.8l29.6-20.4l22.2-42.5l45.5-59.7"/>
<ellipse class="st37" cx="259.3" cy="401.4" rx="2.1" ry="2.4"/>
<ellipse class="st37" cx="310.1" cy="340.6" rx="2.1" ry="2.4"/>
<ellipse class="st37" cx="356.6" cy="278.9" rx="2.1" ry="2.4"/>
<g>
	<path class="st23" d="M370.2,270.6h222.3c5,0,9,4,9,9v67.9c0,5-4,9-9,9H370.2c-5,0-9-4-9-9v-67.9
		C361.2,274.6,365.3,270.6,370.2,270.6z"/>
</g>
<ellipse class="st31" cx="391.3" cy="300.9" rx="11.1" ry="12.6"/>
<path class="st33" d="M413.8,295.9h91.7c1.4,0,2.5,1.1,2.5,2.5l0,0c0,1.4-1.1,2.5-2.5,2.5h-91.7c-1.4,0-2.5-1.1-2.5-2.5l0,0
	C411.3,297,412.4,295.9,413.8,295.9z"/>
<path class="st33" d="M413.8,304.7h36.1c1.4,0,2.5,1.1,2.5,2.5l0,0c0,1.4-1.1,2.5-2.5,2.5h-36.1c-1.4,0-2.5-1.1-2.5-2.5l0,0
	C411.3,305.8,412.4,304.7,413.8,304.7z"/>
<path class="st33" d="M383.8,321.1h62.8c1.4,0,2.5,1.1,2.5,2.5l0,0c0,1.4-1.1,2.5-2.5,2.5h-62.8c-1.4,0-2.5-1.1-2.5-2.5l0,0
	C381.2,322.3,382.4,321.1,383.8,321.1z"/>
<path class="st33" d="M455,321.1h19.4c1.4,0,2.5,1.1,2.5,2.5l0,0c0,1.4-1.1,2.5-2.5,2.5H455c-1.4,0-2.5-1.1-2.5-2.5l0,0
	C452.4,322.3,453.6,321.1,455,321.1z"/>
<path class="st33" d="M483.9,321.1h33.9c1.4,0,2.5,1.1,2.5,2.5l0,0c0,1.4-1.1,2.5-2.5,2.5h-33.9c-1.4,0-2.5-1.1-2.5-2.5l0,0
	C481.4,322.3,482.5,321.1,483.9,321.1z"/>
<path class="st33" d="M527.3,321.1h7.2c1.4,0,2.5,1.1,2.5,2.5l0,0c0,1.4-1.1,2.5-2.5,2.5h-7.2c-1.4,0-2.5-1.1-2.5-2.5l0,0
	C524.7,322.3,525.9,321.1,527.3,321.1z"/>
<path class="st33" d="M542.8,321.1h49.5c1.4,0,2.5,1.1,2.5,2.5l0,0c0,1.4-1.1,2.5-2.5,2.5h-49.5c-1.4,0-2.5-1.1-2.5-2.5l0,0
	C540.3,322.3,541.4,321.1,542.8,321.1z"/>
<g>
	<path class="st38" d="M536.4,379.8c-3.8,7.6,28.3,14.6,44.9,17.1l1-19c4.8-23.8,4.8-29.5-1-28.6c-5.7,1-10.5,12.4-12.4,5.7
		c-1.9-6.7,12.4-23.8,7.6-36.2c-4.8-12.4-14.3,7.6-18.2,4.8c-3.8-2.9,2.9-35.2-2.9-37.1c-5.7-1.9-6.7,24.8-8.6,15.2
		c-1.9-9.5-17.2-29.5-29.6-21.9c-12.4,7.6,22,26.7,19.1,30.5s-22-7.6-22,3.8c0,11.4,31.5,15.2,38.2,20c6.7,4.8-21,9.5-27.7,12.4
		c-6.7,2.9-4.8,13.3,14.3,14.3c19.1,1,22.9,5.7,24.8,10.5C566,376,541.2,370.3,536.4,379.8z"/>
	<path class="st39" d="M539.3,301.7c4.8,4.1,15.3,17.7,19.1,39.1c3.8,21.3,15.6,41.9,21,49.5"/>
	<path class="st40" d="M624.8,378.6c3.8,7.6-28.3,14.6-44.9,17.1l-1-19c-4.8-23.8-4.8-29.5,1-28.6c5.7,1,10.5,12.4,12.4,5.7
		c1.9-6.7-12.4-23.8-7.6-36.2s14.3,7.6,18.2,4.8c3.8-2.9-2.9-35.2,2.9-37.1c5.7-1.9,6.7,24.8,8.6,15.2c1.9-9.5,17.2-29.5,29.6-21.9
		c12.4,7.6-22,26.7-19.1,30.5c2.9,3.8,22-7.6,22,3.8c0,11.4-31.5,15.2-38.2,20c-6.7,4.8,21,9.5,27.7,12.4
		c6.7,2.9,4.8,13.3-14.3,14.3c-19.1,1-22.9,5.7-24.8,10.5C595.2,374.8,620,369.1,624.8,378.6z"/>
	<path class="st39" d="M621.9,300.5c-4.8,4.1-15.3,17.7-19.1,39.1c-3.8,21.3-15.6,41.9-21,49.5"/>
	<path class="st41" d="M559.4,358.8c-8,0,1.1,15.1,6.4,21.1l15.9,16.9c7.8-3.2,24.1-10.3,27.5-13.7c4.2-4.2-1.1-5.3-6.4-6.3
		c-4.2-0.8-1.8-4.6,0-6.3c17.8-5.1,23.7-14.8,24.4-19c0-1.1,0-3.2-4.2-6.3c-4.2-3.2-21.2,21.1-20.1,5.3
		c1.1-15.8,25.4-33.8,24.4-41.2c-1.1-7.4-6.4,2.1-15.9,7.4c-7.6,4.2-7.4-3.2-6.4-7.4c4.9-5.6,14.2-18.4,11.7-24.3
		c-3.2-7.4-5.3,0-13.8,7.4c-8.5,7.4-3.2-8.4-1.1-11.6c2.1-3.2,21.2-44.3-12.7-36.9c-33.9,7.4-13.8,51.7-12.7,58.1
		c1.1,6.3-7.4-8.4-20.1-4.2c-12.7,4.2,23.3,27.4,23.3,33.8c0,6.3-13.8-3.2-20.1-4.2c-6.4-1.1,6.4,14.8,9.5,24.3
		c2.5,7.6,1.1,9.5,0,9.5C565.7,363,565.7,358.8,559.4,358.8z"/>
	<path class="st42" d="M591.1,265.9c-2.1,0.4-5.7,12.2-3.2,57c2.5,44.8-1.1,60.9-3.2,63.3"/>
	<path class="st43" d="M555.9,405.8h45.2l-4.9,48.7h-36L555.9,405.8z"/>
	<defs>
		<filter id="Adobe_OpacityMaskFilter_1_" filterUnits="userSpaceOnUse" x="549.8" y="397.3" width="57.4" height="17">
			<feColorMatrix  type="matrix" values="1 0 0 0 0  0 1 0 0 0  0 0 1 0 0  0 0 0 1 0"/>
		</filter>
	</defs>
	<mask maskUnits="userSpaceOnUse" x="549.8" y="397.3" width="57.4" height="17" id="mask1_1_">
		<path class="st44" d="M555.9,405.8h45.2l-4.9,48.7h-36L555.9,405.8z"/>
	</mask>
	<g class="st45">
		<path class="st46" d="M558.3,397.3h40.3c4.7,0,8.5,3.8,8.5,8.5v0c0,4.7-3.8,8.5-8.5,8.5h-40.3c-4.7,0-8.5-3.8-8.5-8.5v0
			C549.8,401.1,553.6,397.3,558.3,397.3z"/>
	</g>
	<path class="st43" d="M558.3,392.5h40.3c4.7,0,8.5,3.8,8.5,8.5l0,0c0,4.7-3.8,8.5-8.5,8.5h-40.3c-4.7,0-8.5-3.8-8.5-8.5l0,0
		C549.8,396.3,553.6,392.5,558.3,392.5z"/>
	<path class="st47" d="M557.1,420.4h42.7l-1.8,19.5h-39.7L557.1,420.4z"/>
</g>
<path class="st48" d="M570.5,333.3c4.8-2.9,1.4-11.9-1.2-16l-6.3,1.5c2.5,2.8-0.7,9.6,1.3,9.9c1.6,0.2,1.2-1,1.7-3
	c1.4,0.8,2.7,4.5,3.2,6.9C569.2,333.2,569.9,333.6,570.5,333.3z"/>
<path class="st48" d="M446,269.1c-2.7,4.9,4.7,11,9,13.3l8.8,4.2l-4.1-8.6c-3.5-1.2-4.2-8.7-6.1-7.9c-1.5,0.6-0.5,1.5,0.1,3.5
	c-1.6,0-4.6-2.6-6.2-4.4C447.1,268.6,446.3,268.5,446,269.1z"/>
<path class="st49" d="M492,273c7.3-22.2,15.4-30.6,16.6-33c1.2,17.2-2.4,51.2-10.8,56.6c-8.4,5.4-30.1-4.9-39.9-10.8l2.7-10.1
	C481.6,282.9,490.3,276.9,492,273z"/>
<path class="st23" d="M507.7,241.3l6.7-5.4l6.3,0.7l9.8,71.3l-37.6,8.4c0.2-2.2,4.1-25.3,7.1-43.3
	C502.9,256.6,506.8,247.5,507.7,241.3z"/>
<path class="st48" d="M504.5,216.9l1.3-4.1l2.2-3.7c1.2-0.6,5.7-1.2,14.3,1.1c8.7,2.3,3.3,17.8-0.5,25.3l-0.3,2.7
	c-5.7,2.6-15,5.3-13.7,3c1.3-2.1,1.5-3.2,1.7-4.7c-1.7,0.2-3.3,0.1-4.6-0.2c-2.1-0.6-1-3.1-0.2-4.3c-0.6-0.4-0.8-1.1-0.4-1.7
	l-0.6-0.6c-0.3-0.2-0.4-0.6-0.2-1c0.2-0.6,0-1.3-0.5-1.6l-1-0.6c-0.5-0.3-0.6-0.9-0.2-1.4l2.4-2.8c0.5-0.6,0.6-1.3,0.4-2
	C504.1,219.2,504.1,218,504.5,216.9z"/>
<path class="st50" d="M519.6,232.1l1.4,2.2c0.4,0.6,1.3,0.6,1.7,0l4.7-8.2c1.5-2.6,2.8-5.5,2.7-8.5c-0.2-4.6-2.1-10.2-8.4-12.8
	c-10.9-4.6-14.2,0.9-14.7,0.8c-0.3-0.1-0.8-1-1-1.4c-0.2,0.3-0.2,1.2-0.2,1.7c-0.8-0.7-0.2-2.2,0.2-2.8c-5.4,5.3-3,8.8-1.2,9.8
	c2-0.2,6.2-0.1,7,1.6c1,2.1,0.4,1.7,2.7,3.4c1.8,1.3,0.7,5.7-0.1,7.7l-1.2,2l3-1c0.4-3.1,2.8-4.4,3.9-4.6
	C523.2,222.8,521,229.1,519.6,232.1z"/>
<path class="st48" d="M547.1,434.9l-1.3-11.8l-13,0.9l4.9,13.7L547.1,434.9z"/>
<path class="st51" d="M537.3,435.9c2.7,0.1,8.2-1.8,10.6-2.7l0.4-0.1l4.8,10l-28.5,11.2c-5.5,2.1-3.8-1.6-2.3-3.8
	C527.3,448.3,534.4,439.9,537.3,435.9z"/>
<path class="st48" d="M492.5,443.9l3.3-15.6l-13.2-5.4l-0.5,19.8L492.5,443.9z"/>
<path class="st51" d="M481.8,441.4c2.5,1.1,8.3,1.3,10.9,1.3h0.4l0.8,11h-30.6c-5.9,0-3-2.9-0.8-4.4
	C468,449.3,477.6,444,481.8,441.4z"/>
<path class="st50" d="M510.4,369.8c5.9,18,13.4,38.5,22.5,60.1h17.4c-4.5-12.7-14.2-54.3-17.4-119l-39.2-2.2
	c-4.6,16.4-13.4,63.7-12,121.1l14.7,0.4C499.5,414.5,504.7,391.2,510.4,369.8z"/>
<defs>
	<filter id="Adobe_OpacityMaskFilter_2_" filterUnits="userSpaceOnUse" x="472.8" y="307.4" width="37.4" height="130.7">
		<feColorMatrix  type="matrix" values="1 0 0 0 0  0 1 0 0 0  0 0 1 0 0  0 0 0 1 0"/>
	</filter>
</defs>
<mask maskUnits="userSpaceOnUse" x="472.8" y="307.4" width="37.4" height="130.7" id="mask2_1_">
	<path class="st52" d="M510.4,369.1c5.9,17.8,13.4,38.1,22.5,59.5h17.4c-4.5-12.6-14.2-53.7-17.4-117.8l-39.2-2.1
		c-4.6,16.3-13.4,63-12,119.9l14.7,0.4C499.5,413.4,504.7,390.3,510.4,369.1z"/>
</mask>
<g class="st53">
	<path class="st54" d="M510.2,372.1l-10.7,66h-21.8l-4.9-45.1l20.9-85.6L510.2,372.1z"/>
</g>
<path class="st55" d="M504.7,313.4c-7.9-19.3,3.3-56.2,9.8-74.1l7-1.9c30.7,15.9,46,59,50.1,80.1l-10.6,2.4
	c-2.3,0.5-21.7-34-21.7-34s-5.1-5,7.4,33.1L504.7,313.4z"/>
<path class="st56" d="M140.7,445.3l-2.7-10.1l11-3.5l0.4,12.8L140.7,445.3z"/>
<path class="st51" d="M149.7,443.1c-2.2,0.9-7.3,1.2-9.6,1.2h-0.3l-0.7,9.7h27c5.2,0,2.6-2.6,0.7-3.9
	C161.8,450.1,153.3,445.4,149.7,443.1z"/>
<path class="st56" d="M86.6,430.8l2.7-10.1l11.3,2.4l-6.1,11.3L86.6,430.8z"/>
<path class="st51" d="M95.4,433.3c-2.4-0.3-6.9-2.6-8.9-3.8l-0.3-0.2l-5.5,8l23.4,13.4c4.5,2.6,3.6-0.9,2.5-3
	C102.5,445.4,97.4,437.2,95.4,433.3z"/>
<path class="st57" d="M182.1,272.6l-29,7.4l-5.5-11.3h32.1L182.1,272.6z"/>
<path class="st58" d="M184.6,246.3l-24.7,25c-0.6,0.6-0.2,1.7,0.7,1.7h21.1c0.3,0,0.5-0.1,0.7-0.3l27.9-26.4
	c0.7-0.6,0.2-1.8-0.7-1.7l-24.3,1.4C185,246,184.8,246.1,184.6,246.3z"/>
<path class="st59" d="M151.3,253.6c3.8-10.4-4.4-18.2-9.1-24.1c0.4-0.4-1.1,0-2.7,0c-1.6,0-7.6-2.2-15,1.7
	c-9.7,13.4-6.9,42.3-4.5,54.4c12,0.3,31.5,3.6,31.5,1.6c0-2.7,0,0.8,0-3C151.3,279.2,151.3,270.2,151.3,253.6z"/>
<path class="st60" d="M115.3,313c-2.5-11.2,1.8-22.9,4.3-27.3l31.1,1c0.9,16.8-33.3,103.7-53.5,145.1l-11-4.8
	C96.9,393.7,117.8,324.2,115.3,313z"/>
<path class="st57" d="M119.5,278l-0.8-23.4l12.1-1.2l-2,18.4l29.8-15.7l3.1,4.7l-35.3,22.8H125C122,283.5,119.5,281,119.5,278z"/>
<path class="st57" d="M173.4,253.4c-3.3-4.1-11.1-0.3-14.7,2.6l3.1,4.7c2.3-2.6,7.9,1,7.9-0.9c0-1.5-1.1-1-3-1.2
	c0.6-1.4,3.8-3,6.1-3.7C173.4,254.6,173.8,253.9,173.4,253.4z"/>
<path class="st61" d="M150,438l1.3-150.9l-31-1L138.2,438H150z"/>
<path class="st62" d="M117.2,240.6c0-4.8,3.9-8.6,8.6-8.6l0,0c4.8,0,8.6,3.9,8.6,8.6v14h-17.2V240.6z"/>
<path class="st56" d="M153.8,211.6c0.2-0.7,0.3-1.4,0.3-2.2c0-2.8-1.1-5.6-2.6-8c-13.1-7-18.8,4.5-20.1,11.1l1.6,19.6l5.6,1.4
	c2.7,0.7,5.2-1.5,5-4.2l-0.3-3.1c1.6,0,2.9,0,6.5,0.8c3.6,0.8,2.9-2.5,3-3c0.1-0.3,0.6-0.8,1-1.1c0.2-0.2,0.2-0.5,0.1-0.7
	c-0.2-0.2-0.2-0.4,0-0.6l0.2-0.2c0.3-0.3,0.3-0.6,0.1-0.9l-0.2-0.3c-0.1-0.2-0.1-0.5,0.1-0.7l0.7-0.8c0.6-0.7,0.6-1.8,0.1-2.6
	C154,214.8,153.3,213,153.8,211.6z"/>
<path class="st50" d="M132.2,220.2c0.6,3.6-1.2-1.2-2.1-4.3c-1-1.3-3.7-8.3-2.6-12.5c0.8-3,1.7-6.3,6.9-6.8c-9.3,0.4-3.5,0,1.4-0.1
	l-0.8-0.8c-1.6-1.6-3.2-2.6-4.2-2.6c-8.3,0.4-19.3,1.9-23.5-2.3c-3.3-3.3-9.5-1.4-12.1,0c-16.3,5.7-44.7-0.8-28.4-12.8
	c16.3-12.1,16.7-6.4,29.6,0c12.9,6.4,10.2-0.8,26.9,1.1c13.3,1.5,13.9,12.2,12.5,17.4c-4.9,0.1-10.7,0.5-1.4,0.1
	c0.7,0,1.6-0.1,2.5-0.1c15.9-0.8,17.9,11.8,16.7,10.6c-1.3-1.3-13.1-1.2-14.3,5.9c-2.7-3.4-3.2-4.9-4.8-3
	C133.1,212.1,131.6,216.1,132.2,220.2z"/>
<path class="st63" d="M317.3,445.8l-2.8-11.4l11.3-3.9l0.4,14.5L317.3,445.8z"/>
<path class="st51" d="M326.5,443.3c-2.2,1.1-7.5,1.3-9.8,1.3h-0.4l-0.7,11h27.7c5.3,0,2.7-2.9,0.7-4.4
	C339,451.2,330.2,445.9,326.5,443.3z"/>
<path class="st63" d="M277.7,445.8l2.8-11.4l-11.3-3.9l-0.4,14.5L277.7,445.8z"/>
<path class="st51" d="M268.5,443.3c2.2,1.1,7.5,1.3,9.8,1.3h0.4l0.7,11h-27.7c-5.3,0-2.7-2.9-0.7-4.4
	C256,451.2,264.8,445.9,268.5,443.3z"/>
<path class="st56" d="M281.3,183.8l1-4.6l1.9-4.1c1.1-0.7,5.5-1.4,14.1,0.9c8.6,2.4,4.4,19.2,1.2,27.5l0.2,10.4
	c-5.4,3-11.4-0.3-11.4-3l-0.1-5.9c-1.7,0.3-3.9,0.5-5.1,0.1c-2.1-0.6-1.2-3.4-0.5-4.8c-0.6-0.4-0.9-1.2-0.6-1.8l0,0l-0.6-0.6
	c-0.3-0.3-0.4-0.7-0.3-1.1c0.2-0.7-0.1-1.4-0.7-1.8l-1-0.6c-0.5-0.3-0.6-1-0.3-1.4l2.2-3.2c0.4-0.6,0.5-1.4,0.2-2.2
	C281.1,186.3,281,185,281.3,183.8z"/>
<path class="st50" d="M296.9,202.3l1.5,2.4c0.4,0.7,1.3,0.7,1.6,0l4.2-9.6c1.2-2.6,2.1-5.5,1.9-8.6c-0.4-5.1-2.6-11.5-9.1-14.4
	c-11-4.8-13.8,1.3-14.2,1.2c-0.3-0.1-0.8-1-1-1.5c-0.1,0.3-0.1,1.4-0.1,1.8c-0.8-0.8-0.3-2.4,0-3.1c-4.9,5.8-2.3,9.6-0.5,10.8
	c1.9-0.2,6-0.2,7,1.6c1.2,2.3,0.5,1.9,2.9,3.7c1.9,1.4,1.1,6.2,0.5,8.5l-1,2.2l2.9-1.1c0.2-3.4,2.4-4.9,3.5-5.2
	C299.8,192.1,298.1,199,296.9,202.3z"/>
<path class="st23" d="M288,206.6l-3.6,1.4l-4,71.7h23.3v-73.1h-4.4l-0.1,2c-0.2,3-2.6,5.3-5.6,5.3c-3.1,0-5.6-2.5-5.6-5.6V206.6z"/>
<path class="st64" d="M247.3,199c-5.6,1.7-4.7,12.6-3.2,17.8l6.1,0.2c-1.7-3.7,3.9-10.3,1.9-11.2c-1.5-0.7-1.5,0.8-2.5,2.8
	c-1.2-1.3-1.5-5.9-1.3-8.6C248.4,199.4,247.9,198.8,247.3,199z"/>
<path class="st64" d="M286.8,255.7c-0.1,6.6,9.4,8.5,14.3,8.2l1.8-6.6c-3.6,0.9-7.7-7-9-5c-1,1.5,0.3,1.8,1.7,3.4
	c-1.4,0.9-5.2,0.1-7.5-0.8C287.6,254.7,286.9,255,286.8,255.7z"/>
<path class="st58" d="M315.3,279.2h-45L267,440.6h13.7l13.5-117.2l19.1,117.2h14.5L315.3,279.2z"/>
<path class="st65" d="M279.9,312.9l4.4-105l-1.6,0.5c-0.8,0.5-0.7,0.4-10,3.7c-9.3,3.3-15.1,23-16.9,32.4l-5.2-27.9h-6.8l1.7,41.5
	c0.2,4.6,4,8.3,8.6,8.3c3.5,0,6.7-2.1,8-5.4l6.7-16.5c-3.2,21.5-9.7,65.2-10,68.5C258.3,316.2,272.7,314.3,279.9,312.9z"/>
<defs>
	<filter id="Adobe_OpacityMaskFilter_3_" filterUnits="userSpaceOnUse" x="243.7" y="207" width="39.6" height="108.7">
		<feColorMatrix  type="matrix" values="1 0 0 0 0  0 1 0 0 0  0 0 1 0 0  0 0 0 1 0"/>
	</filter>
</defs>
<mask maskUnits="userSpaceOnUse" x="243.7" y="207" width="39.6" height="108.7" id="mask3_1_">
	<path class="st66" d="M279.9,312.9l4.4-105l-1.6,0.5c-0.8,0.5-0.7,0.4-10,3.7c-9.3,3.3-15.1,23-16.9,32.4l-5.2-27.9h-6.8l1.7,41.5
		c0.2,4.6,4,8.3,8.6,8.3c3.5,0,6.7-2.1,8-5.4l6.7-16.5c-3.2,21.5-9.7,65.2-10,68.5C258.3,316.2,272.7,314.3,279.9,312.9z"/>
</mask>
<g class="st67">
	<ellipse class="st68" cx="253.4" cy="270.9" rx="9.6" ry="11"/>
	<line class="st69" x1="282.8" y1="207" x2="278" y2="315.7"/>
	<path class="st70" d="M255.8,249.5l-0.4-9.6v-4.1l1.6,0.9L255.8,249.5z"/>
</g>
<path class="st65" d="M327.3,221.6c-2.6-5.1-16.9-12.5-23.7-15.5l-1.3,51l-1.5-0.3v7.3c0.4,0.1,0.8,0.3,1.3,0.5l-1.3,49.8h23.3
	l-3.5-43.1c4.3,1.5,8.3,2.9,11.1,3.8c7.7,2.6,9.1-6.2,8.8-11C337.3,252.1,329.9,226.7,327.3,221.6z M318.1,239.9l8,23.7l-7.6-2.3
	L318.1,239.9z"/>
<linearGradient id="SVGID_1_" gradientUnits="userSpaceOnUse" x1="300.9524" y1="221.9999" x2="327.9014" y2="215.5289" gradientTransform="matrix(1 0 0 -1 0 484)">
	<stop  offset="0" style="stop-color:#7873D7"/>
	<stop  offset="1" style="stop-color:#D7E8F7;stop-opacity:0"/>
</linearGradient>
<path class="st71" d="M300.8,256.8v7.3l25.3,9.1l0.4-9.6L300.8,256.8z"/>
<defs>
	<filter id="Adobe_OpacityMaskFilter_4_" filterUnits="userSpaceOnUse" x="304.7" y="204.3" width="47.6" height="110">
		<feColorMatrix  type="matrix" values="1 0 0 0 0  0 1 0 0 0  0 0 1 0 0  0 0 0 1 0"/>
	</filter>
</defs>
<mask maskUnits="userSpaceOnUse" x="304.7" y="204.3" width="47.6" height="110" id="mask4_1_">
	<path class="st72" d="M327.3,221.6c-2.6-5.1-16.9-12.5-23.7-15.5l-1.3,51l-1.5-0.3v7.3c0.4,0.1,0.8,0.3,1.3,0.5l-1.3,49.8h23.3
		l-3.5-43.1c4.3,1.5,8.3,2.9,11.1,3.8c7.7,2.6,9.1-6.2,8.8-11C337.3,252.1,329.9,226.7,327.3,221.6z M318.1,239.9l7.2,21.9l-5.6-2.7
		L318.1,239.9z"/>
</mask>
<g class="st73">
	<line class="st69" x1="305.3" y1="204.3" x2="305.3" y2="258.2"/>
	<path class="st69" d="M305.2,266v48.3"/>
	<ellipse class="st68" cx="342.6" cy="274.6" rx="9.6" ry="11"/>
	<path class="st70" d="M329,265.5l-2.8-1.8l-0.4-1.4L329,265.5z"/>
</g>
<line class="st74" x1="448.1" y1="350.6" x2="434" y2="454"/>
<line class="st74" x1="383.6" y1="350.6" x2="369.5" y2="454"/>
<path class="st75" d="M459.8,268.6c-0.4-3-2.9-5.2-6-5.2h-69.3c-3.6,0-6.4,3.2-6,6.8l12.6,99.5c0.4,3,2.9,5.2,6,5.2h69.3
	c3.6,0,6.4-3.2,6-6.8L459.8,268.6z"/>
<line class="st74" x1="391.1" y1="350.6" x2="405.2" y2="454"/>
<line class="st74" x1="455.6" y1="350.6" x2="469.7" y2="454"/>
<path class="st75" d="M458.8,269.6c0.2-3.4-2.6-6.3-6-6.3h-69.4c-3.2,0-5.8,2.5-6,5.7l-4.9,99.5c-0.2,3.4,2.6,6.3,6,6.3h69.4
	c3.2,0,5.8-2.5,6-5.7L458.8,269.6z"/>
<path class="st76" d="M457.2,271.5c0.2-3.4-2.6-6.3-6-6.3h-66.4c-3.2,0-5.8,2.5-6,5.7l-4.7,95.5c-0.2,3.4,2.6,6.3,6,6.3h66.4
	c3.2,0,5.8-2.5,6-5.7L457.2,271.5z"/>
<path class="st77" d="M394.4,356.7l7.9-10.9l5.7,6.7l-13.2,7.9L394.4,356.7z"/>
<path class="st78" d="M393.5,364.2h1.4c0.9-1.5,2.6-5.5,2.6-9.5c0-4.1-2.7-7.4-4.1-8.5v0v0c-1.4,1.1-4,4.4-4,8.5
	c0,4.1,1.7,8,2.6,9.5H393.5L393.5,364.2z"/>
<defs>
	<filter id="Adobe_OpacityMaskFilter_5_" filterUnits="userSpaceOnUse" x="380.7" y="351.7" width="25.7" height="9.6">
		<feColorMatrix  type="matrix" values="1 0 0 0 0  0 1 0 0 0  0 0 1 0 0  0 0 0 1 0"/>
	</filter>
</defs>
<mask maskUnits="userSpaceOnUse" x="380.7" y="351.7" width="25.7" height="9.6" id="mask5_1_">
	<path class="st79" d="M393.5,364.2h1.4c0.9-1.5,2.6-5.5,2.6-9.5c0-4.1-2.7-7.4-4.1-8.5v0v0c-1.4,1.1-4,4.4-4,8.5
		c0,4.1,1.7,8,2.6,9.5H393.5L393.5,364.2z"/>
</mask>
<g class="st80">
	<rect x="388.2" y="351.7" class="st81" width="10.9" height="9.3"/>
	<rect x="380.7" y="351.7" class="st82" width="25.7" height="0.6"/>
	<rect x="380.7" y="360.8" class="st82" width="25.7" height="0.6"/>
</g>
<path class="st77" d="M425.7,356.7l-7.9-10.9l-5.7,6.7l13.2,7.9L425.7,356.7z"/>
<path class="st78" d="M426.6,364.2h-1.4c-0.9-1.5-2.6-5.5-2.6-9.5c0-4.1,2.7-7.4,4.1-8.5l0,0c1.4,1.1,4,4.4,4,8.5
	c0,4.1-1.7,8-2.6,9.5H426.6L426.6,364.2z"/>
<defs>
	<filter id="Adobe_OpacityMaskFilter_6_" filterUnits="userSpaceOnUse" x="413.6" y="351.8" width="25.7" height="9.6">
		<feColorMatrix  type="matrix" values="1 0 0 0 0  0 1 0 0 0  0 0 1 0 0  0 0 0 1 0"/>
	</filter>
</defs>
<mask maskUnits="userSpaceOnUse" x="413.6" y="351.8" width="25.7" height="9.6" id="mask6_1_">
	<path class="st83" d="M426.6,364.2h-1.4c-0.9-1.5-2.6-5.5-2.6-9.5c0-4.1,2.7-7.4,4.1-8.5l0,0c1.4,1.1,4,4.4,4,8.5
		c0,4.1-1.7,8-2.6,9.5H426.6L426.6,364.2z"/>
</mask>
<g class="st84">
	<rect x="421" y="351.8" class="st85" width="10.9" height="9.3"/>
	<rect x="413.6" y="351.8" class="st82" width="25.7" height="0.6"/>
	<rect x="413.6" y="360.8" class="st82" width="25.7" height="0.6"/>
</g>
<path class="st81" d="M409.9,357.8h-4.3c-2.6-5.5-7.9-20.4-7.9-35.6c0-15.2,8.1-27.4,12.2-31.7v0l0,0l0,0v0
	c4.1,4.2,12.4,16.5,12.4,31.7c0,15.2-5.3,30-7.9,35.6H410H409.9z"/>
<path class="st85" d="M414.4,357.8h-4.5v-67.3c4.1,4.2,12.4,16.5,12.4,31.7S417,352.3,414.4,357.8z"/>
<defs>
	<filter id="Adobe_OpacityMaskFilter_7_" filterUnits="userSpaceOnUse" x="397.2" y="288.4" width="26" height="69.9">
		<feColorMatrix  type="matrix" values="1 0 0 0 0  0 1 0 0 0  0 0 1 0 0  0 0 0 1 0"/>
	</filter>
</defs>
<mask maskUnits="userSpaceOnUse" x="397.2" y="288.4" width="26" height="69.9" id="mask7_1_">
	<path class="st86" d="M409.9,357.8h-4.3c-2.6-5.5-7.9-20.4-7.9-35.6c0-15.2,8.1-27.4,12.2-31.7v0l0,0l0,0v0
		c4.1,4.2,12.4,16.5,12.4,31.7c0,15.2-5.3,30-7.9,35.6H410H409.9z"/>
</mask>
<g class="st87">
	<rect x="397.5" y="288.4" class="st78" width="25.7" height="18.3"/>
	<rect x="397.2" y="306.4" class="st82" width="25.7" height="1.9"/>
	<rect x="397.2" y="356.4" class="st82" width="25.7" height="1.9"/>
</g>
<defs>
	<filter id="Adobe_OpacityMaskFilter_8_" filterUnits="userSpaceOnUse" x="398.6" y="305.1" width="25.7" height="25.4">
		<feColorMatrix  type="matrix" values="1 0 0 0 0  0 1 0 0 0  0 0 1 0 0  0 0 0 1 0"/>
	</filter>
</defs>
<mask maskUnits="userSpaceOnUse" x="398.6" y="305.1" width="25.7" height="25.4" id="mask8_1_">
	<path class="st88" d="M409.9,357.8h-4.3c-2.6-5.5-7.9-20.4-7.9-35.6c0-15.2,8.1-27.4,12.2-31.7v0l0,0l0,0v0
		c4.1,4.2,12.4,16.5,12.4,31.7c0,15.2-5.3,30-7.9,35.6H410H409.9z"/>
</mask>
<g class="st89">
	<ellipse class="st90" cx="409.9" cy="317.3" rx="6.8" ry="6.8"/>
	<defs>
		<filter id="Adobe_OpacityMaskFilter_9_" filterUnits="userSpaceOnUse" x="398.6" y="305.1" width="25.7" height="25.4">
			<feColorMatrix  type="matrix" values="1 0 0 0 0  0 1 0 0 0  0 0 1 0 0  0 0 0 1 0"/>
		</filter>
	</defs>
	<mask maskUnits="userSpaceOnUse" x="398.6" y="305.1" width="25.7" height="25.4" id="mask9_1_">
		<ellipse class="st91" cx="409.9" cy="317.3" rx="6.8" ry="6.8"/>
	</mask>
	<g class="st92">
		<path class="st93" d="M412.8,305.1l3.1,3.1l-14.2,14.2l-3.1-3.1L412.8,305.1z"/>
		<path class="st93" d="M419.3,309.5L403.9,325l0.9,1.4l15.7-15.7L419.3,309.5z"/>
		<path class="st93" d="M421.1,312.2l-14.9,14.9l3.1,3.3l15-15L421.1,312.2z"/>
	</g>
</g>
<path class="st75" d="M430.1,262.6h-24.2c-1.3,0-2.4,1.1-2.4,2.4l0,0c0,1.3,1.1,2.4,2.4,2.4h24.2c1.3,0,2.4-1.1,2.4-2.4l0,0
	C432.5,263.7,431.4,262.6,430.1,262.6z"/>
<ellipse class="st23" cx="428.6" cy="265.2" rx="1.6" ry="1.5"/>
<ellipse class="st23" cx="407.1" cy="265.2" rx="1.6" ry="1.5"/>
<path class="st94" d="M410.6,290.3v-11.7h-12.9"/>
<path class="st94" d="M422.7,320.5h18v-26.2"/>
<path class="st94" d="M391.2,359.1h-5.9v-29"/>
<rect x="381.3" y="283.1" class="st23" width="13.7" height="0.4"/>
<rect x="381.6" y="277.6" class="st23" width="13.3" height="1.8"/>
<rect x="381.6" y="280.2" class="st23" width="13.3" height="0.4"/>
<rect x="381.6" y="280.9" class="st23" width="13.3" height="0.4"/>
<rect x="384.8" y="281.7" class="st23" width="10.2" height="0.4"/>
<rect x="383.6" y="282.4" class="st23" width="11.3" height="0.4"/>
<rect x="387.9" y="283.9" class="st23" width="7" height="0.4"/>
<rect x="384.4" y="284.6" class="st23" width="10.6" height="0.4"/>
<rect x="432.5" y="285" class="st23" width="13.3" height="1.8"/>
<rect x="432.5" y="287.5" class="st23" width="13.3" height="0.4"/>
<rect x="432.5" y="288.3" class="st23" width="13.3" height="0.4"/>
<rect x="432.5" y="289" class="st23" width="10.2" height="0.4"/>
<rect x="432.5" y="289.7" class="st23" width="11.3" height="0.4"/>
<rect x="432.5" y="291.2" class="st23" width="7" height="0.4"/>
<rect x="432.5" y="291.9" class="st23" width="10.6" height="0.4"/>
<rect x="380.1" y="320.5" class="st23" width="13.3" height="1.8"/>
<rect x="380.1" y="323.1" class="st23" width="13.3" height="0.4"/>
<rect x="380.1" y="323.8" class="st23" width="13.3" height="0.4"/>
<rect x="380.1" y="324.6" class="st23" width="10.2" height="0.4"/>
<rect x="380.1" y="325.3" class="st23" width="11.3" height="0.4"/>
<rect x="380.1" y="326.8" class="st23" width="7" height="0.4"/>
<rect x="380.1" y="327.5" class="st23" width="10.6" height="0.4"/>
<g class="st95">
	<path class="st96" d="M164.1,97.2c2.8-9.9,12-17.2,22.8-17.2c11.5,0,21.1,8.2,23.3,19.1c2-0.7,4.1-1,6.3-1
		c10.7,0,19.3,8.6,19.3,19.2c0,9.1-6.3,16.7-14.8,18.7c-1,0.3-2,0.5-3.1,0.5h-1c-0.1,0-0.3,0-0.4,0c-0.1,0-0.3,0-0.4,0h-79.8
		c-5.1,0-9.3-4.2-9.3-9.3c0-5.1,4.2-9.3,9.3-9.3h5.4c-0.4-1.5-0.6-3-0.6-4.6c0-9.4,7.7-17.1,17.2-17.1
		C160.3,96.2,162.2,96.5,164.1,97.2z"/>
	<path class="st97" d="M188.4,107.6c2.8-9.9,12-17.2,22.8-17.2c11.5,0,21.1,8.2,23.3,19.1c2-0.7,4.1-1,6.3-1
		c10.7,0,19.3,8.6,19.3,19.2c0,9.1-6.3,16.7-14.8,18.7c-1,0.3-2,0.5-3.1,0.5h-1c-0.1,0-0.3,0-0.4,0s-0.3,0-0.4,0h-79.8
		c-5.1,0-9.3-4.2-9.3-9.3c0-5.1,4.2-9.3,9.3-9.3h5.4c-0.4-1.5-0.6-3-0.6-4.6c0-9.4,7.7-17.1,17.2-17.1
		C184.6,106.6,186.5,106.9,188.4,107.6z"/>
</g>
</svg>
