<svg width="906" height="597" viewBox="0 0 906 597" fill="none" xmlns="http://www.w3.org/2000/svg">
<path d="M392.419 247.671C396.673 215.053 376.577 215.763 364.415 220.713C363.644 221.026 362.806 220.367 362.983 219.554C369.264 190.757 379.586 132.221 373.749 113.25C368.068 94.7879 345.056 104.122 332.643 112.039C331.918 112.502 330.971 111.907 331.075 111.054C336.632 65.4093 343.143 29.1778 297.204 25.5026C260.482 22.5649 256.865 75.9647 259.715 104.37C259.785 105.063 259.113 105.595 258.434 105.438C224.113 97.5306 227.587 123.4 233.727 137.52C243.061 168.014 258.744 226.761 246.795 217.8C235.008 208.959 227.096 213.928 224.495 217.648C224.425 217.749 224.377 217.868 224.35 217.988C202.091 318.625 284.153 326.084 314.006 326.084C343.878 326.084 386.818 290.611 392.419 247.671Z" fill="#7873D7" fill-opacity="0.79"/>
<path d="M297.206 66.5766C299.901 139.34 299.695 308.659 297.206 391.428L314.009 395.162C308.408 230.869 295.339 16.1679 297.206 66.5766Z" fill="#333435"/>
<path d="M310.273 307.415C328.321 294.968 366.282 264.474 373.75 242.071" stroke="#0F287A" stroke-linecap="round"/>
<path d="M300.938 290.613C286.075 280.655 254.812 256.26 248.662 238.337" stroke="#0F287A" stroke-linecap="round"/>
<path d="M323.5 182.392C340.486 171.012 376.214 143.132 383.243 122.649" stroke="#333435" stroke-linecap="round"/>
<path d="M304.672 215.934C294.056 208.821 253.056 140.988 248.663 128.186" stroke="#333435" stroke-linecap="round"/>
<path d="M353.259 230.869C352.636 243.316 358.113 266.342 384.997 258.874" stroke="#0F287A" stroke-width="0.5" stroke-linecap="round"/>
<path d="M327.122 257.007C326.5 269.453 331.976 292.479 358.86 285.011" stroke="#0F287A" stroke-width="0.5" stroke-linecap="round"/>
<path d="M330.856 133.787C330.234 146.234 335.71 169.26 362.595 161.792" stroke="#333435" stroke-width="0.5" stroke-linecap="round"/>
<path d="M282.232 159.925C282.744 169.389 278.24 186.898 256.132 181.22" stroke="#333435" stroke-width="0.5" stroke-linecap="round"/>
<path d="M274.765 242.071C275.277 251.535 270.773 269.044 248.665 263.366" stroke="#0F287A" stroke-width="0.5" stroke-linecap="round"/>
<path opacity="0.6" d="M302.06 508.029H799.732C886.195 361.586 807.533 241.057 745.086 133.074C682.64 25.0899 503.307 -66.6222 447.265 65.0291C391.223 196.68 405.146 136.625 336.094 196.8C262.382 261.035 295.152 378.625 226.301 360.875C157.45 343.124 146.24 301.705 82.1929 331.29C18.1452 360.875 -50.3523 508.029 302.06 508.029Z" fill="#EAEDFE"/>
<path fill-rule="evenodd" clip-rule="evenodd" d="M255.812 479.452C254.857 485.697 253.683 492.088 252.259 498.445C246.879 522.459 237.892 546.101 223.437 559.487L222.758 558.754C226.049 555.705 229.058 552.11 231.804 548.086L221.726 506.031L222.699 505.798L232.562 546.955C237.886 538.861 242.198 529.144 245.663 518.72L245.623 518.73L235.446 478.703L236.415 478.457L246.219 517.017C248.18 510.915 249.857 504.592 251.283 498.227C252.702 491.894 253.871 485.527 254.823 479.306L247.836 451.365L248.806 451.122L255.207 476.721C257.566 460.392 258.439 445.258 258.439 434.647H259.439C259.439 445.818 258.476 461.967 255.842 479.258L255.886 479.434L255.812 479.452Z" fill="#4773CC"/>
<path d="M241.068 564.396C240.534 564.372 239.992 564.35 239.44 564.329C236.254 534.108 231.881 489.762 231.857 471.387C231.824 445.793 179.793 464.675 180.721 427.997C181.649 391.32 181.028 382.25 169.417 378.488C157.806 374.726 143.599 418.441 127.3 371.344C111.001 324.248 82.5739 326.108 73.6256 326.057C64.6774 326.007 57.8514 326.805 93.3326 387.749C128.814 448.693 101.477 426.291 85.7306 467.626C69.9842 508.961 129.334 511.531 141.695 511.183C154.056 510.835 132.613 546.146 140.017 558.811C145.84 568.771 207.412 563.159 239.44 564.329C239.805 567.784 240.153 571.055 240.478 574.08L241.068 564.396Z" fill="#2F4CAC" fill-opacity="0.78"/>
<path fill-rule="evenodd" clip-rule="evenodd" d="M153.729 458.95C148.814 415.254 118.896 388.141 104.591 380.067L105.067 379.19C119.576 387.379 149.756 414.743 154.717 458.848C156.26 472.563 157.734 482.121 159.394 488.917C161.054 495.717 162.888 499.699 165.117 502.308C167.337 504.906 169.989 506.193 173.428 507.513C174.108 507.774 174.819 508.037 175.561 508.311L175.562 508.311C178.246 509.302 181.344 510.446 184.924 512.242L192.642 470.813L193.62 471.011L185.849 512.716C185.972 512.78 186.095 512.845 186.219 512.91C194.565 517.334 199.953 525.74 203.304 534.372C206.658 543.011 208.001 551.952 208.21 557.56L207.216 557.586C207.011 552.074 205.686 543.248 202.379 534.73C199.07 526.205 193.804 518.061 185.766 513.8C181.698 511.643 178.251 510.37 175.253 509.263L175.252 509.263C174.503 508.986 173.781 508.72 173.085 508.453C169.611 507.119 166.759 505.759 164.368 502.96C161.986 500.172 160.103 496.006 158.428 489.147C156.753 482.284 155.273 472.673 153.729 458.95Z" fill="#2F4CAC" fill-opacity="0.78"/>
<path d="M181.162 488.778C175.407 564.046 260.3 574.682 303.466 570.591C317.855 568.546 345.194 548.502 339.439 484.687C333.683 420.872 268.523 354.467 236.662 329.241C191.441 302.311 109.425 266.858 143.136 340.49C185.274 432.531 188.357 394.692 181.162 488.778Z" fill="#7873D7" fill-opacity="0.8"/>
<path d="M159.816 337.633C194.668 359.159 272.161 432.757 303.322 554.942" stroke="#4162B4"/>
<rect x="173.133" y="197.779" width="601.24" height="330.259" fill="#2F539B"/>
<rect x="183.387" y="218.882" width="582" height="291" fill="#F6F7FB"/>
<rect x="183.387" y="218.882" width="160.091" height="290.717" fill="#4886FF" fill-opacity="0.6"/>
<rect x="360.014" y="240.855" width="385.986" height="245.425" rx="5" fill="#C5CCE7"/>
<rect x="376.688" y="246.469" width="352.629" height="234.196" rx="5" fill="#8EB3FD"/>
<rect x="502.963" y="254.49" width="102.453" height="4.01021" rx="2.00511" fill="#4632C3"/>
<g filter="url(#filter0_d)">
<rect x="386.213" y="268.125" width="326.421" height="29.6756" rx="7" fill="white"/>
</g>
<ellipse cx="443.399" cy="282.56" rx="23.8263" ry="8.02043" fill="#FFCDD6"/>
<rect x="481.52" y="279.353" width="207.289" height="3.20817" rx="1.60409" fill="#B1D7FF"/>
<rect x="481.52" y="284.166" width="88.1574" height="3.20817" rx="1.60409" fill="#B1D7FF"/>
<g filter="url(#filter1_d)">
<path d="M388.602 461.818C388.602 457.167 392.372 453.396 397.023 453.396H706.601C711.252 453.396 715.022 457.167 715.022 461.818V461.818C715.022 466.469 711.252 470.239 706.601 470.239H397.023C392.372 470.239 388.602 466.469 388.602 461.818V461.818Z" fill="white"/>
</g>
<rect opacity="0.87" x="441.006" y="459.813" width="223.967" height="4.01021" rx="2.00511" fill="#8EB3FD"/>
<rect x="388.602" y="306.623" width="324.038" height="135.545" rx="6" fill="white"/>
<path d="M449.032 355.272V372H446.848V355.272H449.032ZM458.442 358.608C460.042 358.608 461.338 359.096 462.33 360.072C463.322 361.032 463.818 362.424 463.818 364.248V372H461.658V364.56C461.658 363.248 461.33 362.248 460.674 361.56C460.018 360.856 459.122 360.504 457.986 360.504C456.834 360.504 455.914 360.864 455.226 361.584C454.554 362.304 454.218 363.352 454.218 364.728V372H452.034V358.848H454.218V360.72C454.65 360.048 455.234 359.528 455.97 359.16C456.722 358.792 457.546 358.608 458.442 358.608ZM469.33 360.648V368.4C469.33 369.04 469.466 369.496 469.738 369.768C470.01 370.024 470.482 370.152 471.154 370.152H472.762V372H470.794C469.578 372 468.666 371.72 468.058 371.16C467.45 370.6 467.146 369.68 467.146 368.4V360.648H465.442V358.848H467.146V355.536H469.33V358.848H472.762V360.648H469.33ZM486.688 364.92C486.688 365.336 486.664 365.776 486.616 366.24H476.104C476.184 367.536 476.624 368.552 477.424 369.288C478.24 370.008 479.224 370.368 480.376 370.368C481.32 370.368 482.104 370.152 482.728 369.72C483.368 369.272 483.816 368.68 484.072 367.944H486.424C486.072 369.208 485.368 370.24 484.312 371.04C483.256 371.824 481.944 372.216 480.376 372.216C479.128 372.216 478.008 371.936 477.016 371.376C476.04 370.816 475.272 370.024 474.712 369C474.152 367.96 473.872 366.76 473.872 365.4C473.872 364.04 474.144 362.848 474.688 361.824C475.232 360.8 475.992 360.016 476.968 359.472C477.96 358.912 479.096 358.632 480.376 358.632C481.624 358.632 482.728 358.904 483.688 359.448C484.648 359.992 485.384 360.744 485.896 361.704C486.424 362.648 486.688 363.72 486.688 364.92ZM484.432 364.464C484.432 363.632 484.248 362.92 483.88 362.328C483.512 361.72 483.008 361.264 482.368 360.96C481.744 360.64 481.048 360.48 480.28 360.48C479.176 360.48 478.232 360.832 477.448 361.536C476.68 362.24 476.24 363.216 476.128 364.464H484.432ZM491.035 360.984C491.419 360.232 491.963 359.648 492.667 359.232C493.387 358.816 494.259 358.608 495.283 358.608V360.864H494.707C492.259 360.864 491.035 362.192 491.035 364.848V372H488.851V358.848H491.035V360.984ZM503.492 358.608C505.092 358.608 506.388 359.096 507.38 360.072C508.372 361.032 508.868 362.424 508.868 364.248V372H506.708V364.56C506.708 363.248 506.38 362.248 505.724 361.56C505.068 360.856 504.172 360.504 503.036 360.504C501.884 360.504 500.964 360.864 500.276 361.584C499.604 362.304 499.268 363.352 499.268 364.728V372H497.084V358.848H499.268V360.72C499.7 360.048 500.284 359.528 501.02 359.16C501.772 358.792 502.596 358.608 503.492 358.608ZM510.9 365.376C510.9 364.032 511.172 362.856 511.716 361.848C512.26 360.824 513.004 360.032 513.948 359.472C514.908 358.912 515.972 358.632 517.14 358.632C518.292 358.632 519.292 358.88 520.14 359.376C520.988 359.872 521.62 360.496 522.036 361.248V358.848H524.244V372H522.036V369.552C521.604 370.32 520.956 370.96 520.092 371.472C519.244 371.968 518.252 372.216 517.116 372.216C515.948 372.216 514.892 371.928 513.948 371.352C513.004 370.776 512.26 369.968 511.716 368.928C511.172 367.888 510.9 366.704 510.9 365.376ZM522.036 365.4C522.036 364.408 521.836 363.544 521.436 362.808C521.036 362.072 520.492 361.512 519.804 361.128C519.132 360.728 518.388 360.528 517.572 360.528C516.756 360.528 516.012 360.72 515.34 361.104C514.668 361.488 514.132 362.048 513.732 362.784C513.332 363.52 513.132 364.384 513.132 365.376C513.132 366.384 513.332 367.264 513.732 368.016C514.132 368.752 514.668 369.32 515.34 369.72C516.012 370.104 516.756 370.296 517.572 370.296C518.388 370.296 519.132 370.104 519.804 369.72C520.492 369.32 521.036 368.752 521.436 368.016C521.836 367.264 522.036 366.392 522.036 365.4ZM529.398 354.24V372H527.214V354.24H529.398ZM543.383 372.168C542.279 372.168 541.287 371.976 540.407 371.592C539.543 371.192 538.863 370.648 538.367 369.96C537.871 369.256 537.615 368.448 537.599 367.536H539.927C540.007 368.32 540.327 368.984 540.887 369.528C541.463 370.056 542.295 370.32 543.383 370.32C544.423 370.32 545.239 370.064 545.831 369.552C546.439 369.024 546.743 368.352 546.743 367.536C546.743 366.896 546.567 366.376 546.215 365.976C545.863 365.576 545.423 365.272 544.895 365.064C544.367 364.856 543.655 364.632 542.759 364.392C541.655 364.104 540.767 363.816 540.095 363.528C539.439 363.24 538.871 362.792 538.391 362.184C537.927 361.56 537.695 360.728 537.695 359.688C537.695 358.776 537.927 357.968 538.391 357.264C538.855 356.56 539.503 356.016 540.335 355.632C541.183 355.248 542.151 355.056 543.239 355.056C544.807 355.056 546.087 355.448 547.079 356.232C548.087 357.016 548.655 358.056 548.783 359.352H546.383C546.303 358.712 545.967 358.152 545.375 357.672C544.783 357.176 543.999 356.928 543.023 356.928C542.111 356.928 541.367 357.168 540.791 357.648C540.215 358.112 539.927 358.768 539.927 359.616C539.927 360.224 540.095 360.72 540.431 361.104C540.783 361.488 541.207 361.784 541.703 361.992C542.215 362.184 542.927 362.408 543.839 362.664C544.943 362.968 545.831 363.272 546.503 363.576C547.175 363.864 547.751 364.32 548.231 364.944C548.711 365.552 548.951 366.384 548.951 367.44C548.951 368.256 548.735 369.024 548.303 369.744C547.871 370.464 547.231 371.048 546.383 371.496C545.535 371.944 544.535 372.168 543.383 372.168ZM563.445 364.92C563.445 365.336 563.421 365.776 563.373 366.24H552.861C552.941 367.536 553.381 368.552 554.181 369.288C554.997 370.008 555.981 370.368 557.133 370.368C558.077 370.368 558.861 370.152 559.485 369.72C560.125 369.272 560.573 368.68 560.829 367.944H563.181C562.829 369.208 562.125 370.24 561.069 371.04C560.013 371.824 558.701 372.216 557.133 372.216C555.885 372.216 554.765 371.936 553.773 371.376C552.797 370.816 552.029 370.024 551.469 369C550.909 367.96 550.629 366.76 550.629 365.4C550.629 364.04 550.901 362.848 551.445 361.824C551.989 360.8 552.749 360.016 553.725 359.472C554.717 358.912 555.853 358.632 557.133 358.632C558.381 358.632 559.485 358.904 560.445 359.448C561.405 359.992 562.141 360.744 562.653 361.704C563.181 362.648 563.445 363.72 563.445 364.92ZM561.189 364.464C561.189 363.632 561.005 362.92 560.637 362.328C560.269 361.72 559.765 361.264 559.125 360.96C558.501 360.64 557.805 360.48 557.037 360.48C555.933 360.48 554.989 360.832 554.205 361.536C553.437 362.24 552.997 363.216 552.885 364.464H561.189ZM567.792 360.984C568.176 360.232 568.72 359.648 569.424 359.232C570.144 358.816 571.016 358.608 572.04 358.608V360.864H571.464C569.016 360.864 567.792 362.192 567.792 364.848V372H565.608V358.848H567.792V360.984ZM578.737 369.984L582.817 358.848H585.145L579.985 372H577.441L572.281 358.848H574.633L578.737 369.984ZM598.574 364.92C598.574 365.336 598.55 365.776 598.502 366.24H587.99C588.07 367.536 588.51 368.552 589.31 369.288C590.126 370.008 591.11 370.368 592.262 370.368C593.206 370.368 593.99 370.152 594.614 369.72C595.254 369.272 595.702 368.68 595.958 367.944H598.31C597.958 369.208 597.254 370.24 596.198 371.04C595.142 371.824 593.83 372.216 592.262 372.216C591.014 372.216 589.894 371.936 588.902 371.376C587.926 370.816 587.158 370.024 586.598 369C586.038 367.96 585.758 366.76 585.758 365.4C585.758 364.04 586.03 362.848 586.574 361.824C587.118 360.8 587.878 360.016 588.854 359.472C589.846 358.912 590.982 358.632 592.262 358.632C593.51 358.632 594.614 358.904 595.574 359.448C596.534 359.992 597.27 360.744 597.782 361.704C598.31 362.648 598.574 363.72 598.574 364.92ZM596.318 364.464C596.318 363.632 596.134 362.92 595.766 362.328C595.398 361.72 594.894 361.264 594.254 360.96C593.63 360.64 592.934 360.48 592.166 360.48C591.062 360.48 590.118 360.832 589.334 361.536C588.566 362.24 588.126 363.216 588.014 364.464H596.318ZM602.921 360.984C603.305 360.232 603.849 359.648 604.553 359.232C605.273 358.816 606.145 358.608 607.169 358.608V360.864H606.593C604.145 360.864 602.921 362.192 602.921 364.848V372H600.737V358.848H602.921V360.984ZM616.832 357.048V362.64H622.928V364.44H616.832V370.2H623.648V372H614.648V355.248H623.648V357.048H616.832ZM628.417 360.984C628.801 360.232 629.345 359.648 630.049 359.232C630.769 358.816 631.641 358.608 632.665 358.608V360.864H632.089C629.641 360.864 628.417 362.192 628.417 364.848V372H626.233V358.848H628.417V360.984ZM636.65 360.984C637.034 360.232 637.578 359.648 638.282 359.232C639.002 358.816 639.874 358.608 640.898 358.608V360.864H640.322C637.874 360.864 636.65 362.192 636.65 364.848V372H634.466V358.848H636.65V360.984ZM648.435 372.216C647.203 372.216 646.083 371.936 645.075 371.376C644.083 370.816 643.299 370.024 642.723 369C642.163 367.96 641.883 366.76 641.883 365.4C641.883 364.056 642.171 362.872 642.747 361.848C643.339 360.808 644.139 360.016 645.147 359.472C646.155 358.912 647.283 358.632 648.531 358.632C649.779 358.632 650.907 358.912 651.915 359.472C652.923 360.016 653.715 360.8 654.291 361.824C654.883 362.848 655.179 364.04 655.179 365.4C655.179 366.76 654.875 367.96 654.267 369C653.675 370.024 652.867 370.816 651.843 371.376C650.819 371.936 649.683 372.216 648.435 372.216ZM648.435 370.296C649.219 370.296 649.955 370.112 650.643 369.744C651.331 369.376 651.883 368.824 652.299 368.088C652.731 367.352 652.947 366.456 652.947 365.4C652.947 364.344 652.739 363.448 652.323 362.712C651.907 361.976 651.363 361.432 650.691 361.08C650.019 360.712 649.291 360.528 648.507 360.528C647.707 360.528 646.971 360.712 646.299 361.08C645.643 361.432 645.115 361.976 644.715 362.712C644.315 363.448 644.115 364.344 644.115 365.4C644.115 366.472 644.307 367.376 644.691 368.112C645.091 368.848 645.619 369.4 646.275 369.768C646.931 370.12 647.651 370.296 648.435 370.296ZM659.515 360.984C659.899 360.232 660.443 359.648 661.147 359.232C661.867 358.816 662.739 358.608 663.763 358.608V360.864H663.187C660.739 360.864 659.515 362.192 659.515 364.848V372H657.331V358.848H659.515V360.984Z" fill="#9E9E9E"/>
<path d="M758.326 465.1C753.226 475.301 796.153 484.651 818.254 488.051L819.529 462.55C825.905 430.673 825.905 423.023 818.254 424.298C810.604 425.573 804.229 440.874 801.679 431.949C799.128 423.023 818.254 400.072 811.879 383.496C805.504 366.92 792.753 393.697 787.653 389.871C782.553 386.046 791.478 342.694 783.828 340.144C776.177 337.594 774.902 373.296 772.352 360.545C769.802 347.794 749.401 321.018 732.825 331.219C716.249 341.419 762.152 366.92 758.326 372.021C754.501 377.121 729 361.82 729 377.121C729 392.422 771.077 397.522 780.002 403.897C788.928 410.272 751.951 416.648 743.026 420.473C734.1 424.298 736.65 438.324 762.152 439.599C787.653 440.874 792.753 447.249 795.303 453.625C797.853 460 764.702 452.35 758.326 465.1Z" fill="#62A2F4"/>
<path d="M762.152 360.545C768.528 366.07 782.553 384.261 787.654 412.822C792.754 441.384 808.48 468.925 815.705 479.125" stroke="white" stroke-opacity="0.32"/>
<path d="M876.252 463.472C881.352 473.673 838.425 483.023 816.324 486.423L815.049 460.922C808.673 429.046 808.673 421.395 816.324 422.67C823.974 423.945 830.349 439.246 832.9 430.321C835.45 421.395 816.324 398.444 822.699 381.868C829.074 365.292 841.825 392.069 846.925 388.244C852.026 384.418 843.1 341.066 850.75 338.516C858.401 335.966 859.676 371.668 862.226 358.917C864.776 346.167 885.177 319.39 901.753 329.591C918.329 339.791 872.427 365.292 876.252 370.393C880.077 375.493 905.578 360.192 905.578 375.493C905.578 390.794 863.501 395.894 854.576 402.269C845.65 408.645 882.627 415.02 891.552 418.845C900.478 422.67 897.928 436.696 872.427 437.971C846.925 439.246 841.825 445.621 839.275 451.997C836.725 458.372 869.876 450.722 876.252 463.472Z" fill="#7873D7"/>
<path d="M872.426 358.917C866.05 364.443 852.025 382.633 846.925 411.195C841.824 439.756 826.099 467.298 818.873 477.498" stroke="white" stroke-opacity="0.32"/>
<path d="M777.443 444.225C766.718 444.225 778.856 464.481 785.922 472.489L807.119 495.1C817.482 490.86 839.34 481.251 843.862 476.728C849.515 471.076 842.449 469.662 835.383 468.249C829.73 467.119 833.028 462.125 835.383 459.77C859.125 452.987 866.944 439.985 867.887 434.333C867.887 432.919 867.887 430.093 862.234 425.853C856.581 421.614 833.97 454.117 835.383 432.919C836.796 411.721 869.3 387.697 867.887 377.804C866.473 367.912 859.407 380.631 846.689 387.697C836.514 393.35 836.796 383.457 838.209 377.804C844.804 370.267 857.146 353.215 853.755 345.301C849.515 335.408 846.689 345.301 835.383 355.193C824.077 365.086 831.143 343.888 833.97 339.648C836.796 335.408 862.234 280.294 817.011 290.186C771.789 300.078 798.64 359.433 800.053 367.912C801.466 376.391 790.161 356.607 773.203 362.259C756.245 367.912 804.293 399.003 804.293 407.482C804.293 415.961 785.922 403.242 777.443 401.829C768.964 400.416 785.922 421.614 790.161 434.333C793.553 444.508 791.574 447.051 790.161 447.051C785.922 449.878 785.922 444.225 777.443 444.225Z" fill="#2F4CAC"/>
<path d="M819.836 319.863C817.009 320.334 812.204 336.256 815.596 396.176C818.988 456.096 814.183 477.671 811.357 480.968" stroke="white" stroke-opacity="0.19" stroke-width="2" stroke-linejoin="round"/>
<path d="M784.363 499.923H844.611L838.097 565.055H790.062L784.363 499.923Z" fill="#E92476"/>
<mask id="mask0" mask-type="alpha" maskUnits="userSpaceOnUse" x="784" y="499" width="61" height="67">
<path d="M784.365 499.922H844.612L838.099 565.054H790.064L784.365 499.922Z" fill="#E92476"/>
</mask>
<g mask="url(#mask0)">
<rect x="776.223" y="488.524" width="76.5303" height="22.7963" rx="10" fill="#D2055B"/>
</g>
<rect x="776.223" y="482.011" width="76.5303" height="22.7963" rx="10" fill="#E92476"/>
<path d="M785.99 519.462H842.981L840.538 545.515H787.619L785.99 519.462Z" fill="#F27CAD"/>
<path d="M749.446 560.667C753.382 554.052 753.094 550.704 752.457 549.857L750.228 544.773L759.445 543.017C759.552 544.394 759.862 547.753 760.245 550.168C760.725 553.188 763.588 556.205 769.314 561.445C775.04 566.685 768.049 568.757 761.368 562.247C754.687 555.736 752.625 560.665 750.718 561.302C749.193 561.812 749.235 561.091 749.446 560.667Z" fill="#EE9F86"/>
<path d="M675.499 504.593L717.436 540.381L704.314 555.987L674.406 532.856L649.097 562.933L637.067 555.987L667.996 505.774C669.605 503.162 673.165 502.602 675.499 504.593Z" fill="#332D7B"/>
<path d="M594.636 558.448L611.256 558.448L610.299 547.923L594.636 547.445L594.636 558.448Z" fill="#EE9F86"/>
<path d="M596.412 547.045C595.273 549.714 594.988 555.943 594.988 558.724L594.988 559.141L583.122 559.975L583.122 527.024C583.122 520.684 586.287 523.827 587.869 526.19C587.869 532.196 593.564 542.596 596.412 547.045Z" fill="#1D104A"/>
<path d="M720.305 567.78C741.737 568.162 743.464 544.995 741.71 536.703L699.255 537.218C687.557 539.345 665.461 539.882 655.383 540.001C652.44 540.036 649.518 540.394 646.663 541.107L645.221 541.468L602.644 544.338L603.09 560.47C613.296 559.832 620.58 562.543 635.506 564.074C650.432 565.605 658.759 565.547 663.853 563.474C673.741 564.75 698.873 567.397 720.305 567.78Z" fill="#5C79B0"/>
<path d="M707.923 470.724C706.889 468.644 707.492 447.321 707.923 436.92L714.39 436.92L721.719 470.724L707.923 470.724Z" fill="#182E79"/>
<path d="M706.013 440.626C705.867 439.849 705.907 438.996 706.03 438.14C706.484 435.007 708.112 432.062 710.156 429.644C725.805 423.824 730.422 437.546 730.775 445.135L725.969 466.728L714.089 465.952L715.465 459.502C714.216 457.856 712.209 458.195 708.111 458.494C704.013 458.792 705.234 455.271 705.196 454.652C705.173 454.285 704.684 453.697 704.253 453.259C704.047 453.05 704.061 452.702 704.295 452.524C704.499 452.369 704.539 452.077 704.384 451.872L704.146 451.558C703.902 451.237 703.914 450.789 704.175 450.482L704.429 450.181C704.622 449.953 704.643 449.625 704.479 449.375L703.749 448.26C703.214 447.444 703.358 446.372 703.995 445.634C705.154 444.291 706.347 442.405 706.013 440.626Z" fill="#EE9F86"/>
<path d="M710.847 432.364C710.667 436.631 712.819 443.034 722.771 443.034C724.033 442.864 726.448 443.444 726.016 447.13C725.475 451.737 724.934 454.809 726.557 459.928C727.422 462.795 728.36 463.853 728.72 464.023L740.619 464.023C742.061 447.642 737.914 416.414 709.791 422.557C706.546 423.922 701.905 427.081 704.383 431.772C705.46 433.81 710.11 434.665 710.862 432.316L710.847 432.364Z" fill="#393939"/>
<path d="M692.986 522.713V509.963L714.793 475.795L716.649 532.912L705.978 534.952L692.986 522.713Z" fill="#182E79" stroke="#182E79"/>
<path d="M694 485C702 468.5 708.475 471.889 715.082 463.963C718.981 472.979 716.154 493.718 700.407 507.976C687.968 519.24 646.084 495.655 646.084 495.655L646 486.5C682.854 495.26 688.918 495.482 694 485Z" fill="#182E79"/>
<path d="M632.69 482.554C631.041 486.305 636.737 491.062 640.058 492.848L647.007 496.235L646.866 486.955C644.079 486.005 640.348 482.53 638.851 483.141C637.698 483.613 638.465 484.308 638.941 485.856C637.757 485.845 635.523 483.956 634.194 482.484C633.758 482.001 632.952 481.959 632.69 482.554Z" fill="#EF937E"/>
<path d="M706.868 537.444C702.915 521.634 711.308 481.235 714.602 462.82C715.874 463.386 717.326 463.384 718.597 462.815L719.444 462.437L734.715 462.886L746.393 537.444H706.868Z" fill="white"/>
<path d="M710.462 536.545C703.994 514.268 714.354 474.863 720.343 457.945L746.393 457.046C751.783 460.28 745.345 470.371 741.453 475.012C757.263 490.822 762.413 531.605 763.012 550.02C760.167 550.169 752.932 551.006 751.854 550.647C750.776 550.287 748.19 541.486 746.393 537.444L710.462 536.545Z" fill="#2F4CAC"/>
<mask id="mask1" mask-type="alpha" maskUnits="userSpaceOnUse" x="708" y="457" width="56" height="94">
<path d="M710.462 536.545C703.994 514.268 714.354 474.863 720.343 457.945L746.393 457.046C751.783 460.28 745.345 470.371 741.453 475.012C757.263 490.822 762.413 531.605 763.012 550.02C760.167 550.169 753.355 550.584 752.277 550.224C751.199 549.865 748.19 541.486 746.393 537.444L710.462 536.545Z" fill="#1DB6E7"/>
</mask>
<g mask="url(#mask1)">
<path d="M737.41 510.945L746.393 538.343L731.122 543.283L737.41 510.945Z" fill="#182E79"/>
</g>
<line y1="-3.5" x2="147.04" y2="-3.5" transform="matrix(-0.12781 0.991799 -0.993563 -0.113278 296.766 417.368)" stroke="#47484A" stroke-width="7"/>
<line y1="-3.5" x2="147.04" y2="-3.5" transform="matrix(-0.12781 0.991799 -0.993563 -0.113278 210.631 417.368)" stroke="#47484A" stroke-width="7"/>
<path d="M316.743 306.245C316.365 303.245 313.814 300.995 310.79 300.995H214.301C210.69 300.995 207.897 304.161 208.348 307.744L225.631 445.015C226.009 448.016 228.56 450.266 231.584 450.266H328.072C331.683 450.266 334.476 447.099 334.025 443.516L316.743 306.245Z" fill="#47484A"/>
<line y1="-3.5" x2="147.04" y2="-3.5" transform="matrix(0.12781 0.991799 0.993563 -0.113278 229.947 417.368)" stroke="#47484A" stroke-width="7"/>
<line y1="-3.5" x2="147.04" y2="-3.5" transform="matrix(0.12781 0.991799 0.993563 -0.113278 316.082 417.368)" stroke="#47484A" stroke-width="7"/>
<path d="M315.774 307.288C315.942 303.863 313.21 300.995 309.781 300.995H213.212C210.013 300.995 207.376 303.505 207.22 306.701L200.499 443.972C200.331 447.397 203.062 450.266 206.491 450.266H303.06C306.26 450.266 308.896 447.755 309.053 444.559L315.774 307.288Z" fill="#47484A"/>
<path d="M313.686 309.744C313.854 306.319 311.122 303.45 307.693 303.45H215.037C211.838 303.45 209.201 305.961 209.044 309.157L202.587 441.027C202.419 444.452 205.151 447.32 208.58 447.32H301.236C304.435 447.32 307.072 444.809 307.228 441.614L313.686 309.744Z" fill="#A6A6A6"/>
<path d="M229.705 426.025L240.253 411.466L247.905 420.409L230.326 431.017L229.705 426.025Z" fill="#D9142B"/>
<path fill-rule="evenodd" clip-rule="evenodd" d="M228.497 436.008H230.391C231.541 434.021 233.841 428.687 233.841 423.249C233.841 417.81 230.233 413.405 228.43 411.882V411.926L228.429 411.882C226.626 413.405 223.086 417.811 223.086 423.249C223.086 428.687 225.386 434.021 226.536 436.009H228.497L228.497 436.008Z" fill="#FF455B"/>
<mask id="mask2" mask-type="alpha" maskUnits="userSpaceOnUse" x="223" y="411" width="11" height="26">
<path fill-rule="evenodd" clip-rule="evenodd" d="M228.497 436.008H230.391C231.541 434.021 233.841 428.687 233.841 423.249C233.841 417.81 230.233 413.405 228.43 411.882V411.926L228.429 411.882C226.626 413.405 223.086 417.811 223.086 423.249C223.086 428.687 225.386 434.021 226.536 436.009H228.497L228.497 436.008Z" fill="#D75720"/>
</mask>
<g mask="url(#mask2)">
<rect x="221.432" y="419.37" width="14.4775" height="12.4792" fill="#FFD262"/>
<rect x="211.504" y="419.37" width="34.3324" height="0.83194" fill="#382FAC"/>
<rect x="211.504" y="431.433" width="34.3324" height="0.831947" fill="#382FAC"/>
</g>
<path d="M271.48 426.025L260.933 411.466L253.28 420.409L270.86 431.017L271.48 426.025Z" fill="#D9142B"/>
<path fill-rule="evenodd" clip-rule="evenodd" d="M272.688 436.008H270.795C269.645 434.021 267.345 428.687 267.345 423.249C267.345 417.811 270.952 413.405 272.756 411.882L272.756 411.882C272.756 411.882 272.756 411.882 272.756 411.882C272.756 411.882 272.756 411.882 272.756 411.882V411.882C274.56 413.406 278.1 417.811 278.1 423.249C278.1 428.687 275.8 434.021 274.65 436.008H272.688L272.688 436.008Z" fill="#FF455B"/>
<mask id="mask3" mask-type="alpha" maskUnits="userSpaceOnUse" x="267" y="411" width="12" height="26">
<path fill-rule="evenodd" clip-rule="evenodd" d="M272.688 436.008H270.795C269.645 434.021 267.345 428.687 267.345 423.249C267.345 417.811 270.952 413.405 272.756 411.882L272.756 411.882C272.756 411.882 272.756 411.882 272.756 411.882C272.756 411.882 272.756 411.882 272.756 411.882V411.882C274.56 413.406 278.1 417.811 278.1 423.249C278.1 428.687 275.8 434.021 274.65 436.008H272.688L272.688 436.008Z" fill="#D75720"/>
</mask>
<g mask="url(#mask3)">
<rect width="14.4775" height="12.4792" transform="matrix(-1 0 0 1 279.754 419.37)" fill="#FEB261"/>
<rect width="34.3324" height="0.831947" transform="matrix(-1 0 0 1 289.682 419.37)" fill="#382FAC"/>
<rect width="34.3324" height="0.831947" transform="matrix(-1 0 0 1 289.682 431.433)" fill="#382FAC"/>
</g>
<path fill-rule="evenodd" clip-rule="evenodd" d="M250.385 427.481H244.595C241.079 420.062 234.047 400.151 234.047 379.852C234.047 359.553 244.87 343.108 250.385 337.423V337.422C250.385 337.422 250.386 337.422 250.386 337.423C250.386 337.422 250.386 337.422 250.386 337.422V337.423C255.901 343.108 266.931 359.553 266.931 379.852C266.931 400.151 259.899 420.062 256.383 427.481H250.593H250.385Z" fill="#FFD262"/>
<path d="M256.384 427.481H250.386V337.422C255.901 343.107 266.932 359.552 266.932 379.852C266.932 400.151 259.9 420.062 256.384 427.481Z" fill="#FEB261"/>
<mask id="mask4" mask-type="alpha" maskUnits="userSpaceOnUse" x="234" y="337" width="33" height="91">
<path fill-rule="evenodd" clip-rule="evenodd" d="M250.385 427.481H244.595C241.079 420.062 234.047 400.151 234.047 379.852C234.047 359.553 244.87 343.108 250.385 337.423V337.422C250.385 337.422 250.386 337.422 250.386 337.423C250.386 337.422 250.386 337.422 250.386 337.422V337.423C255.901 343.108 266.931 359.553 266.931 379.852C266.931 400.151 259.899 420.062 256.383 427.481H250.593H250.385Z" fill="#FEFFFB"/>
</mask>
<g mask="url(#mask4)">
<rect x="233.84" y="334.511" width="34.3324" height="24.5424" fill="#FF455B"/>
<rect x="233.426" y="358.637" width="34.3324" height="2.49584" fill="#382FAC"/>
<rect x="233.426" y="425.609" width="34.3324" height="2.49584" fill="#382FAC"/>
</g>
<mask id="mask5" mask-type="alpha" maskUnits="userSpaceOnUse" x="234" y="337" width="33" height="91">
<path fill-rule="evenodd" clip-rule="evenodd" d="M250.385 427.481H244.595C241.079 420.062 234.047 400.151 234.047 379.852C234.047 359.553 244.87 343.108 250.385 337.423V337.422C250.385 337.422 250.386 337.422 250.386 337.423C250.386 337.422 250.386 337.422 250.386 337.422V337.423C255.901 343.108 266.931 359.553 266.931 379.852C266.931 400.151 259.899 420.062 256.383 427.481H250.593H250.385Z" fill="#FEFFFB"/>
</mask>
<g mask="url(#mask5)">
<ellipse cx="250.385" cy="373.196" rx="9.10015" ry="9.15142" fill="#363636"/>
<mask id="mask6" mask-type="alpha" maskUnits="userSpaceOnUse" x="241" y="364" width="19" height="19">
<ellipse cx="250.385" cy="373.196" rx="9.10015" ry="9.15142" fill="white" fill-opacity="0.2"/>
</mask>
<g mask="url(#mask6)">
<path d="M254.33 356.876L258.425 360.994L239.466 380.06L235.371 375.941L254.33 356.876Z" fill="white" fill-opacity="0.2"/>
<path d="M262.975 362.824L242.348 383.568L243.561 385.398L264.492 364.35L262.975 362.824Z" fill="white" fill-opacity="0.2"/>
<path d="M265.402 366.485L245.533 386.466L249.628 390.889L269.648 370.756L265.402 366.485Z" fill="white" fill-opacity="0.2"/>
</g>
</g>
<rect width="38.6305" height="6.38331" rx="3.19165" transform="matrix(-1 0 0 1 280.584 300.013)" fill="#47484A"/>
<ellipse rx="2.08814" ry="1.9641" transform="matrix(-1 0 0 1 275.363 303.45)" fill="white"/>
<ellipse rx="2.08814" ry="1.9641" transform="matrix(-1 0 0 1 246.652 303.45)" fill="white"/>
<path d="M251.35 337.085V321.372H234.122" stroke="white" stroke-dasharray="6 6"/>
<path d="M267.531 377.595H291.545V342.486" stroke="white" stroke-dasharray="6 6"/>
<path d="M225.51 429.152H217.679V390.361" stroke="white" stroke-dasharray="6 6"/>
<rect width="18.2712" height="0.491024" transform="matrix(-1 0 0 1 230.469 327.51)" fill="white"/>
<rect width="17.7492" height="2.45512" transform="matrix(-1 0 0 1 230.467 320.145)" fill="white"/>
<rect width="17.7492" height="0.491024" transform="matrix(-1 0 0 1 230.467 323.582)" fill="white"/>
<rect width="17.7492" height="0.491024" transform="matrix(-1 0 0 1 230.467 324.564)" fill="white"/>
<rect width="13.5729" height="0.491024" transform="matrix(-1 0 0 1 230.467 325.546)" fill="white"/>
<rect width="15.139" height="0.491024" transform="matrix(-1 0 0 1 230.467 326.528)" fill="white"/>
<rect width="9.39661" height="0.491024" transform="matrix(-1 0 0 1 230.467 328.492)" fill="white"/>
<rect width="14.0949" height="0.491024" transform="matrix(-1 0 0 1 230.467 329.475)" fill="white"/>
<rect x="280.582" y="329.966" width="17.7492" height="2.45512" fill="white"/>
<rect x="280.582" y="333.403" width="17.7492" height="0.491024" fill="white"/>
<rect x="280.582" y="334.385" width="17.7492" height="0.491024" fill="white"/>
<rect x="280.582" y="335.367" width="13.5729" height="0.491024" fill="white"/>
<rect x="280.582" y="336.35" width="15.139" height="0.491024" fill="white"/>
<rect x="280.582" y="338.313" width="9.39661" height="0.491024" fill="white"/>
<rect x="280.582" y="339.295" width="14.0949" height="0.491024" fill="white"/>
<rect x="210.631" y="377.595" width="17.7492" height="2.45512" fill="white"/>
<rect x="210.631" y="381.032" width="17.7492" height="0.491024" fill="white"/>
<rect x="210.631" y="382.014" width="17.7492" height="0.491024" fill="white"/>
<rect x="210.631" y="382.996" width="13.5729" height="0.491024" fill="white"/>
<rect x="210.631" y="383.978" width="15.139" height="0.491024" fill="white"/>
<rect x="210.631" y="385.942" width="9.39661" height="0.491024" fill="white"/>
<rect x="210.631" y="386.924" width="14.0949" height="0.491024" fill="white"/>
<path d="M160.95 552.194L158.016 541.382L169.752 537.64L170.171 551.363L160.95 552.194Z" fill="#F3AEAE"/>
<path d="M170.52 549.807C168.181 550.805 162.724 551.055 160.288 551.055H159.922L159.191 561.451H188.062C193.616 561.451 190.863 558.679 188.792 557.292C183.53 557.292 174.418 552.302 170.52 549.807Z" fill="#1D104A"/>
<path d="M99.7987 536.622L102.664 525.791L114.699 528.418L108.201 540.512L99.7987 536.622Z" fill="#F3AEAE"/>
<path d="M109.282 539.34C106.757 539.035 101.906 536.522 99.7964 535.304L99.4799 535.121L93.6488 543.759L118.651 558.194C123.462 560.972 122.464 557.194 121.363 554.958C116.806 552.327 111.41 543.45 109.282 539.34Z" fill="#1D104A"/>
<path d="M202.028 366.761L171.011 374.725L165.143 362.57H199.513L202.028 366.761Z" fill="#EE9F86"/>
<path d="M204.693 338.534L178.138 365.479C177.515 366.111 177.963 367.181 178.85 367.181H201.631C201.887 367.181 202.133 367.083 202.319 366.907L232.321 338.463C232.997 337.822 232.506 336.686 231.576 336.739L205.348 338.238C205.1 338.252 204.867 338.357 204.693 338.534Z" fill="#333333"/>
<path d="M169.049 346.407C173.077 335.205 164.386 326.9 159.27 320.583C159.69 320.164 158.049 320.583 156.336 320.583C154.661 320.583 148.207 318.266 140.244 322.458C129.849 336.877 132.865 367.883 135.38 380.877C148.234 381.156 169.049 384.699 169.049 382.578C169.049 379.644 169.049 383.449 169.049 379.394C169.049 373.843 169.049 364.175 169.049 346.407Z" fill="#FEAF22"/>
<path d="M130.517 410.178C127.82 398.165 132.483 385.638 135.152 380.877L168.411 381.941C169.423 399.943 132.765 493.253 111.133 537.64L99.334 532.512C110.852 496.74 133.214 422.192 130.517 410.178Z" fill="#04138A"/>
<path d="M135.053 372.63L134.215 347.481L147.209 346.223L145.113 365.923L176.968 349.021L180.322 354.051L142.598 378.498H140.921C137.68 378.498 135.053 375.871 135.053 372.63Z" fill="#EE9F86"/>
<path d="M192.718 346.262C189.26 341.788 180.769 345.902 176.968 349.021L180.319 354.052C182.786 351.211 188.797 355.143 188.796 353.036C188.796 351.411 187.605 351.968 185.548 351.736C186.158 350.26 189.75 348.475 192.142 347.696C192.762 347.494 193.117 346.778 192.718 346.262Z" fill="#EE9F86"/>
<path d="M167.612 544.335L169.051 382.403L135.936 381.304L155.013 544.335H167.612Z" fill="#030E68"/>
<path d="M132.537 332.391C132.537 327.298 136.666 323.17 141.758 323.17V323.17C146.851 323.17 150.98 327.298 150.98 332.391V347.481H132.537V332.391Z" fill="#EE9D0C"/>
<path d="M171.727 301.32C171.965 300.607 172.039 299.796 172.033 298.973C172.01 295.957 170.855 292.968 169.239 290.421C155.225 282.904 149.092 295.255 147.777 302.37L149.517 323.369L155.89 324.991C158.565 325.672 161.109 323.504 160.861 320.754L160.525 317.049C162.263 317.049 163.606 317.098 167.435 317.91C171.263 318.722 170.567 315.242 170.683 314.662C170.752 314.319 171.29 313.828 171.753 313.47C171.974 313.299 172.007 312.969 171.809 312.771C171.636 312.598 171.636 312.317 171.809 312.144L172.075 311.878C172.346 311.607 172.393 311.183 172.186 310.859L171.985 310.543C171.832 310.302 171.856 309.99 172.043 309.775L172.823 308.878C173.463 308.143 173.466 307.061 172.94 306.24C172.036 304.829 171.191 302.93 171.727 301.32Z" fill="#F3AEAE"/>
<path d="M148.671 310.615C149.308 314.436 147.397 309.342 146.465 306.023C145.423 304.64 142.476 297.117 143.681 292.639C144.547 289.416 145.539 285.907 151.044 285.377C141.147 285.819 147.345 285.331 152.549 285.251L151.738 284.44C149.99 282.693 148.358 281.601 147.277 281.601C138.355 282.007 126.595 283.629 122.134 279.168C118.565 275.598 111.995 277.68 109.157 279.168C91.7188 285.251 61.3038 278.356 78.7418 265.377C96.1797 252.398 96.5852 258.482 110.373 265.377C124.162 272.272 121.323 264.566 139.166 266.594C153.441 268.216 154.036 279.708 152.549 285.251C147.345 285.331 141.147 285.819 151.044 285.377C151.512 285.332 152.013 285.309 152.549 285.309C152.935 285.291 153.34 285.272 153.766 285.251C170.798 284.44 172.871 297.878 171.597 296.605C170.173 295.181 157.587 295.331 156.313 302.973C153.474 299.323 152.84 297.761 151.218 299.789C149.596 301.817 147.935 306.201 148.671 310.615Z" fill="#393939"/>
<path d="M468.453 226.371C434.967 226.371 407.816 253.522 407.816 287.007C407.816 320.493 434.967 347.644 468.453 347.644C501.938 347.644 529.089 320.493 529.089 287.007C529.089 253.522 501.938 226.371 468.453 226.371ZM468.453 322.198C465.462 322.198 463.039 319.775 463.039 316.784C463.039 313.793 465.462 311.37 468.453 311.37C471.444 311.37 473.867 313.793 473.867 316.784C473.867 319.775 471.444 322.198 468.453 322.198ZM476.966 292.489C475.74 292.962 474.686 293.794 473.94 294.876C473.194 295.957 472.791 297.239 472.784 298.553V301.625C472.784 302.221 472.297 302.708 471.701 302.708H465.204C464.609 302.708 464.122 302.221 464.122 301.625V298.715C464.122 295.589 465.028 292.503 466.815 289.931C468.561 287.413 470.997 285.492 473.867 284.395C478.469 282.622 481.446 278.765 481.446 274.555C481.446 268.586 475.613 263.727 468.453 263.727C461.293 263.727 455.459 268.586 455.459 274.555V275.584C455.459 276.179 454.972 276.667 454.376 276.667H447.88C447.284 276.667 446.797 276.179 446.797 275.584V274.555C446.797 269.236 449.125 264.269 453.348 260.574C457.408 257.014 462.768 255.065 468.453 255.065C474.137 255.065 479.497 257.028 483.558 260.574C487.781 264.269 490.109 269.236 490.109 274.555C490.109 282.378 484.952 289.417 476.966 292.489Z" fill="#566DBB"/>
<path d="M460.637 290.278C466.506 296.931 456.407 308.077 450.329 312.432L442.351 306.798C447.373 304.353 446.789 292.965 449.812 293.776C452.141 294.401 450.885 295.894 450.427 298.935C452.914 298.61 457.179 293.631 459.089 290.502C459.429 289.945 460.205 289.789 460.637 290.278Z" fill="#EE9F86"/>
<path d="M331.328 538.307L332.858 524.366L348.245 525.376L342.453 541.557L331.328 538.307Z" fill="#EE9F86"/>
<path d="M343.573 539.903C340.391 539.996 333.918 537.789 331.08 536.675L330.654 536.507L325.045 548.286L358.683 561.497C365.155 564.039 363.216 559.549 361.437 556.987C355.306 554.578 346.973 544.594 343.573 539.903Z" fill="#1D104A"/>
<path d="M396.413 549.016L392.74 535.481L407.432 530.796L407.956 547.974L396.413 549.016Z" fill="#EE9F86"/>
<path d="M408.394 546.026C405.466 547.275 398.635 547.588 395.585 547.588H395.128L394.213 560.602H430.352C437.306 560.602 433.859 557.131 431.267 555.396C424.68 555.396 413.274 549.149 408.394 546.026Z" fill="#1D104A"/>
<path d="M374.685 463.155C367.729 485.022 358.927 509.896 348.142 536.043L329.445 530.271C334.692 514.88 344.364 470.246 348.142 391.752L394.314 389.129C399.736 409.067 410.16 466.364 408.481 536.043L391.166 536.567C387.455 517.378 381.404 489.117 374.685 463.155Z" fill="#262626"/>
<mask id="mask7" mask-type="alpha" maskUnits="userSpaceOnUse" x="329" y="389" width="80" height="148">
<path d="M374.685 463.155C367.729 485.022 358.927 509.896 348.142 536.043L329.445 530.271C334.692 514.88 344.364 470.246 348.142 391.752L394.314 389.129C399.736 409.067 410.16 466.364 408.481 536.043L391.166 536.567C387.455 517.378 381.404 489.117 374.685 463.155Z" fill="#79C7CE"/>
</mask>
<g mask="url(#mask7)">
<path d="M374.902 462.061L387.495 538.141H413.205L418.976 486.197L394.316 387.555L374.902 462.061Z" fill="#0F0F0F"/>
</g>
<path d="M389.737 302.066L388.759 297.198L386.721 292.714C385.471 291.885 380.456 290.605 370.389 292.11C360.322 293.615 364.443 311.918 367.761 320.882L367.788 324.011C373.934 327.675 384.007 330.139 382.757 327.389C381.589 324.82 381.583 325.434 381.571 323.615C383.476 324.064 385.325 324.179 386.776 323.931C389.237 323.51 388.301 320.503 387.525 319.052C388.244 318.725 388.562 317.877 388.235 317.159L388.998 316.609C389.33 316.37 389.48 315.95 389.374 315.554C389.187 314.856 389.532 314.125 390.19 313.826L391.447 313.255C392.009 312.999 392.207 312.299 391.863 311.787L389.488 308.255C389.027 307.569 388.954 306.694 389.295 305.941C389.845 304.727 389.999 303.372 389.737 302.066Z" fill="#EE9F86"/>
<path d="M370.734 317.436L367.749 321.237L360.608 304.761C360.033 299.786 361.472 289.079 371.823 286.048C384.762 282.26 387.786 288.914 388.286 288.861C388.686 288.819 389.294 287.879 389.548 287.414C389.706 287.762 389.614 288.839 389.549 289.334C390.485 288.629 390.017 286.91 389.667 286.139C395.053 292.766 391.964 296.439 389.747 297.447C387.511 297.009 382.754 296.578 381.607 298.355C380.174 300.578 380.897 300.249 378.136 301.854C375.927 303.137 376.62 308.244 377.242 310.637L378.36 313.096L375.073 311.624C374.978 308.037 372.473 306.29 371.233 305.865C367.856 306.423 369.493 313.812 370.734 317.436Z" fill="#393939"/>
<path d="M396.604 399.098L388.533 351.06L379.289 346.104L381.343 399.623L396.604 399.098Z" fill="#5DB3BB"/>
<path d="M345.016 416.413C342.237 368.827 356.426 335.45 363.868 324.711L366.348 323.719C398.099 328.478 433.31 307.772 444.555 303.806L451.414 311.522C409.497 342.719 388.83 353.46 382.224 353.46C387.681 370.81 387.185 392.124 385.697 403.525C384.506 412.646 377.593 415.917 374.286 416.413H345.016Z" fill="#7873D7"/>
<path d="M468.453 225.525C434.967 225.525 407.816 252.676 407.816 286.162C407.816 319.647 434.967 346.798 468.453 346.798C501.938 346.798 529.089 319.647 529.089 286.162C529.089 252.676 501.938 225.525 468.453 225.525ZM468.453 321.352C465.462 321.352 463.039 318.93 463.039 315.938C463.039 312.947 465.462 310.525 468.453 310.525C471.444 310.525 473.867 312.947 473.867 315.938C473.867 318.93 471.444 321.352 468.453 321.352ZM476.966 291.643C475.74 292.117 474.686 292.948 473.94 294.03C473.194 295.112 472.791 296.393 472.784 297.707V300.779C472.784 301.375 472.297 301.862 471.701 301.862H465.204C464.609 301.862 464.122 301.375 464.122 300.779V297.869C464.122 294.743 465.028 291.657 466.815 289.085C468.561 286.568 470.997 284.646 473.867 283.549C478.469 281.776 481.446 277.919 481.446 273.71C481.446 267.741 475.613 262.882 468.453 262.882C461.293 262.882 455.459 267.741 455.459 273.71V274.738C455.459 275.334 454.972 275.821 454.376 275.821H447.88C447.284 275.821 446.797 275.334 446.797 274.738V273.71C446.797 268.39 449.125 263.423 453.348 259.728C457.408 256.168 462.768 254.219 468.453 254.219C474.137 254.219 479.497 256.182 483.558 259.728C487.781 263.423 490.109 268.39 490.109 273.71C490.109 281.533 484.952 288.571 476.966 291.643Z" fill="#2E27B6" fill-opacity="0.5"/>
<path d="M460.637 289.433C466.506 296.085 456.407 307.231 450.329 311.586L442.351 305.953C447.373 303.507 446.789 292.12 449.812 292.931C452.141 293.556 450.885 295.049 450.427 298.089C452.914 297.764 457.179 292.786 459.089 289.656C459.429 289.1 460.205 288.944 460.637 289.433Z" fill="#EE9F86"/>
<path d="M331.328 537.461L332.858 523.52L348.245 524.53L342.453 540.712L331.328 537.461Z" fill="#EE9F86"/>
<path d="M343.573 539.058C340.391 539.151 333.918 536.944 331.08 535.829L330.654 535.662L325.045 547.441L358.683 560.652C365.155 563.194 363.216 558.704 361.437 556.141C355.306 553.733 346.973 543.749 343.573 539.058Z" fill="#1D104A"/>
<path d="M396.413 548.169L392.74 534.635L407.432 529.95L407.956 547.128L396.413 548.169Z" fill="#EE9F86"/>
<path d="M408.394 545.179C405.466 546.429 398.635 546.741 395.585 546.741H395.128L394.213 559.755H430.352C437.306 559.755 433.859 556.284 431.267 554.549C424.68 554.549 413.274 548.303 408.394 545.179Z" fill="#1D104A"/>
<path d="M374.685 462.309C367.729 484.177 358.927 509.051 348.142 535.197L329.445 529.425C334.692 514.034 344.364 469.401 348.142 390.907L394.314 388.283C399.736 408.221 410.16 465.518 408.481 535.197L391.166 535.722C387.455 516.532 381.404 488.271 374.685 462.309Z" fill="#262626"/>
<mask id="mask8" mask-type="alpha" maskUnits="userSpaceOnUse" x="329" y="388" width="80" height="148">
<path d="M374.685 462.309C367.729 484.177 358.927 509.051 348.142 535.197L329.445 529.425C334.692 514.034 344.364 469.401 348.142 390.907L394.314 388.283C399.736 408.221 410.16 465.518 408.481 535.197L391.166 535.722C387.455 516.532 381.404 488.271 374.685 462.309Z" fill="#79C7CE"/>
</mask>
<g mask="url(#mask8)">
<path d="M374.902 461.215L387.495 537.295H413.205L418.976 485.351L394.316 386.708L374.902 461.215Z" fill="#0F0F0F"/>
</g>
<path d="M389.737 301.22L388.759 296.351L386.721 291.868C385.471 291.039 380.456 289.759 370.389 291.264C360.322 292.769 364.443 311.072 367.761 320.035L367.788 323.165C373.934 326.829 384.007 329.293 382.757 326.543C381.589 323.974 381.583 324.588 381.571 322.769C383.476 323.218 385.325 323.333 386.776 323.084C389.237 322.663 388.301 319.657 387.525 318.206C388.244 317.879 388.562 317.031 388.235 316.312L388.998 315.763C389.33 315.524 389.48 315.104 389.374 314.708C389.187 314.01 389.532 313.279 390.19 312.98L391.447 312.409C392.009 312.153 392.207 311.453 391.863 310.94L389.488 307.409C389.027 306.723 388.954 305.847 389.295 305.095C389.845 303.881 389.999 302.526 389.737 301.22Z" fill="#EE9F86"/>
<path d="M370.734 316.59L367.749 320.391L360.608 303.915C360.033 298.94 361.472 288.233 371.823 285.202C384.762 281.414 387.786 288.067 388.286 288.015C388.686 287.973 389.294 287.033 389.548 286.568C389.706 286.915 389.614 287.993 389.549 288.488C390.485 287.783 390.017 286.064 389.667 285.293C395.053 291.92 391.964 295.593 389.747 296.601C387.511 296.163 382.754 295.731 381.607 297.509C380.174 299.732 380.897 299.403 378.136 301.007C375.927 302.291 376.62 307.398 377.242 309.791L378.36 312.25L375.073 310.778C374.978 307.191 372.473 305.444 371.233 305.019C367.856 305.576 369.493 312.965 370.734 316.59Z" fill="#393939"/>
<path d="M396.604 398.253L388.533 350.214L379.289 345.259L381.343 398.777L396.604 398.253Z" fill="#2E27B6"/>
<path d="M345.016 415.567C342.237 367.981 356.426 334.605 363.868 323.865L366.348 322.873C398.099 327.632 433.31 306.926 444.555 302.96L451.414 310.676C409.497 341.873 388.83 352.615 382.224 352.615C387.681 369.964 387.185 391.279 385.697 402.679C384.506 411.8 377.593 415.072 374.286 415.567H345.016Z" fill="#7873D7"/>
<rect x="38.0293" y="562.84" width="823.978" height="8.45105" rx="4.22553" fill="#4147C9"/>
<g opacity="0.5">
<path fill-rule="evenodd" clip-rule="evenodd" d="M75.5071 27.2287C79.9708 11.5118 94.4298 0 111.578 0C129.785 0 144.96 12.978 148.359 30.1878C151.464 29.1216 154.796 28.5428 158.262 28.5428C175.095 28.5428 188.74 42.1882 188.74 59.0207C188.74 73.4393 178.728 85.5194 165.277 88.6876C163.761 89.2132 162.134 89.4987 160.439 89.4987H31.7549C23.6059 89.4987 16.9998 82.8926 16.9998 74.7435C16.9998 66.5945 23.6059 59.9883 31.755 59.9883H40.2357C39.5951 57.6787 39.2528 55.2451 39.2528 52.7315C39.2528 37.7693 51.3821 25.64 66.3443 25.64C69.5602 25.64 72.6453 26.2003 75.5071 27.2287Z" fill="#E1E4FE"/>
<path fill-rule="evenodd" clip-rule="evenodd" d="M113.874 43.6716C118.338 27.9547 132.797 16.4429 149.945 16.4429C168.152 16.4429 183.328 29.4208 186.726 46.6307C189.831 45.5645 193.163 44.9857 196.63 44.9857C213.462 44.9857 227.107 58.6311 227.107 75.4636C227.107 89.8821 217.095 101.962 203.644 105.13C202.128 105.656 200.501 105.942 198.807 105.942H70.1221C61.9731 105.942 55.367 99.3355 55.367 91.1864C55.367 83.0373 61.9731 76.4312 70.1221 76.4312H78.6029C77.9623 74.1216 77.62 71.688 77.62 69.1744C77.62 54.2121 89.7493 42.0829 104.711 42.0829C107.927 42.0829 111.012 42.6432 113.874 43.6716Z" fill="#EDEEF9"/>
</g>
<defs>
<filter id="filter0_d" x="378.213" y="264.125" width="342.421" height="45.6756" filterUnits="userSpaceOnUse" color-interpolation-filters="sRGB">
<feFlood flood-opacity="0" result="BackgroundImageFix"/>
<feColorMatrix in="SourceAlpha" type="matrix" values="0 0 0 0 0 0 0 0 0 0 0 0 0 0 0 0 0 0 127 0"/>
<feOffset dy="4"/>
<feGaussianBlur stdDeviation="4"/>
<feColorMatrix type="matrix" values="0 0 0 0 0 0 0 0 0 0 0 0 0 0 0 0 0 0 0.1 0"/>
<feBlend mode="normal" in2="BackgroundImageFix" result="effect1_dropShadow"/>
<feBlend mode="normal" in="SourceGraphic" in2="effect1_dropShadow" result="shape"/>
</filter>
<filter id="filter1_d" x="380.602" y="449.396" width="342.421" height="32.8429" filterUnits="userSpaceOnUse" color-interpolation-filters="sRGB">
<feFlood flood-opacity="0" result="BackgroundImageFix"/>
<feColorMatrix in="SourceAlpha" type="matrix" values="0 0 0 0 0 0 0 0 0 0 0 0 0 0 0 0 0 0 127 0"/>
<feOffset dy="4"/>
<feGaussianBlur stdDeviation="4"/>
<feColorMatrix type="matrix" values="0 0 0 0 0 0 0 0 0 0 0 0 0 0 0 0 0 0 0.1 0"/>
<feBlend mode="normal" in2="BackgroundImageFix" result="effect1_dropShadow"/>
<feBlend mode="normal" in="SourceGraphic" in2="effect1_dropShadow" result="shape"/>
</filter>
</defs>
</svg>
