<svg width="1038" height="661" viewBox="0 0 1038 661" fill="none" xmlns="http://www.w3.org/2000/svg">
<path opacity="0.6" d="M335.005 601.143H923.892C1026.2 427.859 933.123 285.239 859.231 157.464C785.339 29.6885 573.137 -78.833 506.824 76.9478C440.51 232.729 456.985 161.667 375.276 232.87C288.054 308.878 326.831 448.021 245.36 427.017C163.889 406.013 150.626 357.003 74.8394 392.01C-0.947164 427.017 -81.9993 601.143 335.005 601.143Z" fill="#E9EDFD"/>
<g opacity="0.9">
<path d="M44.4121 478.997C46.7315 489.339 41.1201 511.885 0.118626 519.329C1.55512 508.471 12.4249 485.203 44.4121 478.997Z" fill="#5A92FF"/>
<path d="M261.291 621.742C243.028 590.61 191.33 518.887 130.641 481.044C54.7793 433.74 75.8519 357.327 92.71 337.92" stroke="black"/>
<path d="M128.541 479.83C118.355 472.553 84.9202 462.364 45.3037 479.83M728.057 563.521C757.207 554.627 819.933 508.698 837.634 396.139" stroke="black"/>
<path d="M87.8761 345.093C83.3103 335.794 83.6615 312.345 121.592 292.938C122.646 303.854 117.378 329.568 87.8761 345.093Z" fill="#5A92FF"/>
<path d="M835.958 398.607C832.556 391.68 832.818 374.21 861.076 359.752C861.861 367.885 857.936 387.041 835.958 398.607Z" fill="#00AE87"/>
<path d="M831.734 345.431C833.462 353.136 829.282 369.933 798.736 375.478C799.806 367.389 807.904 350.055 831.734 345.431Z" fill="#00AE87"/>
<path d="M734.375 471.339C734.375 448.698 747.861 397.352 801.807 373.093" stroke="black"/>
<path d="M764.93 399.778C773.359 386.436 784.527 353.445 761.769 328.216" stroke="black"/>
<path d="M762.459 330.122C755.798 327.992 745.252 315.426 756.353 282.201C761.904 287.313 770.895 304.053 762.459 330.122Z" fill="#00AE87"/>
<path d="M200.395 577.43C282.011 656.265 335.841 638.683 351.63 622.867C361.345 605.835 279.974 439.162 152.449 406.314C24.9247 373.466 -5.7856 456.635 32.2047 480.81C51.8864 493.335 168.188 536.277 200.395 577.43Z" fill="#83B8FB"/>
<path d="M329.225 607.848C312.942 559.365 235.753 461.428 57.2573 457.55" stroke="#041335"/>
<path d="M161.724 538.194C154.914 627.258 255.367 639.843 306.444 635.003C323.47 632.583 355.82 608.865 349.01 533.354C342.2 457.843 265.096 379.266 227.396 349.417C173.886 317.551 76.8383 275.6 116.728 362.728C166.589 471.638 170.237 426.864 161.724 538.194Z" fill="#5C88DF"/>
<path d="M136.465 359.347C177.704 384.818 269.401 471.906 306.273 616.485" stroke="#4162B4"/>
<path d="M849.601 627.533C840.29 638.614 757.778 635.602 717.685 632.71L715.542 636.236C724.859 601.934 744.425 527.297 748.148 503.168C752.802 473.006 815.155 502.825 820.592 459.461C826.028 416.098 828.448 405.498 843.799 402.752C859.15 400.006 869.227 453.595 898.313 400.455C927.398 347.315 962.988 353.64 974.306 354.881C985.624 356.122 994.106 358.055 938.284 424.728C882.461 491.4 921.045 468.971 933.496 519.979C945.947 570.987 870.48 565.387 854.921 563.18C839.362 560.972 861.241 613.683 849.601 627.533Z" fill="#3160BB"/>
<path fill-rule="evenodd" clip-rule="evenodd" d="M835.244 521.417C849.34 470.592 892.071 442.953 911.648 435.5L911.292 434.566C891.523 442.092 848.488 469.924 834.28 521.149C829.859 537.09 826.272 548.145 822.947 555.92C819.622 563.697 816.578 568.145 813.265 570.918C809.961 573.684 806.342 574.822 801.751 575.88C800.841 576.09 799.893 576.296 798.904 576.512L798.904 576.512C795.293 577.298 791.128 578.205 786.219 579.833L783.925 529.762L782.926 529.808L785.233 580.167C785.035 580.235 784.834 580.305 784.633 580.376C773.345 584.358 765.043 593.444 759.257 603.124C753.469 612.807 750.164 623.138 748.891 629.712L749.872 629.902C751.126 623.428 754.394 613.208 760.115 603.637C765.839 594.062 773.983 585.193 784.966 581.319C790.507 579.365 795.106 578.363 799.095 577.494L799.095 577.494L799.096 577.494C800.092 577.277 801.05 577.068 801.975 576.855C806.598 575.789 810.413 574.609 813.907 571.684C817.395 568.766 820.516 564.15 823.867 556.313C827.219 548.475 830.82 537.366 835.244 521.417Z" fill="#2F4CAC"/>
<path d="M676.479 479.021C615.732 595.282 678.991 633.575 718.214 638.188C725.634 639.508 732.899 635.278 735.603 632.998C764.818 584.556 736.956 535.153 719.373 516.506L708.939 519.967V507.856L692.709 493.439L676.479 479.021Z" fill="#6A91E0"/>
<path fill-rule="evenodd" clip-rule="evenodd" d="M681.522 534.367C682.768 541.747 684.298 549.301 686.155 556.815C691.505 578.461 699.584 599.837 711.457 615.785L711.456 615.785L711.457 615.786C715.171 620.775 719.257 625.234 723.747 629.003L724.39 628.237C720.079 624.618 716.141 620.35 712.547 615.573L725.708 565.79L724.741 565.535L711.784 614.545C704.726 604.894 699.023 593.271 694.452 580.799L694.514 580.816L707.799 533.453L706.836 533.183L693.905 579.286C691.273 571.917 689.028 564.271 687.126 556.575C685.273 549.078 683.746 541.54 682.504 534.176L691.627 501.104L690.663 500.838L682.115 531.824C678.952 512.233 677.783 494.042 677.783 481.333H676.783C676.783 494.551 678.042 513.662 681.481 534.124L681.421 534.339L681.522 534.367Z" fill="#4773CC"/>
<rect x="58.3638" y="633.474" width="873.116" height="11.6727" rx="5.83634" fill="#4147C9"/>
<path d="M210.022 632.869H236.929H263.836C271.582 596.586 281.448 501.515 268.728 470.206C252.829 431.069 249.159 395.602 168.439 393.156C100.613 391.1 168.031 555.818 210.022 632.869Z" fill="#2F4CAC"/>
<path fill-rule="evenodd" clip-rule="evenodd" d="M235.923 623.575C233.851 602.304 230.535 573.975 226.172 545.172C225.838 539.389 226.313 531.579 228.161 523.903C230.719 513.276 235.865 503.072 244.95 498.768L244.522 497.864C235.017 502.367 229.768 512.954 227.189 523.669C225.968 528.741 225.336 533.88 225.141 538.479C224.253 532.821 223.326 527.164 222.361 521.558C219.294 503.753 215.842 486.458 212.051 471.267L212.176 471.215C212.086 470.998 211.983 470.771 211.867 470.532C211.445 468.852 211.018 467.198 210.587 465.573C206.221 449.095 201.421 435.499 196.243 427.115L195.392 427.641C200.487 435.89 205.258 449.364 209.621 465.829C209.773 466.405 209.925 466.985 210.077 467.568C206.055 461.886 197.074 453.651 181.282 448.914L180.995 449.871C199.515 455.428 208.413 465.813 210.923 470.878C214.768 486.187 218.269 503.689 221.375 521.728C222.718 529.523 223.986 537.417 225.177 545.277C225.309 547.522 225.561 549.474 225.903 551.015L226.029 550.987C230.528 581.563 233.825 611.112 235.679 631.668L236.175 631.624L236.677 631.633C236.881 620.638 237.797 604.274 239.882 590.913C240.925 584.226 242.255 578.326 243.921 574.23C244.755 572.179 245.657 570.623 246.617 569.644C247.564 568.679 248.523 568.315 249.532 568.517L249.728 567.536C248.291 567.249 247.008 567.817 245.903 568.944C244.81 570.058 243.849 571.754 242.995 573.854C241.284 578.06 239.94 584.053 238.893 590.759C237.264 601.204 236.347 613.459 235.923 623.575ZM225.493 587.926C231.366 605.329 234.431 621.754 235.454 631.574L234.459 631.678C233.444 621.93 230.394 605.577 224.546 588.246C218.696 570.91 210.06 552.636 197.893 539.009L198.639 538.343C210.932 552.112 219.623 570.528 225.493 587.926Z" fill="#293159"/>
</g>
<path d="M369.441 260.301H144.292C121.655 260.301 103.303 278.653 103.303 301.29V301.29C103.303 323.928 121.655 342.279 144.292 342.279H289.27C321.943 342.279 348.43 368.766 348.43 401.438V401.438C348.43 434.111 321.943 460.598 289.27 460.598H95.3694C78.7996 460.598 65.3672 474.03 65.3672 490.6V490.6C65.3672 507.17 78.7996 520.602 95.3694 520.602H396.871" stroke="#0BDEAF" stroke-width="3" stroke-dasharray="12 12"/>
<rect x="164.447" y="245.03" width="711.438" height="390.79" fill="#C5CCE7"/>
<rect x="175.08" y="278.764" width="688.672" height="344.336" fill="#F6F7FB"/>
<ellipse cx="186.809" cy="261.954" rx="7.11438" ry="6.76218" fill="#D63838"/>
<ellipse cx="209.574" cy="261.954" rx="7.11438" ry="6.76218" fill="#DFDFDF"/>
<ellipse cx="232.34" cy="261.954" rx="7.11438" ry="6.76218" fill="#3BD638"/>
<rect x="174.907" y="277.57" width="189.433" height="344" fill="#999EB1"/>
<rect x="175.83" y="379.702" width="187.82" height="36.9948" fill="#A9B1D0"/>
<g filter="url(#filter0_d)">
<rect x="608.382" y="311.405" width="239.043" height="73.9895" rx="2" fill="white"/>
</g>
<circle cx="205.644" cy="397.559" r="11.1336" fill="white"/>
<rect x="222.34" y="393.105" width="96.8624" height="4.45344" rx="2.22672" fill="white"/>
<rect x="222.34" y="398.673" width="28.9474" height="4.45344" rx="2.22672" fill="white"/>
<circle cx="727.908" cy="331.323" r="11.383" fill="#CDE7FF"/>
<path d="M271.638 248.611L501.29 246.023L505.049 556.796L275.373 559.574L271.638 248.611Z" fill="#274C97"/>
<mask id="mask0" mask-type="alpha" maskUnits="userSpaceOnUse" x="271" y="243" width="234" height="315">
<path d="M271.584 246.688L501.149 244.148L504.908 554.921L275.232 557.699L271.584 246.688Z" fill="#1A7BBF"/>
</mask>
<g mask="url(#mask0)">
<line x1="273.1" y1="250.398" x2="277.51" y2="559.893" stroke="white" stroke-opacity="0.2" stroke-width="0.4"/>
<line x1="280.623" y1="250.291" x2="285.033" y2="559.785" stroke="white" stroke-opacity="0.2" stroke-width="0.4"/>
<line x1="288.145" y1="250.183" x2="292.555" y2="559.678" stroke="white" stroke-opacity="0.2" stroke-width="0.4"/>
<line x1="295.667" y1="250.076" x2="300.076" y2="559.57" stroke="white" stroke-opacity="0.2" stroke-width="0.4"/>
<line x1="303.204" y1="251.043" x2="307.614" y2="560.538" stroke="white" stroke-opacity="0.2" stroke-width="0.4"/>
<line x1="310.725" y1="250.937" x2="315.135" y2="560.431" stroke="white" stroke-opacity="0.2" stroke-width="0.4"/>
<line x1="318.249" y1="250.829" x2="322.659" y2="560.324" stroke="white" stroke-opacity="0.2" stroke-width="0.4"/>
<line x1="325.771" y1="250.722" x2="330.181" y2="560.216" stroke="white" stroke-opacity="0.2" stroke-width="0.4"/>
<line x1="333.292" y1="250.614" x2="337.702" y2="560.109" stroke="white" stroke-opacity="0.2" stroke-width="0.4"/>
<line x1="340.815" y1="250.508" x2="345.224" y2="560.003" stroke="white" stroke-opacity="0.2" stroke-width="0.4"/>
<line x1="348.335" y1="250.4" x2="352.744" y2="559.895" stroke="white" stroke-opacity="0.2" stroke-width="0.4"/>
<line x1="355.858" y1="250.294" x2="360.268" y2="559.788" stroke="white" stroke-opacity="0.2" stroke-width="0.4"/>
<line x1="363.38" y1="250.186" x2="367.79" y2="559.68" stroke="white" stroke-opacity="0.2" stroke-width="0.4"/>
<line x1="370.902" y1="250.079" x2="375.311" y2="559.573" stroke="white" stroke-opacity="0.2" stroke-width="0.4"/>
<line x1="378.423" y1="249.971" x2="382.832" y2="559.466" stroke="white" stroke-opacity="0.2" stroke-width="0.4"/>
<line x1="385.944" y1="249.864" x2="390.354" y2="559.358" stroke="white" stroke-opacity="0.2" stroke-width="0.4"/>
<line x1="393.467" y1="249.756" x2="397.877" y2="559.251" stroke="white" stroke-opacity="0.2" stroke-width="0.4"/>
<line x1="400.988" y1="249.651" x2="405.397" y2="559.146" stroke="white" stroke-opacity="0.2" stroke-width="0.4"/>
<line x1="408.511" y1="249.544" x2="412.92" y2="559.038" stroke="white" stroke-opacity="0.2" stroke-width="0.4"/>
<line x1="416.033" y1="249.436" x2="420.443" y2="558.93" stroke="white" stroke-opacity="0.2" stroke-width="0.4"/>
<line x1="423.988" y1="247.691" x2="428.398" y2="557.186" stroke="white" stroke-opacity="0.2" stroke-width="0.4"/>
<line x1="431.512" y1="247.584" x2="435.921" y2="557.078" stroke="white" stroke-opacity="0.2" stroke-width="0.4"/>
<line x1="439.032" y1="247.477" x2="443.442" y2="556.971" stroke="white" stroke-opacity="0.2" stroke-width="0.4"/>
<line x1="446.554" y1="247.369" x2="450.964" y2="556.864" stroke="white" stroke-opacity="0.2" stroke-width="0.4"/>
<line x1="454.091" y1="248.337" x2="458.501" y2="557.831" stroke="white" stroke-opacity="0.2" stroke-width="0.4"/>
<line x1="461.614" y1="248.23" x2="466.023" y2="557.725" stroke="white" stroke-opacity="0.2" stroke-width="0.4"/>
<line x1="469.137" y1="248.123" x2="473.546" y2="557.617" stroke="white" stroke-opacity="0.2" stroke-width="0.4"/>
<line x1="476.658" y1="248.015" x2="481.068" y2="557.51" stroke="white" stroke-opacity="0.2" stroke-width="0.4"/>
<line x1="484.179" y1="247.908" x2="488.589" y2="557.402" stroke="white" stroke-opacity="0.2" stroke-width="0.4"/>
<line x1="491.7" y1="247.802" x2="496.11" y2="557.296" stroke="white" stroke-opacity="0.2" stroke-width="0.4"/>
<line x1="537.861" y1="292.546" x2="228.366" y2="296.955" stroke="white" stroke-opacity="0.2" stroke-width="0.4"/>
<line x1="535.411" y1="283.009" x2="225.916" y2="287.418" stroke="white" stroke-opacity="0.2" stroke-width="0.4"/>
<line x1="531.803" y1="273" x2="222.309" y2="277.41" stroke="white" stroke-opacity="0.2" stroke-width="0.4"/>
<line x1="530.08" y1="261.505" x2="220.585" y2="265.915" stroke="white" stroke-opacity="0.2" stroke-width="0.4"/>
<line x1="527.901" y1="250.982" x2="218.406" y2="255.391" stroke="white" stroke-opacity="0.2" stroke-width="0.4"/>
<line x1="537.966" y1="300.067" x2="228.471" y2="304.477" stroke="white" stroke-opacity="0.2" stroke-width="0.4"/>
<line x1="538.076" y1="307.589" x2="228.581" y2="311.998" stroke="white" stroke-opacity="0.2" stroke-width="0.4"/>
<line x1="538.181" y1="315.11" x2="228.686" y2="319.52" stroke="white" stroke-opacity="0.2" stroke-width="0.4"/>
<line x1="537.214" y1="322.648" x2="227.719" y2="327.058" stroke="white" stroke-opacity="0.2" stroke-width="0.4"/>
<line x1="537.32" y1="330.171" x2="227.825" y2="334.58" stroke="white" stroke-opacity="0.2" stroke-width="0.4"/>
<line x1="537.429" y1="337.692" x2="227.934" y2="342.102" stroke="white" stroke-opacity="0.2" stroke-width="0.4"/>
<line x1="537.535" y1="345.215" x2="228.04" y2="349.624" stroke="white" stroke-opacity="0.2" stroke-width="0.4"/>
<line x1="537.641" y1="352.735" x2="228.146" y2="357.145" stroke="white" stroke-opacity="0.2" stroke-width="0.4"/>
<line x1="537.749" y1="360.257" x2="228.255" y2="364.667" stroke="white" stroke-opacity="0.2" stroke-width="0.4"/>
<line x1="537.854" y1="367.779" x2="228.36" y2="372.188" stroke="white" stroke-opacity="0.2" stroke-width="0.4"/>
<line x1="537.963" y1="375.301" x2="228.468" y2="379.711" stroke="white" stroke-opacity="0.2" stroke-width="0.4"/>
<line x1="538.07" y1="382.823" x2="228.575" y2="387.233" stroke="white" stroke-opacity="0.2" stroke-width="0.4"/>
<line x1="538.178" y1="390.345" x2="228.683" y2="394.754" stroke="white" stroke-opacity="0.2" stroke-width="0.4"/>
<line x1="538.285" y1="397.866" x2="228.79" y2="402.276" stroke="white" stroke-opacity="0.2" stroke-width="0.4"/>
<line x1="538.392" y1="405.388" x2="228.898" y2="409.798" stroke="white" stroke-opacity="0.2" stroke-width="0.4"/>
<line x1="538.497" y1="412.91" x2="229.003" y2="417.32" stroke="white" stroke-opacity="0.2" stroke-width="0.4"/>
<line x1="538.608" y1="420.431" x2="229.113" y2="424.841" stroke="white" stroke-opacity="0.2" stroke-width="0.4"/>
<line x1="538.713" y1="427.954" x2="229.218" y2="432.364" stroke="white" stroke-opacity="0.2" stroke-width="0.4"/>
<line x1="538.819" y1="435.476" x2="229.324" y2="439.886" stroke="white" stroke-opacity="0.2" stroke-width="0.4"/>
<line x1="540.565" y1="443.433" x2="231.07" y2="447.843" stroke="white" stroke-opacity="0.2" stroke-width="0.4"/>
<line x1="540.673" y1="450.955" x2="231.178" y2="455.365" stroke="white" stroke-opacity="0.2" stroke-width="0.4"/>
<line x1="540.78" y1="458.476" x2="231.285" y2="462.886" stroke="white" stroke-opacity="0.2" stroke-width="0.4"/>
<line x1="540.886" y1="465.998" x2="231.392" y2="470.408" stroke="white" stroke-opacity="0.2" stroke-width="0.4"/>
<line x1="539.919" y1="473.536" x2="230.424" y2="477.946" stroke="white" stroke-opacity="0.2" stroke-width="0.4"/>
<line x1="540.026" y1="481.058" x2="230.531" y2="485.468" stroke="white" stroke-opacity="0.2" stroke-width="0.4"/>
<line x1="540.133" y1="488.58" x2="230.638" y2="492.99" stroke="white" stroke-opacity="0.2" stroke-width="0.4"/>
<line x1="540.241" y1="496.102" x2="230.747" y2="500.512" stroke="white" stroke-opacity="0.2" stroke-width="0.4"/>
<line x1="540.348" y1="503.623" x2="230.853" y2="508.033" stroke="white" stroke-opacity="0.2" stroke-width="0.4"/>
<line x1="540.455" y1="511.145" x2="230.96" y2="515.555" stroke="white" stroke-opacity="0.2" stroke-width="0.4"/>
<line x1="540.676" y1="519.407" x2="231.182" y2="523.816" stroke="white" stroke-opacity="0.2" stroke-width="0.4"/>
<line x1="539.478" y1="529.531" x2="229.983" y2="533.94" stroke="white" stroke-opacity="0.2" stroke-width="0.4"/>
<line x1="536.91" y1="542.572" x2="227.415" y2="546.982" stroke="white" stroke-opacity="0.2" stroke-width="0.4"/>
</g>
<path d="M321.517 498.142L335.862 475.198L343.138 497.616L319.236 513.101L321.517 498.142Z" stroke="white"/>
<path d="M312.423 530.408L312.421 530.908L312.708 530.909L312.854 530.661L312.423 530.408ZM307.665 530.389L307.667 529.889L307.166 529.887L307.165 530.388L307.665 530.389ZM307.736 470.131L308.059 469.749L307.24 469.056L307.236 470.129L307.736 470.131ZM307.735 470.342L307.235 470.341L308.235 470.344L307.735 470.342ZM307.735 470.132L308.235 470.132L308.236 469.064L307.415 469.748L307.735 470.132ZM302.738 530.37L302.305 530.62L302.449 530.869L302.736 530.87L302.738 530.37ZM307.665 530.39L307.663 530.89L308.164 530.892L308.165 530.391L307.665 530.39ZM312.425 529.908L307.667 529.889L307.663 530.889L312.421 530.908L312.425 529.908ZM320.714 498.572C320.66 512.037 314.872 525.25 311.991 530.155L312.854 530.661C315.789 525.663 321.659 512.276 321.714 498.576L320.714 498.572ZM307.413 470.513C311.867 474.283 320.767 485.195 320.714 498.572L321.714 498.576C321.768 484.789 312.634 473.622 308.059 469.749L307.413 470.513ZM308.235 470.344L308.236 470.133L307.236 470.129L307.235 470.34L308.235 470.344ZM308.235 470.342L308.235 470.132L307.235 470.131L307.235 470.341L308.235 470.342ZM307.415 469.748C302.805 473.588 293.756 484.682 293.701 498.466L294.701 498.47C294.754 485.088 303.575 474.248 308.055 470.516L307.415 469.748ZM293.701 498.466C293.647 512.165 299.41 525.598 302.305 530.62L303.172 530.121C300.33 525.192 294.647 511.935 294.701 498.47L293.701 498.466ZM302.736 530.87L307.663 530.89L307.667 529.89L302.74 529.87L302.736 530.87ZM308.165 530.391L308.165 530.39L307.165 530.388L307.165 530.389L308.165 530.391Z" fill="white"/>
<path d="M405.172 498.271L391.347 473.369L382.122 499.313L407.268 515.287L405.172 498.271Z" stroke="white"/>
<path d="M413.903 530.811L413.901 531.311L413.613 531.31L413.47 531.061L413.903 530.811ZM418.66 530.83L418.662 530.33L419.163 530.332L419.16 530.833L418.66 530.83ZM419.069 470.574L418.749 470.189L419.573 469.503L419.569 470.576L419.069 470.574ZM419.068 470.755L419.568 470.759L418.568 470.753L419.068 470.755ZM419.07 470.574L418.57 470.571L418.577 469.502L419.393 470.192L419.07 470.574ZM423.587 530.85L424.018 531.104L423.872 531.352L423.585 531.35L423.587 530.85ZM418.66 530.831L418.658 531.331L418.157 531.329L418.16 530.828L418.66 530.831ZM413.905 530.311L418.662 530.33L418.658 531.33L413.901 531.311L413.905 530.311ZM405.865 498.911C405.812 512.376 411.495 525.634 414.336 530.562L413.47 531.061C410.574 526.039 404.811 512.606 404.865 498.907L405.865 498.911ZM419.389 470.958C414.904 474.693 405.919 485.533 405.865 498.911L404.865 498.907C404.92 485.12 414.143 474.026 418.749 470.189L419.389 470.958ZM418.568 470.753L418.569 470.572L419.569 470.576L419.568 470.757L418.568 470.753ZM418.568 470.752L418.57 470.571L419.57 470.577L419.568 470.759L418.568 470.752ZM419.393 470.192C423.972 474.069 432.933 485.235 432.878 499.019L431.878 499.015C431.931 485.633 423.197 474.723 418.747 470.956L419.393 470.192ZM432.878 499.019C432.823 512.718 426.953 526.105 424.018 531.104L423.156 530.597C426.036 525.692 431.824 512.48 431.878 499.015L432.878 499.019ZM423.585 531.35L418.658 531.331L418.662 530.331L423.589 530.35L423.585 531.35ZM418.16 530.828L418.16 530.827L419.16 530.833L419.16 530.834L418.16 530.828Z" fill="white"/>
<path d="M377.794 509.37L377.792 509.87L378.107 509.871L378.244 509.587L377.794 509.37ZM363.248 509.312L363.25 508.812L362.748 508.81L362.748 509.312L363.248 509.312ZM363.624 284.383L363.983 284.036L363.129 283.153L363.124 284.381L363.624 284.383ZM363.623 284.698L363.123 284.697L364.123 284.7L363.623 284.698ZM363.623 284.384L364.123 284.385L364.125 283.161L363.267 284.034L363.623 284.384ZM348.184 509.253L347.731 509.466L347.866 509.752L348.182 509.753L348.184 509.253ZM363.248 509.313L363.246 509.813L363.748 509.815L363.748 509.313L363.248 509.313ZM377.796 508.87L363.25 508.812L363.246 509.812L377.792 509.87L377.796 508.87ZM404.259 390.517C404.058 441.121 386.226 490.706 377.343 509.153L378.244 509.587C387.17 491.05 405.057 441.316 405.259 390.521L404.259 390.517ZM363.265 284.731C376.998 298.921 404.46 339.984 404.259 390.517L405.259 390.521C405.462 339.655 377.841 298.354 363.983 284.036L363.265 284.731ZM364.123 284.7L364.124 284.385L363.124 284.381L363.123 284.696L364.123 284.7ZM364.123 284.699L364.123 284.385L363.123 284.384L363.123 284.697L364.123 284.699ZM363.267 284.034C349.292 298.244 321.867 339.327 321.664 390.189L322.664 390.193C322.865 339.657 350.137 298.811 363.98 284.735L363.267 284.034ZM321.664 390.189C321.462 440.984 338.953 490.859 347.731 509.466L348.636 509.04C339.9 490.522 322.463 440.797 322.664 390.193L321.664 390.189ZM348.182 509.753L363.246 509.813L363.25 508.813L348.186 508.753L348.182 509.753ZM363.748 509.313L363.748 509.312L362.748 509.312L362.748 509.313L363.748 509.313Z" fill="white"/>
<path d="M385.963 442.934L421.312 443.517L421.379 406.738L439.883 406.529" stroke="white" stroke-dasharray="4 4"/>
<rect x="396.47" y="298.241" width="93.4953" height="5.47032" transform="rotate(-0.716304 396.47 298.241)" fill="white"/>
<rect x="412.518" y="365.155" width="62.651" height="5.47032" transform="rotate(-0.716304 412.518 365.155)" fill="white"/>
<rect x="412.022" y="373.79" width="62.651" height="1.3801" transform="rotate(-0.716304 412.022 373.79)" fill="white"/>
<rect x="411.167" y="378.137" width="62.651" height="1.3801" transform="rotate(-0.716304 411.167 378.137)" fill="white"/>
<rect x="425.281" y="464.329" width="62.651" height="5.2491" transform="rotate(-0.716304 425.281 464.329)" fill="white"/>
<rect x="425.914" y="470.562" width="62.651" height="2.46195" transform="rotate(-0.716304 425.914 470.562)" fill="white"/>
<rect x="426.488" y="474.396" width="38.0471" height="2.46195" transform="rotate(-0.716304 426.488 474.396)" fill="white"/>
<rect x="431.408" y="479.086" width="55.9769" height="2.46195" transform="rotate(-0.716304 431.408 479.086)" fill="white"/>
<rect x="431.85" y="483.195" width="55.9769" height="2.46195" transform="rotate(-0.716304 431.85 483.195)" fill="white"/>
<rect x="397.164" y="307.278" width="60.7567" height="1.48245" transform="rotate(-0.716304 397.164 307.278)" fill="white"/>
<rect x="397.415" y="311.389" width="60.7567" height="1.48245" transform="rotate(-0.716304 397.415 311.389)" fill="white"/>
<rect x="291.558" y="257.247" width="93.4953" height="5.47032" transform="rotate(-0.716304 291.558 257.247)" fill="white"/>
<path d="M403.85 407.406L322.886 409.134L324.092 419.2L402.911 418.246L403.85 407.406Z" stroke="white"/>
<rect x="324.131" y="266.261" width="60.7567" height="1.48245" transform="rotate(-0.716304 324.131 266.261)" fill="white"/>
<rect x="325.164" y="269.12" width="60.7567" height="1.48245" transform="rotate(-0.716304 325.164 269.12)" fill="white"/>
<rect x="397.989" y="315.221" width="60.7567" height="1.48245" transform="rotate(-0.716304 397.989 315.221)" fill="white"/>
<rect x="399.078" y="320.483" width="60.7567" height="1.48245" transform="rotate(-0.716304 399.078 320.483)" fill="white"/>
<rect x="302.069" y="308.153" width="26.3297" height="1.3801" transform="rotate(-0.716304 302.069 308.153)" fill="white"/>
<rect x="302.017" y="310.792" width="26.3297" height="1.3801" transform="rotate(-0.716304 302.017 310.792)" fill="white"/>
<rect x="302.076" y="313.195" width="26.3297" height="1.3801" transform="rotate(-0.716304 302.076 313.195)" fill="white"/>
<rect x="302.135" y="315.597" width="26.3297" height="1.3801" transform="rotate(-0.716304 302.135 315.597)" fill="white"/>
<circle cx="291.356" cy="313.265" r="9.67193" transform="rotate(25.1726 291.356 313.265)" fill="white"/>
<path d="M382.781 360.101C377.456 371.432 364.629 376.548 354.166 371.63C343.704 366.713 339.457 353.573 344.782 342.243C350.107 330.912 362.934 325.796 373.397 330.714C383.859 335.631 388.106 348.771 382.781 360.101Z" stroke="white"/>
<rect x="464.037" y="400.611" width="26.3297" height="1.3801" transform="rotate(-0.716304 464.037 400.611)" fill="white"/>
<rect x="463.984" y="403.25" width="26.3297" height="1.3801" transform="rotate(-0.716304 463.984 403.25)" fill="white"/>
<rect x="464.044" y="405.653" width="26.3297" height="1.3801" transform="rotate(-0.716304 464.044 405.653)" fill="white"/>
<rect x="464.103" y="408.055" width="26.3297" height="1.3801" transform="rotate(-0.716304 464.103 408.055)" fill="white"/>
<circle cx="453.324" cy="405.723" r="9.67193" transform="rotate(25.1726 453.324 405.723)" fill="white"/>
<path d="M342.1 457.943L305.837 459.305L304.605 339.389" stroke="white" stroke-dasharray="4 4"/>
<circle cx="409.182" cy="337.016" r="11.383" fill="#FFCDD6"/>
<rect x="679.525" y="348.399" width="96.7556" height="5.6915" rx="2.84575" fill="#1978DC" fill-opacity="0.38"/>
<rect x="426.258" y="328.477" width="96.7556" height="5.6915" rx="2.84575" fill="#B1D7FF"/>
<circle cx="205.644" cy="315.17" r="11.1336" fill="#FFCDD6"/>
<rect x="222.34" y="310.719" width="96.8624" height="4.45344" rx="2.22672" fill="white" fill-opacity="0.25"/>
<rect x="222.34" y="316.284" width="28.9474" height="4.45344" rx="2.22672" fill="white" fill-opacity="0.25"/>
<circle cx="205.644" cy="356.365" r="11.1336" fill="#FFCDD6"/>
<rect x="222.34" y="351.91" width="96.8624" height="4.45344" rx="2.22672" fill="white" fill-opacity="0.25"/>
<rect x="222.34" y="357.479" width="28.9474" height="4.45344" rx="2.22672" fill="white" fill-opacity="0.25"/>
<circle cx="205.644" cy="438.755" r="11.1336" fill="#FFCDD6"/>
<rect x="222.34" y="434.303" width="96.8624" height="4.45344" rx="2.22672" fill="white" fill-opacity="0.25"/>
<rect x="222.34" y="439.868" width="28.9474" height="4.45344" rx="2.22672" fill="white" fill-opacity="0.25"/>
<rect x="426.258" y="337.014" width="42.6863" height="5.6915" rx="2.84575" fill="#B1D7FF"/>
<rect x="400.647" y="356.936" width="54.0693" height="2.84575" rx="1.42288" fill="#B1D7FF"/>
<rect x="400.647" y="365.472" width="48.3778" height="2.84575" rx="1.42288" fill="#B1D7FF"/>
<rect x="397.799" y="371.166" width="39.8405" height="5.6915" rx="2.84575" fill="#B1D7FF"/>
<rect x="397.799" y="379.702" width="25.6118" height="5.6915" rx="2.84575" fill="#B1D7FF"/>
<path d="M397.799 393.931V573.213H579.927" stroke="#B1D7FF"/>
<rect x="648.229" y="362.627" width="159.362" height="5.6915" rx="2.84575" fill="#1978DC" fill-opacity="0.38"/>
<path d="M409.388 561.78L456.149 533.39L491.22 474.381L563.032 391.436" stroke="#FFB800" stroke-width="2"/>
<circle cx="409.391" cy="561.223" r="3.34008" fill="#FFB800"/>
<circle cx="489.552" cy="476.608" r="3.34008" fill="#FFB800"/>
<circle cx="563.034" cy="390.88" r="3.34008" fill="#FFB800"/>
<g filter="url(#filter1_d)">
<rect x="570.324" y="379.363" width="379.362" height="119.429" rx="9" fill="white"/>
</g>
<circle cx="617.744" cy="421.514" r="17.5631" fill="#FFCDD6"/>
<rect x="649.356" y="414.489" width="152.799" height="7.02522" rx="3.51261" fill="#B1D7FF"/>
<rect x="649.356" y="426.783" width="64.9833" height="7.02522" rx="3.51261" fill="#B1D7FF"/>
<rect x="601.937" y="449.615" width="107.135" height="7.02522" rx="3.51261" fill="#B1D7FF"/>
<rect x="714.34" y="449.615" width="38.6387" height="7.02522" rx="3.51261" fill="#B1D7FF"/>
<rect x="760.005" y="449.615" width="61.4707" height="7.02522" rx="3.51261" fill="#B1D7FF"/>
<rect x="828.501" y="449.615" width="19.3194" height="7.02522" rx="3.51261" fill="#B1D7FF"/>
<rect x="853.09" y="449.615" width="86.059" height="7.02522" rx="3.51261" fill="#B1D7FF"/>
<path d="M836.701 517.979C830.666 530.049 881.461 541.113 907.613 545.137L909.122 514.962C916.666 477.242 916.666 468.19 907.613 469.699C898.561 471.207 891.017 489.313 887.999 478.751C884.982 468.19 907.613 441.032 900.069 421.418C892.526 401.804 877.438 433.488 871.403 428.962C865.368 424.436 875.929 373.138 866.877 370.12C857.824 367.103 856.315 409.348 853.298 394.261C850.28 379.173 826.14 347.489 806.526 359.559C786.912 371.629 841.228 401.804 836.701 407.839C832.175 413.875 802 395.769 802 413.875C802 431.98 851.789 438.015 862.35 445.559C872.912 453.102 829.158 460.646 818.596 465.172C808.035 469.699 811.053 486.295 841.228 487.804C871.403 489.313 877.438 496.856 880.456 504.4C883.473 511.944 844.245 502.891 836.701 517.979Z" fill="#62A2F4"/>
<path d="M841.228 394.26C848.772 400.798 865.368 422.323 871.403 456.12C877.438 489.916 896.046 522.505 904.596 534.575" stroke="white" stroke-opacity="0.32"/>
<path d="M976.239 516.053C982.274 528.123 931.48 539.187 905.328 543.21L903.819 513.035C896.275 475.316 896.275 466.264 905.328 467.772C914.38 469.281 921.924 487.386 924.942 476.825C927.959 466.264 905.328 439.106 912.871 419.492C920.415 399.878 935.503 431.562 941.538 427.036C947.573 422.51 937.012 371.212 946.064 368.194C955.117 365.177 956.626 407.422 959.643 392.334C962.661 377.247 986.801 345.563 1006.41 357.633C1026.03 369.703 971.713 399.878 976.239 405.913C980.766 411.948 1010.94 393.843 1010.94 411.948C1010.94 430.053 961.152 436.088 950.59 443.632C940.029 451.176 983.783 458.72 994.345 463.246C1004.91 467.772 1001.89 484.369 971.713 485.878C941.538 487.386 935.503 494.93 932.485 502.474C929.468 510.018 968.696 500.965 976.239 516.053Z" fill="#569BF4"/>
<path d="M971.713 392.335C964.17 398.873 947.573 420.398 941.538 454.194C935.503 487.99 916.895 520.579 908.345 532.649" stroke="white" stroke-opacity="0.32"/>
<path d="M872.962 484.675C860.271 484.675 874.634 508.644 882.995 518.12L908.077 544.875C920.34 539.858 946.203 528.487 951.554 523.136C958.243 516.447 949.882 514.775 941.521 513.103C934.832 511.765 938.734 505.857 941.521 503.07C969.614 495.043 978.867 479.659 979.982 472.97C979.982 471.298 979.982 467.953 973.293 462.936C966.604 457.92 939.849 496.381 941.521 471.297C943.193 446.214 981.654 417.786 979.982 406.081C978.31 394.375 969.949 409.425 954.899 417.786C942.859 424.475 943.193 412.77 944.866 406.081C952.669 397.162 967.273 376.984 963.26 367.62C958.243 355.914 954.899 367.62 941.521 379.325C928.143 391.031 936.504 365.948 939.849 360.931C943.193 355.914 973.293 290.698 919.782 302.403C866.271 314.109 898.043 384.342 899.716 394.375C901.388 404.409 888.011 380.998 867.945 387.687C847.878 394.375 904.733 431.164 904.733 441.198C904.733 451.231 882.995 436.181 872.962 434.509C862.928 432.836 882.995 457.92 888.011 472.97C892.024 485.01 889.683 488.02 888.011 488.02C882.995 491.364 882.995 484.675 872.962 484.675Z" fill="#82B7FB"/>
<path d="M923.124 337.52C919.779 338.077 914.094 356.918 918.107 427.82C922.121 498.722 916.436 524.251 913.092 528.153" stroke="white" stroke-opacity="0.19" stroke-width="2" stroke-linejoin="round"/>
<path d="M867.509 559.184H938.798L931.091 636.254H874.252L867.509 559.184Z" fill="#E92476"/>
<mask id="mask1" mask-type="alpha" maskUnits="userSpaceOnUse" x="867" y="559" width="72" height="78">
<path d="M867.51 559.183H938.8L931.093 636.253H874.254L867.51 559.183Z" fill="#E92476"/>
</mask>
<g mask="url(#mask1)">
<rect x="857.876" y="545.697" width="90.5571" height="26.9744" rx="10" fill="#D2055B"/>
</g>
<rect x="857.876" y="537.99" width="90.5571" height="26.9744" rx="10" fill="#E92476"/>
<path d="M869.436 582.305H936.872L933.982 613.133H871.362L869.436 582.305Z" fill="#F27CAD"/>
<path d="M814.265 445.82C822.721 441.707 817.285 426.766 813.079 420.087L803.058 422.41C806.985 426.791 801.889 437.665 805.159 438.076C807.68 438.392 807.048 436.436 807.81 433.289C810.12 434.602 812.313 441.224 812.917 445.024C813.019 445.668 813.678 446.105 814.265 445.82Z" fill="#EF937E"/>
<path d="M618.741 343.219C613.474 351.009 625.652 361.23 632.635 364.911L646.545 371.53L640.152 357.889C634.56 356.058 633.537 344.093 630.499 345.373C628.158 346.359 629.683 347.736 630.597 350.843C627.94 350.861 622.73 346.223 620.307 343.234C619.896 342.727 619.107 342.678 618.741 343.219Z" fill="#EF937E"/>
<path d="M691.065 349.988C702.541 314.902 715.426 301.467 717.298 297.764C719.247 324.974 713.562 378.804 700.316 387.411C687.071 396.017 652.829 379.597 637.364 370.312L641.594 354.237C674.614 365.696 688.333 356.179 691.065 349.988Z" fill="#EA596A"/>
<path d="M715.893 299.872L726.512 291.345L736.478 292.434L752.004 405.428L692.702 418.679C693.043 415.129 699.246 378.582 703.972 350.153C708.312 324.043 714.36 309.689 715.893 299.872Z" fill="white"/>
<path d="M710.768 261.115L712.868 254.546L716.373 248.672C718.225 247.721 725.345 246.727 739.008 250.357C752.671 253.987 744.161 278.614 738.198 290.474L737.679 294.789C728.631 298.898 713.924 303.22 716.074 299.617C718.082 296.251 718.418 294.626 718.716 292.117C716.018 292.444 713.448 292.317 711.483 291.75C708.151 290.79 709.907 286.784 711.202 284.901C710.26 284.339 709.952 283.12 710.514 282.178L709.546 281.302C709.124 280.921 708.982 280.318 709.189 279.788C709.555 278.854 709.191 277.791 708.329 277.277L706.289 276.06C705.758 275.743 705.639 275.026 706.038 274.554L710.156 269.696C710.898 268.82 711.134 267.623 710.78 266.532C710.208 264.772 710.204 262.877 710.768 261.115Z" fill="#EF937E"/>
<path d="M734.629 285.261L737.279 289.54C737.678 290.184 738.62 290.168 738.997 289.51L748.278 273.31C749.791 270.669 751.013 267.823 751.161 264.782C751.525 257.268 749.205 246.47 737.966 241.77C720.692 234.546 715.491 243.263 714.809 243.114C714.264 242.994 713.569 241.603 713.29 240.922C713.019 241.377 712.979 242.878 712.994 243.572C711.81 242.455 712.721 240.154 713.324 239.144C704.867 247.46 708.564 253.006 711.47 254.74C714.623 254.48 721.256 254.617 722.564 257.248C724.199 260.537 723.252 259.971 726.816 262.612C729.667 264.724 727.923 271.666 726.694 274.873L724.772 278.095L729.537 276.569C730.221 271.633 733.947 269.608 735.725 269.212C740.3 270.503 736.901 280.449 734.629 285.261Z" fill="#393939"/>
<path d="M778.094 606.399L776.046 587.733L755.443 589.086L763.198 610.752L778.094 606.399Z" fill="#EF937E"/>
<path d="M761.698 608.538C765.959 608.662 774.625 605.707 778.426 604.215L778.996 603.991L786.506 619.762L741.467 637.451C732.801 640.855 735.397 634.843 737.779 631.411C745.988 628.187 757.146 614.819 761.698 608.538Z" fill="#1D104A"/>
<path d="M690.948 620.736L695.866 602.614L676.195 596.341L675.493 619.342L690.948 620.736Z" fill="#EF937E"/>
<path d="M674.906 616.734C678.826 618.407 687.973 618.825 692.056 618.825H692.669L693.894 636.25H645.505C636.195 636.25 640.809 631.603 644.28 629.28C653.1 629.28 668.372 620.916 674.906 616.734Z" fill="#1D104A"/>
<path d="M720.041 505.773C729.354 535.053 741.141 568.358 755.582 603.367H782.98C775.955 582.759 760.64 515.269 755.582 410.169L693.758 406.657C686.499 433.353 672.542 510.07 674.79 603.367L697.974 604.069C702.943 578.375 711.045 540.535 720.041 505.773Z" fill="#393939"/>
<mask id="mask2" mask-type="alpha" maskUnits="userSpaceOnUse" x="674" y="406" width="109" height="199">
<path d="M720.041 505.773C729.354 535.053 741.141 568.358 755.582 603.367H782.98C775.955 582.759 760.64 515.269 755.582 410.169L693.758 406.657C686.499 433.353 672.542 510.07 674.79 603.367L697.974 604.069C702.943 578.375 711.045 540.535 720.041 505.773Z" fill="#79C7CE"/>
</mask>
<g mask="url(#mask2)">
<path d="M719.752 504.309L702.892 606.176H668.467L660.739 536.625L693.759 404.549L719.752 504.309Z" fill="#262626"/>
</g>
<path d="M711.038 413.959C698.531 383.459 716.296 324.862 726.577 296.573L737.672 293.549C786.171 318.685 810.32 386.99 816.849 420.453L800.132 424.188C796.518 424.996 765.842 370.274 765.842 370.274C765.842 370.274 757.865 362.366 777.519 422.762L711.038 413.959Z" fill="#FC7383"/>
<path d="M221.451 624.332L217.121 608.374L234.442 602.85L235.061 623.104L221.451 624.332Z" fill="#F3AEAE"/>
<path d="M235.576 618.808C232.124 620.281 224.07 620.649 220.474 620.649H219.935L218.856 635.993H261.465C269.664 635.993 265.601 631.901 262.544 629.855C254.777 629.855 241.329 622.49 235.576 618.808Z" fill="#1D104A"/>
<path d="M135.197 603.348L139.426 587.363L157.188 591.24L147.597 609.09L135.197 603.348Z" fill="#F3AEAE"/>
<path d="M149.192 607.36C145.466 606.909 138.307 603.201 135.193 601.403L134.725 601.133L126.119 613.882L163.02 635.187C170.12 639.286 168.647 633.711 167.023 630.411C160.297 626.528 152.333 613.425 149.192 607.36Z" fill="#1D104A"/>
<path d="M286.077 352.651L240.298 364.405L231.637 346.464H282.365L286.077 352.651Z" fill="#EE9F86"/>
<path d="M290.138 310.859L250.019 351.568C249.396 352.2 249.843 353.27 250.731 353.27H285.679C285.935 353.27 286.181 353.172 286.367 352.996L331.729 309.99C332.406 309.349 331.915 308.213 330.984 308.266L290.793 310.562C290.545 310.577 290.312 310.682 290.138 310.859Z" fill="#333333"/>
<path d="M237.405 322.608C243.35 306.075 230.523 293.818 222.974 284.495C223.592 283.877 221.17 284.495 218.643 284.495C216.17 284.495 206.645 281.075 194.892 287.262C179.55 308.543 184.002 354.306 187.714 373.483C206.685 373.896 237.405 379.123 237.405 375.993C237.406 374.629 237.406 374.252 237.406 374.188C237.406 373.95 237.406 373.227 237.405 371.294C237.405 363.102 237.405 348.833 237.405 322.608Z" fill="#FEAF22"/>
<path d="M180.535 416.73C176.555 398.999 183.438 380.511 187.377 373.484L236.464 375.054C237.957 401.624 183.853 539.34 151.927 604.852L134.512 597.283C151.512 544.487 184.516 434.461 180.535 416.73Z" fill="#04138A"/>
<path d="M187.229 361.312L185.992 324.194L205.169 322.338L202.076 351.414L249.092 326.467L254.041 333.891L198.364 369.972H195.89C191.107 369.972 187.229 366.095 187.229 361.312Z" fill="#EE9F86"/>
<path d="M272.69 322.891C267.836 315.501 254.835 321.754 249.091 326.467L254.037 333.892C257.677 329.698 266.549 335.503 266.548 332.392C266.547 329.995 264.79 330.817 261.753 330.474C262.705 328.172 268.574 325.36 272.07 324.33C272.696 324.145 273.048 323.436 272.69 322.891Z" fill="#EE9F86"/>
<path d="M235.28 614.732L237.405 375.735L188.529 374.113L216.686 614.732H235.28Z" fill="#030E68"/>
<path d="M183.517 301.923C183.517 294.406 189.61 288.313 197.127 288.313C204.643 288.313 210.737 294.406 210.737 301.923V324.194H183.517V301.923Z" fill="#EE9D0C"/>
<path d="M241.355 256.066C241.706 255.012 241.815 253.816 241.805 252.6C241.772 248.15 240.067 243.738 237.683 239.98C217 228.884 207.948 247.114 206.007 257.615L208.575 288.607L220.588 291.666C223.263 292.347 225.808 290.178 225.559 287.429L224.822 279.28C227.387 279.28 229.369 279.352 235.02 280.55C240.67 281.749 239.643 276.612 239.814 275.756C239.915 275.25 240.709 274.525 241.393 273.997C241.72 273.745 241.767 273.258 241.475 272.966C241.22 272.71 241.22 272.296 241.475 272.04L241.867 271.648C242.268 271.247 242.337 270.622 242.033 270.144L241.736 269.677C241.51 269.322 241.544 268.861 241.82 268.544L243.5 266.614C244.14 265.879 244.149 264.795 243.591 263.995C242.114 261.875 240.474 258.707 241.355 256.066Z" fill="#F3AEAE"/>
<path d="M207.328 269.784C208.268 275.423 205.448 267.904 204.073 263.006C202.534 260.965 198.186 249.862 199.964 243.252C201.242 238.496 202.706 233.317 210.831 232.535C196.224 233.187 205.372 232.467 213.052 232.349L211.855 231.152C209.276 228.574 206.867 226.962 205.271 226.962C192.103 227.56 174.746 229.955 168.162 223.37C162.895 218.102 153.199 221.175 149.009 223.37C123.273 232.349 78.3829 222.173 104.12 203.017C129.856 183.861 130.455 192.84 150.805 203.017C171.155 213.193 166.965 201.82 193.301 204.813C214.369 207.207 215.247 224.168 213.052 232.349C205.372 232.467 196.224 233.187 210.831 232.535C211.522 232.468 212.261 232.434 213.052 232.434C213.622 232.407 214.22 232.379 214.848 232.349C239.986 231.152 243.045 250.985 241.165 249.106C239.064 247.004 220.487 247.226 218.607 258.505C214.418 253.117 213.482 250.812 211.088 253.805C208.694 256.798 206.242 263.268 207.328 269.784Z" fill="#393939"/>
<path d="M500.97 622.34L496.528 605.97L514.298 600.303L514.933 621.081L500.97 622.34Z" fill="#B88B60"/>
<path d="M515.462 618.725C511.92 620.236 503.657 620.614 499.969 620.614H499.415L498.309 636.355H542.021C550.432 636.355 546.263 632.158 543.128 630.059C535.16 630.059 521.364 622.503 515.462 618.725Z" fill="#1D104A"/>
<path d="M438.454 622.34L442.897 605.97L425.127 600.303L424.492 621.081L438.454 622.34Z" fill="#B88B60"/>
<path d="M423.963 618.725C427.504 620.236 435.767 620.614 439.456 620.614H440.009L441.116 636.355H397.403C388.992 636.355 393.161 632.158 396.296 630.059C404.264 630.059 418.06 622.503 423.963 618.725Z" fill="#1D104A"/>
<path d="M444.692 251.139L446.442 244.671L449.587 238.816C451.343 237.812 458.21 236.535 471.63 239.459C485.051 242.383 477.741 266.13 472.473 277.903L472.472 292.382C463.871 296.768 454.704 292.552 454.704 288.692L454.704 280.441C452.099 280.877 448.661 281.306 446.729 280.842C443.453 280.056 444.982 276.091 446.156 274.207C445.217 273.703 444.865 272.533 445.369 271.594L444.391 270.787C443.965 270.435 443.8 269.856 443.978 269.333C444.292 268.409 443.892 267.394 443.033 266.933L441.029 265.857C440.484 265.564 440.333 264.853 440.711 264.364L444.475 259.494C445.156 258.612 445.333 257.44 444.941 256.396C444.309 254.713 444.222 252.874 444.692 251.139Z" fill="#F3AEAE"/>
<path d="M468.085 276.506L470.818 280.503C471.246 281.129 472.186 281.07 472.533 280.397L480.75 264.424C482.142 261.717 483.237 258.819 483.233 255.775C483.225 248.472 480.466 238.191 469.418 234.147C452.334 227.893 447.668 236.581 447 236.466C446.465 236.374 445.73 235.054 445.429 234.406C445.186 234.859 445.214 236.318 445.258 236.991C444.06 235.958 444.843 233.685 445.384 232.678C437.54 241.12 441.372 246.342 444.268 247.897C447.317 247.506 453.761 247.349 455.147 249.845C456.878 252.965 455.934 252.458 459.508 254.865C462.368 256.79 460.98 263.605 459.928 266.771L458.204 269.982L462.762 268.293C463.209 263.471 466.737 261.343 468.446 260.881C472.942 261.933 470.079 271.736 468.085 276.506Z" fill="#393939"/>
<path d="M454.641 282.345L448.929 284.249L442.583 383.888H479.392V282.345H472.411L472.294 284.215C472.003 288.871 468.142 292.499 463.476 292.499C458.596 292.499 454.641 288.543 454.641 283.664V282.345Z" fill="white"/>
<path d="M391.067 271.701C381.503 273.436 382.931 289.129 385.343 296.596L394.985 296.942C392.241 291.75 401.195 282.666 398.044 281.437C395.616 280.489 395.724 282.519 394.123 285.331C392.175 283.488 391.755 276.623 392.164 272.833C392.235 272.182 391.711 271.584 391.067 271.701Z" fill="#EA8F72"/>
<path d="M452.916 350.071C452.118 359.759 467.645 362.441 475.482 362.043L478.312 352.819C472.587 354.126 466.129 343.126 464.126 345.852C462.583 347.952 464.572 348.373 466.874 350.647C464.589 352.052 457.849 350.681 454.294 349.304C453.684 349.068 452.97 349.419 452.916 350.071Z" fill="#EA8F72"/>
<path d="M497.798 383.253H426.717L421.64 617.438H443.218L457.18 446.718L494.625 617.438H517.472L497.798 383.253Z" fill="#333333"/>
<path d="M441.948 430.218L448.929 284.249L446.391 284.884C445.122 285.518 445.248 285.391 430.525 289.961C415.801 294.53 406.62 321.905 403.869 335.021L395.619 296.307H384.83L387.394 352.211C387.735 359.638 393.855 365.484 401.29 365.484C406.729 365.484 411.669 362.314 413.935 357.369L424.178 335.021C419.101 364.849 408.82 425.648 408.312 430.218C407.804 434.787 430.525 432.122 441.948 430.218Z" fill="#7873D7"/>
<mask id="mask3" mask-type="alpha" maskUnits="userSpaceOnUse" x="384" y="284" width="65" height="149">
<path d="M441.948 430.218L448.929 284.249L446.391 284.884C445.122 285.518 445.248 285.391 430.525 289.961C415.801 294.53 406.62 321.905 403.869 335.021L395.619 296.307H384.83L387.394 352.211C387.735 359.638 393.855 365.484 401.29 365.484C406.729 365.484 411.669 362.314 413.935 357.369L424.178 335.021C419.101 364.849 408.82 425.648 408.312 430.218C407.804 434.787 430.525 432.122 441.948 430.218Z" fill="#DEECF9"/>
</mask>
<g mask="url(#mask3)">
<circle cx="400.062" cy="371.83" r="15.2315" fill="#BFCEE1" fill-opacity="0.3"/>
<line x1="446.255" y1="283.005" x2="438.639" y2="434.051" stroke="#6762D1"/>
<path d="M403.869 342.001L403.234 328.674V322.962L405.772 324.231L403.869 342.001Z" fill="#7D809D"/>
</g>
<path fill-rule="evenodd" clip-rule="evenodd" d="M516.837 303.288C512.775 296.18 490.182 285.941 479.393 281.71L477.3 352.573L474.95 352.156V362.311C475.587 362.515 476.269 362.733 476.993 362.965L474.95 432.122H511.76L506.245 372.199C512.991 374.295 519.313 376.228 523.818 377.542C536.003 381.096 538.203 368.869 537.78 362.311C532.492 345.598 520.899 310.396 516.837 303.288ZM502.24 328.674L514.933 361.676L502.875 358.503L502.24 328.674Z" fill="#7873D7"/>
<path d="M474.95 352.156V362.311L514.933 375.004L515.568 361.676L474.95 352.156Z" fill="url(#paint0_linear)"/>
<mask id="mask4" mask-type="alpha" maskUnits="userSpaceOnUse" x="474" y="281" width="64" height="152">
<path fill-rule="evenodd" clip-rule="evenodd" d="M516.837 303.288C512.775 296.18 490.182 285.941 479.393 281.71L477.3 352.58L474.95 352.156V362.311C475.587 362.515 476.269 362.733 476.993 362.965L474.95 432.122H511.76L506.245 372.199C512.991 374.295 519.313 376.228 523.818 377.542C536.003 381.096 538.203 368.869 537.78 362.311C532.492 345.598 520.899 310.396 516.837 303.288ZM502.241 328.674L513.664 359.137L504.779 355.329L502.241 328.674Z" fill="#7873D7"/>
</mask>
<g mask="url(#mask4)">
<line x1="481.797" y1="279.172" x2="481.797" y2="354.06" stroke="#6762D1"/>
<path d="M481.881 364.942L481.881 432.06" stroke="#6762D1"/>
<circle cx="540.953" cy="376.907" r="15.2315" fill="#BFCEE1" fill-opacity="0.3"/>
<path d="M519.376 364.215L514.933 361.676L514.299 359.772L519.376 364.215Z" fill="#7D809D"/>
</g>
<line y1="-3.5" x2="173.99" y2="-3.5" transform="matrix(-0.12781 0.991799 -0.993563 -0.113278 616.279 464.368)" stroke="#47484A" stroke-width="7"/>
<line y1="-3.5" x2="173.99" y2="-3.5" transform="matrix(-0.12781 0.991799 -0.993563 -0.113278 514.356 464.368)" stroke="#47484A" stroke-width="7"/>
<path d="M639.796 331.917C639.418 328.916 636.867 326.666 633.843 326.666H517.453C513.842 326.666 511.049 329.833 511.5 333.415L532.227 498.046C532.605 501.046 535.156 503.296 538.18 503.296H654.57C658.181 503.296 660.974 500.13 660.523 496.547L639.796 331.917Z" fill="#47484A"/>
<line y1="-3.5" x2="173.99" y2="-3.5" transform="matrix(0.12781 0.991799 0.993563 -0.113278 537.211 464.368)" stroke="#47484A" stroke-width="7"/>
<line y1="-3.5" x2="173.99" y2="-3.5" transform="matrix(0.12781 0.991799 0.993563 -0.113278 639.134 464.368)" stroke="#47484A" stroke-width="7"/>
<path d="M638.826 332.959C638.994 329.535 636.262 326.666 632.833 326.666H516.363C513.163 326.666 510.527 329.177 510.37 332.373L502.31 497.003C502.142 500.428 504.874 503.296 508.303 503.296H624.773C627.972 503.296 630.609 500.786 630.766 497.59L638.826 332.959Z" fill="#47484A"/>
<path d="M636.356 335.865C636.524 332.44 633.792 329.571 630.363 329.571H518.523C515.323 329.571 512.687 332.082 512.53 335.278L504.781 493.517C504.614 496.942 507.345 499.81 510.774 499.81H622.614C625.814 499.81 628.451 497.3 628.607 494.104L636.356 335.865Z" fill="#A6A6A6"/>
<path d="M536.925 474.612L549.406 457.384L558.461 467.967L537.659 480.518L536.925 474.612Z" fill="#D9142B"/>
<path fill-rule="evenodd" clip-rule="evenodd" d="M535.497 486.425H537.738C539.099 484.073 541.82 477.762 541.82 471.327C541.82 464.892 537.551 459.679 535.417 457.876V457.929L535.417 457.877C533.282 459.679 529.094 464.892 529.094 471.327C529.094 477.762 531.815 484.074 533.176 486.425H535.497L535.497 486.425Z" fill="#FF455B"/>
<mask id="mask5" mask-type="alpha" maskUnits="userSpaceOnUse" x="529" y="457" width="13" height="30">
<path fill-rule="evenodd" clip-rule="evenodd" d="M535.497 486.425H537.738C539.099 484.073 541.82 477.762 541.82 471.327C541.82 464.892 537.551 459.679 535.417 457.876V457.929L535.417 457.877C533.282 459.679 529.094 464.892 529.094 471.327C529.094 477.762 531.815 484.074 533.176 486.425H535.497L535.497 486.425Z" fill="#D75720"/>
</mask>
<g mask="url(#mask5)">
<rect x="527.136" y="466.736" width="17.131" height="14.7664" fill="#FFD262"/>
<rect x="515.389" y="466.736" width="40.625" height="0.984413" fill="#382FAC"/>
<rect x="515.389" y="481.01" width="40.625" height="0.984428" fill="#382FAC"/>
</g>
<path d="M586.36 474.612L573.879 457.384L564.824 467.967L585.626 480.518L586.36 474.612Z" fill="#D9142B"/>
<path fill-rule="evenodd" clip-rule="evenodd" d="M587.788 486.425H585.548C584.187 484.073 581.466 477.761 581.466 471.327C581.466 464.892 585.734 459.679 587.868 457.877L587.868 457.877C587.869 457.877 587.869 457.877 587.869 457.877C587.869 457.877 587.869 457.877 587.869 457.876V457.877C590.003 459.679 594.191 464.892 594.191 471.327C594.191 477.762 591.47 484.073 590.11 486.425H587.788L587.788 486.425Z" fill="#FF455B"/>
<mask id="mask6" mask-type="alpha" maskUnits="userSpaceOnUse" x="581" y="457" width="14" height="30">
<path fill-rule="evenodd" clip-rule="evenodd" d="M587.788 486.425H585.548C584.187 484.073 581.466 477.761 581.466 471.327C581.466 464.892 585.734 459.679 587.868 457.877L587.868 457.877C587.869 457.877 587.869 457.877 587.869 457.877C587.869 457.877 587.869 457.877 587.869 457.876V457.877C590.003 459.679 594.191 464.892 594.191 471.327C594.191 477.762 591.47 484.073 590.11 486.425H587.788L587.788 486.425Z" fill="#D75720"/>
</mask>
<g mask="url(#mask6)">
<rect width="17.131" height="14.7664" transform="matrix(-1 0 0 1 596.149 466.736)" fill="#FEB261"/>
<rect width="40.625" height="0.984428" transform="matrix(-1 0 0 1 607.896 466.736)" fill="#382FAC"/>
<rect width="40.625" height="0.984428" transform="matrix(-1 0 0 1 607.896 481.01)" fill="#382FAC"/>
</g>
<path fill-rule="evenodd" clip-rule="evenodd" d="M561.398 476.335H554.546C550.385 467.557 542.064 443.996 542.064 419.976C542.064 395.956 554.871 376.498 561.398 369.77V369.77C561.398 369.77 561.398 369.77 561.398 369.77C561.398 369.77 561.398 369.77 561.398 369.77V369.77C567.924 376.498 580.976 395.956 580.976 419.976C580.976 443.996 572.655 467.557 568.495 476.335H561.643H561.398Z" fill="#FFD262"/>
<path d="M568.495 476.335H561.398V369.77C567.924 376.497 580.976 395.956 580.976 419.976C580.976 443.996 572.655 467.557 568.495 476.335Z" fill="#FEB261"/>
<mask id="mask7" mask-type="alpha" maskUnits="userSpaceOnUse" x="542" y="369" width="39" height="108">
<path fill-rule="evenodd" clip-rule="evenodd" d="M561.398 476.335H554.546C550.385 467.557 542.064 443.996 542.064 419.976C542.064 395.956 554.871 376.498 561.398 369.77V369.77C561.398 369.77 561.398 369.77 561.398 369.77C561.398 369.77 561.398 369.77 561.398 369.77V369.77C567.924 376.498 580.976 395.956 580.976 419.976C580.976 443.996 572.655 467.557 568.495 476.335H561.643H561.398Z" fill="#FEFFFB"/>
</mask>
<g mask="url(#mask7)">
<rect x="541.82" y="366.325" width="40.625" height="29.0407" fill="#FF455B"/>
<rect x="541.33" y="394.873" width="40.625" height="2.95329" fill="#382FAC"/>
<rect x="541.33" y="474.12" width="40.625" height="2.95329" fill="#382FAC"/>
</g>
<mask id="mask8" mask-type="alpha" maskUnits="userSpaceOnUse" x="542" y="369" width="39" height="108">
<path fill-rule="evenodd" clip-rule="evenodd" d="M561.398 476.335H554.546C550.385 467.557 542.064 443.996 542.064 419.976C542.064 395.956 554.871 376.498 561.398 369.77V369.77C561.398 369.77 561.398 369.77 561.398 369.77C561.398 369.77 561.398 369.77 561.398 369.77V369.77C567.924 376.498 580.976 395.956 580.976 419.976C580.976 443.996 572.655 467.557 568.495 476.335H561.643H561.398Z" fill="#FEFFFB"/>
</mask>
<g mask="url(#mask8)">
<ellipse cx="561.397" cy="412.101" rx="10.7681" ry="10.8287" fill="#363636"/>
<mask id="mask9" mask-type="alpha" maskUnits="userSpaceOnUse" x="550" y="401" width="23" height="22">
<ellipse cx="561.397" cy="412.101" rx="10.7681" ry="10.8287" fill="white" fill-opacity="0.2"/>
</mask>
<g mask="url(#mask9)">
<path d="M566.064 392.79L570.91 397.662L548.476 420.222L543.631 415.349L566.064 392.79Z" fill="white" fill-opacity="0.2"/>
<path d="M576.294 399.828L551.886 424.373L553.322 426.539L578.089 401.633L576.294 399.828Z" fill="white" fill-opacity="0.2"/>
<path d="M579.165 404.16L555.655 427.802L560.501 433.036L584.191 409.213L579.165 404.16Z" fill="white" fill-opacity="0.2"/>
</g>
</g>
<rect width="45.7109" height="7.55327" rx="3.77663" transform="matrix(-1 0 0 1 597.131 325.504)" fill="#47484A"/>
<ellipse rx="2.47086" ry="2.32408" transform="matrix(-1 0 0 1 590.953 329.571)" fill="white"/>
<ellipse rx="2.47086" ry="2.32408" transform="matrix(-1 0 0 1 556.979 329.571)" fill="white"/>
<path d="M562.538 369.371V350.778H542.153" stroke="white" stroke-dasharray="6 6"/>
<path d="M581.687 417.305H610.102V375.762" stroke="white" stroke-dasharray="6 6"/>
<path d="M531.962 478.312H522.696V432.412" stroke="white" stroke-dasharray="6 6"/>
<rect width="21.62" height="0.581021" transform="matrix(-1 0 0 1 537.829 358.041)" fill="white"/>
<rect width="21.0023" height="2.9051" transform="matrix(-1 0 0 1 537.828 349.326)" fill="white"/>
<rect width="21.0023" height="0.581021" transform="matrix(-1 0 0 1 537.828 353.393)" fill="white"/>
<rect width="21.0023" height="0.581021" transform="matrix(-1 0 0 1 537.828 354.555)" fill="white"/>
<rect width="16.0606" height="0.581021" transform="matrix(-1 0 0 1 537.828 355.717)" fill="white"/>
<rect width="17.9137" height="0.581021" transform="matrix(-1 0 0 1 537.828 356.879)" fill="white"/>
<rect width="11.1189" height="0.581021" transform="matrix(-1 0 0 1 537.828 359.203)" fill="white"/>
<rect width="16.6783" height="0.581021" transform="matrix(-1 0 0 1 537.828 360.365)" fill="white"/>
<rect x="597.128" y="360.947" width="21.0023" height="2.9051" fill="white"/>
<rect x="597.129" y="365.014" width="21.0023" height="0.581021" fill="white"/>
<rect x="597.129" y="366.176" width="21.0023" height="0.581021" fill="white"/>
<rect x="597.129" y="367.338" width="16.0606" height="0.581021" fill="white"/>
<rect x="597.129" y="368.5" width="17.9137" height="0.581021" fill="white"/>
<rect x="597.129" y="370.824" width="11.1189" height="0.581021" fill="white"/>
<rect x="597.129" y="371.986" width="16.6783" height="0.581021" fill="white"/>
<rect x="514.356" y="417.306" width="21.0023" height="2.9051" fill="white"/>
<rect x="514.356" y="421.373" width="21.0023" height="0.581021" fill="white"/>
<rect x="514.356" y="422.535" width="21.0023" height="0.581021" fill="white"/>
<rect x="514.356" y="423.697" width="16.0606" height="0.581021" fill="white"/>
<rect x="514.356" y="424.859" width="17.9137" height="0.581021" fill="white"/>
<rect x="514.356" y="427.183" width="11.1189" height="0.581021" fill="white"/>
<rect x="514.356" y="428.345" width="16.6783" height="0.581021" fill="white"/>
<g opacity="0.5">
<path fill-rule="evenodd" clip-rule="evenodd" d="M286.125 98.4319C290.589 82.7149 305.048 71.2031 322.196 71.2031C340.403 71.2031 355.579 84.1811 358.977 101.391C362.082 100.325 365.414 99.7459 368.88 99.7459C385.713 99.7459 399.358 113.391 399.358 130.224C399.358 144.642 389.346 156.722 375.895 159.891C374.379 160.416 372.752 160.702 371.058 160.702H242.373C234.224 160.702 227.618 154.096 227.618 145.947C227.618 137.798 234.224 131.191 242.373 131.191H250.854C250.213 128.882 249.871 126.448 249.871 123.935C249.871 108.972 262 96.8431 276.962 96.8431C280.178 96.8431 283.263 97.4035 286.125 98.4319Z" fill="#E1E4FE"/>
<path fill-rule="evenodd" clip-rule="evenodd" d="M324.492 114.875C328.956 99.1578 343.415 87.646 360.563 87.646C378.77 87.646 393.946 100.624 397.344 117.834C400.449 116.768 403.781 116.189 407.248 116.189C424.08 116.189 437.726 129.834 437.726 146.667C437.726 161.085 427.713 173.165 414.262 176.334C412.747 176.859 411.119 177.145 409.425 177.145H280.74C272.591 177.145 265.985 170.539 265.985 162.39C265.985 154.24 272.591 147.634 280.74 147.634H289.221C288.58 145.325 288.238 142.891 288.238 140.377C288.238 125.415 300.367 113.286 315.33 113.286C318.546 113.286 321.631 113.846 324.492 114.875Z" fill="#EDEEF9"/>
</g>
<defs>
<filter id="filter0_d" x="600.382" y="307.405" width="255.043" height="89.9895" filterUnits="userSpaceOnUse" color-interpolation-filters="sRGB">
<feFlood flood-opacity="0" result="BackgroundImageFix"/>
<feColorMatrix in="SourceAlpha" type="matrix" values="0 0 0 0 0 0 0 0 0 0 0 0 0 0 0 0 0 0 127 0"/>
<feOffset dy="4"/>
<feGaussianBlur stdDeviation="4"/>
<feColorMatrix type="matrix" values="0 0 0 0 0 0 0 0 0 0 0 0 0 0 0 0 0 0 0.1 0"/>
<feBlend mode="normal" in2="BackgroundImageFix" result="effect1_dropShadow"/>
<feBlend mode="normal" in="SourceGraphic" in2="effect1_dropShadow" result="shape"/>
</filter>
<filter id="filter1_d" x="562.324" y="375.363" width="395.362" height="135.429" filterUnits="userSpaceOnUse" color-interpolation-filters="sRGB">
<feFlood flood-opacity="0" result="BackgroundImageFix"/>
<feColorMatrix in="SourceAlpha" type="matrix" values="0 0 0 0 0 0 0 0 0 0 0 0 0 0 0 0 0 0 127 0"/>
<feOffset dy="4"/>
<feGaussianBlur stdDeviation="4"/>
<feColorMatrix type="matrix" values="0 0 0 0 0 0 0 0 0 0 0 0 0 0 0 0 0 0 0.37 0"/>
<feBlend mode="normal" in2="BackgroundImageFix" result="effect1_dropShadow"/>
<feBlend mode="normal" in="SourceGraphic" in2="effect1_dropShadow" result="shape"/>
</filter>
<linearGradient id="paint0_linear" x1="475.585" y1="357.868" x2="517.472" y2="369.292" gradientUnits="userSpaceOnUse">
<stop stop-color="#7873D7"/>
<stop offset="1" stop-color="#D7E8F7" stop-opacity="0"/>
</linearGradient>
</defs>
</svg>
