<svg width="391" height="268" viewBox="0 0 391 268" fill="none" xmlns="http://www.w3.org/2000/svg">
<g opacity="0.9">
<path opacity="0.6" d="M131.525 259.983H372.493C414.357 189.076 376.27 130.718 346.034 78.4329C315.798 26.1483 228.966 -18.2578 201.832 45.4865C174.697 109.231 181.438 80.1527 148.004 109.289C112.313 140.391 128.18 197.327 94.8427 188.732C61.5056 180.137 56.0783 160.083 25.067 174.407C-5.94424 188.732 -39.1101 259.983 131.525 259.983Z" fill="#EAEDFE"/>
<path opacity="0.9" d="M164.137 157.983C167.097 135.287 153.469 135.294 144.785 138.606C144.007 138.902 143.168 138.225 143.344 137.411C147.819 116.746 154.977 75.8018 150.868 62.4472C146.912 49.5897 131.129 55.7004 122.195 61.2454C121.465 61.6986 120.511 61.1066 120.615 60.2535C124.546 28.1111 128.903 2.67774 96.465 0.0827101C70.5449 -1.9909 67.8317 35.4294 69.7801 55.7183C69.8467 56.412 69.1857 56.9542 68.5055 56.8031C44.5454 51.4792 47.0115 69.7166 51.3505 79.6963C57.985 101.369 69.1309 143.122 60.6388 136.753C52.3077 130.505 46.701 133.962 44.8208 136.601C44.7492 136.701 44.7008 136.821 44.6742 136.941C28.8956 208.415 87.1953 213.713 108.407 213.713C129.637 213.713 160.156 188.502 164.137 157.983Z" fill="#8F8BDA"/>
<path opacity="0.9" d="M96.4655 22.2753C98.3808 73.9897 98.2344 194.329 96.4652 253.155H108.407C104.427 136.388 95.1386 -13.5514 96.4655 22.2753Z" fill="#3A5CA6"/>
<path opacity="0.9" d="M105.754 200.445C118.581 191.599 145.561 169.926 150.868 154.003" stroke="#3A5CA6" stroke-linecap="round"/>
<path opacity="0.9" d="M99.1189 188.503C88.5558 181.426 66.3367 164.088 61.9658 151.349" stroke="#3A5CA6" stroke-linecap="round"/>
<path opacity="0.9" d="M101.772 116.85C113.845 108.762 139.238 88.9472 144.233 74.3892" stroke="#3A5CA6" stroke-linecap="round"/>
<path opacity="0.9" d="M101.772 135.426C94.2272 130.372 65.0874 82.1612 61.9653 73.0625" stroke="#3A5CA6" stroke-linecap="round"/>
<path opacity="0.9" d="M136.304 146.042C135.862 154.888 139.754 171.253 158.861 165.945" stroke="#3A5CA6" stroke-width="0.5" stroke-linecap="round"/>
<path opacity="0.9" d="M117.728 164.618C117.286 173.464 121.178 189.829 140.285 184.522" stroke="#3A5CA6" stroke-width="0.5" stroke-linecap="round"/>
<path opacity="0.9" d="M120.382 77.043C119.94 85.889 123.832 102.254 142.939 96.9464" stroke="#3A5CA6" stroke-width="0.5" stroke-linecap="round"/>
<path opacity="0.9" d="M85.8228 95.6196C86.1865 102.346 82.9857 114.79 67.2729 110.754" stroke="#3A5CA6" stroke-width="0.5" stroke-linecap="round"/>
<path opacity="0.9" d="M80.5151 154.003C80.8789 160.73 77.6781 173.174 61.9653 169.138" stroke="#3A5CA6" stroke-width="0.5" stroke-linecap="round"/>
<path opacity="0.9" d="M85.4108 210.993C86.059 213.883 84.4909 220.183 73.0332 222.264C73.4347 219.229 76.4722 212.727 85.4108 210.993Z" fill="#5A92FF"/>
<path opacity="0.9" d="M146.017 250.882C140.913 242.183 126.467 222.14 109.507 211.565C88.3084 198.346 94.1969 176.993 98.9079 171.57" stroke="black"/>
<path opacity="0.9" d="M276.452 234.613C284.598 232.127 302.126 219.292 307.073 187.839M108.92 211.226C106.074 209.192 96.7308 206.345 85.6602 211.226H108.92Z" stroke="black"/>
<path opacity="0.9" d="M97.5567 173.574C96.2809 170.976 96.379 164.423 106.979 159C107.273 162.05 105.801 169.236 97.5567 173.574Z" fill="#5A92FF"/>
<path opacity="0.9" d="M306.604 188.528C305.654 186.592 305.727 181.711 313.623 177.67C313.843 179.943 312.746 185.296 306.604 188.528Z" fill="#00AE87"/>
<path opacity="0.9" d="M305.424 173.668C305.907 175.821 304.739 180.515 296.203 182.065C296.502 179.804 298.765 174.96 305.424 173.668Z" fill="#00AE87"/>
<path opacity="0.9" d="M286.756 188.856C289.112 185.127 292.233 175.908 285.873 168.858" stroke="black"/>
<path opacity="0.9" d="M286.064 169.39C284.203 168.795 281.256 165.284 284.358 155.999C285.909 157.427 288.422 162.105 286.064 169.39Z" fill="#00AE87"/>
<path opacity="0.9" d="M129 236.5C151.807 258.53 166.849 253.616 171.261 249.197C173.976 244.437 151.237 197.861 115.601 188.682C79.9652 179.503 71.3834 202.744 81.9996 209.5C87.4995 213 120 225 129 236.5Z" fill="#123B8E"/>
<path opacity="0.9" d="M165 247C160.45 233.451 138.88 206.084 89 205" stroke="#041335"/>
<path opacity="0.9" d="M118.193 226.535C116.29 251.424 144.361 254.941 158.634 253.588C163.392 252.912 172.432 246.284 170.529 225.183C168.626 204.081 147.08 182.124 136.545 173.782C121.592 164.878 94.4724 153.155 105.619 177.502C119.553 207.936 120.572 195.425 118.193 226.535Z" fill="#5C88DF"/>
<path opacity="0.9" d="M113 179C124.524 186.118 150.148 210.454 160.452 250.856" stroke="#4162B4"/>
<path opacity="0.9" d="M312.994 251.446C310.114 254.913 284.468 254.073 272.004 253.22L271.342 254.322C274.196 243.615 280.186 220.319 281.315 212.792C282.724 203.382 302.138 212.604 303.776 199.077C305.412 185.55 306.151 182.242 310.919 181.367C315.687 180.493 318.884 197.19 327.858 180.585C336.833 163.981 347.902 165.911 351.42 166.284C354.939 166.658 357.577 167.25 340.31 188.105C323.042 208.961 335.006 201.921 338.937 217.809C342.869 233.698 319.408 232.045 314.57 231.375C309.732 230.705 316.595 247.114 312.994 251.446Z" fill="#3160BB"/>
<path opacity="0.9" fill-rule="evenodd" clip-rule="evenodd" d="M306.753 222.944C310.652 208.886 322.483 201.232 327.885 199.175L327.529 198.241C321.936 200.37 309.8 208.217 305.789 222.676C304.555 227.128 303.558 230.198 302.638 232.348C301.718 234.499 300.895 235.682 300.033 236.404C299.178 237.12 298.237 237.423 296.965 237.716C296.717 237.773 296.456 237.83 296.182 237.89C295.282 238.086 294.244 238.312 293.044 238.685L292.425 225.163L291.426 225.208L292.058 239.014C288.837 240.181 286.488 242.777 284.863 245.495C283.221 248.241 282.284 251.169 281.921 253.042L282.903 253.232C283.246 251.459 284.146 248.643 285.721 246.008C287.298 243.37 289.517 240.97 292.476 239.927C294.001 239.389 295.26 239.114 296.373 238.872C296.654 238.81 296.926 238.751 297.19 238.69C298.493 238.39 299.63 238.045 300.675 237.171C301.712 236.302 302.612 234.953 303.558 232.741C304.504 230.527 305.516 227.404 306.753 222.944Z" fill="#2F4CAC"/>
<path opacity="0.9" d="M262.039 209C245.063 241.488 262.741 252.189 273.702 253.478C275.775 253.847 277.805 252.665 278.561 252.028C286.725 238.491 278.939 224.685 274.025 219.475L271.11 220.442V217.057L266.574 213.029L262.039 209Z" fill="#6A91E0"/>
<path opacity="0.9" fill-rule="evenodd" clip-rule="evenodd" d="M261.764 211.646C261.764 216.71 262.421 224.845 264.393 232.825C266.36 240.784 269.66 248.691 275.016 253.187L275.659 252.421C274.519 251.464 273.471 250.339 272.511 249.08L276.144 235.339L275.177 235.083L271.753 248.035C270.033 245.537 268.613 242.6 267.451 239.455L271.138 226.307L270.175 226.037L266.873 237.812C266.301 236.106 265.801 234.352 265.364 232.585C264.855 230.526 264.435 228.456 264.091 226.431L266.619 217.266L265.655 217L263.716 224.032C263.026 219.22 262.764 214.817 262.764 211.646H261.764Z" fill="#4773CC"/>
<path opacity="0.9" d="M337.064 72H89V208.261H337.064V72Z" fill="#4886FF"/>
<path opacity="0.9" d="M332.834 83.7622H92.708V203.825H332.834V83.7622Z" fill="#F6F7FB"/>
<g opacity="0.9">
<path opacity="0.9" d="M303.287 141.494L306.261 144.467L279.204 171.524L267.311 159.631L270.284 156.658L279.204 165.577L303.287 141.494ZM303.287 135.484L279.204 159.567L270.284 150.647L261.301 159.631L279.204 177.534L312.271 144.467L303.287 135.484Z" fill="url(#paint0_linear)"/>
</g>
<path opacity="0.9" d="M96.7961 80.2591C98.1661 80.2591 99.2767 79.2035 99.2767 77.9013C99.2767 76.5991 98.1661 75.5435 96.7961 75.5435C95.426 75.5435 94.3154 76.5991 94.3154 77.9013C94.3154 79.2035 95.426 80.2591 96.7961 80.2591Z" fill="#D63838"/>
<path opacity="0.9" d="M104.734 80.2591C106.104 80.2591 107.215 79.2035 107.215 77.9013C107.215 76.5991 106.104 75.5435 104.734 75.5435C103.364 75.5435 102.253 76.5991 102.253 77.9013C102.253 79.2035 103.364 80.2591 104.734 80.2591Z" fill="#DFDFDF"/>
<path opacity="0.9" d="M112.672 80.2591C114.042 80.2591 115.153 79.2035 115.153 77.9013C115.153 76.5991 114.042 75.5435 112.672 75.5435C111.302 75.5435 110.191 76.5991 110.191 77.9013C110.191 79.2035 111.302 80.2591 112.672 80.2591Z" fill="#3BD638"/>
<path opacity="0.9" d="M158.459 83.2363H92.9697V203.299H158.459V83.2363Z" fill="#323659"/>
<g opacity="0.9" filter="url(#filter0_d)">
<path opacity="0.9" d="M325.141 95.1431H245.791C244.686 95.1431 243.791 96.0385 243.791 97.1431V118.942C243.791 120.046 244.686 120.942 245.791 120.942H325.141C326.245 120.942 327.141 120.046 327.141 118.942V97.1431C327.141 96.0385 326.245 95.1431 325.141 95.1431Z" fill="white"/>
</g>
<path opacity="0.9" d="M285.467 106.058C287.659 106.058 289.436 104.281 289.436 102.089C289.436 99.8971 287.659 98.1201 285.467 98.1201C283.275 98.1201 281.498 99.8971 281.498 102.089C281.498 104.281 283.275 106.058 285.467 106.058Z" fill="#CDE7FF"/>
<path opacity="0.9" d="M301.343 108.042H269.59C269.042 108.042 268.598 108.486 268.598 109.034C268.598 109.582 269.042 110.027 269.59 110.027H301.343C301.891 110.027 302.335 109.582 302.335 109.034C302.335 108.486 301.891 108.042 301.343 108.042Z" fill="#1978DC" fill-opacity="0.38"/>
<path opacity="0.9" d="M103.364 100.339C105.508 100.339 107.246 98.6008 107.246 96.4568C107.246 94.3128 105.508 92.5747 103.364 92.5747C101.22 92.5747 99.4819 94.3128 99.4819 96.4568C99.4819 98.6008 101.22 100.339 103.364 100.339Z" fill="#FFCDD6"/>
<path opacity="0.9" d="M142.184 94.9043H109.962C109.534 94.9043 109.186 95.2519 109.186 95.6807C109.186 96.1095 109.534 96.4571 109.962 96.4571H142.184C142.612 96.4571 142.96 96.1095 142.96 95.6807C142.96 95.2519 142.612 94.9043 142.184 94.9043Z" fill="white" fill-opacity="0.25"/>
<path opacity="0.9" d="M118.503 96.8452H109.962C109.534 96.8452 109.186 97.1928 109.186 97.6216C109.186 98.0504 109.534 98.398 109.962 98.398H118.503C118.932 98.398 119.279 98.0504 119.279 97.6216C119.279 97.1928 118.932 96.8452 118.503 96.8452Z" fill="white" fill-opacity="0.25"/>
<path opacity="0.9" d="M158.459 118.957H92.9697V131.856H158.459V118.957Z" fill="#4886FF"/>
<path opacity="0.9" d="M103.364 114.703C105.508 114.703 107.246 112.965 107.246 110.821C107.246 108.677 105.508 106.939 103.364 106.939C101.22 106.939 99.4819 108.677 99.4819 110.821C99.4819 112.965 101.22 114.703 103.364 114.703Z" fill="#FFCDD6"/>
<path opacity="0.9" d="M142.184 109.267H109.962C109.534 109.267 109.186 109.615 109.186 110.044V110.044C109.186 110.472 109.534 110.82 109.962 110.82H142.184C142.612 110.82 142.96 110.472 142.96 110.044C142.96 109.615 142.612 109.267 142.184 109.267Z" fill="white" fill-opacity="0.25"/>
<path opacity="0.9" d="M118.503 111.209H109.962C109.534 111.209 109.186 111.557 109.186 111.985C109.186 112.414 109.534 112.762 109.962 112.762H118.503C118.932 112.762 119.279 112.414 119.279 111.985C119.279 111.557 118.932 111.209 118.503 111.209Z" fill="white" fill-opacity="0.25"/>
<path opacity="0.9" d="M103.364 129.066C105.508 129.066 107.246 127.328 107.246 125.184C107.246 123.04 105.508 121.302 103.364 121.302C101.22 121.302 99.4819 123.04 99.4819 125.184C99.4819 127.328 101.22 129.066 103.364 129.066Z" fill="white"/>
<path opacity="0.9" d="M142.184 123.631H109.962C109.534 123.631 109.186 123.978 109.186 124.407C109.186 124.836 109.534 125.184 109.962 125.184H142.184C142.612 125.184 142.96 124.836 142.96 124.407C142.96 123.978 142.612 123.631 142.184 123.631Z" fill="white"/>
<path opacity="0.9" d="M118.503 125.573H109.962C109.534 125.573 109.186 125.921 109.186 126.35V126.35C109.186 126.778 109.534 127.126 109.962 127.126H118.503C118.932 127.126 119.279 126.778 119.279 126.35V126.35C119.279 125.921 118.932 125.573 118.503 125.573Z" fill="white"/>
<path opacity="0.9" d="M103.364 143.43C105.508 143.43 107.246 141.692 107.246 139.548C107.246 137.404 105.508 135.666 103.364 135.666C101.22 135.666 99.4819 137.404 99.4819 139.548C99.4819 141.692 101.22 143.43 103.364 143.43Z" fill="#FFCDD6"/>
<path opacity="0.9" d="M142.184 137.995H109.962C109.534 137.995 109.186 138.343 109.186 138.772V138.772C109.186 139.2 109.534 139.548 109.962 139.548H142.184C142.612 139.548 142.96 139.2 142.96 138.772V138.772C142.96 138.343 142.612 137.995 142.184 137.995Z" fill="white" fill-opacity="0.25"/>
<path opacity="0.9" d="M118.503 139.936H109.962C109.534 139.936 109.186 140.284 109.186 140.712C109.186 141.141 109.534 141.489 109.962 141.489H118.503C118.932 141.489 119.279 141.141 119.279 140.712C119.279 140.284 118.932 139.936 118.503 139.936Z" fill="white" fill-opacity="0.25"/>
<path opacity="0.9" d="M312.259 113.004H258.677C258.129 113.004 257.685 113.448 257.685 113.996C257.685 114.544 258.129 114.988 258.677 114.988H312.259C312.807 114.988 313.251 114.544 313.251 113.996C313.251 113.448 312.807 113.004 312.259 113.004Z" fill="#1978DC" fill-opacity="0.38"/>
<g opacity="0.9" filter="url(#filter1_d)">
<path opacity="0.9" d="M237.823 95.1431H168.396C167.291 95.1431 166.396 96.0385 166.396 97.1431V190.384C166.396 191.489 167.291 192.384 168.396 192.384H237.823C238.928 192.384 239.823 191.489 239.823 190.384V97.1431C239.823 96.0385 238.928 95.1431 237.823 95.1431Z" fill="white"/>
</g>
<path opacity="0.9" d="M174.334 108.043C176.526 108.043 178.303 106.266 178.303 104.074C178.303 101.882 176.526 100.105 174.334 100.105C172.142 100.105 170.365 101.882 170.365 104.074C170.365 106.266 172.142 108.043 174.334 108.043Z" fill="#FFCDD6"/>
<path opacity="0.9" d="M213.033 101.097H181.28C180.732 101.097 180.288 101.541 180.288 102.089C180.288 102.637 180.732 103.082 181.28 103.082H213.033C213.581 103.082 214.025 102.637 214.025 102.089C214.025 101.541 213.581 101.097 213.033 101.097Z" fill="#B1D7FF"/>
<path opacity="0.9" d="M194.18 104.073H181.28C180.732 104.073 180.288 104.517 180.288 105.065C180.288 105.614 180.732 106.058 181.28 106.058H194.18C194.728 106.058 195.172 105.614 195.172 105.065C195.172 104.517 194.728 104.073 194.18 104.073Z" fill="#B1D7FF"/>
<path opacity="0.9" d="M189.714 111.02H171.853C171.579 111.02 171.357 111.242 171.357 111.516C171.357 111.79 171.579 112.012 171.853 112.012H189.714C189.988 112.012 190.21 111.79 190.21 111.516C190.21 111.242 189.988 111.02 189.714 111.02Z" fill="#B1D7FF"/>
<path opacity="0.9" d="M187.729 113.996H171.853C171.579 113.996 171.357 114.218 171.357 114.492C171.357 114.766 171.579 114.988 171.853 114.988H187.729C188.003 114.988 188.225 114.766 188.225 114.492C188.225 114.218 188.003 113.996 187.729 113.996Z" fill="#B1D7FF"/>
<path opacity="0.9" d="M183.265 115.981H171.357C170.809 115.981 170.365 116.425 170.365 116.973C170.365 117.521 170.809 117.965 171.357 117.965H183.265C183.813 117.965 184.257 117.521 184.257 116.973C184.257 116.425 183.813 115.981 183.265 115.981Z" fill="#B1D7FF"/>
<path opacity="0.9" d="M178.303 118.957H171.357C170.809 118.957 170.365 119.401 170.365 119.949C170.365 120.497 170.809 120.942 171.357 120.942H178.303C178.851 120.942 179.296 120.497 179.296 119.949C179.296 119.401 178.851 118.957 178.303 118.957Z" fill="#B1D7FF"/>
<path opacity="0.9" d="M170.365 123.919V186.431H233.87" stroke="#B1D7FF"/>
<path opacity="0.9" d="M174.406 182.445L190.711 172.546L202.939 151.971L227.979 123.049" stroke="#FFB800" stroke-width="2"/>
<path opacity="0.9" d="M174.407 183.416C175.05 183.416 175.571 182.894 175.571 182.251C175.571 181.608 175.05 181.086 174.407 181.086C173.764 181.086 173.242 181.608 173.242 182.251C173.242 182.894 173.764 183.416 174.407 183.416Z" fill="#FFB800"/>
<path opacity="0.9" d="M202.358 153.912C203.001 153.912 203.523 153.39 203.523 152.747C203.523 152.104 203.001 151.583 202.358 151.583C201.715 151.583 201.193 152.104 201.193 152.747C201.193 153.39 201.715 153.912 202.358 153.912Z" fill="#FFB800"/>
<path opacity="0.9" d="M227.979 124.02C228.622 124.02 229.144 123.498 229.144 122.855C229.144 122.212 228.622 121.69 227.979 121.69C227.336 121.69 226.814 122.212 226.814 122.855C226.814 123.498 227.336 124.02 227.979 124.02Z" fill="#FFB800"/>
<path opacity="0.9" d="M208.12 247.579L209.572 238.42L202.978 236.046L202.317 247.056L208.12 247.579Z" fill="#B88B60"/>
<path opacity="0.9" d="M202.097 246.077C203.569 246.705 207.003 246.862 208.536 246.862H208.766L209.226 253.404H191.059C187.563 253.404 189.296 251.659 190.599 250.787C193.91 250.787 199.644 247.647 202.097 246.077Z" fill="#1D104A"/>
<path opacity="0.9" d="M230.277 247.843L230.938 237.893L224.08 236.046L224.607 247.652L230.277 247.843Z" fill="#B88B60"/>
<path opacity="0.9" d="M228 110H213V158H228V110Z" fill="white"/>
<path opacity="0.9" d="M234.366 151.832H206.4L202.451 245.542L208.46 246.333L220.166 170.944L224.343 246.333H230.46C233.235 211.755 234.221 168.925 234.366 151.832Z" fill="#1D104A"/>
<path opacity="0.9" d="M226.355 82.4144L227.209 85.2249C227.438 85.9789 227.425 86.7858 227.171 87.5318C227.013 87.9944 227.106 88.5058 227.417 88.8832L229.006 90.8135C229.244 91.1026 229.165 91.5364 228.841 91.7237L228.149 92.1233C227.779 92.3371 227.617 92.7872 227.767 93.1876C227.852 93.4145 227.788 93.6703 227.606 93.8302L227.188 94.1974C227.422 94.602 227.283 95.119 226.879 95.353C227.419 96.163 228.142 97.879 226.717 98.268C225.876 98.497 224.781 98.536 223.634 98.38C223.745 99.45 223.401 100.86 224.236 102.305C224.782 103.251 223.703 106.263 220.582 105.715C218.594 105.367 215.851 102.062 214.633 100.844L215.347 97.561C212.88 92.4734 209.406 81.9326 215.247 80.4703C221.089 79.0079 224.115 79.4748 224.898 79.891L226.355 82.4144Z" fill="#F3AEAE"/>
<path opacity="0.9" d="M217.086 91.7402L214.582 95.3568C213.637 94.5517 209.698 90.0923 211.777 82.6415C213.061 78.0417 218.891 78.114 223.686 78.614C225.104 78.762 226.605 78.3535 227.655 78.614C227.806 83.447 223.056 83.984 220.661 83.6483C220.787 84.9237 220.794 86.8493 217.921 87.0104C215.048 87.1715 216.519 90.5991 217.086 91.7402Z" fill="#393939"/>
<path opacity="0.9" d="M217.485 107.3L220 105L222.5 107L221.062 110.239L221.604 143.01L219.328 147.582L217.485 143.01L218.569 110.239L217.485 107.3Z" fill="#BB0000"/>
<path opacity="0.9" d="M214.848 104.222L214.32 100.266L220 105L224.871 100.266V103.167L224.079 108.442L220 105L215.639 109.065L214.848 104.222Z" fill="#C4C4C4"/>
<path opacity="0.9" d="M210.289 100.074L214.319 100.266L214.847 103.431C217.699 114.197 220.946 139.34 218.346 153.82C215.747 168.299 207.01 167.15 202.967 164.766C205.782 153.711 208.815 115.02 204.158 118.596C200.432 121.457 202.967 143.632 204.7 154.361L202.967 164.441C197.551 154.072 192.141 129.694 195 118.596C196.466 112.904 197.894 108.604 199.297 105.501C201.178 101.341 205.728 99.8572 210.289 100.074Z" fill="#2E336D"/>
<path opacity="0.9" d="M229.309 100.266H224.872L224.72 103.98C221.868 114.831 219.088 138.863 221.687 153.457C224.287 168.052 233.024 166.894 237.067 164.49C234.251 153.348 231.218 114.35 235.876 117.954C239.601 120.838 237.067 143.189 235.334 154.003L237.067 164C242 154.5 248.36 130.186 245.501 119C243.921 112.821 241.965 108.352 240.08 105.258C237.86 101.615 233.575 100.266 229.309 100.266Z" fill="#2E336D"/>
<path opacity="0.9" d="M222.233 253.191L224.607 247.652H230.146L232.784 253.191H222.233Z" fill="#1D104A"/>
<path opacity="0.9" d="M222.233 253.19C222.233 251.442 223.65 250.025 225.399 250.025H229.619C231.367 250.025 232.784 251.442 232.784 253.19H222.233Z" fill="#120A30"/>
<path opacity="0.9" d="M330 253H94C91.7909 253 90 254.791 90 257C90 259.209 91.7909 261 94 261H330C332.209 261 334 259.209 334 257C334 254.791 332.209 253 330 253Z" fill="#F7A333"/>
<path opacity="0.9" d="M118.667 252.992H125.031H131.396C133.229 244.409 135.562 221.921 132.554 214.515C128.793 205.257 127.925 196.868 108.831 196.289C92.7867 195.803 108.734 234.766 118.667 252.992Z" fill="#2F4CAC"/>
<path opacity="0.9" fill-rule="evenodd" clip-rule="evenodd" d="M124.711 246.323C124.24 242.08 123.619 237.175 122.868 232.21C122.793 230.888 122.901 229.086 123.329 227.306C123.926 224.826 125.104 222.558 127.093 221.616L126.665 220.713C124.256 221.854 122.975 224.504 122.357 227.072C122.291 227.344 122.233 227.617 122.181 227.889C122.109 227.458 122.036 227.027 121.962 226.598C121.232 222.359 120.409 218.237 119.503 214.618L119.529 214.607C119.51 214.56 119.488 214.512 119.464 214.461C119.367 214.075 119.269 213.695 119.17 213.322C118.136 209.419 116.989 206.156 115.732 204.122L114.882 204.647C115.934 206.351 116.941 209.052 117.881 212.396C116.651 211.215 114.735 209.94 111.979 209.113L111.691 210.071C115.946 211.347 117.957 213.707 118.52 214.807C119.422 218.406 120.245 222.521 120.976 226.767C121.293 228.604 121.591 230.464 121.872 232.315C121.905 232.858 121.967 233.333 122.051 233.713L122.08 233.707C122.665 237.687 123.164 241.593 123.567 245.109C123.31 244.177 123.018 243.214 122.689 242.239C121.292 238.1 119.216 233.689 116.259 230.378L115.513 231.044C118.343 234.214 120.365 238.482 121.741 242.559C123.115 246.631 123.831 250.472 124.068 252.75L124.354 252.72L124.356 252.743L124.853 252.698L125.354 252.707C125.402 250.115 125.618 246.263 126.107 243.127C126.353 241.552 126.662 240.192 127.039 239.265C127.229 238.799 127.42 238.484 127.596 238.304C127.76 238.137 127.863 238.129 127.938 238.144L128.134 237.164C127.631 237.063 127.204 237.276 126.882 237.604C126.572 237.919 126.322 238.374 126.113 238.889C125.691 239.926 125.368 241.379 125.119 242.973C124.953 244.036 124.818 245.177 124.711 246.323Z" fill="#293159"/>
<path opacity="0.9" d="M338.792 214.688C324.999 228.863 324.424 246.774 325.861 253.958H300C300 233.365 308.142 222.829 316.762 213.73C325.382 204.631 356.032 196.968 338.792 214.688Z" fill="#F7A333"/>
<path opacity="0.9" d="M310.777 249.913C310.777 241.133 315.088 220.413 332.328 207.77" stroke="white"/>
</g>
<defs>
<filter id="filter0_d" x="235.791" y="91.1431" width="99.3496" height="41.7987" filterUnits="userSpaceOnUse" color-interpolation-filters="sRGB">
<feFlood flood-opacity="0" result="BackgroundImageFix"/>
<feColorMatrix in="SourceAlpha" type="matrix" values="0 0 0 0 0 0 0 0 0 0 0 0 0 0 0 0 0 0 127 0"/>
<feOffset dy="4"/>
<feGaussianBlur stdDeviation="4"/>
<feColorMatrix type="matrix" values="0 0 0 0 0 0 0 0 0 0 0 0 0 0 0 0 0 0 0.1 0"/>
<feBlend mode="normal" in2="BackgroundImageFix" result="effect1_dropShadow"/>
<feBlend mode="normal" in="SourceGraphic" in2="effect1_dropShadow" result="shape"/>
</filter>
<filter id="filter1_d" x="158.396" y="91.1431" width="89.427" height="113.241" filterUnits="userSpaceOnUse" color-interpolation-filters="sRGB">
<feFlood flood-opacity="0" result="BackgroundImageFix"/>
<feColorMatrix in="SourceAlpha" type="matrix" values="0 0 0 0 0 0 0 0 0 0 0 0 0 0 0 0 0 0 127 0"/>
<feOffset dy="4"/>
<feGaussianBlur stdDeviation="4"/>
<feColorMatrix type="matrix" values="0 0 0 0 0 0 0 0 0 0 0 0 0 0 0 0 0 0 0.1 0"/>
<feBlend mode="normal" in2="BackgroundImageFix" result="effect1_dropShadow"/>
<feBlend mode="normal" in="SourceGraphic" in2="effect1_dropShadow" result="shape"/>
</filter>
<linearGradient id="paint0_linear" x1="260.876" y1="149.956" x2="312.127" y2="148.886" gradientUnits="userSpaceOnUse">
<stop stop-color="#06FFB9"/>
<stop offset="1" stop-color="#0DBFF3"/>
</linearGradient>
</defs>
</svg>
