<svg width="700" height="455" viewBox="0 0 700 455" fill="none" xmlns="http://www.w3.org/2000/svg">
<path opacity="0.6" d="M226.929 405.882H625.833C695.138 288.883 632.086 192.589 582.033 106.317C531.98 20.0452 388.237 -53.2268 343.317 51.954C298.397 157.135 309.557 109.155 254.209 157.23C195.125 208.55 221.392 302.497 166.205 288.315C111.018 274.133 102.033 241.043 50.6965 264.679C-0.640283 288.315 -55.5439 405.882 226.929 405.882Z" fill="#EAEDFE"/>
<g opacity="0.9">
<path d="M30.0842 323.411C31.6554 330.394 27.8542 345.617 0.0803923 350.643C1.05345 343.311 8.4165 327.601 30.0842 323.411Z" fill="#5A92FF"/>
<path d="M176.996 419.79C164.625 398.771 129.605 350.344 88.4949 324.793C37.1074 292.854 51.3817 241.261 62.8012 228.158" stroke="black"/>
<path d="M87.0735 323.974C80.1742 319.06 57.5257 312.181 30.6899 323.974M493.178 380.48C512.924 374.475 555.414 343.464 567.404 267.467" stroke="black"/>
<path d="M59.5255 233.002C56.4327 226.723 56.6706 210.89 82.3644 197.787C83.0782 205.158 79.5097 222.519 59.5255 233.002Z" fill="#5A92FF"/>
<path d="M566.268 269.134C563.964 264.456 564.141 252.661 583.283 242.899C583.815 248.39 581.156 261.324 566.268 269.134Z" fill="#00AE87"/>
<path d="M563.406 233.229C564.576 238.432 561.744 249.772 541.053 253.517C541.778 248.055 547.263 236.351 563.406 233.229Z" fill="#00AE87"/>
<path d="M497.455 318.241C497.455 302.954 506.59 268.286 543.133 251.907" stroke="black"/>
<path d="M518.154 269.924C523.863 260.916 531.429 238.64 516.013 221.606" stroke="black"/>
<path d="M516.481 222.892C511.969 221.454 504.825 212.97 512.345 190.537C516.105 193.988 522.195 205.291 516.481 222.892Z" fill="#00AE87"/>
<path d="M135.746 389.872C191.032 443.1 227.495 431.229 238.191 420.55C244.771 409.05 189.652 296.516 103.268 274.338C16.8849 252.159 -3.91788 308.313 21.8163 324.636C35.1484 333.092 113.93 362.086 135.746 389.872Z" fill="#83B8FB"/>
<path d="M223.014 410.41C211.984 377.675 159.697 311.55 38.7866 308.932" stroke="#041335"/>
<path d="M109.55 363.379C104.937 423.514 172.983 432.011 207.582 428.743C219.115 427.109 241.029 411.095 236.415 360.111C231.802 309.127 179.574 256.074 154.036 235.92C117.789 214.404 52.05 186.08 79.0705 244.907C112.846 318.442 115.317 288.211 109.55 363.379Z" fill="#5C88DF"/>
<path d="M92.4391 242.624C120.374 259.822 182.488 318.622 207.465 416.239" stroke="#4162B4"/>
<path d="M485.029 426.027C485.479 426.086 485.937 426.147 486.402 426.211C491.23 401.772 498.061 365.867 499.389 350.727C501.237 329.639 543.633 352.833 545.463 322.47C547.292 292.107 548.459 284.724 558.487 283.327C568.515 281.93 577.348 320.041 594.401 283.618C611.453 247.196 635.217 252.899 642.743 254.17C650.269 255.441 655.95 257.1 621.788 302.121C587.625 347.142 612.199 332.69 622.495 369.065C632.792 405.441 582.718 398.852 572.351 396.751C561.985 394.651 577.498 426.898 570.373 436.249C564.769 443.603 513.409 429.946 486.402 426.211C485.85 429.005 485.324 431.649 484.836 434.095L485.029 426.027Z" fill="#3160BB"/>
<path fill-rule="evenodd" clip-rule="evenodd" d="M565.121 351.826C570.978 316.093 596.922 298.502 609.1 294.186L608.668 293.274C596.24 297.679 570.03 315.49 564.112 351.592C562.273 362.813 560.66 370.563 559.006 375.968C557.35 381.38 555.667 384.387 553.726 386.177C551.8 387.954 549.572 388.575 546.668 389.095C546.095 389.198 545.496 389.296 544.869 389.399L544.867 389.4C542.327 389.817 539.336 390.309 535.802 391.445C528.641 393.746 523.808 399.899 520.672 406.559C517.531 413.23 516.051 420.493 515.649 425.155L516.666 425.321C517.06 420.743 518.519 413.584 521.61 407.02C524.706 400.447 529.399 394.554 536.206 392.366C539.664 391.255 542.568 390.777 545.104 390.36C545.739 390.255 546.352 390.154 546.944 390.048C549.892 389.521 552.346 388.861 554.47 386.902C556.58 384.957 558.317 381.773 559.988 376.315C561.66 370.851 563.281 363.054 565.121 351.826ZM534.034 391.996L529.908 357.675L528.908 357.736L533.033 392.057L534.034 391.996Z" fill="#2F4CAC"/>
<path d="M458.24 323.427C417.091 401.924 459.942 427.778 486.511 430.893C491.537 431.785 496.458 428.929 498.29 427.389C518.08 394.682 499.206 361.326 487.296 348.736L480.228 351.072V342.895L469.234 333.161L458.24 323.427Z" fill="#6A91E0"/>
<path fill-rule="evenodd" clip-rule="evenodd" d="M461.484 360.749C462.331 365.759 463.372 370.889 464.637 375.992C469.397 395.188 477.352 414.104 490.155 424.818L490.797 424.051C487.906 421.632 485.263 418.78 482.848 415.59L491.742 382.055L490.776 381.798L482.086 414.562C477.429 408.145 473.65 400.454 470.607 392.202L470.612 392.203L479.61 360.224L478.648 359.954L470.026 390.593C468.318 385.772 466.855 380.779 465.608 375.751C464.357 370.705 463.325 365.631 462.485 360.674L468.655 338.382L467.691 338.115L462.099 358.32C460.046 345.382 459.284 333.403 459.284 324.988H458.284C458.284 333.913 459.136 346.81 461.462 360.621L461.431 360.734L461.484 360.749Z" fill="#4773CC"/>
<rect x="39.5333" y="427.713" width="591.438" height="7.88121" rx="3.9406" fill="#4147C9"/>
<path d="M142.266 427.303H160.492H178.719C183.966 402.805 190.649 338.615 182.033 317.475C171.263 291.051 168.777 267.104 114.098 265.452C68.1536 264.065 113.822 375.28 142.266 427.303Z" fill="#2F4CAC"/>
<path fill-rule="evenodd" clip-rule="evenodd" d="M159.755 418.801C158.341 404.715 156.174 386.536 153.367 368.067C153.144 364.183 153.464 358.934 154.711 353.77C156.44 346.61 159.909 339.782 165.995 336.908L165.568 336.004C159.062 339.076 155.489 346.286 153.739 353.535C153.041 356.426 152.626 359.349 152.433 362.061C151.904 358.736 151.354 355.416 150.785 352.121C148.706 340.088 146.364 328.398 143.793 318.13L143.877 318.094C143.816 317.948 143.746 317.793 143.668 317.632C143.383 316.506 143.096 315.397 142.807 314.307C139.848 303.179 136.592 293.979 133.071 288.297L132.221 288.824C135.659 294.372 138.885 303.449 141.84 314.564C141.872 314.683 141.904 314.803 141.935 314.923C138.977 311.102 132.962 305.969 122.848 302.944L122.561 303.903C135.044 307.635 141.032 314.599 142.724 317.979C145.326 328.308 147.696 340.118 149.799 352.291C150.708 357.548 151.566 362.872 152.372 368.172C152.461 369.697 152.633 371.024 152.867 372.073L152.953 372.054C155.665 390.426 157.731 408.249 159.039 421.728C158.015 415.128 156.055 406.225 152.9 396.907C148.92 385.15 143.025 372.692 134.677 363.373L133.932 364.04C142.153 373.218 147.994 385.533 151.953 397.228C155.911 408.918 157.974 419.947 158.661 426.517L159.48 426.431L159.487 426.509L159.988 426.463L160.485 426.473C160.622 419.053 161.243 408.012 162.653 399.001C163.36 394.49 164.259 390.521 165.38 387.774C165.941 386.397 166.543 385.368 167.171 384.73C167.787 384.104 168.385 383.891 169 384.014L169.196 383.033C168.154 382.825 167.233 383.242 166.458 384.029C165.696 384.803 165.035 385.971 164.454 387.396C163.288 390.254 162.375 394.316 161.665 398.847C160.678 405.157 160.076 412.444 159.755 418.801Z" fill="#293159"/>
</g>
<path d="M250.255 175.751H97.6521C82.3676 175.751 69.977 188.142 69.977 203.426V203.426C69.977 218.711 82.3676 231.101 97.6521 231.101H196.079C218.139 231.101 236.022 248.984 236.022 271.044V271.044C236.022 293.105 218.139 310.988 196.079 310.988H64.5366C53.3489 310.988 44.2795 320.057 44.2795 331.245V331.245C44.2795 342.433 53.3489 351.502 64.5365 351.502H268.836" stroke="#0BDEAF" stroke-width="3" stroke-dasharray="12 12"/>
<rect x="111.396" y="165.44" width="481.919" height="263.855" fill="#C5CCE7"/>
<rect x="118.597" y="188.218" width="466.497" height="232.49" fill="#F6F7FB"/>
<ellipse cx="126.543" cy="176.867" rx="4.81919" ry="4.56572" fill="#D63838"/>
<ellipse cx="141.965" cy="176.867" rx="4.81919" ry="4.56572" fill="#DFDFDF"/>
<ellipse cx="157.385" cy="176.867" rx="4.81919" ry="4.56572" fill="#3BD638"/>
<rect x="118.48" y="187.411" width="128.319" height="232.264" fill="#999EB1"/>
<rect x="119.106" y="256.368" width="127.227" height="24.9783" fill="#A9B1D0"/>
<g filter="url(#filter0_d)">
<rect x="412.111" y="210.257" width="161.925" height="49.9566" rx="2" fill="white"/>
</g>
<ellipse cx="139.299" cy="268.426" rx="7.54176" ry="7.51724" fill="white"/>
<rect x="150.609" y="265.42" width="65.6133" height="3.00689" rx="1.50345" fill="white"/>
<rect x="150.609" y="269.18" width="19.6086" height="3.00689" rx="1.50345" fill="white"/>
<ellipse cx="493.077" cy="223.704" rx="7.7107" ry="7.68562" fill="#CDE7FF"/>
<path d="M184.003 167.858L339.567 166.111L342.113 375.94L186.534 377.816L184.003 167.858Z" fill="#274C97"/>
<mask id="mask0" style="mask-type:alpha" maskUnits="userSpaceOnUse" x="183" y="164" width="160" height="213">
<path d="M183.967 166.56L339.471 164.845L342.018 374.674L186.438 376.549L183.967 166.56Z" fill="#1A7BBF"/>
</mask>
<g mask="url(#mask0)">
<line y1="-0.2" x2="209.194" y2="-0.2" transform="matrix(0.014279 0.998908 -1.00089 0.0142143 184.858 169.065)" stroke="white" stroke-opacity="0.2" stroke-width="0.4"/>
<line y1="-0.2" x2="209.194" y2="-0.2" transform="matrix(0.014279 0.998908 -1.00089 0.0142143 189.954 168.993)" stroke="white" stroke-opacity="0.2" stroke-width="0.4"/>
<line y1="-0.2" x2="209.194" y2="-0.2" transform="matrix(0.014279 0.998908 -1.00089 0.0142143 195.048 168.921)" stroke="white" stroke-opacity="0.2" stroke-width="0.4"/>
<line y1="-0.2" x2="209.194" y2="-0.2" transform="matrix(0.014279 0.998908 -1.00089 0.0142143 200.143 168.849)" stroke="white" stroke-opacity="0.2" stroke-width="0.4"/>
<line y1="-0.2" x2="209.194" y2="-0.2" transform="matrix(0.014279 0.998908 -1.00089 0.0142143 205.252 169.5)" stroke="white" stroke-opacity="0.2" stroke-width="0.4"/>
<line y1="-0.2" x2="209.194" y2="-0.2" transform="matrix(0.014279 0.998908 -1.00089 0.0142143 210.344 169.429)" stroke="white" stroke-opacity="0.2" stroke-width="0.4"/>
<line y1="-0.2" x2="209.194" y2="-0.2" transform="matrix(0.014279 0.998908 -1.00089 0.0142143 215.441 169.357)" stroke="white" stroke-opacity="0.2" stroke-width="0.4"/>
<line y1="-0.2" x2="209.194" y2="-0.2" transform="matrix(0.014279 0.998908 -1.00089 0.0142143 220.537 169.285)" stroke="white" stroke-opacity="0.2" stroke-width="0.4"/>
<line y1="-0.2" x2="209.194" y2="-0.2" transform="matrix(0.014279 0.998908 -1.00089 0.0142143 225.632 169.212)" stroke="white" stroke-opacity="0.2" stroke-width="0.4"/>
<line y1="-0.2" x2="209.194" y2="-0.2" transform="matrix(0.014279 0.998908 -1.00089 0.0142143 230.728 169.14)" stroke="white" stroke-opacity="0.2" stroke-width="0.4"/>
<line y1="-0.2" x2="209.194" y2="-0.2" transform="matrix(0.014279 0.998908 -1.00089 0.0142143 235.82 169.067)" stroke="white" stroke-opacity="0.2" stroke-width="0.4"/>
<line y1="-0.2" x2="209.194" y2="-0.2" transform="matrix(0.014279 0.998908 -1.00089 0.0142143 240.916 168.995)" stroke="white" stroke-opacity="0.2" stroke-width="0.4"/>
<line y1="-0.2" x2="209.194" y2="-0.2" transform="matrix(0.014279 0.998908 -1.00089 0.0142143 246.013 168.923)" stroke="white" stroke-opacity="0.2" stroke-width="0.4"/>
<line y1="-0.2" x2="209.194" y2="-0.2" transform="matrix(0.014279 0.998908 -1.00089 0.0142143 251.107 168.851)" stroke="white" stroke-opacity="0.2" stroke-width="0.4"/>
<line y1="-0.2" x2="209.194" y2="-0.2" transform="matrix(0.014279 0.998908 -1.00089 0.0142143 256.201 168.777)" stroke="white" stroke-opacity="0.2" stroke-width="0.4"/>
<line y1="-0.2" x2="209.194" y2="-0.2" transform="matrix(0.014279 0.998908 -1.00089 0.0142143 261.297 168.704)" stroke="white" stroke-opacity="0.2" stroke-width="0.4"/>
<line y1="-0.2" x2="209.194" y2="-0.2" transform="matrix(0.014279 0.998908 -1.00089 0.0142143 266.392 168.632)" stroke="white" stroke-opacity="0.2" stroke-width="0.4"/>
<line y1="-0.2" x2="209.194" y2="-0.2" transform="matrix(0.014279 0.998908 -1.00089 0.0142143 271.486 168.561)" stroke="white" stroke-opacity="0.2" stroke-width="0.4"/>
<line y1="-0.2" x2="209.194" y2="-0.2" transform="matrix(0.014279 0.998908 -1.00089 0.0142143 276.584 168.488)" stroke="white" stroke-opacity="0.2" stroke-width="0.4"/>
<line y1="-0.2" x2="209.194" y2="-0.2" transform="matrix(0.014279 0.998908 -1.00089 0.0142143 281.679 168.416)" stroke="white" stroke-opacity="0.2" stroke-width="0.4"/>
<line y1="-0.2" x2="209.194" y2="-0.2" transform="matrix(0.014279 0.998908 -1.00089 0.0142143 287.068 167.237)" stroke="white" stroke-opacity="0.2" stroke-width="0.4"/>
<line y1="-0.2" x2="209.194" y2="-0.2" transform="matrix(0.014279 0.998908 -1.00089 0.0142143 292.163 167.165)" stroke="white" stroke-opacity="0.2" stroke-width="0.4"/>
<line y1="-0.2" x2="209.194" y2="-0.2" transform="matrix(0.014279 0.998908 -1.00089 0.0142143 297.259 167.093)" stroke="white" stroke-opacity="0.2" stroke-width="0.4"/>
<line y1="-0.2" x2="209.194" y2="-0.2" transform="matrix(0.014279 0.998908 -1.00089 0.0142143 302.353 167.021)" stroke="white" stroke-opacity="0.2" stroke-width="0.4"/>
<line y1="-0.2" x2="209.194" y2="-0.2" transform="matrix(0.014279 0.998908 -1.00089 0.0142143 307.459 167.674)" stroke="white" stroke-opacity="0.2" stroke-width="0.4"/>
<line y1="-0.2" x2="209.194" y2="-0.2" transform="matrix(0.014279 0.998908 -1.00089 0.0142143 312.555 167.603)" stroke="white" stroke-opacity="0.2" stroke-width="0.4"/>
<line y1="-0.2" x2="209.194" y2="-0.2" transform="matrix(0.014279 0.998908 -1.00089 0.0142143 317.651 167.529)" stroke="white" stroke-opacity="0.2" stroke-width="0.4"/>
<line y1="-0.2" x2="209.194" y2="-0.2" transform="matrix(0.014279 0.998908 -1.00089 0.0142143 322.746 167.457)" stroke="white" stroke-opacity="0.2" stroke-width="0.4"/>
<line y1="-0.2" x2="209.194" y2="-0.2" transform="matrix(0.014279 0.998908 -1.00089 0.0142143 327.84 167.384)" stroke="white" stroke-opacity="0.2" stroke-width="0.4"/>
<line y1="-0.2" x2="209.194" y2="-0.2" transform="matrix(0.014279 0.998908 -1.00089 0.0142143 332.934 167.312)" stroke="white" stroke-opacity="0.2" stroke-width="0.4"/>
<line y1="-0.2" x2="209.462" y2="-0.2" transform="matrix(-1.00089 0.0142143 -0.014279 -0.998908 364.336 197.388)" stroke="white" stroke-opacity="0.2" stroke-width="0.4"/>
<line y1="-0.2" x2="209.462" y2="-0.2" transform="matrix(-1.00089 0.0142143 -0.014279 -0.998908 362.678 190.947)" stroke="white" stroke-opacity="0.2" stroke-width="0.4"/>
<line y1="-0.2" x2="209.462" y2="-0.2" transform="matrix(-1.00089 0.0142143 -0.014279 -0.998908 360.234 184.189)" stroke="white" stroke-opacity="0.2" stroke-width="0.4"/>
<line y1="-0.2" x2="209.462" y2="-0.2" transform="matrix(-1.00089 0.0142143 -0.014279 -0.998908 359.067 176.429)" stroke="white" stroke-opacity="0.2" stroke-width="0.4"/>
<line y1="-0.2" x2="209.462" y2="-0.2" transform="matrix(-1.00089 0.0142143 -0.014279 -0.998908 357.589 169.323)" stroke="white" stroke-opacity="0.2" stroke-width="0.4"/>
<line y1="-0.2" x2="209.462" y2="-0.2" transform="matrix(-1.00089 0.0142143 -0.014279 -0.998908 364.407 202.465)" stroke="white" stroke-opacity="0.2" stroke-width="0.4"/>
<line y1="-0.2" x2="209.462" y2="-0.2" transform="matrix(-1.00089 0.0142143 -0.014279 -0.998908 364.482 207.544)" stroke="white" stroke-opacity="0.2" stroke-width="0.4"/>
<line y1="-0.2" x2="209.462" y2="-0.2" transform="matrix(-1.00089 0.0142143 -0.014279 -0.998908 364.553 212.621)" stroke="white" stroke-opacity="0.2" stroke-width="0.4"/>
<line y1="-0.2" x2="209.462" y2="-0.2" transform="matrix(-1.00089 0.0142143 -0.014279 -0.998908 363.898 217.713)" stroke="white" stroke-opacity="0.2" stroke-width="0.4"/>
<line y1="-0.2" x2="209.462" y2="-0.2" transform="matrix(-1.00089 0.0142143 -0.014279 -0.998908 363.971 222.79)" stroke="white" stroke-opacity="0.2" stroke-width="0.4"/>
<line y1="-0.2" x2="209.462" y2="-0.2" transform="matrix(-1.00089 0.0142143 -0.014279 -0.998908 364.044 227.87)" stroke="white" stroke-opacity="0.2" stroke-width="0.4"/>
<line y1="-0.2" x2="209.462" y2="-0.2" transform="matrix(-1.00089 0.0142143 -0.014279 -0.998908 364.115 232.948)" stroke="white" stroke-opacity="0.2" stroke-width="0.4"/>
<line y1="-0.2" x2="209.462" y2="-0.2" transform="matrix(-1.00089 0.0142143 -0.014279 -0.998908 364.189 238.027)" stroke="white" stroke-opacity="0.2" stroke-width="0.4"/>
<line y1="-0.2" x2="209.462" y2="-0.2" transform="matrix(-1.00089 0.0142143 -0.014279 -0.998908 364.26 243.104)" stroke="white" stroke-opacity="0.2" stroke-width="0.4"/>
<line y1="-0.2" x2="209.462" y2="-0.2" transform="matrix(-1.00089 0.0142143 -0.014279 -0.998908 364.333 248.184)" stroke="white" stroke-opacity="0.2" stroke-width="0.4"/>
<line y1="-0.2" x2="209.462" y2="-0.2" transform="matrix(-1.00089 0.0142143 -0.014279 -0.998908 364.405 253.262)" stroke="white" stroke-opacity="0.2" stroke-width="0.4"/>
<line y1="-0.2" x2="209.462" y2="-0.2" transform="matrix(-1.00089 0.0142143 -0.014279 -0.998908 364.478 258.341)" stroke="white" stroke-opacity="0.2" stroke-width="0.4"/>
<line y1="-0.2" x2="209.462" y2="-0.2" transform="matrix(-1.00089 0.0142143 -0.014279 -0.998908 364.551 263.419)" stroke="white" stroke-opacity="0.2" stroke-width="0.4"/>
<line y1="-0.2" x2="209.462" y2="-0.2" transform="matrix(-1.00089 0.0142143 -0.014279 -0.998908 364.624 268.498)" stroke="white" stroke-opacity="0.2" stroke-width="0.4"/>
<line y1="-0.2" x2="209.462" y2="-0.2" transform="matrix(-1.00089 0.0142143 -0.014279 -0.998908 364.698 273.577)" stroke="white" stroke-opacity="0.2" stroke-width="0.4"/>
<line y1="-0.2" x2="209.462" y2="-0.2" transform="matrix(-1.00089 0.0142143 -0.014279 -0.998908 364.767 278.655)" stroke="white" stroke-opacity="0.2" stroke-width="0.4"/>
<line y1="-0.2" x2="209.462" y2="-0.2" transform="matrix(-1.00089 0.0142143 -0.014279 -0.998908 364.844 283.733)" stroke="white" stroke-opacity="0.2" stroke-width="0.4"/>
<line y1="-0.2" x2="209.462" y2="-0.2" transform="matrix(-1.00089 0.0142143 -0.014279 -0.998908 364.913 288.813)" stroke="white" stroke-opacity="0.2" stroke-width="0.4"/>
<line y1="-0.2" x2="209.462" y2="-0.2" transform="matrix(-1.00089 0.0142143 -0.014279 -0.998908 364.985 293.891)" stroke="white" stroke-opacity="0.2" stroke-width="0.4"/>
<line y1="-0.2" x2="209.462" y2="-0.2" transform="matrix(-1.00089 0.0142143 -0.014279 -0.998908 366.168 299.265)" stroke="white" stroke-opacity="0.2" stroke-width="0.4"/>
<line y1="-0.2" x2="209.462" y2="-0.2" transform="matrix(-1.00089 0.0142143 -0.014279 -0.998908 366.241 304.343)" stroke="white" stroke-opacity="0.2" stroke-width="0.4"/>
<line y1="-0.2" x2="209.462" y2="-0.2" transform="matrix(-1.00089 0.0142143 -0.014279 -0.998908 366.314 309.422)" stroke="white" stroke-opacity="0.2" stroke-width="0.4"/>
<line y1="-0.2" x2="209.462" y2="-0.2" transform="matrix(-1.00089 0.0142143 -0.014279 -0.998908 366.385 314.5)" stroke="white" stroke-opacity="0.2" stroke-width="0.4"/>
<line y1="-0.2" x2="209.462" y2="-0.2" transform="matrix(-1.00089 0.0142143 -0.014279 -0.998908 365.73 319.59)" stroke="white" stroke-opacity="0.2" stroke-width="0.4"/>
<line y1="-0.2" x2="209.462" y2="-0.2" transform="matrix(-1.00089 0.0142143 -0.014279 -0.998908 365.803 324.668)" stroke="white" stroke-opacity="0.2" stroke-width="0.4"/>
<line y1="-0.2" x2="209.462" y2="-0.2" transform="matrix(-1.00089 0.0142143 -0.014279 -0.998908 365.876 329.746)" stroke="white" stroke-opacity="0.2" stroke-width="0.4"/>
<line y1="-0.2" x2="209.462" y2="-0.2" transform="matrix(-1.00089 0.0142143 -0.014279 -0.998908 365.949 334.824)" stroke="white" stroke-opacity="0.2" stroke-width="0.4"/>
<line y1="-0.2" x2="209.462" y2="-0.2" transform="matrix(-1.00089 0.0142143 -0.014279 -0.998908 366.023 339.903)" stroke="white" stroke-opacity="0.2" stroke-width="0.4"/>
<line y1="-0.2" x2="209.462" y2="-0.2" transform="matrix(-1.00089 0.0142143 -0.014279 -0.998908 366.094 344.981)" stroke="white" stroke-opacity="0.2" stroke-width="0.4"/>
<line y1="-0.2" x2="209.462" y2="-0.2" transform="matrix(-1.00089 0.0142143 -0.014279 -0.998908 366.245 350.56)" stroke="white" stroke-opacity="0.2" stroke-width="0.4"/>
<line y1="-0.2" x2="209.462" y2="-0.2" transform="matrix(-1.00089 0.0142143 -0.014279 -0.998908 365.432 357.396)" stroke="white" stroke-opacity="0.2" stroke-width="0.4"/>
<line y1="-0.2" x2="209.462" y2="-0.2" transform="matrix(-1.00089 0.0142143 -0.014279 -0.998908 363.692 366.201)" stroke="white" stroke-opacity="0.2" stroke-width="0.4"/>
</g>
<path d="M217.788 336.337L227.506 320.846L232.434 335.982L216.243 346.437L217.788 336.337Z" stroke="white"/>
<path d="M211.627 358.122L211.625 358.621L211.913 358.623L212.059 358.375L211.627 358.122ZM208.406 358.109L208.408 357.61L207.906 357.608L207.905 358.109L208.406 358.109ZM208.453 317.424L207.953 317.424L207.952 317.656L208.13 317.806L208.453 317.424ZM208.453 317.424L208.953 317.424L208.954 316.361L208.134 317.039L208.453 317.424ZM208.453 317.424L208.129 317.805L208.449 318.076L208.772 317.809L208.453 317.424ZM208.452 317.424L208.776 317.042L207.956 316.35L207.952 317.422L208.452 317.424ZM208.452 317.425L208.772 317.809L208.952 317.66L208.953 317.427L208.452 317.425ZM205.068 358.096L204.635 358.346L204.779 358.595L205.066 358.596L205.068 358.096ZM208.406 358.109L208.404 358.609L208.906 358.611L208.906 358.11L208.406 358.109ZM211.629 357.622L208.408 357.61L208.404 358.609L211.625 358.621L211.629 357.622ZM217.082 336.626C217.045 345.679 213.138 354.572 211.196 357.869L212.059 358.375C214.056 354.985 218.045 345.918 218.083 336.63L217.082 336.626ZM208.13 317.806C211.128 320.336 217.117 327.661 217.082 336.626L218.083 336.63C218.12 327.255 211.895 319.675 208.776 317.043L208.13 317.806ZM208.953 317.425L208.953 317.424L207.953 317.424L207.953 317.424L208.953 317.425ZM208.134 317.039L208.134 317.04L208.772 317.809L208.772 317.809L208.134 317.039ZM208.129 317.805L208.129 317.805L208.776 317.043L208.776 317.042L208.129 317.805ZM208.953 317.427L208.953 317.426L207.952 317.422L207.952 317.423L208.953 317.427ZM208.132 317.041C204.988 319.651 198.822 327.183 198.785 336.554L199.786 336.558C199.822 327.589 205.758 320.311 208.772 317.809L208.132 317.041ZM198.785 336.554C198.748 345.842 202.665 354.94 204.635 358.346L205.502 357.846C203.586 354.534 199.75 345.611 199.786 336.558L198.785 336.554ZM205.066 358.596L208.404 358.609L208.408 357.61L205.07 357.597L205.066 358.596ZM208.906 358.11L208.906 358.11L207.905 358.109L207.905 358.109L208.906 358.11Z" fill="white"/>
<path d="M274.457 336.425L265.092 319.611L258.844 337.128L275.877 347.913L274.457 336.425Z" stroke="white"/>
<path d="M286.93 358.421L287.362 358.675L287.216 358.922L286.928 358.921L286.93 358.421ZM283.71 358.409L283.21 358.407L283.212 357.907L283.712 357.909L283.71 358.409ZM283.873 317.726L283.55 318.107L283.371 317.957L283.372 317.724L283.873 317.726ZM283.873 317.724L283.553 317.341L284.378 316.655L284.373 317.726L283.873 317.724ZM283.872 317.725L284.192 318.109L283.87 318.377L283.549 318.107L283.872 317.725ZM283.87 317.724L283.37 317.72L283.377 316.654L284.193 317.342L283.87 317.724ZM283.87 317.726L284.371 317.73L284.369 317.962L284.19 318.11L283.87 317.726ZM280.373 358.396L280.371 358.896L280.084 358.894L279.94 358.646L280.373 358.396ZM283.71 358.409L284.211 358.411L284.209 358.911L283.708 358.909L283.71 358.409ZM286.928 358.921L283.708 358.908L283.712 357.909L286.932 357.922L286.928 358.921ZM293.386 336.93C293.349 346.218 289.359 355.284 287.362 358.675L286.499 358.168C288.441 354.871 292.348 345.979 292.385 336.926L293.386 336.93ZM284.196 317.344C287.32 319.981 293.423 327.561 293.386 336.93L292.385 336.926C292.42 327.959 286.544 320.635 283.55 318.107L284.196 317.344ZM283.372 317.724L283.372 317.722L284.373 317.726L284.373 317.728L283.372 317.724ZM284.193 318.108C284.193 318.108 284.193 318.109 284.192 318.109C284.192 318.109 284.192 318.109 284.192 318.109L283.552 317.341C283.552 317.341 283.552 317.341 283.552 317.341C283.553 317.341 283.553 317.341 283.553 317.341L284.193 318.108ZM284.193 317.342C284.194 317.343 284.195 317.343 284.195 317.344L283.549 318.107C283.548 318.106 283.548 318.106 283.547 318.105L284.193 317.342ZM283.37 317.723L283.37 317.72L284.371 317.727L284.371 317.73L283.37 317.723ZM284.19 318.11C281.171 320.618 275.126 327.895 275.091 336.858L274.09 336.854C274.127 327.481 280.41 319.951 283.55 317.342L284.19 318.11ZM275.091 336.858C275.054 345.911 278.891 354.834 280.807 358.146L279.94 358.646C277.97 355.24 274.052 346.142 274.09 336.854L275.091 336.858ZM280.375 357.896L283.712 357.91L283.708 358.909L280.371 358.896L280.375 357.896ZM283.21 358.407L283.21 358.407L284.211 358.411L284.211 358.411L283.21 358.407Z" fill="white"/>
<path d="M235.853 343.839L235.4 344.053L235.535 344.338L235.851 344.339L235.853 343.839ZM245.706 343.878L246.207 343.88L246.209 343.381L245.708 343.379L245.706 343.878ZM246.311 192.012L246.812 192.012L246.814 190.79L245.955 191.661L246.311 192.012ZM246.31 192.502L245.81 192.501L246.811 192.504L246.31 192.502ZM246.312 192.012L246.672 191.665L245.817 190.784L245.812 192.01L246.312 192.012ZM255.911 343.92L255.909 344.419L256.224 344.42L256.361 344.137L255.911 343.92ZM245.706 343.879L245.206 343.877L245.204 344.377L245.704 344.379L245.706 343.879ZM235.851 344.339L245.704 344.378L245.708 343.379L235.855 343.34L235.851 344.339ZM217.727 263.449C217.59 297.776 229.447 331.475 235.4 344.053L236.305 343.626C230.394 331.138 218.592 297.588 218.728 263.453L217.727 263.449ZM245.955 191.661C236.467 201.277 217.864 229.054 217.727 263.449L218.728 263.453C218.864 229.384 237.312 201.845 246.668 192.362L245.955 191.661ZM246.811 192.503L246.812 192.012L245.811 192.011L245.81 192.501L246.811 192.503ZM246.811 192.504L246.813 192.014L245.812 192.01L245.81 192.5L246.811 192.504ZM245.953 192.36C255.236 201.92 273.812 229.607 273.676 263.671L274.677 263.675C274.815 229.277 256.079 201.353 246.672 191.665L245.953 192.36ZM273.676 263.671C273.54 297.807 261.47 331.262 255.46 343.703L256.361 344.137C262.415 331.606 274.54 298.002 274.677 263.675L273.676 263.671ZM255.913 343.42L245.708 343.38L245.704 344.379L255.909 344.419L255.913 343.42ZM246.207 343.881L246.207 343.88L245.206 343.876L245.206 343.877L246.207 343.881Z" fill="white"/>
<path d="M261.446 299.062L285.391 299.455L285.436 274.623L297.97 274.482" stroke="white" stroke-dasharray="4 4"/>
<rect width="63.2702" height="3.69712" transform="matrix(1.00091 -0.0124731 0.01253 0.998935 268.562 201.367)" fill="white"/>
<rect width="42.3972" height="3.69712" transform="matrix(1.00091 -0.0124731 0.01253 0.998935 279.432 246.547)" fill="white"/>
<rect width="42.3972" height="0.932744" transform="matrix(1.00091 -0.0124731 0.01253 0.998935 279.099 252.377)" fill="white"/>
<rect width="42.3972" height="0.932744" transform="matrix(1.00091 -0.0124731 0.01253 0.998935 278.519 255.312)" fill="white"/>
<rect width="42.3972" height="3.54761" transform="matrix(1.00091 -0.0124731 0.01253 0.998935 288.081 313.507)" fill="white"/>
<rect width="42.3972" height="1.66391" transform="matrix(1.00091 -0.0124731 0.01253 0.998935 288.506 317.717)" fill="white"/>
<rect width="25.7473" height="1.66391" transform="matrix(1.00091 -0.0124731 0.01253 0.998935 288.895 320.304)" fill="white"/>
<rect width="37.8808" height="1.66391" transform="matrix(1.00091 -0.0124731 0.01253 0.998935 292.227 323.471)" fill="white"/>
<rect width="37.8808" height="1.66391" transform="matrix(1.00091 -0.0124731 0.01253 0.998935 292.529 326.245)" fill="white"/>
<rect width="41.1154" height="1.00191" transform="matrix(1.00091 -0.0124731 0.01253 0.998935 269.032 207.469)" fill="white"/>
<rect width="41.1154" height="1.00191" transform="matrix(1.00091 -0.0124731 0.01253 0.998935 269.202 210.244)" fill="white"/>
<rect width="63.2702" height="3.69712" transform="matrix(1.00091 -0.0124731 0.01253 0.998935 197.497 173.688)" fill="white"/>
<path d="M273.562 275.074L218.718 276.24L219.535 283.037L272.926 282.392L273.562 275.074Z" stroke="white"/>
<rect width="41.1154" height="1.00191" transform="matrix(1.00091 -0.0124731 0.01253 0.998935 219.561 179.773)" fill="white"/>
<rect width="41.1154" height="1.00191" transform="matrix(1.00091 -0.0124731 0.01253 0.998935 220.26 181.705)" fill="white"/>
<rect width="41.1154" height="1.00191" transform="matrix(1.00091 -0.0124731 0.01253 0.998935 269.592 212.833)" fill="white"/>
<rect width="41.1154" height="1.00191" transform="matrix(1.00091 -0.0124731 0.01253 0.998935 270.33 216.386)" fill="white"/>
<rect width="17.8179" height="0.932744" transform="matrix(1.00091 -0.0124731 0.01253 0.998935 204.617 208.06)" fill="white"/>
<rect width="17.8179" height="0.932744" transform="matrix(1.00091 -0.0124731 0.01253 0.998935 204.581 209.843)" fill="white"/>
<rect width="17.8179" height="0.932744" transform="matrix(1.00091 -0.0124731 0.01253 0.998935 204.622 211.465)" fill="white"/>
<rect width="17.8179" height="0.932744" transform="matrix(1.00091 -0.0124731 0.01253 0.998935 204.661 213.087)" fill="white"/>
<ellipse rx="6.54779" ry="6.53419" transform="matrix(0.905562 0.424213 -0.426483 0.904496 197.361 211.512)" fill="white"/>
<path d="M259.145 243.066C255.571 250.644 246.975 254.05 239.977 250.772C232.979 247.494 230.124 238.723 233.697 231.145C237.27 223.567 245.867 220.161 252.865 223.439C259.862 226.717 262.718 235.488 259.145 243.066Z" stroke="white"/>
<rect width="17.8179" height="0.932744" transform="matrix(1.00091 -0.0124731 0.01253 0.998935 314.329 270.485)" fill="white"/>
<rect width="17.8179" height="0.932744" transform="matrix(1.00091 -0.0124731 0.01253 0.998935 314.293 272.269)" fill="white"/>
<rect width="17.8179" height="0.932744" transform="matrix(1.00091 -0.0124731 0.01253 0.998935 314.334 273.891)" fill="white"/>
<rect width="17.8179" height="0.932744" transform="matrix(1.00091 -0.0124731 0.01253 0.998935 314.373 275.513)" fill="white"/>
<ellipse rx="6.54779" ry="6.53419" transform="matrix(0.905562 0.424213 -0.426483 0.904496 307.072 273.938)" fill="white"/>
<path d="M231.732 309.195L207.168 310.115L206.333 229.149" stroke="white" stroke-dasharray="4 4"/>
<ellipse cx="277.173" cy="227.548" rx="7.7107" ry="7.68562" fill="#FFCDD6"/>
<rect x="460.301" y="235.232" width="65.5409" height="3.84281" rx="1.92141" fill="#1978DC" fill-opacity="0.38"/>
<rect x="288.742" y="221.782" width="65.5409" height="3.84281" rx="1.92141" fill="#B1D7FF"/>
<ellipse cx="139.299" cy="212.798" rx="7.54176" ry="7.51724" fill="#FFCDD6"/>
<rect x="150.609" y="209.79" width="65.6133" height="3.00689" rx="1.50345" fill="white" fill-opacity="0.25"/>
<rect x="150.609" y="213.549" width="19.6086" height="3.00689" rx="1.50345" fill="white" fill-opacity="0.25"/>
<ellipse cx="139.299" cy="240.611" rx="7.54176" ry="7.51724" fill="#FFCDD6"/>
<rect x="150.609" y="237.603" width="65.6133" height="3.00689" rx="1.50345" fill="white" fill-opacity="0.25"/>
<rect x="150.609" y="241.362" width="19.6086" height="3.00689" rx="1.50345" fill="white" fill-opacity="0.25"/>
<ellipse cx="139.299" cy="296.24" rx="7.54176" ry="7.51724" fill="#FFCDD6"/>
<rect x="150.609" y="293.233" width="65.6133" height="3.00689" rx="1.50345" fill="white" fill-opacity="0.25"/>
<rect x="150.609" y="296.991" width="19.6086" height="3.00689" rx="1.50345" fill="white" fill-opacity="0.25"/>
<rect x="288.742" y="227.546" width="28.9151" height="3.84281" rx="1.92141" fill="#B1D7FF"/>
<rect x="271.394" y="240.997" width="36.6258" height="1.92141" rx="0.960703" fill="#B1D7FF"/>
<rect x="271.394" y="246.76" width="32.7705" height="1.92141" rx="0.960703" fill="#B1D7FF"/>
<rect x="269.463" y="250.604" width="26.9874" height="3.84281" rx="1.92141" fill="#B1D7FF"/>
<rect x="269.463" y="256.368" width="17.3491" height="3.84281" rx="1.92141" fill="#B1D7FF"/>
<path d="M269.463 265.976V387.024H392.834" stroke="#B1D7FF"/>
<rect x="439.102" y="244.839" width="107.95" height="3.84281" rx="1.92141" fill="#1978DC" fill-opacity="0.38"/>
<path d="M277.314 379.307L308.99 360.138L332.746 320.296L381.391 264.293" stroke="#FFB800" stroke-width="2"/>
<ellipse cx="277.316" cy="378.931" rx="2.26253" ry="2.25517" fill="#FFB800"/>
<ellipse cx="331.616" cy="321.8" rx="2.26253" ry="2.25517" fill="#FFB800"/>
<ellipse cx="381.392" cy="263.917" rx="2.26253" ry="2.25517" fill="#FFB800"/>
<g filter="url(#filter1_d)">
<rect x="386.331" y="256.141" width="256.975" height="80.6364" rx="9" fill="white"/>
</g>
<ellipse cx="418.451" cy="284.601" rx="11.897" ry="11.8583" fill="#FFCDD6"/>
<rect x="439.865" y="279.856" width="103.504" height="4.74332" rx="2.37166" fill="#B1D7FF"/>
<rect x="439.865" y="288.158" width="44.0189" height="4.74332" rx="2.37166" fill="#B1D7FF"/>
<rect x="407.746" y="303.574" width="72.5716" height="4.74332" rx="2.37166" fill="#B1D7FF"/>
<rect x="483.887" y="303.574" width="26.1734" height="4.74332" rx="2.37166" fill="#B1D7FF"/>
<rect x="514.819" y="303.574" width="41.6395" height="4.74332" rx="2.37166" fill="#B1D7FF"/>
<rect x="561.217" y="303.574" width="13.0867" height="4.74332" rx="2.37166" fill="#B1D7FF"/>
<rect x="577.872" y="303.574" width="58.2952" height="4.74332" rx="2.37166" fill="#B1D7FF"/>
<path d="M565.604 339.592C561.516 347.742 595.923 355.212 613.638 357.929L614.66 337.555C619.77 312.088 619.77 305.975 613.638 306.994C607.506 308.013 602.396 320.237 600.352 313.106C598.308 305.975 613.638 287.639 608.528 274.396C603.418 261.153 593.198 282.546 589.11 279.49C585.022 276.433 592.176 241.798 586.044 239.761C579.912 237.723 578.89 266.247 576.846 256.06C574.802 245.873 558.45 224.48 545.163 232.63C531.877 240.779 568.67 261.153 565.604 265.228C562.538 269.303 542.097 257.078 542.097 269.303C542.097 281.527 575.824 285.602 582.978 290.695C590.132 295.789 560.494 300.882 553.339 303.938C546.185 306.994 548.229 318.2 568.67 319.218C589.11 320.237 593.198 325.331 595.242 330.424C597.286 335.518 570.714 329.405 565.604 339.592Z" fill="#62A2F4"/>
<path d="M568.672 256.059C573.782 260.473 585.024 275.006 589.112 297.825C593.2 320.644 605.805 342.647 611.596 350.797" stroke="white" stroke-opacity="0.32"/>
<path d="M660.126 338.291C664.214 346.441 629.806 353.911 612.091 356.628L611.069 336.254C605.959 310.787 605.959 304.675 612.091 305.693C618.223 306.712 623.333 318.936 625.377 311.806C627.421 304.675 612.091 286.338 617.201 273.095C622.311 259.852 632.531 281.245 636.619 278.189C640.707 275.133 633.553 240.497 639.685 238.46C645.817 236.422 646.839 264.946 648.883 254.759C650.927 244.572 667.28 223.179 680.566 231.329C693.852 239.478 657.06 259.852 660.126 263.927C663.192 268.002 683.632 255.778 683.632 268.002C683.632 280.226 649.905 284.301 642.751 289.394C635.597 294.488 665.236 299.581 672.39 302.637C679.544 305.693 677.5 316.899 657.06 317.918C636.619 318.936 632.531 324.03 630.487 329.123C628.443 334.217 655.016 328.105 660.126 338.291Z" fill="#569BF4"/>
<path d="M657.059 254.758C651.949 259.172 640.707 273.705 636.619 296.524C632.531 319.343 619.926 341.347 614.135 349.496" stroke="white" stroke-opacity="0.32"/>
<path d="M590.168 317.105C581.571 317.105 591.301 333.288 596.964 339.686L613.954 357.751C622.261 354.364 639.781 346.687 643.405 343.074C647.936 338.557 642.273 337.428 636.609 336.299C632.078 335.396 634.721 331.407 636.609 329.525C655.639 324.105 661.907 313.718 662.662 309.202C662.662 308.073 662.662 305.815 658.131 302.428C653.6 299.04 635.476 325.009 636.609 308.073C637.742 291.137 663.795 271.943 662.662 264.04C661.529 256.136 655.866 266.298 645.671 271.943C637.515 276.459 637.742 268.556 638.874 264.04C644.161 258.018 654.053 244.394 651.335 238.072C647.936 230.168 645.671 238.072 636.609 245.975C627.547 253.878 633.211 236.942 635.476 233.555C637.742 230.168 658.131 186.135 621.883 194.038C585.636 201.942 607.158 249.362 608.291 256.136C609.423 262.911 600.362 247.104 586.769 251.62C573.176 256.136 611.689 280.976 611.689 287.75C611.689 294.524 596.964 284.363 590.168 283.234C583.371 282.105 596.964 299.041 600.362 309.202C603.08 317.331 601.495 319.363 600.362 319.363C596.964 321.622 596.964 317.105 590.168 317.105Z" fill="#82B7FB"/>
<path d="M624.147 217.751C621.882 218.127 618.031 230.848 620.749 278.72C623.468 326.592 619.617 343.829 617.352 346.463" stroke="white" stroke-opacity="0.19" stroke-width="2" stroke-linejoin="round"/>
<path d="M586.474 367.414H634.764L629.544 419.45H591.042L586.474 367.414Z" fill="#E92476"/>
<mask id="mask1" style="mask-type:alpha" maskUnits="userSpaceOnUse" x="586" y="367" width="49" height="53">
<path d="M586.476 367.412H634.766L629.546 419.448H591.044L586.476 367.412Z" fill="#E92476"/>
</mask>
<g mask="url(#mask1)">
<rect x="579.949" y="358.307" width="61.3422" height="18.2127" rx="9.10636" fill="#D2055B"/>
</g>
<rect x="579.949" y="353.104" width="61.3422" height="18.2127" rx="9.10636" fill="#E92476"/>
<path d="M587.777 383.024H633.458L631.5 403.839H589.083L587.777 383.024Z" fill="#F27CAD"/>
<path d="M551.937 299.467C557.14 296.443 553.557 286.697 550.77 282.286L543.982 283.854C546.642 286.813 543.19 294.154 545.405 294.432C547.112 294.645 546.684 293.325 547.2 291.2C548.684 292.041 550.097 296.104 550.588 298.71C550.708 299.351 551.373 299.795 551.937 299.467Z" fill="#EF937E"/>
<path d="M418.909 230.737C415.922 235.948 423.913 242.602 428.539 245.033L437.962 249.502L433.631 240.292C429.843 239.056 429.15 230.977 427.092 231.841C425.507 232.507 426.54 233.437 427.159 235.535C425.452 235.546 422.189 232.73 420.457 230.717C420.031 230.223 419.233 230.171 418.909 230.737Z" fill="#EF937E"/>
<path d="M468.119 234.957C475.892 211.268 484.62 202.196 485.889 199.696C487.209 218.068 483.358 254.413 474.386 260.224C465.413 266.035 442.218 254.949 431.742 248.679L434.608 237.826C456.975 245.563 466.268 239.137 468.119 234.957Z" fill="#EA596A"/>
<path d="M484.936 201.118L492.129 195.361L498.88 196.096L509.397 272.388L469.227 281.335C469.458 278.938 473.66 254.262 476.861 235.067C479.801 217.438 483.898 207.747 484.936 201.118Z" fill="white"/>
<path d="M481.466 174.948L482.888 170.514L485.263 166.548C486.517 165.906 491.34 165.235 500.595 167.686C509.85 170.137 504.086 186.764 500.046 194.772L499.695 197.685C493.566 200.46 483.604 203.378 485.06 200.945C486.42 198.673 486.648 197.575 486.85 195.881C485.022 196.102 483.281 196.016 481.95 195.634C479.693 194.985 480.882 192.28 481.759 191.009C481.122 190.63 480.913 189.807 481.293 189.171L480.637 188.579C480.352 188.322 480.256 187.915 480.396 187.557C480.644 186.926 480.398 186.209 479.815 185.863L478.722 185.213C478.211 184.908 478.096 184.218 478.482 183.764L481.051 180.744C481.554 180.152 481.714 179.343 481.474 178.606C481.087 177.418 481.084 176.139 481.466 174.948Z" fill="#EF937E"/>
<path d="M497.629 191.254L499.139 193.683C499.538 194.326 500.481 194.309 500.859 193.652L506.13 184.481C507.649 181.839 508.92 178.98 508.845 175.936C508.724 171.014 506.784 164.763 499.89 161.889C488.188 157.012 484.665 162.898 484.204 162.797C483.834 162.716 483.364 161.777 483.175 161.317C482.991 161.624 482.964 162.638 482.974 163.106C482.172 162.352 482.789 160.798 483.197 160.116C477.469 165.731 479.973 169.476 481.941 170.646C484.077 170.471 488.57 170.564 489.457 172.34C490.564 174.56 489.923 174.179 492.337 175.961C494.268 177.387 493.087 182.075 492.254 184.24L490.952 186.415L494.18 185.385C494.643 182.052 497.168 180.685 498.372 180.418C501.471 181.289 499.168 188.005 497.629 191.254Z" fill="#393939"/>
<path d="M527.068 408.08L525.682 395.477L511.726 396.39L516.978 411.019L527.068 408.08Z" fill="#EF937E"/>
<path d="M515.962 409.525C518.848 409.608 524.719 407.613 527.294 406.606L527.68 406.454L532.767 417.103L502.258 429.046C496.388 431.344 498.147 427.285 499.76 424.968C505.321 422.791 512.879 413.765 515.962 409.525Z" fill="#1D104A"/>
<path d="M468.038 417.762L471.37 405.526L458.045 401.291L457.569 416.821L468.038 417.762Z" fill="#EF937E"/>
<path d="M457.172 415.059C459.827 416.188 466.023 416.47 468.789 416.47H469.204L470.034 428.236H437.256C430.949 428.236 434.075 425.098 436.426 423.529C442.401 423.529 452.746 417.882 457.172 415.059Z" fill="#1D104A"/>
<path d="M487.745 340.14C494.054 359.909 502.038 382.396 511.82 406.033H530.38C525.621 392.119 515.247 346.551 511.82 275.589L469.942 273.218C465.025 291.243 455.57 343.041 457.093 406.033L472.797 406.507C476.164 389.159 481.652 363.61 487.745 340.14Z" fill="#393939"/>
<mask id="mask2" style="mask-type:alpha" maskUnits="userSpaceOnUse" x="456" y="273" width="75" height="134">
<path d="M487.745 340.14C494.054 359.909 502.038 382.396 511.82 406.033H530.38C525.621 392.119 515.247 346.551 511.82 275.589L469.942 273.218C465.025 291.243 455.57 343.041 457.093 406.033L472.797 406.507C476.164 389.159 481.652 363.61 487.745 340.14Z" fill="#79C7CE"/>
</mask>
<g mask="url(#mask2)">
<path d="M487.552 339.151L476.13 407.931H452.812L447.577 360.971L469.944 271.795L487.552 339.151Z" fill="#262626"/>
</g>
<path d="M481.649 278.149C473.177 257.556 485.211 217.992 492.175 198.892L499.69 196.85C532.543 213.822 548.902 259.94 553.324 282.533L542 285.055C539.552 285.601 518.772 248.653 518.772 248.653C518.772 248.653 513.369 243.314 526.682 284.093L481.649 278.149Z" fill="#FC7383"/>
<path d="M157.459 428.967L154.525 418.192L166.259 414.463L166.678 428.138L157.459 428.967Z" fill="#F3AEAE"/>
<path d="M167.027 426.588C164.689 427.582 159.233 427.831 156.797 427.831H156.432L155.701 438.191H184.564C190.118 438.191 187.365 435.428 185.295 434.047C180.034 434.047 170.924 429.074 167.027 426.588Z" fill="#1D104A"/>
<path d="M96.3237 413.45L99.1881 402.657L111.22 405.274L104.723 417.326L96.3237 413.45Z" fill="#F3AEAE"/>
<path d="M105.806 416.158C103.282 415.854 98.4321 413.35 96.3227 412.137L96.0063 411.954L90.1765 420.562L115.173 434.947C119.982 437.715 118.984 433.95 117.884 431.722C113.328 429.1 107.933 420.254 105.806 416.158Z" fill="#1D104A"/>
<path d="M198.527 244.182L167.517 252.118L161.65 240.005H196.012L198.527 244.182Z" fill="#EE9F86"/>
<path d="M201.191 216.054L174.65 242.898C174.025 243.529 174.473 244.601 175.361 244.601H198.13C198.386 244.601 198.631 244.503 198.817 244.328L228.805 215.99C229.482 215.35 228.992 214.212 228.061 214.265L201.845 215.758C201.598 215.772 201.365 215.878 201.191 216.054Z" fill="#333333"/>
<path d="M165.557 223.897C169.584 212.734 160.895 204.459 155.781 198.164C156.2 197.746 154.559 198.164 152.847 198.164C151.172 198.164 144.72 195.855 136.759 200.032C126.366 214.4 129.382 245.299 131.897 258.247C144.747 258.526 165.557 262.055 165.557 259.942C165.557 259.004 165.557 258.757 165.557 258.721C165.557 258.558 165.557 258.068 165.557 256.769C165.557 251.238 165.557 241.604 165.557 223.897Z" fill="#FEAF22"/>
<path d="M127.034 287.447C124.338 275.476 129 262.993 131.668 258.248L164.919 259.308C165.931 277.248 129.282 370.232 107.655 414.464L95.8586 409.354C107.374 373.707 129.73 299.419 127.034 287.447Z" fill="#04138A"/>
<path d="M131.568 250.029L130.73 224.968L143.721 223.715L141.626 243.346L173.473 226.503L176.826 231.515L139.111 255.877H137.416C134.186 255.877 131.568 253.259 131.568 250.029Z" fill="#EE9F86"/>
<path d="M189.218 223.751C185.759 219.298 177.273 223.396 173.474 226.504L176.824 231.516C179.29 228.685 185.299 232.604 185.299 230.504C185.298 228.885 184.108 229.441 182.051 229.209C182.661 227.738 186.252 225.96 188.643 225.183C189.263 224.982 189.618 224.267 189.218 223.751Z" fill="#EE9F86"/>
<path d="M164.119 421.135L165.558 259.768L132.451 258.673L151.524 421.135H164.119Z" fill="#030E68"/>
<path d="M129.054 209.962C129.054 204.871 133.182 200.743 138.273 200.743C143.365 200.743 147.492 204.871 147.492 209.962V224.969H129.054V209.962Z" fill="#EE9D0C"/>
<path d="M168.233 178.97C168.47 178.258 168.544 177.451 168.538 176.63C168.515 173.625 167.36 170.646 165.745 168.109C151.735 160.617 145.603 172.926 144.288 180.016L146.028 200.941L152.389 202.555C155.068 203.235 157.617 201.07 157.368 198.325L157.033 194.644C158.771 194.644 160.114 194.692 163.941 195.501C167.769 196.311 167.073 192.842 167.189 192.264C167.257 191.923 167.795 191.433 168.258 191.077C168.48 190.906 168.512 190.578 168.314 190.38C168.141 190.208 168.141 189.928 168.314 189.755L168.58 189.491C168.851 189.22 168.898 188.798 168.692 188.475L168.49 188.16C168.337 187.92 168.361 187.609 168.548 187.395L169.326 186.503C169.967 185.769 169.97 184.69 169.443 183.87C168.54 182.464 167.696 180.573 168.233 178.97Z" fill="#F3AEAE"/>
<path d="M145.183 188.231C145.82 192.039 143.91 186.962 142.978 183.655C141.936 182.277 138.99 174.78 140.195 170.317C141.061 167.106 142.052 163.609 147.556 163.081C137.661 163.521 143.858 163.035 149.061 162.956L148.249 162.147C146.502 160.406 144.871 159.318 143.79 159.318C134.87 159.722 123.112 161.339 118.653 156.893C115.085 153.336 108.517 155.411 105.679 156.893C88.2451 162.956 57.8374 156.085 75.2711 143.151C92.7049 130.217 93.1103 136.28 106.895 143.151C120.68 150.022 117.842 142.343 135.681 144.364C149.952 145.98 150.547 157.432 149.061 162.956C143.858 163.035 137.661 163.521 147.556 163.081C148.355 163.046 149.259 163.004 150.277 162.956C167.305 162.147 169.377 175.539 168.104 174.269C166.68 172.85 154.097 173 152.824 180.615C149.986 176.978 149.352 175.421 147.73 177.442C146.108 179.463 144.448 183.832 145.183 188.231Z" fill="#393939"/>
<path d="M339.352 425.594L336.343 414.541L348.38 410.715L348.81 424.744L339.352 425.594Z" fill="#B88B60"/>
<path d="M349.168 423.152C346.769 424.173 341.172 424.428 338.673 424.428H338.299L337.549 435.056H367.159C372.857 435.056 370.033 432.222 367.909 430.805C362.512 430.805 353.166 425.703 349.168 423.152Z" fill="#1D104A"/>
<path d="M297.006 425.594L300.015 414.541L287.978 410.715L287.548 424.744L297.006 425.594Z" fill="#B88B60"/>
<path d="M287.188 423.152C289.587 424.173 295.184 424.428 297.683 424.428H298.058L298.807 435.056H269.197C263.5 435.056 266.323 432.222 268.447 430.805C273.845 430.805 283.19 425.703 287.188 423.152Z" fill="#1D104A"/>
<path d="M302.065 175.523L303.51 171.004L305.838 166.892C307.04 166.143 311.631 165.023 320.371 166.535C329.111 168.047 323.267 184.528 319.285 192.757L318.665 202.645C312.796 205.95 306.921 203.402 307.086 200.766L307.439 195.132C305.699 195.523 303.41 195.941 302.154 195.694C300.023 195.275 301.202 192.512 302.059 191.183C301.46 190.873 301.261 190.116 301.614 189.492L301.65 189.427L301.059 188.928C300.78 188.693 300.688 188.299 300.827 187.938C301.074 187.295 300.829 186.6 300.25 186.299L299.271 185.792C298.796 185.545 298.683 184.914 299.034 184.463L301.607 181.158C302.079 180.552 302.234 179.771 302.021 179.075C301.673 177.94 301.688 176.701 302.065 175.523Z" fill="#F3AEAE"/>
<path d="M315.97 192.155L317.32 194.324C317.71 194.951 318.662 194.873 319.039 194.184L324.386 184.396C325.805 181.799 327.001 179.028 327.017 176.157C327.045 171.267 325.35 165.128 318.689 162.922C307.555 159.236 304.065 165.392 303.624 165.337C303.271 165.293 302.837 164.41 302.664 163.975C302.482 164.296 302.438 165.3 302.438 165.762C301.683 165.094 302.304 163.499 302.708 162.786C297.108 168.888 299.44 172.346 301.306 173.312C303.358 172.932 307.667 172.589 308.484 174.258C309.505 176.344 308.897 176.029 311.179 177.557C313.005 178.779 311.784 183.525 310.945 185.745L309.655 188.02L312.771 186.69C313.278 183.352 315.725 181.757 316.885 181.377C319.842 181.938 317.507 188.796 315.97 192.155Z" fill="#393939"/>
<path d="M307.97 196.036L304.101 197.322L299.802 264.597H324.737V196.036H320.008L319.93 197.281C319.732 200.435 317.116 202.892 313.956 202.892C310.65 202.892 307.97 200.212 307.97 196.907V196.036Z" fill="white"/>
<path d="M264.499 188.937C258.468 190.472 259.428 200.724 261.027 205.658L267.559 205.892C265.7 202.386 271.765 196.253 269.631 195.423C267.986 194.783 268.059 196.154 266.975 198.052C265.724 196.874 265.403 192.651 265.609 190.034C265.66 189.381 265.133 188.776 264.499 188.937Z" fill="#EA8F72"/>
<path d="M306.782 242.18C306.711 248.382 316.893 250.11 322.088 249.848L324.004 243.62C320.126 244.502 315.752 237.076 314.395 238.915C313.35 240.333 314.697 240.618 316.256 242.153C314.789 243.052 310.61 242.267 308.128 241.391C307.511 241.174 306.789 241.526 306.782 242.18Z" fill="#EA8F72"/>
<path d="M337.203 264.167H289.054L285.615 422.285H300.232L309.69 307.017L335.054 422.285H350.53L337.203 264.167Z" fill="#333333"/>
<path d="M299.372 295.876L304.101 197.32L302.382 197.749C301.522 198.177 301.608 198.092 291.634 201.177C281.66 204.262 275.441 222.745 273.578 231.601L267.99 205.462H260.681L262.417 243.174C262.648 248.207 266.797 252.169 271.835 252.169C275.518 252.169 278.863 250.025 280.401 246.679L287.335 231.601C283.896 251.74 276.931 292.791 276.588 295.876C276.244 298.961 291.634 297.162 299.372 295.876Z" fill="#7873D7"/>
<mask id="mask3" style="mask-type:alpha" maskUnits="userSpaceOnUse" x="260" y="197" width="45" height="101">
<path d="M299.372 295.876L304.101 197.32L302.382 197.749C301.522 198.177 301.608 198.092 291.634 201.177C281.66 204.262 275.441 222.745 273.578 231.601L267.99 205.462H260.681L262.417 243.174C262.648 248.207 266.797 252.169 271.835 252.169C275.518 252.169 278.863 250.025 280.401 246.679L287.335 231.601C283.896 251.74 276.931 292.791 276.588 295.876C276.244 298.961 291.634 297.162 299.372 295.876Z" fill="#DEECF9"/>
</mask>
<g mask="url(#mask3)">
<ellipse cx="270.999" cy="256.454" rx="10.3176" ry="10.2841" fill="#BFCEE1" fill-opacity="0.3"/>
<line y1="-0.5" x2="102.114" y2="-0.5" transform="matrix(-0.0505207 0.998723 -0.99874 -0.0501923 301.95 196.463)" stroke="#6762D1"/>
<path d="M273.578 236.315L273.148 227.316V223.46L274.868 224.317L273.578 236.315Z" fill="#7D809D"/>
</g>
<path fill-rule="evenodd" clip-rule="evenodd" d="M350.1 210.177C347.348 205.377 332.044 198.464 324.736 195.607L323.318 243.453L321.726 243.171V250.027C322.158 250.165 322.62 250.313 323.11 250.469L321.726 297.163H346.661L342.925 256.704C347.495 258.119 351.777 259.424 354.829 260.311C363.083 262.711 364.573 254.455 364.287 250.027C360.704 238.743 352.851 214.976 350.1 210.177ZM340.212 227.317L348.81 249.599L340.642 247.456L340.212 227.317Z" fill="#7873D7"/>
<path d="M321.726 243.171V250.027L348.81 258.597L349.24 249.598L321.726 243.171Z" fill="url(#paint0_linear)"/>
<mask id="mask4" style="mask-type:alpha" maskUnits="userSpaceOnUse" x="321" y="195" width="44" height="103">
<path fill-rule="evenodd" clip-rule="evenodd" d="M350.1 210.177C347.348 205.377 332.044 198.464 324.736 195.607L323.318 243.457L321.726 243.171V250.027C322.158 250.165 322.62 250.313 323.11 250.469L321.726 297.163H346.661L342.925 256.704C347.495 258.119 351.777 259.424 354.829 260.311C363.083 262.711 364.573 254.455 364.287 250.027C360.704 238.743 352.851 214.976 350.1 210.177ZM340.213 227.317L347.951 247.885L341.933 245.314L340.213 227.317Z" fill="#7873D7"/>
</mask>
<g mask="url(#mask4)">
<line x1="326.527" y1="193.893" x2="326.527" y2="244.456" stroke="#6762D1"/>
<path d="M326.421 251.804L326.421 297.121" stroke="#6762D1"/>
<ellipse cx="366.437" cy="259.883" rx="10.3176" ry="10.2841" fill="#BFCEE1" fill-opacity="0.3"/>
<path d="M351.818 251.314L348.809 249.6L348.379 248.314L351.818 251.314Z" fill="#7D809D"/>
</g>
<line y1="-3.5" x2="117.482" y2="-3.5" transform="matrix(-0.12822 0.991746 -0.993605 -0.112914 417.457 317.583)" stroke="#47484A" stroke-width="7"/>
<line y1="-3.5" x2="117.482" y2="-3.5" transform="matrix(-0.12822 0.991746 -0.993605 -0.112914 348.417 317.583)" stroke="#47484A" stroke-width="7"/>
<path d="M433.604 229.857C433.225 226.858 430.674 224.609 427.651 224.609H352.713C349.101 224.609 346.307 227.778 346.76 231.361L360.308 338.619C360.687 341.618 363.238 343.867 366.261 343.867H441.199C444.811 343.867 447.604 340.699 447.152 337.115L433.604 229.857Z" fill="#47484A"/>
<line y1="-3.5" x2="117.482" y2="-3.5" transform="matrix(0.12822 0.991746 0.993605 -0.112914 363.9 317.583)" stroke="#47484A" stroke-width="7"/>
<line y1="-3.5" x2="117.482" y2="-3.5" transform="matrix(0.12822 0.991746 0.993605 -0.112914 432.941 317.583)" stroke="#47484A" stroke-width="7"/>
<path d="M432.632 230.904C432.8 227.479 430.068 224.609 426.639 224.609H351.62C348.421 224.609 345.784 227.12 345.627 230.315L340.358 337.573C340.19 340.998 342.922 343.867 346.351 343.867H421.371C424.57 343.867 427.206 341.357 427.363 338.162L432.632 230.904Z" fill="#47484A"/>
<path d="M430.958 232.866C431.126 229.441 428.394 226.571 424.965 226.571H353.082C349.883 226.571 347.246 229.081 347.089 232.277L342.032 335.22C341.863 338.645 344.595 341.514 348.024 341.514H419.907C423.107 341.514 425.743 339.004 425.9 335.808L430.958 232.866Z" fill="#A6A6A6"/>
<path d="M363.704 324.5L372.158 312.868L378.292 320.013L364.201 328.488L363.704 324.5Z" fill="#D9142B"/>
<path fill-rule="evenodd" clip-rule="evenodd" d="M362.736 332.476H364.254C365.176 330.888 367.019 326.626 367.019 322.281C367.019 317.937 364.127 314.417 362.682 313.2V313.201C361.236 314.417 358.399 317.937 358.399 322.282C358.399 326.627 360.242 330.888 361.164 332.476H362.736L362.736 332.476Z" fill="#FF455B"/>
<mask id="mask5" style="mask-type:alpha" maskUnits="userSpaceOnUse" x="358" y="313" width="10" height="20">
<path fill-rule="evenodd" clip-rule="evenodd" d="M362.736 332.476H364.254C365.176 330.888 367.019 326.626 367.019 322.281C367.019 317.937 364.127 314.417 362.682 313.2V313.201C361.236 314.417 358.399 317.937 358.399 322.282C358.399 326.627 360.242 330.888 361.164 332.476H362.736L362.736 332.476Z" fill="#D75720"/>
</mask>
<g mask="url(#mask5)">
<rect x="357.073" y="319.183" width="11.6043" height="9.97009" fill="#FFD262"/>
<rect x="349.115" y="319.183" width="27.5188" height="0.66468" fill="#382FAC"/>
<rect x="349.115" y="328.82" width="27.5188" height="0.664673" fill="#382FAC"/>
</g>
<path d="M397.19 324.5L388.735 312.868L382.602 320.013L396.692 328.488L397.19 324.5Z" fill="#D9142B"/>
<path fill-rule="evenodd" clip-rule="evenodd" d="M398.158 332.476H396.64C395.718 330.888 393.875 326.626 393.875 322.281C393.875 317.937 396.766 314.417 398.212 313.2V313.2C399.658 314.417 402.495 317.937 402.495 322.282C402.495 326.626 400.652 330.888 399.73 332.476H398.158L398.158 332.476Z" fill="#FF455B"/>
<mask id="mask6" style="mask-type:alpha" maskUnits="userSpaceOnUse" x="393" y="313" width="10" height="20">
<path fill-rule="evenodd" clip-rule="evenodd" d="M398.158 332.476H396.64C395.718 330.888 393.875 326.626 393.875 322.281C393.875 317.937 396.766 314.417 398.212 313.2V313.2C399.658 314.417 402.495 317.937 402.495 322.282C402.495 326.626 400.652 330.888 399.73 332.476H398.158L398.158 332.476Z" fill="#D75720"/>
</mask>
<g mask="url(#mask6)">
<rect width="11.6043" height="9.97009" transform="matrix(-1 0 0 1 403.821 319.183)" fill="#FEB261"/>
<rect width="27.5188" height="0.66468" transform="matrix(-1 0 0 1 411.778 319.183)" fill="#382FAC"/>
<rect width="27.5188" height="0.664673" transform="matrix(-1 0 0 1 411.778 328.82)" fill="#382FAC"/>
</g>
<path fill-rule="evenodd" clip-rule="evenodd" d="M380.281 325.664H375.64C372.821 319.737 367.185 303.829 367.185 287.611C367.185 271.393 375.86 258.255 380.281 253.713V253.713C380.281 253.713 380.281 253.713 380.281 253.713C380.281 253.713 380.281 253.713 380.281 253.713L380.281 253.713C384.702 258.255 393.543 271.393 393.543 287.611C393.543 303.829 387.907 319.737 385.089 325.664H380.447H380.281Z" fill="#FFD262"/>
<path d="M385.088 325.664H380.281V253.713C384.702 258.255 393.543 271.393 393.543 287.611C393.543 303.829 387.907 319.737 385.088 325.664Z" fill="#FEB261"/>
<mask id="mask7" style="mask-type:alpha" maskUnits="userSpaceOnUse" x="367" y="253" width="27" height="73">
<path fill-rule="evenodd" clip-rule="evenodd" d="M380.281 325.664H375.64C372.821 319.737 367.185 303.829 367.185 287.611C367.185 271.393 375.86 258.255 380.281 253.713V253.713C380.281 253.713 380.281 253.713 380.281 253.713C380.281 253.713 380.281 253.713 380.281 253.713L380.281 253.713C384.702 258.255 393.543 271.393 393.543 287.611C393.543 303.829 387.907 319.737 385.089 325.664H380.447H380.281Z" fill="#FEFFFB"/>
</mask>
<g mask="url(#mask7)">
<rect x="367.02" y="251.387" width="27.5188" height="19.6078" fill="#FF455B"/>
<rect x="366.687" y="270.662" width="27.5188" height="1.99402" fill="#382FAC"/>
<rect x="366.687" y="324.168" width="27.5188" height="1.99402" fill="#382FAC"/>
</g>
<mask id="mask8" style="mask-type:alpha" maskUnits="userSpaceOnUse" x="367" y="253" width="27" height="73">
<path fill-rule="evenodd" clip-rule="evenodd" d="M380.281 325.664H375.64C372.821 319.737 367.185 303.829 367.185 287.611C367.185 271.393 375.86 258.255 380.281 253.713V253.713C380.281 253.713 380.281 253.713 380.281 253.713C380.281 253.713 380.281 253.713 380.281 253.713L380.281 253.713C384.702 258.255 393.543 271.393 393.543 287.611C393.543 303.829 387.907 319.737 385.089 325.664H380.447H380.281Z" fill="#FEFFFB"/>
</mask>
<g mask="url(#mask8)">
<ellipse cx="380.281" cy="282.294" rx="7.29414" ry="7.31139" fill="#363636"/>
<mask id="mask9" style="mask-type:alpha" maskUnits="userSpaceOnUse" x="372" y="274" width="16" height="16">
<ellipse cx="380.281" cy="282.294" rx="7.29414" ry="7.31139" fill="white" fill-opacity="0.2"/>
</mask>
<g mask="url(#mask9)">
<path d="M383.442 269.255L386.724 272.545L371.528 287.777L368.246 284.487L383.442 269.255Z" fill="white" fill-opacity="0.2"/>
<path d="M390.371 274.007L373.838 290.58L374.81 292.042L391.587 275.226L390.371 274.007Z" fill="white" fill-opacity="0.2"/>
<path d="M392.316 276.932L376.391 292.895L379.673 296.429L395.72 280.344L392.316 276.932Z" fill="white" fill-opacity="0.2"/>
</g>
</g>
<rect width="30.964" height="5.09985" rx="2.54992" transform="matrix(-1 0 0 1 404.488 223.825)" fill="#47484A"/>
<ellipse rx="1.67373" ry="1.56918" transform="matrix(-1 0 0 1 400.303 226.571)" fill="white"/>
<ellipse rx="1.67373" ry="1.56918" transform="matrix(-1 0 0 1 377.29 226.571)" fill="white"/>
<path d="M381.055 253.444V240.891H367.247" stroke="white" stroke-dasharray="6 6"/>
<path d="M394.025 285.807H413.273V257.758" stroke="white" stroke-dasharray="6 6"/>
<path d="M360.344 326.998H354.068V296.007" stroke="white" stroke-dasharray="6 6"/>
<rect width="14.6451" height="0.392296" transform="matrix(-1 0 0 1 364.317 245.793)" fill="white"/>
<rect width="14.2267" height="1.96148" transform="matrix(-1 0 0 1 364.315 239.909)" fill="white"/>
<rect width="14.2267" height="0.392296" transform="matrix(-1 0 0 1 364.315 242.655)" fill="white"/>
<rect width="14.2267" height="0.392296" transform="matrix(-1 0 0 1 364.315 243.438)" fill="white"/>
<rect width="10.8792" height="0.392296" transform="matrix(-1 0 0 1 364.315 244.224)" fill="white"/>
<rect width="12.1345" height="0.392296" transform="matrix(-1 0 0 1 364.315 245.008)" fill="white"/>
<rect width="7.53177" height="0.392296" transform="matrix(-1 0 0 1 364.315 246.578)" fill="white"/>
<rect width="11.2977" height="0.392296" transform="matrix(-1 0 0 1 364.315 247.361)" fill="white"/>
<rect x="404.487" y="247.756" width="14.2267" height="1.96148" fill="white"/>
<rect x="404.488" y="250.502" width="14.2267" height="0.392296" fill="white"/>
<rect x="404.488" y="251.286" width="14.2267" height="0.392296" fill="white"/>
<rect x="404.488" y="252.071" width="10.8792" height="0.392296" fill="white"/>
<rect x="404.488" y="252.856" width="12.1345" height="0.392296" fill="white"/>
<rect x="404.488" y="254.424" width="7.53177" height="0.392296" fill="white"/>
<rect x="404.488" y="255.209" width="11.2977" height="0.392296" fill="white"/>
<rect x="348.418" y="285.808" width="14.2267" height="1.96148" fill="white"/>
<rect x="348.418" y="288.554" width="14.2267" height="0.392296" fill="white"/>
<rect x="348.418" y="289.338" width="14.2267" height="0.392296" fill="white"/>
<rect x="348.418" y="290.123" width="10.8792" height="0.392296" fill="white"/>
<rect x="348.418" y="290.907" width="12.1345" height="0.392296" fill="white"/>
<rect x="348.418" y="292.477" width="7.53177" height="0.392296" fill="white"/>
<rect x="348.418" y="293.261" width="11.2977" height="0.392296" fill="white"/>
<g opacity="0.5">
<path fill-rule="evenodd" clip-rule="evenodd" d="M193.818 66.4592C196.841 55.8476 206.636 48.0752 218.251 48.0752C230.584 48.0752 240.864 56.8377 243.166 68.4576C245.27 67.7376 247.527 67.3467 249.875 67.3467C261.277 67.3467 270.52 76.5599 270.52 87.9249C270.52 97.6398 263.767 105.782 254.684 107.942C253.65 108.305 252.539 108.502 251.381 108.502H250.048C249.991 108.503 249.933 108.503 249.875 108.503C249.817 108.503 249.76 108.503 249.702 108.502H164.147C158.645 108.502 154.184 104.042 154.184 98.54C154.184 93.0378 158.645 88.5775 164.147 88.5775H169.925C169.491 87.0182 169.259 85.3751 169.259 83.6781C169.259 73.5758 177.475 65.3863 187.61 65.3863C189.789 65.3863 191.879 65.7647 193.818 66.4592Z" fill="#E1E4FE"/>
<path fill-rule="evenodd" clip-rule="evenodd" d="M219.808 77.5624C222.832 66.9509 232.627 59.1787 244.242 59.1787C256.575 59.1787 266.855 67.9411 269.157 79.5608C271.26 78.841 273.517 78.4502 275.865 78.4502C287.267 78.4502 296.51 87.6634 296.51 99.0284C296.51 108.743 289.757 116.886 280.674 119.046C279.64 119.409 278.529 119.606 277.371 119.606H276.038C275.981 119.606 275.923 119.607 275.865 119.607C275.807 119.607 275.75 119.606 275.692 119.606H190.137C184.635 119.606 180.175 115.146 180.175 109.643C180.175 104.141 184.635 99.681 190.137 99.681H195.917C195.483 98.1217 195.251 96.4786 195.251 94.7816C195.251 84.6794 203.467 76.4899 213.602 76.4899C215.78 76.4899 217.87 76.8681 219.808 77.5624Z" fill="#EDEEF9"/>
</g>
<defs>
<filter id="filter0_d" x="404.111" y="206.257" width="177.925" height="65.9566" filterUnits="userSpaceOnUse" color-interpolation-filters="sRGB">
<feFlood flood-opacity="0" result="BackgroundImageFix"/>
<feColorMatrix in="SourceAlpha" type="matrix" values="0 0 0 0 0 0 0 0 0 0 0 0 0 0 0 0 0 0 127 0" result="hardAlpha"/>
<feOffset dy="4"/>
<feGaussianBlur stdDeviation="4"/>
<feColorMatrix type="matrix" values="0 0 0 0 0 0 0 0 0 0 0 0 0 0 0 0 0 0 0.1 0"/>
<feBlend mode="normal" in2="BackgroundImageFix" result="effect1_dropShadow"/>
<feBlend mode="normal" in="SourceGraphic" in2="effect1_dropShadow" result="shape"/>
</filter>
<filter id="filter1_d" x="378.331" y="252.141" width="272.975" height="96.6364" filterUnits="userSpaceOnUse" color-interpolation-filters="sRGB">
<feFlood flood-opacity="0" result="BackgroundImageFix"/>
<feColorMatrix in="SourceAlpha" type="matrix" values="0 0 0 0 0 0 0 0 0 0 0 0 0 0 0 0 0 0 127 0" result="hardAlpha"/>
<feOffset dy="4"/>
<feGaussianBlur stdDeviation="4"/>
<feColorMatrix type="matrix" values="0 0 0 0 0 0 0 0 0 0 0 0 0 0 0 0 0 0 0.37 0"/>
<feBlend mode="normal" in2="BackgroundImageFix" result="effect1_dropShadow"/>
<feBlend mode="normal" in="SourceGraphic" in2="effect1_dropShadow" result="shape"/>
</filter>
<linearGradient id="paint0_linear" x1="322.156" y1="247.027" x2="350.517" y2="254.787" gradientUnits="userSpaceOnUse">
<stop stop-color="#7873D7"/>
<stop offset="1" stop-color="#D7E8F7" stop-opacity="0"/>
</linearGradient>
</defs>
</svg>
