<svg width="50" height="50" viewBox="0 0 50 50" fill="none" xmlns="http://www.w3.org/2000/svg">
<circle cx="25" cy="25" r="25" fill="#F2994A"/>
<path d="M25.5 10C17.5047 10 11 16.5047 11 24.5C11 32.4953 17.5047 39 25.5 39C33.4953 39 40 32.4953 40 24.5C40 16.5047 33.4953 10 25.5 10ZM25.5 36.1C19.1041 36.1 13.9 30.896 13.9 24.5C13.9 18.1041 19.1041 12.9 25.5 12.9C31.896 12.9 37.1 18.1041 37.1 24.5C37.1 30.896 31.896 36.1 25.5 36.1Z" fill="white"/>
<path d="M26.95 17.25H24.05V25.95H32.75V23.05H26.95V17.25Z" fill="white"/>
</svg>
