<?xml version="1.0" encoding="utf-8"?>
<!-- Generator: Adobe Illustrator 22.0.1, SVG Export Plug-In . SVG Version: 6.00 Build 0)  -->
<svg version="1.1" id="Layer_1" xmlns="http://www.w3.org/2000/svg" xmlns:xlink="http://www.w3.org/1999/xlink" x="0px" y="0px"
	 viewBox="0 0 1841 1315" style="enable-background:new 0 0 1841 1315;" xml:space="preserve">
<style type="text/css">
	.st0{fill:#EAEDFE;}
	.st1{fill:#D9DEFC;}
	.st2{opacity:0.2;}
	.st3{fill:#DCEDF4;}
	.st4{fill:#F0FAFC;}
	.st5{fill:#827F81;}
	.st6{fill:#919396;}
	.st7{fill:#6286DF;}
	.st8{fill:#0CFFC9;filter:url(#Adobe_OpacityMaskFilter);}
	.st9{mask:url(#mask0_1_);}
	.st10{fill:#6685EA;}
	.st11{fill:none;stroke:#20437E;}
	.st12{fill:#3160BF;}
	.st13{fill:#102A81;}
	.st14{fill:none;stroke:#3C5ECC;}
	.st15{fill:#4147C9;}
	.st16{fill:none;stroke:#919396;stroke-width:3;}
	.st17{fill:#655CB3;}
	.st18{fill:#585356;}
	.st19{fill:#9CBEE8;}
	.st20{fill:none;stroke:#2F4CAC;}
	.st21{fill:#2F4CAC;}
	.st22{fill:#EE9F86;}
	.st23{fill:#EA8F72;}
	.st24{fill:#FFA41A;}
	.st25{fill:#FFFFFF;}
	.st26{fill:#4A3EA2;}
	.st27{fill:#393939;}
	.st28{fill:#82B7FB;}
	.st29{fill:#3A5CA6;}
	.st30{fill:none;stroke:#3A5CA6;stroke-linecap:round;}
	.st31{fill:none;stroke:#3A5CA6;stroke-width:0.5;stroke-linecap:round;}
	.st32{fill:#5C88E0;}
	.st33{fill:#D9142B;}
	.st34{fill:#FF455B;}
	.st35{fill:#D75720;filter:url(#Adobe_OpacityMaskFilter_1_);}
	.st36{mask:url(#mask1_1_);}
	.st37{fill:#FFD262;}
	.st38{fill:#382FAC;}
	.st39{fill:#D75720;filter:url(#Adobe_OpacityMaskFilter_2_);}
	.st40{mask:url(#mask2_1_);}
	.st41{fill:#FEB261;}
	.st42{fill:#FEFFFB;filter:url(#Adobe_OpacityMaskFilter_3_);}
	.st43{mask:url(#mask4_1_);}
	.st44{fill:#363636;}
	.st45{fill:#FFFFFF;fill-opacity:0.2;filter:url(#Adobe_OpacityMaskFilter_4_);}
	.st46{mask:url(#mask5_1_);}
	.st47{fill:#FFFFFF;fill-opacity:0.2;}
	.st48{fill:#FFCDD6;}
	.st49{fill:#B1D7FF;}
	.st50{fill:#F8A11E;}
	.st51{fill:#EEABAB;}
	.st52{fill:#1D104A;}
	.st53{fill:#EDA9A9;}
	.st54{fill:#79C7CE;filter:url(#Adobe_OpacityMaskFilter_5_);}
	.st55{mask:url(#mask6_1_);}
	.st56{fill:#3B308D;}
	.st57{fill:#F3AEAE;}
	.st58{fill:#F39910;}
	.st59{fill:#EE9F86;filter:url(#Adobe_OpacityMaskFilter_6_);}
	.st60{mask:url(#mask7_1_);}
	.st61{fill:#E99494;}
	.st62{opacity:0.5;}
	.st63{fill:#F8AC47;}
	.st64{fill:#F8AC47;filter:url(#Adobe_OpacityMaskFilter_7_);}
	.st65{mask:url(#mask8_1_);}
	.st66{fill:#DE830B;}
	.st67{fill:#5A87DF;}
	.st68{fill:none;stroke:#52CEB1;}
	.st69{fill:#DC820A;}
	.st70{fill:#355EAF;}
	.st71{fill:#436DBF;}
	.st72{fill:none;stroke:#204388;stroke-linecap:round;stroke-linejoin:round;}
	.st73{fill:#A1B9E4;}
	.st74{fill:#204B7E;}
	.st75{fill:#A7BDE5;}
	.st76{fill:#1A4374;}
	.st77{fill:#3769A5;}
	.st78{fill:#231F20;}
	.st79{fill:#C6C3FC;}
	.st80{fill:#274C97;}
	.st81{fill:#395BCC;}
	.st82{fill:#5DB3BB;}
	.st83{fill:#79C7CE;}
	.st84{fill:#FC7383;}
	.st85{fill:#F5AA45;filter:url(#Adobe_OpacityMaskFilter_8_);}
	.st86{mask:url(#mask9_1_);}
	.st87{fill:#B1C9E5;}
	.st88{fill:none;stroke:#436BAC;}
	.st89{fill:none;stroke:#1F4FAB;}
	.st90{fill:none;stroke:#1E3E75;stroke-width:2;stroke-linejoin:round;}
	.st91{fill:#F5AA45;}
	.st92{fill:#FFD193;}
	.st93{fill:#585451;}
	.st94{fill:#FFDF02;}
	.st95{fill:#FFDF02;filter:url(#Adobe_OpacityMaskFilter_9_);}
	.st96{mask:url(#mask11_1_);}
	.st97{fill:#FFC800;}
	.st98{fill:#FFFFFF;fill-opacity:0.8;}
	.st99{fill:#EF937E;}
	.st100{fill:#163A49;}
	.st101{fill:#143441;}
	.st102{fill:#6C66D8;}
	.st103{fill:#7873D7;}
	.st104{fill:#FFDF02;filter:url(#Adobe_OpacityMaskFilter_10_);}
	.st105{mask:url(#mask12_1_);}
	.st106{fill:#FFDF02;filter:url(#Adobe_OpacityMaskFilter_11_);}
	.st107{mask:url(#mask13_1_);}
	.st108{fill:#F5AA45;filter:url(#Adobe_OpacityMaskFilter_12_);}
	.st109{mask:url(#mask10_1_);}
	.st110{fill:#C77E1C;}
	.st111{clip-path:url(#SVGID_2_);}
	.st112{clip-path:url(#SVGID_2_);fill:#382FAC;}
</style>
<path class="st0" d="M544,1309.5c600.9,0,965.6-34,1016-145.8c163.3-276.6-45.4-542.1-163.3-746C1278.8,213.7,940,40.5,834.1,289.1
	c-105.9,248.7-79.6,135.2-210,248.9C484.9,659.4,546.8,881.5,416.8,848c-130.1-33.5-151.2-111.8-272.2-55.9
	C23.6,848-121.7,1309.5,544,1309.5z"/>
<path class="st1" d="M177,1294.4V1071h188v-58h44.2v-52.7h62.7v52.7h55.3v281.4h99.5V891.7h40.5V733.5h140.1v158.2h40.5v242.6H881
	v-174h33.2V839h33.2v121.3h29.5v237.3h36.9V960.3c0-105.5,21.4-316.4,106.9-316.4v553.7h99.5V891.7h70v305.8h88.5V712.4h176.9v485.1
	v96.8H965.2H626.7h-99.5H177z"/>
<g class="st2">
	<path class="st3" d="M1305,60c7.1-25.1,30.2-43.5,57.6-43.5c29.1,0,53.3,20.7,58.7,48.2c5-1.7,10.3-2.6,15.8-2.6
		c26.9,0,48.7,21.8,48.7,48.7c0,23-16,42.3-37.5,47.4c-2.4,0.8-5,1.3-7.7,1.3h-205.4c-13,0-23.6-10.5-23.6-23.6
		c0-13,10.6-23.6,23.6-23.6h13.5c-1-3.7-1.6-7.6-1.6-11.6c0-23.9,19.4-43.2,43.3-43.2C1295.5,57.5,1300.5,58.3,1305,60z"/>
	<path class="st4" d="M1366.3,86.2c7.1-25.1,30.2-43.5,57.6-43.5c29.1,0,53.3,20.7,58.7,48.2c5-1.7,10.3-2.6,15.8-2.6
		c26.9,0,48.7,21.8,48.7,48.7c0,23-16,42.3-37.5,47.4c-2.4,0.8-5,1.3-7.7,1.3h-205.4c-13,0-23.6-10.5-23.6-23.6
		c0-13,10.5-23.6,23.6-23.6h13.5c-1-3.7-1.6-7.6-1.6-11.6c0-23.9,19.4-43.2,43.3-43.2C1356.8,83.7,1361.7,84.6,1366.3,86.2z"/>
</g>
<rect x="1568.9" y="529.2" class="st5" width="16.8" height="560.9"/>
<path class="st6" d="M1567.2,475.1h20.2c1.1,0,2,0.9,2,2v50c0,1.1-0.9,2-2,2h-20.2c-1.1,0-2-0.9-2-2v-50
	C1565.2,476,1566.1,475.1,1567.2,475.1z"/>
<path class="st7" d="M998.8,1259.9c10.5,19.2-81.1,31.3-128.3,34.9c-12.3-64.2-32-188.9-12.3-174.5c24.6,18,20.2,15,27.2,25.9
	c7,11,2.6-39.9,6.1-56.8c3.5-17,2.6-30.9,11.4-36.9c8.8-6,18.8,45,26.7,50c7.9,5,32.1-66.9,51.4-77.9c15.5-8.8,15.2,0.3,13.2,6
	c-3.8,14.6-18.2,68.7-9,73.5c11.4,6,48.6-52.6,74.9-55.6c21.1-2.4,18.2,13.6,14.1,21.9c-12.3,15.3-37.6,47.9-40.4,55.9
	c-3.5,10,4.4-1,31.6,5c21.8,4.8,12.6,15.3,5.3,19.9c-23.1,8.3-69.2,26.7-68.5,33.9c0.9,9,34.3,4,46.6,6c9.8,1.6,5.8,10,2.6,14
	c-40.4,9.6-114.9,30.5-89.6,36.9S997.1,1256.6,998.8,1259.9z"/>
<defs>
	<filter id="Adobe_OpacityMaskFilter" filterUnits="userSpaceOnUse" x="903.3" y="944" width="332.3" height="378.7">
		<feColorMatrix  type="matrix" values="1 0 0 0 0  0 1 0 0 0  0 0 1 0 0  0 0 0 1 0"/>
	</filter>
</defs>
<mask maskUnits="userSpaceOnUse" x="903.3" y="944" width="332.3" height="378.7" id="mask0_1_">
	<path class="st8" d="M1010.1,1249.9c10.5,19.2-81.1,31.3-128.3,34.9c-12.3-64.2-32-188.9-12.3-174.5c24.6,18,20.2,15,27.2,25.9
		c7,11,2.6-39.9,6.2-56.8c3.5-17,2.6-30.9,11.4-36.9c8.8-6,18.8,45,26.7,50c7.9,5,32.1-66.9,51.4-77.9c15.5-8.8,15.2,0.3,13.2,6
		c-3.8,14.6-18.2,68.7-9,73.5c11.4,6,48.6-52.6,74.9-55.6c21.1-2.4,18.2,13.6,14.1,21.9c-12.3,15.3-37.6,47.9-40.4,55.9
		c-3.5,10,4.4-1,31.6,5c21.8,4.8,12.6,15.3,5.3,19.9c-23.1,8.3-69.2,26.7-68.5,33.9c0.9,9,34.3,4,46.6,6c9.8,1.6,5.9,10,2.6,14
		c-40.4,9.6-114.9,30.5-89.6,36.9S1008.4,1246.6,1010.1,1249.9z"/>
</mask>
<g class="st9">
	<ellipse class="st10" cx="1069.5" cy="1133.3" rx="166.2" ry="189.4"/>
</g>
<path class="st11" d="M870.1,1294.8c38-62.3,130.1-196.5,194.5-235.1"/>
<path class="st12" d="M975,1264.8c-22.8,7.6-71.6,11.1-93.1,11.9l3.5-5.5C888.1,1276.2,946.3,1269,975,1264.8z"/>
<path class="st12" d="M857.5,1128.6c4.6,34,24.8,102.1,34.4,131.9l3.9-6.1C890.3,1252.5,867.7,1169.5,857.5,1128.6z"/>
<path class="st12" d="M901.7,1066.8c4.6,34,24.1,101.6,33.6,131.4l4.2-6.3C934.1,1190,911.9,1107.7,901.7,1066.8z"/>
<path class="st12" d="M942.5,1187.1l-0.2,0.9l6.3-7.9c-3.5-5.8,20.3-106.1,33-154.6C967.9,1062.7,950.1,1149.8,942.5,1187.1z"/>
<path class="st12" d="M1026.4,1198.3c-24.2,7.6-77.2,11.1-100,11.9l4.1-6.3C933.4,1208.9,995.9,1202.5,1026.4,1198.3z"/>
<path class="st12" d="M1069.5,1142.8c-24.2,7.6-77.9,10.3-100.7,11.1l4.8-5.6C976.4,1153.4,1039,1147.1,1069.5,1142.8z"/>
<rect x="1207.2" y="533.8" class="st5" width="21.6" height="626.2"/>
<path class="st6" d="M1207.6,480.7h20.2c1.1,0,2,0.9,2,2v50c0,1.1-0.9,2-2,2h-20.2c-1.1,0-2-0.9-2-2v-50
	C1205.6,481.6,1206.5,480.7,1207.6,480.7z"/>
<path class="st13" d="M916.1,1257.5c-0.7,15.8-46.6,31.1-69.4,36.8h-18.2c-78.5-49-33.1-121.5-29.8-131
	c3.3-9.4,67.8-108.4,100.9-96.1c33.1,12.3,0,58.4,0,66s9.9,28.2,16.5,40.4c6.6,12.2-16.5,29.3-16.5,43.4S916.9,1237.7,916.1,1257.5z
	"/>
<path class="st14" d="M830.5,1294.4c0.9-9.1,2.3-21.4,4.5-35.8 M875.9,1097.5c-10.3,24.9-18.7,53.3-25.5,81 M850.5,1178.6
	l-11.8-39.6 M850.5,1178.6c-7,28.9-12.1,57.1-15.5,80.1 M850.5,1178.6l-15.5,80.1 M835,1258.6l36-30.2"/>
<path class="st15" d="M88.9,1294.2h1639c5.9,0,10.6,4.8,10.6,10.6v0c0,5.9-4.8,10.6-10.6,10.6H88.9c-5.9,0-10.6-4.8-10.6-10.6v0
	C78.3,1298.9,83,1294.2,88.9,1294.2z"/>
<rect x="1110.9" y="357.4" class="st16" width="154.6" height="120"/>
<path class="st6" d="M1103.7,482.4c-0.6,0.5-0.8,1.5-0.2,2.1c0.5,0.6,1.5,0.8,2.1,0.2L1103.7,482.4z M1270,350.1l-166.3,132.3
	l1.9,2.3l166.3-132.3L1270,350.1z"/>
<path class="st6" d="M1300.8,485.1c-0.7,0.5-0.8,1.4-0.3,2.1c0.5,0.7,1.4,0.8,2.1,0.3L1300.8,485.1z M1477.6,348.2l-176.9,137
	l1.8,2.4l176.9-137L1477.6,348.2z"/>
<path class="st6" d="M1504.5,487c-0.7,0.5-0.8,1.5-0.2,2.1c0.5,0.6,1.5,0.8,2.1,0.2L1504.5,487z M1676.6,350.1l-172.1,137l1.9,2.3
	l172.1-137L1676.6,350.1z"/>
<rect x="1312.8" y="357.4" class="st16" width="154.6" height="120"/>
<rect x="1514.6" y="357.4" class="st16" width="154.6" height="120"/>
<rect x="1024.8" y="344.7" class="st17" width="667.1" height="14.9"/>
<rect x="1024.8" y="475.1" class="st18" width="667.1" height="14.9"/>
<path class="st19" d="M1768.8,1263.4c9.3,17-71.9,27.7-113.6,30.9c-10.9-56.8-28.3-167.3-10.9-154.6c21.8,15.9,17.9,13.3,24.1,23
	c6.2,9.7,2.3-35.3,5.4-50.4c3.1-15,2.3-27.4,10.1-32.7c7.8-5.3,16.7,39.9,23.7,44.3c7,4.4,28.4-59.3,45.6-69
	c13.7-7.8,13.5,0.3,11.7,5.3c-3.4,13-16.1,60.9-8,65.1c10.1,5.3,43-46.6,66.4-49.2c18.7-2.1,16.1,12.1,12.5,19.4
	c-10.9,13.5-33.3,42.4-35.8,49.5c-3.1,8.8,3.9-0.9,28,4.4c19.3,4.2,11.2,13.5,4.7,17.7c-20.5,7.4-61.3,23.7-60.7,30
	c0.8,7.9,30.3,3.5,41.3,5.3c8.7,1.4,5.2,8.8,2.3,12.4c-35.8,8.5-101.8,27-79.4,32.7C1758.5,1253.2,1767.3,1260.5,1768.8,1263.4z"/>
<path class="st20" d="M1655.7,1293.3c33.7-55.2,115.2-174.1,172.3-208.3"/>
<path class="st21" d="M1748.7,1266.7c-20.2,6.7-63.4,9.8-82.5,10.5l3.1-4.9C1671.7,1276.8,1723.2,1270.4,1748.7,1266.7z"/>
<path class="st21" d="M1644.6,1146c4.1,30.1,22,90.5,30.4,116.9l3.4-5.4C1673.7,1255.8,1653.6,1182.3,1644.6,1146z"/>
<path class="st21" d="M1683.8,1091.3c4.1,30.1,21.3,90,29.8,116.4l3.7-5.6C1712.5,1200.4,1692.8,1127.6,1683.8,1091.3z"/>
<path class="st21" d="M1719.9,1197.9l-0.2,0.8l5.5-7c-3.1-5.2,17.9-94,29.3-137C1742.4,1087.7,1726.7,1164.8,1719.9,1197.9z"/>
<path class="st21" d="M1794.2,1207.8c-21.4,6.7-68.4,9.8-88.6,10.5l3.6-5.6C1711.8,1217.2,1767.2,1211.5,1794.2,1207.8z"/>
<path class="st21" d="M1832.4,1158.7c-21.4,6.7-69,9.1-89.2,9.8l4.2-4.9C1750,1168.1,1805.4,1162.4,1832.4,1158.7z"/>
<path class="st22" d="M956.2,131.6l-1.5-7.6v-7.6c1.1-2,6.4-6.9,19.5-11.2c13-4.3,18.1,23.9,19,38.6l4.6,16.4
	c-5.4,9-19.8,13.5-19.8,8.8c0-4.3,1-10,0-12.6c-2.1,1.8-4.2,3.2-6.1,3.8c-3.2,1-3.7-3.8-3.6-6.4c-1.1,0-1.9-0.9-1.9-1.9v-0.3
	l-1.1-0.3c-0.6-0.1-1.1-0.6-1.1-1.2c-0.2-1.1-1.1-1.9-2.2-1.9h-2c-0.6,0-1.1-0.5-1-1.1l1.1-7.3c0.2-1.2-0.2-2.3-1-3.1
	C957.5,135.3,956.6,133.5,956.2,131.6z"/>
<path class="st23" d="M942.4,240.4l-1.4,6l-12.8,54.4l12.7,1.8c4.8-22.1,12.8-41.1,19-53.4c2.9-5.7-0.1-13.3-6.3-15.2
	C948.5,232.4,943.6,235.3,942.4,240.4z"/>
<path class="st24" d="M942.6,237.8c10.1-50.3,27.4-72.1,32.7-77.3c0,0.7,1.1,5.2,2.9,11.1c1.9,6.5,18.4,75.1,27,110.7l-33.9,2
	l0.6-60.9l-9.8,21.6L942.6,237.8z"/>
<path class="st25" d="M978,163.7c11.5,12.6,14.6,0.1,18.6-8.4c0-0.1,0,0,5.2-3.9c0.4-0.3,45.9,106.8,39.6,112.7
	c-5.1,4.7-35.4,2.5-50,2.5c-3-28.3-16.1-106-16.1-106C976,160.6,977,162.6,978,163.7z"/>
<path class="st26" d="M1041.6,439.1l10.7-181.7l-60.9,9.2l-45.9,123.7h31l41.9-105.4v105.4L1041.6,439.1z"/>
<path class="st24" d="M1043.7,184.8c-6.4-28.8-30.4-34.3-41.9-33.5c16.1,18.3,26.6,90.8,29.9,126.4l34.4-20.3
	C1061.3,245.3,1050.1,213.6,1043.7,184.8z"/>
<path class="st24" d="M1000.6,228.7c10.6-31.9,5.5-64.9,1.1-77.3l1.7,2c23.9,19.4,29.5,38.7,29.9,45.9
	C1039.1,270.6,987.4,268.6,1000.6,228.7z"/>
<path class="st22" d="M954.7,243c-9-0.7-27.5,3.1-27.3,15.2c0,0.7,0.7,1,1.3,0.8c4.2-1.6,12.2-3.2,14.7-1.4
	c-0.7,0.7-1.5,1.3-2.1,1.7c-1.7,1.4-2.7,2.1-1.6,4c0.9,1.5,3.2-0.6,6.1-3.2c3.3-3,7.3-6.7,10.7-6.2l0.3,1.2
	c17.9-4.9,34.4-4.6,46.3-3.4c6.9,0.7,13.1-5.7,11.9-12.7c-0.9-5.4-6-8.6-11.2-7.3l-3.9,1L955,244L954.7,243z"/>
<path class="st23" d="M915.3,311.7c-6.6-7.7,12.4-3.4,15.8-18.3l10.3-0.4c-2.3,6.5,6,21.9,2.3,21.4c-2.8-0.4-1.4-2.9-9.8-5.2
	c-3.2,1-11.2,2.8-18,2.9C915.8,312,915.5,311.9,915.3,311.7z"/>
<path class="st27" d="M982.7,126.6c2.9,7.1,4.6,9.1,5.9,9.6c0.9,0.4,1.8,0.8,2.2,1.7l2.7,5.7c-1.4-11.5-2.4-22.2-4.7-31
	c-1.2-4.4-8-7.1-10.4-7.3c-6.9-5.4-13.6-0.5-16.5,2.1c-12.9,10.2-10.5,21.2-6.5,26.1c0.3,0.4,0.9,0.4,1.3,0
	c8.2-8.4,13.2-10.6,20.7-1.8c1,1.1,0.9-3.4,0.8-5.8c0-0.8,0.3-1.7,1.1-2C981,123.2,981.6,124.5,982.7,126.6z"/>
<path class="st28" d="M227.6,1078.2c5.7-49.8-21.6-48.1-37.7-40.4c-0.8,0.4-1.6-0.3-1.5-1.1c8.3-43.1,22.2-132.5,14.4-161.4
	c-7.6-28.2-38.7-13.4-55-1.4c-0.7,0.5-1.7-0.1-1.6-0.9c7.4-69.3,16.4-124.5-44.8-130.1c-48.9-4.5-53.5,77-49.6,119.7
	c0.1,0.7-0.6,1.2-1.3,1C4.7,851.4,9.3,890.6,17.4,912c12.4,46,33.1,134.7,17.3,121.2c-15.7-13.4-26.2-5.8-29.6-0.1
	c-0.1,0.1-0.1,0.2-0.1,0.3c-29.6,152,79.2,163.3,118.7,163.3C163.3,1196.6,220.2,1143,227.6,1078.2z"/>
<path class="st29" d="M101.5,804.9c3.6,109.8,3.3,365.4,0,490.3l22.3,5.6C116.3,1052.9,99,728.8,101.5,804.9z"/>
<path class="st30" d="M118.8,1168.4c23.9-18.8,74.2-64.8,84.1-98.6"/>
<path class="st30" d="M106.4,1143c-19.7-15-61.1-51.8-69.2-78.9"/>
<path class="st30" d="M111.4,990.9c22.5-17.2,69.8-59.3,79.1-90.2"/>
<path class="st30" d="M111.4,1030.3C97.3,1019.6,43,917.2,37.2,897.9"/>
<path class="st31" d="M175.7,1052.9c-0.8,18.8,6.4,53.5,42,42.3"/>
<path class="st31" d="M141.1,1092.3c-0.8,18.8,6.4,53.5,42,42.3"/>
<path class="st31" d="M146.1,906.3c-0.8,18.8,6.4,53.5,42,42.3"/>
<path class="st31" d="M81.7,945.8c0.7,14.3-5.3,40.7-34.6,32.1"/>
<path class="st31" d="M71.8,1069.8c0.7,14.3-5.3,40.7-34.6,32.1"/>
<path class="st32" d="M1183.7,1182.8c2.8-24-9.8-24.2-17.9-20.7c-0.8,0.3-1.7-0.3-1.5-1.2c4.2-22,10.9-65.6,7-79.9
	c-3.7-13.6-18.3-7.3-26.6-1.4c-0.7,0.5-1.7-0.1-1.6-1c3.7-34.2,7.7-61.3-22.6-64.1c-24.3-2.2-26.8,37.7-24.9,59.3
	c0,0.7-0.6,1.2-1.3,1.1c-22.3-5.6-20,13.8-15.9,24.4c6.2,23.1,16.6,67.5,8.7,60.8c-7.8-6.7-13.1-2.9-14.8-0.1
	c-0.1,0.1-0.1,0.2-0.1,0.3c-14.8,76.1,39.7,81.8,59.6,81.8C1151.5,1242.2,1180,1215.3,1183.7,1182.8z"/>
<path class="st29" d="M1120.5,1049.7c1.8,55.1,1.7,182.2,0,244.9l11.2-1C1127.9,1169.2,1119.2,1011.6,1120.5,1049.7z"/>
<path class="st30" d="M1129.2,1228c12-9.4,37.2-32.5,42.2-49.5"/>
<path class="st30" d="M1122.9,1215.3c-9.9-7.5-30.6-26-34.7-39.6"/>
<path class="st30" d="M1125.4,1139c11.3-8.6,35-29.7,39.7-45.2"/>
<path class="st30" d="M1125.4,1158.8c-7.1-5.4-34.3-56.7-37.2-66.4"/>
<path class="st31" d="M1157.7,1170.1c-0.4,9.4,3.2,26.8,21.1,21.2"/>
<path class="st31" d="M1140.3,1189.9c-0.4,9.4,3.2,26.8,21.1,21.2"/>
<path class="st31" d="M1142.8,1096.6c-0.4,9.4,3.2,26.8,21.1,21.2"/>
<path class="st31" d="M1110.5,1116.4c0.3,7.2-2.7,20.4-17.3,16.1"/>
<path class="st31" d="M1105.6,1178.6c0.3,7.2-2.7,20.4-17.3,16.1"/>
<path class="st28" d="M374.2,1241.7c1.1-9.9-3.4-10.8-7.1-9.8c-0.8,0.2-1.7-0.4-1.6-1.3c1.9-10.3,4.7-28.9,3-35.1
	c-1.5-5.6-7.1-3.7-11-1.3c-0.7,0.5-1.8-0.1-1.7-1c1.6-14.9,3-26.6-10.4-27.8c-10.7-1-12.1,16.2-11.4,26.1c0.1,0.7-0.6,1.3-1.3,1.1
	c-9.3-1.9-8.2,6.6-6.4,11.3c2.8,10.5,7.5,30.7,3.9,27.6c-3.5-3-5.8-1.4-6.7-0.1c-0.1,0.1-0.1,0.2-0.1,0.3c-6.6,34.5,18.1,37,27,37
	C359.5,1268.6,372.5,1256.4,374.2,1241.7z"/>
<path class="st29" d="M345.5,1179.5c0.8,25,0.8,83.1,0,111.6l5.1,1.3C348.8,1235.9,344.9,1162.2,345.5,1179.5z"/>
<path class="st30" d="M349.4,1262.2c5.4-4.3,16.9-14.8,19.1-22.4"/>
<path class="st30" d="M346.6,1256.4c-4.5-3.4-13.9-11.8-15.8-18"/>
<path class="st30" d="M347.7,1221.8c5.1-3.9,15.9-13.5,18-20.5"/>
<path class="st30" d="M347.7,1230.8c-3.2-2.4-15.6-25.7-16.9-30.1"/>
<path class="st31" d="M362.4,1235.9c-0.2,4.3,1.5,12.2,9.6,9.6"/>
<path class="st31" d="M354.5,1244.9c-0.2,4.3,1.5,12.2,9.6,9.6"/>
<path class="st31" d="M355.6,1202.6c-0.2,4.3,1.5,12.2,9.6,9.6"/>
<path class="st31" d="M340.9,1211.5c0.2,3.3-1.2,9.3-7.9,7.3"/>
<path class="st31" d="M338.7,1239.7c0.2,3.3-1.2,9.3-7.9,7.3"/>
<path class="st33" d="M732.1,1191L842,1040.3l79.7,92.6l-183.2,109.8L732.1,1191z"/>
<path class="st34" d="M719.5,1294.4h19.7c12-20.6,35.9-75.8,35.9-132.1c0-56.3-37.6-101.9-56.4-117.7v0.5l0-0.5
	c-18.8,15.8-55.7,61.4-55.7,117.7c0,56.3,24,111.5,35.9,132.1H719.5L719.5,1294.4z"/>
<defs>
	<filter id="Adobe_OpacityMaskFilter_1_" filterUnits="userSpaceOnUse" x="542.4" y="1122.1" width="357.8" height="133.5">
		<feColorMatrix  type="matrix" values="1 0 0 0 0  0 1 0 0 0  0 0 1 0 0  0 0 0 1 0"/>
	</filter>
</defs>
<mask maskUnits="userSpaceOnUse" x="542.4" y="1122.1" width="357.8" height="133.5" id="mask1_1_">
	<path class="st35" d="M719.5,1294.4h19.7c12-20.6,35.9-75.8,35.9-132.1c0-56.3-37.6-101.9-56.4-117.7v0.5l0-0.5
		c-18.8,15.8-55.7,61.4-55.7,117.7c0,56.3,24,111.5,35.9,132.1H719.5L719.5,1294.4z"/>
</mask>
<g class="st36">
	<rect x="645.9" y="1122.1" class="st37" width="150.9" height="129.2"/>
	<rect x="542.4" y="1122.1" class="st38" width="357.8" height="8.6"/>
	<rect x="542.4" y="1247" class="st38" width="357.8" height="8.6"/>
</g>
<path class="st33" d="M1167.4,1191l-109.9-150.7l-79.7,92.6l183.2,109.8L1167.4,1191z"/>
<path class="st34" d="M1180,1294.4h-19.7c-12-20.6-36-75.8-36-132.1c0-56.3,37.6-101.9,56.4-117.7v0.1v-0.1
	c18.8,15.8,55.7,61.4,55.7,117.7c0,56.3-24,111.5-36,132.1H1180L1180,1294.4z"/>
<defs>
	<filter id="Adobe_OpacityMaskFilter_2_" filterUnits="userSpaceOnUse" x="998.3" y="1122.1" width="357.8" height="133.5">
		<feColorMatrix  type="matrix" values="1 0 0 0 0  0 1 0 0 0  0 0 1 0 0  0 0 0 1 0"/>
	</filter>
</defs>
<mask maskUnits="userSpaceOnUse" x="998.3" y="1122.1" width="357.8" height="133.5" id="mask2_1_">
	<path class="st39" d="M1179,1294.4h-19.7c-12-20.6-36-75.8-36-132.1c0-56.3,37.6-101.9,56.4-117.7v0.1v-0.1
		c18.8,15.8,55.7,61.4,55.7,117.7c0,56.3-24,111.5-36,132.1H1179L1179,1294.4z"/>
</mask>
<g class="st40">
	<rect x="1101.8" y="1122.1" class="st41" width="150.9" height="129.2"/>
	<rect x="998.3" y="1122.1" class="st38" width="357.8" height="8.6"/>
	<rect x="998.3" y="1247" class="st38" width="357.8" height="8.6"/>
</g>
<path class="st37" d="M948.4,1208.9h-60.7c-36.9-78.6-110.6-289.7-110.6-504.8c0-215.2,118.2-391.5,176-451.7l0,0c0.1,0,0.1,0,0.1,0
	l0,0l0,0c57.8,60.3,168.6,236.6,168.6,451.7c0,215.2-73.7,426.2-110.6,504.8h-60.7H948.4z"/>
<path class="st41" d="M1015.9,1208.9h-64.6V252.3c59.4,60.4,178.2,235.1,178.2,450.7S1053.8,1130.1,1015.9,1208.9z"/>
<defs>
	<filter id="Adobe_OpacityMaskFilter_3_" filterUnits="userSpaceOnUse" x="794.1" y="474.1" width="357.2" height="352.1">
		<feColorMatrix  type="matrix" values="1 0 0 0 0  0 1 0 0 0  0 0 1 0 0  0 0 0 1 0"/>
	</filter>
</defs>
<mask maskUnits="userSpaceOnUse" x="794.1" y="474.1" width="357.2" height="352.1" id="mask4_1_">
	<path class="st42" d="M968.6,1206.1h-60.3c-36.6-76.8-109.9-282.9-109.9-493.1c0-210.2,112.8-380.4,170.3-439.3v0c0,0,0,0,0,0l0,0
		v0C1026.1,332.6,1141,502.9,1141,713c0,210.2-73.3,416.3-109.9,493.1h-60.3H968.6z"/>
</mask>
<g class="st43">
	<ellipse class="st44" cx="948.6" cy="644.1" rx="94.8" ry="94.7"/>
	<defs>
		<filter id="Adobe_OpacityMaskFilter_4_" filterUnits="userSpaceOnUse" x="794.1" y="474.1" width="357.2" height="352.1">
			<feColorMatrix  type="matrix" values="1 0 0 0 0  0 1 0 0 0  0 0 1 0 0  0 0 0 1 0"/>
		</filter>
	</defs>
	<mask maskUnits="userSpaceOnUse" x="794.1" y="474.1" width="357.2" height="352.1" id="mask5_1_">
		<ellipse class="st45" cx="950.6" cy="643.1" rx="94.8" ry="94.7"/>
	</mask>
	<g class="st46">
		<path class="st47" d="M991.7,474.1l51.7,33.6L836.8,714.2l-42.7-42.6L991.7,474.1z"/>
		<path class="st47" d="M1081.8,535.7L866.8,750.5l12.6,18.9l218.1-217.9L1081.8,535.7z"/>
		<path class="st47" d="M1107.1,573.6L900,780.5l42.7,45.8l208.6-208.4L1107.1,573.6z"/>
	</g>
</g>
<path class="st22" d="M217.7,1074.8c-6,11.3-23.1,1.3-30.5-5.6l4.2-13.1c4.6,6,18.2,1,18.2,5.5c0,3.4-2.2,2.3-6.1,2.8
	c1.2,3.4,9,7.6,13.4,9C217.6,1073.5,218,1074.3,217.7,1074.8z"/>
<g>
	<path class="st25" d="M242.3,958.3l290.6,119.7c4.6,1.9,7.2,7.3,5.8,12.1l-26.2,89.1c-1.4,4.8-6.3,7.1-10.9,5.2L211,1064.7
		c-4.6-1.9-7.2-7.3-5.8-12.1l26.2-89.1C232.8,958.7,237.7,956.4,242.3,958.3z"/>
</g>
<ellipse transform="matrix(0.9844 -0.1762 0.1762 0.9844 -173.7758 62.1135)" class="st48" cx="262.9" cy="1009.6" rx="15.1" ry="17.2"/>
<path class="st49" d="M293,1014.2l116.9,46.8c1.6,0.6,2.5,2.5,2,4.2l0,0c-0.5,1.7-2.2,2.5-3.8,1.8l-116.9-46.8
	c-1.6-0.6-2.5-2.5-2-4.2l0,0C289.6,1014.4,291.4,1013.5,293,1014.2z"/>
<path class="st49" d="M289.5,1025.8l46.4,18.8c1.6,0.7,2.5,2.6,2,4.3l0,0c-0.5,1.7-2.2,2.5-3.9,1.9l-46.4-18.8
	c-1.6-0.7-2.5-2.6-2-4.3l0,0C286.1,1025.9,287.8,1025.1,289.5,1025.8z"/>
<path class="st49" d="M244.9,1032.2l80.2,32.2c1.6,0.7,2.5,2.5,2,4.2l0,0c-0.5,1.7-2.2,2.5-3.8,1.9l-80.2-32.2
	c-1.6-0.7-2.5-2.5-2-4.2l0,0C241.5,1032.3,243.2,1031.5,244.9,1032.2z"/>
<path class="st49" d="M335.1,1067.9l25.2,10.3c1.6,0.7,2.6,2.6,2.1,4.3l0,0c-0.5,1.7-2.3,2.5-3.9,1.9l-25.2-10.3
	c-1.6-0.7-2.6-2.6-2.1-4.3l0,0C331.7,1068.1,333.4,1067.2,335.1,1067.9z"/>
<path class="st49" d="M371.7,1082.4l43.6,17.6c1.6,0.7,2.5,2.6,2,4.3l0,0c-0.5,1.7-2.2,2.5-3.9,1.9l-43.6-17.6
	c-1.6-0.7-2.5-2.6-2-4.3l0,0C368.3,1082.6,370,1081.7,371.7,1082.4z"/>
<path class="st49" d="M426.7,1104.2l9.6,4c1.7,0.7,2.6,2.7,2.1,4.4l0,0c-0.5,1.7-2.3,2.6-3.9,1.9l-9.6-4c-1.7-0.7-2.6-2.7-2.1-4.4
	l0,0C423.2,1104.4,425,1103.5,426.7,1104.2z"/>
<path class="st49" d="M446.3,1112l63.3,25.5c1.6,0.7,2.5,2.5,2,4.2l0,0c-0.5,1.7-2.2,2.5-3.9,1.9l-63.3-25.5c-1.6-0.7-2.5-2.5-2-4.2
	l0,0C442.9,1112.2,444.7,1111.3,446.3,1112z"/>
<path class="st50" d="M157.5,1010c-11.6-25.9-25.1-43.3-30.3-48.8c-5.1,15.3-10.8,52.6,6.6,79.7c17.4,27.1,43.4,27.3,54.9,28.6
	l7.9-11.3C188,1049.8,169.1,1035.8,157.5,1010z"/>
<path class="st51" d="M84.3,1264.6l1.4-19.7l19.7,2.2l-6.8,22.6L84.3,1264.6z"/>
<path class="st52" d="M99.2,1267.6c-4,0-12.2-3.4-15.8-5l-0.5-0.3l-6.6,16l42.8,19.8c8.2,3.8,5.6-2.5,3.3-6.1
	C114.5,1288.4,103.7,1274.3,99.2,1267.6z"/>
<path class="st53" d="M166,1280.3l-4.6-19.4l18.5-6.7l0.7,24.6L166,1280.3z"/>
<path class="st52" d="M181,1276.1c-3.7,1.8-12.3,2.2-16.1,2.2h-0.6l-1.1,18.6h45.4c8.7,0,4.4-5,1.1-7.5
	C201.5,1289.5,187.1,1280.5,181,1276.1z"/>
<path class="st26" d="M138.6,1157.4c-8.7,31.3-19.8,67-33.4,104.4l-23.5-8.3c6.6-22,18.8-86,23.5-198.4l58-3.8
	c6.8,28.6,19.9,110.6,17.8,210.4l-21.8,0.8C154.7,1235,147.1,1194.6,138.6,1157.4z"/>
<defs>
	<filter id="Adobe_OpacityMaskFilter_5_" filterUnits="userSpaceOnUse" x="138.9" y="1049.1" width="55.4" height="215.7">
		<feColorMatrix  type="matrix" values="1 0 0 0 0  0 1 0 0 0  0 0 1 0 0  0 0 0 1 0"/>
	</filter>
</defs>
<mask maskUnits="userSpaceOnUse" x="138.9" y="1049.1" width="55.4" height="215.7" id="mask6_1_">
	<path class="st54" d="M138.6,1157.4c-8.7,31.3-19.8,67-33.4,104.4l-23.5-8.3c6.6-22,18.8-86,23.5-198.4l58-3.8
		c6.8,28.6,19.9,110.6,17.8,210.4l-21.8,0.8C154.7,1235,147.1,1194.6,138.6,1157.4z"/>
</mask>
<g class="st55">
	<path class="st56" d="M138.9,1155.8l15.8,109h32.3l7.3-74.4l-31-141.3L138.9,1155.8z"/>
</g>
<path class="st22" d="M242.7,974.2c-1.3-14.4-22.3-13.4-32.4-10.4l-1.1,15.2c7-3.6,18.4,8.5,20.2,4c1.4-3.4-1.3-3.4-4.9-5.9
	c2.6-2.7,12-2.8,16.9-1.9C242.1,975.3,242.7,974.8,242.7,974.2z"/>
<path class="st22" d="M158.1,926.2l-1.1-6.9l-2.4-6.3c-1.6-1.1-7.9-2.7-20.8-0.1c-12.9,2.6-8.4,28.4-4.5,41l-0.1,4.4
	c7.7,4.9,20.5,7.9,19,4.1c-1.4-3.6-1.4-2.7-1.4-5.3c2.4,0.5,4.8,0.6,6.6,0.2c3.2-0.7,2.1-4.9,1.2-7c0.9-0.5,1.4-1.7,1-2.7l0,0l1-0.8
	c0.4-0.4,0.7-1,0.5-1.5c-0.2-1,0.3-2,1.1-2.5l1.9-1c0.5-0.3,0.8-1,0.5-1.5l-3.1-5.3c-0.6-0.9-0.6-2.2-0.1-3.2
	C158.1,929.9,158.4,928,158.1,926.2z"/>
<path class="st27" d="M132.9,948.6l-3.9,5.5l-8.4-22.9c-0.5-7,1.7-22.2,15-26.9c16.6-6,20.1,3.3,20.8,3.2c0.5-0.1,1.3-1.4,1.7-2.1
	c0.2,0.5,0,2-0.1,2.7c1.2-1,0.7-3.4,0.3-4.5c6.6,9.1,2.5,14.4-0.3,16c-2.8-0.5-8.8-0.9-10.4,1.7c-1.9,3.2-1,2.7-4.5,5.1
	c-2.9,1.9-2.2,9.1-1.5,12.4l1.3,3.4l-4.1-1.9c0-5.1-3.1-7.4-4.6-7.9C129.7,933.2,131.5,943.5,132.9,948.6z"/>
<path class="st25" d="M166.2,1065.6l-10.1-68.8l-11.6-7.1l2.6,76.7L166.2,1065.6z"/>
<path class="st24" d="M101.4,1090.4c-3.5-68.2,14.3-116,23.7-131.4l3.1-1.4c39.9,6.8,68.7,9.9,82.9,4.3l3.1,19.2
	c-41.2,29.1-54,19.4-66,19.2c6.9,24.8,6.2,55.4,4.4,71.7c-1.5,13.1-10.2,17.8-14.3,18.5H101.4z"/>
<path class="st22" d="M552,1041.8c-0.6-0.7-1-1.6-1.4-2.6c-1.5-3.9-1.7-8.4-1.2-12.6c11.6-18.5,24.3-7.1,29.2,0.8l8.3,27.3
	l-11.9,8.4l-2.5-8.1c-2.2-0.8-3.9,1.1-7.7,4.6c-3.8,3.5-4.7-1.3-5.1-1.9c-0.2-0.4-1-0.6-1.7-0.8c-0.3-0.1-0.6-0.5-0.4-0.8
	c0.1-0.3,0-0.7-0.3-0.8l-0.4-0.1c-0.4-0.2-0.7-0.6-0.6-1.2l0.1-0.6c0-0.4-0.1-0.8-0.5-0.9l-1.6-0.8c-0.8-0.4-1.3-1.4-1.1-2.4
	C553.3,1046.9,553.5,1043.6,552,1041.8z"/>
<path class="st27" d="M582.4,1044.5c1.7,5.2,2.3-9.5,2.8-13.5c0.5-2.7,0-15.4-4.2-20.8c-3-3.9-6.3-8.1-13.7-4.8
	c13-6.6,4.7-2.8-2,0.9l0.6-1.7c1.2-3.7,2.7-6.4,4.1-7.2c11.7-5.9,27.7-12.2,30.9-21.7c2.5-7.6,12.2-9.5,16.7-9.4
	c25.9-4.1,61-35.9,31.1-41.5c-29.9-5.5-26.9,3.3-40.6,23c-13.7,19.7-14.5,6.8-36.3,22.6c-17.4,12.7-11.5,29.2-6.4,35.9
	c6.7-3.7,15-7.5,2-0.9c-0.6,0.3-1.3,0.6-2,1c-0.5,0.3-1,0.5-1.6,0.8c-22.3,11.3-18.4,30.1-16.5,25.5c1.6-3.7,14.3-1.8,20.4-0.3
	c1.5-7.2,3.5-5.5,6.8-3.8c3.2,1.6,5.7,9.2,7.8,15.7L582.4,1044.5z"/>
<path class="st57" d="M587.3,1260.6l-2.8-13.9l-10,4l3.7,13.1L587.3,1260.6z"/>
<path class="st52" d="M577.8,1263.9c3-1.2,8.4-6.1,10.7-8.5l0.3-0.3l9.3,10.3c-6.9,7-18.2,27.6-27.3,27.6
	c-6.5,0.1-12.1,1.2-13.3-1.7c1.3-1.3,13.6-8.6,14.8-10.8C575.8,1274.3,576.6,1268.7,577.8,1263.9z"/>
<path class="st56" d="M628.3,1177.4c29.8-7.7,20.2-35.3,11.7-48.1l-29.1,14.4l-60.2,29c-0.4,0.2-0.7,0.7-0.5,1.2l24.6,85.3l12.8-4.1
	c-8-42.3-11.7-60.7-13.9-66.8c-0.3-0.8,0.4-2,1.3-2C583.4,1186.3,601.2,1184.3,628.3,1177.4z"/>
<path class="st24" d="M638.9,1122.2c2.1,3-0.4,4-1.1,5c-11.8,6.7-34.3,22-36.5,23.3c-2.2,1.2-2.8,0.4-2.8-0.1
	c-1-3.6-4.8-12.2-6.6-16c-7.9-17.2-14.6-22.1-22-29.1c-7.3-7-4.8-16.8-3.1-31.6c1.3-11.8,13.8-19.3,19.9-21.6
	c3.6-0.6,12.3,0.9,18.3,12C612.3,1077.9,636.3,1118.5,638.9,1122.2z"/>
<path class="st24" d="M638.7,1124.2l-38.3,24.1c-1.1,0.7-1.6,2.3-1,3.5l0,0c0.6,1.2,2,1.6,3.1,0.9l38.3-24.1c1.1-0.7,1.6-2.3,1-3.5
	l0,0C641.2,1123.9,639.8,1123.5,638.7,1124.2z"/>
<path class="st57" d="M582.7,1260.6l0.4-13.5l-13.2,3.6l3.7,13.1L582.7,1260.6z"/>
<path class="st52" d="M573.2,1263.9c3-1.2,8.4-6.1,10.7-8.5l0.3-0.3l9.3,10.3c-6.9,7-18.2,27.5-27.3,27.6
	c-6.5,0.1-12.1,1.2-13.3-1.7c1.3-1.3,13.6-8.6,14.8-10.8C571.2,1274.3,572,1268.7,573.2,1263.9z"/>
<path class="st26" d="M627.3,1177.4c31.2-7.7,21.1-35.3,12.2-48.1l-30.5,14.4l-59,27.2c-2.7,1.3-4.1,4.3-3.2,7.2l24.4,81.1l13.4-4.1
	c-8.3-42.2-12.2-60.6-14.5-66.8c-0.3-0.8,0.4-2.1,1.3-2.1C580.3,1186.3,599.1,1184.3,627.3,1177.4z"/>
<path class="st22" d="M576.1,1080.3l5.1-7.4c3.2-4.7,10-4.9,13.4-0.4c2,2.6,2.3,6,0.8,8.8c-7.9,14.5-23,38.7-28.9,45
	c-6.7,7-28.2,18.3-40.4,24.1h0c-5.5,6.7-17.6,17.4-23.7,9c-0.4-0.5-0.1-1.3,0.5-1.6c3.6-1.8,9.5-6.2,10.2-9.2
	c-0.9,0-1.6,0.1-2.3,0.2c-1.8,0.3-2.9,0.4-3.1-1.7c-0.2-1.8,2.1-1.8,5.1-1.8c3.3,0,7.4-0.1,9.8-2.4l0.1,0.1
	c8.4-7.1,25.8-21.1,36.1-26.1L576.1,1080.3z"/>
<path class="st58" d="M599.1,1079.3c3.1-6,1.1-13.9-4.4-17.6l0,0c-5.6-3.8-12.6-2-15.7,3.9l-11.1,21.3l20.2,13.7L599.1,1079.3z"/>
<defs>
	<filter id="Adobe_OpacityMaskFilter_6_" filterUnits="userSpaceOnUse" x="1544.1" y="122.3" width="9" height="9.4">
		<feColorMatrix  type="matrix" values="1 0 0 0 0  0 1 0 0 0  0 0 1 0 0  0 0 0 1 0"/>
	</filter>
</defs>
<mask maskUnits="userSpaceOnUse" x="1544.1" y="122.3" width="9" height="9.4" id="mask7_1_">
	<path class="st59" d="M1535.1,103.9c-0.3-1-0.4-2.1-0.4-3.3c0-4.2,1.4-8.4,3.4-12c17.2-10.5,24.8,6.8,26.4,16.7l-2.1,29.4
		l-13.9,1.1l0.6-8.8c-1.7-1.9-4-1.1-8.7,0c-4.7,1.1-3.8-3.7-4-4.5c-0.1-0.5-0.8-1.2-1.3-1.7c-0.3-0.2-0.3-0.7-0.1-1
		c0.2-0.2,0.2-0.6,0-0.9l-0.3-0.4c-0.3-0.4-0.4-1-0.1-1.4l0.3-0.4c0.2-0.3,0.2-0.8-0.1-1.1l-1.3-1.7c-0.6-0.8-0.6-1.9-0.1-2.8
		C1534.6,109.2,1535.8,106.3,1535.1,103.9z"/>
</mask>
<g class="st60">
	<path class="st61" d="M1553.1,122.3c-1.2,1.8-4.8,3.2-7.1,4.1c-1.2,1.7-3.1,5.1-1,5.3S1551,125.8,1553.1,122.3z"/>
</g>
<g class="st2">
	<path class="st3" d="M820.8,33.9c-5.4-19.1-23-33.1-43.8-33.1c-22.1,0-40.6,15.8-44.7,36.7c-3.8-1.3-7.8-2-12-2
		c-20.5,0-37,16.6-37,37c0,17.5,12.2,32.2,28.5,36c1.8,0.6,3.8,1,5.9,1h2.4c0.1,0,0.1,0,0.2,0c0.1,0,0.1,0,0.2,0H874
		c9.9,0,17.9-8,17.9-17.9s-8-17.9-17.9-17.9h-10.3c0.8-2.8,1.2-5.8,1.2-8.8c0-18.2-14.7-32.9-32.9-32.9
		C828,32,824.3,32.7,820.8,33.9z"/>
	<path class="st4" d="M774.2,53.9c-5.4-19.1-23-33.1-43.8-33.1c-22.1,0-40.6,15.8-44.7,36.7c-3.8-1.3-7.8-2-12-2
		c-20.5,0-37,16.6-37,37c0,17.5,12.2,32.2,28.5,36c1.8,0.6,3.8,1,5.9,1h2.4h0.1l0.1,0c0.1,0,0.1,0,0.2,0h153.5
		c9.9,0,17.9-8,17.9-17.9c0-9.9-8-17.9-17.9-17.9h-10.3c0.8-2.8,1.2-5.8,1.2-8.8c0-18.2-14.7-32.9-32.9-32.9
		C781.4,52,777.7,52.6,774.2,53.9z"/>
</g>
<g class="st62">
	<path class="st3" d="M179.2,339c7.1-25.1,30.2-43.5,57.6-43.5c29.1,0,53.3,20.7,58.7,48.2c5-1.7,10.3-2.6,15.8-2.6
		c26.9,0,48.7,21.8,48.7,48.7c0,23-16,42.3-37.4,47.4c-2.4,0.8-5,1.3-7.7,1.3H109.3c-13,0-23.6-10.5-23.6-23.6
		c0-13,10.5-23.6,23.6-23.6h13.5c-1-3.7-1.6-7.6-1.6-11.6c0-23.9,19.4-43.2,43.2-43.2C169.7,336.5,174.6,337.4,179.2,339z"/>
	<path class="st4" d="M240.4,365.3c7.1-25.1,30.2-43.5,57.6-43.5c29.1,0,53.3,20.7,58.7,48.2c5-1.7,10.3-2.6,15.8-2.6
		c26.9,0,48.7,21.8,48.7,48.7c0,23-16,42.3-37.5,47.4c-2.4,0.8-5,1.3-7.7,1.3H170.6c-13,0-23.6-10.5-23.6-23.6
		c0-13,10.5-23.6,23.6-23.6h13.5c-1-3.7-1.6-7.6-1.6-11.6c0-23.9,19.4-43.2,43.2-43.2C230.9,362.8,235.8,363.6,240.4,365.3z"/>
</g>
<path class="st63" d="M1666.3,1115.1h8.4l-0.9,8.4h-6.7L1666.3,1115.1z"/>
<defs>
	<filter id="Adobe_OpacityMaskFilter_7_" filterUnits="userSpaceOnUse" x="1665.6" y="1113.5" width="13" height="3.1">
		<feColorMatrix  type="matrix" values="1 0 0 0 0  0 1 0 0 0  0 0 1 0 0  0 0 0 1 0"/>
	</filter>
</defs>
<mask maskUnits="userSpaceOnUse" x="1665.6" y="1113.5" width="13" height="3.1" id="mask8_1_">
	<path class="st64" d="M1666.6,1114.9h8l-0.9,8.6h-6.3L1666.6,1114.9z"/>
</mask>
<g class="st65">
	<path class="st66" d="M1667.1,1113.5h10c0.8,0,1.5,0.7,1.5,1.5l0,0c0,0.8-0.7,1.5-1.5,1.5h-10c-0.8,0-1.5-0.7-1.5-1.5l0,0
		C1665.6,1114.2,1666.2,1113.5,1667.1,1113.5z"/>
</g>
<path class="st67" d="M1664.7,1105.8c3.7,3.4,4.6,6.5,4.6,7.8h2c1.3-9.4,3.9-28.5,3.4-30l0,0c-0.6-1.8-0.7-1.9-5.4-1.9
	c-4.8,0-3-1.5-5-2.4c-1.1-0.5-2.2,0.2-3,0.9c-0.7,0.6-0.6,1.6,0,2.3l0.2,0.2l-0.6-0.3c-0.7-0.3-1.5-0.2-1.7,0.5
	c-0.7,1.6,0,4.1,0.7,5.9c0.3,0.7,1,1.1,1.7,1.1h1.8l-0.6,0.8c-0.4,0.5-0.5,1.2-0.4,1.8c0.5,1.9,0.9,4.5,0,5.2
	c-0.7,0.6-0.7,2.2-0.6,3.5c0.1,0.8,0.8,1.4,1.7,1.6c0.6,0.2,1.2,0.4,1.5,0.7C1665.2,1104.1,1664.1,1105.2,1664.7,1105.8z"/>
<path class="st68" d="M1670.9,1112.8c-0.5-8.2-1.7-25.3-2.3-28.4"/>
<path class="st69" d="M1667.1,1117.4h7.7l-0.3,3.8h-7.1L1667.1,1117.4z"/>
<path class="st70" d="M1675.3,1108.5c-2,1.2-2.6,3.7-2.7,5l-2,0.1c-0.3-0.4-1-1.6-1.3-2.8c-0.3-1.5,1-4.7,1.6-6.7
	c0.6-2-0.1-2.8-0.4-5.8c-0.3-2.4,1-3.5,1.6-3.8c0.3,0.3,0.8-0.1,0.6-0.5l-0.3-0.6c0.2-0.8-0.1-3.1-0.6-5.1c-0.2-0.9,0.8-1.6,1.5-1
	l-1.1-2.9c-0.1-0.3-0.1-0.6,0-0.8c2.2-4,5.7-3,7.3-2c1.5,4.3,3.9,2.7,6,3.3c2.1,0.6,2.5,3.3,1.8,3.9c-0.5,0.5-3.9,1-4.7,2.2l0.2,0.8
	c0,0.1,0.1,0.3,0.2,0.4c0.4,0.5,0.9,1.5,0.4,2c-0.7,0.8-0.7,6-1.8,6.8c-1,0.6-1.3,1.2-1.4,1.4c0,1.1-1.9,2-2.9,3
	c-0.2,0.2-0.4,0.3-0.6,0.3l-0.1,0c-0.6,0.1-1,0.7-0.8,1.3l0.1,0.2C1676.1,1107.6,1675.8,1108.2,1675.3,1108.5z"/>
<path class="st71" d="M1676.4,1108.3c-2.2,1.1-2.9,3.8-3,5.1l-1.9,0.1c-0.3-0.4-1-1.6-1.3-2.8c-0.3-1.5,1-4.7,1.6-6.7
	c0.7-2-0.1-2.8-0.4-5.8c-0.3-2.4,1-3.5,1.6-3.8c0.3,0.3,0.8-0.1,0.6-0.5l-0.3-0.6c0.2-0.8-0.1-3.1-0.6-5.1c-0.2-0.9,0.8-1.6,1.6-1
	l-1.1-2.9c-0.1-0.3-0.1-0.6,0-0.8c2.2-4,5.7-3,7.3-2c1.5,4.3,3.9,2.7,6,3.3c2,0.6,2.5,3.3,1.8,3.9c-0.5,0.5-2.2,3-2.9,4.2
	c-0.5-0.4-1,0.3-0.9,0.9c0,0.1,0,0.2-0.1,0.3c-0.7,0.8-0.7,6-1.8,6.8c-1,0.6-1.3,1.2-1.4,1.4c0,1-1.6,3.2-2.6,4.4
	c-0.2,0.2-0.6,0.3-0.8,0.1c-0.5-0.3-1.1,0.2-0.9,0.7C1676.9,1107.8,1676.8,1108.1,1676.4,1108.3z"/>
<path class="st72" d="M1672.4,1113.5c0.6-5.8,2.6-19.4,9.2-27.6"/>
<path class="st63" d="M1667.1,1112.8h6.9c0.8,0,1.5,0.7,1.5,1.5l0,0c0,0.8-0.7,1.5-1.5,1.5h-6.9c-0.8,0-1.5-0.7-1.5-1.5l0,0
	C1665.6,1113.4,1666.2,1112.8,1667.1,1112.8z"/>
<path class="st73" d="M1367.8,1133.5h10.3l29.5,160.9l-9.2,0L1367.8,1133.5z"/>
<path class="st74" d="M1363.6,1132.6l5.2,0.8l30.2,161.9l-5.2-0.9L1363.6,1132.6z"/>
<path class="st73" d="M1688.5,1134.2h10.2l30.3,159.5h-10L1688.5,1134.2z"/>
<path class="st74" d="M1687.8,1132l5.4,1.4l29.9,164l-5-0.9L1687.8,1132z"/>
<rect x="1275.3" y="1123.5" class="st74" width="134.9" height="10"/>
<rect x="1410.2" y="1123.5" class="st75" width="322.8" height="10"/>
<path class="st76" d="M1442.3,1001.7c0-0.6,0.4-1.1,1-1.1l133.1,1.7c3.1,0,5.7,2.5,5.9,5.6l6.8,95.4c0.3,3.5-2.5,6.4-6,6.4
	l-127.9-0.1c-3.2,0-5.8-2.4-6-5.6L1442.3,1001.7z"/>
<path class="st76" d="M1451.4,1000.6l-6.1,2.7l-2.7,3.8h6.5L1451.4,1000.6z"/>
<path class="st76" d="M1587.3,1108.9l5.4-3.1l-1.1-0.8l-4.2,1.2l-1.5,2.3L1587.3,1108.9z"/>
<path class="st77" d="M1443.7,1006.5c-0.3-3.5,2.5-6.4,6-6.4H1581c3.2,0,5.8,2.4,6,5.6l6.8,95.3c0.3,3.5-2.5,6.4-6,6.4h-131.4
	c-3.1,0-5.8-2.4-6-5.6L1443.7,1006.5z"/>
<path class="st78" d="M1443.3,1001.1c0-0.6,0.4-1.1,1-1.1H1581c3.2,0,5.8,2.5,6,5.6l6.1,90.3h-143.4L1443.3,1001.1z"/>
<path class="st79" d="M1447.9,1003.5c0-0.6,0.4-1.1,1-1.1h133.7c0.5,0,1,0.4,1,0.9l6.1,89.5H1454L1447.9,1003.5z"/>
<path class="st80" d="M1529.3,1066.1l-5.1-5.6l2.2-2.2l3,3l6.7-6.7l2.2,2.6L1529.3,1066.1z M1518.6,1030.4c8.2,0,14.9,3.3,14.9,7.4
	s-6.7,7.4-14.9,7.4s-14.9-3.3-14.9-7.4S1510.4,1030.4,1518.6,1030.4z M1503.7,1041.6c0,4.1,6.7,7.5,14.9,7.5s14.9-3.3,14.9-7.5v5.6
	c0,0.8-0.3,1.6-0.7,2.3c-2.4-0.7-4.9-0.5-7.2,0.4c-2.3,0.9-4.2,2.6-5.5,4.7l-1.5,0c-8.2,0-14.9-3.3-14.9-7.5V1041.6z M1503.7,1050.9
	c0,4.1,6.7,7.5,15.1,7.5l-0.2,1.9c0,1.3,0.2,2.6,0.6,3.7l-0.6,0c-8.2,0-14.9-3.3-14.9-7.5V1050.9z"/>
<rect x="1496.9" y="1108.9" class="st76" width="3.8" height="14.6"/>
<rect x="1500.7" y="1108.9" class="st77" width="56" height="14.6"/>
<path class="st21" d="M1555.1,1295.4c0-6.4,5.2-11.5,11.5-11.5h69c6.4,0,11.5,5.1,11.5,11.5l0,0H1555.1L1555.1,1295.4z"/>
<rect x="1593.9" y="1183.3" class="st81" width="13.8" height="100.6"/>
<path class="st21" d="M1593.2,1183.3h15.9c1.1,0,2,0.9,2,2v10.6c0,1.1-0.9,2-2,2h-15.9c-1.1,0-2-0.9-2-2v-10.6
	C1591.2,1184.2,1592.1,1183.3,1593.2,1183.3z"/>
<path class="st22" d="M1467.3,1119.6c1.5-12.3,22.6-9.3,32.3-5.8l-1,11.3c-8.1-1.8-19.5,0.3-23.4-0.1
	C1472.5,1124.9,1467.1,1123.6,1467.3,1119.6z"/>
<path class="st22" d="M1603.6,1000.8l0.8-2.2c0,0,0,0,0.5-3.8c0.7-4.9,4.6-9.4,9.9-12.2c5.2-2.7,13.7,0.7,20.9,10.8
	c5.7,8.1-1,18.9-1,29.8l1.1,12.6l-20.5,2.9c-2.9-4.8-1.3-12.2-3.5-12.2c-1.7,0-2.9,0.6-5.2-0.2c-0.4-0.1-0.7-0.6-0.6-1l0.3-2.6
	c0-0.2,0-0.3-0.1-0.5l-1-2.6c-0.1-0.4,0-0.8,0.2-1l0.9-0.9l-1.3-0.4c-0.4-0.1-0.7-0.5-0.7-1l0-1.4c0-0.4-0.2-0.7-0.5-0.9l-1.3-0.7
	c-0.5-0.2-0.7-0.8-0.5-1.3l2.2-5.5c0.1-0.2,0.1-0.5,0-0.7l-0.4-1C1603.1,1003.6,1603.1,1002.1,1603.6,1000.8z"/>
<path class="st27" d="M1623.7,982.1c5,1.1,10.8,3.9,14.3,8.7c4.2,5.7,1.5,23.2-0.8,33.7c-0.4,1.8-2,3-3.8,3h-14.1
	c-1.7,0-3.2-1-3.7-2.6l-3.8-9.9c0.1-0.1,0.3-0.5,0.7-1c1.8-3,0.4-8.1-2.9-7l-0.4-4.1c-0.1-0.9-0.8-1.7-1.6-2.3c-1.4-1-3.4-3-5.1-4.8
	c-3-2.4-6.1-7.1-1.2-13.4c-0.4,1-0.9,3.1,0.3,4c-0.1-0.6-0.3-2-0.1-2.4c0.3,0.6,1.2,1.7,1.7,1.8c0.1,0,0.3-0.2,0.5-0.5
	c1.3-1.7,5.4-7.1,19.6-3.2C1623.6,982.1,1623.7,982.1,1623.7,982.1z"/>
<path class="st22" d="M1559.3,1266.1l-6.5-22.5l-18.2,5.4l8.9,20.4L1559.3,1266.1z"/>
<path class="st52" d="M1542.1,1267.4c4.4,0.3,13.6-2,17.7-3.2l0.6-0.2l5.1,15c0.3,0.9-0.2,1.9-1.3,2.3
	c-12.7,4.1-35.7,14.3-44.9,13.3c-2.8-0.3-4.7-0.7-5.9-1.2c-5.5-2.1,5.3-6.5,10.8-8.5C1533.9,1281.4,1537.9,1274.7,1542.1,1267.4z"/>
<path class="st82" d="M1560.5,1257.2c-6.9,2.1-20.9,5.6-24.5,5.6c-8.3-25.1-36.7-74.5-29.5-106.4c1.1-5,6.1-8.3,11.7-8.9l6.3-0.7
	l87.4-1.8v34.6l-50.5-6c-11.1-1.3-20.2,7.8-17.7,17.8L1560.5,1257.2z"/>
<path class="st22" d="M1474.1,1279.1l13.6-29.3h-19.2l-10.5,28L1474.1,1279.1z"/>
<path class="st52" d="M1457.4,1275.5c4.1,1.6,13.6,2,17.9,2h0.6v14.8c0,1-0.9,1.8-2,1.8h-47.2c-4.2,0-5.7-0.8-5.7-2
	c-0.1-4.2,6.9-4.6,11.3-5.7C1441.2,1284.2,1452.1,1278.6,1457.4,1275.5z"/>
<path class="st83" d="M1478.9,1275.1c-6.6,0-19.1-3.5-22.7-3.5c6.1-21.1,33.9-83,49.8-116.5c2-4.2,5.9-7.2,10.8-8.4l4.6-1
	c2.1-0.5,4.2-0.7,6.3-0.7h84.2v34.8l-63-4.5c-6.3-0.4-12.3,2.5-15.3,7.6L1478.9,1275.1z"/>
<path class="st84" d="M1613,1031.3c12.7,2.6,12.7,2.6,22.2-0.7l8.4,3.4c7.8,3.1,12.7,10.8,12.5,19.2l-3.6,112.1h-71.4v-71.3l-9,18.9
	c-2.7,5.7-8.3,9.4-14.6,9.7l-59.5,2.7v-12.6l48.5-9.5c5.4-1.1,9.9-4.6,12.2-9.6l22.4-48.7c1.7-3.6,4.7-6.3,8.4-7.7L1613,1031.3z"/>
<defs>
	<filter id="Adobe_OpacityMaskFilter_8_" filterUnits="userSpaceOnUse" x="1497.1" y="1032.2" width="53.8" height="47.6">
		<feColorMatrix  type="matrix" values="1 0 0 0 0  0 1 0 0 0  0 0 1 0 0  0 0 0 1 0"/>
	</filter>
</defs>
<mask maskUnits="userSpaceOnUse" x="1497.1" y="1032.2" width="53.8" height="47.6" id="mask9_1_">
	<path class="st85" d="M1613,1031.3c12.7,2.6,12.7,2.6,22.2-0.7l8.4,3.4c7.8,3.1,12.7,10.8,12.5,19.2l-3.6,112.1h-71.4v-71.3
		l-9,18.9c-2.7,5.7-8.3,9.4-14.6,9.7l-59.5,2.7v-12.6l48.5-9.5c5.4-1.1,9.9-4.6,12.2-9.6l22.4-48.7c1.7-3.6,4.7-6.3,8.4-7.7
		L1613,1031.3z"/>
</mask>
<g class="st86">
	<path class="st84" d="M1546.4,1032.3c-2-0.5-3.3,1.4-3.7,2.5c0-0.3-0.4-0.1-2.3,2.7c-1.8,2.8-29.4,25.8-43.4,35.4v7h36.6
		c5-9.7,15.2-32.1,16.7-35.2C1552.2,1040.7,1548.9,1032.9,1546.4,1032.3z"/>
</g>
<path class="st87" d="M1667.6,1050.7h-75.7l-13.8,119.3l-13,15.6l77.7-1c9.5-0.1,17.5-7.3,18.6-16.7l13.2-109.4
	C1675.1,1054.3,1671.8,1050.7,1667.6,1050.7z"/>
<path class="st21" d="M1539,1181v-0.4c0-1.9,1.5-3.5,3.4-3.5h13.3c10.7,0,19.8-8.1,20.9-18.8l11-104.7c0.2-2.1,2.1-3.7,4.3-3.4
	c2.1,0.2,3.7,2.1,3.4,4.2l-11.6,116.2c-0.8,8-7.5,14.1-15.6,14.1h-25.3C1540.7,1184.8,1539,1183.1,1539,1181z"/>
<g>
	<path class="st67" d="M1252.7,1216.1c-4,8,29.5,15.3,46.8,17.9l1-19.9c5-24.9,5-30.9-1-29.9c-6,1-11,12.9-13,6c-2-7,13-24.9,8-37.8
		c-5-13-14.9,8-18.9,5c-4-3,3-36.8-3-38.8c-6-2-7,25.9-9,15.9c-2-9.9-17.9-30.9-30.9-22.9c-13,8,22.9,27.9,19.9,31.9
		c-3,4-22.9-8-22.9,4c0,11.9,32.9,15.9,39.8,20.9c7,5-21.9,10-28.9,12.9s-5,13.9,14.9,14.9c19.9,1,23.9,6,25.9,11
		C1283.6,1212.1,1257.7,1206.2,1252.7,1216.1z"/>
	<path class="st88" d="M1255.7,1134.5c5,4.3,15.9,18.5,19.9,40.8c4,22.3,16.3,43.8,21.9,51.8"/>
	<path class="st67" d="M1344.8,1214.8c4,8-29.5,15.3-46.8,17.9l-1-19.9c-5-24.9-5-30.9,1-29.9c6,1,10.9,12.9,12.9,6
		c2-7-12.9-24.9-8-37.8c5-12.9,14.9,8,18.9,5c4-3-3-36.8,3-38.8c6-2,7,25.9,9,15.9c2-9.9,17.9-30.9,30.9-22.9
		c12.9,8-22.9,27.9-19.9,31.9c3,4,22.9-8,22.9,4c0,11.9-32.9,15.9-39.8,20.9c-7,5,21.9,9.9,28.9,12.9s5,13.9-14.9,14.9
		c-19.9,1-23.9,6-25.9,10.9C1313.9,1210.9,1339.8,1204.9,1344.8,1214.8z"/>
	<path class="st89" d="M1341.8,1133.2c-5,4.3-15.9,18.5-19.9,40.8c-4,22.3-16.3,43.8-21.9,51.8"/>
	<path class="st28" d="M1276.7,1194.1c-8.4,0,1.1,15.8,6.6,22.1l16.5,17.7c8.1-3.3,25.2-10.8,28.7-14.3c4.4-4.4-1.1-5.5-6.6-6.6
		c-4.4-0.9-1.8-4.8,0-6.6c18.5-5.3,24.7-15.5,25.4-19.9c0-1.1,0-3.3-4.4-6.6c-4.4-3.3-22.1,22.1-21,5.5c1.1-16.6,26.5-35.3,25.4-43
		c-1.1-7.7-6.6,2.2-16.6,7.7c-7.9,4.4-7.7-3.3-6.6-7.7c5.2-5.9,14.8-19.2,12.1-25.4c-3.3-7.7-5.5,0-14.3,7.7
		c-8.8,7.7-3.3-8.8-1.1-12.1c2.2-3.3,22.1-46.3-13.2-38.6c-35.3,7.7-14.4,54.1-13.3,60.7c1.1,6.6-7.7-8.8-21-4.4
		c-13.3,4.4,24.3,28.7,24.3,35.3c0,6.6-14.3-3.3-21-4.4c-6.6-1.1,6.6,15.4,9.9,25.4c2.7,7.9,1.1,9.9,0,9.9
		C1283.3,1198.6,1283.3,1194.1,1276.7,1194.1z"/>
	<path class="st90" d="M1309.8,1097c-2.2,0.4-5.9,12.8-3.3,59.6c2.7,46.8-1.1,63.6-3.3,66.2"/>
	<path class="st91" d="M1273.1,1243.3h47l-5.1,50.9h-37.5L1273.1,1243.3z"/>
	<path class="st91" d="M1275.6,1229.3h42c4.9,0,8.9,4,8.9,8.9l0,0c0,4.9-4,8.9-8.9,8.9h-42c-4.9,0-8.9-4-8.9-8.9l0,0
		C1266.7,1233.3,1270.7,1229.3,1275.6,1229.3z"/>
</g>
<path class="st92" d="M1274.3,1254.6h44.5l-1.9,20.3h-41.3L1274.3,1254.6z"/>
<path class="st93" d="M987.2,113.1l-14.9-0.3l20.2-9.2l0.5,1.9C994.2,109.4,991.2,113.2,987.2,113.1z"/>
<path class="st94" d="M944.9,118.2c-1.4-5.1,4.1-5.4,6.7-6.8c-1.8-6.7-1.4-21.1,14.4-25.5c15.8-4.3,24.1,8.4,26.2,15.3
	c1,0.1,2.9,0.8,2.2,2.6C993.5,106.1,946.6,124.3,944.9,118.2z"/>
<defs>
	<filter id="Adobe_OpacityMaskFilter_9_" filterUnits="userSpaceOnUse" x="971.4" y="82.5" width="23.5" height="28.5">
		<feColorMatrix  type="matrix" values="1 0 0 0 0  0 1 0 0 0  0 0 1 0 0  0 0 0 1 0"/>
	</filter>
</defs>
<mask maskUnits="userSpaceOnUse" x="971.4" y="82.5" width="23.5" height="28.5" id="mask11_1_">
	<path class="st95" d="M944.9,118.2c-1.2-4.6,3.3-5.9,6.7-6.8c-1.8-6.7-1.4-21.1,14.4-25.5c15.8-4.3,24.1,8.4,26.2,15.3
		c1,0.1,2.9,0.8,2.2,2.6C993.5,106.1,946.6,124.3,944.9,118.2z"/>
</mask>
<g class="st96">
	<path class="st97" d="M972.4,110.3c5-2.7,5.9-19.7,5.7-27.9c6.1,4.5,17.9,14.2,16.8,16.7C993.4,102.4,966.1,113.7,972.4,110.3z"/>
</g>
<path class="st98" d="M954.3,102.3c0,0.3,0.2,0.5,0.5,0.5c0.3,0,0.5-0.2,0.5-0.5L954.3,102.3z M957.3,96.9c0.2-0.2,0.2-0.5,0-0.7
	c-0.2-0.2-0.5-0.2-0.7,0L957.3,96.9z M955.3,102.3c0-0.6,0.1-1.5,0.4-2.5c0.3-1,0.8-2,1.6-2.8l-0.7-0.7c-1,0.9-1.6,2.1-1.9,3.2
	c-0.3,1.1-0.4,2.2-0.4,2.8L955.3,102.3z"/>
<path class="st93" d="M1563.4,126.7l-12.8-3.7l20.5-3.4v1.3C1571.1,124.9,1567.2,127.8,1563.4,126.7z"/>
<g>
	<path class="st22" d="M1460.4,221.2c5.7-10.7,22.1-1.2,29.1,5.4l-4.1,12.5c-4.4-5.8-17.4-1-17.4-5.2c0-3.3,2.1-2.2,5.8-2.6
		c-1.2-3.2-8.5-7.2-12.7-8.5C1460.4,222.5,1460.1,221.7,1460.4,221.2z"/>
	<path class="st22" d="M1648.9,311.6c-10.3,4.4-18-14.6-20-24.6l9.9-7.1c0.4,7.6,13.2,12.9,10.9,16.3c-1.8,2.6-2.9,0.2-6-2
		c-0.8,3.4,2.9,11.8,5.5,15.8C1649.7,310.5,1649.5,311.3,1648.9,311.6z"/>
	<path class="st27" d="M1538.8,169.8c-1.4-2.7-0.6-30.2,0-43.6h8.9l10.1,43.6H1538.8z"/>
	<path class="st99" d="M1535.1,138.9c-0.3-1-0.4-2.1-0.4-3.3c0-4.2,1.4-8.4,3.4-12c17.2-10.5,24.8,6.8,26.4,16.7l-2.1,29.4
		l-13.9,1.1l0.6-8.8c-1.7-1.9-4-1.1-8.7,0c-4.7,1.1-3.8-3.7-4-4.5c-0.1-0.5-0.8-1.2-1.3-1.7c-0.3-0.2-0.3-0.7-0.1-1
		c0.2-0.2,0.2-0.6,0-0.9l-0.3-0.4c-0.3-0.4-0.4-1-0.1-1.4l0.3-0.4c0.2-0.3,0.2-0.8-0.1-1.1l-1.3-1.7c-0.6-0.8-0.6-1.9-0.1-2.8
		C1534.6,144.2,1535.8,141.3,1535.1,138.9z"/>
	<path class="st27" d="M1540.4,129c-0.2,5.5,2.1,13.8,12.8,13.8c1.3-0.2,3.9,0.5,3.5,5.3c-0.6,5.9-1.2,9.9,0.6,16.5
		c0.9,3.7,1.9,5.1,2.3,5.3h12.7c1.6-21.1-2.9-61.4-33-53.5c-3.5,1.8-8.4,5.8-5.8,11.9C1534.6,130.9,1539.6,132,1540.4,129
		L1540.4,129z"/>
	<path class="st22" d="M1507.4,460.7l4.1-17l-16.2-5.9l-0.6,21.6L1507.4,460.7z"/>
	<path class="st52" d="M1494.2,456.9c3.2,1.6,10.8,2,14.1,2h0.5l1,16.4h-39.9c-7.7,0-3.9-4.4-1-6.5
		C1476.2,468.7,1488.8,460.8,1494.2,456.9z"/>
	<path class="st22" d="M1669.2,335l-15.7,0.5l-1.3,19l18.8-5.5L1669.2,335z"/>
	<path class="st52" d="M1668.9,351c0.6-4-0.9-12.3-1.7-16l-0.1-0.6l14.3-5.8l9.7,43.4c1.9,8.4-2.9,5.5-5.6,3
		C1683.7,367.2,1673.7,355.7,1668.9,351z"/>
	<path class="st100" d="M1514.3,446.3l68.3-182.8h-51l-39.4,182.8H1514.3z"/>
	<path class="st101" d="M1543.9,362.5l-12.7-99h52.1l-9.8,62l87.4,7.3v22.4L1543.9,362.5z"/>
	<path class="st102" d="M1528.5,222.6c12.4-31.9,19.8-48.7,21.6-52.1c-0.6,25.1-5.3,79.4-17,86.8c-11.7,7.5-38.8-8.9-50.9-18
		l4.8-14.7C1513.6,236.4,1525.7,228.2,1528.5,222.6z"/>
	<path class="st25" d="M1549.8,171.1l11-3l8.4,0l22.4,89.7l-62.8,8.6c0.2-3.3,2.2-15.9,9-39.8
		C1544.7,202.9,1548.8,180.3,1549.8,171.1z"/>
	<path class="st103" d="M1551.7,284.3c-11.7-27,0.7-88.1,8.3-115.2l8.7-3.2c41.8,18.6,65.7,83.9,72.5,114.2l-13.9,5.1
		c-2.3,0.8-23.5-34.4-30.2-46.1c4.6,10.2,5.5,30.7,5.3,40.3L1551.7,284.3z"/>
	<path class="st94" d="M1524.5,121.2c0-5,5-3.9,7.7-4.5c0-6.5,3.8-19.4,19.1-19.5c15.3-0.1,19.7,13.4,20,20.1
		c0.9,0.4,2.4,1.5,1.3,2.9C1571.3,122.1,1524.5,127.1,1524.5,121.2z"/>
</g>
<defs>
	<filter id="Adobe_OpacityMaskFilter_10_" filterUnits="userSpaceOnUse" x="1550.2" y="97" width="24.2" height="24.2">
		<feColorMatrix  type="matrix" values="1 0 0 0 0  0 1 0 0 0  0 0 1 0 0  0 0 0 1 0"/>
	</filter>
</defs>
<mask maskUnits="userSpaceOnUse" x="1550.2" y="97" width="24.2" height="24.2" id="mask12_1_">
	<path class="st104" d="M1524.5,121.2c0-4.5,4.4-4.5,7.7-4.5c0-6.5,3.8-19.4,19.1-19.5c15.3-0.1,19.7,13.4,20,20.1
		c0.9,0.4,2.4,1.5,1.3,2.9C1571.3,122.1,1524.5,127.1,1524.5,121.2z"/>
</mask>
<g class="st105">
	<path class="st97" d="M1551.2,120.7c5.2-1.3,10-16.4,11.8-23.8c4.4,5.5,12.8,17.1,11.1,19.2
		C1572.1,118.7,1544.7,122.3,1551.2,120.7z"/>
</g>
<path class="st98" d="M1536.8,74.1c-0.1,0.3,0.1,0.5,0.4,0.6c0.3,0.1,0.5-0.1,0.6-0.4L1536.8,74.1z M1540.9,70
	c0.2-0.1,0.3-0.4,0.2-0.7c-0.1-0.2-0.4-0.3-0.7-0.2L1540.9,70z M1537.8,74.3c0.1-0.5,0.4-1.3,1-2.2c0.5-0.8,1.2-1.6,2.1-2.1
	l-0.5-0.9c-1.1,0.6-1.9,1.5-2.5,2.5c-0.6,0.9-0.9,1.9-1.1,2.5L1537.8,74.3z"/>
<path class="st93" d="M121.5,920.2l14-7.5l-23.2,0.9l0.5,2.6C113.6,920.1,118,922.1,121.5,920.2z"/>
<path class="st94" d="M163.6,904.8c-1.2-5.6-6.4-3.2-9.4-3.3c-1.5-7.3-8.8-21-25.5-17.6c-16.8,3.4-18.4,19.6-17.1,27.2
	c-0.9,0.6-2.2,2.2-0.8,3.6C112.7,916.4,165,911.4,163.6,904.8z"/>
<defs>
	<filter id="Adobe_OpacityMaskFilter_11_" filterUnits="userSpaceOnUse" x="107.6" y="886.3" width="27.8" height="25.2">
		<feColorMatrix  type="matrix" values="1 0 0 0 0  0 1 0 0 0  0 0 1 0 0  0 0 0 1 0"/>
	</filter>
</defs>
<mask maskUnits="userSpaceOnUse" x="107.6" y="886.3" width="27.8" height="25.2" id="mask13_1_">
	<path class="st106" d="M163.6,904.8c-1.1-5-5.9-4-9.4-3.3c-1.5-7.3-8.8-21-25.5-17.6c-16.8,3.4-18.4,19.6-17.1,27.2
		c-0.9,0.6-2.2,2.2-0.8,3.6C112.7,916.4,165,911.4,163.6,904.8z"/>
</mask>
<g class="st107">
	<path class="st97" d="M134.3,910.3c-5.9-0.2-14.8-16.1-18.5-24c-3.5,7.2-9.9,22.2-7.7,24.1C110.9,912.8,141.8,910.6,134.3,910.3z"
		/>
</g>
<path class="st98" d="M147.2,894c0.1,0.2,0,0.5-0.2,0.7c-0.2,0.1-0.5,0-0.7-0.2L147.2,894z M141.9,890.2c-0.3-0.1-0.4-0.4-0.3-0.6
	c0.1-0.3,0.4-0.4,0.6-0.3L141.9,890.2z M146.3,894.4c-0.3-0.5-0.8-1.4-1.6-2.2c-0.8-0.8-1.8-1.6-2.9-1.9l0.3-1
	c1.3,0.4,2.5,1.3,3.3,2.2c0.8,0.9,1.4,1.9,1.8,2.5L146.3,894.4z"/>
<defs>
	<filter id="Adobe_OpacityMaskFilter_12_" filterUnits="userSpaceOnUse" x="1266.7" y="1237.4" width="59.8" height="17.8">
		<feColorMatrix  type="matrix" values="1 0 0 0 0  0 1 0 0 0  0 0 1 0 0  0 0 0 1 0"/>
	</filter>
</defs>
<mask maskUnits="userSpaceOnUse" x="1266.7" y="1237.4" width="59.8" height="17.8" id="mask10_1_">
	<path class="st108" d="M1273.1,1246.3h47l-5.1,50.9h-37.5L1273.1,1246.3z"/>
</mask>
<g class="st109">
	<path class="st110" d="M1275.6,1237.4h42c4.9,0,8.9,4,8.9,8.9l0,0c0,4.9-4,8.9-8.9,8.9h-42c-4.9,0-8.9-4-8.9-8.9l0,0
		C1266.7,1241.4,1270.7,1237.4,1275.6,1237.4z"/>
</g>
<g>
	<defs>
		<path id="SVGID_1_" d="M950.2,1208.9h-64.4c-36.9-79.7-106.9-293.6-106.9-511.7c0-218.1,118.2-396.8,176-457.9l0,0
			c0.1,0,0.1,0,0.1,0l0,0l0,0c57.8,61.1,168.6,239.8,168.6,457.9c0,218.1-70.9,432-107.8,511.7h-63.5H950.2z"/>
	</defs>
	<clipPath id="SVGID_2_">
		<use xlink:href="#SVGID_1_"  style="overflow:visible;"/>
	</clipPath>
	<g class="st111">
		<rect x="787.6" y="214.2" class="st34" width="318" height="261"/>
		<rect x="787.6" y="475.2" class="st38" width="318" height="36.2"/>
	</g>
	<rect x="870.1" y="1188.3" class="st112" width="159.5" height="33"/>
</g>
</svg>
