<svg width="57" height="56" viewBox="0 0 57 56" fill="none" xmlns="http://www.w3.org/2000/svg">
<rect x="0.799988" width="56" height="56" rx="28" fill="#F0FDF4"/>
<path d="M38.1333 13.333H19.4667C18 13.333 16.8133 14.533 16.8133 15.9997L16.8 33.2397C16.8 34.1597 17.2667 34.973 17.9733 35.453L28.8 42.6663L39.6133 35.453C40.32 34.973 40.7867 34.1597 40.7867 33.2397L40.8 15.9997C40.8 14.533 39.6 13.333 38.1333 13.333ZM28.8 39.4663L19.4667 33.253V15.9997H38.1333V33.2397L28.8 39.4663ZM26.12 29.573L22.68 26.1197L20.8 27.9997L26.1333 33.333L36.8 22.6663L34.9067 20.773L26.12 29.573Z" fill="#16A34A"/>
</svg>
