<svg width="57" height="56" viewBox="0 0 57 56" fill="none" xmlns="http://www.w3.org/2000/svg">
<rect x="0.399994" width="56" height="56" rx="28" fill="#EFF6FF"/>
<path d="M39.0667 19.9997H28.4L25.7333 17.333H17.7333C16.2667 17.333 15.0667 18.533 15.0667 19.9997V35.9997C15.0667 37.4663 16.2667 38.6663 17.7333 38.6663H39.0667C40.5333 38.6663 41.7333 37.4663 41.7333 35.9997V22.6663C41.7333 21.1997 40.5333 19.9997 39.0667 19.9997ZM39.0667 35.9997H17.7333V19.9997H24.6267L27.2933 22.6663H39.0667V35.9997ZM28.6133 27.9997H23.0667V30.6663H28.6133L26.4933 32.7863L28.3867 34.6663L33.7333 29.3463L28.3867 23.9997L26.5067 25.8797L28.6133 27.9997Z" fill="#2563EB"/>
</svg>
