<svg width="1440" height="916" viewBox="0 0 1440 916" fill="none" xmlns="http://www.w3.org/2000/svg">
<mask id="mask0_674_34105" style="mask-type:alpha" maskUnits="userSpaceOnUse" x="-1" y="0" width="1441" height="935">
<path d="M1440 0H-1V934.646H1440V0Z" fill="#C4C4C4"/>
</mask>
<g mask="url(#mask0_674_34105)">
<g opacity="0.2">
<path d="M1205.77 631.193V349.518H1126.75V410.87H1041.22V631.193H1205.77Z" fill="#D5D0E4"/>
<path d="M1173.22 453.639H1189.03V437.832H1173.22V453.639Z" fill="#6B7280"/>
<path opacity="0.5" d="M1173.22 417.102H1189.03V401.295H1173.22V417.102Z" fill="#6B7280"/>
<path opacity="0.5" d="M1141.66 453.639H1157.46V437.832H1141.66V453.639Z" fill="#6B7280"/>
<path opacity="0.25" d="M1141.66 417.102H1157.46V401.295H1141.66V417.102Z" fill="#6B7280"/>
<path d="M669.116 389.73H605.687V629.798H669.116V389.73Z" fill="#DFDCE9"/>
<path d="M573.936 631.675V446.518H625.879V486.851H682.097V631.675H573.936Z" fill="#D5D0E4"/>
<path d="M595.321 504.572H584.934V514.959H595.321V504.572Z" fill="#6B7280"/>
<path d="M647.784 407.18H637.398V417.565H647.784V407.18Z" fill="#6B7280"/>
<path d="M647.784 426.852H637.398V437.237H647.784V426.852Z" fill="#6B7280"/>
<path opacity="0.5" d="M595.321 480.553H584.934V490.938H595.321V480.553Z" fill="#6B7280"/>
<path opacity="0.5" d="M616.073 504.572H605.687V514.959H616.073V504.572Z" fill="#6B7280"/>
<path opacity="0.5" d="M630.167 407.18H619.781V417.565H630.167V407.18Z" fill="#6B7280"/>
<path opacity="0.25" d="M616.073 480.553H605.687V490.938H616.073V480.553Z" fill="#6B7280"/>
<path d="M617.777 389.732V371.902L657.017 332.668V389.732H617.777Z" fill="#DFDCE9"/>
<path d="M1398.48 259.934H1301.98V625.146H1398.48V259.934Z" fill="#DFDCE9"/>
<path d="M1446.77 628.005V346.322H1367.77V407.682H1282.24V628.005H1446.77Z" fill="#D5D0E4"/>
<path d="M1414.24 450.441H1430.05V434.635H1414.24V450.441Z" fill="#6B7280"/>
<path d="M1334.42 302.286H1350.23V286.479H1334.42V302.286Z" fill="#6B7280"/>
<path d="M1334.42 332.207H1350.23V316.4H1334.42V332.207Z" fill="#6B7280"/>
<path opacity="0.5" d="M1414.24 413.909H1430.05V398.102H1414.24V413.909Z" fill="#6B7280"/>
<path opacity="0.5" d="M1382.68 450.441H1398.48V434.635H1382.68V450.441Z" fill="#6B7280"/>
<path opacity="0.5" d="M1361.24 302.286H1377.04V286.479H1361.24V302.286Z" fill="#6B7280"/>
<path opacity="0.25" d="M1382.68 413.909H1398.48V398.102H1382.68V413.909Z" fill="#6B7280"/>
<path d="M1380.08 259.936V232.813L1320.39 173.119V259.936H1380.08Z" fill="#DFDCE9"/>
<path opacity="0.3" d="M559.665 391.094H496.237V629.508H559.665V391.094Z" fill="#DFDCE9"/>
<path d="M464.494 631.368V447.486H516.429V487.539H572.654V631.368H464.494Z" fill="#D5D0E4"/>
<path d="M485.878 505.141H475.491V515.454H485.878V505.141Z" fill="#6B7280"/>
<path d="M538.341 408.424H527.956V418.738H538.341V408.424Z" fill="#6B7280"/>
<path d="M538.341 427.961H527.956V438.275H538.341V427.961Z" fill="#6B7280"/>
<path opacity="0.5" d="M485.878 481.293H475.491V491.607H485.878V481.293Z" fill="#6B7280"/>
<path opacity="0.5" d="M506.622 505.141H496.237V515.454H506.622V505.141Z" fill="#6B7280"/>
<path opacity="0.5" d="M520.725 408.424H510.338V418.738H520.725V408.424Z" fill="#6B7280"/>
<path opacity="0.25" d="M506.622 481.293H496.237V491.607H506.622V481.293Z" fill="#6B7280"/>
<path opacity="0.3" d="M508.334 391.093V373.393L547.575 334.42V391.093H508.334Z" fill="#DFDCE9"/>
<path d="M152.031 592.996C152.031 592.996 165.547 589.229 199.132 578.323C287.576 549.611 317.978 495.176 403.402 510.143C488.819 525.11 557.531 581.647 637.378 571.672C717.224 561.696 711.654 491.747 808.219 508.426C904.783 525.104 893.636 580.392 999.486 578.524C1105.33 576.657 1103.47 493.511 1252.03 513.462C1400.58 533.415 1460 631.534 1460 631.534H19.0117" fill="#E3E3F1"/>
</g>
<path d="M1440 757.523H-1V1196.83H1440V757.523Z" fill="#1F2937"/>
<path d="M1440 621.432H-1V866.424H1440V621.432Z" fill="#1F2937"/>
<mask id="mask1_674_34105" style="mask-type:alpha" maskUnits="userSpaceOnUse" x="-11" y="619" width="1462" height="417">
<path d="M1450.01 619.998H-11V1035.29H1450.01V619.998Z" fill="url(#paint0_linear_674_34105)"/>
</mask>
<g mask="url(#mask1_674_34105)">
<path d="M1523.43 636.822L1135.17 1025.09" stroke="white"/>
<path d="M1524.43 489.721L989.063 1025.09" stroke="white"/>
<path d="M1378.33 489.721L842.962 1025.09" stroke="white"/>
<path d="M1232.24 489.721L696.863 1025.09" stroke="white"/>
<path d="M1086.13 489.721L550.76 1025.09" stroke="white"/>
<path d="M940.029 489.721L404.659 1025.09" stroke="white"/>
<path d="M793.929 489.721L258.56 1025.09" stroke="white"/>
<path d="M647.826 489.721L112.457 1025.09" stroke="white"/>
<path d="M501.725 489.721L-33.6445 1025.09" stroke="white"/>
<path d="M355.627 489.721L-179.744 1025.09" stroke="white"/>
<path d="M209.524 489.721L-325.845 1025.09" stroke="white"/>
<path d="M1547.07 707.029H-18.0132" stroke="white"/>
<path d="M1547.07 804.1H-18.0132" stroke="white"/>
<path d="M1547.07 901.162H-18.0132" stroke="white"/>
</g>
</g>
<defs>
<linearGradient id="paint0_linear_674_34105" x1="868.107" y1="-508.282" x2="719.505" y2="1035.28" gradientUnits="userSpaceOnUse">
<stop stop-color="white"/>
<stop offset="1" stop-color="white" stop-opacity="0"/>
</linearGradient>
</defs>
</svg>
