<svg width="88" height="88" viewBox="0 0 88 88" fill="none" xmlns="http://www.w3.org/2000/svg">
<g opacity="0.1" filter="url(#filter0_d)">
<circle cx="44" cy="40" r="24" fill="white"/>
</g>
<path d="M54.2031 29.9531H34.7969C34.3302 29.9531 33.9531 30.3302 33.9531 30.7969V50.2031C33.9531 50.6698 34.3302 51.0469 34.7969 51.0469H54.2031C54.6698 51.0469 55.0469 50.6698 55.0469 50.2031V30.7969C55.0469 30.3302 54.6698 29.9531 54.2031 29.9531ZM53.1484 49.1484H35.8516V31.8516H53.1484V49.1484ZM39.9648 45.0088V47.0391C39.9648 47.1551 40.0598 47.25 40.1758 47.25H41.4414C41.5574 47.25 41.6523 47.1551 41.6523 47.0391V45.0088C41.386 45.0958 41.1039 45.1406 40.8086 45.1406C40.5133 45.1406 40.2312 45.0932 39.9648 45.0088ZM41.6523 39.7881V33.9609C41.6523 33.8449 41.5574 33.75 41.4414 33.75H40.1758C40.0598 33.75 39.9648 33.8449 39.9648 33.9609V39.7881C40.2312 39.7011 40.5133 39.6562 40.8086 39.6562C41.1039 39.6562 41.386 39.7037 41.6523 39.7881ZM39.9648 45.0088C40.2312 45.0958 40.5133 45.1406 40.8086 45.1406C41.1039 45.1406 41.386 45.0932 41.6523 45.0088C42.7545 44.6528 43.5508 43.6192 43.5508 42.3984C43.5508 41.1776 42.7545 40.144 41.6523 39.7881C41.386 39.7011 41.1039 39.6562 40.8086 39.6562C40.5133 39.6562 40.2312 39.7037 39.9648 39.7881C38.8627 40.144 38.0664 41.1776 38.0664 42.3984C38.0664 43.6192 38.8627 44.6528 39.9648 45.0088ZM39.9675 41.9581C39.9754 41.9423 39.9859 41.9265 39.9938 41.9106V41.908L40.0255 41.8605C40.0281 41.8553 40.0308 41.8526 40.0334 41.8474C40.0413 41.8342 40.0519 41.8236 40.0598 41.8104C40.0624 41.8078 40.065 41.8025 40.0677 41.7999C40.0809 41.7841 40.0914 41.7709 40.1046 41.7577L40.1125 41.7498L40.1441 41.7182L40.1547 41.7076C40.1679 41.6944 40.1811 41.6839 40.1969 41.6707C40.2127 41.6575 40.2259 41.647 40.2417 41.6364C40.247 41.6338 40.2496 41.6312 40.2549 41.6285C40.2681 41.6206 40.2786 41.6101 40.2918 41.6021C40.2944 41.5995 40.2997 41.5969 40.3023 41.5942C40.3182 41.5837 40.334 41.5758 40.3524 41.5652C40.3551 41.5626 40.3604 41.5626 40.363 41.56C40.3762 41.5521 40.3894 41.5468 40.4052 41.5389L40.421 41.531C40.4395 41.523 40.4553 41.5151 40.4737 41.5099C40.4922 41.502 40.5106 41.4967 40.5291 41.4914C40.5344 41.4888 40.5396 41.4888 40.5449 41.4861C40.5607 41.4809 40.5739 41.4782 40.5897 41.4756C40.595 41.4756 40.5977 41.4729 40.6029 41.4729C40.6214 41.4677 40.6425 41.465 40.6609 41.4624C40.6662 41.4624 40.6688 41.4624 40.6741 41.4598C40.6899 41.4571 40.7058 41.4571 40.7216 41.4545H40.7374C40.7585 41.4545 40.777 41.4519 40.798 41.4519C40.8191 41.4519 40.8376 41.4519 40.8587 41.4545H40.8745C40.8903 41.4545 40.9062 41.4571 40.922 41.4598C40.9272 41.4598 40.9299 41.4598 40.9352 41.4624C40.9536 41.465 40.9747 41.4677 40.9932 41.4729C40.9984 41.4729 41.0011 41.4756 41.0063 41.4756C41.0222 41.4782 41.038 41.4835 41.0512 41.4861C41.0564 41.4888 41.0617 41.4888 41.067 41.4914C41.0854 41.4967 41.1039 41.502 41.1224 41.5099C41.1408 41.5151 41.1566 41.523 41.1751 41.531L41.1909 41.5389C41.2041 41.5441 41.2199 41.5521 41.2331 41.56C41.2357 41.5626 41.241 41.5626 41.2437 41.5652C41.2595 41.5731 41.2779 41.5837 41.2937 41.5942C41.2964 41.5969 41.3017 41.5995 41.3043 41.6021C41.3175 41.6101 41.3307 41.618 41.3412 41.6285C41.3465 41.6312 41.3491 41.6338 41.3544 41.6364C41.3702 41.647 41.386 41.6602 41.3992 41.6707C41.4124 41.6813 41.4282 41.6944 41.4414 41.7076L41.452 41.7182L41.4836 41.7498L41.4915 41.7577C41.5047 41.7709 41.5179 41.7867 41.5284 41.7999C41.5311 41.8025 41.5337 41.8078 41.5363 41.8104C41.5469 41.821 41.5548 41.8342 41.5627 41.8474C41.5653 41.8526 41.568 41.8553 41.5706 41.8605L41.6022 41.908C41.6022 41.908 41.6022 41.9106 41.6049 41.9106C41.6928 42.0582 41.7393 42.2267 41.7394 42.3984C41.7394 42.5566 41.6998 42.7069 41.6313 42.8388C41.6233 42.8546 41.6128 42.8704 41.6049 42.8862C41.6049 42.8862 41.6049 42.8889 41.6022 42.8889L41.5706 42.9363C41.568 42.9416 41.5653 42.9442 41.5627 42.9495C41.5548 42.9627 41.5442 42.9732 41.5363 42.9864C41.5337 42.9891 41.5311 42.9943 41.5284 42.997C41.5152 43.0128 41.5047 43.026 41.4915 43.0392L41.4836 43.0471L41.452 43.0787L41.4414 43.0893C41.4282 43.1024 41.415 43.113 41.3992 43.1262C41.3834 43.1394 41.3702 43.1499 41.3544 43.1604C41.3491 43.1631 41.3465 43.1657 41.3412 43.1684C41.328 43.1763 41.3175 43.1868 41.3043 43.1947C41.3017 43.1974 41.2964 43.2 41.2937 43.2026C41.2779 43.2132 41.2621 43.2211 41.2437 43.2316C41.241 43.2343 41.2357 43.2343 41.2331 43.2369C41.2199 43.2448 41.2067 43.2501 41.1909 43.258L41.1751 43.2659C41.1566 43.2738 41.1408 43.2817 41.1224 43.287C41.1039 43.2949 41.0854 43.3002 41.067 43.3055C41.0617 43.3081 41.0564 43.3081 41.0512 43.3107C41.0354 43.316 41.0222 43.3187 41.0063 43.3213C41.0011 43.3213 40.9984 43.3239 40.9932 43.3239C40.9747 43.3292 40.9536 43.3318 40.9352 43.3345C40.9299 43.3345 40.9272 43.3345 40.922 43.3371C40.9062 43.3397 40.8903 43.3397 40.8745 43.3424H40.8587C40.8376 43.3424 40.8191 43.345 40.798 43.345C40.777 43.345 40.7585 43.345 40.7374 43.3424H40.7216C40.7058 43.3424 40.6899 43.3397 40.6741 43.3371C40.6688 43.3371 40.6662 43.3371 40.6609 43.3345C40.6425 43.3318 40.6214 43.3292 40.6029 43.3239C40.5977 43.3239 40.595 43.3213 40.5897 43.3213C40.5739 43.3187 40.5581 43.3134 40.5449 43.3107C40.5396 43.3081 40.5344 43.3081 40.5291 43.3055C40.5106 43.3002 40.4922 43.2949 40.4737 43.287C40.4553 43.2817 40.4395 43.2738 40.421 43.2659L40.4052 43.258C40.392 43.2527 40.3762 43.2448 40.363 43.2369C40.3604 43.2343 40.3551 43.2343 40.3524 43.2316C40.3366 43.2237 40.3182 43.2132 40.3023 43.2026C40.2997 43.2 40.2944 43.1974 40.2918 43.1947C40.2786 43.1868 40.2654 43.1789 40.2549 43.1684C40.2496 43.1657 40.247 43.1631 40.2417 43.1604C40.2259 43.1499 40.2101 43.1367 40.1969 43.1262C40.1837 43.1156 40.1679 43.1024 40.1547 43.0893L40.1441 43.0787L40.1125 43.0471L40.1046 43.0392C40.0914 43.026 40.0782 43.0102 40.0677 42.997C40.065 42.9943 40.0624 42.9891 40.0598 42.9864C40.0492 42.9759 40.0413 42.9627 40.0334 42.9495C40.0308 42.9442 40.0281 42.9416 40.0255 42.9363L39.9938 42.8889V42.8862C39.9833 42.8704 39.9754 42.8546 39.9675 42.8388C39.8989 42.7069 39.8594 42.5566 39.8594 42.3984C39.8594 42.2402 39.8989 42.0899 39.9675 41.9581ZM47.3477 41.2119V47.0391C47.3477 47.1551 47.4426 47.25 47.5586 47.25H48.8242C48.9402 47.25 49.0352 47.1551 49.0352 47.0391V41.2119C48.7688 41.2989 48.4867 41.3438 48.1914 41.3438C47.8961 41.3438 47.614 41.2963 47.3477 41.2119ZM49.0352 35.9912V33.9609C49.0352 33.8449 48.9402 33.75 48.8242 33.75H47.5586C47.4426 33.75 47.3477 33.8449 47.3477 33.9609V35.9912C47.614 35.9042 47.8961 35.8594 48.1914 35.8594C48.4867 35.8594 48.7688 35.9068 49.0352 35.9912ZM47.3477 41.2119C47.614 41.2989 47.8961 41.3438 48.1914 41.3438C48.4867 41.3438 48.7688 41.2963 49.0352 41.2119C50.1373 40.856 50.9336 39.8224 50.9336 38.6016C50.9336 37.3808 50.1373 36.3472 49.0352 35.9912C48.7688 35.9042 48.4867 35.8594 48.1914 35.8594C47.8961 35.8594 47.614 35.9068 47.3477 35.9912C46.2455 36.3472 45.4492 37.3808 45.4492 38.6016C45.4492 39.8224 46.2455 40.856 47.3477 41.2119ZM47.3503 38.1612C47.3582 38.1454 47.3687 38.1296 47.3767 38.1138V38.1111L47.4083 38.0637C47.4109 38.0584 47.4136 38.0558 47.4162 38.0505C47.4241 38.0373 47.4347 38.0268 47.4426 38.0136C47.4452 38.0109 47.4479 38.0057 47.4505 38.003C47.4637 37.9872 47.4742 37.974 47.4874 37.9608L47.4953 37.9529L47.527 37.9213L47.5375 37.9107C47.5507 37.8976 47.5639 37.887 47.5797 37.8738C47.5955 37.8606 47.6087 37.8501 47.6245 37.8396C47.6298 37.8369 47.6324 37.8343 47.6377 37.8316C47.6509 37.8237 47.6614 37.8132 47.6746 37.8053C47.6772 37.8026 47.6825 37.8 47.6852 37.7974C47.701 37.7868 47.7168 37.7789 47.7353 37.7684C47.7379 37.7657 47.7432 37.7657 47.7458 37.7631C47.759 37.7552 47.7722 37.7499 47.788 37.742L47.8038 37.7341C47.8223 37.7262 47.8381 37.7183 47.8565 37.713C47.875 37.7051 47.8935 37.6998 47.9119 37.6945C47.9172 37.6919 47.9225 37.6919 47.9277 37.6893C47.9436 37.684 47.9567 37.6813 47.9726 37.6787C47.9778 37.6787 47.9805 37.6761 47.9857 37.6761C48.0042 37.6708 48.0253 37.6682 48.0438 37.6655C48.049 37.6655 48.0517 37.6655 48.0569 37.6629C48.0728 37.6603 48.0886 37.6603 48.1044 37.6576H48.1202C48.1413 37.6576 48.1598 37.655 48.1809 37.655C48.202 37.655 48.2204 37.655 48.2415 37.6576H48.2573C48.2731 37.6576 48.289 37.6603 48.3048 37.6629C48.3101 37.6629 48.3127 37.6629 48.318 37.6655C48.3364 37.6682 48.3575 37.6708 48.376 37.6761C48.3813 37.6761 48.3839 37.6787 48.3892 37.6787C48.405 37.6813 48.4208 37.6866 48.434 37.6893C48.4393 37.6919 48.4445 37.6919 48.4498 37.6945C48.4683 37.6998 48.4867 37.7051 48.5052 37.713C48.5236 37.7183 48.5395 37.7262 48.5579 37.7341L48.5737 37.742C48.5869 37.7473 48.6027 37.7552 48.6159 37.7631C48.6186 37.7657 48.6238 37.7657 48.6265 37.7684C48.6423 37.7763 48.6607 37.7868 48.6766 37.7974C48.6792 37.8 48.6845 37.8026 48.6871 37.8053C48.7003 37.8132 48.7135 37.8211 48.724 37.8316C48.7293 37.8343 48.7319 37.8369 48.7372 37.8396C48.753 37.8501 48.7688 37.8633 48.782 37.8738C48.7952 37.8844 48.811 37.8976 48.8242 37.9107L48.8348 37.9213L48.8664 37.9529L48.8743 37.9608C48.8875 37.974 48.9007 37.9898 48.9112 38.003C48.9139 38.0057 48.9165 38.0109 48.9191 38.0136C48.9297 38.0241 48.9376 38.0373 48.9455 38.0505C48.9481 38.0558 48.9508 38.0584 48.9534 38.0637L48.9851 38.1111V38.1138C49.073 38.2613 49.1194 38.4298 49.1195 38.6016C49.1195 38.7598 49.08 38.9101 49.0114 39.0419C49.0035 39.0577 48.993 39.0735 48.9851 39.0894V39.092L48.9534 39.1395C48.9508 39.1447 48.9481 39.1474 48.9455 39.1526C48.9376 39.1658 48.9271 39.1764 48.9191 39.1896C48.9165 39.1922 48.9139 39.1975 48.9112 39.2001C48.898 39.2159 48.8875 39.2291 48.8743 39.2423L48.8664 39.2502L48.8348 39.2818L48.8242 39.2924C48.811 39.3056 48.7979 39.3161 48.782 39.3293C48.7662 39.3425 48.753 39.353 48.7372 39.3636C48.7319 39.3662 48.7293 39.3688 48.724 39.3715C48.7108 39.3794 48.7003 39.3899 48.6871 39.3979C48.6845 39.4005 48.6792 39.4031 48.6766 39.4058C48.6607 39.4163 48.6449 39.4242 48.6265 39.4348C48.6238 39.4374 48.6186 39.4374 48.6159 39.44C48.6027 39.4479 48.5896 39.4532 48.5737 39.4611L48.5579 39.469C48.5395 39.477 48.5236 39.4849 48.5052 39.4901C48.4867 39.498 48.4683 39.5033 48.4498 39.5086C48.4445 39.5112 48.4393 39.5112 48.434 39.5139C48.4182 39.5191 48.405 39.5218 48.3892 39.5244C48.3839 39.5244 48.3813 39.5271 48.376 39.5271C48.3575 39.5323 48.3364 39.535 48.318 39.5376C48.3127 39.5376 48.3101 39.5376 48.3048 39.5402C48.289 39.5429 48.2731 39.5429 48.2573 39.5455H48.2415C48.2204 39.5455 48.202 39.5481 48.1809 39.5481C48.1598 39.5481 48.1413 39.5481 48.1202 39.5455H48.1044C48.0886 39.5455 48.0728 39.5429 48.0569 39.5402C48.0517 39.5402 48.049 39.5402 48.0438 39.5376C48.0253 39.535 48.0042 39.5323 47.9857 39.5271C47.9805 39.5271 47.9778 39.5244 47.9726 39.5244C47.9567 39.5218 47.9409 39.5165 47.9277 39.5139C47.9225 39.5112 47.9172 39.5112 47.9119 39.5086C47.8935 39.5033 47.875 39.498 47.8565 39.4901C47.8381 39.4849 47.8223 39.477 47.8038 39.469L47.788 39.4611C47.7748 39.4559 47.759 39.4479 47.7458 39.44C47.7432 39.4374 47.7379 39.4374 47.7353 39.4348C47.7194 39.4269 47.701 39.4163 47.6852 39.4058C47.6825 39.4031 47.6772 39.4005 47.6746 39.3979C47.6614 39.3899 47.6482 39.382 47.6377 39.3715C47.6324 39.3688 47.6298 39.3662 47.6245 39.3636C47.6087 39.353 47.5929 39.3398 47.5797 39.3293C47.5665 39.3188 47.5507 39.3056 47.5375 39.2924L47.527 39.2818L47.4953 39.2502L47.4874 39.2423C47.4742 39.2291 47.461 39.2133 47.4505 39.2001C47.4479 39.1975 47.4452 39.1922 47.4426 39.1896C47.432 39.179 47.4241 39.1658 47.4162 39.1526C47.4136 39.1474 47.4109 39.1447 47.4083 39.1395L47.3767 39.092V39.0894C47.3661 39.0735 47.3582 39.0577 47.3503 39.0419C47.2817 38.9101 47.2422 38.7598 47.2422 38.6016C47.2422 38.4434 47.2817 38.2931 47.3503 38.1612Z" fill="white"/>
<defs>
<filter id="filter0_d" x="0" y="0" width="88" height="88" filterUnits="userSpaceOnUse" color-interpolation-filters="sRGB">
<feFlood flood-opacity="0" result="BackgroundImageFix"/>
<feColorMatrix in="SourceAlpha" type="matrix" values="0 0 0 0 0 0 0 0 0 0 0 0 0 0 0 0 0 0 127 0"/>
<feOffset dy="4"/>
<feGaussianBlur stdDeviation="10"/>
<feColorMatrix type="matrix" values="0 0 0 0 0 0 0 0 0 0 0 0 0 0 0 0 0 0 0.1 0"/>
<feBlend mode="normal" in2="BackgroundImageFix" result="effect1_dropShadow"/>
<feBlend mode="normal" in="SourceGraphic" in2="effect1_dropShadow" result="shape"/>
</filter>
</defs>
</svg>
