<svg width="88" height="88" viewBox="0 0 88 88" fill="none" xmlns="http://www.w3.org/2000/svg">
<g opacity="0.1" filter="url(#filter0_d)">
<circle cx="44" cy="40" r="24" fill="white"/>
</g>
<g clip-path="url(#clip0)">
<path d="M42.15 40.5C45.3536 40.5 47.95 37.926 47.95 34.75C47.95 31.574 45.3536 29 42.15 29C38.9464 29 36.35 31.574 36.35 34.75C36.35 37.926 38.9464 40.5 42.15 40.5ZM46.21 41.9375H45.4533C44.4473 42.3957 43.3281 42.6562 42.15 42.6562C40.9719 42.6562 39.8572 42.3957 38.8467 41.9375H38.09C34.7278 41.9375 32 44.6418 32 47.975V49.8438C32 51.0342 32.9742 52 34.175 52H50.125C51.3258 52 52.3 51.0342 52.3 49.8438V47.975C52.3 44.6418 49.5722 41.9375 46.21 41.9375ZM60.8459 36.1695L59.5863 34.9072C59.3778 34.6961 59.038 34.6961 58.825 34.9027L54.0763 39.5746L52.0145 37.5172C51.8061 37.3061 51.4662 37.3061 51.2533 37.5127L49.98 38.766C49.767 38.9727 49.767 39.3096 49.9755 39.5207L53.6775 43.2178C53.8859 43.4289 54.2258 43.4289 54.4388 43.2223L60.8414 36.9242C61.0498 36.7131 61.0544 36.3762 60.8459 36.1695Z" fill="white"/>
</g>
<defs>
<filter id="filter0_d" x="0" y="0" width="88" height="88" filterUnits="userSpaceOnUse" color-interpolation-filters="sRGB">
<feFlood flood-opacity="0" result="BackgroundImageFix"/>
<feColorMatrix in="SourceAlpha" type="matrix" values="0 0 0 0 0 0 0 0 0 0 0 0 0 0 0 0 0 0 127 0"/>
<feOffset dy="4"/>
<feGaussianBlur stdDeviation="10"/>
<feColorMatrix type="matrix" values="0 0 0 0 0 0 0 0 0 0 0 0 0 0 0 0 0 0 0.1 0"/>
<feBlend mode="normal" in2="BackgroundImageFix" result="effect1_dropShadow"/>
<feBlend mode="normal" in="SourceGraphic" in2="effect1_dropShadow" result="shape"/>
</filter>
<clipPath id="clip0">
<rect x="32" y="29" width="29" height="23" fill="white"/>
</clipPath>
</defs>
</svg>
