<svg width="88" height="88" viewBox="0 0 88 88" fill="none" xmlns="http://www.w3.org/2000/svg">
<g opacity="0.1" filter="url(#filter0_d)">
<circle cx="44" cy="40" r="24" fill="white"/>
</g>
<path d="M47.7881 31.481C48.2958 31.481 48.763 31.579 49.19 31.7752C50.4571 32.413 51.2053 33.6251 51.2148 34.9768V44.2876C50.9771 45.7677 49.2829 45.3652 49.2419 44.2876V35.496C49.0909 34.9947 48.1228 35.2025 48.0997 35.496V55.6751C47.8535 57.7356 45.1909 57.1308 45.123 55.6405V43.2838C44.9528 42.4868 43.8323 42.849 43.8077 43.3184C43.8553 47.4257 43.8424 51.5331 43.8424 55.6405C43.5768 57.6904 40.9272 57.1659 40.8657 55.6751L40.8311 35.496C40.6759 35.0055 39.7789 35.1936 39.7581 35.496V44.2876C39.5204 45.7677 37.8262 45.3652 37.7852 44.2876V34.9768C37.8091 33.6828 38.2834 32.3864 39.4119 31.7752C39.7812 31.579 40.2311 31.4809 40.7618 31.4809L47.7881 31.481ZM47.7532 27.2526C47.7532 29.049 46.297 30.5053 44.5006 30.5053C42.7042 30.5053 41.248 29.049 41.248 27.2526C41.248 25.4563 42.7042 24 44.5005 24C46.297 24 47.7532 25.4563 47.7532 27.2526Z" fill="white"/>
<defs>
<filter id="filter0_d" x="0" y="0" width="88" height="88" filterUnits="userSpaceOnUse" color-interpolation-filters="sRGB">
<feFlood flood-opacity="0" result="BackgroundImageFix"/>
<feColorMatrix in="SourceAlpha" type="matrix" values="0 0 0 0 0 0 0 0 0 0 0 0 0 0 0 0 0 0 127 0"/>
<feOffset dy="4"/>
<feGaussianBlur stdDeviation="10"/>
<feColorMatrix type="matrix" values="0 0 0 0 0 0 0 0 0 0 0 0 0 0 0 0 0 0 0.1 0"/>
<feBlend mode="normal" in2="BackgroundImageFix" result="effect1_dropShadow"/>
<feBlend mode="normal" in="SourceGraphic" in2="effect1_dropShadow" result="shape"/>
</filter>
</defs>
</svg>
