<svg width="88" height="88" viewBox="0 0 88 88" fill="none" xmlns="http://www.w3.org/2000/svg">
<g opacity="0.1" filter="url(#filter0_d)">
<circle cx="44" cy="40" r="24" fill="white"/>
</g>
<path d="M49.7898 35.7486H48.808V30.5548H49.7898V35.7486ZM40.087 30.5548H39.1052V35.7486H40.087V30.5548ZM54.8143 29.8553H53.8325V37.9013H54.8143V29.8553ZM35.1215 29.8553H34.1396V37.9013H35.1215V29.8553ZM45.1311 37.2312H46.2037C46.4032 37.2315 46.5966 37.3005 46.7512 37.4265C46.9059 37.5526 47.0124 37.728 47.053 37.9233L49.6057 50.1642H53.0912V51.5461H35.9094V50.1642H39.4292L41.9819 37.9233C42.0232 37.7295 42.1294 37.5555 42.2829 37.4301C42.4364 37.3047 42.6281 37.2354 42.8263 37.2336H43.9063V34.1483C43.4369 34.0167 43.0231 33.736 42.7274 33.3485C42.4316 32.9611 42.2699 32.488 42.2666 32.0005C42.2633 31.5751 42.3792 31.1572 42.6013 30.7944C42.8235 30.4315 43.1429 30.1382 43.5233 29.9478C43.9038 29.7573 44.33 29.6773 44.7536 29.7169C45.1772 29.7565 45.5812 29.914 45.9198 30.1716C46.2584 30.4293 46.5179 30.7767 46.669 31.1744C46.8201 31.5721 46.8566 32.0042 46.7745 32.4217C46.6924 32.8391 46.4948 33.2252 46.2044 33.536C45.9139 33.8468 45.542 34.07 45.1311 34.1802V37.2312ZM42.7747 42.6017H46.2577L45.4993 38.9665H43.5332L42.7747 42.6017ZM41.7586 47.4838H47.2739L46.4124 43.3405H42.6226L41.7586 47.4838ZM47.8336 50.1642L47.4286 48.2226H41.6039L41.1989 50.1617L47.8336 50.1642Z" fill="white"/>
<defs>
<filter id="filter0_d" x="0" y="0" width="88" height="88" filterUnits="userSpaceOnUse" color-interpolation-filters="sRGB">
<feFlood flood-opacity="0" result="BackgroundImageFix"/>
<feColorMatrix in="SourceAlpha" type="matrix" values="0 0 0 0 0 0 0 0 0 0 0 0 0 0 0 0 0 0 127 0"/>
<feOffset dy="4"/>
<feGaussianBlur stdDeviation="10"/>
<feColorMatrix type="matrix" values="0 0 0 0 0 0 0 0 0 0 0 0 0 0 0 0 0 0 0.1 0"/>
<feBlend mode="normal" in2="BackgroundImageFix" result="effect1_dropShadow"/>
<feBlend mode="normal" in="SourceGraphic" in2="effect1_dropShadow" result="shape"/>
</filter>
</defs>
</svg>
