<svg width="88" height="88" viewBox="0 0 88 88" fill="none" xmlns="http://www.w3.org/2000/svg">
<g opacity="0.1" filter="url(#filter0_d)">
<circle cx="44" cy="40" r="24" fill="white"/>
</g>
<path d="M50.5303 36.1797C50.5303 32.835 47.8204 30.125 44.4756 30.125C41.1309 30.125 38.4209 32.835 38.4209 36.1797C38.4209 38.2012 39.4122 39.9932 40.9356 41.0918C40.9258 41.0967 40.9185 41.0991 40.9136 41.1016C39.8223 41.563 38.8433 42.2246 38.001 43.0693C37.1587 43.9116 36.4996 44.8931 36.0381 45.9868C35.5865 47.0562 35.3448 48.1914 35.3204 49.3584C35.3179 49.4683 35.4058 49.5586 35.5157 49.5586H36.9781C37.0831 49.5586 37.1709 49.4731 37.1734 49.3682C37.2222 47.4834 37.9766 45.7183 39.3121 44.3804C40.6915 42.9961 42.5225 42.2344 44.4756 42.2344C47.8204 42.2344 50.5303 39.5244 50.5303 36.1797ZM44.4756 40.3789C42.1563 40.3789 40.2764 38.499 40.2764 36.1797C40.2764 33.8604 42.1563 31.9805 44.4756 31.9805C46.795 31.9805 48.6749 33.8604 48.6749 36.1797C48.6749 38.499 46.795 40.3789 44.4756 40.3789ZM47.0391 45.7744H53.4844C53.5918 45.7744 53.6797 45.6865 53.6797 45.5791V44.2119C53.6797 44.1045 53.5918 44.0166 53.4844 44.0166H49.1753L50.3277 42.5493C50.3545 42.5151 50.3692 42.4712 50.3692 42.4297C50.3692 42.3223 50.2813 42.2344 50.1739 42.2344H48.4014C48.2818 42.2344 48.1695 42.2905 48.0938 42.3833L46.4214 44.5098C46.314 44.6465 46.2554 44.8174 46.2554 44.9932C46.2579 45.4253 46.607 45.7744 47.0391 45.7744ZM52.8985 47.3369H46.4532C46.3458 47.3369 46.2579 47.4248 46.2579 47.5322V48.8994C46.2579 49.0068 46.3458 49.0947 46.4532 49.0947H50.7623L49.6099 50.562C49.5831 50.5962 49.5684 50.6401 49.5684 50.6816C49.5684 50.7891 49.6563 50.877 49.7637 50.877H51.5362C51.6558 50.877 51.7681 50.8208 51.8438 50.728L53.5162 48.6016C53.6236 48.4648 53.6822 48.2939 53.6822 48.1182C53.6797 47.686 53.3306 47.3369 52.8985 47.3369Z" fill="white"/>
<defs>
<filter id="filter0_d" x="0" y="0" width="88" height="88" filterUnits="userSpaceOnUse" color-interpolation-filters="sRGB">
<feFlood flood-opacity="0" result="BackgroundImageFix"/>
<feColorMatrix in="SourceAlpha" type="matrix" values="0 0 0 0 0 0 0 0 0 0 0 0 0 0 0 0 0 0 127 0"/>
<feOffset dy="4"/>
<feGaussianBlur stdDeviation="10"/>
<feColorMatrix type="matrix" values="0 0 0 0 0 0 0 0 0 0 0 0 0 0 0 0 0 0 0.1 0"/>
<feBlend mode="normal" in2="BackgroundImageFix" result="effect1_dropShadow"/>
<feBlend mode="normal" in="SourceGraphic" in2="effect1_dropShadow" result="shape"/>
</filter>
</defs>
</svg>
