<svg width="130" height="130" viewBox="0 0 130 130" fill="none" xmlns="http://www.w3.org/2000/svg">
<g filter="url(#filter0_d)">
<circle cx="65" cy="61" r="45" fill="white"/>
</g>
<path d="M43.839 38H86.159C86.647 38 87.115 38.1939 87.4601 38.5389C87.8052 38.884 87.999 39.352 87.999 39.84V82.16C87.999 82.648 87.8052 83.116 87.4601 83.4611C87.115 83.8061 86.647 84 86.159 84H43.839C43.351 84 42.883 83.8061 42.5379 83.4611C42.1929 83.116 41.999 82.648 41.999 82.16V39.84C41.999 39.352 42.1929 38.884 42.5379 38.5389C42.883 38.1939 43.351 38 43.839 38V38Z" fill="#EBEDEE"/>
<path d="M47 47H83V79H47V47Z" fill="white"/>
<path d="M48 41C48.2652 41 48.5196 41.158 48.7071 41.4393C48.8946 41.7206 49 42.1022 49 42.5C49 42.8978 48.8946 43.2794 48.7071 43.5607C48.5196 43.842 48.2652 44 48 44C47.7348 44 47.4804 43.842 47.2929 43.5607C47.1054 43.2794 47 42.8978 47 42.5C47 42.1022 47.1054 41.7206 47.2929 41.4393C47.4804 41.158 47.7348 41 48 41Z" fill="#E74C3C"/>
<path d="M52.5 41C52.8978 41 53.2794 41.158 53.5607 41.4393C53.842 41.7206 54 42.1022 54 42.5C54 42.8978 53.842 43.2794 53.5607 43.5607C53.2794 43.842 52.8978 44 52.5 44C52.1022 44 51.7206 43.842 51.4393 43.5607C51.158 43.2794 51 42.8978 51 42.5C51 42.1022 51.158 41.7206 51.4393 41.4393C51.7206 41.158 52.1022 41 52.5 41Z" fill="#F39C12"/>
<path d="M57.5 41C57.8978 41 58.2794 41.158 58.5607 41.4393C58.842 41.7206 59 42.1022 59 42.5C59 42.8978 58.842 43.2794 58.5607 43.5607C58.2794 43.842 57.8978 44 57.5 44C57.1022 44 56.7206 43.842 56.4393 43.5607C56.158 43.2794 56 42.8978 56 42.5C56 42.1022 56.158 41.7206 56.4393 41.4393C56.7206 41.158 57.1022 41 57.5 41Z" fill="#17A085"/>
<path d="M63 41H83V44H63V41Z" fill="white"/>
<path d="M51 59V61.2857H63V59H51ZM51 65.8571H63V63.5714H51V65.8571ZM51 70.4286H63V68.1429H51V70.4286ZM51 75H63V72.7143H51V75Z" fill="#BDC3C7"/>
<path d="M51 52H79V56H51V52Z" fill="#1ABC9C"/>
<path d="M64.999 59V65.8571H78.999V59H64.999ZM64.999 75H78.999V68.1429H64.999V75Z" fill="#BDC3C7"/>
<defs>
<filter id="filter0_d" x="0" y="0" width="130" height="130" filterUnits="userSpaceOnUse" color-interpolation-filters="sRGB">
<feFlood flood-opacity="0" result="BackgroundImageFix"/>
<feColorMatrix in="SourceAlpha" type="matrix" values="0 0 0 0 0 0 0 0 0 0 0 0 0 0 0 0 0 0 127 0"/>
<feOffset dy="4"/>
<feGaussianBlur stdDeviation="10"/>
<feColorMatrix type="matrix" values="0 0 0 0 0 0 0 0 0 0 0 0 0 0 0 0 0 0 0.1 0"/>
<feBlend mode="normal" in2="BackgroundImageFix" result="effect1_dropShadow"/>
<feBlend mode="normal" in="SourceGraphic" in2="effect1_dropShadow" result="shape"/>
</filter>
</defs>
</svg>
