<svg width="130" height="130" viewBox="0 0 130 130" fill="none" xmlns="http://www.w3.org/2000/svg">
<g filter="url(#filter0_d)">
<circle cx="65" cy="61" r="45" fill="white"/>
</g>
<path d="M73.1318 41.5918L87.3805 43.5076L75.6463 55.2418L73.1318 41.5918Z" fill="#9C27B0"/>
<path d="M56.3678 79.9078L42.1191 77.992L53.8533 66.2578L56.3678 79.9078Z" fill="#9C27B0"/>
<path d="M45.5928 52.3678L47.5086 38.1191L59.2428 49.8533L45.5928 52.3678Z" fill="#9C27B0"/>
<path d="M47.1497 57.3984L42.1207 58.3563C42.001 59.1945 42.001 59.9129 42.001 60.7511C42.001 66.259 43.9168 71.5274 47.5089 75.5984L51.101 72.4853C48.347 69.2524 46.7905 65.0616 46.7905 60.7511C46.7905 59.6734 46.9102 58.4761 47.1497 57.3984Z" fill="#9C27B0"/>
<path d="M64.7506 38C58.2848 38 52.5375 40.7539 48.3467 45.0645L51.6993 48.4171C55.0519 44.9447 59.6019 42.7895 64.7506 42.7895C65.8283 42.7895 67.0256 42.9092 68.1033 43.1487L68.9414 38.4789C67.6243 38.1197 66.1875 38 64.7506 38Z" fill="#9C27B0"/>
<path d="M82.3505 64.1025L87.3795 63.1446C87.4992 62.3065 87.4992 61.588 87.4992 60.7499C87.4992 55.4815 85.7031 50.3328 82.3505 46.2617L78.6387 49.2551C81.2729 52.488 82.7097 56.5591 82.7097 60.6301C82.7097 61.8275 82.59 63.0249 82.3505 64.1025Z" fill="#9C27B0"/>
<path d="M77.8017 73.082C74.449 76.5544 69.899 78.7097 64.7504 78.7097C63.6727 78.7097 62.4754 78.5899 61.3977 78.3505L60.5596 83.0202C61.9964 83.2597 63.4333 83.3794 64.7504 83.3794C71.2161 83.3794 76.9635 80.6255 81.1543 76.3149L77.8017 73.082Z" fill="#9C27B0"/>
<path d="M83.9088 69.1309L81.993 83.3795L70.2588 71.6453L83.9088 69.1309Z" fill="#9C27B0"/>
<defs>
<filter id="filter0_d" x="0" y="0" width="130" height="130" filterUnits="userSpaceOnUse" color-interpolation-filters="sRGB">
<feFlood flood-opacity="0" result="BackgroundImageFix"/>
<feColorMatrix in="SourceAlpha" type="matrix" values="0 0 0 0 0 0 0 0 0 0 0 0 0 0 0 0 0 0 127 0"/>
<feOffset dy="4"/>
<feGaussianBlur stdDeviation="10"/>
<feColorMatrix type="matrix" values="0 0 0 0 0 0 0 0 0 0 0 0 0 0 0 0 0 0 0.1 0"/>
<feBlend mode="normal" in2="BackgroundImageFix" result="effect1_dropShadow"/>
<feBlend mode="normal" in="SourceGraphic" in2="effect1_dropShadow" result="shape"/>
</filter>
</defs>
</svg>
