<svg width="130" height="130" viewBox="0 0 130 130" fill="none" xmlns="http://www.w3.org/2000/svg">
<g filter="url(#filter0_d)">
<circle cx="65" cy="61" r="45" fill="white"/>
</g>
<path d="M74.1406 59.7305L77.4414 63.0312L73.3281 67.1445C73.0234 67.4492 73.0234 67.7539 73.3281 68.0586L74.1914 68.9219C74.4961 69.2266 74.8008 69.2266 75.1055 68.9219L79.2188 64.8086L85.5664 71.1562L81.4531 75.2695C81.1484 75.5742 81.1484 75.862 81.4531 76.1328L82.3164 77.0469C82.6211 77.3516 82.9258 77.3516 83.2305 77.0469L87.3438 72.9336L90.543 76.1328C90.8477 76.4375 91 76.8099 91 77.25C91 77.6901 90.8477 78.0794 90.543 78.418L82.418 86.543C82.0794 86.8477 81.6901 87 81.25 87C80.8099 87 80.4375 86.8477 80.1328 86.543L63.7305 70.1406L54.1836 79.6875C53.6419 80.2292 52.9818 80.5 52.2031 80.5C51.4245 80.5 50.7643 80.2292 50.2227 79.6875L46.3633 75.7773C45.8216 75.2357 45.5508 74.584 45.5508 73.8223C45.5508 73.0605 45.8216 72.4089 46.3633 71.8672L55.9102 62.3203L39.457 45.8672C39.1523 45.5625 39 45.1901 39 44.75C39 44.3099 39.1523 43.9375 39.457 43.6328L47.582 35.457C47.9206 35.1523 48.3099 35 48.75 35C49.1901 35 49.5625 35.1523 49.8672 35.457L53.0664 38.6562L48.9531 42.7695C48.6484 43.0742 48.6484 43.3789 48.9531 43.6836L49.8164 44.5469C50.1211 44.8516 50.4258 44.8516 50.7305 44.5469L54.8438 40.4336L61.1914 46.7812L57.0781 50.8945C56.7734 51.1992 56.7734 51.5039 57.0781 51.8086L57.9414 52.6719C58.2461 52.9766 58.5508 52.9766 58.8555 52.6719L62.9688 48.5586L66.2695 51.9102L82.3672 35.8125C82.9089 35.2708 83.5606 35 84.3223 35C85.084 35 85.7357 35.2708 86.2773 35.8125L90.1875 39.7227C90.7292 40.2643 91 40.916 91 41.6777C91 42.4395 90.7292 43.0911 90.1875 43.6328L74.1406 59.7305ZM42.3516 76.0312C42.4193 76.3021 42.5378 76.5221 42.707 76.6914L49.3086 83.293C49.4779 83.4622 49.6979 83.5807 49.9688 83.6484C49.7995 83.987 49.6641 84.1901 49.5625 84.2578L40.625 87C39.8125 87 39.3385 86.9323 39.2031 86.7969C39.0677 86.6615 39 86.1875 39 85.375L41.7422 76.4375C41.8099 76.3698 42.013 76.2344 42.3516 76.0312Z" fill="#EB5757"/>
<defs>
<filter id="filter0_d" x="0" y="0" width="130" height="130" filterUnits="userSpaceOnUse" color-interpolation-filters="sRGB">
<feFlood flood-opacity="0" result="BackgroundImageFix"/>
<feColorMatrix in="SourceAlpha" type="matrix" values="0 0 0 0 0 0 0 0 0 0 0 0 0 0 0 0 0 0 127 0"/>
<feOffset dy="4"/>
<feGaussianBlur stdDeviation="10"/>
<feColorMatrix type="matrix" values="0 0 0 0 0 0 0 0 0 0 0 0 0 0 0 0 0 0 0.1 0"/>
<feBlend mode="normal" in2="BackgroundImageFix" result="effect1_dropShadow"/>
<feBlend mode="normal" in="SourceGraphic" in2="effect1_dropShadow" result="shape"/>
</filter>
</defs>
</svg>
