<svg width="1920" height="1080" viewBox="0 0 1920 1080" fill="none" xmlns="http://www.w3.org/2000/svg">
<rect width="1920" height="1080" fill="url(#paint0_radial_695_46591)"/>
<g style="mix-blend-mode:overlay" opacity="0.25">
<path fill-rule="evenodd" clip-rule="evenodd" d="M537 964L637.616 350.881C751.162 350.881 837.23 452.932 819.047 564.703L783.892 778.12H862.687C902.287 778.12 937.442 771.236 968.152 757.467C999.266 743.293 1025.13 719.805 1046.14 686.598C1067.15 653.391 1082.51 607.629 1091.8 550.124C1100.69 495.454 1100.29 453.337 1090.99 423.775C1081.7 393.807 1063.92 373.154 1037.65 361.815C1011.39 350.071 977.446 343.996 936.23 343.996L858.242 342.781C699.844 342.781 651.354 220.076 646.909 158.521H968.96C1050.99 158.521 1119.28 174.72 1174.23 208.332C1229.19 241.54 1268.38 289.326 1291.41 350.881C1314.45 412.84 1318.89 486.544 1305.15 571.992C1291.82 654.201 1264.34 724.665 1223.13 782.98C1181.91 841.295 1129.78 886.246 1065.94 917.024C1002.5 947.801 930.168 963.595 848.949 963.595H537V964Z" fill="white"/>
<path fill-rule="evenodd" clip-rule="evenodd" d="M725.302 158.926H968.557C1050.58 158.926 1118.87 175.125 1173.83 208.737C1228.78 241.945 1267.98 289.731 1291.01 351.286C1314.04 413.245 1318.49 486.949 1304.75 572.397C1291.42 654.605 1263.94 725.07 1222.72 783.385C1197.67 818.617 1168.98 848.989 1135.44 874.502C1135.44 874.502 1135.44 874.502 1135.85 874.502C1199.69 843.725 1252.22 798.774 1293.03 740.458C1334.25 682.143 1361.73 611.679 1375.06 529.471C1389.2 444.023 1384.35 370.319 1361.32 308.359C1338.29 246.399 1299.09 199.018 1244.14 165.811C1189.59 132.199 1121.3 116 1039.27 116H716.816C717.624 128.554 720.453 143.133 725.302 158.926Z" fill="white" fill-opacity="0.5"/>
</g>
<path d="M515.32 503H499.502L523.604 433.182H542.627L566.695 503H550.877L533.388 449.136H532.842L515.32 503ZM514.331 475.557H551.695V487.08H514.331V475.557ZM589.763 503.852C585.786 503.852 582.184 502.83 578.957 500.784C575.752 498.716 573.207 495.682 571.32 491.682C569.457 487.659 568.525 482.727 568.525 476.886C568.525 470.886 569.491 465.898 571.423 461.92C573.354 457.92 575.923 454.932 579.127 452.955C582.354 450.955 585.888 449.955 589.729 449.955C592.661 449.955 595.104 450.455 597.059 451.455C599.036 452.432 600.627 453.659 601.832 455.136C603.059 456.591 603.991 458.023 604.627 459.432H605.07V433.182H619.559V503H605.241V494.614H604.627C603.945 496.068 602.979 497.511 601.729 498.943C600.502 500.352 598.9 501.523 596.923 502.455C594.968 503.386 592.582 503.852 589.763 503.852ZM594.366 492.295C596.707 492.295 598.684 491.659 600.298 490.386C601.934 489.091 603.184 487.284 604.048 484.966C604.934 482.648 605.377 479.932 605.377 476.818C605.377 473.705 604.945 471 604.082 468.705C603.218 466.409 601.968 464.636 600.332 463.386C598.695 462.136 596.707 461.511 594.366 461.511C591.979 461.511 589.968 462.159 588.332 463.455C586.695 464.75 585.457 466.545 584.616 468.841C583.775 471.136 583.354 473.795 583.354 476.818C583.354 479.864 583.775 482.557 584.616 484.898C585.479 487.216 586.718 489.034 588.332 490.352C589.968 491.648 591.979 492.295 594.366 492.295ZM648.875 503.852C644.897 503.852 641.295 502.83 638.068 500.784C634.863 498.716 632.318 495.682 630.431 491.682C628.568 487.659 627.636 482.727 627.636 476.886C627.636 470.886 628.602 465.898 630.534 461.92C632.466 457.92 635.034 454.932 638.238 452.955C641.466 450.955 645 449.955 648.841 449.955C651.772 449.955 654.216 450.455 656.17 451.455C658.147 452.432 659.738 453.659 660.943 455.136C662.17 456.591 663.102 458.023 663.738 459.432H664.181V433.182H678.67V503H664.352V494.614H663.738C663.056 496.068 662.091 497.511 660.841 498.943C659.613 500.352 658.011 501.523 656.034 502.455C654.079 503.386 651.693 503.852 648.875 503.852ZM653.477 492.295C655.818 492.295 657.795 491.659 659.409 490.386C661.045 489.091 662.295 487.284 663.159 484.966C664.045 482.648 664.488 479.932 664.488 476.818C664.488 473.705 664.056 471 663.193 468.705C662.329 466.409 661.079 464.636 659.443 463.386C657.806 462.136 655.818 461.511 653.477 461.511C651.091 461.511 649.079 462.159 647.443 463.455C645.806 464.75 644.568 466.545 643.727 468.841C642.886 471.136 642.466 473.795 642.466 476.818C642.466 479.864 642.886 482.557 643.727 484.898C644.591 487.216 645.829 489.034 647.443 490.352C649.079 491.648 651.091 492.295 653.477 492.295ZM688.69 503V450.636H703.213V503H688.69ZM695.986 443.886C693.827 443.886 691.975 443.17 690.429 441.739C688.906 440.284 688.145 438.545 688.145 436.523C688.145 434.523 688.906 432.807 690.429 431.375C691.975 429.92 693.827 429.193 695.986 429.193C698.145 429.193 699.986 429.92 701.509 431.375C703.054 432.807 703.827 434.523 703.827 436.523C703.827 438.545 703.054 440.284 701.509 441.739C699.986 443.17 698.145 443.886 695.986 443.886ZM727.449 472.727V503H712.927V450.636H726.768V459.875H727.381C728.54 456.83 730.484 454.42 733.211 452.648C735.938 450.852 739.245 449.955 743.131 449.955C746.768 449.955 749.938 450.75 752.643 452.341C755.347 453.932 757.449 456.205 758.949 459.159C760.449 462.091 761.199 465.591 761.199 469.659V503H746.677V472.25C746.699 469.045 745.881 466.545 744.222 464.75C742.563 462.932 740.279 462.023 737.37 462.023C735.415 462.023 733.688 462.443 732.188 463.284C730.711 464.125 729.552 465.352 728.711 466.966C727.893 468.557 727.472 470.477 727.449 472.727ZM794.316 523.727C789.612 523.727 785.578 523.08 782.214 521.784C778.873 520.511 776.214 518.773 774.237 516.568C772.26 514.364 770.975 511.886 770.385 509.136L783.816 507.33C784.225 508.375 784.873 509.352 785.76 510.261C786.646 511.17 787.816 511.898 789.271 512.443C790.748 513.011 792.544 513.295 794.657 513.295C797.816 513.295 800.419 512.523 802.464 510.977C804.532 509.455 805.566 506.898 805.566 503.307V493.727H804.953C804.316 495.182 803.362 496.557 802.089 497.852C800.816 499.148 799.18 500.205 797.18 501.023C795.18 501.841 792.794 502.25 790.021 502.25C786.089 502.25 782.51 501.341 779.282 499.523C776.078 497.682 773.521 494.875 771.612 491.102C769.725 487.307 768.782 482.511 768.782 476.716C768.782 470.784 769.748 465.83 771.68 461.852C773.612 457.875 776.18 454.898 779.385 452.92C782.612 450.943 786.146 449.955 789.987 449.955C792.919 449.955 795.373 450.455 797.35 451.455C799.328 452.432 800.919 453.659 802.123 455.136C803.35 456.591 804.294 458.023 804.953 459.432H805.498V450.636H819.919V503.511C819.919 507.966 818.828 511.693 816.646 514.693C814.464 517.693 811.441 519.943 807.578 521.443C803.737 522.966 799.316 523.727 794.316 523.727ZM794.623 491.341C796.964 491.341 798.941 490.761 800.555 489.602C802.191 488.42 803.441 486.739 804.305 484.557C805.191 482.352 805.635 479.716 805.635 476.648C805.635 473.58 805.203 470.92 804.339 468.67C803.475 466.398 802.225 464.636 800.589 463.386C798.953 462.136 796.964 461.511 794.623 461.511C792.237 461.511 790.225 462.159 788.589 463.455C786.953 464.727 785.714 466.5 784.873 468.773C784.032 471.045 783.612 473.67 783.612 476.648C783.612 479.67 784.032 482.284 784.873 484.489C785.737 486.67 786.975 488.364 788.589 489.568C790.225 490.75 792.237 491.341 794.623 491.341ZM864.786 503.989C861.445 503.989 858.468 503.409 855.854 502.25C853.241 501.068 851.172 499.33 849.65 497.034C848.15 494.716 847.4 491.83 847.4 488.375C847.4 485.466 847.934 483.023 849.002 481.045C850.07 479.068 851.525 477.477 853.366 476.273C855.206 475.068 857.297 474.159 859.638 473.545C862.002 472.932 864.479 472.5 867.07 472.25C870.116 471.932 872.57 471.636 874.434 471.364C876.297 471.068 877.65 470.636 878.491 470.068C879.331 469.5 879.752 468.659 879.752 467.545V467.341C879.752 465.182 879.07 463.511 877.706 462.33C876.366 461.148 874.456 460.557 871.979 460.557C869.366 460.557 867.286 461.136 865.741 462.295C864.195 463.432 863.172 464.864 862.672 466.591L849.241 465.5C849.922 462.318 851.263 459.568 853.263 457.25C855.263 454.909 857.843 453.114 861.002 451.864C864.184 450.591 867.866 449.955 872.047 449.955C874.956 449.955 877.741 450.295 880.4 450.977C883.081 451.659 885.456 452.716 887.525 454.148C889.616 455.58 891.263 457.42 892.468 459.67C893.672 461.898 894.275 464.568 894.275 467.682V503H880.502V495.739H880.093C879.252 497.375 878.127 498.818 876.718 500.068C875.309 501.295 873.616 502.261 871.638 502.966C869.661 503.648 867.377 503.989 864.786 503.989ZM868.945 493.966C871.081 493.966 872.968 493.545 874.604 492.705C876.241 491.841 877.525 490.682 878.456 489.227C879.388 487.773 879.854 486.125 879.854 484.284V478.727C879.4 479.023 878.775 479.295 877.979 479.545C877.206 479.773 876.331 479.989 875.354 480.193C874.377 480.375 873.4 480.545 872.422 480.705C871.445 480.841 870.559 480.966 869.763 481.08C868.059 481.33 866.57 481.727 865.297 482.273C864.025 482.818 863.036 483.557 862.331 484.489C861.627 485.398 861.275 486.534 861.275 487.898C861.275 489.875 861.991 491.386 863.422 492.432C864.877 493.455 866.718 493.966 868.945 493.966ZM982.591 433.182V503H969.841L939.466 459.057H938.955V503H924.193V433.182H937.148L967.284 477.091H967.898V433.182H982.591ZM1016.46 504.023C1011.07 504.023 1006.44 502.932 1002.55 500.75C998.685 498.545 995.708 495.432 993.617 491.409C991.526 487.364 990.481 482.58 990.481 477.057C990.481 471.67 991.526 466.943 993.617 462.875C995.708 458.807 998.651 455.636 1002.45 453.364C1006.26 451.091 1010.74 449.955 1015.88 449.955C1019.33 449.955 1022.55 450.511 1025.53 451.625C1028.53 452.716 1031.14 454.364 1033.37 456.568C1035.62 458.773 1037.37 461.545 1038.62 464.886C1039.87 468.205 1040.49 472.091 1040.49 476.545V480.534H996.276V471.534H1026.82C1026.82 469.443 1026.37 467.591 1025.46 465.977C1024.55 464.364 1023.29 463.102 1021.67 462.193C1020.08 461.261 1018.23 460.795 1016.12 460.795C1013.91 460.795 1011.96 461.307 1010.25 462.33C1008.57 463.33 1007.25 464.682 1006.3 466.386C1005.34 468.068 1004.86 469.943 1004.83 472.011V480.568C1004.83 483.159 1005.31 485.398 1006.26 487.284C1007.24 489.17 1008.62 490.625 1010.39 491.648C1012.16 492.67 1014.26 493.182 1016.7 493.182C1018.31 493.182 1019.79 492.955 1021.13 492.5C1022.47 492.045 1023.62 491.364 1024.57 490.455C1025.53 489.545 1026.25 488.432 1026.75 487.114L1040.19 488C1039.5 491.227 1038.11 494.045 1035.99 496.455C1033.9 498.841 1031.2 500.705 1027.88 502.045C1024.58 503.364 1020.78 504.023 1016.46 504.023ZM1058 503L1043.75 450.636H1058.45L1066.56 485.818H1067.04L1075.49 450.636H1089.91L1098.5 485.614H1098.95L1106.92 450.636H1121.58L1107.37 503H1091.99L1082.99 470.068H1082.34L1073.34 503H1058ZM1147.98 503V433.182H1175.53C1180.8 433.182 1185.3 434.125 1189.03 436.011C1192.78 437.875 1195.63 440.523 1197.58 443.955C1199.56 447.364 1200.55 451.375 1200.55 455.989C1200.55 460.625 1199.55 464.614 1197.55 467.955C1195.55 471.273 1192.65 473.818 1188.86 475.591C1185.08 477.364 1180.52 478.25 1175.15 478.25H1156.71V466.386H1172.77C1175.58 466.386 1177.93 466 1179.79 465.227C1181.65 464.455 1183.04 463.295 1183.95 461.75C1184.88 460.205 1185.35 458.284 1185.35 455.989C1185.35 453.67 1184.88 451.716 1183.95 450.125C1183.04 448.534 1181.64 447.33 1179.75 446.511C1177.89 445.67 1175.54 445.25 1172.7 445.25H1162.74V503H1147.98ZM1185.69 471.227L1203.04 503H1186.74L1169.77 471.227H1185.69ZM1231.6 504.023C1226.31 504.023 1221.73 502.898 1217.87 500.648C1214.03 498.375 1211.06 495.216 1208.97 491.17C1206.88 487.102 1205.83 482.386 1205.83 477.023C1205.83 471.614 1206.88 466.886 1208.97 462.841C1211.06 458.773 1214.03 455.614 1217.87 453.364C1221.73 451.091 1226.31 449.955 1231.6 449.955C1236.9 449.955 1241.47 451.091 1245.31 453.364C1249.17 455.614 1252.15 458.773 1254.24 462.841C1256.33 466.886 1257.38 471.614 1257.38 477.023C1257.38 482.386 1256.33 487.102 1254.24 491.17C1252.15 495.216 1249.17 498.375 1245.31 500.648C1241.47 502.898 1236.9 504.023 1231.6 504.023ZM1231.67 492.773C1234.08 492.773 1236.09 492.091 1237.71 490.727C1239.32 489.341 1240.54 487.455 1241.35 485.068C1242.2 482.682 1242.62 479.966 1242.62 476.92C1242.62 473.875 1242.2 471.159 1241.35 468.773C1240.54 466.386 1239.32 464.5 1237.71 463.114C1236.09 461.727 1234.08 461.034 1231.67 461.034C1229.24 461.034 1227.2 461.727 1225.54 463.114C1223.9 464.5 1222.66 466.386 1221.82 468.773C1221 471.159 1220.59 473.875 1220.59 476.92C1220.59 479.966 1221 482.682 1221.82 485.068C1222.66 487.455 1223.9 489.341 1225.54 490.727C1227.2 492.091 1229.24 492.773 1231.67 492.773ZM1279.42 433.182V503H1264.9V433.182H1279.42ZM1313 504.023C1307.61 504.023 1302.98 502.932 1299.09 500.75C1295.23 498.545 1292.25 495.432 1290.16 491.409C1288.07 487.364 1287.02 482.58 1287.02 477.057C1287.02 471.67 1288.07 466.943 1290.16 462.875C1292.25 458.807 1295.19 455.636 1298.99 453.364C1302.81 451.091 1307.28 449.955 1312.42 449.955C1315.88 449.955 1319.09 450.511 1322.07 451.625C1325.07 452.716 1327.68 454.364 1329.91 456.568C1332.16 458.773 1333.91 461.545 1335.16 464.886C1336.41 468.205 1337.03 472.091 1337.03 476.545V480.534H1292.82V471.534H1323.36C1323.36 469.443 1322.91 467.591 1322 465.977C1321.09 464.364 1319.83 463.102 1318.22 462.193C1316.63 461.261 1314.77 460.795 1312.66 460.795C1310.45 460.795 1308.5 461.307 1306.8 462.33C1305.11 463.33 1303.8 464.682 1302.84 466.386C1301.89 468.068 1301.4 469.943 1301.38 472.011V480.568C1301.38 483.159 1301.85 485.398 1302.81 487.284C1303.78 489.17 1305.16 490.625 1306.93 491.648C1308.7 492.67 1310.81 493.182 1313.24 493.182C1314.85 493.182 1316.33 492.955 1317.67 492.5C1319.01 492.045 1320.16 491.364 1321.11 490.455C1322.07 489.545 1322.8 488.432 1323.3 487.114L1336.73 488C1336.05 491.227 1334.65 494.045 1332.53 496.455C1330.44 498.841 1327.74 500.705 1324.42 502.045C1321.13 503.364 1317.32 504.023 1313 504.023ZM1386.3 504.023C1381.48 504.023 1377.32 503.159 1373.82 501.432C1370.32 499.705 1367.63 497.364 1365.74 494.409C1363.88 491.432 1362.95 488.114 1362.95 484.455C1362.95 481.727 1363.49 479.307 1364.58 477.193C1365.67 475.08 1367.2 473.136 1369.15 471.364C1371.11 469.568 1373.38 467.784 1375.97 466.011L1389.5 457.114C1391.25 456 1392.54 454.83 1393.36 453.602C1394.17 452.352 1394.58 451 1394.58 449.545C1394.58 448.159 1394.03 446.875 1392.91 445.693C1391.8 444.511 1390.22 443.932 1388.17 443.955C1386.81 443.955 1385.63 444.261 1384.63 444.875C1383.63 445.466 1382.84 446.25 1382.28 447.227C1381.73 448.182 1381.46 449.25 1381.46 450.432C1381.46 451.886 1381.87 453.364 1382.69 454.864C1383.5 456.364 1384.59 457.955 1385.96 459.636C1387.32 461.295 1388.81 463.091 1390.42 465.023L1423.53 503H1408.39L1380.78 472.25C1378.96 470.182 1377.14 468.023 1375.32 465.773C1373.53 463.5 1372.03 461.091 1370.82 458.545C1369.62 455.977 1369.02 453.193 1369.02 450.193C1369.02 446.807 1369.8 443.761 1371.37 441.057C1372.96 438.352 1375.19 436.216 1378.05 434.648C1380.91 433.057 1384.25 432.261 1388.07 432.261C1391.8 432.261 1395.02 433.023 1397.72 434.545C1400.45 436.045 1402.54 438.045 1403.99 440.545C1405.47 443.023 1406.21 445.75 1406.21 448.727C1406.21 452.023 1405.39 455.011 1403.75 457.693C1402.14 460.352 1399.87 462.739 1396.94 464.852L1382.69 475.114C1380.75 476.523 1379.32 477.966 1378.39 479.443C1377.48 480.898 1377.03 482.295 1377.03 483.636C1377.03 485.295 1377.44 486.784 1378.25 488.102C1379.07 489.42 1380.23 490.466 1381.73 491.239C1383.23 491.989 1384.99 492.364 1387.02 492.364C1389.47 492.364 1391.89 491.807 1394.28 490.693C1396.69 489.557 1398.87 487.955 1400.82 485.886C1402.8 483.795 1404.38 481.318 1405.56 478.455C1406.74 475.591 1407.33 472.42 1407.33 468.943H1419.37C1419.37 473.216 1418.9 477.068 1417.97 480.5C1417.04 483.909 1415.74 486.886 1414.08 489.432C1412.42 491.955 1410.53 494.023 1408.39 495.636C1407.71 496.068 1407.05 496.477 1406.41 496.864C1405.78 497.25 1405.12 497.659 1404.44 498.091C1401.84 500.182 1398.95 501.693 1395.74 502.625C1392.56 503.557 1389.41 504.023 1386.3 504.023ZM550.519 599.75C550.041 598.091 549.371 596.625 548.507 595.352C547.644 594.057 546.587 592.966 545.337 592.08C544.11 591.17 542.7 590.477 541.11 590C539.541 589.523 537.803 589.284 535.894 589.284C532.325 589.284 529.189 590.17 526.485 591.943C523.803 593.716 521.712 596.295 520.212 599.682C518.712 603.045 517.962 607.159 517.962 612.023C517.962 616.886 518.7 621.023 520.178 624.432C521.655 627.841 523.746 630.443 526.45 632.239C529.155 634.011 532.348 634.898 536.03 634.898C539.371 634.898 542.223 634.307 544.587 633.125C546.973 631.92 548.791 630.227 550.041 628.045C551.314 625.864 551.95 623.284 551.95 620.307L554.95 620.75H536.95V609.636H566.166V618.432C566.166 624.568 564.871 629.841 562.28 634.25C559.689 638.636 556.121 642.023 551.575 644.409C547.03 646.773 541.825 647.955 535.962 647.955C529.416 647.955 523.666 646.511 518.712 643.625C513.757 640.716 509.894 636.591 507.121 631.25C504.371 625.886 502.996 619.523 502.996 612.159C502.996 606.5 503.814 601.455 505.45 597.023C507.11 592.568 509.428 588.795 512.405 585.705C515.382 582.614 518.848 580.261 522.803 578.648C526.757 577.034 531.041 576.227 535.655 576.227C539.61 576.227 543.291 576.807 546.7 577.966C550.11 579.102 553.132 580.716 555.769 582.807C558.428 584.898 560.598 587.386 562.28 590.273C563.962 593.136 565.041 596.295 565.519 599.75H550.519ZM575.062 647V594.636H589.141V603.773H589.687C590.641 600.523 592.244 598.068 594.494 596.409C596.744 594.727 599.334 593.886 602.266 593.886C602.994 593.886 603.778 593.932 604.619 594.023C605.459 594.114 606.198 594.239 606.834 594.398V607.284C606.153 607.08 605.209 606.898 604.005 606.739C602.8 606.58 601.698 606.5 600.698 606.5C598.562 606.5 596.653 606.966 594.971 607.898C593.312 608.807 591.994 610.08 591.016 611.716C590.062 613.352 589.584 615.239 589.584 617.375V647H575.062ZM633.645 648.023C628.349 648.023 623.77 646.898 619.906 644.648C616.065 642.375 613.099 639.216 611.008 635.17C608.917 631.102 607.872 626.386 607.872 621.023C607.872 615.614 608.917 610.886 611.008 606.841C613.099 602.773 616.065 599.614 619.906 597.364C623.77 595.091 628.349 593.955 633.645 593.955C638.94 593.955 643.508 595.091 647.349 597.364C651.213 599.614 654.19 602.773 656.281 606.841C658.372 610.886 659.417 615.614 659.417 621.023C659.417 626.386 658.372 631.102 656.281 635.17C654.19 639.216 651.213 642.375 647.349 644.648C643.508 646.898 638.94 648.023 633.645 648.023ZM633.713 636.773C636.122 636.773 638.133 636.091 639.747 634.727C641.36 633.341 642.576 631.455 643.395 629.068C644.235 626.682 644.656 623.966 644.656 620.92C644.656 617.875 644.235 615.159 643.395 612.773C642.576 610.386 641.36 608.5 639.747 607.114C638.133 605.727 636.122 605.034 633.713 605.034C631.281 605.034 629.235 605.727 627.576 607.114C625.94 608.5 624.701 610.386 623.86 612.773C623.042 615.159 622.633 617.875 622.633 620.92C622.633 623.966 623.042 626.682 623.86 629.068C624.701 631.455 625.94 633.341 627.576 634.727C629.235 636.091 631.281 636.773 633.713 636.773ZM700.52 624.705V594.636H715.043V647H701.1V637.489H700.554C699.372 640.557 697.406 643.023 694.656 644.886C691.929 646.75 688.6 647.682 684.668 647.682C681.168 647.682 678.088 646.886 675.429 645.295C672.77 643.705 670.69 641.443 669.19 638.511C667.713 635.58 666.963 632.068 666.94 627.977V594.636H681.463V625.386C681.486 628.477 682.315 630.92 683.952 632.716C685.588 634.511 687.781 635.409 690.531 635.409C692.281 635.409 693.918 635.011 695.44 634.216C696.963 633.398 698.19 632.193 699.122 630.602C700.077 629.011 700.543 627.045 700.52 624.705ZM724.739 666.636V594.636H739.057V603.432H739.705C740.341 602.023 741.262 600.591 742.466 599.136C743.694 597.659 745.285 596.432 747.239 595.455C749.216 594.455 751.671 593.955 754.603 593.955C758.421 593.955 761.944 594.955 765.171 596.955C768.398 598.932 770.978 601.92 772.91 605.92C774.841 609.898 775.807 614.886 775.807 620.886C775.807 626.727 774.864 631.659 772.978 635.682C771.114 639.682 768.569 642.716 765.341 644.784C762.137 646.83 758.546 647.852 754.569 647.852C751.751 647.852 749.353 647.386 747.376 646.455C745.421 645.523 743.819 644.352 742.569 642.943C741.319 641.511 740.364 640.068 739.705 638.614H739.262V666.636H724.739ZM738.955 620.818C738.955 623.932 739.387 626.648 740.251 628.966C741.114 631.284 742.364 633.091 744.001 634.386C745.637 635.659 747.626 636.295 749.966 636.295C752.33 636.295 754.33 635.648 755.966 634.352C757.603 633.034 758.841 631.216 759.682 628.898C760.546 626.557 760.978 623.864 760.978 620.818C760.978 617.795 760.557 615.136 759.716 612.841C758.876 610.545 757.637 608.75 756.001 607.455C754.364 606.159 752.353 605.511 749.966 605.511C747.603 605.511 745.603 606.136 743.966 607.386C742.353 608.636 741.114 610.409 740.251 612.705C739.387 615 738.955 617.705 738.955 620.818ZM831.72 594.636V605.545H800.186V594.636H831.72ZM807.345 582.091H821.868V630.909C821.868 632.25 822.073 633.295 822.482 634.045C822.891 634.773 823.459 635.284 824.186 635.58C824.936 635.875 825.8 636.023 826.777 636.023C827.459 636.023 828.141 635.966 828.823 635.852C829.504 635.716 830.027 635.614 830.391 635.545L832.675 646.352C831.948 646.58 830.925 646.841 829.607 647.136C828.288 647.455 826.686 647.648 824.8 647.716C821.3 647.852 818.232 647.386 815.595 646.318C812.982 645.25 810.948 643.591 809.493 641.341C808.038 639.091 807.323 636.25 807.345 632.818V582.091ZM862.357 648.023C857.062 648.023 852.482 646.898 848.618 644.648C844.777 642.375 841.812 639.216 839.721 635.17C837.63 631.102 836.584 626.386 836.584 621.023C836.584 615.614 837.63 610.886 839.721 606.841C841.812 602.773 844.777 599.614 848.618 597.364C852.482 595.091 857.062 593.955 862.357 593.955C867.652 593.955 872.221 595.091 876.062 597.364C879.925 599.614 882.902 602.773 884.993 606.841C887.084 610.886 888.13 615.614 888.13 621.023C888.13 626.386 887.084 631.102 884.993 635.17C882.902 639.216 879.925 642.375 876.062 644.648C872.221 646.898 867.652 648.023 862.357 648.023ZM862.425 636.773C864.834 636.773 866.846 636.091 868.459 634.727C870.073 633.341 871.289 631.455 872.107 629.068C872.948 626.682 873.368 623.966 873.368 620.92C873.368 617.875 872.948 615.159 872.107 612.773C871.289 610.386 870.073 608.5 868.459 607.114C866.846 605.727 864.834 605.034 862.425 605.034C859.993 605.034 857.948 605.727 856.289 607.114C854.652 608.5 853.414 610.386 852.573 612.773C851.755 615.159 851.346 617.875 851.346 620.92C851.346 623.966 851.755 626.682 852.573 629.068C853.414 631.455 854.652 633.341 856.289 634.727C857.948 636.091 859.993 636.773 862.425 636.773ZM930.884 647.989C927.543 647.989 924.565 647.409 921.952 646.25C919.338 645.068 917.27 643.33 915.747 641.034C914.247 638.716 913.497 635.83 913.497 632.375C913.497 629.466 914.031 627.023 915.099 625.045C916.168 623.068 917.622 621.477 919.463 620.273C921.304 619.068 923.395 618.159 925.736 617.545C928.099 616.932 930.577 616.5 933.168 616.25C936.213 615.932 938.668 615.636 940.531 615.364C942.395 615.068 943.747 614.636 944.588 614.068C945.429 613.5 945.849 612.659 945.849 611.545V611.341C945.849 609.182 945.168 607.511 943.804 606.33C942.463 605.148 940.554 604.557 938.077 604.557C935.463 604.557 933.384 605.136 931.838 606.295C930.293 607.432 929.27 608.864 928.77 610.591L915.338 609.5C916.02 606.318 917.361 603.568 919.361 601.25C921.361 598.909 923.94 597.114 927.099 595.864C930.281 594.591 933.963 593.955 938.145 593.955C941.054 593.955 943.838 594.295 946.497 594.977C949.179 595.659 951.554 596.716 953.622 598.148C955.713 599.58 957.361 601.42 958.565 603.67C959.77 605.898 960.372 608.568 960.372 611.682V647H946.599V639.739H946.19C945.349 641.375 944.224 642.818 942.815 644.068C941.406 645.295 939.713 646.261 937.736 646.966C935.759 647.648 933.474 647.989 930.884 647.989ZM935.043 637.966C937.179 637.966 939.065 637.545 940.702 636.705C942.338 635.841 943.622 634.682 944.554 633.227C945.486 631.773 945.952 630.125 945.952 628.284V622.727C945.497 623.023 944.872 623.295 944.077 623.545C943.304 623.773 942.429 623.989 941.452 624.193C940.474 624.375 939.497 624.545 938.52 624.705C937.543 624.841 936.656 624.966 935.861 625.08C934.156 625.33 932.668 625.727 931.395 626.273C930.122 626.818 929.134 627.557 928.429 628.489C927.724 629.398 927.372 630.534 927.372 631.898C927.372 633.875 928.088 635.386 929.52 636.432C930.974 637.455 932.815 637.966 935.043 637.966ZM1048.69 577.182V647H1035.94L1005.56 603.057H1005.05V647H990.291V577.182H1003.25L1033.38 621.091H1034V577.182H1048.69ZM1082.56 648.023C1077.17 648.023 1072.53 646.932 1068.65 644.75C1064.78 642.545 1061.81 639.432 1059.71 635.409C1057.62 631.364 1056.58 626.58 1056.58 621.057C1056.58 615.67 1057.62 610.943 1059.71 606.875C1061.81 602.807 1064.75 599.636 1068.54 597.364C1072.36 595.091 1076.84 593.955 1081.98 593.955C1085.43 593.955 1088.65 594.511 1091.62 595.625C1094.62 596.716 1097.24 598.364 1099.46 600.568C1101.71 602.773 1103.46 605.545 1104.71 608.886C1105.96 612.205 1106.59 616.091 1106.59 620.545V624.534H1062.37V615.534H1092.92C1092.92 613.443 1092.46 611.591 1091.56 609.977C1090.65 608.364 1089.38 607.102 1087.77 606.193C1086.18 605.261 1084.33 604.795 1082.21 604.795C1080.01 604.795 1078.06 605.307 1076.35 606.33C1074.67 607.33 1073.35 608.682 1072.4 610.386C1071.44 612.068 1070.95 613.943 1070.93 616.011V624.568C1070.93 627.159 1071.41 629.398 1072.36 631.284C1073.34 633.17 1074.71 634.625 1076.49 635.648C1078.26 636.67 1080.36 637.182 1082.79 637.182C1084.41 637.182 1085.88 636.955 1087.23 636.5C1088.57 636.045 1089.71 635.364 1090.67 634.455C1091.62 633.545 1092.35 632.432 1092.85 631.114L1106.28 632C1105.6 635.227 1104.2 638.045 1102.09 640.455C1100 642.841 1097.29 644.705 1093.98 646.045C1090.68 647.364 1086.87 648.023 1082.56 648.023ZM1124.1 647L1109.85 594.636H1124.54L1132.66 629.818H1133.14L1141.59 594.636H1156.01L1164.6 629.614H1165.04L1173.02 594.636H1187.68L1173.46 647H1158.09L1149.09 614.068H1148.44L1139.44 647H1124.1ZM1257.2 577.182H1271.97V622.523C1271.97 627.614 1270.75 632.068 1268.32 635.886C1265.91 639.705 1262.53 642.682 1258.19 644.818C1253.85 646.932 1248.8 647.989 1243.02 647.989C1237.23 647.989 1232.16 646.932 1227.82 644.818C1223.48 642.682 1220.1 639.705 1217.69 635.886C1215.28 632.068 1214.08 627.614 1214.08 622.523V577.182H1228.84V621.261C1228.84 623.92 1229.42 626.284 1230.58 628.352C1231.76 630.42 1233.42 632.045 1235.56 633.227C1237.69 634.409 1240.18 635 1243.02 635C1245.89 635 1248.37 634.409 1250.49 633.227C1252.62 632.045 1254.27 630.42 1255.43 628.352C1256.61 626.284 1257.2 623.92 1257.2 621.261V577.182ZM1325.49 609.568L1312.19 610.386C1311.96 609.25 1311.47 608.227 1310.72 607.318C1309.97 606.386 1308.99 605.648 1307.76 605.102C1306.55 604.534 1305.11 604.25 1303.43 604.25C1301.18 604.25 1299.28 604.727 1297.74 605.682C1296.19 606.614 1295.42 607.864 1295.42 609.432C1295.42 610.682 1295.92 611.739 1296.92 612.602C1297.92 613.466 1299.63 614.159 1302.07 614.682L1311.54 616.591C1316.63 617.636 1320.43 619.318 1322.93 621.636C1325.43 623.955 1326.68 627 1326.68 630.773C1326.68 634.205 1325.67 637.216 1323.65 639.807C1321.65 642.398 1318.9 644.42 1315.4 645.875C1311.92 647.307 1307.91 648.023 1303.36 648.023C1296.43 648.023 1290.91 646.58 1286.79 643.693C1282.7 640.784 1280.3 636.83 1279.6 631.83L1293.88 631.08C1294.32 633.193 1295.36 634.807 1297.02 635.92C1298.68 637.011 1300.8 637.557 1303.4 637.557C1305.94 637.557 1307.99 637.068 1309.53 636.091C1311.1 635.091 1311.9 633.807 1311.92 632.239C1311.9 630.92 1311.34 629.841 1310.25 629C1309.16 628.136 1307.47 627.477 1305.2 627.023L1296.13 625.216C1291.02 624.193 1287.21 622.42 1284.71 619.898C1282.24 617.375 1281 614.159 1281 610.25C1281 606.886 1281.91 603.989 1283.72 601.557C1285.57 599.125 1288.15 597.25 1291.46 595.932C1294.8 594.614 1298.71 593.955 1303.19 593.955C1309.8 593.955 1315.01 595.352 1318.8 598.148C1322.62 600.943 1324.85 604.75 1325.49 609.568ZM1357.77 648.023C1352.38 648.023 1347.75 646.932 1343.86 644.75C1340 642.545 1337.02 639.432 1334.93 635.409C1332.84 631.364 1331.79 626.58 1331.79 621.057C1331.79 615.67 1332.84 610.943 1334.93 606.875C1337.02 602.807 1339.96 599.636 1343.76 597.364C1347.57 595.091 1352.05 593.955 1357.19 593.955C1360.64 593.955 1363.86 594.511 1366.84 595.625C1369.84 596.716 1372.45 598.364 1374.68 600.568C1376.93 602.773 1378.68 605.545 1379.93 608.886C1381.18 612.205 1381.8 616.091 1381.8 620.545V624.534H1337.59V615.534H1368.13C1368.13 613.443 1367.68 611.591 1366.77 609.977C1365.86 608.364 1364.6 607.102 1362.98 606.193C1361.39 605.261 1359.54 604.795 1357.43 604.795C1355.22 604.795 1353.27 605.307 1351.56 606.33C1349.88 607.33 1348.56 608.682 1347.61 610.386C1346.65 612.068 1346.17 613.943 1346.14 616.011V624.568C1346.14 627.159 1346.62 629.398 1347.57 631.284C1348.55 633.17 1349.93 634.625 1351.7 635.648C1353.47 636.67 1355.57 637.182 1358.01 637.182C1359.62 637.182 1361.1 636.955 1362.44 636.5C1363.78 636.045 1364.93 635.364 1365.88 634.455C1366.84 633.545 1367.56 632.432 1368.06 631.114L1381.5 632C1380.81 635.227 1379.42 638.045 1377.3 640.455C1375.21 642.841 1372.51 644.705 1369.19 646.045C1365.89 647.364 1362.09 648.023 1357.77 648.023ZM1389.36 647V594.636H1403.44V603.773H1403.98C1404.94 600.523 1406.54 598.068 1408.79 596.409C1411.04 594.727 1413.63 593.886 1416.56 593.886C1417.29 593.886 1418.08 593.932 1418.92 594.023C1419.76 594.114 1420.5 594.239 1421.13 594.398V607.284C1420.45 607.08 1419.51 606.898 1418.3 606.739C1417.1 606.58 1416 606.5 1415 606.5C1412.86 606.5 1410.95 606.966 1409.27 607.898C1407.61 608.807 1406.29 610.08 1405.31 611.716C1404.36 613.352 1403.88 615.239 1403.88 617.375V647H1389.36Z" fill="url(#paint1_linear_695_46591)"/>
<path fill-rule="evenodd" clip-rule="evenodd" d="M1920 888V952V1080H1311H1247L1248 1079.98C1282.95 1079.44 1311 1050.95 1311 1016C1311 980.652 1339.65 952 1375 952H1854.99C1890.5 952 1919.45 923.507 1920 888Z" fill="white"/>
<path fill-rule="evenodd" clip-rule="evenodd" d="M1398 1052L1406.65 999.22C1416.4 999.22 1423.8 1008 1422.23 1017.63L1419.21 1036H1425.98C1429.39 1036 1432.41 1035.41 1435.05 1034.22C1437.72 1033 1439.94 1030.98 1441.75 1028.12C1443.55 1025.26 1444.87 1021.32 1445.67 1016.37C1446.43 1011.67 1446.4 1008.04 1445.6 1005.49C1444.8 1002.91 1443.27 1001.14 1441.02 1000.16C1438.76 999.15 1435.84 998.627 1432.3 998.627L1425.6 998.522C1411.99 998.522 1407.83 987.959 1407.44 982.66H1435.11C1442.16 982.66 1448.03 984.055 1452.75 986.948C1457.47 989.807 1460.84 993.921 1462.82 999.22C1464.8 1004.55 1465.18 1010.9 1464 1018.25C1462.85 1025.33 1460.49 1031.4 1456.95 1036.42C1453.41 1041.44 1448.93 1045.31 1443.45 1047.96C1438 1050.61 1431.78 1051.97 1424.8 1051.97H1398V1052Z" fill="url(#paint2_linear_695_46591)"/>
<path fill-rule="evenodd" clip-rule="evenodd" d="M1414.18 982.695H1435.08C1442.13 982.695 1448 984.09 1452.72 986.983C1457.44 989.842 1460.81 993.956 1462.79 999.255C1464.76 1004.59 1465.15 1010.93 1463.97 1018.29C1462.82 1025.37 1460.46 1031.43 1456.92 1036.45C1454.77 1039.48 1452.3 1042.1 1449.42 1044.3C1449.42 1044.3 1449.42 1044.3 1449.45 1044.3C1454.94 1041.65 1459.45 1037.78 1462.96 1032.76C1466.5 1027.74 1468.86 1021.67 1470.01 1014.59C1471.22 1007.24 1470.81 1000.89 1468.83 995.559C1466.85 990.225 1463.48 986.147 1458.76 983.288C1454.07 980.394 1448.2 979 1441.16 979H1413.45C1413.52 980.081 1413.76 981.336 1414.18 982.695Z" fill="url(#paint3_linear_695_46591)"/>
<path fill-rule="evenodd" clip-rule="evenodd" d="M1560.04 1041.86C1554.74 1041.86 1550.07 1040.74 1545.99 1038.53C1541.94 1036.25 1538.77 1033.16 1536.47 1029.23C1534.17 1025.27 1533.02 1020.74 1533.02 1015.66C1533.02 1010.54 1534.17 1006.01 1536.47 1002.09C1538.77 998.122 1541.94 995.035 1545.99 992.791C1550.03 990.511 1554.67 989.389 1559.9 989.389C1565.2 989.389 1569.83 990.511 1573.88 992.791C1577.92 995 1581.09 998.122 1583.39 1002.09C1585.69 1006.01 1586.85 1010.5 1586.85 1015.66C1586.85 1020.74 1585.69 1025.27 1583.39 1029.23C1581.13 1033.16 1577.99 1036.25 1573.95 1038.53C1569.9 1040.77 1565.27 1041.86 1560.04 1041.86ZM1560.04 1029.55C1562.62 1029.55 1564.92 1028.95 1566.87 1027.79C1568.86 1026.6 1570.39 1024.95 1571.47 1022.85C1572.59 1020.78 1573.14 1018.39 1573.14 1015.66C1573.14 1012.96 1572.55 1010.57 1571.4 1008.47C1570.29 1006.33 1568.75 1004.72 1566.73 1003.52C1564.78 1002.33 1562.48 1001.7 1559.9 1001.7C1557.35 1001.7 1555.09 1002.3 1553.06 1003.52C1551.11 1004.68 1549.54 1006.33 1548.39 1008.47C1547.28 1010.54 1546.72 1012.92 1546.72 1015.66C1546.72 1018.36 1547.31 1020.74 1548.46 1022.85C1549.61 1024.92 1551.18 1026.57 1553.13 1027.79C1555.12 1028.95 1557.42 1029.55 1560.04 1029.55ZM1501.16 1028.32C1503.28 1028.32 1505.2 1028 1506.98 1027.37C1508.76 1026.74 1510.29 1025.86 1511.58 1024.78C1512.87 1023.65 1513.88 1022.32 1514.61 1020.78C1515.34 1019.24 1515.69 1017.52 1515.69 1015.62C1515.69 1013.73 1515.34 1012.01 1514.61 1010.47C1513.88 1008.92 1512.87 1007.59 1511.58 1006.47C1510.29 1005.35 1508.76 1004.51 1506.98 1003.87C1505.2 1003.24 1503.25 1002.93 1501.16 1002.93H1497.64V1028.28H1501.16V1028.32ZM1515.8 993.527C1511.58 991.353 1506.7 990.266 1501.16 990.266H1497.64H1490.73H1484.32V1041.02H1490.73H1497.64H1501.16C1506.66 1041.02 1511.54 1039.93 1515.8 1037.75C1520.09 1035.58 1523.4 1032.6 1525.8 1028.78C1528.21 1024.95 1529.39 1020.57 1529.39 1015.66C1529.39 1010.68 1528.21 1006.29 1525.8 1002.54C1523.4 998.683 1520.05 995.702 1515.8 993.527ZM1605.29 1014.82L1586.74 1041.02H1602.81L1612.68 1025.93L1622.51 1040.98H1638.58L1620.14 1014.75L1638.02 990.23H1622.09L1612.68 1004.01L1603.23 990.266H1587.3L1605.29 1014.82ZM1670.65 1030.84L1656.95 1011.03V1041.02H1643.63V991.704V990.266H1650.19H1656.95H1658.38L1670.58 1008.4L1682.75 990.266H1684.18H1691.11H1697.53V991.493V1041.02H1684.21V1010.99L1670.65 1030.84ZM1738.25 1032.88L1741.21 1041.02H1755.33L1736.02 990.266H1734.94H1722.77H1721.69L1702.37 1041.02H1716.49L1719.46 1032.88H1738.25ZM1733.96 1021.06L1728.83 1007L1723.71 1021.06H1733.96ZM1765.54 1041.02V1002.58H1751.29V990.266H1793.08V1002.58H1778.9V1041.02H1765.54ZM1798.66 990.266V1041.02H1808.04H1812.01H1833V1028.71H1812.01V1021.59H1828.57V1009.59H1812.01V1002.58H1832.48V990.266H1812.01H1808.04H1798.66Z" fill="#313D4E"/>
<defs>
<radialGradient id="paint0_radial_695_46591" cx="0" cy="0" r="1" gradientUnits="userSpaceOnUse" gradientTransform="translate(960) rotate(90) scale(1080 1920)">
<stop stop-color="#354776"/>
<stop offset="1" stop-color="#130A2D"/>
</radialGradient>
<linearGradient id="paint1_linear_695_46591" x1="497" y1="396.217" x2="1072.27" y2="1012.53" gradientUnits="userSpaceOnUse">
<stop stop-color="#F4F7FF"/>
<stop offset="1" stop-color="white"/>
</linearGradient>
<linearGradient id="paint2_linear_695_46591" x1="1461.36" y1="979.492" x2="1394.48" y2="1048.59" gradientUnits="userSpaceOnUse">
<stop stop-color="#7B79FF"/>
<stop offset="1" stop-color="#4240B8"/>
</linearGradient>
<linearGradient id="paint3_linear_695_46591" x1="1470.41" y1="978.711" x2="1425.41" y2="1017.37" gradientUnits="userSpaceOnUse">
<stop stop-color="#7B79FF"/>
<stop offset="1" stop-color="#7B79FF" stop-opacity="0"/>
</linearGradient>
</defs>
</svg>
