<svg width="1920" height="1080" viewBox="0 0 1920 1080" fill="none" xmlns="http://www.w3.org/2000/svg">
<rect width="1920" height="1080" fill="url(#paint0_radial_695_46580)"/>
<g style="mix-blend-mode:overlay" opacity="0.25">
<path fill-rule="evenodd" clip-rule="evenodd" d="M537 964L637.616 350.881C751.162 350.881 837.23 452.932 819.047 564.703L783.892 778.12H862.687C902.287 778.12 937.442 771.236 968.152 757.467C999.266 743.293 1025.13 719.805 1046.14 686.598C1067.15 653.391 1082.51 607.629 1091.8 550.124C1100.69 495.454 1100.29 453.337 1090.99 423.775C1081.7 393.807 1063.92 373.154 1037.65 361.815C1011.39 350.071 977.446 343.996 936.23 343.996L858.242 342.781C699.844 342.781 651.354 220.076 646.909 158.521H968.96C1050.99 158.521 1119.28 174.72 1174.23 208.332C1229.19 241.54 1268.38 289.326 1291.41 350.881C1314.45 412.84 1318.89 486.544 1305.15 571.992C1291.82 654.201 1264.34 724.665 1223.13 782.98C1181.91 841.295 1129.78 886.246 1065.94 917.024C1002.5 947.801 930.168 963.595 848.949 963.595H537V964Z" fill="white"/>
<path fill-rule="evenodd" clip-rule="evenodd" d="M725.301 158.926H968.557C1050.58 158.926 1118.87 175.125 1173.83 208.737C1228.78 241.945 1267.98 289.731 1291.01 351.286C1314.04 413.245 1318.49 486.949 1304.75 572.397C1291.42 654.605 1263.94 725.07 1222.72 783.385C1197.67 818.617 1168.98 848.989 1135.44 874.502C1135.44 874.502 1135.44 874.502 1135.85 874.502C1199.69 843.725 1252.22 798.774 1293.03 740.458C1334.25 682.143 1361.73 611.679 1375.06 529.471C1389.2 444.023 1384.35 370.319 1361.32 308.359C1338.29 246.399 1299.09 199.018 1244.14 165.811C1189.59 132.199 1121.3 116 1039.27 116H716.816C717.624 128.554 720.452 143.133 725.301 158.926Z" fill="white" fill-opacity="0.5"/>
</g>
<path d="M417.631 505.182V575H404.881L374.506 531.057H373.995V575H359.233V505.182H372.188L402.324 549.091H402.938V505.182H417.631ZM451.498 576.023C446.111 576.023 441.475 574.932 437.589 572.75C433.725 570.545 430.748 567.432 428.657 563.409C426.566 559.364 425.521 554.58 425.521 549.057C425.521 543.67 426.566 538.943 428.657 534.875C430.748 530.807 433.691 527.636 437.486 525.364C441.305 523.091 445.782 521.955 450.918 521.955C454.373 521.955 457.589 522.511 460.566 523.625C463.566 524.716 466.18 526.364 468.407 528.568C470.657 530.773 472.407 533.545 473.657 536.886C474.907 540.205 475.532 544.091 475.532 548.545V552.534H431.316V543.534H461.861C461.861 541.443 461.407 539.591 460.498 537.977C459.589 536.364 458.327 535.102 456.714 534.193C455.123 533.261 453.271 532.795 451.157 532.795C448.952 532.795 446.998 533.307 445.293 534.33C443.611 535.33 442.293 536.682 441.339 538.386C440.384 540.068 439.896 541.943 439.873 544.011V552.568C439.873 555.159 440.35 557.398 441.305 559.284C442.282 561.17 443.657 562.625 445.43 563.648C447.202 564.67 449.305 565.182 451.736 565.182C453.35 565.182 454.827 564.955 456.168 564.5C457.509 564.045 458.657 563.364 459.611 562.455C460.566 561.545 461.293 560.432 461.793 559.114L475.225 560C474.543 563.227 473.146 566.045 471.032 568.455C468.941 570.841 466.236 572.705 462.918 574.045C459.623 575.364 455.816 576.023 451.498 576.023ZM493.044 575L478.794 522.636H493.487L501.601 557.818H502.078L510.532 522.636H524.953L533.544 557.614H533.987L541.964 522.636H556.623L542.407 575H527.032L518.032 542.068H517.385L508.385 575H493.044ZM583.022 575V505.182H610.567C615.84 505.182 620.34 506.125 624.067 508.011C627.817 509.875 630.67 512.523 632.624 515.955C634.601 519.364 635.59 523.375 635.59 527.989C635.59 532.625 634.59 536.614 632.59 539.955C630.59 543.273 627.692 545.818 623.897 547.591C620.124 549.364 615.556 550.25 610.192 550.25H591.749V538.386H607.806C610.624 538.386 612.965 538 614.829 537.227C616.692 536.455 618.079 535.295 618.988 533.75C619.92 532.205 620.386 530.284 620.386 527.989C620.386 525.67 619.92 523.716 618.988 522.125C618.079 520.534 616.681 519.33 614.795 518.511C612.931 517.67 610.579 517.25 607.738 517.25H597.783V575H583.022ZM620.726 543.227L638.079 575H621.783L604.806 543.227H620.726ZM666.645 576.023C661.349 576.023 656.77 574.898 652.906 572.648C649.065 570.375 646.099 567.216 644.008 563.17C641.917 559.102 640.872 554.386 640.872 549.023C640.872 543.614 641.917 538.886 644.008 534.841C646.099 530.773 649.065 527.614 652.906 525.364C656.77 523.091 661.349 521.955 666.645 521.955C671.94 521.955 676.508 523.091 680.349 525.364C684.213 527.614 687.19 530.773 689.281 534.841C691.372 538.886 692.417 543.614 692.417 549.023C692.417 554.386 691.372 559.102 689.281 563.17C687.19 567.216 684.213 570.375 680.349 572.648C676.508 574.898 671.94 576.023 666.645 576.023ZM666.713 564.773C669.122 564.773 671.133 564.091 672.747 562.727C674.36 561.341 675.576 559.455 676.395 557.068C677.235 554.682 677.656 551.966 677.656 548.92C677.656 545.875 677.235 543.159 676.395 540.773C675.576 538.386 674.36 536.5 672.747 535.114C671.133 533.727 669.122 533.034 666.713 533.034C664.281 533.034 662.235 533.727 660.576 535.114C658.94 536.5 657.701 538.386 656.86 540.773C656.042 543.159 655.633 545.875 655.633 548.92C655.633 551.966 656.042 554.682 656.86 557.068C657.701 559.455 658.94 561.341 660.576 562.727C662.235 564.091 664.281 564.773 666.713 564.773ZM714.463 505.182V575H699.94V505.182H714.463ZM748.04 576.023C742.654 576.023 738.018 574.932 734.131 572.75C730.268 570.545 727.29 567.432 725.199 563.409C723.108 559.364 722.063 554.58 722.063 549.057C722.063 543.67 723.108 538.943 725.199 534.875C727.29 530.807 730.233 527.636 734.029 525.364C737.847 523.091 742.324 521.955 747.461 521.955C750.915 521.955 754.131 522.511 757.108 523.625C760.108 524.716 762.722 526.364 764.949 528.568C767.199 530.773 768.949 533.545 770.199 536.886C771.449 540.205 772.074 544.091 772.074 548.545V552.534H727.858V543.534H758.404C758.404 541.443 757.949 539.591 757.04 537.977C756.131 536.364 754.87 535.102 753.256 534.193C751.665 533.261 749.813 532.795 747.699 532.795C745.495 532.795 743.54 533.307 741.836 534.33C740.154 535.33 738.836 536.682 737.881 538.386C736.927 540.068 736.438 541.943 736.415 544.011V552.568C736.415 555.159 736.893 557.398 737.847 559.284C738.824 561.17 740.199 562.625 741.972 563.648C743.745 564.67 745.847 565.182 748.279 565.182C749.893 565.182 751.37 564.955 752.711 564.5C754.052 564.045 755.199 563.364 756.154 562.455C757.108 561.545 757.836 560.432 758.336 559.114L771.768 560C771.086 563.227 769.688 566.045 767.574 568.455C765.483 570.841 762.779 572.705 759.461 574.045C756.165 575.364 752.358 576.023 748.04 576.023ZM821.34 576.023C816.521 576.023 812.362 575.159 808.862 573.432C805.362 571.705 802.669 569.364 800.783 566.409C798.919 563.432 797.987 560.114 797.987 556.455C797.987 553.727 798.533 551.307 799.624 549.193C800.715 547.08 802.237 545.136 804.192 543.364C806.146 541.568 808.419 539.784 811.01 538.011L824.544 529.114C826.294 528 827.578 526.83 828.396 525.602C829.215 524.352 829.624 523 829.624 521.545C829.624 520.159 829.067 518.875 827.953 517.693C826.84 516.511 825.26 515.932 823.215 515.955C821.851 515.955 820.669 516.261 819.669 516.875C818.669 517.466 817.885 518.25 817.317 519.227C816.771 520.182 816.499 521.25 816.499 522.432C816.499 523.886 816.908 525.364 817.726 526.864C818.544 528.364 819.635 529.955 820.999 531.636C822.362 533.295 823.851 535.091 825.465 537.023L858.567 575H843.43L815.817 544.25C813.999 542.182 812.18 540.023 810.362 537.773C808.567 535.5 807.067 533.091 805.862 530.545C804.658 527.977 804.055 525.193 804.055 522.193C804.055 518.807 804.84 515.761 806.408 513.057C807.999 510.352 810.226 508.216 813.09 506.648C815.953 505.057 819.294 504.261 823.112 504.261C826.84 504.261 830.055 505.023 832.76 506.545C835.487 508.045 837.578 510.045 839.033 512.545C840.51 515.023 841.249 517.75 841.249 520.727C841.249 524.023 840.43 527.011 838.794 529.693C837.18 532.352 834.908 534.739 831.976 536.852L817.726 547.114C815.794 548.523 814.362 549.966 813.43 551.443C812.521 552.898 812.067 554.295 812.067 555.636C812.067 557.295 812.476 558.784 813.294 560.102C814.112 561.42 815.271 562.466 816.771 563.239C818.271 563.989 820.033 564.364 822.055 564.364C824.51 564.364 826.93 563.807 829.317 562.693C831.726 561.557 833.908 559.955 835.862 557.886C837.84 555.795 839.419 553.318 840.601 550.455C841.783 547.591 842.374 544.42 842.374 540.943H854.408C854.408 545.216 853.942 549.068 853.01 552.5C852.078 555.909 850.783 558.886 849.124 561.432C847.465 563.955 845.567 566.023 843.43 567.636C842.749 568.068 842.09 568.477 841.453 568.864C840.817 569.25 840.158 569.659 839.476 570.091C836.885 572.182 833.987 573.693 830.783 574.625C827.601 575.557 824.453 576.023 821.34 576.023ZM929.565 527.75C929.088 526.091 928.417 524.625 927.554 523.352C926.69 522.057 925.633 520.966 924.383 520.08C923.156 519.17 921.747 518.477 920.156 518C918.588 517.523 916.849 517.284 914.94 517.284C911.372 517.284 908.235 518.17 905.531 519.943C902.849 521.716 900.758 524.295 899.258 527.682C897.758 531.045 897.008 535.159 897.008 540.023C897.008 544.886 897.747 549.023 899.224 552.432C900.701 555.841 902.792 558.443 905.497 560.239C908.201 562.011 911.394 562.898 915.076 562.898C918.417 562.898 921.269 562.307 923.633 561.125C926.019 559.92 927.838 558.227 929.088 556.045C930.36 553.864 930.997 551.284 930.997 548.307L933.997 548.75H915.997V537.636H945.213V546.432C945.213 552.568 943.917 557.841 941.326 562.25C938.735 566.636 935.167 570.023 930.622 572.409C926.076 574.773 920.872 575.955 915.008 575.955C908.463 575.955 902.713 574.511 897.758 571.625C892.804 568.716 888.94 564.591 886.167 559.25C883.417 553.886 882.042 547.523 882.042 540.159C882.042 534.5 882.86 529.455 884.497 525.023C886.156 520.568 888.474 516.795 891.451 513.705C894.429 510.614 897.894 508.261 901.849 506.648C905.804 505.034 910.088 504.227 914.701 504.227C918.656 504.227 922.338 504.807 925.747 505.966C929.156 507.102 932.179 508.716 934.815 510.807C937.474 512.898 939.644 515.386 941.326 518.273C943.008 521.136 944.088 524.295 944.565 527.75H929.565ZM954.108 575V522.636H968.188V531.773H968.733C969.688 528.523 971.29 526.068 973.54 524.409C975.79 522.727 978.381 521.886 981.312 521.886C982.04 521.886 982.824 521.932 983.665 522.023C984.506 522.114 985.244 522.239 985.881 522.398V535.284C985.199 535.08 984.256 534.898 983.051 534.739C981.847 534.58 980.744 534.5 979.744 534.5C977.608 534.5 975.699 534.966 974.017 535.898C972.358 536.807 971.04 538.08 970.062 539.716C969.108 541.352 968.631 543.239 968.631 545.375V575H954.108ZM1012.69 576.023C1007.4 576.023 1002.82 574.898 998.952 572.648C995.111 570.375 992.145 567.216 990.054 563.17C987.963 559.102 986.918 554.386 986.918 549.023C986.918 543.614 987.963 538.886 990.054 534.841C992.145 530.773 995.111 527.614 998.952 525.364C1002.82 523.091 1007.4 521.955 1012.69 521.955C1017.99 521.955 1022.55 523.091 1026.4 525.364C1030.26 527.614 1033.24 530.773 1035.33 534.841C1037.42 538.886 1038.46 543.614 1038.46 549.023C1038.46 554.386 1037.42 559.102 1035.33 563.17C1033.24 567.216 1030.26 570.375 1026.4 572.648C1022.55 574.898 1017.99 576.023 1012.69 576.023ZM1012.76 564.773C1015.17 564.773 1017.18 564.091 1018.79 562.727C1020.41 561.341 1021.62 559.455 1022.44 557.068C1023.28 554.682 1023.7 551.966 1023.7 548.92C1023.7 545.875 1023.28 543.159 1022.44 540.773C1021.62 538.386 1020.41 536.5 1018.79 535.114C1017.18 533.727 1015.17 533.034 1012.76 533.034C1010.33 533.034 1008.28 533.727 1006.62 535.114C1004.99 536.5 1003.75 538.386 1002.91 540.773C1002.09 543.159 1001.68 545.875 1001.68 548.92C1001.68 551.966 1002.09 554.682 1002.91 557.068C1003.75 559.455 1004.99 561.341 1006.62 562.727C1008.28 564.091 1010.33 564.773 1012.76 564.773ZM1079.57 552.705V522.636H1094.09V575H1080.15V565.489H1079.6C1078.42 568.557 1076.45 571.023 1073.7 572.886C1070.98 574.75 1067.65 575.682 1063.71 575.682C1060.21 575.682 1057.13 574.886 1054.48 573.295C1051.82 571.705 1049.74 569.443 1048.24 566.511C1046.76 563.58 1046.01 560.068 1045.99 555.977V522.636H1060.51V553.386C1060.53 556.477 1061.36 558.92 1063 560.716C1064.63 562.511 1066.83 563.409 1069.58 563.409C1071.33 563.409 1072.96 563.011 1074.49 562.216C1076.01 561.398 1077.24 560.193 1078.17 558.602C1079.12 557.011 1079.59 555.045 1079.57 552.705ZM1103.79 594.636V522.636H1118.1V531.432H1118.75C1119.39 530.023 1120.31 528.591 1121.51 527.136C1122.74 525.659 1124.33 524.432 1126.29 523.455C1128.26 522.455 1130.72 521.955 1133.65 521.955C1137.47 521.955 1140.99 522.955 1144.22 524.955C1147.44 526.932 1150.02 529.92 1151.96 533.92C1153.89 537.898 1154.85 542.886 1154.85 548.886C1154.85 554.727 1153.91 559.659 1152.02 563.682C1150.16 567.682 1147.61 570.716 1144.39 572.784C1141.18 574.83 1137.59 575.852 1133.61 575.852C1130.8 575.852 1128.4 575.386 1126.42 574.455C1124.47 573.523 1122.86 572.352 1121.61 570.943C1120.36 569.511 1119.41 568.068 1118.75 566.614H1118.31V594.636H1103.79ZM1118 548.818C1118 551.932 1118.43 554.648 1119.3 556.966C1120.16 559.284 1121.41 561.091 1123.05 562.386C1124.68 563.659 1126.67 564.295 1129.01 564.295C1131.38 564.295 1133.38 563.648 1135.01 562.352C1136.65 561.034 1137.89 559.216 1138.73 556.898C1139.59 554.557 1140.02 551.864 1140.02 548.818C1140.02 545.795 1139.6 543.136 1138.76 540.841C1137.92 538.545 1136.68 536.75 1135.05 535.455C1133.41 534.159 1131.4 533.511 1129.01 533.511C1126.65 533.511 1124.65 534.136 1123.01 535.386C1121.4 536.636 1120.16 538.409 1119.3 540.705C1118.43 543 1118 545.705 1118 548.818ZM1244.79 529.625H1229.86C1229.58 527.693 1229.03 525.977 1228.19 524.477C1227.35 522.955 1226.27 521.659 1224.95 520.591C1223.63 519.523 1222.11 518.705 1220.38 518.136C1218.68 517.568 1216.82 517.284 1214.82 517.284C1211.21 517.284 1208.06 518.182 1205.38 519.977C1202.7 521.75 1200.62 524.341 1199.14 527.75C1197.66 531.136 1196.93 535.25 1196.93 540.091C1196.93 545.068 1197.66 549.25 1199.14 552.636C1200.64 556.023 1202.73 558.58 1205.41 560.307C1208.1 562.034 1211.2 562.898 1214.72 562.898C1216.7 562.898 1218.53 562.636 1220.21 562.114C1221.91 561.591 1223.43 560.83 1224.74 559.83C1226.06 558.807 1227.15 557.568 1228.02 556.114C1228.9 554.659 1229.52 553 1229.86 551.136L1244.79 551.205C1244.4 554.409 1243.44 557.5 1241.89 560.477C1240.37 563.432 1238.31 566.08 1235.72 568.42C1233.15 570.739 1230.08 572.58 1226.52 573.943C1222.97 575.284 1218.96 575.955 1214.48 575.955C1208.26 575.955 1202.69 574.545 1197.78 571.727C1192.89 568.909 1189.03 564.83 1186.19 559.489C1183.37 554.148 1181.96 547.682 1181.96 540.091C1181.96 532.477 1183.39 526 1186.26 520.659C1189.12 515.318 1193.01 511.25 1197.91 508.455C1202.82 505.636 1208.35 504.227 1214.48 504.227C1218.53 504.227 1222.28 504.795 1225.73 505.932C1229.21 507.068 1232.29 508.727 1234.97 510.909C1237.65 513.068 1239.83 515.716 1241.52 518.852C1243.22 521.989 1244.31 525.58 1244.79 529.625ZM1253.18 575V522.636H1267.26V531.773H1267.81C1268.76 528.523 1270.36 526.068 1272.61 524.409C1274.86 522.727 1277.45 521.886 1280.39 521.886C1281.11 521.886 1281.9 521.932 1282.74 522.023C1283.58 522.114 1284.32 522.239 1284.95 522.398V535.284C1284.27 535.08 1283.33 534.898 1282.12 534.739C1280.92 534.58 1279.82 534.5 1278.82 534.5C1276.68 534.5 1274.77 534.966 1273.09 535.898C1271.43 536.807 1270.11 538.08 1269.14 539.716C1268.18 541.352 1267.7 543.239 1267.7 545.375V575H1253.18ZM1311.97 576.023C1306.58 576.023 1301.95 574.932 1298.06 572.75C1294.2 570.545 1291.22 567.432 1289.13 563.409C1287.04 559.364 1285.99 554.58 1285.99 549.057C1285.99 543.67 1287.04 538.943 1289.13 534.875C1291.22 530.807 1294.16 527.636 1297.96 525.364C1301.78 523.091 1306.25 521.955 1311.39 521.955C1314.84 521.955 1318.06 522.511 1321.04 523.625C1324.04 524.716 1326.65 526.364 1328.88 528.568C1331.13 530.773 1332.88 533.545 1334.13 536.886C1335.38 540.205 1336 544.091 1336 548.545V552.534H1291.79V543.534H1322.33C1322.33 541.443 1321.88 539.591 1320.97 537.977C1320.06 536.364 1318.8 535.102 1317.18 534.193C1315.59 533.261 1313.74 532.795 1311.63 532.795C1309.42 532.795 1307.47 533.307 1305.76 534.33C1304.08 535.33 1302.76 536.682 1301.81 538.386C1300.86 540.068 1300.37 541.943 1300.34 544.011V552.568C1300.34 555.159 1300.82 557.398 1301.78 559.284C1302.75 561.17 1304.13 562.625 1305.9 563.648C1307.67 564.67 1309.78 565.182 1312.21 565.182C1313.82 565.182 1315.3 564.955 1316.64 564.5C1317.98 564.045 1319.13 563.364 1320.08 562.455C1321.04 561.545 1321.76 560.432 1322.26 559.114L1335.7 560C1335.01 563.227 1333.62 566.045 1331.5 568.455C1329.41 570.841 1326.71 572.705 1323.39 574.045C1320.09 575.364 1316.29 576.023 1311.97 576.023ZM1358.49 575.989C1355.15 575.989 1352.17 575.409 1349.56 574.25C1346.95 573.068 1344.88 571.33 1343.36 569.034C1341.86 566.716 1341.11 563.83 1341.11 560.375C1341.11 557.466 1341.64 555.023 1342.71 553.045C1343.78 551.068 1345.23 549.477 1347.07 548.273C1348.91 547.068 1351 546.159 1353.34 545.545C1355.71 544.932 1358.19 544.5 1360.78 544.25C1363.82 543.932 1366.28 543.636 1368.14 543.364C1370 543.068 1371.36 542.636 1372.2 542.068C1373.04 541.5 1373.46 540.659 1373.46 539.545V539.341C1373.46 537.182 1372.78 535.511 1371.41 534.33C1370.07 533.148 1368.16 532.557 1365.69 532.557C1363.07 532.557 1360.99 533.136 1359.45 534.295C1357.9 535.432 1356.88 536.864 1356.38 538.591L1342.95 537.5C1343.63 534.318 1344.97 531.568 1346.97 529.25C1348.97 526.909 1351.55 525.114 1354.71 523.864C1357.89 522.591 1361.57 521.955 1365.75 521.955C1368.66 521.955 1371.45 522.295 1374.11 522.977C1376.79 523.659 1379.16 524.716 1381.23 526.148C1383.32 527.58 1384.97 529.42 1386.17 531.67C1387.38 533.898 1387.98 536.568 1387.98 539.682V575H1374.21V567.739H1373.8C1372.96 569.375 1371.83 570.818 1370.42 572.068C1369.01 573.295 1367.32 574.261 1365.34 574.966C1363.37 575.648 1361.08 575.989 1358.49 575.989ZM1362.65 565.966C1364.79 565.966 1366.67 565.545 1368.31 564.705C1369.95 563.841 1371.23 562.682 1372.16 561.227C1373.09 559.773 1373.56 558.125 1373.56 556.284V550.727C1373.11 551.023 1372.48 551.295 1371.69 551.545C1370.91 551.773 1370.04 551.989 1369.06 552.193C1368.08 552.375 1367.11 552.545 1366.13 552.705C1365.15 552.841 1364.26 552.966 1363.47 553.08C1361.76 553.33 1360.28 553.727 1359 554.273C1357.73 554.818 1356.74 555.557 1356.04 556.489C1355.33 557.398 1354.98 558.534 1354.98 559.898C1354.98 561.875 1355.7 563.386 1357.13 564.432C1358.58 565.455 1360.42 565.966 1362.65 565.966ZM1425.18 522.636V533.545H1393.65V522.636H1425.18ZM1400.81 510.091H1415.33V558.909C1415.33 560.25 1415.53 561.295 1415.94 562.045C1416.35 562.773 1416.92 563.284 1417.65 563.58C1418.4 563.875 1419.26 564.023 1420.24 564.023C1420.92 564.023 1421.6 563.966 1422.28 563.852C1422.96 563.716 1423.49 563.614 1423.85 563.545L1426.13 574.352C1425.41 574.58 1424.38 574.841 1423.07 575.136C1421.75 575.455 1420.15 575.648 1418.26 575.716C1414.76 575.852 1411.69 575.386 1409.06 574.318C1406.44 573.25 1404.41 571.591 1402.95 569.341C1401.5 567.091 1400.78 564.25 1400.81 560.818V510.091ZM1432.72 575V522.636H1447.24V575H1432.72ZM1440.02 515.886C1437.86 515.886 1436 515.17 1434.46 513.739C1432.94 512.284 1432.18 510.545 1432.18 508.523C1432.18 506.523 1432.94 504.807 1434.46 503.375C1436 501.92 1437.86 501.193 1440.02 501.193C1442.18 501.193 1444.02 501.92 1445.54 503.375C1447.08 504.807 1447.86 506.523 1447.86 508.523C1447.86 510.545 1447.08 512.284 1445.54 513.739C1444.02 515.17 1442.18 515.886 1440.02 515.886ZM1480.62 576.023C1475.32 576.023 1470.74 574.898 1466.88 572.648C1463.04 570.375 1460.07 567.216 1457.98 563.17C1455.89 559.102 1454.84 554.386 1454.84 549.023C1454.84 543.614 1455.89 538.886 1457.98 534.841C1460.07 530.773 1463.04 527.614 1466.88 525.364C1470.74 523.091 1475.32 521.955 1480.62 521.955C1485.91 521.955 1490.48 523.091 1494.32 525.364C1498.18 527.614 1501.16 530.773 1503.25 534.841C1505.34 538.886 1506.39 543.614 1506.39 549.023C1506.39 554.386 1505.34 559.102 1503.25 563.17C1501.16 567.216 1498.18 570.375 1494.32 572.648C1490.48 574.898 1485.91 576.023 1480.62 576.023ZM1480.68 564.773C1483.09 564.773 1485.1 564.091 1486.72 562.727C1488.33 561.341 1489.55 559.455 1490.37 557.068C1491.21 554.682 1491.63 551.966 1491.63 548.92C1491.63 545.875 1491.21 543.159 1490.37 540.773C1489.55 538.386 1488.33 536.5 1486.72 535.114C1485.1 533.727 1483.09 533.034 1480.68 533.034C1478.25 533.034 1476.21 533.727 1474.55 535.114C1472.91 536.5 1471.67 538.386 1470.83 540.773C1470.01 543.159 1469.6 545.875 1469.6 548.92C1469.6 551.966 1470.01 554.682 1470.83 557.068C1471.67 559.455 1472.91 561.341 1474.55 562.727C1476.21 564.091 1478.25 564.773 1480.68 564.773ZM1528.43 544.727V575H1513.91V522.636H1527.75V531.875H1528.37C1529.53 528.83 1531.47 526.42 1534.2 524.648C1536.92 522.852 1540.23 521.955 1544.12 521.955C1547.75 521.955 1550.92 522.75 1553.63 524.341C1556.33 525.932 1558.43 528.205 1559.93 531.159C1561.43 534.091 1562.18 537.591 1562.18 541.659V575H1547.66V544.25C1547.68 541.045 1546.87 538.545 1545.21 536.75C1543.55 534.932 1541.26 534.023 1538.35 534.023C1536.4 534.023 1534.67 534.443 1533.17 535.284C1531.7 536.125 1530.54 537.352 1529.7 538.966C1528.88 540.557 1528.46 542.477 1528.43 544.727Z" fill="url(#paint1_linear_695_46580)"/>
<path fill-rule="evenodd" clip-rule="evenodd" d="M1920 888V952V1080H1311H1247L1248 1079.98C1282.95 1079.44 1311 1050.95 1311 1016C1311 980.652 1339.65 952 1375 952H1854.99C1890.5 952 1919.45 923.507 1920 888Z" fill="white"/>
<path fill-rule="evenodd" clip-rule="evenodd" d="M1398 1052L1406.65 999.22C1416.4 999.22 1423.8 1008 1422.23 1017.63L1419.21 1036H1425.98C1429.39 1036 1432.41 1035.41 1435.05 1034.22C1437.72 1033 1439.94 1030.98 1441.75 1028.12C1443.55 1025.26 1444.87 1021.32 1445.67 1016.37C1446.43 1011.67 1446.4 1008.04 1445.6 1005.49C1444.8 1002.91 1443.27 1001.14 1441.02 1000.16C1438.76 999.15 1435.84 998.627 1432.3 998.627L1425.6 998.522C1411.99 998.522 1407.83 987.959 1407.44 982.66H1435.11C1442.16 982.66 1448.03 984.055 1452.75 986.948C1457.47 989.807 1460.84 993.921 1462.82 999.22C1464.8 1004.55 1465.18 1010.9 1464 1018.25C1462.85 1025.33 1460.49 1031.4 1456.95 1036.42C1453.41 1041.44 1448.93 1045.31 1443.45 1047.96C1438 1050.61 1431.78 1051.97 1424.8 1051.97H1398V1052Z" fill="url(#paint2_linear_695_46580)"/>
<path fill-rule="evenodd" clip-rule="evenodd" d="M1414.18 982.695H1435.08C1442.13 982.695 1448 984.09 1452.72 986.983C1457.44 989.842 1460.81 993.956 1462.79 999.255C1464.76 1004.59 1465.15 1010.93 1463.97 1018.29C1462.82 1025.37 1460.46 1031.43 1456.92 1036.45C1454.77 1039.48 1452.3 1042.1 1449.42 1044.3C1449.42 1044.3 1449.42 1044.3 1449.45 1044.3C1454.94 1041.65 1459.45 1037.78 1462.96 1032.76C1466.5 1027.74 1468.86 1021.67 1470.01 1014.59C1471.22 1007.24 1470.81 1000.89 1468.83 995.559C1466.85 990.225 1463.48 986.147 1458.76 983.288C1454.07 980.394 1448.2 979 1441.16 979H1413.45C1413.52 980.081 1413.76 981.336 1414.18 982.695Z" fill="url(#paint3_linear_695_46580)"/>
<path fill-rule="evenodd" clip-rule="evenodd" d="M1560.04 1041.86C1554.74 1041.86 1550.07 1040.74 1545.99 1038.53C1541.94 1036.25 1538.77 1033.16 1536.47 1029.23C1534.17 1025.27 1533.02 1020.74 1533.02 1015.66C1533.02 1010.54 1534.17 1006.01 1536.47 1002.09C1538.77 998.122 1541.94 995.035 1545.99 992.791C1550.03 990.511 1554.67 989.389 1559.9 989.389C1565.2 989.389 1569.83 990.511 1573.88 992.791C1577.92 995 1581.09 998.122 1583.39 1002.09C1585.69 1006.01 1586.85 1010.5 1586.85 1015.66C1586.85 1020.74 1585.69 1025.27 1583.39 1029.23C1581.13 1033.16 1577.99 1036.25 1573.95 1038.53C1569.9 1040.77 1565.27 1041.86 1560.04 1041.86ZM1560.04 1029.55C1562.62 1029.55 1564.92 1028.95 1566.87 1027.79C1568.86 1026.6 1570.39 1024.95 1571.47 1022.85C1572.59 1020.78 1573.14 1018.39 1573.14 1015.66C1573.14 1012.96 1572.55 1010.57 1571.4 1008.47C1570.29 1006.33 1568.75 1004.72 1566.73 1003.52C1564.78 1002.33 1562.48 1001.7 1559.9 1001.7C1557.35 1001.7 1555.09 1002.3 1553.06 1003.52C1551.11 1004.68 1549.54 1006.33 1548.39 1008.47C1547.28 1010.54 1546.72 1012.92 1546.72 1015.66C1546.72 1018.36 1547.31 1020.74 1548.46 1022.85C1549.61 1024.92 1551.18 1026.57 1553.13 1027.79C1555.12 1028.95 1557.42 1029.55 1560.04 1029.55ZM1501.16 1028.32C1503.28 1028.32 1505.2 1028 1506.98 1027.37C1508.76 1026.74 1510.29 1025.86 1511.58 1024.78C1512.87 1023.65 1513.88 1022.32 1514.61 1020.78C1515.35 1019.24 1515.69 1017.52 1515.69 1015.62C1515.69 1013.73 1515.35 1012.01 1514.61 1010.47C1513.88 1008.92 1512.87 1007.59 1511.58 1006.47C1510.29 1005.35 1508.76 1004.51 1506.98 1003.87C1505.2 1003.24 1503.25 1002.93 1501.16 1002.93H1497.64V1028.28H1501.16V1028.32ZM1515.8 993.527C1511.58 991.353 1506.7 990.266 1501.16 990.266H1497.64H1490.73H1484.32V1041.02H1490.73H1497.64H1501.16C1506.66 1041.02 1511.55 1039.93 1515.8 1037.75C1520.09 1035.58 1523.4 1032.6 1525.8 1028.78C1528.21 1024.95 1529.39 1020.57 1529.39 1015.66C1529.39 1010.68 1528.21 1006.29 1525.8 1002.54C1523.4 998.683 1520.05 995.702 1515.8 993.527ZM1605.29 1014.82L1586.74 1041.02H1602.81L1612.68 1025.93L1622.51 1040.98H1638.58L1620.14 1014.75L1638.02 990.23H1622.09L1612.68 1004.01L1603.23 990.266H1587.3L1605.29 1014.82ZM1670.65 1030.84L1656.95 1011.03V1041.02H1643.63V991.704V990.266H1650.19H1656.95H1658.38L1670.58 1008.4L1682.75 990.266H1684.18H1691.12H1697.53V991.493V1041.02H1684.21V1010.99L1670.65 1030.84ZM1738.25 1032.88L1741.21 1041.02H1755.33L1736.02 990.266H1734.94H1722.77H1721.69L1702.38 1041.02H1716.49L1719.46 1032.88H1738.25ZM1733.96 1021.06L1728.83 1007L1723.71 1021.06H1733.96ZM1765.54 1041.02V1002.58H1751.29V990.266H1793.08V1002.58H1778.9V1041.02H1765.54ZM1798.66 990.266V1041.02H1808.04H1812.01H1833V1028.71H1812.01V1021.59H1828.57V1009.59H1812.01V1002.58H1832.48V990.266H1812.01H1808.04H1798.66Z" fill="#313D4E"/>
<defs>
<radialGradient id="paint0_radial_695_46580" cx="0" cy="0" r="1" gradientUnits="userSpaceOnUse" gradientTransform="translate(960) rotate(90) scale(1080 1920)">
<stop stop-color="#354776"/>
<stop offset="1" stop-color="#130A2D"/>
</radialGradient>
<linearGradient id="paint1_linear_695_46580" x1="353" y1="468.109" x2="535.226" y2="979.861" gradientUnits="userSpaceOnUse">
<stop stop-color="#F4F7FF"/>
<stop offset="1" stop-color="white"/>
</linearGradient>
<linearGradient id="paint2_linear_695_46580" x1="1461.36" y1="979.492" x2="1394.48" y2="1048.59" gradientUnits="userSpaceOnUse">
<stop stop-color="#7B79FF"/>
<stop offset="1" stop-color="#4240B8"/>
</linearGradient>
<linearGradient id="paint3_linear_695_46580" x1="1470.41" y1="978.711" x2="1425.41" y2="1017.37" gradientUnits="userSpaceOnUse">
<stop stop-color="#7B79FF"/>
<stop offset="1" stop-color="#7B79FF" stop-opacity="0"/>
</linearGradient>
</defs>
</svg>
