<svg width="1920" height="1080" viewBox="0 0 1920 1080" fill="none" xmlns="http://www.w3.org/2000/svg">
<rect width="1920" height="1080" fill="url(#paint0_radial_695_46565)"/>
<g style="mix-blend-mode:overlay" opacity="0.25">
<path fill-rule="evenodd" clip-rule="evenodd" d="M534 967L635.329 348.819C749.68 348.819 836.36 451.713 818.047 564.407L782.643 779.586H861.997C901.878 779.586 937.282 772.645 968.21 758.762C999.544 744.471 1025.59 720.789 1046.75 687.308C1067.91 653.827 1083.37 607.688 1092.73 549.708C1101.69 494.586 1101.28 452.122 1091.92 422.315C1082.56 392.1 1064.66 371.277 1038.2 359.844C1011.75 348.003 977.569 341.878 936.061 341.878L857.521 340.653C697.999 340.653 649.165 216.936 644.689 154.872H969.023C1051.63 154.872 1120.41 171.205 1175.75 205.095C1231.1 238.576 1270.57 286.756 1293.77 348.819C1316.96 411.291 1321.44 485.603 1307.6 571.756C1294.17 654.643 1266.5 725.689 1224.99 784.486C1183.48 843.282 1130.99 888.605 1066.69 919.636C1002.8 950.668 929.957 966.592 848.161 966.592H534V967Z" fill="white"/>
<path fill-rule="evenodd" clip-rule="evenodd" d="M723.637 155.281H968.617C1051.23 155.281 1120 171.613 1175.35 205.503C1230.69 238.984 1270.16 287.165 1293.36 349.228C1316.55 411.699 1321.03 486.011 1307.2 572.165C1293.77 655.052 1266.09 726.097 1224.59 784.894C1199.35 820.417 1170.46 851.04 1136.69 876.764C1136.69 876.764 1136.69 876.764 1137.09 876.764C1201.39 845.732 1254.29 800.41 1295.39 741.613C1336.9 682.817 1364.57 611.771 1378 528.884C1392.25 442.731 1387.36 368.418 1364.17 305.947C1340.97 243.476 1301.5 195.703 1246.15 162.222C1191.22 128.332 1122.44 112 1039.83 112H715.091C715.905 124.658 718.754 139.357 723.637 155.281Z" fill="white" fill-opacity="0.5"/>
</g>
<path d="M600.607 505.182V575H587.857L557.482 531.057H556.971V575H542.209V505.182H555.164L585.3 549.091H585.914V505.182H600.607ZM634.474 576.023C629.088 576.023 624.451 574.932 620.565 572.75C616.701 570.545 613.724 567.432 611.633 563.409C609.542 559.364 608.497 554.58 608.497 549.057C608.497 543.67 609.542 538.943 611.633 534.875C613.724 530.807 616.667 527.636 620.463 525.364C624.281 523.091 628.758 521.955 633.895 521.955C637.349 521.955 640.565 522.511 643.542 523.625C646.542 524.716 649.156 526.364 651.383 528.568C653.633 530.773 655.383 533.545 656.633 536.886C657.883 540.205 658.508 544.091 658.508 548.545V552.534H614.292V543.534H644.838C644.838 541.443 644.383 539.591 643.474 537.977C642.565 536.364 641.304 535.102 639.69 534.193C638.099 533.261 636.247 532.795 634.133 532.795C631.929 532.795 629.974 533.307 628.27 534.33C626.588 535.33 625.27 536.682 624.315 538.386C623.36 540.068 622.872 541.943 622.849 544.011V552.568C622.849 555.159 623.326 557.398 624.281 559.284C625.258 561.17 626.633 562.625 628.406 563.648C630.179 564.67 632.281 565.182 634.713 565.182C636.326 565.182 637.804 564.955 639.145 564.5C640.485 564.045 641.633 563.364 642.588 562.455C643.542 561.545 644.27 560.432 644.77 559.114L658.201 560C657.52 563.227 656.122 566.045 654.008 568.455C651.917 570.841 649.213 572.705 645.895 574.045C642.599 575.364 638.792 576.023 634.474 576.023ZM676.02 575L661.77 522.636H676.463L684.577 557.818H685.054L693.509 522.636H707.929L716.52 557.614H716.963L724.94 522.636H739.6L725.384 575H710.009L701.009 542.068H700.361L691.361 575H676.02ZM809.123 505.182H823.885V550.523C823.885 555.614 822.669 560.068 820.237 563.886C817.828 567.705 814.453 570.682 810.112 572.818C805.771 574.932 800.714 575.989 794.941 575.989C789.146 575.989 784.078 574.932 779.737 572.818C775.396 570.682 772.021 567.705 769.612 563.886C767.203 560.068 765.998 555.614 765.998 550.523V505.182H780.76V549.261C780.76 551.92 781.339 554.284 782.498 556.352C783.68 558.42 785.339 560.045 787.475 561.227C789.612 562.409 792.1 563 794.941 563C797.805 563 800.294 562.409 802.407 561.227C804.544 560.045 806.191 558.42 807.35 556.352C808.532 554.284 809.123 551.92 809.123 549.261V505.182ZM877.405 537.568L864.109 538.386C863.882 537.25 863.394 536.227 862.644 535.318C861.894 534.386 860.905 533.648 859.678 533.102C858.473 532.534 857.03 532.25 855.348 532.25C853.098 532.25 851.2 532.727 849.655 533.682C848.109 534.614 847.337 535.864 847.337 537.432C847.337 538.682 847.837 539.739 848.837 540.602C849.837 541.466 851.553 542.159 853.984 542.682L863.462 544.591C868.553 545.636 872.348 547.318 874.848 549.636C877.348 551.955 878.598 555 878.598 558.773C878.598 562.205 877.587 565.216 875.564 567.807C873.564 570.398 870.814 572.42 867.314 573.875C863.837 575.307 859.825 576.023 855.28 576.023C848.348 576.023 842.825 574.58 838.712 571.693C834.621 568.784 832.223 564.83 831.519 559.83L845.803 559.08C846.234 561.193 847.28 562.807 848.939 563.92C850.598 565.011 852.723 565.557 855.314 565.557C857.859 565.557 859.905 565.068 861.45 564.091C863.019 563.091 863.814 561.807 863.837 560.239C863.814 558.92 863.257 557.841 862.166 557C861.075 556.136 859.394 555.477 857.121 555.023L848.053 553.216C842.939 552.193 839.132 550.42 836.632 547.898C834.155 545.375 832.916 542.159 832.916 538.25C832.916 534.886 833.825 531.989 835.644 529.557C837.484 527.125 840.064 525.25 843.382 523.932C846.723 522.614 850.632 521.955 855.109 521.955C861.723 521.955 866.928 523.352 870.723 526.148C874.541 528.943 876.769 532.75 877.405 537.568ZM909.687 576.023C904.3 576.023 899.664 574.932 895.777 572.75C891.914 570.545 888.937 567.432 886.846 563.409C884.755 559.364 883.709 554.58 883.709 549.057C883.709 543.67 884.755 538.943 886.846 534.875C888.937 530.807 891.88 527.636 895.675 525.364C899.493 523.091 903.971 521.955 909.107 521.955C912.562 521.955 915.777 522.511 918.755 523.625C921.755 524.716 924.368 526.364 926.596 528.568C928.846 530.773 930.596 533.545 931.846 536.886C933.096 540.205 933.721 544.091 933.721 548.545V552.534H889.505V543.534H920.05C920.05 541.443 919.596 539.591 918.687 537.977C917.777 536.364 916.516 535.102 914.902 534.193C913.312 533.261 911.459 532.795 909.346 532.795C907.141 532.795 905.187 533.307 903.482 534.33C901.8 535.33 900.482 536.682 899.527 538.386C898.573 540.068 898.084 541.943 898.062 544.011V552.568C898.062 555.159 898.539 557.398 899.493 559.284C900.471 561.17 901.846 562.625 903.618 563.648C905.391 564.67 907.493 565.182 909.925 565.182C911.539 565.182 913.016 564.955 914.357 564.5C915.698 564.045 916.846 563.364 917.8 562.455C918.755 561.545 919.482 560.432 919.982 559.114L933.414 560C932.732 563.227 931.334 566.045 929.221 568.455C927.13 570.841 924.425 572.705 921.107 574.045C917.812 575.364 914.005 576.023 909.687 576.023ZM941.278 575V522.636H955.357V531.773H955.903C956.857 528.523 958.46 526.068 960.71 524.409C962.96 522.727 965.551 521.886 968.482 521.886C969.21 521.886 969.994 521.932 970.835 522.023C971.676 522.114 972.414 522.239 973.051 522.398V535.284C972.369 535.08 971.426 534.898 970.221 534.739C969.017 534.58 967.914 534.5 966.914 534.5C964.778 534.5 962.869 534.966 961.187 535.898C959.528 536.807 958.21 538.08 957.232 539.716C956.278 541.352 955.801 543.239 955.801 545.375V575H941.278ZM1060.81 529.625H1045.88C1045.61 527.693 1045.05 525.977 1044.21 524.477C1043.37 522.955 1042.29 521.659 1040.97 520.591C1039.65 519.523 1038.13 518.705 1036.4 518.136C1034.7 517.568 1032.85 517.284 1030.85 517.284C1027.23 517.284 1024.09 518.182 1021.4 519.977C1018.72 521.75 1016.64 524.341 1015.17 527.75C1013.69 531.136 1012.95 535.25 1012.95 540.091C1012.95 545.068 1013.69 549.25 1015.17 552.636C1016.67 556.023 1018.76 558.58 1021.44 560.307C1024.12 562.034 1027.22 562.898 1030.74 562.898C1032.72 562.898 1034.55 562.636 1036.23 562.114C1037.94 561.591 1039.45 560.83 1040.77 559.83C1042.09 558.807 1043.18 557.568 1044.04 556.114C1044.93 554.659 1045.54 553 1045.88 551.136L1060.81 551.205C1060.43 554.409 1059.46 557.5 1057.92 560.477C1056.39 563.432 1054.34 566.08 1051.74 568.42C1049.18 570.739 1046.11 572.58 1042.54 573.943C1038.99 575.284 1034.98 575.955 1030.51 575.955C1024.28 575.955 1018.71 574.545 1013.8 571.727C1008.92 568.909 1005.05 564.83 1002.21 559.489C999.392 554.148 997.983 547.682 997.983 540.091C997.983 532.477 999.415 526 1002.28 520.659C1005.14 515.318 1009.03 511.25 1013.94 508.455C1018.85 505.636 1024.37 504.227 1030.51 504.227C1034.55 504.227 1038.3 504.795 1041.76 505.932C1045.23 507.068 1048.31 508.727 1050.99 510.909C1053.68 513.068 1055.86 515.716 1057.54 518.852C1059.24 521.989 1060.34 525.58 1060.81 529.625ZM1069.21 575V522.636H1083.28V531.773H1083.83C1084.78 528.523 1086.39 526.068 1088.64 524.409C1090.89 522.727 1093.48 521.886 1096.41 521.886C1097.14 521.886 1097.92 521.932 1098.76 522.023C1099.6 522.114 1100.34 522.239 1100.98 522.398V535.284C1100.3 535.08 1099.35 534.898 1098.15 534.739C1096.94 534.58 1095.84 534.5 1094.84 534.5C1092.71 534.5 1090.8 534.966 1089.11 535.898C1087.46 536.807 1086.14 538.08 1085.16 539.716C1084.21 541.352 1083.73 543.239 1083.73 545.375V575H1069.21ZM1127.99 576.023C1122.61 576.023 1117.97 574.932 1114.08 572.75C1110.22 570.545 1107.24 567.432 1105.15 563.409C1103.06 559.364 1102.02 554.58 1102.02 549.057C1102.02 543.67 1103.06 538.943 1105.15 534.875C1107.24 530.807 1110.19 527.636 1113.98 525.364C1117.8 523.091 1122.28 521.955 1127.41 521.955C1130.87 521.955 1134.08 522.511 1137.06 523.625C1140.06 524.716 1142.67 526.364 1144.9 528.568C1147.15 530.773 1148.9 533.545 1150.15 536.886C1151.4 540.205 1152.03 544.091 1152.03 548.545V552.534H1107.81V543.534H1138.36C1138.36 541.443 1137.9 539.591 1136.99 537.977C1136.08 536.364 1134.82 535.102 1133.21 534.193C1131.62 533.261 1129.77 532.795 1127.65 532.795C1125.45 532.795 1123.49 533.307 1121.79 534.33C1120.11 535.33 1118.79 536.682 1117.83 538.386C1116.88 540.068 1116.39 541.943 1116.37 544.011V552.568C1116.37 555.159 1116.85 557.398 1117.8 559.284C1118.78 561.17 1120.15 562.625 1121.92 563.648C1123.7 564.67 1125.8 565.182 1128.23 565.182C1129.85 565.182 1131.32 564.955 1132.66 564.5C1134 564.045 1135.15 563.364 1136.11 562.455C1137.06 561.545 1137.79 560.432 1138.29 559.114L1151.72 560C1151.04 563.227 1149.64 566.045 1147.53 568.455C1145.44 570.841 1142.73 572.705 1139.41 574.045C1136.12 575.364 1132.31 576.023 1127.99 576.023ZM1174.52 575.989C1171.18 575.989 1168.2 575.409 1165.58 574.25C1162.97 573.068 1160.9 571.33 1159.38 569.034C1157.88 566.716 1157.13 563.83 1157.13 560.375C1157.13 557.466 1157.66 555.023 1158.73 553.045C1159.8 551.068 1161.25 549.477 1163.1 548.273C1164.94 547.068 1167.03 546.159 1169.37 545.545C1171.73 544.932 1174.21 544.5 1176.8 544.25C1179.85 543.932 1182.3 543.636 1184.16 543.364C1186.03 543.068 1187.38 542.636 1188.22 542.068C1189.06 541.5 1189.48 540.659 1189.48 539.545V539.341C1189.48 537.182 1188.8 535.511 1187.44 534.33C1186.1 533.148 1184.19 532.557 1181.71 532.557C1179.1 532.557 1177.02 533.136 1175.47 534.295C1173.93 535.432 1172.9 536.864 1172.4 538.591L1158.97 537.5C1159.65 534.318 1160.99 531.568 1162.99 529.25C1164.99 526.909 1167.57 525.114 1170.73 523.864C1173.91 522.591 1177.6 521.955 1181.78 521.955C1184.69 521.955 1187.47 522.295 1190.13 522.977C1192.81 523.659 1195.19 524.716 1197.25 526.148C1199.35 527.58 1200.99 529.42 1202.2 531.67C1203.4 533.898 1204 536.568 1204 539.682V575H1190.23V567.739H1189.82C1188.98 569.375 1187.86 570.818 1186.45 572.068C1185.04 573.295 1183.35 574.261 1181.37 574.966C1179.39 575.648 1177.11 575.989 1174.52 575.989ZM1178.68 565.966C1180.81 565.966 1182.7 565.545 1184.33 564.705C1185.97 563.841 1187.25 562.682 1188.19 561.227C1189.12 559.773 1189.58 558.125 1189.58 556.284V550.727C1189.13 551.023 1188.5 551.295 1187.71 551.545C1186.94 551.773 1186.06 551.989 1185.08 552.193C1184.11 552.375 1183.13 552.545 1182.15 552.705C1181.18 552.841 1180.29 552.966 1179.49 553.08C1177.79 553.33 1176.3 553.727 1175.03 554.273C1173.75 554.818 1172.77 555.557 1172.06 556.489C1171.36 557.398 1171 558.534 1171 559.898C1171 561.875 1171.72 563.386 1173.15 564.432C1174.61 565.455 1176.45 565.966 1178.68 565.966ZM1241.2 522.636V533.545H1209.67V522.636H1241.2ZM1216.83 510.091H1231.35V558.909C1231.35 560.25 1231.56 561.295 1231.97 562.045C1232.37 562.773 1232.94 563.284 1233.67 563.58C1234.42 563.875 1235.28 564.023 1236.26 564.023C1236.94 564.023 1237.62 563.966 1238.31 563.852C1238.99 563.716 1239.51 563.614 1239.87 563.545L1242.16 574.352C1241.43 574.58 1240.41 574.841 1239.09 575.136C1237.77 575.455 1236.17 575.648 1234.28 575.716C1230.78 575.852 1227.72 575.386 1225.08 574.318C1222.47 573.25 1220.43 571.591 1218.98 569.341C1217.52 567.091 1216.81 564.25 1216.83 560.818V510.091ZM1248.74 575V522.636H1263.27V575H1248.74ZM1256.04 515.886C1253.88 515.886 1252.03 515.17 1250.48 513.739C1248.96 512.284 1248.2 510.545 1248.2 508.523C1248.2 506.523 1248.96 504.807 1250.48 503.375C1252.03 501.92 1253.88 501.193 1256.04 501.193C1258.2 501.193 1260.04 501.92 1261.56 503.375C1263.11 504.807 1263.88 506.523 1263.88 508.523C1263.88 510.545 1263.11 512.284 1261.56 513.739C1260.04 515.17 1258.2 515.886 1256.04 515.886ZM1296.64 576.023C1291.34 576.023 1286.76 574.898 1282.9 572.648C1279.06 570.375 1276.09 567.216 1274 563.17C1271.91 559.102 1270.87 554.386 1270.87 549.023C1270.87 543.614 1271.91 538.886 1274 534.841C1276.09 530.773 1279.06 527.614 1282.9 525.364C1286.76 523.091 1291.34 521.955 1296.64 521.955C1301.93 521.955 1306.5 523.091 1310.34 525.364C1314.21 527.614 1317.18 530.773 1319.28 534.841C1321.37 538.886 1322.41 543.614 1322.41 549.023C1322.41 554.386 1321.37 559.102 1319.28 563.17C1317.18 567.216 1314.21 570.375 1310.34 572.648C1306.5 574.898 1301.93 576.023 1296.64 576.023ZM1296.71 564.773C1299.12 564.773 1301.13 564.091 1302.74 562.727C1304.36 561.341 1305.57 559.455 1306.39 557.068C1307.23 554.682 1307.65 551.966 1307.65 548.92C1307.65 545.875 1307.23 543.159 1306.39 540.773C1305.57 538.386 1304.36 536.5 1302.74 535.114C1301.13 533.727 1299.12 533.034 1296.71 533.034C1294.28 533.034 1292.23 533.727 1290.57 535.114C1288.93 536.5 1287.7 538.386 1286.86 540.773C1286.04 543.159 1285.63 545.875 1285.63 548.92C1285.63 551.966 1286.04 554.682 1286.86 557.068C1287.7 559.455 1288.93 561.341 1290.57 562.727C1292.23 564.091 1294.28 564.773 1296.71 564.773ZM1344.46 544.727V575H1329.94V522.636H1343.78V531.875H1344.39C1345.55 528.83 1347.49 526.42 1350.22 524.648C1352.95 522.852 1356.25 521.955 1360.14 521.955C1363.78 521.955 1366.95 522.75 1369.65 524.341C1372.36 525.932 1374.46 528.205 1375.96 531.159C1377.46 534.091 1378.21 537.591 1378.21 541.659V575H1363.69V544.25C1363.71 541.045 1362.89 538.545 1361.23 536.75C1359.57 534.932 1357.29 534.023 1354.38 534.023C1352.42 534.023 1350.7 534.443 1349.2 535.284C1347.72 536.125 1346.56 537.352 1345.72 538.966C1344.9 540.557 1344.48 542.477 1344.46 544.727Z" fill="url(#paint1_linear_695_46565)"/>
<path fill-rule="evenodd" clip-rule="evenodd" d="M1920 888V952V1080H1311H1247L1248 1079.98C1282.95 1079.44 1311 1050.95 1311 1016C1311 980.652 1339.65 952 1375 952H1854.99C1890.5 952 1919.45 923.507 1920 888Z" fill="white"/>
<path fill-rule="evenodd" clip-rule="evenodd" d="M1398 1052L1406.65 999.22C1416.4 999.22 1423.8 1008 1422.23 1017.63L1419.21 1036H1425.98C1429.39 1036 1432.41 1035.41 1435.05 1034.22C1437.72 1033 1439.94 1030.98 1441.75 1028.12C1443.55 1025.26 1444.87 1021.32 1445.67 1016.37C1446.43 1011.67 1446.4 1008.04 1445.6 1005.49C1444.8 1002.91 1443.27 1001.14 1441.02 1000.16C1438.76 999.15 1435.84 998.627 1432.3 998.627L1425.6 998.522C1411.99 998.522 1407.83 987.959 1407.44 982.66H1435.11C1442.16 982.66 1448.03 984.055 1452.75 986.948C1457.47 989.807 1460.84 993.921 1462.82 999.22C1464.8 1004.55 1465.18 1010.9 1464 1018.25C1462.85 1025.33 1460.49 1031.4 1456.95 1036.42C1453.41 1041.44 1448.93 1045.31 1443.45 1047.96C1438 1050.61 1431.78 1051.97 1424.8 1051.97H1398V1052Z" fill="url(#paint2_linear_695_46565)"/>
<path fill-rule="evenodd" clip-rule="evenodd" d="M1414.18 982.695H1435.08C1442.13 982.695 1448 984.09 1452.72 986.983C1457.44 989.842 1460.81 993.956 1462.79 999.255C1464.76 1004.59 1465.15 1010.93 1463.97 1018.29C1462.82 1025.37 1460.46 1031.43 1456.92 1036.45C1454.77 1039.48 1452.3 1042.1 1449.42 1044.3C1449.42 1044.3 1449.42 1044.3 1449.45 1044.3C1454.94 1041.65 1459.45 1037.78 1462.96 1032.76C1466.5 1027.74 1468.86 1021.67 1470.01 1014.59C1471.22 1007.24 1470.81 1000.89 1468.83 995.559C1466.85 990.225 1463.48 986.147 1458.76 983.288C1454.07 980.394 1448.2 979 1441.16 979H1413.45C1413.52 980.081 1413.76 981.336 1414.18 982.695Z" fill="url(#paint3_linear_695_46565)"/>
<path fill-rule="evenodd" clip-rule="evenodd" d="M1560.04 1041.86C1554.74 1041.86 1550.07 1040.74 1545.99 1038.53C1541.94 1036.25 1538.77 1033.16 1536.47 1029.23C1534.17 1025.27 1533.02 1020.74 1533.02 1015.66C1533.02 1010.54 1534.17 1006.01 1536.47 1002.09C1538.77 998.122 1541.94 995.035 1545.99 992.791C1550.03 990.511 1554.67 989.389 1559.9 989.389C1565.2 989.389 1569.83 990.511 1573.88 992.791C1577.92 995 1581.09 998.122 1583.39 1002.09C1585.69 1006.01 1586.85 1010.5 1586.85 1015.66C1586.85 1020.74 1585.69 1025.27 1583.39 1029.23C1581.13 1033.16 1577.99 1036.25 1573.95 1038.53C1569.9 1040.77 1565.27 1041.86 1560.04 1041.86ZM1560.04 1029.55C1562.62 1029.55 1564.92 1028.95 1566.87 1027.79C1568.86 1026.6 1570.39 1024.95 1571.47 1022.85C1572.59 1020.78 1573.14 1018.39 1573.14 1015.66C1573.14 1012.96 1572.55 1010.57 1571.4 1008.47C1570.29 1006.33 1568.75 1004.72 1566.73 1003.52C1564.78 1002.33 1562.48 1001.7 1559.9 1001.7C1557.35 1001.7 1555.09 1002.3 1553.06 1003.52C1551.11 1004.68 1549.54 1006.33 1548.39 1008.47C1547.28 1010.54 1546.72 1012.92 1546.72 1015.66C1546.72 1018.36 1547.31 1020.74 1548.46 1022.85C1549.61 1024.92 1551.18 1026.57 1553.13 1027.79C1555.12 1028.95 1557.42 1029.55 1560.04 1029.55ZM1501.16 1028.32C1503.28 1028.32 1505.2 1028 1506.98 1027.37C1508.76 1026.74 1510.29 1025.86 1511.58 1024.78C1512.87 1023.65 1513.88 1022.32 1514.61 1020.78C1515.34 1019.24 1515.69 1017.52 1515.69 1015.62C1515.69 1013.73 1515.34 1012.01 1514.61 1010.47C1513.88 1008.92 1512.87 1007.59 1511.58 1006.47C1510.29 1005.35 1508.76 1004.51 1506.98 1003.87C1505.2 1003.24 1503.25 1002.93 1501.16 1002.93H1497.64V1028.28H1501.16V1028.32ZM1515.8 993.527C1511.58 991.353 1506.7 990.266 1501.16 990.266H1497.64H1490.73H1484.32V1041.02H1490.73H1497.64H1501.16C1506.66 1041.02 1511.55 1039.93 1515.8 1037.75C1520.09 1035.58 1523.4 1032.6 1525.8 1028.78C1528.21 1024.95 1529.39 1020.57 1529.39 1015.66C1529.39 1010.68 1528.21 1006.29 1525.8 1002.54C1523.4 998.683 1520.05 995.702 1515.8 993.527ZM1605.29 1014.82L1586.74 1041.02H1602.81L1612.68 1025.93L1622.51 1040.98H1638.58L1620.14 1014.75L1638.02 990.23H1622.09L1612.68 1004.01L1603.23 990.266H1587.3L1605.29 1014.82ZM1670.65 1030.84L1656.95 1011.03V1041.02H1643.63V991.704V990.266H1650.19H1656.95H1658.38L1670.58 1008.4L1682.75 990.266H1684.18H1691.12H1697.53V991.493V1041.02H1684.21V1010.99L1670.65 1030.84ZM1738.25 1032.88L1741.21 1041.02H1755.33L1736.02 990.266H1734.94H1722.77H1721.69L1702.38 1041.02H1716.49L1719.46 1032.88H1738.25ZM1733.96 1021.06L1728.83 1007L1723.71 1021.06H1733.96ZM1765.54 1041.02V1002.58H1751.29V990.266H1793.08V1002.58H1778.9V1041.02H1765.54ZM1798.66 990.266V1041.02H1808.04H1812.01H1833V1028.71H1812.01V1021.59H1828.57V1009.59H1812.01V1002.58H1832.48V990.266H1812.01H1808.04H1798.66Z" fill="#313D4E"/>
<defs>
<radialGradient id="paint0_radial_695_46565" cx="0" cy="0" r="1" gradientUnits="userSpaceOnUse" gradientTransform="translate(960) rotate(90) scale(1080 1920)">
<stop stop-color="#354776"/>
<stop offset="1" stop-color="#130A2D"/>
</radialGradient>
<linearGradient id="paint1_linear_695_46565" x1="536" y1="468.109" x2="769.434" y2="925.653" gradientUnits="userSpaceOnUse">
<stop stop-color="#F4F7FF"/>
<stop offset="1" stop-color="white"/>
</linearGradient>
<linearGradient id="paint2_linear_695_46565" x1="1461.36" y1="979.492" x2="1394.48" y2="1048.59" gradientUnits="userSpaceOnUse">
<stop stop-color="#7B79FF"/>
<stop offset="1" stop-color="#4240B8"/>
</linearGradient>
<linearGradient id="paint3_linear_695_46565" x1="1470.41" y1="978.711" x2="1425.41" y2="1017.37" gradientUnits="userSpaceOnUse">
<stop stop-color="#7B79FF"/>
<stop offset="1" stop-color="#7B79FF" stop-opacity="0"/>
</linearGradient>
</defs>
</svg>
