<svg width="1920" height="1080" viewBox="0 0 1920 1080" fill="none" xmlns="http://www.w3.org/2000/svg">
<rect width="1920" height="1080" fill="url(#paint0_radial_695_46606)"/>
<g style="mix-blend-mode:overlay" opacity="0.25">
<path fill-rule="evenodd" clip-rule="evenodd" d="M537 964L637.616 350.881C751.162 350.881 837.23 452.932 819.047 564.703L783.892 778.12H862.687C902.287 778.12 937.442 771.236 968.152 757.467C999.266 743.293 1025.13 719.805 1046.14 686.598C1067.15 653.391 1082.51 607.629 1091.8 550.124C1100.69 495.454 1100.29 453.337 1090.99 423.775C1081.7 393.807 1063.92 373.154 1037.65 361.815C1011.39 350.071 977.446 343.996 936.23 343.996L858.242 342.781C699.844 342.781 651.354 220.076 646.909 158.521H968.96C1050.99 158.521 1119.28 174.72 1174.23 208.332C1229.19 241.54 1268.38 289.326 1291.41 350.881C1314.45 412.84 1318.89 486.544 1305.15 571.992C1291.82 654.201 1264.34 724.665 1223.13 782.98C1181.91 841.295 1129.78 886.246 1065.94 917.024C1002.5 947.801 930.168 963.595 848.949 963.595H537V964Z" fill="white"/>
<path fill-rule="evenodd" clip-rule="evenodd" d="M725.301 158.926H968.557C1050.58 158.926 1118.87 175.125 1173.83 208.737C1228.78 241.945 1267.98 289.731 1291.01 351.286C1314.04 413.245 1318.49 486.949 1304.75 572.397C1291.42 654.605 1263.94 725.07 1222.72 783.385C1197.67 818.617 1168.98 848.989 1135.44 874.502C1135.44 874.502 1135.44 874.502 1135.85 874.502C1199.69 843.725 1252.22 798.774 1293.03 740.458C1334.25 682.143 1361.73 611.679 1375.06 529.471C1389.2 444.023 1384.35 370.319 1361.32 308.359C1338.29 246.399 1299.09 199.018 1244.14 165.811C1189.59 132.199 1121.3 116 1039.27 116H716.816C717.624 128.554 720.452 143.133 725.301 158.926Z" fill="white" fill-opacity="0.5"/>
</g>
<path d="M613.609 505.182H628.37V550.523C628.37 555.614 627.154 560.068 624.722 563.886C622.313 567.705 618.938 570.682 614.597 572.818C610.257 574.932 605.2 575.989 599.427 575.989C593.632 575.989 588.563 574.932 584.222 572.818C579.882 570.682 576.507 567.705 574.097 563.886C571.688 560.068 570.484 555.614 570.484 550.523V505.182H585.245V549.261C585.245 551.92 585.825 554.284 586.984 556.352C588.166 558.42 589.825 560.045 591.961 561.227C594.097 562.409 596.586 563 599.427 563C602.291 563 604.779 562.409 606.893 561.227C609.029 560.045 610.677 558.42 611.836 556.352C613.018 554.284 613.609 551.92 613.609 549.261V505.182ZM681.891 537.568L668.595 538.386C668.368 537.25 667.879 536.227 667.129 535.318C666.379 534.386 665.391 533.648 664.163 533.102C662.959 532.534 661.516 532.25 659.834 532.25C657.584 532.25 655.686 532.727 654.141 533.682C652.595 534.614 651.822 535.864 651.822 537.432C651.822 538.682 652.322 539.739 653.322 540.602C654.322 541.466 656.038 542.159 658.47 542.682L667.947 544.591C673.038 545.636 676.834 547.318 679.334 549.636C681.834 551.955 683.084 555 683.084 558.773C683.084 562.205 682.072 565.216 680.05 567.807C678.05 570.398 675.3 572.42 671.8 573.875C668.322 575.307 664.311 576.023 659.766 576.023C652.834 576.023 647.311 574.58 643.197 571.693C639.106 568.784 636.709 564.83 636.004 559.83L650.288 559.08C650.72 561.193 651.766 562.807 653.425 563.92C655.084 565.011 657.209 565.557 659.8 565.557C662.345 565.557 664.391 565.068 665.936 564.091C667.504 563.091 668.3 561.807 668.322 560.239C668.3 558.92 667.743 557.841 666.652 557C665.561 556.136 663.879 555.477 661.606 555.023L652.538 553.216C647.425 552.193 643.618 550.42 641.118 547.898C638.641 545.375 637.402 542.159 637.402 538.25C637.402 534.886 638.311 531.989 640.129 529.557C641.97 527.125 644.55 525.25 647.868 523.932C651.209 522.614 655.118 521.955 659.595 521.955C666.209 521.955 671.413 523.352 675.209 526.148C679.027 528.943 681.254 532.75 681.891 537.568ZM690.309 575V522.636H704.831V575H690.309ZM697.604 515.886C695.445 515.886 693.593 515.17 692.047 513.739C690.524 512.284 689.763 510.545 689.763 508.523C689.763 506.523 690.524 504.807 692.047 503.375C693.593 501.92 695.445 501.193 697.604 501.193C699.763 501.193 701.604 501.92 703.127 503.375C704.672 504.807 705.445 506.523 705.445 508.523C705.445 510.545 704.672 512.284 703.127 513.739C701.604 515.17 699.763 515.886 697.604 515.886ZM729.068 544.727V575H714.545V522.636H728.386V531.875H728.999C730.158 528.83 732.102 526.42 734.829 524.648C737.556 522.852 740.863 521.955 744.749 521.955C748.386 521.955 751.556 522.75 754.261 524.341C756.965 525.932 759.068 528.205 760.568 531.159C762.068 534.091 762.818 537.591 762.818 541.659V575H748.295V544.25C748.318 541.045 747.499 538.545 745.84 536.75C744.181 534.932 741.897 534.023 738.988 534.023C737.033 534.023 735.306 534.443 733.806 535.284C732.329 536.125 731.17 537.352 730.329 538.966C729.511 540.557 729.09 542.477 729.068 544.727ZM795.934 595.727C791.23 595.727 787.196 595.08 783.832 593.784C780.491 592.511 777.832 590.773 775.855 588.568C773.878 586.364 772.594 583.886 772.003 581.136L785.434 579.33C785.844 580.375 786.491 581.352 787.378 582.261C788.264 583.17 789.434 583.898 790.889 584.443C792.366 585.011 794.162 585.295 796.275 585.295C799.434 585.295 802.037 584.523 804.082 582.977C806.15 581.455 807.184 578.898 807.184 575.307V565.727H806.571C805.934 567.182 804.98 568.557 803.707 569.852C802.434 571.148 800.798 572.205 798.798 573.023C796.798 573.841 794.412 574.25 791.639 574.25C787.707 574.25 784.128 573.341 780.9 571.523C777.696 569.682 775.139 566.875 773.23 563.102C771.344 559.307 770.4 554.511 770.4 548.716C770.4 542.784 771.366 537.83 773.298 533.852C775.23 529.875 777.798 526.898 781.003 524.92C784.23 522.943 787.764 521.955 791.605 521.955C794.537 521.955 796.991 522.455 798.969 523.455C800.946 524.432 802.537 525.659 803.741 527.136C804.969 528.591 805.912 530.023 806.571 531.432H807.116V522.636H821.537V575.511C821.537 579.966 820.446 583.693 818.264 586.693C816.082 589.693 813.059 591.943 809.196 593.443C805.355 594.966 800.934 595.727 795.934 595.727ZM796.241 563.341C798.582 563.341 800.559 562.761 802.173 561.602C803.809 560.42 805.059 558.739 805.923 556.557C806.809 554.352 807.253 551.716 807.253 548.648C807.253 545.58 806.821 542.92 805.957 540.67C805.094 538.398 803.844 536.636 802.207 535.386C800.571 534.136 798.582 533.511 796.241 533.511C793.855 533.511 791.844 534.159 790.207 535.455C788.571 536.727 787.332 538.5 786.491 540.773C785.65 543.045 785.23 545.67 785.23 548.648C785.23 551.67 785.65 554.284 786.491 556.489C787.355 558.67 788.594 560.364 790.207 561.568C791.844 562.75 793.855 563.341 796.241 563.341ZM866.404 575.989C863.063 575.989 860.086 575.409 857.472 574.25C854.859 573.068 852.791 571.33 851.268 569.034C849.768 566.716 849.018 563.83 849.018 560.375C849.018 557.466 849.552 555.023 850.62 553.045C851.688 551.068 853.143 549.477 854.984 548.273C856.825 547.068 858.916 546.159 861.256 545.545C863.62 544.932 866.097 544.5 868.688 544.25C871.734 543.932 874.188 543.636 876.052 543.364C877.916 543.068 879.268 542.636 880.109 542.068C880.95 541.5 881.37 540.659 881.37 539.545V539.341C881.37 537.182 880.688 535.511 879.325 534.33C877.984 533.148 876.075 532.557 873.597 532.557C870.984 532.557 868.904 533.136 867.359 534.295C865.813 535.432 864.791 536.864 864.291 538.591L850.859 537.5C851.541 534.318 852.881 531.568 854.881 529.25C856.881 526.909 859.461 525.114 862.62 523.864C865.802 522.591 869.484 521.955 873.666 521.955C876.575 521.955 879.359 522.295 882.018 522.977C884.7 523.659 887.075 524.716 889.143 526.148C891.234 527.58 892.881 529.42 894.086 531.67C895.291 533.898 895.893 536.568 895.893 539.682V575H882.12V567.739H881.711C880.87 569.375 879.745 570.818 878.336 572.068C876.927 573.295 875.234 574.261 873.256 574.966C871.279 575.648 868.995 575.989 866.404 575.989ZM870.563 565.966C872.7 565.966 874.586 565.545 876.222 564.705C877.859 563.841 879.143 562.682 880.075 561.227C881.006 559.773 881.472 558.125 881.472 556.284V550.727C881.018 551.023 880.393 551.295 879.597 551.545C878.825 551.773 877.95 551.989 876.972 552.193C875.995 552.375 875.018 552.545 874.041 552.705C873.063 552.841 872.177 552.966 871.381 553.08C869.677 553.33 868.188 553.727 866.916 554.273C865.643 554.818 864.654 555.557 863.95 556.489C863.245 557.398 862.893 558.534 862.893 559.898C862.893 561.875 863.609 563.386 865.041 564.432C866.495 565.455 868.336 565.966 870.563 565.966ZM941.527 575L921.55 505.182H937.675L949.232 553.693H949.811L962.561 505.182H976.368L989.084 553.795H989.698L1001.25 505.182H1017.38L997.402 575H983.016L969.72 529.352H969.175L955.914 575H941.527ZM1041.12 576.023C1035.83 576.023 1031.25 574.898 1027.38 572.648C1023.54 570.375 1020.58 567.216 1018.49 563.17C1016.39 559.102 1015.35 554.386 1015.35 549.023C1015.35 543.614 1016.39 538.886 1018.49 534.841C1020.58 530.773 1023.54 527.614 1027.38 525.364C1031.25 523.091 1035.83 521.955 1041.12 521.955C1046.42 521.955 1050.99 523.091 1054.83 525.364C1058.69 527.614 1061.67 530.773 1063.76 534.841C1065.85 538.886 1066.89 543.614 1066.89 549.023C1066.89 554.386 1065.85 559.102 1063.76 563.17C1061.67 567.216 1058.69 570.375 1054.83 572.648C1050.99 574.898 1046.42 576.023 1041.12 576.023ZM1041.19 564.773C1043.6 564.773 1045.61 564.091 1047.22 562.727C1048.84 561.341 1050.05 559.455 1050.87 557.068C1051.71 554.682 1052.13 551.966 1052.13 548.92C1052.13 545.875 1051.71 543.159 1050.87 540.773C1050.05 538.386 1048.84 536.5 1047.22 535.114C1045.61 533.727 1043.6 533.034 1041.19 533.034C1038.76 533.034 1036.71 533.727 1035.05 535.114C1033.42 536.5 1032.18 538.386 1031.34 540.773C1030.52 543.159 1030.11 545.875 1030.11 548.92C1030.11 551.966 1030.52 554.682 1031.34 557.068C1032.18 559.455 1033.42 561.341 1035.05 562.727C1036.71 564.091 1038.76 564.773 1041.19 564.773ZM1074.42 575V522.636H1088.5V531.773H1089.04C1090 528.523 1091.6 526.068 1093.85 524.409C1096.1 522.727 1098.69 521.886 1101.62 521.886C1102.35 521.886 1103.13 521.932 1103.97 522.023C1104.82 522.114 1105.55 522.239 1106.19 522.398V535.284C1105.51 535.08 1104.57 534.898 1103.36 534.739C1102.16 534.58 1101.05 534.5 1100.05 534.5C1097.92 534.5 1096.01 534.966 1094.33 535.898C1092.67 536.807 1091.35 538.08 1090.37 539.716C1089.42 541.352 1088.94 543.239 1088.94 545.375V575H1074.42ZM1124.94 559.932L1124.97 542.511H1127.09L1143.86 522.636H1160.53L1137.99 548.955H1134.55L1124.94 559.932ZM1111.78 575V505.182H1126.3V575H1111.78ZM1144.51 575L1129.1 552.193L1138.78 541.932L1161.52 575H1144.51ZM1193.89 522.636V533.545H1161.57V522.636H1193.89ZM1168.97 575V518.852C1168.97 515.057 1169.71 511.909 1171.19 509.409C1172.69 506.909 1174.73 505.034 1177.32 503.784C1179.92 502.534 1182.86 501.909 1186.15 501.909C1188.38 501.909 1190.42 502.08 1192.26 502.42C1194.12 502.761 1195.51 503.068 1196.42 503.341L1193.82 514.25C1193.26 514.068 1192.55 513.898 1191.71 513.739C1190.89 513.58 1190.05 513.5 1189.19 513.5C1187.05 513.5 1185.56 514 1184.72 515C1183.88 515.977 1183.46 517.352 1183.46 519.125V575H1168.97ZM1215.37 505.182V575H1200.84V505.182H1215.37ZM1248.74 576.023C1243.44 576.023 1238.87 574.898 1235 572.648C1231.16 570.375 1228.19 567.216 1226.1 563.17C1224.01 559.102 1222.97 554.386 1222.97 549.023C1222.97 543.614 1224.01 538.886 1226.1 534.841C1228.19 530.773 1231.16 527.614 1235 525.364C1238.87 523.091 1243.44 521.955 1248.74 521.955C1254.04 521.955 1258.6 523.091 1262.44 525.364C1266.31 527.614 1269.29 530.773 1271.38 534.841C1273.47 538.886 1274.51 543.614 1274.51 549.023C1274.51 554.386 1273.47 559.102 1271.38 563.17C1269.29 567.216 1266.31 570.375 1262.44 572.648C1258.6 574.898 1254.04 576.023 1248.74 576.023ZM1248.81 564.773C1251.22 564.773 1253.23 564.091 1254.84 562.727C1256.46 561.341 1257.67 559.455 1258.49 557.068C1259.33 554.682 1259.75 551.966 1259.75 548.92C1259.75 545.875 1259.33 543.159 1258.49 540.773C1257.67 538.386 1256.46 536.5 1254.84 535.114C1253.23 533.727 1251.22 533.034 1248.81 533.034C1246.38 533.034 1244.33 533.727 1242.67 535.114C1241.04 536.5 1239.8 538.386 1238.96 540.773C1238.14 543.159 1237.73 545.875 1237.73 548.92C1237.73 551.966 1238.14 554.682 1238.96 557.068C1239.8 559.455 1241.04 561.341 1242.67 562.727C1244.33 564.091 1246.38 564.773 1248.81 564.773ZM1291.05 575L1276.8 522.636H1291.5L1299.61 557.818H1300.09L1308.54 522.636H1322.96L1331.55 557.614H1332L1339.97 522.636H1354.63L1340.42 575H1325.04L1316.04 542.068H1315.39L1306.39 575H1291.05Z" fill="url(#paint1_linear_695_46606)"/>
<path fill-rule="evenodd" clip-rule="evenodd" d="M1920 888V952V1080H1311H1247L1248 1079.98C1282.95 1079.44 1311 1050.95 1311 1016C1311 980.652 1339.65 952 1375 952H1854.99C1890.5 952 1919.45 923.507 1920 888Z" fill="white"/>
<path fill-rule="evenodd" clip-rule="evenodd" d="M1398 1052L1406.65 999.22C1416.4 999.22 1423.8 1008 1422.23 1017.63L1419.21 1036H1425.98C1429.39 1036 1432.41 1035.41 1435.05 1034.22C1437.72 1033 1439.94 1030.98 1441.75 1028.12C1443.55 1025.26 1444.87 1021.32 1445.67 1016.37C1446.43 1011.67 1446.4 1008.04 1445.6 1005.49C1444.8 1002.91 1443.27 1001.14 1441.02 1000.16C1438.76 999.15 1435.84 998.627 1432.3 998.627L1425.6 998.522C1411.99 998.522 1407.83 987.959 1407.44 982.66H1435.11C1442.16 982.66 1448.03 984.055 1452.75 986.948C1457.47 989.807 1460.84 993.921 1462.82 999.22C1464.8 1004.55 1465.18 1010.9 1464 1018.25C1462.85 1025.33 1460.49 1031.4 1456.95 1036.42C1453.41 1041.44 1448.93 1045.31 1443.45 1047.96C1438 1050.61 1431.78 1051.97 1424.8 1051.97H1398V1052Z" fill="url(#paint2_linear_695_46606)"/>
<path fill-rule="evenodd" clip-rule="evenodd" d="M1414.18 982.695H1435.08C1442.13 982.695 1448 984.09 1452.72 986.983C1457.44 989.842 1460.81 993.956 1462.79 999.255C1464.76 1004.59 1465.15 1010.93 1463.97 1018.29C1462.82 1025.37 1460.46 1031.43 1456.92 1036.45C1454.77 1039.48 1452.3 1042.1 1449.42 1044.3C1449.42 1044.3 1449.42 1044.3 1449.45 1044.3C1454.94 1041.65 1459.45 1037.78 1462.96 1032.76C1466.5 1027.74 1468.86 1021.67 1470.01 1014.59C1471.22 1007.24 1470.81 1000.89 1468.83 995.559C1466.85 990.225 1463.48 986.147 1458.76 983.288C1454.07 980.394 1448.2 979 1441.16 979H1413.45C1413.52 980.081 1413.76 981.336 1414.18 982.695Z" fill="url(#paint3_linear_695_46606)"/>
<path fill-rule="evenodd" clip-rule="evenodd" d="M1560.04 1041.86C1554.74 1041.86 1550.07 1040.74 1545.99 1038.53C1541.94 1036.25 1538.77 1033.16 1536.47 1029.23C1534.17 1025.27 1533.02 1020.74 1533.02 1015.66C1533.02 1010.54 1534.17 1006.01 1536.47 1002.08C1538.77 998.122 1541.94 995.035 1545.99 992.791C1550.03 990.511 1554.67 989.389 1559.9 989.389C1565.2 989.389 1569.83 990.511 1573.88 992.791C1577.92 995 1581.09 998.122 1583.39 1002.08C1585.69 1006.01 1586.85 1010.5 1586.85 1015.66C1586.85 1020.74 1585.69 1025.27 1583.39 1029.23C1581.13 1033.16 1577.99 1036.25 1573.95 1038.53C1569.9 1040.77 1565.27 1041.86 1560.04 1041.86ZM1560.04 1029.55C1562.62 1029.55 1564.92 1028.95 1566.87 1027.79C1568.86 1026.6 1570.39 1024.95 1571.47 1022.85C1572.59 1020.78 1573.14 1018.39 1573.14 1015.66C1573.14 1012.96 1572.55 1010.57 1571.4 1008.47C1570.29 1006.33 1568.75 1004.72 1566.73 1003.52C1564.78 1002.33 1562.48 1001.7 1559.9 1001.7C1557.35 1001.7 1555.09 1002.3 1553.06 1003.52C1551.11 1004.68 1549.54 1006.33 1548.39 1008.47C1547.28 1010.54 1546.72 1012.92 1546.72 1015.66C1546.72 1018.36 1547.31 1020.74 1548.46 1022.85C1549.61 1024.92 1551.18 1026.57 1553.13 1027.79C1555.12 1028.95 1557.42 1029.55 1560.04 1029.55ZM1501.16 1028.32C1503.28 1028.32 1505.2 1028 1506.98 1027.37C1508.76 1026.74 1510.29 1025.86 1511.58 1024.78C1512.87 1023.65 1513.88 1022.32 1514.61 1020.78C1515.35 1019.24 1515.69 1017.52 1515.69 1015.62C1515.69 1013.73 1515.35 1012.01 1514.61 1010.47C1513.88 1008.92 1512.87 1007.59 1511.58 1006.47C1510.29 1005.35 1508.76 1004.51 1506.98 1003.87C1505.2 1003.24 1503.25 1002.93 1501.16 1002.93H1497.64V1028.28H1501.16V1028.32ZM1515.8 993.527C1511.58 991.353 1506.7 990.265 1501.16 990.265H1497.64H1490.73H1484.32V1041.02H1490.73H1497.64H1501.16C1506.66 1041.02 1511.55 1039.93 1515.8 1037.75C1520.09 1035.58 1523.4 1032.6 1525.8 1028.78C1528.21 1024.95 1529.39 1020.57 1529.39 1015.66C1529.39 1010.68 1528.21 1006.29 1525.8 1002.54C1523.4 998.683 1520.05 995.702 1515.8 993.527ZM1605.29 1014.82L1586.74 1041.02H1602.81L1612.68 1025.93L1622.51 1040.98H1638.58L1620.14 1014.75L1638.02 990.23H1622.09L1612.68 1004.01L1603.23 990.265H1587.3L1605.29 1014.82ZM1670.65 1030.84L1656.95 1011.03V1041.02H1643.63V991.703V990.265H1650.19H1656.95H1658.38L1670.58 1008.4L1682.75 990.265H1684.18H1691.12H1697.53V991.493V1041.02H1684.21V1010.99L1670.65 1030.84ZM1738.25 1032.88L1741.21 1041.02H1755.33L1736.02 990.265H1734.94H1722.77H1721.69L1702.38 1041.02H1716.49L1719.46 1032.88H1738.25ZM1733.96 1021.06L1728.83 1007L1723.71 1021.06H1733.96ZM1765.54 1041.02V1002.58H1751.29V990.265H1793.08V1002.58H1778.9V1041.02H1765.54ZM1798.66 990.265V1041.02H1808.04H1812.01H1833V1028.71H1812.01V1021.59H1828.57V1009.59H1812.01V1002.58H1832.48V990.265H1812.01H1808.04H1798.66Z" fill="#313D4E"/>
<defs>
<radialGradient id="paint0_radial_695_46606" cx="0" cy="0" r="1" gradientUnits="userSpaceOnUse" gradientTransform="translate(960) rotate(90) scale(1080 1920)">
<stop stop-color="#354776"/>
<stop offset="1" stop-color="#130A2D"/>
</radialGradient>
<linearGradient id="paint1_linear_695_46606" x1="564" y1="468.109" x2="806.438" y2="912.481" gradientUnits="userSpaceOnUse">
<stop stop-color="#F4F7FF"/>
<stop offset="1" stop-color="white"/>
</linearGradient>
<linearGradient id="paint2_linear_695_46606" x1="1461.36" y1="979.492" x2="1394.48" y2="1048.59" gradientUnits="userSpaceOnUse">
<stop stop-color="#7B79FF"/>
<stop offset="1" stop-color="#4240B8"/>
</linearGradient>
<linearGradient id="paint3_linear_695_46606" x1="1470.41" y1="978.711" x2="1425.41" y2="1017.37" gradientUnits="userSpaceOnUse">
<stop stop-color="#7B79FF"/>
<stop offset="1" stop-color="#7B79FF" stop-opacity="0"/>
</linearGradient>
</defs>
</svg>
