<svg width="1920" height="1080" viewBox="0 0 1920 1080" fill="none" xmlns="http://www.w3.org/2000/svg">
<g clip-path="url(#clip0)">
<rect width="1920" height="1080" fill="white"/>
<path d="M1920 0H0V1080H1920V0Z" fill="url(#paint0_linear)"/>
<path fill-rule="evenodd" clip-rule="evenodd" d="M238.046 886.623C229.414 885.715 209.342 886.293 198.116 895.868C184.083 907.836 158.992 921.441 141.754 906.579C124.516 891.717 85.1703 892.954 64.8023 919.452C44.4342 945.949 -4.41904 932.528 -22.5603 914.824C-40.7015 897.12 -76.0617 896.622 -113.035 923.545L-4.23089 1072.96L6.59399 1087.83L115.398 1237.24C152.371 1210.32 162.751 1176.51 151.47 1153.82C140.19 1131.12 142.413 1080.5 173.884 1069.25C205.354 1058 218.609 1020.93 209.757 999.965C200.904 978.997 221.554 959.294 237.252 949.612C249.81 941.867 256.522 922.942 258.308 914.448L253.589 907.968L242.765 893.103L238.046 886.623Z" fill="white"/>
<path d="M266.675 876.502L246.086 869.746L231.516 864.964L217.731 860.441L214.634 859.427L205.8 856.528L194.947 852.967L210.464 838.99L236.376 836.809L236.379 836.807L238.701 836.615L242.735 836.276L274.174 833.628L281.059 833.05L266.675 876.502Z" fill="#D46627"/>
<path fill-rule="evenodd" clip-rule="evenodd" d="M228.288 843.846C225.623 845.786 222.86 847.587 220.066 849.241C217.817 850.578 215.546 851.827 213.282 852.983C210.771 854.271 208.261 855.45 205.811 856.544C203.054 857.752 200.353 858.831 197.77 859.787C197.201 859.999 196.639 860.202 196.078 860.399C195.517 860.596 194.934 860.809 194.368 861C189.125 862.849 183.756 864.316 178.301 865.389L170.389 854.523C173.085 849.662 176.129 845.001 179.498 840.579C179.854 840.099 180.214 839.626 180.595 839.137C180.976 838.648 181.319 838.196 181.697 837.714C188.001 829.699 196.381 820.721 206.227 813.551C209.672 811.05 213.353 808.895 217.22 807.115C218.304 806.617 219.392 806.144 220.482 805.717C234.788 799.955 248.813 799.755 255.407 800.77C254.34 807.364 249.913 820.745 240.099 832.656C239.352 833.567 238.587 834.452 237.771 835.338C237.317 835.838 236.858 836.323 236.386 836.817C233.891 839.386 231.182 841.737 228.288 843.846Z" fill="#BB3547"/>
<path d="M228.288 843.845C225.623 845.786 222.86 847.586 220.066 849.24C217.817 850.577 215.546 851.827 213.282 852.982C210.771 854.27 208.261 855.45 205.811 856.543C203.054 857.752 200.354 858.831 197.77 859.786C197.201 859.999 196.639 860.201 196.078 860.398L180.595 839.136C180.955 838.663 181.32 838.195 181.697 837.714C188.001 829.698 196.381 820.72 206.227 813.55C209.672 811.05 213.354 808.894 217.22 807.115C218.304 806.617 219.393 806.144 220.482 805.717L240.099 832.656C239.352 833.566 238.588 834.452 237.771 835.338C237.318 835.837 236.858 836.322 236.386 836.816C233.892 839.385 231.182 841.737 228.288 843.845Z" fill="#FAAB1C"/>
<path d="M240.099 832.656C239.352 833.566 238.587 834.452 237.771 835.337L217.22 807.115C218.304 806.617 219.393 806.144 220.482 805.717L240.099 832.656Z" fill="#9E1D20"/>
<path d="M197.761 859.774C197.192 859.986 196.63 860.189 196.069 860.386C195.508 860.583 194.925 860.796 194.36 860.987L179.498 840.579C179.854 840.099 180.214 839.626 180.595 839.136C180.977 838.647 181.319 838.196 181.697 837.714L197.761 859.774Z" fill="#9E1D20"/>
<path d="M296.153 956.663L278.084 967.137L278.027 955.715L277.982 946.421L277.965 943.159L277.895 928.655L277.81 912.615L277.816 912.61L277.706 891.651L323.476 891.3L321.196 896.756L321.19 896.761L321.189 896.771L308.641 926.783L307.078 930.515L306.185 932.669L296.153 956.663Z" fill="#D46627"/>
<path fill-rule="evenodd" clip-rule="evenodd" d="M319.063 968.504C309.216 975.674 298.106 980.889 288.536 984.433C287.967 984.645 287.407 984.85 286.844 985.045C286.281 985.239 285.7 985.455 285.135 985.646C279.892 987.493 274.523 988.961 269.07 990.038L261.164 979.181C263.861 974.321 266.906 969.66 270.273 965.237C270.629 964.757 270.989 964.284 271.37 963.795C271.752 963.306 272.094 962.854 272.472 962.372C274.174 960.193 276.03 957.968 278.029 955.718C279.811 953.707 281.706 951.683 283.7 949.686C285.506 947.901 287.381 946.108 289.346 944.38C291.778 942.229 294.34 940.153 297.005 938.212C299.902 936.107 302.973 934.252 306.185 932.669C306.793 932.362 307.398 932.077 308.017 931.804C309.099 931.303 310.192 930.836 311.282 930.409C325.633 924.709 339.733 924.613 346.327 925.628C345.26 932.222 340.767 945.511 330.901 957.351C330.152 958.258 329.385 959.141 328.566 960.024C325.684 963.155 322.501 965.996 319.063 968.504Z" fill="#BB3547"/>
<path d="M319.063 968.504C309.216 975.675 298.106 980.89 288.536 984.433C287.967 984.645 287.407 984.851 286.844 985.045L271.37 963.795C271.73 963.322 272.094 962.854 272.472 962.373C274.174 960.194 276.03 957.968 278.029 955.719C279.811 953.707 281.706 951.683 283.7 949.686C285.506 947.901 287.381 946.108 289.346 944.381C291.778 942.23 294.34 940.153 297.005 938.212C299.902 936.107 302.973 934.253 306.185 932.669C306.793 932.363 307.398 932.077 308.017 931.805C309.099 931.303 310.192 930.836 311.282 930.41L330.901 957.352C330.152 958.259 329.385 959.142 328.566 960.024C325.684 963.156 322.501 965.996 319.063 968.504Z" fill="#F48026"/>
<path d="M328.562 960.018L308.013 931.799C309.095 931.297 310.188 930.83 311.277 930.403L330.896 957.346C330.153 958.248 329.371 959.142 328.562 960.018Z" fill="#9E1D20"/>
<path d="M288.536 984.433C287.967 984.646 287.407 984.851 286.844 985.045C286.28 985.24 285.7 985.455 285.134 985.647L270.273 965.238C270.629 964.758 270.989 964.285 271.37 963.796C271.751 963.306 272.094 962.855 272.472 962.373L288.536 984.433Z" fill="#9E1D20"/>
<path fill-rule="evenodd" clip-rule="evenodd" d="M442.112 830.766C430.374 839.313 418.253 847.238 406.063 854.564C403.848 855.89 401.624 857.204 399.409 858.493C393.857 861.721 388.314 864.818 382.78 867.782C380.568 868.977 378.362 870.148 376.163 871.295C371.763 873.59 367.395 875.805 363.058 877.939C360.885 879.008 358.728 880.055 356.588 881.081C349.62 884.417 342.77 887.54 336.113 890.451C334.058 891.346 332.034 892.219 330.035 893.073C329.026 893.495 328.027 893.917 327.038 894.339C326.041 894.751 325.051 895.166 324.064 895.565C323.581 895.767 323.099 895.963 322.613 896.152C322.126 896.342 321.658 896.551 321.161 896.74C320.664 896.928 320.171 897.141 319.678 897.349C319.186 897.557 318.697 897.744 318.208 897.95C317.253 898.335 316.293 898.72 315.345 899.096L312.521 900.212C312.05 900.391 311.585 900.579 311.122 900.761C309.731 901.304 308.353 901.837 306.988 902.362C306.079 902.71 305.179 903.053 304.287 903.389C302.945 903.899 301.619 904.395 300.309 904.876C299.869 905.032 299.434 905.189 299.008 905.354C298.141 905.672 297.282 905.984 296.433 906.289L294.278 907.065C293.123 907.473 291.983 907.876 290.87 908.263C290.646 908.342 290.427 908.417 290.217 908.495C289.405 908.78 288.606 909.057 287.801 909.314C287.423 909.439 287.014 909.582 286.614 909.709C284.265 910.503 281.988 911.254 279.799 911.965C279.122 912.183 278.455 912.397 277.801 912.607C276.687 912.949 275.613 913.294 274.555 913.622C274.203 913.733 273.856 913.836 273.51 913.942C271.701 914.498 269.966 915.016 268.307 915.494C267.917 915.604 267.53 915.717 267.14 915.827L265.975 916.163C265.715 916.236 265.457 916.312 265.2 916.389C264.697 916.525 264.197 916.65 263.723 916.793C262.509 917.126 261.353 917.433 260.255 917.716L236.082 884.519C237.411 882.415 238.937 880.091 240.647 877.554C242.283 875.136 244.091 872.528 246.062 869.763C248.59 866.202 251.399 862.376 254.463 858.312C255.183 857.365 255.901 856.415 256.65 855.437C261.83 848.672 267.687 841.34 274.146 833.653C299.567 803.396 334.361 767.492 374.634 738.166C397.336 721.634 421.061 709.526 443.727 700.778C446.559 699.683 449.37 698.639 452.158 697.646C452.727 697.453 453.285 697.258 453.86 697.055C495.336 682.606 532.079 679.253 550.889 680.243C546.065 698.433 531.756 732.594 505.438 767.775C505.08 768.257 504.723 768.729 504.355 769.217C502.564 771.583 500.717 773.951 498.815 776.32C491.101 785.949 482.815 795.106 474.003 803.742C468.367 809.255 462.396 814.67 456.075 819.907C451.588 823.625 446.934 827.245 442.112 830.766Z" fill="#FAAB1C"/>
<path d="M504.337 769.231L452.192 697.622C452.76 697.429 453.318 697.234 453.894 697.031C495.336 682.607 532.079 679.253 550.889 680.244C546.065 698.434 531.756 732.595 505.438 767.776C505.063 768.293 504.701 768.745 504.337 769.231Z" fill="#DD445E"/>
<path d="M498.803 776.329L443.767 700.749C446.6 699.654 449.41 698.61 452.198 697.617C452.767 697.423 453.325 697.229 453.9 697.025L505.426 767.784C505.068 768.266 504.711 768.738 504.343 769.226C502.552 771.592 500.705 773.96 498.803 776.329Z" fill="#9E1D20"/>
<path d="M268.329 915.492C267.939 915.602 267.552 915.715 267.162 915.825L265.997 916.161C265.737 916.234 265.479 916.31 265.222 916.387C264.72 916.523 264.219 916.648 263.745 916.791C262.531 917.124 261.375 917.431 260.278 917.714L236.098 884.508C237.426 882.403 238.953 880.08 240.662 877.543L268.329 915.492Z" fill="#9E1D20"/>
<path d="M442.464 798.415C427.398 809.386 406.821 806.807 396.516 792.656C396.011 791.962 395.537 791.254 395.096 790.532C393.56 787.987 392.409 785.227 391.681 782.345C391.032 779.767 390.717 777.116 390.744 774.457C390.812 768.935 392.25 763.516 394.929 758.686C397.508 754.045 401.09 750.037 405.412 746.953C409.734 743.869 414.69 741.786 419.917 740.856C426.478 739.689 433.239 740.537 439.308 743.289C443.891 745.388 447.872 748.606 450.885 752.648C453.897 756.689 455.845 761.423 456.547 766.415C457.296 771.841 456.659 777.368 454.697 782.482C453.725 785.055 452.446 787.501 450.887 789.767C449.108 792.36 446.992 794.705 444.595 796.741C443.913 797.319 443.203 797.877 442.464 798.415Z" fill="#363636"/>
<path d="M456.547 766.415L394.929 758.686C397.508 754.045 401.09 750.037 405.412 746.953C409.734 743.869 414.69 741.786 419.917 740.856L439.308 743.289C443.891 745.388 447.872 748.606 450.885 752.648C453.897 756.689 455.845 761.424 456.547 766.415Z" fill="white" fill-opacity="0.2"/>
<path d="M450.887 789.767L391.681 782.344C391.032 779.766 390.717 777.115 390.744 774.457L454.697 782.482C453.725 785.055 452.446 787.501 450.887 789.767Z" fill="white" fill-opacity="0.2"/>
<path d="M442.464 798.414C427.398 809.385 406.821 806.807 396.516 792.656C396.01 791.962 395.537 791.254 395.096 790.532L444.595 796.74C443.913 797.318 443.203 797.876 442.464 798.414Z" fill="white" fill-opacity="0.2"/>
<g style="mix-blend-mode:overlay" opacity="0.25">
<path d="M442.112 830.766C430.374 839.314 418.253 847.238 406.063 854.564C403.848 855.891 401.624 857.205 399.409 858.493C393.857 861.722 388.315 864.818 382.781 867.783C380.568 868.977 378.362 870.148 376.163 871.296C371.764 873.591 367.395 875.806 363.058 877.94C360.885 879.008 358.728 880.056 356.588 881.082C349.62 884.418 342.77 887.541 336.113 890.452C334.058 891.347 332.034 892.219 330.035 893.074C329.026 893.495 328.027 893.917 327.038 894.34C326.041 894.751 325.051 895.166 324.064 895.566C323.581 895.767 323.099 895.963 322.613 896.153L321.179 896.727C320.683 896.929 320.187 897.139 319.691 897.341C319.194 897.543 318.71 897.736 318.221 897.942C317.266 898.327 316.305 898.712 315.357 899.087L312.534 900.204C312.062 900.382 311.598 900.57 311.134 900.753C309.744 901.295 308.366 901.829 307 902.354C306.091 902.702 305.191 903.044 304.299 903.381C302.954 903.887 301.629 904.383 300.322 904.868C299.881 905.024 299.446 905.181 299.02 905.345C298.153 905.664 297.295 905.976 296.445 906.281L294.29 907.056C293.14 907.471 291.998 907.87 290.882 908.255C290.658 908.334 290.44 908.408 290.229 908.486C289.413 908.766 288.614 909.043 287.814 909.306C287.435 909.431 287.027 909.573 286.626 909.701C284.277 910.495 282 911.246 279.812 911.956C279.134 912.174 278.468 912.389 277.813 912.599C276.699 912.94 275.625 913.285 274.568 913.614C274.216 913.724 273.868 913.827 273.522 913.933C271.708 914.484 269.973 914.999 268.315 915.48C267.927 915.593 267.54 915.706 267.152 915.819L265.987 916.155C265.728 916.228 265.469 916.303 265.212 916.381C264.71 916.517 264.209 916.642 263.735 916.785C262.517 917.112 261.374 917.414 260.266 917.704L247.969 900.818L550.885 680.237C546.061 698.428 531.752 732.589 505.434 767.77C505.075 768.252 504.719 768.723 504.351 769.212C502.56 771.578 500.713 773.945 498.81 776.314C491.096 785.944 482.811 795.101 473.999 803.736C468.363 809.25 462.392 814.664 456.071 819.901C451.587 823.624 446.934 827.246 442.112 830.766Z" fill="black"/>
</g>
<g opacity="0.5">
<path opacity="0.5" d="M336.421 411.5C337.895 411.5 339.09 410.305 339.09 408.83C339.09 407.356 337.895 406.16 336.421 406.16C334.946 406.16 333.75 407.356 333.75 408.83C333.75 410.305 334.946 411.5 336.421 411.5Z" fill="white"/>
<path opacity="0.5" d="M367.061 412.46C368.535 412.46 369.731 411.265 369.731 409.79C369.731 408.315 368.535 407.12 367.061 407.12C365.586 407.12 364.391 408.315 364.391 409.79C364.391 411.265 365.586 412.46 367.061 412.46Z" fill="white"/>
<path opacity="0.5" d="M383.151 388.54C384.625 388.54 385.821 387.345 385.821 385.87C385.821 384.396 384.625 383.2 383.151 383.2C381.676 383.2 380.481 384.396 380.481 385.87C380.481 387.345 381.676 388.54 383.151 388.54Z" fill="white"/>
<path opacity="0.5" d="M546.401 375.85C547.875 375.85 549.07 374.654 549.07 373.18C549.07 371.705 547.875 370.51 546.401 370.51C544.926 370.51 543.73 371.705 543.73 373.18C543.73 374.654 544.926 375.85 546.401 375.85Z" fill="white"/>
<path opacity="0.5" d="M478.951 338.46C480.425 338.46 481.621 337.265 481.621 335.79C481.621 334.315 480.425 333.12 478.951 333.12C477.476 333.12 476.281 334.315 476.281 335.79C476.281 337.265 477.476 338.46 478.951 338.46Z" fill="white"/>
<path opacity="0.5" d="M546.131 322.9C547.605 322.9 548.801 321.704 548.801 320.23C548.801 318.755 547.605 317.56 546.131 317.56C544.656 317.56 543.461 318.755 543.461 320.23C543.461 321.704 544.656 322.9 546.131 322.9Z" fill="white"/>
<path opacity="0.5" d="M508.461 325.24C509.935 325.24 511.131 324.045 511.131 322.57C511.131 321.096 509.935 319.9 508.461 319.9C506.986 319.9 505.791 321.096 505.791 322.57C505.791 324.045 506.986 325.24 508.461 325.24Z" fill="white"/>
<path opacity="0.5" d="M336.921 324.41C338.395 324.41 339.59 323.215 339.59 321.74C339.59 320.266 338.395 319.07 336.921 319.07C335.446 319.07 334.25 320.266 334.25 321.74C334.25 323.215 335.446 324.41 336.921 324.41Z" fill="white"/>
<path opacity="0.5" d="M313.581 142.74C315.055 142.74 316.251 141.545 316.251 140.07C316.251 138.596 315.055 137.4 313.581 137.4C312.106 137.4 310.911 138.596 310.911 140.07C310.911 141.545 312.106 142.74 313.581 142.74Z" fill="white"/>
<path opacity="0.5" d="M344.221 143.69C345.695 143.69 346.891 142.494 346.891 141.02C346.891 139.545 345.695 138.35 344.221 138.35C342.746 138.35 341.551 139.545 341.551 141.02C341.551 142.494 342.746 143.69 344.221 143.69Z" fill="white"/>
<path opacity="0.5" d="M360.311 119.78C361.785 119.78 362.981 118.585 362.981 117.11C362.981 115.636 361.785 114.44 360.311 114.44C358.836 114.44 357.641 115.636 357.641 117.11C357.641 118.585 358.836 119.78 360.311 119.78Z" fill="white"/>
<path opacity="0.5" d="M523.571 107.08C525.045 107.08 526.241 105.885 526.241 104.41C526.241 102.936 525.045 101.74 523.571 101.74C522.096 101.74 520.901 102.936 520.901 104.41C520.901 105.885 522.096 107.08 523.571 107.08Z" fill="white"/>
<path opacity="0.5" d="M456.111 69.7004C457.585 69.7004 458.781 68.505 458.781 67.0304C458.781 65.5558 457.585 64.3604 456.111 64.3604C454.636 64.3604 453.441 65.5558 453.441 67.0304C453.441 68.505 454.636 69.7004 456.111 69.7004Z" fill="white"/>
<path opacity="0.5" d="M432.651 284.5C434.125 284.5 435.321 283.305 435.321 281.83C435.321 280.356 434.125 279.16 432.651 279.16C431.176 279.16 429.981 280.356 429.981 281.83C429.981 283.305 431.176 284.5 432.651 284.5Z" fill="white"/>
<path opacity="0.5" d="M523.291 54.1398C524.765 54.1398 525.961 52.9444 525.961 51.4698C525.961 49.9952 524.765 48.7998 523.291 48.7998C521.816 48.7998 520.621 49.9952 520.621 51.4698C520.621 52.9444 521.816 54.1398 523.291 54.1398Z" fill="white"/>
<path opacity="0.5" d="M485.621 56.4796C487.095 56.4796 488.291 55.2842 488.291 53.8096C488.291 52.335 487.095 51.1396 485.621 51.1396C484.146 51.1396 482.951 52.335 482.951 53.8096C482.951 55.2842 484.146 56.4796 485.621 56.4796Z" fill="white"/>
<path opacity="0.5" d="M314.091 55.6496C315.565 55.6496 316.761 54.4542 316.761 52.9796C316.761 51.505 315.565 50.3096 314.091 50.3096C312.616 50.3096 311.421 51.505 311.421 52.9796C311.421 54.4542 312.616 55.6496 314.091 55.6496Z" fill="white"/>
<path opacity="0.5" d="M37.5606 134.94C39.0352 134.94 40.2306 133.744 40.2306 132.27C40.2306 130.795 39.0352 129.6 37.5606 129.6C36.086 129.6 34.8906 130.795 34.8906 132.27C34.8906 133.744 36.086 134.94 37.5606 134.94Z" fill="white"/>
<path opacity="0.5" d="M68.2005 135.9C69.6751 135.9 70.8705 134.704 70.8705 133.23C70.8705 131.755 69.6751 130.56 68.2005 130.56C66.7259 130.56 65.5305 131.755 65.5305 133.23C65.5305 134.704 66.7259 135.9 68.2005 135.9Z" fill="white"/>
<path opacity="0.5" d="M84.2906 111.98C85.7652 111.98 86.9606 110.784 86.9606 109.31C86.9606 107.835 85.7652 106.64 84.2906 106.64C82.816 106.64 81.6206 107.835 81.6206 109.31C81.6206 110.784 82.816 111.98 84.2906 111.98Z" fill="white"/>
<path opacity="0.5" d="M247.541 99.2902C249.015 99.2902 250.211 98.0948 250.211 96.6202C250.211 95.1456 249.015 93.9502 247.541 93.9502C246.066 93.9502 244.871 95.1456 244.871 96.6202C244.871 98.0948 246.066 99.2902 247.541 99.2902Z" fill="white"/>
<path opacity="0.5" d="M180.091 61.9103C181.565 61.9103 182.761 60.7149 182.761 59.2403C182.761 57.7657 181.565 56.5703 180.091 56.5703C178.616 56.5703 177.421 57.7657 177.421 59.2403C177.421 60.7149 178.616 61.9103 180.091 61.9103Z" fill="white"/>
<path opacity="0.5" d="M156.631 276.7C158.105 276.7 159.301 275.505 159.301 274.03C159.301 272.556 158.105 271.36 156.631 271.36C155.156 271.36 153.961 272.556 153.961 274.03C153.961 275.505 155.156 276.7 156.631 276.7Z" fill="white"/>
<path opacity="0.5" d="M247.271 46.34C248.745 46.34 249.941 45.1446 249.941 43.67C249.941 42.1954 248.745 41 247.271 41C245.796 41 244.601 42.1954 244.601 43.67C244.601 45.1446 245.796 46.34 247.271 46.34Z" fill="white"/>
<path opacity="0.5" d="M209.601 48.6798C211.075 48.6798 212.271 47.4845 212.271 46.0099C212.271 44.5353 211.075 43.3398 209.601 43.3398C208.126 43.3398 206.931 44.5353 206.931 46.0099C206.931 47.4845 208.126 48.6798 209.601 48.6798Z" fill="white"/>
<path opacity="0.5" d="M38.0606 47.8498C39.5352 47.8498 40.7306 46.6543 40.7306 45.1797C40.7306 43.7051 39.5352 42.5098 38.0606 42.5098C36.586 42.5098 35.3906 43.7051 35.3906 45.1797C35.3906 46.6543 36.586 47.8498 38.0606 47.8498Z" fill="white"/>
</g>
<g opacity="0.5">
<path opacity="0.5" d="M756.42 526.5C757.895 526.5 759.091 525.305 759.091 523.83C759.091 522.356 757.895 521.16 756.42 521.16C754.946 521.16 753.75 522.356 753.75 523.83C753.75 525.305 754.946 526.5 756.42 526.5Z" fill="white"/>
<path opacity="0.5" d="M787.061 527.46C788.535 527.46 789.731 526.265 789.731 524.79C789.731 523.315 788.535 522.12 787.061 522.12C785.586 522.12 784.391 523.315 784.391 524.79C784.391 526.265 785.586 527.46 787.061 527.46Z" fill="white"/>
<path opacity="0.5" d="M803.151 503.54C804.625 503.54 805.82 502.345 805.82 500.87C805.82 499.396 804.625 498.2 803.151 498.2C801.676 498.2 800.48 499.396 800.48 500.87C800.48 502.345 801.676 503.54 803.151 503.54Z" fill="white"/>
<path opacity="0.5" d="M966.401 490.85C967.875 490.85 969.07 489.654 969.07 488.18C969.07 486.705 967.875 485.51 966.401 485.51C964.926 485.51 963.73 486.705 963.73 488.18C963.73 489.654 964.926 490.85 966.401 490.85Z" fill="white"/>
<path opacity="0.5" d="M898.951 453.46C900.425 453.46 901.621 452.265 901.621 450.79C901.621 449.315 900.425 448.12 898.951 448.12C897.476 448.12 896.281 449.315 896.281 450.79C896.281 452.265 897.476 453.46 898.951 453.46Z" fill="white"/>
<path opacity="0.5" d="M966.131 437.9C967.605 437.9 968.801 436.704 968.801 435.23C968.801 433.755 967.605 432.56 966.131 432.56C964.656 432.56 963.461 433.755 963.461 435.23C963.461 436.704 964.656 437.9 966.131 437.9Z" fill="white"/>
<path opacity="0.5" d="M928.461 440.24C929.935 440.24 931.131 439.045 931.131 437.57C931.131 436.096 929.935 434.9 928.461 434.9C926.986 434.9 925.791 436.096 925.791 437.57C925.791 439.045 926.986 440.24 928.461 440.24Z" fill="white"/>
<path opacity="0.5" d="M756.92 439.41C758.395 439.41 759.591 438.215 759.591 436.74C759.591 435.266 758.395 434.07 756.92 434.07C755.446 434.07 754.25 435.266 754.25 436.74C754.25 438.215 755.446 439.41 756.92 439.41Z" fill="white"/>
<path opacity="0.5" d="M733.581 257.74C735.055 257.74 736.251 256.545 736.251 255.07C736.251 253.596 735.055 252.4 733.581 252.4C732.106 252.4 730.911 253.596 730.911 255.07C730.911 256.545 732.106 257.74 733.581 257.74Z" fill="white"/>
<path opacity="0.5" d="M764.221 258.69C765.695 258.69 766.891 257.494 766.891 256.02C766.891 254.545 765.695 253.35 764.221 253.35C762.746 253.35 761.551 254.545 761.551 256.02C761.551 257.494 762.746 258.69 764.221 258.69Z" fill="white"/>
<path opacity="0.5" d="M780.311 234.78C781.785 234.78 782.981 233.585 782.981 232.11C782.981 230.636 781.785 229.44 780.311 229.44C778.836 229.44 777.641 230.636 777.641 232.11C777.641 233.585 778.836 234.78 780.311 234.78Z" fill="white"/>
<path opacity="0.5" d="M943.571 222.08C945.045 222.08 946.241 220.885 946.241 219.41C946.241 217.936 945.045 216.74 943.571 216.74C942.096 216.74 940.901 217.936 940.901 219.41C940.901 220.885 942.096 222.08 943.571 222.08Z" fill="white"/>
<path opacity="0.5" d="M876.111 184.7C877.585 184.7 878.781 183.505 878.781 182.03C878.781 180.556 877.585 179.36 876.111 179.36C874.636 179.36 873.441 180.556 873.441 182.03C873.441 183.505 874.636 184.7 876.111 184.7Z" fill="white"/>
<path opacity="0.5" d="M852.651 399.5C854.125 399.5 855.32 398.305 855.32 396.83C855.32 395.356 854.125 394.16 852.651 394.16C851.176 394.16 849.98 395.356 849.98 396.83C849.98 398.305 851.176 399.5 852.651 399.5Z" fill="white"/>
<path opacity="0.5" d="M943.291 169.14C944.765 169.14 945.961 167.944 945.961 166.47C945.961 164.995 944.765 163.8 943.291 163.8C941.816 163.8 940.621 164.995 940.621 166.47C940.621 167.944 941.816 169.14 943.291 169.14Z" fill="white"/>
<path opacity="0.5" d="M905.621 171.48C907.095 171.48 908.291 170.284 908.291 168.81C908.291 167.335 907.095 166.14 905.621 166.14C904.146 166.14 902.951 167.335 902.951 168.81C902.951 170.284 904.146 171.48 905.621 171.48Z" fill="white"/>
<path opacity="0.5" d="M734.091 170.65C735.565 170.65 736.761 169.454 736.761 167.98C736.761 166.505 735.565 165.31 734.091 165.31C732.616 165.31 731.421 166.505 731.421 167.98C731.421 169.454 732.616 170.65 734.091 170.65Z" fill="white"/>
<path opacity="0.5" d="M457.561 249.94C459.035 249.94 460.231 248.744 460.231 247.27C460.231 245.795 459.035 244.6 457.561 244.6C456.086 244.6 454.891 245.795 454.891 247.27C454.891 248.744 456.086 249.94 457.561 249.94Z" fill="white"/>
<path opacity="0.5" d="M488.201 250.9C489.675 250.9 490.871 249.704 490.871 248.23C490.871 246.755 489.675 245.56 488.201 245.56C486.726 245.56 485.531 246.755 485.531 248.23C485.531 249.704 486.726 250.9 488.201 250.9Z" fill="white"/>
<path opacity="0.5" d="M504.291 226.98C505.765 226.98 506.961 225.784 506.961 224.31C506.961 222.835 505.765 221.64 504.291 221.64C502.816 221.64 501.621 222.835 501.621 224.31C501.621 225.784 502.816 226.98 504.291 226.98Z" fill="white"/>
<path opacity="0.5" d="M667.541 214.29C669.015 214.29 670.211 213.095 670.211 211.62C670.211 210.146 669.015 208.95 667.541 208.95C666.066 208.95 664.871 210.146 664.871 211.62C664.871 213.095 666.066 214.29 667.541 214.29Z" fill="white"/>
<path opacity="0.5" d="M600.091 176.9C601.565 176.9 602.761 175.704 602.761 174.23C602.761 172.755 601.565 171.56 600.091 171.56C598.616 171.56 597.421 172.755 597.421 174.23C597.421 175.704 598.616 176.9 600.091 176.9Z" fill="white"/>
<path opacity="0.5" d="M576.631 391.7C578.105 391.7 579.301 390.505 579.301 389.03C579.301 387.556 578.105 386.36 576.631 386.36C575.156 386.36 573.961 387.556 573.961 389.03C573.961 390.505 575.156 391.7 576.631 391.7Z" fill="white"/>
<path opacity="0.5" d="M667.271 161.34C668.745 161.34 669.941 160.145 669.941 158.67C669.941 157.195 668.745 156 667.271 156C665.796 156 664.601 157.195 664.601 158.67C664.601 160.145 665.796 161.34 667.271 161.34Z" fill="white"/>
<path opacity="0.5" d="M629.601 163.68C631.075 163.68 632.271 162.484 632.271 161.01C632.271 159.535 631.075 158.34 629.601 158.34C628.126 158.34 626.931 159.535 626.931 161.01C626.931 162.484 628.126 163.68 629.601 163.68Z" fill="white"/>
<path opacity="0.5" d="M458.061 162.85C459.535 162.85 460.731 161.654 460.731 160.18C460.731 158.705 459.535 157.51 458.061 157.51C456.586 157.51 455.391 158.705 455.391 160.18C455.391 161.654 456.586 162.85 458.061 162.85Z" fill="white"/>
</g>
<g opacity="0.5">
<path opacity="0.5" d="M1684.42 374.5C1685.9 374.5 1687.09 373.305 1687.09 371.83C1687.09 370.356 1685.9 369.16 1684.42 369.16C1682.95 369.16 1681.75 370.356 1681.75 371.83C1681.75 373.305 1682.95 374.5 1684.42 374.5Z" fill="white"/>
<path opacity="0.5" d="M1715.06 375.46C1716.54 375.46 1717.73 374.265 1717.73 372.79C1717.73 371.315 1716.54 370.12 1715.06 370.12C1713.59 370.12 1712.39 371.315 1712.39 372.79C1712.39 374.265 1713.59 375.46 1715.06 375.46Z" fill="white"/>
<path opacity="0.5" d="M1731.15 351.54C1732.63 351.54 1733.82 350.345 1733.82 348.87C1733.82 347.396 1732.63 346.2 1731.15 346.2C1729.68 346.2 1728.48 347.396 1728.48 348.87C1728.48 350.345 1729.68 351.54 1731.15 351.54Z" fill="white"/>
<path opacity="0.5" d="M1894.4 338.85C1895.88 338.85 1897.07 337.654 1897.07 336.18C1897.07 334.705 1895.88 333.51 1894.4 333.51C1892.93 333.51 1891.73 334.705 1891.73 336.18C1891.73 337.654 1892.93 338.85 1894.4 338.85Z" fill="white"/>
<path opacity="0.5" d="M1826.95 301.46C1828.43 301.46 1829.62 300.265 1829.62 298.79C1829.62 297.315 1828.43 296.12 1826.95 296.12C1825.48 296.12 1824.28 297.315 1824.28 298.79C1824.28 300.265 1825.48 301.46 1826.95 301.46Z" fill="white"/>
<path opacity="0.5" d="M1894.13 285.9C1895.61 285.9 1896.8 284.704 1896.8 283.23C1896.8 281.755 1895.61 280.56 1894.13 280.56C1892.66 280.56 1891.46 281.755 1891.46 283.23C1891.46 284.704 1892.66 285.9 1894.13 285.9Z" fill="white"/>
<path opacity="0.5" d="M1856.46 288.24C1857.94 288.24 1859.13 287.045 1859.13 285.57C1859.13 284.096 1857.94 282.9 1856.46 282.9C1854.99 282.9 1853.79 284.096 1853.79 285.57C1853.79 287.045 1854.99 288.24 1856.46 288.24Z" fill="white"/>
<path opacity="0.5" d="M1684.92 287.41C1686.4 287.41 1687.59 286.215 1687.59 284.74C1687.59 283.266 1686.4 282.07 1684.92 282.07C1683.45 282.07 1682.25 283.266 1682.25 284.74C1682.25 286.215 1683.45 287.41 1684.92 287.41Z" fill="white"/>
<path opacity="0.5" d="M1661.58 105.74C1663.06 105.74 1664.25 104.545 1664.25 103.07C1664.25 101.596 1663.06 100.4 1661.58 100.4C1660.11 100.4 1658.91 101.596 1658.91 103.07C1658.91 104.545 1660.11 105.74 1661.58 105.74Z" fill="white"/>
<path opacity="0.5" d="M1692.22 106.69C1693.7 106.69 1694.89 105.494 1694.89 104.02C1694.89 102.545 1693.7 101.35 1692.22 101.35C1690.75 101.35 1689.55 102.545 1689.55 104.02C1689.55 105.494 1690.75 106.69 1692.22 106.69Z" fill="white"/>
<path opacity="0.5" d="M1708.31 82.7804C1709.79 82.7804 1710.98 81.585 1710.98 80.1104C1710.98 78.6358 1709.79 77.4404 1708.31 77.4404C1706.84 77.4404 1705.64 78.6358 1705.64 80.1104C1705.64 81.585 1706.84 82.7804 1708.31 82.7804Z" fill="white"/>
<path opacity="0.5" d="M1871.57 70.0802C1873.05 70.0802 1874.24 68.8848 1874.24 67.4102C1874.24 65.9356 1873.05 64.7402 1871.57 64.7402C1870.1 64.7402 1868.9 65.9356 1868.9 67.4102C1868.9 68.8848 1870.1 70.0802 1871.57 70.0802Z" fill="white"/>
<path opacity="0.5" d="M1804.11 32.7004C1805.59 32.7004 1806.78 31.505 1806.78 30.0304C1806.78 28.5558 1805.59 27.3604 1804.11 27.3604C1802.64 27.3604 1801.44 28.5558 1801.44 30.0304C1801.44 31.505 1802.64 32.7004 1804.11 32.7004Z" fill="white"/>
<path opacity="0.5" d="M1780.65 247.5C1782.13 247.5 1783.32 246.305 1783.32 244.83C1783.32 243.356 1782.13 242.16 1780.65 242.16C1779.18 242.16 1777.98 243.356 1777.98 244.83C1777.98 246.305 1779.18 247.5 1780.65 247.5Z" fill="white"/>
<path opacity="0.5" d="M1871.29 17.1398C1872.77 17.1398 1873.96 15.9444 1873.96 14.4698C1873.96 12.9952 1872.77 11.7998 1871.29 11.7998C1869.82 11.7998 1868.62 12.9952 1868.62 14.4698C1868.62 15.9444 1869.82 17.1398 1871.29 17.1398Z" fill="white"/>
<path opacity="0.5" d="M1833.62 19.4796C1835.1 19.4796 1836.29 18.2842 1836.29 16.8096C1836.29 15.335 1835.1 14.1396 1833.62 14.1396C1832.15 14.1396 1830.95 15.335 1830.95 16.8096C1830.95 18.2842 1832.15 19.4796 1833.62 19.4796Z" fill="white"/>
<path opacity="0.5" d="M1662.09 18.6496C1663.57 18.6496 1664.76 17.4542 1664.76 15.9796C1664.76 14.505 1663.57 13.3096 1662.09 13.3096C1660.62 13.3096 1659.42 14.505 1659.42 15.9796C1659.42 17.4542 1660.62 18.6496 1662.09 18.6496Z" fill="white"/>
<path opacity="0.5" d="M1385.56 97.9396C1387.04 97.9396 1388.23 96.7442 1388.23 95.2696C1388.23 93.795 1387.04 92.5996 1385.56 92.5996C1384.09 92.5996 1382.89 93.795 1382.89 95.2696C1382.89 96.7442 1384.09 97.9396 1385.56 97.9396Z" fill="white"/>
<path opacity="0.5" d="M1416.2 98.8996C1417.68 98.8996 1418.87 97.7042 1418.87 96.2296C1418.87 94.755 1417.68 93.5596 1416.2 93.5596C1414.73 93.5596 1413.53 94.755 1413.53 96.2296C1413.53 97.7042 1414.73 98.8996 1416.2 98.8996Z" fill="white"/>
<path opacity="0.5" d="M1432.29 74.9796C1433.77 74.9796 1434.96 73.7842 1434.96 72.3096C1434.96 70.835 1433.77 69.6396 1432.29 69.6396C1430.82 69.6396 1429.62 70.835 1429.62 72.3096C1429.62 73.7842 1430.82 74.9796 1432.29 74.9796Z" fill="white"/>
<path opacity="0.5" d="M1595.54 62.2902C1597.02 62.2902 1598.21 61.0948 1598.21 59.6202C1598.21 58.1456 1597.02 56.9502 1595.54 56.9502C1594.07 56.9502 1592.87 58.1456 1592.87 59.6202C1592.87 61.0948 1594.07 62.2902 1595.54 62.2902Z" fill="white"/>
<path opacity="0.5" d="M1528.09 24.9103C1529.57 24.9103 1530.76 23.7149 1530.76 22.2403C1530.76 20.7657 1529.57 19.5703 1528.09 19.5703C1526.62 19.5703 1525.42 20.7657 1525.42 22.2403C1525.42 23.7149 1526.62 24.9103 1528.09 24.9103Z" fill="white"/>
<path opacity="0.5" d="M1504.63 239.7C1506.11 239.7 1507.3 238.505 1507.3 237.03C1507.3 235.556 1506.11 234.36 1504.63 234.36C1503.16 234.36 1501.96 235.556 1501.96 237.03C1501.96 238.505 1503.16 239.7 1504.63 239.7Z" fill="white"/>
<path opacity="0.5" d="M1595.27 9.34C1596.75 9.34 1597.94 8.14461 1597.94 6.67001C1597.94 5.19541 1596.75 4 1595.27 4C1593.8 4 1592.6 5.19541 1592.6 6.67001C1592.6 8.14461 1593.8 9.34 1595.27 9.34Z" fill="white"/>
<path opacity="0.5" d="M1557.6 11.6798C1559.08 11.6798 1560.27 10.4845 1560.27 9.00986C1560.27 7.53526 1559.08 6.33984 1557.6 6.33984C1556.13 6.33984 1554.93 7.53526 1554.93 9.00986C1554.93 10.4845 1556.13 11.6798 1557.6 11.6798Z" fill="white"/>
<path opacity="0.5" d="M1386.06 10.8498C1387.54 10.8498 1388.73 9.65435 1388.73 8.17975C1388.73 6.70515 1387.54 5.50977 1386.06 5.50977C1384.59 5.50977 1383.39 6.70515 1383.39 8.17975C1383.39 9.65435 1384.59 10.8498 1386.06 10.8498Z" fill="white"/>
</g>
<g opacity="0.5">
<path opacity="0.5" d="M1232.42 254.5C1233.9 254.5 1235.09 253.305 1235.09 251.83C1235.09 250.356 1233.9 249.16 1232.42 249.16C1230.95 249.16 1229.75 250.356 1229.75 251.83C1229.75 253.305 1230.95 254.5 1232.42 254.5Z" fill="white"/>
<path opacity="0.5" d="M1263.06 255.46C1264.54 255.46 1265.73 254.265 1265.73 252.79C1265.73 251.315 1264.54 250.12 1263.06 250.12C1261.59 250.12 1260.39 251.315 1260.39 252.79C1260.39 254.265 1261.59 255.46 1263.06 255.46Z" fill="white"/>
<path opacity="0.5" d="M1279.15 231.54C1280.63 231.54 1281.82 230.345 1281.82 228.87C1281.82 227.396 1280.63 226.2 1279.15 226.2C1277.68 226.2 1276.48 227.396 1276.48 228.87C1276.48 230.345 1277.68 231.54 1279.15 231.54Z" fill="white"/>
<path opacity="0.5" d="M1442.4 218.851C1443.88 218.851 1445.07 217.655 1445.07 216.181C1445.07 214.706 1443.88 213.511 1442.4 213.511C1440.93 213.511 1439.73 214.706 1439.73 216.181C1439.73 217.655 1440.93 218.851 1442.4 218.851Z" fill="white"/>
<path opacity="0.5" d="M1374.95 181.46C1376.43 181.46 1377.62 180.265 1377.62 178.79C1377.62 177.315 1376.43 176.12 1374.95 176.12C1373.48 176.12 1372.28 177.315 1372.28 178.79C1372.28 180.265 1373.48 181.46 1374.95 181.46Z" fill="white"/>
<path opacity="0.5" d="M1442.13 165.901C1443.61 165.901 1444.8 164.705 1444.8 163.231C1444.8 161.756 1443.61 160.561 1442.13 160.561C1440.66 160.561 1439.46 161.756 1439.46 163.231C1439.46 164.705 1440.66 165.901 1442.13 165.901Z" fill="white"/>
<path opacity="0.5" d="M1404.46 168.24C1405.94 168.24 1407.13 167.045 1407.13 165.57C1407.13 164.096 1405.94 162.9 1404.46 162.9C1402.99 162.9 1401.79 164.096 1401.79 165.57C1401.79 167.045 1402.99 168.24 1404.46 168.24Z" fill="white"/>
<path opacity="0.5" d="M1232.92 167.41C1234.4 167.41 1235.59 166.215 1235.59 164.74C1235.59 163.266 1234.4 162.07 1232.92 162.07C1231.45 162.07 1230.25 163.266 1230.25 164.74C1230.25 166.215 1231.45 167.41 1232.92 167.41Z" fill="white"/>
<path opacity="0.5" d="M1328.65 127.5C1330.13 127.5 1331.32 126.305 1331.32 124.83C1331.32 123.356 1330.13 122.16 1328.65 122.16C1327.18 122.16 1325.98 123.356 1325.98 124.83C1325.98 126.305 1327.18 127.5 1328.65 127.5Z" fill="white"/>
<path opacity="0.5" d="M1052.63 119.7C1054.11 119.7 1055.3 118.505 1055.3 117.03C1055.3 115.556 1054.11 114.36 1052.63 114.36C1051.16 114.36 1049.96 115.556 1049.96 117.03C1049.96 118.505 1051.16 119.7 1052.63 119.7Z" fill="white"/>
</g>
<g opacity="0.5">
<path opacity="0.5" d="M1358.42 688.5C1359.9 688.5 1361.09 687.305 1361.09 685.83C1361.09 684.355 1359.9 683.16 1358.42 683.16C1356.95 683.16 1355.75 684.355 1355.75 685.83C1355.75 687.305 1356.95 688.5 1358.42 688.5Z" fill="white"/>
<path opacity="0.5" d="M1389.06 689.46C1390.54 689.46 1391.73 688.265 1391.73 686.79C1391.73 685.316 1390.54 684.12 1389.06 684.12C1387.59 684.12 1386.39 685.316 1386.39 686.79C1386.39 688.265 1387.59 689.46 1389.06 689.46Z" fill="white"/>
<path opacity="0.5" d="M1405.15 665.54C1406.63 665.54 1407.82 664.345 1407.82 662.87C1407.82 661.396 1406.63 660.2 1405.15 660.2C1403.68 660.2 1402.48 661.396 1402.48 662.87C1402.48 664.345 1403.68 665.54 1405.15 665.54Z" fill="white"/>
<path opacity="0.5" d="M1568.4 652.85C1569.88 652.85 1571.07 651.654 1571.07 650.18C1571.07 648.705 1569.88 647.51 1568.4 647.51C1566.93 647.51 1565.73 648.705 1565.73 650.18C1565.73 651.654 1566.93 652.85 1568.4 652.85Z" fill="white"/>
<path opacity="0.5" d="M1500.95 615.46C1502.43 615.46 1503.62 614.265 1503.62 612.79C1503.62 611.315 1502.43 610.12 1500.95 610.12C1499.48 610.12 1498.28 611.315 1498.28 612.79C1498.28 614.265 1499.48 615.46 1500.95 615.46Z" fill="white"/>
<path opacity="0.5" d="M1568.13 599.9C1569.61 599.9 1570.8 598.704 1570.8 597.23C1570.8 595.755 1569.61 594.56 1568.13 594.56C1566.66 594.56 1565.46 595.755 1565.46 597.23C1565.46 598.704 1566.66 599.9 1568.13 599.9Z" fill="white"/>
<path opacity="0.5" d="M1530.46 602.24C1531.94 602.24 1533.13 601.045 1533.13 599.57C1533.13 598.096 1531.94 596.9 1530.46 596.9C1528.99 596.9 1527.79 598.096 1527.79 599.57C1527.79 601.045 1528.99 602.24 1530.46 602.24Z" fill="white"/>
<path opacity="0.5" d="M1358.92 601.41C1360.4 601.41 1361.59 600.215 1361.59 598.74C1361.59 597.266 1360.4 596.07 1358.92 596.07C1357.45 596.07 1356.25 597.266 1356.25 598.74C1356.25 600.215 1357.45 601.41 1358.92 601.41Z" fill="white"/>
<path opacity="0.5" d="M1335.58 419.74C1337.06 419.74 1338.25 418.545 1338.25 417.07C1338.25 415.596 1337.06 414.4 1335.58 414.4C1334.11 414.4 1332.91 415.596 1332.91 417.07C1332.91 418.545 1334.11 419.74 1335.58 419.74Z" fill="white"/>
<path opacity="0.5" d="M1366.22 420.69C1367.7 420.69 1368.89 419.494 1368.89 418.02C1368.89 416.545 1367.7 415.35 1366.22 415.35C1364.75 415.35 1363.55 416.545 1363.55 418.02C1363.55 419.494 1364.75 420.69 1366.22 420.69Z" fill="white"/>
<path opacity="0.5" d="M1382.31 396.78C1383.79 396.78 1384.98 395.585 1384.98 394.11C1384.98 392.636 1383.79 391.44 1382.31 391.44C1380.84 391.44 1379.64 392.636 1379.64 394.11C1379.64 395.585 1380.84 396.78 1382.31 396.78Z" fill="white"/>
<path opacity="0.5" d="M1545.57 384.08C1547.05 384.08 1548.24 382.885 1548.24 381.41C1548.24 379.936 1547.05 378.74 1545.57 378.74C1544.1 378.74 1542.9 379.936 1542.9 381.41C1542.9 382.885 1544.1 384.08 1545.57 384.08Z" fill="white"/>
<path opacity="0.5" d="M1478.11 346.7C1479.59 346.7 1480.78 345.505 1480.78 344.03C1480.78 342.556 1479.59 341.36 1478.11 341.36C1476.64 341.36 1475.44 342.556 1475.44 344.03C1475.44 345.505 1476.64 346.7 1478.11 346.7Z" fill="white"/>
<path opacity="0.5" d="M1454.65 561.5C1456.13 561.5 1457.32 560.305 1457.32 558.83C1457.32 557.356 1456.13 556.16 1454.65 556.16C1453.18 556.16 1451.98 557.356 1451.98 558.83C1451.98 560.305 1453.18 561.5 1454.65 561.5Z" fill="white"/>
<path opacity="0.5" d="M1545.29 331.14C1546.77 331.14 1547.96 329.944 1547.96 328.47C1547.96 326.995 1546.77 325.8 1545.29 325.8C1543.82 325.8 1542.62 326.995 1542.62 328.47C1542.62 329.944 1543.82 331.14 1545.29 331.14Z" fill="white"/>
<path opacity="0.5" d="M1507.62 333.48C1509.1 333.48 1510.29 332.284 1510.29 330.81C1510.29 329.335 1509.1 328.14 1507.62 328.14C1506.15 328.14 1504.95 329.335 1504.95 330.81C1504.95 332.284 1506.15 333.48 1507.62 333.48Z" fill="white"/>
<path opacity="0.5" d="M1336.09 332.65C1337.57 332.65 1338.76 331.454 1338.76 329.98C1338.76 328.505 1337.57 327.31 1336.09 327.31C1334.62 327.31 1333.42 328.505 1333.42 329.98C1333.42 331.454 1334.62 332.65 1336.09 332.65Z" fill="white"/>
<path opacity="0.5" d="M1059.56 411.94C1061.04 411.94 1062.23 410.744 1062.23 409.27C1062.23 407.795 1061.04 406.6 1059.56 406.6C1058.09 406.6 1056.89 407.795 1056.89 409.27C1056.89 410.744 1058.09 411.94 1059.56 411.94Z" fill="white"/>
<path opacity="0.5" d="M1090.2 412.9C1091.68 412.9 1092.87 411.704 1092.87 410.23C1092.87 408.755 1091.68 407.56 1090.2 407.56C1088.73 407.56 1087.53 408.755 1087.53 410.23C1087.53 411.704 1088.73 412.9 1090.2 412.9Z" fill="white"/>
<path opacity="0.5" d="M1106.29 388.98C1107.77 388.98 1108.96 387.784 1108.96 386.31C1108.96 384.835 1107.77 383.64 1106.29 383.64C1104.82 383.64 1103.62 384.835 1103.62 386.31C1103.62 387.784 1104.82 388.98 1106.29 388.98Z" fill="white"/>
<path opacity="0.5" d="M1269.54 376.29C1271.02 376.29 1272.21 375.095 1272.21 373.62C1272.21 372.146 1271.02 370.95 1269.54 370.95C1268.07 370.95 1266.87 372.146 1266.87 373.62C1266.87 375.095 1268.07 376.29 1269.54 376.29Z" fill="white"/>
<path opacity="0.5" d="M1202.09 338.9C1203.57 338.9 1204.76 337.704 1204.76 336.23C1204.76 334.755 1203.57 333.56 1202.09 333.56C1200.62 333.56 1199.42 334.755 1199.42 336.23C1199.42 337.704 1200.62 338.9 1202.09 338.9Z" fill="white"/>
<path opacity="0.5" d="M1178.63 553.7C1180.11 553.7 1181.3 552.505 1181.3 551.03C1181.3 549.556 1180.11 548.36 1178.63 548.36C1177.16 548.36 1175.96 549.556 1175.96 551.03C1175.96 552.505 1177.16 553.7 1178.63 553.7Z" fill="white"/>
<path opacity="0.5" d="M1269.27 323.34C1270.75 323.34 1271.94 322.145 1271.94 320.67C1271.94 319.195 1270.75 318 1269.27 318C1267.8 318 1266.6 319.195 1266.6 320.67C1266.6 322.145 1267.8 323.34 1269.27 323.34Z" fill="white"/>
<path opacity="0.5" d="M1231.6 325.68C1233.08 325.68 1234.27 324.484 1234.27 323.01C1234.27 321.535 1233.08 320.34 1231.6 320.34C1230.13 320.34 1228.93 321.535 1228.93 323.01C1228.93 324.484 1230.13 325.68 1231.6 325.68Z" fill="white"/>
<path opacity="0.5" d="M1060.06 324.85C1061.54 324.85 1062.73 323.654 1062.73 322.18C1062.73 320.705 1061.54 319.51 1060.06 319.51C1058.59 319.51 1057.39 320.705 1057.39 322.18C1057.39 323.654 1058.59 324.85 1060.06 324.85Z" fill="white"/>
</g>
<g opacity="0.5" filter="url(#filter0_f)">
<path d="M1791 426C1976.02 426 2126 276.015 2126 91C2126 -94.0154 1976.02 -244 1791 -244C1605.98 -244 1456 -94.0154 1456 91C1456 276.015 1605.98 426 1791 426Z" fill="#E8F5FF"/>
</g>
<path d="M1790.87 257.53C1882.7 257.53 1957.15 183.084 1957.15 91.2497C1957.15 -0.584183 1882.7 -75.0303 1790.87 -75.0303C1699.04 -75.0303 1624.59 -0.584183 1624.59 91.2497C1624.59 183.084 1699.04 257.53 1790.87 257.53Z" fill="#FCFFFF"/>
<path d="M1790.87 -75.0303C1795.76 -75.0303 1800.6 -74.8103 1805.38 -74.3903C1720.34 -67.0403 1653.61 4.30972 1653.61 91.2497C1653.61 178.19 1720.34 249.54 1805.38 256.89C1800.6 257.3 1795.76 257.53 1790.87 257.53C1699.04 257.53 1624.59 183.08 1624.59 91.2497C1624.59 -0.580276 1699.03 -75.0303 1790.87 -75.0303Z" fill="#FBF4EC"/>
<path d="M1866.57 146.083C1877.89 120.656 1875.89 95.0634 1862.1 88.9209C1848.3 82.7785 1827.94 98.412 1816.62 123.839C1805.29 149.267 1807.3 174.859 1821.09 181.002C1834.88 187.144 1855.25 171.511 1866.57 146.083Z" fill="#FBF4EC"/>
<path d="M1735.36 82.7728C1743.07 80.8174 1746.4 67.7016 1742.8 53.4779C1739.19 39.2542 1730.01 29.3088 1722.3 31.2641C1714.59 33.2195 1711.26 46.3353 1714.86 60.559C1718.47 74.7827 1727.64 84.7281 1735.36 82.7728Z" fill="#FBF4EC"/>
<path d="M1904.51 17.1434C1910.98 11.9259 1908.44 -1.98313 1898.82 -13.9232C1889.2 -25.8634 1876.16 -31.313 1869.68 -26.0955C1863.2 -20.878 1865.75 -6.96908 1875.36 4.97103C1884.98 16.9111 1898.03 22.3609 1904.51 17.1434Z" fill="#FBF4EC"/>
<path d="M1651.6 149.963C1656.23 147.873 1656.75 139 1652.75 130.145C1648.75 121.29 1641.76 115.806 1637.13 117.897C1632.5 119.987 1631.98 128.86 1635.98 137.715C1639.98 146.57 1646.97 152.054 1651.6 149.963Z" fill="#EBD7CF"/>
<path d="M244.021 226.68C239.291 235.24 233.791 243.33 227.621 250.86C223.211 256.23 218.461 261.31 213.391 266.07H213.381C212.911 266.53 212.441 266.96 211.961 267.4C201.191 277.28 189.051 285.72 175.821 292.39H175.801C175.791 292.39 175.791 292.4 175.781 292.4C157.131 301.81 136.331 307.71 114.171 309.17C109.801 309.46 105.461 309.57 101.151 309.5C68.1006 309.02 37.2006 298.42 11.6506 280.49C-6.55942 267.72 -22.0594 251.22 -33.6594 232.02C-33.8094 231.78 -33.9494 231.53 -34.0994 231.29C-46.2894 210.47 -53.9594 186.58 -55.6494 160.86C-58.7594 113.5 -40.9794 69.5903 -10.2094 38.1503H-10.1994C-3.39942 31.2003 4.03058 24.8603 12.0106 19.2303C29.8206 6.66035 50.3706 -2.38967 72.7006 -6.84967C79.5806 -8.22967 86.6206 -9.16968 93.8106 -9.63968C123.011 -11.5597 150.901 -5.53968 175.361 6.58032C176.571 7.18032 177.771 7.79035 178.961 8.42035C205.201 22.2504 227.261 43.1803 242.431 68.8303C242.571 69.0703 242.711 69.3203 242.851 69.5603C252.051 85.6203 258.571 103.48 261.761 122.56V122.57C262.151 124.86 262.481 127.19 262.771 129.52V129.53C263.141 132.54 263.431 135.59 263.631 138.66C265.721 170.47 258.391 200.72 244.021 226.68Z" fill="#EC157B"/>
<path d="M262.771 129.52V129.53C261.171 130.7 259.551 131.89 257.921 133.1C242.031 144.85 232.471 144.29 210.421 152.88C188.381 161.47 163.101 157.19 144.061 157.25C129.371 157.3 110.931 154.05 95.5506 151.44C90.9806 150.66 86.6906 149.94 82.8406 149.37C66.0206 146.91 71.7106 142.96 60.1106 129.45C48.5106 115.93 95.2306 84.2905 70.6506 90.6705C46.0806 97.0405 22.2506 60.5305 46.3406 64.8905C70.4306 69.2605 58.2706 65.3005 102.041 61.2305C102.951 61.1505 103.831 61.0604 104.681 60.9904C144.941 57.1304 125.041 56.6404 159.061 77.7104C193.801 99.2304 159.061 77.7105 130.061 89.1405C120.921 92.7505 114.621 94.7404 110.081 96.4704C100.211 100.23 98.5706 102.73 93.8506 117.7C91.5406 125.04 96.4806 128.55 105.301 130.4C122.781 134.05 155.511 131.14 177.341 138.4C197.791 145.21 235.911 132.86 261.761 122.57C262.151 124.86 262.481 127.19 262.771 129.52Z" fill="#E5359A"/>
<path d="M178.961 8.4201C173.831 12.1201 167.651 16.6301 161.291 21.3301C145.401 33.0901 135.841 32.5301 113.801 41.1201C109.141 42.9401 104.341 44.1801 99.4905 45.0001C81.3505 48.0901 62.4505 45.4301 47.4305 45.4901C29.6905 45.5501 6.49054 40.7901 -10.1995 38.1501C-3.39946 31.2001 4.03054 24.8601 12.0105 19.2301C30.0705 21.9701 60.2005 19.8101 80.7105 26.6301C84.2105 27.7901 88.2105 28.3901 92.5905 28.5401C117.481 29.4001 154.231 15.5901 175.361 6.58008C176.571 7.18008 177.771 7.7901 178.961 8.4201Z" fill="#E5359A"/>
<path d="M213.381 266.07C212.911 266.53 212.441 266.96 211.961 267.4C195.201 266.77 157.401 266.66 140.671 283.83C127.141 297.71 150.141 294.16 175.781 292.4C157.131 301.81 136.331 307.71 114.171 309.17C109.801 309.46 105.461 309.57 101.151 309.5C90.0205 300.06 80.4406 291.2 76.8206 288.03C68.6606 280.87 77.3806 267.68 71.9206 252.44C66.1406 236.31 37.0406 228.22 32.3906 227.02C31.9806 226.91 31.7606 226.86 31.7606 226.86C31.7606 226.86 6.05056 225.99 -1.94944 221.39C-9.94944 216.78 4.00056 233.82 -9.94944 216.78C-23.8894 199.74 -20.2994 176.42 -20.2994 176.42C-20.2994 176.42 -30.7894 160.8 -44.6794 159.08C-26.4094 156.44 9.10056 152.92 17.3406 163.69C28.5706 178.34 -7.18945 180.69 14.4206 197.22C23.4006 204.1 33.5606 208.68 44.3906 211.54C59.6106 215.59 76.1406 216.25 92.5506 215.17C120.651 213.32 135.131 199.54 141.411 217.09C147.701 234.63 162.351 223.4 147.701 234.63C133.051 245.85 138.831 255.73 164.701 259.16C190.421 262.57 185.361 260.4 213.381 266.07Z" fill="#E5359A"/>
<path d="M181.921 186.44C175.201 187.4 170.781 188.25 170.781 188.25C174.631 186.45 178.381 186 181.921 186.44Z" fill="#E5359A"/>
<path d="M242.071 225.24C242.711 225.73 243.371 226.22 244.021 226.68C239.291 235.24 233.791 243.33 227.621 250.86C226.791 250.54 226.041 250.19 225.411 249.83C217.281 245.14 231.471 262.48 217.281 245.14C203.091 227.81 206.751 204.08 206.751 204.08C206.751 204.08 196.061 188.17 181.921 186.44C200.501 183.76 236.651 180.17 245.041 191.12C256.461 206.03 220.081 208.42 242.071 225.24Z" fill="#E5359A"/>
<path opacity="0.4" d="M244.02 226.68C239.29 235.24 233.79 243.33 227.62 250.86C223.21 256.23 218.461 261.31 213.391 266.07H213.38C212.91 266.53 212.44 266.96 211.96 267.4C201.19 277.28 189.05 285.72 175.82 292.39H175.8C175.79 292.39 175.79 292.4 175.78 292.4C157.13 301.81 136.33 307.71 114.17 309.17C109.8 309.46 105.46 309.57 101.15 309.5C68.1005 309.02 37.2005 298.42 11.6505 280.49C8.05049 267.07 16.2305 249.13 32.3905 227.02C36.0005 222.07 40.0205 216.91 44.3905 211.54C55.3805 198.06 68.6205 183.29 83.4305 167.29C88.1805 162.16 92.2005 156.86 95.5505 151.44C99.8005 144.59 103 137.55 105.3 130.4C108.9 119.23 110.3 107.81 110.08 96.4703C109.87 84.4003 107.83 72.4403 104.68 60.9903C103.18 55.5303 101.42 50.1803 99.4905 45.0003C97.3705 39.3003 95.0305 33.7903 92.5905 28.5403C86.0905 14.5503 78.8105 2.38033 72.7005 -6.84967C79.5805 -8.22967 86.6205 -9.16968 93.8105 -9.63968C123.01 -11.5597 150.9 -5.53968 175.36 6.58032C176.57 7.18032 177.77 7.79035 178.96 8.42035C205.201 22.2504 227.26 43.1803 242.43 68.8303C242.57 69.0703 242.71 69.3203 242.85 69.5603C252.05 85.6203 258.57 103.48 261.76 122.56V122.57C262.15 124.86 262.48 127.19 262.77 129.52V129.53C263.14 132.54 263.43 135.59 263.63 138.66C265.72 170.47 258.39 200.72 244.02 226.68Z" fill="#231F20"/>
<path d="M1989.48 1223.11C1981.46 1237.62 1972.14 1251.33 1961.68 1264.09C1954.21 1273.19 1946.16 1281.8 1937.57 1289.87H1937.55C1936.75 1290.65 1935.96 1291.38 1935.14 1292.13C1916.89 1308.87 1896.31 1323.17 1873.89 1334.48H1873.86C1873.84 1334.48 1873.84 1334.5 1873.82 1334.5C1842.22 1350.44 1806.96 1360.44 1769.41 1362.92C1762 1363.41 1754.64 1363.6 1747.34 1363.48C1691.33 1362.66 1638.96 1344.7 1595.65 1314.31C1564.79 1292.67 1538.52 1264.7 1518.86 1232.16C1518.61 1231.76 1518.37 1231.33 1518.12 1230.93C1497.46 1195.64 1484.46 1155.15 1481.59 1111.56C1476.32 1031.29 1506.46 956.876 1558.61 903.591H1558.62C1570.15 891.812 1582.74 881.067 1596.26 871.525C1626.45 850.221 1661.28 834.883 1699.12 827.324C1710.78 824.985 1722.71 823.392 1734.9 822.596C1784.39 819.342 1831.66 829.545 1873.11 850.086C1875.16 851.102 1877.2 852.136 1879.21 853.204C1923.69 876.643 1961.07 912.116 1986.78 955.587C1987.02 955.994 1987.26 956.418 1987.49 956.825C2003.09 984.043 2014.14 1014.31 2019.54 1046.65V1046.67C2020.2 1050.55 2020.76 1054.5 2021.26 1058.45V1058.46C2021.88 1063.56 2022.37 1068.73 2022.71 1073.94C2026.26 1127.85 2013.83 1179.12 1989.48 1223.11Z" fill="#E36C29"/>
<path d="M2021.26 1058.45V1058.46C2018.54 1060.45 2015.8 1062.46 2013.04 1064.51C1986.11 1084.43 1969.9 1083.48 1932.53 1098.04C1895.18 1112.59 1852.33 1105.34 1820.06 1105.44C1795.17 1105.53 1763.92 1100.02 1737.85 1095.6C1730.1 1094.27 1722.83 1093.05 1716.31 1092.09C1687.8 1087.92 1697.45 1081.22 1677.79 1058.33C1658.13 1035.41 1737.31 981.789 1695.65 992.602C1654.01 1003.4 1613.62 941.521 1654.45 948.91C1695.28 956.316 1674.67 949.605 1748.85 942.707C1750.39 942.572 1751.88 942.419 1753.32 942.3C1821.56 935.758 1787.83 934.928 1845.49 970.638C1904.36 1007.11 1845.49 970.638 1796.34 990.009C1780.85 996.128 1770.17 999.5 1762.47 1002.43C1745.75 1008.8 1742.97 1013.04 1734.97 1038.41C1731.05 1050.85 1739.43 1056.8 1754.37 1059.94C1784 1066.12 1839.47 1061.19 1876.47 1073.5C1911.13 1085.04 1975.73 1064.11 2019.54 1046.67C2020.2 1050.55 2020.76 1054.5 2021.26 1058.45Z" fill="#E55535"/>
<path d="M1879.21 853.204C1870.52 859.475 1860.05 867.119 1849.27 875.084C1822.34 895.015 1806.13 894.066 1768.78 908.625C1760.88 911.709 1752.75 913.811 1744.53 915.201C1713.78 920.438 1681.75 915.929 1656.3 916.031C1626.23 916.133 1586.91 908.065 1558.62 903.591C1570.15 891.812 1582.74 881.067 1596.27 871.525C1626.87 876.169 1677.94 872.508 1712.7 884.067C1718.63 886.033 1725.41 887.05 1732.83 887.304C1775.02 888.762 1837.3 865.356 1873.11 850.086C1875.16 851.103 1877.2 852.137 1879.21 853.204Z" fill="#E55535"/>
<path opacity="0.4" d="M1989.48 1223.11C1981.46 1237.62 1972.14 1251.33 1961.68 1264.09C1954.21 1273.19 1946.16 1281.8 1937.57 1289.87H1937.55C1936.75 1290.65 1935.96 1291.38 1935.14 1292.13C1916.89 1308.87 1896.31 1323.17 1873.89 1334.48H1873.86C1873.84 1334.48 1873.84 1334.5 1873.82 1334.5C1842.22 1350.44 1806.96 1360.44 1769.41 1362.92C1762 1363.41 1754.65 1363.6 1747.34 1363.48C1691.33 1362.66 1638.96 1344.7 1595.65 1314.31C1589.55 1291.57 1603.42 1261.16 1630.81 1223.69C1636.92 1215.3 1643.74 1206.55 1651.14 1197.45C1669.77 1174.61 1692.21 1149.58 1717.31 1122.46C1725.36 1113.76 1732.17 1104.78 1737.85 1095.6C1745.05 1083.99 1750.48 1072.05 1754.37 1059.94C1760.48 1041.01 1762.85 1021.65 1762.48 1002.43C1762.12 981.976 1758.66 961.706 1753.32 942.3C1750.78 933.047 1747.8 923.979 1744.53 915.2C1740.93 905.54 1736.97 896.201 1732.83 887.304C1721.82 863.593 1709.48 842.967 1699.12 827.324C1710.78 824.985 1722.71 823.392 1734.9 822.596C1784.39 819.342 1831.66 829.545 1873.11 850.086C1875.16 851.102 1877.2 852.136 1879.21 853.204C1923.69 876.643 1961.07 912.116 1986.78 955.587C1987.02 955.994 1987.26 956.418 1987.49 956.825C2003.09 984.043 2014.14 1014.31 2019.54 1046.65V1046.67C2020.2 1050.55 2020.76 1054.5 2021.26 1058.45V1058.46C2021.88 1063.56 2022.37 1068.73 2022.71 1073.94C2026.26 1127.85 2013.83 1179.12 1989.48 1223.11Z" fill="#231F20"/>
<path d="M891.251 124.35C889.181 128.1 886.771 131.63 884.071 134.93C882.141 137.28 880.061 139.5 877.841 141.58C877.631 141.78 877.431 141.97 877.221 142.16C872.511 146.48 867.201 150.18 861.411 153.09H861.401C861.401 153.09 861.401 153.09 861.391 153.09C853.231 157.21 844.131 159.79 834.431 160.43C832.521 160.56 830.621 160.61 828.731 160.57C814.271 160.36 800.751 155.72 789.571 147.88C781.601 142.29 774.821 135.07 769.751 126.67C769.681 126.56 769.621 126.46 769.561 126.35C764.231 117.24 760.871 106.79 760.131 95.5303C758.771 74.8103 766.551 55.6003 780.011 41.8403C782.991 38.8003 786.241 36.0303 789.731 33.5603C797.521 28.0603 806.511 24.1003 816.281 22.1503C819.291 21.5503 822.371 21.1303 825.521 20.9303C838.301 20.0903 850.501 22.7203 861.201 28.0303C861.731 28.2903 862.251 28.5603 862.781 28.8403C874.261 34.8903 883.911 44.0503 890.551 55.2703C890.611 55.3803 890.671 55.4803 890.731 55.5903C894.761 62.6203 897.611 70.4303 899.001 78.7803C899.171 79.7803 899.321 80.8003 899.441 81.8203C899.601 83.1403 899.731 84.4703 899.821 85.8103C900.741 99.7603 897.541 112.99 891.251 124.35Z" fill="#40A64F"/>
<path d="M899.451 81.8408C898.751 82.3608 898.041 82.8808 897.331 83.4108C890.381 88.5508 886.191 88.3108 876.551 92.0608C866.911 95.8208 855.851 93.9508 847.521 93.9708C841.091 93.9908 833.021 92.5708 826.301 91.4308C824.301 91.0908 822.421 90.7708 820.741 90.5208C813.381 89.4408 815.871 87.7208 810.791 81.8008C805.711 75.8808 826.161 62.0408 815.401 64.8308C804.651 67.6208 794.221 51.6408 804.761 53.5508C815.301 55.4608 809.981 53.7308 829.131 51.9508C829.531 51.9108 829.911 51.8808 830.291 51.8408C847.901 50.1508 839.201 49.9408 854.081 59.1608C869.281 68.5808 854.081 59.1608 841.391 64.1608C837.391 65.7408 834.631 66.6108 832.651 67.3708C828.331 69.0208 827.611 70.1108 825.551 76.6608C824.541 79.8708 826.701 81.4108 830.561 82.2208C838.211 83.8208 852.531 82.5408 862.081 85.7208C871.031 88.7008 887.711 83.3008 899.021 78.7908C899.181 79.8008 899.321 80.8208 899.451 81.8408Z" fill="#16954F"/>
<path d="M862.781 28.8605C860.541 30.4805 857.831 32.4506 855.051 34.5106C848.101 39.6606 843.911 39.4106 834.271 43.1706C832.231 43.9706 830.131 44.5105 828.011 44.8705C820.071 46.2205 811.801 45.0605 805.231 45.0805C797.471 45.1105 787.321 43.0205 780.021 41.8705C783.001 38.8305 786.251 36.0605 789.741 33.5905C797.641 34.7905 810.821 33.8405 819.801 36.8305C821.331 37.3405 823.081 37.6006 825.001 37.6706C835.891 38.0506 851.971 32.0005 861.211 28.0605C861.741 28.3205 862.261 28.5805 862.781 28.8605Z" fill="#16954F"/>
<path d="M764.931 94.7804C762.041 95.2004 760.131 95.5604 760.131 95.5604C761.801 94.7804 763.411 94.5804 764.931 94.7804Z" fill="#16954F"/>
<path d="M877.841 141.591C877.631 141.791 877.431 141.981 877.221 142.171C869.891 141.891 853.351 141.851 846.031 149.361C840.111 155.431 850.171 153.881 861.391 153.111C853.231 157.231 844.131 159.811 834.431 160.451C832.521 160.581 830.621 160.631 828.731 160.591C823.861 156.461 819.671 152.581 818.081 151.201C814.511 148.071 818.321 142.301 815.941 135.631C813.411 128.571 800.681 125.031 798.641 124.511C798.461 124.461 798.361 124.441 798.361 124.441C798.361 124.441 787.111 124.061 783.611 122.051C780.111 120.031 786.211 127.491 780.111 120.031C774.011 112.571 775.581 102.371 775.581 102.371C775.581 102.371 770.991 95.5408 764.911 94.7808C772.901 93.6208 788.441 92.0808 792.051 96.8008C796.961 103.211 781.321 104.241 790.771 111.471C794.701 114.481 799.141 116.481 803.881 117.741C810.541 119.511 817.771 119.801 824.951 119.331C837.241 118.521 843.581 112.491 846.331 120.171C849.081 127.841 855.491 122.931 849.081 127.841C842.671 132.751 845.201 137.071 856.521 138.571C867.801 140.061 865.581 139.111 877.841 141.591Z" fill="#16954F"/>
<path d="M864.081 106.751C861.141 107.171 859.211 107.541 859.211 107.541C860.891 106.751 862.531 106.551 864.081 106.751Z" fill="#16954F"/>
<path d="M890.391 123.721C890.671 123.931 890.961 124.151 891.241 124.351C889.171 128.101 886.761 131.631 884.061 134.931C883.701 134.791 883.371 134.641 883.091 134.481C879.531 132.431 885.741 140.011 879.531 132.431C873.321 124.851 874.921 114.471 874.921 114.471C874.921 114.471 870.241 107.511 864.061 106.751C872.191 105.581 888.011 104.011 891.681 108.801C896.691 115.321 880.771 116.361 890.391 123.721Z" fill="#16954F"/>
<path opacity="0.4" d="M891.251 124.351C889.181 128.101 886.771 131.631 884.071 134.931C882.141 137.281 880.061 139.501 877.841 141.581C877.631 141.781 877.431 141.971 877.221 142.161C872.511 146.481 867.201 150.181 861.411 153.091H861.401C861.401 153.091 861.401 153.091 861.391 153.091C853.231 157.211 844.131 159.791 834.431 160.431C832.521 160.561 830.621 160.611 828.731 160.571C814.271 160.361 800.751 155.721 789.571 147.881C787.991 142.011 791.571 134.161 798.641 124.491C800.221 122.321 801.981 120.071 803.891 117.721C808.701 111.821 814.491 105.361 820.971 98.3608C823.051 96.1208 824.811 93.8008 826.271 91.4308C828.131 88.4308 829.531 85.3508 830.541 82.2208C832.121 77.3308 832.731 72.3408 832.631 67.3708C832.541 62.0908 831.651 56.8608 830.271 51.8508C829.611 49.4608 828.841 47.1208 828.001 44.8508C827.071 42.3608 826.051 39.9508 824.981 37.6508C822.141 31.5308 818.951 26.2008 816.281 22.1708C819.291 21.5708 822.371 21.1508 825.521 20.9508C838.301 20.1108 850.501 22.7408 861.201 28.0508C861.731 28.3108 862.251 28.5808 862.781 28.8608C874.261 34.9108 883.911 44.0708 890.551 55.2908C890.611 55.4008 890.671 55.5008 890.731 55.6108C894.761 62.6408 897.611 70.4508 899.001 78.8008C899.171 79.8008 899.321 80.8208 899.441 81.8408C899.601 83.1608 899.731 84.4908 899.821 85.8308C900.741 99.7608 897.541 112.991 891.251 124.351Z" fill="#231F20"/>
<path d="M1414.11 284.45C1412.96 286.54 1411.62 288.51 1410.11 290.34C1409.04 291.65 1407.88 292.89 1406.64 294.05C1406.53 294.16 1406.41 294.27 1406.29 294.37C1403.66 296.78 1400.71 298.84 1397.48 300.46C1392.93 302.75 1387.86 304.19 1382.46 304.55C1381.39 304.62 1380.34 304.65 1379.29 304.63C1371.23 304.51 1363.7 301.93 1357.47 297.56C1353.03 294.45 1349.25 290.43 1346.43 285.74C1346.39 285.68 1346.36 285.62 1346.32 285.56C1343.35 280.48 1341.48 274.66 1341.07 268.39C1340.31 256.85 1344.65 246.14 1352.15 238.48C1353.81 236.79 1355.62 235.24 1357.56 233.87C1361.9 230.81 1366.91 228.6 1372.35 227.51C1374.03 227.17 1375.74 226.94 1377.5 226.83C1384.62 226.36 1391.42 227.83 1397.38 230.78C1397.67 230.93 1397.97 231.07 1398.26 231.23C1404.66 234.6 1410.03 239.7 1413.73 245.96C1413.76 246.02 1413.8 246.08 1413.83 246.14C1416.07 250.05 1417.66 254.41 1418.44 259.06C1418.53 259.62 1418.62 260.19 1418.69 260.75C1418.78 261.48 1418.85 262.23 1418.9 262.98C1419.4 270.75 1417.62 278.12 1414.11 284.45Z" fill="#E0B339"/>
<path d="M1418.69 260.771C1418.3 261.061 1417.91 261.351 1417.51 261.641C1413.64 264.501 1411.31 264.371 1405.93 266.461C1400.56 268.551 1394.4 267.511 1389.75 267.531C1386.17 267.541 1381.67 266.751 1377.93 266.111C1376.82 265.921 1375.77 265.741 1374.83 265.611C1370.73 265.011 1372.12 264.051 1369.29 260.751C1366.46 257.451 1377.85 249.741 1371.86 251.301C1365.87 252.851 1360.06 243.951 1365.93 245.021C1371.8 246.091 1368.84 245.121 1379.51 244.131C1379.73 244.111 1379.95 244.091 1380.15 244.071C1389.96 243.131 1385.11 243.011 1393.41 248.151C1401.88 253.401 1393.41 248.151 1386.34 250.941C1384.11 251.821 1382.58 252.311 1381.47 252.731C1379.06 253.651 1378.66 254.261 1377.51 257.911C1376.95 259.701 1378.15 260.551 1380.3 261.011C1384.56 261.901 1392.54 261.191 1397.86 262.961C1402.84 264.621 1412.14 261.611 1418.44 259.101C1418.53 259.631 1418.61 260.201 1418.69 260.771Z" fill="#E8954F"/>
<path d="M1398.26 231.251C1397.01 232.151 1395.5 233.251 1393.95 234.401C1390.08 237.271 1387.75 237.131 1382.37 239.221C1381.23 239.661 1380.06 239.971 1378.88 240.171C1374.46 240.921 1369.85 240.271 1366.19 240.291C1361.87 240.301 1356.21 239.141 1352.14 238.501C1353.8 236.811 1355.61 235.261 1357.55 233.891C1361.95 234.561 1369.3 234.031 1374.3 235.691C1375.15 235.971 1376.13 236.121 1377.2 236.161C1383.27 236.371 1392.23 233.001 1397.38 230.811C1397.67 230.941 1397.97 231.091 1398.26 231.251Z" fill="#E8954F"/>
<path d="M1343.74 267.97C1342.13 268.2 1341.07 268.401 1341.07 268.401C1341.99 267.971 1342.89 267.86 1343.74 267.97Z" fill="#E8954F"/>
<path d="M1406.65 294.05C1406.54 294.16 1406.42 294.27 1406.3 294.37C1402.21 294.22 1393 294.19 1388.92 298.38C1385.62 301.76 1391.23 300.9 1397.48 300.47C1392.93 302.76 1387.86 304.2 1382.46 304.56C1381.39 304.63 1380.34 304.66 1379.29 304.64C1376.58 302.34 1374.24 300.18 1373.36 299.41C1371.37 297.66 1373.5 294.45 1372.17 290.73C1370.76 286.8 1363.67 284.83 1362.53 284.53C1362.43 284.5 1362.38 284.49 1362.38 284.49C1362.38 284.49 1356.11 284.28 1354.16 283.16C1352.21 282.04 1355.61 286.19 1352.21 282.04C1348.81 277.89 1349.69 272.2 1349.69 272.2C1349.69 272.2 1347.13 268.39 1343.75 267.97C1348.2 267.33 1356.86 266.47 1358.87 269.09C1361.61 272.66 1352.89 273.23 1358.16 277.26C1360.35 278.94 1362.83 280.05 1365.47 280.75C1369.18 281.74 1373.21 281.9 1377.21 281.63C1384.06 281.18 1387.59 277.82 1389.12 282.1C1390.65 286.38 1394.22 283.64 1390.65 286.38C1387.08 289.11 1388.49 291.52 1394.79 292.36C1401.05 293.2 1399.82 292.67 1406.65 294.05Z" fill="#E8954F"/>
<path d="M1398.98 274.64C1397.34 274.87 1396.26 275.08 1396.26 275.08C1397.2 274.64 1398.11 274.53 1398.98 274.64Z" fill="#E8954F"/>
<path d="M1413.64 284.101C1413.8 284.221 1413.96 284.341 1414.12 284.451C1412.97 286.541 1411.63 288.511 1410.12 290.341C1409.92 290.261 1409.73 290.181 1409.58 290.091C1407.6 288.951 1411.06 293.171 1407.6 288.951C1404.14 284.731 1405.03 278.941 1405.03 278.941C1405.03 278.941 1402.42 275.061 1398.98 274.641C1403.51 273.991 1412.32 273.111 1414.37 275.781C1417.15 279.421 1408.28 280.001 1413.64 284.101Z" fill="#E8954F"/>
<path opacity="0.4" d="M1414.11 284.45C1412.96 286.54 1411.62 288.51 1410.11 290.34C1409.04 291.65 1407.88 292.89 1406.64 294.05C1406.53 294.16 1406.41 294.27 1406.29 294.37C1403.66 296.78 1400.71 298.84 1397.48 300.46C1392.93 302.75 1387.86 304.19 1382.46 304.55C1381.39 304.62 1380.34 304.65 1379.29 304.63C1371.23 304.51 1363.7 301.93 1357.47 297.56C1356.59 294.29 1358.59 289.92 1362.53 284.53C1363.41 283.32 1364.39 282.07 1365.46 280.76C1368.14 277.47 1371.37 273.87 1374.98 269.97C1376.14 268.72 1377.12 267.43 1377.93 266.11C1378.97 264.44 1379.75 262.72 1380.31 260.98C1381.19 258.26 1381.53 255.47 1381.48 252.71C1381.43 249.77 1380.93 246.85 1380.16 244.06C1379.79 242.73 1379.37 241.42 1378.89 240.16C1378.37 238.77 1377.8 237.43 1377.21 236.15C1375.63 232.74 1373.85 229.77 1372.36 227.52C1374.04 227.18 1375.75 226.95 1377.51 226.84C1384.63 226.37 1391.43 227.84 1397.39 230.79C1397.68 230.94 1397.98 231.08 1398.27 231.24C1404.67 234.61 1410.04 239.71 1413.74 245.97C1413.77 246.03 1413.81 246.09 1413.84 246.15C1416.08 250.06 1417.67 254.42 1418.45 259.07C1418.54 259.63 1418.63 260.2 1418.7 260.76C1418.79 261.49 1418.86 262.24 1418.91 262.99C1419.4 270.75 1417.62 278.12 1414.11 284.45Z" fill="#231F20"/>
<g filter="url(#filter1_d)">
<path d="M697.44 395.854L667.979 383L667.139 441.394L697.409 454.24L697.44 395.854Z" fill="url(#paint1_linear)"/>
<path d="M697.44 395.854L641.23 426.46L611 411.373L667.979 383L697.44 395.854Z" fill="url(#paint2_linear)"/>
<path d="M694.98 465.688L641.234 502.996L611 487.558L662.771 452.857L694.98 465.688Z" fill="url(#paint3_linear)"/>
<path d="M641.23 426.506L611 411.42V487.558L641.23 503V426.506Z" fill="url(#paint4_linear)"/>
<path d="M766.205 436.893C766.252 440.867 765.529 444.813 764.079 448.509C762.75 451.925 760.718 455.016 758.114 457.589C755.475 460.188 752.335 462.218 748.884 463.549C745.049 465.017 740.976 465.743 736.872 465.684H714.846V408.137H736.872C740.976 408.086 745.053 408.816 748.884 410.292C752.339 411.623 755.479 413.66 758.114 416.268C760.718 418.844 762.75 421.943 764.079 425.363C765.529 429.028 766.252 432.947 766.205 436.893ZM754.049 436.893C754.084 434.137 753.684 431.393 752.864 428.762C752.168 426.514 751.014 424.434 749.471 422.658C747.979 420.975 746.125 419.66 744.05 418.801C741.773 417.868 739.328 417.408 736.869 417.451H726.761V456.363H736.869C739.325 456.41 741.769 455.961 744.05 455.044C746.125 454.197 747.983 452.885 749.471 451.203C751.006 449.403 752.161 447.311 752.864 445.051C753.688 442.416 754.088 439.661 754.049 436.893Z" fill="white"/>
<path d="M830.33 436.893C830.369 440.894 829.65 444.864 828.205 448.587C826.879 452.073 824.847 455.246 822.239 457.905C819.605 460.575 816.461 462.678 812.994 464.091C805.272 467.07 796.723 467.07 789.001 464.091C785.527 462.675 782.371 460.571 779.725 457.905C777.106 455.246 775.058 452.073 773.709 448.587C772.295 444.852 771.591 440.886 771.63 436.893C771.587 432.908 772.291 428.95 773.709 425.23C776.433 418.157 781.979 412.556 789.001 409.773C796.715 406.752 805.28 406.752 812.994 409.773C819.985 412.622 825.473 418.27 828.142 425.359C829.596 429.028 830.342 432.943 830.33 436.893ZM818.206 436.893C818.244 434.169 817.844 431.456 817.02 428.86C816.313 426.608 815.147 424.531 813.597 422.755C812.097 421.061 810.216 419.75 808.109 418.93C805.832 417.997 803.388 417.536 800.928 417.579C798.452 417.54 795.992 418.001 793.699 418.93C791.616 419.769 789.755 421.085 788.263 422.771C786.728 424.555 785.57 426.631 784.855 428.876C784.038 431.475 783.638 434.184 783.669 436.909C783.63 439.676 784.031 442.428 784.855 445.071C785.577 447.276 786.739 449.313 788.263 451.062C789.767 452.737 791.624 454.052 793.699 454.919C796.004 455.816 798.46 456.257 800.928 456.218C803.384 456.261 805.824 455.82 808.109 454.919C810.185 454.064 812.038 452.744 813.53 451.062C815.081 449.298 816.247 447.229 816.954 444.989C817.778 442.369 818.174 439.637 818.139 436.893H818.206Z" fill="white"/>
<path d="M884.573 465.684H872.72C872.033 465.715 871.353 465.508 870.801 465.091C870.334 464.708 869.942 464.24 869.65 463.709L857.254 442.518L856.853 443.4C856.748 443.661 856.62 443.915 856.469 444.153L844.729 463.705C844.379 464.216 843.967 464.681 843.497 465.087C843.015 465.497 842.401 465.711 841.767 465.68H830.715L849.462 436.054L831.387 408.137H843.24C843.835 408.102 844.425 408.211 844.969 408.457C845.381 408.711 845.72 409.066 845.96 409.484L858.276 429.84C858.404 429.52 858.548 429.196 858.707 428.876C858.866 428.54 859.061 428.2 859.267 427.849L870.319 409.695C870.571 409.238 870.921 408.844 871.341 408.539C871.764 408.266 872.262 408.129 872.763 408.137H884.087L865.9 435.546L884.573 465.684Z" fill="white"/>
<path d="M909.861 436.784C913.572 436.784 916.281 435.886 917.987 434.087C919.805 432.081 920.746 429.423 920.594 426.714C920.614 425.386 920.384 424.067 919.922 422.826C919.529 421.671 918.853 420.632 917.955 419.805C917.007 418.915 915.869 418.247 914.629 417.861C913.074 417.377 911.454 417.15 909.83 417.186H902.31V436.788H909.861V436.784ZM909.861 408.138C913.292 408.067 916.716 408.54 920.003 409.535C922.611 410.308 925.02 411.635 927.072 413.423C928.872 415.015 930.255 417.029 931.102 419.286C932.016 421.651 932.47 424.173 932.447 426.71C932.474 429.36 932.008 431.991 931.071 434.47C930.17 436.796 928.736 438.876 926.882 440.543C924.853 442.331 922.479 443.681 919.906 444.513C916.669 445.489 913.304 445.953 909.927 445.895H902.314V465.688H890.461V408.138H909.861Z" fill="white"/>
<path d="M957.944 435.386C959.63 435.417 961.309 435.179 962.918 434.679C964.166 434.238 965.316 433.551 966.291 432.654C967.17 431.799 967.846 430.757 968.258 429.601C968.697 428.38 968.911 427.091 968.899 425.792C969.058 423.383 968.094 421.037 966.291 419.445C963.901 417.751 960.998 416.951 958.084 417.181H951.893V435.382H957.944V435.386ZM985.695 465.684H974.992C973.232 465.805 971.553 464.915 970.659 463.385L959.766 445.71C959.389 445.101 958.873 444.59 958.262 444.215C957.528 443.848 956.712 443.681 955.896 443.735H951.897V465.684H940.044V408.137H958.056C961.523 408.074 964.978 408.5 968.328 409.405C970.861 410.077 973.24 411.252 975.319 412.86C977.071 414.269 978.439 416.096 979.302 418.176C980.822 422.068 980.977 426.365 979.733 430.355C979.213 432.025 978.412 433.598 977.367 435C976.31 436.44 975.031 437.705 973.574 438.743C972.004 439.859 970.278 440.737 968.456 441.346C969.225 441.799 969.936 442.338 970.582 442.955C971.269 443.567 971.868 444.274 972.358 445.058L985.695 465.684Z" fill="white"/>
<path d="M1045.73 436.893C1045.77 440.894 1045.05 444.864 1043.6 448.587C1042.28 452.073 1040.24 455.246 1037.64 457.905C1035.01 460.575 1031.87 462.678 1028.41 464.091C1020.68 467.058 1012.14 467.058 1004.41 464.091C1000.94 462.675 997.784 460.571 995.138 457.905C992.519 455.246 990.479 452.073 989.138 448.587C987.727 444.852 987.032 440.886 987.09 436.893C987.043 432.908 987.754 428.95 989.184 425.23C990.521 421.74 992.565 418.567 995.185 415.913C997.827 413.251 1000.98 411.162 1004.46 409.777C1012.17 406.759 1020.74 406.759 1028.45 409.777C1035.44 412.607 1040.94 418.223 1043.65 425.281C1045.08 428.981 1045.78 432.923 1045.73 436.893ZM1033.6 436.893C1033.64 434.169 1033.24 431.456 1032.42 428.86C1031.71 426.608 1030.54 424.531 1028.99 422.755C1027.51 421.069 1025.65 419.761 1023.57 418.93C1021.3 417.997 1018.85 417.536 1016.39 417.579C1013.92 417.54 1011.46 418.001 1009.16 418.93C1007.08 419.769 1005.22 421.085 1003.73 422.771C1002.19 424.551 1001.04 426.631 1000.33 428.876C999.51 431.471 999.114 434.184 999.149 436.909C999.102 439.676 999.502 442.432 1000.33 445.071C1001.04 447.28 1002.2 449.317 1003.73 451.062C1005.23 452.737 1007.09 454.052 1009.16 454.919C1011.47 455.816 1013.92 456.257 1016.39 456.218C1018.85 456.261 1021.29 455.82 1023.57 454.919C1025.65 454.064 1027.5 452.744 1028.99 451.062C1030.54 449.298 1031.71 447.229 1032.42 444.989C1033.24 442.373 1033.64 439.641 1033.6 436.893Z" fill="white"/>
<path d="M1094.32 451.612C1093.36 453.525 1091.85 455.078 1089.79 456.277C1087.72 457.475 1085.13 458.076 1082.01 458.076C1079.03 458.076 1076.37 457.502 1074.03 456.347C1071.7 455.199 1069.84 453.654 1068.47 451.718C1067.09 449.785 1066.29 447.689 1066.06 445.433H1069.29C1069.52 446.909 1070.11 448.427 1071.05 449.992C1071.99 451.558 1073.37 452.869 1075.21 453.931C1077.04 454.992 1079.29 455.519 1081.95 455.519C1085.34 455.519 1087.96 454.579 1089.79 452.69C1091.62 450.8 1092.54 448.451 1092.54 445.64C1092.54 443.201 1091.97 441.245 1090.82 439.769C1089.67 438.298 1088.26 437.17 1086.59 436.385C1084.91 435.601 1082.63 434.773 1079.74 433.899C1076.67 432.978 1074.22 432.092 1072.38 431.241C1070.55 430.39 1069 429.09 1067.74 427.337C1066.48 425.589 1065.85 423.286 1065.85 420.429C1065.85 416.927 1067.06 414.05 1069.5 411.794C1071.92 409.538 1075.29 408.41 1079.61 408.41C1083.96 408.41 1087.41 409.507 1089.96 411.693C1092.51 413.879 1094.08 416.494 1094.67 419.535H1091.37C1090.91 417.372 1089.7 415.401 1087.72 413.629C1085.75 411.857 1083.05 410.967 1079.6 410.967C1076.44 410.967 1073.91 411.787 1072 413.422C1070.1 415.058 1069.15 417.372 1069.15 420.366C1069.15 422.669 1069.7 424.523 1070.8 425.928C1071.9 427.333 1073.27 428.415 1074.89 429.176C1076.52 429.937 1078.73 430.729 1081.53 431.561C1084.65 432.482 1087.15 433.391 1089.03 434.289C1090.91 435.187 1092.5 436.534 1093.81 438.329C1095.11 440.125 1095.77 442.545 1095.77 445.582C1095.77 447.685 1095.28 449.7 1094.32 451.612Z" fill="white"/>
<path d="M1133.49 421.904C1136.17 423.449 1138.27 425.67 1139.78 428.57C1141.3 431.471 1142.05 434.882 1142.05 438.793C1142.05 442.708 1141.3 446.128 1139.78 449.055C1138.27 451.979 1136.17 454.215 1133.49 455.753C1130.81 457.299 1127.73 458.068 1124.24 458.068C1120.21 458.068 1116.78 456.998 1113.96 454.855C1111.14 452.716 1109.23 449.894 1108.22 446.393V475.27H1105.19V420.077H1108.22V431.268C1109.23 427.766 1111.14 424.948 1113.96 422.805C1116.78 420.662 1120.21 419.593 1124.24 419.593C1127.73 419.589 1130.81 420.362 1133.49 421.904ZM1115.71 424.394C1113.37 425.752 1111.54 427.673 1110.21 430.163C1108.88 432.649 1108.22 435.53 1108.22 438.797C1108.22 442.068 1108.88 444.961 1110.21 447.466C1111.54 449.98 1113.37 451.912 1115.71 453.271C1118.05 454.629 1120.69 455.308 1123.62 455.308C1128.3 455.308 1132.02 453.837 1134.8 450.886C1137.57 447.939 1138.96 443.911 1138.96 438.797C1138.96 433.731 1137.57 429.726 1134.8 426.779C1132.02 423.832 1128.3 422.356 1123.62 422.356C1120.69 422.356 1118.05 423.036 1115.71 424.394Z" fill="white"/>
<path d="M1177.76 422.805C1180.55 424.948 1182.45 427.766 1183.47 431.268V420.077H1186.56V457.592H1183.47V446.397C1182.45 449.898 1180.55 452.72 1177.76 454.859C1174.96 457.002 1171.52 458.072 1167.44 458.072C1163.95 458.072 1160.87 457.299 1158.19 455.757C1155.5 454.215 1153.41 451.983 1151.89 449.059C1150.38 446.135 1149.62 442.716 1149.62 438.797C1149.62 434.886 1150.38 431.475 1151.89 428.574C1153.41 425.67 1155.5 423.449 1158.19 421.907C1160.87 420.366 1163.95 419.593 1167.44 419.593C1171.52 419.589 1174.96 420.662 1177.76 422.805ZM1156.95 426.775C1154.17 429.722 1152.78 433.731 1152.78 438.793C1152.78 443.907 1154.16 447.935 1156.91 450.882C1159.66 453.833 1163.4 455.304 1168.12 455.304C1171.06 455.304 1173.7 454.625 1176.03 453.267C1178.37 451.908 1180.2 449.976 1181.5 447.463C1182.81 444.957 1183.46 442.064 1183.46 438.793C1183.46 435.522 1182.81 432.646 1181.5 430.159C1180.2 427.673 1178.37 425.748 1176.03 424.39C1173.7 423.032 1171.06 422.352 1168.12 422.352C1163.45 422.356 1159.72 423.828 1156.95 426.775Z" fill="white"/>
<path d="M1225.69 423.285C1228.77 425.748 1230.65 429.008 1231.33 433.063H1228.1C1227.55 429.745 1225.99 427.122 1223.42 425.186C1220.85 423.25 1217.69 422.286 1213.93 422.286C1211.22 422.286 1208.74 422.883 1206.5 424.082C1204.25 425.28 1202.44 427.122 1201.07 429.609C1199.69 432.095 1199 435.159 1199 438.797C1199 442.439 1199.69 445.499 1201.07 447.986C1202.44 450.472 1204.25 452.314 1206.5 453.513C1208.74 454.711 1211.22 455.308 1213.93 455.308C1217.69 455.308 1220.85 454.34 1223.42 452.408C1225.99 450.472 1227.55 447.845 1228.1 444.531H1231.33C1230.64 448.63 1228.76 451.912 1225.69 454.375C1222.62 456.838 1218.72 458.072 1214 458.072C1210.47 458.072 1207.34 457.299 1204.61 455.757C1201.88 454.215 1199.74 451.99 1198.18 449.09C1196.62 446.186 1195.84 442.755 1195.84 438.797C1195.84 434.886 1196.62 431.475 1198.18 428.574C1199.74 425.67 1201.88 423.449 1204.61 421.907C1207.34 420.366 1210.47 419.593 1214 419.593C1218.72 419.589 1222.62 420.822 1225.69 423.285Z" fill="white"/>
<path d="M1266.41 452.58C1268.98 450.667 1270.54 448.056 1271.09 444.738H1274.32C1273.63 448.747 1271.76 451.967 1268.71 454.41C1265.66 456.85 1261.77 458.072 1257.05 458.072C1253.52 458.072 1250.39 457.299 1247.66 455.757C1244.94 454.215 1242.79 451.99 1241.23 449.09C1239.67 446.186 1238.89 442.755 1238.89 438.797C1238.89 434.886 1239.67 431.475 1241.23 428.574C1242.79 425.67 1244.94 423.449 1247.66 421.907C1250.39 420.366 1253.52 419.593 1257.05 419.593C1260.68 419.593 1263.8 420.366 1266.44 421.907C1269.08 423.453 1271.07 425.479 1272.43 427.989C1273.78 430.503 1274.46 433.18 1274.46 436.038C1274.46 437.189 1274.34 438.411 1274.11 439.699H1241.99C1242.04 443.2 1242.76 446.135 1244.16 448.509C1245.56 450.882 1247.37 452.631 1249.6 453.759C1251.82 454.887 1254.26 455.449 1256.92 455.449C1260.68 455.445 1263.84 454.492 1266.41 452.58ZM1249.63 423.875C1247.38 425.026 1245.56 426.779 1244.16 429.125C1242.76 431.475 1242.04 434.375 1241.99 437.829H1271.43C1271.61 434.375 1271.04 431.463 1269.71 429.09C1268.38 426.716 1266.59 424.968 1264.34 423.84C1262.1 422.712 1259.67 422.149 1257.05 422.149C1254.35 422.146 1251.87 422.723 1249.63 423.875Z" fill="white"/>
<path d="M1303.83 422.735C1306.21 424.831 1307.64 427.696 1308.09 431.338H1305.14C1304.86 428.668 1303.8 426.443 1301.94 424.671C1300.08 422.899 1297.57 422.013 1294.41 422.013C1291.61 422.013 1289.42 422.704 1287.84 424.086C1286.26 425.467 1285.47 427.31 1285.47 429.613C1285.47 431.318 1285.94 432.677 1286.88 433.688C1287.82 434.703 1288.96 435.448 1290.31 435.932C1291.67 436.416 1293.56 436.959 1295.99 437.556C1298.69 438.157 1300.87 438.778 1302.52 439.422C1304.17 440.066 1305.57 441.077 1306.72 442.462C1307.86 443.844 1308.44 445.733 1308.44 448.13C1308.44 451.077 1307.38 453.47 1305.28 455.312C1303.17 457.155 1300.39 458.076 1296.95 458.076C1292.83 458.076 1289.44 457.026 1286.81 454.93C1284.17 452.834 1282.6 449.968 1282.1 446.327H1285.19C1285.47 449 1286.63 451.221 1288.67 452.994C1290.71 454.766 1293.49 455.652 1297.02 455.652C1299.68 455.652 1301.76 454.953 1303.25 453.548C1304.74 452.143 1305.48 450.312 1305.48 448.056C1305.48 446.256 1305 444.82 1304.04 443.739C1303.08 442.658 1301.87 441.861 1300.43 441.354C1298.98 440.85 1297.07 440.319 1294.69 439.765C1291.98 439.121 1289.84 438.485 1288.26 437.864C1286.67 437.244 1285.32 436.276 1284.2 434.964C1283.08 433.653 1282.51 431.869 1282.51 429.609C1282.51 426.568 1283.59 424.14 1285.74 422.321C1287.9 420.502 1290.79 419.593 1294.41 419.593C1298.3 419.589 1301.44 420.639 1303.83 422.735Z" fill="white"/>
<path d="M488.432 631.736V659H479.696V591.32H501.2C508.944 591.32 514.736 593.144 518.576 596.792C522.416 600.376 524.336 605.304 524.336 611.576C524.336 617.912 522.352 622.872 518.384 626.456C514.416 629.976 508.688 631.736 501.2 631.736H488.432ZM500.432 624.44C505.744 624.44 509.552 623.32 511.856 621.08C514.224 618.84 515.408 615.672 515.408 611.576C515.408 607.352 514.224 604.152 511.856 601.976C509.552 599.736 505.744 598.616 500.432 598.616H488.432V624.44H500.432ZM583.019 629.72C583.019 631.576 582.891 633.176 582.635 634.52H540.491C540.683 640.536 542.379 645.048 545.579 648.056C548.843 651.064 552.811 652.568 557.483 652.568C561.707 652.568 565.227 651.512 568.043 649.4C570.923 647.224 572.683 644.344 573.323 640.76H582.635C581.995 644.408 580.555 647.672 578.315 650.552C576.139 653.432 573.291 655.672 569.771 657.272C566.251 658.872 562.283 659.672 557.867 659.672C552.811 659.672 548.331 658.584 544.427 656.408C540.523 654.232 537.451 651.128 535.211 647.096C533.035 643 531.947 638.2 531.947 632.696C531.947 627.192 533.035 622.392 535.211 618.296C537.451 614.2 540.523 611.064 544.427 608.888C548.331 606.712 552.811 605.624 557.867 605.624C562.987 605.624 567.435 606.712 571.211 608.888C575.051 611.064 577.963 613.976 579.947 617.624C581.995 621.272 583.019 625.304 583.019 629.72ZM574.187 630.296C574.379 626.392 573.739 623.128 572.267 620.504C570.795 617.88 568.779 615.928 566.219 614.648C563.659 613.368 560.875 612.728 557.867 612.728C553.067 612.728 549.035 614.232 545.771 617.24C542.507 620.184 540.747 624.536 540.491 630.296H574.187ZM619.598 651.32V659H613.07C607.694 659 603.662 657.72 600.974 655.16C598.35 652.6 597.038 648.312 597.038 642.296V613.88H589.166V606.296H597.038V593.144H605.87V606.296H619.502V613.88H605.87V642.488C605.87 645.88 606.478 648.216 607.694 649.496C608.974 650.712 611.15 651.32 614.222 651.32H619.598ZM655.41 651.32V659H648.882C643.506 659 639.474 657.72 636.786 655.16C634.162 652.6 632.85 648.312 632.85 642.296V613.88H624.978V606.296H632.85V593.144H641.682V606.296H655.314V613.88H641.682V642.488C641.682 645.88 642.29 648.216 643.506 649.496C644.786 650.712 646.962 651.32 650.034 651.32H655.41ZM669.719 606.296L686.807 647.768L702.647 606.296H712.343L681.047 683.96H671.159L682.103 658.136L659.927 606.296H669.719ZM774.023 590.648C782.279 590.648 789.095 592.696 794.471 596.792C799.847 600.824 803.559 606.36 805.607 613.4H796.391C794.663 608.92 791.879 605.368 788.039 602.744C784.199 600.056 779.495 598.712 773.927 598.712C769.511 598.712 765.543 599.8 762.023 601.976C758.567 604.088 755.815 607.16 753.767 611.192C751.783 615.16 750.791 619.832 750.791 625.208C750.791 630.52 751.783 635.16 753.767 639.128C755.815 643.096 758.567 646.168 762.023 648.344C765.543 650.456 769.511 651.512 773.927 651.512C779.495 651.512 784.199 650.2 788.039 647.576C791.879 644.888 794.663 641.304 796.391 636.824H805.607C803.559 643.864 799.847 649.432 794.471 653.528C789.095 657.56 782.279 659.576 774.023 659.576C767.687 659.576 762.087 658.136 757.223 655.256C752.359 652.312 748.551 648.248 745.799 643.064C743.111 637.816 741.767 631.864 741.767 625.208C741.767 618.488 743.111 612.504 745.799 607.256C748.551 602.008 752.359 597.944 757.223 595.064C762.087 592.12 767.687 590.648 774.023 590.648ZM838.889 605.624C844.009 605.624 848.329 606.904 851.849 609.464C855.433 612.024 857.929 615.448 859.337 619.736V606.296H868.073V659H859.337V645.56C857.929 649.848 855.433 653.272 851.849 655.832C848.329 658.392 844.009 659.672 838.889 659.672C834.217 659.672 830.057 658.584 826.409 656.408C822.761 654.232 819.881 651.128 817.769 647.096C815.721 643 814.697 638.2 814.697 632.696C814.697 627.192 815.721 622.392 817.769 618.296C819.881 614.2 822.761 611.064 826.409 608.888C830.057 606.712 834.217 605.624 838.889 605.624ZM841.385 613.4C836.009 613.4 831.689 615.128 828.425 618.584C825.225 621.976 823.625 626.68 823.625 632.696C823.625 638.712 825.225 643.448 828.425 646.904C831.689 650.296 836.009 651.992 841.385 651.992C844.841 651.992 847.913 651.192 850.601 649.592C853.353 647.992 855.497 645.752 857.033 642.872C858.569 639.928 859.337 636.536 859.337 632.696C859.337 628.856 858.569 625.464 857.033 622.52C855.497 619.576 853.353 617.336 850.601 615.8C847.913 614.2 844.841 613.4 841.385 613.4ZM898.489 605.624C904.441 605.624 909.209 607.192 912.793 610.328C916.441 613.4 918.649 617.56 919.417 622.808H911.065C910.681 619.672 909.369 617.112 907.129 615.128C904.953 613.08 902.009 612.056 898.297 612.056C895.161 612.056 892.697 612.824 890.905 614.36C889.177 615.832 888.313 617.848 888.313 620.408C888.313 622.328 888.889 623.896 890.041 625.112C891.257 626.264 892.729 627.16 894.457 627.8C896.249 628.376 898.681 629.016 901.753 629.72C905.657 630.616 908.793 631.544 911.161 632.504C913.593 633.4 915.641 634.872 917.305 636.92C919.033 638.968 919.897 641.72 919.897 645.176C919.897 649.464 918.265 652.952 915.001 655.64C911.801 658.328 907.513 659.672 902.137 659.672C895.865 659.672 890.745 658.168 886.777 655.16C882.809 652.152 880.473 647.96 879.769 642.584H888.217C888.537 645.784 889.913 648.376 892.345 650.36C894.841 652.344 898.105 653.336 902.137 653.336C905.145 653.336 907.481 652.568 909.145 651.032C910.873 649.496 911.737 647.48 911.737 644.984C911.737 642.936 911.129 641.304 909.913 640.088C908.697 638.872 907.193 637.944 905.401 637.304C903.609 636.664 901.145 635.992 898.009 635.288C894.105 634.392 890.969 633.496 888.601 632.6C886.297 631.704 884.313 630.296 882.649 628.376C881.049 626.392 880.249 623.736 880.249 620.408C880.249 615.992 881.881 612.44 885.145 609.752C888.409 607 892.857 605.624 898.489 605.624ZM959.315 605.432C965.459 605.432 970.419 607.416 974.195 611.384C977.971 615.288 979.859 620.952 979.859 628.376V659H971.123V629.144C971.123 623.896 969.779 619.864 967.091 617.048C964.403 614.232 960.755 612.824 956.147 612.824C951.347 612.824 947.507 614.392 944.627 617.528C941.747 620.6 940.307 625.112 940.307 631.064V659H931.571V587.96H940.307V618.776C941.651 614.488 944.019 611.192 947.411 608.888C950.867 606.584 954.835 605.432 959.315 605.432ZM1100.21 591.32L1083.02 659H1072.37L1056.72 603.704L1041.07 659H1030.42L1013.14 591.32H1022.83L1035.79 648.824L1051.82 591.32H1061.52L1077.55 648.632L1090.61 591.32H1100.21ZM1134.35 605.624C1139.41 605.624 1143.92 606.712 1147.89 608.888C1151.92 611.064 1155.05 614.2 1157.29 618.296C1159.6 622.392 1160.75 627.192 1160.75 632.696C1160.75 638.2 1159.6 643 1157.29 647.096C1155.05 651.128 1151.92 654.232 1147.89 656.408C1143.92 658.584 1139.41 659.672 1134.35 659.672C1129.29 659.672 1124.75 658.584 1120.72 656.408C1116.75 654.232 1113.61 651.128 1111.31 647.096C1109.01 643 1107.85 638.2 1107.85 632.696C1107.85 627.192 1109.01 622.392 1111.31 618.296C1113.61 614.2 1116.75 611.064 1120.72 608.888C1124.75 606.712 1129.29 605.624 1134.35 605.624ZM1134.35 613.304C1131.21 613.304 1128.3 614.008 1125.61 615.416C1122.99 616.824 1120.85 619 1119.18 621.944C1117.58 624.824 1116.78 628.408 1116.78 632.696C1116.78 636.92 1117.58 640.504 1119.18 643.448C1120.85 646.328 1122.99 648.472 1125.61 649.88C1128.3 651.288 1131.21 651.992 1134.35 651.992C1137.49 651.992 1140.37 651.288 1142.99 649.88C1145.68 648.472 1147.82 646.328 1149.42 643.448C1151.09 640.504 1151.92 636.92 1151.92 632.696C1151.92 628.408 1151.09 624.824 1149.42 621.944C1147.82 619 1145.68 616.824 1142.99 615.416C1140.37 614.008 1137.49 613.304 1134.35 613.304ZM1180.87 616.952C1182.6 613.304 1185.13 610.488 1188.45 608.504C1191.78 606.456 1195.75 605.432 1200.36 605.432V614.936H1197.67C1192.74 614.936 1188.71 616.216 1185.57 618.776C1182.44 621.272 1180.87 625.432 1180.87 631.256V659H1172.13V606.296H1180.87V616.952ZM1237.87 659L1217.71 635.288V659H1208.98V587.96H1217.71V629.24L1237.58 606.296H1248.24L1224.62 632.504L1248.82 659H1237.87ZM1279.84 593.816C1275.16 593.752 1271.9 594.552 1270.04 596.216C1268.25 597.88 1267.36 600.76 1267.36 604.856V606.296H1279.84V613.976H1267.36V659H1258.62V613.976H1251.04V606.296H1258.62V604.184C1258.62 591.576 1265.69 585.56 1279.84 586.136V593.816ZM1298.06 587.96V659H1289.32V587.96H1298.06ZM1336.01 605.624C1341.06 605.624 1345.57 606.712 1349.54 608.888C1353.57 611.064 1356.71 614.2 1358.95 618.296C1361.25 622.392 1362.41 627.192 1362.41 632.696C1362.41 638.2 1361.25 643 1358.95 647.096C1356.71 651.128 1353.57 654.232 1349.54 656.408C1345.57 658.584 1341.06 659.672 1336.01 659.672C1330.95 659.672 1326.41 658.584 1322.37 656.408C1318.41 654.232 1315.27 651.128 1312.97 647.096C1310.66 643 1309.51 638.2 1309.51 632.696C1309.51 627.192 1310.66 622.392 1312.97 618.296C1315.27 614.2 1318.41 611.064 1322.37 608.888C1326.41 606.712 1330.95 605.624 1336.01 605.624ZM1336.01 613.304C1332.87 613.304 1329.96 614.008 1327.27 615.416C1324.65 616.824 1322.5 619 1320.84 621.944C1319.24 624.824 1318.44 628.408 1318.44 632.696C1318.44 636.92 1319.24 640.504 1320.84 643.448C1322.5 646.328 1324.65 648.472 1327.27 649.88C1329.96 651.288 1332.87 651.992 1336.01 651.992C1339.14 651.992 1342.02 651.288 1344.65 649.88C1347.33 648.472 1349.48 646.328 1351.08 643.448C1352.74 640.504 1353.57 636.92 1353.57 632.696C1353.57 628.408 1352.74 624.824 1351.08 621.944C1349.48 619 1347.33 616.824 1344.65 615.416C1342.02 614.008 1339.14 613.304 1336.01 613.304ZM1446.17 606.296L1431.01 659H1421.6L1407.1 616.088L1392.51 659H1383.01L1368.03 606.296H1376.86L1388.09 650.648L1402.69 606.296H1411.81L1426.49 650.552L1437.82 606.296H1446.17Z" fill="white"/>
</g>
</g>
<defs>
<filter id="filter0_f" x="1206" y="-494" width="1170" height="1170" filterUnits="userSpaceOnUse" color-interpolation-filters="sRGB">
<feFlood flood-opacity="0" result="BackgroundImageFix"/>
<feBlend mode="normal" in="SourceGraphic" in2="BackgroundImageFix" result="shape"/>
<feGaussianBlur stdDeviation="125" result="effect1_foregroundBlur"/>
</filter>
<filter id="filter1_d" x="279.696" y="187" width="1366.48" height="700.96" filterUnits="userSpaceOnUse" color-interpolation-filters="sRGB">
<feFlood flood-opacity="0" result="BackgroundImageFix"/>
<feColorMatrix in="SourceAlpha" type="matrix" values="0 0 0 0 0 0 0 0 0 0 0 0 0 0 0 0 0 0 127 0"/>
<feOffset dy="4"/>
<feGaussianBlur stdDeviation="100"/>
<feColorMatrix type="matrix" values="0 0 0 0 0 0 0 0 0 0 0 0 0 0 0 0 0 0 1 0"/>
<feBlend mode="normal" in2="BackgroundImageFix" result="effect1_dropShadow"/>
<feBlend mode="normal" in="SourceGraphic" in2="effect1_dropShadow" result="shape"/>
</filter>
<linearGradient id="paint0_linear" x1="210.001" y1="1290" x2="1710" y2="-210" gradientUnits="userSpaceOnUse">
<stop offset="0.0051282" stop-color="#66183B"/>
<stop offset="1" stop-color="#100942"/>
</linearGradient>
<linearGradient id="paint1_linear" x1="677.979" y1="386.213" x2="689.198" y2="469.824" gradientUnits="userSpaceOnUse">
<stop stop-color="#0A799C"/>
<stop offset="1" stop-color="#205164"/>
</linearGradient>
<linearGradient id="paint2_linear" x1="687.419" y1="384.058" x2="618.553" y2="424.264" gradientUnits="userSpaceOnUse">
<stop stop-color="#E4F0FA"/>
<stop offset="0.53" stop-color="#BEE6FA"/>
<stop offset="1" stop-color="#E4F0FA"/>
</linearGradient>
<linearGradient id="paint3_linear" x1="686.993" y1="457.318" x2="619.892" y2="496.494" gradientUnits="userSpaceOnUse">
<stop stop-color="#E4F0FA"/>
<stop offset="0.53" stop-color="#BEE6FA"/>
<stop offset="1" stop-color="#E4F0FA"/>
</linearGradient>
<linearGradient id="paint4_linear" x1="620.526" y1="415.004" x2="632.224" y2="502.182" gradientUnits="userSpaceOnUse">
<stop stop-color="#6FCEEA"/>
<stop offset="1" stop-color="#BFE6F2"/>
</linearGradient>
<clipPath id="clip0">
<rect width="1920" height="1080" fill="white"/>
</clipPath>
</defs>
</svg>
