<svg width="1920" height="1080" viewBox="0 0 1920 1080" fill="none" xmlns="http://www.w3.org/2000/svg">
<rect width="1920" height="1080" fill="url(#paint0_radial_695_46635)"/>
<g style="mix-blend-mode:overlay" opacity="0.25">
<path fill-rule="evenodd" clip-rule="evenodd" d="M534 968L635.329 349.819C749.68 349.819 836.36 452.713 818.047 565.407L782.643 780.586H861.997C901.878 780.586 937.282 773.645 968.21 759.762C999.544 745.471 1025.59 721.789 1046.75 688.308C1067.91 654.827 1083.37 608.688 1092.73 550.708C1101.69 495.586 1101.28 453.122 1091.92 423.315C1082.56 393.1 1064.66 372.276 1038.2 360.844C1011.75 349.003 977.569 342.878 936.061 342.878L857.521 341.653C697.999 341.653 649.165 217.935 644.689 155.872H969.023C1051.63 155.872 1120.41 172.205 1175.75 206.094C1231.1 239.576 1270.57 287.756 1293.77 349.819C1316.96 412.291 1321.44 486.603 1307.6 572.756C1294.17 655.643 1266.5 726.689 1224.99 785.486C1183.48 844.282 1130.99 889.605 1066.69 920.636C1002.8 951.668 929.957 967.592 848.161 967.592H534V968Z" fill="white"/>
<path fill-rule="evenodd" clip-rule="evenodd" d="M723.637 156.281H968.617C1051.23 156.281 1120 172.613 1175.35 206.503C1230.69 239.984 1270.16 288.165 1293.36 350.228C1316.55 412.699 1321.03 487.011 1307.2 573.165C1293.77 656.052 1266.09 727.097 1224.59 785.894C1199.35 821.417 1170.46 852.04 1136.69 877.764C1136.69 877.764 1136.69 877.764 1137.09 877.764C1201.39 846.732 1254.29 801.41 1295.39 742.613C1336.9 683.817 1364.57 612.771 1378 529.884C1392.25 443.731 1387.36 369.418 1364.17 306.947C1340.97 244.476 1301.5 196.703 1246.15 163.222C1191.22 129.332 1122.44 113 1039.83 113H715.091C715.905 125.658 718.754 140.357 723.637 156.281Z" fill="white" fill-opacity="0.5"/>
</g>
<path d="M613.609 433.182H628.37V478.523C628.37 483.614 627.154 488.068 624.722 491.886C622.313 495.705 618.938 498.682 614.597 500.818C610.257 502.932 605.2 503.989 599.427 503.989C593.632 503.989 588.563 502.932 584.222 500.818C579.882 498.682 576.507 495.705 574.097 491.886C571.688 488.068 570.484 483.614 570.484 478.523V433.182H585.245V477.261C585.245 479.92 585.825 482.284 586.984 484.352C588.166 486.42 589.825 488.045 591.961 489.227C594.097 490.409 596.586 491 599.427 491C602.291 491 604.779 490.409 606.893 489.227C609.029 488.045 610.677 486.42 611.836 484.352C613.018 482.284 613.609 479.92 613.609 477.261V433.182ZM681.891 465.568L668.595 466.386C668.368 465.25 667.879 464.227 667.129 463.318C666.379 462.386 665.391 461.648 664.163 461.102C662.959 460.534 661.516 460.25 659.834 460.25C657.584 460.25 655.686 460.727 654.141 461.682C652.595 462.614 651.822 463.864 651.822 465.432C651.822 466.682 652.322 467.739 653.322 468.602C654.322 469.466 656.038 470.159 658.47 470.682L667.947 472.591C673.038 473.636 676.834 475.318 679.334 477.636C681.834 479.955 683.084 483 683.084 486.773C683.084 490.205 682.072 493.216 680.05 495.807C678.05 498.398 675.3 500.42 671.8 501.875C668.322 503.307 664.311 504.023 659.766 504.023C652.834 504.023 647.311 502.58 643.197 499.693C639.106 496.784 636.709 492.83 636.004 487.83L650.288 487.08C650.72 489.193 651.766 490.807 653.425 491.92C655.084 493.011 657.209 493.557 659.8 493.557C662.345 493.557 664.391 493.068 665.936 492.091C667.504 491.091 668.3 489.807 668.322 488.239C668.3 486.92 667.743 485.841 666.652 485C665.561 484.136 663.879 483.477 661.606 483.023L652.538 481.216C647.425 480.193 643.618 478.42 641.118 475.898C638.641 473.375 637.402 470.159 637.402 466.25C637.402 462.886 638.311 459.989 640.129 457.557C641.97 455.125 644.55 453.25 647.868 451.932C651.209 450.614 655.118 449.955 659.595 449.955C666.209 449.955 671.413 451.352 675.209 454.148C679.027 456.943 681.254 460.75 681.891 465.568ZM690.309 503V450.636H704.831V503H690.309ZM697.604 443.886C695.445 443.886 693.593 443.17 692.047 441.739C690.524 440.284 689.763 438.545 689.763 436.523C689.763 434.523 690.524 432.807 692.047 431.375C693.593 429.92 695.445 429.193 697.604 429.193C699.763 429.193 701.604 429.92 703.127 431.375C704.672 432.807 705.445 434.523 705.445 436.523C705.445 438.545 704.672 440.284 703.127 441.739C701.604 443.17 699.763 443.886 697.604 443.886ZM729.068 472.727V503H714.545V450.636H728.386V459.875H728.999C730.158 456.83 732.102 454.42 734.829 452.648C737.556 450.852 740.863 449.955 744.749 449.955C748.386 449.955 751.556 450.75 754.261 452.341C756.965 453.932 759.068 456.205 760.568 459.159C762.068 462.091 762.818 465.591 762.818 469.659V503H748.295V472.25C748.318 469.045 747.499 466.545 745.84 464.75C744.181 462.932 741.897 462.023 738.988 462.023C737.033 462.023 735.306 462.443 733.806 463.284C732.329 464.125 731.17 465.352 730.329 466.966C729.511 468.557 729.09 470.477 729.068 472.727ZM795.934 523.727C791.23 523.727 787.196 523.08 783.832 521.784C780.491 520.511 777.832 518.773 775.855 516.568C773.878 514.364 772.594 511.886 772.003 509.136L785.434 507.33C785.844 508.375 786.491 509.352 787.378 510.261C788.264 511.17 789.434 511.898 790.889 512.443C792.366 513.011 794.162 513.295 796.275 513.295C799.434 513.295 802.037 512.523 804.082 510.977C806.15 509.455 807.184 506.898 807.184 503.307V493.727H806.571C805.934 495.182 804.98 496.557 803.707 497.852C802.434 499.148 800.798 500.205 798.798 501.023C796.798 501.841 794.412 502.25 791.639 502.25C787.707 502.25 784.128 501.341 780.9 499.523C777.696 497.682 775.139 494.875 773.23 491.102C771.344 487.307 770.4 482.511 770.4 476.716C770.4 470.784 771.366 465.83 773.298 461.852C775.23 457.875 777.798 454.898 781.003 452.92C784.23 450.943 787.764 449.955 791.605 449.955C794.537 449.955 796.991 450.455 798.969 451.455C800.946 452.432 802.537 453.659 803.741 455.136C804.969 456.591 805.912 458.023 806.571 459.432H807.116V450.636H821.537V503.511C821.537 507.966 820.446 511.693 818.264 514.693C816.082 517.693 813.059 519.943 809.196 521.443C805.355 522.966 800.934 523.727 795.934 523.727ZM796.241 491.341C798.582 491.341 800.559 490.761 802.173 489.602C803.809 488.42 805.059 486.739 805.923 484.557C806.809 482.352 807.253 479.716 807.253 476.648C807.253 473.58 806.821 470.92 805.957 468.67C805.094 466.398 803.844 464.636 802.207 463.386C800.571 462.136 798.582 461.511 796.241 461.511C793.855 461.511 791.844 462.159 790.207 463.455C788.571 464.727 787.332 466.5 786.491 468.773C785.65 471.045 785.23 473.67 785.23 476.648C785.23 479.67 785.65 482.284 786.491 484.489C787.355 486.67 788.594 488.364 790.207 489.568C791.844 490.75 793.855 491.341 796.241 491.341ZM866.404 503.989C863.063 503.989 860.086 503.409 857.472 502.25C854.859 501.068 852.791 499.33 851.268 497.034C849.768 494.716 849.018 491.83 849.018 488.375C849.018 485.466 849.552 483.023 850.62 481.045C851.688 479.068 853.143 477.477 854.984 476.273C856.825 475.068 858.916 474.159 861.256 473.545C863.62 472.932 866.097 472.5 868.688 472.25C871.734 471.932 874.188 471.636 876.052 471.364C877.916 471.068 879.268 470.636 880.109 470.068C880.95 469.5 881.37 468.659 881.37 467.545V467.341C881.37 465.182 880.688 463.511 879.325 462.33C877.984 461.148 876.075 460.557 873.597 460.557C870.984 460.557 868.904 461.136 867.359 462.295C865.813 463.432 864.791 464.864 864.291 466.591L850.859 465.5C851.541 462.318 852.881 459.568 854.881 457.25C856.881 454.909 859.461 453.114 862.62 451.864C865.802 450.591 869.484 449.955 873.666 449.955C876.575 449.955 879.359 450.295 882.018 450.977C884.7 451.659 887.075 452.716 889.143 454.148C891.234 455.58 892.881 457.42 894.086 459.67C895.291 461.898 895.893 464.568 895.893 467.682V503H882.12V495.739H881.711C880.87 497.375 879.745 498.818 878.336 500.068C876.927 501.295 875.234 502.261 873.256 502.966C871.279 503.648 868.995 503.989 866.404 503.989ZM870.563 493.966C872.7 493.966 874.586 493.545 876.222 492.705C877.859 491.841 879.143 490.682 880.075 489.227C881.006 487.773 881.472 486.125 881.472 484.284V478.727C881.018 479.023 880.393 479.295 879.597 479.545C878.825 479.773 877.95 479.989 876.972 480.193C875.995 480.375 875.018 480.545 874.041 480.705C873.063 480.841 872.177 480.966 871.381 481.08C869.677 481.33 868.188 481.727 866.916 482.273C865.643 482.818 864.654 483.557 863.95 484.489C863.245 485.398 862.893 486.534 862.893 487.898C862.893 489.875 863.609 491.386 865.041 492.432C866.495 493.455 868.336 493.966 870.563 493.966ZM941.527 503L921.55 433.182H937.675L949.232 481.693H949.811L962.561 433.182H976.368L989.084 481.795H989.698L1001.25 433.182H1017.38L997.402 503H983.016L969.72 457.352H969.175L955.914 503H941.527ZM1041.12 504.023C1035.83 504.023 1031.25 502.898 1027.38 500.648C1023.54 498.375 1020.58 495.216 1018.49 491.17C1016.39 487.102 1015.35 482.386 1015.35 477.023C1015.35 471.614 1016.39 466.886 1018.49 462.841C1020.58 458.773 1023.54 455.614 1027.38 453.364C1031.25 451.091 1035.83 449.955 1041.12 449.955C1046.42 449.955 1050.99 451.091 1054.83 453.364C1058.69 455.614 1061.67 458.773 1063.76 462.841C1065.85 466.886 1066.89 471.614 1066.89 477.023C1066.89 482.386 1065.85 487.102 1063.76 491.17C1061.67 495.216 1058.69 498.375 1054.83 500.648C1050.99 502.898 1046.42 504.023 1041.12 504.023ZM1041.19 492.773C1043.6 492.773 1045.61 492.091 1047.22 490.727C1048.84 489.341 1050.05 487.455 1050.87 485.068C1051.71 482.682 1052.13 479.966 1052.13 476.92C1052.13 473.875 1051.71 471.159 1050.87 468.773C1050.05 466.386 1048.84 464.5 1047.22 463.114C1045.61 461.727 1043.6 461.034 1041.19 461.034C1038.76 461.034 1036.71 461.727 1035.05 463.114C1033.42 464.5 1032.18 466.386 1031.34 468.773C1030.52 471.159 1030.11 473.875 1030.11 476.92C1030.11 479.966 1030.52 482.682 1031.34 485.068C1032.18 487.455 1033.42 489.341 1035.05 490.727C1036.71 492.091 1038.76 492.773 1041.19 492.773ZM1074.42 503V450.636H1088.5V459.773H1089.04C1090 456.523 1091.6 454.068 1093.85 452.409C1096.1 450.727 1098.69 449.886 1101.62 449.886C1102.35 449.886 1103.13 449.932 1103.97 450.023C1104.82 450.114 1105.55 450.239 1106.19 450.398V463.284C1105.51 463.08 1104.57 462.898 1103.36 462.739C1102.16 462.58 1101.05 462.5 1100.05 462.5C1097.92 462.5 1096.01 462.966 1094.33 463.898C1092.67 464.807 1091.35 466.08 1090.37 467.716C1089.42 469.352 1088.94 471.239 1088.94 473.375V503H1074.42ZM1124.94 487.932L1124.97 470.511H1127.09L1143.86 450.636H1160.53L1137.99 476.955H1134.55L1124.94 487.932ZM1111.78 503V433.182H1126.3V503H1111.78ZM1144.51 503L1129.1 480.193L1138.78 469.932L1161.52 503H1144.51ZM1193.89 450.636V461.545H1161.57V450.636H1193.89ZM1168.97 503V446.852C1168.97 443.057 1169.71 439.909 1171.19 437.409C1172.69 434.909 1174.73 433.034 1177.32 431.784C1179.92 430.534 1182.86 429.909 1186.15 429.909C1188.38 429.909 1190.42 430.08 1192.26 430.42C1194.12 430.761 1195.51 431.068 1196.42 431.341L1193.82 442.25C1193.26 442.068 1192.55 441.898 1191.71 441.739C1190.89 441.58 1190.05 441.5 1189.19 441.5C1187.05 441.5 1185.56 442 1184.72 443C1183.88 443.977 1183.46 445.352 1183.46 447.125V503H1168.97ZM1215.37 433.182V503H1200.84V433.182H1215.37ZM1248.74 504.023C1243.44 504.023 1238.87 502.898 1235 500.648C1231.16 498.375 1228.19 495.216 1226.1 491.17C1224.01 487.102 1222.97 482.386 1222.97 477.023C1222.97 471.614 1224.01 466.886 1226.1 462.841C1228.19 458.773 1231.16 455.614 1235 453.364C1238.87 451.091 1243.44 449.955 1248.74 449.955C1254.04 449.955 1258.6 451.091 1262.44 453.364C1266.31 455.614 1269.29 458.773 1271.38 462.841C1273.47 466.886 1274.51 471.614 1274.51 477.023C1274.51 482.386 1273.47 487.102 1271.38 491.17C1269.29 495.216 1266.31 498.375 1262.44 500.648C1258.6 502.898 1254.04 504.023 1248.74 504.023ZM1248.81 492.773C1251.22 492.773 1253.23 492.091 1254.84 490.727C1256.46 489.341 1257.67 487.455 1258.49 485.068C1259.33 482.682 1259.75 479.966 1259.75 476.92C1259.75 473.875 1259.33 471.159 1258.49 468.773C1257.67 466.386 1256.46 464.5 1254.84 463.114C1253.23 461.727 1251.22 461.034 1248.81 461.034C1246.38 461.034 1244.33 461.727 1242.67 463.114C1241.04 464.5 1239.8 466.386 1238.96 468.773C1238.14 471.159 1237.73 473.875 1237.73 476.92C1237.73 479.966 1238.14 482.682 1238.96 485.068C1239.8 487.455 1241.04 489.341 1242.67 490.727C1244.33 492.091 1246.38 492.773 1248.81 492.773ZM1291.05 503L1276.8 450.636H1291.5L1299.61 485.818H1300.09L1308.54 450.636H1322.96L1331.55 485.614H1332L1339.97 450.636H1354.63L1340.42 503H1325.04L1316.04 470.068H1315.39L1306.39 503H1291.05ZM607.869 647L593.619 594.636H608.312L616.426 629.818H616.903L625.357 594.636H639.778L648.369 629.614H648.812L656.789 594.636H671.448L657.232 647H641.857L632.857 614.068H632.21L623.21 647H607.869ZM677.275 647V594.636H691.798V647H677.275ZM684.571 587.886C682.412 587.886 680.56 587.17 679.014 585.739C677.491 584.284 676.73 582.545 676.73 580.523C676.73 578.523 677.491 576.807 679.014 575.375C680.56 573.92 682.412 573.193 684.571 573.193C686.73 573.193 688.571 573.92 690.094 575.375C691.639 576.807 692.412 578.523 692.412 580.523C692.412 582.545 691.639 584.284 690.094 585.739C688.571 587.17 686.73 587.886 684.571 587.886ZM729.364 594.636V605.545H697.83V594.636H729.364ZM704.989 582.091H719.512V630.909C719.512 632.25 719.716 633.295 720.125 634.045C720.534 634.773 721.103 635.284 721.83 635.58C722.58 635.875 723.444 636.023 724.421 636.023C725.103 636.023 725.784 635.966 726.466 635.852C727.148 635.716 727.671 635.614 728.034 635.545L730.319 646.352C729.591 646.58 728.569 646.841 727.25 647.136C725.932 647.455 724.33 647.648 722.444 647.716C718.944 647.852 715.875 647.386 713.239 646.318C710.625 645.25 708.591 643.591 707.137 641.341C705.682 639.091 704.966 636.25 704.989 632.818V582.091ZM752.552 616.727V647H738.029V577.182H752.143V603.875H752.756C753.938 600.784 755.847 598.364 758.484 596.614C761.12 594.841 764.427 593.955 768.404 593.955C772.041 593.955 775.211 594.75 777.916 596.341C780.643 597.909 782.756 600.17 784.256 603.125C785.779 606.057 786.529 609.568 786.506 613.659V647H771.984V616.25C772.006 613.023 771.188 610.511 769.529 608.716C767.893 606.92 765.597 606.023 762.643 606.023C760.666 606.023 758.916 606.443 757.393 607.284C755.893 608.125 754.711 609.352 753.847 610.966C753.006 612.557 752.575 614.477 752.552 616.727ZM831.246 647.989C827.905 647.989 824.928 647.409 822.314 646.25C819.701 645.068 817.632 643.33 816.11 641.034C814.61 638.716 813.86 635.83 813.86 632.375C813.86 629.466 814.394 627.023 815.462 625.045C816.53 623.068 817.985 621.477 819.826 620.273C821.666 619.068 823.757 618.159 826.098 617.545C828.462 616.932 830.939 616.5 833.53 616.25C836.576 615.932 839.03 615.636 840.894 615.364C842.757 615.068 844.11 614.636 844.951 614.068C845.791 613.5 846.212 612.659 846.212 611.545V611.341C846.212 609.182 845.53 607.511 844.166 606.33C842.826 605.148 840.916 604.557 838.439 604.557C835.826 604.557 833.746 605.136 832.201 606.295C830.655 607.432 829.632 608.864 829.132 610.591L815.701 609.5C816.382 606.318 817.723 603.568 819.723 601.25C821.723 598.909 824.303 597.114 827.462 595.864C830.644 594.591 834.326 593.955 838.507 593.955C841.416 593.955 844.201 594.295 846.86 594.977C849.541 595.659 851.916 596.716 853.985 598.148C856.076 599.58 857.723 601.42 858.928 603.67C860.132 605.898 860.735 608.568 860.735 611.682V647H846.962V639.739H846.553C845.712 641.375 844.587 642.818 843.178 644.068C841.769 645.295 840.076 646.261 838.098 646.966C836.121 647.648 833.837 647.989 831.246 647.989ZM835.405 637.966C837.541 637.966 839.428 637.545 841.064 636.705C842.701 635.841 843.985 634.682 844.916 633.227C845.848 631.773 846.314 630.125 846.314 628.284V622.727C845.86 623.023 845.235 623.295 844.439 623.545C843.666 623.773 842.791 623.989 841.814 624.193C840.837 624.375 839.86 624.545 838.882 624.705C837.905 624.841 837.019 624.966 836.223 625.08C834.519 625.33 833.03 625.727 831.757 626.273C830.485 626.818 829.496 627.557 828.791 628.489C828.087 629.398 827.735 630.534 827.735 631.898C827.735 633.875 828.451 635.386 829.882 636.432C831.337 637.455 833.178 637.966 835.405 637.966ZM952.255 601.625H937.324C937.051 599.693 936.494 597.977 935.653 596.477C934.812 594.955 933.733 593.659 932.415 592.591C931.096 591.523 929.574 590.705 927.846 590.136C926.142 589.568 924.29 589.284 922.29 589.284C918.676 589.284 915.528 590.182 912.846 591.977C910.165 593.75 908.085 596.341 906.608 599.75C905.13 603.136 904.392 607.25 904.392 612.091C904.392 617.068 905.13 621.25 906.608 624.636C908.108 628.023 910.199 630.58 912.88 632.307C915.562 634.034 918.665 634.898 922.187 634.898C924.165 634.898 925.994 634.636 927.676 634.114C929.38 633.591 930.892 632.83 932.21 631.83C933.528 630.807 934.619 629.568 935.483 628.114C936.369 626.659 936.983 625 937.324 623.136L952.255 623.205C951.869 626.409 950.903 629.5 949.358 632.477C947.835 635.432 945.778 638.08 943.187 640.42C940.619 642.739 937.551 644.58 933.983 645.943C930.437 647.284 926.426 647.955 921.949 647.955C915.721 647.955 910.153 646.545 905.244 643.727C900.358 640.909 896.494 636.83 893.653 631.489C890.835 626.148 889.426 619.682 889.426 612.091C889.426 604.477 890.858 598 893.721 592.659C896.585 587.318 900.471 583.25 905.38 580.455C910.29 577.636 915.812 576.227 921.949 576.227C925.994 576.227 929.744 576.795 933.199 577.932C936.676 579.068 939.755 580.727 942.437 582.909C945.119 585.068 947.301 587.716 948.983 590.852C950.687 593.989 951.778 597.58 952.255 601.625ZM984.307 648.023C979.012 648.023 974.432 646.898 970.568 644.648C966.728 642.375 963.762 639.216 961.671 635.17C959.58 631.102 958.534 626.386 958.534 621.023C958.534 615.614 959.58 610.886 961.671 606.841C963.762 602.773 966.728 599.614 970.568 597.364C974.432 595.091 979.012 593.955 984.307 593.955C989.603 593.955 994.171 595.091 998.012 597.364C1001.88 599.614 1004.85 602.773 1006.94 606.841C1009.03 610.886 1010.08 615.614 1010.08 621.023C1010.08 626.386 1009.03 631.102 1006.94 635.17C1004.85 639.216 1001.88 642.375 998.012 644.648C994.171 646.898 989.603 648.023 984.307 648.023ZM984.375 636.773C986.784 636.773 988.796 636.091 990.409 634.727C992.023 633.341 993.239 631.455 994.057 629.068C994.898 626.682 995.318 623.966 995.318 620.92C995.318 617.875 994.898 615.159 994.057 612.773C993.239 610.386 992.023 608.5 990.409 607.114C988.796 605.727 986.784 605.034 984.375 605.034C981.943 605.034 979.898 605.727 978.239 607.114C976.603 608.5 975.364 610.386 974.523 612.773C973.705 615.159 973.296 617.875 973.296 620.92C973.296 623.966 973.705 626.682 974.523 629.068C975.364 631.455 976.603 633.341 978.239 634.727C979.898 636.091 981.943 636.773 984.375 636.773ZM1032.13 616.727V647H1017.6V594.636H1031.44V603.875H1032.06C1033.22 600.83 1035.16 598.42 1037.89 596.648C1040.61 594.852 1043.92 593.955 1047.81 593.955C1051.44 593.955 1054.61 594.75 1057.32 596.341C1060.02 597.932 1062.13 600.205 1063.63 603.159C1065.13 606.091 1065.88 609.591 1065.88 613.659V647H1051.35V616.25C1051.38 613.045 1050.56 610.545 1048.9 608.75C1047.24 606.932 1044.96 606.023 1042.05 606.023C1040.09 606.023 1038.36 606.443 1036.86 607.284C1035.39 608.125 1034.23 609.352 1033.39 610.966C1032.57 612.557 1032.15 614.477 1032.13 616.727ZM1094.7 647.852C1090.72 647.852 1087.12 646.83 1083.89 644.784C1080.69 642.716 1078.14 639.682 1076.25 635.682C1074.39 631.659 1073.46 626.727 1073.46 620.886C1073.46 614.886 1074.42 609.898 1076.36 605.92C1078.29 601.92 1080.86 598.932 1084.06 596.955C1087.29 594.955 1090.82 593.955 1094.66 593.955C1097.59 593.955 1100.04 594.455 1101.99 595.455C1103.97 596.432 1105.56 597.659 1106.77 599.136C1107.99 600.591 1108.92 602.023 1109.56 603.432H1110V577.182H1124.49V647H1110.17V638.614H1109.56C1108.88 640.068 1107.91 641.511 1106.66 642.943C1105.44 644.352 1103.83 645.523 1101.86 646.455C1099.9 647.386 1097.52 647.852 1094.7 647.852ZM1099.3 636.295C1101.64 636.295 1103.62 635.659 1105.23 634.386C1106.87 633.091 1108.12 631.284 1108.98 628.966C1109.87 626.648 1110.31 623.932 1110.31 620.818C1110.31 617.705 1109.88 615 1109.02 612.705C1108.15 610.409 1106.9 608.636 1105.27 607.386C1103.63 606.136 1101.64 605.511 1099.3 605.511C1096.91 605.511 1094.9 606.159 1093.27 607.455C1091.63 608.75 1090.39 610.545 1089.55 612.841C1088.71 615.136 1088.29 617.795 1088.29 620.818C1088.29 623.864 1088.71 626.557 1089.55 628.898C1090.41 631.216 1091.65 633.034 1093.27 634.352C1094.9 635.648 1096.91 636.295 1099.3 636.295ZM1134.51 647V594.636H1149.04V647H1134.51ZM1141.81 587.886C1139.65 587.886 1137.8 587.17 1136.25 585.739C1134.73 584.284 1133.97 582.545 1133.97 580.523C1133.97 578.523 1134.73 576.807 1136.25 575.375C1137.8 573.92 1139.65 573.193 1141.81 573.193C1143.97 573.193 1145.81 573.92 1147.33 575.375C1148.88 576.807 1149.65 578.523 1149.65 580.523C1149.65 582.545 1148.88 584.284 1147.33 585.739C1145.81 587.17 1143.97 587.886 1141.81 587.886ZM1186.6 594.636V605.545H1155.07V594.636H1186.6ZM1162.23 582.091H1176.75V630.909C1176.75 632.25 1176.95 633.295 1177.36 634.045C1177.77 634.773 1178.34 635.284 1179.07 635.58C1179.82 635.875 1180.68 636.023 1181.66 636.023C1182.34 636.023 1183.02 635.966 1183.7 635.852C1184.39 635.716 1184.91 635.614 1185.27 635.545L1187.56 646.352C1186.83 646.58 1185.81 646.841 1184.49 647.136C1183.17 647.455 1181.57 647.648 1179.68 647.716C1176.18 647.852 1173.11 647.386 1170.48 646.318C1167.86 645.25 1165.83 643.591 1164.37 641.341C1162.92 639.091 1162.2 636.25 1162.23 632.818V582.091ZM1194.14 647V594.636H1208.66V647H1194.14ZM1201.44 587.886C1199.28 587.886 1197.43 587.17 1195.88 585.739C1194.36 584.284 1193.6 582.545 1193.6 580.523C1193.6 578.523 1194.36 576.807 1195.88 575.375C1197.43 573.92 1199.28 573.193 1201.44 573.193C1203.6 573.193 1205.44 573.92 1206.96 575.375C1208.51 576.807 1209.28 578.523 1209.28 580.523C1209.28 582.545 1208.51 584.284 1206.96 585.739C1205.44 587.17 1203.6 587.886 1201.44 587.886ZM1242.04 648.023C1236.74 648.023 1232.16 646.898 1228.3 644.648C1224.46 642.375 1221.49 639.216 1219.4 635.17C1217.31 631.102 1216.26 626.386 1216.26 621.023C1216.26 615.614 1217.31 610.886 1219.4 606.841C1221.49 602.773 1224.46 599.614 1228.3 597.364C1232.16 595.091 1236.74 593.955 1242.04 593.955C1247.33 593.955 1251.9 595.091 1255.74 597.364C1259.61 599.614 1262.58 602.773 1264.67 606.841C1266.76 610.886 1267.81 615.614 1267.81 621.023C1267.81 626.386 1266.76 631.102 1264.67 635.17C1262.58 639.216 1259.61 642.375 1255.74 644.648C1251.9 646.898 1247.33 648.023 1242.04 648.023ZM1242.11 636.773C1244.51 636.773 1246.53 636.091 1248.14 634.727C1249.75 633.341 1250.97 631.455 1251.79 629.068C1252.63 626.682 1253.05 623.966 1253.05 620.92C1253.05 617.875 1252.63 615.159 1251.79 612.773C1250.97 610.386 1249.75 608.5 1248.14 607.114C1246.53 605.727 1244.51 605.034 1242.11 605.034C1239.67 605.034 1237.63 605.727 1235.97 607.114C1234.33 608.5 1233.09 610.386 1232.25 612.773C1231.43 615.159 1231.03 617.875 1231.03 620.92C1231.03 623.966 1231.43 626.682 1232.25 629.068C1233.09 631.455 1234.33 633.341 1235.97 634.727C1237.63 636.091 1239.67 636.773 1242.11 636.773ZM1289.86 616.727V647H1275.33V594.636H1289.17V603.875H1289.79C1290.95 600.83 1292.89 598.42 1295.62 596.648C1298.34 594.852 1301.65 593.955 1305.54 593.955C1309.17 593.955 1312.34 594.75 1315.05 596.341C1317.75 597.932 1319.86 600.205 1321.36 603.159C1322.86 606.091 1323.61 609.591 1323.61 613.659V647H1309.08V616.25C1309.11 613.045 1308.29 610.545 1306.63 608.75C1304.97 606.932 1302.69 606.023 1299.78 606.023C1297.82 606.023 1296.09 606.443 1294.59 607.284C1293.12 608.125 1291.96 609.352 1291.12 610.966C1290.3 612.557 1289.88 614.477 1289.86 616.727Z" fill="url(#paint1_linear_695_46635)"/>
<path fill-rule="evenodd" clip-rule="evenodd" d="M1920 888V952V1080H1311H1247L1248 1079.98C1282.95 1079.44 1311 1050.95 1311 1016C1311 980.652 1339.65 952 1375 952H1854.99C1890.5 952 1919.45 923.507 1920 888Z" fill="white"/>
<path fill-rule="evenodd" clip-rule="evenodd" d="M1398 1052L1406.65 999.22C1416.4 999.22 1423.8 1008 1422.23 1017.63L1419.21 1036H1425.98C1429.39 1036 1432.41 1035.41 1435.05 1034.22C1437.72 1033 1439.94 1030.98 1441.75 1028.12C1443.55 1025.26 1444.87 1021.32 1445.67 1016.37C1446.43 1011.67 1446.4 1008.04 1445.6 1005.49C1444.8 1002.91 1443.27 1001.14 1441.02 1000.16C1438.76 999.15 1435.84 998.627 1432.3 998.627L1425.6 998.522C1411.99 998.522 1407.83 987.959 1407.44 982.66H1435.11C1442.16 982.66 1448.03 984.055 1452.75 986.948C1457.47 989.807 1460.84 993.921 1462.82 999.22C1464.8 1004.55 1465.18 1010.9 1464 1018.25C1462.85 1025.33 1460.49 1031.4 1456.95 1036.42C1453.41 1041.44 1448.93 1045.31 1443.45 1047.96C1438 1050.61 1431.78 1051.97 1424.8 1051.97H1398V1052Z" fill="url(#paint2_linear_695_46635)"/>
<path fill-rule="evenodd" clip-rule="evenodd" d="M1414.18 982.695H1435.08C1442.13 982.695 1448 984.09 1452.72 986.983C1457.44 989.842 1460.81 993.956 1462.79 999.255C1464.76 1004.59 1465.15 1010.93 1463.97 1018.29C1462.82 1025.37 1460.46 1031.43 1456.92 1036.45C1454.77 1039.48 1452.3 1042.1 1449.42 1044.3C1449.42 1044.3 1449.42 1044.3 1449.45 1044.3C1454.94 1041.65 1459.45 1037.78 1462.96 1032.76C1466.5 1027.74 1468.86 1021.67 1470.01 1014.59C1471.22 1007.24 1470.81 1000.89 1468.83 995.559C1466.85 990.225 1463.48 986.147 1458.76 983.288C1454.07 980.394 1448.2 979 1441.16 979H1413.45C1413.52 980.081 1413.76 981.336 1414.18 982.695Z" fill="url(#paint3_linear_695_46635)"/>
<path fill-rule="evenodd" clip-rule="evenodd" d="M1560.04 1041.86C1554.74 1041.86 1550.07 1040.74 1545.99 1038.53C1541.94 1036.25 1538.77 1033.16 1536.47 1029.23C1534.17 1025.27 1533.02 1020.74 1533.02 1015.66C1533.02 1010.54 1534.17 1006.01 1536.47 1002.08C1538.77 998.122 1541.94 995.035 1545.99 992.791C1550.03 990.511 1554.67 989.389 1559.9 989.389C1565.2 989.389 1569.83 990.511 1573.88 992.791C1577.92 995 1581.09 998.122 1583.39 1002.08C1585.69 1006.01 1586.85 1010.5 1586.85 1015.66C1586.85 1020.74 1585.69 1025.27 1583.39 1029.23C1581.13 1033.16 1577.99 1036.25 1573.95 1038.53C1569.9 1040.77 1565.27 1041.86 1560.04 1041.86ZM1560.04 1029.55C1562.62 1029.55 1564.92 1028.95 1566.87 1027.79C1568.86 1026.6 1570.39 1024.95 1571.47 1022.85C1572.59 1020.78 1573.14 1018.39 1573.14 1015.66C1573.14 1012.96 1572.55 1010.57 1571.4 1008.47C1570.29 1006.33 1568.75 1004.72 1566.73 1003.52C1564.78 1002.33 1562.48 1001.7 1559.9 1001.7C1557.35 1001.7 1555.09 1002.3 1553.06 1003.52C1551.11 1004.68 1549.54 1006.33 1548.39 1008.47C1547.28 1010.54 1546.72 1012.92 1546.72 1015.66C1546.72 1018.36 1547.31 1020.74 1548.46 1022.85C1549.61 1024.92 1551.18 1026.57 1553.13 1027.79C1555.12 1028.95 1557.42 1029.55 1560.04 1029.55ZM1501.16 1028.32C1503.28 1028.32 1505.2 1028 1506.98 1027.37C1508.76 1026.74 1510.29 1025.86 1511.58 1024.78C1512.87 1023.65 1513.88 1022.32 1514.61 1020.78C1515.34 1019.24 1515.69 1017.52 1515.69 1015.62C1515.69 1013.73 1515.34 1012.01 1514.61 1010.47C1513.88 1008.92 1512.87 1007.59 1511.58 1006.47C1510.29 1005.35 1508.76 1004.51 1506.98 1003.87C1505.2 1003.24 1503.25 1002.93 1501.16 1002.93H1497.64V1028.28H1501.16V1028.32ZM1515.8 993.527C1511.58 991.353 1506.7 990.265 1501.16 990.265H1497.64H1490.73H1484.32V1041.02H1490.73H1497.64H1501.16C1506.66 1041.02 1511.55 1039.93 1515.8 1037.75C1520.09 1035.58 1523.4 1032.6 1525.8 1028.78C1528.21 1024.95 1529.39 1020.57 1529.39 1015.66C1529.39 1010.68 1528.21 1006.29 1525.8 1002.54C1523.4 998.683 1520.05 995.702 1515.8 993.527ZM1605.29 1014.82L1586.74 1041.02H1602.81L1612.68 1025.93L1622.51 1040.98H1638.58L1620.14 1014.75L1638.02 990.23H1622.09L1612.68 1004.01L1603.23 990.265H1587.3L1605.29 1014.82ZM1670.65 1030.84L1656.95 1011.03V1041.02H1643.63V991.703V990.265H1650.19H1656.95H1658.38L1670.58 1008.4L1682.75 990.265H1684.18H1691.12H1697.53V991.493V1041.02H1684.21V1010.99L1670.65 1030.84ZM1738.25 1032.88L1741.21 1041.02H1755.33L1736.02 990.265H1734.94H1722.77H1721.69L1702.38 1041.02H1716.49L1719.46 1032.88H1738.25ZM1733.96 1021.06L1728.83 1007L1723.71 1021.06H1733.96ZM1765.54 1041.02V1002.58H1751.29V990.265H1793.08V1002.58H1778.9V1041.02H1765.54ZM1798.66 990.265V1041.02H1808.04H1812.01H1833V1028.71H1812.01V1021.59H1828.57V1009.59H1812.01V1002.58H1832.48V990.265H1812.01H1808.04H1798.66Z" fill="#313D4E"/>
<defs>
<radialGradient id="paint0_radial_695_46635" cx="0" cy="0" r="1" gradientUnits="userSpaceOnUse" gradientTransform="translate(960) rotate(90) scale(1080 1920)">
<stop stop-color="#354776"/>
<stop offset="1" stop-color="#130A2D"/>
</radialGradient>
<linearGradient id="paint1_linear_695_46635" x1="564" y1="396.217" x2="1138.45" y2="922.684" gradientUnits="userSpaceOnUse">
<stop stop-color="#F4F7FF"/>
<stop offset="1" stop-color="white"/>
</linearGradient>
<linearGradient id="paint2_linear_695_46635" x1="1461.36" y1="979.492" x2="1394.48" y2="1048.59" gradientUnits="userSpaceOnUse">
<stop stop-color="#7B79FF"/>
<stop offset="1" stop-color="#4240B8"/>
</linearGradient>
<linearGradient id="paint3_linear_695_46635" x1="1470.41" y1="978.711" x2="1425.41" y2="1017.37" gradientUnits="userSpaceOnUse">
<stop stop-color="#7B79FF"/>
<stop offset="1" stop-color="#7B79FF" stop-opacity="0"/>
</linearGradient>
</defs>
</svg>
