<svg width="1920" height="1080" viewBox="0 0 1920 1080" fill="none" xmlns="http://www.w3.org/2000/svg">
<rect width="1920" height="1080" fill="url(#paint0_radial_695_46602)"/>
<g style="mix-blend-mode:overlay" opacity="0.25">
<path fill-rule="evenodd" clip-rule="evenodd" d="M534 968L635.329 349.819C749.68 349.819 836.36 452.713 818.047 565.407L782.643 780.586H861.997C901.878 780.586 937.282 773.645 968.21 759.762C999.544 745.471 1025.59 721.789 1046.75 688.308C1067.91 654.827 1083.37 608.688 1092.73 550.708C1101.69 495.586 1101.28 453.122 1091.92 423.315C1082.56 393.1 1064.66 372.277 1038.2 360.844C1011.75 349.003 977.569 342.878 936.061 342.878L857.521 341.653C697.999 341.653 649.165 217.936 644.689 155.872H969.023C1051.63 155.872 1120.41 172.205 1175.75 206.095C1231.1 239.576 1270.57 287.756 1293.77 349.819C1316.96 412.291 1321.44 486.603 1307.6 572.756C1294.17 655.643 1266.5 726.689 1224.99 785.486C1183.48 844.282 1130.99 889.605 1066.69 920.636C1002.8 951.668 929.957 967.592 848.161 967.592H534V968Z" fill="white"/>
<path fill-rule="evenodd" clip-rule="evenodd" d="M723.637 156.281H968.617C1051.23 156.281 1120 172.613 1175.35 206.503C1230.69 239.984 1270.16 288.165 1293.36 350.228C1316.55 412.699 1321.03 487.011 1307.2 573.165C1293.77 656.052 1266.09 727.097 1224.59 785.894C1199.35 821.417 1170.46 852.04 1136.69 877.764C1136.69 877.764 1136.69 877.764 1137.09 877.764C1201.39 846.732 1254.29 801.41 1295.39 742.613C1336.9 683.817 1364.57 612.771 1378 529.884C1392.25 443.731 1387.36 369.418 1364.17 306.947C1340.97 244.476 1301.5 196.703 1246.15 163.222C1191.22 129.332 1122.44 113 1039.83 113H715.091C715.905 125.658 718.754 140.357 723.637 156.281Z" fill="white" fill-opacity="0.5"/>
</g>
<path d="M558.816 575L538.839 505.182H554.964L566.52 553.693H567.1L579.85 505.182H593.657L606.373 553.795H606.986L618.543 505.182H634.668L614.691 575H600.305L587.009 529.352H586.464L573.202 575H558.816ZM658.41 576.023C653.115 576.023 648.535 574.898 644.672 572.648C640.831 570.375 637.865 567.216 635.774 563.17C633.683 559.102 632.637 554.386 632.637 549.023C632.637 543.614 633.683 538.886 635.774 534.841C637.865 530.773 640.831 527.614 644.672 525.364C648.535 523.091 653.115 521.955 658.41 521.955C663.706 521.955 668.274 523.091 672.115 525.364C675.978 527.614 678.956 530.773 681.047 534.841C683.137 538.886 684.183 543.614 684.183 549.023C684.183 554.386 683.137 559.102 681.047 563.17C678.956 567.216 675.978 570.375 672.115 572.648C668.274 574.898 663.706 576.023 658.41 576.023ZM658.478 564.773C660.887 564.773 662.899 564.091 664.512 562.727C666.126 561.341 667.342 559.455 668.16 557.068C669.001 554.682 669.422 551.966 669.422 548.92C669.422 545.875 669.001 543.159 668.16 540.773C667.342 538.386 666.126 536.5 664.512 535.114C662.899 533.727 660.887 533.034 658.478 533.034C656.047 533.034 654.001 533.727 652.342 535.114C650.706 536.5 649.467 538.386 648.626 540.773C647.808 543.159 647.399 545.875 647.399 548.92C647.399 551.966 647.808 554.682 648.626 557.068C649.467 559.455 650.706 561.341 652.342 562.727C654.001 564.091 656.047 564.773 658.478 564.773ZM691.706 575V522.636H705.786V531.773H706.331C707.286 528.523 708.888 526.068 711.138 524.409C713.388 522.727 715.979 521.886 718.911 521.886C719.638 521.886 720.422 521.932 721.263 522.023C722.104 522.114 722.842 522.239 723.479 522.398V535.284C722.797 535.08 721.854 534.898 720.649 534.739C719.445 534.58 718.342 534.5 717.342 534.5C715.206 534.5 713.297 534.966 711.615 535.898C709.956 536.807 708.638 538.08 707.661 539.716C706.706 541.352 706.229 543.239 706.229 545.375V575H691.706ZM742.226 559.932L742.261 542.511H744.374L761.147 522.636H777.817L755.283 548.955H751.84L742.226 559.932ZM729.067 575V505.182H743.59V575H729.067ZM761.795 575L746.386 552.193L756.067 541.932L778.806 575H761.795ZM811.181 522.636V533.545H778.863V522.636H811.181ZM786.261 575V518.852C786.261 515.057 787 511.909 788.477 509.409C789.977 506.909 792.022 505.034 794.613 503.784C797.204 502.534 800.147 501.909 803.443 501.909C805.67 501.909 807.704 502.08 809.545 502.42C811.409 502.761 812.795 503.068 813.704 503.341L811.113 514.25C810.545 514.068 809.841 513.898 809 513.739C808.181 513.58 807.341 513.5 806.477 513.5C804.341 513.5 802.852 514 802.011 515C801.17 515.977 800.75 517.352 800.75 519.125V575H786.261ZM832.656 505.182V575H818.134V505.182H832.656ZM866.029 576.023C860.733 576.023 856.154 574.898 852.29 572.648C848.449 570.375 845.483 567.216 843.393 563.17C841.302 559.102 840.256 554.386 840.256 549.023C840.256 543.614 841.302 538.886 843.393 534.841C845.483 530.773 848.449 527.614 852.29 525.364C856.154 523.091 860.733 521.955 866.029 521.955C871.324 521.955 875.893 523.091 879.733 525.364C883.597 527.614 886.574 530.773 888.665 534.841C890.756 538.886 891.802 543.614 891.802 549.023C891.802 554.386 890.756 559.102 888.665 563.17C886.574 567.216 883.597 570.375 879.733 572.648C875.893 574.898 871.324 576.023 866.029 576.023ZM866.097 564.773C868.506 564.773 870.518 564.091 872.131 562.727C873.745 561.341 874.961 559.455 875.779 557.068C876.62 554.682 877.04 551.966 877.04 548.92C877.04 545.875 876.62 543.159 875.779 540.773C874.961 538.386 873.745 536.5 872.131 535.114C870.518 533.727 868.506 533.034 866.097 533.034C863.665 533.034 861.62 533.727 859.961 535.114C858.324 536.5 857.086 538.386 856.245 540.773C855.427 543.159 855.018 545.875 855.018 548.92C855.018 551.966 855.427 554.682 856.245 557.068C857.086 559.455 858.324 561.341 859.961 562.727C861.62 564.091 863.665 564.773 866.097 564.773ZM908.342 575L894.092 522.636H908.785L916.899 557.818H917.376L925.83 522.636H940.251L948.842 557.614H949.285L957.262 522.636H971.921L957.705 575H942.33L933.33 542.068H932.683L923.683 575H908.342ZM1059.92 529.625H1044.99C1044.72 527.693 1044.16 525.977 1043.32 524.477C1042.48 522.955 1041.4 521.659 1040.08 520.591C1038.76 519.523 1037.24 518.705 1035.51 518.136C1033.81 517.568 1031.96 517.284 1029.96 517.284C1026.34 517.284 1023.2 518.182 1020.51 519.977C1017.83 521.75 1015.75 524.341 1014.27 527.75C1012.8 531.136 1012.06 535.25 1012.06 540.091C1012.06 545.068 1012.8 549.25 1014.27 552.636C1015.77 556.023 1017.87 558.58 1020.55 560.307C1023.23 562.034 1026.33 562.898 1029.85 562.898C1031.83 562.898 1033.66 562.636 1035.34 562.114C1037.05 561.591 1038.56 560.83 1039.88 559.83C1041.2 558.807 1042.29 557.568 1043.15 556.114C1044.04 554.659 1044.65 553 1044.99 551.136L1059.92 551.205C1059.54 554.409 1058.57 557.5 1057.02 560.477C1055.5 563.432 1053.45 566.08 1050.85 568.42C1048.29 570.739 1045.22 572.58 1041.65 573.943C1038.1 575.284 1034.09 575.955 1029.62 575.955C1023.39 575.955 1017.82 574.545 1012.91 571.727C1008.02 568.909 1004.16 564.83 1001.32 559.489C998.502 554.148 997.093 547.682 997.093 540.091C997.093 532.477 998.525 526 1001.39 520.659C1004.25 515.318 1008.14 511.25 1013.05 508.455C1017.96 505.636 1023.48 504.227 1029.62 504.227C1033.66 504.227 1037.41 504.795 1040.87 505.932C1044.34 507.068 1047.42 508.727 1050.1 510.909C1052.79 513.068 1054.97 515.716 1056.65 518.852C1058.35 521.989 1059.45 525.58 1059.92 529.625ZM1068.31 575V522.636H1082.39V531.773H1082.94C1083.89 528.523 1085.5 526.068 1087.75 524.409C1090 522.727 1092.59 521.886 1095.52 521.886C1096.25 521.886 1097.03 521.932 1097.87 522.023C1098.71 522.114 1099.45 522.239 1100.09 522.398V535.284C1099.41 535.08 1098.46 534.898 1097.26 534.739C1096.05 534.58 1094.95 534.5 1093.95 534.5C1091.81 534.5 1089.91 534.966 1088.22 535.898C1086.56 536.807 1085.25 538.08 1084.27 539.716C1083.31 541.352 1082.84 543.239 1082.84 545.375V575H1068.31ZM1127.1 576.023C1121.72 576.023 1117.08 574.932 1113.19 572.75C1109.33 570.545 1106.35 567.432 1104.26 563.409C1102.17 559.364 1101.12 554.58 1101.12 549.057C1101.12 543.67 1102.17 538.943 1104.26 534.875C1106.35 530.807 1109.3 527.636 1113.09 525.364C1116.91 523.091 1121.39 521.955 1126.52 521.955C1129.98 521.955 1133.19 522.511 1136.17 523.625C1139.17 524.716 1141.78 526.364 1144.01 528.568C1146.26 530.773 1148.01 533.545 1149.26 536.886C1150.51 540.205 1151.14 544.091 1151.14 548.545V552.534H1106.92V543.534H1137.47C1137.47 541.443 1137.01 539.591 1136.1 537.977C1135.19 536.364 1133.93 535.102 1132.32 534.193C1130.73 533.261 1128.87 532.795 1126.76 532.795C1124.56 532.795 1122.6 533.307 1120.9 534.33C1119.22 535.33 1117.9 536.682 1116.94 538.386C1115.99 540.068 1115.5 541.943 1115.48 544.011V552.568C1115.48 555.159 1115.95 557.398 1116.91 559.284C1117.89 561.17 1119.26 562.625 1121.03 563.648C1122.81 564.67 1124.91 565.182 1127.34 565.182C1128.95 565.182 1130.43 564.955 1131.77 564.5C1133.11 564.045 1134.26 563.364 1135.22 562.455C1136.17 561.545 1136.9 560.432 1137.4 559.114L1150.83 560C1150.15 563.227 1148.75 566.045 1146.64 568.455C1144.55 570.841 1141.84 572.705 1138.52 574.045C1135.23 575.364 1131.42 576.023 1127.1 576.023ZM1173.63 575.989C1170.28 575.989 1167.31 575.409 1164.69 574.25C1162.08 573.068 1160.01 571.33 1158.49 569.034C1156.99 566.716 1156.24 563.83 1156.24 560.375C1156.24 557.466 1156.77 555.023 1157.84 553.045C1158.91 551.068 1160.36 549.477 1162.2 548.273C1164.05 547.068 1166.14 546.159 1168.48 545.545C1170.84 544.932 1173.32 544.5 1175.91 544.25C1178.95 543.932 1181.41 543.636 1183.27 543.364C1185.14 543.068 1186.49 542.636 1187.33 542.068C1188.17 541.5 1188.59 540.659 1188.59 539.545V539.341C1188.59 537.182 1187.91 535.511 1186.55 534.33C1185.2 533.148 1183.3 532.557 1180.82 532.557C1178.2 532.557 1176.13 533.136 1174.58 534.295C1173.03 535.432 1172.01 536.864 1171.51 538.591L1158.08 537.5C1158.76 534.318 1160.1 531.568 1162.1 529.25C1164.1 526.909 1166.68 525.114 1169.84 523.864C1173.02 522.591 1176.7 521.955 1180.89 521.955C1183.8 521.955 1186.58 522.295 1189.24 522.977C1191.92 523.659 1194.3 524.716 1196.36 526.148C1198.45 527.58 1200.1 529.42 1201.31 531.67C1202.51 533.898 1203.11 536.568 1203.11 539.682V575H1189.34V567.739H1188.93C1188.09 569.375 1186.97 570.818 1185.56 572.068C1184.15 573.295 1182.45 574.261 1180.48 574.966C1178.5 575.648 1176.22 575.989 1173.63 575.989ZM1177.78 565.966C1179.92 565.966 1181.81 565.545 1183.44 564.705C1185.08 563.841 1186.36 562.682 1187.3 561.227C1188.23 559.773 1188.69 558.125 1188.69 556.284V550.727C1188.24 551.023 1187.61 551.295 1186.82 551.545C1186.05 551.773 1185.17 551.989 1184.19 552.193C1183.22 552.375 1182.24 552.545 1181.26 552.705C1180.28 552.841 1179.4 552.966 1178.6 553.08C1176.9 553.33 1175.41 553.727 1174.14 554.273C1172.86 554.818 1171.88 555.557 1171.17 556.489C1170.47 557.398 1170.11 558.534 1170.11 559.898C1170.11 561.875 1170.83 563.386 1172.26 564.432C1173.72 565.455 1175.56 565.966 1177.78 565.966ZM1240.31 522.636V533.545H1208.78V522.636H1240.31ZM1215.94 510.091H1230.46V558.909C1230.46 560.25 1230.67 561.295 1231.07 562.045C1231.48 562.773 1232.05 563.284 1232.78 563.58C1233.53 563.875 1234.39 564.023 1235.37 564.023C1236.05 564.023 1236.73 563.966 1237.42 563.852C1238.1 563.716 1238.62 563.614 1238.98 563.545L1241.27 574.352C1240.54 574.58 1239.52 574.841 1238.2 575.136C1236.88 575.455 1235.28 575.648 1233.39 575.716C1229.89 575.852 1226.82 575.386 1224.19 574.318C1221.57 573.25 1219.54 571.591 1218.09 569.341C1216.63 567.091 1215.92 564.25 1215.94 560.818V510.091ZM1247.85 575V522.636H1262.38V575H1247.85ZM1255.15 515.886C1252.99 515.886 1251.14 515.17 1249.59 513.739C1248.07 512.284 1247.31 510.545 1247.31 508.523C1247.31 506.523 1248.07 504.807 1249.59 503.375C1251.14 501.92 1252.99 501.193 1255.15 501.193C1257.31 501.193 1259.15 501.92 1260.67 503.375C1262.22 504.807 1262.99 506.523 1262.99 508.523C1262.99 510.545 1262.22 512.284 1260.67 513.739C1259.15 515.17 1257.31 515.886 1255.15 515.886ZM1295.75 576.023C1290.45 576.023 1285.87 574.898 1282.01 572.648C1278.17 570.375 1275.2 567.216 1273.11 563.17C1271.02 559.102 1269.98 554.386 1269.98 549.023C1269.98 543.614 1271.02 538.886 1273.11 534.841C1275.2 530.773 1278.17 527.614 1282.01 525.364C1285.87 523.091 1290.45 521.955 1295.75 521.955C1301.04 521.955 1305.61 523.091 1309.45 525.364C1313.32 527.614 1316.29 530.773 1318.39 534.841C1320.48 538.886 1321.52 543.614 1321.52 549.023C1321.52 554.386 1320.48 559.102 1318.39 563.17C1316.29 567.216 1313.32 570.375 1309.45 572.648C1305.61 574.898 1301.04 576.023 1295.75 576.023ZM1295.82 564.773C1298.23 564.773 1300.24 564.091 1301.85 562.727C1303.46 561.341 1304.68 559.455 1305.5 557.068C1306.34 554.682 1306.76 551.966 1306.76 548.92C1306.76 545.875 1306.34 543.159 1305.5 540.773C1304.68 538.386 1303.46 536.5 1301.85 535.114C1300.24 533.727 1298.23 533.034 1295.82 533.034C1293.39 533.034 1291.34 533.727 1289.68 535.114C1288.04 536.5 1286.81 538.386 1285.96 540.773C1285.15 543.159 1284.74 545.875 1284.74 548.92C1284.74 551.966 1285.15 554.682 1285.96 557.068C1286.81 559.455 1288.04 561.341 1289.68 562.727C1291.34 564.091 1293.39 564.773 1295.82 564.773ZM1343.57 544.727V575H1329.04V522.636H1342.89V531.875H1343.5C1344.66 528.83 1346.6 526.42 1349.33 524.648C1352.06 522.852 1355.36 521.955 1359.25 521.955C1362.89 521.955 1366.06 522.75 1368.76 524.341C1371.47 525.932 1373.57 528.205 1375.07 531.159C1376.57 534.091 1377.32 537.591 1377.32 541.659V575H1362.79V544.25C1362.82 541.045 1362 538.545 1360.34 536.75C1358.68 534.932 1356.4 534.023 1353.49 534.023C1351.53 534.023 1349.81 534.443 1348.31 535.284C1346.83 536.125 1345.67 537.352 1344.83 538.966C1344.01 540.557 1343.59 542.477 1343.57 544.727Z" fill="url(#paint1_linear_695_46602)"/>
<path fill-rule="evenodd" clip-rule="evenodd" d="M1920 888V952V1080H1311H1247L1248 1079.98C1282.95 1079.44 1311 1050.95 1311 1016C1311 980.652 1339.65 952 1375 952H1854.99C1890.5 952 1919.45 923.507 1920 888Z" fill="white"/>
<path fill-rule="evenodd" clip-rule="evenodd" d="M1398 1052L1406.65 999.22C1416.4 999.22 1423.8 1008 1422.23 1017.63L1419.21 1036H1425.98C1429.39 1036 1432.41 1035.41 1435.05 1034.22C1437.72 1033 1439.94 1030.98 1441.75 1028.12C1443.55 1025.26 1444.87 1021.32 1445.67 1016.37C1446.43 1011.67 1446.4 1008.04 1445.6 1005.49C1444.8 1002.91 1443.27 1001.14 1441.02 1000.16C1438.76 999.15 1435.84 998.627 1432.3 998.627L1425.6 998.522C1411.99 998.522 1407.83 987.959 1407.44 982.66H1435.11C1442.16 982.66 1448.03 984.055 1452.75 986.948C1457.47 989.807 1460.84 993.921 1462.82 999.22C1464.8 1004.55 1465.18 1010.9 1464 1018.25C1462.85 1025.33 1460.49 1031.4 1456.95 1036.42C1453.41 1041.44 1448.93 1045.31 1443.45 1047.96C1438 1050.61 1431.78 1051.97 1424.8 1051.97H1398V1052Z" fill="url(#paint2_linear_695_46602)"/>
<path fill-rule="evenodd" clip-rule="evenodd" d="M1414.18 982.695H1435.08C1442.13 982.695 1448 984.09 1452.72 986.983C1457.44 989.842 1460.81 993.956 1462.79 999.255C1464.76 1004.59 1465.15 1010.93 1463.97 1018.29C1462.82 1025.37 1460.46 1031.43 1456.92 1036.45C1454.77 1039.48 1452.3 1042.1 1449.42 1044.3C1449.42 1044.3 1449.42 1044.3 1449.45 1044.3C1454.94 1041.65 1459.45 1037.78 1462.96 1032.76C1466.5 1027.74 1468.86 1021.67 1470.01 1014.59C1471.22 1007.24 1470.81 1000.89 1468.83 995.559C1466.85 990.225 1463.48 986.147 1458.76 983.288C1454.07 980.394 1448.2 979 1441.16 979H1413.45C1413.52 980.081 1413.76 981.336 1414.18 982.695Z" fill="url(#paint3_linear_695_46602)"/>
<path fill-rule="evenodd" clip-rule="evenodd" d="M1560.04 1041.86C1554.74 1041.86 1550.07 1040.74 1545.99 1038.53C1541.94 1036.25 1538.77 1033.16 1536.47 1029.23C1534.17 1025.27 1533.02 1020.74 1533.02 1015.66C1533.02 1010.54 1534.17 1006.01 1536.47 1002.08C1538.77 998.122 1541.94 995.035 1545.99 992.791C1550.03 990.511 1554.67 989.389 1559.9 989.389C1565.2 989.389 1569.83 990.511 1573.88 992.791C1577.92 995 1581.09 998.122 1583.39 1002.08C1585.69 1006.01 1586.85 1010.5 1586.85 1015.66C1586.85 1020.74 1585.69 1025.27 1583.39 1029.23C1581.13 1033.16 1577.99 1036.25 1573.95 1038.53C1569.9 1040.77 1565.27 1041.86 1560.04 1041.86ZM1560.04 1029.55C1562.62 1029.55 1564.92 1028.95 1566.87 1027.79C1568.86 1026.6 1570.39 1024.95 1571.47 1022.85C1572.59 1020.78 1573.14 1018.39 1573.14 1015.66C1573.14 1012.96 1572.55 1010.57 1571.4 1008.47C1570.29 1006.33 1568.75 1004.72 1566.73 1003.52C1564.78 1002.33 1562.48 1001.7 1559.9 1001.7C1557.35 1001.7 1555.09 1002.3 1553.06 1003.52C1551.11 1004.68 1549.54 1006.33 1548.39 1008.47C1547.28 1010.54 1546.72 1012.92 1546.72 1015.66C1546.72 1018.36 1547.31 1020.74 1548.46 1022.85C1549.61 1024.92 1551.18 1026.57 1553.13 1027.79C1555.12 1028.95 1557.42 1029.55 1560.04 1029.55ZM1501.16 1028.32C1503.28 1028.32 1505.2 1028 1506.98 1027.37C1508.76 1026.74 1510.29 1025.86 1511.58 1024.78C1512.87 1023.65 1513.88 1022.32 1514.61 1020.78C1515.34 1019.24 1515.69 1017.52 1515.69 1015.62C1515.69 1013.73 1515.34 1012.01 1514.61 1010.47C1513.88 1008.92 1512.87 1007.59 1511.58 1006.47C1510.29 1005.35 1508.76 1004.51 1506.98 1003.87C1505.2 1003.24 1503.25 1002.93 1501.16 1002.93H1497.64V1028.28H1501.16V1028.32ZM1515.8 993.527C1511.58 991.353 1506.7 990.265 1501.16 990.265H1497.64H1490.73H1484.32V1041.02H1490.73H1497.64H1501.16C1506.66 1041.02 1511.55 1039.93 1515.8 1037.75C1520.09 1035.58 1523.4 1032.6 1525.8 1028.78C1528.21 1024.95 1529.39 1020.57 1529.39 1015.66C1529.39 1010.68 1528.21 1006.29 1525.8 1002.54C1523.4 998.683 1520.05 995.702 1515.8 993.527ZM1605.29 1014.82L1586.74 1041.02H1602.81L1612.68 1025.93L1622.51 1040.98H1638.58L1620.14 1014.75L1638.02 990.23H1622.09L1612.68 1004.01L1603.23 990.265H1587.3L1605.29 1014.82ZM1670.65 1030.84L1656.95 1011.03V1041.02H1643.63V991.703V990.265H1650.19H1656.95H1658.38L1670.58 1008.4L1682.75 990.265H1684.18H1691.12H1697.53V991.493V1041.02H1684.21V1010.99L1670.65 1030.84ZM1738.25 1032.88L1741.21 1041.02H1755.33L1736.02 990.265H1734.94H1722.77H1721.69L1702.38 1041.02H1716.49L1719.46 1032.88H1738.25ZM1733.96 1021.06L1728.83 1007L1723.71 1021.06H1733.96ZM1765.54 1041.02V1002.58H1751.29V990.265H1793.08V1002.58H1778.9V1041.02H1765.54ZM1798.66 990.265V1041.02H1808.04H1812.01H1833V1028.71H1812.01V1021.59H1828.57V1009.59H1812.01V1002.58H1832.48V990.265H1812.01H1808.04H1798.66Z" fill="#313D4E"/>
<defs>
<radialGradient id="paint0_radial_695_46602" cx="0" cy="0" r="1" gradientUnits="userSpaceOnUse" gradientTransform="translate(960) rotate(90) scale(1080 1920)">
<stop stop-color="#354776"/>
<stop offset="1" stop-color="#130A2D"/>
</radialGradient>
<linearGradient id="paint1_linear_695_46602" x1="537" y1="468.109" x2="770.757" y2="925.206" gradientUnits="userSpaceOnUse">
<stop stop-color="#F4F7FF"/>
<stop offset="1" stop-color="white"/>
</linearGradient>
<linearGradient id="paint2_linear_695_46602" x1="1461.36" y1="979.492" x2="1394.48" y2="1048.59" gradientUnits="userSpaceOnUse">
<stop stop-color="#7B79FF"/>
<stop offset="1" stop-color="#4240B8"/>
</linearGradient>
<linearGradient id="paint3_linear_695_46602" x1="1470.41" y1="978.711" x2="1425.41" y2="1017.37" gradientUnits="userSpaceOnUse">
<stop stop-color="#7B79FF"/>
<stop offset="1" stop-color="#7B79FF" stop-opacity="0"/>
</linearGradient>
</defs>
</svg>
