<svg width="1920" height="1080" viewBox="0 0 1920 1080" fill="none" xmlns="http://www.w3.org/2000/svg">
<rect width="1920" height="1080" fill="url(#paint0_radial_695_46610)"/>
<g style="mix-blend-mode:overlay" opacity="0.25">
<path fill-rule="evenodd" clip-rule="evenodd" d="M537 964L637.616 350.881C751.162 350.881 837.23 452.932 819.047 564.703L783.892 778.12H862.687C902.287 778.12 937.442 771.236 968.152 757.467C999.266 743.293 1025.13 719.805 1046.14 686.598C1067.15 653.391 1082.51 607.629 1091.8 550.124C1100.69 495.454 1100.29 453.337 1090.99 423.775C1081.7 393.807 1063.92 373.154 1037.65 361.815C1011.39 350.071 977.446 343.996 936.23 343.996L858.242 342.781C699.844 342.781 651.354 220.076 646.909 158.521H968.96C1050.99 158.521 1119.28 174.72 1174.23 208.332C1229.19 241.54 1268.38 289.326 1291.41 350.881C1314.45 412.84 1318.89 486.544 1305.15 571.992C1291.82 654.201 1264.34 724.665 1223.13 782.98C1181.91 841.295 1129.78 886.246 1065.94 917.024C1002.5 947.801 930.168 963.595 848.949 963.595H537V964Z" fill="white"/>
<path fill-rule="evenodd" clip-rule="evenodd" d="M725.302 158.926H968.557C1050.58 158.926 1118.87 175.125 1173.83 208.737C1228.78 241.945 1267.98 289.731 1291.01 351.286C1314.04 413.245 1318.49 486.949 1304.75 572.397C1291.42 654.605 1263.94 725.07 1222.72 783.385C1197.67 818.617 1168.98 848.989 1135.44 874.502C1135.44 874.502 1135.44 874.502 1135.85 874.502C1199.69 843.725 1252.22 798.774 1293.03 740.458C1334.25 682.143 1361.73 611.679 1375.06 529.471C1389.2 444.023 1384.35 370.319 1361.32 308.359C1338.29 246.399 1299.09 199.018 1244.14 165.811C1189.59 132.199 1121.3 116 1039.27 116H716.816C717.624 128.554 720.453 143.133 725.302 158.926Z" fill="white" fill-opacity="0.5"/>
</g>
<path d="M558.816 503L538.839 433.182H554.964L566.52 481.693H567.1L579.85 433.182H593.657L606.373 481.795H606.986L618.543 433.182H634.668L614.691 503H600.305L587.009 457.352H586.464L573.202 503H558.816ZM658.41 504.023C653.115 504.023 648.535 502.898 644.672 500.648C640.831 498.375 637.865 495.216 635.774 491.17C633.683 487.102 632.637 482.386 632.637 477.023C632.637 471.614 633.683 466.886 635.774 462.841C637.865 458.773 640.831 455.614 644.672 453.364C648.535 451.091 653.115 449.955 658.41 449.955C663.706 449.955 668.274 451.091 672.115 453.364C675.978 455.614 678.956 458.773 681.047 462.841C683.137 466.886 684.183 471.614 684.183 477.023C684.183 482.386 683.137 487.102 681.047 491.17C678.956 495.216 675.978 498.375 672.115 500.648C668.274 502.898 663.706 504.023 658.41 504.023ZM658.478 492.773C660.887 492.773 662.899 492.091 664.512 490.727C666.126 489.341 667.342 487.455 668.16 485.068C669.001 482.682 669.422 479.966 669.422 476.92C669.422 473.875 669.001 471.159 668.16 468.773C667.342 466.386 666.126 464.5 664.512 463.114C662.899 461.727 660.887 461.034 658.478 461.034C656.047 461.034 654.001 461.727 652.342 463.114C650.706 464.5 649.467 466.386 648.626 468.773C647.808 471.159 647.399 473.875 647.399 476.92C647.399 479.966 647.808 482.682 648.626 485.068C649.467 487.455 650.706 489.341 652.342 490.727C654.001 492.091 656.047 492.773 658.478 492.773ZM691.706 503V450.636H705.786V459.773H706.331C707.286 456.523 708.888 454.068 711.138 452.409C713.388 450.727 715.979 449.886 718.911 449.886C719.638 449.886 720.422 449.932 721.263 450.023C722.104 450.114 722.842 450.239 723.479 450.398V463.284C722.797 463.08 721.854 462.898 720.649 462.739C719.445 462.58 718.342 462.5 717.342 462.5C715.206 462.5 713.297 462.966 711.615 463.898C709.956 464.807 708.638 466.08 707.661 467.716C706.706 469.352 706.229 471.239 706.229 473.375V503H691.706ZM742.226 487.932L742.261 470.511H744.374L761.147 450.636H777.817L755.283 476.955H751.84L742.226 487.932ZM729.067 503V433.182H743.59V503H729.067ZM761.795 503L746.386 480.193L756.067 469.932L778.806 503H761.795ZM811.181 450.636V461.545H778.863V450.636H811.181ZM786.261 503V446.852C786.261 443.057 787 439.909 788.477 437.409C789.977 434.909 792.022 433.034 794.613 431.784C797.204 430.534 800.147 429.909 803.443 429.909C805.67 429.909 807.704 430.08 809.545 430.42C811.409 430.761 812.795 431.068 813.704 431.341L811.113 442.25C810.545 442.068 809.841 441.898 809 441.739C808.181 441.58 807.341 441.5 806.477 441.5C804.341 441.5 802.852 442 802.011 443C801.17 443.977 800.75 445.352 800.75 447.125V503H786.261ZM832.656 433.182V503H818.134V433.182H832.656ZM866.029 504.023C860.733 504.023 856.154 502.898 852.29 500.648C848.449 498.375 845.483 495.216 843.393 491.17C841.302 487.102 840.256 482.386 840.256 477.023C840.256 471.614 841.302 466.886 843.393 462.841C845.483 458.773 848.449 455.614 852.29 453.364C856.154 451.091 860.733 449.955 866.029 449.955C871.324 449.955 875.893 451.091 879.733 453.364C883.597 455.614 886.574 458.773 888.665 462.841C890.756 466.886 891.802 471.614 891.802 477.023C891.802 482.386 890.756 487.102 888.665 491.17C886.574 495.216 883.597 498.375 879.733 500.648C875.893 502.898 871.324 504.023 866.029 504.023ZM866.097 492.773C868.506 492.773 870.518 492.091 872.131 490.727C873.745 489.341 874.961 487.455 875.779 485.068C876.62 482.682 877.04 479.966 877.04 476.92C877.04 473.875 876.62 471.159 875.779 468.773C874.961 466.386 873.745 464.5 872.131 463.114C870.518 461.727 868.506 461.034 866.097 461.034C863.665 461.034 861.62 461.727 859.961 463.114C858.324 464.5 857.086 466.386 856.245 468.773C855.427 471.159 855.018 473.875 855.018 476.92C855.018 479.966 855.427 482.682 856.245 485.068C857.086 487.455 858.324 489.341 859.961 490.727C861.62 492.091 863.665 492.773 866.097 492.773ZM908.342 503L894.092 450.636H908.785L916.899 485.818H917.376L925.83 450.636H940.251L948.842 485.614H949.285L957.262 450.636H971.921L957.705 503H942.33L933.33 470.068H932.683L923.683 503H908.342ZM1059.92 457.625H1044.99C1044.72 455.693 1044.16 453.977 1043.32 452.477C1042.48 450.955 1041.4 449.659 1040.08 448.591C1038.76 447.523 1037.24 446.705 1035.51 446.136C1033.81 445.568 1031.96 445.284 1029.96 445.284C1026.34 445.284 1023.2 446.182 1020.51 447.977C1017.83 449.75 1015.75 452.341 1014.27 455.75C1012.8 459.136 1012.06 463.25 1012.06 468.091C1012.06 473.068 1012.8 477.25 1014.27 480.636C1015.77 484.023 1017.87 486.58 1020.55 488.307C1023.23 490.034 1026.33 490.898 1029.85 490.898C1031.83 490.898 1033.66 490.636 1035.34 490.114C1037.05 489.591 1038.56 488.83 1039.88 487.83C1041.2 486.807 1042.29 485.568 1043.15 484.114C1044.04 482.659 1044.65 481 1044.99 479.136L1059.92 479.205C1059.54 482.409 1058.57 485.5 1057.02 488.477C1055.5 491.432 1053.45 494.08 1050.85 496.42C1048.29 498.739 1045.22 500.58 1041.65 501.943C1038.1 503.284 1034.09 503.955 1029.62 503.955C1023.39 503.955 1017.82 502.545 1012.91 499.727C1008.02 496.909 1004.16 492.83 1001.32 487.489C998.502 482.148 997.093 475.682 997.093 468.091C997.093 460.477 998.525 454 1001.39 448.659C1004.25 443.318 1008.14 439.25 1013.05 436.455C1017.96 433.636 1023.48 432.227 1029.62 432.227C1033.66 432.227 1037.41 432.795 1040.87 433.932C1044.34 435.068 1047.42 436.727 1050.1 438.909C1052.79 441.068 1054.97 443.716 1056.65 446.852C1058.35 449.989 1059.45 453.58 1059.92 457.625ZM1068.31 503V450.636H1082.39V459.773H1082.94C1083.89 456.523 1085.5 454.068 1087.75 452.409C1090 450.727 1092.59 449.886 1095.52 449.886C1096.25 449.886 1097.03 449.932 1097.87 450.023C1098.71 450.114 1099.45 450.239 1100.09 450.398V463.284C1099.41 463.08 1098.46 462.898 1097.26 462.739C1096.05 462.58 1094.95 462.5 1093.95 462.5C1091.81 462.5 1089.91 462.966 1088.22 463.898C1086.56 464.807 1085.25 466.08 1084.27 467.716C1083.31 469.352 1082.84 471.239 1082.84 473.375V503H1068.31ZM1127.1 504.023C1121.72 504.023 1117.08 502.932 1113.19 500.75C1109.33 498.545 1106.35 495.432 1104.26 491.409C1102.17 487.364 1101.12 482.58 1101.12 477.057C1101.12 471.67 1102.17 466.943 1104.26 462.875C1106.35 458.807 1109.3 455.636 1113.09 453.364C1116.91 451.091 1121.39 449.955 1126.52 449.955C1129.98 449.955 1133.19 450.511 1136.17 451.625C1139.17 452.716 1141.78 454.364 1144.01 456.568C1146.26 458.773 1148.01 461.545 1149.26 464.886C1150.51 468.205 1151.14 472.091 1151.14 476.545V480.534H1106.92V471.534H1137.47C1137.47 469.443 1137.01 467.591 1136.1 465.977C1135.19 464.364 1133.93 463.102 1132.32 462.193C1130.73 461.261 1128.87 460.795 1126.76 460.795C1124.56 460.795 1122.6 461.307 1120.9 462.33C1119.22 463.33 1117.9 464.682 1116.94 466.386C1115.99 468.068 1115.5 469.943 1115.48 472.011V480.568C1115.48 483.159 1115.95 485.398 1116.91 487.284C1117.89 489.17 1119.26 490.625 1121.03 491.648C1122.81 492.67 1124.91 493.182 1127.34 493.182C1128.95 493.182 1130.43 492.955 1131.77 492.5C1133.11 492.045 1134.26 491.364 1135.22 490.455C1136.17 489.545 1136.9 488.432 1137.4 487.114L1150.83 488C1150.15 491.227 1148.75 494.045 1146.64 496.455C1144.55 498.841 1141.84 500.705 1138.52 502.045C1135.23 503.364 1131.42 504.023 1127.1 504.023ZM1173.63 503.989C1170.28 503.989 1167.31 503.409 1164.69 502.25C1162.08 501.068 1160.01 499.33 1158.49 497.034C1156.99 494.716 1156.24 491.83 1156.24 488.375C1156.24 485.466 1156.77 483.023 1157.84 481.045C1158.91 479.068 1160.36 477.477 1162.2 476.273C1164.05 475.068 1166.14 474.159 1168.48 473.545C1170.84 472.932 1173.32 472.5 1175.91 472.25C1178.95 471.932 1181.41 471.636 1183.27 471.364C1185.14 471.068 1186.49 470.636 1187.33 470.068C1188.17 469.5 1188.59 468.659 1188.59 467.545V467.341C1188.59 465.182 1187.91 463.511 1186.55 462.33C1185.2 461.148 1183.3 460.557 1180.82 460.557C1178.2 460.557 1176.13 461.136 1174.58 462.295C1173.03 463.432 1172.01 464.864 1171.51 466.591L1158.08 465.5C1158.76 462.318 1160.1 459.568 1162.1 457.25C1164.1 454.909 1166.68 453.114 1169.84 451.864C1173.02 450.591 1176.7 449.955 1180.89 449.955C1183.8 449.955 1186.58 450.295 1189.24 450.977C1191.92 451.659 1194.3 452.716 1196.36 454.148C1198.45 455.58 1200.1 457.42 1201.31 459.67C1202.51 461.898 1203.11 464.568 1203.11 467.682V503H1189.34V495.739H1188.93C1188.09 497.375 1186.97 498.818 1185.56 500.068C1184.15 501.295 1182.45 502.261 1180.48 502.966C1178.5 503.648 1176.22 503.989 1173.63 503.989ZM1177.78 493.966C1179.92 493.966 1181.81 493.545 1183.44 492.705C1185.08 491.841 1186.36 490.682 1187.3 489.227C1188.23 487.773 1188.69 486.125 1188.69 484.284V478.727C1188.24 479.023 1187.61 479.295 1186.82 479.545C1186.05 479.773 1185.17 479.989 1184.19 480.193C1183.22 480.375 1182.24 480.545 1181.26 480.705C1180.28 480.841 1179.4 480.966 1178.6 481.08C1176.9 481.33 1175.41 481.727 1174.14 482.273C1172.86 482.818 1171.88 483.557 1171.17 484.489C1170.47 485.398 1170.11 486.534 1170.11 487.898C1170.11 489.875 1170.83 491.386 1172.26 492.432C1173.72 493.455 1175.56 493.966 1177.78 493.966ZM1240.31 450.636V461.545H1208.78V450.636H1240.31ZM1215.94 438.091H1230.46V486.909C1230.46 488.25 1230.67 489.295 1231.07 490.045C1231.48 490.773 1232.05 491.284 1232.78 491.58C1233.53 491.875 1234.39 492.023 1235.37 492.023C1236.05 492.023 1236.73 491.966 1237.42 491.852C1238.1 491.716 1238.62 491.614 1238.98 491.545L1241.27 502.352C1240.54 502.58 1239.52 502.841 1238.2 503.136C1236.88 503.455 1235.28 503.648 1233.39 503.716C1229.89 503.852 1226.82 503.386 1224.19 502.318C1221.57 501.25 1219.54 499.591 1218.09 497.341C1216.63 495.091 1215.92 492.25 1215.94 488.818V438.091ZM1247.85 503V450.636H1262.38V503H1247.85ZM1255.15 443.886C1252.99 443.886 1251.14 443.17 1249.59 441.739C1248.07 440.284 1247.31 438.545 1247.31 436.523C1247.31 434.523 1248.07 432.807 1249.59 431.375C1251.14 429.92 1252.99 429.193 1255.15 429.193C1257.31 429.193 1259.15 429.92 1260.67 431.375C1262.22 432.807 1262.99 434.523 1262.99 436.523C1262.99 438.545 1262.22 440.284 1260.67 441.739C1259.15 443.17 1257.31 443.886 1255.15 443.886ZM1295.75 504.023C1290.45 504.023 1285.87 502.898 1282.01 500.648C1278.17 498.375 1275.2 495.216 1273.11 491.17C1271.02 487.102 1269.98 482.386 1269.98 477.023C1269.98 471.614 1271.02 466.886 1273.11 462.841C1275.2 458.773 1278.17 455.614 1282.01 453.364C1285.87 451.091 1290.45 449.955 1295.75 449.955C1301.04 449.955 1305.61 451.091 1309.45 453.364C1313.32 455.614 1316.29 458.773 1318.39 462.841C1320.48 466.886 1321.52 471.614 1321.52 477.023C1321.52 482.386 1320.48 487.102 1318.39 491.17C1316.29 495.216 1313.32 498.375 1309.45 500.648C1305.61 502.898 1301.04 504.023 1295.75 504.023ZM1295.82 492.773C1298.23 492.773 1300.24 492.091 1301.85 490.727C1303.46 489.341 1304.68 487.455 1305.5 485.068C1306.34 482.682 1306.76 479.966 1306.76 476.92C1306.76 473.875 1306.34 471.159 1305.5 468.773C1304.68 466.386 1303.46 464.5 1301.85 463.114C1300.24 461.727 1298.23 461.034 1295.82 461.034C1293.39 461.034 1291.34 461.727 1289.68 463.114C1288.04 464.5 1286.81 466.386 1285.96 468.773C1285.15 471.159 1284.74 473.875 1284.74 476.92C1284.74 479.966 1285.15 482.682 1285.96 485.068C1286.81 487.455 1288.04 489.341 1289.68 490.727C1291.34 492.091 1293.39 492.773 1295.82 492.773ZM1343.57 472.727V503H1329.04V450.636H1342.89V459.875H1343.5C1344.66 456.83 1346.6 454.42 1349.33 452.648C1352.06 450.852 1355.36 449.955 1359.25 449.955C1362.89 449.955 1366.06 450.75 1368.76 452.341C1371.47 453.932 1373.57 456.205 1375.07 459.159C1376.57 462.091 1377.32 465.591 1377.32 469.659V503H1362.79V472.25C1362.82 469.045 1362 466.545 1360.34 464.75C1358.68 462.932 1356.4 462.023 1353.49 462.023C1351.53 462.023 1349.81 462.443 1348.31 463.284C1346.83 464.125 1345.67 465.352 1344.83 466.966C1344.01 468.557 1343.59 470.477 1343.57 472.727ZM644.402 647L630.152 594.636H644.845L652.959 629.818H653.436L661.891 594.636H676.311L684.902 629.614H685.345L693.322 594.636H707.981L693.766 647H678.391L669.391 614.068H668.743L659.743 647H644.402ZM713.809 647V594.636H728.331V647H713.809ZM721.104 587.886C718.945 587.886 717.093 587.17 715.547 585.739C714.025 584.284 713.263 582.545 713.263 580.523C713.263 578.523 714.025 576.807 715.547 575.375C717.093 573.92 718.945 573.193 721.104 573.193C723.263 573.193 725.104 573.92 726.627 575.375C728.172 576.807 728.945 578.523 728.945 580.523C728.945 582.545 728.172 584.284 726.627 585.739C725.104 587.17 723.263 587.886 721.104 587.886ZM765.897 594.636V605.545H734.363V594.636H765.897ZM741.522 582.091H756.045V630.909C756.045 632.25 756.249 633.295 756.658 634.045C757.068 634.773 757.636 635.284 758.363 635.58C759.113 635.875 759.977 636.023 760.954 636.023C761.636 636.023 762.318 635.966 762.999 635.852C763.681 635.716 764.204 635.614 764.568 635.545L766.852 646.352C766.124 646.58 765.102 646.841 763.783 647.136C762.465 647.455 760.863 647.648 758.977 647.716C755.477 647.852 752.408 647.386 749.772 646.318C747.158 645.25 745.124 643.591 743.67 641.341C742.215 639.091 741.499 636.25 741.522 632.818V582.091ZM789.085 616.727V647H774.562V577.182H788.676V603.875H789.29C790.471 600.784 792.381 598.364 795.017 596.614C797.653 594.841 800.96 593.955 804.937 593.955C808.574 593.955 811.744 594.75 814.449 596.341C817.176 597.909 819.29 600.17 820.79 603.125C822.312 606.057 823.062 609.568 823.04 613.659V647H808.517V616.25C808.54 613.023 807.721 610.511 806.062 608.716C804.426 606.92 802.131 606.023 799.176 606.023C797.199 606.023 795.449 606.443 793.926 607.284C792.426 608.125 791.244 609.352 790.381 610.966C789.54 612.557 789.108 614.477 789.085 616.727ZM914.722 601.625H899.791C899.518 599.693 898.961 597.977 898.12 596.477C897.279 594.955 896.2 593.659 894.881 592.591C893.563 591.523 892.041 590.705 890.313 590.136C888.609 589.568 886.756 589.284 884.756 589.284C881.143 589.284 877.995 590.182 875.313 591.977C872.631 593.75 870.552 596.341 869.075 599.75C867.597 603.136 866.859 607.25 866.859 612.091C866.859 617.068 867.597 621.25 869.075 624.636C870.575 628.023 872.666 630.58 875.347 632.307C878.029 634.034 881.131 634.898 884.654 634.898C886.631 634.898 888.461 634.636 890.143 634.114C891.847 633.591 893.359 632.83 894.677 631.83C895.995 630.807 897.086 629.568 897.95 628.114C898.836 626.659 899.45 625 899.791 623.136L914.722 623.205C914.336 626.409 913.37 629.5 911.825 632.477C910.302 635.432 908.245 638.08 905.654 640.42C903.086 642.739 900.018 644.58 896.45 645.943C892.904 647.284 888.893 647.955 884.416 647.955C878.188 647.955 872.62 646.545 867.711 643.727C862.825 640.909 858.961 636.83 856.12 631.489C853.302 626.148 851.893 619.682 851.893 612.091C851.893 604.477 853.325 598 856.188 592.659C859.052 587.318 862.938 583.25 867.847 580.455C872.756 577.636 878.279 576.227 884.416 576.227C888.461 576.227 892.211 576.795 895.666 577.932C899.143 579.068 902.222 580.727 904.904 582.909C907.586 585.068 909.768 587.716 911.45 590.852C913.154 593.989 914.245 597.58 914.722 601.625ZM946.774 648.023C941.478 648.023 936.899 646.898 933.035 644.648C929.194 642.375 926.228 639.216 924.138 635.17C922.047 631.102 921.001 626.386 921.001 621.023C921.001 615.614 922.047 610.886 924.138 606.841C926.228 602.773 929.194 599.614 933.035 597.364C936.899 595.091 941.478 593.955 946.774 593.955C952.069 593.955 956.638 595.091 960.478 597.364C964.342 599.614 967.319 602.773 969.41 606.841C971.501 610.886 972.547 615.614 972.547 621.023C972.547 626.386 971.501 631.102 969.41 635.17C967.319 639.216 964.342 642.375 960.478 644.648C956.638 646.898 952.069 648.023 946.774 648.023ZM946.842 636.773C949.251 636.773 951.263 636.091 952.876 634.727C954.49 633.341 955.706 631.455 956.524 629.068C957.365 626.682 957.785 623.966 957.785 620.92C957.785 617.875 957.365 615.159 956.524 612.773C955.706 610.386 954.49 608.5 952.876 607.114C951.263 605.727 949.251 605.034 946.842 605.034C944.41 605.034 942.365 605.727 940.706 607.114C939.069 608.5 937.831 610.386 936.99 612.773C936.172 615.159 935.763 617.875 935.763 620.92C935.763 623.966 936.172 626.682 936.99 629.068C937.831 631.455 939.069 633.341 940.706 634.727C942.365 636.091 944.41 636.773 946.842 636.773ZM994.593 616.727V647H980.07V594.636H993.911V603.875H994.524C995.683 600.83 997.627 598.42 1000.35 596.648C1003.08 594.852 1006.39 593.955 1010.27 593.955C1013.91 593.955 1017.08 594.75 1019.79 596.341C1022.49 597.932 1024.59 600.205 1026.09 603.159C1027.59 606.091 1028.34 609.591 1028.34 613.659V647H1013.82V616.25C1013.84 613.045 1013.02 610.545 1011.37 608.75C1009.71 606.932 1007.42 606.023 1004.51 606.023C1002.56 606.023 1000.83 606.443 999.331 607.284C997.854 608.125 996.695 609.352 995.854 610.966C995.036 612.557 994.615 614.477 994.593 616.727ZM1057.16 647.852C1053.19 647.852 1049.58 646.83 1046.36 644.784C1043.15 642.716 1040.61 639.682 1038.72 635.682C1036.86 631.659 1035.93 626.727 1035.93 620.886C1035.93 614.886 1036.89 609.898 1038.82 605.92C1040.75 601.92 1043.32 598.932 1046.53 596.955C1049.75 594.955 1053.29 593.955 1057.13 593.955C1060.06 593.955 1062.5 594.455 1064.46 595.455C1066.44 596.432 1068.03 597.659 1069.23 599.136C1070.46 600.591 1071.39 602.023 1072.03 603.432H1072.47V577.182H1086.96V647H1072.64V638.614H1072.03C1071.35 640.068 1070.38 641.511 1069.13 642.943C1067.9 644.352 1066.3 645.523 1064.32 646.455C1062.37 647.386 1059.98 647.852 1057.16 647.852ZM1061.77 636.295C1064.11 636.295 1066.08 635.659 1067.7 634.386C1069.33 633.091 1070.58 631.284 1071.45 628.966C1072.33 626.648 1072.78 623.932 1072.78 620.818C1072.78 617.705 1072.35 615 1071.48 612.705C1070.62 610.409 1069.37 608.636 1067.73 607.386C1066.1 606.136 1064.11 605.511 1061.77 605.511C1059.38 605.511 1057.37 606.159 1055.73 607.455C1054.1 608.75 1052.86 610.545 1052.02 612.841C1051.18 615.136 1050.75 617.795 1050.75 620.818C1050.75 623.864 1051.18 626.557 1052.02 628.898C1052.88 631.216 1054.12 633.034 1055.73 634.352C1057.37 635.648 1059.38 636.295 1061.77 636.295ZM1096.98 647V594.636H1111.5V647H1096.98ZM1104.28 587.886C1102.12 587.886 1100.26 587.17 1098.72 585.739C1097.2 584.284 1096.43 582.545 1096.43 580.523C1096.43 578.523 1097.2 576.807 1098.72 575.375C1100.26 573.92 1102.12 573.193 1104.28 573.193C1106.43 573.193 1108.28 573.92 1109.8 575.375C1111.34 576.807 1112.12 578.523 1112.12 580.523C1112.12 582.545 1111.34 584.284 1109.8 585.739C1108.28 587.17 1106.43 587.886 1104.28 587.886ZM1149.07 594.636V605.545H1117.53V594.636H1149.07ZM1124.69 582.091H1139.22V630.909C1139.22 632.25 1139.42 633.295 1139.83 634.045C1140.24 634.773 1140.81 635.284 1141.53 635.58C1142.28 635.875 1143.15 636.023 1144.13 636.023C1144.81 636.023 1145.49 635.966 1146.17 635.852C1146.85 635.716 1147.38 635.614 1147.74 635.545L1150.02 646.352C1149.3 646.58 1148.27 646.841 1146.95 647.136C1145.64 647.455 1144.03 647.648 1142.15 647.716C1138.65 647.852 1135.58 647.386 1132.94 646.318C1130.33 645.25 1128.3 643.591 1126.84 641.341C1125.39 639.091 1124.67 636.25 1124.69 632.818V582.091ZM1156.61 647V594.636H1171.13V647H1156.61ZM1163.9 587.886C1161.74 587.886 1159.89 587.17 1158.35 585.739C1156.82 584.284 1156.06 582.545 1156.06 580.523C1156.06 578.523 1156.82 576.807 1158.35 575.375C1159.89 573.92 1161.74 573.193 1163.9 573.193C1166.06 573.193 1167.9 573.92 1169.43 575.375C1170.97 576.807 1171.74 578.523 1171.74 580.523C1171.74 582.545 1170.97 584.284 1169.43 585.739C1167.9 587.17 1166.06 587.886 1163.9 587.886ZM1204.5 648.023C1199.21 648.023 1194.63 646.898 1190.77 644.648C1186.92 642.375 1183.96 639.216 1181.87 635.17C1179.78 631.102 1178.73 626.386 1178.73 621.023C1178.73 615.614 1179.78 610.886 1181.87 606.841C1183.96 602.773 1186.92 599.614 1190.77 597.364C1194.63 595.091 1199.21 593.955 1204.5 593.955C1209.8 593.955 1214.37 595.091 1218.21 597.364C1222.07 599.614 1225.05 602.773 1227.14 606.841C1229.23 610.886 1230.28 615.614 1230.28 621.023C1230.28 626.386 1229.23 631.102 1227.14 635.17C1225.05 639.216 1222.07 642.375 1218.21 644.648C1214.37 646.898 1209.8 648.023 1204.5 648.023ZM1204.57 636.773C1206.98 636.773 1208.99 636.091 1210.61 634.727C1212.22 633.341 1213.44 631.455 1214.25 629.068C1215.09 626.682 1215.52 623.966 1215.52 620.92C1215.52 617.875 1215.09 615.159 1214.25 612.773C1213.44 610.386 1212.22 608.5 1210.61 607.114C1208.99 605.727 1206.98 605.034 1204.57 605.034C1202.14 605.034 1200.09 605.727 1198.44 607.114C1196.8 608.5 1195.56 610.386 1194.72 612.773C1193.9 615.159 1193.49 617.875 1193.49 620.92C1193.49 623.966 1193.9 626.682 1194.72 629.068C1195.56 631.455 1196.8 633.341 1198.44 634.727C1200.09 636.091 1202.14 636.773 1204.57 636.773ZM1252.32 616.727V647H1237.8V594.636H1251.64V603.875H1252.25C1253.41 600.83 1255.36 598.42 1258.08 596.648C1260.81 594.852 1264.12 593.955 1268 593.955C1271.64 593.955 1274.81 594.75 1277.52 596.341C1280.22 597.932 1282.32 600.205 1283.82 603.159C1285.32 606.091 1286.07 609.591 1286.07 613.659V647H1271.55V616.25C1271.57 613.045 1270.75 610.545 1269.1 608.75C1267.44 606.932 1265.15 606.023 1262.24 606.023C1260.29 606.023 1258.56 606.443 1257.06 607.284C1255.58 608.125 1254.42 609.352 1253.58 610.966C1252.77 612.557 1252.35 614.477 1252.32 616.727Z" fill="url(#paint1_linear_695_46610)"/>
<path fill-rule="evenodd" clip-rule="evenodd" d="M1920 888V952V1080H1311H1247L1248 1079.98C1282.95 1079.44 1311 1050.95 1311 1016C1311 980.652 1339.65 952 1375 952H1854.99C1890.5 952 1919.45 923.507 1920 888Z" fill="white"/>
<path fill-rule="evenodd" clip-rule="evenodd" d="M1398 1052L1406.65 999.22C1416.4 999.22 1423.8 1008 1422.23 1017.63L1419.21 1036H1425.98C1429.39 1036 1432.41 1035.41 1435.05 1034.22C1437.72 1033 1439.94 1030.98 1441.75 1028.12C1443.55 1025.26 1444.87 1021.32 1445.67 1016.37C1446.43 1011.67 1446.4 1008.04 1445.6 1005.49C1444.8 1002.91 1443.27 1001.14 1441.02 1000.16C1438.76 999.15 1435.84 998.627 1432.3 998.627L1425.6 998.522C1411.99 998.522 1407.83 987.959 1407.44 982.66H1435.11C1442.16 982.66 1448.03 984.055 1452.75 986.948C1457.47 989.807 1460.84 993.921 1462.82 999.22C1464.8 1004.55 1465.18 1010.9 1464 1018.25C1462.85 1025.33 1460.49 1031.4 1456.95 1036.42C1453.41 1041.44 1448.93 1045.31 1443.45 1047.96C1438 1050.61 1431.78 1051.97 1424.8 1051.97H1398V1052Z" fill="url(#paint2_linear_695_46610)"/>
<path fill-rule="evenodd" clip-rule="evenodd" d="M1414.18 982.695H1435.08C1442.13 982.695 1448 984.09 1452.72 986.983C1457.44 989.842 1460.81 993.956 1462.79 999.255C1464.76 1004.59 1465.15 1010.93 1463.97 1018.29C1462.82 1025.37 1460.46 1031.43 1456.92 1036.45C1454.77 1039.48 1452.3 1042.1 1449.42 1044.3C1449.42 1044.3 1449.42 1044.3 1449.45 1044.3C1454.94 1041.65 1459.45 1037.78 1462.96 1032.76C1466.5 1027.74 1468.86 1021.67 1470.01 1014.59C1471.22 1007.24 1470.81 1000.89 1468.83 995.559C1466.85 990.225 1463.48 986.147 1458.76 983.288C1454.07 980.394 1448.2 979 1441.16 979H1413.45C1413.52 980.081 1413.76 981.336 1414.18 982.695Z" fill="url(#paint3_linear_695_46610)"/>
<path fill-rule="evenodd" clip-rule="evenodd" d="M1560.04 1041.86C1554.74 1041.86 1550.07 1040.74 1545.99 1038.53C1541.94 1036.25 1538.77 1033.16 1536.47 1029.23C1534.17 1025.27 1533.02 1020.74 1533.02 1015.66C1533.02 1010.54 1534.17 1006.01 1536.47 1002.08C1538.77 998.122 1541.94 995.035 1545.99 992.791C1550.03 990.511 1554.67 989.389 1559.9 989.389C1565.2 989.389 1569.83 990.511 1573.88 992.791C1577.92 995 1581.09 998.122 1583.39 1002.08C1585.69 1006.01 1586.85 1010.5 1586.85 1015.66C1586.85 1020.74 1585.69 1025.27 1583.39 1029.23C1581.13 1033.16 1577.99 1036.25 1573.95 1038.53C1569.9 1040.77 1565.27 1041.86 1560.04 1041.86ZM1560.04 1029.55C1562.62 1029.55 1564.92 1028.95 1566.87 1027.79C1568.86 1026.6 1570.39 1024.95 1571.47 1022.85C1572.59 1020.78 1573.14 1018.39 1573.14 1015.66C1573.14 1012.96 1572.55 1010.57 1571.4 1008.47C1570.29 1006.33 1568.75 1004.72 1566.73 1003.52C1564.78 1002.33 1562.48 1001.7 1559.9 1001.7C1557.35 1001.7 1555.09 1002.3 1553.06 1003.52C1551.11 1004.68 1549.54 1006.33 1548.39 1008.47C1547.28 1010.54 1546.72 1012.92 1546.72 1015.66C1546.72 1018.36 1547.31 1020.74 1548.46 1022.85C1549.61 1024.92 1551.18 1026.57 1553.13 1027.79C1555.12 1028.95 1557.42 1029.55 1560.04 1029.55ZM1501.16 1028.32C1503.28 1028.32 1505.2 1028 1506.98 1027.37C1508.76 1026.74 1510.29 1025.86 1511.58 1024.78C1512.87 1023.65 1513.88 1022.32 1514.61 1020.78C1515.34 1019.24 1515.69 1017.52 1515.69 1015.62C1515.69 1013.73 1515.34 1012.01 1514.61 1010.47C1513.88 1008.92 1512.87 1007.59 1511.58 1006.47C1510.29 1005.35 1508.76 1004.51 1506.98 1003.87C1505.2 1003.24 1503.25 1002.93 1501.16 1002.93H1497.64V1028.28H1501.16V1028.32ZM1515.8 993.527C1511.58 991.353 1506.7 990.265 1501.16 990.265H1497.64H1490.73H1484.32V1041.02H1490.73H1497.64H1501.16C1506.66 1041.02 1511.54 1039.93 1515.8 1037.75C1520.09 1035.58 1523.4 1032.6 1525.8 1028.78C1528.21 1024.95 1529.39 1020.57 1529.39 1015.66C1529.39 1010.68 1528.21 1006.29 1525.8 1002.54C1523.4 998.683 1520.05 995.702 1515.8 993.527ZM1605.29 1014.82L1586.74 1041.02H1602.81L1612.68 1025.93L1622.51 1040.98H1638.58L1620.14 1014.75L1638.02 990.23H1622.09L1612.68 1004.01L1603.23 990.265H1587.3L1605.29 1014.82ZM1670.65 1030.84L1656.95 1011.03V1041.02H1643.63V991.703V990.265H1650.19H1656.95H1658.38L1670.58 1008.4L1682.75 990.265H1684.18H1691.11H1697.53V991.493V1041.02H1684.21V1010.99L1670.65 1030.84ZM1738.25 1032.88L1741.21 1041.02H1755.33L1736.02 990.265H1734.94H1722.77H1721.69L1702.37 1041.02H1716.49L1719.46 1032.88H1738.25ZM1733.96 1021.06L1728.83 1007L1723.71 1021.06H1733.96ZM1765.54 1041.02V1002.58H1751.29V990.265H1793.08V1002.58H1778.9V1041.02H1765.54ZM1798.66 990.265V1041.02H1808.04H1812.01H1833V1028.71H1812.01V1021.59H1828.57V1009.59H1812.01V1002.58H1832.48V990.265H1812.01H1808.04H1798.66Z" fill="#313D4E"/>
<defs>
<radialGradient id="paint0_radial_695_46610" cx="0" cy="0" r="1" gradientUnits="userSpaceOnUse" gradientTransform="translate(960) rotate(90) scale(1080 1920)">
<stop stop-color="#354776"/>
<stop offset="1" stop-color="#130A2D"/>
</radialGradient>
<linearGradient id="paint1_linear_695_46610" x1="537" y1="396.217" x2="1113.49" y2="959.866" gradientUnits="userSpaceOnUse">
<stop stop-color="#F4F7FF"/>
<stop offset="1" stop-color="white"/>
</linearGradient>
<linearGradient id="paint2_linear_695_46610" x1="1461.36" y1="979.492" x2="1394.48" y2="1048.59" gradientUnits="userSpaceOnUse">
<stop stop-color="#7B79FF"/>
<stop offset="1" stop-color="#4240B8"/>
</linearGradient>
<linearGradient id="paint3_linear_695_46610" x1="1470.41" y1="978.711" x2="1425.41" y2="1017.37" gradientUnits="userSpaceOnUse">
<stop stop-color="#7B79FF"/>
<stop offset="1" stop-color="#7B79FF" stop-opacity="0"/>
</linearGradient>
</defs>
</svg>
