<svg width="24" height="24" viewBox="0 0 24 24" fill="none" xmlns="http://www.w3.org/2000/svg">
<path d="M21.1875 1.875H20.0625V0H18.1875V1.875H5.8125V0H3.9375V1.875H2.8125C1.26169 1.875 0 3.13669 0 4.6875V21.1875C0 22.7383 1.26169 24 2.8125 24H21.1875C22.7383 24 24 22.7383 24 21.1875V4.6875C24 3.13669 22.7383 1.875 21.1875 1.875ZM22.125 21.1875C22.125 21.7044 21.7044 22.125 21.1875 22.125H2.8125C2.29556 22.125 1.875 21.7044 1.875 21.1875V8.8125H22.125V21.1875ZM22.125 6.9375H1.875V4.6875C1.875 4.17056 2.29556 3.75 2.8125 3.75H3.9375V5.625H5.8125V3.75H18.1875V5.625H20.0625V3.75H21.1875C21.7044 3.75 22.125 4.17056 22.125 4.6875V6.9375Z" fill="white"/>
<path d="M3.5625 11.7188C3.5625 12.2365 3.98223 12.6562 4.5 12.6562C5.01777 12.6562 5.4375 12.2365 5.4375 11.7188C5.4375 11.201 5.01777 10.7812 4.5 10.7812C3.98223 10.7812 3.5625 11.201 3.5625 11.7188Z" fill="white"/>
<path d="M7.3125 11.7188C7.3125 12.2365 7.73223 12.6562 8.25 12.6562C8.76777 12.6562 9.1875 12.2365 9.1875 11.7188C9.1875 11.201 8.76777 10.7812 8.25 10.7812C7.73223 10.7812 7.3125 11.201 7.3125 11.7188Z" fill="white"/>
<path d="M11.0625 11.7188C11.0625 12.2365 11.4822 12.6562 12 12.6562C12.5178 12.6562 12.9375 12.2365 12.9375 11.7188C12.9375 11.201 12.5178 10.7812 12 10.7812C11.4822 10.7812 11.0625 11.201 11.0625 11.7188Z" fill="white"/>
<path d="M14.8125 11.7188C14.8125 12.2365 15.2322 12.6562 15.75 12.6562C16.2678 12.6562 16.6875 12.2365 16.6875 11.7188C16.6875 11.201 16.2678 10.7812 15.75 10.7812C15.2322 10.7812 14.8125 11.201 14.8125 11.7188Z" fill="white"/>
<path d="M18.5625 11.7188C18.5625 12.2365 18.9822 12.6562 19.5 12.6562C20.0178 12.6562 20.4375 12.2365 20.4375 11.7188C20.4375 11.201 20.0178 10.7812 19.5 10.7812C18.9822 10.7812 18.5625 11.201 18.5625 11.7188Z" fill="white"/>
<path d="M3.5625 15.4688C3.5625 15.9865 3.98223 16.4062 4.5 16.4062C5.01777 16.4062 5.4375 15.9865 5.4375 15.4688C5.4375 14.951 5.01777 14.5312 4.5 14.5312C3.98223 14.5312 3.5625 14.951 3.5625 15.4688Z" fill="white"/>
<path d="M7.3125 15.4688C7.3125 15.9865 7.73223 16.4062 8.25 16.4062C8.76777 16.4062 9.1875 15.9865 9.1875 15.4688C9.1875 14.951 8.76777 14.5312 8.25 14.5312C7.73223 14.5312 7.3125 14.951 7.3125 15.4688Z" fill="white"/>
<path d="M11.0625 15.4688C11.0625 15.9865 11.4822 16.4062 12 16.4062C12.5178 16.4062 12.9375 15.9865 12.9375 15.4688C12.9375 14.951 12.5178 14.5312 12 14.5312C11.4822 14.5312 11.0625 14.951 11.0625 15.4688Z" fill="white"/>
<path d="M14.8125 15.4688C14.8125 15.9865 15.2322 16.4062 15.75 16.4062C16.2678 16.4062 16.6875 15.9865 16.6875 15.4688C16.6875 14.951 16.2678 14.5312 15.75 14.5312C15.2322 14.5312 14.8125 14.951 14.8125 15.4688Z" fill="white"/>
<path d="M3.5625 19.2188C3.5625 19.7365 3.98223 20.1562 4.5 20.1562C5.01777 20.1562 5.4375 19.7365 5.4375 19.2188C5.4375 18.701 5.01777 18.2812 4.5 18.2812C3.98223 18.2812 3.5625 18.701 3.5625 19.2188Z" fill="white"/>
<path d="M7.3125 19.2188C7.3125 19.7365 7.73223 20.1562 8.25 20.1562C8.76777 20.1562 9.1875 19.7365 9.1875 19.2188C9.1875 18.701 8.76777 18.2812 8.25 18.2812C7.73223 18.2812 7.3125 18.701 7.3125 19.2188Z" fill="white"/>
<path d="M11.0625 19.2188C11.0625 19.7365 11.4822 20.1562 12 20.1562C12.5178 20.1562 12.9375 19.7365 12.9375 19.2188C12.9375 18.701 12.5178 18.2812 12 18.2812C11.4822 18.2812 11.0625 18.701 11.0625 19.2188Z" fill="white"/>
<path d="M14.8125 19.2188C14.8125 19.7365 15.2322 20.1562 15.75 20.1562C16.2678 20.1562 16.6875 19.7365 16.6875 19.2188C16.6875 18.701 16.2678 18.2812 15.75 18.2812C15.2322 18.2812 14.8125 18.701 14.8125 19.2188Z" fill="white"/>
<path d="M18.5625 15.4688C18.5625 15.9865 18.9822 16.4062 19.5 16.4062C20.0178 16.4062 20.4375 15.9865 20.4375 15.4688C20.4375 14.951 20.0178 14.5312 19.5 14.5312C18.9822 14.5312 18.5625 14.951 18.5625 15.4688Z" fill="white"/>
</svg>
