<svg width="27" height="26" viewBox="0 0 27 26" fill="none" xmlns="http://www.w3.org/2000/svg">
<path d="M5.27094 3.44086C4.26172 3.44086 3.44043 4.26215 3.44043 5.27137C3.44043 6.28059 4.26172 7.10187 5.27094 7.10187C6.28016 7.10187 7.10145 6.28059 7.10145 5.27137C7.10145 4.26215 6.28016 3.44086 5.27094 3.44086ZM5.27094 6.28831C4.7104 6.28831 4.25399 5.83231 4.25399 5.27137C4.25399 4.71042 4.7104 4.25442 5.27094 4.25442C5.83148 4.25442 6.28789 4.71042 6.28789 5.27137C6.28789 5.83231 5.83148 6.28831 5.27094 6.28831Z" fill="white"/>
<path d="M21.3384 5.06789C21.5631 5.06789 21.7452 4.88577 21.7452 4.66111C21.7452 4.43645 21.5631 4.25433 21.3384 4.25433C21.1138 4.25433 20.9316 4.43645 20.9316 4.66111C20.9316 4.88577 21.1138 5.06789 21.3384 5.06789Z" fill="white"/>
<path d="M19.7115 5.06789C19.9361 5.06789 20.1182 4.88577 20.1182 4.66111C20.1182 4.43645 19.9361 4.25433 19.7115 4.25433C19.4868 4.25433 19.3047 4.43645 19.3047 4.66111C19.3047 4.88577 19.4868 5.06789 19.7115 5.06789Z" fill="white"/>
<path d="M22.1529 6.28829C22.3775 6.28829 22.5597 6.10617 22.5597 5.88151C22.5597 5.65685 22.3775 5.47473 22.1529 5.47473C21.9282 5.47473 21.7461 5.65685 21.7461 5.88151C21.7461 6.10617 21.9282 6.28829 22.1529 6.28829Z" fill="white"/>
<path d="M20.5249 6.28829C20.7496 6.28829 20.9317 6.10617 20.9317 5.88151C20.9317 5.65685 20.7496 5.47473 20.5249 5.47473C20.3003 5.47473 20.1182 5.65685 20.1182 5.88151C20.1182 6.10617 20.3003 6.28829 20.5249 6.28829Z" fill="white"/>
<path d="M18.0845 5.06789C18.3092 5.06789 18.4913 4.88577 18.4913 4.66111C18.4913 4.43645 18.3092 4.25433 18.0845 4.25433C17.8599 4.25433 17.6777 4.43645 17.6777 4.66111C17.6777 4.88577 17.8599 5.06789 18.0845 5.06789Z" fill="white"/>
<path d="M18.898 6.28829C19.1226 6.28829 19.3048 6.10617 19.3048 5.88151C19.3048 5.65685 19.1226 5.47473 18.898 5.47473C18.6733 5.47473 18.4912 5.65685 18.4912 5.88151C18.4912 6.10617 18.6733 6.28829 18.898 6.28829Z" fill="white"/>
<path d="M16.4576 5.06789C16.6822 5.06789 16.8643 4.88577 16.8643 4.66111C16.8643 4.43645 16.6822 4.25433 16.4576 4.25433C16.2329 4.25433 16.0508 4.43645 16.0508 4.66111C16.0508 4.88577 16.2329 5.06789 16.4576 5.06789Z" fill="white"/>
<path d="M17.271 6.28829C17.4957 6.28829 17.6778 6.10617 17.6778 5.88151C17.6778 5.65685 17.4957 5.47473 17.271 5.47473C17.0464 5.47473 16.8643 5.65685 16.8643 5.88151C16.8643 6.10617 17.0464 6.28829 17.271 6.28829Z" fill="white"/>
<path d="M14.8306 5.06789C15.0553 5.06789 15.2374 4.88577 15.2374 4.66111C15.2374 4.43645 15.0553 4.25433 14.8306 4.25433C14.6059 4.25433 14.4238 4.43645 14.4238 4.66111C14.4238 4.88577 14.6059 5.06789 14.8306 5.06789Z" fill="white"/>
<path d="M15.6441 6.28829C15.8687 6.28829 16.0509 6.10617 16.0509 5.88151C16.0509 5.65685 15.8687 5.47473 15.6441 5.47473C15.4194 5.47473 15.2373 5.65685 15.2373 5.88151C15.2373 6.10617 15.4194 6.28829 15.6441 6.28829Z" fill="white"/>
<path fill-rule="evenodd" clip-rule="evenodd" d="M2.37482 16.3323C2.32024 16.3031 2.26851 16.2692 2.22014 16.2312C1.97274 16.0369 1.81356 15.735 1.81356 15.3967V10.6033C1.81356 10.2646 1.97305 9.96254 2.22086 9.76816C2.26897 9.73043 2.3204 9.69675 2.37465 9.66766C2.50883 9.59569 2.66019 9.55174 2.82085 9.54371C2.8386 9.54282 2.85647 9.54237 2.87444 9.54237H23.5319C23.5495 9.54238 23.5674 9.54282 23.5848 9.54367C23.7457 9.55159 23.8972 9.59547 24.0315 9.66741C24.0862 9.69668 24.138 9.7306 24.1865 9.76864C24.434 9.96304 24.5932 10.2649 24.5932 10.6033V15.3963C24.5931 15.7346 24.4338 16.0368 24.1863 16.2311C24.1379 16.2691 24.0861 16.303 24.0315 16.3323C23.8971 16.4043 23.7454 16.4481 23.5844 16.456C23.5672 16.4568 23.5498 16.4572 23.5323 16.4572H2.87444C2.85688 16.4572 2.83941 16.4568 2.82206 16.456C2.66102 16.4482 2.50929 16.4043 2.37482 16.3323ZM2.82085 17.2725C2.66031 17.2806 2.50906 17.3244 2.37495 17.3963C2.3206 17.4254 2.26906 17.4592 2.22086 17.497C1.97305 17.6914 1.81356 17.9934 1.81356 18.3321V23.1252C1.81356 23.7101 2.28949 24.1864 2.87444 24.186H23.5319C24.1167 24.186 24.593 23.7103 24.5932 23.1256V18.3321C24.5932 17.9936 24.4339 17.6916 24.1862 17.4973C24.1378 17.4593 24.0861 17.4254 24.0315 17.3962C23.8971 17.3242 23.7454 17.2803 23.5844 17.2725C23.5671 17.2716 23.5498 17.2712 23.5323 17.2712H2.87501C2.85704 17.2712 2.8386 17.2716 2.82085 17.2725ZM25.2459 17.5807C25.3488 17.8101 25.4064 18.064 25.4064 18.3321V23.1252C25.4064 24.1586 24.5658 24.9998 23.5323 25H2.87501C1.84151 25 1.00022 24.1594 1 23.1256V18.3321C1 18.063 1.05804 17.8082 1.16177 17.578C1.26087 17.358 1.40167 17.1605 1.57341 16.9944C1.62093 16.9485 1.67082 16.9049 1.72285 16.864C1.67094 16.8232 1.62117 16.7798 1.57375 16.734C1.40205 16.5683 1.26124 16.371 1.1621 16.1513C1.05821 15.921 1.00006 15.6661 1 15.3967V10.6033C1 10.3342 1.05804 10.0794 1.16177 9.84917C1.26086 9.62922 1.40165 9.43169 1.57337 9.26565C1.6209 9.21968 1.6708 9.17613 1.72285 9.13519C1.67094 9.0944 1.62117 9.05101 1.57375 9.00523C1.40205 8.83946 1.26124 8.64222 1.1621 8.42247C1.05821 8.19222 1.00006 7.93727 1 7.66793V2.87444C1 1.84081 1.84081 1 2.87444 1H23.5319C24.5656 1 25.4068 1.84081 25.4068 2.87444V7.66753C25.4068 7.93621 25.3489 8.19114 25.2454 8.42112C25.1463 8.64146 25.0052 8.83928 24.8332 9.00545C24.7857 9.0513 24.7359 9.09475 24.6839 9.13559C24.7358 9.17638 24.7856 9.21977 24.833 9.26555C25.0052 9.43182 25.1464 9.62975 25.2456 9.85029C25.349 10.0801 25.4068 10.3345 25.4068 10.6033V15.3963C25.4068 15.6646 25.3491 15.9191 25.2459 16.1488C25.1467 16.3696 25.0055 16.5677 24.8331 16.7341C24.7855 16.78 24.7356 16.8235 24.6835 16.8644C24.7355 16.9053 24.7853 16.9487 24.8328 16.9945C25.0054 17.1612 25.1467 17.3596 25.2459 17.5807ZM0.409103 16.8642C0.151763 17.2904 0 17.791 0 18.3321V23.1252C0 24.7113 1.28839 26 2.87444 26H23.5319C25.1178 26 26.4064 24.7115 26.4064 23.1256V18.3321C26.4064 17.791 26.2547 17.2906 25.9975 16.8646C26.255 16.4384 26.4068 15.9377 26.4068 15.3967V10.6033C26.4068 10.0621 26.2551 9.56153 25.9978 9.13553C26.2551 8.70942 26.4068 8.20883 26.4068 7.66793V2.87444C26.4068 1.28853 25.1182 0 23.5323 0H2.87444C1.28853 0 0 1.28853 0 2.87444V7.66753C0 8.20877 0.151735 8.70937 0.409103 9.13541C0.151763 9.56156 0 10.0622 0 10.6033V15.3963C0 15.9376 0.151735 16.4382 0.409103 16.8642ZM24.0315 8.60344C24.0861 8.5742 24.1379 8.54032 24.1863 8.50233C24.4338 8.30802 24.5931 8.00623 24.5932 7.66793V2.87444C24.5932 2.28963 24.1175 1.81378 23.5323 1.81356H2.87444C2.28949 1.81356 1.81356 2.28949 1.81356 2.87444V7.66753C1.81356 7.79175 1.83502 7.91147 1.87444 8.02235C1.94236 8.2134 2.06357 8.37942 2.2201 8.50243C2.26843 8.5404 2.32012 8.57428 2.37465 8.60353C2.50931 8.67575 2.66127 8.71975 2.82256 8.72756C2.82998 8.72792 2.83741 8.7282 2.84487 8.72841C2.85469 8.72868 2.86455 8.72881 2.87444 8.72881L23.5319 8.72841C23.5497 8.72841 23.5678 8.72797 23.5853 8.7271C23.746 8.71916 23.8973 8.67531 24.0315 8.60344ZM2.86711 7.72841C2.8543 7.72695 2.8426 7.72147 2.83175 7.71062C2.81887 7.69774 2.81356 7.68365 2.81356 7.66793V2.87444C2.81356 2.85872 2.81887 2.84464 2.83175 2.83175C2.84464 2.81887 2.85872 2.81356 2.87444 2.81356H23.5319C23.548 2.81356 23.5622 2.819 23.5751 2.83184C23.5879 2.8447 23.5932 2.85873 23.5932 2.87444V7.66753C23.5932 7.68324 23.5879 7.69733 23.575 7.71022C23.5621 7.7231 23.5481 7.72841 23.5323 7.72841H2.86711ZM23.5932 23.1252V18.3321C23.5932 18.3164 23.5879 18.3023 23.5751 18.2895C23.5622 18.2766 23.548 18.2712 23.5319 18.2712H2.87444C2.85872 18.2712 2.84464 18.2765 2.83175 18.2894C2.81887 18.3023 2.81356 18.3163 2.81356 18.3321V23.1256C2.81356 23.1413 2.81888 23.1553 2.83166 23.1681C2.84442 23.1809 2.85827 23.186 2.87375 23.186H23.5323C23.5481 23.186 23.5621 23.1807 23.575 23.1678C23.5879 23.155 23.5932 23.1409 23.5932 23.1252ZM23.5932 15.3963V10.6033C23.5932 10.5875 23.5879 10.5735 23.5751 10.5607C23.5622 10.5478 23.548 10.5424 23.5319 10.5424H2.87444C2.85872 10.5424 2.84464 10.5477 2.83175 10.5606C2.81887 10.5734 2.81356 10.5875 2.81356 10.6033V15.3967C2.81356 15.4125 2.81888 15.4265 2.83166 15.4393C2.84442 15.452 2.85827 15.4572 2.87375 15.4572H23.5323C23.5481 15.4572 23.5621 15.4519 23.575 15.439C23.5879 15.4261 23.5932 15.4121 23.5932 15.3963Z" fill="white"/>
<path d="M5.27094 14.8305C6.28016 14.8305 7.10145 14.0092 7.10145 13C7.10145 11.9908 6.28016 11.1695 5.27094 11.1695C4.26172 11.1695 3.44043 11.9908 3.44043 13C3.44043 14.0092 4.26172 14.8305 5.27094 14.8305ZM5.27094 11.9831C5.83148 11.9831 6.28789 12.4391 6.28789 13C6.28789 13.561 5.83148 14.017 5.27094 14.017C4.7104 14.017 4.25399 13.561 4.25399 13C4.25399 12.4391 4.7104 11.9831 5.27094 11.9831Z" fill="white"/>
<path d="M21.3384 12.7965C21.5631 12.7965 21.7452 12.6144 21.7452 12.3898C21.7452 12.1651 21.5631 11.983 21.3384 11.983C21.1138 11.983 20.9316 12.1651 20.9316 12.3898C20.9316 12.6144 21.1138 12.7965 21.3384 12.7965Z" fill="white"/>
<path d="M19.7115 12.7965C19.9361 12.7965 20.1182 12.6144 20.1182 12.3898C20.1182 12.1651 19.9361 11.983 19.7115 11.983C19.4868 11.983 19.3047 12.1651 19.3047 12.3898C19.3047 12.6144 19.4868 12.7965 19.7115 12.7965Z" fill="white"/>
<path d="M22.1529 14.0169C22.3775 14.0169 22.5597 13.8348 22.5597 13.6101C22.5597 13.3855 22.3775 13.2034 22.1529 13.2034C21.9282 13.2034 21.7461 13.3855 21.7461 13.6101C21.7461 13.8348 21.9282 14.0169 22.1529 14.0169Z" fill="white"/>
<path d="M20.5249 14.0169C20.7496 14.0169 20.9317 13.8348 20.9317 13.6101C20.9317 13.3855 20.7496 13.2034 20.5249 13.2034C20.3003 13.2034 20.1182 13.3855 20.1182 13.6101C20.1182 13.8348 20.3003 14.0169 20.5249 14.0169Z" fill="white"/>
<path d="M18.0845 12.7965C18.3092 12.7965 18.4913 12.6144 18.4913 12.3898C18.4913 12.1651 18.3092 11.983 18.0845 11.983C17.8599 11.983 17.6777 12.1651 17.6777 12.3898C17.6777 12.6144 17.8599 12.7965 18.0845 12.7965Z" fill="white"/>
<path d="M18.898 14.0169C19.1226 14.0169 19.3048 13.8348 19.3048 13.6101C19.3048 13.3855 19.1226 13.2034 18.898 13.2034C18.6733 13.2034 18.4912 13.3855 18.4912 13.6101C18.4912 13.8348 18.6733 14.0169 18.898 14.0169Z" fill="white"/>
<path d="M16.4576 12.7965C16.6822 12.7965 16.8643 12.6144 16.8643 12.3898C16.8643 12.1651 16.6822 11.983 16.4576 11.983C16.2329 11.983 16.0508 12.1651 16.0508 12.3898C16.0508 12.6144 16.2329 12.7965 16.4576 12.7965Z" fill="white"/>
<path d="M17.271 14.0169C17.4957 14.0169 17.6778 13.8348 17.6778 13.6101C17.6778 13.3855 17.4957 13.2034 17.271 13.2034C17.0464 13.2034 16.8643 13.3855 16.8643 13.6101C16.8643 13.8348 17.0464 14.0169 17.271 14.0169Z" fill="white"/>
<path d="M14.8306 12.7965C15.0553 12.7965 15.2374 12.6144 15.2374 12.3898C15.2374 12.1651 15.0553 11.983 14.8306 11.983C14.6059 11.983 14.4238 12.1651 14.4238 12.3898C14.4238 12.6144 14.6059 12.7965 14.8306 12.7965Z" fill="white"/>
<path d="M15.6441 14.0169C15.8687 14.0169 16.0509 13.8348 16.0509 13.6101C16.0509 13.3855 15.8687 13.2034 15.6441 13.2034C15.4194 13.2034 15.2373 13.3855 15.2373 13.6101C15.2373 13.8348 15.4194 14.0169 15.6441 14.0169Z" fill="white"/>
<path d="M5.27094 22.5591C6.28016 22.5591 7.10145 21.7379 7.10145 20.7286C7.10145 19.7194 6.28016 18.8981 5.27094 18.8981C4.26172 18.8981 3.44043 19.7194 3.44043 20.7286C3.44043 21.7379 4.26172 22.5591 5.27094 22.5591ZM5.27094 19.7117C5.83148 19.7117 6.28789 20.1677 6.28789 20.7286C6.28789 21.2896 5.83148 21.7456 5.27094 21.7456C4.7104 21.7456 4.25399 21.2896 4.25399 20.7286C4.25399 20.1677 4.7104 19.7117 5.27094 19.7117Z" fill="white"/>
<path d="M21.3384 20.5256C21.5631 20.5256 21.7452 20.3435 21.7452 20.1188C21.7452 19.8942 21.5631 19.712 21.3384 19.712C21.1138 19.712 20.9316 19.8942 20.9316 20.1188C20.9316 20.3435 21.1138 20.5256 21.3384 20.5256Z" fill="white"/>
<path d="M19.7115 20.5256C19.9361 20.5256 20.1182 20.3435 20.1182 20.1188C20.1182 19.8942 19.9361 19.712 19.7115 19.712C19.4868 19.712 19.3047 19.8942 19.3047 20.1188C19.3047 20.3435 19.4868 20.5256 19.7115 20.5256Z" fill="white"/>
<path d="M22.1529 21.7456C22.3775 21.7456 22.5597 21.5634 22.5597 21.3388C22.5597 21.1141 22.3775 20.932 22.1529 20.932C21.9282 20.932 21.7461 21.1141 21.7461 21.3388C21.7461 21.5634 21.9282 21.7456 22.1529 21.7456Z" fill="white"/>
<path d="M20.5249 21.7456C20.7496 21.7456 20.9317 21.5634 20.9317 21.3388C20.9317 21.1141 20.7496 20.932 20.5249 20.932C20.3003 20.932 20.1182 21.1141 20.1182 21.3388C20.1182 21.5634 20.3003 21.7456 20.5249 21.7456Z" fill="white"/>
<path d="M18.0845 20.5256C18.3092 20.5256 18.4913 20.3435 18.4913 20.1188C18.4913 19.8942 18.3092 19.712 18.0845 19.712C17.8599 19.712 17.6777 19.8942 17.6777 20.1188C17.6777 20.3435 17.8599 20.5256 18.0845 20.5256Z" fill="white"/>
<path d="M18.898 21.7456C19.1226 21.7456 19.3048 21.5634 19.3048 21.3388C19.3048 21.1141 19.1226 20.932 18.898 20.932C18.6733 20.932 18.4912 21.1141 18.4912 21.3388C18.4912 21.5634 18.6733 21.7456 18.898 21.7456Z" fill="white"/>
<path d="M16.4576 20.5256C16.6822 20.5256 16.8643 20.3435 16.8643 20.1188C16.8643 19.8942 16.6822 19.712 16.4576 19.712C16.2329 19.712 16.0508 19.8942 16.0508 20.1188C16.0508 20.3435 16.2329 20.5256 16.4576 20.5256Z" fill="white"/>
<path d="M17.271 21.7456C17.4957 21.7456 17.6778 21.5634 17.6778 21.3388C17.6778 21.1141 17.4957 20.932 17.271 20.932C17.0464 20.932 16.8643 21.1141 16.8643 21.3388C16.8643 21.5634 17.0464 21.7456 17.271 21.7456Z" fill="white"/>
<path d="M14.8306 20.5256C15.0553 20.5256 15.2374 20.3435 15.2374 20.1188C15.2374 19.8942 15.0553 19.712 14.8306 19.712C14.6059 19.712 14.4238 19.8942 14.4238 20.1188C14.4238 20.3435 14.6059 20.5256 14.8306 20.5256Z" fill="white"/>
<path d="M15.6441 21.7456C15.8687 21.7456 16.0509 21.5634 16.0509 21.3388C16.0509 21.1141 15.8687 20.932 15.6441 20.932C15.4194 20.932 15.2373 21.1141 15.2373 21.3388C15.2373 21.5634 15.4194 21.7456 15.6441 21.7456Z" fill="white"/>
</svg>
