<svg width="31" height="24" viewBox="0 0 31 24" fill="none" xmlns="http://www.w3.org/2000/svg">
<path d="M15.0792 4.84467L4.32356 13.7116C4.32356 13.7241 4.32041 13.7425 4.31412 13.7676C4.30796 13.7925 4.30469 13.8106 4.30469 13.8234V22.8021C4.30469 23.1263 4.42321 23.4072 4.66019 23.6438C4.8971 23.8805 5.17765 23.9997 5.5019 23.9997H12.6847V16.8165H17.4738V23.9999H24.6565C24.9807 23.9999 25.2616 23.8811 25.4982 23.6438C25.7352 23.4075 25.8541 23.1264 25.8541 22.8021V13.8234C25.8541 13.7736 25.8473 13.736 25.8353 13.7116L15.0792 4.84467Z" fill="white"/>
<path d="M29.9498 11.6913L25.8535 8.28688V0.654855C25.8535 0.48038 25.7974 0.336895 25.6849 0.224597C25.5732 0.112429 25.4297 0.0563457 25.2549 0.0563457H21.6634C21.4887 0.0563457 21.3453 0.112429 21.233 0.224597C21.1209 0.336895 21.0648 0.480445 21.0648 0.654855V4.30245L16.5007 0.486342C16.1021 0.162092 15.6281 0 15.0794 0C14.5307 0 14.0568 0.162092 13.6578 0.486342L0.20786 11.6913C0.083179 11.7909 0.0148436 11.925 0.0021331 12.0934C-0.0105119 12.2616 0.0330577 12.4086 0.132973 12.5332L1.29271 13.9175C1.39262 14.0296 1.5234 14.0982 1.68556 14.1233C1.83527 14.1359 1.98497 14.0921 2.13468 13.9924L15.079 3.1988L28.0234 13.9923C28.1234 14.0794 28.2541 14.1228 28.4162 14.1228H28.4725C28.6343 14.0982 28.7649 14.0291 28.8653 13.9172L30.0252 12.5331C30.1249 12.4082 30.1686 12.2615 30.1556 12.0931C30.1428 11.9252 30.0742 11.7911 29.9498 11.6913Z" fill="white"/>
</svg>
