<svg width="106" height="35" viewBox="0 0 106 35" fill="none" xmlns="http://www.w3.org/2000/svg">
<path d="M21.6505 12V3.27273H24.5994C25.284 3.27273 25.8437 3.39631 26.2783 3.64347C26.7158 3.88778 27.0397 4.21875 27.2499 4.63636C27.4602 5.05398 27.5653 5.51989 27.5653 6.03409C27.5653 6.5483 27.4602 7.01562 27.2499 7.43608C27.0425 7.85653 26.7215 8.19176 26.2869 8.44176C25.8522 8.68892 25.2954 8.8125 24.6164 8.8125H22.5028V7.875H24.5823C25.0511 7.875 25.4275 7.79403 25.7116 7.6321C25.9957 7.47017 26.2016 7.25142 26.3295 6.97585C26.4602 6.69744 26.5255 6.38352 26.5255 6.03409C26.5255 5.68466 26.4602 5.37216 26.3295 5.09659C26.2016 4.82102 25.9942 4.60511 25.7073 4.44886C25.4204 4.28977 25.0397 4.21023 24.5653 4.21023H22.7073V12H21.6505ZM31.4801 12.1364C30.8892 12.1364 30.3707 11.9957 29.9247 11.7145C29.4815 11.4332 29.1349 11.0398 28.8849 10.5341C28.6378 10.0284 28.5142 9.4375 28.5142 8.76136C28.5142 8.07955 28.6378 7.48437 28.8849 6.97585C29.1349 6.46733 29.4815 6.07244 29.9247 5.79119C30.3707 5.50994 30.8892 5.36932 31.4801 5.36932C32.071 5.36932 32.588 5.50994 33.0312 5.79119C33.4773 6.07244 33.8238 6.46733 34.071 6.97585C34.321 7.48437 34.446 8.07955 34.446 8.76136C34.446 9.4375 34.321 10.0284 34.071 10.5341C33.8238 11.0398 33.4773 11.4332 33.0312 11.7145C32.588 11.9957 32.071 12.1364 31.4801 12.1364ZM31.4801 11.233C31.929 11.233 32.2983 11.1179 32.588 10.8878C32.8778 10.6577 33.0923 10.3551 33.2315 9.98011C33.3707 9.60511 33.4403 9.19886 33.4403 8.76136C33.4403 8.32386 33.3707 7.91619 33.2315 7.53835C33.0923 7.16051 32.8778 6.85511 32.588 6.62216C32.2983 6.3892 31.929 6.27273 31.4801 6.27273C31.0312 6.27273 30.6619 6.3892 30.3721 6.62216C30.0824 6.85511 29.8679 7.16051 29.7287 7.53835C29.5895 7.91619 29.5199 8.32386 29.5199 8.76136C29.5199 9.19886 29.5895 9.60511 29.7287 9.98011C29.8679 10.3551 30.0824 10.6577 30.3721 10.8878C30.6619 11.1179 31.0312 11.233 31.4801 11.233ZM37.0015 12L35.0071 5.45455H36.064L37.4787 10.4659H37.5469L38.9446 5.45455H40.0185L41.3992 10.4489H41.4674L42.8821 5.45455H43.939L41.9446 12H40.956L39.5242 6.97159H39.4219L37.9901 12H37.0015ZM47.5502 12.1364C46.9195 12.1364 46.3754 11.9972 45.9181 11.7188C45.4635 11.4375 45.1127 11.0455 44.8655 10.5426C44.6212 10.0369 44.499 9.44886 44.499 8.77841C44.499 8.10795 44.6212 7.51705 44.8655 7.00568C45.1127 6.49148 45.4564 6.09091 45.8968 5.80398C46.3399 5.5142 46.857 5.36932 47.4479 5.36932C47.7888 5.36932 48.1255 5.42614 48.4578 5.53977C48.7902 5.65341 49.0928 5.83807 49.3655 6.09375C49.6382 6.34659 49.8556 6.68182 50.0175 7.09943C50.1794 7.51705 50.2604 8.03125 50.2604 8.64205V9.06818H45.2149V8.19886H49.2377C49.2377 7.82955 49.1638 7.5 49.0161 7.21023C48.8712 6.92045 48.6638 6.69176 48.3939 6.52415C48.1269 6.35653 47.8115 6.27273 47.4479 6.27273C47.0473 6.27273 46.7007 6.37216 46.4081 6.57102C46.1183 6.76705 45.8953 7.02273 45.7391 7.33807C45.5828 7.65341 45.5047 7.99148 45.5047 8.35227V8.93182C45.5047 9.42614 45.5899 9.84517 45.7604 10.1889C45.9337 10.5298 46.1737 10.7898 46.4806 10.9688C46.7874 11.1449 47.1439 11.233 47.5502 11.233C47.8144 11.233 48.053 11.196 48.2661 11.1222C48.482 11.0455 48.6681 10.9318 48.8243 10.7812C48.9806 10.6278 49.1013 10.4375 49.1865 10.2102L50.1581 10.483C50.0558 10.8125 49.884 11.1023 49.6425 11.3523C49.401 11.5994 49.1027 11.7926 48.7476 11.9318C48.3925 12.0682 47.9933 12.1364 47.5502 12.1364ZM51.5502 12V5.45455H52.5218V6.44318H52.59C52.7093 6.11932 52.9252 5.85653 53.2377 5.65483C53.5502 5.45312 53.9025 5.35227 54.2945 5.35227C54.3684 5.35227 54.4607 5.35369 54.5715 5.35653C54.6823 5.35937 54.7661 5.36364 54.823 5.36932V6.39205C54.7889 6.38352 54.7107 6.37074 54.5886 6.35369C54.4693 6.33381 54.3428 6.32386 54.2093 6.32386C53.8911 6.32386 53.607 6.39062 53.357 6.52415C53.1099 6.65483 52.9139 6.83665 52.769 7.0696C52.6269 7.29972 52.5559 7.5625 52.5559 7.85795V12H51.5502ZM58.3202 12.1364C57.6895 12.1364 57.1454 11.9972 56.6881 11.7188C56.2335 11.4375 55.8827 11.0455 55.6355 10.5426C55.3912 10.0369 55.269 9.44886 55.269 8.77841C55.269 8.10795 55.3912 7.51705 55.6355 7.00568C55.8827 6.49148 56.2264 6.09091 56.6668 5.80398C57.1099 5.5142 57.627 5.36932 58.2179 5.36932C58.5588 5.36932 58.8954 5.42614 59.2278 5.53977C59.5602 5.65341 59.8628 5.83807 60.1355 6.09375C60.4082 6.34659 60.6256 6.68182 60.7875 7.09943C60.9494 7.51705 61.0304 8.03125 61.0304 8.64205V9.06818H55.9849V8.19886H60.0077C60.0077 7.82955 59.9338 7.5 59.7861 7.21023C59.6412 6.92045 59.4338 6.69176 59.1639 6.52415C58.8969 6.35653 58.5815 6.27273 58.2179 6.27273C57.8173 6.27273 57.4707 6.37216 57.1781 6.57102C56.8883 6.76705 56.6653 7.02273 56.5091 7.33807C56.3528 7.65341 56.2747 7.99148 56.2747 8.35227V8.93182C56.2747 9.42614 56.3599 9.84517 56.5304 10.1889C56.7037 10.5298 56.9437 10.7898 57.2506 10.9688C57.5574 11.1449 57.9139 11.233 58.3202 11.233C58.5844 11.233 58.823 11.196 59.0361 11.1222C59.252 11.0455 59.4381 10.9318 59.5943 10.7812C59.7506 10.6278 59.8713 10.4375 59.9565 10.2102L60.9281 10.483C60.8258 10.8125 60.654 11.1023 60.4125 11.3523C60.171 11.5994 59.8727 11.7926 59.5176 11.9318C59.1625 12.0682 58.7633 12.1364 58.3202 12.1364ZM64.7918 12.1364C64.2464 12.1364 63.7648 11.9986 63.3472 11.723C62.9296 11.4446 62.6029 11.0526 62.3671 10.5469C62.1313 10.0384 62.0134 9.4375 62.0134 8.74432C62.0134 8.05682 62.1313 7.46023 62.3671 6.95455C62.6029 6.44886 62.931 6.05824 63.3515 5.78267C63.7719 5.5071 64.2577 5.36932 64.8089 5.36932C65.235 5.36932 65.5716 5.44034 65.8188 5.58239C66.0688 5.72159 66.2591 5.88068 66.3898 6.05966C66.5233 6.2358 66.627 6.38068 66.7009 6.49432H66.7861V3.27273H67.7918V12H66.8202V10.9943H66.7009C66.627 11.1136 66.5219 11.2642 66.3856 11.446C66.2492 11.625 66.0546 11.7855 65.8018 11.9276C65.5489 12.0668 65.2123 12.1364 64.7918 12.1364ZM64.9282 11.233C65.3316 11.233 65.6725 11.1278 65.9509 10.9176C66.2293 10.7045 66.441 10.4105 66.5858 10.0355C66.7307 9.65767 66.8032 9.22159 66.8032 8.72727C66.8032 8.23864 66.7322 7.81108 66.5901 7.4446C66.4481 7.07528 66.2378 6.78835 65.9594 6.58381C65.681 6.37642 65.3373 6.27273 64.9282 6.27273C64.502 6.27273 64.1469 6.3821 63.8628 6.60085C63.5816 6.81676 63.3699 7.1108 63.2279 7.48295C63.0887 7.85227 63.0191 8.26705 63.0191 8.72727C63.0191 9.19318 63.0901 9.61648 63.2322 9.99716C63.377 10.375 63.5901 10.6761 63.8714 10.9006C64.1555 11.1222 64.5077 11.233 64.9282 11.233ZM72.8047 12V3.27273H73.8104V6.49432H73.8956C73.9695 6.38068 74.0718 6.2358 74.2024 6.05966C74.336 5.88068 74.5263 5.72159 74.7735 5.58239C75.0235 5.44034 75.3615 5.36932 75.7877 5.36932C76.3388 5.36932 76.8246 5.5071 77.2451 5.78267C77.6655 6.05824 77.9936 6.44886 78.2294 6.95455C78.4652 7.46023 78.5831 8.05682 78.5831 8.74432C78.5831 9.4375 78.4652 10.0384 78.2294 10.5469C77.9936 11.0526 77.6669 11.4446 77.2493 11.723C76.8317 11.9986 76.3502 12.1364 75.8047 12.1364C75.3843 12.1364 75.0476 12.0668 74.7948 11.9276C74.5419 11.7855 74.3473 11.625 74.211 11.446C74.0746 11.2642 73.9695 11.1136 73.8956 10.9943H73.7763V12H72.8047ZM73.7933 8.72727C73.7933 9.22159 73.8658 9.65767 74.0107 10.0355C74.1556 10.4105 74.3672 10.7045 74.6456 10.9176C74.924 11.1278 75.2649 11.233 75.6683 11.233C76.0888 11.233 76.4397 11.1222 76.7209 10.9006C77.005 10.6761 77.2181 10.375 77.3601 9.99716C77.505 9.61648 77.5774 9.19318 77.5774 8.72727C77.5774 8.26705 77.5064 7.85227 77.3644 7.48295C77.2252 7.1108 77.0135 6.81676 76.7294 6.60085C76.4482 6.3821 76.0945 6.27273 75.6683 6.27273C75.2593 6.27273 74.9155 6.37642 74.6371 6.58381C74.3587 6.78835 74.1485 7.07528 74.0064 7.4446C73.8644 7.81108 73.7933 8.23864 73.7933 8.72727ZM80.2948 14.4545C80.1244 14.4545 79.9724 14.4403 79.8389 14.4119C79.7053 14.3864 79.613 14.3608 79.5619 14.3352L79.8176 13.4489C80.0619 13.5114 80.2778 13.5341 80.4653 13.517C80.6528 13.5 80.819 13.4162 80.9639 13.2656C81.1116 13.1179 81.2465 12.8778 81.3687 12.5455L81.5562 12.0341L79.1357 5.45455H80.2266L82.0335 10.6705H82.1016L83.9085 5.45455H84.9994L82.221 12.9545C82.096 13.2926 81.9411 13.5724 81.7565 13.794C81.5718 14.0185 81.3573 14.1847 81.113 14.2926C80.8715 14.4006 80.5988 14.4545 80.2948 14.4545Z" fill="#374151"/>
<path fill-rule="evenodd" clip-rule="evenodd" d="M9.91993 34.0092L11.6545 23.8825C13.6071 23.8825 15.0932 25.5663 14.7748 27.4178L14.1685 30.9436H15.5222C16.2013 30.9436 16.8066 30.8288 17.3382 30.5993C17.8744 30.3655 18.3211 29.9758 18.6785 29.4302C19.0404 28.8803 19.3017 28.129 19.4626 27.1764C19.6144 26.2758 19.61 25.5808 19.4492 25.0915C19.2883 24.5979 18.9823 24.2558 18.5311 24.0653C18.0799 23.8705 17.4968 23.773 16.782 23.773L15.4405 23.7531C12.7152 23.7531 11.879 21.7252 11.805 20.7119H17.3497C18.7614 20.7119 19.9361 20.9823 20.8832 21.5322C21.8303 22.0822 22.5027 22.8681 22.9003 23.8899C23.2979 24.9118 23.3761 26.1286 23.1349 27.5402C22.9025 28.8998 22.4312 30.0624 21.7209 31.028C21.015 31.9936 20.1126 32.7319 19.0136 33.2428C17.919 33.7538 16.6748 34.0092 15.281 34.0092H9.91993Z" fill="url(#paint0_linear_656_25278)"/>
<path fill-rule="evenodd" clip-rule="evenodd" d="M13.1638 20.7118L17.3497 20.7118C18.7614 20.7118 19.9361 20.9822 20.8832 21.5321C21.8303 22.082 22.5027 22.8679 22.9003 23.8898C23.2979 24.9117 23.3761 26.1284 23.1349 27.54C22.9025 28.8996 22.4312 30.0623 21.7209 31.0279C21.2931 31.6131 20.793 32.1148 20.2208 32.5331C20.2223 32.5323 20.2239 32.5316 20.2254 32.5309C21.3244 32.02 22.2268 31.2817 22.9327 30.3161C23.643 29.3505 24.1144 28.1879 24.3467 26.8283C24.5879 25.4167 24.5097 24.1999 24.1121 23.178C23.7145 22.1561 23.0422 21.3702 22.095 20.8203C21.1479 20.2704 19.9732 20 18.5615 20H13.0168C13.0317 20.2043 13.0777 20.4499 13.1638 20.7118Z" fill="url(#paint1_linear_656_25278)"/>
<path fill-rule="evenodd" clip-rule="evenodd" d="M41.7027 32.0195C40.6464 32.0195 39.71 31.807 38.8937 31.3821C38.087 30.9479 37.4532 30.3567 36.9922 29.6084C36.5313 28.8509 36.3008 27.9871 36.3008 27.0172C36.3008 26.0379 36.5313 25.1742 36.9922 24.4259C37.4532 23.6684 38.087 23.0772 38.8937 22.6522C39.7004 22.2181 40.6271 22.001 41.6739 22.001C42.7303 22.001 43.6618 22.2181 44.4685 22.6522C45.2752 23.0772 45.909 23.6684 46.37 24.4259C46.831 25.1742 47.0615 26.0379 47.0615 27.0172C47.0615 27.9871 46.831 28.8509 46.37 29.6084C45.9186 30.3567 45.2896 30.9479 44.4829 31.3821C43.6762 31.807 42.7495 32.0195 41.7027 32.0195ZM41.7027 29.6638C42.2213 29.6638 42.6775 29.553 43.0712 29.3313C43.465 29.1003 43.7723 28.7862 43.9932 28.389C44.214 27.9918 44.3245 27.5345 44.3245 27.0172C44.3245 26.4998 44.2092 26.0426 43.9788 25.6453C43.7579 25.2389 43.4458 24.9248 43.0424 24.7031C42.6487 24.4721 42.1925 24.3566 41.6739 24.3566C41.1649 24.3566 40.7088 24.4721 40.3054 24.7031C39.9117 24.9248 39.5996 25.2389 39.3691 25.6453C39.1482 26.0426 39.0378 26.4998 39.0378 27.0172C39.0378 27.5345 39.153 27.9918 39.3835 28.389C39.614 28.7862 39.9261 29.1003 40.3198 29.3313C40.7232 29.553 41.1841 29.6638 41.7027 29.6638ZM29.9346 29.4283C30.3572 29.4283 30.7461 29.3682 31.1014 29.2481C31.4568 29.128 31.7641 28.9617 32.0234 28.7493C32.2827 28.5368 32.4843 28.2828 32.6284 27.9871C32.7724 27.6915 32.8445 27.3636 32.8445 27.0033C32.8445 26.643 32.7724 26.3151 32.6284 26.0195C32.4843 25.7239 32.2827 25.4698 32.0234 25.2573C31.7641 25.0449 31.4568 24.8786 31.1014 24.7585C30.7461 24.6384 30.3572 24.5784 29.9346 24.5784H29.2288V29.4283H29.9346ZM32.8589 22.777C32.0138 22.3613 31.039 22.1534 29.9346 22.1534H29.2288H27.8459H26.5638V31.8532H27.8459H29.2288H29.9346C31.039 31.8532 32.0138 31.6454 32.8589 31.2296C33.7136 30.8139 34.381 30.2412 34.8612 29.5114C35.3414 28.7816 35.5814 27.9456 35.5814 27.0033C35.5814 26.0518 35.3414 25.2158 34.8612 24.4952C34.381 23.7654 33.7136 23.1927 32.8589 22.777ZM50.7494 26.8461L47.0431 31.8532H50.2554L52.2261 28.9758L54.188 31.8532H57.4004L53.7126 26.8397L57.2852 22.1534H54.1016L52.229 24.781L50.3419 22.1534H47.1583L50.7494 26.8461ZM63.8144 29.9132L61.0774 26.122V31.8532H58.4125V22.4305V22.1534H59.7233H61.0774H61.3655L63.8 25.6218L66.2345 22.1534H66.5226H67.9055H69.1875V22.389V31.8532H66.5226V26.1208L63.8144 29.9132ZM77.3294 30.3012L77.9194 31.8532H80.7428L76.8822 22.1534H76.6662H74.2317H74.0156L70.155 31.8532H72.9785L73.5685 30.3012H77.3294ZM76.4707 28.0426L75.4489 25.3551L74.4272 28.0426H76.4707ZM82.7876 31.8532V24.5091H79.9354V22.1534H88.2903V24.5091H85.4525V31.8532H82.7876ZM89.4033 22.1534V31.8532H91.2759H92.0682H96.2601V29.4975H92.0682V28.1396H95.3814V25.8532H92.0682V24.5091H96.1593V22.1534H92.0682H91.2759H89.4033Z" fill="#344054"/>
<defs>
<linearGradient id="paint0_linear_656_25278" x1="23.2715" y1="20.7074" x2="10.4674" y2="34.5169" gradientUnits="userSpaceOnUse">
<stop stop-color="#7B79FF"/>
<stop offset="1" stop-color="#4240B8"/>
</linearGradient>
<linearGradient id="paint1_linear_656_25278" x1="24.4742" y1="20" x2="15.7903" y2="27.7875" gradientUnits="userSpaceOnUse">
<stop stop-color="#7B79FF"/>
<stop offset="1" stop-color="#7B79FF" stop-opacity="0"/>
</linearGradient>
</defs>
</svg>
