<svg width="509" height="584" viewBox="0 0 509 584" fill="none" xmlns="http://www.w3.org/2000/svg">
<path d="M186.867 110.068C221.799 49.5641 299.165 28.8338 359.669 63.7659L399.139 86.5541C459.643 121.486 480.374 198.852 445.442 259.356L321.825 473.467C286.893 533.971 209.527 554.701 149.023 519.769L109.552 496.981C49.0482 462.049 28.318 384.682 63.25 324.178L186.867 110.068Z" fill="#EAEDFE"/>
<path d="M312.5 435.362L309 422.465L323 418L323.5 434.37L312.5 435.362Z" fill="#B88B60"/>
<path d="M323.918 432.514C321.128 433.704 314.618 434.002 311.712 434.002H311.276L310.404 446.404H344.842C351.469 446.404 348.185 443.097 345.714 441.443C339.437 441.443 328.568 435.49 323.918 432.514Z" fill="#1D104A"/>
<path d="M263.247 435.362L266.747 422.465L252.747 418L252.247 434.37L263.247 435.362Z" fill="#B88B60"/>
<path d="M251.829 432.514C254.619 433.704 261.129 434.002 264.035 434.002H264.471L265.343 446.404H230.904C224.278 446.404 227.562 443.097 230.032 441.443C236.31 441.443 247.179 435.49 251.829 432.514Z" fill="#1D104A"/>
<path d="M268.161 142.915L269.54 137.819L272.018 133.206C273.401 132.415 278.811 131.409 289.384 133.713C299.958 136.016 294.199 154.725 290.049 164L290.047 175.408C283.271 178.863 276.049 175.542 276.049 172.5L276.049 166C273.997 166.343 271.289 166.682 269.767 166.316C267.185 165.697 268.39 162.573 269.314 161.089C268.575 160.691 268.297 159.77 268.694 159.03L267.924 158.394C267.588 158.117 267.459 157.661 267.599 157.249C267.846 156.521 267.531 155.721 266.854 155.358L265.496 154.628C264.952 154.336 264.8 153.625 265.178 153.136L267.99 149.497C268.527 148.802 268.666 147.879 268.357 147.056C267.86 145.73 267.791 144.282 268.161 142.915Z" fill="#F3AEAE"/>
<path d="M286.592 162.899L288.544 165.755C288.971 166.38 289.912 166.322 290.259 165.648L296.124 154.247C297.516 151.54 298.636 148.635 298.504 145.594C298.26 139.935 295.866 132.538 287.641 129.527C274.182 124.6 270.506 131.446 269.98 131.355C269.559 131.282 268.979 130.242 268.742 129.731C268.551 130.089 268.572 131.238 268.607 131.768C267.664 130.955 268.28 129.164 268.707 128.37C262.527 135.022 265.546 139.135 267.828 140.36C270.23 140.053 275.307 139.929 276.398 141.895C277.762 144.353 277.018 143.954 279.835 145.85C282.088 147.366 280.994 152.735 280.165 155.23L278.807 157.76L282.397 156.429C282.75 152.63 285.53 150.953 286.876 150.59C290.418 151.418 288.163 159.141 286.592 162.899Z" fill="#393939"/>
<path d="M276 167.5L271.5 169L266.5 247.5H295.5V167.5H290L289.908 168.974C289.679 172.642 286.636 175.5 282.961 175.5C279.116 175.5 276 172.384 276 168.539V167.5Z" fill="white"/>
<path d="M225.644 159.168C218.405 160.779 219.526 172.916 221.404 178.728L229 179C226.838 174.91 233.892 167.753 231.41 166.785C229.497 166.038 229.582 167.638 228.321 169.853C226.832 168.444 226.476 163.311 226.751 160.28C226.81 159.628 226.283 159.026 225.644 159.168Z" fill="#EA8F72"/>
<path d="M274.623 221.132C274.306 228.541 286.319 230.599 292.419 230.29L294.648 223.023C290.138 224.053 285.05 215.386 283.472 217.533C282.256 219.188 283.823 219.52 285.637 221.311C283.891 222.385 278.84 221.4 275.983 220.35C275.369 220.125 274.651 220.478 274.623 221.132Z" fill="#EA8F72"/>
<path d="M310 247H254L250 431.5H267L278 297L307.5 431.5H325.5L310 247Z" fill="#333333"/>
<path d="M266 284L271.5 169L269.5 169.5C268.5 170 268.6 169.9 257 173.5C245.4 177.1 238.167 198.667 236 209L229.5 178.5H221L223.02 222.544C223.289 228.395 228.111 233 233.968 233C238.253 233 242.145 230.503 243.93 226.607L252 209C248 232.5 239.9 280.4 239.5 284C239.1 287.6 257 285.5 266 284Z" fill="#4885FC"/>
<mask id="mask0" mask-type="alpha" maskUnits="userSpaceOnUse" x="221" y="169" width="51" height="117">
<path d="M266 284L271.5 169L269.5 169.5C268.5 170 268.6 169.9 257 173.5C245.4 177.1 238.167 198.667 236 209L229.5 178.5H221L223.02 222.544C223.289 228.395 228.111 233 233.968 233C238.253 233 242.145 230.503 243.93 226.607L252 209C248 232.5 239.9 280.4 239.5 284C239.1 287.6 257 285.5 266 284Z" fill="#DEECF9"/>
</mask>
<g mask="url(#mask0)">
<circle cx="233" cy="238" r="12" fill="#BFCEE1" fill-opacity="0.3"/>
<line x1="269.499" y1="168.025" x2="263.499" y2="287.025" stroke="#1764FA"/>
<path d="M236 214.5L235.5 204V199.5L237.5 200.5L236 214.5Z" fill="#285EC8"/>
</g>
<path fill-rule="evenodd" clip-rule="evenodd" d="M325 184C321.8 178.4 304 170.334 295.5 167L293.851 222.829L292 222.5V230.5C292.502 230.661 293.039 230.833 293.609 231.016L292 285.5H321L316.656 238.29C321.97 239.942 326.95 241.465 330.5 242.5C340.1 245.3 341.833 235.667 341.5 230.5C337.333 217.334 328.2 189.6 325 184ZM313.5 204L323.5 230L314 227.5L313.5 204Z" fill="#4885FC"/>
<path d="M292 222.5V230.5L323.5 240.5L324 230L292 222.5Z" fill="url(#paint0_linear)"/>
<mask id="mask1" mask-type="alpha" maskUnits="userSpaceOnUse" x="292" y="167" width="50" height="119">
<path fill-rule="evenodd" clip-rule="evenodd" d="M325 184C321.8 178.4 304 170.334 295.5 167L293.851 222.834L292 222.5V230.5C292.502 230.661 293.039 230.833 293.609 231.016L292 285.5H321L316.656 238.29C321.97 239.942 326.95 241.465 330.5 242.5C340.1 245.3 341.833 235.667 341.5 230.5C337.333 217.334 328.2 189.6 325 184ZM313.5 204L322.5 228L315.5 225L313.5 204Z" fill="#4885FC"/>
</mask>
<g mask="url(#mask1)">
<line x1="297.5" y1="165" x2="297.5" y2="224" stroke="#C9DBEF"/>
<line x1="297.5" y1="231" x2="297.5" y2="287" stroke="#C9DBEF"/>
<circle cx="344" cy="242" r="12" fill="#BFCEE1" fill-opacity="0.3"/>
<path d="M327 232L323.5 230L323 228.5L327 232Z" fill="#7D809D"/>
</g>
<g filter="url(#filter0_d)">
<rect x="87" y="270" width="120" height="93" fill="white"/>
<rect x="102" y="298" width="14" height="56" fill="#50A3FF"/>
<rect x="102" y="298" width="14" height="56" fill="#D4E8FD"/>
<rect x="127" y="298" width="14" height="56" fill="#50A3FF"/>
<rect x="127" y="298" width="14" height="56" fill="#D4E8FD"/>
<rect x="152" y="298" width="14" height="56" fill="#50A3FF"/>
<rect x="152" y="298" width="14" height="56" fill="#D4E8FD"/>
<rect x="177" y="298" width="14" height="56" fill="#50A3FF"/>
<rect x="177" y="298" width="14" height="56" fill="#D4E8FD"/>
<rect x="102" y="331" width="14" height="23" fill="#50A3FF"/>
<rect x="127" y="323" width="14" height="31" fill="#50A3FF"/>
<rect x="152" y="309" width="14" height="45" fill="#50A3FF"/>
<rect x="177" y="298" width="14" height="56" fill="#50A3FF"/>
<line x1="102" y1="280.5" x2="138" y2="280.5" stroke="#0162CD"/>
</g>
<g filter="url(#filter1_d)">
<rect x="123" y="131" width="82" height="82" fill="#FCB435"/>
<circle cx="195" cy="143" r="5" fill="white"/>
<circle cx="135.5" cy="169.5" r="1.5" fill="white"/>
<circle cx="163.5" cy="171.5" r="28" stroke="white" stroke-opacity="0.16"/>
<path d="M135.5 171C135.5 186.74 147.76 200 163.5 200C179.24 200 192 187.24 192 171.5C192 155.76 179.24 143.5 163.5 143.5" stroke="white" stroke-linecap="round"/>
</g>
<defs>
<filter id="filter0_d" x="83" y="270" width="128" height="101" filterUnits="userSpaceOnUse" color-interpolation-filters="sRGB">
<feFlood flood-opacity="0" result="BackgroundImageFix"/>
<feColorMatrix in="SourceAlpha" type="matrix" values="0 0 0 0 0 0 0 0 0 0 0 0 0 0 0 0 0 0 127 0"/>
<feOffset dy="4"/>
<feGaussianBlur stdDeviation="2"/>
<feColorMatrix type="matrix" values="0 0 0 0 0 0 0 0 0 0 0 0 0 0 0 0 0 0 0.25 0"/>
<feBlend mode="normal" in2="BackgroundImageFix" result="effect1_dropShadow"/>
<feBlend mode="normal" in="SourceGraphic" in2="effect1_dropShadow" result="shape"/>
</filter>
<filter id="filter1_d" x="119" y="131" width="90" height="90" filterUnits="userSpaceOnUse" color-interpolation-filters="sRGB">
<feFlood flood-opacity="0" result="BackgroundImageFix"/>
<feColorMatrix in="SourceAlpha" type="matrix" values="0 0 0 0 0 0 0 0 0 0 0 0 0 0 0 0 0 0 127 0"/>
<feOffset dy="4"/>
<feGaussianBlur stdDeviation="2"/>
<feColorMatrix type="matrix" values="0 0 0 0 0 0 0 0 0 0 0 0 0 0 0 0 0 0 0.25 0"/>
<feBlend mode="normal" in2="BackgroundImageFix" result="effect1_dropShadow"/>
<feBlend mode="normal" in="SourceGraphic" in2="effect1_dropShadow" result="shape"/>
</filter>
<linearGradient id="paint0_linear" x1="292.5" y1="227" x2="325.5" y2="236" gradientUnits="userSpaceOnUse">
<stop stop-color="#266DF7"/>
<stop offset="1" stop-color="#4885FC"/>
</linearGradient>
</defs>
</svg>
