<svg width="28" height="23" viewBox="0 0 28 23" fill="none" xmlns="http://www.w3.org/2000/svg">
<path d="M19.6667 22V19.6667C19.6667 18.429 19.175 17.242 18.2998 16.3668C17.4247 15.4917 16.2377 15 15 15H5.66667C4.42899 15 3.242 15.4917 2.36684 16.3668C1.49167 17.242 1 18.429 1 19.6667V22" stroke="white" stroke-width="2" stroke-linecap="round" stroke-linejoin="round"/>
<path d="M10.3327 10.3333C12.91 10.3333 14.9993 8.244 14.9993 5.66667C14.9993 3.08934 12.91 1 10.3327 1C7.75535 1 5.66602 3.08934 5.66602 5.66667C5.66602 8.244 7.75535 10.3333 10.3327 10.3333Z" stroke="white" stroke-width="2" stroke-linecap="round" stroke-linejoin="round"/>
<path d="M26.666 22V19.6667C26.6652 18.6327 26.3211 17.6282 25.6876 16.811C25.0541 15.9938 24.1672 15.4102 23.166 15.1517" stroke="white" stroke-width="2" stroke-linecap="round" stroke-linejoin="round"/>
<path d="M18.5 1.15167C19.5038 1.40869 20.3935 1.99249 21.0289 2.81103C21.6643 3.62958 22.0092 4.63631 22.0092 5.67251C22.0092 6.7087 21.6643 7.71543 21.0289 8.53398C20.3935 9.35252 19.5038 9.93632 18.5 10.1933" stroke="white" stroke-width="2" stroke-linecap="round" stroke-linejoin="round"/>
</svg>
