<svg width="20" height="24" viewBox="0 0 20 24" fill="none" xmlns="http://www.w3.org/2000/svg">
<path d="M15.5304 5.02091H19.3645C19.6193 5.02091 19.826 4.80278 19.826 4.5341V0.486761C19.826 0.218033 19.6193 0 19.3645 0H15.5304C15.2754 0 15.0689 0.218082 15.0689 0.486761V1.70708H9.83584C9.41515 1.70708 9.07463 2.06676 9.07463 2.51038V11.1966H6.37789V9.28711C6.37789 8.92665 6.10134 8.63442 5.75943 8.63442H0.6186C0.276555 8.63442 0 8.92665 0 9.28711V14.7133C0 15.0737 0.276509 15.366 0.6186 15.366H5.75948C6.10134 15.366 6.37794 15.0737 6.37794 14.7133V12.8033H9.07467V21.4896C9.07467 21.9331 9.41515 22.2929 9.83589 22.2929H15.069V23.5132C15.069 23.7819 15.2754 24 15.5305 24H19.3646C19.6194 24 19.8261 23.7818 19.8261 23.5132V19.4659C19.8261 19.1972 19.6194 18.979 19.3646 18.979H15.5305C15.2754 18.979 15.069 19.1972 15.069 19.4659V20.6862H10.5971V12.8034H15.069V14.0237C15.069 14.2924 15.2754 14.5105 15.5305 14.5105H19.3646C19.6194 14.5105 19.8261 14.2924 19.8261 14.0237V9.9764C19.8261 9.70773 19.6194 9.48959 19.3646 9.48959H15.5305C15.2754 9.48959 15.069 9.70773 15.069 9.9764V11.1967H10.5971V3.31383H15.069V4.5341C15.0689 4.80278 15.2754 5.02091 15.5304 5.02091Z" fill="white"/>
</svg>
