<svg width="32" height="32" viewBox="0 0 32 32" fill="none" xmlns="http://www.w3.org/2000/svg">
<path d="M15.72 15.8397C15 15.8397 14.2667 15.7063 13.6933 15.453L5.82666 11.9597C3.82666 11.0663 3.53333 9.86634 3.53333 9.21301C3.53333 8.55967 3.82666 7.35967 5.82666 6.46634L13.6933 2.97301C14.8533 2.45301 16.6 2.45301 17.76 2.97301L25.64 6.46634C27.6267 7.34634 27.9333 8.55967 27.9333 9.21301C27.9333 9.86634 27.64 11.0663 25.64 11.9597L17.76 15.453C17.1733 15.7197 16.4533 15.8397 15.72 15.8397ZM15.72 4.58634C15.2667 4.58634 14.8267 4.65301 14.5067 4.79967L6.63999 8.29301C5.82666 8.66634 5.53333 9.03967 5.53333 9.21301C5.53333 9.38634 5.82666 9.77301 6.62666 10.133L14.4933 13.6263C15.1333 13.9063 16.2933 13.9063 16.9333 13.6263L24.8133 10.133C25.6267 9.77301 25.92 9.38634 25.92 9.21301C25.92 9.03967 25.6267 8.65301 24.8133 8.29301L16.9467 4.79967C16.6267 4.66634 16.1733 4.58634 15.72 4.58634Z" fill="#4B5563"/>
<path d="M16 22.787C15.4933 22.787 14.9867 22.6803 14.5067 22.467L5.45333 18.4403C4.08 17.8403 3 16.1737 3 14.667C3 14.1203 3.45333 13.667 4 13.667C4.54667 13.667 5 14.1203 5 14.667C5 15.4003 5.6 16.3203 6.26667 16.627L15.32 20.6537C15.7467 20.8403 16.24 20.8403 16.68 20.6537L25.7333 16.627C26.4 16.3337 27 15.4003 27 14.667C27 14.1203 27.4533 13.667 28 13.667C28.5467 13.667 29 14.1203 29 14.667C29 16.1737 27.92 17.8403 26.5467 18.4537L17.4933 22.4803C17.0133 22.6803 16.5067 22.787 16 22.787Z" fill="#4B5563"/>
<path d="M16 29.4536C15.4933 29.4536 14.9867 29.347 14.5067 29.1336L5.45333 25.107C3.96 24.4403 3 22.9603 3 21.3203C3 20.7736 3.45333 20.3203 4 20.3203C4.54667 20.3203 5 20.787 5 21.3336C5 22.1736 5.49333 22.947 6.26667 23.2936L15.32 27.3203C15.7467 27.507 16.24 27.507 16.68 27.3203L25.7333 23.2936C26.5067 22.947 27 22.187 27 21.3336C27 20.787 27.4533 20.3336 28 20.3336C28.5467 20.3336 29 20.787 29 21.3336C29 22.9736 28.04 24.4536 26.5467 25.1203L17.4933 29.147C17.0133 29.347 16.5067 29.4536 16 29.4536Z" fill="#4B5563"/>
</svg>
