<svg width="83" height="26" viewBox="0 0 83 26" fill="none" xmlns="http://www.w3.org/2000/svg">
<rect opacity="0.3" width="83" height="26" rx="13" fill="#35B44B"/>
<path d="M29.4443 8.66C30.3323 8.66 31.1083 8.832 31.7723 9.176C32.4443 9.512 32.9603 10 33.3203 10.64C33.6883 11.272 33.8723 12.012 33.8723 12.86C33.8723 13.708 33.6883 14.444 33.3203 15.068C32.9603 15.692 32.4443 16.172 31.7723 16.508C31.1083 16.836 30.3323 17 29.4443 17H26.7203V8.66H29.4443ZM29.4443 15.884C30.4203 15.884 31.1683 15.62 31.6883 15.092C32.2083 14.564 32.4683 13.82 32.4683 12.86C32.4683 11.892 32.2083 11.136 31.6883 10.592C31.1683 10.048 30.4203 9.776 29.4443 9.776H28.0883V15.884H29.4443ZM38.0961 17.108C37.4721 17.108 36.9081 16.968 36.4041 16.688C35.9001 16.4 35.5041 16 35.2161 15.488C34.9281 14.968 34.7841 14.368 34.7841 13.688C34.7841 13.016 34.9321 12.42 35.2281 11.9C35.5241 11.38 35.9281 10.98 36.4401 10.7C36.9521 10.42 37.5241 10.28 38.1561 10.28C38.7881 10.28 39.3601 10.42 39.8721 10.7C40.3841 10.98 40.7881 11.38 41.0841 11.9C41.3801 12.42 41.5281 13.016 41.5281 13.688C41.5281 14.36 41.3761 14.956 41.0721 15.476C40.7681 15.996 40.3521 16.4 39.8241 16.688C39.3041 16.968 38.7281 17.108 38.0961 17.108ZM38.0961 15.92C38.4481 15.92 38.7761 15.836 39.0801 15.668C39.3921 15.5 39.6441 15.248 39.8361 14.912C40.0281 14.576 40.1241 14.168 40.1241 13.688C40.1241 13.208 40.0321 12.804 39.8481 12.476C39.6641 12.14 39.4201 11.888 39.1161 11.72C38.8121 11.552 38.4841 11.468 38.1321 11.468C37.7801 11.468 37.4521 11.552 37.1481 11.72C36.8521 11.888 36.6161 12.14 36.4401 12.476C36.2641 12.804 36.1761 13.208 36.1761 13.688C36.1761 14.4 36.3561 14.952 36.7161 15.344C37.0841 15.728 37.5441 15.92 38.0961 15.92ZM46.2165 10.28C46.7365 10.28 47.2005 10.388 47.6085 10.604C48.0245 10.82 48.3485 11.14 48.5805 11.564C48.8125 11.988 48.9285 12.5 48.9285 13.1V17H47.5725V13.304C47.5725 12.712 47.4245 12.26 47.1285 11.948C46.8325 11.628 46.4285 11.468 45.9165 11.468C45.4045 11.468 44.9965 11.628 44.6925 11.948C44.3965 12.26 44.2485 12.712 44.2485 13.304V17H42.8805V10.388H44.2485V11.144C44.4725 10.872 44.7565 10.66 45.1005 10.508C45.4525 10.356 45.8245 10.28 46.2165 10.28ZM56.7334 13.532C56.7334 13.78 56.7174 14.004 56.6854 14.204H51.6334C51.6734 14.732 51.8694 15.156 52.2214 15.476C52.5734 15.796 53.0054 15.956 53.5174 15.956C54.2534 15.956 54.7734 15.648 55.0774 15.032H56.5534C56.3534 15.64 55.9894 16.14 55.4614 16.532C54.9414 16.916 54.2934 17.108 53.5174 17.108C52.8854 17.108 52.3174 16.968 51.8134 16.688C51.3174 16.4 50.9254 16 50.6374 15.488C50.3574 14.968 50.2174 14.368 50.2174 13.688C50.2174 13.008 50.3534 12.412 50.6254 11.9C50.9054 11.38 51.2934 10.98 51.7894 10.7C52.2934 10.42 52.8694 10.28 53.5174 10.28C54.1414 10.28 54.6974 10.416 55.1854 10.688C55.6734 10.96 56.0534 11.344 56.3254 11.84C56.5974 12.328 56.7334 12.892 56.7334 13.532ZM55.3054 13.1C55.2974 12.596 55.1174 12.192 54.7654 11.888C54.4134 11.584 53.9774 11.432 53.4574 11.432C52.9854 11.432 52.5814 11.584 52.2454 11.888C51.9094 12.184 51.7094 12.588 51.6454 13.1H55.3054Z" fill="#35B44B"/>
</svg>
