<svg width="31" height="31" viewBox="0 0 31 31" fill="none" xmlns="http://www.w3.org/2000/svg">
<rect width="31" height="31" rx="8" fill="#F9FAFB"/>
<path d="M15.5001 12.3337C16.3709 12.3337 17.0834 11.6212 17.0834 10.7503C17.0834 9.87949 16.3709 9.16699 15.5001 9.16699C14.6292 9.16699 13.9167 9.87949 13.9167 10.7503C13.9167 11.6212 14.6292 12.3337 15.5001 12.3337ZM15.5001 13.917C14.6292 13.917 13.9167 14.6295 13.9167 15.5003C13.9167 16.3712 14.6292 17.0837 15.5001 17.0837C16.3709 17.0837 17.0834 16.3712 17.0834 15.5003C17.0834 14.6295 16.3709 13.917 15.5001 13.917ZM15.5001 18.667C14.6292 18.667 13.9167 19.3795 13.9167 20.2503C13.9167 21.1212 14.6292 21.8337 15.5001 21.8337C16.3709 21.8337 17.0834 21.1212 17.0834 20.2503C17.0834 19.3795 16.3709 18.667 15.5001 18.667Z" fill="#4B5563"/>
</svg>
