<svg width="25" height="25" viewBox="0 0 25 25" fill="none" xmlns="http://www.w3.org/2000/svg">
<path fill-rule="evenodd" clip-rule="evenodd" d="M22.4852 3.4415H14.5711V1.57666L1.5625 3.58447V21.1837L14.5711 23.4243V20.6603H22.4852C22.7248 20.6724 22.9596 20.5891 23.138 20.4287C23.3165 20.2682 23.4242 20.0436 23.4375 19.804V4.29697C23.424 4.05749 23.3162 3.83309 23.1378 3.6728C22.9593 3.51251 22.7247 3.42936 22.4852 3.4415V3.4415ZM22.6102 19.9462H14.5445L14.5313 18.4704H16.4742V16.7517H14.5164L14.507 15.736H16.4742V14.0173H14.4922L14.4828 13.0017H16.4742V11.2829H14.4766V10.2673H16.4742V8.54854H14.4766V7.53291H16.4742V5.81416H14.4766V4.25166H22.6102V19.9462Z" fill="#20744A"/>
<path d="M17.5674 5.81201H20.9447V7.53076H17.5674V5.81201Z" fill="#20744A"/>
<path d="M17.5674 8.54688H20.9447V10.2656H17.5674V8.54688Z" fill="#20744A"/>
<path d="M17.5674 11.2822H20.9447V13.001H17.5674V11.2822Z" fill="#20744A"/>
<path d="M17.5674 14.0171H20.9447V15.7358H17.5674V14.0171Z" fill="#20744A"/>
<path d="M17.5674 16.7524H20.9447V18.4712H17.5674V16.7524Z" fill="#20744A"/>
<path fill-rule="evenodd" clip-rule="evenodd" d="M4.9582 8.33857L6.63477 8.24248L7.68867 11.1401L8.93398 8.12295L10.6105 8.02686L8.57461 12.1409L10.6105 16.2651L8.83789 16.1456L7.64102 13.0019L6.44336 16.0261L4.81445 15.8823L6.70664 12.2394L4.9582 8.33857V8.33857Z" fill="white"/>
</svg>
