<svg width="124" height="26" viewBox="0 0 124 26" fill="none" xmlns="http://www.w3.org/2000/svg">
<rect opacity="0.3" width="124" height="26" rx="13" fill="#B43535"/>
<path d="M23.7559 17H22.3879L18.2719 10.772V17H16.9039V8.648H18.2719L22.3879 14.864V8.648H23.7559V17ZM28.4203 17.108C27.7963 17.108 27.2323 16.968 26.7283 16.688C26.2243 16.4 25.8283 16 25.5403 15.488C25.2523 14.968 25.1083 14.368 25.1083 13.688C25.1083 13.016 25.2563 12.42 25.5523 11.9C25.8483 11.38 26.2523 10.98 26.7643 10.7C27.2763 10.42 27.8483 10.28 28.4803 10.28C29.1123 10.28 29.6843 10.42 30.1963 10.7C30.7083 10.98 31.1123 11.38 31.4083 11.9C31.7043 12.42 31.8523 13.016 31.8523 13.688C31.8523 14.36 31.7003 14.956 31.3963 15.476C31.0923 15.996 30.6763 16.4 30.1483 16.688C29.6283 16.968 29.0523 17.108 28.4203 17.108ZM28.4203 15.92C28.7723 15.92 29.1003 15.836 29.4043 15.668C29.7163 15.5 29.9683 15.248 30.1603 14.912C30.3523 14.576 30.4483 14.168 30.4483 13.688C30.4483 13.208 30.3563 12.804 30.1723 12.476C29.9883 12.14 29.7443 11.888 29.4403 11.72C29.1363 11.552 28.8083 11.468 28.4563 11.468C28.1043 11.468 27.7763 11.552 27.4723 11.72C27.1763 11.888 26.9403 12.14 26.7643 12.476C26.5883 12.804 26.5003 13.208 26.5003 13.688C26.5003 14.4 26.6803 14.952 27.0403 15.344C27.4083 15.728 27.8683 15.92 28.4203 15.92ZM34.8007 11.504V15.164C34.8007 15.412 34.8567 15.592 34.9687 15.704C35.0887 15.808 35.2887 15.86 35.5687 15.86H36.4087V17H35.3287C34.7127 17 34.2407 16.856 33.9127 16.568C33.5847 16.28 33.4207 15.812 33.4207 15.164V11.504H32.6407V10.388H33.4207V8.744H34.8007V10.388H36.4087V11.504H34.8007ZM40.3307 12.812C40.3307 11.996 40.5187 11.264 40.8947 10.616C41.2787 9.968 41.7947 9.464 42.4427 9.104C43.0987 8.736 43.8147 8.552 44.5907 8.552C45.4787 8.552 46.2667 8.772 46.9547 9.212C47.6507 9.644 48.1547 10.26 48.4667 11.06H46.8227C46.6067 10.62 46.3067 10.292 45.9227 10.076C45.5387 9.86 45.0947 9.752 44.5907 9.752C44.0387 9.752 43.5467 9.876 43.1147 10.124C42.6827 10.372 42.3427 10.728 42.0947 11.192C41.8547 11.656 41.7347 12.196 41.7347 12.812C41.7347 13.428 41.8547 13.968 42.0947 14.432C42.3427 14.896 42.6827 15.256 43.1147 15.512C43.5467 15.76 44.0387 15.884 44.5907 15.884C45.0947 15.884 45.5387 15.776 45.9227 15.56C46.3067 15.344 46.6067 15.016 46.8227 14.576H48.4667C48.1547 15.376 47.6507 15.992 46.9547 16.424C46.2667 16.856 45.4787 17.072 44.5907 17.072C43.8067 17.072 43.0907 16.892 42.4427 16.532C41.7947 16.164 41.2787 15.656 40.8947 15.008C40.5187 14.36 40.3307 13.628 40.3307 12.812ZM52.936 17.108C52.312 17.108 51.748 16.968 51.244 16.688C50.74 16.4 50.344 16 50.056 15.488C49.768 14.968 49.624 14.368 49.624 13.688C49.624 13.016 49.772 12.42 50.068 11.9C50.364 11.38 50.768 10.98 51.28 10.7C51.792 10.42 52.364 10.28 52.996 10.28C53.628 10.28 54.2 10.42 54.712 10.7C55.224 10.98 55.628 11.38 55.924 11.9C56.22 12.42 56.368 13.016 56.368 13.688C56.368 14.36 56.216 14.956 55.912 15.476C55.608 15.996 55.192 16.4 54.664 16.688C54.144 16.968 53.568 17.108 52.936 17.108ZM52.936 15.92C53.288 15.92 53.616 15.836 53.92 15.668C54.232 15.5 54.484 15.248 54.676 14.912C54.868 14.576 54.964 14.168 54.964 13.688C54.964 13.208 54.872 12.804 54.688 12.476C54.504 12.14 54.26 11.888 53.956 11.72C53.652 11.552 53.324 11.468 52.972 11.468C52.62 11.468 52.292 11.552 51.988 11.72C51.692 11.888 51.456 12.14 51.28 12.476C51.104 12.804 51.016 13.208 51.016 13.688C51.016 14.4 51.196 14.952 51.556 15.344C51.924 15.728 52.384 15.92 52.936 15.92ZM65.7243 10.28C66.2443 10.28 66.7083 10.388 67.1163 10.604C67.5323 10.82 67.8563 11.14 68.0883 11.564C68.3283 11.988 68.4483 12.5 68.4483 13.1V17H67.0923V13.304C67.0923 12.712 66.9443 12.26 66.6483 11.948C66.3523 11.628 65.9483 11.468 65.4363 11.468C64.9243 11.468 64.5163 11.628 64.2123 11.948C63.9163 12.26 63.7683 12.712 63.7683 13.304V17H62.4123V13.304C62.4123 12.712 62.2643 12.26 61.9683 11.948C61.6723 11.628 61.2683 11.468 60.7563 11.468C60.2443 11.468 59.8363 11.628 59.5323 11.948C59.2363 12.26 59.0883 12.712 59.0883 13.304V17H57.7203V10.388H59.0883V11.144C59.3123 10.872 59.5963 10.66 59.9403 10.508C60.2843 10.356 60.6523 10.28 61.0443 10.28C61.5723 10.28 62.0443 10.392 62.4603 10.616C62.8763 10.84 63.1963 11.164 63.4203 11.588C63.6203 11.188 63.9323 10.872 64.3563 10.64C64.7803 10.4 65.2363 10.28 65.7243 10.28ZM71.5571 11.36C71.7891 11.056 72.1051 10.8 72.5051 10.592C72.9051 10.384 73.3571 10.28 73.8611 10.28C74.4371 10.28 74.9611 10.424 75.4331 10.712C75.9131 10.992 76.2891 11.388 76.5611 11.9C76.8331 12.412 76.9691 13 76.9691 13.664C76.9691 14.328 76.8331 14.924 76.5611 15.452C76.2891 15.972 75.9131 16.38 75.4331 16.676C74.9611 16.964 74.4371 17.108 73.8611 17.108C73.3571 17.108 72.9091 17.008 72.5171 16.808C72.1251 16.6 71.8051 16.344 71.5571 16.04V20.144H70.1891V10.388H71.5571V11.36ZM75.5771 13.664C75.5771 13.208 75.4811 12.816 75.2891 12.488C75.1051 12.152 74.8571 11.9 74.5451 11.732C74.2411 11.556 73.9131 11.468 73.5611 11.468C73.2171 11.468 72.8891 11.556 72.5771 11.732C72.2731 11.908 72.0251 12.164 71.8331 12.5C71.6491 12.836 71.5571 13.232 71.5571 13.688C71.5571 14.144 71.6491 14.544 71.8331 14.888C72.0251 15.224 72.2731 15.48 72.5771 15.656C72.8891 15.832 73.2171 15.92 73.5611 15.92C73.9131 15.92 74.2411 15.832 74.5451 15.656C74.8571 15.472 75.1051 15.208 75.2891 14.864C75.4811 14.52 75.5771 14.12 75.5771 13.664ZM79.6899 8.12V17H78.3219V8.12H79.6899ZM87.5459 13.532C87.5459 13.78 87.5299 14.004 87.4979 14.204H82.4459C82.4859 14.732 82.6819 15.156 83.0339 15.476C83.3859 15.796 83.8179 15.956 84.3299 15.956C85.0659 15.956 85.5859 15.648 85.8899 15.032H87.3659C87.1659 15.64 86.8019 16.14 86.2739 16.532C85.7539 16.916 85.1059 17.108 84.3299 17.108C83.6979 17.108 83.1299 16.968 82.6259 16.688C82.1299 16.4 81.7379 16 81.4499 15.488C81.1699 14.968 81.0299 14.368 81.0299 13.688C81.0299 13.008 81.1659 12.412 81.4379 11.9C81.7179 11.38 82.1059 10.98 82.6019 10.7C83.1059 10.42 83.6819 10.28 84.3299 10.28C84.9539 10.28 85.5099 10.416 85.9979 10.688C86.4859 10.96 86.8659 11.344 87.1379 11.84C87.4099 12.328 87.5459 12.892 87.5459 13.532ZM86.1179 13.1C86.1099 12.596 85.9299 12.192 85.5779 11.888C85.2259 11.584 84.7899 11.432 84.2699 11.432C83.7979 11.432 83.3939 11.584 83.0579 11.888C82.7219 12.184 82.5219 12.588 82.4579 13.1H86.1179ZM90.4882 11.504V15.164C90.4882 15.412 90.5442 15.592 90.6562 15.704C90.7762 15.808 90.9762 15.86 91.2562 15.86H92.0962V17H91.0162C90.4002 17 89.9282 16.856 89.6002 16.568C89.2722 16.28 89.1082 15.812 89.1082 15.164V11.504H88.3282V10.388H89.1082V8.744H90.4882V10.388H92.0962V11.504H90.4882ZM99.417 13.532C99.417 13.78 99.401 14.004 99.369 14.204H94.317C94.357 14.732 94.553 15.156 94.905 15.476C95.257 15.796 95.689 15.956 96.201 15.956C96.937 15.956 97.457 15.648 97.761 15.032H99.237C99.037 15.64 98.673 16.14 98.145 16.532C97.625 16.916 96.977 17.108 96.201 17.108C95.569 17.108 95.001 16.968 94.497 16.688C94.001 16.4 93.609 16 93.321 15.488C93.041 14.968 92.901 14.368 92.901 13.688C92.901 13.008 93.037 12.412 93.309 11.9C93.589 11.38 93.977 10.98 94.473 10.7C94.977 10.42 95.553 10.28 96.201 10.28C96.825 10.28 97.381 10.416 97.869 10.688C98.357 10.96 98.737 11.344 99.009 11.84C99.281 12.328 99.417 12.892 99.417 13.532ZM97.989 13.1C97.981 12.596 97.801 12.192 97.449 11.888C97.097 11.584 96.661 11.432 96.141 11.432C95.669 11.432 95.265 11.584 94.929 11.888C94.593 12.184 94.393 12.588 94.329 13.1H97.989ZM100.307 13.664C100.307 13 100.443 12.412 100.715 11.9C100.995 11.388 101.371 10.992 101.843 10.712C102.323 10.424 102.855 10.28 103.439 10.28C103.871 10.28 104.295 10.376 104.711 10.568C105.135 10.752 105.471 11 105.719 11.312V8.12H107.099V17H105.719V16.004C105.495 16.324 105.183 16.588 104.783 16.796C104.391 17.004 103.939 17.108 103.427 17.108C102.851 17.108 102.323 16.964 101.843 16.676C101.371 16.38 100.995 15.972 100.715 15.452C100.443 14.924 100.307 14.328 100.307 13.664ZM105.719 13.688C105.719 13.232 105.623 12.836 105.431 12.5C105.247 12.164 105.003 11.908 104.699 11.732C104.395 11.556 104.067 11.468 103.715 11.468C103.363 11.468 103.035 11.556 102.731 11.732C102.427 11.9 102.179 12.152 101.987 12.488C101.803 12.816 101.711 13.208 101.711 13.664C101.711 14.12 101.803 14.52 101.987 14.864C102.179 15.208 102.427 15.472 102.731 15.656C103.043 15.832 103.371 15.92 103.715 15.92C104.067 15.92 104.395 15.832 104.699 15.656C105.003 15.48 105.247 15.224 105.431 14.888C105.623 14.544 105.719 14.144 105.719 13.688Z" fill="#B43535"/>
</svg>
