<svg width="25" height="25" viewBox="0 0 25 25" fill="none" xmlns="http://www.w3.org/2000/svg">
<path d="M7.08105 2.47021H16.1436C18.4234 4.08488 20.4113 6.07644 22.0217 8.35928V22.2983H7.08105V2.47021Z" fill="url(#paint0_linear)"/>
<path d="M7.08105 2.47021H16.1436C18.4234 4.08488 20.4113 6.07644 22.0217 8.35928V22.2983H7.08105V2.47021Z" stroke="#C8C8C8" stroke-width="0.25"/>
<path d="M16.1426 2.47021C18.4196 4.08877 20.4073 6.0797 22.0223 8.35928C21.4853 7.80747 20.8344 7.37963 20.1148 7.10569C19.3953 6.83175 18.6246 6.71832 17.8566 6.77334C17.9662 5.96916 17.8659 5.15033 17.5655 4.39635C17.2652 3.64237 16.775 2.97885 16.1426 2.47021V2.47021Z" fill="url(#paint1_linear)"/>
<path d="M16.1426 2.47021C18.4196 4.08877 20.4073 6.0797 22.0223 8.35928C21.4853 7.80747 20.8344 7.37963 20.1148 7.10569C19.3953 6.83175 18.6246 6.71832 17.8566 6.77334C17.9662 5.96916 17.8659 5.15033 17.5655 4.39635C17.2652 3.64237 16.775 2.97885 16.1426 2.47021V2.47021Z" stroke="#C8C8C8" stroke-width="0.25"/>
<path d="M4.1709 5.0752H15.1865V7.18457H4.1709V5.0752Z" stroke="#C8C8C8" stroke-width="2"/>
<path d="M12.3586 15.5117C12.7227 14.7977 13.1399 13.9938 13.468 13.186L13.5993 12.8672C13.1664 11.2203 12.9071 9.89846 13.1391 9.04377C13.1878 8.92868 13.2717 8.83202 13.3788 8.76771C13.486 8.7034 13.6107 8.67478 13.7352 8.68596H13.9336C14.3118 8.68049 14.4891 9.16096 14.5094 9.34768C14.5123 9.63064 14.4752 9.91259 14.3993 10.1852C14.4178 9.89538 14.375 9.60492 14.2735 9.33284C14.1172 8.98987 13.968 8.78596 13.8344 8.75237C13.7869 8.79087 13.7483 8.83925 13.7213 8.89416C13.6943 8.94906 13.6796 9.00918 13.6782 9.07034C13.6385 9.31286 13.6184 9.55818 13.618 9.80393C13.6365 10.5264 13.7502 11.2433 13.9563 11.936C13.9985 11.8141 14.0344 11.6969 14.0657 11.5867C14.1118 11.4133 14.4039 10.2657 14.4039 10.2657C14.4039 10.2657 14.3305 11.7938 14.2274 12.2555C14.2055 12.3532 14.1813 12.45 14.1555 12.5485C14.5014 13.5403 15.0754 14.437 15.8313 15.1664C16.1282 15.424 16.4532 15.6473 16.8 15.8321C17.4509 15.7339 18.1082 15.6845 18.7664 15.6844C19.2944 15.6311 19.8254 15.7498 20.2805 16.0227C20.3808 16.1238 20.4401 16.2585 20.4469 16.4008C20.4435 16.4751 20.4328 16.5489 20.4149 16.6211C20.4227 16.5813 20.4227 16.3867 19.825 16.1946C19.0295 16.0432 18.2136 16.0318 17.4141 16.161C18.6375 16.7594 19.8305 17.0571 20.2079 16.8789C20.2875 16.8257 20.3569 16.7585 20.4125 16.6805C20.3863 16.8098 20.3481 16.9364 20.2985 17.0586C20.2232 17.1543 20.1204 17.2246 20.0039 17.2602C19.4071 17.4164 17.8539 17.0508 16.5 16.2774C14.9715 16.512 13.4645 16.8702 11.9938 17.3485C10.6852 19.6422 9.70082 20.6953 8.90082 20.2946L8.60629 20.1469C8.55259 20.1036 8.5133 20.045 8.49363 19.9789C8.47396 19.9127 8.47483 19.8422 8.49613 19.7766C8.5891 19.3203 9.16176 18.6321 10.3118 17.9453C10.4352 17.8672 10.9868 17.5789 10.9868 17.5789C10.9868 17.5789 10.5782 17.9742 10.4829 18.0516C9.56488 18.8039 8.88754 19.75 8.90395 20.1172V20.1492C9.6852 20.0383 10.8532 18.4508 12.3563 15.5094L12.3586 15.5117ZM12.8329 15.7532C12.5971 16.1941 12.356 16.6322 12.1094 17.0672C13.3627 16.5649 14.6655 16.1962 15.9961 15.9672C15.8242 15.849 15.6582 15.7226 15.4985 15.5883C14.8124 14.9965 14.2541 14.2711 13.8579 13.4563C13.5681 14.2446 13.2243 15.0121 12.8289 15.7532" fill="#F91D0A"/>
<path d="M2.92969 3.88135H16.4172V8.41494H2.92969V3.88135Z" fill="url(#paint2_linear)"/>
<path d="M16.6746 8.68672H2.68555V3.60938H16.6746V8.68672ZM16.1723 4.1125H3.18867V8.18203H16.1723V4.1125Z" fill="url(#paint3_linear)"/>
<path d="M6.45508 4.54619H7.43633C7.56023 4.53826 7.68438 4.55727 7.80023 4.60191C7.91608 4.64655 8.02088 4.71576 8.10742 4.80478C8.27568 5.01017 8.35948 5.27189 8.3418 5.53681C8.35946 5.80293 8.27572 6.06586 8.10742 6.27275C8.02067 6.36135 7.91577 6.43013 7.79993 6.47436C7.68409 6.51859 7.56005 6.53723 7.43633 6.529H7.0457V7.58291H6.45508V4.54619ZM7.04648 5.11338V5.96181H7.37383C7.42354 5.96465 7.47325 5.95622 7.51925 5.93714C7.56525 5.91807 7.60634 5.88884 7.63945 5.85166C7.70644 5.76174 7.73963 5.6511 7.7332 5.53916C7.74038 5.42713 7.70712 5.31624 7.63945 5.22666C7.60637 5.18943 7.56529 5.16017 7.51928 5.14109C7.47328 5.12201 7.42355 5.11361 7.37383 5.1165H7.04648V5.11338ZM9.35039 5.14072V6.9915H9.56211C9.66622 6.99846 9.77051 6.98088 9.86658 6.94018C9.96265 6.89947 10.0478 6.83677 10.1152 6.75713C10.2563 6.55531 10.3241 6.31136 10.3074 6.06572C10.3241 5.82153 10.2568 5.57898 10.1168 5.37822C10.049 5.2986 9.96357 5.23594 9.86725 5.19524C9.77094 5.15454 9.66644 5.13694 9.56211 5.14385H9.35039V5.14072ZM8.75898 4.55166H9.38398C9.64506 4.53836 9.90647 4.57034 10.1566 4.64619C10.3313 4.71415 10.4834 4.82972 10.5957 4.97978C10.7054 5.12096 10.7868 5.28197 10.8355 5.454C10.8902 5.65215 10.9165 5.85706 10.9137 6.0626C10.9165 6.26993 10.8902 6.47664 10.8355 6.67666C10.7868 6.84869 10.7054 7.0097 10.5957 7.15088C10.482 7.30138 10.329 7.41762 10.1535 7.48681C9.90282 7.56291 9.64104 7.59594 9.3793 7.58447H8.7543V4.54619L8.75898 4.55166ZM11.3652 4.54619H12.9691V5.13838H11.9613V5.70322H12.9059V6.29541H11.9613V7.58291H11.3699V4.54619" fill="#FFF9F9"/>
<defs>
<linearGradient id="paint0_linear" x1="11.4426" y1="18.0027" x2="16.9692" y2="8.01425" gradientUnits="userSpaceOnUse">
<stop stop-color="white"/>
<stop offset="1" stop-color="#E1E1E1"/>
</linearGradient>
<linearGradient id="paint1_linear" x1="18.4043" y1="6.03975" x2="19.2543" y2="5.25615" gradientUnits="userSpaceOnUse">
<stop stop-color="white"/>
<stop offset="1" stop-color="#C8C8C8"/>
</linearGradient>
<linearGradient id="paint2_linear" x1="10.9836" y1="10.1806" x2="8.36328" y2="2.11572" gradientUnits="userSpaceOnUse">
<stop offset="0.127" stop-color="#8A0000"/>
<stop offset="0.244" stop-color="#900000" stop-opacity="0.999"/>
<stop offset="0.398" stop-color="#A00000" stop-opacity="0.999"/>
<stop offset="0.573" stop-color="#BC0000" stop-opacity="0.998"/>
<stop offset="0.761" stop-color="#E20000" stop-opacity="0.997"/>
<stop offset="0.867" stop-color="#FA0000" stop-opacity="0.996"/>
</linearGradient>
<linearGradient id="paint3_linear" x1="11.0941" y1="10.5" x2="8.2668" y2="1.79609" gradientUnits="userSpaceOnUse">
<stop offset="0.315" stop-color="#5E0000"/>
<stop offset="0.444" stop-color="#830000" stop-opacity="0.999"/>
<stop offset="0.618" stop-color="#AE0000" stop-opacity="0.998"/>
<stop offset="0.775" stop-color="#CD0000" stop-opacity="0.997"/>
<stop offset="0.908" stop-color="#E00000" stop-opacity="0.996"/>
<stop offset="1" stop-color="#E70000" stop-opacity="0.996"/>
</linearGradient>
</defs>
</svg>
