<svg width="1111" height="323" viewBox="0 0 1111 323" fill="none" xmlns="http://www.w3.org/2000/svg">
<path opacity="0.1" d="M1079.38 3H31.6197C18.5749 3 8 10.2025 8 19.0873V298.913C8 307.798 18.5749 315 31.6197 315H1079.38C1092.43 315 1103 307.798 1103 298.913V19.0873C1103 10.2025 1092.43 3 1079.38 3Z" stroke="#080809" stroke-width="3"/>
<path d="M313.232 265.154C313.232 266.43 312.792 267.493 311.912 268.344C311.047 269.18 309.719 269.598 307.93 269.598H304.982V276H302.98V260.666H307.93C309.661 260.666 310.973 261.084 311.868 261.92C312.777 262.756 313.232 263.834 313.232 265.154ZM307.93 267.948C309.045 267.948 309.866 267.706 310.394 267.222C310.922 266.738 311.186 266.049 311.186 265.154C311.186 263.262 310.101 262.316 307.93 262.316H304.982V267.948H307.93ZM317.722 259.72V276H315.72V259.72H317.722ZM332.134 269.51C332.134 269.891 332.112 270.295 332.068 270.72H322.432C322.506 271.908 322.909 272.839 323.642 273.514C324.39 274.174 325.292 274.504 326.348 274.504C327.214 274.504 327.932 274.306 328.504 273.91C329.091 273.499 329.502 272.957 329.736 272.282H331.892C331.57 273.441 330.924 274.387 329.956 275.12C328.988 275.839 327.786 276.198 326.348 276.198C325.204 276.198 324.178 275.941 323.268 275.428C322.374 274.915 321.67 274.189 321.156 273.25C320.643 272.297 320.386 271.197 320.386 269.95C320.386 268.703 320.636 267.611 321.134 266.672C321.633 265.733 322.33 265.015 323.224 264.516C324.134 264.003 325.175 263.746 326.348 263.746C327.492 263.746 328.504 263.995 329.384 264.494C330.264 264.993 330.939 265.682 331.408 266.562C331.892 267.427 332.134 268.41 332.134 269.51ZM330.066 269.092C330.066 268.329 329.898 267.677 329.56 267.134C329.223 266.577 328.761 266.159 328.174 265.88C327.602 265.587 326.964 265.44 326.26 265.44C325.248 265.44 324.383 265.763 323.664 266.408C322.96 267.053 322.557 267.948 322.454 269.092H330.066ZM334.029 269.928C334.029 268.696 334.278 267.618 334.777 266.694C335.276 265.755 335.958 265.029 336.823 264.516C337.703 264.003 338.678 263.746 339.749 263.746C340.805 263.746 341.722 263.973 342.499 264.428C343.276 264.883 343.856 265.455 344.237 266.144V263.944H346.261V276H344.237V273.756C343.841 274.46 343.247 275.047 342.455 275.516C341.678 275.971 340.768 276.198 339.727 276.198C338.656 276.198 337.688 275.934 336.823 275.406C335.958 274.878 335.276 274.137 334.777 273.184C334.278 272.231 334.029 271.145 334.029 269.928ZM344.237 269.95C344.237 269.041 344.054 268.249 343.687 267.574C343.32 266.899 342.822 266.386 342.191 266.034C341.575 265.667 340.893 265.484 340.145 265.484C339.397 265.484 338.715 265.66 338.099 266.012C337.483 266.364 336.992 266.877 336.625 267.552C336.258 268.227 336.075 269.019 336.075 269.928C336.075 270.852 336.258 271.659 336.625 272.348C336.992 273.023 337.483 273.543 338.099 273.91C338.715 274.262 339.397 274.438 340.145 274.438C340.893 274.438 341.575 274.262 342.191 273.91C342.822 273.543 343.32 273.023 343.687 272.348C344.054 271.659 344.237 270.859 344.237 269.95ZM353.912 276.198C352.988 276.198 352.16 276.044 351.426 275.736C350.693 275.413 350.114 274.973 349.688 274.416C349.263 273.844 349.028 273.191 348.984 272.458H351.052C351.111 273.059 351.39 273.551 351.888 273.932C352.402 274.313 353.069 274.504 353.89 274.504C354.653 274.504 355.254 274.335 355.694 273.998C356.134 273.661 356.354 273.235 356.354 272.722C356.354 272.194 356.12 271.805 355.65 271.556C355.181 271.292 354.455 271.035 353.472 270.786C352.578 270.551 351.844 270.317 351.272 270.082C350.715 269.833 350.231 269.473 349.82 269.004C349.424 268.52 349.226 267.889 349.226 267.112C349.226 266.496 349.41 265.931 349.776 265.418C350.143 264.905 350.664 264.501 351.338 264.208C352.013 263.9 352.783 263.746 353.648 263.746C354.983 263.746 356.061 264.083 356.882 264.758C357.704 265.433 358.144 266.357 358.202 267.53H356.2C356.156 266.899 355.9 266.393 355.43 266.012C354.976 265.631 354.36 265.44 353.582 265.44C352.864 265.44 352.292 265.594 351.866 265.902C351.441 266.21 351.228 266.613 351.228 267.112C351.228 267.508 351.353 267.838 351.602 268.102C351.866 268.351 352.189 268.557 352.57 268.718C352.966 268.865 353.509 269.033 354.198 269.224C355.064 269.459 355.768 269.693 356.31 269.928C356.853 270.148 357.315 270.485 357.696 270.94C358.092 271.395 358.298 271.989 358.312 272.722C358.312 273.382 358.129 273.976 357.762 274.504C357.396 275.032 356.875 275.45 356.2 275.758C355.54 276.051 354.778 276.198 353.912 276.198ZM372.138 269.51C372.138 269.891 372.116 270.295 372.072 270.72H362.436C362.51 271.908 362.913 272.839 363.646 273.514C364.394 274.174 365.296 274.504 366.352 274.504C367.218 274.504 367.936 274.306 368.508 273.91C369.095 273.499 369.506 272.957 369.74 272.282H371.896C371.574 273.441 370.928 274.387 369.96 275.12C368.992 275.839 367.79 276.198 366.352 276.198C365.208 276.198 364.182 275.941 363.272 275.428C362.378 274.915 361.674 274.189 361.16 273.25C360.647 272.297 360.39 271.197 360.39 269.95C360.39 268.703 360.64 267.611 361.138 266.672C361.637 265.733 362.334 265.015 363.228 264.516C364.138 264.003 365.179 263.746 366.352 263.746C367.496 263.746 368.508 263.995 369.388 264.494C370.268 264.993 370.943 265.682 371.412 266.562C371.896 267.427 372.138 268.41 372.138 269.51ZM370.07 269.092C370.07 268.329 369.902 267.677 369.564 267.134C369.227 266.577 368.765 266.159 368.178 265.88C367.606 265.587 366.968 265.44 366.264 265.44C365.252 265.44 364.387 265.763 363.668 266.408C362.964 267.053 362.561 267.948 362.458 269.092H370.07ZM385.508 276.154C384.496 276.154 383.587 275.978 382.78 275.626C381.988 275.259 381.365 274.761 380.91 274.13C380.455 273.485 380.221 272.744 380.206 271.908H382.34C382.413 272.627 382.707 273.235 383.22 273.734C383.748 274.218 384.511 274.46 385.508 274.46C386.461 274.46 387.209 274.225 387.752 273.756C388.309 273.272 388.588 272.656 388.588 271.908C388.588 271.321 388.427 270.845 388.104 270.478C387.781 270.111 387.378 269.833 386.894 269.642C386.41 269.451 385.757 269.246 384.936 269.026C383.924 268.762 383.11 268.498 382.494 268.234C381.893 267.97 381.372 267.559 380.932 267.002C380.507 266.43 380.294 265.667 380.294 264.714C380.294 263.878 380.507 263.137 380.932 262.492C381.357 261.847 381.951 261.348 382.714 260.996C383.491 260.644 384.379 260.468 385.376 260.468C386.813 260.468 387.987 260.827 388.896 261.546C389.82 262.265 390.341 263.218 390.458 264.406H388.258C388.185 263.819 387.877 263.306 387.334 262.866C386.791 262.411 386.073 262.184 385.178 262.184C384.342 262.184 383.66 262.404 383.132 262.844C382.604 263.269 382.34 263.871 382.34 264.648C382.34 265.205 382.494 265.66 382.802 266.012C383.125 266.364 383.513 266.635 383.968 266.826C384.437 267.002 385.09 267.207 385.926 267.442C386.938 267.721 387.752 267.999 388.368 268.278C388.984 268.542 389.512 268.96 389.952 269.532C390.392 270.089 390.612 270.852 390.612 271.82C390.612 272.568 390.414 273.272 390.018 273.932C389.622 274.592 389.035 275.127 388.258 275.538C387.481 275.949 386.564 276.154 385.508 276.154ZM404.558 269.51C404.558 269.891 404.536 270.295 404.492 270.72H394.856C394.93 271.908 395.333 272.839 396.066 273.514C396.814 274.174 397.716 274.504 398.772 274.504C399.638 274.504 400.356 274.306 400.928 273.91C401.515 273.499 401.926 272.957 402.16 272.282H404.316C403.994 273.441 403.348 274.387 402.38 275.12C401.412 275.839 400.21 276.198 398.772 276.198C397.628 276.198 396.602 275.941 395.692 275.428C394.798 274.915 394.094 274.189 393.58 273.25C393.067 272.297 392.81 271.197 392.81 269.95C392.81 268.703 393.06 267.611 393.558 266.672C394.057 265.733 394.754 265.015 395.648 264.516C396.558 264.003 397.599 263.746 398.772 263.746C399.916 263.746 400.928 263.995 401.808 264.494C402.688 264.993 403.363 265.682 403.832 266.562C404.316 267.427 404.558 268.41 404.558 269.51ZM402.49 269.092C402.49 268.329 402.322 267.677 401.984 267.134C401.647 266.577 401.185 266.159 400.598 265.88C400.026 265.587 399.388 265.44 398.684 265.44C397.672 265.44 396.807 265.763 396.088 266.408C395.384 267.053 394.981 267.948 394.878 269.092H402.49ZM409.203 259.72V276H407.201V259.72H409.203ZM423.615 269.51C423.615 269.891 423.593 270.295 423.549 270.72H413.913C413.986 271.908 414.39 272.839 415.123 273.514C415.871 274.174 416.773 274.504 417.829 274.504C418.694 274.504 419.413 274.306 419.985 273.91C420.572 273.499 420.982 272.957 421.217 272.282H423.373C423.05 273.441 422.405 274.387 421.437 275.12C420.469 275.839 419.266 276.198 417.829 276.198C416.685 276.198 415.658 275.941 414.749 275.428C413.854 274.915 413.15 274.189 412.637 273.25C412.124 272.297 411.867 271.197 411.867 269.95C411.867 268.703 412.116 267.611 412.615 266.672C413.114 265.733 413.81 265.015 414.705 264.516C415.614 264.003 416.656 263.746 417.829 263.746C418.973 263.746 419.985 263.995 420.865 264.494C421.745 264.993 422.42 265.682 422.889 266.562C423.373 267.427 423.615 268.41 423.615 269.51ZM421.547 269.092C421.547 268.329 421.378 267.677 421.041 267.134C420.704 266.577 420.242 266.159 419.655 265.88C419.083 265.587 418.445 265.44 417.741 265.44C416.729 265.44 415.864 265.763 415.145 266.408C414.441 267.053 414.038 267.948 413.935 269.092H421.547ZM425.509 269.95C425.509 268.703 425.759 267.618 426.257 266.694C426.756 265.755 427.445 265.029 428.325 264.516C429.22 264.003 430.239 263.746 431.383 263.746C432.865 263.746 434.082 264.105 435.035 264.824C436.003 265.543 436.641 266.54 436.949 267.816H434.793C434.588 267.083 434.185 266.503 433.583 266.078C432.997 265.653 432.263 265.44 431.383 265.44C430.239 265.44 429.315 265.836 428.611 266.628C427.907 267.405 427.555 268.513 427.555 269.95C427.555 271.402 427.907 272.524 428.611 273.316C429.315 274.108 430.239 274.504 431.383 274.504C432.263 274.504 432.997 274.299 433.583 273.888C434.17 273.477 434.573 272.891 434.793 272.128H436.949C436.627 273.36 435.981 274.35 435.013 275.098C434.045 275.831 432.835 276.198 431.383 276.198C430.239 276.198 429.22 275.941 428.325 275.428C427.445 274.915 426.756 274.189 426.257 273.25C425.759 272.311 425.509 271.211 425.509 269.95ZM442.063 265.594V272.7C442.063 273.287 442.187 273.705 442.437 273.954C442.686 274.189 443.119 274.306 443.735 274.306H445.209V276H443.405C442.29 276 441.454 275.743 440.897 275.23C440.339 274.717 440.061 273.873 440.061 272.7V265.594H438.499V263.944H440.061V260.908H442.063V263.944H445.209V265.594H442.063ZM452.752 269.928C452.752 268.696 453.001 267.618 453.5 266.694C453.998 265.755 454.68 265.029 455.546 264.516C456.426 264.003 457.401 263.746 458.472 263.746C459.528 263.746 460.444 263.973 461.222 264.428C461.999 264.883 462.578 265.455 462.96 266.144V263.944H464.984V276H462.96V273.756C462.564 274.46 461.97 275.047 461.178 275.516C460.4 275.971 459.491 276.198 458.45 276.198C457.379 276.198 456.411 275.934 455.546 275.406C454.68 274.878 453.998 274.137 453.5 273.184C453.001 272.231 452.752 271.145 452.752 269.928ZM462.96 269.95C462.96 269.041 462.776 268.249 462.41 267.574C462.043 266.899 461.544 266.386 460.914 266.034C460.298 265.667 459.616 265.484 458.868 265.484C458.12 265.484 457.438 265.66 456.822 266.012C456.206 266.364 455.714 266.877 455.348 267.552C454.981 268.227 454.798 269.019 454.798 269.928C454.798 270.852 454.981 271.659 455.348 272.348C455.714 273.023 456.206 273.543 456.822 273.91C457.438 274.262 458.12 274.438 458.868 274.438C459.616 274.438 460.298 274.262 460.914 273.91C461.544 273.543 462.043 273.023 462.41 272.348C462.776 271.659 462.96 270.859 462.96 269.95ZM473.484 268.322C473.484 266.826 473.821 265.484 474.496 264.296C475.171 263.093 476.087 262.155 477.246 261.48C478.419 260.805 479.717 260.468 481.14 260.468C482.812 260.468 484.271 260.871 485.518 261.678C486.765 262.485 487.674 263.629 488.246 265.11H485.848C485.423 264.186 484.807 263.475 484 262.976C483.208 262.477 482.255 262.228 481.14 262.228C480.069 262.228 479.109 262.477 478.258 262.976C477.407 263.475 476.74 264.186 476.256 265.11C475.772 266.019 475.53 267.09 475.53 268.322C475.53 269.539 475.772 270.61 476.256 271.534C476.74 272.443 477.407 273.147 478.258 273.646C479.109 274.145 480.069 274.394 481.14 274.394C482.255 274.394 483.208 274.152 484 273.668C484.807 273.169 485.423 272.458 485.848 271.534H488.246C487.674 273.001 486.765 274.137 485.518 274.944C484.271 275.736 482.812 276.132 481.14 276.132C479.717 276.132 478.419 275.802 477.246 275.142C476.087 274.467 475.171 273.536 474.496 272.348C473.821 271.16 473.484 269.818 473.484 268.322ZM496.484 276.198C495.355 276.198 494.328 275.941 493.404 275.428C492.495 274.915 491.776 274.189 491.248 273.25C490.735 272.297 490.478 271.197 490.478 269.95C490.478 268.718 490.742 267.633 491.27 266.694C491.813 265.741 492.546 265.015 493.47 264.516C494.394 264.003 495.428 263.746 496.572 263.746C497.716 263.746 498.75 264.003 499.674 264.516C500.598 265.015 501.324 265.733 501.852 266.672C502.395 267.611 502.666 268.703 502.666 269.95C502.666 271.197 502.388 272.297 501.83 273.25C501.288 274.189 500.547 274.915 499.608 275.428C498.67 275.941 497.628 276.198 496.484 276.198ZM496.484 274.438C497.203 274.438 497.878 274.269 498.508 273.932C499.139 273.595 499.645 273.089 500.026 272.414C500.422 271.739 500.62 270.918 500.62 269.95C500.62 268.982 500.43 268.161 500.048 267.486C499.667 266.811 499.168 266.313 498.552 265.99C497.936 265.653 497.269 265.484 496.55 265.484C495.817 265.484 495.142 265.653 494.526 265.99C493.925 266.313 493.441 266.811 493.074 267.486C492.708 268.161 492.524 268.982 492.524 269.95C492.524 270.933 492.7 271.761 493.052 272.436C493.419 273.111 493.903 273.617 494.504 273.954C495.106 274.277 495.766 274.438 496.484 274.438ZM519.796 263.724C520.735 263.724 521.571 263.922 522.304 264.318C523.038 264.699 523.617 265.279 524.042 266.056C524.468 266.833 524.68 267.779 524.68 268.894V276H522.7V269.18C522.7 267.977 522.4 267.061 521.798 266.43C521.212 265.785 520.412 265.462 519.4 265.462C518.359 265.462 517.53 265.799 516.914 266.474C516.298 267.134 515.99 268.095 515.99 269.356V276H514.01V269.18C514.01 267.977 513.71 267.061 513.108 266.43C512.522 265.785 511.722 265.462 510.71 265.462C509.669 265.462 508.84 265.799 508.224 266.474C507.608 267.134 507.3 268.095 507.3 269.356V276H505.298V263.944H507.3V265.682C507.696 265.051 508.224 264.567 508.884 264.23C509.559 263.893 510.3 263.724 511.106 263.724C512.118 263.724 513.013 263.951 513.79 264.406C514.568 264.861 515.147 265.528 515.528 266.408C515.866 265.557 516.423 264.897 517.2 264.428C517.978 263.959 518.843 263.724 519.796 263.724ZM529.967 266.166C530.363 265.477 530.949 264.905 531.727 264.45C532.519 263.981 533.435 263.746 534.477 263.746C535.547 263.746 536.515 264.003 537.381 264.516C538.261 265.029 538.95 265.755 539.449 266.694C539.947 267.618 540.197 268.696 540.197 269.928C540.197 271.145 539.947 272.231 539.449 273.184C538.95 274.137 538.261 274.878 537.381 275.406C536.515 275.934 535.547 276.198 534.477 276.198C533.45 276.198 532.541 275.971 531.749 275.516C530.971 275.047 530.377 274.467 529.967 273.778V281.72H527.965V263.944H529.967V266.166ZM538.151 269.928C538.151 269.019 537.967 268.227 537.601 267.552C537.234 266.877 536.735 266.364 536.105 266.012C535.489 265.66 534.807 265.484 534.059 265.484C533.325 265.484 532.643 265.667 532.013 266.034C531.397 266.386 530.898 266.907 530.517 267.596C530.15 268.271 529.967 269.055 529.967 269.95C529.967 270.859 530.15 271.659 530.517 272.348C530.898 273.023 531.397 273.543 532.013 273.91C532.643 274.262 533.325 274.438 534.059 274.438C534.807 274.438 535.489 274.262 536.105 273.91C536.735 273.543 537.234 273.023 537.601 272.348C537.967 271.659 538.151 270.852 538.151 269.928ZM542.084 269.928C542.084 268.696 542.333 267.618 542.832 266.694C543.33 265.755 544.012 265.029 544.878 264.516C545.758 264.003 546.733 263.746 547.804 263.746C548.86 263.746 549.776 263.973 550.554 264.428C551.331 264.883 551.91 265.455 552.292 266.144V263.944H554.316V276H552.292V273.756C551.896 274.46 551.302 275.047 550.51 275.516C549.732 275.971 548.823 276.198 547.782 276.198C546.711 276.198 545.743 275.934 544.878 275.406C544.012 274.878 543.33 274.137 542.832 273.184C542.333 272.231 542.084 271.145 542.084 269.928ZM552.292 269.95C552.292 269.041 552.108 268.249 551.742 267.574C551.375 266.899 550.876 266.386 550.246 266.034C549.63 265.667 548.948 265.484 548.2 265.484C547.452 265.484 546.77 265.66 546.154 266.012C545.538 266.364 545.046 266.877 544.68 267.552C544.313 268.227 544.13 269.019 544.13 269.928C544.13 270.852 544.313 271.659 544.68 272.348C545.046 273.023 545.538 273.543 546.154 273.91C546.77 274.262 547.452 274.438 548.2 274.438C548.948 274.438 549.63 274.262 550.246 273.91C550.876 273.543 551.375 273.023 551.742 272.348C552.108 271.659 552.292 270.859 552.292 269.95ZM563.573 263.724C565.04 263.724 566.228 264.171 567.137 265.066C568.046 265.946 568.501 267.222 568.501 268.894V276H566.521V269.18C566.521 267.977 566.22 267.061 565.619 266.43C565.018 265.785 564.196 265.462 563.155 265.462C562.099 265.462 561.256 265.792 560.625 266.452C560.009 267.112 559.701 268.073 559.701 269.334V276H557.699V263.944H559.701V265.66C560.097 265.044 560.632 264.567 561.307 264.23C561.996 263.893 562.752 263.724 563.573 263.724ZM582.155 263.944L574.895 281.676H572.827L575.203 275.868L570.341 263.944H572.563L576.347 273.712L580.087 263.944H582.155ZM592.475 265.594V272.7C592.475 273.287 592.6 273.705 592.849 273.954C593.098 274.189 593.531 274.306 594.147 274.306H595.621V276H593.817C592.702 276 591.866 275.743 591.309 275.23C590.752 274.717 590.473 273.873 590.473 272.7V265.594H588.911V263.944H590.473V260.908H592.475V263.944H595.621V265.594H592.475ZM603.305 276.198C602.175 276.198 601.149 275.941 600.225 275.428C599.315 274.915 598.597 274.189 598.069 273.25C597.555 272.297 597.299 271.197 597.299 269.95C597.299 268.718 597.563 267.633 598.091 266.694C598.633 265.741 599.367 265.015 600.291 264.516C601.215 264.003 602.249 263.746 603.393 263.746C604.537 263.746 605.571 264.003 606.495 264.516C607.419 265.015 608.145 265.733 608.673 266.672C609.215 267.611 609.487 268.703 609.487 269.95C609.487 271.197 609.208 272.297 608.651 273.25C608.108 274.189 607.367 274.915 606.429 275.428C605.49 275.941 604.449 276.198 603.305 276.198ZM603.305 274.438C604.023 274.438 604.698 274.269 605.329 273.932C605.959 273.595 606.465 273.089 606.847 272.414C607.243 271.739 607.441 270.918 607.441 269.95C607.441 268.982 607.25 268.161 606.869 267.486C606.487 266.811 605.989 266.313 605.373 265.99C604.757 265.653 604.089 265.484 603.371 265.484C602.637 265.484 601.963 265.653 601.347 265.99C600.745 266.313 600.261 266.811 599.895 267.486C599.528 268.161 599.345 268.982 599.345 269.95C599.345 270.933 599.521 271.761 599.873 272.436C600.239 273.111 600.723 273.617 601.325 273.954C601.926 274.277 602.586 274.438 603.305 274.438ZM622.956 263.746C623.997 263.746 624.907 263.973 625.684 264.428C626.476 264.883 627.063 265.455 627.444 266.144V263.944H629.468V276.264C629.468 277.364 629.233 278.339 628.764 279.19C628.295 280.055 627.62 280.73 626.74 281.214C625.875 281.698 624.863 281.94 623.704 281.94C622.12 281.94 620.8 281.566 619.744 280.818C618.688 280.07 618.065 279.051 617.874 277.76H619.854C620.074 278.493 620.529 279.08 621.218 279.52C621.907 279.975 622.736 280.202 623.704 280.202C624.804 280.202 625.699 279.857 626.388 279.168C627.092 278.479 627.444 277.511 627.444 276.264V273.734C627.048 274.438 626.461 275.025 625.684 275.494C624.907 275.963 623.997 276.198 622.956 276.198C621.885 276.198 620.91 275.934 620.03 275.406C619.165 274.878 618.483 274.137 617.984 273.184C617.485 272.231 617.236 271.145 617.236 269.928C617.236 268.696 617.485 267.618 617.984 266.694C618.483 265.755 619.165 265.029 620.03 264.516C620.91 264.003 621.885 263.746 622.956 263.746ZM627.444 269.95C627.444 269.041 627.261 268.249 626.894 267.574C626.527 266.899 626.029 266.386 625.398 266.034C624.782 265.667 624.1 265.484 623.352 265.484C622.604 265.484 621.922 265.66 621.306 266.012C620.69 266.364 620.199 266.877 619.832 267.552C619.465 268.227 619.282 269.019 619.282 269.928C619.282 270.852 619.465 271.659 619.832 272.348C620.199 273.023 620.69 273.543 621.306 273.91C621.922 274.262 622.604 274.438 623.352 274.438C624.1 274.438 624.782 274.262 625.398 273.91C626.029 273.543 626.527 273.023 626.894 272.348C627.261 271.659 627.444 270.859 627.444 269.95ZM643.851 269.51C643.851 269.891 643.829 270.295 643.785 270.72H634.149C634.223 271.908 634.626 272.839 635.359 273.514C636.107 274.174 637.009 274.504 638.065 274.504C638.931 274.504 639.649 274.306 640.221 273.91C640.808 273.499 641.219 272.957 641.453 272.282H643.609C643.287 273.441 642.641 274.387 641.673 275.12C640.705 275.839 639.503 276.198 638.065 276.198C636.921 276.198 635.895 275.941 634.985 275.428C634.091 274.915 633.387 274.189 632.873 273.25C632.36 272.297 632.103 271.197 632.103 269.95C632.103 268.703 632.353 267.611 632.851 266.672C633.35 265.733 634.047 265.015 634.941 264.516C635.851 264.003 636.892 263.746 638.065 263.746C639.209 263.746 640.221 263.995 641.101 264.494C641.981 264.993 642.656 265.682 643.125 266.562C643.609 267.427 643.851 268.41 643.851 269.51ZM641.783 269.092C641.783 268.329 641.615 267.677 641.277 267.134C640.94 266.577 640.478 266.159 639.891 265.88C639.319 265.587 638.681 265.44 637.977 265.44C636.965 265.44 636.1 265.763 635.381 266.408C634.677 267.053 634.274 267.948 634.171 269.092H641.783ZM648.936 265.594V272.7C648.936 273.287 649.06 273.705 649.31 273.954C649.559 274.189 649.992 274.306 650.608 274.306H652.082V276H650.278C649.163 276 648.327 275.743 647.77 275.23C647.212 274.717 646.934 273.873 646.934 272.7V265.594H645.372V263.944H646.934V260.908H648.936V263.944H652.082V265.594H648.936ZM670.757 263.944L663.497 281.676H661.429L663.805 275.868L658.943 263.944H661.165L664.949 273.712L668.689 263.944H670.757ZM678.027 276.198C676.898 276.198 675.871 275.941 674.947 275.428C674.038 274.915 673.319 274.189 672.791 273.25C672.278 272.297 672.021 271.197 672.021 269.95C672.021 268.718 672.285 267.633 672.813 266.694C673.356 265.741 674.089 265.015 675.013 264.516C675.937 264.003 676.971 263.746 678.115 263.746C679.259 263.746 680.293 264.003 681.217 264.516C682.141 265.015 682.867 265.733 683.395 266.672C683.938 267.611 684.209 268.703 684.209 269.95C684.209 271.197 683.931 272.297 683.373 273.25C682.831 274.189 682.09 274.915 681.151 275.428C680.213 275.941 679.171 276.198 678.027 276.198ZM678.027 274.438C678.746 274.438 679.421 274.269 680.051 273.932C680.682 273.595 681.188 273.089 681.569 272.414C681.965 271.739 682.163 270.918 682.163 269.95C682.163 268.982 681.973 268.161 681.591 267.486C681.21 266.811 680.711 266.313 680.095 265.99C679.479 265.653 678.812 265.484 678.093 265.484C677.36 265.484 676.685 265.653 676.069 265.99C675.468 266.313 674.984 266.811 674.617 267.486C674.251 268.161 674.067 268.982 674.067 269.95C674.067 270.933 674.243 271.761 674.595 272.436C674.962 273.111 675.446 273.617 676.047 273.954C676.649 274.277 677.309 274.438 678.027 274.438ZM697.533 263.944V276H695.531V274.218C695.15 274.834 694.615 275.318 693.925 275.67C693.251 276.007 692.503 276.176 691.681 276.176C690.743 276.176 689.899 275.985 689.151 275.604C688.403 275.208 687.809 274.621 687.369 273.844C686.944 273.067 686.731 272.121 686.731 271.006V263.944H688.711V270.742C688.711 271.93 689.012 272.847 689.613 273.492C690.215 274.123 691.036 274.438 692.077 274.438C693.148 274.438 693.991 274.108 694.607 273.448C695.223 272.788 695.531 271.827 695.531 270.566V263.944H697.533ZM702.916 265.902C703.268 265.213 703.766 264.677 704.412 264.296C705.072 263.915 705.871 263.724 706.81 263.724V265.792H706.282C704.038 265.792 702.916 267.009 702.916 269.444V276H700.914V263.944H702.916V265.902ZM731.046 263.944L727.284 276H725.216L722.312 266.43L719.408 276H717.34L713.556 263.944H715.602L718.374 274.064L721.366 263.944H723.412L726.338 274.086L729.066 263.944H731.046ZM738.291 276.198C737.162 276.198 736.135 275.941 735.211 275.428C734.302 274.915 733.583 274.189 733.055 273.25C732.542 272.297 732.285 271.197 732.285 269.95C732.285 268.718 732.549 267.633 733.077 266.694C733.62 265.741 734.353 265.015 735.277 264.516C736.201 264.003 737.235 263.746 738.379 263.746C739.523 263.746 740.557 264.003 741.481 264.516C742.405 265.015 743.131 265.733 743.659 266.672C744.202 267.611 744.473 268.703 744.473 269.95C744.473 271.197 744.194 272.297 743.637 273.25C743.094 274.189 742.354 274.915 741.415 275.428C740.476 275.941 739.435 276.198 738.291 276.198ZM738.291 274.438C739.01 274.438 739.684 274.269 740.315 273.932C740.946 273.595 741.452 273.089 741.833 272.414C742.229 271.739 742.427 270.918 742.427 269.95C742.427 268.982 742.236 268.161 741.855 267.486C741.474 266.811 740.975 266.313 740.359 265.99C739.743 265.653 739.076 265.484 738.357 265.484C737.624 265.484 736.949 265.653 736.333 265.99C735.732 266.313 735.248 266.811 734.881 267.486C734.514 268.161 734.331 268.982 734.331 269.95C734.331 270.933 734.507 271.761 734.859 272.436C735.226 273.111 735.71 273.617 736.311 273.954C736.912 274.277 737.572 274.438 738.291 274.438ZM749.107 265.902C749.459 265.213 749.958 264.677 750.603 264.296C751.263 263.915 752.062 263.724 753.001 263.724V265.792H752.473C750.229 265.792 749.107 267.009 749.107 269.444V276H747.105V263.944H749.107V265.902ZM762.044 276L757.314 270.676V276H755.312V259.72H757.314V269.29L761.956 263.944H764.75L759.074 269.95L764.772 276H762.044ZM771.54 265.594H769.01V276H767.008V265.594H765.446V263.944H767.008V263.086C767.008 261.737 767.353 260.754 768.042 260.138C768.746 259.507 769.868 259.192 771.408 259.192V260.864C770.528 260.864 769.905 261.04 769.538 261.392C769.186 261.729 769.01 262.294 769.01 263.086V263.944H771.54V265.594ZM775.877 259.72V276H773.875V259.72H775.877ZM784.547 276.198C783.417 276.198 782.391 275.941 781.467 275.428C780.557 274.915 779.839 274.189 779.311 273.25C778.797 272.297 778.541 271.197 778.541 269.95C778.541 268.718 778.805 267.633 779.333 266.694C779.875 265.741 780.609 265.015 781.533 264.516C782.457 264.003 783.491 263.746 784.635 263.746C785.779 263.746 786.813 264.003 787.737 264.516C788.661 265.015 789.387 265.733 789.915 266.672C790.457 267.611 790.729 268.703 790.729 269.95C790.729 271.197 790.45 272.297 789.893 273.25C789.35 274.189 788.609 274.915 787.671 275.428C786.732 275.941 785.691 276.198 784.547 276.198ZM784.547 274.438C785.265 274.438 785.94 274.269 786.571 273.932C787.201 273.595 787.707 273.089 788.089 272.414C788.485 271.739 788.683 270.918 788.683 269.95C788.683 268.982 788.492 268.161 788.111 267.486C787.729 266.811 787.231 266.313 786.615 265.99C785.999 265.653 785.331 265.484 784.613 265.484C783.879 265.484 783.205 265.653 782.589 265.99C781.987 266.313 781.503 266.811 781.137 267.486C780.77 268.161 780.587 268.982 780.587 269.95C780.587 270.933 780.763 271.761 781.115 272.436C781.481 273.111 781.965 273.617 782.567 273.954C783.168 274.277 783.828 274.438 784.547 274.438ZM809.421 263.944L805.659 276H803.591L800.687 266.43L797.783 276H795.715L791.931 263.944H793.977L796.749 274.064L799.741 263.944H801.787L804.713 274.086L807.441 263.944H809.421Z" fill="#C1BDBD"/>
<g opacity="0.3">
<path opacity="0.3" d="M589.214 154.544V131.393C589.214 128.315 586.681 125.811 583.568 125.811H575.749C575.052 125.811 574.486 126.37 574.486 127.06C574.486 127.75 575.052 128.309 575.749 128.309H583.568C585.288 128.309 586.687 129.692 586.687 131.393V154.544C586.687 156.244 585.288 157.627 583.568 157.627H545.498V128.309H570.694C571.392 128.309 571.958 127.75 571.958 127.06C571.958 126.37 571.392 125.811 570.694 125.811H540.96C537.846 125.811 535.312 128.315 535.312 131.393V154.544C535.312 157.623 537.846 160.127 540.96 160.127H583.568C586.681 160.127 589.214 157.623 589.214 154.544ZM542.97 157.627H540.96C539.24 157.627 537.84 156.244 537.84 154.544V131.393C537.84 129.692 539.24 128.309 540.96 128.309H542.97V157.627Z" fill="#09090A"/>
<path opacity="0.3" d="M581.651 131.655H548.79C548.093 131.655 547.527 132.215 547.527 132.905C547.527 133.595 548.093 134.154 548.79 134.154H581.651C582.348 134.154 582.914 133.595 582.914 132.905C582.914 132.215 582.348 131.655 581.651 131.655Z" fill="#09090A"/>
<path opacity="0.3" d="M581.651 138.364H548.79C548.093 138.364 547.527 138.923 547.527 139.614C547.527 140.305 548.093 140.863 548.79 140.863H581.651C582.348 140.863 582.914 140.305 582.914 139.614C582.914 138.923 582.348 138.364 581.651 138.364Z" fill="#09090A"/>
<path opacity="0.3" d="M581.651 145.071H548.79C548.093 145.071 547.527 145.632 547.527 146.321C547.527 147.012 548.093 147.571 548.79 147.571H581.651C582.348 147.571 582.914 147.012 582.914 146.321C582.914 145.632 582.348 145.071 581.651 145.071Z" fill="#09090A"/>
<path opacity="0.3" d="M581.651 151.781H548.79C548.093 151.781 547.527 152.34 547.527 153.031C547.527 153.721 548.093 154.28 548.79 154.28H581.651C582.348 154.28 582.914 153.721 582.914 153.031C582.914 152.34 582.348 151.781 581.651 151.781Z" fill="#09090A"/>
<path opacity="0.3" d="M520.518 144.261H532.46C533.158 144.261 533.724 143.702 533.724 143.012C533.724 142.321 533.158 141.762 532.46 141.762H520.518C518.808 141.762 517.418 140.387 517.418 138.698V116.331C517.418 114.641 518.808 113.266 520.518 113.266C521.216 113.266 521.782 112.707 521.782 112.017C521.782 111.327 521.216 110.768 520.518 110.768C517.415 110.768 514.891 113.263 514.891 116.331V138.698C514.891 141.766 517.415 144.261 520.518 144.261Z" fill="#09090A"/>
<path opacity="0.3" d="M528.704 122.108H568.944C571.796 122.108 574.115 119.815 574.115 116.995V110.022C574.115 109.332 573.55 108.772 572.852 108.772C572.153 108.772 571.588 109.332 571.588 110.022V116.995C571.588 118.436 570.402 119.609 568.944 119.609H528.704C527.247 119.609 526.062 118.436 526.062 116.995V106.585C526.062 105.144 527.247 103.972 528.704 103.972H568.944C570.004 103.972 570.959 104.595 571.376 105.558C571.65 106.193 572.395 106.487 573.036 106.215C573.678 105.943 573.975 105.209 573.7 104.575C572.884 102.69 571.017 101.473 568.944 101.473H528.704C525.853 101.473 523.533 103.766 523.533 106.585V116.995C523.533 119.815 525.853 122.108 528.704 122.108Z" fill="#09090A"/>
<path opacity="0.3" d="M565.876 113.662H531.772C531.074 113.662 530.508 114.221 530.508 114.911C530.508 115.602 531.074 116.161 531.772 116.161H565.876C566.575 116.161 567.141 115.602 567.141 114.911C567.141 114.221 566.575 113.662 565.876 113.662Z" fill="#09090A"/>
<path opacity="0.3" d="M565.876 107.419H531.772C531.074 107.419 530.508 107.978 530.508 108.669C530.508 109.359 531.074 109.918 531.772 109.918H565.876C566.575 109.918 567.141 109.359 567.141 108.669C567.141 107.978 566.575 107.419 565.876 107.419Z" fill="#09090A"/>
<path opacity="0.3" d="M563.58 176.658H522.068C521.37 176.658 520.805 177.218 520.805 177.909C520.805 178.598 521.37 179.158 522.068 179.158H563.579C564.277 179.158 564.844 178.598 564.844 177.909C564.844 177.218 564.278 176.658 563.58 176.658Z" fill="#09090A"/>
<path opacity="0.3" d="M563.58 170.416H522.068C521.37 170.416 520.805 170.975 520.805 171.664C520.805 172.355 521.37 172.914 522.068 172.914H563.579C564.277 172.914 564.844 172.355 564.844 171.664C564.844 170.975 564.278 170.416 563.58 170.416Z" fill="#09090A"/>
<path opacity="0.3" d="M592.602 139.648C591.904 139.648 591.338 140.207 591.338 140.898C591.338 141.588 591.904 142.147 592.602 142.147C594.184 142.147 595.472 143.42 595.472 144.985V170.7C595.472 172.266 594.184 173.538 592.602 173.538H586.746C586.048 173.538 585.482 174.097 585.482 174.787C585.482 175.477 586.048 176.037 586.746 176.037H592.602C595.578 176.037 597.999 173.643 597.999 170.7V144.985C597.999 142.042 595.578 139.648 592.602 139.648Z" fill="#09090A"/>
<path opacity="0.3" d="M577.014 163.575H552.306C551.607 163.575 551.042 164.134 551.042 164.826C551.042 165.515 551.607 166.075 552.306 166.075H577.014C579.119 166.075 580.831 167.768 580.831 169.849V179.726C580.831 181.807 579.119 183.5 577.014 183.5H520.344C518.24 183.5 516.527 181.807 516.527 179.726V169.849C516.527 167.768 518.24 166.075 520.344 166.075H547.25C547.948 166.075 548.515 165.515 548.515 164.826C548.515 164.134 547.948 163.575 547.25 163.575H520.344C516.846 163.575 514 166.39 514 169.849V179.726C514 183.185 516.846 185.999 520.344 185.999H577.014C580.512 185.999 583.359 183.185 583.359 179.726V169.849C583.359 166.39 580.512 163.575 577.014 163.575Z" fill="#09090A"/>
</g>
<path d="M571.727 177.151C571.727 176.492 571.807 175.968 571.967 175.577C572.127 175.187 572.419 174.803 572.843 174.427C573.271 174.046 573.555 173.738 573.697 173.502C573.838 173.262 573.908 173.01 573.908 172.747C573.908 171.952 573.541 171.554 572.807 171.554C572.459 171.554 572.179 171.662 571.967 171.879C571.76 172.091 571.652 172.385 571.642 172.761H569.596C569.605 171.862 569.894 171.159 570.464 170.651C571.038 170.143 571.819 169.889 572.807 169.889C573.804 169.889 574.579 170.131 575.129 170.615C575.68 171.096 575.955 171.776 575.955 172.655C575.955 173.055 575.865 173.434 575.687 173.792C575.508 174.145 575.195 174.538 574.748 174.97L574.176 175.514C573.819 175.858 573.614 176.26 573.562 176.721L573.534 177.151H571.727ZM571.522 179.318C571.522 179.003 571.628 178.744 571.84 178.542C572.056 178.335 572.332 178.232 572.666 178.232C573 178.232 573.273 178.335 573.485 178.542C573.701 178.744 573.809 179.003 573.809 179.318C573.809 179.629 573.703 179.886 573.491 180.087C573.285 180.29 573.009 180.391 572.666 180.391C572.322 180.391 572.045 180.29 571.833 180.087C571.626 179.886 571.522 179.629 571.522 179.318Z" fill="#D1D1D1"/>
<path d="M636.5 71.167H475.167C464.029 71.167 455 80.1586 455 91.2503V191.667C455 202.759 464.029 211.75 475.167 211.75H636.5C647.638 211.75 656.667 202.759 656.667 191.667V91.2503C656.667 80.1586 647.638 71.167 636.5 71.167Z" stroke="#D1D1D1" stroke-width="3" stroke-linecap="round" stroke-linejoin="round"/>
<path d="M515.5 71V51.0833C515.5 45.7569 517.625 40.6486 521.407 36.8823C525.189 33.1159 530.318 31 535.667 31H576C581.349 31 586.478 33.1159 590.26 36.8823C594.042 40.6486 596.167 45.7569 596.167 51.0833V71" stroke="#D1D1D1" stroke-width="3" stroke-linecap="round" stroke-linejoin="round"/>
</svg>
